<svg xmlns="http://www.w3.org/2000/svg" fill="none" viewBox="0 0 256 256" id="A11y-Accessibility-Disability--Streamline-Ultimate" height="256" width="256">
  <desc>
    A11y Accessibility Disability Streamline Icon: https://streamlinehq.com
  </desc>
  <path fill="#ffffff" d="M183.296 188.23039999999997c-2.4512 -3.6768 -7.418666666666667 -4.669866666666667 -11.0944 -2.219733333333333 -3.6768 2.4512 -4.669866666666667 7.418666666666667 -2.2186666666666666 11.0944l15.590399999999999 23.386666666666663v22.978133333333332c0 4.4181333333333335 3.5818666666666665 8 8 8s8 -3.5818666666666665 8 -8v-22.978133333333332l15.591466666666665 -23.386666666666663c2.4512 -3.6757333333333335 1.4570666666666665 -8.6432 -2.2186666666666666 -11.0944 -3.6768 -2.450133333333333 -8.6432 -1.4570666666666665 -11.0944 2.219733333333333l-10.2784 15.416533333333334 -10.277333333333333 -15.416533333333334Z" stroke-width="10.6667"></path>
  <path fill="#ffffff" fill-rule="evenodd" d="m82.71317333333333 224.42666666666665 -7.396906666666666 -29.588266666666662c-1.4938666666666667 -5.9744 -6.8625066666666665 -10.1664 -13.021653333333333 -10.1664 -6.1591466666666665 0 -11.527786666666666 4.192 -13.021653333333333 10.1664L41.875946666666664 224.42666666666665c-0.030293333333333332 0.11093333333333333 -0.058346666666666665 0.224 -0.08405333333333333 0.3370666666666667l-4.193066666666667 16.772266666666667c-1.0715733333333333 4.285866666666666 1.5345066666666665 8.629333333333333 5.820906666666667 9.701333333333332 4.286293333333333 1.0709333333333333 8.62976 -1.5349333333333333 9.701333333333332 -5.820799999999999l2.71872 -10.875733333333333h12.909653333333333l2.71872 10.875733333333333c1.0715733333333333 4.285866666666666 5.415039999999999 6.891733333333333 9.70144 5.820799999999999 4.286293333333333 -1.072 6.892373333333333 -5.415466666666667 5.820799999999999 -9.701333333333332l-4.193066666666667 -16.772266666666667c-0.025706666666666662 -0.11306666666666666 -0.05376 -0.22613333333333333 -0.08415999999999998 -0.3370666666666667Zm-20.41856 -15.704533333333332 -2.45472 9.818666666666665h4.9095466666666665l-2.4548266666666665 -9.818666666666665Z" clip-rule="evenodd" stroke-width="10.6667"></path>
  <path fill="#ffffff" d="M119.70453333333333 192.67199999999997c0 -4.4181333333333335 -3.5818666666666665 -8 -8 -8s-8.000213333333333 3.5818666666666665 -8.000213333333333 8v1.6117333333333335c-0.00042666666666666667 1.7066666666666666 -1.3834666666666666 3.0890666666666666 -3.0896 3.0890666666666666h-1.6114133333333334c-4.41824 0 -8 3.5818666666666665 -8 8s3.5817599999999996 8 8 8h1.6114133333333334c1.0519466666666666 0 2.0839466666666664 -0.08533333333333333 3.0896 -0.24853333333333333v22.351999999999997h-4.701013333333333c-4.41824 0 -8 3.5808 -8 8 0 4.4181333333333335 3.5817599999999996 8 8 8H124.40533333333333c4.4181333333333335 0 8 -3.5818666666666665 8 -8 0 -4.4192 -3.5818666666666665 -8 -8 -8h-4.700799999999999V192.67199999999997Z" stroke-width="10.6667"></path>
  <path fill="#ffffff" d="M154.9568 184.67199999999997c4.4192 0 8 3.5818666666666665 8 8v42.80426666666666h4.701866666666667c4.4181333333333335 0 8 3.5808 8 8 0 4.4181333333333335 -3.5818666666666665 8 -8 8h-25.402666666666665c-4.4181333333333335 0 -8 -3.5818666666666665 -8 -8 0 -4.4192 3.5818666666666665 -8 8 -8h4.700799999999999v-22.351999999999997c-1.0048 0.16319999999999998 -2.037333333333333 0.24853333333333333 -3.0890666666666666 0.24853333333333333h-1.6117333333333335c-4.4181333333333335 0 -8 -3.5818666666666665 -8 -8s3.5818666666666665 -8 8 -8h1.6117333333333335c1.7055999999999998 0 3.0890666666666666 -1.3823999999999999 3.0890666666666666 -3.0890666666666666v-1.6117333333333335c0 -4.4181333333333335 3.5818666666666665 -8 8 -8Z" stroke-width="10.6667"></path>
  <path fill="#ffffff" fill-rule="evenodd" d="M220.42666666666665 89.78890666666666c0 48.34976 -39.19466666666666 87.54442666666667 -87.54453333333333 87.54442666666667 -48.3488 0 -87.54357333333333 -39.19466666666666 -87.54357333333333 -87.54442666666667 0 -48.349333333333334 39.19477333333333 -87.54411733333333 87.54357333333333 -87.54411733333333 48.349866666666664 0 87.54453333333333 39.194784 87.54453333333333 87.54411733333333Zm-71.46773333333333 -50.42656c0 9.525653333333333 -7.7216 17.247786666666666 -17.247999999999998 17.247786666666666 -9.525333333333332 0 -17.24693333333333 -7.722133333333333 -17.24693333333333 -17.247786666666666 0 -9.525653333333333 7.7216 -17.247786666666666 17.24693333333333 -17.247786666666666 9.526399999999999 0 17.247999999999998 7.722133333333333 17.247999999999998 17.247786666666666Zm24.764799999999997 46.65568 -25.3184 5.65888v14.803199999999999l13.671466666666667 28.395626666666665c2.48 5.1488 0.3157333333333333 11.333333333333332 -4.834133333333333 13.813333333333333 -5.149866666666666 2.478933333333333 -11.334399999999999 0.31466666666666665 -13.813333333333333 -4.8351999999999995l-10.546133333333334 -21.904 -10.5472 21.904c-2.478933333333333 5.149866666666666 -8.663466666666666 7.3141333333333325 -13.813333333333333 4.8351999999999995 -5.149333333333333 -2.48 -7.3139199999999995 -8.664533333333333 -4.83456 -13.813333333333333l13.671893333333333 -28.395733333333332V91.67690666666665l-25.317866666666664 -5.65888c-5.577813333333333 -1.2467199999999998 -9.088853333333333 -6.7789866666666665 -7.842133333333333 -12.3568 1.2467199999999998 -5.577813333333333 6.779093333333333 -9.088746666666665 12.3568 -7.842133333333333l31.672533333333334 7.079253333333334c3.0645333333333333 0.6850133333333333 6.242133333333333 0.6850133333333333 9.306666666666667 0l31.672533333333334 -7.079253333333334c5.5776 -1.2466133333333334 11.1104 2.2643199999999997 12.357333333333333 7.842133333333333 1.2458666666666667 5.577813333333333 -2.264533333333333 11.11008 -7.842133333333333 12.3568Z" clip-rule="evenodd" stroke-width="10.6667"></path>
</svg>