<svg xmlns="http://www.w3.org/2000/svg" id="Accounting-Coins--Streamline-Ultimate" width="256" height="256" viewBox="0 0 256 256"><desc>Accounting Coins Streamline Icon: https://streamlinehq.com</desc><g id="Accounting-Coins--Streamline-Ultimate.svg"><path fill="#fff" stroke-width="10.667" d="M81.81333333333333 98.24000000000001A2.453333333333333 2.453333333333333 0 0 0 79.14666666666666 96 80 80 0 1 0 160 176.74666666666667a2.453333333333333 2.453333333333333 0 0 0 -2.1333333333333333 -2.5599999999999996 96 96 0 0 1 -76.05333333333333 -75.94666666666666Zm18.453333333333333 53.33333333333333a8 8 0 0 1 -8 8h-20.266666666666666a5.4399999999999995 5.4399999999999995 0 0 0 -5.333333333333333 5.4399999999999995 5.119999999999999 5.119999999999999 0 0 0 3.413333333333333 4.906666666666666l20.479999999999997 8.213333333333333a21.333333333333332 21.333333333333332 0 0 1 -3.1999999999999997 40.53333333333333 2.7733333333333334 2.7733333333333334 0 0 0 -2.0266666666666664 2.6666666666666665V224a8 8 0 0 1 -16 0v-1.8133333333333335a2.6666666666666665 2.6666666666666665 0 0 0 -2.6666666666666665 -2.6666666666666665h-4.266666666666667a8 8 0 0 1 0 -16h20.266666666666666a5.333333333333333 5.333333333333333 0 0 0 5.333333333333333 -5.333333333333333 5.119999999999999 5.119999999999999 0 0 0 -3.3066666666666666 -4.906666666666666L64 184.95999999999998a21.333333333333332 21.333333333333332 0 0 1 -13.44 -19.733333333333334 21.333333333333332 21.333333333333332 0 0 1 16.64 -21.333333333333332 2.5599999999999996 2.5599999999999996 0 0 0 2.0266666666666664 -2.5599999999999996v-2.453333333333333a8 8 0 0 1 16 0v1.7066666666666666a2.6666666666666665 2.6666666666666665 0 0 0 2.6666666666666665 2.6666666666666665h4.266666666666667a8.106666666666666 8.106666666666666 0 0 1 8.106666666666666 8.533333333333333Z"/><path fill="#fff" stroke-width="10.667" d="M176 0A80 80 0 1 0 256 80 80 80 0 0 0 176 0Zm0 140.90666666666667a8.106666666666666 8.106666666666666 0 0 1 -8 -8V128a2.6666666666666665 2.6666666666666665 0 0 0 -2.6666666666666665 -2.6666666666666665h-8a8 8 0 0 1 0 -16h25.28a8.746666666666666 8.746666666666666 0 0 0 8.746666666666666 -8.746666666666666 8.533333333333333 8.533333333333333 0 0 0 -5.546666666666667 -8l-25.599999999999998 -10.666666666666666a24.426666666666666 24.426666666666666 0 0 1 -15.573333333333332 -22.826666666666668 24.746666666666663 24.746666666666663 0 0 1 21.333333333333332 -24.426666666666666 2.5599999999999996 2.5599999999999996 0 0 0 2.0266666666666664 -2.6666666666666665v-5.333333333333333a8 8 0 1 1 16 0V32a2.6666666666666665 2.6666666666666665 0 0 0 2.6666666666666665 2.6666666666666665h8a8 8 0 0 1 0 16h-25.28a8.746666666666666 8.746666666666666 0 0 0 -8.746666666666666 8.746666666666666 8.533333333333333 8.533333333333333 0 0 0 5.546666666666667 8l25.599999999999998 10.666666666666666a24.426666666666666 24.426666666666666 0 0 1 15.573333333333332 22.826666666666668 24.746666666666663 24.746666666666663 0 0 1 -21.333333333333332 24.426666666666666 2.5599999999999996 2.5599999999999996 0 0 0 -2.2399999999999998 2.5599999999999996v5.333333333333333a8.106666666666666 8.106666666666666 0 0 1 -7.786666666666666 7.68Z"/></g></svg>