<svg xmlns="http://www.w3.org/2000/svg" viewBox="0 0 256 256" id="Accounting-Bill-Stack-1--Streamline-Ultimate" height="256" width="256">
  <desc>
    Accounting Bill Stack 1 Streamline Icon: https://streamlinehq.com
  </desc>
  <g id="Accounting-Bill-Stack-1--Streamline-Ultimate.svg">
    <path d="m243.83999999999997 80.96 -58.02666666666667 38.72a10.666666666666666 10.666666666666666 0 0 1 -5.973333333333334 1.8133333333333335H117.33333333333333a7.893333333333333 7.893333333333333 0 0 0 0 15.68h67.94666666666666a8.426666666666666 8.426666666666666 0 0 0 4.373333333333333 -1.3866666666666667l62.61333333333333 -41.70666666666666a7.893333333333333 7.893333333333333 0 0 0 -8.64 -13.12Z" fill="#ffffff" stroke-width="10.6667"></path>
    <path d="m243.83999999999997 114.98666666666665 -58.02666666666667 38.61333333333333a10.666666666666666 10.666666666666666 0 0 1 -5.973333333333334 1.8133333333333335H117.33333333333333A7.893333333333333 7.893333333333333 0 0 0 117.33333333333333 170.66666666666666h67.94666666666666a7.68 7.68 0 0 0 4.266666666666667 -1.2799999999999998l62.93333333333334 -41.38666666666666a7.893333333333333 7.893333333333333 0 0 0 2.2399999999999998 -10.666666666666666 7.786666666666666 7.786666666666666 0 0 0 -10.879999999999999 -2.3466666666666667Z" fill="#ffffff" stroke-width="10.6667"></path>
    <path d="m243.83999999999997 149.33333333333331 -58.02666666666667 38.72a10.666666666666666 10.666666666666666 0 0 1 -5.973333333333334 1.8133333333333335H117.33333333333333a7.786666666666666 7.786666666666666 0 1 0 0 15.573333333333332h67.94666666666666a8.32 8.32 0 0 0 4.373333333333333 -1.2799999999999998l62.61333333333333 -41.81333333333333a7.893333333333333 7.893333333333333 0 0 0 2.2399999999999998 -10.666666666666666 8 8 0 0 0 -10.666666666666666 -2.3466666666666667Z" fill="#ffffff" stroke-width="10.6667"></path>
    <path d="M60.05333333333333 121.49333333333334H7.786666666666666a7.893333333333333 7.893333333333333 0 0 0 0 15.68h52.266666666666666a7.893333333333333 7.893333333333333 0 1 0 0 -15.68Z" fill="#ffffff" stroke-width="10.6667"></path>
    <path d="M60.05333333333333 155.41333333333333H7.786666666666666a7.893333333333333 7.893333333333333 0 0 0 0 15.253333333333332h52.266666666666666a7.893333333333333 7.893333333333333 0 1 0 0 -15.68Z" fill="#ffffff" stroke-width="10.6667"></path>
    <path d="M60.05333333333333 189.44H7.786666666666666a7.786666666666666 7.786666666666666 0 1 0 0 15.573333333333332h52.266666666666666a7.786666666666666 7.786666666666666 0 1 0 0 -15.573333333333332Z" fill="#ffffff" stroke-width="10.6667"></path>
    <path d="M122.88 97.91999999999999a5.226666666666667 5.226666666666667 0 0 0 5.226666666666667 5.226666666666667h57.38666666666666a5.653333333333333 5.653333333333333 0 0 0 2.88 -0.8533333333333333l62.72 -41.81333333333333a5.013333333333333 5.013333333333333 0 0 0 2.0266666666666664 -5.866666666666667 5.119999999999999 5.119999999999999 0 0 0 -4.906666666666666 -3.626666666666667h-57.493333333333325a4.586666666666666 4.586666666666666 0 0 0 -2.88 0.8533333333333333l-62.72 41.70666666666666a5.4399999999999995 5.4399999999999995 0 0 0 -2.2399999999999998 4.373333333333333Z" fill="#ffffff" stroke-width="10.6667"></path>
    <path d="M133.01333333333332 54.61333333333333a5.226666666666667 5.226666666666667 0 0 0 -5.013333333333333 -3.626666666666667H70.93333333333334a4.8 4.8 0 0 0 -2.88 0.8533333333333333L5.4399999999999995 93.54666666666665a5.333333333333333 5.333333333333333 0 0 0 -2.1333333333333333 5.653333333333333 5.119999999999999 5.119999999999999 0 0 0 5.013333333333333 3.9466666666666663h56.959999999999994a5.333333333333333 5.333333333333333 0 0 0 2.88 -0.8533333333333333l62.72 -41.81333333333333a5.226666666666667 5.226666666666667 0 0 0 2.1333333333333333 -5.866666666666667Z" fill="#ffffff" stroke-width="10.6667"></path>
  </g>
</svg>