<svg xmlns="http://www.w3.org/2000/svg" viewBox="0 0 256 256" id="Accounting-Calculator-1--Streamline-Ultimate" height="256" width="256">
  <desc>
    Accounting Calculator 1 Streamline Icon: https://streamlinehq.com
  </desc>
  <g id="Accounting-Calculator-1--Streamline-Ultimate.svg">
    <path d="M136 165.33333333333331a2.6666666666666665 2.6666666666666665 0 0 0 -2.6666666666666665 2.6666666666666665v85.33333333333333a2.6666666666666665 2.6666666666666665 0 0 0 2.6666666666666665 2.6666666666666665H192a32 32 0 0 0 32 -32v-56a2.6666666666666665 2.6666666666666665 0 0 0 -2.6666666666666665 -2.6666666666666665ZM160 192h32a5.333333333333333 5.333333333333333 0 0 1 0 10.666666666666666h-32a5.333333333333333 5.333333333333333 0 0 1 0 -10.666666666666666Zm0 21.333333333333332h32a5.333333333333333 5.333333333333333 0 0 1 0 10.666666666666666h-32a5.333333333333333 5.333333333333333 0 0 1 0 -10.666666666666666Z" fill="#ffffff" stroke-width="10.6667"></path>
    <path d="M122.66666666666666 168a2.6666666666666665 2.6666666666666665 0 0 0 -2.6666666666666665 -2.6666666666666665h-85.33333333333333a2.6666666666666665 2.6666666666666665 0 0 0 -2.6666666666666665 2.6666666666666665V224a32 32 0 0 0 32 32h56a2.6666666666666665 2.6666666666666665 0 0 0 2.6666666666666665 -2.6666666666666665Zm-62.39999999999999 27.733333333333334a5.226666666666667 5.226666666666667 0 0 1 7.466666666666666 -7.466666666666666l10.666666666666666 10.666666666666666a2.88 2.88 0 0 0 3.84 0l10.666666666666666 -10.666666666666666a5.226666666666667 5.226666666666667 0 0 1 7.466666666666666 7.466666666666666l-10.666666666666666 10.666666666666666a2.88 2.88 0 0 0 0 3.84l10.666666666666666 10.666666666666666a5.119999999999999 5.119999999999999 0 0 1 0 7.466666666666666 5.119999999999999 5.119999999999999 0 0 1 -7.466666666666666 0l-10.666666666666666 -10.666666666666666a2.88 2.88 0 0 0 -3.84 0l-10.666666666666666 10.666666666666666a5.119999999999999 5.119999999999999 0 0 1 -7.466666666666666 0 5.119999999999999 5.119999999999999 0 0 1 0 -7.466666666666666l10.666666666666666 -10.666666666666666a2.88 2.88 0 0 0 0 -3.84Z" fill="#ffffff" stroke-width="10.6667"></path>
    <path d="M170.66666666666666 61.33333333333333a8.106666666666666 8.106666666666666 0 0 0 8 -8V37.33333333333333a8 8 0 0 0 -16 0V53.33333333333333a8.106666666666666 8.106666666666666 0 0 0 8 8Z" fill="#ffffff" stroke-width="10.6667"></path>
    <path d="M192 0H64a32 32 0 0 0 -32 32v120a2.6666666666666665 2.6666666666666665 0 0 0 2.6666666666666665 2.6666666666666665h85.33333333333333a2.6666666666666665 2.6666666666666665 0 0 0 2.6666666666666665 -2.6666666666666665v-80a2.6666666666666665 2.6666666666666665 0 0 0 -2.6666666666666665 -2.6666666666666665h-64A2.6666666666666665 2.6666666666666665 0 0 1 53.33333333333333 66.66666666666666V32a10.666666666666666 10.666666666666666 0 0 1 10.666666666666666 -10.666666666666666h128a10.666666666666666 10.666666666666666 0 0 1 10.666666666666666 10.666666666666666v34.666666666666664a2.6666666666666665 2.6666666666666665 0 0 1 -2.6666666666666665 2.6666666666666665h-64a2.6666666666666665 2.6666666666666665 0 0 0 -2.6666666666666665 2.6666666666666665v80a2.6666666666666665 2.6666666666666665 0 0 0 2.6666666666666665 2.6666666666666665h85.33333333333333a2.6666666666666665 2.6666666666666665 0 0 0 2.6666666666666665 -2.6666666666666665V32a32 32 0 0 0 -32 -32ZM96 122.66666666666666h-8a2.6666666666666665 2.6666666666666665 0 0 0 -2.6666666666666665 2.6666666666666665v8a5.333333333333333 5.333333333333333 0 0 1 -10.666666666666666 0v-8a2.6666666666666665 2.6666666666666665 0 0 0 -2.6666666666666665 -2.6666666666666665H64a5.333333333333333 5.333333333333333 0 0 1 0 -10.666666666666666h8a2.6666666666666665 2.6666666666666665 0 0 0 2.6666666666666665 -2.6666666666666665V101.33333333333333a5.333333333333333 5.333333333333333 0 0 1 10.666666666666666 0v8a2.6666666666666665 2.6666666666666665 0 0 0 2.6666666666666665 2.6666666666666665H96a5.333333333333333 5.333333333333333 0 0 1 0 10.666666666666666Zm96 0h-32a5.333333333333333 5.333333333333333 0 0 1 0 -10.666666666666666h32a5.333333333333333 5.333333333333333 0 0 1 0 10.666666666666666Z" fill="#ffffff" stroke-width="10.6667"></path>
  </g>
</svg>