<svg xmlns="http://www.w3.org/2000/svg" fill="none" viewBox="0 0 256 256" id="Acupuncture-Back--Streamline-Ultimate" height="256" width="256">
  <desc>
    Acupuncture Back Streamline Icon: https://streamlinehq.com
  </desc>
  <path fill="#ffffff" fill-rule="evenodd" d="M169.6 48.26687999999999c0 -13.254826666666666 10.744533333333333 -24 24 -24 13.254399999999999 0 24 10.745173333333334 24 24 0 13.254933333333334 -10.7456 24 -24 24 -0.04373333333333333 0 -0.08639999999999999 -0.00010666666666666667 -0.12906666666666666 -0.00031999999999999997l-17.95733333333333 49.14570666666666c-1.5157333333333334 4.150399999999999 -6.109866666666666 6.284799999999999 -10.2592 4.768 -4.150399999999999 -1.5157333333333334 -6.284799999999999 -6.1088 -4.769066666666666 -10.2592l17.928533333333334 -49.06837333333333c-5.380266666666666 -4.4011733333333325 -8.813866666666666 -11.092479999999998 -8.813866666666666 -18.585813333333334Z" clip-rule="evenodd" stroke-width="10.6667"></path>
  <path fill="#ffffff" fill-rule="evenodd" d="M19.199893333333332 102.66666666666666c0 -13.254826666666666 10.745173333333334 -24 24 -24s24 10.745173333333334 24 24c0 10.404266666666667 -6.620693333333333 19.262933333333333 -15.878826666666665 22.590933333333332l0.5870933333333332 32.29333333333333c-2.1986133333333333 0.6208 -4.393173333333333 1.2458666666666667 -6.5785599999999995 1.8677333333333332l-0.09173333333333333 0.025599999999999998c-3.096 0.8810666666666667 -6.176853333333334 1.7578666666666667 -9.25024 2.6197333333333335l-0.6676266666666667 -36.721066666666665c-9.384213333333333 -3.2608 -16.120106666666665 -12.181333333333331 -16.120106666666665 -22.676266666666667Z" clip-rule="evenodd" stroke-width="10.6667"></path>
  <path fill="#ffffff" fill-rule="evenodd" d="M239.4656 173.79840000000002c-0.17066666666666666 -17.969066666666667 -13.977599999999999 -31.665066666666664 -31.99893333333333 -31.665066666666664 -13.236266666666666 0 -24.529066666666665 7.774933333333333 -29.239466666666665 19.614933333333333 2.6378666666666666 2.7136 4.6655999999999995 5.090133333333333 6.2645333333333335 7.009066666666667l1.0464 1.2586666666666666 0.0021333333333333334 0.0021333333333333334c0.7765333333333333 0.9343999999999999 1.2736 1.5338666666666667 1.6682666666666668 1.9818666666666664H229.86666666666667c3.1445333333333334 0 6.417066666666667 0.6581333333333332 9.598933333333333 1.7984Z" clip-rule="evenodd" stroke-width="10.6667"></path>
  <path fill="#ffffff" fill-rule="evenodd" d="M77.86655999999999 86.66666666666666c0 -13.254826666666666 10.745173333333334 -24 24 -24C115.12106666666666 62.666666666666664 125.86666666666667 73.41184 125.86666666666667 86.66666666666666c0 10.404373333333332 -6.6208 19.262506666666667 -15.879466666666666 22.590933333333332l0.6602666666666666 36.294399999999996c-5.2920533333333335 0.31146666666666667 -10.628693333333333 0.944 -15.969706666666667 1.8037333333333332l-0.6910933333333333 -38.0128c-9.384213333333333 -3.260373333333333 -16.120106666666665 -12.181653333333333 -16.120106666666665 -22.676266666666667Z" clip-rule="evenodd" stroke-width="10.6667"></path>
  <path fill="#ffffff" fill-rule="evenodd" d="M25.066666666666666 181.59999999999997c8.261759999999999 -2.1322666666666663 16.457066666666666 -4.4639999999999995 24.535786666666667 -6.762666666666666 24.255146666666665 -6.9013333333333335 47.46005333333333 -13.504 68.26421333333333 -13.504 21.333333333333332 0 37.33333333333333 0 48 10.666666666666666 3.1242666666666663 3.1242666666666663 5.333333333333333 5.790933333333333 7.163733333333333 8 0.5514666666666667 0.6666666666666666 1.0698666666666665 1.2917333333333332 1.5679999999999998 1.8752 1.4026666666666667 1.643733333333333 2.6496 2.9568 4.068266666666666 3.9392 2.1056 1.4570666666666665 4.590933333333333 2.1856 8.533333333333333 2.1856h42.666666666666664c4.999466666666667 0 16.562133333333332 5.624533333333333 17.988266666666664 16.874666666666666 0.09493333333333333 0.7498666666666667 0.14506666666666665 1.5253333333333332 0.14506666666666665 2.325333333333333 0 12.799999999999999 -12.799999999999999 18.133333333333333 -18.133333333333333 18.133333333333333l-51.508266666666664 0c-5.667199999999999 -1.2650666666666666 -11.767466666666666 -4.689066666666666 -17.757866666666665 -9.282133333333332 -6.226133333333333 -4.773333333333333 -11.36 -10.018133333333333 -14.897066666666667 -13.633066666666666l-0.0010666666666666667 0c-0.7007999999999999 -0.7167999999999999 -1.3397333333333332 -1.3695999999999997 -1.9125333333333332 -1.9413333333333331 -3.1242666666666663 -3.1242666666666663 -8.189866666666667 -3.1242666666666663 -11.313066666666666 0 -3.1242666666666663 3.1242666666666663 -3.1242666666666663 8.1888 0 11.313066666666666 0.448 0.4490666666666666 0.9877333333333334 1.0015999999999998 1.6117333333333335 1.6405333333333332 2.7711999999999994 2.8384 7.1946666666666665 7.368533333333333 12.547199999999998 11.902933333333332l-119.43573333333333 0c-10.666666666666666 0 -19.199968 -11.733333333333334 -19.2 -22.4 0.000032 -10.666666666666666 7.466666666666666 -20.266666666666666 17.066666666666666 -21.333333333333332Z" clip-rule="evenodd" stroke-width="10.6667"></path>
</svg>