<svg xmlns="http://www.w3.org/2000/svg" viewBox="0 0 256 256" id="Add-Circle-Bold--Streamline-Ultimate" height="256" width="256">
  <desc>
    Add Circle Bold Streamline Icon: https://streamlinehq.com
  </desc>
  <path d="M5.333333333333333 128A122.66666666666666 122.66666666666666 0 1 0 128 5.333333333333333 122.77333333333333 122.77333333333333 0 0 0 5.333333333333333 128Zm53.33333333333333 -5.333333333333333a10.666666666666666 10.666666666666666 0 0 1 10.666666666666666 -10.666666666666666h40a2.6666666666666665 2.6666666666666665 0 0 0 2.6666666666666665 -2.6666666666666665V69.33333333333333a10.666666666666666 10.666666666666666 0 0 1 10.666666666666666 -10.666666666666666h10.666666666666666a10.666666666666666 10.666666666666666 0 0 1 10.666666666666666 10.666666666666666v40a2.6666666666666665 2.6666666666666665 0 0 0 2.6666666666666665 2.6666666666666665h40a10.666666666666666 10.666666666666666 0 0 1 10.666666666666666 10.666666666666666v10.666666666666666a10.666666666666666 10.666666666666666 0 0 1 -10.666666666666666 10.666666666666666h-40a2.6666666666666665 2.6666666666666665 0 0 0 -2.6666666666666665 2.6666666666666665v40a10.666666666666666 10.666666666666666 0 0 1 -10.666666666666666 10.666666666666666h-10.666666666666666a10.666666666666666 10.666666666666666 0 0 1 -10.666666666666666 -10.666666666666666v-40a2.6666666666666665 2.6666666666666665 0 0 0 -2.6666666666666665 -2.6666666666666665H69.33333333333333a10.666666666666666 10.666666666666666 0 0 1 -10.666666666666666 -10.666666666666666Z" fill="#ffffff" stroke-width="10.6667"></path>
</svg>