<svg xmlns="http://www.w3.org/2000/svg" id="Adguard-Logo--Streamline-Ultimate" width="256" height="256" viewBox="0 0 256 256"><desc>Adguard Logo Streamline Icon: https://streamlinehq.com</desc><path fill="#fff" stroke-width="10.667" d="M253.01333333333332 27.199999999999996A304.96 304.96 0 0 0 128 0 304.96 304.96 0 0 0 2.986666666666667 27.199999999999996 5.4399999999999995 5.4399999999999995 0 0 0 0 32c0 106.66666666666666 42.666666666666664 181.33333333333331 125.65333333333332 224a5.4399999999999995 5.4399999999999995 0 0 0 4.693333333333333 0C213.33333333333331 213.33333333333331 256 138.66666666666666 256 32a5.4399999999999995 5.4399999999999995 0 0 0 -2.986666666666667 -4.8ZM104.53333333333333 109.65333333333332l18.453333333333333 19.733333333333334 55.14666666666666 -56.74666666666667a24.426666666666666 24.426666666666666 0 0 1 26.77333333333333 -2.3466666666666667l-80.42666666666666 109.86666666666667 -61.33333333333333 -69.75999999999999s26.346666666666668 -16.96 41.38666666666666 -0.7466666666666667Z"/></svg>