<svg xmlns="http://www.w3.org/2000/svg" id="Adventure-Car-Truck-1--Streamline-Ultimate" width="256" height="256" viewBox="0 0 256 256"><desc>Adventure Car Truck 1 Streamline Icon: https://streamlinehq.com</desc><path fill="#fff" stroke-width="10.667" d="M224.74666666666667 89.91999999999999a2.453333333333333 2.453333333333333 0 0 1 -0.7466666666666667 -2.88 2.5599999999999996 2.5599999999999996 0 0 1 2.5599999999999996 -1.7066666666666666H234.66666666666666a10.666666666666666 10.666666666666666 0 0 0 10.666666666666666 -10.666666666666666V45.33333333333333a10.666666666666666 10.666666666666666 0 0 0 -10.666666666666666 -10.666666666666666h-13.333333333333332A2.6666666666666665 2.6666666666666665 0 0 1 218.66666666666666 32v-5.333333333333333A16 16 0 0 0 202.66666666666666 10.666666666666666H53.33333333333333a16 16 0 0 0 -16 16V32a2.6666666666666665 2.6666666666666665 0 0 1 -2.6666666666666665 2.6666666666666665H21.333333333333332a10.666666666666666 10.666666666666666 0 0 0 -10.666666666666666 10.666666666666666V74.66666666666666a10.666666666666666 10.666666666666666 0 0 0 10.666666666666666 10.666666666666666h8.106666666666666a2.5599999999999996 2.5599999999999996 0 0 1 2.5599999999999996 1.7066666666666666 2.453333333333333 2.453333333333333 0 0 1 -0.6399999999999999 2.88l-22.72 21.333333333333332a16.426666666666666 16.426666666666666 0 0 0 -3.1999999999999997 9.6V170.66666666666666A16 16 0 0 0 21.333333333333332 186.66666666666666h2.6666666666666665a2.6666666666666665 2.6666666666666665 0 0 1 2.6666666666666665 2.6666666666666665v40A16 16 0 0 0 42.666666666666664 245.33333333333331h21.333333333333332a16 16 0 0 0 16 -16v-40a2.6666666666666665 2.6666666666666665 0 0 1 2.6666666666666665 -2.6666666666666665h90.88a2.6666666666666665 2.6666666666666665 0 0 1 2.6666666666666665 2.6666666666666665v40A16 16 0 0 0 192 245.33333333333331h21.333333333333332a16 16 0 0 0 16 -16v-40a2.6666666666666665 2.6666666666666665 0 0 1 2.6666666666666665 -2.6666666666666665H234.66666666666666a16 16 0 0 0 16 -16v-49.81333333333333a15.253333333333332 15.253333333333332 0 0 0 -3.84 -10.666666666666666ZM85.33333333333333 165.33333333333331a5.333333333333333 5.333333333333333 0 0 1 -5.333333333333333 -5.333333333333333v-10.666666666666666a10.666666666666666 10.666666666666666 0 0 1 10.666666666666666 -10.666666666666666h74.66666666666666a10.666666666666666 10.666666666666666 0 0 1 7.573333333333332 3.093333333333333 10.666666666666666 10.666666666666666 0 0 1 3.093333333333333 7.573333333333332v10.666666666666666a5.333333333333333 5.333333333333333 0 0 1 -5.333333333333333 5.333333333333333Zm-26.666666666666664 -85.33333333333333v-42.666666666666664A5.333333333333333 5.333333333333333 0 0 1 64 32h50.666666666666664a5.333333333333333 5.333333333333333 0 0 1 5.333333333333333 5.333333333333333v42.666666666666664a5.333333333333333 5.333333333333333 0 0 1 -5.333333333333333 5.333333333333333H64a5.333333333333333 5.333333333333333 0 0 1 -5.119999999999999 -5.653333333333333Zm77.33333333333333 0v-42.666666666666664a5.333333333333333 5.333333333333333 0 0 1 5.333333333333333 -5.333333333333333H192a5.333333333333333 5.333333333333333 0 0 1 5.333333333333333 5.333333333333333v42.666666666666664a5.333333333333333 5.333333333333333 0 0 1 -5.333333333333333 5.333333333333333h-50.45333333333333a5.333333333333333 5.333333333333333 0 0 1 -5.333333333333333 -5.653333333333333ZM42.666666666666664 133.33333333333331A16 16 0 1 1 26.666666666666664 149.33333333333331 16 16 0 0 1 42.666666666666664 133.33333333333331Zm170.66666666666666 32a16 16 0 1 1 16 -16 16 16 0 0 1 -16 16Z"/></svg>