<svg xmlns="http://www.w3.org/2000/svg" fill="none" viewBox="0 0 256 256" id="Aerial-Yogabasic-Inversion-Pose--Streamline-Ultimate" height="256" width="256">
  <desc>
    Aerial Yogabasic Inversion Pose Streamline Icon: https://streamlinehq.com
  </desc>
  <path fill="#ffffff" fill-rule="evenodd" d="M63.47626666666666 91.58186666666667 84.97279999999999 2.5599999999999996h26.977066666666666L84.13013333333333 110.80213333333333 63.47626666666666 91.58186666666667Zm129.0656 -0.7584L171.29706666666667 2.5599999999999996h-26.976l27.818666666666665 107.39946666666665 20.40213333333333 -19.136Zm-85.2448 -15.966933333333332h41.84426666666666l11.123199999999999 42.87466666666666c0.21333333333333332 0.8234666666666667 0.5024 1.6170666666666667 0.8575999999999999 2.3701333333333334l-0.07573333333333333 0.07466666666666666v35.60853333333333l59.078399999999995 39.19253333333333c7.553066666666666 4.315733333333333 10.7904 14.027733333333332 6.473599999999999 22.660266666666665 -5.3952 9.710933333333333 -17.264 12.948266666666665 -25.89653333333333 7.553066666666666l-21.5936 -14.769066666666667c-2.626133333333333 -25.834666666666667 -24.445866666666664 -45.995733333333334 -50.973866666666666 -45.995733333333334 -26.667733333333334 0 -48.576 20.371199999999998 -51.0144 46.40213333333333l-21.821866666666665 14.362666666666666c-9.710933333333333 5.3952 -21.5808 2.1578666666666666 -25.89653333333333 -7.553066666666666 -4.3168 -7.554133333333334 -1.0794666666666666 -18.34453333333333 6.473599999999999 -22.660266666666665l59.34826666666667 -38.111999999999995v-35.17653333333333c0.1056 -0.31253333333333333 0.20053333333333334 -0.6314666666666666 0.2826666666666666 -0.9535999999999999l11.790933333333331 -45.8784Zm84.96853333333333 -42.81706666666666 11.2224 46.62613333333333 12.858666666666666 -12.576c8.632533333333333 -7.554133333333334 8.632533333333333 -20.502399999999998 2.1578666666666666 -29.13493333333333 -6.478933333333334 -8.330666666666666 -17.722666666666665 -9.514666666666667 -26.238933333333335 -4.9152ZM64.2464 30.92373333333333c-8.3072 -4.038399999999999 -18.676266666666663 -1.8367999999999998 -24.796799999999998 6.0309333333333335 -7.553066666666666 8.632533333333333 -6.474666666666666 21.581866666666663 2.1578666666666666 29.13493333333333L52.93973333333333 77.74933333333333l11.306666666666667 -46.825599999999994Zm26.1152 184.7424c0 -20.86293333333333 16.912 -37.77493333333333 37.77493333333333 -37.77493333333333 20.860799999999998 0 37.77386666666666 16.912 37.77386666666666 37.77493333333333 0 20.861866666666664 -16.913066666666666 37.77386666666666 -37.77386666666666 37.77386666666666 -20.86293333333333 0 -37.77493333333333 -16.912 -37.77493333333333 -37.77386666666666Z" clip-rule="evenodd" stroke-width="10.6667"></path>
</svg>