<svg xmlns="http://www.w3.org/2000/svg" fill="none" viewBox="0 0 256 256" id="Air-Conditioner-Rear-1--Streamline-Ultimate" height="256" width="256">
  <desc>
    Air Conditioner Rear 1 Streamline Icon: https://streamlinehq.com
  </desc>
  <path fill="#ffffff" fill-rule="evenodd" d="M13.013333333333332 60.05333333333333c-5.7728 0 -10.453333333333333 4.680533333333333 -10.453333333333333 10.453333333333333v114.98666666666665c0 5.773866666666667 4.680533333333333 10.453333333333333 10.453333333333333 10.453333333333333h37.754666666666665l0.1824 -0.3701333333333333c2.7936 -5.586133333333334 2.2581333333333333 -14.167466666666666 -1.712 -20.538666666666664 -7.841066666666666 -12.3392 -10.875733333333333 -27.522133333333333 -5.803733333333334 -41.28853333333333H33.92c-3.1712 0 -6.029866666666667 -1.909333333333333 -7.242666666666667 -4.8384 -1.2138666666666666 -2.930133333333333 -0.5429333333333333 -6.302933333333333 1.6991999999999998 -8.545066666666667l20.870399999999997 -20.870399999999997c0.12053333333333333 -0.1216 0.24426666666666666 -0.23893333333333333 0.37226666666666663 -0.35306666666666664 0.6378666666666666 -0.5685333333333333 1.3472 -1.0144 2.0970666666666666 -1.3376000000000001 0.9535999999999999 -0.41279999999999994 2.005333333333333 -0.6410666666666667 3.1104000000000003 -0.6410666666666667h0.023466666666666667c1.0122666666666666 0.0021333333333333334 1.9797333333333331 0.1973333333333333 2.8671999999999995 0.5493333333333332 0.9663999999999999 0.38293333333333335 1.8719999999999999 0.9653333333333333 2.6528 1.7461333333333333l20.906666666666666 20.906666666666666c2.2432 2.2421333333333333 2.9130666666666665 5.614933333333333 1.7002666666666664 8.545066666666667 -1.2138666666666666 2.9290666666666665 -4.0725333333333325 4.8384 -7.243733333333333 4.8384H60.24853333333333c-0.38506666666666667 1.1296 -0.8128 2.2698666666666663 -1.2789333333333333 3.4346666666666668 -0.04479999999999999 0.112 -0.09173333333333333 0.22293333333333332 -0.14186666666666664 0.3328 -3.8762666666666665 8.527999999999999 -2.5994666666666664 19.2992 3.658666666666667 29.133866666666666l0.034133333333333335 0.05333333333333333c5.2416 8.386133333333333 7.2544 19.432533333333332 4.8693333333333335 29.242666666666665h56.55146666666667l0.1824 -0.3701333333333333c2.7936 -5.586133333333334 2.2581333333333333 -14.167466666666666 -1.712 -20.538666666666664 -7.841066666666666 -12.3392 -10.875733333333333 -27.522133333333333 -5.803733333333334 -41.28853333333333h-9.514666666666667c-3.1701333333333332 0 -6.029866666666667 -1.909333333333333 -7.242666666666667 -4.8384 -1.2138666666666666 -2.930133333333333 -0.5429333333333333 -6.302933333333333 1.6991999999999998 -8.545066666666667l20.871466666666667 -20.870399999999997c0.12053333333333333 -0.1216 0.2432 -0.23893333333333333 0.3712 -0.35306666666666664 0.6389333333333334 -0.5685333333333333 1.3472 -1.0144 2.0970666666666666 -1.3376000000000001 0.9525333333333333 -0.41279999999999994 2.005333333333333 -0.6410666666666667 3.1104000000000003 -0.6410666666666667h0.02453333333333333c1.0111999999999999 0.0031999999999999997 1.9786666666666666 0.1973333333333333 2.866133333333333 0.5493333333333332 0.9653333333333333 0.38293333333333335 1.8719999999999999 0.9653333333333333 2.6538666666666666 1.7471999999999999l20.906666666666666 20.9056c2.2421333333333333 2.2421333333333333 2.912 5.614933333333333 1.6991999999999998 8.545066666666667 -1.2138666666666666 2.9290666666666665 -4.0725333333333325 4.8384 -7.243733333333333 4.8384h-15.4848c-0.38506666666666667 1.1296 -0.8117333333333333 2.2698666666666663 -1.2778666666666667 3.4357333333333333 -0.04479999999999999 0.11093333333333333 -0.0928 0.22186666666666666 -0.14186666666666664 0.3317333333333333 -3.8762666666666665 8.527999999999999 -2.600533333333333 19.2992 3.6575999999999995 29.133866666666666l0.034133333333333335 0.05333333333333333c5.2416 8.386133333333333 7.2544 19.432533333333332 4.8704 29.242666666666665h55.505066666666664l0.18133333333333335 -0.3701333333333333c2.7946666666666666 -5.586133333333334 2.2592 -14.1664 -1.7109333333333332 -20.538666666666664 -7.841066666666666 -12.338133333333333 -10.875733333333333 -27.522133333333333 -5.803733333333334 -41.28853333333333h-9.514666666666667c-3.1712 0 -6.029866666666667 -1.909333333333333 -7.242666666666667 -4.8384 -1.2138666666666666 -2.930133333333333 -0.5429333333333333 -6.301866666666666 1.6991999999999998 -8.544l20.867199999999997 -20.868266666666663c0.13226666666666664 -0.13333333333333333 0.26986666666666664 -0.2634666666666666 0.41173333333333334 -0.38826666666666665 0.6250666666666667 -0.5493333333333332 1.3162666666666665 -0.9823999999999999 2.0458666666666665 -1.2992 0.8415999999999999 -0.3658666666666666 1.7578666666666667 -0.5888 2.722133333333333 -0.6368 0.13226666666666664 -0.007466666666666667 0.2677333333333333 -0.010666666666666666 0.4032 -0.010666666666666666 0.16533333333333333 0 0.3296 0.005333333333333333 0.49173333333333336 0.014933333333333333 0.8405333333333332 0.05226666666666666 1.643733333333333 0.2368 2.3914666666666666 0.5322666666666667 0.9685333333333334 0.38293333333333335 1.877333333333333 0.9653333333333333 2.660266666666667 1.7493333333333334l20.906666666666666 20.906666666666666c2.2421333333333333 2.2421333333333333 2.9130666666666665 5.613866666666667 1.6991999999999998 8.544 -1.2127999999999999 2.9290666666666665 -4.0725333333333325 4.8384 -7.242666666666667 4.8384h-15.485866666666666c-0.38399999999999995 1.1296 -0.8117333333333333 2.2698666666666663 -1.2778666666666667 3.4357333333333333 -0.021333333333333333 0.05333333333333333 -0.042666666666666665 0.10666666666666666 -0.06613333333333332 0.15893333333333332 -0.023466666666666667 0.05866666666666666 -0.050133333333333335 0.11626666666666666 -0.07573333333333333 0.17279999999999998 -3.8762666666666665 8.527999999999999 -2.600533333333333 19.2992 3.658666666666667 29.133866666666666l0.034133333333333335 0.05333333333333333c5.2416 8.3872 7.2544 19.432533333333332 4.8693333333333335 29.24373333333333H242.98666666666668c5.773866666666667 0 10.453333333333333 -4.680533333333333 10.453333333333333 -10.453333333333333V70.50666666666666c0 -5.7728 -4.679466666666666 -10.453333333333333 -10.453333333333333 -10.453333333333333H13.013333333333332Z" clip-rule="evenodd" stroke-width="10.6667"></path>
</svg>