<svg xmlns="http://www.w3.org/2000/svg" viewBox="0 0 256 256" id="Aircraft-Chopper-2--Streamline-Ultimate" height="256" width="256">
  <desc>
    Aircraft Chopper 2 Streamline Icon: https://streamlinehq.com
  </desc>
  <g id="Aircraft-Chopper-2--Streamline-Ultimate.svg">
    <path d="M175.25333333333333 69.33333333333333h-39.25333333333333a2.6666666666666665 2.6666666666666665 0 0 1 -2.6666666666666665 -2.6666666666666665v-10.666666666666666a2.6666666666666665 2.6666666666666665 0 0 1 2.6666666666666665 -2.6666666666666665h61.120000000000005a10.666666666666666 10.666666666666666 0 0 0 0 -21.333333333333332h-61.120000000000005a2.6666666666666665 2.6666666666666665 0 0 1 -2.6666666666666665 -2.6666666666666665V26.666666666666664a10.666666666666666 10.666666666666666 0 0 0 -21.333333333333332 0v2.6666666666666665a2.6666666666666665 2.6666666666666665 0 0 1 -2.6666666666666665 2.6666666666666665H48a10.666666666666666 10.666666666666666 0 0 0 0 21.333333333333332h61.33333333333333a2.6666666666666665 2.6666666666666665 0 0 1 2.6666666666666665 2.6666666666666665v10.666666666666666a2.6666666666666665 2.6666666666666665 0 0 1 -2.6666666666666665 2.6666666666666665h-8.106666666666666a97.38666666666667 97.38666666666667 0 0 0 -96 96 32 32 0 0 0 32 32h2.88a2.453333333333333 2.453333333333333 0 0 1 2.1333333333333333 1.1733333333333333 2.5599999999999996 2.5599999999999996 0 0 1 0 2.453333333333333l-6.506666666666666 16a2.6666666666666665 2.6666666666666665 0 0 1 -2.453333333333333 1.7066666666666666h-4.266666666666667a2.5599999999999996 2.5599999999999996 0 0 1 -2.5599999999999996 -2.1333333333333333 10.666666666666666 10.666666666666666 0 0 0 -21.333333333333332 2.1333333333333333 21.333333333333332 21.333333333333332 0 0 0 21.333333333333332 21.333333333333332h117.33333333333333a21.333333333333332 21.333333333333332 0 0 0 21.333333333333332 -21.333333333333332 10.666666666666666 10.666666666666666 0 0 0 -10.666666666666666 -10.666666666666666 10.666666666666666 10.666666666666666 0 0 0 -10.666666666666666 8.533333333333333 2.7733333333333334 2.7733333333333334 0 0 1 -2.6666666666666665 2.1333333333333333h-4.586666666666666a2.6666666666666665 2.6666666666666665 0 0 1 -2.453333333333333 -1.7066666666666666l-8 -19.52a2.6666666666666665 2.6666666666666665 0 0 1 1.3866666666666667 -3.413333333333333c15.146666666666665 -6.826666666666666 18.88 -23.57333333333333 21.333333333333332 -36.69333333333333 3.413333333333333 -17.066666666666666 6.293333333333333 -31.253333333333334 25.066666666666666 -37.12a2.6666666666666665 2.6666666666666665 0 0 0 1.7066666666666666 -1.4933333333333334 2.986666666666667 2.986666666666667 0 0 0 0 -2.3466666666666667 42.13333333333333 42.13333333333333 0 0 1 1.3866666666666667 -42.666666666666664 2.6666666666666665 2.6666666666666665 0 0 0 -2.2399999999999998 -4.053333333333333ZM32 149.33333333333331a2.7733333333333334 2.7733333333333334 0 0 1 -2.1333333333333333 -1.0666666666666667 2.5599999999999996 2.5599999999999996 0 0 1 0 -2.3466666666666667A75.52 75.52 0 0 1 101.22666666666666 90.66666666666666h1.1733333333333333a2.6666666666666665 2.6666666666666665 0 0 1 2.6666666666666665 2.6666666666666665V138.66666666666666a10.666666666666666 10.666666666666666 0 0 1 -10.666666666666666 10.666666666666666Zm78.29333333333332 68.16a2.7733333333333334 2.7733333333333334 0 0 1 -2.2399999999999998 1.1733333333333333H62.39999999999999a2.453333333333333 2.453333333333333 0 0 1 -2.1333333333333333 -1.1733333333333333 2.5599999999999996 2.5599999999999996 0 0 1 0 -2.453333333333333l6.506666666666666 -16a2.6666666666666665 2.6666666666666665 0 0 1 2.453333333333333 -1.7066666666666666h32.42666666666666a2.6666666666666665 2.6666666666666665 0 0 1 2.453333333333333 1.7066666666666666l6.506666666666666 16a2.88 2.88 0 0 1 -0.21333333333333332 2.453333333333333Z" fill="#ffffff" stroke-width="10.6667"></path>
    <path d="M250.55999999999997 117.33333333333333a10.666666666666666 10.666666666666666 0 0 0 -2.7733333333333334 -5.973333333333334L234.66666666666666 97.6a2.7733333333333334 2.7733333333333334 0 0 1 0 -3.733333333333333l13.226666666666667 -13.226666666666667a10.666666666666666 10.666666666666666 0 0 0 2.453333333333333 -5.973333333333334 10.666666666666666 10.666666666666666 0 0 0 -17.813333333333333 -9.173333333333332l-13.226666666666667 13.226666666666667a2.6666666666666665 2.6666666666666665 0 0 1 -1.92 0.8533333333333333 2.453333333333333 2.453333333333333 0 0 1 -1.8133333333333335 -0.8533333333333333L202.66666666666666 65.81333333333333a10.666666666666666 10.666666666666666 0 0 0 -15.146666666666665 15.146666666666665l12.906666666666666 12.906666666666666a2.5599999999999996 2.5599999999999996 0 0 1 0 3.733333333333333l-12.906666666666666 13.013333333333332a10.666666666666666 10.666666666666666 0 0 0 7.466666666666666 18.133333333333333 10.666666666666666 10.666666666666666 0 0 0 7.573333333333332 -3.093333333333333l13.013333333333332 -13.013333333333332a2.7733333333333334 2.7733333333333334 0 0 1 3.733333333333333 0l13.333333333333332 13.44a10.666666666666666 10.666666666666666 0 0 0 7.466666666666666 3.093333333333333 10.666666666666666 10.666666666666666 0 0 0 7.573333333333332 -3.093333333333333 10.666666666666666 10.666666666666666 0 0 0 2.88 -8.746666666666666Z" fill="#ffffff" stroke-width="10.6667"></path>
  </g>
</svg>