<svg xmlns="http://www.w3.org/2000/svg" viewBox="0 0 256 256" id="Aircraft-Hot-Air-Balloon-2--Streamline-Ultimate" height="256" width="256">
  <desc>
    Aircraft Hot Air Balloon 2 Streamline Icon: https://streamlinehq.com
  </desc>
  <path d="M245.33333333333331 101.33333333333333c0 -64 -42.666666666666664 -101.33333333333333 -117.33333333333333 -101.33333333333333S10.666666666666666 36.906666666666666 10.666666666666666 101.33333333333333a87.78666666666666 87.78666666666666 0 0 0 53.33333333333333 80.53333333333333 2.5599999999999996 2.5599999999999996 0 0 1 1.1733333333333333 0.96l14.826666666666664 26.133333333333333a5.119999999999999 5.119999999999999 0 0 1 -1.2799999999999998 6.826666666666666A10.666666666666666 10.666666666666666 0 0 0 74.66666666666666 224a10.666666666666666 10.666666666666666 0 0 0 10.666666666666666 10.666666666666666 2.6666666666666665 2.6666666666666665 0 0 1 2.6666666666666665 2.6666666666666665v5.333333333333333A13.333333333333332 13.333333333333332 0 0 0 101.33333333333333 256h53.33333333333333a13.333333333333332 13.333333333333332 0 0 0 13.333333333333332 -13.333333333333332v-5.333333333333333A2.6666666666666665 2.6666666666666665 0 0 1 170.66666666666666 234.66666666666666a10.666666666666666 10.666666666666666 0 0 0 10.666666666666666 -10.666666666666666 10.666666666666666 10.666666666666666 0 0 0 -4.053333333333333 -8.213333333333333 5.119999999999999 5.119999999999999 0 0 1 -1.2799999999999998 -6.826666666666666l15.36 -26.133333333333333a2.5599999999999996 2.5599999999999996 0 0 1 1.1733333333333333 -0.96A87.78666666666666 87.78666666666666 0 0 0 245.33333333333331 101.33333333333333Zm-21.333333333333332 0c0 38.08 -27.733333333333334 57.70666666666666 -54.72 67.09333333333333a2.5599999999999996 2.5599999999999996 0 0 1 -2.986666666666667 -0.96 2.453333333333333 2.453333333333333 0 0 1 0 -3.093333333333333 114.24000000000001 114.24000000000001 0 0 0 19.52 -66.56 107.52 107.52 0 0 0 -21.333333333333332 -67.84 2.5599999999999996 2.5599999999999996 0 0 1 0 -3.093333333333333 2.6666666666666665 2.6666666666666665 0 0 1 2.88 -1.1733333333333333C204.90666666666667 35.306666666666665 224 60.58666666666666 224 101.33333333333333Zm-192 0c0 -40.74666666666666 19.093333333333334 -66.02666666666667 56.85333333333333 -75.62666666666667a2.6666666666666665 2.6666666666666665 0 0 1 2.88 1.1733333333333333 2.5599999999999996 2.5599999999999996 0 0 1 0 3.093333333333333 107.52 107.52 0 0 0 -21.333333333333332 67.84 114.24000000000001 114.24000000000001 0 0 0 19.52 66.56 2.453333333333333 2.453333333333333 0 0 1 0 3.093333333333333 2.5599999999999996 2.5599999999999996 0 0 1 -2.986666666666667 0.96C59.73333333333333 159.04 32 139.41333333333333 32 101.33333333333333Zm118.18666666666667 109.33333333333333a5.333333333333333 5.333333333333333 0 0 1 -4.586666666666666 2.6666666666666665h-35.093333333333334a5.119999999999999 5.119999999999999 0 0 1 -4.586666666666666 -2.6666666666666665l-7.253333333333334 -12.053333333333331a2.6666666666666665 2.6666666666666665 0 0 1 2.88 -3.9466666666666663 139.83999999999997 139.83999999999997 0 0 0 26.453333333333333 2.6666666666666665 140.90666666666667 140.90666666666667 0 0 0 26.560000000000002 -2.6666666666666665 2.6666666666666665 2.6666666666666665 0 0 1 2.6666666666666665 1.0666666666666667 2.7733333333333334 2.7733333333333334 0 0 1 0 2.88Z" fill="#ffffff" stroke-width="10.6667"></path>
</svg>