<svg xmlns="http://www.w3.org/2000/svg" viewBox="0 0 256 256" id="Airplane-Mode--Streamline-Ultimate" height="256" width="256">
  <desc>
    Airplane Mode Streamline Icon: https://streamlinehq.com
  </desc>
  <g id="Airplane-Mode--Streamline-Ultimate.svg">
    <path d="M155.51999999999998 208.10666666666668a2.6666666666666665 2.6666666666666665 0 0 1 -0.8533333333333333 -1.92V138.66666666666666l-52.58666666666666 53.33333333333333a3.093333333333333 3.093333333333333 0 0 0 -0.7466666666666667 1.92v12.693333333333332a2.6666666666666665 2.6666666666666665 0 0 1 -0.8533333333333333 1.92L85.33333333333333 223.14666666666668a16 16 0 0 0 10.666666666666666 27.52 77.22666666666666 77.22666666666666 0 0 0 30.4 -14.826666666666664 2.5599999999999996 2.5599999999999996 0 0 1 3.1999999999999997 0A77.22666666666666 77.22666666666666 0 0 0 160 250.66666666666666a16 16 0 0 0 10.666666666666666 -27.52Z" fill="#ffffff" stroke-width="10.6667"></path>
    <path d="M192.74666666666667 104.53333333333333a2.7733333333333334 2.7733333333333334 0 0 0 -3.733333333333333 0l-34.13333333333333 34.13333333333333c15.146666666666665 10.666666666666666 51.84 37.12 58.45333333333333 41.599999999999994a26.560000000000002 26.560000000000002 0 0 0 16 6.293333333333333A21.333333333333332 21.333333333333332 0 0 0 243.41333333333333 149.33333333333331Z" fill="#ffffff" stroke-width="10.6667"></path>
    <path d="M252.90666666666667 3.093333333333333a10.666666666666666 10.666666666666666 0 0 0 -15.146666666666665 0l-72.96 72.96 -10.133333333333333 -10.666666666666666V32a25.599999999999998 25.599999999999998 0 0 0 -2.1333333333333333 -10.666666666666666 26.560000000000002 26.560000000000002 0 0 0 -49.06666666666666 0 25.599999999999998 25.599999999999998 0 0 0 -2.1333333333333333 10.666666666666666v39.04l-32 28.266666666666666L12.586666666666666 149.33333333333331A21.333333333333332 21.333333333333332 0 0 0 32 186.13333333333333a2.0266666666666664 2.0266666666666664 0 0 0 1.2799999999999998 -0.7466666666666667L96 135.25333333333333a3.626666666666667 3.626666666666667 0 0 1 5.333333333333333 3.413333333333333 3.9466666666666663 3.9466666666666663 0 0 1 -1.0666666666666667 2.5599999999999996L3.093333333333333 237.76a10.666666666666666 10.666666666666666 0 0 0 0 15.146666666666665 10.666666666666666 10.666666666666666 0 0 0 15.146666666666665 0l234.66666666666666 -234.66666666666666a10.666666666666666 10.666666666666666 0 0 0 0 -15.146666666666665Z" fill="#ffffff" stroke-width="10.6667"></path>
  </g>
</svg>