<svg xmlns="http://www.w3.org/2000/svg" id="Airtable-Logo--Streamline-Ultimate" width="256" height="256" viewBox="0 0 256 256"><desc>Airtable Logo Streamline Icon: https://streamlinehq.com</desc><g id="Airtable-Logo--Streamline-Ultimate.svg"><path fill="#fff" stroke-width="10.667" d="M245.33333333333331 69.97333333333333a9.28 9.28 0 0 0 -5.866666666666667 -8.64l-104.42666666666665 -40.74666666666666a20.05333333333333 20.05333333333333 0 0 0 -14.08 0L16.53333333333333 61.33333333333333a9.28 9.28 0 0 0 -5.866666666666667 8.64 9.173333333333332 9.173333333333332 0 0 0 5.866666666666667 8.533333333333333l104.32 40.74666666666666a18.56 18.56 0 0 0 7.1466666666666665 1.3866666666666667 17.599999999999998 17.599999999999998 0 0 0 7.04 -1.3866666666666667l104.42666666666665 -40.74666666666666a9.173333333333332 9.173333333333332 0 0 0 5.866666666666667 -8.533333333333333Z"/><path fill="#fff" stroke-width="10.667" d="M110.82666666666667 129.38666666666666 10.666666666666666 90.45333333333333a8.106666666666666 8.106666666666666 0 0 0 -7.359999999999999 0.7466666666666667 7.893333333333333 7.893333333333333 0 0 0 -3.3066666666666666 6.613333333333333v85.33333333333333a8 8 0 0 0 3.733333333333333 6.72 7.68 7.68 0 0 0 4.266666666666667 1.2799999999999998 9.813333333333333 9.813333333333333 0 0 0 3.413333333333333 -0.7466666666666667l99.83999999999999 -46.29333333333333a8 8 0 0 0 4.586666666666666 -7.573333333333332 7.893333333333333 7.893333333333333 0 0 0 -5.013333333333333 -7.1466666666666665Z"/><path fill="#fff" stroke-width="10.667" d="M252.48000000000002 91.30666666666667a7.893333333333333 7.893333333333333 0 0 0 -7.1466666666666665 -0.8533333333333333l-98.88 38.50666666666666a15.893333333333333 15.893333333333333 0 0 0 -10.666666666666666 14.933333333333332v85.33333333333333a7.893333333333333 7.893333333333333 0 0 0 3.52 6.613333333333333 7.466666666666666 7.466666666666666 0 0 0 4.4799999999999995 1.3866666666666667 9.173333333333332 9.173333333333332 0 0 0 2.88 -0.5333333333333333l98.98666666666665 -38.61333333333333a15.893333333333333 15.893333333333333 0 0 0 10.133333333333333 -14.933333333333332v-85.33333333333333a7.573333333333332 7.573333333333332 0 0 0 -3.3066666666666666 -6.506666666666666Z"/></g></svg>