<svg xmlns="http://www.w3.org/2000/svg" viewBox="0 0 256 256" id="Alarm-Bell-Ring--Streamline-Ultimate" height="256" width="256">
  <desc>
    Alarm Bell Ring Streamline Icon: https://streamlinehq.com
  </desc>
  <g id="Alarm-Bell-Ring--Streamline-Ultimate.svg">
    <path d="M48 80a10.666666666666666 10.666666666666666 0 0 0 9.28 -5.333333333333333 57.919999999999995 57.919999999999995 0 0 1 22.29333333333333 -22.4 10.666666666666666 10.666666666666666 0 1 0 -10.666666666666666 -18.56 77.33333333333333 77.33333333333333 0 0 0 -17.066666666666666 13.013333333333332A80.96 80.96 0 0 0 38.72 64 10.666666666666666 10.666666666666666 0 0 0 42.666666666666664 78.61333333333333a10.666666666666666 10.666666666666666 0 0 0 5.333333333333333 1.3866666666666667Z" fill="#ffffff" stroke-width="10.6667"></path>
    <path d="M68.58666666666666 7.573333333333332A10.666666666666666 10.666666666666666 0 0 0 55.36 0 80.21333333333332 80.21333333333332 0 0 0 0 55.36a10.666666666666666 10.666666666666666 0 0 0 7.573333333333332 13.226666666666667A10.666666666666666 10.666666666666666 0 0 0 21.333333333333332 61.54666666666666a60.693333333333335 60.693333333333335 0 0 1 14.933333333333332 -25.706666666666667A60.906666666666666 60.906666666666666 0 0 1 61.44 21.333333333333332 10.666666666666666 10.666666666666666 0 0 0 68.58666666666666 7.573333333333332Z" fill="#ffffff" stroke-width="10.6667"></path>
    <path d="M204.26666666666665 46.82666666666666a77.54666666666665 77.54666666666665 0 0 0 -17.386666666666663 -13.12 10.666666666666666 10.666666666666666 0 1 0 -10.666666666666666 18.56A57.919999999999995 57.919999999999995 0 0 1 198.71999999999997 74.66666666666666a10.666666666666666 10.666666666666666 0 0 0 18.56 -10.666666666666666 80.63999999999999 80.63999999999999 0 0 0 -13.013333333333332 -17.173333333333332Z" fill="#ffffff" stroke-width="10.6667"></path>
    <path d="M256 55.36A80.21333333333332 80.21333333333332 0 0 0 200.64 0a10.666666666666666 10.666666666666666 0 0 0 -6.079999999999999 21.333333333333332 60.906666666666666 60.906666666666666 0 0 1 25.599999999999998 14.933333333333332A60.693333333333335 60.693333333333335 0 0 1 234.66666666666666 61.54666666666666a10.666666666666666 10.666666666666666 0 0 0 13.333333333333332 7.04A10.666666666666666 10.666666666666666 0 0 0 256 55.36Z" fill="#ffffff" stroke-width="10.6667"></path>
    <path d="M144 229.33333333333331h-32a5.333333333333333 5.333333333333333 0 0 0 -5.333333333333333 5.333333333333333 21.333333333333332 21.333333333333332 0 0 0 42.666666666666664 0 5.333333333333333 5.333333333333333 0 0 0 -5.333333333333333 -5.333333333333333Z" fill="#ffffff" stroke-width="10.6667"></path>
    <path d="M202.66666666666666 197.33333333333331a10.666666666666666 10.666666666666666 0 0 1 -10.666666666666666 -10.666666666666666V138.66666666666666c0 -36.8 -23.146666666666665 -67.41333333333333 -53.33333333333333 -73.28V48a10.666666666666666 10.666666666666666 0 0 0 -21.333333333333332 0v17.386666666666663C87.14666666666666 71.25333333333333 64 101.86666666666667 64 138.66666666666666v48a10.666666666666666 10.666666666666666 0 0 1 -10.666666666666666 10.666666666666666 10.666666666666666 10.666666666666666 0 0 0 0 21.333333333333332h149.33333333333331a10.666666666666666 10.666666666666666 0 0 0 0 -21.333333333333332Z" fill="#ffffff" stroke-width="10.6667"></path>
  </g>
</svg>