<svg xmlns="http://www.w3.org/2000/svg" fill="none" viewBox="0 0 256 256" id="Alert-Octagon-1--Streamline-Ultimate" height="256" width="256">
  <desc>
    Alert Octagon 1 Streamline Icon: https://streamlinehq.com
  </desc>
  <path fill="#ffffff" fill-rule="evenodd" d="M78.39999999999999 0.5333333333333333a8 8 0 0 0 -5.610666666666667 2.304l-70.39999999999999 69.33333333333333A8 8 0 0 0 0 77.86666666666666v100.26666666666667c0 2.1333333333333333 0.8533333333333333 4.192 2.389333333333333 5.696l70.39999999999999 69.33333333333333a8 8 0 0 0 5.610666666666667 2.304h99.2a8 8 0 0 0 5.610666666666667 -2.304l70.39999999999999 -69.33333333333333A8 8 0 0 0 256 178.13333333333333V77.86666666666666a8 8 0 0 0 -2.389333333333333 -5.696l-70.39999999999999 -69.33333333333333A8 8 0 0 0 177.59999999999997 0.5333333333333333h-99.2ZM128 202.38933333333333a16.095999999999997 16.095999999999997 0 1 0 0 -32.19199999999999 16.095999999999997 16.095999999999997 0 0 0 0 32.19199999999999Zm3.3706666666666667 -66.29333333333332ZM99.616 76.672A28.458666666666666 28.458666666666666 0 0 1 128 48.27733333333333a28.458666666666666 28.458666666666666 0 0 1 28.384 28.394666666666666c0 4.053333333333333 -1.4933333333333334 10.303999999999998 -3.392 16.778666666666666a317.8666666666667 317.8666666666667 0 0 1 -7.349333333333332 21.599999999999998 294.50666666666666 294.50666666666666 0 0 1 -7.936 19.2c-1.1733333333333333 2.5279999999999996 -2.304 4.746666666666666 -3.2746666666666666 6.378666666666666a17.610666666666667 17.610666666666667 0 0 1 -1.5999999999999999 2.336 7.872 7.872 0 0 1 -1.3333333333333333 1.2586666666666666 5.856 5.856 0 0 1 -3.733333333333333 1.1733333333333333 5.92 5.92 0 0 1 -3.413333333333333 -1.3119999999999998 8.234666666666666 8.234666666666666 0 0 1 -1.2266666666666666 -1.2266666666666666 18.634666666666668 18.634666666666668 0 0 1 -1.5786666666666664 -2.325333333333333 78.29333333333332 78.29333333333332 0 0 1 -3.253333333333333 -6.3999999999999995 300.384 300.384 0 0 1 -7.936 -19.168 317.51466666666664 317.51466666666664 0 0 1 -7.349333333333332 -21.546666666666667c-1.8986666666666665 -6.453333333333333 -3.392 -12.693333333333332 -3.392 -16.746666666666666Z" clip-rule="evenodd" stroke-width="10.6667"></path>
</svg>