<svg xmlns="http://www.w3.org/2000/svg" viewBox="0 0 256 256" id="Alert-Bell-Notification-2--Streamline-Ultimate" height="256" width="256">
  <desc>
    Alert Bell Notification 2 Streamline Icon: https://streamlinehq.com
  </desc>
  <g id="Alert-Bell-Notification-2--Streamline-Ultimate.svg">
    <path d="M146.28266666666667 222.07999999999998H99.3472c-1.2885333333333333 0.042666666666666665 -2.3541333333333334 1.0186666666666666 -2.5088 2.299733333333333 -0.051199999999999996 0.9749333333333332 -0.051199999999999996 1.952 0 2.926933333333333 0 20.11733333333333 21.778133333333333 32.691199999999995 39.199999999999996 22.63253333333333 8.0864 -4.668799999999999 13.066666666666666 -13.296 13.066666666666666 -22.63253333333333 0.05226666666666666 -0.9749333333333332 0.05226666666666666 -1.952 0 -2.926933333333333 -0.16426666666666667 -1.4037333333333333 -1.4143999999999999 -2.4223999999999997 -2.8224 -2.299733333333333Z" fill="#ffffff" stroke-width="10.6667"></path>
    <path d="M154.12266666666665 54.82666666666666c-0.0288 -6.2143999999999995 1.216 -12.369066666666665 3.658666666666667 -18.084266666666664 -6.066133333333333 -3.182933333333333 -12.589866666666666 -5.4048 -19.338666666666665 -6.5855999999999995V18.24c0 -12.0704 -13.066666666666666 -19.614933333333333 -23.52 -13.579733333333332 -4.8511999999999995 2.8010666666666664 -7.84 7.9776 -7.84 13.579733333333332v12.021333333333333c-10.845866666666666 2.050133333333333 -21.053866666666664 6.634666666666666 -29.792 13.380266666666666 -22.613333333333333 18.604799999999997 -35.50613333333333 46.507733333333334 -35.01866666666666 75.78666666666666v7.944533333333333c-0.008533333333333334 26.654933333333332 -6.2741333333333325 52.93546666666666 -18.293333333333333 76.72746666666666 -1.2149333333333332 2.6016 -0.15146666666666667 5.697066666666666 2.4042666666666666 7.003733333333333 0.7221333333333333 0.33386666666666664 1.5050666666666666 0.512 2.299733333333333 0.5226666666666666h188.16c2.8864 0 5.226666666666667 -2.3402666666666665 5.226666666666667 -5.226666666666667 0 -0.7957333333333333 -0.1781333333333333 -1.5818666666666665 -0.5226666666666666 -2.299733333333333 -12.018133333333333 -23.792 -18.284799999999997 -50.07253333333333 -18.293333333333333 -76.72746666666666v-7.944533333333333c0.03733333333333333 -5.92 -0.45333333333333337 -11.832533333333332 -1.4634666666666665 -17.66613333333333h-0.6272c-25.962666666666667 0.0576 -47.04 -20.9728 -47.04 -46.93546666666666Z" fill="#ffffff" stroke-width="10.6667"></path>
    <path d="M169.80266666666665 54.82666666666666c0 24.1408 26.133333333333333 39.2288 47.04 27.1584 9.703466666666666 -5.602133333333333 15.68 -15.954133333333333 15.68 -27.1584 0 -24.1408 -26.133333333333333 -39.2288 -47.04 -27.1584 -9.702399999999999 5.602133333333333 -15.68 15.954133333333333 -15.68 27.1584" fill="#ffffff" stroke-width="10.6667"></path>
  </g>
</svg>