<svg xmlns="http://www.w3.org/2000/svg" id="Align-Middle--Streamline-Ultimate" width="256" height="256" viewBox="0 0 256 256"><desc>Align Middle Streamline Icon: https://streamlinehq.com</desc><path fill="#fff" stroke-width="10.667" d="M245.33333333333331 128a10.666666666666666 10.666666666666666 0 0 0 -10.666666666666666 -10.666666666666666h-29.333333333333332a2.6666666666666665 2.6666666666666665 0 0 1 -2.6666666666666665 -2.6666666666666665V85.33333333333333a16 16 0 0 0 -16 -16h-32A16 16 0 0 0 138.66666666666666 85.33333333333333v29.333333333333332a2.6666666666666665 2.6666666666666665 0 0 1 -2.6666666666666665 2.6666666666666665h-10.666666666666666a2.6666666666666665 2.6666666666666665 0 0 1 -2.6666666666666665 -2.6666666666666665V53.33333333333333A16 16 0 0 0 106.66666666666666 37.33333333333333H74.66666666666666A16 16 0 0 0 58.666666666666664 53.33333333333333v61.33333333333333a2.6666666666666665 2.6666666666666665 0 0 1 -2.6666666666666665 2.6666666666666665H21.333333333333332a10.666666666666666 10.666666666666666 0 0 0 0 21.333333333333332h34.666666666666664a2.6666666666666665 2.6666666666666665 0 0 1 2.6666666666666665 2.6666666666666665V202.66666666666666A16 16 0 0 0 74.66666666666666 218.66666666666666h32a16 16 0 0 0 16 -16v-61.33333333333333a2.6666666666666665 2.6666666666666665 0 0 1 2.6666666666666665 -2.6666666666666665h10.666666666666666a2.6666666666666665 2.6666666666666665 0 0 1 2.6666666666666665 2.6666666666666665V170.66666666666666a16 16 0 0 0 16 16h32A16 16 0 0 0 202.66666666666666 170.66666666666666v-29.333333333333332a2.6666666666666665 2.6666666666666665 0 0 1 2.6666666666666665 -2.6666666666666665H234.66666666666666a10.666666666666666 10.666666666666666 0 0 0 10.666666666666666 -10.666666666666666Z"/></svg>