<svg xmlns="http://www.w3.org/2000/svg" fill="none" viewBox="0 0 256 256" id="Align-Stroke-To-Center--Streamline-Ultimate" height="256" width="256">
  <desc>
    Align Stroke To Center Streamline Icon: https://streamlinehq.com
  </desc>
  <path fill="#ffffff" fill-rule="evenodd" d="M62.31669333333333 0H7.995626666666666C5.876479999999999 0 3.844128 0.8418272 2.3456746666666666 2.3402773333333333 0.8472095999999999 3.8387626666666663 0.005382186666666667 5.871104 0.005382282666666666 7.99024l-0.00000513066666666667 115.24495999999999 -0.0001688213333333333 0.05333333333333333v124.72106666666667c0 4.4128 3.577351669333333 7.990399999999999 7.990247669333333 7.990399999999999L248.00746666666663 256c4.4128 0 7.990399999999999 -3.5775999999999994 7.990399999999999 -7.990399999999999v-54.25813333333333l-0.09813333333333332 0.0010666666666666667 -160.92714666666666 0v11.315199999999999c0 2.9450666666666665 -2.3878399999999997 5.333333333333333 -5.333333333333333 5.333333333333333h-38.63146666666667c-2.9455999999999998 0 -5.333333333333333 -2.3882666666666665 -5.333333333333333 -5.333333333333333v-38.63146666666667c0 -2.946133333333333 2.3877333333333333 -5.333333333333333 5.333333333333333 -5.333333333333333h11.307413333333333V0.15605973333333334c0 -0.052138133333333336 0.0005333333333333334 -0.10415935999999999 0.001493333333333333 -0.15605973333333334Zm15.998506666666666 161.10293333333334h11.324053333333334c2.9454933333333333 0 5.333333333333333 2.3872 5.333333333333333 5.333333333333333v11.316266666666666l160.92714666666666 0 0.09813333333333332 0v-54.464c0 -4.4128 -3.5775999999999994 -7.990399999999999 -7.990399999999999 -7.990399999999999H140.7072V7.990261333333333C140.7072 3.5773759999999997 137.12959999999998 0 132.71679999999998 0H78.31370666666666c0.00096 0.05190037333333333 0.001493333333333333 0.1039216 0.001493333333333333 0.15605973333333334V161.10293333333334Z" clip-rule="evenodd" stroke-width="10.6667"></path>
</svg>