<svg xmlns="http://www.w3.org/2000/svg" id="Align-Center--Streamline-Ultimate" width="256" height="256" viewBox="0 0 256 256"><desc>Align Center Streamline Icon: https://streamlinehq.com</desc><path fill="#fff" stroke-width="10.667" d="M202.66666666666666 133.33333333333331h-61.33333333333333a2.6666666666666665 2.6666666666666665 0 0 1 -2.6666666666666665 -2.6666666666666665v-10.666666666666666a2.6666666666666665 2.6666666666666665 0 0 1 2.6666666666666665 -2.6666666666666665H170.66666666666666a16 16 0 0 0 16 -16v-32A16 16 0 0 0 170.66666666666666 53.33333333333333h-29.333333333333332a2.6666666666666665 2.6666666666666665 0 0 1 -2.6666666666666665 -2.6666666666666665V21.333333333333332a10.666666666666666 10.666666666666666 0 0 0 -21.333333333333332 0v29.333333333333332a2.6666666666666665 2.6666666666666665 0 0 1 -2.6666666666666665 2.6666666666666665H85.33333333333333a16 16 0 0 0 -16 16v32A16 16 0 0 0 85.33333333333333 117.33333333333333h29.333333333333332a2.6666666666666665 2.6666666666666665 0 0 1 2.6666666666666665 2.6666666666666665v10.666666666666666a2.6666666666666665 2.6666666666666665 0 0 1 -2.6666666666666665 2.6666666666666665H53.33333333333333A16 16 0 0 0 37.33333333333333 149.33333333333331v32A16 16 0 0 0 53.33333333333333 197.33333333333331h61.33333333333333a2.6666666666666665 2.6666666666666665 0 0 1 2.6666666666666665 2.6666666666666665V234.66666666666666a10.666666666666666 10.666666666666666 0 0 0 21.333333333333332 0v-34.666666666666664a2.6666666666666665 2.6666666666666665 0 0 1 2.6666666666666665 -2.6666666666666665H202.66666666666666a16 16 0 0 0 16 -16v-32a16 16 0 0 0 -16 -16Z"/></svg>