<svg xmlns="http://www.w3.org/2000/svg" id="Alipay-Logo--Streamline-Ultimate" width="256" height="256" viewBox="0 0 256 256"><desc>Alipay Logo Streamline Icon: https://streamlinehq.com</desc><g id="Alipay-Logo--Streamline-Ultimate.svg"><path fill="#fff" stroke-width="10.667" d="M170.66666666666666 167.89333333333332a2.5599999999999996 2.5599999999999996 0 0 0 -3.093333333333333 0.6399999999999999 122.34666666666666 122.34666666666666 0 0 1 -83.94666666666666 39.46666666666667c-48.10666666666666 0 -46.93333333333334 -39.46666666666667 -46.93333333333334 -40.64a41.92 41.92 0 0 1 18.453333333333333 -38.08c29.439999999999998 -18.666666666666664 84.69333333333333 1.7066666666666666 105.06666666666666 10.666666666666666a2.7733333333333334 2.7733333333333334 0 0 0 3.3066666666666666 -1.0666666666666667 89.70666666666666 89.70666666666666 0 0 0 10.666666666666666 -24.21333333333333 2.6666666666666665 2.6666666666666665 0 0 0 -0.5333333333333333 -2.3466666666666667 2.7733333333333334 2.7733333333333334 0 0 0 -2.1333333333333333 -1.0666666666666667H89.91999999999999a10.666666666666666 10.666666666666666 0 0 1 0 -21.333333333333332h35.626666666666665a2.6666666666666665 2.6666666666666665 0 0 0 2.453333333333333 -2.986666666666667V75.73333333333332a2.6666666666666665 2.6666666666666665 0 0 0 -2.6666666666666665 -2.6666666666666665h-42.666666666666664a10.666666666666666 10.666666666666666 0 0 1 0 -21.333333333333332h42.666666666666664A2.6666666666666665 2.6666666666666665 0 0 0 128 49.06666666666666v-1.0666666666666667a10.666666666666666 10.666666666666666 0 0 1 21.333333333333332 0v1.0666666666666667a2.6666666666666665 2.6666666666666665 0 0 0 2.6666666666666665 2.6666666666666665h42.666666666666664a10.666666666666666 10.666666666666666 0 0 1 0 21.333333333333332h-42.666666666666664a2.6666666666666665 2.6666666666666665 0 0 0 -2.6666666666666665 2.6666666666666665v11.2a2.6666666666666665 2.6666666666666665 0 0 0 2.6666666666666665 2.6666666666666665h32a13.653333333333332 13.653333333333332 0 0 1 10.133333333333333 4.586666666666666 13.44 13.44 0 0 1 3.3066666666666666 10.666666666666666 106.66666666666666 106.66666666666666 0 0 1 -14.08 42.666666666666664 2.986666666666667 2.986666666666667 0 0 0 0 2.1333333333333333 2.7733333333333334 2.7733333333333334 0 0 0 1.3866666666666667 1.7066666666666666l55.46666666666667 26.026666666666664a5.4399999999999995 5.4399999999999995 0 0 0 4.266666666666667 0 5.333333333333333 5.333333333333333 0 0 0 2.986666666666667 -3.093333333333333 128 128 0 1 0 -16.106666666666666 29.439999999999998 5.653333333333333 5.653333333333333 0 0 0 0.8533333333333333 -4.4799999999999995 5.226666666666667 5.226666666666667 0 0 0 -2.986666666666667 -3.52c-12.586666666666666 -6.079999999999999 -31.04 -14.4 -58.56 -27.839999999999996Z"/><path fill="#fff" stroke-width="10.667" d="M66.56 147.30666666666667c-3.626666666666667 2.3466666666666667 -8.533333333333333 6.933333333333334 -8.533333333333333 20.05333333333333s7.68 18.346666666666664 22.613333333333333 19.2a96 96 0 0 0 64 -26.026666666666664 2.5599999999999996 2.5599999999999996 0 0 0 -0.8533333333333333 -4.373333333333333c-25.813333333333333 -10.133333333333333 -61.653333333333336 -18.773333333333333 -77.22666666666666 -8.853333333333332Z"/></g></svg>