<svg xmlns="http://www.w3.org/2000/svg" id="Allowances-Smoking--Streamline-Ultimate" width="256" height="256" viewBox="0 0 256 256"><desc>Allowances Smoking Streamline Icon: https://streamlinehq.com</desc><g id="Allowances-Smoking--Streamline-Ultimate.svg"><path fill="#fff" stroke-width="10.667" d="M240 208A16 16 0 0 0 256 192v-42.666666666666664a16 16 0 0 0 -16 -16h-192A16 16 0 0 0 32 149.33333333333331v42.666666666666664a16 16 0 0 0 16 16ZM53.33333333333333 160a5.333333333333333 5.333333333333333 0 0 1 5.333333333333333 -5.333333333333333H181.33333333333331a5.333333333333333 5.333333333333333 0 0 1 5.333333333333333 5.333333333333333v21.333333333333332a5.333333333333333 5.333333333333333 0 0 1 -5.333333333333333 5.333333333333333H58.666666666666664A5.333333333333333 5.333333333333333 0 0 1 53.33333333333333 181.33333333333331Z"/><path fill="#fff" stroke-width="10.667" d="M16 138.66666666666666A16 16 0 0 0 0 154.66666666666666v32A16 16 0 0 0 16 202.66666666666666a5.333333333333333 5.333333333333333 0 0 0 5.333333333333333 -5.333333333333333v-53.33333333333333a5.333333333333333 5.333333333333333 0 0 0 -5.333333333333333 -5.333333333333333Z"/><path fill="#fff" stroke-width="10.667" d="M85.33333333333333 106.66666666666666a21.333333333333332 21.333333333333332 0 0 0 19.52 -12.799999999999999 5.4399999999999995 5.4399999999999995 0 0 1 4.906666666666666 -3.1999999999999997h34.239999999999995a16 16 0 0 0 0 -32h-53.33333333333333a21.333333333333332 21.333333333333332 0 0 0 -19.52 12.799999999999999 5.4399999999999995 5.4399999999999995 0 0 1 -4.906666666666666 3.1999999999999997H48A37.33333333333333 37.33333333333333 0 0 0 10.666666666666666 112v8a8 8 0 0 0 16 0v-8A5.333333333333333 5.333333333333333 0 0 1 32 106.66666666666666Z"/><path fill="#fff" stroke-width="10.667" d="M192 80h16a16 16 0 0 0 0 -32H192a16 16 0 0 0 0 32Z"/></g></svg>