<svg xmlns="http://www.w3.org/2000/svg" viewBox="0 0 256 256" id="Allowances-No-Photos--Streamline-Ultimate" height="256" width="256">
  <desc>
    Allowances No Photos Streamline Icon: https://streamlinehq.com
  </desc>
  <g id="Allowances-No-Photos--Streamline-Ultimate.svg">
    <path d="M128 0a128 128 0 1 0 128 128A128 128 0 0 0 128 0Zm86.72 189.9733333333333a5.4399999999999995 5.4399999999999995 0 0 1 -3.84 2.1333333333333333 5.653333333333333 5.653333333333333 0 0 1 -4.266666666666667 -1.4933333333333334l-1.92 -1.92a10.666666666666666 10.666666666666666 0 0 0 -15.04 15.04l2.0266666666666664 2.1333333333333333a5.013333333333333 5.013333333333333 0 0 1 1.5999999999999999 4.16 5.653333333333333 5.653333333333333 0 0 1 -2.1333333333333333 3.9466666666666663 106.66666666666666 106.66666666666666 0 0 1 -149.33333333333331 -149.33333333333331 5.653333333333333 5.653333333333333 0 0 1 3.9466666666666663 -2.1333333333333333 5.119999999999999 5.119999999999999 0 0 1 4.373333333333333 1.4933333333333334l8.106666666666666 8a10.666666666666666 10.666666666666666 0 0 0 15.04 -14.719999999999999l-7.893333333333333 -7.893333333333333a5.333333333333333 5.333333333333333 0 0 1 -1.3866666666666667 -4.266666666666667 5.013333333333333 5.013333333333333 0 0 1 2.1333333333333333 -3.84 106.66666666666666 106.66666666666666 0 0 1 148.58666666666664 148.69333333333333Z" fill="#ffffff" stroke-width="10.6667"></path>
    <path d="M197.76 100.90666666666667A16 16 0 0 0 181.33333333333331 85.33333333333333h-9.386666666666667a5.226666666666667 5.226666666666667 0 0 1 -4.693333333333333 -2.986666666666667l-0.96 -1.8133333333333335a10.666666666666666 10.666666666666666 0 0 0 -9.066666666666666 -5.866666666666667h-30.826666666666668a10.666666666666666 10.666666666666666 0 0 0 -9.493333333333332 5.866666666666667l-0.96 1.8133333333333335a5.226666666666667 5.226666666666667 0 0 1 -4.693333333333333 2.986666666666667H74.66666666666666a16 16 0 0 0 -16 16v64A16.106666666666666 16.106666666666666 0 0 0 74.66666666666666 181.33333333333331h106.66666666666666a16 16 0 0 0 16 -16ZM138.66666666666666 160a26.666666666666664 26.666666666666664 0 1 1 26.666666666666664 -26.666666666666664A26.77333333333333 26.77333333333333 0 0 1 138.66666666666666 160Z" fill="#ffffff" stroke-width="10.6667"></path>
  </g>
</svg>