<svg xmlns="http://www.w3.org/2000/svg" viewBox="0 0 256 256" id="Allowances-No-Talking--Streamline-Ultimate" height="256" width="256">
  <desc>
    Allowances No Talking Streamline Icon: https://streamlinehq.com
  </desc>
  <g id="Allowances-No-Talking--Streamline-Ultimate.svg">
    <path d="M184 133.33333333333331a5.333333333333333 5.333333333333333 0 0 1 -10.666666666666666 0v-9.813333333333333a2.6666666666666665 2.6666666666666665 0 0 0 -1.5999999999999999 -2.453333333333333 2.7733333333333334 2.7733333333333334 0 0 0 -2.986666666666667 0.5333333333333333l-96 96a2.7733333333333334 2.7733333333333334 0 0 0 0 3.52l1.92 2.453333333333333a53.33333333333333 53.33333333333333 0 0 0 42.666666666666664 21.333333333333332h40.85333333333333a53.33333333333333 53.33333333333333 0 0 0 53.33333333333333 -53.33333333333333V86.18666666666667a2.6666666666666665 2.6666666666666665 0 0 0 -1.5999999999999999 -2.453333333333333 2.7733333333333334 2.7733333333333334 0 0 0 -2.986666666666667 0.5333333333333333l-21.333333333333332 21.333333333333332a3.093333333333333 3.093333333333333 0 0 0 -0.7466666666666667 1.92Z" fill="#ffffff" stroke-width="10.6667"></path>
    <path d="M237.65333333333334 21.333333333333332a8 8 0 0 0 -11.306666666666667 0l-48.42666666666666 48.10666666666666a2.7733333333333334 2.7733333333333334 0 0 1 -2.986666666666667 0.6399999999999999 2.6666666666666665 2.6666666666666665 0 0 1 -1.5999999999999999 -2.453333333333333V45.33333333333333a13.333333333333332 13.333333333333332 0 0 0 -26.666666666666664 0v54.29333333333333a2.7733333333333334 2.7733333333333334 0 0 1 -0.7466666666666667 1.8133333333333335l-5.333333333333333 5.333333333333333a2.7733333333333334 2.7733333333333334 0 0 1 -2.986666666666667 0.6399999999999999 2.6666666666666665 2.6666666666666665 0 0 1 -1.5999999999999999 -2.453333333333333V24a13.333333333333332 13.333333333333332 0 0 0 -26.666666666666664 0v98.66666666666666a5.333333333333333 5.333333333333333 0 0 1 -10.666666666666666 0v-74.66666666666666a13.333333333333332 13.333333333333332 0 0 0 -26.666666666666664 0v98.56a2.6666666666666665 2.6666666666666665 0 0 1 -1.7066666666666666 2.453333333333333 2.6666666666666665 2.6666666666666665 0 0 1 -2.986666666666667 -0.7466666666666667l-18.133333333333333 -21.333333333333332A12.906666666666666 12.906666666666666 0 0 0 32 128a17.28 17.28 0 0 0 -3.733333333333333 18.773333333333333A322.4533333333333 322.4533333333333 0 0 0 52.05333333333333 192a2.7733333333333334 2.7733333333333334 0 0 1 0 3.3066666666666666l-33.70666666666666 33.70666666666666a8 8 0 0 0 11.306666666666667 11.306666666666667L237.65333333333334 32a8 8 0 0 0 0 -10.666666666666666Z" fill="#ffffff" stroke-width="10.6667"></path>
  </g>
</svg>