<svg xmlns="http://www.w3.org/2000/svg" viewBox="0 0 256 256" id="American-Football-Helmet--Streamline-Ultimate" height="256" width="256">
  <desc>
    American Football Helmet Streamline Icon: https://streamlinehq.com
  </desc>
  <g id="American-Football-Helmet--Streamline-Ultimate.svg">
    <path d="M245.33333333333331 170.66666666666666H133.33333333333331a5.333333333333333 5.333333333333333 0 0 1 -5.333333333333333 -5.333333333333333 37.33333333333333 37.33333333333333 0 0 1 37.33333333333333 -37.33333333333333H234.66666666666666a10.666666666666666 10.666666666666666 0 0 0 7.68 -3.3066666666666666A10.666666666666666 10.666666666666666 0 0 0 245.33333333333331 117.33333333333333c0 -4.586666666666666 -0.7466666666666667 -9.173333333333332 -1.3866666666666667 -13.653333333333332a5.4399999999999995 5.4399999999999995 0 0 0 -5.333333333333333 -4.4799999999999995H154.66666666666666a56 56 0 0 0 -56 55.46666666666667 5.333333333333333 5.333333333333333 0 0 0 3.3066666666666666 4.906666666666666 29.333333333333332 29.333333333333332 0 1 1 -22.613333333333333 0 5.333333333333333 5.333333333333333 0 0 0 3.3066666666666666 -4.906666666666666 72.10666666666665 72.10666666666665 0 0 1 72 -72h93.33333333333333a8 8 0 0 0 0 -16H234.66666666666666a5.4399999999999995 5.4399999999999995 0 0 1 -4.266666666666667 -2.6666666666666665A122.66666666666666 122.66666666666666 0 0 0 0 122.66666666666666c0 56 41.70666666666666 108.69333333333333 90.98666666666665 118.82666666666667 4.266666666666667 0.8533333333333333 3.84 0.7466666666666667 25.066666666666666 3.093333333333333a21.333333333333332 21.333333333333332 0 0 1 7.786666666666666 2.453333333333333 74.66666666666666 74.66666666666666 0 0 0 35.519999999999996 8.959999999999999H224a32 32 0 0 0 32 -32v-42.666666666666664a10.666666666666666 10.666666666666666 0 0 0 -10.666666666666666 -10.666666666666666Zm-96 56.213333333333324a5.333333333333333 5.333333333333333 0 0 1 -7.04 5.013333333333333 50.666666666666664 50.666666666666664 0 0 1 -11.84 -5.76 5.333333333333333 5.333333333333333 0 0 1 -2.453333333333333 -4.4799999999999995V197.33333333333331a5.333333333333333 5.333333333333333 0 0 1 5.333333333333333 -5.333333333333333h10.666666666666666a5.333333333333333 5.333333333333333 0 0 1 5.333333333333333 5.333333333333333Zm42.666666666666664 2.453333333333333a5.333333333333333 5.333333333333333 0 0 1 -5.333333333333333 5.333333333333333h-10.666666666666666a5.333333333333333 5.333333333333333 0 0 1 -5.333333333333333 -5.333333333333333v-32a5.333333333333333 5.333333333333333 0 0 1 5.333333333333333 -5.333333333333333h10.666666666666666a5.333333333333333 5.333333333333333 0 0 1 5.333333333333333 5.333333333333333Zm42.666666666666664 -5.333333333333333a10.666666666666666 10.666666666666666 0 0 1 -10.666666666666666 10.666666666666666h-5.333333333333333a5.333333333333333 5.333333333333333 0 0 1 -5.333333333333333 -5.333333333333333v-32a5.333333333333333 5.333333333333333 0 0 1 5.333333333333333 -5.333333333333333h10.666666666666666a5.333333333333333 5.333333333333333 0 0 1 5.333333333333333 5.333333333333333Z" fill="#ffffff" stroke-width="10.6667"></path>
    <path d="M77.33333333333333 186.66666666666666a13.333333333333332 13.333333333333332 0 1 0 26.666666666666664 0 13.333333333333332 13.333333333333332 0 1 0 -26.666666666666664 0" fill="#ffffff" stroke-width="10.6667"></path>
  </g>
</svg>