<svg xmlns="http://www.w3.org/2000/svg" fill="none" viewBox="0 0 256 256" id="Ampersand--Streamline-Ultimate" height="256" width="256">
  <desc>
    Ampersand Streamline Icon: https://streamlinehq.com
  </desc>
  <path fill="#ffffff" fill-rule="evenodd" d="M91.07221333333332 42.17834666666666c-3.3935999999999997 9.0336 -1.814293333333333 21.389226666666666 6.343893333333334 31.946666666666665 3.038613333333333 3.93216 8.311253333333333 10.609706666666666 15.101226666666665 19.15936 6.856533333333333 -5.438826666666666 13.355733333333333 -10.812586666666665 19.221333333333334 -16.11104 9.653333333333332 -8.719146666666667 13.531733333333332 -22.16576 11.220266666666667 -32.876693333333336 -1.1210666666666667 -5.19264 -3.6234666666666664 -9.47872 -7.3408 -12.485546666666666 -3.6768 -2.974933333333333 -9.264 -5.281173333333333 -17.601066666666664 -5.281173333333333 -15.778239999999998 0 -23.812906666666667 7.311039999999999 -26.94485333333333 15.648426666666666Zm34.72938666666666 67.79925333333333c7.090133333333332 -5.625919999999999 13.963733333333332 -11.30656 20.2368 -16.973226666666665 15.234133333333332 -13.760746666666666 21.719466666666666 -34.92693333333333 17.772799999999997 -53.20874666666666 -2.0074666666666667 -9.303786666666666 -6.7893333333333326 -18.109119999999997 -14.7744 -24.569706666666665 -8.025599999999999 -6.492362666666666 -18.5568 -10.029301333333333 -31.019733333333335 -10.029301333333333 -23.72864 0 -40.34058666666667 11.976928000000001 -46.915519999999994 29.479541333333334 -6.313493333333334 16.806293333333333 -2.660053333333333 36.84256 9.43392 52.493226666666665 3.0028799999999998 3.8859733333333333 8.290133333333333 10.581546666666666 15.120853333333333 19.182506666666665 -1.5150933333333332 1.1574399999999998 -3.0365866666666665 2.3169066666666662 -4.560639999999999 3.4785066666666666 -9.979093333333333 7.6074666666666655 -20.0656 15.296 -29.160106666666668 22.8 -24.64384 20.330666666666666 -40.915839999999996 62.66026666666666 -12.878293333333334 96.09173333333332 15.295253333333331 18.2368 35.55925333333333 24.3968 56.4704 21.296 20.31552 -3.0133333333333328 40.82325333333333 -14.618666666666666 58.85525333333334 -30.8736 4.347733333333333 -3.92 8.445866666666666 -7.6 12.287999999999998 -11.045333333333334 9.528533333333332 12.020266666666666 18.432 23.2992 25.967999999999996 32.93013333333333 3.6298666666666666 4.64 10.333866666666665 5.4581333333333335 14.973866666666666 1.8282666666666665 4.64 -3.630933333333333 5.4581333333333335 -10.334933333333332 1.8272 -14.973866666666666 -7.84 -10.020266666666666 -17.0464 -21.681066666666666 -26.845866666666666 -34.04053333333333 1.6533333333333333 -1.4805333333333333 3.2266666666666666 -2.8917333333333333 4.721066666666666 -4.234666666666667 8.207999999999998 -7.3759999999999994 14.2976 -12.930133333333332 17.082666666666665 -15.928533333333334 4.008533333333333 -4.3168 3.7589333333333332 -11.0656 -0.5589333333333333 -15.074133333333332 -4.3168 -4.008533333333333 -11.0656 -3.7589333333333332 -15.074133333333332 0.5578666666666666 -1.9594666666666667 2.1098666666666666 -7.134933333333334 6.872533333333333 -15.708799999999998 14.577066666666667 -1.1914666666666665 1.0709333333333333 -2.4426666666666668 2.1930666666666667 -3.7514666666666665 3.3663999999999996 -12.334933333333334 -15.512533333333332 -25.041066666666666 -31.442133333333334 -36.742399999999996 -46.11093333333333 -5.9008 -7.3984 -11.546666666666667 -14.476799999999999 -16.76053333333333 -21.018666666666665Zm-16.858666666666664 13.070933333333333c-1.6885333333333332 1.2895999999999999 -3.3721599999999996 2.5728 -5.047466666666667 3.8506666666666662 -9.96096 7.5935999999999995 -19.637439999999998 14.970666666666666 -28.383786666666666 22.186666666666667 -19.144959999999998 15.795199999999998 -27.81504 44.81493333333333 -10.108693333333333 65.92746666666666 10.141226666666666 12.091733333333332 22.800959999999996 16.007466666666666 36.9952 13.901866666666665 14.79008 -2.1930666666666667 31.569813333333332 -11.075199999999999 47.70101333333333 -25.617066666666666 4.701866666666667 -4.238933333333333 9.141333333333332 -8.224 13.282133333333334 -11.936 -12.514133333333334 -15.739733333333334 -25.483733333333333 -32.0032 -37.42933333333333 -46.980266666666665 -5.989333333333333 -7.510399999999999 -11.721599999999999 -14.697599999999998 -17.009066666666666 -21.333333333333332Z" clip-rule="evenodd" stroke-width="10.6667"></path>
</svg>