<svg xmlns="http://www.w3.org/2000/svg" id="Amusement-Park-Ferris-Wheel--Streamline-Ultimate" width="256" height="256" viewBox="0 0 256 256"><desc>Amusement Park Ferris Wheel Streamline Icon: https://streamlinehq.com</desc><g id="Amusement-Park-Ferris-Wheel--Streamline-Ultimate.svg"><path fill="#fff" stroke-width="10.667" d="M234.02666666666667 97.91999999999999a5.226666666666667 5.226666666666667 0 0 1 -3.1999999999999997 -3.52 102.61333333333332 102.61333333333332 0 0 0 -10.133333333333333 -24.426666666666666 5.4399999999999995 5.4399999999999995 0 0 1 0 -4.8 26.560000000000002 26.560000000000002 0 0 0 -34.879999999999995 -34.879999999999995 5.4399999999999995 5.4399999999999995 0 0 1 -4.8 0 102.61333333333332 102.61333333333332 0 0 0 -24.426666666666666 -10.133333333333333 5.226666666666667 5.226666666666667 0 0 1 -3.52 -3.1999999999999997 26.77333333333333 26.77333333333333 0 0 0 -49.493333333333325 0 5.226666666666667 5.226666666666667 0 0 1 -3.52 3.1999999999999997 102.61333333333332 102.61333333333332 0 0 0 -24.426666666666666 10.666666666666666 5.4399999999999995 5.4399999999999995 0 0 1 -4.8 0 26.560000000000002 26.560000000000002 0 0 0 -35.199999999999996 34.346666666666664 5.4399999999999995 5.4399999999999995 0 0 1 0 4.8 102.61333333333332 102.61333333333332 0 0 0 -10.666666666666666 24.426666666666666 5.226666666666667 5.226666666666667 0 0 1 -3.1999999999999997 3.52 26.77333333333333 26.77333333333333 0 0 0 0 49.493333333333325 5.119999999999999 5.119999999999999 0 0 1 3.093333333333333 3.52 105.91999999999999 105.91999999999999 0 0 0 29.119999999999997 48.74666666666667 10.666666666666666 10.666666666666666 0 0 0 15.146666666666665 0 10.666666666666666 10.666666666666666 0 0 0 0 -15.04A85.86666666666667 85.86666666666667 0 0 1 46.82666666666666 149.33333333333331a5.546666666666667 5.546666666666667 0 0 1 1.8133333333333335 -5.866666666666667 26.560000000000002 26.560000000000002 0 0 0 0 -41.599999999999994A5.333333333333333 5.333333333333333 0 0 1 46.93333333333334 96a96 96 0 0 1 4.906666666666666 -11.84 5.4399999999999995 5.4399999999999995 0 0 1 5.333333333333333 -2.88 26.77333333333333 26.77333333333333 0 0 0 29.439999999999998 -29.439999999999998 5.546666666666667 5.546666666666667 0 0 1 2.88 -5.333333333333333A96 96 0 0 1 101.33333333333333 41.599999999999994a5.333333333333333 5.333333333333333 0 0 1 5.866666666666667 1.7066666666666666 26.560000000000002 26.560000000000002 0 0 0 41.599999999999994 0 5.333333333333333 5.333333333333333 0 0 1 5.866666666666667 -1.7066666666666666 96 96 0 0 1 11.84 4.906666666666666 5.4399999999999995 5.4399999999999995 0 0 1 2.88 5.333333333333333 26.77333333333333 26.77333333333333 0 0 0 29.439999999999998 29.439999999999998 5.4399999999999995 5.4399999999999995 0 0 1 5.333333333333333 2.88A96 96 0 0 1 209.06666666666666 96a5.333333333333333 5.333333333333333 0 0 1 -1.7066666666666666 5.866666666666667 26.560000000000002 26.560000000000002 0 0 0 0 41.599999999999994 5.333333333333333 5.333333333333333 0 0 1 1.8133333333333335 5.866666666666667 86.82666666666667 86.82666666666667 0 0 1 -22.08 34.986666666666665 10.666666666666666 10.666666666666666 0 1 0 14.719999999999999 15.36 105.91999999999999 105.91999999999999 0 0 0 29.119999999999997 -48.74666666666667 5.546666666666667 5.546666666666667 0 0 1 3.093333333333333 -3.626666666666667 26.666666666666664 26.666666666666664 0 0 0 0 -49.38666666666666Z"/><path fill="#fff" stroke-width="10.667" d="M224 234.66666666666666h-32a5.226666666666667 5.226666666666667 0 0 1 -4.906666666666666 -3.3066666666666666l-39.46666666666667 -93.75999999999999a2.6666666666666665 2.6666666666666665 0 0 1 0.5333333333333333 -2.7733333333333334 26.666666666666664 26.666666666666664 0 1 0 -40.31999999999999 0 2.6666666666666665 2.6666666666666665 0 0 1 0.5333333333333333 2.7733333333333334l-39.46666666666667 93.75999999999999A5.226666666666667 5.226666666666667 0 0 1 64 234.66666666666666H32a10.666666666666666 10.666666666666666 0 0 0 0 21.333333333333332h192a10.666666666666666 10.666666666666666 0 0 0 0 -21.333333333333332Zm-60.48 -1.1733333333333333a2.7733333333333334 2.7733333333333334 0 0 1 -2.2399999999999998 1.1733333333333333H94.72a2.7733333333333334 2.7733333333333334 0 0 1 -2.2399999999999998 -1.1733333333333333 3.093333333333333 3.093333333333333 0 0 1 0 -2.5599999999999996l34.56 -82.34666666666666a1.2799999999999998 1.2799999999999998 0 0 1 2.3466666666666667 0l34.56 82.34666666666666a3.093333333333333 3.093333333333333 0 0 1 -0.42666666666666664 2.5599999999999996Z"/></g></svg>