<svg xmlns="http://www.w3.org/2000/svg" viewBox="0 0 256 256" id="Amusement-Park-Electric-Cars--Streamline-Ultimate" height="256" width="256">
  <desc>
    Amusement Park Electric Cars Streamline Icon: https://streamlinehq.com
  </desc>
  <g id="Amusement-Park-Electric-Cars--Streamline-Ultimate.svg">
    <path d="M234.66666666666666 213.33333333333331H21.333333333333332a21.333333333333332 21.333333333333332 0 0 0 -21.333333333333332 21.333333333333332 21.333333333333332 21.333333333333332 0 0 0 21.333333333333332 21.333333333333332h213.33333333333331a21.333333333333332 21.333333333333332 0 0 0 21.333333333333332 -21.333333333333332 21.333333333333332 21.333333333333332 0 0 0 -21.333333333333332 -21.333333333333332Z" fill="#ffffff" stroke-width="10.6667"></path>
    <path d="M160 112a10.666666666666666 10.666666666666666 0 0 0 -10.666666666666666 10.666666666666666 1.7066666666666666 1.7066666666666666 0 0 1 -1.0666666666666667 1.5999999999999999 1.5999999999999999 1.5999999999999999 0 0 1 -1.92 0l-14.719999999999999 -13.653333333333332a4.373333333333333 4.373333333333333 0 0 1 -1.4933333333333334 -3.9466666666666663 4.4799999999999995 4.4799999999999995 0 0 1 1.3866666666666667 -3.413333333333333 10.666666666666666 10.666666666666666 0 1 0 -15.146666666666665 -15.146666666666665l-22.613333333333333 22.93333333333333a10.666666666666666 10.666666666666666 0 0 0 0 15.146666666666665 10.666666666666666 10.666666666666666 0 0 0 15.146666666666665 0 5.973333333333334 5.973333333333334 0 0 1 8.213333333333333 0l14.506666666666668 13.44a2.6666666666666665 2.6666666666666665 0 0 1 0.7466666666666667 2.88 2.6666666666666665 2.6666666666666665 0 0 1 -2.5599999999999996 1.7066666666666666H80A5.333333333333333 5.333333333333333 0 0 1 74.66666666666666 138.66666666666666v-10.666666666666666a26.77333333333333 26.77333333333333 0 0 0 -17.813333333333333 -25.173333333333332 5.333333333333333 5.333333333333333 0 0 1 -3.52 -5.013333333333333V10.666666666666666a10.666666666666666 10.666666666666666 0 0 0 -4.693333333333333 -8.853333333333332 10.666666666666666 10.666666666666666 0 0 0 -9.92 -1.0666666666666667L9.706666666666667 12.373333333333331a16 16 0 0 0 -0.7466666666666667 29.119999999999997L32 52.58666666666666v44.373333333333335a5.333333333333333 5.333333333333333 0 0 1 -3.52 5.013333333333333 10.666666666666666 10.666666666666666 0 0 0 -7.1466666666666665 10.026666666666666V192a5.333333333333333 5.333333333333333 0 0 0 5.333333333333333 5.333333333333333h202.66666666666666a5.333333333333333 5.333333333333333 0 0 0 5.333333333333333 -5.333333333333333v-5.333333333333333a74.66666666666666 74.66666666666666 0 0 0 -74.66666666666666 -74.66666666666666Z" fill="#ffffff" stroke-width="10.6667"></path>
  </g>
</svg>