<svg xmlns="http://www.w3.org/2000/svg" id="Amusement-Park-Balloon--Streamline-Ultimate" width="256" height="256" viewBox="0 0 256 256"><desc>Amusement Park Balloon Streamline Icon: https://streamlinehq.com</desc><path fill="#fff" stroke-width="10.667" d="M228.48000000000002 157.01333333333332a60.8 60.8 0 0 0 25.28 -37.22666666666667c7.253333333333334 -28.69333333333333 -3.52 -55.46666666666667 -24.64 -60.8s-43.30666666666666 13.013333333333332 -50.56 41.70666666666666a69.54666666666665 69.54666666666665 0 0 0 -2.1333333333333333 21.333333333333332 81.38666666666666 81.38666666666666 0 0 0 -21.333333333333332 -2.7733333333333334 79.46666666666667 79.46666666666667 0 0 0 -20.586666666666666 2.5599999999999996 77.75999999999999 77.75999999999999 0 0 0 -2.1333333333333333 -16.21333333333333 67.52 67.52 0 0 0 -16 -29.759999999999998A45.120000000000005 45.120000000000005 0 0 0 130.98666666666665 42.666666666666664a40 40 0 0 0 -37.33333333333333 -42.666666666666664 39.14666666666666 39.14666666666666 0 0 0 -37.013333333333335 36.48A46.18666666666667 46.18666666666667 0 0 0 42.666666666666664 34.346666666666664a40.31999999999999 40.31999999999999 0 0 0 -42.666666666666664 37.33333333333333 40.31999999999999 40.31999999999999 0 0 0 42.666666666666664 37.33333333333333 49.70666666666666 49.70666666666666 0 0 0 12.053333333333331 -1.4933333333333334 68.90666666666667 68.90666666666667 0 0 0 2.3466666666666667 17.599999999999998 61.76 61.76 0 0 0 21.333333333333332 34.56 62.50666666666667 62.50666666666667 0 0 0 -21.333333333333332 34.56c-7.359999999999999 28.8 3.413333333333333 55.46666666666667 24.53333333333333 60.8a27.626666666666665 27.626666666666665 0 0 0 7.253333333333334 0.96 37.54666666666667 37.54666666666667 0 0 0 24.85333333333333 -10.666666666666666 64.96 64.96 0 0 0 18.56 -32 74.02666666666667 74.02666666666667 0 0 0 2.1333333333333333 -21.333333333333332 83.73333333333332 83.73333333333332 0 0 0 20.586666666666666 2.453333333333333 81.38666666666666 81.38666666666666 0 0 0 21.333333333333332 -2.7733333333333334 69.22666666666666 69.22666666666666 0 0 0 2.1333333333333333 21.333333333333332c6.3999999999999995 25.386666666666663 24.53333333333333 42.666666666666664 43.199999999999996 42.666666666666664a29.013333333333335 29.013333333333335 0 0 0 7.359999999999999 -0.96c21.333333333333332 -5.333333333333333 32 -32 24.64 -60.8a60.8 60.8 0 0 0 -25.173333333333332 -36.906666666666666ZM42.666666666666664 87.68c-11.626666666666667 0 -21.333333333333332 -7.253333333333334 -21.333333333333332 -16s9.706666666666667 -16 21.333333333333332 -16 21.333333333333332 7.359999999999999 21.333333333333332 16 -9.813333333333333 16 -21.333333333333332 16ZM93.65333333333332 21.333333333333332c8.64 0 16 9.813333333333333 16 21.333333333333332s-7.359999999999999 21.333333333333332 -16 21.333333333333332 -16 -9.706666666666667 -16 -21.333333333333332S85.33333333333333 21.333333333333332 93.65333333333332 21.333333333333332Zm17.919999999999998 187.0933333333333c-3.093333333333333 11.946666666666667 -13.653333333333332 29.013333333333335 -24.746666666666663 26.24 -8 -2.0266666666666664 -13.546666666666667 -17.28 -9.173333333333332 -34.773333333333326 3.3066666666666666 -12.799999999999999 13.866666666666667 -29.013333333333335 24.746666666666663 -26.24s12.159999999999998 22.613333333333333 9.173333333333332 34.45333333333333ZM102.39999999999999 146.13333333333333c-8 2.0266666666666664 -20.159999999999997 -8.32 -24.746666666666663 -26.24s1.1733333333333333 -32.85333333333333 9.173333333333332 -34.56c10.666666666666666 -2.7733333333333334 21.333333333333332 14.4 24.746666666666663 26.24s1.8133333333333335 31.68 -9.173333333333332 34.56Zm52.58666666666666 26.88c-21.333333333333332 0 -34.666666666666664 -9.493333333333332 -34.666666666666664 -16s13.44 -16 34.666666666666664 -16 34.666666666666664 9.493333333333332 34.666666666666664 16 -13.546666666666667 16 -34.666666666666664 16Zm44.266666666666666 -67.09333333333333C202.66666666666666 93.86666666666667 212.69333333333333 76.90666666666667 224 79.67999999999999c8 2.0266666666666664 13.546666666666667 17.386666666666663 9.173333333333332 34.879999999999995s-16.746666666666666 28.16 -24.746666666666663 26.24c-10.986666666666666 -2.7733333333333334 -12.159999999999998 -23.46666666666667 -9.173333333333332 -34.879999999999995ZM224 234.66666666666666c-8 2.1333333333333333 -20.159999999999997 -8.213333333333333 -24.64 -26.24 -3.093333333333333 -11.84 -1.8133333333333335 -32 9.066666666666666 -34.773333333333326s21.333333333333332 13.013333333333332 24.746666666666663 26.24c4.266666666666667 17.173333333333332 -1.2799999999999998 32.42666666666666 -9.173333333333332 34.773333333333326Z"/></svg>