<svg xmlns="http://www.w3.org/2000/svg" viewBox="0 0 256 256" id="Amusement-Park-Castle--Streamline-Ultimate" height="256" width="256">
  <desc>
    Amusement Park Castle Streamline Icon: https://streamlinehq.com
  </desc>
  <g id="Amusement-Park-Castle--Streamline-Ultimate.svg">
    <path d="M254.82666666666665 247.36A81.06666666666666 81.06666666666666 0 0 1 234.66666666666666 197.33333333333331a5.333333333333333 5.333333333333333 0 0 0 -5.333333333333333 -5.333333333333333h-202.66666666666666a5.333333333333333 5.333333333333333 0 0 0 -5.333333333333333 5.333333333333333 81.06666666666666 81.06666666666666 0 0 1 -20.159999999999997 50.02666666666667 5.4399999999999995 5.4399999999999995 0 0 0 -0.6399999999999999 5.653333333333333 5.333333333333333 5.333333333333333 0 0 0 4.8 2.986666666666667h96a5.333333333333333 5.333333333333333 0 0 0 5.333333333333333 -5.333333333333333V234.66666666666666a21.333333333333332 21.333333333333332 0 0 1 42.666666666666664 0v16a5.333333333333333 5.333333333333333 0 0 0 5.333333333333333 5.333333333333333h96a5.333333333333333 5.333333333333333 0 0 0 4.8 -2.986666666666667 5.4399999999999995 5.4399999999999995 0 0 0 -0.6399999999999999 -5.653333333333333Z" fill="#ffffff" stroke-width="10.6667"></path>
    <path d="M26.666666666666664 176h202.66666666666666a5.333333333333333 5.333333333333333 0 0 0 5.333333333333333 -5.333333333333333v-46.82666666666666a10.666666666666666 10.666666666666666 0 0 0 -0.96 -4.373333333333333l-16.746666666666666 -37.86666666666666a10.666666666666666 10.666666666666666 0 0 1 -0.96 -4.373333333333333v-5.653333333333333a5.333333333333333 5.333333333333333 0 0 1 2.5599999999999996 -4.586666666666666L234.66666666666666 57.6a10.666666666666666 10.666666666666666 0 0 0 -1.4933333333333334 -18.986666666666665l-21.333333333333332 -8.746666666666666a8.106666666666666 8.106666666666666 0 0 0 -7.466666666666666 0.8533333333333333 7.893333333333333 7.893333333333333 0 0 0 -3.52 6.613333333333333v39.89333333333333a10.666666666666666 10.666666666666666 0 0 1 -0.96 4.373333333333333l-17.599999999999998 37.86666666666666a10.666666666666666 10.666666666666666 0 0 0 -0.96 4.373333333333333V149.33333333333331a5.333333333333333 5.333333333333333 0 0 1 -5.333333333333333 5.333333333333333H170.66666666666666a5.333333333333333 5.333333333333333 0 0 1 -5.333333333333333 -5.333333333333333V102.93333333333334a10.666666666666666 10.666666666666666 0 0 0 -1.8133333333333335 -5.866666666666667l-25.706666666666667 -38.61333333333333a10.666666666666666 10.666666666666666 0 0 1 -1.8133333333333335 -5.973333333333334V42.666666666666664a5.333333333333333 5.333333333333333 0 0 1 2.6666666666666665 -5.013333333333333l15.573333333333332 -9.386666666666667a10.666666666666666 10.666666666666666 0 0 0 -1.5999999999999999 -18.986666666666665l-21.333333333333332 -8.746666666666666a8.106666666666666 8.106666666666666 0 0 0 -7.466666666666666 0.8533333333333333 7.893333333333333 7.893333333333333 0 0 0 -3.52 6.613333333333333v44.48a10.666666666666666 10.666666666666666 0 0 1 -1.8133333333333335 5.973333333333334L92.47999999999999 97.06666666666666a10.666666666666666 10.666666666666666 0 0 0 -1.8133333333333335 5.866666666666667V149.33333333333331a5.333333333333333 5.333333333333333 0 0 1 -5.333333333333333 5.333333333333333h-5.333333333333333A5.333333333333333 5.333333333333333 0 0 1 74.66666666666666 149.33333333333331v-25.493333333333332a10.666666666666666 10.666666666666666 0 0 0 -0.96 -4.373333333333333L56.959999999999994 81.6a10.666666666666666 10.666666666666666 0 0 1 -0.96 -4.373333333333333v-5.653333333333333a5.333333333333333 5.333333333333333 0 0 1 2.5599999999999996 -4.586666666666666L74.66666666666666 57.6a10.666666666666666 10.666666666666666 0 0 0 -1.4933333333333334 -18.986666666666665l-21.333333333333332 -8.746666666666666a8.106666666666666 8.106666666666666 0 0 0 -7.466666666666666 0.8533333333333333 7.893333333333333 7.893333333333333 0 0 0 -3.52 6.613333333333333v39.89333333333333a10.666666666666666 10.666666666666666 0 0 1 -0.96 4.373333333333333L22.29333333333333 119.46666666666665a10.666666666666666 10.666666666666666 0 0 0 -0.96 4.373333333333333V170.66666666666666a5.333333333333333 5.333333333333333 0 0 0 5.333333333333333 5.333333333333333Zm101.33333333333333 -64a10.666666666666666 10.666666666666666 0 1 1 -10.666666666666666 10.666666666666666 10.666666666666666 10.666666666666666 0 0 1 10.666666666666666 -10.666666666666666Z" fill="#ffffff" stroke-width="10.6667"></path>
  </g>
</svg>