<svg xmlns="http://www.w3.org/2000/svg" id="Analytics-Graph-Lines-2--Streamline-Ultimate" width="256" height="256" fill="none" viewBox="0 0 256 256"><desc>Analytics Graph Lines 2 Streamline Icon: https://streamlinehq.com</desc><path fill="#fff" fill-rule="evenodd" stroke-width="10.667" d="M21.365333333333332 10.666666666666666a10.666666666666666 10.666666666666666 0 1 0 -21.333333333333332 0v55.89333333333333l0 0.29866666666666664v57.17333333333333l0 0.10666666666666666v90.70933333333332a10.666666666666666 10.666666666666666 0 0 0 0 0.3626666666666667V245.33333333333331a10.666666666666666 10.666666666666666 0 0 0 10.666666666666666 10.666666666666666h234.60266666666666a10.666666666666666 10.666666666666666 0 0 0 0 -21.333333333333332H21.365333333333332v-13.642666666666665l74.78399999999999 -45.397333333333336 20.32 15.072c1.0879999999999999 0.8106666666666666 2.336 1.408 3.648 1.76l88.65066666666667 23.21066666666667a10.666666666666666 10.666666666666666 0 0 0 11.765333333333333 -4.693333333333333l31.28533333333333 -50.29333333333333a10.666666666666666 10.666666666666666 0 0 0 -18.112 -11.264l-27.136 43.626666666666665 -79.03999999999999 -20.704 -24.426666666666666 -18.112a10.666666666666666 10.666666666666666 0 0 0 -11.893333333333333 -0.5546666666666666L21.365333333333332 196.0533333333333v-67.872L44.34133333333333 102.72l30.645333333333333 21.024a10.666666666666666 10.666666666666666 0 0 0 11.413333333333334 0.416l29.247999999999998 -17.098666666666666 31.093333333333334 48.82133333333333a10.666666666666666 10.666666666666666 0 0 0 17.354666666666667 0.9066666666666667l47.434666666666665 -59.70133333333334 25.792 15.306666666666667a10.666666666666666 10.666666666666666 0 0 0 10.879999999999999 -18.346666666666664l-23.274666666666665 -13.813333333333333 26.186666666666667 -32.959999999999994a10.666666666666666 10.666666666666666 0 0 0 -16.704 -13.269333333333332l-28 35.242666666666665 -28.522666666666666 -16.917333333333332a10.666666666666666 10.666666666666666 0 0 0 -10.826666666666664 -0.042666666666666665L122.61333333333332 78.29333333333332l-27.626666666666665 -43.370666666666665A10.666666666666666 10.666666666666666 0 0 0 78.08 33.49333333333333L41.024 74.56 21.365333333333332 61.120000000000005V10.666666666666666ZM58.773333333333326 86.75199999999998l22.72 15.584L104.18133333333333 89.06666666666666 84.52266666666667 58.19733333333333 58.773333333333326 86.75199999999998Zm-32.17066666666666 3.808 -5.226666666666667 -3.584v9.365333333333332l5.226666666666667 -5.781333333333333Zm107.488 5.738666666666667 22.613333333333333 35.519999999999996 36.31999999999999 -45.70666666666666 -20.607999999999997 -12.223999999999998 -38.32533333333333 22.4Z" clip-rule="evenodd"/></svg>