<svg xmlns="http://www.w3.org/2000/svg" id="Analytics-Mountain--Streamline-Ultimate" width="256" height="256" viewBox="0 0 256 256"><desc>Analytics Mountain Streamline Icon: https://streamlinehq.com</desc><g id="Analytics-Mountain--Streamline-Ultimate.svg"><path fill="#fff" stroke-width="10.667" d="M245.33333333333331 224H26.666666666666664a5.333333333333333 5.333333333333333 0 0 1 -5.333333333333333 -5.333333333333333V21.333333333333332a10.666666666666666 10.666666666666666 0 0 0 -21.333333333333332 0v208A16 16 0 0 0 16 245.33333333333331H245.33333333333331a10.666666666666666 10.666666666666666 0 0 0 0 -21.333333333333332Z"/><path fill="#fff" stroke-width="10.667" d="M189.33333333333331 197.33333333333331a10.666666666666666 10.666666666666666 0 0 0 0 -21.333333333333332 21.973333333333333 21.973333333333333 0 0 1 -11.52 -2.7733333333333334 10.666666666666666 10.666666666666666 0 0 0 -14.719999999999999 3.3066666666666666 10.666666666666666 10.666666666666666 0 0 0 3.3066666666666666 14.719999999999999 42.666666666666664 42.666666666666664 0 0 0 22.93333333333333 6.079999999999999Z"/><path fill="#fff" stroke-width="10.667" d="m89.91999999999999 162.34666666666666 12.799999999999999 -70.08A14.719999999999999 14.719999999999999 0 0 1 117.33333333333333 80a10.666666666666666 10.666666666666666 0 0 0 10.666666666666666 -10.666666666666666 10.666666666666666 10.666666666666666 0 0 0 -10.666666666666666 -10.666666666666666 36.266666666666666 36.266666666666666 0 0 0 -35.626666666666665 29.759999999999998l-12.799999999999999 70.08a21.333333333333332 21.333333333333332 0 0 1 -21.333333333333332 17.493333333333332 10.666666666666666 10.666666666666666 0 0 0 0 21.333333333333332 42.666666666666664 42.666666666666664 0 0 0 42.346666666666664 -34.986666666666665Z"/><path fill="#fff" stroke-width="10.667" d="M245.33333333333331 176a21.333333333333332 21.333333333333332 0 0 1 -21.333333333333332 -17.493333333333332l-12.799999999999999 -70.08a35.306666666666665 35.306666666666665 0 0 0 -35.199999999999996 -29.65333333333333 35.306666666666665 35.306666666666665 0 0 0 -35.626666666666665 29.65333333333333L128 158.50666666666666a21.333333333333332 21.333333333333332 0 0 1 -21.333333333333332 17.493333333333332 10.666666666666666 10.666666666666666 0 0 0 0 21.333333333333332 42.666666666666664 42.666666666666664 0 0 0 41.92 -34.986666666666665l12.799999999999999 -70.08a14.826666666666664 14.826666666666664 0 0 1 29.226666666666667 0l12.799999999999999 70.08A42.666666666666664 42.666666666666664 0 0 0 245.33333333333331 197.33333333333331a10.666666666666666 10.666666666666666 0 0 0 0 -21.333333333333332Z"/></g></svg>