<svg xmlns="http://www.w3.org/2000/svg" viewBox="0 0 256 256" id="Analytics-Net--Streamline-Ultimate" height="256" width="256">
  <desc>
    Analytics Net Streamline Icon: https://streamlinehq.com
  </desc>
  <path d="M245.33333333333331 218.66666666666666v-181.33333333333331a32 32 0 0 0 -32 -32H42.666666666666664a32 32 0 0 0 -32 32v181.33333333333331a32 32 0 0 0 32 32h170.66666666666666a32 32 0 0 0 32 -32Zm-21.333333333333332 -61.33333333333333a2.6666666666666665 2.6666666666666665 0 0 1 -2.6666666666666665 2.6666666666666665h-42.666666666666664a2.6666666666666665 2.6666666666666665 0 0 1 -2.6666666666666665 -2.6666666666666665V97.91999999999999a2.6666666666666665 2.6666666666666665 0 0 1 0.96 -1.92 347.62666666666667 347.62666666666667 0 0 1 42.666666666666664 -32 2.6666666666666665 2.6666666666666665 0 0 1 3.9466666666666663 2.3466666666666667Zm-138.66666666666666 69.33333333333333a2.6666666666666665 2.6666666666666665 0 0 1 -2.6666666666666665 2.6666666666666665H42.666666666666664a10.666666666666666 10.666666666666666 0 0 1 -10.666666666666666 -10.666666666666666v-34.666666666666664a2.6666666666666665 2.6666666666666665 0 0 1 2.6666666666666665 -2.6666666666666665h48a2.6666666666666665 2.6666666666666665 0 0 1 2.6666666666666665 2.6666666666666665Zm0 -69.33333333333333a2.6666666666666665 2.6666666666666665 0 0 1 -2.6666666666666665 2.6666666666666665H32.85333333333333a0.96 0.96 0 0 1 -0.8533333333333333 -0.8533333333333333 1.4933333333333334 1.4933333333333334 0 0 1 0 -0.6399999999999999l35.946666666666665 -39.57333333333333a20.266666666666666 20.266666666666666 0 0 1 14.506666666666668 -5.546666666666667 2.6666666666666665 2.6666666666666665 0 0 1 2.6666666666666665 2.6666666666666665ZM52.373333333333335 104.64l-15.786666666666665 17.28a2.453333333333333 2.453333333333333 0 0 1 -2.88 0.7466666666666667 2.6666666666666665 2.6666666666666665 0 0 1 -1.7066666666666666 -2.453333333333333V37.33333333333333a10.666666666666666 10.666666666666666 0 0 1 10.666666666666666 -10.666666666666666h170.66666666666666a10.666666666666666 10.666666666666666 0 0 1 10.666666666666666 10.666666666666666 2.3466666666666667 2.3466666666666667 0 0 1 -1.5999999999999999 2.2399999999999998c-21.333333333333332 7.359999999999999 -45.54666666666666 29.226666666666667 -84.37333333333333 60.373333333333335a26.986666666666665 26.986666666666665 0 0 1 -24.64 2.7733333333333334L98.56 96a41.38666666666666 41.38666666666666 0 0 0 -46.18666666666667 8.64Zm102.29333333333332 122.02666666666666a2.6666666666666665 2.6666666666666665 0 0 1 -2.6666666666666665 2.6666666666666665h-42.666666666666664a2.6666666666666665 2.6666666666666665 0 0 1 -2.6666666666666665 -2.6666666666666665v-42.666666666666664a2.6666666666666665 2.6666666666666665 0 0 1 2.6666666666666665 -2.6666666666666665h42.666666666666664a2.6666666666666665 2.6666666666666665 0 0 1 2.6666666666666665 2.6666666666666665Zm0 -69.33333333333333a2.6666666666666665 2.6666666666666665 0 0 1 -2.6666666666666665 2.6666666666666665h-42.666666666666664a2.6666666666666665 2.6666666666666665 0 0 1 -2.6666666666666665 -2.6666666666666665v-30.613333333333333a2.7733333333333334 2.7733333333333334 0 0 1 1.0666666666666667 -2.1333333333333333 2.5599999999999996 2.5599999999999996 0 0 1 2.3466666666666667 0 48.63999999999999 48.63999999999999 0 0 0 41.28 -7.573333333333332 1.7066666666666666 1.7066666666666666 0 0 1 2.1333333333333333 0 1.92 1.92 0 0 1 1.1733333333333333 1.8133333333333335Zm21.333333333333332 69.33333333333333v-42.666666666666664a2.6666666666666665 2.6666666666666665 0 0 1 2.6666666666666665 -2.6666666666666665h42.666666666666664a2.6666666666666665 2.6666666666666665 0 0 1 2.6666666666666665 2.6666666666666665v34.666666666666664a10.666666666666666 10.666666666666666 0 0 1 -10.666666666666666 10.666666666666666h-34.666666666666664a2.6666666666666665 2.6666666666666665 0 0 1 -2.6666666666666665 -2.6666666666666665Z" fill="#ffffff" stroke-width="10.6667"></path>
</svg>