<svg xmlns="http://www.w3.org/2000/svg" viewBox="0 0 256 256" id="Analytics-Bars-3-D--Streamline-Ultimate" height="256" width="256">
  <desc>
    Analytics Bars 3 D Streamline Icon: https://streamlinehq.com
  </desc>
  <g id="Analytics-Bars-3-D--Streamline-Ultimate.svg">
    <path d="m66.98666666666666 141.01333333333332 38.4 -25.599999999999998a1.8133333333333335 1.8133333333333335 0 0 0 0.6399999999999999 -1.2799999999999998 1.5999999999999999 1.5999999999999999 0 0 0 -0.6399999999999999 -1.1733333333333333L70.61333333333333 89.81333333333333a12.799999999999999 12.799999999999999 0 0 0 -13.226666666666667 0l-34.773333333333326 23.146666666666665a1.5999999999999999 1.5999999999999999 0 0 0 -0.6399999999999999 1.1733333333333333 1.8133333333333335 1.8133333333333335 0 0 0 0.6399999999999999 1.2799999999999998l38.4 25.599999999999998a5.546666666666667 5.546666666666667 0 0 0 5.973333333333334 0Z" fill="#ffffff" stroke-width="10.6667"></path>
    <path d="M16.426666666666666 124.58666666666666a1.0666666666666667 1.0666666666666667 0 0 0 0 0.7466666666666667v91.94666666666666a16.96 16.96 0 0 0 6.613333333333333 12.479999999999999l34.773333333333326 24.426666666666666a12.799999999999999 12.799999999999999 0 0 0 13.226666666666667 0l34.773333333333326 -24.426666666666666a16.96 16.96 0 0 0 6.613333333333333 -12.479999999999999v-91.94666666666666a1.0666666666666667 1.0666666666666667 0 0 0 0 -0.7466666666666667 0.8533333333333333 0.8533333333333333 0 0 0 -0.8533333333333333 0l-38.72 25.28a16 16 0 0 1 -17.706666666666663 0l-37.86666666666666 -25.173333333333332a0.8533333333333333 0.8533333333333333 0 0 0 -0.8533333333333333 -0.10666666666666666Z" fill="#ffffff" stroke-width="10.6667"></path>
    <path d="M144.42666666666665 36.586666666666666a1.0666666666666667 1.0666666666666667 0 0 0 0 0.7466666666666667v179.94666666666666a16.96 16.96 0 0 0 6.613333333333333 12.479999999999999l34.773333333333326 24.426666666666666a12.799999999999999 12.799999999999999 0 0 0 13.226666666666667 0l34.773333333333326 -24.426666666666666a16.96 16.96 0 0 0 6.613333333333333 -12.479999999999999V37.33333333333333a1.0666666666666667 1.0666666666666667 0 0 0 0 -0.7466666666666667 0.8533333333333333 0.8533333333333333 0 0 0 -0.8533333333333333 0L200.8533333333333 61.86666666666666a16 16 0 0 1 -17.706666666666663 0l-37.86666666666666 -25.173333333333332a0.8533333333333333 0.8533333333333333 0 0 0 -0.8533333333333333 -0.10666666666666666Z" fill="#ffffff" stroke-width="10.6667"></path>
    <path d="m194.98666666666668 53.33333333333333 38.4 -25.599999999999998a1.8133333333333335 1.8133333333333335 0 0 0 0.6399999999999999 -1.2799999999999998 1.5999999999999999 1.5999999999999999 0 0 0 -0.6399999999999999 -1.1733333333333333L198.61333333333334 1.8133333333333335a12.799999999999999 12.799999999999999 0 0 0 -13.226666666666667 0l-34.773333333333326 23.146666666666665a1.5999999999999999 1.5999999999999999 0 0 0 -0.6399999999999999 1.1733333333333333 1.8133333333333335 1.8133333333333335 0 0 0 0.6399999999999999 1.2799999999999998L189.01333333333332 53.33333333333333a5.546666666666667 5.546666666666667 0 0 0 5.973333333333334 0Z" fill="#ffffff" stroke-width="10.6667"></path>
  </g>
</svg>