<svg xmlns="http://www.w3.org/2000/svg" id="Analytics-Board-Graph-Line--Streamline-Ultimate" width="256" height="256" viewBox="0 0 256 256"><desc>Analytics Board Graph Line Streamline Icon: https://streamlinehq.com</desc><path fill="#fff" stroke-width="10.667" d="M16 224h224a16 16 0 0 0 16 -16v-160A16 16 0 0 0 240 32h-224A16 16 0 0 0 0 48v160A16 16 0 0 0 16 224Zm12.159999999999998 -54.18666666666667 27.41333333333333 -45.653333333333336a16 16 0 0 1 27.52 0l17.706666666666663 29.65333333333333a3.1999999999999997 3.1999999999999997 0 0 0 2.1333333333333333 1.2799999999999998 2.88 2.88 0 0 0 2.2399999999999998 -0.96l10.666666666666666 -12.693333333333332a16.426666666666666 16.426666666666666 0 0 1 24.53333333333333 0l12.799999999999999 15.253333333333332 46.50666666666667 -81.49333333333333a10.666666666666666 10.666666666666666 0 0 1 18.56 10.666666666666666l-50.346666666666664 88.21333333333332a15.893333333333333 15.893333333333333 0 0 1 -12.479999999999999 8 16.106666666666666 16.106666666666666 0 0 1 -13.76 -5.76l-11.52 -13.76a2.6666666666666665 2.6666666666666665 0 0 0 -4.053333333333333 0l-11.626666666666667 13.973333333333333a16.106666666666666 16.106666666666666 0 0 1 -26.026666666666664 -2.0266666666666664l-16.85333333333333 -27.946666666666665a2.5599999999999996 2.5599999999999996 0 0 0 -4.4799999999999995 0L46.50666666666667 181.33333333333331a10.666666666666666 10.666666666666666 0 0 1 -9.173333333333332 5.226666666666667 10.666666666666666 10.666666666666666 0 0 1 -5.333333333333333 -2.0266666666666664 10.666666666666666 10.666666666666666 0 0 1 -3.84 -14.719999999999999Z"/></svg>