<svg xmlns="http://www.w3.org/2000/svg" id="Android-1--Streamline-Ultimate" width="256" height="256" viewBox="0 0 256 256"><desc>Android 1 Streamline Icon: https://streamlinehq.com</desc><g id="Android-1--Streamline-Ultimate.svg"><path fill="#fff" stroke-width="10.667" d="M68.90666666666667 244.0533333333333h118.18666666666667a13.013333333333332 13.013333333333332 0 0 0 12.906666666666666 -13.12v-106.66666666666666a8 8 0 0 0 -8 -8H64a8 8 0 0 0 -8 8v106.66666666666666a13.013333333333332 13.013333333333332 0 0 0 12.906666666666666 13.12Z"/><path fill="#fff" stroke-width="10.667" d="M55.67999999999999 88.53333333333333a10.666666666666666 10.666666666666666 0 0 0 1.3866666666666667 9.706666666666667 10.666666666666666 10.666666666666666 0 0 0 8.64 4.4799999999999995h124.47999999999999a10.666666666666666 10.666666666666666 0 0 0 8.746666666666666 -4.4799999999999995 10.666666666666666 10.666666666666666 0 0 0 1.3866666666666667 -9.813333333333333 73.38666666666666 73.38666666666666 0 0 0 -36.16 -41.17333333333333 2.88 2.88 0 0 1 -1.2799999999999998 -3.413333333333333l6.826666666666666 -17.28A10.666666666666666 10.666666666666666 0 1 0 149.33333333333331 18.773333333333333l-7.359999999999999 19.093333333333334a2.88 2.88 0 0 1 -2.88 1.7066666666666666 77.44 77.44 0 0 0 -22.93333333333333 0 2.6666666666666665 2.6666666666666665 0 0 1 -2.88 -1.7066666666666666L106.66666666666666 18.88a10.666666666666666 10.666666666666666 0 1 0 -19.946666666666665 7.68l6.72 17.28a2.5599999999999996 2.5599999999999996 0 0 1 -1.2799999999999998 3.3066666666666666A72.96 72.96 0 0 0 55.67999999999999 88.53333333333333Zm96 -23.146666666666665a8 8 0 1 1 -8 8 8 8 0 0 1 8.32 -8Zm-48 0a8 8 0 1 1 -7.68 8 8 8 0 0 1 8 -8Z"/><path fill="#fff" stroke-width="10.667" d="M234.66666666666666 204.0533333333333v-74.66666666666666a10.666666666666666 10.666666666666666 0 0 0 -21.333333333333332 0v74.66666666666666a10.666666666666666 10.666666666666666 0 0 0 21.333333333333332 0Z"/><path fill="#fff" stroke-width="10.667" d="M32 118.72a10.666666666666666 10.666666666666666 0 0 0 -10.666666666666666 10.666666666666666v74.66666666666666a10.666666666666666 10.666666666666666 0 0 0 21.333333333333332 0v-74.66666666666666a10.666666666666666 10.666666666666666 0 0 0 -10.666666666666666 -10.666666666666666Z"/></g></svg>