<svg xmlns="http://www.w3.org/2000/svg" viewBox="0 0 256 256" id="Animal-Products-Egg--Streamline-Ultimate" height="256" width="256">
  <desc>
    Animal Products Egg Streamline Icon: https://streamlinehq.com
  </desc>
  <g id="Animal-Products-Egg--Streamline-Ultimate.svg">
    <path d="M128 0C80.85333333333332 0 48 60.693333333333335 48 120a7.573333333333332 7.573333333333332 0 0 0 6.826666666666666 8h146.34666666666666a7.573333333333332 7.573333333333332 0 0 0 6.826666666666666 -8C208 60.693333333333335 175.14666666666668 0 128 0Zm-1.5999999999999999 37.12c-10.666666666666666 0 -20.479999999999997 8.426666666666666 -28.16 23.04a6.826666666666666 6.826666666666666 0 0 1 -5.973333333333334 3.84 6.933333333333334 6.933333333333334 0 0 1 -3.626666666666667 -1.1733333333333333 8.746666666666666 8.746666666666666 0 0 1 -2.2399999999999998 -10.666666666666666C96.64 32 111.25333333333333 21.333333333333332 126.39999999999999 21.333333333333332a7.573333333333332 7.573333333333332 0 0 1 6.933333333333334 8 7.466666666666666 7.466666666666666 0 0 1 -6.933333333333334 7.786666666666666Z" fill="#ffffff" stroke-width="10.6667"></path>
    <path d="M221.54666666666665 157.01333333333332a10.666666666666666 10.666666666666666 0 0 0 -2.1333333333333333 -8.959999999999999 10.666666666666666 10.666666666666666 0 0 0 -8.32 -4.053333333333333H44.906666666666666a10.666666666666666 10.666666666666666 0 0 0 -8.32 4.053333333333333 10.666666666666666 10.666666666666666 0 0 0 -2.1333333333333333 8.959999999999999 136.10666666666665 136.10666666666665 0 0 0 38.50666666666666 71.78666666666666A5.226666666666667 5.226666666666667 0 0 1 74.66666666666666 234.66666666666666c-0.96 2.2399999999999998 -1.92 4.4799999999999995 -2.6666666666666665 6.72A10.666666666666666 10.666666666666666 0 0 0 81.70666666666666 256h92.58666666666666a10.666666666666666 10.666666666666666 0 0 0 10.026666666666666 -14.293333333333333c-0.7466666666666667 -2.2399999999999998 -1.7066666666666666 -4.4799999999999995 -2.6666666666666665 -6.72a5.226666666666667 5.226666666666667 0 0 1 1.3866666666666667 -6.186666666666666 136.10666666666665 136.10666666666665 0 0 0 38.50666666666666 -71.78666666666666Z" fill="#ffffff" stroke-width="10.6667"></path>
  </g>
</svg>