<svg xmlns="http://www.w3.org/2000/svg" viewBox="0 0 256 256" id="Antenna--Streamline-Ultimate" height="256" width="256">
  <desc>
    Antenna Streamline Icon: https://streamlinehq.com
  </desc>
  <g id="Antenna--Streamline-Ultimate.svg">
    <path d="M164.37333333333333 73.70666666666666a10.666666666666666 10.666666666666666 0 0 0 15.04 0l26.453333333333333 -26.453333333333333a26.666666666666664 26.666666666666664 0 0 0 0 -37.65333333333333 27.199999999999996 27.199999999999996 0 0 0 -37.76 0l-26.453333333333333 26.346666666666668a10.666666666666666 10.666666666666666 0 0 0 0 15.146666666666665Z" fill="#ffffff" stroke-width="10.6667"></path>
    <path d="M51.199999999999996 141.54666666666665a10.666666666666666 10.666666666666666 0 0 0 -15.04 0L9.706666666666667 168a26.666666666666664 26.666666666666664 0 0 0 0 37.65333333333333 26.560000000000002 26.560000000000002 0 0 0 37.76 0l26.346666666666668 -26.346666666666668a10.666666666666666 10.666666666666666 0 0 0 0 -15.146666666666665Z" fill="#ffffff" stroke-width="10.6667"></path>
    <path d="M68.8 144.10666666666665a5.4399999999999995 5.4399999999999995 0 0 0 7.466666666666666 0l67.94666666666666 -67.94666666666666a5.333333333333333 5.333333333333333 0 0 0 1.4933333333333334 -3.733333333333333 5.546666666666667 5.546666666666667 0 0 0 -1.4933333333333334 -3.84 53.33333333333333 53.33333333333333 0 0 0 -75.41333333333333 75.52Z" fill="#ffffff" stroke-width="10.6667"></path>
    <path d="M105.49333333333334 131.30666666666667a3.093333333333333 3.093333333333333 0 0 0 -0.7466666666666667 2.1333333333333333 2.3466666666666667 2.3466666666666667 0 0 0 1.0666666666666667 1.92 21.333333333333332 21.333333333333332 0 0 0 28.479999999999997 -1.2799999999999998 22.4 22.4 0 0 0 1.4933333333333334 -28.69333333333333 3.413333333333333 3.413333333333333 0 0 0 -2.0266666666666664 -1.0666666666666667 2.88 2.88 0 0 0 -2.0266666666666664 0.8533333333333333Z" fill="#ffffff" stroke-width="10.6667"></path>
    <path d="M102.82666666666667 208.74666666666667a91.2 91.2 0 0 0 10.666666666666666 0.6399999999999999 96 96 0 0 0 95.35999999999999 -106.66666666666666 10.666666666666666 10.666666666666666 0 0 0 -21.333333333333332 2.3466666666666667 74.66666666666666 74.66666666666666 0 0 1 -82.56 82.56 10.666666666666666 10.666666666666666 0 0 0 -11.733333333333334 9.386666666666667 10.666666666666666 10.666666666666666 0 0 0 9.6 11.733333333333334Z" fill="#ffffff" stroke-width="10.6667"></path>
    <path d="M252.0533333333333 103.57333333333334a10.666666666666666 10.666666666666666 0 0 0 -12.373333333333331 -8.64 10.666666666666666 10.666666666666666 0 0 0 -8.64 12.373333333333331 106.66666666666666 106.66666666666666 0 0 1 -122.66666666666666 123.83999999999999 10.666666666666666 10.666666666666666 0 0 0 -12.373333333333331 8.746666666666666 10.666666666666666 10.666666666666666 0 0 0 8.746666666666666 12.266666666666666 135.89333333333332 135.89333333333332 0 0 0 21.333333333333332 1.8133333333333335 128 128 0 0 0 125.97333333333333 -150.39999999999998Z" fill="#ffffff" stroke-width="10.6667"></path>
  </g>
</svg>