<svg xmlns="http://www.w3.org/2000/svg" id="Apk-1--Streamline-Ultimate" width="256" height="256" viewBox="0 0 256 256"><desc>Apk 1 Streamline Icon: https://streamlinehq.com</desc><g id="Apk-1--Streamline-Ultimate.svg"><path fill="#fff" stroke-width="10.667" d="M122.66666666666666 129.38666666666666h-11.946666666666667a2.7733333333333334 2.7733333333333334 0 0 0 -2.7733333333333334 2.6666666666666665v24a2.7733333333333334 2.7733333333333334 0 0 0 2.7733333333333334 2.6666666666666665h11.946666666666667a14.719999999999999 14.719999999999999 0 1 0 0 -29.333333333333332Z"/><path fill="#fff" stroke-width="10.667" d="M239.89333333333332 0h-224A16.21333333333333 16.21333333333333 0 0 0 0 16.106666666666666v224A16.21333333333333 16.21333333333333 0 0 0 16.106666666666666 256h224A16.21333333333333 16.21333333333333 0 0 0 256 239.89333333333332v-224A16.21333333333333 16.21333333333333 0 0 0 239.89333333333332 0ZM86.61333333333332 208a6.613333333333333 6.613333333333333 0 1 1 -13.226666666666667 0v-33.28a2.7733333333333334 2.7733333333333334 0 0 0 -2.7733333333333334 -2.6666666666666665H46.72a2.7733333333333334 2.7733333333333334 0 0 0 -2.7733333333333334 2.6666666666666665v33.28a6.613333333333333 6.613333333333333 0 1 1 -13.226666666666667 0v-62.82666666666666A28.8 28.8 0 0 1 53.33333333333333 116.58666666666666a27.946666666666665 27.946666666666665 0 0 1 33.28 27.41333333333333Zm34.986666666666665 -35.946666666666665h-10.666666666666666a2.7733333333333334 2.7733333333333334 0 0 0 -2.7733333333333334 2.6666666666666665v33.28a6.613333333333333 6.613333333333333 0 1 1 -13.226666666666667 0v-85.33333333333333a6.613333333333333 6.613333333333333 0 0 1 6.613333333333333 -6.613333333333333h21.333333333333332A27.946666666666665 27.946666666666665 0 0 1 150.07999999999998 149.33333333333331a28.69333333333333 28.69333333333333 0 0 1 -28.479999999999997 22.72Zm91.09333333333332 31.253333333333334a6.506666666666666 6.506666666666666 0 0 1 0 9.386666666666667 6.3999999999999995 6.3999999999999995 0 0 1 -9.386666666666667 0l-28.479999999999997 -28.373333333333335s-2.88 -1.4933333333333334 -2.88 1.1733333333333333v22.506666666666664a6.613333333333333 6.613333333333333 0 1 1 -13.226666666666667 0v-85.33333333333333a6.613333333333333 6.613333333333333 0 1 1 13.226666666666667 0v22.826666666666668c0 2.6666666666666665 2.5599999999999996 1.1733333333333333 2.5599999999999996 1.1733333333333333l28.8 -28.69333333333333a6.613333333333333 6.613333333333333 0 0 1 9.386666666666667 9.386666666666667l-36.05333333333333 36.05333333333333a2.6666666666666665 2.6666666666666665 0 0 0 0 3.84Z"/><path fill="#fff" stroke-width="10.667" d="M58.666666666666664 129.38666666666666a14.613333333333333 14.613333333333333 0 0 0 -14.719999999999999 14.613333333333333v12.053333333333331a2.7733333333333334 2.7733333333333334 0 0 0 2.7733333333333334 2.6666666666666665h23.893333333333334a2.7733333333333334 2.7733333333333334 0 0 0 2.7733333333333334 -2.6666666666666665V144a14.613333333333333 14.613333333333333 0 0 0 -14.719999999999999 -14.613333333333333Z"/></g></svg>