<svg xmlns="http://www.w3.org/2000/svg" id="App-Window-Pie-Chart--Streamline-Ultimate" width="256" height="256" viewBox="0 0 256 256"><desc>App Window Pie Chart Streamline Icon: https://streamlinehq.com</desc><g id="App-Window-Pie-Chart--Streamline-Ultimate.svg"><path fill="#fff" stroke-width="10.667" d="M256 50.666666666666664a32 32 0 0 0 -32 -32H32a32 32 0 0 0 -32 32v154.66666666666666a32 32 0 0 0 32 32h192a32 32 0 0 0 32 -32Zm-153.06666666666666 -10.666666666666666a10.666666666666666 10.666666666666666 0 0 1 18.133333333333333 0 9.706666666666667 9.706666666666667 0 0 1 0 10.666666666666666 10.666666666666666 10.666666666666666 0 0 1 -18.133333333333333 0 9.706666666666667 9.706666666666667 0 0 1 0 -10.666666666666666Zm-37.33333333333333 0a10.666666666666666 10.666666666666666 0 0 1 18.133333333333333 0 9.706666666666667 9.706666666666667 0 0 1 0 10.666666666666666 10.666666666666666 10.666666666666666 0 0 1 -18.133333333333333 0 9.706666666666667 9.706666666666667 0 0 1 0 -10.666666666666666Zm-37.97333333333333 0.96a10.666666666666666 10.666666666666666 0 0 1 18.773333333333333 -0.96 9.706666666666667 9.706666666666667 0 0 1 0 10.666666666666666 10.666666666666666 10.666666666666666 0 0 1 -18.133333333333333 0 10.666666666666666 10.666666666666666 0 0 1 -1.5999999999999999 -5.333333333333333 11.946666666666667 11.946666666666667 0 0 1 0.96 -4.373333333333333ZM234.66666666666666 205.33333333333331a10.666666666666666 10.666666666666666 0 0 1 -10.666666666666666 10.666666666666666H32a10.666666666666666 10.666666666666666 0 0 1 -10.666666666666666 -10.666666666666666V74.66666666666666a2.6666666666666665 2.6666666666666665 0 0 1 2.6666666666666665 -2.6666666666666665h208A2.6666666666666665 2.6666666666666665 0 0 1 234.66666666666666 74.66666666666666Z"/><path fill="#fff" stroke-width="10.667" d="M149.33333333333331 97.81333333333333a2.7733333333333334 2.7733333333333334 0 0 0 0 -2.2399999999999998 3.093333333333333 3.093333333333333 0 0 0 -1.5999999999999999 -1.7066666666666666 52.16 52.16 0 0 0 -20.05333333333333 -4.053333333333333 53.33333333333333 53.33333333333333 0 0 0 -51.946666666666665 42.026666666666664 2.3466666666666667 2.3466666666666667 0 0 0 0.5333333333333333 2.2399999999999998 2.7733333333333334 2.7733333333333334 0 0 0 2.1333333333333333 1.0666666666666667h43.626666666666665a2.7733333333333334 2.7733333333333334 0 0 0 2.2399999999999998 -1.1733333333333333Z"/><path fill="#fff" stroke-width="10.667" d="M79.25333333333333 151.14666666666665a2.6666666666666665 2.6666666666666665 0 0 0 -2.1333333333333333 0.96 2.453333333333333 2.453333333333333 0 0 0 -0.5333333333333333 2.2399999999999998 53.33333333333333 53.33333333333333 0 0 0 51.946666666666665 42.666666666666664 52.58666666666666 52.58666666666666 0 0 0 24.746666666666663 -6.293333333333333 2.5599999999999996 2.5599999999999996 0 0 0 1.2799999999999998 -1.8133333333333335 2.453333333333333 2.453333333333333 0 0 0 -0.5333333333333333 -2.2399999999999998l-28.479999999999997 -34.026666666666664a2.3466666666666667 2.3466666666666667 0 0 0 -2.0266666666666664 -0.96Z"/><path fill="#fff" stroke-width="10.667" d="M166.29333333333332 175.89333333333332a3.093333333333333 3.093333333333333 0 0 0 2.1333333333333333 0.96 3.1999999999999997 3.1999999999999997 0 0 0 2.0266666666666664 -1.0666666666666667 52.58666666666666 52.58666666666666 0 0 0 -3.3066666666666666 -69.12 2.453333333333333 2.453333333333333 0 0 0 -2.1333333333333333 -0.8533333333333333 2.88 2.88 0 0 0 -2.0266666666666664 1.1733333333333333l-23.253333333333334 34.13333333333333a2.5599999999999996 2.5599999999999996 0 0 0 0 3.1999999999999997Z"/></g></svg>