<svg xmlns="http://www.w3.org/2000/svg" viewBox="0 0 256 256" id="App-Window-Text-1--Streamline-Ultimate" height="256" width="256">
  <desc>
    App Window Text 1 Streamline Icon: https://streamlinehq.com
  </desc>
  <g id="App-Window-Text-1--Streamline-Ultimate.svg">
    <path d="M0 205.33333333333331a32 32 0 0 0 32 32h192a32 32 0 0 0 32 -32V50.666666666666664a32 32 0 0 0 -32 -32H32a32 32 0 0 0 -32 32Zm154.66666666666666 -160a10.666666666666666 10.666666666666666 0 0 1 -1.5999999999999999 5.333333333333333 10.666666666666666 10.666666666666666 0 0 1 -18.133333333333333 0 9.706666666666667 9.706666666666667 0 0 1 0 -10.666666666666666 10.666666666666666 10.666666666666666 0 0 1 18.133333333333333 0 10.666666666666666 10.666666666666666 0 0 1 1.5999999999999999 5.333333333333333Zm37.33333333333333 0a10.666666666666666 10.666666666666666 0 0 1 -1.5999999999999999 5.333333333333333 10.666666666666666 10.666666666666666 0 0 1 -18.133333333333333 0 9.706666666666667 9.706666666666667 0 0 1 0 -10.666666666666666 10.666666666666666 10.666666666666666 0 0 1 18.133333333333333 0 10.666666666666666 10.666666666666666 0 0 1 1.5999999999999999 5.333333333333333Zm37.33333333333333 0a10.666666666666666 10.666666666666666 0 0 1 -1.5999999999999999 5.333333333333333 10.666666666666666 10.666666666666666 0 0 1 -18.133333333333333 0 9.706666666666667 9.706666666666667 0 0 1 0 -10.666666666666666 10.666666666666666 10.666666666666666 0 0 1 18.773333333333333 0.96 11.946666666666667 11.946666666666667 0 0 1 0.96 4.373333333333333ZM21.333333333333332 74.66666666666666a2.6666666666666665 2.6666666666666665 0 0 1 2.6666666666666665 -2.6666666666666665h208A2.6666666666666665 2.6666666666666665 0 0 1 234.66666666666666 74.66666666666666v130.66666666666666a10.666666666666666 10.666666666666666 0 0 1 -10.666666666666666 10.666666666666666H32a10.666666666666666 10.666666666666666 0 0 1 -10.666666666666666 -10.666666666666666Z" fill="#ffffff" stroke-width="10.6667"></path>
    <path d="M109.33333333333333 114.66666666666666h90.66666666666666a8 8 0 0 0 0 -16h-90.66666666666666a8 8 0 0 0 0 16Z" fill="#ffffff" stroke-width="10.6667"></path>
    <path d="M61.33333333333333 114.66666666666666h16a8 8 0 0 0 0 -16h-16a8 8 0 0 0 0 16Z" fill="#ffffff" stroke-width="10.6667"></path>
    <path d="M109.33333333333333 152h90.66666666666666a8 8 0 0 0 0 -16h-90.66666666666666a8 8 0 0 0 0 16Z" fill="#ffffff" stroke-width="10.6667"></path>
    <path d="M61.33333333333333 152h16a8 8 0 0 0 0 -16h-16a8 8 0 0 0 0 16Z" fill="#ffffff" stroke-width="10.6667"></path>
    <path d="M109.33333333333333 189.33333333333331h90.66666666666666a8 8 0 0 0 0 -16h-90.66666666666666a8 8 0 0 0 0 16Z" fill="#ffffff" stroke-width="10.6667"></path>
    <path d="M61.33333333333333 189.33333333333331h16a8 8 0 0 0 0 -16h-16a8 8 0 0 0 0 16Z" fill="#ffffff" stroke-width="10.6667"></path>
  </g>
</svg>