<svg xmlns="http://www.w3.org/2000/svg" viewBox="0 0 256 256" id="App-Window-Clock--Streamline-Ultimate" height="256" width="256">
  <desc>
    App Window Clock Streamline Icon: https://streamlinehq.com
  </desc>
  <g id="App-Window-Clock--Streamline-Ultimate.svg">
    <g>
      <path d="M184 256A72 72 0 1 1 256 184 72.10666666666665 72.10666666666665 0 0 1 184 256Zm0 -122.66666666666666A50.666666666666664 50.666666666666664 0 1 0 234.66666666666666 184a50.666666666666664 50.666666666666664 0 0 0 -50.666666666666664 -50.666666666666664Z" fill="#ffffff" stroke-width="10.6667"></path>
      <path d="M205.33333333333331 194.66666666666666h-21.333333333333332a10.666666666666666 10.666666666666666 0 0 1 -10.666666666666666 -10.666666666666666v-26.666666666666664a10.666666666666666 10.666666666666666 0 0 1 21.333333333333332 0V170.66666666666666a2.6666666666666665 2.6666666666666665 0 0 0 2.6666666666666665 2.6666666666666665h8a10.666666666666666 10.666666666666666 0 0 1 0 21.333333333333332Z" fill="#ffffff" stroke-width="10.6667"></path>
    </g>
    <path d="M98.66666666666666 205.01333333333332a10.666666666666666 10.666666666666666 0 0 0 -10.133333333333333 -7.68H32a10.666666666666666 10.666666666666666 0 0 1 -10.666666666666666 -10.666666666666666V56A2.6666666666666665 2.6666666666666665 0 0 1 24 53.33333333333333h208a2.6666666666666665 2.6666666666666665 0 0 1 2.6666666666666665 2.6666666666666665V106.66666666666666a10.666666666666666 10.666666666666666 0 0 0 4.16 8.32 10.666666666666666 10.666666666666666 0 0 0 17.173333333333332 -7.786666666666666V32a32 32 0 0 0 -32 -32H32a32 32 0 0 0 -32 32v154.66666666666666a32 32 0 0 0 32 32h56.53333333333333a10.666666666666666 10.666666666666666 0 0 0 10.133333333333333 -13.333333333333332ZM102.93333333333334 21.333333333333332a10.666666666666666 10.666666666666666 0 0 1 18.133333333333333 0 9.706666666666667 9.706666666666667 0 0 1 0 10.666666666666666 10.666666666666666 10.666666666666666 0 0 1 -18.133333333333333 0 9.706666666666667 9.706666666666667 0 0 1 0 -10.666666666666666Zm-37.33333333333333 0a10.666666666666666 10.666666666666666 0 0 1 18.133333333333333 0 9.706666666666667 9.706666666666667 0 0 1 0 10.666666666666666 10.666666666666666 10.666666666666666 0 0 1 -18.133333333333333 0 9.706666666666667 9.706666666666667 0 0 1 0 -10.666666666666666Zm-37.97333333333333 0.96A10.666666666666666 10.666666666666666 0 0 1 46.39999999999999 21.333333333333332a9.706666666666667 9.706666666666667 0 0 1 0 10.666666666666666 10.666666666666666 10.666666666666666 0 0 1 -18.133333333333333 0 10.666666666666666 10.666666666666666 0 0 1 -1.5999999999999999 -5.333333333333333 11.946666666666667 11.946666666666667 0 0 1 0.96 -4.373333333333333Z" fill="#ffffff" stroke-width="10.6667"></path>
  </g>
</svg>