<svg xmlns="http://www.w3.org/2000/svg" id="App-Window-Multiple--Streamline-Ultimate" width="256" height="256" viewBox="0 0 256 256"><desc>App Window Multiple Streamline Icon: https://streamlinehq.com</desc><g id="App-Window-Multiple--Streamline-Ultimate.svg"><path fill="#fff" stroke-width="10.667" d="M208 58.666666666666664a32 32 0 0 0 -32 -32H42.666666666666664a32 32 0 0 0 -32 32V160a32 32 0 0 0 32 32h133.33333333333331a32 32 0 0 0 32 -32Zm-94.39999999999999 -10.666666666666666a10.666666666666666 10.666666666666666 0 0 1 18.133333333333333 0 9.706666666666667 9.706666666666667 0 0 1 0 10.666666666666666 10.666666666666666 10.666666666666666 0 0 1 -18.133333333333333 0 9.706666666666667 9.706666666666667 0 0 1 0 -10.666666666666666Zm-37.33333333333333 0a10.666666666666666 10.666666666666666 0 0 1 18.133333333333333 0 9.706666666666667 9.706666666666667 0 0 1 0 10.666666666666666 10.666666666666666 10.666666666666666 0 0 1 -18.133333333333333 0 9.706666666666667 9.706666666666667 0 0 1 0 -10.666666666666666Zm-37.97333333333333 0.96a10.666666666666666 10.666666666666666 0 0 1 18.773333333333333 -0.96 9.706666666666667 9.706666666666667 0 0 1 0 10.666666666666666 10.666666666666666 10.666666666666666 0 0 1 -18.133333333333333 0A10.666666666666666 10.666666666666666 0 0 1 37.33333333333333 53.33333333333333a11.946666666666667 11.946666666666667 0 0 1 0.96 -4.373333333333333ZM186.66666666666666 160a10.666666666666666 10.666666666666666 0 0 1 -10.666666666666666 10.666666666666666H42.666666666666664a10.666666666666666 10.666666666666666 0 0 1 -10.666666666666666 -10.666666666666666V82.66666666666666a2.6666666666666665 2.6666666666666665 0 0 1 2.6666666666666665 -2.6666666666666665h149.33333333333331a2.6666666666666665 2.6666666666666665 0 0 1 2.6666666666666665 2.6666666666666665Z"/><path fill="#fff" stroke-width="10.667" d="M80 229.33333333333331H213.33333333333331a32 32 0 0 0 32 -32V74.66666666666666a10.666666666666666 10.666666666666666 0 0 0 -10.666666666666666 -10.666666666666666 10.666666666666666 10.666666666666666 0 0 0 -10.666666666666666 10.666666666666666v122.66666666666666a10.666666666666666 10.666666666666666 0 0 1 -10.666666666666666 10.666666666666666H80a10.666666666666666 10.666666666666666 0 0 0 -10.666666666666666 10.666666666666666 10.666666666666666 10.666666666666666 0 0 0 10.666666666666666 10.666666666666666Z"/></g></svg>