<svg xmlns="http://www.w3.org/2000/svg" viewBox="0 0 256 256" id="App-Window-Bookmark--Streamline-Ultimate" height="256" width="256">
  <desc>
    App Window Bookmark Streamline Icon: https://streamlinehq.com
  </desc>
  <g id="App-Window-Bookmark--Streamline-Ultimate.svg">
    <path d="M256 48a32 32 0 0 0 -32 -32H32a32 32 0 0 0 -32 32v160a32 32 0 0 0 32 32h192a32 32 0 0 0 32 -32ZM32 53.33333333333333a10.666666666666666 10.666666666666666 0 1 1 10.666666666666666 10.666666666666666 10.666666666666666 10.666666666666666 0 0 1 -10.666666666666666 -10.666666666666666Zm32 0a10.666666666666666 10.666666666666666 0 1 1 10.666666666666666 10.666666666666666 10.666666666666666 10.666666666666666 0 0 1 -10.666666666666666 -10.666666666666666Zm32 0a10.666666666666666 10.666666666666666 0 1 1 10.666666666666666 10.666666666666666 10.666666666666666 10.666666666666666 0 0 1 -10.666666666666666 -10.666666666666666Zm138.66666666666666 154.66666666666666a10.666666666666666 10.666666666666666 0 0 1 -10.666666666666666 10.666666666666666H32a10.666666666666666 10.666666666666666 0 0 1 -10.666666666666666 -10.666666666666666V96a5.333333333333333 5.333333333333333 0 0 1 5.333333333333333 -5.333333333333333h202.66666666666666a5.333333333333333 5.333333333333333 0 0 1 5.333333333333333 5.333333333333333Z" fill="#ffffff" stroke-width="10.6667"></path>
    <path d="M144.42666666666665 197.01333333333332a8.533333333333333 8.533333333333333 0 0 0 3.626666666666667 0.7466666666666667 9.066666666666666 9.066666666666666 0 0 0 6.506666666666666 -2.7733333333333334l19.52 -19.52a2.88 2.88 0 0 1 3.84 0l19.52 19.52a9.173333333333332 9.173333333333332 0 0 0 10.133333333333333 2.0266666666666664 9.28 9.28 0 0 0 5.76 -8.64V104.74666666666667a5.333333333333333 5.333333333333333 0 0 0 -5.333333333333333 -5.333333333333333h-64a5.333333333333333 5.333333333333333 0 0 0 -5.333333333333333 5.333333333333333v83.62666666666667a9.28 9.28 0 0 0 5.76 8.64Z" fill="#ffffff" stroke-width="10.6667"></path>
  </g>
</svg>