<svg xmlns="http://www.w3.org/2000/svg" viewBox="0 0 256 256" id="Archive-Locker--Streamline-Ultimate" height="256" width="256">
  <desc>
    Archive Locker Streamline Icon: https://streamlinehq.com
  </desc>
  <g id="Archive-Locker--Streamline-Ultimate.svg">
    <path d="M229.33333333333331 85.33333333333333a5.333333333333333 5.333333333333333 0 0 0 5.333333333333333 -5.333333333333333V21.333333333333332a21.333333333333332 21.333333333333332 0 0 0 -21.333333333333332 -21.333333333333332H42.666666666666664a21.333333333333332 21.333333333333332 0 0 0 -21.333333333333332 21.333333333333332v58.666666666666664a5.333333333333333 5.333333333333333 0 0 0 5.333333333333333 5.333333333333333Zm-77.22666666666666 -33.92 -1.8133333333333335 5.333333333333333a10.666666666666666 10.666666666666666 0 0 1 -10.133333333333333 7.253333333333334h-24.319999999999997a10.666666666666666 10.666666666666666 0 0 1 -10.133333333333333 -7.253333333333334l-1.7066666666666666 -5.333333333333333a10.666666666666666 10.666666666666666 0 0 1 1.3866666666666667 -9.6 10.666666666666666 10.666666666666666 0 0 1 8.64 -4.4799999999999995h27.946666666666665a10.666666666666666 10.666666666666666 0 0 1 8.64 4.4799999999999995 10.666666666666666 10.666666666666666 0 0 1 1.4933333333333334 9.6Z" fill="#ffffff" stroke-width="10.6667"></path>
    <path d="M229.33333333333331 165.33333333333331a5.333333333333333 5.333333333333333 0 0 0 5.333333333333333 -5.333333333333333V101.33333333333333a5.333333333333333 5.333333333333333 0 0 0 -5.333333333333333 -5.333333333333333h-202.66666666666666a5.333333333333333 5.333333333333333 0 0 0 -5.333333333333333 5.333333333333333V160a5.333333333333333 5.333333333333333 0 0 0 5.333333333333333 5.333333333333333ZM105.38666666666667 121.81333333333333a10.666666666666666 10.666666666666666 0 0 1 8.64 -4.4799999999999995h27.946666666666665a10.666666666666666 10.666666666666666 0 0 1 8.64 4.4799999999999995 10.666666666666666 10.666666666666666 0 0 1 1.4933333333333334 9.6l-1.8133333333333335 5.333333333333333a10.666666666666666 10.666666666666666 0 0 1 -10.133333333333333 7.253333333333334h-24.319999999999997a10.666666666666666 10.666666666666666 0 0 1 -10.133333333333333 -7.253333333333334l-1.7066666666666666 -5.333333333333333a10.666666666666666 10.666666666666666 0 0 1 1.3866666666666667 -9.6Z" fill="#ffffff" stroke-width="10.6667"></path>
    <path d="M26.666666666666664 176a5.333333333333333 5.333333333333333 0 0 0 -5.333333333333333 5.333333333333333v53.33333333333333a21.333333333333332 21.333333333333332 0 0 0 21.333333333333332 21.333333333333332h170.66666666666666a21.333333333333332 21.333333333333332 0 0 0 21.333333333333332 -21.333333333333332v-53.33333333333333a5.333333333333333 5.333333333333333 0 0 0 -5.333333333333333 -5.333333333333333Zm78.72 25.813333333333333a10.666666666666666 10.666666666666666 0 0 1 8.64 -4.4799999999999995h27.946666666666665a10.666666666666666 10.666666666666666 0 0 1 8.64 4.4799999999999995 10.666666666666666 10.666666666666666 0 0 1 1.4933333333333334 9.6l-1.8133333333333335 5.333333333333333a10.666666666666666 10.666666666666666 0 0 1 -10.133333333333333 7.253333333333334h-24.319999999999997a10.666666666666666 10.666666666666666 0 0 1 -10.133333333333333 -7.253333333333334l-1.7066666666666666 -5.333333333333333a10.666666666666666 10.666666666666666 0 0 1 1.3866666666666667 -9.6Z" fill="#ffffff" stroke-width="10.6667"></path>
  </g>
</svg>