<svg xmlns="http://www.w3.org/2000/svg" viewBox="0 0 256 256" id="Archive-Books--Streamline-Ultimate" height="256" width="256">
  <desc>
    Archive Books Streamline Icon: https://streamlinehq.com
  </desc>
  <g id="Archive-Books--Streamline-Ultimate.svg">
    <path d="M58.666666666666664 0h-42.666666666666664A16 16 0 0 0 0 16v224A16 16 0 0 0 16 256h42.666666666666664A16 16 0 0 0 74.66666666666666 240v-224A16 16 0 0 0 58.666666666666664 0Zm-10.666666666666666 82.66666666666666a2.6666666666666665 2.6666666666666665 0 0 1 2.6666666666666665 2.6666666666666665v74.66666666666666a13.333333333333332 13.333333333333332 0 0 1 -26.666666666666664 0V85.33333333333333a2.6666666666666665 2.6666666666666665 0 0 1 2.6666666666666665 -2.6666666666666665Zm-21.333333333333332 -21.333333333333332a2.6666666666666665 2.6666666666666665 0 0 1 -2.6666666666666665 -2.6666666666666665V42.666666666666664a13.333333333333332 13.333333333333332 0 0 1 26.666666666666664 0v16a2.6666666666666665 2.6666666666666665 0 0 1 -2.6666666666666665 2.6666666666666665Zm10.666666666666666 136A16 16 0 1 1 21.333333333333332 213.33333333333331a16 16 0 0 1 16 -16Z" fill="#ffffff" stroke-width="10.6667"></path>
    <path d="M149.33333333333331 0h-42.666666666666664a16 16 0 0 0 -16 16v224A16 16 0 0 0 106.66666666666666 256h42.666666666666664a16 16 0 0 0 16 -16v-224A16 16 0 0 0 149.33333333333331 0Zm-10.666666666666666 82.66666666666666a2.6666666666666665 2.6666666666666665 0 0 1 2.6666666666666665 2.6666666666666665v74.66666666666666a13.333333333333332 13.333333333333332 0 0 1 -26.666666666666664 0V85.33333333333333a2.6666666666666665 2.6666666666666665 0 0 1 2.6666666666666665 -2.6666666666666665Zm-21.333333333333332 -21.333333333333332a2.6666666666666665 2.6666666666666665 0 0 1 -2.6666666666666665 -2.6666666666666665V42.666666666666664a13.333333333333332 13.333333333333332 0 0 1 26.666666666666664 0v16a2.6666666666666665 2.6666666666666665 0 0 1 -2.6666666666666665 2.6666666666666665Zm10.666666666666666 136a16 16 0 1 1 -16 16 16 16 0 0 1 16 -16Z" fill="#ffffff" stroke-width="10.6667"></path>
    <path d="M240 0h-42.666666666666664A16 16 0 0 0 181.33333333333331 16v224a16 16 0 0 0 16 16h42.666666666666664a16 16 0 0 0 16 -16v-224A16 16 0 0 0 240 0Zm-10.666666666666666 82.66666666666666a2.6666666666666665 2.6666666666666665 0 0 1 2.6666666666666665 2.6666666666666665v74.66666666666666a13.333333333333332 13.333333333333332 0 0 1 -26.666666666666664 0V85.33333333333333a2.6666666666666665 2.6666666666666665 0 0 1 2.6666666666666665 -2.6666666666666665Zm-21.333333333333332 -21.333333333333332a2.6666666666666665 2.6666666666666665 0 0 1 -2.6666666666666665 -2.6666666666666665V42.666666666666664a13.333333333333332 13.333333333333332 0 0 1 26.666666666666664 0v16a2.6666666666666665 2.6666666666666665 0 0 1 -2.6666666666666665 2.6666666666666665Zm10.666666666666666 136A16 16 0 1 1 202.66666666666666 213.33333333333331a16 16 0 0 1 16 -16Z" fill="#ffffff" stroke-width="10.6667"></path>
  </g>
</svg>