<svg xmlns="http://www.w3.org/2000/svg" id="Arrange-Number-Descending--Streamline-Ultimate" width="256" height="256" fill="none" viewBox="0 0 256 256"><desc>Arrange Number Descending Streamline Icon: https://streamlinehq.com</desc><path fill="#fff" stroke-width="10.667" d="M103.85066666666667 162.66666666666666h-19.2c-1.0666666666666667 0 -2.1333333333333333 -1.0666666666666667 -2.1333333333333333 -2.1333333333333333V40c0 -6.3999999999999995 -4.266666666666667 -10.666666666666666 -10.666666666666666 -10.666666666666666s-10.666666666666666 4.266666666666667 -10.666666666666666 10.666666666666666v119.46666666666665c0 1.0666666666666667 -1.0666666666666667 2.1333333333333333 -2.1333333333333333 2.1333333333333333h-19.2c-4.4159999999999995 0 -7.7653333333333325 5.045333333333333 -4.266666666666667 8.533333333333333l31.33866666666667 32.959999999999994c2.336 2.4106666666666667 6.207999999999999 2.453333333333333 8.671999999999999 0l32.522666666666666 -30.826666666666668c2.1653333333333333 -4.351999999999999 1.472 -9.6 -4.266666666666667 -9.6z"/><path fill="#fff" stroke-width="10.667" d="M213.01333333333332 232.17066666666665h-12.799999999999999c-1.0666666666666667 0 -2.1333333333333333 -1.0666666666666667 -2.1333333333333333 -2.1333333333333333v-67.19999999999999c0 -6.3999999999999995 -3.1999999999999997 -11.733333333333334 -8.533333333333333 -14.933333333333332 -5.333333333333333 -2.1333333333333333 -11.733333333333334 -2.1333333333333333 -17.066666666666666 2.1333333333333333l-18.133333333333333 14.933333333333332c-4.266666666666667 3.1999999999999997 -5.333333333333333 10.666666666666666 -2.1333333333333333 14.933333333333332 3.1999999999999997 4.266666666666667 10.666666666666666 5.333333333333333 14.933333333333332 2.1333333333333333l5.333333333333333 -4.266666666666667c1.0666666666666667 -1.0666666666666667 2.1333333333333333 -1.0666666666666667 3.1999999999999997 0 1.0666666666666667 0 1.0666666666666667 1.0666666666666667 1.0666666666666667 2.1333333333333333v50.13333333333333c-1.0666666666666667 1.0666666666666667 -2.1333333333333333 2.1333333333333333 -3.1999999999999997 2.1333333333333333h-12.799999999999999c-6.3999999999999995 0 -10.666666666666666 4.266666666666667 -10.666666666666666 10.666666666666666s4.266666666666667 10.666666666666666 10.666666666666666 10.666666666666666h53.33333333333333c6.3999999999999995 0 10.666666666666666 -4.266666666666667 10.666666666666666 -10.666666666666666s-5.333333333333333 -10.666666666666666 -11.733333333333334 -10.666666666666666z"/><path fill="#fff" stroke-width="10.667" d="M181.01333333333332 2.8373333333333335c-20.266666666666666 0 -37.33333333333333 17.066666666666666 -37.33333333333333 37.33333333333333s17.066666666666666 37.33333333333333 37.33333333333333 37.33333333333333c3.1999999999999997 0 5.333333333333333 0 7.466666666666666 -1.0666666666666667 1.0666666666666667 0 2.1333333333333333 0 3.1999999999999997 1.0666666666666667 1.0666666666666667 1.0666666666666667 0 2.1333333333333333 0 3.1999999999999997 -4.266666666666667 4.266666666666667 -9.6 7.466666666666666 -16 7.466666666666666h-5.333333333333333c-6.3999999999999995 0 -10.666666666666666 4.266666666666667 -10.666666666666666 10.666666666666666s4.266666666666667 10.666666666666666 10.666666666666666 10.666666666666666h5.333333333333333c23.46666666666667 0 42.666666666666664 -19.2 42.666666666666664 -42.666666666666664v-26.666666666666664c0 -20.266666666666666 -16 -37.33333333333333 -37.33333333333333 -37.33333333333333zm0 53.33333333333333c-8.533333333333333 0 -16 -7.466666666666666 -16 -16s7.466666666666666 -16 16 -16 16 7.466666666666666 16 16 -6.3999999999999995 16 -16 16z"/></svg>