<svg xmlns="http://www.w3.org/2000/svg" fill="none" viewBox="0 0 256 256" id="Arrange-List-Descending-1--Streamline-Ultimate" height="256" width="256">
  <desc>
    Arrange List Descending 1 Streamline Icon: https://streamlinehq.com
  </desc>
  <path fill="#ffffff" fill-rule="evenodd" d="M96 116.33279999999999c0 -5.890133333333333 4.7756799999999995 -10.666133333333333 10.666666666666666 -10.666133333333333h117.33333333333333c5.8911999999999995 0 10.666666666666666 4.776 10.666666666666666 10.666133333333333 0 5.8911999999999995 -4.7754666666666665 10.666666666666666 -10.666666666666666 10.666666666666666H106.66666666666666c-5.890986666666667 0 -10.666666666666666 -4.7754666666666665 -10.666666666666666 -10.666666666666666Z" clip-rule="evenodd" stroke-width="10.6667"></path>
  <path fill="#ffffff" fill-rule="evenodd" d="M96 158.99946666666665c0 -5.890133333333333 4.7756799999999995 -10.666666666666666 10.666666666666666 -10.666666666666666h138.66666666666666c5.8911999999999995 0 10.666666666666666 4.776533333333333 10.666666666666666 10.666666666666666 0 5.8911999999999995 -4.7754666666666665 10.666666666666666 -10.666666666666666 10.666666666666666H106.66666666666666c-5.890986666666667 0 -10.666666666666666 -4.7754666666666665 -10.666666666666666 -10.666666666666666Z" clip-rule="evenodd" stroke-width="10.6667"></path>
  <path fill="#ffffff" fill-rule="evenodd" d="M96 73.66666666666666c0 -5.890986666666667 4.7756799999999995 -10.666666666666666 10.666666666666666 -10.666666666666666h85.33333333333333c5.8911999999999995 0 10.666666666666666 4.7756799999999995 10.666666666666666 10.666666666666666s-4.7754666666666665 10.666666666666666 -10.666666666666666 10.666666666666666h-85.33333333333333c-5.890986666666667 0 -10.666666666666666 -4.7756799999999995 -10.666666666666666 -10.666666666666666Z" clip-rule="evenodd" stroke-width="10.6667"></path>
  <path fill="#ffffff" fill-rule="evenodd" d="M96 31c0 -5.890986666666667 4.7756799999999995 -10.666666666666666 10.666666666666666 -10.666666666666666h53.33333333333333c5.8911999999999995 0 10.666666666666666 4.7756799999999995 10.666666666666666 10.666666666666666s-4.7754666666666665 10.666666666666666 -10.666666666666666 10.666666666666666h-53.33333333333333c-5.890986666666667 0 -10.666666666666666 -4.7756799999999995 -10.666666666666666 -10.666666666666666Z" clip-rule="evenodd" stroke-width="10.6667"></path>
  <path fill="#ffffff" fill-rule="evenodd" d="M61.995839999999994 253.65653333333333c-3.1242666666666663 3.1242666666666663 -8.189546666666665 3.1242666666666663 -11.313706666666665 0l-48.000021333333336 -48c-2.2879872 -2.288 -2.9724362666666666 -5.729066666666666 -1.7341856 -8.717866666666666C2.1861653333333333 193.9488 5.103263999999999 192 8.338954666666666 192H45.67232l0 -176.66666666666666c0 -5.891050666666667 4.775573333333333 -10.666666666666666 10.666666666666666 -10.666666666666666 5.890986666666667 0 10.666666666666666 4.775615999999999 10.666666666666666 10.666666666666666l0 176.66666666666666h37.33333333333333c3.235413333333333 0 6.152746666666666 1.9487999999999999 7.391146666666666 4.938666666666666 1.2384 2.9888 0.5536 6.429866666666666 -1.7344 8.717866666666666l-47.99989333333333 48Z" clip-rule="evenodd" stroke-width="10.6667"></path>
</svg>