<svg xmlns="http://www.w3.org/2000/svg" viewBox="0 0 256 256" id="Arrange-Letter--Streamline-Ultimate" height="256" width="256">
  <desc>
    Arrange Letter Streamline Icon: https://streamlinehq.com
  </desc>
  <g id="Arrange-Letter--Streamline-Ultimate.svg">
    <path d="M93.33333333333333 162.66666666666666H74.66666666666666a2.6666666666666665 2.6666666666666665 0 0 1 -2.6666666666666665 -2.6666666666666665V40a10.666666666666666 10.666666666666666 0 0 0 -21.333333333333332 0V160a2.6666666666666665 2.6666666666666665 0 0 1 -2.6666666666666665 2.6666666666666665H29.333333333333332a5.333333333333333 5.333333333333333 0 0 0 -4.906666666666666 3.3066666666666666 5.119999999999999 5.119999999999999 0 0 0 1.1733333333333333 5.76l32 32a5.119999999999999 5.119999999999999 0 0 0 7.466666666666666 0l32 -32a5.119999999999999 5.119999999999999 0 0 0 1.1733333333333333 -5.76 5.333333333333333 5.333333333333333 0 0 0 -4.906666666666666 -3.3066666666666666Z" fill="#ffffff" stroke-width="10.6667"></path>
    <path d="M229.9733333333333 154.88a16 16 0 0 0 -13.973333333333333 -8.213333333333333h-38.4a10.666666666666666 10.666666666666666 0 1 0 0 21.333333333333332h24a2.7733333333333334 2.7733333333333334 0 0 1 2.3466666666666667 1.3866666666666667 2.6666666666666665 2.6666666666666665 0 0 1 0 2.6666666666666665l-35.519999999999996 56.74666666666667a16.106666666666666 16.106666666666666 0 0 0 13.546666666666667 24.53333333333333h38.4a10.666666666666666 10.666666666666666 0 0 0 0 -21.333333333333332h-24a2.7733333333333334 2.7733333333333334 0 0 1 -2.3466666666666667 -4.053333333333333l35.519999999999996 -56.74666666666667a16 16 0 0 0 0.42666666666666664 -16.32Z" fill="#ffffff" stroke-width="10.6667"></path>
    <path d="M200 2.6666666666666665a32 32 0 0 0 -32 32v64a10.666666666666666 10.666666666666666 0 0 0 21.333333333333332 0V69.33333333333333a2.6666666666666665 2.6666666666666665 0 0 1 2.6666666666666665 -2.6666666666666665h16a2.6666666666666665 2.6666666666666665 0 0 1 2.6666666666666665 2.6666666666666665v29.333333333333332a10.666666666666666 10.666666666666666 0 0 0 21.333333333333332 0v-64a32 32 0 0 0 -32 -32Zm-8 42.666666666666664a2.6666666666666665 2.6666666666666665 0 0 1 -2.6666666666666665 -2.6666666666666665v-8a10.666666666666666 10.666666666666666 0 0 1 21.333333333333332 0V42.666666666666664a2.6666666666666665 2.6666666666666665 0 0 1 -2.6666666666666665 2.6666666666666665Z" fill="#ffffff" stroke-width="10.6667"></path>
  </g>
</svg>