<svg xmlns="http://www.w3.org/2000/svg" viewBox="0 0 256 256" id="Arrow-Dot-Corner-Left-1--Streamline-Ultimate" height="256" width="256">
  <desc>
    Arrow Dot Corner Left 1 Streamline Icon: https://streamlinehq.com
  </desc>
  <g id="Arrow-Dot-Corner-Left-1--Streamline-Ultimate.svg">
    <path d="M176 106.66666666666666a16 16 0 1 0 32 0 16 16 0 1 0 -32 0" fill="#ffffff" stroke-width="10.6667"></path>
    <path d="M133.33333333333331 106.66666666666666a16 16 0 1 0 32 0 16 16 0 1 0 -32 0" fill="#ffffff" stroke-width="10.6667"></path>
    <path d="M133.33333333333331 149.33333333333331a16 16 0 1 0 32 0 16 16 0 1 0 -32 0" fill="#ffffff" stroke-width="10.6667"></path>
    <path d="M90.66666666666666 106.66666666666666a16 16 0 1 0 32 0 16 16 0 1 0 -32 0" fill="#ffffff" stroke-width="10.6667"></path>
    <path d="M90.66666666666666 149.33333333333331a16 16 0 1 0 32 0 16 16 0 1 0 -32 0" fill="#ffffff" stroke-width="10.6667"></path>
    <path d="M48 149.33333333333331a16 16 0 1 0 32 0 16 16 0 1 0 -32 0" fill="#ffffff" stroke-width="10.6667"></path>
    <path d="M48 106.66666666666666a16 16 0 1 0 32 0 16 16 0 1 0 -32 0" fill="#ffffff" stroke-width="10.6667"></path>
    <path d="M5.333333333333333 149.33333333333331a16 16 0 1 0 32 0 16 16 0 1 0 -32 0" fill="#ffffff" stroke-width="10.6667"></path>
    <path d="M5.333333333333333 106.66666666666666a16 16 0 1 0 32 0 16 16 0 1 0 -32 0" fill="#ffffff" stroke-width="10.6667"></path>
    <path d="M176 234.66666666666666a16 16 0 1 0 32 0 16 16 0 1 0 -32 0" fill="#ffffff" stroke-width="10.6667"></path>
    <path d="M133.33333333333331 192a16 16 0 1 0 32 0 16 16 0 1 0 -32 0" fill="#ffffff" stroke-width="10.6667"></path>
    <path d="M133.33333333333331 234.66666666666666a16 16 0 1 0 32 0 16 16 0 1 0 -32 0" fill="#ffffff" stroke-width="10.6667"></path>
    <path d="M90.66666666666666 192a16 16 0 1 0 32 0 16 16 0 1 0 -32 0" fill="#ffffff" stroke-width="10.6667"></path>
    <path d="M90.66666666666666 234.66666666666666a16 16 0 1 0 32 0 16 16 0 1 0 -32 0" fill="#ffffff" stroke-width="10.6667"></path>
    <path d="M48 234.66666666666666a16 16 0 1 0 32 0 16 16 0 1 0 -32 0" fill="#ffffff" stroke-width="10.6667"></path>
    <path d="M48 192a16 16 0 1 0 32 0 16 16 0 1 0 -32 0" fill="#ffffff" stroke-width="10.6667"></path>
    <path d="M5.333333333333333 234.66666666666666a16 16 0 1 0 32 0 16 16 0 1 0 -32 0" fill="#ffffff" stroke-width="10.6667"></path>
    <path d="M5.333333333333333 192a16 16 0 1 0 32 0 16 16 0 1 0 -32 0" fill="#ffffff" stroke-width="10.6667"></path>
    <path d="M218.66666666666666 64a16 16 0 1 0 32 0 16 16 0 1 0 -32 0" fill="#ffffff" stroke-width="10.6667"></path>
    <path d="M176 64a16 16 0 1 0 32 0 16 16 0 1 0 -32 0" fill="#ffffff" stroke-width="10.6667"></path>
    <path d="M176 21.333333333333332a16 16 0 1 0 32 0 16 16 0 1 0 -32 0" fill="#ffffff" stroke-width="10.6667"></path>
    <path d="M133.33333333333331 64a16 16 0 1 0 32 0 16 16 0 1 0 -32 0" fill="#ffffff" stroke-width="10.6667"></path>
    <path d="M5.333333333333333 64a16 16 0 1 0 32 0 16 16 0 1 0 -32 0" fill="#ffffff" stroke-width="10.6667"></path>
  </g>
</svg>