<svg xmlns="http://www.w3.org/2000/svg" viewBox="0 0 256 256" id="Arrow-Thick-Circle-Left-2--Streamline-Ultimate" height="256" width="256">
  <desc>
    Arrow Thick Circle Left 2 Streamline Icon: https://streamlinehq.com
  </desc>
  <path d="M128 0a128 128 0 1 0 128 128A128 128 0 0 0 128 0Zm69.01333333333332 133.33333333333331a10.666666666666666 10.666666666666666 0 0 1 -10.666666666666666 10.666666666666666H117.33333333333333c-5.866666666666667 0 -7.466666666666666 3.52 -3.52 7.893333333333333l24.53333333333333 27.52a11.52 11.52 0 0 1 0 15.466666666666665l-3.093333333333333 3.093333333333333a10.666666666666666 10.666666666666666 0 0 1 -14.933333333333332 0l-59.626666666666665 -62.29333333333333a11.2 11.2 0 0 1 0 -15.36l59.84 -62.18666666666667a10.666666666666666 10.666666666666666 0 0 1 15.04 0l3.093333333333333 3.093333333333333a11.306666666666667 11.306666666666667 0 0 1 0 15.466666666666665l-24.959999999999997 27.52c-3.9466666666666663 4.266666666666667 -2.453333333333333 7.786666666666666 3.413333333333333 7.786666666666666h69.22666666666666a10.666666666666666 10.666666666666666 0 0 1 10.666666666666666 10.666666666666666Z" fill="#ffffff" stroke-width="10.6667"></path>
</svg>