<svg xmlns="http://www.w3.org/2000/svg" viewBox="0 0 256 256" id="Arrow-Rectangle-Down-2--Streamline-Ultimate" height="256" width="256">
  <desc>
    Arrow Rectangle Down 2 Streamline Icon: https://streamlinehq.com
  </desc>
  <path d="M240 0h-224A16 16 0 0 0 0 16v224A16 16 0 0 0 16 256h224a16 16 0 0 0 16 -16v-224A16 16 0 0 0 240 0Zm-42.666666666666664 81.49333333333333v33.599999999999994a5.653333333333333 5.653333333333333 0 0 1 -1.5999999999999999 3.84l-64 64a5.333333333333333 5.333333333333333 0 0 1 -7.466666666666666 0l-64 -64a5.333333333333333 5.333333333333333 0 0 1 -1.4933333333333334 -3.733333333333333V81.49333333333333a5.333333333333333 5.333333333333333 0 0 1 8.959999999999999 -3.9466666666666663l58.56 54.08a2.6666666666666665 2.6666666666666665 0 0 0 3.626666666666667 0l58.56 -53.97333333333333a5.333333333333333 5.333333333333333 0 0 1 8.853333333333332 3.84Z" fill="#ffffff" stroke-width="10.6667"></path>
</svg>