<svg xmlns="http://www.w3.org/2000/svg" viewBox="0 0 256 256" id="Arrow-Thick-Right-Bottom-Corner-3--Streamline-Ultimate" height="256" width="256">
  <desc>
    Arrow Thick Right Bottom Corner 3 Streamline Icon: https://streamlinehq.com
  </desc>
  <path d="m249.61599999999999 69.24266666666666 -52.2912 -52.29226666666666c-7.086933333333333 -7.1456 -19.251199999999997 -3.9392 -21.895466666666668 5.770666666666667 -0.30079999999999996 1.1018666666666665 -0.45439999999999997 2.238933333333333 -0.4597333333333333 3.3802666666666665v86.2816c0.004266666666666667 1.3034666666666666 -0.7658666666666667 2.485333333333333 -1.9605333333333332 3.006933333333333 -1.0655999999999999 0.7242666666666666 -2.4650666666666665 0.7242666666666666 -3.5296000000000003 0L61.889066666666665 6.3616c-5.0986666666666665 -5.0687999999999995 -13.334399999999999 -5.0687999999999995 -18.433066666666665 0L6.459733333333333 43.22666666666667c-5.156266666666666 5.1146666666666665 -5.156266666666666 13.450666666666665 0 18.564266666666665L114.96533333333333 169.38133333333332c1.7151999999999998 1.9743999999999997 0.6496 5.066666666666666 -1.9189333333333334 5.5658666666666665 -0.14293333333333333 0.027733333333333332 -0.28906666666666664 0.04586666666666667 -0.4341333333333333 0.055466666666666664H26.592c-10.064 0.0416 -16.308266666666665 10.961066666666667 -11.240533333333333 19.655466666666666 0.5439999999999999 0.9343999999999999 1.2021333333333333 1.7962666666666665 1.9584000000000001 2.568533333333333l52.29226666666666 52.2912c2.4448 2.494933333333333 5.787733333333333 3.9072 9.281066666666666 3.9221333333333335h161.45173333333332c7.219199999999999 0 13.072 -5.852799999999999 13.072 -13.073066666666666V78.39359999999999c-0.013866666666666666 -3.429333333333333 -1.376 -6.7157333333333336 -3.7909333333333333 -9.150933333333333Z" fill="#ffffff" stroke-width="10.6667"></path>
</svg>