<svg xmlns="http://www.w3.org/2000/svg" viewBox="0 0 256 256" id="Arrow-Thick-Left-3--Streamline-Ultimate" height="256" width="256">
  <desc>
    Arrow Thick Left 3 Streamline Icon: https://streamlinehq.com
  </desc>
  <path d="M244.37333333333333 96H123.2a2.6666666666666665 2.6666666666666665 0 0 1 -2.453333333333333 -1.5999999999999999 2.453333333333333 2.453333333333333 0 0 1 0 -2.7733333333333334l45.120000000000005 -52.693333333333335a10.666666666666666 10.666666666666666 0 0 0 1.5999999999999999 -11.413333333333334 10.666666666666666 10.666666666666666 0 0 0 -9.28 -6.186666666666666H97.49333333333334a10.666666666666666 10.666666666666666 0 0 0 -8 3.52l-85.33333333333333 96a10.666666666666666 10.666666666666666 0 0 0 0 14.293333333333333l85.86666666666667 96a10.666666666666666 10.666666666666666 0 0 0 8 3.52h60.693333333333335a10.666666666666666 10.666666666666666 0 0 0 9.706666666666667 -6.186666666666666 10.666666666666666 10.666666666666666 0 0 0 -1.5999999999999999 -11.413333333333334l-45.120000000000005 -52.693333333333335a2.453333333333333 2.453333333333333 0 0 1 0 -2.7733333333333334 2.6666666666666665 2.6666666666666665 0 0 1 2.453333333333333 -1.5999999999999999h120.21333333333332a10.666666666666666 10.666666666666666 0 0 0 10.666666666666666 -10.666666666666666v-42.666666666666664a10.666666666666666 10.666666666666666 0 0 0 -10.666666666666666 -10.666666666666666Z" fill="#ffffff" stroke-width="10.6667"></path>
</svg>