<svg xmlns="http://www.w3.org/2000/svg" viewBox="0 0 256 256" id="Arrow-Double-Up--Streamline-Ultimate" height="256" width="256">
  <desc>
    Arrow Double Up Streamline Icon: https://streamlinehq.com
  </desc>
  <g id="Arrow-Double-Up--Streamline-Ultimate.svg">
    <path d="m199.36 67.84 -64 -60.48a10.666666666666666 10.666666666666666 0 0 0 -14.613333333333333 0l-64 60.373333333333335a10.666666666666666 10.666666666666666 0 0 0 -3.413333333333333 7.786666666666666v50.773333333333326a10.666666666666666 10.666666666666666 0 0 0 6.3999999999999995 9.813333333333333 10.666666666666666 10.666666666666666 0 0 0 4.266666666666667 0.96 10.666666666666666 10.666666666666666 0 0 0 7.359999999999999 -2.986666666666667l55.04 -51.84a2.5599999999999996 2.5599999999999996 0 0 1 3.626666666666667 0l54.61333333333333 51.626666666666665a10.666666666666666 10.666666666666666 0 0 0 11.626666666666667 2.1333333333333333 10.666666666666666 10.666666666666666 0 0 0 6.3999999999999995 -9.813333333333333V75.52a10.666666666666666 10.666666666666666 0 0 0 -3.3066666666666666 -7.68Z" fill="#ffffff" stroke-width="10.6667"></path>
    <path d="m199.36 182.29333333333332 -64 -60.373333333333335a10.666666666666666 10.666666666666666 0 0 0 -14.613333333333333 0l-64 60.373333333333335a10.666666666666666 10.666666666666666 0 0 0 -3.413333333333333 7.786666666666666v50.773333333333326a10.666666666666666 10.666666666666666 0 0 0 6.3999999999999995 9.706666666666667 10.666666666666666 10.666666666666666 0 0 0 4.266666666666667 0.96 11.413333333333334 11.413333333333334 0 0 0 7.359999999999999 -2.88l55.04 -51.84a2.6666666666666665 2.6666666666666665 0 0 1 3.626666666666667 0l54.61333333333333 51.73333333333333a10.666666666666666 10.666666666666666 0 0 0 11.626666666666667 2.0266666666666664 10.666666666666666 10.666666666666666 0 0 0 6.3999999999999995 -9.813333333333333v-50.666666666666664a10.666666666666666 10.666666666666666 0 0 0 -3.3066666666666666 -7.786666666666666Z" fill="#ffffff" stroke-width="10.6667"></path>
  </g>
</svg>