<svg xmlns="http://www.w3.org/2000/svg" viewBox="0 0 256 256" id="Arrow-Double-Down-1--Streamline-Ultimate" height="256" width="256">
  <desc>
    Arrow Double Down 1 Streamline Icon: https://streamlinehq.com
  </desc>
  <g id="Arrow-Double-Down-1--Streamline-Ultimate.svg">
    <path d="M185.49333333333334 139.2a10.666666666666666 10.666666666666666 0 0 0 -11.626666666666667 2.2399999999999998l-43.946666666666665 43.30666666666666a2.88 2.88 0 0 1 -3.84 0L82.13333333333333 141.44a10.666666666666666 10.666666666666666 0 0 0 -11.626666666666667 -2.2399999999999998A10.666666666666666 10.666666666666666 0 0 0 64 149.33333333333331v42.666666666666664a10.666666666666666 10.666666666666666 0 0 0 3.1999999999999997 7.573333333333332l53.33333333333333 52.48a10.666666666666666 10.666666666666666 0 0 0 14.933333333333332 0l53.33333333333333 -52.48A10.666666666666666 10.666666666666666 0 0 0 192 192v-42.666666666666664a10.666666666666666 10.666666666666666 0 0 0 -6.506666666666666 -10.133333333333333Z" fill="#ffffff" stroke-width="10.6667"></path>
    <path d="M185.49333333333334 64.63999999999999a10.666666666666666 10.666666666666666 0 0 0 -11.626666666666667 2.2399999999999998l-43.946666666666665 43.30666666666666a2.6666666666666665 2.6666666666666665 0 0 1 -3.84 0L82.13333333333333 66.88A10.666666666666666 10.666666666666666 0 0 0 64 74.66666666666666v16.106666666666666a10.666666666666666 10.666666666666666 0 0 0 3.1999999999999997 7.573333333333332l53.33333333333333 52.48a10.666666666666666 10.666666666666666 0 0 0 14.933333333333332 0l53.33333333333333 -52.48a10.666666666666666 10.666666666666666 0 0 0 3.1999999999999997 -7.573333333333332V74.66666666666666a10.666666666666666 10.666666666666666 0 0 0 -6.506666666666666 -10.026666666666666Z" fill="#ffffff" stroke-width="10.6667"></path>
    <path d="M117.33333333333333 68.05333333333333a16 16 0 0 0 22.4 0l49.06666666666666 -48.74666666666667A10.666666666666666 10.666666666666666 0 0 0 173.86666666666667 4.16l-43.946666666666665 43.199999999999996a2.5599999999999996 2.5599999999999996 0 0 1 -3.733333333333333 0L82.13333333333333 4.16a10.666666666666666 10.666666666666666 0 1 0 -14.933333333333332 15.146666666666665Z" fill="#ffffff" stroke-width="10.6667"></path>
  </g>
</svg>