<svg xmlns="http://www.w3.org/2000/svg" id="Arrow-Button-Right-1--Streamline-Ultimate" width="256" height="256" viewBox="0 0 256 256"><desc>Arrow Button Right 1 Streamline Icon: https://streamlinehq.com</desc><g id="Arrow-Button-Right-1--Streamline-Ultimate.svg"><path fill="#fff" stroke-width="10.667" d="M144.85333333333332 128a28.16 28.16 0 0 1 -8.213333333333333 20.05333333333333l-101.75999999999999 101.75999999999999a18.88 18.88 0 0 1 -26.666666666666664 -26.666666666666664l93.22666666666666 -93.22666666666666a2.88 2.88 0 0 0 0 -3.84L8.213333333333333 32.85333333333333a18.88 18.88 0 0 1 26.666666666666664 -26.666666666666664l101.75999999999999 101.75999999999999a28.16 28.16 0 0 1 8.213333333333333 20.05333333333333Z"/><path fill="#fff" stroke-width="10.667" d="M253.33333333333331 128a28.266666666666666 28.266666666666666 0 0 1 -8 20.05333333333333l-101.75999999999999 101.75999999999999a18.88 18.88 0 0 1 -26.666666666666664 -26.666666666666664l93.22666666666666 -93.22666666666666a2.6666666666666665 2.6666666666666665 0 0 0 0 -3.84l-93.54666666666665 -93.22666666666666a18.88 18.88 0 0 1 26.666666666666664 -26.666666666666664L245.33333333333331 107.94666666666666a28.266666666666666 28.266666666666666 0 0 1 8 20.05333333333333Z"/></g></svg>