<svg xmlns="http://www.w3.org/2000/svg" id="Arrow-Thick-Up-4--Streamline-Ultimate" width="256" height="256" viewBox="0 0 256 256"><desc>Arrow Thick Up 4 Streamline Icon: https://streamlinehq.com</desc><path fill="#fff" stroke-width="10.667" d="M240 0h-224A16 16 0 0 0 0 16v224A16 16 0 0 0 16 256h224a16 16 0 0 0 16 -16v-224A16 16 0 0 0 240 0Zm-49.70666666666666 138.66666666666666a5.4399999999999995 5.4399999999999995 0 0 1 -9.173333333333332 3.84l-29.013333333333335 -29.119999999999997a2.6666666666666665 2.6666666666666665 0 0 0 -2.88 -0.5333333333333333 2.7733333333333334 2.7733333333333334 0 0 0 -1.7066666666666666 2.453333333333333v84.26666666666667a5.333333333333333 5.333333333333333 0 0 1 -5.333333333333333 5.333333333333333h-21.333333333333332a5.4399999999999995 5.4399999999999995 0 0 1 -5.333333333333333 -5.333333333333333v-84.26666666666667a2.6666666666666665 2.6666666666666665 0 0 0 -1.5999999999999999 -2.453333333333333 2.453333333333333 2.453333333333333 0 0 0 -2.88 0.6399999999999999L82.02666666666667 141.86666666666667a5.226666666666667 5.226666666666667 0 0 1 -9.066666666666666 -3.1999999999999997V105.38666666666667A5.4399999999999995 5.4399999999999995 0 0 1 74.66666666666666 101.44L128 53.33333333333333a5.333333333333333 5.333333333333333 0 0 1 7.1466666666666665 0l53.33333333333333 48.53333333333333a5.119999999999999 5.119999999999999 0 0 1 1.8133333333333335 3.9466666666666663Z"/></svg>