<svg xmlns="http://www.w3.org/2000/svg" id="Arrow-Right--Streamline-Ultimate" width="256" height="256" viewBox="0 0 256 256"><desc>Arrow Right Streamline Icon: https://streamlinehq.com</desc><path fill="#fff" stroke-width="10.667" d="M255.8613333333333 128a25.717333333333332 25.717333333333332 0 0 0 -8.682666666666666 -19.2L127.93599999999999 3.8506666666666662a15.36 15.36 0 0 0 -20.266666666666666 23.06133333333333l92.128 81.06666666666666a2.6666666666666665 2.6666666666666665 0 0 1 -1.76 4.661333333333333H15.488a15.36 15.36 0 0 0 0 30.72h182.51733333333334a2.6773333333333333 2.6773333333333333 0 0 1 1.76 4.672l-92.128 81.06666666666666a15.36 15.36 0 1 0 20.266666666666666 23.050666666666665L247.168 147.2a25.695999999999998 25.695999999999998 0 0 0 8.693333333333332 -19.2Z"/></svg>