<svg xmlns="http://www.w3.org/2000/svg" viewBox="0 0 256 256" id="Arrow-Button-Up--Streamline-Ultimate" height="256" width="256">
  <desc>
    Arrow Button Up Streamline Icon: https://streamlinehq.com
  </desc>
  <path d="M250.3093333333333 177.9776 135.57333333333332 47.90826666666666c-4.362666666666666 -4.610133333333333 -11.701333333333332 -4.610133333333333 -16.064 0L5.1903999999999995 177.9776c-1.8527999999999998 2.087466666666667 -2.792533333333333 4.829866666666666 -2.6079999999999997 7.614933333333333 0.2293333333333333 2.8074666666666666 1.5829333333333333 5.403733333333333 3.7557333333333336 7.1968l19.296 16.167466666666666c2.2581333333333333 1.9829333333333334 5.261866666666666 2.894933333333333 8.239999999999998 2.5034666666666663 2.792533333333333 -0.2016 5.3856 -1.5178666666666667 7.197866666666666 -3.6501333333333332l85.21813333333333 -98.5696c1.0976 -1.0869333333333333 2.866133333333333 -1.0869333333333333 3.963733333333333 0l85.21706666666665 98.5696c1.8122666666666665 2.1322666666666663 4.4064 3.448533333333333 7.197866666666666 3.6501333333333332 2.7904 0.26986666666666664 5.572266666666666 -0.5941333333333333 7.7184 -2.398933333333333l19.297066666666666 -16.272c2.171733333333333 -1.7930666666666666 3.5263999999999998 -4.389333333333333 3.754666666666666 -7.1968 0.04479999999999999 -2.8597333333333332 -1.0858666666666665 -5.6128 -3.1296 -7.613866666666667Z" fill="#ffffff" stroke-width="10.6667"></path>
</svg>