<svg xmlns="http://www.w3.org/2000/svg" viewBox="0 0 256 256" id="Astronomy-Planet-Saturn-1--Streamline-Ultimate" height="256" width="256">
  <desc>
    Astronomy Planet Saturn 1 Streamline Icon: https://streamlinehq.com
  </desc>
  <g id="Astronomy-Planet-Saturn-1--Streamline-Ultimate.svg">
    <path d="M250.21013333333332 5.8773333333333335c-4.449066666666667 -4.423466666666666 -11.6352 -4.423466666666666 -16.08533333333333 0L5.956266666666666 234.04586666666665c-4.4224 4.449066666666667 -4.4224 11.6352 0 16.08533333333333 2.1258666666666666 2.107733333333333 4.9930666666666665 3.296 7.986133333333333 3.3087999999999997 3.0325333333333333 0.017066666666666667 5.947733333333333 -1.1733333333333333 8.100266666666666 -3.3087999999999997l39.587199999999996 -39.92959999999999c6.499199999999999 3.8272 13.382399999999999 6.9632000000000005 20.535466666666665 9.355733333333333l90.12586666666665 -90.12693333333334c4.818133333333333 -4.490666666666666 12.691199999999998 -2.0810666666666666 14.171733333333332 4.337066666666667 0.6378666666666666 2.770133333333333 -0.14079999999999998 5.6768 -2.078933333333333 7.755733333333333l-82.02666666666667 82.8256c4.725333333333333 0.6474666666666666 9.4912 0.9525333333333333 14.261333333333333 0.912 83.43039999999999 -0.10773333333333332 135.45706666666666 -90.49173333333331 93.64906666666667 -162.69119999999998 -0.10986666666666667 -0.18773333333333334 -0.21866666666666668 -0.37546666666666667 -0.32853333333333334 -0.5631999999999999l39.92959999999999 -40.04266666666666c4.519466666666666 -4.3552 4.672 -11.543466666666667 0.3413333333333333 -16.086399999999998Z" fill="#ffffff" stroke-width="10.6667"></path>
    <path d="M44.63146666666666 85.73653333333334c4.490666666666666 -4.818133333333333 12.513066666666667 -2.9685333333333332 14.440533333333331 3.330133333333333 0.9578666666666666 3.1296 0.04586666666666667 6.531199999999999 -2.3477333333333332 8.762666666666666l-45.63413333333333 45.633066666666664c3.5296000000000003 13.144533333333332 9.530666666666665 25.495466666666665 17.6832 36.3936L179.93493333333333 28.6944C112.07893333333334 -19.695999999999998 17.285333333333334 23.516799999999996 9.305599999999998 106.4768c-0.3210666666666666 3.344 -0.4874666666666666 6.701866666666666 -0.49706666666666666 10.061866666666667v5.362133333333333Z" fill="#ffffff" stroke-width="10.6667"></path>
  </g>
</svg>