<svg xmlns="http://www.w3.org/2000/svg" id="Athletics-Javelin-Throwing--Streamline-Ultimate" width="256" height="256" viewBox="0 0 256 256"><desc>Athletics Javelin Throwing Streamline Icon: https://streamlinehq.com</desc><g id="Athletics-Javelin-Throwing--Streamline-Ultimate.svg"><path fill="#fff" stroke-width="10.667" d="M118.29333333333332 74.45333333333333a26.666666666666664 26.666666666666664 0 1 0 53.33333333333333 0 26.666666666666664 26.666666666666664 0 1 0 -53.33333333333333 0"/><path fill="#fff" stroke-width="10.667" d="M232.32 200.53333333333333a48.42666666666666 48.42666666666666 0 0 0 -50.773333333333326 -32l-5.653333333333333 0.5333333333333333a2.6666666666666665 2.6666666666666665 0 0 1 -2.986666666666667 -2.0266666666666664l-3.3066666666666666 -14.826666666666664a2.7733333333333334 2.7733333333333334 0 0 1 2.2399999999999998 -3.3066666666666666l57.17333333333333 -10.239999999999998a16 16 0 1 0 -5.333333333333333 -32l-98.24000000000001 16.32a16 16 0 0 1 -17.493333333333332 -10.026666666666666L96 80.32A16 16 0 0 0 65.6 91.73333333333332l12.479999999999999 33.599999999999994a48.42666666666666 48.42666666666666 0 0 0 52.48 30.08l4.373333333333333 -0.6399999999999999a2.6666666666666665 2.6666666666666665 0 0 1 3.093333333333333 2.0266666666666664l5.546666666666667 25.066666666666666a2.5599999999999996 2.5599999999999996 0 0 1 0 2.1333333333333333l-32.64 46.61333333333333a16 16 0 0 0 26.24 18.346666666666664l33.17333333333333 -47.36 15.146666666666665 -1.7066666666666666a16 16 0 0 1 16.96 10.666666666666666l7.786666666666666 23.46666666666667a16 16 0 1 0 29.866666666666664 -10.026666666666666Z"/><path fill="#fff" stroke-width="10.667" d="M205.12 7.253333333333334A10.666666666666666 10.666666666666666 0 0 0 192 0.6399999999999999L21.333333333333332 59.30666666666666a10.666666666666666 10.666666666666666 0 1 0 6.933333333333334 20.159999999999997l170.66666666666666 -58.666666666666664a10.666666666666666 10.666666666666666 0 0 0 6.186666666666666 -13.546666666666667Z"/></g></svg>