<svg xmlns="http://www.w3.org/2000/svg" viewBox="0 0 256 256" id="Athletics-Running-1--Streamline-Ultimate" height="256" width="256">
  <desc>
    Athletics Running 1 Streamline Icon: https://streamlinehq.com
  </desc>
  <path d="M236.90666666666667 29.333333333333332h13.76a5.333333333333333 5.333333333333333 0 0 0 5.333333333333333 -5.333333333333333V5.333333333333333a5.333333333333333 5.333333333333333 0 0 0 -5.333333333333333 -5.333333333333333H128a128 128 0 0 0 0 256h122.66666666666666a5.333333333333333 5.333333333333333 0 0 0 5.333333333333333 -5.333333333333333v-18.666666666666664a5.333333333333333 5.333333333333333 0 0 0 -5.333333333333333 -5.333333333333333h-10.666666666666666a8 8 0 0 1 0 -16h10.666666666666666a5.333333333333333 5.333333333333333 0 0 0 5.333333333333333 -5.333333333333333V186.66666666666666a5.333333333333333 5.333333333333333 0 0 0 -5.333333333333333 -5.333333333333333h-56a5.333333333333333 5.333333333333333 0 0 1 -5.333333333333333 -5.333333333333333v-10.666666666666666a5.333333333333333 5.333333333333333 0 0 1 5.333333333333333 -5.333333333333333h42.666666666666664a10.666666666666666 10.666666666666666 0 0 0 10.666666666666666 -10.666666666666666v-32a10.666666666666666 10.666666666666666 0 0 0 -10.666666666666666 -10.666666666666666h-43.626666666666665a5.333333333333333 5.333333333333333 0 0 1 -5.013333333333333 -3.52 10.666666666666666 10.666666666666666 0 0 0 -10.026666666666666 -7.1466666666666665 10.666666666666666 10.666666666666666 0 0 0 -10.666666666666666 10.666666666666666v122.66666666666666a8 8 0 0 1 -16 0v-42.666666666666664a5.333333333333333 5.333333333333333 0 0 0 -5.333333333333333 -5.333333333333333H138.66666666666666a53.33333333333333 53.33333333333333 0 0 1 0 -106.66666666666666h112a5.333333333333333 5.333333333333333 0 0 0 5.333333333333333 -5.333333333333333V50.666666666666664a5.333333333333333 5.333333333333333 0 0 0 -5.333333333333333 -5.333333333333333h-13.76a8 8 0 0 1 0 -16Zm-47.57333333333333 186.66666666666666a5.333333333333333 5.333333333333333 0 0 1 5.333333333333333 -5.333333333333333h1.92a8 8 0 0 1 0 16h-1.92a5.333333333333333 5.333333333333333 0 0 1 -5.333333333333333 -5.333333333333333Zm-87.25333333333333 -1.7066666666666666a8 8 0 0 1 9.706666666666667 -5.866666666666667 82.45333333333333 82.45333333333333 0 0 0 19.306666666666665 2.2399999999999998 8.106666666666666 8.106666666666666 0 0 1 8.106666666666666 8 7.893333333333333 7.893333333333333 0 0 1 -7.786666666666666 8 99.52 99.52 0 0 1 -23.36 -2.6666666666666665 8.106666666666666 8.106666666666666 0 0 1 -5.973333333333334 -9.706666666666667Zm-53.33333333333333 -140.37333333333333A98.34666666666666 98.34666666666666 0 0 1 64 55.89333333333333a8 8 0 0 1 10.666666666666666 0.31999999999999995 8 8 0 0 1 0 11.306666666666667 86.72 86.72 0 0 0 -12.799999999999999 15.146666666666665 8 8 0 1 1 -13.333333333333332 -8.746666666666666Zm-6.186666666666666 74.66666666666666a8 8 0 0 1 -9.066666666666666 -6.826666666666666A96 96 0 0 1 32 128l0 -10.026666666666666a8 8 0 0 1 16 1.5999999999999999 73.06666666666666 73.06666666666666 0 0 0 0 8.426666666666666 80.96 80.96 0 0 0 0.7466666666666667 11.413333333333334 7.893333333333333 7.893333333333333 0 0 1 -6.079999999999999 8.959999999999999Zm35.306666666666665 53.33333333333333a8 8 0 0 1 -11.52 0.7466666666666667 106.66666666666666 106.66666666666666 0 0 1 -15.786666666666665 -17.493333333333332 8 8 0 0 1 13.44 -9.386666666666667 83.19999999999999 83.19999999999999 0 0 0 13.333333333333332 14.719999999999999 7.893333333333333 7.893333333333333 0 0 1 0.31999999999999995 11.2ZM128 45.33333333333333a86.50666666666666 86.50666666666666 0 0 0 -19.52 2.986666666666667 8 8 0 0 1 -4.266666666666667 -15.36A100.58666666666666 100.58666666666666 0 0 1 128 29.333333333333332a8 8 0 1 1 0 16Zm64.96 0h-21.333333333333332a8 8 0 0 1 0 -16h21.333333333333332a8 8 0 0 1 0 16Z" fill="#ffffff" stroke-width="10.6667"></path>
</svg>