<svg xmlns="http://www.w3.org/2000/svg" id="Ati-Logo--Streamline-Ultimate" width="256" height="256" viewBox="0 0 256 256"><desc>Ati Logo Streamline Icon: https://streamlinehq.com</desc><g id="Ati-Logo--Streamline-Ultimate.svg"><path fill="#fff" stroke-width="10.667" d="M192 72.74666666666667h-42.666666666666664a16 16 0 0 0 0 32h5.333333333333333v69.33333333333333a16 16 0 0 0 32 0v-69.33333333333333h5.333333333333333a16 16 0 0 0 0 -32Z"/><path fill="#fff" stroke-width="10.667" d="M234.66666666666666 72.74666666666667a16 16 0 0 0 -16 16v85.33333333333333a16 16 0 0 0 32 0v-85.33333333333333a16 16 0 0 0 -16 -16Z"/><path fill="#fff" stroke-width="10.667" d="M119.57333333333334 66.34666666666666a5.4399999999999995 5.4399999999999995 0 0 0 -5.76 0.8533333333333333l-101.97333333333333 89.27999999999999A19.52 19.52 0 0 0 5.333333333333333 170.66666666666666a19.2 19.2 0 0 0 5.333333333333333 13.546666666666667 19.093333333333334 19.093333333333334 0 0 0 26.560000000000002 0.96l53.33333333333333 -47.25333333333333v36.16a16 16 0 0 0 32 0V71.25333333333333a5.333333333333333 5.333333333333333 0 0 0 -2.986666666666667 -4.906666666666666Z"/></g></svg>