<svg xmlns="http://www.w3.org/2000/svg" id="Attachment--Streamline-Ultimate" width="256" height="256" viewBox="0 0 256 256"><desc>Attachment Streamline Icon: https://streamlinehq.com</desc><path fill="#fff" stroke-width="10.667" d="M232.95999999999998 36.906666666666666a74.66666666666666 74.66666666666666 0 0 0 -104.96 0L17.28 147.51999999999998a54.72 54.72 0 0 0 77.33333333333333 77.33333333333333l89.91999999999999 -89.91999999999999A35.093333333333334 35.093333333333334 0 1 0 134.93333333333334 85.33333333333333l-55.36 55.25333333333333a10.666666666666666 10.666666666666666 0 0 0 0 15.146666666666665 10.666666666666666 10.666666666666666 0 0 0 15.04 0l55.36 -55.36a13.866666666666667 13.866666666666667 0 0 1 23.57333333333333 9.706666666666667 14.08 14.08 0 0 1 -4.053333333333333 9.813333333333333l-89.91999999999999 89.91999999999999a33.38666666666666 33.38666666666666 0 0 1 -56.959999999999994 -23.57333333333333A32.959999999999994 32.959999999999994 0 0 1 32 162.66666666666666L143.04 51.946666666666665a53.33333333333333 53.33333333333333 0 0 1 74.66666666666666 74.66666666666666l-82.98666666666666 82.98666666666666a10.666666666666666 10.666666666666666 0 0 0 0 15.04 10.666666666666666 10.666666666666666 0 0 0 15.04 0l82.98666666666666 -82.98666666666666a74.66666666666666 74.66666666666666 0 0 0 0 -104.96Z"/></svg>