<svg xmlns="http://www.w3.org/2000/svg" viewBox="0 0 256 256" id="Audio-File-Mp-3--Streamline-Ultimate" height="256" width="256">
  <desc>
    Audio File Mp 3 Streamline Icon: https://streamlinehq.com
  </desc>
  <g id="Audio-File-Mp-3--Streamline-Ultimate.svg">
    <path d="M137.38666666666666 160a9.493333333333332 9.493333333333332 0 0 0 -9.386666666666667 -9.386666666666667h-6.613333333333333a2.7733333333333334 2.7733333333333334 0 0 0 -2.7733333333333334 2.7733333333333334v13.226666666666667a2.7733333333333334 2.7733333333333334 0 0 0 2.7733333333333334 2.7733333333333334H128a9.493333333333332 9.493333333333332 0 0 0 9.386666666666667 -9.386666666666667Z" fill="#ffffff" stroke-width="10.6667"></path>
    <path d="M186.66666666666666 64h41.599999999999994a2.6666666666666665 2.6666666666666665 0 0 0 1.8133333333333335 -4.586666666666666L175.25333333333333 4.586666666666666A2.6666666666666665 2.6666666666666665 0 0 0 170.66666666666666 6.3999999999999995v41.599999999999994A16 16 0 0 0 186.66666666666666 64Z" fill="#ffffff" stroke-width="10.6667"></path>
    <path d="M234.66666666666666 77.33333333333333a2.6666666666666665 2.6666666666666665 0 0 0 -2.6666666666666665 -2.6666666666666665H186.66666666666666A26.666666666666664 26.666666666666664 0 0 1 160 48V2.6666666666666665a2.6666666666666665 2.6666666666666665 0 0 0 -2.6666666666666665 -2.6666666666666665H42.666666666666664a21.333333333333332 21.333333333333332 0 0 0 -21.333333333333332 21.333333333333332v213.33333333333331a21.333333333333332 21.333333333333332 0 0 0 21.333333333333332 21.333333333333332h170.66666666666666a21.333333333333332 21.333333333333332 0 0 0 21.333333333333332 -21.333333333333332ZM97.27999999999999 208a6.613333333333333 6.613333333333333 0 0 1 -13.226666666666667 0v-32c0 -1.4933333333333334 -1.2799999999999998 -1.1733333333333333 -1.92 0l-1.4933333333333334 3.093333333333333a7.04 7.04 0 0 1 -11.946666666666667 0l-1.5999999999999999 -3.3066666666666666c0 -0.96 -1.8133333333333335 -1.0666666666666667 -1.8133333333333335 0v32a6.613333333333333 6.613333333333333 0 0 1 -13.226666666666667 0v-64a6.613333333333333 6.613333333333333 0 0 1 5.119999999999999 -6.506666666666666 6.72 6.72 0 0 1 7.466666666666666 3.52s7.786666666666666 15.466666666666665 8.426666666666666 16.96a1.5999999999999999 1.5999999999999999 0 0 0 3.093333333333333 0l8.533333333333333 -17.066666666666666a6.826666666666666 6.826666666666666 0 0 1 7.466666666666666 -3.52 6.613333333333333 6.613333333333333 0 0 1 5.119999999999999 6.506666666666666Zm53.33333333333333 -45.653333333333336a23.46666666666667 23.46666666666667 0 0 1 -23.893333333333334 20.266666666666666h-5.226666666666667a2.7733333333333334 2.7733333333333334 0 0 0 -2.7733333333333334 2.7733333333333334v22.613333333333333a6.613333333333333 6.613333333333333 0 1 1 -13.226666666666667 0v-64a6.506666666666666 6.506666666666666 0 0 1 6.613333333333333 -6.613333333333333H128a22.613333333333333 22.613333333333333 0 0 1 22.506666666666664 24.959999999999997Zm48.959999999999994 12.053333333333331a2.5599999999999996 2.5599999999999996 0 0 0 0 3.1999999999999997 24.85333333333333 24.85333333333333 0 0 1 4.373333333333333 14.4 21.333333333333332 21.333333333333332 0 0 1 -19.84 22.613333333333333h-8.106666666666666a18.346666666666664 18.346666666666664 0 0 1 -17.28 -19.413333333333334 6.613333333333333 6.613333333333333 0 1 1 13.226666666666667 0c0 3.626666666666667 2.1333333333333333 6.186666666666666 4.053333333333333 6.186666666666666h8c3.626666666666667 0 6.72 -4.266666666666667 6.72 -9.28s-3.093333333333333 -9.386666666666667 -6.72 -9.386666666666667a6.613333333333333 6.613333333333333 0 0 1 0 -13.226666666666667c3.626666666666667 0 6.72 -4.373333333333333 6.72 -9.386666666666667s-3.093333333333333 -9.28 -6.72 -9.28h-8c-1.92 0 -4.053333333333333 2.5599999999999996 -4.053333333333333 6.186666666666666a6.613333333333333 6.613333333333333 0 1 1 -13.226666666666667 0 18.346666666666664 18.346666666666664 0 0 1 17.28 -19.413333333333334h8.106666666666666a21.333333333333332 21.333333333333332 0 0 1 19.84 22.4 24.85333333333333 24.85333333333333 0 0 1 -4.4799999999999995 14.4Z" fill="#ffffff" stroke-width="10.6667"></path>
  </g>
</svg>