<svg xmlns="http://www.w3.org/2000/svg" id="Audio-File--Streamline-Ultimate" width="256" height="256" viewBox="0 0 256 256"><desc>Audio File Streamline Icon: https://streamlinehq.com</desc><path fill="#fff" stroke-width="10.667" d="M228.37333333333333 52.373333333333335 182.29333333333332 6.293333333333333A21.333333333333332 21.333333333333332 0 0 0 167.14666666666665 0H42.666666666666664a21.333333333333332 21.333333333333332 0 0 0 -21.333333333333332 21.333333333333332v213.33333333333331a21.333333333333332 21.333333333333332 0 0 0 21.333333333333332 21.333333333333332h170.66666666666666a21.333333333333332 21.333333333333332 0 0 0 21.333333333333332 -21.333333333333332V67.52a21.333333333333332 21.333333333333332 0 0 0 -6.293333333333333 -15.146666666666665Zm-49.70666666666666 110.29333333333332a23.46666666666667 23.46666666666667 0 1 1 -23.46666666666667 -23.46666666666667c0.7466666666666667 0 2.1333333333333333 0 2.1333333333333333 -1.2799999999999998V110.93333333333334a2.5599999999999996 2.5599999999999996 0 0 0 -0.7466666666666667 -1.7066666666666666 2.1333333333333333 2.1333333333333333 0 0 0 -1.3866666666666667 0l-43.946666666666665 14.08 -1.2799999999999998 0a2.1333333333333333 2.1333333333333333 0 0 0 -1.7066666666666666 2.1333333333333333v62.93333333333334A23.46666666666667 23.46666666666667 0 1 1 85.33333333333333 164.79999999999998c0.7466666666666667 0 2.1333333333333333 0 2.1333333333333333 -1.1733333333333333v-38.29333333333333A23.46666666666667 23.46666666666667 0 0 1 105.27999999999999 102.39999999999999L149.33333333333331 88.10666666666665l1.2799999999999998 0a23.46666666666667 23.46666666666667 0 0 1 27.839999999999996 23.146666666666665Z"/></svg>