<svg xmlns="http://www.w3.org/2000/svg" viewBox="0 0 256 256" id="Audio-File-Sync--Streamline-Ultimate" height="256" width="256">
  <desc>
    Audio File Sync Streamline Icon: https://streamlinehq.com
  </desc>
  <g id="Audio-File-Sync--Streamline-Ultimate.svg">
    <path d="M249.70666666666665 32 224 6.293333333333333A21.333333333333332 21.333333333333332 0 0 0 208.95999999999998 0H85.33333333333333a21.333333333333332 21.333333333333332 0 0 0 -21.333333333333332 21.333333333333332v77.65333333333334a2.7733333333333334 2.7733333333333334 0 0 0 2.5599999999999996 2.6666666666666665c3.9466666666666663 0 10.666666666666666 0 15.893333333333333 0.96A2.6666666666666665 2.6666666666666665 0 0 0 85.33333333333333 99.94666666666666V26.666666666666664a5.333333333333333 5.333333333333333 0 0 1 5.333333333333333 -5.333333333333333h116.05333333333334a5.013333333333333 5.013333333333333 0 0 1 3.733333333333333 1.5999999999999999l22.613333333333333 22.613333333333333a5.013333333333333 5.013333333333333 0 0 1 1.5999999999999999 3.733333333333333V192a5.333333333333333 5.333333333333333 0 0 1 -5.333333333333333 5.333333333333333h-73.17333333333333a2.6666666666666665 2.6666666666666665 0 0 0 -2.5599999999999996 2.2399999999999998 94.93333333333334 94.93333333333334 0 0 1 -4.266666666666667 15.573333333333332 2.5599999999999996 2.5599999999999996 0 0 0 2.453333333333333 3.52H234.66666666666666a21.333333333333332 21.333333333333332 0 0 0 21.333333333333332 -21.333333333333332V47.04A21.333333333333332 21.333333333333332 0 0 0 249.70666666666665 32Z" fill="#ffffff" stroke-width="10.6667"></path>
    <path d="M154.66666666666666 142.18666666666667c0 1.92 1.5999999999999999 1.7066666666666666 2.453333333333333 1.3866666666666667a24.746666666666663 24.746666666666663 0 0 0 16.21333333333333 -21.333333333333332V67.41333333333333a2.0266666666666664 2.0266666666666664 0 0 1 2.986666666666667 -2.0266666666666664l11.413333333333334 7.1466666666666665a8 8 0 0 0 8.533333333333333 -13.44l-19.413333333333334 -12.266666666666666a13.44 13.44 0 0 0 -13.013333333333332 0 13.12 13.12 0 0 0 -6.506666666666666 11.413333333333334v39.14666666666666c0 1.1733333333333333 -0.7466666666666667 0.7466666666666667 -1.1733333333333333 0.6399999999999999a24 24 0 0 0 -6.826666666666666 -1.0666666666666667 23.786666666666665 23.786666666666665 0 0 0 -19.52 10.666666666666666c-0.7466666666666667 1.1733333333333333 0 2.1333333333333333 2.453333333333333 2.1333333333333333a20.266666666666666 20.266666666666666 0 0 1 9.28 1.4933333333333334 21.333333333333332 21.333333333333332 0 0 1 13.12 19.626666666666665Z" fill="#ffffff" stroke-width="10.6667"></path>
    <path d="M125.54666666666665 198.4a10.666666666666666 10.666666666666666 0 0 0 -13.44 6.186666666666666 43.413333333333334 43.413333333333334 0 0 1 -13.546666666666667 20.586666666666666 44.48 44.48 0 0 1 -60.373333333333335 -5.013333333333333 2.7733333333333334 2.7733333333333334 0 0 1 0 -3.733333333333333l18.346666666666664 -18.24a5.4399999999999995 5.4399999999999995 0 0 0 1.2799999999999998 -6.186666666666666 5.333333333333333 5.333333333333333 0 0 0 -4.4799999999999995 -2.986666666666667H5.333333333333333a5.333333333333333 5.333333333333333 0 0 0 -5.333333333333333 5.333333333333333v47.57333333333333a5.333333333333333 5.333333333333333 0 0 0 3.3066666666666666 4.906666666666666 5.013333333333333 5.013333333333333 0 0 0 5.76 -1.4933333333333334l10.666666666666666 -10.666666666666666a2.5599999999999996 2.5599999999999996 0 0 1 3.733333333333333 0 64.96 64.96 0 0 0 108.90666666666667 -23.46666666666667 10.666666666666666 10.666666666666666 0 0 0 -6.826666666666666 -12.799999999999999Z" fill="#ffffff" stroke-width="10.6667"></path>
    <path d="M135.35999999999999 125.54666666666665a5.4399999999999995 5.4399999999999995 0 0 0 -5.76 1.1733333333333333l-10.666666666666666 10.666666666666666a2.6666666666666665 2.6666666666666665 0 0 1 -3.84 0A64.96 64.96 0 0 0 6.079999999999999 161.38666666666666a10.666666666666666 10.666666666666666 0 0 0 6.613333333333333 13.546666666666667 10.666666666666666 10.666666666666666 0 0 0 13.44 -6.293333333333333 42.666666666666664 42.666666666666664 0 0 1 13.546666666666667 -20.37333333333333 44.373333333333335 44.373333333333335 0 0 1 60.16 4.586666666666666 2.6666666666666665 2.6666666666666665 0 0 1 0 3.733333333333333l-17.813333333333333 17.706666666666663a5.333333333333333 5.333333333333333 0 0 0 3.733333333333333 9.066666666666666h47.57333333333333a5.333333333333333 5.333333333333333 0 0 0 5.333333333333333 -5.333333333333333v-47.57333333333333a5.333333333333333 5.333333333333333 0 0 0 -3.3066666666666666 -4.906666666666666Z" fill="#ffffff" stroke-width="10.6667"></path>
  </g>
</svg>