<svg xmlns="http://www.w3.org/2000/svg" viewBox="0 0 256 256" id="Autopilot-Car-1--Streamline-Ultimate" height="256" width="256">
  <desc>
    Autopilot Car 1 Streamline Icon: https://streamlinehq.com
  </desc>
  <g id="Autopilot-Car-1--Streamline-Ultimate.svg">
    <path d="M200.12159999999997 171.8613333333333v-0.5194666666666666l-12.4704 -40.53013333333333c-2.884266666666666 -10.231466666666666 -12.130133333333333 -17.3664 -22.758399999999998 -17.562666666666665H91.21173333333333c-10.628266666666665 0.19626666666666664 -19.874133333333333 7.3312 -22.75946666666667 17.562666666666665l-12.4704 40.53013333333333v0.5194666666666666l-15.276799999999998 12.781866666666666c-3.931733333333333 3.1679999999999997 -6.222933333333334 7.941333333333334 -6.234666666666667 12.990933333333333v21.82293333333333c-0.0010666666666666667 4.666666666666666 3.7514666666666665 8.465066666666665 8.417066666666667 8.5216h17.14773333333333v16.939733333333333c0 4.706133333333333 3.8143999999999996 8.5216 8.5216 8.5216h16.938666666666666c4.706133333333333 0 8.5216 -3.8154666666666666 8.5216 -8.5216V227.97866666666667h67.96586666666667v16.939733333333333c0 4.706133333333333 3.8143999999999996 8.5216 8.5216 8.5216h16.938666666666666c4.706133333333333 0 8.5216 -3.8154666666666666 8.5216 -8.5216V227.97866666666667h17.0432c4.6655999999999995 -0.05653333333333333 8.418133333333333 -3.8549333333333333 8.418133333333333 -8.5216v-21.82293333333333c0.012799999999999999 -5.032533333333333 -2.238933333333333 -9.802666666666667 -6.1312 -12.990933333333333ZM75.104 211.55946666666665H60.45013333333333c-5.9989333333333335 0 -9.749333333333333 -6.494933333333333 -6.749866666666667 -11.691733333333334 1.3930666666666665 -2.4106666666666667 3.965866666666667 -3.896533333333333 6.749866666666667 -3.896533333333333H75.104c6 0 9.749333333333333 6.4959999999999996 6.749866666666667 11.691733333333334 -1.3930666666666665 2.4106666666666667 -3.965866666666667 3.896533333333333 -6.749866666666667 3.896533333333333ZM73.1296 168.64l10.391466666666666 -33.047466666666665c0.608 -3.8752 3.7824 -6.8352 7.690666666666666 -7.1712h73.57653333333333c3.7984 0.176 7.0207999999999995 2.8469333333333333 7.898666666666667 6.5472l10.391466666666666 33.047466666666665Zm118.78293333333332 42.919466666666665H177.25866666666664c-6 0 -9.749333333333333 -6.494933333333333 -6.749866666666667 -11.691733333333334 1.3930666666666665 -2.4106666666666667 3.965866666666667 -3.896533333333333 6.749866666666667 -3.896533333333333h14.653866666666666c6 0 9.749333333333333 6.4959999999999996 6.7488 11.691733333333334 -1.392 2.4106666666666667 -3.9647999999999994 3.896533333333333 -6.7488 3.896533333333333Z" fill="#ffffff" stroke-width="10.6667"></path>
    <path d="M102.6432 91.7376c14.882133333333332 -0.0576 26.916266666666665 -12.137599999999999 26.9152 -27.019733333333335V12.028799999999999c0 -6 -6.494933333333333 -9.749333333333333 -11.690666666666667 -6.749866666666667 -2.4117333333333333 1.392 -3.8975999999999997 3.965866666666667 -3.8975999999999997 6.749866666666667v52.68906666666667c0.8384 8.759466666666667 -8.119466666666666 15.142399999999999 -16.125866666666667 11.488 -4.4341333333333335 -2.0234666666666667 -7.096533333333333 -6.635733333333333 -6.632533333333333 -11.488V12.028799999999999c-1.376 -5.84 -8.557866666666666 -8 -12.927999999999999 -3.888 -1.1136 1.0474666666666665 -1.8944 2.4 -2.2442666666666664 3.888v52.68906666666667C76.03733333333332 79.47946666666667 87.88266666666667 91.5104 102.6432 91.7376Z" fill="#ffffff" stroke-width="10.6667"></path>
    <path d="M146.18666666666667 19.82293333333333h11.431466666666667v64.12053333333333c0 6 6.494933333333333 9.749333333333333 11.690666666666667 6.749866666666667 2.4117333333333333 -1.3930666666666665 3.8975999999999997 -3.965866666666667 3.8975999999999997 -6.749866666666667V19.82293333333333h11.431466666666667c6 0 9.749333333333333 -6.494933333333333 6.749866666666667 -11.690666666666667 -1.3930666666666665 -2.4117333333333333 -3.965866666666667 -3.8975999999999997 -6.749866666666667 -3.8975999999999997H146.18666666666667c-6 0 -9.750399999999999 6.494933333333333 -6.749866666666667 11.691733333333334 1.392 2.4117333333333333 3.9647999999999994 3.896533333333333 6.749866666666667 3.896533333333333Z" fill="#ffffff" stroke-width="10.6667"></path>
    <path d="M218.10026666666664 4.234666666666667c-14.922666666666666 0 -27.019733333333335 12.097066666666667 -27.019733333333335 27.019733333333335v33.46346666666666c-1.2885333333333333 20.759466666666665 20.378666666666668 35.129599999999996 39.001599999999996 25.866666666666664 9.724799999999998 -4.8373333333333335 15.607466666666667 -15.0272 14.934399999999998 -25.866666666666664V31.254399999999997c0 -14.882133333333332 -12.034133333333333 -26.96213333333333 -26.916266666666665 -27.019733333333335Zm11.328 60.4832c0.8384 8.759466666666667 -8.120533333333332 15.142399999999999 -16.125866666666667 11.488 -4.4341333333333335 -2.0234666666666667 -7.0976 -6.636799999999999 -6.6335999999999995 -11.488V31.254399999999997c-0.8384 -8.759466666666667 8.120533333333332 -15.142399999999999 16.125866666666667 -11.488 4.4341333333333335 2.0234666666666667 7.0976 6.635733333333333 6.6335999999999995 11.488Z" fill="#ffffff" stroke-width="10.6667"></path>
    <path d="M49.331199999999995 59.52106666666666v24.4224c0 6 6.494933333333333 9.749333333333333 11.690666666666667 6.749866666666667 2.4117333333333333 -1.3930666666666665 3.8975999999999997 -3.965866666666667 3.8975999999999997 -6.749866666666667V31.254399999999997C66.208 10.494933333333332 44.5408 -3.8752 25.91786666666667 5.387733333333333 16.193066666666667 10.225066666666667 10.3104 20.41493333333333 10.983466666666667 31.254399999999997v52.68906666666667c0 6 6.494933333333333 9.749333333333333 11.691733333333334 6.749866666666667 2.4106666666666667 -1.3930666666666665 3.896533333333333 -3.965866666666667 3.896533333333333 -6.749866666666667V59.52106666666666ZM37.89973333333333 19.82293333333333c6.312533333333333 0.0010666666666666667 11.431466666666667 5.118933333333333 11.431466666666667 11.431466666666667v12.6784H26.57173333333333V31.254399999999997c0 -6.273066666666666 5.054933333333333 -11.373866666666666 11.328 -11.431466666666667Z" fill="#ffffff" stroke-width="10.6667"></path>
  </g>
</svg>