<svg xmlns="http://www.w3.org/2000/svg" id="Award-Ribbon-Star-1--Streamline-Ultimate" width="256" height="256" viewBox="0 0 256 256"><desc>Award Ribbon Star 1 Streamline Icon: https://streamlinehq.com</desc><g id="Award-Ribbon-Star-1--Streamline-Ultimate.svg"><path fill="#fff" stroke-width="10.667" d="M36.906666666666666 161.17333333333332a2.88 2.88 0 0 0 -2.3466666666666667 -1.1733333333333333 2.6666666666666665 2.6666666666666665 0 0 0 -2.2399999999999998 1.3866666666666667l-25.599999999999998 44.16a10.666666666666666 10.666666666666666 0 0 0 10.666666666666666 15.786666666666665l25.493333333333332 -4.266666666666667 8.853333333333332 24.426666666666666a10.666666666666666 10.666666666666666 0 0 0 19.2 1.7066666666666666l21.333333333333332 -35.626666666666665a2.3466666666666667 2.3466666666666667 0 0 0 0 -2.2399999999999998 2.6666666666666665 2.6666666666666665 0 0 0 -1.5999999999999999 -1.5999999999999999 109.01333333333334 109.01333333333334 0 0 1 -53.76 -42.56Z"/><path fill="#fff" stroke-width="10.667" d="M249.28 205.54666666666665 224 161.06666666666666a2.5599999999999996 2.5599999999999996 0 0 0 -2.2399999999999998 -1.2799999999999998 2.5599999999999996 2.5599999999999996 0 0 0 -2.2399999999999998 1.1733333333333333 109.86666666666667 109.86666666666667 0 0 1 -54.08 42.666666666666664 2.986666666666667 2.986666666666667 0 0 0 -1.5999999999999999 1.5999999999999999 2.3466666666666667 2.3466666666666667 0 0 0 0 2.2399999999999998l21.333333333333332 35.839999999999996a10.666666666666666 10.666666666666666 0 0 0 19.2 -1.8133333333333335l8.853333333333332 -24.426666666666666 25.493333333333332 4.266666666666667a10.666666666666666 10.666666666666666 0 0 0 10.666666666666666 -4.373333333333333 10.666666666666666 10.666666666666666 0 0 0 -0.10666666666666666 -11.413333333333334Z"/><path fill="#fff" stroke-width="10.667" d="M221.12 100.90666666666667A93.33333333333333 93.33333333333333 0 1 0 128 194.24a93.33333333333333 93.33333333333333 0 0 0 93.12 -93.33333333333333Zm-56 36.48a6.293333333333333 6.293333333333333 0 0 1 -9.066666666666666 7.893333333333333l-26.88 -15.146666666666665a2.986666666666667 2.986666666666667 0 0 0 -2.6666666666666665 0l-26.88 15.146666666666665a6.293333333333333 6.293333333333333 0 0 1 -9.066666666666666 -7.893333333333333l10.666666666666666 -25.173333333333332a2.6666666666666665 2.6666666666666665 0 0 0 -0.6399999999999999 -2.986666666666667L81.17333333333333 89.81333333333333a5.973333333333334 5.973333333333334 0 0 1 4.16 -10.666666666666666h22.613333333333333a2.6666666666666665 2.6666666666666665 0 0 0 2.453333333333333 -1.4933333333333334L122.13333333333333 53.33333333333333a6.506666666666666 6.506666666666666 0 0 1 11.413333333333334 0l11.733333333333334 24.21333333333333a2.5599999999999996 2.5599999999999996 0 0 0 2.3466666666666667 1.4933333333333334H170.66666666666666a5.973333333333334 5.973333333333334 0 0 1 4.266666666666667 10.666666666666666l-20.266666666666666 19.52a2.7733333333333334 2.7733333333333334 0 0 0 -0.5333333333333333 2.986666666666667Z"/></g></svg>