<svg xmlns="http://www.w3.org/2000/svg" id="Award-Medal-4--Streamline-Ultimate" width="256" height="256" viewBox="0 0 256 256"><desc>Award Medal 4 Streamline Icon: https://streamlinehq.com</desc><path fill="#fff" stroke-width="10.667" d="m180.07999999999998 148.38506666666666 3.6458666666666666 -18.123733333333334c0.6688000000000001 -2.8714666666666666 -0.1536 -5.885866666666666 -2.1866666666666665 -8.020266666666666 -2.082133333333333 -2.1258666666666666 -5.1488 -2.962133333333333 -8.021333333333333 -2.187733333333333l-18.2272 3.541333333333333 -14.686933333333332 -14.685866666666666 22.290133333333333 -19.165866666666666c7.1008 -6.321066666666667 11.407999999999998 -15.1968 11.978666666666665 -24.685866666666662V23.392h20.832c8.018133333333333 0 13.0304 -8.679466666666666 9.0208 -15.623466666666666C202.86506666666665 4.545066666666666 199.42613333333333 2.5599999999999996 195.70453333333333 2.5599999999999996H60.29546666666667c-8.018133333333333 0 -13.029333333333334 8.680533333333333 -9.0208 15.624533333333334 1.8602666666666665 3.2223999999999995 5.2992 5.207466666666667 9.0208 5.207466666666667h20.832v41.66506666666666c0.3541333333333333 9.574399999999999 4.516266666666667 18.61013333333333 11.5616 25.102933333333333l22.291199999999996 19.1648 -14.686933333333332 14.686933333333332 -18.228266666666666 -3.541333333333333c-2.872533333333333 -0.7744 -5.9392 0.06186666666666666 -8.020266666666666 2.187733333333333 -2.034133333333333 2.1344 -2.856533333333333 5.1488 -2.187733333333333 8.020266666666666l4.0629333333333335 17.706666666666663 -20.833066666666667 20.833066666666667c-4.038399999999999 4.061866666666667 -4.038399999999999 10.623999999999999 0 14.685866666666666l20.833066666666667 20.832 -3.6458666666666666 18.228266666666666c-0.6496 2.8714666666666666 0.1696 5.8773333333333335 2.1866666666666665 8.020266666666666 2.1344 2.034133333333333 5.149866666666666 2.856533333333333 8.021333333333333 2.187733333333333l18.2272 -3.6458666666666666 20.311466666666664 20.833066666666667c4.074666666666666 4.107733333333333 10.7168 4.107733333333333 14.791466666666667 0l20.311466666666664 -20.833066666666667 18.228266666666666 3.6458666666666666c2.8704 0.6688000000000001 5.885866666666666 -0.1536 8.020266666666666 -2.187733333333333 2.0170666666666666 -2.142933333333333 2.836266666666667 -5.1488 2.1866666666666665 -8.020266666666666l-4.478933333333333 -18.644266666666667 20.833066666666667 -20.832c3.7695999999999996 -4.0096 3.7695999999999996 -10.261333333333333 0 -14.270933333333334Zm-26.039466666666662 28.228266666666663c0 20.045866666666665 -21.700266666666668 32.57386666666666 -39.060266666666664 22.551466666666663 -17.36 -10.023466666666666 -17.36 -35.080533333333335 0 -45.102933333333326 3.9583999999999997 -2.2858666666666663 8.448 -3.4890666666666665 13.019733333333331 -3.4890666666666665 14.3808 0.0010666666666666667 26.040533333333332 11.658666666666665 26.040533333333332 26.040533333333332ZM106.23039999999999 74.32746666666667c-2.421333333333333 -2.5258666666666665 -3.925333333333333 -5.789866666666666 -4.270933333333333 -9.270399999999999V25.996799999999997c0 -1.4389333333333332 1.1658666666666666 -2.6048 2.6048 -2.6048h20.832c1.4378666666666666 0 2.6037333333333335 1.1658666666666666 2.6037333333333335 2.6048v61.35039999999999c-0.010666666666666666 1.0090666666666666 -0.6272 1.9125333333333332 -1.5626666666666664 2.2912 -0.816 0.5589333333333333 -1.8922666666666665 0.5589333333333333 -2.708266666666667 0Z"/></svg>