<svg xmlns="http://www.w3.org/2000/svg" id="Bandage-Leg--Streamline-Ultimate" width="256" height="256" viewBox="0 0 256 256"><desc>Bandage Leg Streamline Icon: https://streamlinehq.com</desc><g id="Bandage-Leg--Streamline-Ultimate.svg"><path fill="#fff" stroke-width="10.667" d="M213.33333333333331 59.946666666666665a5.119999999999999 5.119999999999999 0 0 0 -3.9466666666666663 -5.119999999999999l-96 -25.813333333333333a5.013333333333333 5.013333333333333 0 0 0 -4.586666666666666 0.8533333333333333 5.546666666666667 5.546666666666667 0 0 0 -2.1333333333333333 4.266666666666667v24.426666666666666a5.226666666666667 5.226666666666667 0 0 0 3.9466666666666663 5.119999999999999l96 27.52a5.333333333333333 5.333333333333333 0 0 0 6.72 -5.119999999999999Z"/><path fill="#fff" stroke-width="10.667" d="M176.8533333333333 197.9733333333333a5.226666666666667 5.226666666666667 0 0 0 2.5599999999999996 -5.226666666666667 5.4399999999999995 5.4399999999999995 0 0 0 -3.733333333333333 -4.4799999999999995l-61.86666666666666 -18.453333333333333a4.906666666666666 4.906666666666666 0 0 0 -4.693333333333333 0.8533333333333333 5.226666666666667 5.226666666666667 0 0 0 -2.2399999999999998 4.266666666666667V192h-16a5.333333333333333 5.333333333333333 0 0 0 -5.333333333333333 5.333333333333333v53.33333333333333a5.333333333333333 5.333333333333333 0 0 0 5.333333333333333 5.333333333333333h50.666666666666664a5.333333333333333 5.333333333333333 0 0 0 5.333333333333333 -5.333333333333333 61.44 61.44 0 0 1 29.973333333333333 -52.693333333333335Z"/><path fill="#fff" stroke-width="10.667" d="M162.88 250.66666666666666a5.333333333333333 5.333333333333333 0 0 0 5.333333333333333 5.333333333333333h29.333333333333332A16 16 0 0 0 213.33333333333331 240v-29.333333333333332a5.333333333333333 5.333333333333333 0 0 0 -5.333333333333333 -5.333333333333333 45.44 45.44 0 0 0 -45.120000000000005 45.33333333333333Z"/><path fill="#fff" stroke-width="10.667" d="M12.799999999999999 236.0533333333333a16 16 0 0 0 2.7733333333333334 13.76 16.426666666666666 16.426666666666666 0 0 0 12.693333333333332 6.186666666666666H64a5.333333333333333 5.333333333333333 0 0 0 5.333333333333333 -5.333333333333333v-53.33333333333333a5.653333333333333 5.653333333333333 0 0 0 -1.7066666666666666 -4.053333333333333A5.4399999999999995 5.4399999999999995 0 0 0 64 192a58.666666666666664 58.666666666666664 0 0 0 -51.199999999999996 44.05333333333333Z"/><path fill="#fff" stroke-width="10.667" d="M213.33333333333331 10.666666666666666a10.666666666666666 10.666666666666666 0 0 0 -10.666666666666666 -10.666666666666666h-85.33333333333333a10.666666666666666 10.666666666666666 0 0 0 -7.573333333333332 3.1999999999999997 5.333333333333333 5.333333333333333 0 0 0 -1.2799999999999998 5.119999999999999 5.119999999999999 5.119999999999999 0 0 0 3.733333333333333 3.733333333333333l94.39999999999999 25.386666666666663a5.653333333333333 5.653333333333333 0 0 0 4.693333333333333 -0.8533333333333333A5.4399999999999995 5.4399999999999995 0 0 0 213.33333333333331 32Z"/><path fill="#fff" stroke-width="10.667" d="M0.8533333333333333 131.0933333333333c-4.16 13.44 7.04 28.906666666666666 25.599999999999998 34.239999999999995a44.373333333333335 44.373333333333335 0 0 0 13.973333333333333 2.2399999999999998 26.133333333333333 26.133333333333333 0 0 0 26.666666666666664 -15.786666666666665 19.413333333333334 19.413333333333334 0 0 0 0 -8.533333333333333 2.88 2.88 0 0 1 0.8533333333333333 -2.453333333333333 2.7733333333333334 2.7733333333333334 0 0 1 2.5599999999999996 0l171.73333333333335 51.199999999999996a10.666666666666666 10.666666666666666 0 0 0 3.093333333333333 0 10.666666666666666 10.666666666666666 0 0 0 10.666666666666666 -10.666666666666666v-51.30666666666666a10.666666666666666 10.666666666666666 0 0 0 -7.68 -10.666666666666666L58.773333333333326 65.38666666666666a34.239999999999995 34.239999999999995 0 0 0 -24.21333333333333 1.92 25.706666666666667 25.706666666666667 0 0 0 -14.719999999999999 14.186666666666667Zm30.4 18.986666666666665c-10.666666666666666 -3.413333333333333 -16.21333333333333 -10.666666666666666 -15.146666666666665 -14.293333333333333s5.226666666666667 -4.586666666666666 11.306666666666667 -4.586666666666666a31.04 31.04 0 0 1 9.28 1.4933333333333334c10.666666666666666 3.413333333333333 16.21333333333333 10.666666666666666 15.146666666666665 14.293333333333333s-9.173333333333332 6.506666666666666 -20.586666666666666 3.093333333333333Z"/></g></svg>