<svg xmlns="http://www.w3.org/2000/svg" viewBox="0 0 256 256" id="Barbecue-Grill--Streamline-Ultimate" height="256" width="256">
  <desc>
    Barbecue Grill Streamline Icon: https://streamlinehq.com
  </desc>
  <g id="Barbecue-Grill--Streamline-Ultimate.svg">
    <path d="M181.33333333333331 166.93333333333334a2.453333333333333 2.453333333333333 0 0 0 -1.7066666666666666 -1.4933333333333334 2.7733333333333334 2.7733333333333334 0 0 0 -2.2399999999999998 0 81.06666666666666 81.06666666666666 0 0 1 -13.546666666666667 7.786666666666666 2.7733333333333334 2.7733333333333334 0 0 0 -1.3866666666666667 3.52l9.386666666666667 21.333333333333332a3.093333333333333 3.093333333333333 0 0 1 0 2.5599999999999996 2.7733333333333334 2.7733333333333334 0 0 1 -2.2399999999999998 1.1733333333333333H87.03999999999999a2.7733333333333334 2.7733333333333334 0 0 1 -1.7066666666666666 -0.31999999999999995 3.093333333333333 3.093333333333333 0 0 1 0 -2.5599999999999996l9.386666666666667 -21.333333333333332a2.7733333333333334 2.7733333333333334 0 0 0 -1.3866666666666667 -3.52 81.06666666666666 81.06666666666666 0 0 1 -13.546666666666667 -7.786666666666666 2.7733333333333334 2.7733333333333334 0 0 0 -2.2399999999999998 0 2.6666666666666665 2.6666666666666665 0 0 0 -1.7066666666666666 1.4933333333333334l-32 74.66666666666666a10.666666666666666 10.666666666666666 0 0 0 5.653333333333333 13.973333333333333A11.626666666666667 11.626666666666667 0 0 0 53.33333333333333 256a10.666666666666666 10.666666666666666 0 0 0 9.813333333333333 -6.506666666666666l10.666666666666666 -23.893333333333334A2.6666666666666665 2.6666666666666665 0 0 1 75.73333333333332 224h104.53333333333333a2.6666666666666665 2.6666666666666665 0 0 1 2.453333333333333 1.5999999999999999l10.133333333333333 23.893333333333334A10.666666666666666 10.666666666666666 0 0 0 202.66666666666666 256a11.626666666666667 11.626666666666667 0 0 0 4.16 -0.8533333333333333 10.666666666666666 10.666666666666666 0 0 0 5.653333333333333 -13.973333333333333Z" fill="#ffffff" stroke-width="10.6667"></path>
    <path d="M194.66666666666666 94.18666666666667a10.666666666666666 10.666666666666666 0 0 0 -8 -3.52h-117.33333333333333a10.666666666666666 10.666666666666666 0 0 0 -7.893333333333333 3.52 10.666666666666666 10.666666666666666 0 0 0 -2.7733333333333334 7.893333333333333 69.65333333333334 69.65333333333334 0 0 0 138.66666666666666 0 10.666666666666666 10.666666666666666 0 0 0 -2.6666666666666665 -7.893333333333333Z" fill="#ffffff" stroke-width="10.6667"></path>
    <path d="M77.75999999999999 76.90666666666667a10.666666666666666 10.666666666666666 0 0 1 0 -15.04 10.666666666666666 10.666666666666666 0 0 0 2.2399999999999998 -3.52l-2.88 -3.52A26.560000000000002 26.560000000000002 0 0 1 69.33333333333333 37.33333333333333a28.906666666666666 28.906666666666666 0 0 1 8.426666666666666 -18.24 10.666666666666666 10.666666666666666 0 0 1 15.146666666666665 15.146666666666665 9.28 9.28 0 0 0 -2.2399999999999998 3.413333333333333l2.88 3.52A26.560000000000002 26.560000000000002 0 0 1 101.33333333333333 58.666666666666664a28.906666666666666 28.906666666666666 0 0 1 -8.426666666666666 18.24 10.666666666666666 10.666666666666666 0 0 1 -15.146666666666665 0Z" fill="#ffffff" stroke-width="10.6667"></path>
    <path d="M163.0933333333333 76.90666666666667a10.666666666666666 10.666666666666666 0 0 1 0 -15.04 10.666666666666666 10.666666666666666 0 0 0 2.2399999999999998 -3.52l-2.88 -3.52a26.560000000000002 26.560000000000002 0 0 1 -7.786666666666666 -17.493333333333332 28.906666666666666 28.906666666666666 0 0 1 8.426666666666666 -18.24 10.666666666666666 10.666666666666666 0 1 1 15.146666666666665 15.146666666666665 9.28 9.28 0 0 0 -2.2399999999999998 3.413333333333333l2.88 3.52a26.560000000000002 26.560000000000002 0 0 1 7.786666666666666 17.493333333333332 28.906666666666666 28.906666666666666 0 0 1 -8.426666666666666 18.24 10.666666666666666 10.666666666666666 0 0 1 -15.146666666666665 0Z" fill="#ffffff" stroke-width="10.6667"></path>
    <path d="M120.42666666666665 76.90666666666667a10.666666666666666 10.666666666666666 0 0 1 0 -15.04 16.106666666666666 16.106666666666666 0 0 0 4.266666666666667 -7.253333333333334c0 -1.92 -2.3466666666666667 -4.8 -4.906666666666666 -7.786666666666666a33.49333333333333 33.49333333333333 0 0 1 -9.813333333333333 -21.333333333333332 35.626666666666665 35.626666666666665 0 0 1 10.666666666666666 -22.29333333333333 10.666666666666666 10.666666666666666 0 1 1 15.146666666666665 15.146666666666665 15.36 15.36 0 0 0 -4.266666666666667 7.1466666666666665c0 1.92 2.3466666666666667 4.8 4.906666666666666 7.786666666666666a33.49333333333333 33.49333333333333 0 0 1 9.813333333333333 21.333333333333332 35.626666666666665 35.626666666666665 0 0 1 -10.666666666666666 22.29333333333333 10.666666666666666 10.666666666666666 0 0 1 -15.146666666666665 0Z" fill="#ffffff" stroke-width="10.6667"></path>
  </g>
</svg>