<svg xmlns="http://www.w3.org/2000/svg" id="Barcode--Streamline-Ultimate" width="256" height="256" viewBox="0 0 256 256"><desc>Barcode Streamline Icon: https://streamlinehq.com</desc><g id="Barcode--Streamline-Ultimate.svg"><path fill="#fff" stroke-width="10.667" d="M53.33333333333333 74.66666666666666a10.666666666666666 10.666666666666666 0 0 0 -10.666666666666666 10.666666666666666v80a10.666666666666666 10.666666666666666 0 0 0 21.333333333333332 0V85.33333333333333a10.666666666666666 10.666666666666666 0 0 0 -10.666666666666666 -10.666666666666666Z"/><path fill="#fff" stroke-width="10.667" d="M90.66666666666666 74.66666666666666a10.666666666666666 10.666666666666666 0 0 0 -10.666666666666666 10.666666666666666v42.666666666666664a10.666666666666666 10.666666666666666 0 0 0 21.333333333333332 0V85.33333333333333a10.666666666666666 10.666666666666666 0 0 0 -10.666666666666666 -10.666666666666666Z"/><path fill="#fff" stroke-width="10.667" d="M128 74.66666666666666a10.666666666666666 10.666666666666666 0 0 0 -10.666666666666666 10.666666666666666v42.666666666666664a10.666666666666666 10.666666666666666 0 0 0 21.333333333333332 0V85.33333333333333a10.666666666666666 10.666666666666666 0 0 0 -10.666666666666666 -10.666666666666666Z"/><path fill="#fff" stroke-width="10.667" d="M165.33333333333331 74.66666666666666a10.666666666666666 10.666666666666666 0 0 0 -10.666666666666666 10.666666666666666v42.666666666666664a10.666666666666666 10.666666666666666 0 0 0 21.333333333333332 0V85.33333333333333a10.666666666666666 10.666666666666666 0 0 0 -10.666666666666666 -10.666666666666666Z"/><path fill="#fff" stroke-width="10.667" d="M90.66666666666666 149.33333333333331a10.666666666666666 10.666666666666666 0 0 0 -10.666666666666666 10.666666666666666v5.333333333333333a10.666666666666666 10.666666666666666 0 0 0 21.333333333333332 0V160a10.666666666666666 10.666666666666666 0 0 0 -10.666666666666666 -10.666666666666666Z"/><path fill="#fff" stroke-width="10.667" d="M128 149.33333333333331a10.666666666666666 10.666666666666666 0 0 0 -10.666666666666666 10.666666666666666v5.333333333333333a10.666666666666666 10.666666666666666 0 0 0 21.333333333333332 0V160a10.666666666666666 10.666666666666666 0 0 0 -10.666666666666666 -10.666666666666666Z"/><path fill="#fff" stroke-width="10.667" d="M165.33333333333331 149.33333333333331a10.666666666666666 10.666666666666666 0 0 0 -10.666666666666666 10.666666666666666v5.333333333333333a10.666666666666666 10.666666666666666 0 0 0 21.333333333333332 0V160a10.666666666666666 10.666666666666666 0 0 0 -10.666666666666666 -10.666666666666666Z"/><path fill="#fff" stroke-width="10.667" d="M202.66666666666666 74.66666666666666a10.666666666666666 10.666666666666666 0 0 0 -10.666666666666666 10.666666666666666v80a10.666666666666666 10.666666666666666 0 0 0 21.333333333333332 0V85.33333333333333a10.666666666666666 10.666666666666666 0 0 0 -10.666666666666666 -10.666666666666666Z"/><path fill="#fff" stroke-width="10.667" d="M224 32H32a32 32 0 0 0 -32 32v128a32 32 0 0 0 32 32h192a32 32 0 0 0 32 -32V64a32 32 0 0 0 -32 -32Zm10.666666666666666 160a10.666666666666666 10.666666666666666 0 0 1 -10.666666666666666 10.666666666666666H32a10.666666666666666 10.666666666666666 0 0 1 -10.666666666666666 -10.666666666666666V64a10.666666666666666 10.666666666666666 0 0 1 10.666666666666666 -10.666666666666666h192a10.666666666666666 10.666666666666666 0 0 1 10.666666666666666 10.666666666666666Z"/></g></svg>