<svg xmlns="http://www.w3.org/2000/svg" id="Baseball-Bat-Ball--Streamline-Ultimate" width="256" height="256" viewBox="0 0 256 256"><desc>Baseball Bat Ball Streamline Icon: https://streamlinehq.com</desc><g id="Baseball-Bat-Ball--Streamline-Ultimate.svg"><path fill="#fff" stroke-width="10.667" d="M172.16 195.51999999999998a28.8 28.8 0 1 0 57.6 0 28.8 28.8 0 1 0 -57.6 0"/><path fill="#fff" stroke-width="10.667" d="M20.159999999999997 211.94666666666666A11.52 11.52 0 1 0 3.84 228.26666666666665l24.426666666666666 24.319999999999997a11.52 11.52 0 1 0 16.32 -16.21333333333333Z"/><path fill="#fff" stroke-width="10.667" d="M58.879999999999995 180.69333333333333a5.333333333333333 5.333333333333333 0 0 0 -7.466666666666666 0L35.199999999999996 196.90666666666667a5.333333333333333 5.333333333333333 0 0 0 0 7.466666666666666l16.85333333333333 16.85333333333333a5.333333333333333 5.333333333333333 0 0 0 7.573333333333332 0l16.106666666666666 -16.106666666666666a5.013333333333333 5.013333333333333 0 0 0 1.5999999999999999 -3.733333333333333 5.226666666666667 5.226666666666667 0 0 0 -1.5999999999999999 -3.84Z"/><path fill="#fff" stroke-width="10.667" d="M245.33333333333331 10.666666666666666a36.8 36.8 0 0 0 -54.82666666666666 3.1999999999999997L69.33333333333333 161.70666666666665a5.333333333333333 5.333333333333333 0 0 0 0 7.1466666666666665l17.919999999999998 17.919999999999998a5.4399999999999995 5.4399999999999995 0 0 0 7.253333333333334 0l147.2 -121.49333333333334A36.586666666666666 36.586666666666666 0 0 0 245.33333333333331 10.666666666666666Z"/></g></svg>