<svg xmlns="http://www.w3.org/2000/svg" viewBox="0 0 256 256" id="Beer-Glass--Streamline-Ultimate" height="256" width="256">
  <desc>
    Beer Glass Streamline Icon: https://streamlinehq.com
  </desc>
  <g id="Beer-Glass--Streamline-Ultimate.svg">
    <path d="M181.33333333333331 21.333333333333332a2.986666666666667 2.986666666666667 0 0 1 2.0266666666666664 0.96 2.7733333333333334 2.7733333333333334 0 0 1 0.6399999999999999 2.0266666666666664l-2.6666666666666665 21.333333333333332a2.5599999999999996 2.5599999999999996 0 0 1 -2.6666666666666665 2.3466666666666667H77.44A2.5599999999999996 2.5599999999999996 0 0 1 74.66666666666666 45.653333333333336l-2.6666666666666665 -21.333333333333332a2.453333333333333 2.453333333333333 0 0 1 0.6399999999999999 -2.1333333333333333A2.986666666666667 2.986666666666667 0 0 1 74.66666666666666 21.333333333333332Zm21.333333333333332 -16.106666666666666A16.106666666666666 16.106666666666666 0 0 0 190.50666666666666 0H65.70666666666666A16.426666666666666 16.426666666666666 0 0 0 53.33333333333333 5.653333333333333a15.04 15.04 0 0 0 -3.413333333333333 12.266666666666666c7.359999999999999 57.6 -1.92 -5.653333333333333 30.72 194.45333333333332a10.666666666666666 10.666666666666666 0 0 0 10.666666666666666 8.959999999999999h73.81333333333333a10.666666666666666 10.666666666666666 0 0 0 10.666666666666666 -8.853333333333332c32 -196.79999999999998 23.253333333333334 -136.10666666666665 30.613333333333333 -194.24A16 16 0 0 0 202.66666666666666 5.226666666666667ZM128 128a26.666666666666664 26.666666666666664 0 1 1 26.666666666666664 -26.666666666666664A26.666666666666664 26.666666666666664 0 0 1 128 128Z" fill="#ffffff" stroke-width="10.6667"></path>
    <path d="M192 234.66666666666666H64a10.666666666666666 10.666666666666666 0 1 0 0 21.333333333333332h128a10.666666666666666 10.666666666666666 0 1 0 0 -21.333333333333332Z" fill="#ffffff" stroke-width="10.6667"></path>
  </g>
</svg>