<svg xmlns="http://www.w3.org/2000/svg" viewBox="0 0 256 256" id="Beer-Opener--Streamline-Ultimate" height="256" width="256">
  <desc>
    Beer Opener Streamline Icon: https://streamlinehq.com
  </desc>
  <g id="Beer-Opener--Streamline-Ultimate.svg">
    <path d="M249.70666666666665 100.26666666666667a21.333333333333332 21.333333333333332 0 0 0 0 -30.186666666666667l-64 -64a21.333333333333332 21.333333333333332 0 0 0 -30.186666666666667 0l-53.33333333333333 53.33333333333333a21.333333333333332 21.333333333333332 0 0 0 0 30.186666666666667l64 64a21.333333333333332 21.333333333333332 0 0 0 30.186666666666667 0Zm-37.12 -10.666666666666666 -24.319999999999997 24.426666666666666a13.76 13.76 0 0 1 -13.653333333333332 3.3066666666666666 2.6666666666666665 2.6666666666666665 0 0 1 -1.7066666666666666 -1.4933333333333334 2.3466666666666667 2.3466666666666667 0 0 1 0 -2.2399999999999998c2.88 -5.653333333333333 7.1466666666666665 -14.293333333333333 7.893333333333333 -16.32a9.493333333333332 9.493333333333332 0 0 0 -2.3466666666666667 -9.813333333333333l-9.6 -9.6a9.493333333333332 9.493333333333332 0 0 0 -9.706666666666667 -3.1999999999999997c-2.0266666666666664 0.6399999999999999 -10.666666666666666 5.013333333333333 -16.32 7.893333333333333a2.3466666666666667 2.3466666666666667 0 0 1 -2.2399999999999998 0 2.453333333333333 2.453333333333333 0 0 1 -1.92 -1.0666666666666667 13.76 13.76 0 0 1 3.3066666666666666 -13.76l24.426666666666666 -24.319999999999997a7.253333333333334 7.253333333333334 0 0 1 10.666666666666666 0l35.41333333333333 35.41333333333333a7.253333333333334 7.253333333333334 0 0 1 0.10666666666666666 10.346666666666666Z" fill="#ffffff" stroke-width="10.6667"></path>
    <path d="m135.89333333333332 146.56 -26.453333333333333 -26.453333333333333a5.4399999999999995 5.4399999999999995 0 0 0 -7.466666666666666 0l-94.93333333333334 94.93333333333334a24 24 0 0 0 33.92 33.92l94.93333333333334 -94.93333333333334a5.333333333333333 5.333333333333333 0 0 0 0 -7.466666666666666Zm-101.65333333333332 90.34666666666666a10.666666666666666 10.666666666666666 0 1 1 0 -15.146666666666665 10.666666666666666 10.666666666666666 0 0 1 0 15.146666666666665Z" fill="#ffffff" stroke-width="10.6667"></path>
  </g>
</svg>