<svg xmlns="http://www.w3.org/2000/svg" viewBox="0 0 256 256" id="Begging-Hand-Coin-2--Streamline-Ultimate" height="256" width="256">
  <desc>
    Begging Hand Coin 2 Streamline Icon: https://streamlinehq.com
  </desc>
  <g id="Begging-Hand-Coin-2--Streamline-Ultimate.svg">
    <path d="M52.693333333333335 171.30666666666664a41.81333333333333 41.81333333333333 0 0 0 -18.986666666666665 4.4799999999999995L1.4933333333333334 192a2.5599999999999996 2.5599999999999996 0 0 0 -1.4933333333333334 2.3466666666666667v57.6a2.453333333333333 2.453333333333333 0 0 0 1.3866666666666667 2.2399999999999998 2.453333333333333 2.453333333333333 0 0 0 2.6666666666666665 0l36.48 -22.93333333333333a5.119999999999999 5.119999999999999 0 0 1 4.4799999999999995 -0.5333333333333333c109.44 36.69333333333333 72.32 37.33333333333333 193.17333333333332 -23.786666666666665a5.4399999999999995 5.4399999999999995 0 0 0 0.8533333333333333 -9.173333333333332 26.133333333333333 26.133333333333333 0 0 0 -25.706666666666667 -5.119999999999999l-36.48 12.053333333333331a5.119999999999999 5.119999999999999 0 0 0 -3.093333333333333 2.6666666666666665 21.333333333333332 21.333333333333332 0 0 1 -19.093333333333334 11.946666666666667h-42.666666666666664a5.333333333333333 5.333333333333333 0 0 1 -5.333333333333333 -5.333333333333333 5.333333333333333 5.333333333333333 0 0 1 5.333333333333333 -5.333333333333333h42.666666666666664a10.666666666666666 10.666666666666666 0 1 0 0 -21.333333333333332h-35.519999999999996a5.76 5.76 0 0 1 -3.1999999999999997 -1.0666666666666667A73.81333333333333 73.81333333333333 0 0 0 74.66666666666666 171.30666666666664Z" fill="#ffffff" stroke-width="10.6667"></path>
    <path d="M186.66666666666666 0A69.33333333333333 69.33333333333333 0 1 0 256 69.33333333333333 69.44 69.44 0 0 0 186.66666666666666 0Zm8 109.22666666666666v5.4399999999999995a8 8 0 0 1 -16 0v-5.333333333333333H170.66666666666666a8 8 0 0 1 0 -16h21.333333333333332a6.293333333333333 6.293333333333333 0 0 0 2.3466666666666667 -12.159999999999998l-21.973333333333333 -8.853333333333332a22.29333333333333 22.29333333333333 0 0 1 5.973333333333334 -42.666666666666664v-5.653333333333333a8 8 0 0 1 16 0v5.333333333333333H202.66666666666666a8 8 0 0 1 0 16h-21.333333333333332a6.293333333333333 6.293333333333333 0 0 0 -6.293333333333333 6.293333333333333 6.186666666666666 6.186666666666666 0 0 0 3.9466666666666663 5.866666666666667l21.973333333333333 8.853333333333332a22.29333333333333 22.29333333333333 0 0 1 -5.973333333333334 42.666666666666664Z" fill="#ffffff" stroke-width="10.6667"></path>
  </g>
</svg>