<svg xmlns="http://www.w3.org/2000/svg" viewBox="0 0 256 256" id="Bicycle--Streamline-Ultimate" height="256" width="256">
  <desc>
    Bicycle Streamline Icon: https://streamlinehq.com
  </desc>
  <path d="M59.8304 66.93546666666666c-8.020266666666666 -0.025599999999999998 -13.061333333333332 8.641066666666667 -9.073066666666666 15.599999999999998 1.8624 3.2512 5.326933333333333 5.2512 9.073066666666666 5.239466666666667h14.691199999999998c1.0389333333333333 -0.004266666666666667 1.9808 0.6101333333333333 2.3968 1.5626666666666664l6.667733333333333 16.3584c0.46613333333333334 0.8053333333333332 0.46613333333333334 1.7984 0 2.6048l-3.6458666666666666 4.584533333333333c-0.7509333333333333 0.9322666666666667 -2.0405333333333333 1.2330666666666665 -3.1264000000000003 0.7296 -6.925866666666666 -3.3183999999999996 -14.513066666666667 -5.028266666666666 -22.193066666666667 -5.0016 -40.10453333333333 0.029866666666666666 -65.13706666666667 43.4624 -45.059200000000004 78.17813333333334 20.0768 34.7168 70.20693333333332 34.67946666666666 90.2336 -0.06613333333333332 2.4543999999999997 -4.258133333333333 4.2943999999999996 -8.842666666666666 5.463466666666666 -13.616 0.25066666666666665 -1.1743999999999999 1.3002666666666665 -2.0063999999999997 2.501333333333333 -1.9797333333333331h4.167466666666666c3.3343999999999996 0.008533333333333334 6.472533333333333 -1.5797333333333334 8.439466666666666 -4.272l44.59519999999999 -60.849066666666666c0.5546666666666666 -0.7519999999999999 1.4687999999999999 -1.1498666666666666 2.3968 -1.0421333333333331 1.024 0.26026666666666665 1.7749333333333333 1.136 1.8752 2.1887999999999996l2.9173333333333336 7.917866666666666c0.4597333333333333 1.1328 0.06933333333333333 2.4330666666666665 -0.9376 3.1264000000000003 -32.72 23.18933333333333 -28.066133333333333 73.10293333333333 8.376533333333333 89.84426666666667 36.44266666666667 16.74133333333333 77.34293333333332 -12.245333333333331 73.61919999999999 -52.17706666666667 -2.526933333333333 -27.105066666666666 -25.4976 -47.69493333333333 -52.71679999999999 -47.25333333333333 -1.909333333333333 -0.10666666666666666 -3.8229333333333333 -0.10666666666666666 -5.731199999999999 0 -1.2213333333333334 0.21973333333333334 -2.4192 -0.49066666666666664 -2.8127999999999997 -1.6671999999999998l-13.128533333333332 -35.21706666666667c-0.2645333333333333 -0.7061333333333333 -0.2645333333333333 -1.4826666666666668 0 -2.1887999999999996 0.38186666666666663 -0.6069333333333333 0.976 -1.0528 1.6661333333333332 -1.2501333333333333l18.234666666666666 -4.584533333333333c5.537066666666666 -1.4314666666666667 8.884266666666665 -7.058133333333332 7.5018666666666665 -12.606933333333332 -1.3845333333333332 -5.579733333333333 -7.026133333333332 -8.982399999999998 -12.607999999999999 -7.606399999999999l-26.568533333333335 6.668799999999999c-4.4768 0.9610666666666666 -8.2944 3.8623999999999996 -10.420266666666667 7.917866666666666 -2.078933333333333 3.9189333333333334 -2.4192 8.530133333333332 -0.9376 12.712533333333333l0.8341333333333334 2.187733333333333c0.6325333333333333 1.3823999999999999 -0.10453333333333333 3.0058666666666665 -1.5626666666666664 3.4378666666666664L104.21653333333333 94.65173333333333c-1.2938666666666667 0.49173333333333336 -2.7424 -0.16213333333333332 -3.2298666666666667 -1.4592l-1.2501333333333333 -2.9173333333333336c-0.26026666666666665 -0.5247999999999999 -0.26026666666666665 -1.1413333333333333 0 -1.6671999999999998 0.36053333333333326 -0.5077333333333334 0.9397333333333333 -0.8170666666666666 1.5626666666666664 -0.8330666666666666 8.021333333333333 -0.025599999999999998 13.006933333333333 -8.724266666666665 8.973866666666666 -15.658666666666665 -1.8592 -3.1968 -5.274666666666667 -5.167999999999999 -8.973866666666666 -5.1808ZM54.6208 191.968c-24.062933333333334 0.07146666666666666 -39.178666666666665 -25.93173333333333 -27.2096 -46.8064 11.969066666666667 -20.874666666666666 42.04693333333333 -20.9632 54.1408 -0.16106666666666666 0.27413333333333334 0.4714666666666667 0.5354666666666666 0.9503999999999999 0.7839999999999999 1.4346666666666668 0.40959999999999996 0.8202666666666666 0.40959999999999996 1.7855999999999999 0 2.6048 -0.49173333333333336 0.7392 -1.3024 1.2021333333333333 -2.187733333333333 1.2511999999999999H54.6208c-8.021333333333333 0.025599999999999998 -13.005866666666666 8.724266666666665 -8.973866666666666 15.657599999999999 1.8602666666666665 3.1968 5.274666666666667 5.169066666666666 8.973866666666666 5.1808h25.422933333333333c0.896 0.012799999999999999 1.7226666666666666 0.4853333333333333 2.1887999999999996 1.2501333333333333 0.4256 0.7797333333333333 0.4256 1.7215999999999998 0 2.501333333333333 -5.291733333333333 10.404266666666667 -15.9392 16.99413333333333 -27.611733333333333 17.086933333333334Zm52.617599999999996 -42.51093333333333c-0.3221333333333333 0.18666666666666668 -0.7189333333333333 0.18666666666666668 -1.0421333333333331 0 -0.3616 -0.06293333333333333 -0.6719999999999999 -0.29546666666666666 -0.8330666666666666 -0.6250666666666667 -1.5744 -7.138133333333333 -4.6655999999999995 -13.854933333333332 -9.064533333333333 -19.6928 -0.7125333333333332 -0.9589333333333332 -0.7125333333333332 -2.2709333333333332 0 -3.2298666666666667l5.834666666666667 -8.334933333333332c0.37546666666666667 -0.10239999999999999 0.7712 -0.10239999999999999 1.1456 0l29.486933333333333 -10.4192c1.0730666666666666 -0.39039999999999997 2.273066666666667 -0.004266666666666667 2.9173333333333336 0.9376 0.7157333333333333 0.88 0.7157333333333333 2.1407999999999996 0 3.0208Zm93.77493333333332 42.51093333333333c-17.264 0 -31.258666666666663 -13.994666666666667 -31.258666666666663 -31.2576 0.10346666666666667 -7.738666666666667 3.0730666666666666 -15.163733333333333 8.335999999999999 -20.8384 0.26239999999999997 -0.7050666666666667 0.8415999999999999 -1.2448 1.5626666666666664 -1.4592 0.9002666666666667 0.18453333333333333 1.6448 0.8117333333333333 1.9797333333333331 1.6671999999999998l8.751999999999999 23.755733333333332c1.4922666666666666 4.125866666666666 5.4079999999999995 6.875733333333333 9.794133333333333 6.8768 1.2416 -0.012799999999999999 2.4725333333333332 -0.224 3.646933333333333 -0.6250666666666667 5.421866666666666 -2 8.180266666666666 -8.030933333333333 6.1472 -13.441066666666666l-10.4192 -27.298133333333332c24.062933333333334 0 39.101866666666666 26.048000000000002 27.070933333333333 46.886399999999995 -5.584 9.671466666666666 -15.902933333333332 15.629866666666667 -27.070933333333333 15.629866666666667Z" fill="#ffffff" stroke-width="10.6667"></path>
</svg>