<svg xmlns="http://www.w3.org/2000/svg" viewBox="0 0 256 256" id="Bilibili-Logo--Streamline-Ultimate" height="256" width="256">
  <desc>
    Bilibili Logo Streamline Icon: https://streamlinehq.com
  </desc>
  <g id="Bilibili-Logo--Streamline-Ultimate.svg">
    <path d="M208 37.33333333333333h-25.386666666666663l10.026666666666666 -10.026666666666666a15.893333333333333 15.893333333333333 0 0 0 0 -22.613333333333333 16.106666666666666 16.106666666666666 0 0 0 -22.613333333333333 0L137.38666666666666 37.33333333333333h-18.773333333333333L85.97333333333333 4.693333333333333a16.106666666666666 16.106666666666666 0 0 0 -22.613333333333333 0 15.893333333333333 15.893333333333333 0 0 0 0 22.613333333333333l10.026666666666666 10.026666666666666H48A48.10666666666666 48.10666666666666 0 0 0 0 85.33333333333333v106.66666666666666a48.10666666666666 48.10666666666666 0 0 0 48 48H53.33333333333333a18.666666666666664 18.666666666666664 0 0 0 36.906666666666666 0h74.66666666666666a18.666666666666664 18.666666666666664 0 0 0 36.906666666666666 0h5.546666666666667A48.10666666666666 48.10666666666666 0 0 0 256 192V85.33333333333333a48.10666666666666 48.10666666666666 0 0 0 -48 -48ZM224 192a16 16 0 0 1 -16 16h-160A16 16 0 0 1 32 192V85.33333333333333a16 16 0 0 1 16 -16h160A16 16 0 0 1 224 85.33333333333333Z" fill="#ffffff" stroke-width="10.6667"></path>
    <path d="M160 161.06666666666666a7.786666666666666 7.786666666666666 0 0 0 -9.28 6.079999999999999 5.76 5.76 0 0 1 -3.626666666666667 0.8533333333333333c-6.933333333333334 0 -10.666666666666666 -10.666666666666666 -10.666666666666666 -10.666666666666666a8.106666666666666 8.106666666666666 0 0 0 -7.573333333333332 -5.226666666666667 8.106666666666666 8.106666666666666 0 0 0 -7.466666666666666 5.226666666666667s-4.266666666666667 10.666666666666666 -11.2 10.666666666666666c-2.453333333333333 0 -3.413333333333333 -0.6399999999999999 -3.413333333333333 0a8 8 0 0 0 -16.53333333333333 2.6666666666666665 18.026666666666664 18.026666666666664 0 0 0 19.093333333333334 13.226666666666667 25.066666666666666 25.066666666666666 0 0 0 18.666666666666664 -8.746666666666666 25.066666666666666 25.066666666666666 0 0 0 18.666666666666664 8.853333333333332A18.026666666666664 18.026666666666664 0 0 0 165.76 170.66666666666666a8.213333333333333 8.213333333333333 0 0 0 -5.76 -9.6Z" fill="#ffffff" stroke-width="10.6667"></path>
    <path d="M104.10666666666665 113.6a7.893333333333333 7.893333333333333 0 0 0 -9.386666666666667 -6.186666666666666l-42.026666666666664 8.533333333333333a8 8 0 0 0 -6.293333333333333 9.493333333333332 8.213333333333333 8.213333333333333 0 0 0 7.893333333333333 6.3999999999999995l1.5999999999999999 0 42.026666666666664 -8.533333333333333a8.106666666666666 8.106666666666666 0 0 0 6.186666666666666 -9.706666666666667Z" fill="#ffffff" stroke-width="10.6667"></path>
    <path d="m203.30666666666664 115.94666666666666 -42.026666666666664 -8.533333333333333a7.893333333333333 7.893333333333333 0 0 0 -9.386666666666667 6.186666666666666 8.106666666666666 8.106666666666666 0 0 0 6.186666666666666 9.493333333333332l42.026666666666664 8.533333333333333 1.5999999999999999 0a8.213333333333333 8.213333333333333 0 0 0 7.893333333333333 -6.3999999999999995 8 8 0 0 0 -6.293333333333333 -9.28Z" fill="#ffffff" stroke-width="10.6667"></path>
  </g>
</svg>