<svg xmlns="http://www.w3.org/2000/svg" id="Bill-Cross--Streamline-Ultimate" width="256" height="256" fill="none" viewBox="0 0 256 256"><desc>Bill Cross Streamline Icon: https://streamlinehq.com</desc><path fill="#fff" fill-rule="evenodd" stroke-width="10.667" d="M46.175999999999995 0.7146666666666667A45.46133333333333 45.46133333333333 0 0 0 0.7146666666666667 46.18666666666667v200a9.088 9.088 0 0 0 13.770666666666665 7.786666666666666l40.778666666666666 -24.458666666666666 40.778666666666666 24.458666666666666c2.88 1.728 6.485333333333333 1.728 9.365333333333332 0l40.778666666666666 -24.458666666666666 40.778666666666666 24.458666666666666a9.088 9.088 0 0 0 13.76 -7.786666666666666V109.81333333333333h0.10666666666666666V46.53866666666667a11.370666666666667 11.370666666666667 0 0 1 22.72 0v63.27466666666667h22.645333333333333c5.013333333333333 0 9.088 -4.064 9.088 -9.088V37.087999999999994a36.373333333333335 36.373333333333335 0 0 0 -36.34133333333333 -36.373333333333335l-0.021333333333333333 0H46.165333333333336Zm39.57333333333333 68.07466666666666h32.21333333333333a5.333333333333333 5.333333333333333 0 0 1 5.333333333333333 5.333333333333333v32.42666666666666l32.43733333333333 0a5.333333333333333 5.333333333333333 0 0 1 5.333333333333333 5.333333333333333v32.23466666666666a5.333333333333333 5.333333333333333 0 0 1 -5.333333333333333 5.333333333333333l-32.42666666666666 0v32.42666666666666a5.333333333333333 5.333333333333333 0 0 1 -5.333333333333333 5.333333333333333H85.74933333333333a5.333333333333333 5.333333333333333 0 0 1 -5.333333333333333 -5.333333333333333l0 -32.42666666666666 -32.43733333333333 0a5.333333333333333 5.333333333333333 0 0 1 -5.333333333333333 -5.333333333333333l0 -32.23466666666666a5.333333333333333 5.333333333333333 0 0 1 5.333333333333333 -5.333333333333333l32.42666666666666 0V74.13333333333333a5.333333333333333 5.333333333333333 0 0 1 5.333333333333333 -5.333333333333333Z" clip-rule="evenodd"/></svg>