<svg xmlns="http://www.w3.org/2000/svg" id="Bin-1--Streamline-Ultimate" width="256" height="256" viewBox="0 0 256 256"><desc>Bin 1 Streamline Icon: https://streamlinehq.com</desc><g id="Bin-1--Streamline-Ultimate.svg"><path fill="#fff" stroke-width="10.667" d="M207.46666666666664 80H48.53333333333333a5.333333333333333 5.333333333333333 0 0 0 -5.333333333333333 5.76l13.653333333333332 150.82666666666665a21.333333333333332 21.333333333333332 0 0 0 21.333333333333332 19.413333333333334h99.62666666666667a21.333333333333332 21.333333333333332 0 0 0 21.333333333333332 -19.413333333333334L213.33333333333331 85.33333333333333a5.333333333333333 5.333333333333333 0 0 0 -5.333333333333333 -5.76Zm-98.13333333333333 138.66666666666666a8 8 0 0 1 -16 0v-96a8 8 0 0 1 16 0Zm53.33333333333333 0a8 8 0 0 1 -16 0v-96a8 8 0 0 1 16 0Z"/><path fill="#fff" stroke-width="10.667" d="M234.66666666666666 42.666666666666664h-50.666666666666664a2.6666666666666665 2.6666666666666665 0 0 1 -2.6666666666666665 -2.6666666666666665V26.666666666666664A26.666666666666664 26.666666666666664 0 0 0 154.66666666666666 0h-53.33333333333333A26.666666666666664 26.666666666666664 0 0 0 74.66666666666666 26.666666666666664v13.333333333333332a2.6666666666666665 2.6666666666666665 0 0 1 -2.6666666666666665 2.6666666666666665H21.333333333333332a10.666666666666666 10.666666666666666 0 0 0 0 21.333333333333332h213.33333333333331a10.666666666666666 10.666666666666666 0 0 0 0 -21.333333333333332ZM96 40V26.666666666666664a5.333333333333333 5.333333333333333 0 0 1 5.333333333333333 -5.333333333333333h53.33333333333333a5.333333333333333 5.333333333333333 0 0 1 5.333333333333333 5.333333333333333v13.333333333333332a2.6666666666666665 2.6666666666666665 0 0 1 -2.6666666666666665 2.6666666666666665h-58.666666666666664A2.6666666666666665 2.6666666666666665 0 0 1 96 40Z"/></g></svg>