<svg xmlns="http://www.w3.org/2000/svg" viewBox="0 0 256 256" id="Bing-Logo--Streamline-Ultimate" height="256" width="256">
  <desc>
    Bing Logo Streamline Icon: https://streamlinehq.com
  </desc>
  <g id="Bing-Logo--Streamline-Ultimate.svg">
    <path d="M128 74.66666666666666a115.30666666666667 115.30666666666667 0 0 0 -77.33333333333333 27.733333333333334V25.599999999999998a13.333333333333332 13.333333333333332 0 0 0 -26.666666666666664 0v133.33333333333331c0 46.72 46.61333333333333 85.33333333333333 104 85.33333333333333s104 -38.08 104 -85.33333333333333S185.38666666666666 74.66666666666666 128 74.66666666666666Zm0 142.93333333333334c-42.666666666666664 0 -77.22666666666666 -26.026666666666664 -77.33333333333333 -58.02666666666667 0 -32 34.879999999999995 -57.81333333333333 77.33333333333333 -57.81333333333333s77.33333333333333 26.133333333333333 77.33333333333333 58.13333333333333S170.66666666666666 217.06666666666666 128 217.06666666666666Z" fill="#ffffff" stroke-width="10.6667"></path>
    <path d="M85.33333333333333 158.93333333333334a42.666666666666664 33.599999999999994 0 1 0 85.33333333333333 0 42.666666666666664 33.599999999999994 0 1 0 -85.33333333333333 0" fill="#ffffff" stroke-width="10.6667"></path>
  </g>
</svg>