<svg xmlns="http://www.w3.org/2000/svg" viewBox="0 0 256 256" id="Binocular--Streamline-Ultimate" height="256" width="256">
  <desc>
    Binocular Streamline Icon: https://streamlinehq.com
  </desc>
  <path d="m237.9733333333333 147.41333333333333 -27.733333333333334 -69.22666666666666a4.8 4.8 0 0 0 -1.1733333333333333 -1.8133333333333335l-15.146666666666665 -15.146666666666665 -15.573333333333332 -41.599999999999994a6.079999999999999 6.079999999999999 0 0 0 -1.2799999999999998 -1.92 30.613333333333333 30.613333333333333 0 0 0 -39.46666666666667 0 5.226666666666667 5.226666666666667 0 0 0 -1.5999999999999999 3.733333333333333V74.66666666666666l-10.666666666666666 0 -5.333333333333333 0V21.333333333333332a5.226666666666667 5.226666666666667 0 0 0 -1.5999999999999999 -3.733333333333333 30.613333333333333 30.613333333333333 0 0 0 -39.46666666666667 0 6.079999999999999 6.079999999999999 0 0 0 -1.2799999999999998 1.92L62.08 61.22666666666667 46.93333333333334 76.37333333333333a4.8 4.8 0 0 0 -1.1733333333333333 1.8133333333333335l-27.733333333333334 69.22666666666666a58.56 58.56 0 1 0 101.97333333333333 39.36V128a40.959999999999994 40.959999999999994 0 0 1 5.333333333333333 0 49.17333333333333 49.17333333333333 0 0 1 10.666666666666666 1.0666666666666667v58.239999999999995a58.666666666666664 58.666666666666664 0 1 0 101.97333333333333 -39.36ZM98.66666666666666 186.77333333333334A37.33333333333333 37.33333333333333 0 1 1 61.33333333333333 149.33333333333331a37.33333333333333 37.33333333333333 0 0 1 37.33333333333333 37.44Zm96 37.33333333333333a37.33333333333333 37.33333333333333 0 1 1 37.33333333333333 -37.33333333333333 37.33333333333333 37.33333333333333 0 0 1 -37.33333333333333 37.22666666666667Z" fill="#ffffff" stroke-width="10.6667"></path>
</svg>