<svg xmlns="http://www.w3.org/2000/svg" viewBox="0 0 256 256" id="Blackberry-Logo--Streamline-Ultimate" height="256" width="256">
  <desc>
    Blackberry Logo Streamline Icon: https://streamlinehq.com
  </desc>
  <g id="Blackberry-Logo--Streamline-Ultimate.svg">
    <path d="M54.672 39.952H26.056533333333334c-2.6154666666666664 -0.0010666666666666667 -4.8693333333333335 1.8399999999999999 -5.393066666666667 4.4021333333333335l-6.933333333333334 33.0176c-0.4256 1.5936 -0.010666666666666666 3.2938666666666667 1.1008 4.513066666666666 1.0154666666666667 1.3408 2.610133333333333 2.1173333333333333 4.2922666666666665 2.0906666666666665h27.514666666666663c26.964266666666663 0 34.55893333333333 -12.766933333333334 34.55893333333333 -24.54293333333333 0 -8.364799999999999 -5.063466666666667 -19.480533333333334 -26.5248 -19.480533333333334Z" fill="#ffffff" stroke-width="10.6667"></path>
    <path d="M142.72 39.952h-28.615466666666666c-2.6154666666666664 -0.0010666666666666667 -4.8704 1.8399999999999999 -5.393066666666667 4.4021333333333335l-6.933333333333334 33.0176c-0.4256 1.5936 -0.011733333333333333 3.2938666666666667 1.0997333333333332 4.513066666666666 1.0165333333333333 1.3408 2.610133333333333 2.1173333333333333 4.2922666666666665 2.0906666666666665h27.515733333333333c26.964266666666663 0 34.55786666666666 -12.766933333333334 34.55786666666666 -24.54293333333333 0 -8.364799999999999 -5.0624 -19.480533333333334 -26.523733333333332 -19.480533333333334Z" fill="#ffffff" stroke-width="10.6667"></path>
    <path d="M226.91519999999997 72.9696h-28.615466666666666c-2.6154666666666664 0 -4.8693333333333335 1.8399999999999999 -5.393066666666667 4.4021333333333335l-7.0432 33.01866666666666c-0.6965333333333332 3.4111999999999996 1.9104 6.603733333333333 5.393066666666667 6.603733333333333h27.624533333333332c26.8544 0 34.55893333333333 -12.766933333333334 34.55893333333333 -24.544 0 -8.364799999999999 -5.502933333333333 -19.480533333333334 -26.5248 -19.480533333333334Z" fill="#ffffff" stroke-width="10.6667"></path>
    <path d="M215.9093333333333 139.00586666666666h-28.615466666666666c-2.6154666666666664 -0.0010666666666666667 -4.8693333333333335 1.8399999999999999 -5.393066666666667 4.4021333333333335l-7.0432 33.0176c-0.6965333333333332 3.4122666666666666 1.9104 6.604799999999999 5.393066666666667 6.603733333333333h27.624533333333332c26.8544 0 34.55893333333333 -12.766933333333334 34.55893333333333 -24.54293333333333 0 -8.364799999999999 -5.502933333333333 -19.480533333333334 -26.5248 -19.480533333333334Z" fill="#ffffff" stroke-width="10.6667"></path>
    <path d="M43.666133333333335 105.98719999999999H15.050666666666666c-2.6154666666666664 0 -4.8693333333333335 1.8399999999999999 -5.393066666666667 4.4032l-6.933333333333334 33.0176c-0.4256 1.5936 -0.010666666666666666 3.2938666666666667 1.1008 4.512 1.0154666666666667 1.3408 2.610133333333333 2.1173333333333333 4.2922666666666665 2.091733333333333h27.514666666666663c26.964266666666663 0 34.55893333333333 -12.766933333333334 34.55893333333333 -24.544 0 -8.363733333333332 -5.063466666666667 -19.480533333333334 -26.5248 -19.480533333333334Z" fill="#ffffff" stroke-width="10.6667"></path>
    <path d="M131.71413333333334 105.98719999999999H103.09866666666666c-2.6154666666666664 0 -4.8704 1.8399999999999999 -5.393066666666667 4.4032l-6.9344 33.0176c-0.4245333333333333 1.5936 -0.010666666666666666 3.2938666666666667 1.1008 4.512 1.0165333333333333 1.3408 2.610133333333333 2.1173333333333333 4.2922666666666665 2.091733333333333h27.515733333333333c26.964266666666663 0 34.55786666666666 -12.766933333333334 34.55786666666666 -24.544 0 -8.363733333333332 -5.0624 -19.480533333333334 -26.523733333333332 -19.480533333333334Z" fill="#ffffff" stroke-width="10.6667"></path>
    <path d="M120.70826666666666 172.02346666666665H92.09279999999998c-2.6154666666666664 0 -4.8704 1.8399999999999999 -5.393066666666667 4.4021333333333335l-6.9344 33.01866666666666c-0.4256 1.5925333333333331 -0.010666666666666666 3.2938666666666667 1.1008 4.512 1.0165333333333333 1.3408 2.610133333333333 2.1173333333333333 4.2922666666666665 2.0906666666666665h27.514666666666663c26.965333333333334 0 34.55893333333333 -12.766933333333334 34.55893333333333 -24.54293333333333 0 -8.364799999999999 -5.0624 -19.480533333333334 -26.523733333333332 -19.480533333333334Z" fill="#ffffff" stroke-width="10.6667"></path>
  </g>
</svg>