<svg xmlns="http://www.w3.org/2000/svg" id="Blizzards-1-Natural-Disasters-Blizzards-Snow--Streamline-Ultimate" width="256" height="256" fill="none" viewBox="0 0 256 256"><desc>Blizzards 1 Natural Disasters Blizzards Snow Streamline Icon: https://streamlinehq.com</desc><path fill="#fff" fill-rule="evenodd" stroke-width="10.667" d="M206.1685333333333 15.186879999999999c5.8911999999999995 0 10.666666666666666 4.775573333333333 10.666666666666666 10.666666666666666v2.337813333333333h2.3381333333333334c5.8911999999999995 0 10.666666666666666 4.7756799999999995 10.666666666666666 10.666666666666666 0 5.891093333333332 -4.7754666666666665 10.666666666666666 -10.666666666666666 10.666666666666666h-2.3381333333333334v2.33792c0 5.891093333333332 -4.7754666666666665 10.666666666666666 -10.666666666666666 10.666666666666666s-10.666666666666666 -4.775573333333333 -10.666666666666666 -10.666666666666666v-2.33792h-2.3381333333333334c-5.890133333333333 0 -10.666666666666666 -4.775573333333333 -10.666666666666666 -10.666666666666666 0 -5.890986666666667 4.776533333333333 -10.666666666666666 10.666666666666666 -10.666666666666666h2.3381333333333334v-2.337813333333333c0 -5.891093333333332 4.7754666666666665 -10.666666666666666 10.666666666666666 -10.666666666666666ZM37.55882666666666 31.73173333333333c0 8.100266666666666 6.566506666666666 14.666666666666666 14.666666666666666 14.666666666666666 8.100266666666666 0 14.666666666666666 -6.5664 14.666666666666666 -14.666666666666666 0 -8.100159999999999 -6.5664 -14.666666666666666 -14.666666666666666 -14.666666666666666 -8.100159999999999 0 -14.666666666666666 6.566506666666666 -14.666666666666666 14.666666666666666Zm71.34037333333333 23.914773333333333c0 -5.890986666666667 -4.7754666666666665 -10.66656 -10.66656 -10.66656 -6.47328 0 -12.681493333333332 2.571413333333333 -17.25877333333333 7.1488 -4.57728 4.57728 -7.1488 10.785493333333331 -7.1488 17.25877333333333 0 7.38592 2.9339733333333333 14.469333333333333 8.156693333333333 19.691946666666666 5.222613333333333 5.222613333333333 12.306026666666668 8.156693333333333 19.691946666666666 8.156693333333333H244.96106666666665c5.8911999999999995 0 10.666666666666666 -4.7756799999999995 10.666666666666666 -10.666666666666666s-4.7754666666666665 -10.666666666666666 -10.666666666666666 -10.666666666666666H101.67370666666666c-1.728 0 -3.385173333333333 -0.6864 -4.60704 -1.9082666666666666 -1.2218666666666667 -1.2218666666666667 -1.9082666666666666 -2.87904 -1.9082666666666666 -4.60704 0 -0.8153599999999999 0.32384 -1.5973333333333333 0.9003733333333332 -2.1738666666666666 0.5765333333333333 -0.5765333333333333 1.3585066666666665 -0.9003733333333332 2.1738666666666666 -0.9003733333333332 5.891093333333332 0 10.66656 -4.7756799999999995 10.66656 -10.666773333333333ZM44.79989333333333 75.8848c0 -5.891093333333332 -4.775573333333333 -10.666666666666666 -10.666666666666666 -10.666666666666666 -8.95392 0 -17.541013333333332 3.5569066666666664 -23.872384 9.888213333333333 -6.331381333333333 6.331413333333334 -9.888283733333333 14.918613333333333 -9.888283733333333 23.872426666666662 0 10.484693333333333 4.165158399999999 20.541226666666667 11.5793344 27.95456 7.414079999999999 7.4144000000000005 17.46976 11.579733333333332 27.954879999999996 11.579733333333332H244.96106666666665c5.8911999999999995 0 10.666666666666666 -4.7754666666666665 10.666666666666666 -10.666666666666666s-4.7754666666666665 -10.666666666666666 -10.666666666666666 -10.666666666666666H39.906773333333334c-4.8271999999999995 0 -9.45664 -1.9178666666666664 -12.869973333333334 -5.3312 -3.413333333333333 -3.413333333333333 -5.33088 -8.04256 -5.33088 -12.86976 0 -3.295893333333333 1.3092266666666665 -6.456853333333333 3.639893333333333 -8.787413333333333 2.3305599999999997 -2.3306666666666667 5.4915199999999995 -3.639893333333333 8.787413333333333 -3.639893333333333 5.891093333333332 0 10.666666666666666 -4.7756799999999995 10.666666666666666 -10.666666666666666Zm200.16117333333332 82.29546666666667c5.8911999999999995 0 10.666666666666666 4.7754666666666665 10.666666666666666 10.666666666666666s-4.7754666666666665 10.666666666666666 -10.666666666666666 10.666666666666666H130.47786666666667c-6.209066666666666 0 -12.164266666666666 2.4672 -16.554666666666666 6.8576 -4.3904 4.3904 -6.8576 10.3456 -6.8576 16.554666666666666 0 2.1759999999999997 0.42879999999999996 4.330666666666667 1.2629333333333332 6.341333333333333 0.8330666666666666 2.0096 2.0554666666666668 3.8357333333333328 3.5957333333333334 5.373866666666666 1.5392000000000001 1.5370666666666666 3.367466666666666 2.756266666666667 5.379199999999999 3.586133333333333 2.011733333333333 0.8309333333333333 4.167466666666666 1.2565333333333333 6.343466666666666 1.2522666666666666 5.8911999999999995 -0.0096 10.674133333333332 4.7584 10.683733333333333 10.6496 0.0096 5.8911999999999995 -4.7584 10.674133333333332 -10.6496 10.683733333333333 -4.980266666666666 0.008533333333333334 -9.913599999999999 -0.9653333333333333 -14.517333333333333 -2.866133333333333 -4.604053333333333 -1.9007999999999998 -8.787946666666667 -4.690133333333333 -12.312639999999998 -8.209066666666665 -3.5246933333333335 -3.5189333333333335 -6.320853333333333 -7.698133333333333 -8.228693333333332 -12.298666666666666 -1.9078399999999998 -4.600533333333333 -2.88992 -9.5328 -2.889813333333333 -14.513066666666667 0 -11.867733333333334 4.714133333333333 -23.249066666666668 13.105493333333332 -31.639466666666667 8.391786666666667 -8.391466666666666 19.772053333333332 -13.106133333333332 31.639786666666666 -13.106133333333332h114.48319999999998Zm-240.98577066666667 10.666666666666666c0 8.100266666666666 6.566495999999999 14.666666666666666 14.666624 14.666666666666666 8.100266666666666 0 14.666666666666666 -6.5664 14.666666666666666 -14.666666666666666s-6.5664 -14.666666666666666 -14.666666666666666 -14.666666666666666c-8.100128 0 -14.666624 6.5664 -14.666624 14.666666666666666ZM182.2645333333333 195.1168c8.100266666666666 0 14.666666666666666 6.5664 14.666666666666666 14.666666666666666s-6.5664 14.666666666666666 -14.666666666666666 14.666666666666666 -14.666666666666666 -6.5664 -14.666666666666666 -14.666666666666666 6.5664 -14.666666666666666 14.666666666666666 -14.666666666666666Zm-123.37237333333333 5.662933333333333c0 -5.8911999999999995 -4.775573333333333 -10.666666666666666 -10.666666666666666 -10.666666666666666 -5.890986666666667 0 -10.666666666666666 4.7754666666666665 -10.666666666666666 10.666666666666666v2.3370666666666664h-2.337813333333333c-5.891093333333332 0 -10.666666666666666 4.776533333333333 -10.666666666666666 10.666666666666666 0 5.8911999999999995 4.775573333333333 10.666666666666666 10.666666666666666 10.666666666666666h2.337813333333333v2.3381333333333334c0 5.8911999999999995 4.7756799999999995 10.666666666666666 10.666666666666666 10.666666666666666 5.891093333333332 0 10.666666666666666 -4.7754666666666665 10.666666666666666 -10.666666666666666v-2.3381333333333334h2.33792c5.891093333333332 0 10.666666666666666 -4.7754666666666665 10.666666666666666 -10.666666666666666 0 -5.890133333333333 -4.775573333333333 -10.666666666666666 -10.666666666666666 -10.666666666666666h-2.33792v-2.3370666666666664Z" clip-rule="evenodd"/></svg>