<svg xmlns="http://www.w3.org/2000/svg" id="Blogger-Logo--Streamline-Ultimate" width="256" height="256" viewBox="0 0 256 256"><desc>Blogger Logo Streamline Icon: https://streamlinehq.com</desc><path fill="#fff" stroke-width="10.667" d="M252.95253333333335 109.93066666666665c-0.2432 -4.973866666666666 -2.7829333333333333 -9.553066666666666 -6.8736 -12.392533333333333l-1.2501333333333333 -1.2501333333333333c-3.1242666666666663 -2.4992 -8.0192 -2.7072000000000003 -16.4544 -2.9151999999999996 -5.3962666666666665 0.3466666666666667 -10.808533333333333 -0.3616 -15.933866666666667 -2.0831999999999997 -2.914133333333333 -4.6464 -4.4319999999999995 -10.033066666666667 -4.3744 -15.5168v-1.8752c-0.35946666666666666 -8.702933333333332 -2.485333333333333 -17.2416 -6.248533333333333 -25.098666666666666l-0.9365333333333333 -1.7695999999999998C187.63626666666667 23.21066666666667 164.16853333333333 6.810666666666666 137.24906666666666 2.5599999999999996H84.13653333333333C39.35466666666666 2.6176 3.0666666666666664 38.9056 3.0090666666666666 83.68746666666667v88.62506666666667c0 44.80746666666667 36.32106666666667 81.1296 81.12746666666666 81.12746666666666h87.168c44.873599999999996 0.05866666666666666 81.36106666666666 -36.1504 81.648 -81.02293333333333v-61.444266666666664c0.051199999999999996 -0.34559999999999996 0.051199999999999996 -0.6965333333333332 0 -1.0421333333333331ZM86.3232 65.04533333333333h41.6576c16.034133333333333 0.03626666666666666 26.016 17.416533333333334 17.96693333333333 31.284266666666667 -3.7184 6.4064 -10.558933333333332 10.356266666666667 -17.96693333333333 10.373333333333333H86.3232C70.29013333333333 106.66666666666666 60.30826666666667 89.28639999999999 68.35626666666667 75.41866666666667c3.7184 -6.4064 10.559999999999999 -10.356266666666667 17.96693333333333 -10.373333333333333Zm83.3152 124.97173333333333H86.3232c-16.033066666666667 -0.03626666666666666 -26.01493333333333 -17.416533333333334 -17.96693333333333 -31.283199999999997 3.7184 -6.407466666666666 10.559999999999999 -10.357333333333333 17.96693333333333 -10.3744h83.3152c16.033066666666667 0.03626666666666666 26.01493333333333 17.416533333333334 17.96693333333333 31.284266666666667 -3.7184 6.4064 -10.559999999999999 10.356266666666667 -17.96693333333333 10.373333333333333Z"/></svg>