<svg xmlns="http://www.w3.org/2000/svg" viewBox="0 0 256 256" id="Blood-Drop--Streamline-Ultimate" height="256" width="256">
  <desc>
    Blood Drop Streamline Icon: https://streamlinehq.com
  </desc>
  <path d="M136.95999999999998 4.8a10.666666666666666 10.666666666666666 0 0 0 -17.919999999999998 0C118.29333333333332 5.973333333333334 42.666666666666664 125.12 42.666666666666664 170.66666666666666a85.33333333333333 85.33333333333333 0 0 0 170.66666666666666 0C213.33333333333331 125.22666666666666 137.70666666666665 5.973333333333334 136.95999999999998 4.8ZM128 226.55999999999997A56.10666666666666 56.10666666666666 0 0 1 72 170.66666666666666a8 8 0 0 1 16 0A40.10666666666666 40.10666666666666 0 0 0 128 210.55999999999997a8 8 0 0 1 0 16Z" fill="#ffffff" stroke-width="10.6667"></path>
</svg>