<svg xmlns="http://www.w3.org/2000/svg" id="Blood-Bag-Cross--Streamline-Ultimate" width="256" height="256" fill="none" viewBox="0 0 256 256"><desc>Blood Bag Cross Streamline Icon: https://streamlinehq.com</desc><path fill="#fff" fill-rule="evenodd" stroke-width="10.667" d="M63.690666666666665 16.27733333333333A48.256 48.256 0 0 1 97.81333333333333 2.144h60.373333333333335a48.256 48.256 0 0 1 48.256 48.256v100.62933333333332a48.24533333333333 48.24533333333333 0 0 1 -40.256 47.584v12.799999999999999a8 8 0 0 1 -8 8H138.66666666666666v25.333333333333332a10.666666666666666 10.666666666666666 0 0 1 -21.333333333333332 0V219.41333333333333H97.81333333333333a8 8 0 0 1 -8 -8v-12.799999999999999a48.256 48.256 0 0 1 -40.256 -47.57333333333333V50.38933333333333c0 -12.799999999999999 5.087999999999999 -25.066666666666666 14.133333333333333 -34.12266666666666Zm50.72 39.647999999999996h29.365333333333332a5.333333333333333 5.333333333333333 0 0 1 5.333333333333333 5.333333333333333v22.592l21.493333333333332 0a5.333333333333333 5.333333333333333 0 0 1 5.333333333333333 5.333333333333333v29.365333333333332a5.333333333333333 5.333333333333333 0 0 1 -5.333333333333333 5.333333333333333H149.12v22.592a5.333333333333333 5.333333333333333 0 0 1 -5.333333333333333 5.333333333333333h-29.365333333333332a5.333333333333333 5.333333333333333 0 0 1 -5.333333333333333 -5.333333333333333l0 -22.592 -23.68 0a5.333333333333333 5.333333333333333 0 0 1 -5.333333333333333 -5.333333333333333l0 -29.365333333333332a5.333333333333333 5.333333333333333 0 0 1 5.333333333333333 -5.333333333333333h23.68l0 -22.592a5.333333333333333 5.333333333333333 0 0 1 5.333333333333333 -5.333333333333333Z" clip-rule="evenodd"/></svg>