<svg xmlns="http://www.w3.org/2000/svg" fill="none" viewBox="0 0 256 256" id="Blood-Types-1--Streamline-Ultimate" height="256" width="256">
  <desc>
    Blood Types 1 Streamline Icon: https://streamlinehq.com
  </desc>
  <path fill="#ffffff" fill-rule="evenodd" d="M237.97119999999998 146.9888c11.543466666666667 -10.7808 18.029866666666663 -25.402666666666665 18.029866666666663 -40.64949333333333C256.00106666666665 57.48768 203.2757333333333 0 194.44266666666664 0c-7.307733333333333 0 -44.657066666666665 39.347413333333336 -57.33866666666666 80.59935999999999 15.077333333333332 21.7744 30.246399999999998 50.26464 35.0304 79.31957333333332 7.046399999999999 2.558933333333333 14.602666666666666 3.9082666666666666 22.30826666666667 3.9082666666666666 16.3264 0 31.983999999999998 -6.056533333333332 43.52853333333333 -16.8384Zm-70.69226666666665 -53.749226666666665c0 -4.41824 3.5818666666666665 -8 8 -8h37.01226666666666c4.4181333333333335 0 8 3.5817599999999996 8 8s-3.5818666666666665 8 -8 8h-37.01226666666666c-4.4181333333333335 0 -8 -3.5817599999999996 -8 -8Zm-9.6 84.86922666666666c0 19.0144 -8.088533333333332 37.2512 -22.486399999999996 50.69653333333333 -14.397866666666667 13.446399999999999 -33.92522666666666 20.999466666666663 -54.28672 20.999466666666663 -20.361493333333332 0 -39.88896 -7.553066666666666 -54.28672 -20.999466666666663C12.221333333333334 215.36 4.132810666666666 197.1232 4.132810666666666 178.1088c0 -60.925866666666664 65.756256 -132.62314666666666 76.77300266666666 -132.62314666666666S157.67893333333333 117.18293333333334 157.67893333333333 178.1088ZM88.90624 138.92266666666666c0 -4.4181333333333335 -3.5817599999999996 -8 -8 -8s-8 3.5818666666666665 -8 8v22.46613333333333H50.43488c-4.41824 0 -8 3.5818666666666665 -8 8 0 4.4192 3.5817599999999996 8 8 8h22.471359999999997v22.4768c0 4.4181333333333335 3.5817599999999996 8 8 8s8 -3.5818666666666665 8 -8v-22.4768h22.470826666666667c4.4181333333333335 0 8 -3.5808 8 -8 0 -4.4181333333333335 -3.5818666666666665 -8 -8 -8H88.90624V138.92266666666666Z" clip-rule="evenodd" stroke-width="10.6667"></path>
</svg>