<svg xmlns="http://www.w3.org/2000/svg" fill="none" viewBox="0 0 256 256" id="Blueprint-Helmet-1--Streamline-Ultimate" height="256" width="256">
  <desc>
    Blueprint Helmet 1 Streamline Icon: https://streamlinehq.com
  </desc>
  <path fill="#ffffff" fill-rule="evenodd" d="M253.44 26.123733333333334c0 -10.669866666666666 -8.535466666666666 -19.2064 -19.2064 -19.2064h-8.535466666666666c-6.402133333333333 0 -10.669866666666666 4.2688 -10.669866666666666 10.670933333333332v117.36853333333332c0 6.402133333333333 4.267733333333333 10.669866666666666 10.669866666666666 10.669866666666666h8.535466666666666c10.669866666666666 0 19.2064 8.536533333333333 19.2064 19.2064V26.123733333333334Zm-54.41706666666667 106.67733333333332V18.63253333333333H104.05973333333333c-6.402133333333333 0 -10.670933333333332 4.2688 -10.670933333333332 10.670933333333332v65.19466666666666c0.5269333333333333 -0.027733333333333332 1.0538666666666665 -0.0416 1.5797333333333334 -0.0416h10.669866666666666c6.8384 0 13.780266666666666 2.3487999999999998 19.052799999999998 7.6224 3.264 3.2629333333333332 5.406933333333333 7.1648 6.5664 11.285333333333334 26.295466666666663 9.3184 47.017599999999995 29.889066666666665 56.60373333333334 55.58186666666666h46.37226666666667c1.4752 0 2.9077333333333333 -0.16213333333333332 4.283733333333333 -0.4714666666666667 -0.6997333333333333 -1.7984 -1.0826666666666667 -3.752533333333333 -1.0826666666666667 -5.797333333333333 0 -1.8304 -1.3706666666666667 -3.2010666666666663 -3.2010666666666663 -3.2010666666666663h-8.535466666666666c-6.8384 0 -13.780266666666666 -2.3498666666666663 -19.053866666666664 -7.6224 -5.271466666666666 -5.2725333333333335 -7.621333333333333 -12.215466666666666 -7.621333333333333 -19.052799999999998Zm-12.474666666666666 116.2816c6.8992 0 11.499733333333333 -4.600533333333333 11.499733333333333 -11.499733333333333v-11.498666666666667c0 -6.900266666666667 -4.600533333333333 -11.5008 -11.499733333333333 -11.5008H14.059733333333334c-6.900266666666667 0 -11.499733333333333 4.600533333333333 -11.499733333333333 11.5008v11.498666666666667c0 6.8992 4.599466666666666 11.499733333333333 11.499733333333333 11.499733333333333h172.48853333333332ZM84.29866666666666 121.13173333333333V198.4h32.0096v-77.26826666666666c0 -6.402133333333333 -4.267733333333333 -10.669866666666666 -10.669866666666666 -10.669866666666666H94.96853333333333c-6.402133333333333 0 -10.669866666666666 4.267733333333333 -10.669866666666666 10.669866666666666ZM68.29333333333332 198.4l0.0010666666666666667 0.17919999999999997H22.989866666666664c0.9962666666666666 -29.618133333333333 19.105066666666666 -55.53706666666666 45.303466666666665 -67.53386666666665V198.4Zm109.3248 0.17919999999999997h-45.3056l0.0010666666666666667 -0.17919999999999997v-67.35466666666666c26.199466666666666 11.9968 44.3072 37.915733333333336 45.30453333333333 67.53386666666665Z" clip-rule="evenodd" stroke-width="10.6667"></path>
</svg>