<svg xmlns="http://www.w3.org/2000/svg" viewBox="0 0 256 256" id="Bluetooth-Transfer--Streamline-Ultimate" height="256" width="256">
  <desc>
    Bluetooth Transfer Streamline Icon: https://streamlinehq.com
  </desc>
  <g id="Bluetooth-Transfer--Streamline-Ultimate.svg">
    <path d="M149.33333333333331 129.92a2.88 2.88 0 0 1 -0.8533333333333333 -2.0266666666666664 2.6666666666666665 2.6666666666666665 0 0 1 0.8533333333333333 -1.92l49.06666666666666 -45.01333333333333a16.32 16.32 0 0 0 5.226666666666667 -11.52 16.21333333333333 16.21333333333333 0 0 0 -4.8 -11.626666666666667L147.30666666666667 6.72a16 16 0 0 0 -27.306666666666665 11.413333333333334v78.82666666666665a2.6666666666666665 2.6666666666666665 0 0 1 -1.5999999999999999 2.453333333333333 2.6666666666666665 2.6666666666666665 0 0 1 -2.88 -0.5333333333333333l-52.266666666666666 -48.10666666666666a10.666666666666666 10.666666666666666 0 0 0 -14.506666666666668 15.786666666666665l64.74666666666667 59.413333333333334a2.6666666666666665 2.6666666666666665 0 0 1 0.8533333333333333 1.92 2.88 2.88 0 0 1 -0.8533333333333333 2.0266666666666664l-64.96 59.519999999999996a10.666666666666666 10.666666666666666 0 0 0 14.4 15.786666666666665l52.58666666666666 -48.32a2.7733333333333334 2.7733333333333334 0 0 1 2.88 0 2.6666666666666665 2.6666666666666665 0 0 1 1.5999999999999999 2.453333333333333v78.93333333333334a16.106666666666666 16.106666666666666 0 0 0 9.813333333333333 14.826666666666664 18.133333333333333 18.133333333333333 0 0 0 6.186666666666666 1.1733333333333333 16.21333333333333 16.21333333333333 0 0 0 11.306666666666667 -4.586666666666666l51.413333333333334 -51.093333333333334a15.893333333333333 15.893333333333333 0 0 0 0 -23.146666666666665Zm-8 -92.58666666666666a2.6666666666666665 2.6666666666666665 0 0 1 1.5999999999999999 -2.453333333333333 2.7733333333333334 2.7733333333333334 0 0 1 2.986666666666667 0l32 32a2.5599999999999996 2.5599999999999996 0 0 1 0.7466666666666667 1.92 2.6666666666666665 2.6666666666666665 0 0 1 -0.8533333333333333 1.92l-32 29.226666666666667a2.6666666666666665 2.6666666666666665 0 0 1 -2.88 0 2.6666666666666665 2.6666666666666665 0 0 1 -1.5999999999999999 -2.453333333333333Zm4.586666666666666 183.25333333333333a2.7733333333333334 2.7733333333333334 0 0 1 -2.986666666666667 0.5333333333333333 2.6666666666666665 2.6666666666666665 0 0 1 -1.5999999999999999 -2.453333333333333v-61.01333333333333a2.6666666666666665 2.6666666666666665 0 0 1 1.5999999999999999 -2.453333333333333 2.6666666666666665 2.6666666666666665 0 0 1 2.88 0l32 29.333333333333332a2.6666666666666665 2.6666666666666665 0 0 1 0.8533333333333333 1.92 2.5599999999999996 2.5599999999999996 0 0 1 -0.7466666666666667 1.92Z" fill="#ffffff" stroke-width="10.6667"></path>
    <path d="m195.1574446368 123.16310927573332 17.875659428266665 -17.875659428266665s4.902607016533333 -4.902607015466666 9.805214033066665 0l17.875659428266665 17.875659428266665s4.902607015466666 4.902607016533333 0 9.805214033066665l-17.875659428266665 17.875659428266665s-4.902607016533333 4.902607016533333 -9.805214033066665 0l-17.875659428266665 -17.875659428266665s-4.902607016533333 -4.902607016533333 0 -9.805214033066665" fill="#ffffff" stroke-width="10.6667"></path>
    <path d="m15.373452498133332 123.1071014144 17.875659428266665 -17.875659428266665s4.902607016533333 -4.902607016533333 9.805214033066665 0L60.929985386666665 123.1071014144s4.902607015466666 4.902607016533333 0 9.805214033066665l-17.875659428266665 17.875659428266665s-4.902607016533333 4.902607016533333 -9.805214033066665 0l-17.875659428266665 -17.875659428266665s-4.902607016533333 -4.902607016533333 0 -9.805214033066665" fill="#ffffff" stroke-width="10.6667"></path>
  </g>
</svg>