<svg xmlns="http://www.w3.org/2000/svg" viewBox="0 0 256 256" id="Board-Game-Jenga--Streamline-Ultimate" height="256" width="256">
  <desc>
    Board Game Jenga Streamline Icon: https://streamlinehq.com
  </desc>
  <g id="Board-Game-Jenga--Streamline-Ultimate.svg">
    <path d="M10.666666666666666 213.33333333333331h21.333333333333332s10.666666666666666 0 10.666666666666666 10.666666666666666v21.333333333333332s0 10.666666666666666 -10.666666666666666 10.666666666666666H10.666666666666666s-10.666666666666666 0 -10.666666666666666 -10.666666666666666v-21.333333333333332s0 -10.666666666666666 10.666666666666666 -10.666666666666666" fill="#ffffff" stroke-width="10.6667"></path>
    <path d="M106.66666666666666 213.33333333333331h32s10.666666666666666 0 10.666666666666666 10.666666666666666v21.333333333333332s0 10.666666666666666 -10.666666666666666 10.666666666666666h-32s-10.666666666666666 0 -10.666666666666666 -10.666666666666666v-21.333333333333332s0 -10.666666666666666 10.666666666666666 -10.666666666666666" fill="#ffffff" stroke-width="10.6667"></path>
    <path d="M53.33333333333333 106.66666666666666h32s10.666666666666666 0 10.666666666666666 10.666666666666666v21.333333333333332s0 10.666666666666666 -10.666666666666666 10.666666666666666H53.33333333333333s-10.666666666666666 0 -10.666666666666666 -10.666666666666666v-21.333333333333332s0 -10.666666666666666 10.666666666666666 -10.666666666666666" fill="#ffffff" stroke-width="10.6667"></path>
    <path d="M42.666666666666664 0h32s10.666666666666666 0 10.666666666666666 10.666666666666666v21.333333333333332s0 10.666666666666666 -10.666666666666666 10.666666666666666H42.666666666666664S32 42.666666666666664 32 32V10.666666666666666s0 -10.666666666666666 10.666666666666666 -10.666666666666666" fill="#ffffff" stroke-width="10.6667"></path>
    <path d="M106.66666666666666 0h32s10.666666666666666 0 10.666666666666666 10.666666666666666v21.333333333333332s0 10.666666666666666 -10.666666666666666 10.666666666666666h-32S96 42.666666666666664 96 32V10.666666666666666s0 -10.666666666666666 10.666666666666666 -10.666666666666666" fill="#ffffff" stroke-width="10.6667"></path>
    <path d="M10.666666666666666 160h128s10.666666666666666 0 10.666666666666666 10.666666666666666v21.333333333333332s0 10.666666666666666 -10.666666666666666 10.666666666666666H10.666666666666666s-10.666666666666666 0 -10.666666666666666 -10.666666666666666v-21.333333333333332s0 -10.666666666666666 10.666666666666666 -10.666666666666666" fill="#ffffff" stroke-width="10.6667"></path>
    <path d="M10.666666666666666 53.33333333333333h128s10.666666666666666 0 10.666666666666666 10.666666666666666v21.333333333333332s0 10.666666666666666 -10.666666666666666 10.666666666666666H10.666666666666666S0 96 0 85.33333333333333V64s0 -10.666666666666666 10.666666666666666 -10.666666666666666" fill="#ffffff" stroke-width="10.6667"></path>
    <path d="m254.4 228.48000000000002 -64.74666666666667 -104.21333333333332a10.666666666666666 10.666666666666666 0 0 0 -14.719999999999999 -3.413333333333333l-18.133333333333333 11.2a10.666666666666666 10.666666666666666 0 0 0 -4.693333333333333 6.613333333333333 10.666666666666666 10.666666666666666 0 0 0 1.2799999999999998 8.106666666666666l64.74666666666667 104.21333333333332a10.666666666666666 10.666666666666666 0 0 0 14.719999999999999 3.413333333333333l18.133333333333333 -11.306666666666667a10.666666666666666 10.666666666666666 0 0 0 3.413333333333333 -14.613333333333333Z" fill="#ffffff" stroke-width="10.6667"></path>
  </g>
</svg>