<svg xmlns="http://www.w3.org/2000/svg" viewBox="0 0 256 256" id="Board-Game-Dice-2--Streamline-Ultimate" height="256" width="256">
  <desc>
    Board Game Dice 2 Streamline Icon: https://streamlinehq.com
  </desc>
  <g id="Board-Game-Dice-2--Streamline-Ultimate.svg">
    <path d="M234.66666666666666 165.33333333333331h-48a10.666666666666666 10.666666666666666 0 0 1 0 -21.333333333333332h45.33333333333333a2.6666666666666665 2.6666666666666665 0 0 0 2.6666666666666665 -2.6666666666666665v-117.33333333333333a2.6666666666666665 2.6666666666666665 0 0 0 -2.6666666666666665 -2.6666666666666665h-112a2.6666666666666665 2.6666666666666665 0 0 0 -2.6666666666666665 2.6666666666666665V69.33333333333333a10.666666666666666 10.666666666666666 0 0 1 -21.333333333333332 0V21.333333333333332a21.333333333333332 21.333333333333332 0 0 1 21.333333333333332 -21.333333333333332h117.33333333333333a21.333333333333332 21.333333333333332 0 0 1 21.333333333333332 21.333333333333332v122.66666666666666a21.333333333333332 21.333333333333332 0 0 1 -21.333333333333332 21.333333333333332Z" fill="#ffffff" stroke-width="10.6667"></path>
    <path d="M192 112a10.666666666666666 10.666666666666666 0 1 0 21.333333333333332 0 10.666666666666666 10.666666666666666 0 1 0 -21.333333333333332 0" fill="#ffffff" stroke-width="10.6667"></path>
    <path d="M192 53.33333333333333a10.666666666666666 10.666666666666666 0 1 0 21.333333333333332 0 10.666666666666666 10.666666666666666 0 1 0 -21.333333333333332 0" fill="#ffffff" stroke-width="10.6667"></path>
    <path d="M144 53.33333333333333a10.666666666666666 10.666666666666666 0 1 0 21.333333333333332 0 10.666666666666666 10.666666666666666 0 1 0 -21.333333333333332 0" fill="#ffffff" stroke-width="10.6667"></path>
    <path d="M144 96h-128A16 16 0 0 0 0 112v128A16 16 0 0 0 16 256h128a16 16 0 0 0 16 -16v-128A16 16 0 0 0 144 96Zm-106.66666666666666 117.33333333333333a10.666666666666666 10.666666666666666 0 1 1 10.666666666666666 -10.666666666666666 10.666666666666666 10.666666666666666 0 0 1 -10.666666666666666 10.666666666666666Zm0 -53.33333333333333a10.666666666666666 10.666666666666666 0 1 1 10.666666666666666 -10.666666666666666 10.666666666666666 10.666666666666666 0 0 1 -10.666666666666666 10.666666666666666Zm42.666666666666664 53.33333333333333a10.666666666666666 10.666666666666666 0 1 1 10.666666666666666 -10.666666666666666 10.666666666666666 10.666666666666666 0 0 1 -10.666666666666666 10.666666666666666Zm0 -53.33333333333333a10.666666666666666 10.666666666666666 0 1 1 10.666666666666666 -10.666666666666666 10.666666666666666 10.666666666666666 0 0 1 -10.666666666666666 10.666666666666666Zm42.666666666666664 53.33333333333333a10.666666666666666 10.666666666666666 0 1 1 10.666666666666666 -10.666666666666666 10.666666666666666 10.666666666666666 0 0 1 -10.666666666666666 10.666666666666666Zm0 -53.33333333333333a10.666666666666666 10.666666666666666 0 1 1 10.666666666666666 -10.666666666666666 10.666666666666666 10.666666666666666 0 0 1 -10.666666666666666 10.666666666666666Z" fill="#ffffff" stroke-width="10.6667"></path>
  </g>
</svg>