<svg xmlns="http://www.w3.org/2000/svg" id="Body-Care-Cream--Streamline-Ultimate" width="256" height="256" viewBox="0 0 256 256"><desc>Body Care Cream Streamline Icon: https://streamlinehq.com</desc><g id="Body-Care-Cream--Streamline-Ultimate.svg"><path fill="#fff" stroke-width="10.667" d="M64 96h129.17333333333332a5.4399999999999995 5.4399999999999995 0 0 0 4.16 -2.0266666666666664c19.52 -24.426666666666666 21.333333333333332 -54.08 4.693333333333333 -88.10666666666665a10.666666666666666 10.666666666666666 0 0 0 -8.64 -5.866666666666667 9.706666666666667 9.706666666666667 0 0 0 -9.28 4.8c-8.426666666666666 13.12 -19.2 26.026666666666664 -50.45333333333333 26.026666666666664 -73.81333333333333 0 -74.66666666666666 59.30666666666666 -74.66666666666666 59.84A5.333333333333333 5.333333333333333 0 0 0 64 96Z"/><path fill="#fff" stroke-width="10.667" d="M245.33333333333331 152H10.666666666666666a10.666666666666666 10.666666666666666 0 0 0 -10.666666666666666 10.666666666666666v66.66666666666666A26.666666666666664 26.666666666666664 0 0 0 26.666666666666664 256h202.66666666666666a26.666666666666664 26.666666666666664 0 0 0 26.666666666666664 -26.666666666666664v-66.66666666666666a10.666666666666666 10.666666666666666 0 0 0 -10.666666666666666 -10.666666666666666Zm-32 66.66666666666666a5.333333333333333 5.333333333333333 0 0 1 -5.333333333333333 5.333333333333333h-160a5.333333333333333 5.333333333333333 0 0 1 -5.333333333333333 -5.333333333333333v-29.333333333333332a5.333333333333333 5.333333333333333 0 0 1 5.333333333333333 -5.333333333333333h160a5.333333333333333 5.333333333333333 0 0 1 5.333333333333333 5.333333333333333Z"/><path fill="#fff" stroke-width="10.667" d="M34.773333333333326 138.66666666666666h186.45333333333332a5.4399999999999995 5.4399999999999995 0 0 0 4.266666666666667 -8.533333333333333c-5.866666666666667 -7.786666666666666 -15.04 -20.479999999999997 -25.493333333333332 -20.479999999999997H56c-10.666666666666666 0 -19.626666666666665 12.693333333333332 -25.493333333333332 20.479999999999997a5.4399999999999995 5.4399999999999995 0 0 0 4.266666666666667 8.533333333333333Z"/></g></svg>