<svg xmlns="http://www.w3.org/2000/svg" id="Book-Cog-2--Streamline-Ultimate" width="256" height="256" fill="none" viewBox="0 0 256 256"><desc>Book Cog 2 Streamline Icon: https://streamlinehq.com</desc><path fill="#fff" fill-rule="evenodd" stroke-width="10.667" d="M47.178666666666665 2.453333333333333A31.242666666666665 31.242666666666665 0 0 0 16 33.65333333333333v189.73866666666666c0 1.408 0.2773333333333333 2.752 0.7679999999999999 3.989333333333333 3.285333333333333 14.869333333333332 16.682666666666666 26.16533333333333 32.458666666666666 26.16533333333333h162.05866666666665l0.032 0h14.325333333333333a10.666666666666666 10.666666666666666 0 1 0 0 -21.333333333333332h-3.690666666666666v-26.176000000000002c8.959999999999999 -4.16 15.381333333333332 -13.333333333333332 15.381333333333332 -23.66933333333333V28.512c0 -14.090666666666666 -11.946666666666667 -26.048000000000002 -26.048000000000002 -26.048000000000002H47.178666666666665Zm2.048 229.76A12.095999999999998 12.095999999999998 0 0 1 37.33333333333333 220.29866666666663c0 -6.421333333333333 5.482666666666667 -11.904 11.893333333333333 -11.904l151.392 0v23.79733333333333H49.22666666666667Zm90.79466666666667 -194.19733333333332 5.087999999999999 15.264c1.2799999999999998 5.087999999999999 7.637333333333332 8.906666666666666 12.725333333333333 7.637333333333332l15.264 -3.818666666666666c13.994666666666667 -2.5493333333333332 22.90133333333333 12.725333333333333 13.994666666666667 22.90133333333333l-11.445333333333332 11.445333333333332a9.984 9.984 0 0 0 0 13.994666666666667l11.445333333333332 11.456c8.906666666666666 10.175999999999998 0 26.709333333333333 -13.994666666666667 22.890666666666664l-15.253333333333332 -1.2693333333333332c-5.0986666666666665 -1.2799999999999998 -11.456 1.2799999999999998 -12.735999999999999 7.637333333333332l-5.087999999999999 15.264a13.749333333333333 13.749333333333333 0 0 1 -26.709333333333333 0l-5.087999999999999 -15.264c-1.2799999999999998 -5.087999999999999 -7.637333333333332 -8.906666666666666 -12.725333333333333 -7.637333333333332l-15.264 3.818666666666666c-13.994666666666667 2.5493333333333332 -22.90133333333333 -12.725333333333333 -13.994666666666667 -22.90133333333333l11.445333333333332 -11.445333333333332a9.984 9.984 0 0 0 0 -13.994666666666667L67.52 80c-8.906666666666666 -10.175999999999998 0 -26.72 13.994666666666667 -22.90133333333333l15.264 3.818666666666666c5.087999999999999 1.2799999999999998 11.456 -1.2799999999999998 12.725333333333333 -7.637333333333332l5.087999999999999 -15.264c2.5386666666666664 -13.994666666666667 21.621333333333332 -13.994666666666667 25.439999999999998 0Zm5.728 61.696a19.082666666666665 19.082666666666665 0 1 1 -38.16533333333333 0 19.082666666666665 19.082666666666665 0 0 1 38.16533333333333 0Z" clip-rule="evenodd"/></svg>