<svg xmlns="http://www.w3.org/2000/svg" viewBox="0 0 256 256" id="Book-Book-Pages--Streamline-Ultimate" height="256" width="256">
  <desc>
    Book Book Pages Streamline Icon: https://streamlinehq.com
  </desc>
  <path d="M201.38666666666666 0H46.93333333333334a16.426666666666666 16.426666666666666 0 0 0 -13.653333333333332 16.746666666666666v186.45333333333332a18.453333333333333 18.453333333333333 0 0 0 11.84 17.28l85.33333333333333 34.13333333333333a19.093333333333334 19.093333333333334 0 0 0 17.493333333333332 -1.8133333333333335 18.666666666666664 18.666666666666664 0 0 0 8.106666666666666 -15.466666666666665v-181.33333333333331a18.666666666666664 18.666666666666664 0 0 0 -11.733333333333334 -17.386666666666663l-30.613333333333333 -12.159999999999998a2.6666666666666665 2.6666666666666665 0 0 1 -1.5999999999999999 -2.986666666666667 2.7733333333333334 2.7733333333333334 0 0 1 2.6666666666666665 -2.1333333333333333h83.84a2.7733333333333334 2.7733333333333334 0 0 1 2.7733333333333334 2.6666666666666665v175.67999999999998a2.7733333333333334 2.7733333333333334 0 0 1 -2.7733333333333334 2.6666666666666665h-18.56a10.666666666666666 10.666666666666666 0 1 0 0 21.333333333333332h21.333333333333332a21.333333333333332 21.333333333333332 0 0 0 21.333333333333332 -21.333333333333332V21.333333333333332a21.333333333333332 21.333333333333332 0 0 0 -21.333333333333332 -21.333333333333332Z" fill="#ffffff" stroke-width="10.6667"></path>
</svg>