<svg xmlns="http://www.w3.org/2000/svg" id="Bookmark-Cancel-Delete--Streamline-Ultimate" width="256" height="256" fill="none" viewBox="0 0 256 256"><desc>Bookmark Cancel Delete Streamline Icon: https://streamlinehq.com</desc><path fill="#fff" fill-rule="evenodd" stroke-width="10.667" d="M208.53226666666666 160.32853333333333V37.240853333333334c0 -12.951360000000001 -9.980799999999999 -22.933546666666665 -22.93333333333333 -22.933546666666665H69.33258666666666c-12.951786666666665 0 -22.93333333333333 9.982186666666667 -22.93333333333333 22.933546666666665v10.173333333333332L18.514133333333334 27.994239999999998c-4.834133333333333 -3.36672 -11.482335999999998 -2.17696 -14.849013333333334 2.65728 -3.3666986666666667 4.834133333333333 -2.177024 11.482346666666666 2.657205333333333 14.849066666666666L237.48479999999998 206.48853333333332c4.834133333333333 3.3663999999999996 11.482666666666667 2.1770666666666667 14.849066666666666 -2.6570666666666662 3.3663999999999996 -4.834133333333333 2.1770666666666667 -11.482666666666667 -2.6570666666666662 -14.849066666666666l-41.14453333333333 -28.653866666666666ZM51.820053333333334 103.71765333333333c-2.672746666666667 1.36832 -4.354133333333333 4.11808 -4.354133333333333 7.120746666666666v115.20106666666666c0 6.090666666666666 3.1745066666666664 11.250133333333332 8.123733333333334 13.869866666666667 4.852586666666666 2.568533333333333 10.765546666666665 2.3658666666666663 15.725546666666666 -0.6101333333333333 0.16352 -0.09813333333333332 0.32341333333333333 -0.20266666666666666 0.4794666666666666 -0.31146666666666667l56.20426666666666 -39.44213333333333 56.20479999999999 39.44213333333333c0.15573333333333333 0.10880000000000001 0.3157333333333333 0.21333333333333332 0.48 0.31146666666666667 4.96 2.976 10.872533333333333 3.1786666666666665 15.724799999999998 0.6101333333333333 4.949333333333334 -2.6197333333333335 8.123733333333334 -7.7791999999999994 8.123733333333334 -13.869866666666667v-10.666666666666666c0 -2.5717333333333334 -1.2362666666666666 -4.987733333333333 -3.3226666666666667 -6.490666666666667l-145.06666666666666 -104.53407999999999c-2.43616 -1.7554133333333333 -5.650133333333333 -1.9988266666666665 -8.32288 -0.6304Z" clip-rule="evenodd"/></svg>