<svg xmlns="http://www.w3.org/2000/svg" id="Book-Search--Streamline-Ultimate" width="256" height="256" viewBox="0 0 256 256"><desc>Book Search Streamline Icon: https://streamlinehq.com</desc><g id="Book-Search--Streamline-Ultimate.svg"><path fill="#fff" stroke-width="10.667" d="M242.49706666666668 249.8688c4.114133333333333 -4.08 4.114133333333333 -10.731733333333333 0 -14.811733333333333l-24.929066666666664 -23.885866666666665c-1.6703999999999999 -1.7045333333333332 -1.9711999999999998 -4.3242666666666665 -0.7296 -6.362666666666667 5.2821333333333325 -8.861866666666666 8.058666666666666 -18.993066666666664 8.030933333333333 -29.309866666666665 0 -44.4032 -48.0672 -72.15466666666666 -86.52159999999999 -49.95306666666666 -38.45333333333333 22.2016 -38.45333333333333 77.70453333333333 0 99.90613333333332 8.770133333333334 5.063466666666667 18.714666666666666 7.728 28.840533333333333 7.728 10.317866666666667 0.026666666666666665 20.448 -2.7487999999999997 29.309866666666665 -8.032 2.0383999999999998 -1.2405333333333333 4.6592 -0.9397333333333333 6.362666666666667 0.7306666666666667l24.407466666666664 24.51093333333333c4.270933333333333 4.265599999999999 11.259733333333333 4.026666666666666 15.2288 -0.5205333333333333ZM167.6053333333333 211.79733333333334c-28.343466666666664 0.0010666666666666667 -46.05866666666666 -30.681599999999996 -31.88693333333333 -55.22879999999999 14.170666666666666 -24.547199999999997 49.6 -24.548266666666667 63.77386666666666 -0.0031999999999999997 3.2319999999999998 5.5978666666666665 4.933333333333334 11.947733333333334 4.933333333333334 18.41173333333333 -0.0576 20.474666666666664 -16.762666666666664 36.993066666666664 -37.23733333333333 36.82026666666667Z"/><path fill="#fff" stroke-width="10.667" d="M161.6608 249.76426666666669c-0.042666666666666665 -1.2864 -1.0175999999999998 -2.3498666666666663 -2.2954666666666665 -2.5034666666666663 -56.205866666666665 -2.8906666666666667 -88.20586666666665 -65.54239999999999 -57.59893333333333 -112.77226666666667 14.2048 -21.92 39.024 -34.59733333333333 65.10933333333332 -33.25546666666666 15.367466666666667 -0.039466666666666664 30.346666666666668 4.820266666666667 42.764799999999994 13.873066666666666 0.8330666666666666 0.5066666666666666 1.8794666666666666 0.5066666666666666 2.7125333333333335 0 0.896 -0.4106666666666666 1.4677333333333333 -1.3098666666666667 1.4602666666666666 -2.2954666666666665V65.14346666666665c0.20266666666666666 -10.071466666666666 -6.8191999999999995 -18.849066666666666 -16.689066666666665 -20.860799999999998 -2.4288 -0.496 -4.1728 -2.632533333333333 -4.1728 -5.111466666666667V23.4208c0 -11.521066666666666 -9.338666666666665 -20.860799999999998 -20.860799999999998 -20.860799999999998H41.7088C24.426666666666666 2.5599999999999996 10.417066666666667 16.569599999999998 10.417066666666667 33.85173333333333v187.74933333333334c0 17.2832 14.009599999999999 31.2928 31.291733333333333 31.291733333333333h117.344c1.44 0 2.6079999999999997 -1.1669333333333332 2.6079999999999997 -2.606933333333333ZM31.27893333333333 33.85173333333333c0 -5.761066666666666 4.669866666666667 -10.430933333333332 10.429866666666666 -10.430933333333332h127.77493333333332c1.44 0 2.606933333333333 1.168 2.606933333333333 2.6079999999999997V41.67466666666667c0 1.44 -1.1669333333333332 2.6079999999999997 -2.606933333333333 2.6079999999999997H41.7088c-5.761066666666666 0 -10.429866666666666 -4.669866666666667 -10.429866666666666 -10.430933333333332Z"/></g></svg>