<svg xmlns="http://www.w3.org/2000/svg" id="Book-Star--Streamline-Ultimate" width="256" height="256" viewBox="0 0 256 256"><desc>Book Star Streamline Icon: https://streamlinehq.com</desc><path fill="#fff" stroke-width="10.667" d="M214.9333333333333 42.666666666666664a5.333333333333333 5.333333333333333 0 0 1 -4.266666666666667 -5.226666666666667V21.333333333333332a21.333333333333332 21.333333333333332 0 0 0 -21.333333333333332 -21.333333333333332H56a32 32 0 0 0 -32 32v192a32 32 0 0 0 32 32h154.66666666666666a21.333333333333332 21.333333333333332 0 0 0 21.333333333333332 -21.333333333333332V64a21.333333333333332 21.333333333333332 0 0 0 -17.066666666666666 -21.333333333333332ZM45.33333333333333 32a10.666666666666666 10.666666666666666 0 0 1 10.666666666666666 -10.666666666666666H186.66666666666666a2.6666666666666665 2.6666666666666665 0 0 1 2.6666666666666665 2.6666666666666665v16a2.6666666666666665 2.6666666666666665 0 0 1 -2.6666666666666665 2.6666666666666665H56a10.666666666666666 10.666666666666666 0 0 1 -10.666666666666666 -10.666666666666666Zm144.10666666666665 109.65333333333332 -26.346666666666668 23.46666666666667a2.6666666666666665 2.6666666666666665 0 0 0 -0.6399999999999999 2.986666666666667l14.613333333333333 33.599999999999994a8.32 8.32 0 0 1 -11.946666666666667 10.666666666666666L129.27999999999997 192a2.6666666666666665 2.6666666666666665 0 0 0 -2.5599999999999996 0l-35.839999999999996 20.159999999999997a8.32 8.32 0 0 1 -11.946666666666667 -10.666666666666666l14.613333333333333 -33.599999999999994a2.6666666666666665 2.6666666666666665 0 0 0 -0.6399999999999999 -2.986666666666667l-26.346666666666668 -23.46666666666667A7.893333333333333 7.893333333333333 0 0 1 72.10666666666665 128h30.186666666666667a2.6666666666666665 2.6666666666666665 0 0 0 2.453333333333333 -1.5999999999999999l15.68 -36.48a8.533333333333333 8.533333333333333 0 0 1 15.146666666666665 0l15.68 36.48a2.6666666666666665 2.6666666666666665 0 0 0 2.453333333333333 1.5999999999999999h30.186666666666667a7.893333333333333 7.893333333333333 0 0 1 5.546666666666667 13.653333333333332Z"/></svg>