<svg xmlns="http://www.w3.org/2000/svg" viewBox="0 0 256 256" id="Bookmarks-Document-Alternate--Streamline-Ultimate" height="256" width="256">
  <desc>
    Bookmarks Document Alternate Streamline Icon: https://streamlinehq.com
  </desc>
  <g id="Bookmarks-Document-Alternate--Streamline-Ultimate.svg">
    <path d="M256 36.586666666666666a21.333333333333332 21.333333333333332 0 0 0 -21.333333333333332 -21.333333333333332H122.56A15.68 15.68 0 0 0 106.66666666666666 2.5599999999999996H65.28a15.573333333333332 15.573333333333332 0 0 0 -15.36 13.12 10.666666666666666 10.666666666666666 0 0 0 0 2.5599999999999996V117.33333333333333a5.119999999999999 5.119999999999999 0 0 0 3.626666666666667 4.906666666666666l1.5999999999999999 0a5.013333333333333 5.013333333333333 0 0 0 4.16 -2.1333333333333333l24.746666666666663 -32.85333333333333a2.5599999999999996 2.5599999999999996 0 0 1 4.16 0l25.173333333333332 33.38666666666666a5.226666666666667 5.226666666666667 0 0 0 9.386666666666667 -3.093333333333333V39.25333333333333a2.6666666666666665 2.6666666666666665 0 0 1 2.6666666666666665 -2.6666666666666665h104.32a5.333333333333333 5.333333333333333 0 0 1 5.333333333333333 5.333333333333333v187.83999999999997a5.333333333333333 5.333333333333333 0 0 1 -5.333333333333333 5.333333333333333H26.24a5.333333333333333 5.333333333333333 0 0 1 -5.333333333333333 -5.333333333333333V39.14666666666666a2.5599999999999996 2.5599999999999996 0 0 1 2.5599999999999996 -2.5599999999999996 10.666666666666666 10.666666666666666 0 0 0 0 -21.333333333333332H21.333333333333332a21.333333333333332 21.333333333333332 0 0 0 -21.333333333333332 21.333333333333332V234.66666666666666a21.333333333333332 21.333333333333332 0 0 0 21.333333333333332 21.333333333333332h213.33333333333331a21.333333333333332 21.333333333333332 0 0 0 21.333333333333332 -21.333333333333332Z" fill="#ffffff" stroke-width="10.6667"></path>
    <path d="M154.13333333333333 80.96h41.81333333333333a10.666666666666666 10.666666666666666 0 0 0 0 -21.333333333333332h-41.81333333333333a10.666666666666666 10.666666666666666 0 1 0 0 21.333333333333332Z" fill="#ffffff" stroke-width="10.6667"></path>
    <path d="M154.13333333333333 122.77333333333333h41.81333333333333a10.666666666666666 10.666666666666666 0 0 0 0 -21.333333333333332h-41.81333333333333a10.666666666666666 10.666666666666666 0 1 0 0 21.333333333333332Z" fill="#ffffff" stroke-width="10.6667"></path>
    <path d="M195.94666666666666 143.68H65.28a10.666666666666666 10.666666666666666 0 1 0 0 21.333333333333332h130.66666666666666a10.666666666666666 10.666666666666666 0 1 0 0 -21.333333333333332Z" fill="#ffffff" stroke-width="10.6667"></path>
    <path d="M185.49333333333334 195.94666666666666a10.666666666666666 10.666666666666666 0 0 0 -10.666666666666666 -10.666666666666666H65.28a10.666666666666666 10.666666666666666 0 1 0 0 21.333333333333332h109.75999999999999a10.666666666666666 10.666666666666666 0 0 0 10.453333333333333 -10.666666666666666Z" fill="#ffffff" stroke-width="10.6667"></path>
  </g>
</svg>