<svg xmlns="http://www.w3.org/2000/svg" id="Book-Open-Bookmark--Streamline-Ultimate" width="256" height="256" viewBox="0 0 256 256"><desc>Book Open Bookmark Streamline Icon: https://streamlinehq.com</desc><g id="Book-Open-Bookmark--Streamline-Ultimate.svg"><path fill="#fff" stroke-width="10.667" d="M256 37.54666666666667a21.333333333333332 21.333333333333332 0 0 0 -6.506666666666666 -15.36A20.05333333333333 20.05333333333333 0 0 0 234.66666666666666 16.21333333333333l-9.28 0a5.653333333333333 5.653333333333333 0 0 1 -4.373333333333333 -1.5999999999999999 5.76 5.76 0 0 1 -2.3466666666666667 -3.9466666666666663 5.119999999999999 5.119999999999999 0 0 0 -1.8133333333333335 -3.9466666666666663A5.546666666666667 5.546666666666667 0 0 0 213.33333333333331 5.333333333333333a273.06666666666666 273.06666666666666 0 0 0 -43.519999999999996 7.466666666666666 5.333333333333333 5.333333333333333 0 0 0 -3.9466666666666663 5.226666666666667V85.33333333333333a5.333333333333333 5.333333333333333 0 0 0 3.3066666666666666 4.906666666666666 5.119999999999999 5.119999999999999 0 0 0 5.76 -1.1733333333333333l13.76 -13.76a5.4399999999999995 5.4399999999999995 0 0 1 7.573333333333332 0l13.76 13.76A5.333333333333333 5.333333333333333 0 0 0 218.66666666666666 85.33333333333333V43.413333333333334a5.226666666666667 5.226666666666667 0 0 1 5.013333333333333 -5.333333333333333l5.4399999999999995 0a5.013333333333333 5.013333333333333 0 0 1 3.84 1.3866666666666667 5.546666666666667 5.546666666666667 0 0 1 1.7066666666666666 3.1999999999999997v144.32a5.333333333333333 5.333333333333333 0 0 1 -5.119999999999999 5.333333333333333 248.10666666666668 248.10666666666668 0 0 0 -83.30666666666666 16.106666666666666 5.013333333333333 5.013333333333333 0 0 1 -5.013333333333333 0 5.333333333333333 5.333333333333333 0 0 1 -2.453333333333333 -4.373333333333333V64c0 -2.0266666666666664 2.7733333333333334 -4.906666666666666 8 -8a5.333333333333333 5.333333333333333 0 0 0 2.5599999999999996 -4.586666666666666V39.36a5.4399999999999995 5.4399999999999995 0 0 0 -2.5599999999999996 -4.586666666666666 5.119999999999999 5.119999999999999 0 0 0 -5.119999999999999 0 64 64 0 0 0 -10.666666666666666 6.186666666666666 5.4399999999999995 5.4399999999999995 0 0 1 -6.3999999999999995 0C104.10666666666665 25.386666666666663 62.82666666666666 17.386666666666663 21.866666666666664 16.21333333333333a20.266666666666666 20.266666666666666 0 0 0 -15.36 5.973333333333334A21.333333333333332 21.333333333333332 0 0 0 0 37.54666666666667V192a21.333333333333332 21.333333333333332 0 0 0 21.333333333333332 21.333333333333332c64 1.92 96 19.413333333333334 96 26.560000000000002a10.666666666666666 10.666666666666666 0 0 0 21.333333333333332 0c0 -7.1466666666666665 32.85333333333333 -24.64 96 -26.560000000000002a21.333333333333332 21.333333333333332 0 0 0 21.333333333333332 -21.333333333333332ZM26.453333333333333 192a5.333333333333333 5.333333333333333 0 0 1 -5.119999999999999 -5.333333333333333V42.666666666666664a5.4399999999999995 5.4399999999999995 0 0 1 1.5999999999999999 -3.84 5.866666666666667 5.866666666666667 0 0 1 3.9466666666666663 -1.4933333333333334C86.50666666666666 40.42666666666666 117.33333333333333 57.17333333333333 117.33333333333333 64v139.62666666666667a5.333333333333333 5.333333333333333 0 0 1 -2.453333333333333 4.373333333333333 5.013333333333333 5.013333333333333 0 0 1 -5.013333333333333 0A248.2133333333333 248.2133333333333 0 0 0 26.453333333333333 192Z"/><path fill="#fff" stroke-width="10.667" d="M98.77333333333333 79.36a266.66666666666663 266.66666666666663 0 0 0 -55.36 -10.666666666666666 8 8 0 1 0 -1.4933333333333334 16 240 240 0 0 1 51.73333333333333 10.133333333333333 8 8 0 0 0 5.119999999999999 -15.253333333333332Z"/><path fill="#fff" stroke-width="10.667" d="M98.77333333333333 123.94666666666666a252.90666666666667 252.90666666666667 0 0 0 -55.36 -10.666666666666666 8 8 0 0 0 -8.746666666666666 7.1466666666666665 8.106666666666666 8.106666666666666 0 0 0 7.253333333333334 8.746666666666666 240 240 0 0 1 51.73333333333333 9.493333333333332 8 8 0 1 0 5.119999999999999 -15.146666666666665Z"/><path fill="#fff" stroke-width="10.667" d="M98.77333333333333 168.42666666666665a252.90666666666667 252.90666666666667 0 0 0 -55.36 -10.666666666666666 8 8 0 0 0 -8.746666666666666 7.1466666666666665 8.106666666666666 8.106666666666666 0 0 0 7.253333333333334 8.746666666666666 240 240 0 0 1 51.73333333333333 10.133333333333333 8 8 0 0 0 5.119999999999999 -15.146666666666665Z"/><path fill="#fff" stroke-width="10.667" d="M162.34666666666666 138.66666666666666a240 240 0 0 1 51.73333333333333 -10.133333333333333 8.106666666666666 8.106666666666666 0 0 0 7.253333333333334 -8.746666666666666 8 8 0 0 0 -8.746666666666666 -7.1466666666666665 252.90666666666667 252.90666666666667 0 0 0 -55.36 10.666666666666666 8 8 0 0 0 -5.013333333333333 10.666666666666666 8.106666666666666 8.106666666666666 0 0 0 10.133333333333333 4.693333333333333Z"/><path fill="#fff" stroke-width="10.667" d="M162.34666666666666 183.57333333333332a240 240 0 0 1 51.73333333333333 -10.133333333333333 8.106666666666666 8.106666666666666 0 0 0 7.253333333333334 -8.746666666666666 8 8 0 0 0 -8.746666666666666 -7.1466666666666665 252.90666666666667 252.90666666666667 0 0 0 -55.36 10.666666666666666 8 8 0 0 0 5.119999999999999 15.146666666666665Z"/></g></svg>