<svg xmlns="http://www.w3.org/2000/svg" viewBox="0 0 256 256" id="Book-Close-Bookmark-1--Streamline-Ultimate" height="256" width="256">
  <desc>
    Book Close Bookmark 1 Streamline Icon: https://streamlinehq.com
  </desc>
  <path d="M214.9333333333333 42.666666666666664a5.333333333333333 5.333333333333333 0 0 1 -4.266666666666667 -5.226666666666667V21.333333333333332a21.333333333333332 21.333333333333332 0 0 0 -21.333333333333332 -21.333333333333332H56a32 32 0 0 0 -32 32v192a32 32 0 0 0 32 32h154.66666666666666a21.333333333333332 21.333333333333332 0 0 0 21.333333333333332 -21.333333333333332V64a21.333333333333332 21.333333333333332 0 0 0 -17.066666666666666 -21.333333333333332Zm-30.93333333333333 98.66666666666666a2.7733333333333334 2.7733333333333334 0 0 1 -4.586666666666666 1.92l-20.159999999999997 -20.266666666666666a2.88 2.88 0 0 0 -3.84 0l-20.159999999999997 20.266666666666666a2.7733333333333334 2.7733333333333334 0 0 1 -2.986666666666667 0 2.6666666666666665 2.6666666666666665 0 0 1 -1.5999999999999999 -2.453333333333333V61.33333333333333a2.6666666666666665 2.6666666666666665 0 0 1 2.6666666666666665 -2.6666666666666665H181.33333333333331a2.6666666666666665 2.6666666666666665 0 0 1 2.6666666666666665 2.6666666666666665Zm5.333333333333333 -101.75999999999999a2.6666666666666665 2.6666666666666665 0 0 1 -2.6666666666666665 3.093333333333333H56a10.666666666666666 10.666666666666666 0 0 1 0 -21.333333333333332H186.66666666666666a2.6666666666666665 2.6666666666666665 0 0 1 2.6666666666666665 2.6666666666666665Z" fill="#ffffff" stroke-width="10.6667"></path>
</svg>