<svg xmlns="http://www.w3.org/2000/svg" viewBox="0 0 256 256" id="Bowling-Set--Streamline-Ultimate" height="256" width="256">
  <desc>
    Bowling Set Streamline Icon: https://streamlinehq.com
  </desc>
  <g id="Bowling-Set--Streamline-Ultimate.svg">
    <path d="M29.439999999999998 73.06666666666666a5.226666666666667 5.226666666666667 0 0 0 5.226666666666667 4.266666666666667H71.46666666666667a5.333333333333333 5.333333333333333 0 0 0 5.226666666666667 -4.266666666666667q0 -1.92 0.6399999999999999 -3.52C81.38666666666666 47.89333333333333 87.14666666666666 0 53.33333333333333 0S24.746666666666663 47.89333333333333 28.8 69.54666666666665c0.21333333333333332 1.1733333333333333 0.42666666666666664 2.2399999999999998 0.6399999999999999 3.52Z" fill="#ffffff" stroke-width="10.6667"></path>
    <path d="M71.25333333333333 93.33333333333333H34.879999999999995a5.4399999999999995 5.4399999999999995 0 0 0 -5.013333333333333 3.413333333333333c-9.386666666666667 24.53333333333333 -63.14666666666666 85.86666666666667 1.5999999999999999 155.62666666666667a10.666666666666666 10.666666666666666 0 0 0 8.32 3.626666666666667h26.560000000000002a10.666666666666666 10.666666666666666 0 0 0 8.32 -3.626666666666667c64 -68.37333333333333 12.799999999999999 -126.29333333333332 1.4933333333333334 -155.62666666666667a5.226666666666667 5.226666666666667 0 0 0 -4.906666666666666 -3.413333333333333Z" fill="#ffffff" stroke-width="10.6667"></path>
    <path d="M170.66666666666666 85.33333333333333a85.33333333333333 85.33333333333333 0 0 0 -63.36 28.266666666666666 5.119999999999999 5.119999999999999 0 0 0 -0.8533333333333333 5.866666666666667c13.973333333333333 29.333333333333332 24.64 66.88 5.119999999999999 107.62666666666667a5.546666666666667 5.546666666666667 0 0 0 1.1733333333333333 6.293333333333333A85.33333333333333 85.33333333333333 0 1 0 170.66666666666666 85.33333333333333Zm-22.72 39.78666666666666a11.413333333333334 11.413333333333334 0 0 1 22.72 0 11.413333333333334 11.413333333333334 0 1 1 -22.72 0ZM170.66666666666666 182.07999999999998A11.413333333333334 11.413333333333334 0 1 1 182.07999999999998 170.66666666666666 11.413333333333334 11.413333333333334 0 0 1 170.66666666666666 182.07999999999998Zm34.13333333333333 -34.13333333333333a11.413333333333334 11.413333333333334 0 1 1 11.413333333333334 -11.413333333333334 11.413333333333334 11.413333333333334 0 0 1 -11.413333333333334 11.413333333333334Z" fill="#ffffff" stroke-width="10.6667"></path>
  </g>
</svg>