<svg xmlns="http://www.w3.org/2000/svg" viewBox="0 0 256 256" id="Boxing-Bag-Hanging--Streamline-Ultimate" height="256" width="256">
  <desc>
    Boxing Bag Hanging Streamline Icon: https://streamlinehq.com
  </desc>
  <g id="Boxing-Bag-Hanging--Streamline-Ultimate.svg">
    <path d="M74.66666666666666 226.66666666666666a5.333333333333333 5.333333333333333 0 0 0 -5.333333333333333 5.333333333333333v8A16 16 0 0 0 85.33333333333333 256h85.33333333333333a16 16 0 0 0 16 -16v-8a5.333333333333333 5.333333333333333 0 0 0 -5.333333333333333 -5.333333333333333Z" fill="#ffffff" stroke-width="10.6667"></path>
    <path d="M170.66666666666666 69.33333333333333h-1.3866666666666667L145.27999999999997 21.333333333333332H149.33333333333331a10.666666666666666 10.666666666666666 0 0 0 0 -21.333333333333332h-42.666666666666664a10.666666666666666 10.666666666666666 0 0 0 0 21.333333333333332h4.053333333333333L86.72 69.33333333333333H85.33333333333333A16 16 0 0 0 69.33333333333333 85.33333333333333v8a5.333333333333333 5.333333333333333 0 0 0 5.333333333333333 5.333333333333333h106.66666666666666a5.333333333333333 5.333333333333333 0 0 0 5.333333333333333 -5.333333333333333V85.33333333333333A16 16 0 0 0 170.66666666666666 69.33333333333333Zm-60.05333333333333 0L128 34.56l17.386666666666663 34.773333333333326Z" fill="#ffffff" stroke-width="10.6667"></path>
    <path d="M74.66666666666666 114.66666666666666h106.66666666666666s5.333333333333333 0 5.333333333333333 5.333333333333333v85.33333333333333s0 5.333333333333333 -5.333333333333333 5.333333333333333H74.66666666666666s-5.333333333333333 0 -5.333333333333333 -5.333333333333333v-85.33333333333333s0 -5.333333333333333 5.333333333333333 -5.333333333333333" fill="#ffffff" stroke-width="10.6667"></path>
  </g>
</svg>