<svg xmlns="http://www.w3.org/2000/svg" fill="none" viewBox="0 0 256 256" id="Branch-Line-5--Streamline-Ultimate" height="256" width="256">
  <desc>
    Branch Line 5 Streamline Icon: https://streamlinehq.com
  </desc>
  <path fill="#ffffff" fill-rule="evenodd" d="M118.79786666666666 138.66666666666666H10.9792c-5.891071999999999 0 -10.666699733333333 -4.7754666666666665 -10.666699733333333 -10.666666666666666S5.088127999999999 117.33333333333333 10.9792 117.33333333333333h107.81866666666667L169.2896 6.252768C171.0208 2.444821333333333 174.81706666666665 0 178.99946666666665 0h66.02133333333333c5.8911999999999995 0 10.666666666666666 4.775626666666666 10.666666666666666 10.666656C255.68746666666667 16.557653333333334 250.91199999999998 21.333333333333332 245.0208 21.333333333333332l-59.151999999999994 0 -48.48533333333333 106.66666666666666 48.48533333333333 106.66666666666666h59.151999999999994c5.8911999999999995 0 10.666666666666666 4.7754666666666665 10.666666666666666 10.666666666666666s-4.7754666666666665 10.666666666666666 -10.666666666666666 10.666666666666666h-66.02133333333333c-4.1823999999999995 0 -7.978666666666666 -2.4448 -9.709866666666667 -6.252800000000001L118.79786666666666 138.66666666666666Z" clip-rule="evenodd" stroke-width="10.6667"></path>
</svg>