<svg xmlns="http://www.w3.org/2000/svg" viewBox="0 0 256 256" id="Bread-Loaf--Streamline-Ultimate" height="256" width="256">
  <desc>
    Bread Loaf Streamline Icon: https://streamlinehq.com
  </desc>
  <path d="M256 67.30666666666666a53.33333333333333 53.33333333333333 0 0 0 -53.33333333333333 -53.33333333333333H56A56.10666666666666 56.10666666666666 0 0 0 0 69.97333333333333c0 26.24 9.493333333333332 44.8 26.453333333333333 52.266666666666666a5.333333333333333 5.333333333333333 0 0 1 3.093333333333333 5.76l-6.3999999999999995 86.61333333333332a24.53333333333333 24.53333333333333 0 0 0 5.653333333333333 19.093333333333334 24.21333333333333 24.21333333333333 0 0 0 18.133333333333333 8.32h154.13333333333333a21.333333333333332 21.333333333333332 0 0 0 21.333333333333332 -24.426666666666666l-6.72 -93.65333333333332a5.333333333333333 5.333333333333333 0 0 1 3.626666666666667 -5.866666666666667A53.33333333333333 53.33333333333333 0 0 0 256 67.30666666666666Zm-109.33333333333333 32a13.653333333333332 13.653333333333332 0 0 0 -10.133333333333333 4.586666666666666 13.333333333333332 13.333333333333332 0 0 0 -3.093333333333333 10.666666666666666l7.466666666666666 94.50666666666666a5.333333333333333 5.333333333333333 0 0 1 -5.226666666666667 6.186666666666666H56.32a5.333333333333333 5.333333333333333 0 0 1 -5.226666666666667 -6.186666666666666l7.466666666666666 -94.61333333333332a13.44 13.44 0 0 0 -13.226666666666667 -15.146666666666665c-5.119999999999999 0 -18.666666666666664 0 -18.666666666666664 -29.333333333333332a29.333333333333332 29.333333333333332 0 0 1 29.333333333333332 -29.333333333333332h90.66666666666666a29.333333333333332 29.333333333333332 0 0 1 0 58.666666666666664Z" fill="#ffffff" stroke-width="10.6667"></path>
</svg>