<svg xmlns="http://www.w3.org/2000/svg" viewBox="0 0 256 256" id="Brightness--Streamline-Ultimate" height="256" width="256">
  <desc>
    Brightness Streamline Icon: https://streamlinehq.com
  </desc>
  <g id="Brightness--Streamline-Ultimate.svg">
    <path d="M80 128a48 48 0 1 0 96 0 48 48 0 1 0 -96 0" fill="#ffffff" stroke-width="10.6667"></path>
    <path d="M128 62.18666666666667a10.666666666666666 10.666666666666666 0 0 0 10.666666666666666 -10.666666666666666V10.666666666666666a10.666666666666666 10.666666666666666 0 0 0 -21.333333333333332 0v40.85333333333333a10.666666666666666 10.666666666666666 0 0 0 10.666666666666666 10.666666666666666Z" fill="#ffffff" stroke-width="10.6667"></path>
    <path d="M128 193.81333333333333a10.666666666666666 10.666666666666666 0 0 0 -10.666666666666666 10.666666666666666V245.33333333333331a10.666666666666666 10.666666666666666 0 0 0 21.333333333333332 0v-40.85333333333333a10.666666666666666 10.666666666666666 0 0 0 -10.666666666666666 -10.666666666666666Z" fill="#ffffff" stroke-width="10.6667"></path>
    <path d="M66.34666666666666 81.49333333333333a10.666666666666666 10.666666666666666 0 0 0 15.04 0 10.666666666666666 10.666666666666666 0 0 0 0 -15.146666666666665l-28.8 -28.8a10.666666666666666 10.666666666666666 0 0 0 -15.146666666666665 15.04Z" fill="#ffffff" stroke-width="10.6667"></path>
    <path d="M189.65333333333334 174.61333333333334a10.666666666666666 10.666666666666666 0 0 0 -15.04 0 10.666666666666666 10.666666666666666 0 0 0 0 15.04l28.8 28.906666666666666a10.666666666666666 10.666666666666666 0 0 0 15.146666666666665 0 10.666666666666666 10.666666666666666 0 0 0 0 -15.146666666666665Z" fill="#ffffff" stroke-width="10.6667"></path>
    <path d="M62.18666666666667 133.33333333333331a10.666666666666666 10.666666666666666 0 0 0 -10.666666666666666 -10.666666666666666H10.666666666666666a10.666666666666666 10.666666666666666 0 0 0 0 21.333333333333332h40.85333333333333a10.666666666666666 10.666666666666666 0 0 0 10.666666666666666 -10.666666666666666Z" fill="#ffffff" stroke-width="10.6667"></path>
    <path d="M245.33333333333331 122.66666666666666h-40.85333333333333a10.666666666666666 10.666666666666666 0 0 0 0 21.333333333333332H245.33333333333331a10.666666666666666 10.666666666666666 0 0 0 0 -21.333333333333332Z" fill="#ffffff" stroke-width="10.6667"></path>
    <path d="m66.34666666666666 174.61333333333334 -28.906666666666666 28.8a10.666666666666666 10.666666666666666 0 0 0 0 15.146666666666665 10.666666666666666 10.666666666666666 0 0 0 15.146666666666665 0l28.8 -28.906666666666666a10.666666666666666 10.666666666666666 0 0 0 -15.04 -15.04Z" fill="#ffffff" stroke-width="10.6667"></path>
    <path d="M182.07999999999998 84.47999999999999a10.666666666666666 10.666666666666666 0 0 0 7.573333333333332 -2.986666666666667l28.906666666666666 -28.906666666666666a10.666666666666666 10.666666666666666 0 1 0 -15.146666666666665 -15.04l-28.8 28.8a10.666666666666666 10.666666666666666 0 0 0 0 15.146666666666665 10.666666666666666 10.666666666666666 0 0 0 7.466666666666666 2.986666666666667Z" fill="#ffffff" stroke-width="10.6667"></path>
  </g>
</svg>