<svg xmlns="http://www.w3.org/2000/svg" id="Browser-Page-Layout--Streamline-Ultimate" width="256" height="256" viewBox="0 0 256 256"><desc>Browser Page Layout Streamline Icon: https://streamlinehq.com</desc><path fill="#fff" stroke-width="10.667" d="M256 50.666666666666664a32 32 0 0 0 -32 -32H32a32 32 0 0 0 -32 32v154.66666666666666a32 32 0 0 0 32 32h192a32 32 0 0 0 32 -32Zm-24 21.333333333333332A2.6666666666666665 2.6666666666666665 0 0 1 234.66666666666666 74.66666666666666v58.666666666666664a2.6666666666666665 2.6666666666666665 0 0 1 -2.6666666666666665 2.6666666666666665h-128a2.6666666666666665 2.6666666666666665 0 0 1 -2.6666666666666665 -2.6666666666666665V74.66666666666666a2.6666666666666665 2.6666666666666665 0 0 1 2.6666666666666665 -2.6666666666666665Zm-129.06666666666666 -32a10.666666666666666 10.666666666666666 0 0 1 18.133333333333333 0 9.706666666666667 9.706666666666667 0 0 1 0 10.666666666666666 10.666666666666666 10.666666666666666 0 0 1 -18.133333333333333 0 9.706666666666667 9.706666666666667 0 0 1 0 -10.666666666666666Zm-37.33333333333333 0a10.666666666666666 10.666666666666666 0 0 1 18.133333333333333 0 9.706666666666667 9.706666666666667 0 0 1 0 10.666666666666666 10.666666666666666 10.666666666666666 0 0 1 -18.133333333333333 0 9.706666666666667 9.706666666666667 0 0 1 0 -10.666666666666666Zm-37.97333333333333 0.96a10.666666666666666 10.666666666666666 0 0 1 18.773333333333333 -0.96 9.706666666666667 9.706666666666667 0 0 1 0 10.666666666666666 10.666666666666666 10.666666666666666 0 0 1 -18.133333333333333 0 10.666666666666666 10.666666666666666 0 0 1 -1.5999999999999999 -5.333333333333333 11.946666666666667 11.946666666666667 0 0 1 0.96 -4.373333333333333ZM85.33333333333333 213.33333333333331a2.6666666666666665 2.6666666666666665 0 0 1 -2.6666666666666665 2.6666666666666665H32a10.666666666666666 10.666666666666666 0 0 1 -10.666666666666666 -10.666666666666666V74.66666666666666a2.6666666666666665 2.6666666666666665 0 0 1 2.6666666666666665 -2.6666666666666665h58.666666666666664A2.6666666666666665 2.6666666666666665 0 0 1 85.33333333333333 74.66666666666666Zm149.33333333333331 -8a10.666666666666666 10.666666666666666 0 0 1 -10.666666666666666 10.666666666666666H104A2.6666666666666665 2.6666666666666665 0 0 1 101.33333333333333 213.33333333333331v-58.666666666666664a2.6666666666666665 2.6666666666666665 0 0 1 2.6666666666666665 -2.6666666666666665h128a2.6666666666666665 2.6666666666666665 0 0 1 2.6666666666666665 2.6666666666666665Z"/></svg>