<svg xmlns="http://www.w3.org/2000/svg" viewBox="0 0 256 256" id="Browser-Com--Streamline-Ultimate" height="256" width="256">
  <desc>
    Browser Com Streamline Icon: https://streamlinehq.com
  </desc>
  <g id="Browser-Com--Streamline-Ultimate.svg">
    <path d="M37.86666666666666 165.33333333333331a10.666666666666666 10.666666666666666 0 1 0 21.333333333333332 0 10.666666666666666 10.666666666666666 0 1 0 -21.333333333333332 0" fill="#ffffff" stroke-width="10.6667"></path>
    <path d="M101.86666666666667 178.66666666666666a8 8 0 0 0 0 -16A13.333333333333332 13.333333333333332 0 0 1 88.53333333333333 149.33333333333331v-10.666666666666666a13.333333333333332 13.333333333333332 0 0 1 13.333333333333332 -13.333333333333332 8 8 0 0 0 0 -16A29.333333333333332 29.333333333333332 0 0 0 72.53333333333333 138.66666666666666v10.666666666666666a29.333333333333332 29.333333333333332 0 0 0 29.333333333333332 29.333333333333332Z" fill="#ffffff" stroke-width="10.6667"></path>
    <path d="M139.2 178.66666666666666A18.773333333333333 18.773333333333333 0 0 0 157.86666666666667 160v-32a18.666666666666664 18.666666666666664 0 0 0 -37.33333333333333 0v32a18.666666666666664 18.666666666666664 0 0 0 18.666666666666664 18.666666666666664ZM136.53333333333333 128a2.6666666666666665 2.6666666666666665 0 0 1 5.333333333333333 0v32c0 2.986666666666667 -5.333333333333333 2.986666666666667 -5.333333333333333 0Z" fill="#ffffff" stroke-width="10.6667"></path>
    <path d="M176.53333333333333 178.66666666666666a8.106666666666666 8.106666666666666 0 0 0 8 -8v-22.186666666666667a0.7466666666666667 0.7466666666666667 0 0 1 0 -0.6399999999999999s0.5333333333333333 0 0.7466666666666667 0a8.32 8.32 0 0 0 13.653333333333332 0l0.7466666666666667 0a0.7466666666666667 0.7466666666666667 0 0 1 0 0.6399999999999999V170.66666666666666a8 8 0 0 0 16 0v-53.33333333333333a7.893333333333333 7.893333333333333 0 0 0 -5.866666666666667 -7.68 8 8 0 0 0 -8.959999999999999 3.52l-6.933333333333334 11.413333333333334a2.453333333333333 2.453333333333333 0 0 1 -4.4799999999999995 0l-6.933333333333334 -11.413333333333334a8 8 0 0 0 -8.959999999999999 -3.52 7.893333333333333 7.893333333333333 0 0 0 -5.866666666666667 7.68v53.33333333333333a8.106666666666666 8.106666666666666 0 0 0 8.853333333333332 8Z" fill="#ffffff" stroke-width="10.6667"></path>
    <path d="M256 50.666666666666664a32 32 0 0 0 -32 -32H32a32 32 0 0 0 -32 32v154.66666666666666a32 32 0 0 0 32 32h192a32 32 0 0 0 32 -32Zm-153.06666666666666 -10.666666666666666a10.666666666666666 10.666666666666666 0 0 1 18.133333333333333 0 9.706666666666667 9.706666666666667 0 0 1 0 10.666666666666666 10.666666666666666 10.666666666666666 0 0 1 -18.133333333333333 0 9.706666666666667 9.706666666666667 0 0 1 0 -10.666666666666666Zm-37.33333333333333 0a10.666666666666666 10.666666666666666 0 0 1 18.133333333333333 0 9.706666666666667 9.706666666666667 0 0 1 0 10.666666666666666 10.666666666666666 10.666666666666666 0 0 1 -18.133333333333333 0 9.706666666666667 9.706666666666667 0 0 1 0 -10.666666666666666Zm-37.97333333333333 0.96a10.666666666666666 10.666666666666666 0 0 1 18.773333333333333 -0.96 9.706666666666667 9.706666666666667 0 0 1 0 10.666666666666666 10.666666666666666 10.666666666666666 0 0 1 -18.133333333333333 0 10.666666666666666 10.666666666666666 0 0 1 -1.5999999999999999 -5.333333333333333 11.946666666666667 11.946666666666667 0 0 1 0.96 -4.373333333333333ZM234.66666666666666 205.33333333333331a10.666666666666666 10.666666666666666 0 0 1 -10.666666666666666 10.666666666666666H32a10.666666666666666 10.666666666666666 0 0 1 -10.666666666666666 -10.666666666666666V74.66666666666666a2.6666666666666665 2.6666666666666665 0 0 1 2.6666666666666665 -2.6666666666666665h208A2.6666666666666665 2.6666666666666665 0 0 1 234.66666666666666 74.66666666666666Z" fill="#ffffff" stroke-width="10.6667"></path>
  </g>
</svg>