<svg xmlns="http://www.w3.org/2000/svg" id="Bus-1--Streamline-Ultimate" width="256" height="256" viewBox="0 0 256 256"><desc>Bus 1 Streamline Icon: https://streamlinehq.com</desc><path fill="#fff" stroke-width="10.667" d="M210.13333333333333 40a2.6666666666666665 2.6666666666666665 0 0 1 -2.6666666666666665 -2.3466666666666667A42.666666666666664 42.666666666666664 0 0 0 165.33333333333331 0h-74.66666666666666a42.666666666666664 42.666666666666664 0 0 0 -42.13333333333333 37.65333333333333 2.6666666666666665 2.6666666666666665 0 0 1 -2.6666666666666665 2.3466666666666667H10.666666666666666a10.666666666666666 10.666666666666666 0 0 0 -10.666666666666666 10.666666666666666v42.666666666666664a10.666666666666666 10.666666666666666 0 0 0 10.666666666666666 10.666666666666666h11.626666666666667a2.7733333333333334 2.7733333333333334 0 0 1 1.8133333333333335 0.7466666666666667l13.866666666666667 13.866666666666667a2.7733333333333334 2.7733333333333334 0 0 1 0.7466666666666667 2.0266666666666664 2.5599999999999996 2.5599999999999996 0 0 1 -1.0666666666666667 1.92 26.560000000000002 26.560000000000002 0 0 0 -10.666666666666666 21.333333333333332v46.39999999999999a2.5599999999999996 2.5599999999999996 0 0 1 -1.2799999999999998 2.2399999999999998 23.893333333333334 23.893333333333334 0 0 0 9.6 44.58666666666666 2.6666666666666665 2.6666666666666665 0 0 1 2.3466666666666667 2.6666666666666665V245.33333333333331a10.666666666666666 10.666666666666666 0 0 0 10.666666666666666 10.666666666666666h21.333333333333332a10.666666666666666 10.666666666666666 0 0 0 10.666666666666666 -10.666666666666666v-5.333333333333333a2.6666666666666665 2.6666666666666665 0 0 1 2.6666666666666665 -2.6666666666666665h90.66666666666666a2.6666666666666665 2.6666666666666665 0 0 1 2.6666666666666665 2.6666666666666665v5.333333333333333a10.666666666666666 10.666666666666666 0 0 0 10.666666666666666 10.666666666666666h21.333333333333332a10.666666666666666 10.666666666666666 0 0 0 10.666666666666666 -10.666666666666666v-5.4399999999999995a2.6666666666666665 2.6666666666666665 0 0 1 2.3466666666666667 -2.6666666666666665 23.893333333333334 23.893333333333334 0 0 0 9.6 -44.58666666666666 2.5599999999999996 2.5599999999999996 0 0 1 -1.2799999999999998 -2.2399999999999998V144a26.560000000000002 26.560000000000002 0 0 0 -10.666666666666666 -21.333333333333332 2.5599999999999996 2.5599999999999996 0 0 1 -1.0666666666666667 -1.92 2.7733333333333334 2.7733333333333334 0 0 1 0.7466666666666667 -2.0266666666666664l13.866666666666667 -13.866666666666667a2.7733333333333334 2.7733333333333334 0 0 1 1.8133333333333335 -0.7466666666666667H245.33333333333331a10.666666666666666 10.666666666666666 0 0 0 10.666666666666666 -10.666666666666666v-42.666666666666664a10.666666666666666 10.666666666666666 0 0 0 -10.666666666666666 -10.666666666666666ZM154.56 192h-53.33333333333333a5.333333333333333 5.333333333333333 0 0 1 -5.333333333333333 -5.333333333333333V160a10.666666666666666 10.666666666666666 0 0 1 10.666666666666666 -10.666666666666666h42.666666666666664a10.666666666666666 10.666666666666666 0 0 1 10.666666666666666 10.666666666666666v26.666666666666664a5.333333333333333 5.333333333333333 0 0 1 -5.333333333333333 5.333333333333333Zm32 -133.33333333333331V106.66666666666666a5.333333333333333 5.333333333333333 0 0 1 -5.333333333333333 5.333333333333333h-39.89333333333333a5.333333333333333 5.333333333333333 0 0 1 -5.333333333333333 -5.333333333333333V53.33333333333333a5.333333333333333 5.333333333333333 0 0 1 5.333333333333333 -5.333333333333333h34.666666666666664a10.666666666666666 10.666666666666666 0 0 1 10.666666666666666 10.666666666666666Zm-117.33333333333333 0a10.666666666666666 10.666666666666666 0 0 1 10.666666666666666 -10.666666666666666h34.666666666666664a5.333333333333333 5.333333333333333 0 0 1 5.333333333333333 5.333333333333333v53.33333333333333a5.333333333333333 5.333333333333333 0 0 1 -5.333333333333333 5.333333333333333H74.66666666666666a5.333333333333333 5.333333333333333 0 0 1 -5.333333333333333 -5.333333333333333ZM64 146.66666666666666A13.333333333333332 13.333333333333332 0 1 1 50.666666666666664 160 13.333333333333332 13.333333333333332 0 0 1 64 146.66666666666666Zm128 26.666666666666664A13.333333333333332 13.333333333333332 0 1 1 205.33333333333331 160 13.333333333333332 13.333333333333332 0 0 1 192 173.33333333333331ZM32 90.34666666666666a1.1733333333333333 1.1733333333333333 0 0 1 0 -0.7466666666666667V58.666666666666664a2.6666666666666665 2.6666666666666665 0 0 1 2.6666666666666665 -2.6666666666666665h10.666666666666666a2.6666666666666665 2.6666666666666665 0 0 1 2.6666666666666665 2.6666666666666665v40.959999999999994a2.6666666666666665 2.6666666666666665 0 0 1 -1.5999999999999999 2.453333333333333 2.7733333333333334 2.7733333333333334 0 0 1 -2.986666666666667 -0.6399999999999999Zm186.66666666666666 130.98666666666665h-181.33333333333331a8 8 0 0 1 0 -16h181.33333333333331a8 8 0 0 1 0 16Zm-6.079999999999999 -119.89333333333333a2.7733333333333334 2.7733333333333334 0 0 1 -2.986666666666667 0.6399999999999999 2.6666666666666665 2.6666666666666665 0 0 1 -1.5999999999999999 -2.453333333333333V58.666666666666664a2.6666666666666665 2.6666666666666665 0 0 1 2.6666666666666665 -2.6666666666666665h10.666666666666666a2.6666666666666665 2.6666666666666665 0 0 1 2.6666666666666665 2.6666666666666665v30.93333333333333a1.1733333333333333 1.1733333333333333 0 0 1 0 0.7466666666666667Z"/></svg>