<svg xmlns="http://www.w3.org/2000/svg" viewBox="0 0 256 256" id="Business-Card-1--Streamline-Ultimate" height="256" width="256">
  <desc>
    Business Card 1 Streamline Icon: https://streamlinehq.com
  </desc>
  <path d="M234.66666666666666 43.626666666666665H21.333333333333332a21.333333333333332 21.333333333333332 0 0 0 -21.333333333333332 21.333333333333332v126.08a21.333333333333332 21.333333333333332 0 0 0 21.333333333333332 21.333333333333332h213.33333333333331a21.333333333333332 21.333333333333332 0 0 0 21.333333333333332 -21.333333333333332V64.96a21.333333333333332 21.333333333333332 0 0 0 -21.333333333333332 -21.333333333333332ZM41.38666666666666 83.52a10.666666666666666 10.666666666666666 0 0 1 10.666666666666666 -10.666666666666666h36.906666666666666a10.666666666666666 10.666666666666666 0 0 1 10.666666666666666 10.666666666666666v36.906666666666666a10.666666666666666 10.666666666666666 0 0 1 -10.666666666666666 10.666666666666666H52.05333333333333a10.666666666666666 10.666666666666666 0 0 1 -10.666666666666666 -10.666666666666666Zm51.73333333333333 96H41.38666666666666a8 8 0 1 1 0 -16h51.73333333333333a8 8 0 0 1 0 16Zm119.14666666666666 0h-49.38666666666666a8 8 0 0 1 0 -16h49.38666666666666a8 8 0 0 1 0 16Zm0 -43.626666666666665h-69.22666666666666a8 8 0 0 1 0 -16h69.22666666666666a8 8 0 0 1 0 16Zm0 -43.626666666666665h-49.38666666666666a8 8 0 0 1 0 -16h49.38666666666666a8 8 0 0 1 0 16Z" fill="#ffffff" stroke-width="10.6667"></path>
</svg>