<svg xmlns="http://www.w3.org/2000/svg" viewBox="0 0 256 256" id="Business-Rabbit-Hat--Streamline-Ultimate" height="256" width="256">
  <desc>
    Business Rabbit Hat Streamline Icon: https://streamlinehq.com
  </desc>
  <g id="Business-Rabbit-Hat--Streamline-Ultimate.svg">
    <path d="M86.36693333333332 3.173333333333333C77.97333333333333 1.2127999999999999 69.18079999999999 4.0309333333333335 63.48906666666666 10.504533333333333c-10.052266666666666 11.720533333333332 -13.0432 27.9328 -7.8368 42.46933333333333 5.688533333333333 18.580266666666667 16.179199999999998 49.6736 24.141866666666665 71.91999999999999 0.4704 1.2736 1.675733333333333 2.128 3.0336 2.1482666666666663h86.3296c1.2799999999999998 -0.04906666666666666 2.414933333333333 -0.8394666666666667 2.9066666666666667 -2.0223999999999998 2.654933333333333 -6.698666666666666 5.688533333333333 -14.535466666666666 8.847999999999999 -22.877866666666666 0.43733333333333335 -1.2266666666666666 -0.035199999999999995 -2.5919999999999996 -1.1370666666666667 -3.2863999999999995 -5.338666666666666 -3.4634666666666662 -10.113066666666667 -7.726933333333333 -14.156799999999999 -12.638933333333334 -11.057066666666666 -11.752533333333332 -19.424 -25.7696 -24.5216 -41.07946666666666 -0.20693333333333333 -0.18453333333333333 -0.48106666666666664 -0.27626666666666666 -0.7584 -0.25279999999999997 -0.37333333333333335 -0.005333333333333333 -0.6954666666666666 0.2634666666666666 -0.7584 0.6314666666666666 -2.4010666666666665 9.733333333333333 -8.215466666666666 34.380799999999994 -11.122133333333332 47.39946666666666 -0.3488 1.4677333333333333 -1.6511999999999998 2.5098666666666665 -3.1605333333333334 2.5279999999999996 -1.4965333333333333 0.020266666666666665 -2.784 -1.0528 -3.0336 -2.5279999999999996 -4.676266666666667 -22.246399999999998 -10.111999999999998 -47.27253333333333 -14.029866666666665 -62.313599999999994C102.4192 10.251733333333332 92.3072 4.690133333333333 86.36693333333332 3.173333333333333Z" fill="#ffffff" stroke-width="10.6667"></path>
    <path d="M211.75253333333333 95.19039999999998c11.757866666666667 -1.877333333333333 18.4032 -14.535466666666666 13.272533333333332 -25.28 -7.770666666666667 -18.14933333333333 -20.7456 -33.58826666666666 -37.28746666666666 -44.3648 -7.105066666666667 -3.4591999999999996 -14.8544 -5.3962666666666665 -22.752 -5.6874666666666664 -5.6874666666666664 0 -10.490666666666666 1.5168 -12.007466666666666 6.066133333333333 -4.676266666666667 12.64 12.64 41.33226666666666 22.877866666666666 52.83413333333333 8.759466666666667 10.761599999999998 22.027733333333334 16.834133333333334 35.89653333333333 16.432Z" fill="#ffffff" stroke-width="10.6667"></path>
    <path d="M29.2352 158.64106666666666c0 6.981333333333333 5.658666666666666 12.64 12.64 12.64H65.25866666666667c0.9023999999999999 0.0063999999999999994 1.7664 0.3701333333333333 2.4010666666666665 1.0111999999999999 0.6101333333333333 0.6922666666666666 0.8863999999999999 1.6149333333333333 0.7584 2.5279999999999996l-8.468266666666667 58.90133333333333c-0.7274666666666666 5.165866666666666 0.9493333333333333 10.380799999999999 4.5504 14.155733333333332 3.722666666666666 3.610666666666667 8.717866666666666 5.608533333333334 13.904 5.561599999999999h87.21386666666666c5.185066666666666 0.046933333333333334 10.180266666666666 -1.9509333333333334 13.904 -5.561599999999999 3.7898666666666667 -3.672533333333333 5.617066666666666 -8.922666666666666 4.9290666666666665 -14.155733333333332l-8.468266666666667 -58.90133333333333c-0.128 -0.9130666666666666 0.14826666666666666 -1.8357333333333332 0.7584 -2.5279999999999996 0.6346666666666666 -0.6410666666666667 1.4986666666666668 -1.0048 2.4010666666666665 -1.0111999999999999h26.54293333333333c9.730133333333333 0 15.812266666666666 -10.533333333333333 10.946133333333332 -18.96 -2.2570666666666668 -3.9103999999999997 -6.429866666666666 -6.318933333333334 -10.946133333333332 -6.318933333333334H41.3696c-6.782933333333333 0.2709333333333333 -12.139733333333332 5.851733333333333 -12.1344 12.638933333333334Z" fill="#ffffff" stroke-width="10.6667"></path>
  </g>
</svg>