<svg xmlns="http://www.w3.org/2000/svg" viewBox="0 0 256 256" id="Business-Big-Small-Fish--Streamline-Ultimate" height="256" width="256">
  <desc>
    Business Big Small Fish Streamline Icon: https://streamlinehq.com
  </desc>
  <g id="Business-Big-Small-Fish--Streamline-Ultimate.svg">
    <path d="M165.86666666666667 100.26666666666667a5.333333333333333 5.333333333333333 0 0 0 1.4933333333333334 -6.826666666666666C154.02666666666664 69.33333333333333 134.50666666666666 58.666666666666664 104 58.666666666666664a69.12 69.12 0 0 0 -64 43.199999999999996 2.453333333333333 2.453333333333333 0 0 1 -2.0266666666666664 1.5999999999999999 2.7733333333333334 2.7733333333333334 0 0 1 -2.453333333333333 -0.8533333333333333l-8.533333333333333 -9.92A10.666666666666666 10.666666666666666 0 0 0 14.933333333333332 89.6a10.666666666666666 10.666666666666666 0 0 0 -6.933333333333334 10.026666666666666v56.74666666666667a10.666666666666666 10.666666666666666 0 0 0 18.773333333333333 6.933333333333334l8.533333333333333 -9.92a2.7733333333333334 2.7733333333333334 0 0 1 2.453333333333333 -0.8533333333333333 2.453333333333333 2.453333333333333 0 0 1 2.0266666666666664 1.5999999999999999 69.12 69.12 0 0 0 64 43.199999999999996 67.73333333333332 67.73333333333332 0 0 0 63.25333333333333 -34.56 5.333333333333333 5.333333333333333 0 0 0 -1.3866666666666667 -7.04l-34.13333333333333 -25.599999999999998a2.6666666666666665 2.6666666666666665 0 0 1 0 -4.266666666666667Zm-40.53333333333333 -1.5999999999999999a8 8 0 1 1 8 -8 8.106666666666666 8.106666666666666 0 0 1 -8 8Z" fill="#ffffff" stroke-width="10.6667"></path>
    <path d="M186.77333333333334 144.10666666666665a5.76 5.76 0 0 0 5.546666666666667 0l11.306666666666667 -7.573333333333332a2.7733333333333334 2.7733333333333334 0 0 1 2.2399999999999998 0 2.453333333333333 2.453333333333333 0 0 1 1.7066666666666666 1.3866666666666667A21.333333333333332 21.333333333333332 0 0 0 226.66666666666666 149.33333333333331a21.333333333333332 21.333333333333332 0 0 0 0 -42.666666666666664 21.333333333333332 21.333333333333332 0 0 0 -19.093333333333334 12.053333333333331 2.453333333333333 2.453333333333333 0 0 1 -1.7066666666666666 1.3866666666666667 2.7733333333333334 2.7733333333333334 0 0 1 -2.2399999999999998 0L192 112.21333333333332a5.76 5.76 0 0 0 -5.546666666666667 0 5.4399999999999995 5.4399999999999995 0 0 0 -2.7733333333333334 4.693333333333333v22.826666666666668a5.4399999999999995 5.4399999999999995 0 0 0 3.093333333333333 4.373333333333333Z" fill="#ffffff" stroke-width="10.6667"></path>
  </g>
</svg>