<svg xmlns="http://www.w3.org/2000/svg" id="Business-Deal-Cash-2--Streamline-Ultimate" width="256" height="256" viewBox="0 0 256 256"><desc>Business Deal Cash 2 Streamline Icon: https://streamlinehq.com</desc><g id="Business-Deal-Cash-2--Streamline-Ultimate.svg"><path fill="#fff" stroke-width="10.667" d="M189.12 107.2a26.560000000000002 26.560000000000002 0 1 0 53.120000000000005 0 26.560000000000002 26.560000000000002 0 1 0 -53.120000000000005 0"/><path fill="#fff" stroke-width="10.667" d="M178.45333333333332 197.54666666666665a5.4399999999999995 5.4399999999999995 0 0 0 1.5999999999999999 3.733333333333333 5.013333333333333 5.013333333333333 0 0 0 3.733333333333333 1.5999999999999999h8.746666666666666a2.6666666666666665 2.6666666666666665 0 0 1 2.6666666666666665 2.3466666666666667l4.586666666666666 45.97333333333333a5.333333333333333 5.333333333333333 0 0 0 5.333333333333333 4.8h21.333333333333332a5.226666666666667 5.226666666666667 0 0 0 5.226666666666667 -4.8l4.586666666666666 -45.97333333333333a2.88 2.88 0 0 1 2.6666666666666665 -2.3466666666666667h8.746666666666666a5.4399999999999995 5.4399999999999995 0 0 0 5.333333333333333 -5.333333333333333v-21.333333333333332a37.22666666666667 37.22666666666667 0 1 0 -74.66666666666666 0Z"/><path fill="#fff" stroke-width="10.667" d="M13.76 107.2a26.560000000000002 26.560000000000002 0 1 0 53.120000000000005 0 26.560000000000002 26.560000000000002 0 1 0 -53.120000000000005 0"/><path fill="#fff" stroke-width="10.667" d="M3.093333333333333 197.54666666666665a5.013333333333333 5.013333333333333 0 0 0 1.5999999999999999 3.733333333333333 5.013333333333333 5.013333333333333 0 0 0 3.733333333333333 1.3866666666666667h8.746666666666666a2.88 2.88 0 0 1 2.6666666666666665 2.3466666666666667l4.586666666666666 45.97333333333333a5.226666666666667 5.226666666666667 0 0 0 5.226666666666667 4.8h21.333333333333332a5.333333333333333 5.333333333333333 0 0 0 5.333333333333333 -4.8l4.586666666666666 -45.97333333333333A2.6666666666666665 2.6666666666666665 0 0 1 64 202.66666666666666h8.746666666666666a5.013333333333333 5.013333333333333 0 0 0 3.733333333333333 -1.5999999999999999 5.4399999999999995 5.4399999999999995 0 0 0 1.5999999999999999 -3.733333333333333v-21.333333333333332a37.22666666666667 37.22666666666667 0 1 0 -74.66666666666666 0Z"/><path fill="#fff" stroke-width="10.667" d="M125.33333333333333 0a13.226666666666667 13.226666666666667 0 0 0 -13.226666666666667 13.333333333333332v4.4799999999999995a2.7733333333333334 2.7733333333333334 0 0 1 -2.1333333333333333 2.5599999999999996A34.026666666666664 34.026666666666664 0 0 0 104.32 85.33333333333333l32 12.906666666666666a7.68 7.68 0 0 1 -2.88 14.719999999999999h-32a13.333333333333332 13.333333333333332 0 1 0 0 26.560000000000002h7.466666666666666a2.6666666666666665 2.6666666666666665 0 0 1 2.6666666666666665 2.6666666666666665v3.52a13.333333333333332 13.333333333333332 0 1 0 26.560000000000002 0v-4.4799999999999995a2.5599999999999996 2.5599999999999996 0 0 1 2.0266666666666664 -2.5599999999999996 34.239999999999995 34.239999999999995 0 0 0 27.199999999999996 -33.38666666666666 33.81333333333333 33.81333333333333 0 0 0 -21.333333333333332 -32l-32 -12.906666666666666a7.573333333333332 7.573333333333332 0 0 1 -4.586666666666666 -7.04 7.573333333333332 7.573333333333332 0 0 1 7.893333333333333 -7.253333333333334h32a13.333333333333332 13.333333333333332 0 1 0 0 -26.560000000000002h-7.359999999999999a2.6666666666666665 2.6666666666666665 0 0 1 -3.3066666666666666 -2.6666666666666665v-3.52A13.333333333333332 13.333333333333332 0 0 0 125.33333333333333 0Z"/></g></svg>