<svg xmlns="http://www.w3.org/2000/svg" id="Business-Pearl--Streamline-Ultimate" width="256" height="256" viewBox="0 0 256 256"><desc>Business Pearl Streamline Icon: https://streamlinehq.com</desc><g id="Business-Pearl--Streamline-Ultimate.svg"><path fill="#fff" stroke-width="10.667" d="M55.78666666666667 130.34666666666666c-20.266666666666666 10.666666666666666 -37.12 24.53333333333333 -37.12 45.653333333333336C18.666666666666664 221.65333333333334 65.70666666666666 256 128 256s109.33333333333333 -34.346666666666664 109.33333333333333 -80c0 -21.333333333333332 -16.85333333333333 -34.773333333333326 -37.12 -45.653333333333336a2.6666666666666665 2.6666666666666665 0 0 1 0 -4.693333333333333c20.266666666666666 -10.666666666666666 37.12 -24.53333333333333 37.12 -45.653333333333336C237.33333333333331 34.346666666666664 190.29333333333332 0 128 0S18.666666666666664 34.346666666666664 18.666666666666664 80c0 21.333333333333332 16.85333333333333 34.773333333333326 37.12 45.653333333333336a2.6666666666666665 2.6666666666666665 0 0 1 0 4.693333333333333Zm-3.413333333333333 -62.93333333333334 -6.506666666666666 3.9466666666666663a2.5599999999999996 2.5599999999999996 0 0 1 -2.986666666666667 0 2.7733333333333334 2.7733333333333334 0 0 1 -0.96 -2.88 60.693333333333335 60.693333333333335 0 0 1 32 -34.879999999999995 2.5599999999999996 2.5599999999999996 0 0 1 2.986666666666667 0 2.6666666666666665 2.6666666666666665 0 0 1 0.7466666666666667 2.88 43.413333333333334 43.413333333333334 0 0 0 -2.1333333333333333 7.253333333333334 8 8 0 0 0 15.68 3.093333333333333 37.54666666666667 37.54666666666667 0 0 1 19.413333333333334 -24 11.733333333333334 11.733333333333334 0 0 1 3.733333333333333 -1.1733333333333333 5.973333333333334 5.973333333333334 0 0 1 4.16 1.3866666666666667 5.546666666666667 5.546666666666667 0 0 1 1.7066666666666666 3.9466666666666663V48a8 8 0 0 0 16 0V27.306666666666665a5.546666666666667 5.546666666666667 0 0 1 1.7066666666666666 -3.9466666666666663 5.973333333333334 5.973333333333334 0 0 1 4.16 -1.3866666666666667 11.733333333333334 11.733333333333334 0 0 1 3.733333333333333 1.1733333333333333 37.54666666666667 37.54666666666667 0 0 1 19.413333333333334 24 8 8 0 0 0 15.68 -3.093333333333333 43.413333333333334 43.413333333333334 0 0 0 -2.1333333333333333 -7.253333333333334 2.6666666666666665 2.6666666666666665 0 0 1 0.7466666666666667 -2.88 2.5599999999999996 2.5599999999999996 0 0 1 2.986666666666667 0 60.693333333333335 60.693333333333335 0 0 1 32 34.879999999999995 2.7733333333333334 2.7733333333333334 0 0 1 -0.96 2.88 2.5599999999999996 2.5599999999999996 0 0 1 -2.986666666666667 0l-6.506666666666666 -3.9466666666666663a23.786666666666665 23.786666666666665 0 0 0 -27.41333333333333 4.373333333333333 23.893333333333334 23.893333333333334 0 0 1 -32 1.4933333333333334 25.386666666666663 25.386666666666663 0 0 0 -32 0 23.893333333333334 23.893333333333334 0 0 1 -32 -1.4933333333333334 23.786666666666665 23.786666666666665 0 0 0 -28.266666666666666 -4.693333333333333ZM160 130.66666666666666a32 32 0 1 1 -32 -32 32 32 0 0 1 32 32Zm-80.21333333333332 53.33333333333333a23.893333333333334 23.893333333333334 0 0 1 32 -1.4933333333333334 25.386666666666663 25.386666666666663 0 0 0 32 0 23.893333333333334 23.893333333333334 0 0 1 32 1.4933333333333334 23.786666666666665 23.786666666666665 0 0 0 27.41333333333333 4.373333333333333l6.506666666666666 -3.9466666666666663a2.5599999999999996 2.5599999999999996 0 0 1 2.986666666666667 0 2.7733333333333334 2.7733333333333334 0 0 1 0.96 2.88 60.693333333333335 60.693333333333335 0 0 1 -32 34.879999999999995 2.5599999999999996 2.5599999999999996 0 0 1 -2.986666666666667 0 2.6666666666666665 2.6666666666666665 0 0 1 -0.7466666666666667 -2.88 43.413333333333334 43.413333333333334 0 0 0 2.1333333333333333 -7.253333333333334 8 8 0 1 0 -15.68 -3.093333333333333 37.54666666666667 37.54666666666667 0 0 1 -19.413333333333334 24 11.733333333333334 11.733333333333334 0 0 1 -3.733333333333333 1.1733333333333333 5.973333333333334 5.973333333333334 0 0 1 -4.16 -1.3866666666666667 5.546666666666667 5.546666666666667 0 0 1 -1.7066666666666666 -3.9466666666666663V208a8 8 0 0 0 -16 0v20.69333333333333a5.546666666666667 5.546666666666667 0 0 1 -1.7066666666666666 3.9466666666666663 5.973333333333334 5.973333333333334 0 0 1 -4.16 1.3866666666666667 11.733333333333334 11.733333333333334 0 0 1 -3.733333333333333 -1.1733333333333333 37.54666666666667 37.54666666666667 0 0 1 -19.413333333333334 -24 8 8 0 1 0 -15.68 3.093333333333333 43.413333333333334 43.413333333333334 0 0 0 2.1333333333333333 7.253333333333334 2.6666666666666665 2.6666666666666665 0 0 1 -0.7466666666666667 2.88 2.5599999999999996 2.5599999999999996 0 0 1 -2.986666666666667 0 60.693333333333335 60.693333333333335 0 0 1 -32 -34.879999999999995 2.7733333333333334 2.7733333333333334 0 0 1 1.5999999999999999 -2.453333333333333 2.5599999999999996 2.5599999999999996 0 0 1 2.986666666666667 0l6.506666666666666 3.9466666666666663a23.786666666666665 23.786666666666665 0 0 0 27.626666666666665 -4.4799999999999995Z"/><path fill="#fff" stroke-width="10.667" d="M106.66666666666666 130.66666666666666a5.333333333333333 5.333333333333333 0 0 0 10.666666666666666 0 10.666666666666666 10.666666666666666 0 0 1 10.666666666666666 -10.666666666666666 5.333333333333333 5.333333333333333 0 0 0 0 -10.666666666666666 21.333333333333332 21.333333333333332 0 0 0 -21.333333333333332 21.333333333333332Z"/></g></svg>