<svg xmlns="http://www.w3.org/2000/svg" viewBox="0 0 256 256" id="Business-Contract-Give--Streamline-Ultimate" height="256" width="256">
  <desc>
    Business Contract Give Streamline Icon: https://streamlinehq.com
  </desc>
  <g id="Business-Contract-Give--Streamline-Ultimate.svg">
    <path d="M189.33333333333331 26.346666666666668h-106.66666666666666a10.666666666666666 10.666666666666666 0 0 0 0 21.333333333333332h101.33333333333333a5.333333333333333 5.333333333333333 0 0 1 5.333333333333333 5.333333333333333v84.26666666666667a0.96 0.96 0 0 0 0 0.7466666666666667l29.333333333333332 29.333333333333332a8 8 0 0 1 0 11.306666666666667 8 8 0 0 1 -11.306666666666667 0l-21.759999999999998 -22.08a13.44 13.44 0 0 0 -14.08 1.1733333333333333 13.12 13.12 0 0 0 -5.333333333333333 9.6 13.76 13.76 0 0 0 3.733333333333333 10.666666666666666l29.333333333333332 29.759999999999998a3.093333333333333 3.093333333333333 0 0 1 0.7466666666666667 1.92V224a64 64 0 0 0 10.026666666666666 25.599999999999998 2.7733333333333334 2.7733333333333334 0 0 0 1.8133333333333335 1.2799999999999998 43.626666666666665 43.626666666666665 0 0 0 40.42666666666666 -14.826666666666664 2.88 2.88 0 0 0 0 -2.88l-9.6 -18.56a2.88 2.88 0 0 1 0 -1.2799999999999998v-48c0 -15.466666666666665 -14.506666666666668 -29.439999999999998 -31.04 -43.519999999999996a2.6666666666666665 2.6666666666666665 0 0 1 -0.96 -2.1333333333333333V47.67999999999999a21.333333333333332 21.333333333333332 0 0 0 -21.333333333333332 -21.333333333333332Z" fill="#ffffff" stroke-width="10.6667"></path>
    <path d="M66.66666666666666 224h106.66666666666666a10.666666666666666 10.666666666666666 0 0 0 0 -21.333333333333332h-96a5.333333333333333 5.333333333333333 0 0 1 -5.333333333333333 -5.333333333333333v-73.70666666666666a2.7733333333333334 2.7733333333333334 0 0 0 -1.3866666666666667 -2.3466666666666667 8.426666666666666 8.426666666666666 0 0 1 -1.5999999999999999 -1.2799999999999998L39.68 90.66666666666666a8 8 0 0 1 11.306666666666667 -11.306666666666667l21.333333333333332 21.333333333333332a13.333333333333332 13.333333333333332 0 0 0 17.493333333333332 -12.053333333333331 13.76 13.76 0 0 0 -3.733333333333333 -10.666666666666666L56.74666666666667 48.53333333333333a3.093333333333333 3.093333333333333 0 0 1 -0.7466666666666667 -1.92V32A64 64 0 0 0 45.97333333333333 6.079999999999999a2.7733333333333334 2.7733333333333334 0 0 0 -1.8133333333333335 -1.2799999999999998A43.626666666666665 43.626666666666665 0 0 0 3.733333333333333 19.626666666666665a2.88 2.88 0 0 0 0 2.88l9.6 18.56a2.88 2.88 0 0 1 0 1.2799999999999998v48c0 17.066666666666666 17.813333333333333 32 36.373333333333335 48.10666666666666a2.3466666666666667 2.3466666666666667 0 0 1 0.96 2.0266666666666664v67.19999999999999A16 16 0 0 0 66.66666666666666 224Z" fill="#ffffff" stroke-width="10.6667"></path>
  </g>
</svg>