<svg xmlns="http://www.w3.org/2000/svg" id="Business-Card-Hand-2--Streamline-Ultimate" width="256" height="256" viewBox="0 0 256 256"><desc>Business Card Hand 2 Streamline Icon: https://streamlinehq.com</desc><g id="Business-Card-Hand-2--Streamline-Ultimate.svg"><path fill="#fff" stroke-width="10.667" d="M44.35946666666666 144.9685333333333c16.203733333333332 1.7984 31.294933333333333 -8.499199999999998 35.5296 -24.2432 0.6261333333333333 -1.0453333333333332 1.0442666666666667 -7.315199999999999 8.045866666666665 -7.315199999999999h28.423466666666663c8.808533333333333 -0.8426666666666667 13.401599999999998 -10.904533333333333 8.266666666666666 -18.112 -1.9327999999999999 -2.7136 -4.949333333333334 -4.455466666666666 -8.266666666666666 -4.772266666666667H67.7664c-6.0096 -0.35946666666666666 -11.994666666666667 1.0186666666666666 -17.2416 3.970133333333333 -8.7584 5.441066666666666 -15.1968 13.926400000000001 -18.077866666666665 23.82613333333333 -1.0058666666666665 3.3226666666666667 -4.052266666666666 5.608533333333334 -7.524266666666667 5.642666666666667H2.5599999999999996v74.50666666666666h25.60213333333333c7.989333333333333 11.735466666666667 21.2288 18.804266666666663 35.425066666666666 18.914133333333332h82.13546666666666c7.691733333333333 0.04053333333333333 15.130666666666666 -2.7487999999999997 20.8992 -7.8368 4.667733333333333 -4.020266666666666 8.047999999999998 -9.326933333333333 9.718399999999999 -15.256533333333332l2.2986666666666666 -7.9424v-17.65973333333333l-89.136 9.300266666666666c-10.888533333333331 1.1551999999999998 -20.638933333333334 -6.766933333333332 -21.73653333333333 -17.6608v-3.239466666666667c-6.136533333333333 2.6464 -12.753066666666665 3.997866666666667 -19.43573333333333 3.9712h-5.748266666666667c-4.298666666666667 -0.49173333333333336 -7.3856 -4.3744 -6.895999999999999 -8.673066666666667 0.2752 -4.4799999999999995 4.2048 -7.841066666666666 8.673066666666667 -7.419733333333333Z"/><path fill="#fff" stroke-width="10.667" d="m253.35573333333332 130.54826666666665 -8.046933333333332 -78.79146666666666c-0.7690666666666666 -8.042666666666666 -7.9530666666666665 -13.912533333333332 -15.988266666666664 -13.062399999999998L88.35306666666665 53.114666666666665c-3.856 0.3104 -7.411199999999999 2.2016 -9.822933333333333 5.2256 -2.4106666666666667 2.9226666666666667 -3.5744 6.676266666666667 -3.239466666666667 10.449066666666667l0.4181333333333333 6.061866666666667h40.440533333333335c20.874666666666666 1.2959999999999998 32.5184 24.703999999999997 20.957866666666668 42.1344 -4.705066666666666 7.093333333333334 -12.461866666666666 11.572266666666666 -20.957866666666668 12.0992H93.68213333333333c-2.2901333333333334 6.328533333333334 -5.8453333333333335 12.1248 -10.450133333333333 17.0336l1.4634666666666665 12.539733333333333c0.09706666666666666 1.0965333333333334 0.6229333333333333 2.1098666666666666 1.4624 2.8213333333333335 0.8415999999999999 0.7104 1.9349333333333334 1.0495999999999999 3.0304 0.9408l151.31413333333333 -15.7792c7.973333333333334 -0.9290666666666666 13.709866666666667 -8.110933333333332 12.853333333333333 -16.092799999999997Zm-67.61066666666666 -61.967999999999996 22.885333333333335 -2.2986666666666666c6.153599999999999 -0.6026666666666667 10.6528 5.681066666666666 8.098133333333333 11.313066666666666 -1.1850666666666667 2.6133333333333333 -3.674666666666666 4.395733333333333 -6.531199999999999 4.6752l-22.885333333333335 2.2986666666666666c-6.0266666666666655 0.26026666666666665 -10.075733333333332 -6.1024 -7.2864 -11.4528 1.1477333333333333 -2.2005333333333335 3.2682666666666664 -3.726933333333333 5.7194666666666665 -4.117333333333333Zm31.349333333333334 46.71146666666667 -47.337599999999995 4.9109333333333325c-6.033066666666667 0.3221333333333333 -10.152533333333333 -6.008533333333333 -7.4144000000000005 -11.394133333333333 1.2704 -2.4992 3.7781333333333333 -4.1312 6.578133333333334 -4.280533333333333l47.651199999999996 -4.8064c6.027733333333334 -0.26026666666666665 10.075733333333332 6.1024 7.287466666666667 11.4528 -1.1477333333333333 2.2005333333333335 -3.269333333333333 3.726933333333333 -5.7194666666666665 4.117333333333333Z"/></g></svg>