<svg xmlns="http://www.w3.org/2000/svg" viewBox="0 0 256 256" id="Business-Lucky-Cat--Streamline-Ultimate" height="256" width="256">
  <desc>
    Business Lucky Cat Streamline Icon: https://streamlinehq.com
  </desc>
  <g id="Business-Lucky-Cat--Streamline-Ultimate.svg">
    <path d="M0 120.10666666666665a44.373333333333335 44.373333333333335 0 0 0 15.04 32 5.333333333333333 5.333333333333333 0 0 0 3.733333333333333 1.4933333333333334 3.626666666666667 3.626666666666667 0 0 0 1.4933333333333334 0 5.226666666666667 5.226666666666667 0 0 0 3.733333333333333 -4.266666666666667 160 160 0 0 1 13.44 -39.46666666666667l4.586666666666666 -8.746666666666666A4.906666666666666 4.906666666666666 0 0 0 42.666666666666664 98.66666666666666v-42.666666666666664a11.2 11.2 0 0 0 -10.666666666666666 -10.666666666666666 30.186666666666667 30.186666666666667 0 0 0 -12.586666666666666 1.8133333333333335A28.266666666666666 28.266666666666666 0 0 0 0 72.10666666666665Z" fill="#ffffff" stroke-width="10.6667"></path>
    <path d="M219.73333333333335 112.85333333333332a5.333333333333333 5.333333333333333 0 0 0 -6.826666666666666 6.933333333333334 170.66666666666666 170.66666666666666 0 0 1 11.946666666666667 59.199999999999996 88.21333333333332 88.21333333333332 0 0 1 -4.373333333333333 28.266666666666666 5.333333333333333 5.333333333333333 0 0 0 1.7066666666666666 5.866666666666667 5.119999999999999 5.119999999999999 0 0 0 5.973333333333334 0 55.89333333333333 55.89333333333333 0 0 0 -8.426666666666666 -100.69333333333333Z" fill="#ffffff" stroke-width="10.6667"></path>
    <path d="M122.66666666666666 247.89333333333332c47.57333333333333 0 86.18666666666667 -21.333333333333332 86.18666666666667 -69.01333333333332a156.48 156.48 0 0 0 -12.799999999999999 -57.919999999999995 5.546666666666667 5.546666666666667 0 0 0 -3.413333333333333 -2.986666666666667 5.333333333333333 5.333333333333333 0 0 0 -4.586666666666666 0.8533333333333333 65.70666666666666 65.70666666666666 0 0 1 -38.72 11.733333333333334H96a65.70666666666666 65.70666666666666 0 0 1 -38.72 -11.733333333333334 5.226666666666667 5.226666666666667 0 0 0 -3.9466666666666663 -0.8533333333333333 5.546666666666667 5.546666666666667 0 0 0 -3.52 2.986666666666667 156.48 156.48 0 0 0 -12.799999999999999 57.919999999999995c-0.5333333333333333 47.57333333333333 37.65333333333333 69.01333333333332 85.65333333333332 69.01333333333332Zm0 -106.66666666666666a15.893333333333333 15.893333333333333 0 0 1 9.6 28.69333333333333 2.453333333333333 2.453333333333333 0 0 1 -2.7733333333333334 0 2.453333333333333 2.453333333333333 0 0 1 -1.4933333333333334 -2.3466666666666667v-5.226666666666667a5.333333333333333 5.333333333333333 0 0 0 -10.666666666666666 0v5.226666666666667a2.453333333333333 2.453333333333333 0 0 1 -1.4933333333333334 2.3466666666666667 2.453333333333333 2.453333333333333 0 0 1 -2.7733333333333334 0 15.893333333333333 15.893333333333333 0 0 1 9.6 -28.69333333333333Z" fill="#ffffff" stroke-width="10.6667"></path>
    <path d="M178.66666666666666 8.853333333333332a5.333333333333333 5.333333333333333 0 0 0 -5.333333333333333 0L138.66666666666666 28.586666666666666a1.8133333333333335 1.8133333333333335 0 0 1 -1.4933333333333334 0l-14.08 0 -14.186666666666667 0a1.7066666666666666 1.7066666666666666 0 0 1 -1.3866666666666667 0L72.10666666666665 9.386666666666667a5.013333333333333 5.013333333333333 0 0 0 -5.333333333333333 0A5.226666666666667 5.226666666666667 0 0 0 64 13.866666666666667v31.04a2.88 2.88 0 0 1 0 1.2799999999999998A44.373333333333335 44.373333333333335 0 0 0 53.33333333333333 74.66666666666666a40.10666666666666 40.10666666666666 0 0 0 42.666666666666664 39.78666666666666h53.33333333333333A40.10666666666666 40.10666666666666 0 0 0 192 74.66666666666666a44.373333333333335 44.373333333333335 0 0 0 -10.666666666666666 -28.8 2.88 2.88 0 0 1 0 -1.2799999999999998V13.44a5.119999999999999 5.119999999999999 0 0 0 -2.6666666666666665 -4.586666666666666ZM106.66666666666666 71.14666666666666a6.293333333333333 6.293333333333333 0 0 1 -2.7733333333333334 0.7466666666666667 5.333333333333333 5.333333333333333 0 0 1 -4.586666666666666 -2.6666666666666665A16.21333333333333 16.21333333333333 0 0 0 85.33333333333333 61.33333333333333a5.333333333333333 5.333333333333333 0 0 1 -5.333333333333333 -5.333333333333333 5.333333333333333 5.333333333333333 0 0 1 5.333333333333333 -5.333333333333333A26.986666666666665 26.986666666666665 0 0 1 108.26666666666667 64a5.4399999999999995 5.4399999999999995 0 0 1 -1.5999999999999999 7.1466666666666665Zm53.33333333333333 -9.813333333333333a16.21333333333333 16.21333333333333 0 0 0 -13.76 7.893333333333333 5.333333333333333 5.333333333333333 0 0 1 -4.586666666666666 2.6666666666666665 6.293333333333333 6.293333333333333 0 0 1 -2.986666666666667 -0.7466666666666667 5.4399999999999995 5.4399999999999995 0 0 1 -1.5999999999999999 -7.1466666666666665A26.986666666666665 26.986666666666665 0 0 1 160 50.666666666666664a5.333333333333333 5.333333333333333 0 0 1 5.333333333333333 5.333333333333333 5.333333333333333 5.333333333333333 0 0 1 -5.333333333333333 5.333333333333333Z" fill="#ffffff" stroke-width="10.6667"></path>
  </g>
</svg>