<svg xmlns="http://www.w3.org/2000/svg" id="Button-Fast-Forward-1--Streamline-Ultimate" width="256" height="256" viewBox="0 0 256 256"><desc>Button Fast Forward 1 Streamline Icon: https://streamlinehq.com</desc><path fill="#fff" stroke-width="10.667" d="M128 0a128 128 0 1 0 128 128A128 128 0 0 0 128 0Zm67.62666666666667 136.2133333333333 -44.906666666666666 36.8a10.666666666666666 10.666666666666666 0 0 1 -17.386666666666663 -8.32v-5.76a2.6666666666666665 2.6666666666666665 0 0 0 -1.3866666666666667 -2.3466666666666667 2.88 2.88 0 0 0 -2.7733333333333334 0L101.86666666666667 174.9333333333333A10.666666666666666 10.666666666666666 0 0 1 85.33333333333333 165.97333333333333V89.91999999999999a10.666666666666666 10.666666666666666 0 0 1 16.53333333333333 -8.853333333333332l27.306666666666665 18.24a2.88 2.88 0 0 0 2.7733333333333334 0 2.7733333333333334 2.7733333333333334 0 0 0 1.3866666666666667 -2.3466666666666667v-5.76a10.666666666666666 10.666666666666666 0 0 1 17.386666666666663 -8.213333333333333l44.906666666666666 36.69333333333333a10.666666666666666 10.666666666666666 0 0 1 0 16.53333333333333Z"/></svg>