<svg xmlns="http://www.w3.org/2000/svg" id="Button-Loop--Streamline-Ultimate" width="256" height="256" viewBox="0 0 256 256"><desc>Button Loop Streamline Icon: https://streamlinehq.com</desc><path fill="#fff" stroke-width="10.667" d="M234.66666666666666 82.45333333333333a64 64 0 0 0 -73.06666666666666 -12.586666666666666 62.29333333333333 62.29333333333333 0 0 0 -24.426666666666666 21.333333333333332L96.96 149.33333333333331a37.12 37.12 0 0 1 -13.973333333333333 12.799999999999999 37.65333333333333 37.65333333333333 0 1 1 10.666666666666666 -60.693333333333335 13.333333333333332 13.333333333333332 0 0 0 18.88 -18.88A64 64 0 0 0 2.7733333333333334 128a64 64 0 0 0 64 64 64.63999999999999 64.63999999999999 0 0 0 27.52 -6.186666666666666 63.14666666666666 63.14666666666666 0 0 0 24.426666666666666 -21.333333333333332L159.04 106.66666666666666a36.266666666666666 36.266666666666666 0 0 1 13.973333333333333 -12.799999999999999 37.65333333333333 37.65333333333333 0 1 1 -10.666666666666666 60.693333333333335 13.333333333333332 13.333333333333332 0 0 0 -18.88 18.773333333333333A64 64 0 0 0 234.66666666666666 82.45333333333333Z"/></svg>