<svg xmlns="http://www.w3.org/2000/svg" id="Button-Zigzag-1--Streamline-Ultimate" width="256" height="256" viewBox="0 0 256 256"><desc>Button Zigzag 1 Streamline Icon: https://streamlinehq.com</desc><path fill="#fff" stroke-width="10.667" d="M90.98666666666665 21.333333333333332a50.666666666666664 50.666666666666664 0 0 0 -50.666666666666664 50.666666666666664V170.66666666666666a2.6666666666666665 2.6666666666666665 0 0 1 -2.6666666666666665 2.6666666666666665h-21.333333333333332A10.666666666666666 10.666666666666666 0 0 0 8.64 192l37.54666666666667 37.33333333333333a10.666666666666666 10.666666666666666 0 0 0 7.466666666666666 3.093333333333333 10.666666666666666 10.666666666666666 0 0 0 7.573333333333332 -3.093333333333333L98.77333333333333 192a10.666666666666666 10.666666666666666 0 0 0 2.3466666666666667 -11.626666666666667 10.666666666666666 10.666666666666666 0 0 0 -9.92 -6.613333333333333h-21.333333333333332a2.6666666666666665 2.6666666666666665 0 0 1 -2.88 -3.093333333333333V72a24 24 0 0 1 48 0v112a50.666666666666664 50.666666666666664 0 1 0 101.33333333333333 0l0 -98.56a2.5599999999999996 2.5599999999999996 0 0 1 0.7466666666666667 -1.92 3.093333333333333 3.093333333333333 0 0 1 1.92 -0.7466666666666667h21.333333333333332a10.666666666666666 10.666666666666666 0 0 0 7.573333333333332 -18.133333333333333l-36.906666666666666 -37.33333333333333a10.666666666666666 10.666666666666666 0 0 0 -15.04 0L157.33333333333331 64a10.666666666666666 10.666666666666666 0 0 0 7.466666666666666 18.346666666666664h21.866666666666664a2.6666666666666665 2.6666666666666665 0 0 1 2.6666666666666665 2.6666666666666665l0 98.66666666666666a24 24 0 0 1 -48 0V72A50.666666666666664 50.666666666666664 0 0 0 90.98666666666665 21.333333333333332Z"/></svg>