<svg xmlns="http://www.w3.org/2000/svg" id="Button-Play--Streamline-Ultimate" width="256" height="256" fill="none" viewBox="0 0 256 256"><desc>Button Play Streamline Icon: https://streamlinehq.com</desc><path fill="#fff" stroke-width="10.667" d="M128 0C102.68405333333334 0 77.93653333333333 7.507071999999999 56.88704 21.571839999999998 35.83754666666667 35.63669333333333 19.431466666666665 55.627626666666664 9.743477333333333 79.01653333333333 0.05546058666666666 102.40544 -2.4793706666666666 128.14186666666666 2.459541333333333 152.97173333333333c4.938912 24.829866666666664 17.12968533333333 47.63733333333333 35.03080533333333 65.53813333333332 17.90112 17.900799999999997 40.70858666666666 30.09173333333333 65.53813333333332 35.0304 24.829653333333333 4.938666666666666 50.56618666666666 2.4042666666666666 73.95498666666666 -7.283199999999999 23.388799999999996 -9.688533333333332 43.38026666666667 -26.094933333333334 57.444266666666664 -47.144533333333335C248.4928 178.064 256 153.31626666666665 256 128c0 -33.94773333333333 -13.485866666666666 -66.50506666666666 -37.49013333333333 -90.50965333333332C194.5045333333333 13.485653333333333 161.94773333333333 0 128 0Zm51.519999999999996 137.49333333333334 -78.71989333333333 39.36c-1.6237866666666667 0.8181333333333334 -3.4298666666666664 1.2074666666666665 -5.246506666666667 1.1317333333333333 -1.8167466666666665 -0.07573333333333333 -3.5837866666666667 -0.6154666666666666 -5.13344 -1.5669333333333333 -1.549653333333333 -0.9503999999999999 -2.8305066666666665 -2.2826666666666666 -3.720746666666667 -3.867733333333333 -0.89024 -1.5850666666666666 -1.3605333333333332 -3.3717333333333332 -1.3659733333333333 -5.1903999999999995V88.64c-0.012799999999999999 -1.8273066666666664 0.4440533333333333 -3.6273066666666662 1.3268266666666666 -5.227306666666666 0.8827733333333333 -1.5998933333333334 2.1617066666666664 -2.946346666666667 3.7143466666666662 -3.9099733333333333 1.5525333333333333 -0.9637333333333333 3.32672 -1.5124266666666666 5.15232 -1.5933866666666667 1.8254933333333332 -0.08106666666666666 3.64128 0.30826666666666663 5.273173333333333 1.1306666666666665L179.51999999999998 118.39999999999999c1.7749333333333333 0.8842666666666666 3.2682666666666664 2.2464 4.312533333333333 3.9328000000000003 1.0432 1.6864 1.5957333333333334 3.630933333333333 1.5957333333333334 5.613866666666667s-0.5525333333333333 3.9274666666666667 -1.5957333333333334 5.613866666666667c-1.0442666666666667 1.6864 -2.5376 3.0485333333333333 -4.312533333333333 3.9328000000000003Z"/></svg>