<svg xmlns="http://www.w3.org/2000/svg" viewBox="0 0 256 256" id="Calendar-Edit-1--Streamline-Ultimate" height="256" width="256">
  <desc>
    Calendar Edit 1 Streamline Icon: https://streamlinehq.com
  </desc>
  <g id="Calendar-Edit-1--Streamline-Ultimate.svg">
    <path d="M26.666666666666664 176A5.333333333333333 5.333333333333333 0 0 1 21.333333333333332 170.66666666666666V80a5.333333333333333 5.333333333333333 0 0 1 5.333333333333333 -5.333333333333333H170.66666666666666a5.333333333333333 5.333333333333333 0 0 1 5.333333333333333 5.333333333333333v50.986666666666665a2.6666666666666665 2.6666666666666665 0 0 0 1.5999999999999999 2.453333333333333 2.7733333333333334 2.7733333333333334 0 0 0 2.986666666666667 -0.6399999999999999l16 -16a2.7733333333333334 2.7733333333333334 0 0 0 0.7466666666666667 -1.8133333333333335V32a10.666666666666666 10.666666666666666 0 0 0 -10.666666666666666 -10.666666666666666H160a2.6666666666666665 2.6666666666666665 0 0 1 -2.6666666666666665 -2.6666666666666665v-10.666666666666666a8 8 0 0 0 -16 0V48a8 8 0 0 1 -16 0v-21.333333333333332a5.333333333333333 5.333333333333333 0 0 0 -5.333333333333333 -5.333333333333333H74.66666666666666a2.6666666666666665 2.6666666666666665 0 0 1 -2.6666666666666665 -2.6666666666666665v-10.666666666666666a8 8 0 0 0 -16 0V48a8 8 0 0 1 -16 0v-21.333333333333332a5.333333333333333 5.333333333333333 0 0 0 -5.333333333333333 -5.333333333333333H10.666666666666666a10.666666666666666 10.666666666666666 0 0 0 -10.666666666666666 10.666666666666666v144a21.333333333333332 21.333333333333332 0 0 0 21.333333333333332 21.333333333333332h93.65333333333332a2.7733333333333334 2.7733333333333334 0 0 0 1.8133333333333335 -0.7466666666666667l16 -16a2.88 2.88 0 0 0 0.6399999999999999 -2.88 2.6666666666666665 2.6666666666666665 0 0 0 -2.453333333333333 -1.7066666666666666Z" fill="#ffffff" stroke-width="10.6667"></path>
    <path d="m124.16 256 33.06666666666666 -9.386666666666667a5.333333333333333 5.333333333333333 0 0 0 2.3466666666666667 -8.959999999999999l-23.68 -23.57333333333333a5.119999999999999 5.119999999999999 0 0 0 -5.119999999999999 -1.3866666666666667 5.119999999999999 5.119999999999999 0 0 0 -3.733333333333333 3.626666666666667L117.33333333333333 249.17333333333332a5.333333333333333 5.333333333333333 0 0 0 6.613333333333333 6.613333333333333Z" fill="#ffffff" stroke-width="10.6667"></path>
    <path d="m139.23156874026665 194.64338623253332 53.4761288384 -53.4761288384s3.7712361664 -3.7712361664 7.5424723328 0l31.9800826912 31.980082690133333s3.7712361653333333 3.7712361664 0 7.5424723328l-53.47612883946667 53.4761288384s-3.7712361664 3.7712361664 -7.542472331733333 0l-31.9800826912 -31.980082690133333s-3.7712361664 -3.7712361664 0 -7.5424723328" fill="#ffffff" stroke-width="10.6667"></path>
    <path d="M247.78666666666666 165.12a27.946666666666665 27.946666666666665 0 1 0 -40 -39.04 5.119999999999999 5.119999999999999 0 0 0 0 7.466666666666666l32 32a5.973333333333334 5.973333333333334 0 0 0 8 -0.42666666666666664Z" fill="#ffffff" stroke-width="10.6667"></path>
  </g>
</svg>