<svg xmlns="http://www.w3.org/2000/svg" viewBox="0 0 256 256" id="Calendar-3--Streamline-Ultimate" height="256" width="256">
  <desc>
    Calendar 3 Streamline Icon: https://streamlinehq.com
  </desc>
  <g id="Calendar-3--Streamline-Ultimate.svg">
    <path d="M80 112h-10.666666666666666a10.666666666666666 10.666666666666666 0 0 0 0 21.333333333333332h10.666666666666666a10.666666666666666 10.666666666666666 0 0 0 0 -21.333333333333332Z" fill="#ffffff" stroke-width="10.6667"></path>
    <path d="M133.33333333333331 112h-10.666666666666666a10.666666666666666 10.666666666666666 0 0 0 0 21.333333333333332h10.666666666666666a10.666666666666666 10.666666666666666 0 0 0 0 -21.333333333333332Z" fill="#ffffff" stroke-width="10.6667"></path>
    <path d="M186.66666666666666 112h-10.666666666666666a10.666666666666666 10.666666666666666 0 0 0 0 21.333333333333332h10.666666666666666a10.666666666666666 10.666666666666666 0 0 0 0 -21.333333333333332Z" fill="#ffffff" stroke-width="10.6667"></path>
    <path d="M80 154.66666666666666h-10.666666666666666a10.666666666666666 10.666666666666666 0 0 0 0 21.333333333333332h10.666666666666666a10.666666666666666 10.666666666666666 0 0 0 0 -21.333333333333332Z" fill="#ffffff" stroke-width="10.6667"></path>
    <path d="M133.33333333333331 154.66666666666666h-10.666666666666666a10.666666666666666 10.666666666666666 0 0 0 0 21.333333333333332h10.666666666666666a10.666666666666666 10.666666666666666 0 0 0 0 -21.333333333333332Z" fill="#ffffff" stroke-width="10.6667"></path>
    <path d="M186.66666666666666 154.66666666666666h-10.666666666666666a10.666666666666666 10.666666666666666 0 0 0 0 21.333333333333332h10.666666666666666a10.666666666666666 10.666666666666666 0 0 0 0 -21.333333333333332Z" fill="#ffffff" stroke-width="10.6667"></path>
    <path d="M80 197.33333333333331h-10.666666666666666a10.666666666666666 10.666666666666666 0 0 0 0 21.333333333333332h10.666666666666666a10.666666666666666 10.666666666666666 0 0 0 0 -21.333333333333332Z" fill="#ffffff" stroke-width="10.6667"></path>
    <path d="M133.33333333333331 197.33333333333331h-10.666666666666666a10.666666666666666 10.666666666666666 0 0 0 0 21.333333333333332h10.666666666666666a10.666666666666666 10.666666666666666 0 0 0 0 -21.333333333333332Z" fill="#ffffff" stroke-width="10.6667"></path>
    <path d="M186.66666666666666 197.33333333333331h-10.666666666666666a10.666666666666666 10.666666666666666 0 0 0 0 21.333333333333332h10.666666666666666a10.666666666666666 10.666666666666666 0 0 0 0 -21.333333333333332Z" fill="#ffffff" stroke-width="10.6667"></path>
    <path d="M229.33333333333331 32h-29.333333333333332a2.6666666666666665 2.6666666666666665 0 0 1 -2.6666666666666665 -2.6666666666666665V10.666666666666666a10.666666666666666 10.666666666666666 0 0 0 -21.333333333333332 0v50.666666666666664a8 8 0 0 1 -16 0V37.33333333333333a5.333333333333333 5.333333333333333 0 0 0 -5.333333333333333 -5.333333333333333H88A2.6666666666666665 2.6666666666666665 0 0 1 85.33333333333333 29.333333333333332V10.666666666666666a10.666666666666666 10.666666666666666 0 0 0 -21.333333333333332 0v50.666666666666664a8 8 0 0 1 -16 0V37.33333333333333A5.333333333333333 5.333333333333333 0 0 0 42.666666666666664 32H26.666666666666664a21.333333333333332 21.333333333333332 0 0 0 -21.333333333333332 21.333333333333332v181.33333333333331a21.333333333333332 21.333333333333332 0 0 0 21.333333333333332 21.333333333333332h202.66666666666666a21.333333333333332 21.333333333333332 0 0 0 21.333333333333332 -21.333333333333332V53.33333333333333a21.333333333333332 21.333333333333332 0 0 0 -21.333333333333332 -21.333333333333332Zm0 197.33333333333331a5.333333333333333 5.333333333333333 0 0 1 -5.333333333333333 5.333333333333333H32a5.333333333333333 5.333333333333333 0 0 1 -5.333333333333333 -5.333333333333333v-128A5.333333333333333 5.333333333333333 0 0 1 32 96h192a5.333333333333333 5.333333333333333 0 0 1 5.333333333333333 5.333333333333333Z" fill="#ffffff" stroke-width="10.6667"></path>
  </g>
</svg>