<svg xmlns="http://www.w3.org/2000/svg" fill="none" viewBox="0 0 256 256" id="Call-Forwarding-Outgoing-1--Streamline-Ultimate" height="256" width="256">
  <desc>
    Call Forwarding Outgoing 1 Streamline Icon: https://streamlinehq.com
  </desc>
  <path fill="#ffffff" fill-rule="evenodd" d="M7.844096 43.39306666666667C14.015573333333332 18.707306666666668 36.25664 0 62.53856 0h9.6c12.951573333333332 0 24 11.048426666666666 24 24v39.46666666666667c0 12.951573333333332 -11.048426666666666 24 -24 24 -4.115093333333333 0 -8 3.8849066666666663 -8 8v64c0 4.1152 3.8849066666666663 8 8 8 12.95168 0 24 11.048533333333333 24 24v40.53333333333333c0 12.951466666666665 -11.048426666666666 24 -24 24h-9.6c-26.108373333333333 0 -48.52533333333333 -17.480533333333334 -54.71577599999999 -43.48053333333333l-0.027935999999999996 -0.11733333333333332 0.0008853333333333332 0C-3.1448106666666664 163.17013333333333 -2.028757333333333 91.62304 7.767509333333333 43.730133333333335c0.023104 -0.11285333333333333 0.04862933333333333 -0.22527999999999998 0.07658666666666666 -0.3370666666666667ZM116.79893333333332 128c0 -5.8911999999999995 4.776533333333333 -10.666666666666666 10.666666666666666 -10.666666666666666h67.73333333333332V82.66666666666666c0 -3.2442666666666664 1.9594666666666667 -6.1673599999999995 4.9610666666666665 -7.400106666666667 3.0005333333333333 -1.23264 6.449066666666667 -0.5307733333333333 8.7296 1.7768533333333334l44.8 45.333119999999994c3.079466666666667 3.1168 3.079466666666667 8.130133333333333 0 11.246933333333333l-44.8 45.33333333333333c-2.280533333333333 2.3072 -5.729066666666666 3.0090666666666666 -8.7296 1.7770666666666666 -3.0016 -1.2330666666666665 -4.9610666666666665 -4.155733333333333 -4.9610666666666665 -7.400533333333333V138.66666666666666h-67.73333333333332c-5.890133333333333 0 -10.666666666666666 -4.7754666666666665 -10.666666666666666 -10.666666666666666Z" clip-rule="evenodd" stroke-width="10.6667"></path>
</svg>