<svg xmlns="http://www.w3.org/2000/svg" id="Camera-Display--Streamline-Ultimate" width="256" height="256" viewBox="0 0 256 256"><desc>Camera Display Streamline Icon: https://streamlinehq.com</desc><g id="Camera-Display--Streamline-Ultimate.svg"><path fill="#fff" stroke-width="10.667" d="M228.69333333333333 65.28h-13.973333333333333a5.653333333333333 5.653333333333333 0 0 1 -5.119999999999999 -3.626666666666667C202.66666666666666 47.67999999999999 196.16 33.28 181.33333333333331 33.28h-53.33333333333333c-11.413333333333334 0 -17.493333333333332 8.32 -28.373333333333335 23.46666666666667 -4.053333333333333 5.546666666666667 -5.4399999999999995 8.533333333333333 -8.959999999999999 8.533333333333333h-64C4.586666666666666 65.28 0 78.18666666666667 0 89.06666666666666v110.82666666666667a24 24 0 0 0 27.306666666666665 25.386666666666663h201.38666666666666A24 24 0 0 0 256 199.89333333333332V89.06666666666666c0 -10.879999999999999 -4.693333333333333 -23.786666666666665 -27.306666666666665 -23.786666666666665Zm-15.36 64h-26.666666666666664a5.333333333333333 5.333333333333333 0 0 1 -5.333333333333333 -5.333333333333333 5.333333333333333 5.333333333333333 0 0 1 5.333333333333333 -5.333333333333333H213.33333333333331a5.333333333333333 5.333333333333333 0 0 1 5.333333333333333 5.333333333333333 5.333333333333333 5.333333333333333 0 0 1 -5.333333333333333 5.333333333333333Zm5.333333333333333 26.666666666666664a5.333333333333333 5.333333333333333 0 0 1 -5.333333333333333 5.333333333333333h-26.666666666666664a5.333333333333333 5.333333333333333 0 0 1 -5.333333333333333 -5.333333333333333 5.333333333333333 5.333333333333333 0 0 1 5.333333333333333 -5.333333333333333H213.33333333333331a5.333333333333333 5.333333333333333 0 0 1 5.333333333333333 5.333333333333333Zm-64 -37.33333333333333v64a10.666666666666666 10.666666666666666 0 0 1 -10.666666666666666 10.666666666666666H42.666666666666664a10.666666666666666 10.666666666666666 0 0 1 -10.666666666666666 -10.666666666666666v-64a10.666666666666666 10.666666666666666 0 0 1 10.666666666666666 -10.666666666666666h101.33333333333333a10.666666666666666 10.666666666666666 0 0 1 10.666666666666666 10.666666666666666Z"/><path fill="#fff" stroke-width="10.667" d="M26.666666666666664 54.50666666666667h32a5.226666666666667 5.226666666666667 0 0 0 5.333333333333333 -5.333333333333333v-2.453333333333333a16 16 0 0 0 -16 -16h-10.666666666666666A16 16 0 0 0 21.333333333333332 46.72v2.453333333333333a5.333333333333333 5.333333333333333 0 0 0 5.333333333333333 5.333333333333333Z"/></g></svg>