<svg xmlns="http://www.w3.org/2000/svg" viewBox="0 0 256 256" id="Camera-Small--Streamline-Ultimate" height="256" width="256">
  <desc>
    Camera Small Streamline Icon: https://streamlinehq.com
  </desc>
  <path d="M229.33333333333331 21.333333333333332H149.33333333333331a16 16 0 0 0 -16 16v13.333333333333332a2.6666666666666665 2.6666666666666665 0 0 1 -2.6666666666666665 2.6666666666666665h-10.666666666666666a2.6666666666666665 2.6666666666666665 0 0 1 -2.6666666666666665 -2.6666666666666665V48A48.10666666666666 48.10666666666666 0 0 0 69.33333333333333 0h-21.333333333333332A48.10666666666666 48.10666666666666 0 0 0 0 48v160A48.10666666666666 48.10666666666666 0 0 0 48 256h32A16 16 0 0 0 96 240v-104a2.6666666666666665 2.6666666666666665 0 0 1 2.6666666666666665 -2.6666666666666665h2.6666666666666665A16 16 0 0 0 117.33333333333333 117.33333333333333V88a2.6666666666666665 2.6666666666666665 0 0 1 2.6666666666666665 -2.6666666666666665h10.666666666666666a2.6666666666666665 2.6666666666666665 0 0 1 2.6666666666666665 2.6666666666666665V101.33333333333333A16 16 0 0 0 149.33333333333331 117.33333333333333h80A26.666666666666664 26.666666666666664 0 0 0 256 90.66666666666666v-42.666666666666664A26.666666666666664 26.666666666666664 0 0 0 229.33333333333331 21.333333333333332Zm-170.66666666666666 64A26.666666666666664 26.666666666666664 0 1 1 85.33333333333333 58.666666666666664 26.666666666666664 26.666666666666664 0 0 1 58.666666666666664 85.33333333333333Z" fill="#ffffff" stroke-width="10.6667"></path>
</svg>