<svg xmlns="http://www.w3.org/2000/svg" id="Camera-Tripod--Streamline-Ultimate" width="256" height="256" viewBox="0 0 256 256"><desc>Camera Tripod Streamline Icon: https://streamlinehq.com</desc><g id="Camera-Tripod--Streamline-Ultimate.svg"><path fill="#fff" stroke-width="10.667" d="M196.0533333333333 252.0533333333333a13.226666666666667 13.226666666666667 0 0 0 0 -18.773333333333333l-53.97333333333333 -53.97333333333333a3.093333333333333 3.093333333333333 0 0 1 -0.7466666666666667 -1.92v-36.05333333333333a2.6666666666666665 2.6666666666666665 0 0 1 2.6666666666666665 -2.6666666666666665H160a10.666666666666666 10.666666666666666 0 0 0 0 -21.333333333333332H96a10.666666666666666 10.666666666666666 0 0 0 0 21.333333333333332h16a2.6666666666666665 2.6666666666666665 0 0 1 2.6666666666666665 2.6666666666666665v36.05333333333333a3.093333333333333 3.093333333333333 0 0 1 -0.7466666666666667 1.92l-53.97333333333333 53.97333333333333a13.226666666666667 13.226666666666667 0 0 0 18.773333333333333 18.773333333333333l31.36 -31.36a2.7733333333333334 2.7733333333333334 0 0 1 2.986666666666667 -0.5333333333333333 2.6666666666666665 2.6666666666666665 0 0 1 1.5999999999999999 2.453333333333333v20.05333333333333a13.333333333333332 13.333333333333332 0 0 0 26.666666666666664 0v-20.05333333333333a2.6666666666666665 2.6666666666666665 0 0 1 1.5999999999999999 -2.453333333333333 2.7733333333333334 2.7733333333333334 0 0 1 2.986666666666667 0.5333333333333333l31.36 31.36a13.226666666666667 13.226666666666667 0 0 0 18.773333333333333 0Z"/><path fill="#fff" stroke-width="10.667" d="M122.66666666666666 58.666666666666664a21.333333333333332 21.333333333333332 0 1 0 42.666666666666664 0 21.333333333333332 21.333333333333332 0 1 0 -42.666666666666664 0"/><path fill="#fff" stroke-width="10.667" d="M58.666666666666664 90.66666666666666A16 16 0 0 0 74.66666666666666 106.66666666666666h106.66666666666666a16 16 0 0 0 16 -16v-64A16 16 0 0 0 181.33333333333331 10.666666666666666h-10.666666666666666a2.6666666666666665 2.6666666666666665 0 0 1 -2.3466666666666667 -1.3866666666666667 15.466666666666665 15.466666666666665 0 0 0 -14.933333333333332 -9.28h-24.106666666666662a15.466666666666665 15.466666666666665 0 0 0 -14.506666666666668 9.28 2.7733333333333334 2.7733333333333334 0 0 1 -2.3466666666666667 1.3866666666666667H74.66666666666666a16 16 0 0 0 -16 16Zm85.33333333333333 -64a32 32 0 1 1 -32 32 32 32 0 0 1 32 -32Z"/></g></svg>