<svg xmlns="http://www.w3.org/2000/svg" viewBox="0 0 256 256" id="Car-Dashboard-Warning--Streamline-Ultimate" height="256" width="256">
  <desc>
    Car Dashboard Warning Streamline Icon: https://streamlinehq.com
  </desc>
  <g id="Car-Dashboard-Warning--Streamline-Ultimate.svg">
    <path d="M216.10666666666668 126.39999999999999a88.85333333333332 88.85333333333332 0 0 0 -26.133333333333333 -61.86666666666666A85.86666666666667 85.86666666666667 0 0 0 128 39.78666666666666a89.6 89.6 0 0 0 -62.61333333333333 26.88 86.18666666666667 86.18666666666667 0 0 0 -25.493333333333332 62.72 86.50666666666666 86.50666666666666 0 0 0 86.61333333333332 86.61333333333332 88.96 88.96 0 0 0 89.6 -89.6ZM117.33333333333333 85.33333333333333a10.666666666666666 10.666666666666666 0 0 1 21.333333333333332 0v48a10.666666666666666 10.666666666666666 0 1 1 -21.333333333333332 0Zm10.666666666666666 96a13.333333333333332 13.333333333333332 0 0 1 0 -26.666666666666664 13.333333333333332 13.333333333333332 0 0 1 0 26.666666666666664Z" fill="#ffffff" stroke-width="10.6667"></path>
    <path d="M55.25333333333333 205.86666666666667a106.66666666666666 106.66666666666666 0 0 1 0 -155.62666666666667 10.666666666666666 10.666666666666666 0 0 0 -15.04 -15.466666666666665A126.72 126.72 0 0 0 0 128a128.64 128.64 0 0 0 40.74666666666666 93.65333333333332 10.666666666666666 10.666666666666666 0 0 0 7.253333333333334 2.3466666666666667 10.666666666666666 10.666666666666666 0 0 0 7.786666666666666 -3.3066666666666666 10.666666666666666 10.666666666666666 0 0 0 -0.5333333333333333 -14.826666666666664Z" fill="#ffffff" stroke-width="10.6667"></path>
    <path d="M215.57333333333332 34.45333333333333a10.666666666666666 10.666666666666666 0 0 0 -15.146666666666665 0 10.666666666666666 10.666666666666666 0 0 0 0.5333333333333333 15.04A105.91999999999999 105.91999999999999 0 0 1 234.66666666666666 128a106.66666666666666 106.66666666666666 0 0 1 -33.92 77.97333333333333 10.666666666666666 10.666666666666666 0 1 0 14.506666666666668 15.68 128 128 0 0 0 0 -187.0933333333333Z" fill="#ffffff" stroke-width="10.6667"></path>
  </g>
</svg>