<svg xmlns="http://www.w3.org/2000/svg" viewBox="0 0 256 256" id="Car-3--Streamline-Ultimate" height="256" width="256">
  <desc>
    Car 3 Streamline Icon: https://streamlinehq.com
  </desc>
  <path d="M244.69333333333333 102.61333333333332H245.33333333333331a10.666666666666666 10.666666666666666 0 0 0 10.666666666666666 -10.666666666666666v-10.666666666666666a10.666666666666666 10.666666666666666 0 0 0 -10.666666666666666 -10.666666666666666h-14.4a16 16 0 0 0 -12.799999999999999 6.506666666666666 0.96 0.96 0 0 1 -1.0666666666666667 0 1.2799999999999998 1.2799999999999998 0 0 1 -0.7466666666666667 -0.7466666666666667l-5.119999999999999 -25.599999999999998a32 32 0 0 0 -31.36 -25.706666666666667H76.16A32 32 0 0 0 44.8 51.093333333333334l-5.119999999999999 25.599999999999998a1.2799999999999998 1.2799999999999998 0 0 1 -0.7466666666666667 0.7466666666666667 0.96 0.96 0 0 1 -1.0666666666666667 0 16 16 0 0 0 -12.799999999999999 -6.506666666666666H10.666666666666666a10.666666666666666 10.666666666666666 0 0 0 -10.666666666666666 10.666666666666666v10.666666666666666a10.666666666666666 10.666666666666666 0 0 0 10.666666666666666 10.666666666666666h0.6399999999999999a2.6666666666666665 2.6666666666666665 0 0 1 2.453333333333333 1.7066666666666666 2.7733333333333334 2.7733333333333334 0 0 1 0 2.88A47.14666666666666 47.14666666666666 0 0 0 0 139.94666666666666v42.666666666666664a15.893333333333333 15.893333333333333 0 0 0 9.173333333333332 14.4 2.88 2.88 0 0 1 1.4933333333333334 2.453333333333333v15.146666666666665a16 16 0 0 0 16 16h21.333333333333332a16 16 0 0 0 16 -16v-13.226666666666667a2.7733333333333334 2.7733333333333334 0 0 1 2.6666666666666665 -2.7733333333333334h122.66666666666666a2.7733333333333334 2.7733333333333334 0 0 1 2.6666666666666665 2.7733333333333334v13.226666666666667a16 16 0 0 0 16 16h21.333333333333332a16 16 0 0 0 16 -16V199.46666666666664a2.88 2.88 0 0 1 1.4933333333333334 -2.453333333333333 15.893333333333333 15.893333333333333 0 0 0 9.173333333333332 -14.4v-42.666666666666664a47.14666666666666 47.14666666666666 0 0 0 -13.333333333333332 -32.74666666666666 2.7733333333333334 2.7733333333333334 0 0 1 0 -2.88 2.6666666666666665 2.6666666666666665 0 0 1 2.0266666666666664 -1.7066666666666666Zm-210.02666666666667 85.33333333333333H16a5.333333333333333 5.333333333333333 0 0 1 -5.333333333333333 -5.333333333333333v-5.333333333333333a5.333333333333333 5.333333333333333 0 0 1 5.333333333333333 -5.333333333333333h18.666666666666664a8.106666666666666 8.106666666666666 0 0 1 8 8.106666666666666 8 8 0 0 1 -8 7.893333333333333Zm22.613333333333333 -43.626666666666665a2.453333333333333 2.453333333333333 0 0 1 -2.0266666666666664 0.96H42.666666666666664a21.333333333333332 21.333333333333332 0 0 1 -21.333333333333332 -18.24 2.6666666666666665 2.6666666666666665 0 0 1 0.6399999999999999 -2.1333333333333333 2.986666666666667 2.986666666666667 0 0 1 2.0266666666666664 -0.96H48a7.253333333333334 7.253333333333334 0 0 1 6.613333333333333 5.226666666666667l3.1999999999999997 12.799999999999999a2.6666666666666665 2.6666666666666665 0 0 1 -0.5333333333333333 2.3466666666666667ZM170.66666666666666 141.6533333333333l-5.76 17.493333333333332a26.560000000000002 26.560000000000002 0 0 1 -25.28 18.133333333333333h-22.93333333333333a26.560000000000002 26.560000000000002 0 0 1 -25.28 -18.133333333333333L85.33333333333333 141.6533333333333a5.119999999999999 5.119999999999999 0 0 1 0.6399999999999999 -4.8 5.546666666666667 5.546666666666667 0 0 1 4.373333333333333 -2.2399999999999998h74.66666666666666a5.546666666666667 5.546666666666667 0 0 1 4.373333333333333 2.2399999999999998 5.119999999999999 5.119999999999999 0 0 1 1.2799999999999998 4.8Zm26.133333333333333 -50.666666666666664a2.6666666666666665 2.6666666666666665 0 0 1 -2.0266666666666664 0.96H61.54666666666666a2.6666666666666665 2.6666666666666665 0 0 1 -2.0266666666666664 -0.96 2.2399999999999998 2.2399999999999998 0 0 1 0 -2.1333333333333333l6.72 -33.599999999999994a10.666666666666666 10.666666666666666 0 0 1 10.666666666666666 -8.533333333333333h103.68a10.666666666666666 10.666666666666666 0 0 1 10.666666666666666 8.533333333333333l6.72 33.599999999999994a2.2399999999999998 2.2399999999999998 0 0 1 -1.4933333333333334 2.1333333333333333Zm4.266666666666667 54.29333333333333a2.453333333333333 2.453333333333333 0 0 1 -2.0266666666666664 -0.96 2.6666666666666665 2.6666666666666665 0 0 1 -0.5333333333333333 -2.3466666666666667l3.1999999999999997 -12.799999999999999a7.253333333333334 7.253333333333334 0 0 1 6.613333333333333 -5.226666666666667h23.786666666666665a2.986666666666667 2.986666666666667 0 0 1 2.0266666666666664 0.96 2.6666666666666665 2.6666666666666665 0 0 1 0.6399999999999999 2.1333333333333333 21.333333333333332 21.333333333333332 0 0 1 -21.333333333333332 18.24Zm44.58666666666666 32v5.333333333333333a5.333333333333333 5.333333333333333 0 0 1 -5.333333333333333 5.333333333333333h-18.986666666666665a8 8 0 0 1 -8 -7.893333333333333 8.106666666666666 8.106666666666666 0 0 1 8 -8.106666666666666h18.666666666666664a5.333333333333333 5.333333333333333 0 0 1 5.333333333333333 5.333333333333333Z" fill="#ffffff" stroke-width="10.6667"></path>
</svg>