<svg xmlns="http://www.w3.org/2000/svg" viewBox="0 0 256 256" id="Car-Repair-Engine--Streamline-Ultimate" height="256" width="256">
  <desc>
    Car Repair Engine Streamline Icon: https://streamlinehq.com
  </desc>
  <g id="Car-Repair-Engine--Streamline-Ultimate.svg">
    <path d="m244.37333333333333 148.48 -24.746666666666663 -19.946666666666665 -19.946666666666665 -35.946666666666665a26.77333333333333 26.77333333333333 0 0 0 -23.57333333333333 -13.973333333333333H117.33333333333333a26.986666666666665 26.986666666666665 0 0 0 -21.333333333333332 11.306666666666667l-23.36 28.69333333333333a2.7733333333333334 2.7733333333333334 0 0 1 -3.626666666666667 0.5333333333333333L50.02666666666667 105.81333333333333a44.58666666666666 44.58666666666666 0 0 0 -43.73333333333333 -4.266666666666667 10.666666666666666 10.666666666666666 0 0 0 8.746666666666666 19.413333333333334 23.68 23.68 0 0 1 22.72 2.2399999999999998l9.6 6.72a2.986666666666667 2.986666666666667 0 0 1 1.0666666666666667 2.5599999999999996 2.5599999999999996 2.5599999999999996 0 0 1 -1.7066666666666666 2.1333333333333333l-19.2 7.253333333333334a27.946666666666665 27.946666666666665 0 0 0 -18.666666666666664 34.13333333333333 27.626666666666665 27.626666666666665 0 0 0 20.266666666666666 19.2 2.453333333333333 2.453333333333333 0 0 0 2.88 -1.4933333333333334 32 32 0 0 1 58.56 0.6399999999999999 2.6666666666666665 2.6666666666666665 0 0 0 2.453333333333333 1.5999999999999999h82.98666666666666a2.6666666666666665 2.6666666666666665 0 0 0 2.453333333333333 -1.5999999999999999 32 32 0 0 1 58.13333333333333 -1.8133333333333335 2.6666666666666665 2.6666666666666665 0 0 0 3.413333333333333 1.2799999999999998 25.813333333333333 25.813333333333333 0 0 0 4.266666666666667 -45.33333333333333ZM160 131.94666666666666a10.666666666666666 10.666666666666666 0 0 1 -10.666666666666666 10.666666666666666H98.66666666666666a5.226666666666667 5.226666666666667 0 0 1 -4.693333333333333 -2.7733333333333334 5.226666666666667 5.226666666666667 0 0 1 0 -5.4399999999999995l17.919999999999998 -26.88a16.746666666666666 16.746666666666666 0 0 1 13.973333333333333 -7.573333333333332H149.33333333333331a10.666666666666666 10.666666666666666 0 0 1 10.666666666666666 10.666666666666666Z" fill="#ffffff" stroke-width="10.6667"></path>
    <path d="M40 206.71999999999997a21.333333333333332 21.333333333333332 0 1 0 42.666666666666664 0 21.333333333333332 21.333333333333332 0 1 0 -42.666666666666664 0" fill="#ffffff" stroke-width="10.6667"></path>
    <path d="M186.66666666666666 206.71999999999997a21.333333333333332 21.333333333333332 0 1 0 42.666666666666664 0 21.333333333333332 21.333333333333332 0 1 0 -42.666666666666664 0" fill="#ffffff" stroke-width="10.6667"></path>
    <path d="M6.186666666666666 67.94666666666666a23.146666666666665 23.146666666666665 0 0 0 6.826666666666666 16.426666666666666 7.893333333333333 7.893333333333333 0 0 0 5.653333333333333 2.2399999999999998 8.213333333333333 8.213333333333333 0 0 0 5.653333333333333 -2.2399999999999998 8.213333333333333 8.213333333333333 0 0 0 0 -11.413333333333334 6.826666666666666 6.826666666666666 0 0 1 0 -9.92 23.36 23.36 0 0 0 0 -32.74666666666666 8 8 0 0 0 -11.306666666666667 11.413333333333334 7.04 7.04 0 0 1 0 9.92 23.146666666666665 23.146666666666665 0 0 0 -6.826666666666666 16.32Z" fill="#ffffff" stroke-width="10.6667"></path>
    <path d="M43.519999999999996 67.94666666666666a23.146666666666665 23.146666666666665 0 0 0 6.826666666666666 16.426666666666666 7.893333333333333 7.893333333333333 0 0 0 5.653333333333333 2.2399999999999998 8.213333333333333 8.213333333333333 0 0 0 5.653333333333333 -2.2399999999999998 8.213333333333333 8.213333333333333 0 0 0 0 -11.413333333333334 6.826666666666666 6.826666666666666 0 0 1 0 -9.92 23.36 23.36 0 0 0 0 -32.74666666666666 8 8 0 0 0 -11.306666666666667 11.413333333333334 7.04 7.04 0 0 1 0 9.92 23.146666666666665 23.146666666666665 0 0 0 -6.826666666666666 16.32Z" fill="#ffffff" stroke-width="10.6667"></path>
  </g>
</svg>