<svg xmlns="http://www.w3.org/2000/svg" viewBox="0 0 256 256" id="Car-Dashboard-Lights--Streamline-Ultimate" height="256" width="256">
  <desc>
    Car Dashboard Lights Streamline Icon: https://streamlinehq.com
  </desc>
  <path d="M128 0a128 128 0 1 0 128 128A128 128 0 0 0 128 0Zm26.666666666666664 178.66666666666666a16 16 0 0 1 -16 -16v-74.66666666666666a16 16 0 0 1 16 -16 53.33333333333333 53.33333333333333 0 0 1 0 106.66666666666666Zm-42.666666666666664 -45.33333333333333h-53.33333333333333a8 8 0 0 1 0 -16h53.33333333333333a8 8 0 1 1 0 16Zm8 29.333333333333332a7.893333333333333 7.893333333333333 0 0 1 -8 8h-53.33333333333333a8 8 0 0 1 0 -16h53.33333333333333a8 8 0 0 1 8.32 8ZM112.32 96h-53.33333333333333a8 8 0 0 1 0 -16h53.33333333333333a8 8 0 1 1 0 16Z" fill="#ffffff" stroke-width="10.6667"></path>
</svg>