<svg xmlns="http://www.w3.org/2000/svg" viewBox="0 0 256 256" id="Car-Engine-11--Streamline-Ultimate" height="256" width="256">
  <desc>
    Car Engine 11 Streamline Icon: https://streamlinehq.com
  </desc>
  <g id="Car-Engine-11--Streamline-Ultimate.svg">
    <path d="M173.44 117.33333333333333h58.666666666666664a18.986666666666665 18.986666666666665 0 0 1 16.53333333333333 9.706666666666667 19.2 19.2 0 0 1 0 19.306666666666665L239.57333333333332 160h3.1999999999999997a19.52 19.52 0 0 1 12.479999999999999 4.586666666666666 17.493333333333332 17.493333333333332 0 0 0 0 -4.053333333333333v-68.26666666666667a22.826666666666668 22.826666666666668 0 0 0 -22.4 -22.93333333333333 5.76 5.76 0 0 0 -5.76 5.76v17.173333333333332h-42.666666666666664V69.33333333333333a5.76 5.76 0 0 0 -5.866666666666667 -5.333333333333333h-17.173333333333332l-17.066666666666666 -22.93333333333333h-10.666666666666666V21.333333333333332h29.333333333333332a8 8 0 1 0 0 -16h-74.66666666666666a8 8 0 0 0 0 16H117.33333333333333v19.413333333333334H78.61333333333333L61.44 57.919999999999995H38.61333333333333a5.76 5.76 0 0 0 -5.76 6.079999999999999v32H16.32V61.76A8 8 0 0 0 8.32 53.33333333333333a7.893333333333333 7.893333333333333 0 0 0 -8.32 8.426666666666666v85.33333333333333a8 8 0 0 0 16 0v-34.666666666666664h16.85333333333333v31.253333333333334a5.76 5.76 0 0 0 5.76 5.653333333333333h22.826666666666668l22.826666666666668 40h51.199999999999996l15.786666666666665 -55.14666666666666A23.146666666666665 23.146666666666665 0 0 1 173.44 117.33333333333333Z" fill="#ffffff" stroke-width="10.6667"></path>
    <path d="M245.33333333333331 183.46666666666664a4.053333333333333 4.053333333333333 0 0 0 0.96 -4.586666666666666 4.16 4.16 0 0 0 -3.84 -2.6666666666666665h-32L234.66666666666666 138.02666666666664a2.986666666666667 2.986666666666667 0 0 0 0 -2.986666666666667 2.88 2.88 0 0 0 -2.5599999999999996 -1.4933333333333334h-58.666666666666664a6.933333333333334 6.933333333333334 0 0 0 -6.826666666666666 5.119999999999999L149.33333333333331 197.9733333333333a8 8 0 0 0 1.2799999999999998 7.04 8.213333333333333 8.213333333333333 0 0 0 6.506666666666666 3.1999999999999997h21.333333333333332l-10.666666666666666 34.239999999999995a5.333333333333333 5.333333333333333 0 0 0 5.119999999999999 6.933333333333334 5.013333333333333 5.013333333333333 0 0 0 3.626666666666667 -1.4933333333333334Z" fill="#ffffff" stroke-width="10.6667"></path>
  </g>
</svg>