<svg xmlns="http://www.w3.org/2000/svg" viewBox="0 0 256 256" id="Car-Tool-Jumper-Cables--Streamline-Ultimate" height="256" width="256">
  <desc>
    Car Tool Jumper Cables Streamline Icon: https://streamlinehq.com
  </desc>
  <path d="M252.90666666666667 245.33333333333331a10.666666666666666 10.666666666666666 0 0 0 -10.666666666666666 -10.666666666666666 19.84 19.84 0 0 1 -4.373333333333333 0 1.4933333333333334 1.4933333333333334 0 0 1 -1.0666666666666667 -0.7466666666666667 1.3866666666666667 1.3866666666666667 0 0 1 0 -1.2799999999999998 532.2666666666667 532.2666666666667 0 0 0 16.32 -77.44c0 -14.826666666666664 -4.16 -21.333333333333332 -8.426666666666666 -24.64a6.506666666666666 6.506666666666666 0 0 0 0 -1.2799999999999998A29.439999999999998 29.439999999999998 0 0 0 224 92.90666666666667l-51.30666666666666 -13.76a12.906666666666666 12.906666666666666 0 0 0 -14.08 5.4399999999999995 3.093333333333333 3.093333333333333 0 0 1 -2.986666666666667 1.0666666666666667l-31.36 -8.426666666666666a2.7733333333333334 2.7733333333333334 0 0 1 -1.5999999999999999 -1.2799999999999998 36.586666666666666 36.586666666666666 0 0 0 -5.333333333333333 -6.613333333333333L49.81333333333333 1.5999999999999999S49.06666666666666 0 43.413333333333334 0h-7.573333333333332a8.106666666666666 8.106666666666666 0 0 0 -8 8 8.106666666666666 8.106666666666666 0 0 0 8 8h5.4399999999999995a2.7733333333333334 2.7733333333333334 0 0 1 2.6666666666666665 1.92l6.933333333333334 26.666666666666664a2.5599999999999996 2.5599999999999996 0 0 1 -0.6399999999999999 2.5599999999999996 2.5599999999999996 2.5599999999999996 0 0 1 -2.5599999999999996 0.6399999999999999L21.333333333333332 40.85333333333333a2.6666666666666665 2.6666666666666665 0 0 1 -1.92 -2.5599999999999996v-5.4399999999999995a8 8 0 0 0 -16 0v7.466666666666666c0 5.653333333333333 1.3866666666666667 6.3999999999999995 1.4933333333333334 6.506666666666666l67.62666666666667 67.73333333333332a26.133333333333333 26.133333333333333 0 0 0 6.506666666666666 4.906666666666666 3.093333333333333 3.093333333333333 0 0 1 1.2799999999999998 1.5999999999999999l8.426666666666666 32a2.5599999999999996 2.5599999999999996 0 0 1 -1.0666666666666667 2.88 13.013333333333332 13.013333333333332 0 0 0 -5.4399999999999995 14.08L96 221.01333333333332a29.333333333333332 29.333333333333332 0 0 0 28.266666666666666 21.333333333333332 26.026666666666664 26.026666666666664 0 0 0 7.573333333333332 -1.0666666666666667 29.333333333333332 29.333333333333332 0 0 0 21.333333333333332 -35.839999999999996L138.66666666666666 154.34666666666666a13.226666666666667 13.226666666666667 0 0 0 -11.84 -9.6 2.5599999999999996 2.5599999999999996 0 0 1 -2.3466666666666667 -1.92L117.33333333333333 115.52a1.1733333333333333 1.1733333333333333 0 0 1 0 -0.96 1.0666666666666667 1.0666666666666667 0 0 1 0.96 0l27.199999999999996 7.253333333333334a2.7733333333333334 2.7733333333333334 0 0 1 2.0266666666666664 2.453333333333333 12.693333333333332 12.693333333333332 0 0 0 1.4933333333333334 5.546666666666667 13.546666666666667 13.546666666666667 0 0 0 8.106666666666666 6.186666666666666L209.06666666666666 149.33333333333331a32 32 0 0 0 7.68 1.0666666666666667 28.373333333333335 28.373333333333335 0 0 0 10.666666666666666 -2.453333333333333 2.5599999999999996 2.5599999999999996 0 0 1 2.453333333333333 0 2.986666666666667 2.986666666666667 0 0 1 1.2799999999999998 2.0266666666666664l0 4.373333333333333a513.92 513.92 0 0 1 -15.36 71.25333333333333 23.04 23.04 0 0 0 2.7733333333333334 20.159999999999997 26.77333333333333 26.77333333333333 0 0 0 23.253333333333334 9.813333333333333 10.666666666666666 10.666666666666666 0 0 0 11.093333333333334 -10.239999999999998ZM93.75999999999999 101.44a10.666666666666666 10.666666666666666 0 1 1 10.666666666666666 -10.666666666666666 10.666666666666666 10.666666666666666 0 0 1 -10.666666666666666 10.666666666666666Z" fill="#ffffff" stroke-width="10.6667"></path>
</svg>