<svg xmlns="http://www.w3.org/2000/svg" id="Car-Actions-Check-1--Streamline-Ultimate" width="256" height="256" viewBox="0 0 256 256"><desc>Car Actions Check 1 Streamline Icon: https://streamlinehq.com</desc><g id="Car-Actions-Check-1--Streamline-Ultimate.svg"><path fill="#fff" stroke-width="10.667" d="M125.54666666666665 127.14666666666666a85.33333333333333 85.33333333333333 0 0 1 61.01333333333333 -25.813333333333333 83.62666666666667 83.62666666666667 0 0 1 30.72 5.76 3.093333333333333 3.093333333333333 0 0 0 2.5599999999999996 0 3.093333333333333 3.093333333333333 0 0 0 1.1733333333333333 -2.2399999999999998V85.33333333333333a29.439999999999998 29.439999999999998 0 0 0 -10.666666666666666 -22.613333333333333 2.453333333333333 2.453333333333333 0 0 1 -1.0666666666666667 -2.0266666666666664 2.7733333333333334 2.7733333333333334 0 0 1 1.0666666666666667 -2.0266666666666664l9.493333333333332 -7.68a10.666666666666666 10.666666666666666 0 1 0 -13.333333333333332 -16.64l-7.68 6.186666666666666a2.453333333333333 2.453333333333333 0 0 1 -2.6666666666666665 0 2.5599999999999996 2.5599999999999996 0 0 1 -1.7066666666666666 -2.1333333333333333l-0.96 -9.386666666666667a32 32 0 0 0 -32 -29.333333333333332H62.18666666666667a32 32 0 0 0 -32 29.119999999999997l-1.0666666666666667 9.386666666666667a2.5599999999999996 2.5599999999999996 0 0 1 -4.266666666666667 1.8133333333333335l-7.466666666666666 -5.973333333333334A10.666666666666666 10.666666666666666 0 1 0 4.16 50.986666666666665l9.386666666666667 7.573333333333332a2.6666666666666665 2.6666666666666665 0 0 1 0.96 2.0266666666666664 2.3466666666666667 2.3466666666666667 0 0 1 -0.96 2.1333333333333333A29.226666666666667 29.226666666666667 0 0 0 2.7733333333333334 85.33333333333333v24A18.773333333333333 18.773333333333333 0 0 0 21.333333333333332 128h102.18666666666667a2.6666666666666665 2.6666666666666665 0 0 0 2.0266666666666664 -0.8533333333333333Zm-76.16 -76.8 2.1333333333333333 -19.2a10.666666666666666 10.666666666666666 0 0 1 10.666666666666666 -9.813333333333333h99.41333333333333a10.666666666666666 10.666666666666666 0 0 1 10.666666666666666 10.026666666666666l2.0266666666666664 18.986666666666665a2.6666666666666665 2.6666666666666665 0 0 1 -0.6399999999999999 2.1333333333333333 2.88 2.88 0 0 1 -2.0266666666666664 0.8533333333333333H52.05333333333333a2.453333333333333 2.453333333333333 0 0 1 -1.92 -0.8533333333333333 3.3066666666666666 3.3066666666666666 0 0 1 -0.7466666666666667 -2.1333333333333333ZM42.666666666666664 109.33333333333333a16 16 0 1 1 16 -16 16 16 0 0 1 -16 16Z"/><path fill="#fff" stroke-width="10.667" d="M69.44 138.66666666666666h-42.666666666666664a2.6666666666666665 2.6666666666666665 0 0 0 -2.6666666666666665 2.6666666666666665v2.6666666666666665a24 24 0 0 0 48 0v-2.6666666666666665a2.6666666666666665 2.6666666666666665 0 0 0 -2.6666666666666665 -2.6666666666666665Z"/><path fill="#fff" stroke-width="10.667" d="M186.55999999999997 117.33333333333333A69.33333333333333 69.33333333333333 0 1 0 256 186.66666666666666a69.44 69.44 0 0 0 -69.44 -69.33333333333333ZM224 174.4l-30.93333333333333 41.38666666666666a18.56 18.56 0 0 1 -28.16 1.92l-16 -16a10.666666666666666 10.666666666666666 0 1 1 15.04 -15.04l11.733333333333334 11.626666666666667a2.5599999999999996 2.5599999999999996 0 0 0 2.0266666666666664 0.8533333333333333 2.6666666666666665 2.6666666666666665 0 0 0 1.92 -1.0666666666666667l27.306666666666665 -36.48a10.666666666666666 10.666666666666666 0 1 1 17.066666666666666 12.799999999999999Z"/></g></svg>