<svg xmlns="http://www.w3.org/2000/svg" id="Card-Game-Heart--Streamline-Ultimate" width="256" height="256" viewBox="0 0 256 256"><desc>Card Game Heart Streamline Icon: https://streamlinehq.com</desc><g id="Card-Game-Heart--Streamline-Ultimate.svg"><path fill="#fff" stroke-width="10.667" d="M149.33333333333331 90.77333333333333a23.04 23.04 0 0 0 -19.733333333333334 8.32 2.6666666666666665 2.6666666666666665 0 0 1 -4.053333333333333 0A23.04 23.04 0 0 0 106.66666666666666 90.77333333333333c-10.666666666666666 1.1733333333333333 -21.333333333333332 10.666666666666666 -21.333333333333332 28.906666666666666 0 29.759999999999998 37.97333333333333 57.38666666666666 39.57333333333333 58.56a5.4399999999999995 5.4399999999999995 0 0 0 6.186666666666666 0C132.69333333333333 177.06666666666666 170.66666666666666 149.33333333333331 170.66666666666666 119.68c0 -18.346666666666664 -10.666666666666666 -27.733333333333334 -21.333333333333332 -28.906666666666666Z"/><path fill="#fff" stroke-width="10.667" d="M229.33333333333331 224a32 32 0 0 1 -32 32h-138.66666666666666a32 32 0 0 1 -32 -32V32a32 32 0 0 1 32 -32h138.66666666666666a32 32 0 0 1 32 32ZM58.666666666666664 21.333333333333332a10.666666666666666 10.666666666666666 0 0 0 -10.666666666666666 10.666666666666666v192a10.666666666666666 10.666666666666666 0 0 0 10.666666666666666 10.666666666666666h138.66666666666666a10.666666666666666 10.666666666666666 0 0 0 10.666666666666666 -10.666666666666666V32a10.666666666666666 10.666666666666666 0 0 0 -10.666666666666666 -10.666666666666666Z"/><path fill="#fff" stroke-width="10.667" d="M64 50.666666666666664a13.333333333333332 13.333333333333332 0 1 0 26.666666666666664 0 13.333333333333332 13.333333333333332 0 1 0 -26.666666666666664 0"/><path fill="#fff" stroke-width="10.667" d="M165.33333333333331 205.33333333333331a13.333333333333332 13.333333333333332 0 1 0 26.666666666666664 0 13.333333333333332 13.333333333333332 0 1 0 -26.666666666666664 0"/></g></svg>