<svg xmlns="http://www.w3.org/2000/svg" id="Card-Add-1--Streamline-Ultimate" width="256" height="256" fill="none" viewBox="0 0 256 256"><desc>Card Add 1 Streamline Icon: https://streamlinehq.com</desc><path fill="#fff" fill-rule="evenodd" stroke-width="10.667" d="M192.0256 217.68853333333334c14.2656 -3.6618666666666666 22.8608 -18.1952 19.198933333333333 -32.45973333333333l-9.642666666666667 -37.56053333333333c-0.7338666666666667 0.0608 -1.4773333333333334 0.09173333333333333 -2.2272 0.09173333333333333 -14.728533333333333 0 -26.666666666666664 -11.938133333333333 -26.666666666666664 -26.666666666666664V106.10933333333332h-14.9792c-14.728533333333333 0 -26.666666666666664 -11.938986666666667 -26.666666666666664 -26.666666666666664 0 -14.727573333333334 11.938133333333333 -26.666666666666664 26.666666666666664 -26.666666666666664h14.9792V37.796906666666665c0 -0.77536 0.03306666666666666 -1.54304 0.09706666666666666 -2.3015466666666664l-1.8656 -7.270719999999999C167.25653333333332 13.959573333333333 152.72426666666667 5.364192 138.45866666666666 9.026250666666666L24.375679999999996 38.31317333333333C10.110677333333333 41.97525333333333 1.5152320000000001 56.50794666666667 5.177290666666666 70.77301333333332L45.48255999999999 227.77706666666666c3.66208 14.264533333333333 18.194879999999998 22.8608 32.45994666666667 19.197866666666666l114.08309333333332 -29.2864Zm7.329066666666667 -85.92853333333332c-5.8911999999999995 0 -10.666666666666666 -4.7754666666666665 -10.666666666666666 -10.666666666666666V90.10421333333332h-30.9792c-5.8911999999999995 0 -10.666666666666666 -4.7756799999999995 -10.666666666666666 -10.666666666666666 0 -5.891093333333332 4.7754666666666665 -10.666666666666666 10.666666666666666 -10.666666666666666h30.9792V37.796906666666665c0 -5.891093333333332 4.7754666666666665 -10.666666666666666 10.666666666666666 -10.666666666666666 5.890133333333333 0 10.666666666666666 4.775573333333333 10.666666666666666 10.666666666666666v30.973973333333333h30.983466666666665c5.8911999999999995 0 10.666666666666666 4.775573333333333 10.666666666666666 10.666666666666666 0 5.890986666666667 -4.7754666666666665 10.666666666666666 -10.666666666666666 10.666666666666666h-30.983466666666665v30.98912c0 5.8911999999999995 -4.776533333333333 10.666666666666666 -10.666666666666666 10.666666666666666Z" clip-rule="evenodd"/></svg>