<svg xmlns="http://www.w3.org/2000/svg" viewBox="0 0 256 256" id="Carnival-Shop--Streamline-Ultimate" height="256" width="256">
  <desc>
    Carnival Shop Streamline Icon: https://streamlinehq.com
  </desc>
  <g id="Carnival-Shop--Streamline-Ultimate.svg">
    <path d="M210.98666666666668 128.85333333333332v48H45.44v-48.10666666666666H42.666666666666664a68.16 68.16 0 0 1 -32 -7.786666666666666v109.22666666666666a21.333333333333332 21.333333333333332 0 0 0 21.333333333333332 21.333333333333332h192a21.333333333333332 21.333333333333332 0 0 0 21.333333333333332 -21.333333333333332V121.06666666666666a67.30666666666666 67.30666666666666 0 0 1 -32 7.786666666666666Zm-117.33333333333333 101.33333333333333a8 8 0 0 1 -16 0v-32a8 8 0 0 1 16 0Zm85.33333333333333 0a8 8 0 0 1 -16 0v-32a8 8 0 0 1 16 0Z" fill="#ffffff" stroke-width="10.6667"></path>
    <path d="m146.56 6.186666666666666 -36.8 0 -11.306666666666667 45.33333333333333 59.519999999999996 0L146.56 6.186666666666666z" fill="#ffffff" stroke-width="10.6667"></path>
    <path d="m248 51.519999999999996 -12.159999999999998 -37.97333333333333a11.626666666666667 11.626666666666667 0 0 0 -10.666666666666666 -7.359999999999999h-62.08l11.306666666666667 45.33333333333333Z" fill="#ffffff" stroke-width="10.6667"></path>
    <path d="M253.12 67.52H3.093333333333333L0 76.90666666666667a32 32 0 0 0 12.266666666666666 26.026666666666664l1.2799999999999998 1.0666666666666667 3.3066666666666666 2.0266666666666664 1.3866666666666667 0.7466666666666667 1.8133333333333335 0.8533333333333333H21.333333333333332l1.7066666666666666 0.7466666666666667 1.4933333333333334 0.5333333333333333 1.92 0.6399999999999999 1.7066666666666666 0 0.6399999999999999 0 1.3866666666666667 0H32l1.92 0 1.5999999999999999 0h0.6399999999999999l1.3866666666666667 0h7.253333333333334a44.05333333333333 44.05333333333333 0 0 0 34.239999999999995 -12.693333333333332 7.893333333333333 7.893333333333333 0 0 1 12.693333333333332 0c15.893333333333333 21.333333333333332 56.85333333333333 21.333333333333332 72.63999999999999 0a7.893333333333333 7.893333333333333 0 0 1 12.693333333333332 0 44.48 44.48 0 0 0 34.56 16h8.746666666666666a26.666666666666664 26.666666666666664 0 0 0 4.053333333333333 -0.6399999999999999l1.5999999999999999 0 3.9466666666666663 -1.1733333333333333 1.5999999999999999 -0.5333333333333333 3.733333333333333 -1.7066666666666666 1.5999999999999999 -0.8533333333333333 3.413333333333333 -2.1333333333333333 1.4933333333333334 -1.0666666666666667A32 32 0 0 0 256 77.01333333333332Z" fill="#ffffff" stroke-width="10.6667"></path>
    <path d="M93.22666666666666 6.186666666666666h-61.86666666666666a11.733333333333334 11.733333333333334 0 0 0 -10.666666666666666 7.359999999999999L8.32 51.519999999999996h73.6Z" fill="#ffffff" stroke-width="10.6667"></path>
  </g>
</svg>