<svg xmlns="http://www.w3.org/2000/svg" id="Cash-Network--Streamline-Ultimate" width="256" height="256" viewBox="0 0 256 256"><desc>Cash Network Streamline Icon: https://streamlinehq.com</desc><g id="Cash-Network--Streamline-Ultimate.svg"><path fill="#fff" stroke-width="10.667" d="M126.08 82.66666666666666h28.586666666666666a13.333333333333332 13.333333333333332 0 0 0 0 -26.666666666666664h-10.666666666666666a2.6666666666666665 2.6666666666666665 0 0 1 -2.6666666666666665 -2.6666666666666665v-4.053333333333333a13.333333333333332 13.333333333333332 0 0 0 -26.666666666666664 0v6.506666666666666a2.88 2.88 0 0 1 -1.7066666666666666 2.5599999999999996 38.08 38.08 0 0 0 -3.9466666666666663 69.65333333333334l26.026666666666664 13.013333333333332a11.413333333333334 11.413333333333334 0 0 1 -5.119999999999999 21.333333333333332H101.33333333333333a13.333333333333332 13.333333333333332 0 0 0 0 26.666666666666664h10.666666666666666a2.6666666666666665 2.6666666666666665 0 0 1 2.6666666666666665 2.6666666666666665v4.053333333333333a13.333333333333332 13.333333333333332 0 0 0 26.666666666666664 0v-6.506666666666666a2.88 2.88 0 0 1 1.7066666666666666 -2.5599999999999996 38.08 38.08 0 0 0 3.9466666666666663 -69.33333333333333l-26.026666666666664 -13.12a11.413333333333334 11.413333333333334 0 0 1 5.119999999999999 -21.333333333333332Z"/><path fill="#fff" stroke-width="10.667" d="M189.44 77.33333333333333a10.666666666666666 10.666666666666666 0 0 0 7.466666666666666 -3.093333333333333l21.333333333333332 -21.333333333333332a2.453333333333333 2.453333333333333 0 0 1 2.6666666666666665 -0.6399999999999999 27.199999999999996 27.199999999999996 0 0 0 7.893333333333333 1.1733333333333333A26.666666666666664 26.666666666666664 0 1 0 202.66666666666666 26.666666666666664a28.05333333333333 28.05333333333333 0 0 0 1.3866666666666667 8.533333333333333 2.453333333333333 2.453333333333333 0 0 1 -0.6399999999999999 2.6666666666666665l-21.333333333333332 21.333333333333332a10.666666666666666 10.666666666666666 0 0 0 7.573333333333332 18.24Z"/><path fill="#fff" stroke-width="10.667" d="M202.66666666666666 229.33333333333331a26.666666666666664 26.666666666666664 0 1 0 26.666666666666664 -26.666666666666664 28.05333333333333 28.05333333333333 0 0 0 -8.533333333333333 1.3866666666666667 2.453333333333333 2.453333333333333 0 0 1 -2.6666666666666665 -0.6399999999999999l-19.093333333333334 -19.2a10.666666666666666 10.666666666666666 0 0 0 -15.146666666666665 15.04l19.306666666666665 19.413333333333334a2.6666666666666665 2.6666666666666665 0 0 1 0.6399999999999999 2.7733333333333334 27.199999999999996 27.199999999999996 0 0 0 -1.1733333333333333 7.893333333333333Z"/><path fill="#fff" stroke-width="10.667" d="m74.66666666666666 59.413333333333334 -21.333333333333332 -21.333333333333332a2.453333333333333 2.453333333333333 0 0 1 -0.6399999999999999 -2.6666666666666665A28.05333333333333 28.05333333333333 0 0 0 53.33333333333333 26.666666666666664 26.666666666666664 26.666666666666664 0 1 0 26.77333333333333 53.33333333333333a27.199999999999996 27.199999999999996 0 0 0 7.893333333333333 -1.1733333333333333 2.6666666666666665 2.6666666666666665 0 0 1 2.7733333333333334 1.1733333333333333l21.973333333333333 21.333333333333332a10.666666666666666 10.666666666666666 0 0 0 7.466666666666666 3.093333333333333A10.666666666666666 10.666666666666666 0 0 0 74.66666666666666 59.413333333333334Z"/><path fill="#fff" stroke-width="10.667" d="M26.666666666666664 256A26.666666666666664 26.666666666666664 0 0 0 53.33333333333333 229.33333333333331a27.199999999999996 27.199999999999996 0 0 0 -1.1733333333333333 -7.893333333333333 2.453333333333333 2.453333333333333 0 0 1 1.1733333333333333 -2.6666666666666665l19.306666666666665 -19.52a10.666666666666666 10.666666666666666 0 0 0 -15.146666666666665 -15.04l-19.093333333333334 19.2a2.453333333333333 2.453333333333333 0 0 1 -2.6666666666666665 0.6399999999999999A28.05333333333333 28.05333333333333 0 0 0 26.666666666666664 202.66666666666666a26.666666666666664 26.666666666666664 0 0 0 0 53.33333333333333Z"/><path fill="#fff" stroke-width="10.667" d="M229.22666666666663 96a26.986666666666665 26.986666666666665 0 0 0 -23.786666666666665 14.506666666666668 2.453333333333333 2.453333333333333 0 0 1 -2.3466666666666667 1.4933333333333334H192a10.666666666666666 10.666666666666666 0 0 0 0 21.333333333333332h10.666666666666666a2.453333333333333 2.453333333333333 0 0 1 2.3466666666666667 1.4933333333333334A26.666666666666664 26.666666666666664 0 1 0 229.22666666666663 96Z"/><path fill="#fff" stroke-width="10.667" d="M64 112H53.33333333333333a2.5599999999999996 2.5599999999999996 0 0 1 -2.3466666666666667 -1.4933333333333334A26.986666666666665 26.986666666666665 0 0 0 26.77333333333333 96a26.666666666666664 26.666666666666664 0 1 0 23.786666666666665 38.82666666666667 2.5599999999999996 2.5599999999999996 0 0 1 2.7733333333333334 -1.4933333333333334h10.666666666666666a10.666666666666666 10.666666666666666 0 0 0 0 -21.333333333333332Z"/></g></svg>