<svg xmlns="http://www.w3.org/2000/svg" id="Cashless-Payment-Qr-Code-Basket--Streamline-Ultimate" width="256" height="256" viewBox="0 0 256 256"><desc>Cashless Payment Qr Code Basket Streamline Icon: https://streamlinehq.com</desc><g id="Cashless-Payment-Qr-Code-Basket--Streamline-Ultimate.svg"><path fill="#fff" stroke-width="10.667" d="M26.666666666666664 208A5.333333333333333 5.333333333333333 0 0 1 21.333333333333332 202.66666666666666V37.33333333333333a5.333333333333333 5.333333333333333 0 0 1 5.333333333333333 -5.333333333333333h117.33333333333333a5.333333333333333 5.333333333333333 0 0 1 5.333333333333333 5.333333333333333V149.33333333333331h21.333333333333332V32a32 32 0 0 0 -32 -32H32a32 32 0 0 0 -32 32v192a32 32 0 0 0 32 32h101.33333333333333v-48Z"/><path fill="#fff" stroke-width="10.667" d="M250.45333333333332 194.13333333333333h-8.533333333333333a3.093333333333333 3.093333333333333 0 0 1 -2.5599999999999996 -1.4933333333333334l-12.479999999999999 -24.85333333333333a8.32 8.32 0 0 0 -14.933333333333332 7.466666666666666l7.359999999999999 14.826666666666664a2.6666666666666665 2.6666666666666665 0 0 1 0 2.6666666666666665 2.7733333333333334 2.7733333333333334 0 0 1 -2.3466666666666667 1.3866666666666667h-33.81333333333333a2.7733333333333334 2.7733333333333334 0 0 1 -2.3466666666666667 -1.3866666666666667 2.6666666666666665 2.6666666666666665 0 0 1 0 -2.6666666666666665l7.359999999999999 -14.826666666666664a8.32 8.32 0 1 0 -14.933333333333332 -7.466666666666666l-12.479999999999999 24.85333333333333a3.093333333333333 3.093333333333333 0 0 1 -2.5599999999999996 1.4933333333333334H149.33333333333331a5.4399999999999995 5.4399999999999995 0 0 0 -4.266666666666667 2.1333333333333333 5.653333333333333 5.653333333333333 0 0 0 -1.1733333333333333 4.693333333333333l9.6 43.84a13.226666666666667 13.226666666666667 0 0 0 13.546666666666667 10.666666666666666h65.49333333333333a13.226666666666667 13.226666666666667 0 0 0 13.546666666666667 -10.666666666666666l9.6 -43.84a5.653333333333333 5.653333333333333 0 0 0 -1.1733333333333333 -4.693333333333333 5.4399999999999995 5.4399999999999995 0 0 0 -4.053333333333333 -2.1333333333333333Z"/><g><path fill="#fff" stroke-width="10.667" d="M65.81333333333333 64H46.18666666666667A14.293333333333333 14.293333333333333 0 0 0 32 78.18666666666667v19.626666666666665a14.293333333333333 14.293333333333333 0 0 0 14.186666666666667 14.186666666666667h19.626666666666665A14.186666666666667 14.186666666666667 0 0 0 80 97.81333333333333V78.18666666666667A14.186666666666667 14.186666666666667 0 0 0 65.81333333333333 64ZM64 96H48V80H64Z"/><path fill="#fff" stroke-width="10.667" d="M124.47999999999999 122.66666666666666H104.85333333333332a14.293333333333333 14.293333333333333 0 0 0 -14.186666666666667 14.186666666666667v19.626666666666665A14.293333333333333 14.293333333333333 0 0 0 104.85333333333332 170.66666666666666h19.626666666666665A14.186666666666667 14.186666666666667 0 0 0 138.66666666666666 156.48v-19.626666666666665a14.186666666666667 14.186666666666667 0 0 0 -14.186666666666667 -14.186666666666667Zm-1.8133333333333335 32H106.66666666666666V138.66666666666666h16Z"/><path fill="#fff" stroke-width="10.667" d="M66.66666666666666 154.66666666666666h-16a2.6666666666666665 2.6666666666666665 0 0 1 -2.6666666666666665 -2.6666666666666665v-21.333333333333332a8 8 0 0 0 -16 0v21.333333333333332A18.773333333333333 18.773333333333333 0 0 0 50.666666666666664 170.66666666666666h16a8 8 0 0 0 0 -16Z"/><path fill="#fff" stroke-width="10.667" d="M69.33333333333333 122.66666666666666a8.106666666666666 8.106666666666666 0 0 0 -8 8v5.333333333333333a8 8 0 0 0 16 0v-5.333333333333333a8.106666666666666 8.106666666666666 0 0 0 -8 -8Z"/><path fill="#fff" stroke-width="10.667" d="M104 80h16a2.6666666666666665 2.6666666666666665 0 0 1 2.6666666666666665 2.6666666666666665v21.333333333333332a8 8 0 0 0 16 0v-21.333333333333332A18.773333333333333 18.773333333333333 0 0 0 120 64h-16a8 8 0 0 0 0 16Z"/><path fill="#fff" stroke-width="10.667" d="M101.33333333333333 112a8.106666666666666 8.106666666666666 0 0 0 8 -8v-5.333333333333333a8 8 0 0 0 -16 0v5.333333333333333a8.106666666666666 8.106666666666666 0 0 0 8 8Z"/></g></g></svg>