<svg xmlns="http://www.w3.org/2000/svg" id="Cashless-Payment-Smart-Pay-Bus-Smartphone-Qr--Streamline-Ultimate" width="256" height="256" viewBox="0 0 256 256"><desc>Cashless Payment Smart Pay Bus Smartphone Qr Streamline Icon: https://streamlinehq.com</desc><g id="Cashless-Payment-Smart-Pay-Bus-Smartphone-Qr--Streamline-Ultimate.svg"><g><path fill="#fff" stroke-width="10.667" d="M65.81333333333333 64H46.18666666666667A14.293333333333333 14.293333333333333 0 0 0 32 78.18666666666667v19.626666666666665a14.293333333333333 14.293333333333333 0 0 0 14.186666666666667 14.186666666666667h19.626666666666665A14.293333333333333 14.293333333333333 0 0 0 80 97.81333333333333V78.18666666666667A14.293333333333333 14.293333333333333 0 0 0 65.81333333333333 64ZM64 96H48V80H64Z"/><path fill="#fff" stroke-width="10.667" d="M124.47999999999999 122.66666666666666H104.85333333333332a14.293333333333333 14.293333333333333 0 0 0 -14.186666666666667 14.186666666666667v19.626666666666665A14.293333333333333 14.293333333333333 0 0 0 104.85333333333332 170.66666666666666h19.626666666666665A14.293333333333333 14.293333333333333 0 0 0 138.66666666666666 156.48v-19.626666666666665a14.293333333333333 14.293333333333333 0 0 0 -14.186666666666667 -14.186666666666667Zm-1.8133333333333335 32H106.66666666666666V138.66666666666666h16Z"/><path fill="#fff" stroke-width="10.667" d="M66.66666666666666 154.66666666666666h-16a2.6666666666666665 2.6666666666666665 0 0 1 -2.6666666666666665 -2.6666666666666665v-21.333333333333332a8 8 0 0 0 -16 0v21.333333333333332A18.773333333333333 18.773333333333333 0 0 0 50.666666666666664 170.66666666666666h16a8 8 0 0 0 0 -16Z"/><path fill="#fff" stroke-width="10.667" d="M69.33333333333333 122.66666666666666a8.106666666666666 8.106666666666666 0 0 0 -8 8v5.333333333333333a8 8 0 0 0 16 0v-5.333333333333333a8.106666666666666 8.106666666666666 0 0 0 -8 -8Z"/><path fill="#fff" stroke-width="10.667" d="M120 64h-16a8 8 0 0 0 0 16h16a2.6666666666666665 2.6666666666666665 0 0 1 2.6666666666666665 2.6666666666666665v21.333333333333332a8 8 0 0 0 16 0v-21.333333333333332A18.773333333333333 18.773333333333333 0 0 0 120 64Z"/><path fill="#fff" stroke-width="10.667" d="M101.33333333333333 112a8.106666666666666 8.106666666666666 0 0 0 8 -8v-5.333333333333333a8 8 0 0 0 -16 0v5.333333333333333a8.106666666666666 8.106666666666666 0 0 0 8 8Z"/></g><path fill="#fff" stroke-width="10.667" d="M144 208h-117.33333333333333A5.333333333333333 5.333333333333333 0 0 1 21.333333333333332 202.66666666666666V37.33333333333333a5.333333333333333 5.333333333333333 0 0 1 5.333333333333333 -5.333333333333333h117.33333333333333a5.333333333333333 5.333333333333333 0 0 1 5.333333333333333 5.333333333333333V128h21.333333333333332V32a32 32 0 0 0 -32 -32H32a32 32 0 0 0 -32 32v192a32 32 0 0 0 32 32h106.66666666666666a42.666666666666664 42.666666666666664 0 0 0 5.333333333333333 0Z"/><path fill="#fff" stroke-width="10.667" d="M237.33333333333331 141.33333333333331h-64A18.773333333333333 18.773333333333333 0 0 0 154.66666666666666 160v64a18.346666666666664 18.346666666666664 0 0 0 9.386666666666667 16.106666666666666 2.88 2.88 0 0 1 1.2799999999999998 2.3466666666666667v5.546666666666667a8 8 0 0 0 16 0V245.33333333333331a2.6666666666666665 2.6666666666666665 0 0 1 2.6666666666666665 -2.6666666666666665h42.666666666666664a2.6666666666666665 2.6666666666666665 0 0 1 2.6666666666666665 2.6666666666666665v2.6666666666666665a8 8 0 0 0 16 0v-5.546666666666667a2.88 2.88 0 0 1 1.2799999999999998 -2.3466666666666667A18.346666666666664 18.346666666666664 0 0 0 256 224v-64a18.773333333333333 18.773333333333333 0 0 0 -18.666666666666664 -18.666666666666664Zm-58.666666666666664 80a8 8 0 1 1 8 -8 8.106666666666666 8.106666666666666 0 0 1 -8 8Zm53.33333333333333 0a8 8 0 1 1 8 -8 8.106666666666666 8.106666666666666 0 0 1 -8 8Zm8 -32a2.6666666666666665 2.6666666666666665 0 0 1 -2.6666666666666665 2.6666666666666665h-64a2.6666666666666665 2.6666666666666665 0 0 1 -2.6666666666666665 -2.6666666666666665V160a2.6666666666666665 2.6666666666666665 0 0 1 2.6666666666666665 -2.6666666666666665h64a2.6666666666666665 2.6666666666666665 0 0 1 2.6666666666666665 2.6666666666666665Z"/></g></svg>