<svg xmlns="http://www.w3.org/2000/svg" viewBox="0 0 256 256" id="Cash-Briefcase--Streamline-Ultimate" height="256" width="256">
  <desc>
    Cash Briefcase Streamline Icon: https://streamlinehq.com
  </desc>
  <path d="M37.33333333333333 242.66666666666666h181.33333333333331a37.33333333333333 37.33333333333333 0 0 0 37.33333333333333 -37.33333333333333v-106.66666666666666a37.33333333333333 37.33333333333333 0 0 0 -37.33333333333333 -37.33333333333333h-40a2.6666666666666665 2.6666666666666665 0 0 1 -2.6666666666666665 -2.6666666666666665V45.33333333333333a32 32 0 0 0 -32 -32h-32a32 32 0 0 0 -32 32V58.666666666666664a2.6666666666666665 2.6666666666666665 0 0 1 -2.6666666666666665 2.6666666666666665H37.33333333333333A37.33333333333333 37.33333333333333 0 0 0 0 98.66666666666666v106.66666666666666a37.33333333333333 37.33333333333333 0 0 0 37.33333333333333 37.33333333333333Zm64 -197.33333333333331a10.666666666666666 10.666666666666666 0 0 1 10.666666666666666 -10.666666666666666h32a10.666666666666666 10.666666666666666 0 0 1 10.666666666666666 10.666666666666666V58.666666666666664a2.6666666666666665 2.6666666666666665 0 0 1 -2.6666666666666665 2.6666666666666665h-48a2.6666666666666665 2.6666666666666665 0 0 1 -2.6666666666666665 -2.6666666666666665Zm38.4 122.34666666666666 -32 -11.733333333333334a25.28 25.28 0 0 1 -14.506666666666668 -24.53333333333333 24.85333333333333 24.85333333333333 0 0 1 21.333333333333332 -24.959999999999997 2.88 2.88 0 0 0 2.1333333333333333 -2.6666666666666665v-5.119999999999999a10.666666666666666 10.666666666666666 0 0 1 21.333333333333332 0v4.4799999999999995a2.6666666666666665 2.6666666666666665 0 0 0 2.6666666666666665 2.6666666666666665h10.666666666666666a10.666666666666666 10.666666666666666 0 0 1 0 21.333333333333332h-29.333333333333332c-7.04 0 -7.04 3.093333333333333 -7.04 4.266666666666667a7.893333333333333 7.893333333333333 0 0 0 1.2799999999999998 4.906666666666666l32 11.733333333333334a25.28 25.28 0 0 1 14.506666666666668 24.53333333333333 24.85333333333333 24.85333333333333 0 0 1 -21.333333333333332 24.959999999999997 2.88 2.88 0 0 0 -2.1333333333333333 2.6666666666666665v5.119999999999999a10.666666666666666 10.666666666666666 0 0 1 -21.333333333333332 0v-4.4799999999999995a2.6666666666666665 2.6666666666666665 0 0 0 -2.6666666666666665 -2.6666666666666665h-10.666666666666666a10.666666666666666 10.666666666666666 0 0 1 0 -21.333333333333332h29.65333333333333c7.04 0 7.04 -3.093333333333333 7.04 -4.266666666666667a7.893333333333333 7.893333333333333 0 0 0 -1.5999999999999999 -4.906666666666666Z" fill="#ffffff" stroke-width="10.6667"></path>
</svg>