<svg xmlns="http://www.w3.org/2000/svg" viewBox="0 0 256 256" id="Cash-Payment-Sign-2--Streamline-Ultimate" height="256" width="256">
  <desc>
    Cash Payment Sign 2 Streamline Icon: https://streamlinehq.com
  </desc>
  <g id="Cash-Payment-Sign-2--Streamline-Ultimate.svg">
    <path d="M256 99.52a16 16 0 0 0 -16 -16h-70.08a3.3066666666666666 3.3066666666666666 0 0 0 -1.92 0.7466666666666667l-67.62666666666667 67.62666666666667a21.333333333333332 21.333333333333332 0 0 1 -10.666666666666666 5.866666666666667 210.77333333333334 210.77333333333334 0 0 1 -30.826666666666668 5.76 21.333333333333332 21.333333333333332 0 0 1 -21.333333333333332 -25.493333333333332l5.333333333333333 -26.666666666666664a21.333333333333332 21.333333333333332 0 0 1 5.866666666666667 -10.666666666666666l12.586666666666666 -12.586666666666666a2.7733333333333334 2.7733333333333334 0 0 0 -1.92 -4.586666666666666H16A16 16 0 0 0 0 99.52v117.33333333333333a16 16 0 0 0 16 16h224a16 16 0 0 0 16 -16Zm-122.66666666666666 82.66666666666666h85.33333333333333a8 8 0 0 1 0 16h-85.33333333333333a8 8 0 0 1 0 -16Z" fill="#ffffff" stroke-width="10.6667"></path>
    <path d="M60.266666666666666 111.78666666666666a5.546666666666667 5.546666666666667 0 0 0 -1.4933333333333334 2.6666666666666665L53.33333333333333 141.12a5.226666666666667 5.226666666666667 0 0 0 1.4933333333333334 4.8 5.119999999999999 5.119999999999999 0 0 0 4.8 1.4933333333333334l26.666666666666664 -5.333333333333333a5.119999999999999 5.119999999999999 0 0 0 2.6666666666666665 -1.4933333333333334l82.77333333333333 -82.66666666666666a20.37333333333333 20.37333333333333 0 0 0 -28.8 -28.8Z" fill="#ffffff" stroke-width="10.6667"></path>
  </g>
</svg>