<svg xmlns="http://www.w3.org/2000/svg" viewBox="0 0 256 256" id="Cash-Search--Streamline-Ultimate" height="256" width="256">
  <desc>
    Cash Search Streamline Icon: https://streamlinehq.com
  </desc>
  <path d="M107.94666666666666 212.0533333333333a103.89333333333333 103.89333333333333 0 0 0 59.519999999999996 -18.773333333333333 2.7733333333333334 2.7733333333333334 0 0 1 3.413333333333333 0l53.33333333333333 53.86666666666666a16.106666666666666 16.106666666666666 0 0 0 22.72 -22.72l-53.86666666666666 -53.33333333333333a2.7733333333333334 2.7733333333333334 0 0 1 0 -3.413333333333333 103.89333333333333 103.89333333333333 0 1 0 -85.33333333333333 44.58666666666666Zm14.08 -87.46666666666665 -35.946666666666665 -13.44A27.199999999999996 27.199999999999996 0 0 1 70.61333333333333 85.33333333333333a27.093333333333334 27.093333333333334 0 0 1 24.426666666666666 -27.52 2.5599999999999996 2.5599999999999996 0 0 0 2.2399999999999998 -2.6666666666666665V48a10.666666666666666 10.666666666666666 0 0 1 21.333333333333332 0v6.613333333333333a2.7733333333333334 2.7733333333333334 0 0 0 2.7733333333333334 2.7733333333333334h13.226666666666667a10.666666666666666 10.666666666666666 0 0 1 0 21.333333333333332H101.33333333333333c-9.386666666666667 0 -9.386666666666667 4.586666666666666 -9.386666666666667 6.186666666666666a9.6 9.6 0 0 0 2.0266666666666664 6.506666666666666l35.946666666666665 13.44a27.093333333333334 27.093333333333334 0 0 1 15.36 26.346666666666668 26.986666666666665 26.986666666666665 0 0 1 -24.319999999999997 26.986666666666665 2.6666666666666665 2.6666666666666665 0 0 0 -2.3466666666666667 2.6666666666666665v7.1466666666666665a10.666666666666666 10.666666666666666 0 0 1 -21.333333333333332 0v-6.72a2.5599999999999996 2.5599999999999996 0 0 0 -2.5599999999999996 -2.5599999999999996H81.28a10.666666666666666 10.666666666666666 0 1 1 0 -21.333333333333332h33.38666666666666c9.28 0 9.28 -4.693333333333333 9.28 -6.186666666666666a9.92 9.92 0 0 0 -1.92 -6.613333333333333Z" fill="#ffffff" stroke-width="10.6667"></path>
</svg>