<svg xmlns="http://www.w3.org/2000/svg" id="Cash-Payment-Bill--Streamline-Ultimate" width="256" height="256" viewBox="0 0 256 256"><desc>Cash Payment Bill Streamline Icon: https://streamlinehq.com</desc><g id="Cash-Payment-Bill--Streamline-Ultimate.svg"><path fill="#fff" stroke-width="10.667" d="M253.86666666666667 32a16 16 0 0 0 -16 -16h-149.33333333333331A16 16 0 0 0 72.53333333333333 32v85.33333333333333a16 16 0 0 0 16 16h149.33333333333331a16 16 0 0 0 16 -16Zm-21.333333333333332 77.33333333333333a2.6666666666666665 2.6666666666666665 0 0 1 -2.6666666666666665 2.6666666666666665H96.53333333333333a2.6666666666666665 2.6666666666666665 0 0 1 -2.6666666666666665 -2.6666666666666665V40.31999999999999a2.6666666666666665 2.6666666666666665 0 0 1 2.6666666666666665 -2.6666666666666665h133.33333333333331a2.6666666666666665 2.6666666666666665 0 0 1 2.6666666666666665 2.6666666666666665Z"/><path fill="#fff" stroke-width="10.667" d="M141.86666666666667 74.98666666666666a21.333333333333332 21.333333333333332 0 1 0 42.666666666666664 0 21.333333333333332 21.333333333333332 0 1 0 -42.666666666666664 0"/><path fill="#fff" stroke-width="10.667" d="m215.46666666666664 176.32 -37.65333333333333 12.479999999999999a2.453333333333333 2.453333333333333 0 0 0 -1.5999999999999999 1.4933333333333334A21.333333333333332 21.333333333333332 0 0 1 156.79999999999998 202.66666666666666h-42.666666666666664a5.333333333333333 5.333333333333333 0 0 1 -5.333333333333333 -5.333333333333333 5.333333333333333 5.333333333333333 0 0 1 5.333333333333333 -5.333333333333333h42.666666666666664a10.666666666666666 10.666666666666666 0 0 0 0 -21.333333333333332h-37.33333333333333a76.26666666666667 76.26666666666667 0 0 0 -42.666666666666664 -16H54.82666666666666a42.666666666666664 42.666666666666664 0 0 0 -19.093333333333334 5.333333333333333l-32 16.106666666666666a2.6666666666666665 2.6666666666666665 0 0 0 -1.3866666666666667 2.3466666666666667v57.6a2.7733333333333334 2.7733333333333334 0 0 0 1.3866666666666667 2.3466666666666667 2.6666666666666665 2.6666666666666665 0 0 0 2.6666666666666665 0l34.346666666666664 -21.333333333333332a10.666666666666666 10.666666666666666 0 0 1 9.066666666666666 -1.0666666666666667c106.66666666666666 35.839999999999996 70.72 35.946666666666665 190.61333333333334 -24.64a5.546666666666667 5.546666666666667 0 0 0 0.6399999999999999 -10.026666666666666 26.453333333333333 26.453333333333333 0 0 0 -25.599999999999998 -5.013333333333333Z"/></g></svg>