<svg xmlns="http://www.w3.org/2000/svg" viewBox="0 0 256 256" id="Cash-Payment-Bills--Streamline-Ultimate" height="256" width="256">
  <desc>
    Cash Payment Bills Streamline Icon: https://streamlinehq.com
  </desc>
  <g id="Cash-Payment-Bills--Streamline-Ultimate.svg">
    <path d="M237.44 35.733333333333334A10.666666666666666 10.666666666666666 0 0 0 229.33333333333331 32h-96a10.666666666666666 10.666666666666666 0 0 0 -8 3.626666666666667 10.666666666666666 10.666666666666666 0 0 0 -2.5599999999999996 8.426666666666666l10.666666666666666 80a10.666666666666666 10.666666666666666 0 1 0 21.333333333333332 -2.7733333333333334l-8.64 -64.96a2.3466666666666667 2.3466666666666667 0 0 1 0.6399999999999999 -2.0266666666666664 2.6666666666666665 2.6666666666666665 0 0 1 1.8133333333333335 -0.96H213.33333333333331a2.3466666666666667 2.3466666666666667 0 0 1 2.0266666666666664 0.96 2.5599999999999996 2.5599999999999996 0 0 1 0.6399999999999999 2.1333333333333333l-11.626666666666667 70.08a10.666666666666666 10.666666666666666 0 1 0 21.333333333333332 3.52l14.293333333333333 -85.33333333333333a10.666666666666666 10.666666666666666 0 0 0 -2.5599999999999996 -8.959999999999999Z" fill="#ffffff" stroke-width="10.6667"></path>
    <path d="M202.66666666666666 149.33333333333331h-64a2.453333333333333 2.453333333333333 0 0 1 -2.3466666666666667 -1.4933333333333334L126.08 128a5.333333333333333 5.333333333333333 0 0 0 -4.16 -2.986666666666667 5.4399999999999995 5.4399999999999995 0 0 0 -4.8 1.92L97.06666666666666 151.57333333333332a9.493333333333332 9.493333333333332 0 0 1 -6.293333333333333 2.986666666666667h-10.666666666666666A5.333333333333333 5.333333333333333 0 0 0 74.66666666666666 160v64a5.119999999999999 5.119999999999999 0 0 0 2.1333333333333333 4.266666666666667c24.53333333333333 18.453333333333333 43.519999999999996 27.733333333333334 56.53333333333333 27.733333333333334h59.199999999999996A18.133333333333333 18.133333333333333 0 0 0 213.33333333333331 241.70666666666665a595.8399999999999 595.8399999999999 0 0 0 10.666666666666666 -76.37333333333333c0 -8 -7.359999999999999 -16 -21.333333333333332 -16Z" fill="#ffffff" stroke-width="10.6667"></path>
    <path d="M51.519999999999996 144H18.666666666666664a2.6666666666666665 2.6666666666666665 0 0 0 -2.6666666666666665 2.6666666666666665v96a2.6666666666666665 2.6666666666666665 0 0 0 2.6666666666666665 2.6666666666666665h32.85333333333333a6.3999999999999995 6.3999999999999995 0 0 0 7.1466666666666665 -6.293333333333333v-88.74666666666667a6.3999999999999995 6.3999999999999995 0 0 0 -7.1466666666666665 -6.293333333333333Z" fill="#ffffff" stroke-width="10.6667"></path>
    <path d="M165.33333333333331 96a16 16 0 1 0 32 0 16 16 0 1 0 -32 0" fill="#ffffff" stroke-width="10.6667"></path>
    <path d="M106.66666666666666 117.33333333333333a10.666666666666666 10.666666666666666 0 0 0 10.666666666666666 -12.373333333333331L103.78666666666666 24.426666666666666a2.986666666666667 2.986666666666667 0 0 1 0 -2.1333333333333333A2.6666666666666665 2.6666666666666665 0 0 1 106.66666666666666 21.333333333333332h85.33333333333333a10.666666666666666 10.666666666666666 0 0 0 0 -21.333333333333332H90.66666666666666a10.666666666666666 10.666666666666666 0 0 0 -10.666666666666666 12.373333333333331l16 96a10.666666666666666 10.666666666666666 0 0 0 10.666666666666666 8.959999999999999Z" fill="#ffffff" stroke-width="10.6667"></path>
  </g>
</svg>