<svg xmlns="http://www.w3.org/2000/svg" fill="none" viewBox="0 0 256 256" id="Cashless-Payment-Online-Statement-Monitor--Streamline-Ultimate" height="256" width="256">
  <desc>
    Cashless Payment Online Statement Monitor Streamline Icon: https://streamlinehq.com
  </desc>
  <path fill="#ffffff" fill-rule="evenodd" d="M210.208 248.39466666666664a10.666666666666666 10.666666666666666 0 0 1 -7.541333333333332 3.125333333333333H53.33333333333333a10.666666666666666 10.666666666666666 0 1 1 0 -21.333333333333332h40.74666666666666l5.728 -17.706666666666663H32a32 32 0 0 1 -32 -32V32A27.093333333333334 27.093333333333334 0 0 1 26.666666666666664 4.4799999999999995h202.66666666666666A27.093333333333334 27.093333333333334 0 0 1 256 32v148.48a32 32 0 0 1 -32 32h-67.80799999999999l5.738666666666667 17.706666666666663H202.66666666666666a10.666666666666666 10.666666666666666 0 0 1 7.541333333333332 18.208ZM21.599999999999998 29.759999999999998A5.76 5.76 0 0 0 21.333333333333332 32v127.14666666666666a5.333333333333333 5.333333333333333 0 0 0 5.333333333333333 5.333333333333333h202.66666666666666a5.333333333333333 5.333333333333333 0 0 0 5.333333333333333 -5.333333333333333V32a5.770666666666667 5.770666666666667 0 0 0 -5.333333333333333 -6.186666666666666h-202.66666666666666a5.76 5.76 0 0 0 -5.066666666666666 3.9466666666666663Zm29.52533333333333 20.512A10.666666666666666 10.666666666666666 0 0 1 58.666666666666664 47.14666666666666H106.66666666666666a10.666666666666666 10.666666666666666 0 1 1 0 21.333333333333332H58.666666666666664a10.666666666666666 10.666666666666666 0 0 1 -7.541333333333332 -18.208ZM58.666666666666664 84.47999999999999a10.666666666666666 10.666666666666666 0 0 0 0 21.333333333333332H106.66666666666666a10.666666666666666 10.666666666666666 0 1 0 0 -21.333333333333332H58.666666666666664Zm-7.541333333333332 40.458666666666666a10.666666666666666 10.666666666666666 0 0 1 7.541333333333332 -3.125333333333333H74.66666666666666a10.666666666666666 10.666666666666666 0 0 1 0 21.333333333333332H58.666666666666664a10.666666666666666 10.666666666666666 0 0 1 -7.541333333333332 -18.208ZM175.04 73.49333333333333a13.930666666666667 13.930666666666667 0 0 1 11.669333333333334 5.525333333333333 10.666666666666666 10.666666666666666 0 0 0 17.013333333333332 -12.863999999999999 35.25333333333333 35.25333333333333 0 0 0 -18.442666666666668 -12.650666666666666v-1.7386666666666666a10.666666666666666 10.666666666666666 0 1 0 -21.333333333333332 0v1.877333333333333c-4.4479999999999995 1.2586666666666666 -8.533333333333333 3.296 -12.010666666666665 5.984 -6.079999999999999 4.714666666666666 -10.805333333333332 11.957333333333333 -10.805333333333332 20.714666666666666 0 8.799999999999999 4.778666666666666 16 10.911999999999999 20.62933333333333 6.133333333333333 4.629333333333333 14.144 7.2 22.570666666666668 7.2 4.266666666666667 0 7.68 1.2906666666666666 9.770666666666667 2.848 2.0693333333333332 1.5359999999999998 2.3786666666666667 2.88 2.3786666666666667 3.552 0 0.6826666666666666 -0.33066666666666666 2.0586666666666664 -2.4106666666666667 3.626666666666667 -2.1013333333333333 1.5786666666666664 -5.504 2.88 -9.738666666666667 2.88l-0.42666666666666664 0a13.930666666666667 13.930666666666667 0 0 1 -11.658666666666665 -5.525333333333333 10.666666666666666 10.666666666666666 0 1 0 -17.024 12.863999999999999 35.25333333333333 35.25333333333333 0 0 0 18.453333333333333 12.650666666666666v2.08a10.666666666666666 10.666666666666666 0 0 0 21.333333333333332 0v-2.1653333333333333a35.199999999999996 35.199999999999996 0 0 0 11.882666666666667 -5.728c6.165333333333333 -4.64 10.922666666666666 -11.84 10.922666666666666 -20.69333333333333 0 -8.853333333333332 -4.778666666666666 -16.042666666666666 -10.965333333333334 -20.650666666666666 -6.165333333333333 -4.586666666666666 -14.165333333333333 -7.072 -22.506666666666664 -7.072 -4.213333333333333 0 -7.605333333333332 -1.3013333333333332 -9.728 -2.8906666666666667 -2.1226666666666665 -1.5999999999999999 -2.432 -2.9973333333333336 -2.432 -3.6053333333333333 0 -0.6613333333333333 0.3626666666666667 -2.1653333333333333 2.5386666666666664 -3.8506666666666662a15.84 15.84 0 0 1 10.037333333333333 -2.986666666666667Z" clip-rule="evenodd" stroke-width="10.6667"></path>
</svg>