<svg xmlns="http://www.w3.org/2000/svg" id="Casino-Chip-5--Streamline-Ultimate" width="256" height="256" viewBox="0 0 256 256"><desc>Casino Chip 5 Streamline Icon: https://streamlinehq.com</desc><g id="Casino-Chip-5--Streamline-Ultimate.svg"><path fill="#fff" stroke-width="10.667" d="M146.66666666666666 141.33333333333331a21.333333333333332 21.333333333333332 0 0 1 -21.333333333333332 21.333333333333332h-9.386666666666667a8 8 0 1 1 0 -16h9.386666666666667a5.333333333333333 5.333333333333333 0 0 0 0 -10.666666666666666H117.33333333333333a8.106666666666666 8.106666666666666 0 0 1 -8 -8V101.33333333333333a8.106666666666666 8.106666666666666 0 0 1 8 -8h21.333333333333332a8 8 0 0 1 0 16h-10.666666666666666a2.6666666666666665 2.6666666666666665 0 0 0 -2.6666666666666665 2.6666666666666665v5.333333333333333a2.6666666666666665 2.6666666666666665 0 0 0 2.3466666666666667 2.6666666666666665 21.333333333333332 21.333333333333332 0 0 1 18.986666666666665 21.333333333333332Z"/><path fill="#fff" stroke-width="10.667" d="M128 0a128 128 0 1 0 128 128A128 128 0 0 0 128 0Zm51.519999999999996 38.08a2.453333333333333 2.453333333333333 0 0 1 1.8133333333333335 -1.4933333333333334 3.1999999999999997 3.1999999999999997 0 0 1 2.2399999999999998 0 108.58666666666666 108.58666666666666 0 0 1 35.839999999999996 35.839999999999996 3.1999999999999997 3.1999999999999997 0 0 1 0 2.2399999999999998 2.453333333333333 2.453333333333333 0 0 1 -1.4933333333333334 1.5999999999999999l-29.973333333333333 12.906666666666666a2.88 2.88 0 0 1 -3.1999999999999997 -0.96 67.41333333333333 67.41333333333333 0 0 0 -16.96 -16.96 2.88 2.88 0 0 1 -0.96 -3.1999999999999997ZM128 26.666666666666664a10.666666666666666 10.666666666666666 0 1 1 -10.666666666666666 10.666666666666666 10.666666666666666 10.666666666666666 0 0 1 10.666666666666666 -10.666666666666666Zm-55.36 10.666666666666666a3.1999999999999997 3.1999999999999997 0 0 1 2.2399999999999998 0 2.453333333333333 2.453333333333333 0 0 1 1.5999999999999999 1.4933333333333334l12.693333333333332 29.226666666666667a2.88 2.88 0 0 1 -0.96 3.1999999999999997 67.41333333333333 67.41333333333333 0 0 0 -16.96 16.96 2.88 2.88 0 0 1 -3.1999999999999997 0.96L38.08 76.47999999999999A2.453333333333333 2.453333333333333 0 0 1 36.586666666666666 74.66666666666666a3.1999999999999997 3.1999999999999997 0 0 1 0 -2.2399999999999998 108.58666666666666 108.58666666666666 0 0 1 36.05333333333333 -35.626666666666665ZM26.666666666666664 128a10.666666666666666 10.666666666666666 0 1 1 10.666666666666666 10.666666666666666 10.666666666666666 10.666666666666666 0 0 1 -10.666666666666666 -10.666666666666666Zm49.81333333333333 89.91999999999999a2.453333333333333 2.453333333333333 0 0 1 -1.5999999999999999 1.4933333333333334 3.1999999999999997 3.1999999999999997 0 0 1 -2.2399999999999998 0 108.58666666666666 108.58666666666666 0 0 1 -35.839999999999996 -35.839999999999996 3.1999999999999997 3.1999999999999997 0 0 1 0 -2.2399999999999998 2.453333333333333 2.453333333333333 0 0 1 1.4933333333333334 -1.5999999999999999l29.973333333333333 -12.693333333333332a2.88 2.88 0 0 1 3.1999999999999997 0.96 67.41333333333333 67.41333333333333 0 0 0 16.96 16.96 2.88 2.88 0 0 1 0.96 3.1999999999999997ZM128 229.33333333333331a10.666666666666666 10.666666666666666 0 1 1 10.666666666666666 -10.666666666666666 10.666666666666666 10.666666666666666 0 0 1 -10.666666666666666 10.666666666666666Zm0 -53.33333333333333a48 48 0 1 1 48 -48 48.10666666666666 48.10666666666666 0 0 1 -48 48Zm55.36 43.199999999999996a3.1999999999999997 3.1999999999999997 0 0 1 -2.2399999999999998 0 2.453333333333333 2.453333333333333 0 0 1 -1.5999999999999999 -1.4933333333333334l-12.693333333333332 -29.973333333333333a2.88 2.88 0 0 1 0.96 -3.1999999999999997 67.41333333333333 67.41333333333333 0 0 0 16.96 -16.96 2.88 2.88 0 0 1 3.1999999999999997 -0.96l29.973333333333333 12.693333333333332a2.453333333333333 2.453333333333333 0 0 1 1.4933333333333334 1.5999999999999999 3.1999999999999997 3.1999999999999997 0 0 1 0 2.2399999999999998 108.58666666666666 108.58666666666666 0 0 1 -36.05333333333333 36.05333333333333ZM218.66666666666666 138.66666666666666a10.666666666666666 10.666666666666666 0 1 1 10.666666666666666 -10.666666666666666 10.666666666666666 10.666666666666666 0 0 1 -10.666666666666666 10.666666666666666Z"/></g></svg>