<svg xmlns="http://www.w3.org/2000/svg" id="Casino-Lucky-7--Streamline-Ultimate" width="256" height="256" viewBox="0 0 256 256"><desc>Casino Lucky 7 Streamline Icon: https://streamlinehq.com</desc><path fill="#fff" stroke-width="10.667" d="M238.71999999999997 20.479999999999997 229.22666666666663 9.066666666666666a16.106666666666666 16.106666666666666 0 0 0 -19.413333333333334 -4.053333333333333 102.72 102.72 0 0 1 -43.946666666666665 10.666666666666666A78.82666666666665 78.82666666666665 0 0 1 133.33333333333331 8.426666666666666 88 88 0 0 0 96.96 0a81.28 81.28 0 0 0 -38.93333333333333 9.6 2.2399999999999998 2.2399999999999998 0 0 1 -2.0266666666666664 0A2.7733333333333334 2.7733333333333334 0 0 1 54.39999999999999 8.533333333333333 16 16 0 0 0 40.31999999999999 0h-10.666666666666666a16 16 0 0 0 -16 16v74.66666666666666a16 16 0 0 0 16 16h11.413333333333334a15.893333333333333 15.893333333333333 0 0 0 15.68 -13.013333333333332 28.16 28.16 0 0 1 28.8 -21.333333333333332 78.82666666666665 78.82666666666665 0 0 1 23.68 6.613333333333333 98.34666666666666 98.34666666666666 0 0 0 33.70666666666666 8.64 4.053333333333333 4.053333333333333 0 0 1 3.093333333333333 6.72A250.24 250.24 0 0 0 84.26666666666667 239.04a16.426666666666666 16.426666666666666 0 0 0 4.373333333333333 11.946666666666667A16 16 0 0 0 100.26666666666667 256h63.25333333333333a16 16 0 0 0 15.893333333333333 -14.293333333333333c5.76 -54.08 48.85333333333333 -170.66666666666666 61.97333333333333 -205.33333333333331a16.21333333333333 16.21333333333333 0 0 0 -2.6666666666666665 -15.893333333333333Z"/></svg>