<svg xmlns="http://www.w3.org/2000/svg" id="Cd-Broken--Streamline-Ultimate" width="256" height="256" viewBox="0 0 256 256"><desc>Cd Broken Streamline Icon: https://streamlinehq.com</desc><path fill="#fff" stroke-width="10.667" d="M159.35999999999999 2.0266666666666664a5.546666666666667 5.546666666666667 0 0 0 -5.866666666666667 2.3466666666666667l-21.333333333333332 33.599999999999994a5.4399999999999995 5.4399999999999995 0 0 0 4.586666666666666 8.213333333333333h28.586666666666666a5.333333333333333 5.333333333333333 0 0 1 4.906666666666666 3.093333333333333 5.4399999999999995 5.4399999999999995 0 0 1 -0.96 5.76l-88.10666666666665 96.53333333333333a5.226666666666667 5.226666666666667 0 0 1 -6.506666666666666 0.96 5.333333333333333 5.333333333333333 0 0 1 -1.92 -6.72l29.013333333333335 -54.72a5.4399999999999995 5.4399999999999995 0 0 0 0 -5.119999999999999 5.119999999999999 5.119999999999999 0 0 0 -4.4799999999999995 -2.453333333333333H60.266666666666666a5.4399999999999995 5.4399999999999995 0 0 1 -4.693333333333333 -2.7733333333333334 5.013333333333333 5.013333333333333 0 0 1 0 -5.333333333333333l42.666666666666664 -64a5.333333333333333 5.333333333333333 0 0 0 0 -5.973333333333334 5.4399999999999995 5.4399999999999995 0 0 0 -6.293333333333333 -2.1333333333333333 128 128 0 1 0 67.41333333333333 -1.2799999999999998Zm-48.32 144.42666666666665a5.653333333333333 5.653333333333333 0 0 1 6.3999999999999995 -0.8533333333333333 22.08 22.08 0 0 0 26.24 -3.733333333333333 22.29333333333333 22.29333333333333 0 0 0 2.453333333333333 -28.479999999999997 5.333333333333333 5.333333333333333 0 0 1 0 -6.293333333333333l3.1999999999999997 -4.373333333333333a5.333333333333333 5.333333333333333 0 0 1 8.426666666666666 0 38.18666666666667 38.18666666666667 0 0 1 -49.919999999999995 56.10666666666666 5.546666666666667 5.546666666666667 0 0 1 -2.5599999999999996 -3.9466666666666663 5.226666666666667 5.226666666666667 0 0 1 1.5999999999999999 -4.373333333333333Z"/></svg>