<svg xmlns="http://www.w3.org/2000/svg" viewBox="0 0 256 256" id="Cd-Playing--Streamline-Ultimate" height="256" width="256">
  <desc>
    Cd Playing Streamline Icon: https://streamlinehq.com
  </desc>
  <g id="Cd-Playing--Streamline-Ultimate.svg">
    <path d="M128 0a128 128 0 1 0 128 128A128 128 0 0 0 128 0ZM24 128a2.7733333333333334 2.7733333333333334 0 0 1 -2.6666666666666665 -2.7733333333333334 106.66666666666666 106.66666666666666 0 0 1 29.333333333333332 -70.61333333333333 2.6666666666666665 2.6666666666666665 0 0 1 1.92 -1.2799999999999998 2.5599999999999996 2.5599999999999996 0 0 1 1.92 0.7466666666666667l43.413333333333334 43.84a2.6666666666666665 2.6666666666666665 0 0 0 3.626666666666667 0 40 40 0 0 1 66.34666666666666 27.52 2.6666666666666665 2.6666666666666665 0 0 0 2.7733333333333334 2.5599999999999996h61.44a2.7733333333333334 2.7733333333333334 0 0 1 2.6666666666666665 2.7733333333333334 106.66666666666666 106.66666666666666 0 0 1 -29.333333333333332 70.61333333333333 2.6666666666666665 2.6666666666666665 0 0 1 -1.92 0.8533333333333333 2.5599999999999996 2.5599999999999996 0 0 1 -1.92 -0.7466666666666667l-43.413333333333334 -43.413333333333334a2.6666666666666665 2.6666666666666665 0 0 0 -3.626666666666667 0 39.46666666666667 39.46666666666667 0 0 1 -26.453333333333333 10.026666666666666 40 40 0 0 1 -39.89333333333333 -37.54666666666667A2.6666666666666665 2.6666666666666665 0 0 0 85.33333333333333 128Z" fill="#ffffff" stroke-width="10.6667"></path>
    <path d="M104 128a24 24 0 1 0 48 0 24 24 0 1 0 -48 0" fill="#ffffff" stroke-width="10.6667"></path>
  </g>
</svg>