<svg xmlns="http://www.w3.org/2000/svg" viewBox="0 0 256 256" id="Cell-Border-Frame--Streamline-Ultimate" height="256" width="256">
  <desc>
    Cell Border Frame Streamline Icon: https://streamlinehq.com
  </desc>
  <g id="Cell-Border-Frame--Streamline-Ultimate.svg">
    <path d="M128 176a10.666666666666666 10.666666666666666 0 0 0 -10.666666666666666 10.666666666666666v21.333333333333332a10.666666666666666 10.666666666666666 0 0 0 21.333333333333332 0v-21.333333333333332a10.666666666666666 10.666666666666666 0 0 0 -10.666666666666666 -10.666666666666666Z" fill="#ffffff" stroke-width="10.6667"></path>
    <path d="M128 80a10.666666666666666 10.666666666666666 0 0 0 10.666666666666666 -10.666666666666666v-21.333333333333332a10.666666666666666 10.666666666666666 0 0 0 -21.333333333333332 0v21.333333333333332a10.666666666666666 10.666666666666666 0 0 0 10.666666666666666 10.666666666666666Z" fill="#ffffff" stroke-width="10.6667"></path>
    <path d="M69.33333333333333 117.33333333333333h-21.333333333333332a10.666666666666666 10.666666666666666 0 0 0 0 21.333333333333332h21.333333333333332a10.666666666666666 10.666666666666666 0 0 0 0 -21.333333333333332Z" fill="#ffffff" stroke-width="10.6667"></path>
    <path d="M208 117.33333333333333h-21.333333333333332a10.666666666666666 10.666666666666666 0 0 0 0 21.333333333333332h21.333333333333332a10.666666666666666 10.666666666666666 0 0 0 0 -21.333333333333332Z" fill="#ffffff" stroke-width="10.6667"></path>
    <path d="M149.33333333333331 117.33333333333333h-8a2.6666666666666665 2.6666666666666665 0 0 1 -2.6666666666666665 -2.6666666666666665V106.66666666666666a10.666666666666666 10.666666666666666 0 0 0 -21.333333333333332 0v8a2.6666666666666665 2.6666666666666665 0 0 1 -2.6666666666666665 2.6666666666666665H106.66666666666666a10.666666666666666 10.666666666666666 0 0 0 0 21.333333333333332h8a2.6666666666666665 2.6666666666666665 0 0 1 2.6666666666666665 2.6666666666666665V149.33333333333331a10.666666666666666 10.666666666666666 0 0 0 21.333333333333332 0v-8a2.6666666666666665 2.6666666666666665 0 0 1 2.6666666666666665 -2.6666666666666665H149.33333333333331a10.666666666666666 10.666666666666666 0 0 0 0 -21.333333333333332Z" fill="#ffffff" stroke-width="10.6667"></path>
    <path d="M234.66666666666666 0H21.333333333333332a21.333333333333332 21.333333333333332 0 0 0 -21.333333333333332 21.333333333333332v213.33333333333331a21.333333333333332 21.333333333333332 0 0 0 21.333333333333332 21.333333333333332h213.33333333333331a21.333333333333332 21.333333333333332 0 0 0 21.333333333333332 -21.333333333333332V21.333333333333332a21.333333333333332 21.333333333333332 0 0 0 -21.333333333333332 -21.333333333333332ZM21.333333333333332 229.33333333333331v-202.66666666666666a5.333333333333333 5.333333333333333 0 0 1 5.333333333333333 -5.333333333333333h202.66666666666666a5.333333333333333 5.333333333333333 0 0 1 5.333333333333333 5.333333333333333v202.66666666666666a5.333333333333333 5.333333333333333 0 0 1 -5.333333333333333 5.333333333333333h-202.66666666666666a5.333333333333333 5.333333333333333 0 0 1 -5.333333333333333 -5.333333333333333Z" fill="#ffffff" stroke-width="10.6667"></path>
  </g>
</svg>