<svg xmlns="http://www.w3.org/2000/svg" viewBox="0 0 256 256" id="Cellular-Network-Wifi-3-G--Streamline-Ultimate" height="256" width="256">
  <desc>
    Cellular Network Wifi 3 G Streamline Icon: https://streamlinehq.com
  </desc>
  <g id="Cellular-Network-Wifi-3-G--Streamline-Ultimate.svg">
    <path d="M162.13333333333333 126.39999999999999a10.666666666666666 10.666666666666666 0 0 0 16.96 -13.013333333333332 64.74666666666667 64.74666666666667 0 0 0 -102.29333333333332 0 10.666666666666666 10.666666666666666 0 0 0 16.96 13.013333333333332 43.30666666666666 43.30666666666666 0 0 1 68.37333333333333 0Z" fill="#ffffff" stroke-width="10.6667"></path>
    <path d="M128 44.16a99.30666666666667 99.30666666666667 0 0 0 -77.75999999999999 37.22666666666667 10.666666666666666 10.666666666666666 0 0 0 16.64 13.333333333333332 78.29333333333332 78.29333333333332 0 0 1 122.02666666666666 0 10.666666666666666 10.666666666666666 0 0 0 15.04 1.2799999999999998 10.666666666666666 10.666666666666666 0 0 0 1.5999999999999999 -14.933333333333332A99.41333333333333 99.41333333333333 0 0 0 128 44.16Z" fill="#ffffff" stroke-width="10.6667"></path>
    <path d="M232.53333333333333 50.666666666666664a133.33333333333331 133.33333333333331 0 0 0 -209.06666666666666 0A10.666666666666666 10.666666666666666 0 1 0 40.10666666666666 64a112 112 0 0 1 175.67999999999998 0 10.666666666666666 10.666666666666666 0 0 0 15.04 1.7066666666666666 10.666666666666666 10.666666666666666 0 0 0 1.7066666666666666 -15.04Z" fill="#ffffff" stroke-width="10.6667"></path>
    <path d="M85.33333333333333 149.33333333333331H53.33333333333333a10.666666666666666 10.666666666666666 0 0 0 0 21.333333333333332h32a10.666666666666666 10.666666666666666 0 0 1 0 21.333333333333332H69.54666666666665a10.666666666666666 10.666666666666666 0 0 0 0 21.333333333333332H85.33333333333333a10.666666666666666 10.666666666666666 0 0 1 0 21.333333333333332H53.33333333333333a10.666666666666666 10.666666666666666 0 0 0 0 21.333333333333332h32a32 32 0 0 0 32 -32 32 32 0 0 0 -8.213333333333333 -21.333333333333332 32 32 0 0 0 8.213333333333333 -21.333333333333332 32 32 0 0 0 -32 -32Z" fill="#ffffff" stroke-width="10.6667"></path>
    <path d="M170.66666666666666 170.66666666666666a10.666666666666666 10.666666666666666 0 0 1 10.666666666666666 10.666666666666666 10.666666666666666 10.666666666666666 0 0 0 21.333333333333332 0 32 32 0 0 0 -64 0v42.666666666666664a32 32 0 0 0 64 0v-10.666666666666666a10.666666666666666 10.666666666666666 0 0 0 -10.666666666666666 -10.666666666666666h-16a10.666666666666666 10.666666666666666 0 1 0 0 21.333333333333332h5.333333333333333a10.666666666666666 10.666666666666666 0 0 1 -21.333333333333332 0v-42.666666666666664a10.666666666666666 10.666666666666666 0 0 1 10.666666666666666 -10.666666666666666Z" fill="#ffffff" stroke-width="10.6667"></path>
  </g>
</svg>