<svg xmlns="http://www.w3.org/2000/svg" viewBox="0 0 256 256" id="Cellular-Network-Lte--Streamline-Ultimate" height="256" width="256">
  <desc>
    Cellular Network Lte Streamline Icon: https://streamlinehq.com
  </desc>
  <g id="Cellular-Network-Lte--Streamline-Ultimate.svg">
    <path d="M90.66666666666666 234.66666666666666H64a5.333333333333333 5.333333333333333 0 0 1 -5.333333333333333 -5.333333333333333V160a10.666666666666666 10.666666666666666 0 0 0 -21.333333333333332 0v69.33333333333333A26.666666666666664 26.666666666666664 0 0 0 64 256h26.666666666666664a10.666666666666666 10.666666666666666 0 0 0 0 -21.333333333333332Z" fill="#ffffff" stroke-width="10.6667"></path>
    <path d="M208 234.66666666666666H181.33333333333331a5.333333333333333 5.333333333333333 0 0 1 -5.333333333333333 -5.333333333333333V213.33333333333331H192a10.666666666666666 10.666666666666666 0 0 0 0 -21.333333333333332h-16v-16a5.333333333333333 5.333333333333333 0 0 1 5.333333333333333 -5.333333333333333h26.666666666666664a10.666666666666666 10.666666666666666 0 0 0 0 -21.333333333333332H181.33333333333331a26.666666666666664 26.666666666666664 0 0 0 -26.666666666666664 26.666666666666664v53.33333333333333A26.666666666666664 26.666666666666664 0 0 0 181.33333333333331 256h26.666666666666664a10.666666666666666 10.666666666666666 0 0 0 0 -21.333333333333332Z" fill="#ffffff" stroke-width="10.6667"></path>
    <path d="M144 149.33333333333331h-42.666666666666664a10.666666666666666 10.666666666666666 0 0 0 0 21.333333333333332h10.666666666666666v74.66666666666666a10.666666666666666 10.666666666666666 0 0 0 21.333333333333332 0v-74.66666666666666h10.666666666666666a10.666666666666666 10.666666666666666 0 0 0 0 -21.333333333333332Z" fill="#ffffff" stroke-width="10.6667"></path>
    <path d="M166.29333333333332 117.33333333333333a5.333333333333333 5.333333333333333 0 0 0 8.64 0l26.666666666666664 -37.33333333333333a5.333333333333333 5.333333333333333 0 0 0 -4.266666666666667 -8.426666666666666h-13.333333333333332V13.333333333333332a13.333333333333332 13.333333333333332 0 0 0 -26.666666666666664 0v58.666666666666664H144a5.333333333333333 5.333333333333333 0 0 0 -4.373333333333333 8.426666666666666Z" fill="#ffffff" stroke-width="10.6667"></path>
    <path d="M64 48h13.333333333333332V106.66666666666666a13.333333333333332 13.333333333333332 0 0 0 26.666666666666664 0V48H117.33333333333333a5.333333333333333 5.333333333333333 0 0 0 4.266666666666667 -8.426666666666666L94.93333333333334 2.2399999999999998a5.546666666666667 5.546666666666667 0 0 0 -8.64 0l-26.666666666666664 37.33333333333333A5.333333333333333 5.333333333333333 0 0 0 64 48Z" fill="#ffffff" stroke-width="10.6667"></path>
  </g>
</svg>