<svg xmlns="http://www.w3.org/2000/svg" viewBox="0 0 256 256" id="Certified-Diploma--Streamline-Ultimate" height="256" width="256">
  <desc>
    Certified Diploma Streamline Icon: https://streamlinehq.com
  </desc>
  <g id="Certified-Diploma--Streamline-Ultimate.svg">
    <path d="M183.04 2.0266666666666664a10.666666666666666 10.666666666666666 0 0 0 -8.746666666666666 4.4799999999999995l-41.28 59.199999999999996a2.6666666666666665 2.6666666666666665 0 0 0 1.8133333333333335 4.16 58.346666666666664 58.346666666666664 0 0 1 26.666666666666664 10.666666666666666 2.5599999999999996 2.5599999999999996 0 0 0 3.413333333333333 0l13.226666666666667 -13.973333333333333a8 8 0 0 1 11.306666666666667 0 8.213333333333333 8.213333333333333 0 0 1 0 11.413333333333334l-13.333333333333332 13.226666666666667a2.7733333333333334 2.7733333333333334 0 0 0 0 3.413333333333333 58.02666666666667 58.02666666666667 0 0 1 10.133333333333333 26.77333333333333 2.7733333333333334 2.7733333333333334 0 0 0 1.5999999999999999 2.1333333333333333 2.6666666666666665 2.6666666666666665 0 0 0 2.6666666666666665 0l59.30666666666666 -41.599999999999994a10.666666666666666 10.666666666666666 0 0 0 4.4799999999999995 -8.746666666666666C253.9733333333333 48.42666666666666 207.57333333333332 2.0266666666666664 183.04 2.0266666666666664Z" fill="#ffffff" stroke-width="10.6667"></path>
    <path d="M94.50666666666666 175.89333333333332a2.5599999999999996 2.5599999999999996 0 0 0 -3.413333333333333 0L74.66666666666666 192.64A8 8 0 0 1 64 181.33333333333331l16.32 -16.32a2.7733333333333334 2.7733333333333334 0 0 0 0 -3.413333333333333 58.346666666666664 58.346666666666664 0 0 1 -10.666666666666666 -26.666666666666664 2.7733333333333334 2.7733333333333334 0 0 0 -1.5999999999999999 -2.1333333333333333 2.453333333333333 2.453333333333333 0 0 0 -2.5599999999999996 0L6.506666666666666 174.29333333333332a10.666666666666666 10.666666666666666 0 0 0 -4.4799999999999995 8.746666666666666c0 24.53333333333333 46.39999999999999 70.93333333333334 70.93333333333334 70.93333333333334a10.666666666666666 10.666666666666666 0 0 0 8.746666666666666 -4.4799999999999995l41.49333333333333 -59.30666666666666a2.453333333333333 2.453333333333333 0 0 0 0 -2.5599999999999996 2.5599999999999996 2.5599999999999996 0 0 0 -2.1333333333333333 -1.5999999999999999 58.45333333333333 58.45333333333333 0 0 1 -26.560000000000002 -10.133333333333333Z" fill="#ffffff" stroke-width="10.6667"></path>
    <path d="M169.38666666666666 169.38666666666666a58.773333333333326 58.773333333333326 0 0 1 -24.959999999999997 14.719999999999999 2.5599999999999996 2.5599999999999996 0 0 0 -1.8133333333333335 1.92 2.88 2.88 0 0 0 0.6399999999999999 2.5599999999999996l45.120000000000005 45.01333333333333a10.666666666666666 10.666666666666666 0 0 0 18.133333333333333 -7.573333333333332v-19.52h19.52a10.666666666666666 10.666666666666666 0 0 0 7.573333333333332 -18.133333333333333l-45.120000000000005 -45.120000000000005a2.453333333333333 2.453333333333333 0 0 0 -2.5599999999999996 -0.6399999999999999 2.453333333333333 2.453333333333333 0 0 0 -1.8133333333333335 1.8133333333333335 58.13333333333333 58.13333333333333 0 0 1 -14.719999999999999 24.959999999999997Z" fill="#ffffff" stroke-width="10.6667"></path>
    <path d="M157.97333333333333 97.70666666666666a43.626666666666665 43.626666666666665 0 0 0 -60.266666666666666 0 42.666666666666664 42.666666666666664 0 1 0 60.266666666666666 60.373333333333335 42.666666666666664 42.666666666666664 0 0 0 0 -60.373333333333335Z" fill="#ffffff" stroke-width="10.6667"></path>
  </g>
</svg>