<svg xmlns="http://www.w3.org/2000/svg" viewBox="0 0 256 256" id="Champagne-Cooler--Streamline-Ultimate" height="256" width="256">
  <desc>
    Champagne Cooler Streamline Icon: https://streamlinehq.com
  </desc>
  <g id="Champagne-Cooler--Streamline-Ultimate.svg">
    <path d="M208 120h-160A37.33333333333333 37.33333333333333 0 0 0 34.666666666666664 192a10.666666666666666 10.666666666666666 0 0 0 3.733333333333333 0.7466666666666667 10.666666666666666 10.666666666666666 0 0 0 10.026666666666666 -6.933333333333334A10.666666666666666 10.666666666666666 0 0 0 42.666666666666664 172.26666666666665a16 16 0 0 1 5.76 -30.93333333333333h1.4933333333333334a5.4399999999999995 5.4399999999999995 0 0 1 5.226666666666667 4.053333333333333l25.599999999999998 102.50666666666666a10.666666666666666 10.666666666666666 0 0 0 10.666666666666666 8.106666666666666h74.66666666666666a10.666666666666666 10.666666666666666 0 0 0 10.666666666666666 -8.106666666666666l25.599999999999998 -102.50666666666666a5.4399999999999995 5.4399999999999995 0 0 1 5.226666666666667 -4.053333333333333h1.4933333333333334a16 16 0 0 1 5.76 30.93333333333333 10.666666666666666 10.666666666666666 0 0 0 -6.186666666666666 13.76 10.666666666666666 10.666666666666666 0 0 0 10.026666666666666 6.933333333333334 10.666666666666666 10.666666666666666 0 0 0 3.733333333333333 -0.7466666666666667 37.33333333333333 37.33333333333333 0 0 0 -13.333333333333332 -72.21333333333332Z" fill="#ffffff" stroke-width="10.6667"></path>
    <path d="M82.77333333333333 106.66666666666666h103.89333333333333a5.4399999999999995 5.4399999999999995 0 0 0 5.333333333333333 -5.333333333333333V88.32a23.253333333333334 23.253333333333334 0 0 1 9.706666666666667 -22.613333333333333l9.493333333333332 -9.493333333333332a5.333333333333333 5.333333333333333 0 0 0 0 -7.466666666666666l-15.253333333333332 -15.36a5.4399999999999995 5.4399999999999995 0 0 0 -7.573333333333332 0l-9.6 9.706666666666667a23.36 23.36 0 0 1 -22.613333333333333 10.239999999999998A65.06666666666666 65.06666666666666 0 0 0 106.66666666666666 69.44L79.03999999999999 97.49333333333334a5.4399999999999995 5.4399999999999995 0 0 0 -1.1733333333333333 5.866666666666667 5.4399999999999995 5.4399999999999995 0 0 0 4.906666666666666 3.3066666666666666Z" fill="#ffffff" stroke-width="10.6667"></path>
    <path d="M222.50666666666666 37.44a5.4399999999999995 5.4399999999999995 0 0 0 7.573333333333332 0l13.12 -13.226666666666667a5.226666666666667 5.226666666666667 0 0 0 2.1333333333333333 -3.84 5.4399999999999995 5.4399999999999995 0 0 0 -1.5999999999999999 -3.733333333333333L227.73333333333335 1.4933333333333334a5.226666666666667 5.226666666666667 0 0 0 -7.466666666666666 0l-13.013333333333332 13.12a5.119999999999999 5.119999999999999 0 0 0 0 7.466666666666666Z" fill="#ffffff" stroke-width="10.6667"></path>
  </g>
</svg>