<svg xmlns="http://www.w3.org/2000/svg" viewBox="0 0 256 256" id="Charging-Flash-Wifi--Streamline-Ultimate" height="256" width="256">
  <desc>
    Charging Flash Wifi Streamline Icon: https://streamlinehq.com
  </desc>
  <g id="Charging-Flash-Wifi--Streamline-Ultimate.svg">
    <path d="M225.92 43.519999999999996a144.95999999999998 144.95999999999998 0 0 0 -195.83999999999997 0 10.666666666666666 10.666666666666666 0 0 0 14.506666666666668 15.68 123.30666666666667 123.30666666666667 0 0 1 166.82666666666665 0 10.666666666666666 10.666666666666666 0 0 0 14.506666666666668 -15.68Z" fill="#ffffff" stroke-width="10.6667"></path>
    <path d="M194.02666666666667 74.66666666666666A96 96 0 0 0 61.97333333333333 74.66666666666666a10.666666666666666 10.666666666666666 0 0 0 14.719999999999999 15.04 74.66666666666666 74.66666666666666 0 0 1 102.61333333333332 0 10.666666666666666 10.666666666666666 0 0 0 15.146666666666665 0A10.666666666666666 10.666666666666666 0 0 0 194.02666666666667 74.66666666666666Z" fill="#ffffff" stroke-width="10.6667"></path>
    <path d="M161.06666666666666 154.56h-19.946666666666665a2.6666666666666665 2.6666666666666665 0 0 1 -2.6666666666666665 -2.6666666666666665V96a5.226666666666667 5.226666666666667 0 0 0 -3.626666666666667 -5.013333333333333 5.119999999999999 5.119999999999999 0 0 0 -5.866666666666667 1.7066666666666666l-62.93333333333334 78.61333333333333a9.386666666666667 9.386666666666667 0 0 0 -1.3866666666666667 9.92 9.28 9.28 0 0 0 8.426666666666666 5.4399999999999995h20.05333333333333a2.6666666666666665 2.6666666666666665 0 0 1 2.6666666666666665 2.6666666666666665V245.33333333333331a5.333333333333333 5.333333333333333 0 0 0 9.493333333333332 3.3066666666666666l62.93333333333334 -78.61333333333333a9.28 9.28 0 0 0 -7.1466666666666665 -15.36Z" fill="#ffffff" stroke-width="10.6667"></path>
  </g>
</svg>