<svg xmlns="http://www.w3.org/2000/svg" viewBox="0 0 256 256" id="Charging-Battery-Empty--Streamline-Ultimate" height="256" width="256">
  <desc>
    Charging Battery Empty Streamline Icon: https://streamlinehq.com
  </desc>
  <g id="Charging-Battery-Empty--Streamline-Ultimate.svg">
    <path d="M256 112a21.333333333333332 21.333333333333332 0 0 0 -21.333333333333332 -21.333333333333332h-10.666666666666666v-10.666666666666666a21.333333333333332 21.333333333333332 0 0 0 -21.333333333333332 -21.333333333333332h-45.33333333333333a2.6666666666666665 2.6666666666666665 0 0 0 -2.6666666666666665 2.6666666666666665v16a2.6666666666666665 2.6666666666666665 0 0 0 2.6666666666666665 2.6666666666666665h40a5.333333333333333 5.333333333333333 0 0 1 5.333333333333333 5.333333333333333v16a10.666666666666666 10.666666666666666 0 0 0 10.666666666666666 10.666666666666666h21.333333333333332v32h-21.333333333333332a10.666666666666666 10.666666666666666 0 0 0 -10.666666666666666 10.666666666666666V170.66666666666666a5.333333333333333 5.333333333333333 0 0 1 -5.333333333333333 5.333333333333333h-46.08a2.6666666666666665 2.6666666666666665 0 0 0 -2.0266666666666664 0.96l-12.799999999999999 16a2.7733333333333334 2.7733333333333334 0 0 0 0 2.88 2.7733333333333334 2.7733333333333334 0 0 0 2.3466666666666667 1.4933333333333334h64a21.333333333333332 21.333333333333332 0 0 0 21.333333333333332 -21.333333333333332v-10.666666666666666h10.666666666666666a21.333333333333332 21.333333333333332 0 0 0 21.333333333333332 -21.333333333333332Z" fill="#ffffff" stroke-width="10.6667"></path>
    <path d="M26.666666666666664 176A5.333333333333333 5.333333333333333 0 0 1 21.333333333333332 170.66666666666666V85.33333333333333a5.333333333333333 5.333333333333333 0 0 1 5.333333333333333 -5.333333333333333h56.74666666666667A2.986666666666667 2.986666666666667 0 0 0 85.33333333333333 79.03999999999999l12.799999999999999 -16a2.7733333333333334 2.7733333333333334 0 0 0 0 -2.88 2.5599999999999996 2.5599999999999996 0 0 0 -2.1333333333333333 -1.4933333333333334H21.333333333333332a21.333333333333332 21.333333333333332 0 0 0 -21.333333333333332 21.333333333333332v96a21.333333333333332 21.333333333333332 0 0 0 21.333333333333332 21.333333333333332h56a2.6666666666666665 2.6666666666666665 0 0 0 2.6666666666666665 -2.6666666666666665v-16a2.6666666666666665 2.6666666666666665 0 0 0 -2.6666666666666665 -2.6666666666666665Z" fill="#ffffff" stroke-width="10.6667"></path>
    <path d="M168.42666666666665 127.35999999999999a9.28 9.28 0 0 0 -7.1466666666666665 -15.36h-19.946666666666665a2.6666666666666665 2.6666666666666665 0 0 1 -2.6666666666666665 -2.6666666666666665V53.33333333333333a5.333333333333333 5.333333333333333 0 0 0 -9.493333333333332 -3.3066666666666666l-62.93333333333334 78.61333333333333a9.28 9.28 0 0 0 7.1466666666666665 15.36h19.946666666666665a2.6666666666666665 2.6666666666666665 0 0 1 2.6666666666666665 2.6666666666666665V202.66666666666666a5.333333333333333 5.333333333333333 0 0 0 9.493333333333332 3.3066666666666666Z" fill="#ffffff" stroke-width="10.6667"></path>
  </g>
</svg>