<svg xmlns="http://www.w3.org/2000/svg" id="Charger-1--Streamline-Ultimate" width="256" height="256" viewBox="0 0 256 256"><desc>Charger 1 Streamline Icon: https://streamlinehq.com</desc><g id="Charger-1--Streamline-Ultimate.svg"><path fill="#fff" stroke-width="10.667" d="M213.33333333333331 64h-24a2.6666666666666665 2.6666666666666665 0 0 1 -2.6666666666666665 -2.6666666666666665V16a16 16 0 0 0 -32 0v45.33333333333333a2.6666666666666665 2.6666666666666665 0 0 1 -2.6666666666666665 2.6666666666666665h-48a2.6666666666666665 2.6666666666666665 0 0 1 -2.6666666666666665 -2.6666666666666665V16a16 16 0 0 0 -32 0v45.33333333333333a2.6666666666666665 2.6666666666666665 0 0 1 -2.6666666666666665 2.6666666666666665H42.666666666666664a16 16 0 0 0 0 32h170.66666666666666a16 16 0 0 0 0 -32Z"/><path fill="#fff" stroke-width="10.667" d="M192 112H64a5.333333333333333 5.333333333333333 0 0 0 -5.333333333333333 5.333333333333333v26.666666666666664a47.89333333333333 47.89333333333333 0 0 0 40.42666666666666 47.14666666666666 2.7733333333333334 2.7733333333333334 0 0 1 2.2399999999999998 2.6666666666666665v14.186666666666667a16.106666666666666 16.106666666666666 0 0 0 13.76 16 2.5599999999999996 2.5599999999999996 0 0 1 2.2399999999999998 2.5599999999999996V245.33333333333331a10.666666666666666 10.666666666666666 0 0 0 21.333333333333332 0v-18.88a2.5599999999999996 2.5599999999999996 0 0 1 2.2399999999999998 -2.5599999999999996 16.106666666666666 16.106666666666666 0 0 0 13.76 -15.893333333333333v-14.186666666666667a2.7733333333333334 2.7733333333333334 0 0 1 2.2399999999999998 -2.6666666666666665 47.89333333333333 47.89333333333333 0 0 0 40.42666666666666 -47.14666666666666V117.33333333333333a5.333333333333333 5.333333333333333 0 0 0 -5.333333333333333 -5.333333333333333Z"/></g></svg>