<svg xmlns="http://www.w3.org/2000/svg" viewBox="0 0 256 256" id="Charging-Battery-Medium-1--Streamline-Ultimate" height="256" width="256">
  <desc>
    Charging Battery Medium 1 Streamline Icon: https://streamlinehq.com
  </desc>
  <g id="Charging-Battery-Medium-1--Streamline-Ultimate.svg">
    <path d="M256 112a21.333333333333332 21.333333333333332 0 0 0 -21.333333333333332 -21.333333333333332h-10.666666666666666v-10.666666666666666a21.333333333333332 21.333333333333332 0 0 0 -21.333333333333332 -21.333333333333332H21.333333333333332a21.333333333333332 21.333333333333332 0 0 0 -21.333333333333332 21.333333333333332v96a21.333333333333332 21.333333333333332 0 0 0 21.333333333333332 21.333333333333332h181.33333333333331a21.333333333333332 21.333333333333332 0 0 0 21.333333333333332 -21.333333333333332v-10.666666666666666h10.666666666666666a21.333333333333332 21.333333333333332 0 0 0 21.333333333333332 -21.333333333333332Zm-21.333333333333332 29.333333333333332a2.6666666666666665 2.6666666666666665 0 0 1 -2.6666666666666665 2.6666666666666665H213.33333333333331a10.666666666666666 10.666666666666666 0 0 0 -10.666666666666666 10.666666666666666V170.66666666666666a5.4399999999999995 5.4399999999999995 0 0 1 -5.333333333333333 5.333333333333333h-170.66666666666666A5.333333333333333 5.333333333333333 0 0 1 21.333333333333332 170.66666666666666V85.33333333333333a5.333333333333333 5.333333333333333 0 0 1 5.333333333333333 -5.333333333333333h170.66666666666666a5.333333333333333 5.333333333333333 0 0 1 5.333333333333333 5.333333333333333v16a10.666666666666666 10.666666666666666 0 0 0 10.666666666666666 10.666666666666666h18.666666666666664a2.6666666666666665 2.6666666666666665 0 0 1 2.6666666666666665 2.6666666666666665Z" fill="#ffffff" stroke-width="10.6667"></path>
    <path d="M37.33333333333333 90.66666666666666H106.66666666666666s5.333333333333333 0 5.333333333333333 5.333333333333333v64s0 5.333333333333333 -5.333333333333333 5.333333333333333H37.33333333333333s-5.333333333333333 0 -5.333333333333333 -5.333333333333333V96s0 -5.333333333333333 5.333333333333333 -5.333333333333333" fill="#ffffff" stroke-width="10.6667"></path>
  </g>
</svg>