<svg xmlns="http://www.w3.org/2000/svg" fill="none" viewBox="0 0 256 256" id="Checkup-Chart--Streamline-Ultimate" height="256" width="256">
  <desc>
    Checkup Chart Streamline Icon: https://streamlinehq.com
  </desc>
  <path fill="#ffffff" fill-rule="evenodd" d="M96.38399999999999 0c-7.712 0 -13.973333333333333 5.621333333333333 -13.973333333333333 12.565333333333331v13.013333333333332c0 6.944 6.261333333333333 12.576 13.973333333333333 12.576h63.232c7.722666666666666 0 13.973333333333333 -5.632 13.973333333333333 -12.565333333333331V12.565333333333331c0 -6.933333333333334 -6.250666666666666 -12.565333333333331 -13.973333333333333 -12.565333333333331H96.38399999999999Zm-29.973333333333333 19.072h-17.386666666666663a19.744 19.744 0 0 0 -19.733333333333334 19.744v197.44A19.733333333333334 19.733333333333334 0 0 0 49.01333333333333 256h157.952a19.744 19.744 0 0 0 19.733333333333334 -19.733333333333334V38.82666666666667a19.744 19.744 0 0 0 -19.733333333333334 -19.754666666666665h-17.386666666666663v6.506666666666666c0 17.333333333333332 -15.050666666666666 28.575999999999997 -29.973333333333333 28.575999999999997H96.38399999999999c-14.911999999999999 0 -29.973333333333333 -11.242666666666667 -29.973333333333333 -28.56533333333333v-6.506666666666666Zm77.33333333333333 79.11466666666666h-31.46666666666667a5.333333333333333 5.333333333333333 0 0 0 -5.333333333333333 5.333333333333333v30.453333333333333H76.49066666666667a5.333333333333333 5.333333333333333 0 0 0 -5.333333333333333 5.333333333333333v31.46666666666667a5.333333333333333 5.333333333333333 0 0 0 5.333333333333333 5.333333333333333h30.453333333333333v30.442666666666668a5.333333333333333 5.333333333333333 0 0 0 5.333333333333333 5.333333333333333h31.46666666666667a5.333333333333333 5.333333333333333 0 0 0 5.333333333333333 -5.333333333333333v-30.453333333333333h30.442666666666668a5.333333333333333 5.333333333333333 0 0 0 5.333333333333333 -5.333333333333333v-31.46666666666667a5.333333333333333 5.333333333333333 0 0 0 -5.333333333333333 -5.333333333333333h-30.442666666666668V103.53066666666666a5.333333333333333 5.333333333333333 0 0 0 -5.333333333333333 -5.333333333333333Z" clip-rule="evenodd" stroke-width="10.6667"></path>
</svg>