<svg xmlns="http://www.w3.org/2000/svg" fill="none" viewBox="0 0 256 256" id="Checkup-Diagnostic--Streamline-Ultimate" height="256" width="256">
  <desc>
    Checkup Diagnostic Streamline Icon: https://streamlinehq.com
  </desc>
  <path fill="#ffffff" fill-rule="evenodd" d="M93.152 3.616a52.85333333333333 52.85333333333333 0 1 0 0 105.70666666666666 52.85333333333333 52.85333333333333 0 0 0 0 -105.70666666666666Zm33.962666666666664 166.49599999999998h10.421333333333333l11.029333333333334 -15.786666666666665a10.666666666666666 10.666666666666666 0 0 1 18.154666666666664 1.0879999999999999l10.773333333333333 20.234666666666666 4.224 -6.0586666666666655a10.666666666666666 10.666666666666666 0 0 1 8.746666666666666 -4.565333333333333H201.59999999999997a10.666666666666666 10.666666666666666 0 1 1 0 21.333333333333332h-5.578666666666667l-11.018666666666665 15.786666666666665a10.666666666666666 10.666666666666666 0 0 1 -18.165333333333333 -1.0986666666666665l-10.762666666666664 -20.223999999999997 -4.234666666666667 6.0586666666666655a10.666666666666666 10.666666666666666 0 0 1 -8.746666666666666 4.565333333333333h-13.333333333333332a48.14933333333333 48.14933333333333 0 0 0 78.752 18.090666666666664 11.221333333333334 11.221333333333334 0 0 1 1.0346666666666666 -1.0346666666666666 48.12799999999999 48.12799999999999 0 1 0 -82.43199999999999 -38.38933333333333Zm103.96799999999999 45.86666666666666a69.46133333333333 69.46133333333333 0 1 0 -15.082666666666665 15.082666666666665l20.05333333333333 20.064a10.666666666666666 10.666666666666666 0 0 0 15.093333333333334 -15.082666666666665l-20.05333333333333 -20.05333333333333Zm-129.17333333333332 -85.184a86.79466666666667 86.79466666666667 0 0 0 -8.757333333333332 -0.43733333333333335c-24.394666666666666 0 -47.67999999999999 10.293333333333333 -64.77866666666667 28.458666666666666 -17.066666666666666 18.133333333333333 -26.592 42.64533333333333 -26.592 68.096 0 4.426666666666666 3.584 8 8 8h104.38399999999999A85.12 85.12 0 0 1 89.6 174.9973333333333c0 -16.18133333333333 4.501333333333333 -31.306666666666665 12.309333333333331 -44.19199999999999Z" clip-rule="evenodd" stroke-width="10.6667"></path>
</svg>