<svg xmlns="http://www.w3.org/2000/svg" id="Check-Square--Streamline-Ultimate" width="256" height="256" viewBox="0 0 256 256"><desc>Check Square Streamline Icon: https://streamlinehq.com</desc><g id="Check-Square--Streamline-Ultimate.svg"><path fill="#fff" stroke-width="10.667" d="M136.74666666666667 192a32 32 0 0 1 -47.57333333333333 2.5599999999999996l-37.54666666666667 -37.12a33.06666666666666 33.06666666666666 0 0 1 -2.453333333333333 -45.22666666666667A32 32 0 0 1 96 110.93333333333334l10.666666666666666 11.52a2.7733333333333334 2.7733333333333334 0 0 0 3.9466666666666663 0l60.58666666666666 -74.66666666666666A2.6666666666666665 2.6666666666666665 0 0 0 169.6 42.666666666666664H16.32A16 16 0 0 0 0 58.666666666666664v181.33333333333331A16 16 0 0 0 16.32 256h181.33333333333331A16 16 0 0 0 213.33333333333331 240V104.42666666666665a2.6666666666666665 2.6666666666666665 0 0 0 -4.693333333333333 -1.7066666666666666Z"/><path fill="#fff" stroke-width="10.667" d="M249.70666666666665 3.52a16 16 0 0 0 -22.506666666666664 2.453333333333333L110.50666666666666 148.48 84.26666666666667 122.24000000000001a16 16 0 1 0 -22.613333333333333 22.613333333333333l38.82666666666667 38.82666666666667a16.21333333333333 16.21333333333333 0 0 0 23.786666666666665 -1.2799999999999998l128 -156.37333333333333a16.106666666666666 16.106666666666666 0 0 0 -2.5599999999999996 -22.506666666666664Z"/></g></svg>