<svg xmlns="http://www.w3.org/2000/svg" viewBox="0 0 256 256" id="Checklist--Streamline-Ultimate" height="256" width="256">
  <desc>
    Checklist Streamline Icon: https://streamlinehq.com
  </desc>
  <path d="M229.33333333333331 0h-202.66666666666666A26.666666666666664 26.666666666666664 0 0 0 0 26.666666666666664v202.66666666666666A26.666666666666664 26.666666666666664 0 0 0 26.666666666666664 256h202.66666666666666a26.666666666666664 26.666666666666664 0 0 0 26.666666666666664 -26.666666666666664v-202.66666666666666A26.666666666666664 26.666666666666664 0 0 0 229.33333333333331 0Zm-32 101.33333333333333H149.33333333333331a10.666666666666666 10.666666666666666 0 0 1 0 -21.333333333333332h48a10.666666666666666 10.666666666666666 0 0 1 0 21.333333333333332Zm10.666666666666666 85.33333333333333a10.666666666666666 10.666666666666666 0 0 1 -10.666666666666666 10.666666666666666H149.33333333333331a10.666666666666666 10.666666666666666 0 0 1 0 -21.333333333333332h48a10.666666666666666 10.666666666666666 0 0 1 10.666666666666666 10.666666666666666ZM120.53333333333333 59.73333333333333l-32 42.666666666666664a10.666666666666666 10.666666666666666 0 0 1 -7.786666666666666 4.266666666666667 10.666666666666666 10.666666666666666 0 0 1 -8.32 -3.093333333333333l-16 -16a10.666666666666666 10.666666666666666 0 1 1 15.146666666666665 -15.146666666666665l7.253333333333334 7.359999999999999L103.46666666666665 46.93333333333334a10.666666666666666 10.666666666666666 0 0 1 17.066666666666666 12.799999999999999Zm0 106.66666666666666 -32 42.666666666666664a10.666666666666666 10.666666666666666 0 0 1 -16.106666666666666 1.1733333333333333l-16 -16a10.666666666666666 10.666666666666666 0 0 1 15.146666666666665 -15.146666666666665l7.253333333333334 7.359999999999999L103.46666666666665 153.6a10.666666666666666 10.666666666666666 0 0 1 17.066666666666666 12.799999999999999Z" fill="#ffffff" stroke-width="10.6667"></path>
</svg>