<svg xmlns="http://www.w3.org/2000/svg" id="Chef-Gear-Gloves--Streamline-Ultimate" width="256" height="256" viewBox="0 0 256 256"><desc>Chef Gear Gloves Streamline Icon: https://streamlinehq.com</desc><g id="Chef-Gear-Gloves--Streamline-Ultimate.svg"><g><path fill="#fff" stroke-width="10.667" d="M103.57333333333334 182.71999999999997a2.6666666666666665 2.6666666666666665 0 0 0 1.3866666666666667 -1.3866666666666667 2.6666666666666665 2.6666666666666665 0 0 0 0 -2.0266666666666664l-29.759999999999998 -65.06666666666666C58.666666666666664 77.97333333333333 64 43.519999999999996 88.64 22.826666666666668a5.226666666666667 5.226666666666667 0 0 0 -0.5333333333333333 -8.533333333333333A55.04 55.04 0 0 0 33.70666666666666 10.666666666666666c-32 14.826666666666664 -42.666666666666664 50.239999999999995 -25.386666666666663 88.10666666666665l45.76 100.26666666666667a5.4399999999999995 5.4399999999999995 0 0 0 7.1466666666666665 2.6666666666666665Z"/><path fill="#fff" stroke-width="10.667" d="M67.84 216.53333333333333a5.4399999999999995 5.4399999999999995 0 0 0 -2.7733333333333334 2.986666666666667 5.546666666666667 5.546666666666667 0 0 0 0 4.16l4.586666666666666 10.026666666666666a10.666666666666666 10.666666666666666 0 0 0 5.973333333333334 5.546666666666667 10.666666666666666 10.666666666666666 0 0 0 8.106666666666666 0l35.199999999999996 -16a5.866666666666667 5.866666666666667 0 0 0 2.7733333333333334 -2.986666666666667 5.333333333333333 5.333333333333333 0 0 0 0 -4.053333333333333l-7.893333333333333 -17.28a2.5599999999999996 2.5599999999999996 0 0 0 -3.52 -1.3866666666666667Z"/></g><g><path fill="#fff" stroke-width="10.667" d="M236.79999999999998 167.57333333333332a5.226666666666667 5.226666666666667 0 0 0 2.5599999999999996 -7.04l-2.453333333333333 -5.546666666666667a16.426666666666666 16.426666666666666 0 0 1 -1.0666666666666667 -10.666666666666666l14.719999999999999 -62.93333333333334a26.986666666666665 26.986666666666665 0 0 0 -50.239999999999995 -17.066666666666666 2.5599999999999996 2.5599999999999996 0 0 1 -2.3466666666666667 1.4933333333333334 2.7733333333333334 2.7733333333333334 0 0 1 -2.3466666666666667 -1.5999999999999999l-2.0266666666666664 -4.373333333333333c-17.28 -37.86666666666666 -50.773333333333326 -53.33333333333333 -83.19999999999999 -38.50666666666666S67.62666666666667 71.89333333333333 85.33333333333333 109.75999999999999l45.86666666666666 100.37333333333333a5.333333333333333 5.333333333333333 0 0 0 7.04 2.6666666666666665Z"/><path fill="#fff" stroke-width="10.667" d="M249.81333333333333 208.95999999999998a10.666666666666666 10.666666666666666 0 0 0 5.226666666666667 -14.186666666666667l-4.586666666666666 -10.026666666666666a5.119999999999999 5.119999999999999 0 0 0 -2.986666666666667 -2.7733333333333334 5.333333333333333 5.333333333333333 0 0 0 -4.053333333333333 0l-98.98666666666665 45.120000000000005a5.333333333333333 5.333333333333333 0 0 0 -2.6666666666666665 7.04l4.586666666666666 10.026666666666666a10.666666666666666 10.666666666666666 0 0 0 14.186666666666667 5.333333333333333Z"/></g></g></svg>