<svg xmlns="http://www.w3.org/2000/svg" id="Chemical-Hexagon-1--Streamline-Ultimate" width="256" height="256" fill="none" viewBox="0 0 256 256"><desc>Chemical Hexagon 1 Streamline Icon: https://streamlinehq.com</desc><path fill="#fff" fill-rule="evenodd" stroke-width="10.667" d="M203.98506666666665 10.514933333333332C203.98506666666665 4.707690666666666 199.2768 0 193.46986666666663 0s-10.5152 4.707690666666666 -10.5152 10.514933333333332V43.381119999999996l-37.39626666666666 21.590826666666665 -43.01205333333333 -24.833066666666667c-3.253333333333333 -1.8782933333333331 -7.261653333333333 -1.8782933333333331 -10.514986666666665 0L48.73045333333333 65.13866666666667 18.825173333333332 49.80490666666666C13.657599999999999 47.155199999999994 7.320544 49.196373333333334 4.6709119999999995 54.36394666666666c-2.649632 5.167573333333333 -0.6084693333333333 11.504639999999998 4.559072 14.154239999999998L38.62858666666666 83.59221333333332v49.042453333333334c0 3.7568 2.0041599999999997 7.2288 5.257493333333333 9.107199999999999l43.01216 24.833066666666667v44.249599999999994l-41.25962666666666 25.7376c-4.927146666666666 3.0730666666666666 -6.429866666666666 9.559466666666665 -3.3562666666666665 14.4864 3.0734933333333334 4.9269333333333325 9.559466666666665 6.429866666666666 14.486613333333333 3.3568l41.857173333333336 -26.109866666666665 41.67466666666667 24.0608c3.253333333333333 1.8784 7.261866666666666 1.8784 10.5152 0l43.1264 -24.899199999999997 36.49066666666666 23.638399999999997c4.8736 3.157333333333333 11.384533333333332 1.7653333333333334 14.541866666666666 -3.1082666666666663 3.157333333333333 -4.8736 1.7653333333333334 -11.384533333333332 -3.1082666666666663 -14.541866666666666l-37.647999999999996 -24.388266666666667v-42.48213333333333l43.01226666666666 -24.833066666666667c3.253333333333333 -1.8784 5.2576 -5.3504000000000005 5.2576 -9.107199999999999V77.04181333333332c0 -3.756693333333333 -2.0042666666666666 -7.227946666666666 -5.2576 -9.10624l-43.24586666666666 -24.96821333333333V10.514933333333332ZM183.18826666666666 166.43093333333331l-37.629866666666665 -21.725866666666665 -37.629866666666665 21.725866666666665v42.95146666666666l37.629866666666665 21.725866666666665 37.629866666666665 -21.725866666666665v-42.95146666666666Zm48.26986666666666 -39.86666666666666 -37.196799999999996 21.476266666666664 -38.06399999999999 -21.97653333333333V83.11253333333333l37.63093333333333 -21.725866666666665 37.629866666666665 21.725866666666665v43.45173333333333Zm-96.53866666666666 -0.5002666666666666V83.11253333333333L97.28885333333332 61.38666666666666 59.65845333333333 83.11253333333333v43.45173333333333l37.19701333333333 21.476266666666664 38.06399999999999 -21.97653333333333Zm74.97173333333333 -39.11306666666667c5.808 0 10.5152 4.7077333333333335 10.5152 10.514986666666665v14.742079999999998c0 5.806933333333333 -4.7072 10.5152 -10.5152 10.5152 -5.806933333333333 0 -10.514133333333334 -4.708266666666667 -10.514133333333334 -10.5152V97.46592c0 -5.807253333333333 4.7072 -10.514986666666665 10.514133333333334 -10.514986666666665Zm-70.67413333333333 99.21013333333333c-5.085866666666666 -2.8031999999999995 -11.480533333333334 -0.9503999999999999 -14.283733333333332 4.135466666666666 -2.802133333333333 5.086933333333333 -0.9503999999999999 11.4816 4.1365333333333325 14.283733333333332l14.674133333333332 8.084266666666666c5.085866666666666 2.802133333333333 11.480533333333334 0.9503999999999999 14.282666666666666 -4.1365333333333325 2.802133333333333 -5.086933333333333 0.9503999999999999 -11.4816 -4.135466666666666 -14.283733333333332l-14.674133333333332 -8.0832Zm-16.010666666666665 -76.64106666666666c2.866133333333333 5.050666666666666 1.0943999999999998 11.467733333333332 -3.9562666666666666 14.333866666666667l-15.336746666666667 8.702933333333332c-5.050666666666666 2.866133333333333 -11.46848 1.0954666666666666 -14.334506666666666 -3.9552 -2.8660266666666665 -5.050666666666666 -1.0949333333333333 -11.468799999999998 3.9558400000000002 -14.334933333333334l15.336746666666667 -8.702826666666667c5.050666666666666 -2.8660266666666665 11.468799999999998 -1.0949333333333333 14.334933333333334 3.9561599999999997Z" clip-rule="evenodd"/></svg>