<svg xmlns="http://www.w3.org/2000/svg" id="Chess-Knight--Streamline-Ultimate" width="256" height="256" viewBox="0 0 256 256"><desc>Chess Knight Streamline Icon: https://streamlinehq.com</desc><g id="Chess-Knight--Streamline-Ultimate.svg"><path fill="#fff" stroke-width="10.667" d="M61.54666666666666 128a14.186666666666667 14.186666666666667 0 0 0 13.653333333333332 -10.666666666666666c2.0266666666666664 -23.04 17.706666666666663 -22.613333333333333 25.599999999999998 -32a2.88 2.88 0 0 1 3.093333333333333 0 2.7733333333333334 2.7733333333333334 0 0 1 1.5999999999999999 2.7733333333333334 136.53333333333333 136.53333333333333 0 0 1 -17.173333333333332 47.67999999999999A124.16 124.16 0 0 0 72.32 192a5.546666666666667 5.546666666666667 0 0 0 1.4933333333333334 3.84 5.546666666666667 5.546666666666667 0 0 0 3.84 1.7066666666666666H181.33333333333331a5.226666666666667 5.226666666666667 0 0 0 4.373333333333333 -2.2399999999999998 5.546666666666667 5.546666666666667 0 0 0 0.7466666666666667 -4.8c-9.493333333333332 -27.946666666666665 -7.893333333333333 -40.85333333333333 -7.893333333333333 -78.29333333333332 0 -46.61333333333333 -1.7066666666666666 -97.27999999999999 -79.03999999999999 -90.56a5.546666666666667 5.546666666666667 0 0 1 -5.013333333333333 -2.5599999999999996A34.986666666666665 34.986666666666665 0 0 0 66.88 0a5.333333333333333 5.333333333333333 0 0 0 -5.333333333333333 5.333333333333333v18.773333333333333a10.666666666666666 10.666666666666666 0 0 1 -3.84 7.893333333333333 47.78666666666667 47.78666666666667 0 0 0 -17.493333333333332 37.33333333333333V117.33333333333333a10.666666666666666 10.666666666666666 0 0 0 10.666666666666666 10.666666666666666Z"/><path fill="#fff" stroke-width="10.667" d="M183.78666666666666 213.33333333333331h-106.66666666666666a32 32 0 0 0 -32 32 10.666666666666666 10.666666666666666 0 0 0 10.666666666666666 10.666666666666666h149.33333333333331a10.666666666666666 10.666666666666666 0 0 0 10.666666666666666 -10.666666666666666 32 32 0 0 0 -32 -32Z"/></g></svg>