<svg xmlns="http://www.w3.org/2000/svg" id="Chrome-Logo--Streamline-Ultimate" width="256" height="256" viewBox="0 0 256 256"><desc>Chrome Logo Streamline Icon: https://streamlinehq.com</desc><g id="Chrome-Logo--Streamline-Ultimate.svg"><path fill="#fff" stroke-width="10.667" d="M89.38666666666667 128A38.61333333333333 38.61333333333333 0 1 0 128 89.38666666666667 38.61333333333333 38.61333333333333 0 0 0 89.38666666666667 128Z"/><path fill="#fff" stroke-width="10.667" d="M71.36 92.26666666666667a5.226666666666667 5.226666666666667 0 0 0 4.266666666666667 2.2399999999999998 5.4399999999999995 5.4399999999999995 0 0 0 4.266666666666667 -2.1333333333333333A60.05333333333333 60.05333333333333 0 0 1 128 68.05333333333333h103.78666666666666a5.4399999999999995 5.4399999999999995 0 0 0 4.693333333333333 -2.7733333333333334 5.333333333333333 5.333333333333333 0 0 0 0 -5.333333333333333A128 128 0 0 0 37.22666666666667 38.08a5.333333333333333 5.333333333333333 0 0 0 -0.5333333333333333 6.826666666666666Z"/><path fill="#fff" stroke-width="10.667" d="M251.2 93.33333333333333a5.333333333333333 5.333333333333333 0 0 0 -5.119999999999999 -3.9466666666666663h-61.97333333333333a5.226666666666667 5.226666666666667 0 0 0 -4.586666666666666 2.6666666666666665 5.546666666666667 5.546666666666667 0 0 0 0 5.4399999999999995 59.626666666666665 59.626666666666665 0 0 1 -26.133333333333333 84.69333333333333 3.626666666666667 3.626666666666667 0 0 0 -1.2799999999999998 1.2799999999999998l-35.519999999999996 68.26666666666667a2.453333333333333 2.453333333333333 0 0 0 0 2.5599999999999996 2.7733333333333334 2.7733333333333334 0 0 0 2.1333333333333333 1.3866666666666667l9.173333333333332 0A128 128 0 0 0 251.2 93.33333333333333Z"/><path fill="#fff" stroke-width="10.667" d="M122.24000000000001 189.9733333333333a5.013333333333333 5.013333333333333 0 0 0 -3.9466666666666663 -2.88 59.84 59.84 0 0 1 -50.13333333333333 -61.01333333333333 5.653333333333333 5.653333333333333 0 0 0 -1.0666666666666667 -3.413333333333333L25.173333333333332 65.28a5.4399999999999995 5.4399999999999995 0 0 0 -4.586666666666666 -2.1333333333333333 5.333333333333333 5.333333333333333 0 0 0 -4.373333333333333 2.7733333333333334 128 128 0 0 0 72.42666666666666 183.78666666666666 5.4399999999999995 5.4399999999999995 0 0 0 6.3999999999999995 -2.6666666666666665l27.093333333333334 -52.266666666666666a5.119999999999999 5.119999999999999 0 0 0 0.10666666666666666 -4.8Z"/></g></svg>