<svg xmlns="http://www.w3.org/2000/svg" id="Chromium--Streamline-Ultimate" width="256" height="256" fill="none" viewBox="0 0 256 256"><desc>Chromium Streamline Icon: https://streamlinehq.com</desc><path fill="#fff" fill-rule="evenodd" stroke-width="10.667" d="M0 18.666666666666664C0 8.362666666666666 8.362666666666666 0 18.666666666666664 0h218.66666666666666C247.63733333333334 0 256 8.362666666666666 256 18.666666666666664v218.66666666666666A18.666666666666664 18.666666666666664 0 0 1 237.33333333333331 256H18.666666666666664A18.666666666666664 18.666666666666664 0 0 1 0 237.33333333333331V18.666666666666664Zm74.66666666666666 176a8 8 0 0 0 0 16h106.66666666666666a8 8 0 0 0 0 -16H74.66666666666666Zm27.33866666666667 -106.66666666666666a16 16 0 0 0 -16 16v48a16 16 0 0 0 16 16c7.466666666666666 0 14.421333333333333 -4.906666666666666 16.458666666666666 -10.666666666666666a8 8 0 1 1 15.082666666666665 5.333333333333333c-4.554666666666666 12.896 -18.112 21.333333333333332 -31.54133333333333 21.333333333333332a32 32 0 0 1 -32 -32v-48a32 32 0 0 1 32 -32c13.44 0 26.986666666666665 8.448 31.54133333333333 21.333333333333332a8 8 0 1 1 -15.082666666666665 5.333333333333333c-2.0266666666666664 -5.76 -8.991999999999999 -10.666666666666666 -16.458666666666666 -10.666666666666666Zm71.33866666666665 42.67733333333334a9.781333333333333 9.781333333333333 0 0 0 -9.781333333333333 9.781333333333333V176a8 8 0 0 1 -16 0v-35.552l0 -17.781333333333333a8 8 0 0 1 14.08 -5.1946666666666665 25.738666666666663 25.738666666666663 0 0 1 30.912 5.792 8 8 0 0 1 -11.925333333333334 10.666666666666666 9.738666666666667 9.738666666666667 0 0 0 -7.285333333333334 -3.264Z" clip-rule="evenodd"/></svg>