<svg xmlns="http://www.w3.org/2000/svg" viewBox="0 0 256 256" id="Circus-Tent--Streamline-Ultimate" height="256" width="256">
  <desc>
    Circus Tent Streamline Icon: https://streamlinehq.com
  </desc>
  <g id="Circus-Tent--Streamline-Ultimate.svg">
    <path d="m130.66666666666666 50.986666666666665 39.14666666666666 -22.4a5.119999999999999 5.119999999999999 0 0 0 2.6666666666666665 -4.8 5.4399999999999995 5.4399999999999995 0 0 0 -2.986666666666667 -4.586666666666666L130.34666666666666 0.5333333333333333a5.333333333333333 5.333333333333333 0 0 0 -7.68 4.8v41.06666666666666a5.333333333333333 5.333333333333333 0 0 0 8 4.586666666666666Z" fill="#ffffff" stroke-width="10.6667"></path>
    <path d="M66.66666666666666 112h122.66666666666666a2.88 2.88 0 0 0 2.5599999999999996 -1.7066666666666666 2.6666666666666665 2.6666666666666665 0 0 0 -0.7466666666666667 -2.986666666666667l-59.73333333333333 -50.45333333333333a5.226666666666667 5.226666666666667 0 0 0 -6.826666666666666 0l-59.73333333333333 50.45333333333333a2.6666666666666665 2.6666666666666665 0 0 0 -0.7466666666666667 2.986666666666667 2.88 2.88 0 0 0 2.5599999999999996 1.7066666666666666Z" fill="#ffffff" stroke-width="10.6667"></path>
    <path d="M243.73333333333335 239.78666666666666c-13.76 -22.613333333333333 -36.8 -69.33333333333333 -40.53333333333333 -109.33333333333333a2.6666666666666665 2.6666666666666665 0 0 0 -2.6666666666666665 -2.453333333333333H55.46666666666667a2.6666666666666665 2.6666666666666665 0 0 0 -2.6666666666666665 2.453333333333333C49.06666666666666 170.66666666666666 26.026666666666664 217.17333333333332 12.266666666666666 239.78666666666666a10.666666666666666 10.666666666666666 0 0 0 0 10.666666666666666A10.666666666666666 10.666666666666666 0 0 0 21.333333333333332 256h55.46666666666667a5.333333333333333 5.333333333333333 0 0 0 4.693333333333333 -2.88l41.81333333333333 -78.93333333333334a5.333333333333333 5.333333333333333 0 0 1 9.386666666666667 0l41.81333333333333 78.93333333333334a5.333333333333333 5.333333333333333 0 0 0 4.693333333333333 2.88H234.66666666666666a10.666666666666666 10.666666666666666 0 0 0 9.28 -5.4399999999999995 10.666666666666666 10.666666666666666 0 0 0 -0.21333333333333332 -10.773333333333333Z" fill="#ffffff" stroke-width="10.6667"></path>
  </g>
</svg>