<svg xmlns="http://www.w3.org/2000/svg" id="Circus-Elephant--Streamline-Ultimate" width="256" height="256" viewBox="0 0 256 256"><desc>Circus Elephant Streamline Icon: https://streamlinehq.com</desc><g id="Circus-Elephant--Streamline-Ultimate.svg"><path fill="#fff" stroke-width="10.667" d="M171.62666666666667 125.86666666666667a60.266666666666666 60.266666666666666 0 0 1 -7.1466666666666665 3.093333333333333 13.653333333333332 13.653333333333332 0 0 0 -10.666666666666666 12.373333333333331v34.346666666666664a10.666666666666666 10.666666666666666 0 0 1 -6.079999999999999 9.493333333333332 10.666666666666666 10.666666666666666 0 0 1 -10.666666666666666 0l-9.066666666666666 -5.866666666666667 -9.28 5.4399999999999995a21.333333333333332 21.333333333333332 0 0 1 -10.666666666666666 0.5333333333333333 10.666666666666666 10.666666666666666 0 0 1 -6.186666666666666 -9.6v-34.346666666666664a13.76 13.76 0 0 0 -10.666666666666666 -12.586666666666666 41.70666666666666 41.70666666666666 0 0 1 -7.1466666666666665 -2.88c-2.986666666666667 -1.2799999999999998 -5.653333333333333 2.5599999999999996 -5.653333333333333 2.5599999999999996a60.58666666666666 60.58666666666666 0 0 0 -10.666666666666666 57.38666666666666l9.28 29.439999999999998a2.6666666666666665 2.6666666666666665 0 0 0 3.84 1.4933333333333334A31.04 31.04 0 0 1 96 213.33333333333331h64a32 32 0 0 1 14.186666666666667 3.413333333333333 2.6666666666666665 2.6666666666666665 0 0 0 3.84 -1.4933333333333334l9.28 -29.013333333333335a61.33333333333333 61.33333333333333 0 0 0 -10.666666666666666 -58.02666666666667s-2.88 -3.413333333333333 -5.013333333333333 -2.3466666666666667Z"/><path fill="#fff" stroke-width="10.667" d="M160 224H96a21.333333333333332 21.333333333333332 0 0 0 -21.333333333333332 21.333333333333332 10.666666666666666 10.666666666666666 0 0 0 10.666666666666666 10.666666666666666h85.33333333333333a10.666666666666666 10.666666666666666 0 0 0 10.666666666666666 -10.666666666666666 21.333333333333332 21.333333333333332 0 0 0 -21.333333333333332 -21.333333333333332Z"/><path fill="#fff" stroke-width="10.667" d="M236.69333333333333 11.626666666666667a45.22666666666667 45.22666666666667 0 0 0 -42.666666666666664 -9.706666666666667 49.493333333333325 49.493333333333325 0 0 0 -33.38666666666666 27.839999999999996 47.67999999999999 47.67999999999999 0 0 0 -32 -13.546666666666667A48.85333333333333 48.85333333333333 0 0 0 95.35999999999999 29.866666666666664 49.38666666666666 49.38666666666666 0 0 0 61.97333333333333 1.92a45.22666666666667 45.22666666666667 0 0 0 -42.666666666666664 9.706666666666667 26.666666666666664 26.666666666666664 0 0 0 -6.293333333333333 26.88A202.02666666666667 202.02666666666667 0 0 1 19.626666666666665 128a28.586666666666666 28.586666666666666 0 0 0 3.52 18.773333333333333 14.613333333333333 14.613333333333333 0 0 0 12.053333333333331 7.466666666666666c1.1733333333333333 0 18.346666666666664 -4.266666666666667 18.346666666666664 -4.266666666666667a75.84 75.84 0 0 1 14.506666666666668 -30.08s2.7733333333333334 -2.5599999999999996 0.96 -4.8a54.50666666666667 54.50666666666667 0 0 1 -12.906666666666666 -22.506666666666664 8 8 0 0 1 15.253333333333332 -4.586666666666666A35.946666666666665 35.946666666666665 0 0 0 96 113.38666666666667a29.65333333333333 29.65333333333333 0 0 1 21.973333333333333 27.946666666666665v22.08a1.8133333333333335 1.8133333333333335 0 0 0 2.6666666666666665 1.5999999999999999 14.506666666666668 14.506666666666668 0 0 1 14.826666666666664 0c1.4933333333333334 0.8533333333333333 2.6666666666666665 0 2.6666666666666665 -1.7066666666666666v-21.973333333333333a29.65333333333333 29.65333333333333 0 0 1 21.333333333333332 -27.626666666666665 37.44 37.44 0 0 0 24.106666666666662 -25.706666666666667 8 8 0 0 1 15.36 4.693333333333333 57.493333333333325 57.493333333333325 0 0 1 -12.479999999999999 21.866666666666664 4.586666666666666 4.586666666666666 0 0 0 0.5333333333333333 5.4399999999999995 73.38666666666666 73.38666666666666 0 0 1 14.4 29.866666666666664l15.573333333333332 3.9466666666666663a13.866666666666667 13.866666666666667 0 0 0 15.786666666666665 -6.933333333333334 28.586666666666666 28.586666666666666 0 0 0 3.626666666666667 -18.88 202.02666666666667 202.02666666666667 0 0 1 6.613333333333333 -89.6 26.666666666666664 26.666666666666664 0 0 0 -6.293333333333333 -26.77333333333333ZM104 82.34666666666666A8 8 0 1 1 112 74.66666666666666a8.106666666666666 8.106666666666666 0 0 1 -8 7.68Zm48 0A8 8 0 1 1 160 74.66666666666666a8.106666666666666 8.106666666666666 0 0 1 -8 7.68Z"/></g></svg>