<svg xmlns="http://www.w3.org/2000/svg" viewBox="0 0 256 256" id="Cloud-Loading--Streamline-Ultimate" height="256" width="256">
  <desc>
    Cloud Loading Streamline Icon: https://streamlinehq.com
  </desc>
  <g id="Cloud-Loading--Streamline-Ultimate.svg">
    <path d="M52.74773333333333 169.73866666666666h145.97333333333333c46.34133333333333 -4.4319999999999995 70.50773333333333 -57.36746666666666 43.498666666666665 -95.28533333333333 -2.3114666666666666 -3.243733333333333 -4.9376 -6.252800000000001 -7.84 -8.980266666666665 -9.741866666666667 -9.477333333333332 -22.4384 -15.328 -35.97226666666666 -16.578133333333334 -0.8202666666666666 -0.08106666666666666 -1.5552000000000001 -0.5450666666666666 -1.9808 -1.2511999999999999C164.85013333333333 -5.2981333333333325 87.8048 -4.203733333333333 57.74506666666666 49.6128c-3.8474666666666666 6.887466666666667 -6.654933333333333 14.303999999999998 -8.333866666666665 22.011733333333332 -0.26239999999999997 1.0826666666666667 -1.184 1.8784 -2.293333333333333 1.9808 -9.815466666666666 0.6719999999999999 -19.1968 4.3082666666666665 -26.900266666666667 10.426666666666666 -11.213866666666664 9.140266666666665 -17.69173333333333 22.8608 -17.621333333333332 37.32693333333333 -0.4992 12.464 4.180266666666666 24.57813333333333 12.929066666666666 33.46986666666666 10.178133333333333 9.336533333333332 23.41333333333333 14.637866666666667 37.22239999999999 14.909866666666666Zm-29.298133333333332 -48.37973333333333C23.39093333333333 106.42133333333334 35.51573333333333 94.29653333333331 50.4544 94.35413333333334c1.8592 0.007466666666666667 3.7119999999999997 0.21760000000000002 5.5264 0.6261333333333333 2.9685333333333332 0.5973333333333333 6.0512 -0.12586666666666665 8.444799999999999 -1.9808 2.3914666666666666 -1.8314666666666666 3.8741333333333334 -4.606933333333333 4.0672 -7.6117333333333335 2.4810666666666665 -45.52213333333333 53.312 -71.28746666666666 91.4944 -46.376533333333334 9.262933333333333 6.042666666666666 16.6496 14.559999999999999 21.32053333333333 24.584533333333333 1.7877333333333332 3.761066666666667 5.640533333333334 6.097066666666667 9.8016 5.943466666666667 10.704 -0.5536 21.14773333333333 3.4186666666666667 28.7776 10.948266666666665 7.755733333333333 7.389866666666666 12.130133333333333 17.646933333333333 12.094933333333332 28.36053333333333 0.24213333333333334 20.40213333333333 -14.973866666666666 37.68853333333333 -35.242666666666665 40.03733333333333H52.74773333333333c-8.273066666666665 -0.20586666666666667 -16.24 -3.179733333333333 -22.62506666666667 -8.444799999999999 -4.8671999999999995 -5.103999999999999 -7.298133333333333 -12.056533333333334 -6.673066666666667 -19.081599999999998Z" fill="#ffffff" stroke-width="10.6667"></path>
    <path d="M216.34133333333332 184.8576H39.08906666666667c-24.07893333333333 0 -39.12853333333333 26.066133333333333 -27.089066666666668 46.919466666666665 5.588266666666667 9.677866666666667 15.913599999999999 15.640533333333332 27.089066666666668 15.640533333333332H216.34133333333332c24.08 0 39.129599999999996 -26.0672 27.089066666666668 -46.920533333333324 -5.5872 -9.677866666666667 -15.913599999999999 -15.639466666666666 -27.089066666666668 -15.639466666666666Zm0 41.70666666666666h-86.01919999999998c-1.44 0 -2.606933333333333 -1.1669333333333332 -2.606933333333333 -2.606933333333333v-15.639466666666666c0 -1.44 1.1669333333333332 -2.606933333333333 2.606933333333333 -2.606933333333333h86.01919999999998c8.026666666666666 0 13.0432 8.689066666666665 9.0304 15.639466666666666 -1.8624 3.2266666666666666 -5.3056 5.213866666666666 -9.0304 5.213866666666666Z" fill="#ffffff" stroke-width="10.6667"></path>
  </g>
</svg>