<svg xmlns="http://www.w3.org/2000/svg" id="Cloud-Data-Transfer--Streamline-Ultimate" width="256" height="256" viewBox="0 0 256 256"><desc>Cloud Data Transfer Streamline Icon: https://streamlinehq.com</desc><g id="Cloud-Data-Transfer--Streamline-Ultimate.svg"><path fill="#fff" stroke-width="10.667" d="M40.53333333333333 178.45333333333332a10.666666666666666 10.666666666666666 0 0 0 12.799999999999999 -10.666666666666666 10.666666666666666 10.666666666666666 0 0 0 -8.533333333333333 -10.666666666666666A30.4 30.4 0 0 1 28.16 149.33333333333331 25.066666666666666 25.066666666666666 0 0 1 21.333333333333332 130.66666666666666a27.52 27.52 0 0 1 27.626666666666665 -27.626666666666665 26.24 26.24 0 0 1 5.653333333333333 0.6399999999999999 10.666666666666666 10.666666666666666 0 0 0 12.799999999999999 -10.666666666666666c0.8533333333333333 -61.33333333333333 88.53333333333333 -78.50666666666666 115.41333333333333 -21.333333333333332a10.666666666666666 10.666666666666666 0 0 0 10.026666666666666 6.079999999999999 39.46666666666667 39.46666666666667 0 0 1 32 13.866666666666667 41.06666666666666 41.06666666666666 0 0 1 9.706666666666667 29.866666666666664 36.8 36.8 0 0 1 -20.69333333333333 32 10.666666666666666 10.666666666666666 0 0 0 -5.866666666666667 9.493333333333332 10.666666666666666 10.666666666666666 0 0 0 15.253333333333332 9.6A58.56 58.56 0 0 0 256 120.21333333333332a63.04 63.04 0 0 0 -10.666666666666666 -37.44 61.86666666666666 61.86666666666666 0 0 0 -44.8 -26.24 2.6666666666666665 2.6666666666666665 0 0 1 -2.0266666666666664 -1.2799999999999998 82.02666666666667 82.02666666666667 0 0 0 -150.39999999999998 24.53333333333333 2.453333333333333 2.453333333333333 0 0 1 -2.3466666666666667 2.0266666666666664A49.70666666666666 49.70666666666666 0 0 0 6.613333333333333 105.81333333333333 47.78666666666667 47.78666666666667 0 0 0 0 131.94666666666666a45.653333333333336 45.653333333333336 0 0 0 13.226666666666667 32.959999999999994 52.266666666666666 52.266666666666666 0 0 0 27.306666666666665 13.546666666666667Z"/><path fill="#fff" stroke-width="10.667" d="M106.66666666666666 123.2a10.666666666666666 10.666666666666666 0 0 0 -21.333333333333332 0v61.33333333333333a2.6666666666666665 2.6666666666666665 0 0 1 -2.6666666666666665 2.6666666666666665H69.33333333333333a5.4399999999999995 5.4399999999999995 0 0 0 -4.693333333333333 2.7733333333333334 5.226666666666667 5.226666666666667 0 0 0 0 5.4399999999999995l1.4933333333333334 2.453333333333333 25.173333333333332 40.21333333333333a5.333333333333333 5.333333333333333 0 0 0 8.853333333333332 0L128 197.86666666666667l1.5999999999999999 -2.2399999999999998a5.226666666666667 5.226666666666667 0 0 0 0 -5.546666666666667 5.226666666666667 5.226666666666667 0 0 0 -4.693333333333333 -2.88h-16a2.6666666666666665 2.6666666666666665 0 0 1 -2.2399999999999998 -2.6666666666666665Z"/><path fill="#fff" stroke-width="10.667" d="M170.66666666666666 155.2a2.6666666666666665 2.6666666666666665 0 0 1 2.6666666666666665 -2.6666666666666665h16a5.333333333333333 5.333333333333333 0 0 0 4.8 -3.1999999999999997 5.4399999999999995 5.4399999999999995 0 0 0 0 -5.119999999999999l-29.866666666666664 -40.10666666666666a5.226666666666667 5.226666666666667 0 0 0 -4.266666666666667 -2.2399999999999998 5.653333333333333 5.653333333333333 0 0 0 -4.373333333333333 2.453333333333333l-26.666666666666664 40a5.226666666666667 5.226666666666667 0 0 0 4.4799999999999995 8h13.333333333333332a2.6666666666666665 2.6666666666666665 0 0 1 2.6666666666666665 2.6666666666666665v64a10.666666666666666 10.666666666666666 0 0 0 21.333333333333332 0Z"/></g></svg>