<svg xmlns="http://www.w3.org/2000/svg" viewBox="0 0 256 256" id="Cloud-Add--Streamline-Ultimate" height="256" width="256">
  <desc>
    Cloud Add Streamline Icon: https://streamlinehq.com
  </desc>
  <g id="Cloud-Add--Streamline-Ultimate.svg">
    <path d="M256 118.50666666666666a61.54666666666666 61.54666666666666 0 0 0 -55.67999999999999 -63.46666666666667 2.6666666666666665 2.6666666666666665 0 0 1 -2.0266666666666664 -1.7066666666666666 81.91999999999999 81.91999999999999 0 0 0 -150.39999999999998 24.53333333333333 2.6666666666666665 2.6666666666666665 0 0 1 -2.3466666666666667 2.0266666666666664A49.81333333333333 49.81333333333333 0 0 0 6.613333333333333 104.21333333333332 48.74666666666667 48.74666666666667 0 0 0 0 130.34666666666666a45.653333333333336 45.653333333333336 0 0 0 13.226666666666667 33.06666666666666A47.78666666666667 47.78666666666667 0 0 0 32 174.71999999999997a10.666666666666666 10.666666666666666 0 0 0 13.226666666666667 -9.173333333333332 10.666666666666666 10.666666666666666 0 0 0 -7.04 -10.666666666666666 27.733333333333334 27.733333333333334 0 0 1 -10.666666666666666 -6.186666666666666A25.066666666666666 25.066666666666666 0 0 1 21.333333333333332 129.17333333333332a27.52 27.52 0 0 1 27.626666666666665 -27.626666666666665 26.24 26.24 0 0 1 5.653333333333333 0.6399999999999999 10.666666666666666 10.666666666666666 0 0 0 12.799999999999999 -10.666666666666666c0.96 -61.120000000000005 88.53333333333333 -78.61333333333333 115.41333333333333 -21.333333333333332a10.666666666666666 10.666666666666666 0 0 0 10.026666666666666 6.079999999999999 40 40 0 0 1 32 13.973333333333333 41.70666666666666 41.70666666666666 0 0 1 9.6 29.973333333333333 36.586666666666666 36.586666666666666 0 0 1 -15.786666666666665 28.479999999999997 10.666666666666666 10.666666666666666 0 0 0 12.159999999999998 17.386666666666663A57.70666666666666 57.70666666666666 0 0 0 256 118.50666666666666Z" fill="#ffffff" stroke-width="10.6667"></path>
    <path d="M202.66666666666666 172.79999999999998a69.33333333333333 69.33333333333333 0 1 0 -69.33333333333333 69.33333333333333 69.44 69.44 0 0 0 69.33333333333333 -69.33333333333333Zm-42.666666666666664 -8A8 8 0 0 1 160 181.33333333333331h-16a2.6666666666666665 2.6666666666666665 0 0 0 -2.6666666666666665 2.6666666666666665v16a8 8 0 0 1 -16 0V183.46666666666664a2.6666666666666665 2.6666666666666665 0 0 0 -2.6666666666666665 -2.1333333333333333H106.66666666666666a8 8 0 0 1 0 -16h16a2.6666666666666665 2.6666666666666665 0 0 0 2.6666666666666665 -2.6666666666666665V146.13333333333333a8 8 0 0 1 16 0v16a2.6666666666666665 2.6666666666666665 0 0 0 2.6666666666666665 2.6666666666666665Z" fill="#ffffff" stroke-width="10.6667"></path>
  </g>
</svg>