<svg xmlns="http://www.w3.org/2000/svg" fill="none" viewBox="0 0 256 256" id="Cloud-Mist-2--Streamline-Ultimate" height="256" width="256">
  <desc>
    Cloud Mist 2 Streamline Icon: https://streamlinehq.com
  </desc>
  <path fill="#ffffff" fill-rule="evenodd" d="M209.99466666666666 86.88a29.759999999999998 29.759999999999998 0 0 0 -30.965333333333334 -41.343999999999994 54.54933333333333 54.54933333333333 0 0 0 -105.13066666666666 14.869333333333332 49.397333333333336 49.397333333333336 0 0 0 -36.8 76.84266666666666h186.05866666666668a39.744 39.744 0 0 0 1.9413333333333331 -30.730666666666664 39.44533333333333 39.44533333333333 0 0 0 -15.104 -19.594666666666665v-0.042666666666666665Zm-194.66666666666666 75.12533333333333a10.666666666666666 10.666666666666666 0 1 0 0 21.333333333333332h24a10.666666666666666 10.666666666666666 0 1 0 0 -21.333333333333332h-24Zm40 10.666666666666666a10.666666666666666 10.666666666666666 0 0 1 10.666666666666666 -10.666666666666666h116.672a10.666666666666666 10.666666666666666 0 1 1 0 21.333333333333332H65.99466666666666a10.666666666666666 10.666666666666666 0 0 1 -10.666666666666666 -10.666666666666666Zm157.33333333333331 22.666666666666664a10.666666666666666 10.666666666666666 0 1 0 0 21.333333333333332h28a10.666666666666666 10.666666666666666 0 1 0 0 -21.333333333333332h-28Zm-127.65866666666666 10.666666666666666a10.666666666666666 10.666666666666666 0 0 1 10.666666666666666 -10.666666666666666h90.33599999999998a10.666666666666666 10.666666666666666 0 1 1 0 21.333333333333332h-90.34666666666666a10.666666666666666 10.666666666666666 0 0 1 -10.666666666666666 -10.666666666666666ZM39.327999999999996 226.66666666666666a10.666666666666666 10.666666666666666 0 1 0 0 21.333333333333332h122.00533333333334a10.666666666666666 10.666666666666666 0 1 0 0 -21.333333333333332H39.327999999999996Z" clip-rule="evenodd" stroke-width="10.6667"></path>
</svg>