<svg xmlns="http://www.w3.org/2000/svg" id="Cloud-Warning--Streamline-Ultimate" width="256" height="256" viewBox="0 0 256 256"><desc>Cloud Warning Streamline Icon: https://streamlinehq.com</desc><g id="Cloud-Warning--Streamline-Ultimate.svg"><path fill="#fff" stroke-width="10.667" d="M41.81333333333333 185.38666666666666A10.666666666666666 10.666666666666666 0 0 0 53.33333333333333 179.62666666666667a10.666666666666666 10.666666666666666 0 0 0 -8 -15.68 27.41333333333333 27.41333333333333 0 0 1 -16.96 -7.573333333333332A25.386666666666663 25.386666666666663 0 0 1 21.333333333333332 137.27999999999997a27.52 27.52 0 0 1 10.666666666666666 -21.333333333333332 27.839999999999996 27.839999999999996 0 0 1 17.493333333333332 -6.186666666666666 34.879999999999995 34.879999999999995 0 0 1 5.653333333333333 0.5333333333333333 10.666666666666666 10.666666666666666 0 0 0 8.64 -1.92 10.666666666666666 10.666666666666666 0 0 0 4.16 -8.32 48.213333333333324 48.213333333333324 0 0 1 10.666666666666666 -32c35.733333333333334 -40.53333333333333 87.68 -26.346666666666668 105.06666666666666 10.666666666666666a10.666666666666666 10.666666666666666 0 0 0 10.666666666666666 6.079999999999999 39.46666666666667 39.46666666666667 0 0 1 29.013333333333335 10.666666666666666A40 40 0 0 1 234.66666666666666 124.58666666666666a41.49333333333333 41.49333333333333 0 0 1 -26.453333333333333 38.50666666666666 10.666666666666666 10.666666666666666 0 0 0 -6.293333333333333 14.613333333333333 10.666666666666666 10.666666666666666 0 0 0 12.373333333333331 5.013333333333333 59.73333333333333 59.73333333333333 0 0 0 41.70666666666666 -55.46666666666667 62.39999999999999 62.39999999999999 0 0 0 -10.666666666666666 -37.76 61.54666666666666 61.54666666666666 0 0 0 -44.8 -26.24 2.986666666666667 2.986666666666667 0 0 1 -2.0266666666666664 -1.2799999999999998A82.02666666666667 82.02666666666667 0 0 0 47.89333333333333 86.39999999999999a2.5599999999999996 2.5599999999999996 0 0 1 -2.3466666666666667 2.1333333333333333 49.38666666666666 49.38666666666666 0 0 0 -38.93333333333333 24A47.14666666666666 47.14666666666666 0 0 0 0 138.66666666666666a45.653333333333336 45.653333333333336 0 0 0 13.226666666666667 32.959999999999994 53.33333333333333 53.33333333333333 0 0 0 28.586666666666666 13.76Z"/><path fill="#fff" stroke-width="10.667" d="M141.6533333333333 108.79999999999998a15.466666666666665 15.466666666666665 0 0 0 -27.306666666666665 0l-53.97333333333333 102.72a15.36 15.36 0 0 0 13.653333333333332 22.4h107.94666666666666a15.36 15.36 0 0 0 13.653333333333332 -22.4ZM128 215.25333333333333a10.666666666666666 10.666666666666666 0 1 1 10.666666666666666 -10.666666666666666 10.666666666666666 10.666666666666666 0 0 1 -10.666666666666666 10.666666666666666Zm-8 -72a8 8 0 0 1 16 0v32a8 8 0 0 1 -16 0Z"/></g></svg>