<svg xmlns="http://www.w3.org/2000/svg" viewBox="0 0 256 256" id="Cloud-File--Streamline-Ultimate" height="256" width="256">
  <desc>
    Cloud File Streamline Icon: https://streamlinehq.com
  </desc>
  <g id="Cloud-File--Streamline-Ultimate.svg">
    <path d="M256 123.94666666666666a62.61333333333333 62.61333333333333 0 0 0 -10.666666666666666 -37.013333333333335 61.54666666666666 61.54666666666666 0 0 0 -45.01333333333333 -26.560000000000002 2.6666666666666665 2.6666666666666665 0 0 1 -2.0266666666666664 -1.2799999999999998 81.91999999999999 81.91999999999999 0 0 0 -150.39999999999998 24.53333333333333 2.6666666666666665 2.6666666666666665 0 0 1 -2.3466666666666667 1.7066666666666666 49.81333333333333 49.81333333333333 0 0 0 -38.93333333333333 24.21333333333333A48.74666666666667 48.74666666666667 0 0 0 0 135.68a45.653333333333336 45.653333333333336 0 0 0 13.226666666666667 33.06666666666666 58.02666666666667 58.02666666666667 0 0 0 38.08 14.719999999999999h7.573333333333332a10.666666666666666 10.666666666666666 0 0 0 0 -21.333333333333332h-7.573333333333332a38.82666666666667 38.82666666666667 0 0 1 -23.146666666666665 -8.64A25.066666666666666 25.066666666666666 0 0 1 21.333333333333332 134.50666666666666 27.52 27.52 0 0 1 48.959999999999994 106.66666666666666a26.24 26.24 0 0 1 5.653333333333333 0.6399999999999999 10.666666666666666 10.666666666666666 0 0 0 12.799999999999999 -10.666666666666666c0.96 -61.120000000000005 88.53333333333333 -78.61333333333333 115.41333333333333 -21.333333333333332a10.666666666666666 10.666666666666666 0 0 0 10.026666666666666 6.079999999999999 40.31999999999999 40.31999999999999 0 0 1 35.519999999999996 18.453333333333333 39.89333333333333 39.89333333333333 0 0 1 6.293333333333333 21.333333333333332 39.36 39.36 0 0 1 -29.759999999999998 39.36 10.666666666666666 10.666666666666666 0 0 0 -7.573333333333332 10.666666666666666 10.666666666666666 10.666666666666666 0 0 0 13.333333333333332 10.026666666666666A59.30666666666666 59.30666666666666 0 0 0 256 123.94666666666666Z" fill="#ffffff" stroke-width="10.6667"></path>
    <path d="M144 162.13333333333333a5.333333333333333 5.333333333333333 0 0 1 -5.333333333333333 -5.333333333333333v-32a5.333333333333333 5.333333333333333 0 0 0 -5.333333333333333 -5.333333333333333h-42.666666666666664a5.333333333333333 5.333333333333333 0 0 0 -5.333333333333333 5.333333333333333v106.66666666666666a5.333333333333333 5.333333333333333 0 0 0 5.333333333333333 5.333333333333333h85.33333333333333a5.333333333333333 5.333333333333333 0 0 0 5.333333333333333 -5.333333333333333v-64a5.333333333333333 5.333333333333333 0 0 0 -5.333333333333333 -5.333333333333333Z" fill="#ffffff" stroke-width="10.6667"></path>
    <path d="M152 151.46666666666664h19.733333333333334a2.6666666666666665 2.6666666666666665 0 0 0 1.92 -4.586666666666666l-19.733333333333334 -19.733333333333334a2.6666666666666665 2.6666666666666665 0 0 0 -4.586666666666666 1.8133333333333335V149.33333333333331a2.6666666666666665 2.6666666666666665 0 0 0 2.6666666666666665 2.1333333333333333Z" fill="#ffffff" stroke-width="10.6667"></path>
  </g>
</svg>