<svg xmlns="http://www.w3.org/2000/svg" viewBox="0 0 256 256" id="Co-Working-Space-Laptop--Streamline-Ultimate" height="256" width="256">
  <desc>
    Co Working Space Laptop Streamline Icon: https://streamlinehq.com
  </desc>
  <g id="Co-Working-Space-Laptop--Streamline-Ultimate.svg">
    <path d="M10.559999999999999 28.586666666666666a28.266666666666666 28.266666666666666 0 1 0 56.53333333333333 0 28.266666666666666 28.266666666666666 0 1 0 -56.53333333333333 0" fill="#ffffff" stroke-width="10.6667"></path>
    <path d="m121.27999999999999 101.54666666666665 -47.89333333333333 0 -35.199999999999996 -28.05333333333333A17.28 17.28 0 0 0 10.026666666666666 86.61333333333332L2.0266666666666664 170.66666666666666a17.28 17.28 0 0 0 13.333333333333332 18.56L76.69333333333333 202.66666666666666l4.16 37.76a17.28 17.28 0 0 0 34.346666666666664 -3.84l-5.546666666666667 -49.919999999999995A17.066666666666666 17.066666666666666 0 0 0 96 171.73333333333335l-58.13333333333333 -13.333333333333332 3.626666666666667 -37.86666666666666 14.933333333333332 12.053333333333331a17.599999999999998 17.599999999999998 0 0 0 10.666666666666666 3.84l53.97333333333333 0a17.28 17.28 0 0 0 0 -34.56Z" fill="#ffffff" stroke-width="10.6667"></path>
    <path d="M209.59999999999997 83.84a7.893333333333333 7.893333333333333 0 0 0 -9.173333333333332 6.72l-6.826666666666666 45.01333333333333 -34.879999999999995 0a8.106666666666666 8.106666666666666 0 0 0 -7.893333333333333 8.106666666666666 8 8 0 0 0 8 7.893333333333333l41.70666666666666 0a7.893333333333333 7.893333333333333 0 0 0 7.786666666666666 -6.72l7.893333333333333 -51.84a7.893333333333333 7.893333333333333 0 0 0 -6.613333333333333 -9.173333333333332Z" fill="#ffffff" stroke-width="10.6667"></path>
    <path d="M248.10666666666668 166.61333333333332h-108.79999999999998a5.973333333333334 5.973333333333334 0 0 0 -5.973333333333334 5.973333333333334v10.666666666666666a5.973333333333334 5.973333333333334 0 0 0 5.973333333333334 5.973333333333334h13.866666666666667l-4.693333333333333 57.06666666666666a8 8 0 0 0 7.359999999999999 8.64h0.6399999999999999a8.106666666666666 8.106666666666666 0 0 0 8 -7.359999999999999l4.8 -58.45333333333333h48.85333333333333l4.906666666666666 58.45333333333333a8 8 0 0 0 7.893333333333333 7.359999999999999h0.7466666666666667a7.893333333333333 7.893333333333333 0 0 0 7.253333333333334 -8.64l-4.266666666666667 -57.28h13.866666666666667a5.973333333333334 5.973333333333334 0 0 0 5.973333333333334 -5.973333333333334v-10.666666666666666a5.973333333333334 5.973333333333334 0 0 0 -6.3999999999999995 -5.76Z" fill="#ffffff" stroke-width="10.6667"></path>
  </g>
</svg>