<svg xmlns="http://www.w3.org/2000/svg" viewBox="0 0 256 256" id="Cocktail-Glass-1--Streamline-Ultimate" height="256" width="256">
  <desc>
    Cocktail Glass 1 Streamline Icon: https://streamlinehq.com
  </desc>
  <path d="M213.33333333333331 111.46666666666665a10.666666666666666 10.666666666666666 0 0 0 -10.666666666666666 -12.266666666666666h-21.333333333333332a5.333333333333333 5.333333333333333 0 0 1 -4.053333333333333 -1.8133333333333335 5.653333333333333 5.653333333333333 0 0 1 -1.2799999999999998 -4.266666666666667l1.4933333333333334 -10.666666666666666a5.226666666666667 5.226666666666667 0 0 1 3.3066666666666666 -4.266666666666667 26.453333333333333 26.453333333333333 0 0 0 16.64 -24.53333333333333 26.77333333333333 26.77333333333333 0 0 0 -13.226666666666667 -22.72l2.3466666666666667 -18.346666666666664a10.666666666666666 10.666666666666666 0 1 0 -21.333333333333332 -2.7733333333333334l-2.453333333333333 18.666666666666664a26.453333333333333 26.453333333333333 0 0 0 -8.533333333333333 46.18666666666667 5.4399999999999995 5.4399999999999995 0 0 1 2.0266666666666664 4.906666666666666l-2.0266666666666664 14.933333333333332a5.4399999999999995 5.4399999999999995 0 0 1 -5.333333333333333 4.586666666666666H53.33333333333333a10.666666666666666 10.666666666666666 0 0 0 -8.106666666666666 3.733333333333333 10.666666666666666 10.666666666666666 0 0 0 -2.453333333333333 8.64l18.133333333333333 113.70666666666666A36.586666666666666 36.586666666666666 0 0 0 96 256h64a36.586666666666666 36.586666666666666 0 0 0 35.093333333333334 -30.186666666666667Zm-29.226666666666667 9.066666666666666a5.226666666666667 5.226666666666667 0 0 1 4.053333333333333 1.8133333333333335 5.226666666666667 5.226666666666667 0 0 1 1.2799999999999998 4.266666666666667l-3.3066666666666666 21.333333333333332a5.4399999999999995 5.4399999999999995 0 0 1 -5.333333333333333 4.586666666666666h-6.933333333333334a5.226666666666667 5.226666666666667 0 0 1 -4.053333333333333 -1.8133333333333335 5.226666666666667 5.226666666666667 0 0 1 -1.2799999999999998 -4.266666666666667l2.986666666666667 -21.333333333333332a5.226666666666667 5.226666666666667 0 0 1 5.226666666666667 -4.586666666666666Zm-39.57333333333333 0a5.333333333333333 5.333333333333333 0 0 1 5.333333333333333 6.079999999999999l-2.986666666666667 21.333333333333332a5.333333333333333 5.333333333333333 0 0 1 -5.226666666666667 4.586666666666666H75.62666666666667a5.4399999999999995 5.4399999999999995 0 0 1 -5.333333333333333 -4.4799999999999995l-3.413333333333333 -21.333333333333332a5.866666666666667 5.866666666666667 0 0 1 1.1733333333333333 -4.373333333333333 5.546666666666667 5.546666666666667 0 0 1 4.053333333333333 -1.8133333333333335Z" fill="#ffffff" stroke-width="10.6667"></path>
</svg>