<svg xmlns="http://www.w3.org/2000/svg" viewBox="0 0 256 256" id="Coding-Apps-Website-Data-Conversion-Documents-2--Streamline-Ultimate" height="256" width="256">
  <desc>
    Coding Apps Website Data Conversion Documents 2 Streamline Icon: https://streamlinehq.com
  </desc>
  <g id="Coding-Apps-Website-Data-Conversion-Documents-2--Streamline-Ultimate.svg">
    <path d="M112 34.026666666666664 78.08 5.013333333333333A21.333333333333332 21.333333333333332 0 0 0 64.53333333333333 0H21.333333333333332a21.333333333333332 21.333333333333332 0 0 0 -21.333333333333332 21.333333333333332v117.33333333333333a21.333333333333332 21.333333333333332 0 0 0 21.333333333333332 21.333333333333332h44.16a10.666666666666666 10.666666666666666 0 1 0 0 -21.333333333333332L21.333333333333332 138.66666666666666 21.333333333333332 21.333333333333332h42.666666666666664l33.92 28.586666666666666v11.413333333333334a10.666666666666666 10.666666666666666 0 0 0 21.333333333333332 0V49.919999999999995a21.333333333333332 21.333333333333332 0 0 0 -7.253333333333334 -15.893333333333333Z" fill="#ffffff" stroke-width="10.6667"></path>
    <g>
      <path d="m170.66666666666666 133.86666666666667 -25.706666666666667 -25.706666666666667a10.666666666666666 10.666666666666666 0 0 0 7.1466666666666665 -10.026666666666666 10.666666666666666 10.666666666666666 0 0 0 -10.666666666666666 -10.666666666666666h-21.333333333333332a10.666666666666666 10.666666666666666 0 0 0 -7.466666666666666 18.133333333333333l42.879999999999995 43.73333333333333A10.666666666666666 10.666666666666666 0 0 0 170.66666666666666 133.86666666666667Z" fill="#ffffff" stroke-width="10.6667"></path>
      <path d="M105.6 117.33333333333333a10.666666666666666 10.666666666666666 0 0 0 -15.04 15.04l25.706666666666667 25.706666666666667a10.666666666666666 10.666666666666666 0 0 0 -7.253333333333334 10.026666666666666 10.666666666666666 10.666666666666666 0 0 0 10.666666666666666 10.666666666666666h21.333333333333332a10.666666666666666 10.666666666666666 0 0 0 7.573333333333332 -18.133333333333333Z" fill="#ffffff" stroke-width="10.6667"></path>
    </g>
    <path d="m248.74666666666667 130.45333333333332 -33.92 -29.013333333333335A21.333333333333332 21.333333333333332 0 0 0 201.28 96h-17.919999999999998a10.666666666666666 10.666666666666666 0 0 0 0 21.333333333333332h17.599999999999998L234.66666666666666 146.34666666666666 234.66666666666666 234.66666666666666l-77.01333333333332 0v-28.906666666666666a10.666666666666666 10.666666666666666 0 0 0 -21.333333333333332 0V234.66666666666666a21.333333333333332 21.333333333333332 0 0 0 21.333333333333332 21.333333333333332H234.66666666666666a21.333333333333332 21.333333333333332 0 0 0 21.333333333333332 -21.333333333333332v-88.32a21.333333333333332 21.333333333333332 0 0 0 -7.253333333333334 -15.893333333333333Z" fill="#ffffff" stroke-width="10.6667"></path>
  </g>
</svg>