<svg xmlns="http://www.w3.org/2000/svg" viewBox="0 0 256 256" id="Coding-Apps-Website-Virus-Files-Alert-1--Streamline-Ultimate" height="256" width="256">
  <desc>
    Coding Apps Website Virus Files Alert 1 Streamline Icon: https://streamlinehq.com
  </desc>
  <g id="Coding-Apps-Website-Virus-Files-Alert-1--Streamline-Ultimate.svg">
    <path d="m190.4 165.76 -49.493333333333325 -94.18666666666667a14.613333333333333 14.613333333333333 0 0 0 -25.813333333333333 0l-49.493333333333325 94.18666666666667a14.293333333333333 14.293333333333333 0 0 0 0 14.186666666666667 14.719999999999999 14.719999999999999 0 0 0 12.479999999999999 6.933333333333334h98.77333333333333a14.719999999999999 14.719999999999999 0 0 0 12.479999999999999 -6.933333333333334 14.293333333333333 14.293333333333333 0 0 0 1.0666666666666667 -14.186666666666667ZM120 106.66666666666666a8 8 0 0 1 16 0v32a8 8 0 0 1 -16 0Zm8 66.66666666666666a10.666666666666666 10.666666666666666 0 1 1 10.666666666666666 -10.666666666666666 10.666666666666666 10.666666666666666 0 0 1 -10.666666666666666 10.666666666666666Z" fill="#ffffff" stroke-width="10.6667"></path>
    <path d="m163.41333333333333 22.93333333333333 48.32 48.32A5.226666666666667 5.226666666666667 0 0 1 213.33333333333331 74.66666666666666v154.66666666666666a5.333333333333333 5.333333333333333 0 0 1 -5.333333333333333 5.333333333333333h-160a5.333333333333333 5.333333333333333 0 0 1 -5.333333333333333 -5.333333333333333v-202.66666666666666a5.333333333333333 5.333333333333333 0 0 1 5.333333333333333 -5.333333333333333H160a5.226666666666667 5.226666666666667 0 0 1 3.413333333333333 1.5999999999999999ZM166.29333333333332 0H42.666666666666664a21.333333333333332 21.333333333333332 0 0 0 -21.333333333333332 21.333333333333332v213.33333333333331a21.333333333333332 21.333333333333332 0 0 0 21.333333333333332 21.333333333333332h170.66666666666666a21.333333333333332 21.333333333333332 0 0 0 21.333333333333332 -21.333333333333332V68.37333333333333a10.666666666666666 10.666666666666666 0 0 0 -3.093333333333333 -7.466666666666666L173.76 3.093333333333333a10.666666666666666 10.666666666666666 0 0 0 -7.466666666666666 -3.093333333333333Z" fill="#ffffff" stroke-width="10.6667"></path>
  </g>
</svg>