<svg xmlns="http://www.w3.org/2000/svg" viewBox="0 0 256 256" id="Coding-Apps-Website-Smartphone-Protection--Streamline-Ultimate" height="256" width="256">
  <desc>
    Coding Apps Website Smartphone Protection Streamline Icon: https://streamlinehq.com
  </desc>
  <g id="Coding-Apps-Website-Smartphone-Protection--Streamline-Ultimate.svg">
    <path d="M167.04 149.97333333333333a109.33333333333333 109.33333333333333 0 0 1 -17.706666666666663 -8.746666666666666V202.66666666666666a5.333333333333333 5.333333333333333 0 0 1 -5.333333333333333 5.333333333333333h-117.33333333333333A5.333333333333333 5.333333333333333 0 0 1 21.333333333333332 202.66666666666666V37.33333333333333a5.333333333333333 5.333333333333333 0 0 1 5.333333333333333 -5.333333333333333h74.66666666666666v-5.76A32 32 0 0 1 114.66666666666666 0H32a32 32 0 0 0 -32 32v192a32 32 0 0 0 32 32h106.66666666666666a32 32 0 0 0 32 -32v-72.63999999999999a27.093333333333334 27.093333333333334 0 0 0 -3.626666666666667 -1.3866666666666667Z" fill="#ffffff" stroke-width="10.6667"></path>
    <path d="M246.07999999999998 10.666666666666666a175.46666666666664 175.46666666666664 0 0 0 -59.626666666666665 -10.666666666666666 170.66666666666666 170.66666666666666 0 0 0 -59.199999999999996 10.666666666666666A16.426666666666666 16.426666666666666 0 0 0 117.33333333333333 26.24v36.16a82.13333333333333 82.13333333333333 0 0 0 55.36 72.53333333333333 37.76 37.76 0 0 0 13.76 3.733333333333333 37.22666666666667 37.22666666666667 0 0 0 13.76 -3.733333333333333c32.85333333333333 -12.479999999999999 55.78666666666667 -42.666666666666664 55.78666666666667 -72.53333333333333V26.24A16.426666666666666 16.426666666666666 0 0 0 246.07999999999998 10.666666666666666ZM224 42.666666666666664l-30.08 39.89333333333333a15.893333333333333 15.893333333333333 0 0 1 -23.893333333333334 1.7066666666666666l-15.68 -15.68a8 8 0 0 1 11.306666666666667 -11.306666666666667L181.33333333333331 72.96l30.08 -40.42666666666666A8 8 0 1 1 224 42.666666666666664Z" fill="#ffffff" stroke-width="10.6667"></path>
  </g>
</svg>