<svg xmlns="http://www.w3.org/2000/svg" id="Coding-Apps-Website-Data-Conversion-Documents-1--Streamline-Ultimate" width="256" height="256" viewBox="0 0 256 256"><desc>Coding Apps Website Data Conversion Documents 1 Streamline Icon: https://streamlinehq.com</desc><g id="Coding-Apps-Website-Data-Conversion-Documents-1--Streamline-Ultimate.svg"><path fill="#fff" stroke-width="10.667" d="M136.95999999999998 120.32 103.68 87.03999999999999a23.68 23.68 0 0 0 -16.96 -7.04H24A24 24 0 0 0 0 104v128A24 24 0 0 0 24 256h96a24 24 0 0 0 24 -24v-94.72a23.68 23.68 0 0 0 -7.04 -16.96ZM128 232a8.106666666666666 8.106666666666666 0 0 1 -8 8h-96a8.106666666666666 8.106666666666666 0 0 1 -8 -8v-128A8.106666666666666 8.106666666666666 0 0 1 24 96h62.72a8 8 0 0 1 5.653333333333333 2.3466666666666667l33.28 33.28a8 8 0 0 1 2.3466666666666667 5.653333333333333Z"/><g><path fill="#fff" stroke-width="10.667" d="M40 133.33333333333331h37.33333333333333a8 8 0 0 0 0 -16h-37.33333333333333a8 8 0 0 0 0 16Z"/><path fill="#fff" stroke-width="10.667" d="M40 168h64a8 8 0 0 0 0 -16h-64a8 8 0 0 0 0 16Z"/><path fill="#fff" stroke-width="10.667" d="M104 186.66666666666666h-64a8 8 0 0 0 0 16h64a8 8 0 0 0 0 -16Z"/></g><g><path fill="#fff" stroke-width="10.667" d="M152 53.33333333333333h37.33333333333333a8 8 0 0 0 0 -16h-37.33333333333333a8 8 0 0 0 0 16Z"/><path fill="#fff" stroke-width="10.667" d="M152 88h64a8 8 0 0 0 0 -16h-64a8 8 0 0 0 0 16Z"/><path fill="#fff" stroke-width="10.667" d="M216 106.66666666666666h-64a8 8 0 0 0 0 16h64a8 8 0 0 0 0 -16Z"/></g><path fill="#fff" stroke-width="10.667" d="M248.95999999999998 40.31999999999999 215.67999999999998 7.04A23.68 23.68 0 0 0 198.71999999999997 0h-62.72a24 24 0 0 0 -24 24v58.666666666666664a8 8 0 0 0 16 0v-58.666666666666664a8.106666666666666 8.106666666666666 0 0 1 8 -8h62.72a8 8 0 0 1 5.653333333333333 2.3466666666666667l33.28 33.28a8 8 0 0 1 2.3466666666666667 5.653333333333333v94.72a8.106666666666666 8.106666666666666 0 0 1 -8 8h-69.33333333333333a8 8 0 0 0 0 16h69.33333333333333A24 24 0 0 0 256 152V57.28a23.68 23.68 0 0 0 -7.04 -16.96Z"/><path fill="#fff" stroke-width="10.667" d="M80.32 21.333333333333332 64 5.013333333333333a7.893333333333333 7.893333333333333 0 0 0 -8.426666666666666 -1.7066666666666666 7.893333333333333 7.893333333333333 0 0 0 -4.906666666666666 7.359999999999999v8H42.666666666666664A24 24 0 0 0 18.666666666666664 42.666666666666664v21.333333333333332a8 8 0 0 0 16 0V42.666666666666664A8.106666666666666 8.106666666666666 0 0 1 42.666666666666664 34.666666666666664h8V42.666666666666664a7.893333333333333 7.893333333333333 0 0 0 4.906666666666666 7.359999999999999 8 8 0 0 0 3.093333333333333 0.6399999999999999 8.213333333333333 8.213333333333333 0 0 0 5.333333333333333 -2.3466666666666667L80.32 32a8 8 0 0 0 0 -10.666666666666666Z"/><path fill="#fff" stroke-width="10.667" d="M218.66666666666666 184a8.106666666666666 8.106666666666666 0 0 0 -8 8v21.333333333333332a8.106666666666666 8.106666666666666 0 0 1 -8 8h-8V213.33333333333331a8 8 0 0 0 -13.333333333333332 -5.653333333333333L165.01333333333332 224a8 8 0 0 0 0 11.306666666666667l16 16a8.213333333333333 8.213333333333333 0 0 0 5.653333333333333 2.3466666666666667 8 8 0 0 0 3.093333333333333 -0.6399999999999999 7.893333333333333 7.893333333333333 0 0 0 4.906666666666666 -7.359999999999999v-8H202.66666666666666A24 24 0 0 0 226.66666666666666 213.33333333333331v-21.333333333333332a8.106666666666666 8.106666666666666 0 0 0 -8 -8Z"/></g></svg>