<svg xmlns="http://www.w3.org/2000/svg" viewBox="0 0 256 256" id="Coding-Apps-Website-Apps-Add-Widget--Streamline-Ultimate" height="256" width="256">
  <desc>
    Coding Apps Website Apps Add Widget Streamline Icon: https://streamlinehq.com
  </desc>
  <g id="Coding-Apps-Website-Apps-Add-Widget--Streamline-Ultimate.svg">
    <path d="M21.333333333333332 0h71.78666666666666s21.333333333333332 0 21.333333333333332 21.333333333333332v71.78666666666666s0 21.333333333333332 -21.333333333333332 21.333333333333332H21.333333333333332s-21.333333333333332 0 -21.333333333333332 -21.333333333333332V21.333333333333332s0 -21.333333333333332 21.333333333333332 -21.333333333333332" fill="#ffffff" stroke-width="10.6667"></path>
    <path d="M162.88 0H234.66666666666666s21.333333333333332 0 21.333333333333332 21.333333333333332v71.78666666666666s0 21.333333333333332 -21.333333333333332 21.333333333333332h-71.78666666666666s-21.333333333333332 0 -21.333333333333332 -21.333333333333332V21.333333333333332s0 -21.333333333333332 21.333333333333332 -21.333333333333332" fill="#ffffff" stroke-width="10.6667"></path>
    <path d="M21.333333333333332 141.54666666666665h71.78666666666666s21.333333333333332 0 21.333333333333332 21.333333333333332V234.66666666666666s0 21.333333333333332 -21.333333333333332 21.333333333333332H21.333333333333332s-21.333333333333332 0 -21.333333333333332 -21.333333333333332v-71.78666666666666s0 -21.333333333333332 21.333333333333332 -21.333333333333332" fill="#ffffff" stroke-width="10.6667"></path>
    <path d="M240 186.66666666666666H213.33333333333331V160a10.666666666666666 10.666666666666666 0 0 0 -21.333333333333332 0v26.666666666666664h-26.666666666666664a10.666666666666666 10.666666666666666 0 0 0 0 21.333333333333332H192V234.66666666666666a10.666666666666666 10.666666666666666 0 0 0 21.333333333333332 0v-26.666666666666664h26.666666666666664a10.666666666666666 10.666666666666666 0 0 0 0 -21.333333333333332Z" fill="#ffffff" stroke-width="10.6667"></path>
  </g>
</svg>