<svg xmlns="http://www.w3.org/2000/svg" id="Coding-Apps-Website-Apps-Browser--Streamline-Ultimate" width="256" height="256" viewBox="0 0 256 256"><desc>Coding Apps Website Apps Browser Streamline Icon: https://streamlinehq.com</desc><g id="Coding-Apps-Website-Apps-Browser--Streamline-Ultimate.svg"><path fill="#fff" stroke-width="10.667" d="M106.66666666666666 242.45333333333332A27.946666666666665 27.946666666666665 0 0 1 96 234.66666666666666H32a10.666666666666666 10.666666666666666 0 0 1 -10.666666666666666 -10.666666666666666V56A2.6666666666666665 2.6666666666666665 0 0 1 24 53.33333333333333h208a2.6666666666666665 2.6666666666666665 0 0 1 2.6666666666666665 2.6666666666666665v55.14666666666666l21.333333333333332 9.066666666666666V32a32 32 0 0 0 -32 -32H32a32 32 0 0 0 -32 32v192a32 32 0 0 0 32 32h106.66666666666666Zm5.333333333333333 -226.45333333333332a10.666666666666666 10.666666666666666 0 0 1 10.666666666666666 10.666666666666666 10.666666666666666 10.666666666666666 0 0 1 -21.333333333333332 0 10.666666666666666 10.666666666666666 0 0 1 10.666666666666666 -10.666666666666666ZM74.66666666666666 16a10.666666666666666 10.666666666666666 0 0 1 10.666666666666666 10.666666666666666 10.666666666666666 10.666666666666666 0 0 1 -21.333333333333332 0 10.666666666666666 10.666666666666666 0 0 1 10.666666666666666 -10.666666666666666Zm-37.33333333333333 0a10.666666666666666 10.666666666666666 0 0 1 10.666666666666666 10.666666666666666 10.666666666666666 10.666666666666666 0 0 1 -10.666666666666666 10.666666666666666 10.666666666666666 10.666666666666666 0 0 1 -10.666666666666666 -10.666666666666666 10.666666666666666 10.666666666666666 0 0 1 10.666666666666666 -10.666666666666666Z"/><path fill="#fff" stroke-width="10.667" d="M256 144.74666666666667a10.666666666666666 10.666666666666666 0 0 0 -6.506666666666666 -9.813333333333333l-64 -27.41333333333333a10.666666666666666 10.666666666666666 0 0 0 -8.32 0l-64 27.41333333333333a10.666666666666666 10.666666666666666 0 0 0 -6.506666666666666 9.813333333333333v73.17333333333333a10.666666666666666 10.666666666666666 0 0 0 6.506666666666666 9.813333333333333l64 27.41333333333333a10.666666666666666 10.666666666666666 0 0 0 8.32 0l64 -27.41333333333333a10.666666666666666 10.666666666666666 0 0 0 6.506666666666666 -9.813333333333333Zm-74.66666666666666 -15.786666666666665 36.906666666666666 15.786666666666665L181.33333333333331 160.64l-36.906666666666666 -15.893333333333333Zm-53.33333333333333 32 42.666666666666664 18.24v49.919999999999995l-42.666666666666664 -18.24Zm64 68.16V179.2l42.666666666666664 -18.24v49.919999999999995Z"/></g></svg>