<svg xmlns="http://www.w3.org/2000/svg" id="Coding-Apps-Website-Browser-Image--Streamline-Ultimate" width="256" height="256" viewBox="0 0 256 256"><desc>Coding Apps Website Browser Image Streamline Icon: https://streamlinehq.com</desc><g id="Coding-Apps-Website-Browser-Image--Streamline-Ultimate.svg"><path fill="#fff" stroke-width="10.667" d="M48 218.66666666666666H106.66666666666666a8 8 0 0 0 0 -16H48a8 8 0 0 0 0 16Z"/><path fill="#fff" stroke-width="10.667" d="M106.66666666666666 234.66666666666666H48a8 8 0 0 0 0 16H106.66666666666666a8 8 0 0 0 0 -16Z"/><path fill="#fff" stroke-width="10.667" d="M149.33333333333331 205.33333333333331h53.33333333333333s10.666666666666666 0 10.666666666666666 10.666666666666666v21.333333333333332s0 10.666666666666666 -10.666666666666666 10.666666666666666h-53.33333333333333s-10.666666666666666 0 -10.666666666666666 -10.666666666666666v-21.333333333333332s0 -10.666666666666666 10.666666666666666 -10.666666666666666"/><path fill="#fff" stroke-width="10.667" d="M112 21.333333333333332a10.666666666666666 10.666666666666666 0 0 1 10.666666666666666 10.666666666666666 10.666666666666666 10.666666666666666 0 0 1 -21.333333333333332 0 10.666666666666666 10.666666666666666 0 0 1 10.666666666666666 -10.666666666666666ZM74.66666666666666 21.333333333333332a10.666666666666666 10.666666666666666 0 0 1 10.666666666666666 10.666666666666666 10.666666666666666 10.666666666666666 0 0 1 -21.333333333333332 0 10.666666666666666 10.666666666666666 0 0 1 10.666666666666666 -10.666666666666666ZM37.33333333333333 21.333333333333332a10.666666666666666 10.666666666666666 0 0 1 10.666666666666666 10.666666666666666 10.666666666666666 10.666666666666666 0 0 1 -10.666666666666666 10.666666666666666 10.666666666666666 10.666666666666666 0 0 1 -10.666666666666666 -10.666666666666666 10.666666666666666 10.666666666666666 0 0 1 10.666666666666666 -10.666666666666666ZM256 239.14666666666668V37.33333333333333a32 32 0 0 0 -32 -32H32a32 32 0 0 0 -32 32v201.81333333333333a10.666666666666666 10.666666666666666 0 0 0 10.666666666666666 10.666666666666666 10.666666666666666 10.666666666666666 0 0 0 10.666666666666666 -10.666666666666666V61.33333333333333a2.6666666666666665 2.6666666666666665 0 0 1 2.6666666666666665 -2.6666666666666665h208a2.6666666666666665 2.6666666666666665 0 0 1 2.6666666666666665 2.6666666666666665v177.81333333333333a10.666666666666666 10.666666666666666 0 0 0 10.666666666666666 10.666666666666666 10.666666666666666 10.666666666666666 0 0 0 10.666666666666666 -10.666666666666666Z"/><path fill="#fff" stroke-width="10.667" d="M42.666666666666664 82.24v90.66666666666666h170.66666666666666v-90.66666666666666Zm34.666666666666664 44.906666666666666a10.666666666666666 10.666666666666666 0 1 1 10.666666666666666 -10.666666666666666 10.666666666666666 10.666666666666666 0 0 1 -10.666666666666666 10.666666666666666Zm25.92 26.666666666666664 45.120000000000005 -40.21333333333333a10.666666666666666 10.666666666666666 0 0 1 14.506666666666668 0L202.66666666666666 153.81333333333333Z"/></g></svg>