<svg xmlns="http://www.w3.org/2000/svg" id="Coding-Apps-Website-Detect-Virus-Monitor-Search--Streamline-Ultimate" width="256" height="256" viewBox="0 0 256 256"><desc>Coding Apps Website Detect Virus Monitor Search Streamline Icon: https://streamlinehq.com</desc><g id="Coding-Apps-Website-Detect-Virus-Monitor-Search--Streamline-Ultimate.svg"><path fill="#fff" stroke-width="10.667" d="M246.50666666666666 149.33333333333331a20.69333333333333 20.69333333333333 0 0 1 -11.84 -3.626666666666667v19.626666666666665a5.333333333333333 5.333333333333333 0 0 1 -5.333333333333333 5.333333333333333h-202.66666666666666a5.333333333333333 5.333333333333333 0 0 1 -5.333333333333333 -5.333333333333333V27.626666666666665A5.866666666666667 5.866666666666667 0 0 1 26.666666666666664 21.333333333333332h85.86666666666667a77.01333333333332 77.01333333333332 0 0 1 18.453333333333333 -21.333333333333332H26.666666666666664A27.199999999999996 27.199999999999996 0 0 0 0 27.626666666666665V186.66666666666666a32 32 0 0 0 32 32h77.33333333333333a2.6666666666666665 2.6666666666666665 0 0 1 2.6666666666666665 2.6666666666666665v10.666666666666666a2.6666666666666665 2.6666666666666665 0 0 1 -2.6666666666666665 2.6666666666666665H53.33333333333333a10.666666666666666 10.666666666666666 0 0 0 0 21.333333333333332h149.33333333333331a10.666666666666666 10.666666666666666 0 0 0 0 -21.333333333333332h-66.66666666666666a2.6666666666666665 2.6666666666666665 0 0 1 -2.6666666666666665 -2.6666666666666665v-10.666666666666666a2.6666666666666665 2.6666666666666665 0 0 1 2.6666666666666665 -2.6666666666666665H224a32 32 0 0 0 32 -32v-39.57333333333333a21.333333333333332 21.333333333333332 0 0 1 -9.493333333333332 2.2399999999999998Z"/><path fill="#fff" stroke-width="10.667" d="m102.50666666666666 58.666666666666664 0 -4.266666666666667a33.92 33.92 0 0 0 -8 -1.0666666666666667 29.546666666666667 29.546666666666667 0 0 0 -10.666666666666666 1.8133333333333335 2.7733333333333334 2.7733333333333334 0 0 1 -2.5599999999999996 0A16 16 0 0 1 75.84 42.666666666666664a8 8 0 1 0 -16 0 32 32 0 0 0 8.32 21.333333333333332 2.5599999999999996 2.5599999999999996 0 0 1 0 3.3066666666666666 32 32 0 0 0 -5.76 15.36 2.453333333333333 2.453333333333333 0 0 0 0.7466666666666667 2.0266666666666664 2.453333333333333 2.453333333333333 0 0 0 2.1333333333333333 0.6399999999999999h42.666666666666664a74.02666666666667 74.02666666666667 0 0 1 -5.4399999999999995 -26.666666666666664Z"/><path fill="#fff" stroke-width="10.667" d="M150.39999999999998 142.82666666666665a28.69333333333333 28.69333333333333 0 0 0 -24 -21.973333333333333v-7.466666666666666a75.62666666666667 75.62666666666667 0 0 1 -12.159999999999998 -14.506666666666668h-43.73333333333333c-13.44 0 -15.786666666666665 -7.786666666666666 -16.106666666666666 -9.493333333333332a8.106666666666666 8.106666666666666 0 0 0 -9.28 -6.3999999999999995 8 8 0 0 0 -6.506666666666666 9.173333333333332 28.479999999999997 28.479999999999997 0 0 0 23.893333333333334 21.973333333333333v6.72a28.586666666666666 28.586666666666666 0 0 0 -24 21.973333333333333 8 8 0 0 0 6.3999999999999995 9.173333333333332h1.4933333333333334a8.213333333333333 8.213333333333333 0 0 0 7.893333333333333 -6.3999999999999995 12.053333333333331 12.053333333333331 0 0 1 10.666666666666666 -8.959999999999999 32 32 0 0 0 59.626666666666665 0 12.586666666666666 12.586666666666666 0 0 1 10.666666666666666 8.853333333333332 8.106666666666666 8.106666666666666 0 0 0 7.893333333333333 6.613333333333333h1.2799999999999998a8.106666666666666 8.106666666666666 0 0 0 5.973333333333334 -9.28Z"/><path fill="#fff" stroke-width="10.667" d="M252.90666666666667 120.42666666666665 224 91.94666666666666A58.666666666666664 58.666666666666664 0 1 0 209.28 106.66666666666666l28.479999999999997 28.586666666666666a10.666666666666666 10.666666666666666 0 0 0 15.146666666666665 0 10.666666666666666 10.666666666666666 0 0 0 0 -14.826666666666664ZM138.66666666666666 58.666666666666664A37.33333333333333 37.33333333333333 0 1 1 176 96 37.33333333333333 37.33333333333333 0 0 1 138.66666666666666 58.666666666666664Z"/></g></svg>