<svg xmlns="http://www.w3.org/2000/svg" viewBox="0 0 256 256" id="Coding-Apps-Website-Network-Globe--Streamline-Ultimate" height="256" width="256">
  <desc>
    Coding Apps Website Network Globe Streamline Icon: https://streamlinehq.com
  </desc>
  <g id="Coding-Apps-Website-Network-Globe--Streamline-Ultimate.svg">
    <g>
      <path d="M104.10666666666665 120h47.78666666666667A163.83999999999997 163.83999999999997 0 0 0 132.79999999999998 53.33333333333333h-9.6a163.83999999999997 163.83999999999997 0 0 0 -19.093333333333334 66.66666666666666Z" fill="#ffffff" stroke-width="10.6667"></path>
      <path d="M88.21333333333332 120a176.8533333333333 176.8533333333333 0 0 1 15.36 -62.61333333333333A74.66666666666666 74.66666666666666 0 0 0 53.33333333333333 120Z" fill="#ffffff" stroke-width="10.6667"></path>
      <path d="M167.78666666666666 120H202.66666666666666a74.66666666666666 74.66666666666666 0 0 0 -49.81333333333333 -62.61333333333333 176.8533333333333 176.8533333333333 0 0 1 14.933333333333332 62.61333333333333Z" fill="#ffffff" stroke-width="10.6667"></path>
      <path d="M167.78666666666666 136a176.8533333333333 176.8533333333333 0 0 1 -15.36 62.61333333333333A74.66666666666666 74.66666666666666 0 0 0 202.66666666666666 136Z" fill="#ffffff" stroke-width="10.6667"></path>
      <path d="M88.21333333333332 136H53.33333333333333a74.66666666666666 74.66666666666666 0 0 0 49.81333333333333 62.61333333333333 176.8533333333333 176.8533333333333 0 0 1 -14.933333333333332 -62.61333333333333Z" fill="#ffffff" stroke-width="10.6667"></path>
      <path d="M151.89333333333332 136H104.10666666666665A165.44 165.44 0 0 0 123.2 202.66666666666666h9.6a163.83999999999997 163.83999999999997 0 0 0 19.093333333333334 -66.66666666666666Z" fill="#ffffff" stroke-width="10.6667"></path>
    </g>
    <path d="M128 0a16 16 0 1 0 16 16A16 16 0 0 0 128 0Z" fill="#ffffff" stroke-width="10.6667"></path>
    <path d="M128 224a16 16 0 1 0 16 16A16 16 0 0 0 128 224Z" fill="#ffffff" stroke-width="10.6667"></path>
    <path d="M218.55999999999997 37.44a16.106666666666666 16.106666666666666 0 1 0 0 22.72 16.21333333333333 16.21333333333333 0 0 0 0 -22.72Z" fill="#ffffff" stroke-width="10.6667"></path>
    <path d="M60.16 195.83999999999997a16.106666666666666 16.106666666666666 0 1 0 0 22.72 16.21333333333333 16.21333333333333 0 0 0 0 -22.72Z" fill="#ffffff" stroke-width="10.6667"></path>
    <path d="M256 128a16 16 0 1 0 -16 16A16 16 0 0 0 256 128Z" fill="#ffffff" stroke-width="10.6667"></path>
    <path d="M32 128a16 16 0 1 0 -16 16A16 16 0 0 0 32 128Z" fill="#ffffff" stroke-width="10.6667"></path>
    <path d="M218.55999999999997 218.55999999999997a16.106666666666666 16.106666666666666 0 1 0 -22.72 0 16.21333333333333 16.21333333333333 0 0 0 22.72 0Z" fill="#ffffff" stroke-width="10.6667"></path>
    <path d="M60.16 60.16a16.106666666666666 16.106666666666666 0 1 0 -22.72 0 16.21333333333333 16.21333333333333 0 0 0 22.72 0Z" fill="#ffffff" stroke-width="10.6667"></path>
  </g>
</svg>