<svg xmlns="http://www.w3.org/2000/svg" viewBox="0 0 256 256" id="Coding-Apps-Website-Web-Form-Text-Area-1--Streamline-Ultimate" height="256" width="256">
  <desc>
    Coding Apps Website Web Form Text Area 1 Streamline Icon: https://streamlinehq.com
  </desc>
  <path d="M240 0h-224A16 16 0 0 0 0 16v224A16 16 0 0 0 16 256h224a16 16 0 0 0 16 -16v-224A16 16 0 0 0 240 0ZM34.666666666666664 48A8.106666666666666 8.106666666666666 0 0 1 42.666666666666664 40h64a8.106666666666666 8.106666666666666 0 0 1 8 8V64a8 8 0 0 1 -16 0v-8h-16v53.33333333333333a8 8 0 0 1 -16 0v-53.33333333333333h-16V64a8 8 0 0 1 -16 0ZM208 216H42.666666666666664a8 8 0 0 1 0 -16h165.33333333333331a8 8 0 0 1 0 16Zm0 -53.33333333333333H42.666666666666664a8 8 0 0 1 0 -16h165.33333333333331a8 8 0 0 1 0 16Zm0 -53.33333333333333h-66.66666666666666a8 8 0 0 1 0 -16h66.66666666666666a8 8 0 0 1 0 16Zm0 -53.33333333333333h-66.66666666666666a8 8 0 0 1 0 -16h66.66666666666666a8 8 0 0 1 0 16Z" fill="#ffffff" stroke-width="10.6667"></path>
</svg>