<svg xmlns="http://www.w3.org/2000/svg" id="Coding-Apps-Website-Gdpr-Shield--Streamline-Ultimate" width="256" height="256" viewBox="0 0 256 256"><desc>Coding Apps Website Gdpr Shield Streamline Icon: https://streamlinehq.com</desc><g id="Coding-Apps-Website-Gdpr-Shield--Streamline-Ultimate.svg"><path fill="#fff" stroke-width="10.667" d="M222.71999999999997 169.17333333333332a10.666666666666666 10.666666666666666 0 0 0 -14.4 4.586666666666666 115.62666666666667 115.62666666666667 0 0 1 -61.54666666666666 55.25333333333333l-10.666666666666666 4.266666666666667a22.4 22.4 0 0 1 -15.36 0l-10.666666666666666 -4.266666666666667a116.05333333333334 116.05333333333334 0 0 1 -61.54666666666666 -55.25333333333333 10.666666666666666 10.666666666666666 0 0 0 -18.986666666666665 9.813333333333333 137.27999999999997 137.27999999999997 0 0 0 72.85333333333332 65.28l10.666666666666666 4.266666666666667a42.666666666666664 42.666666666666664 0 0 0 30.72 0l10.666666666666666 -4.266666666666667a137.27999999999997 137.27999999999997 0 0 0 72.85333333333332 -65.28 10.666666666666666 10.666666666666666 0 0 0 -4.586666666666666 -14.4Z"/><path fill="#fff" stroke-width="10.667" d="M226.98666666666668 20.266666666666666A241.06666666666666 241.06666666666666 0 0 0 128 0a240.95999999999998 240.95999999999998 0 0 0 -99.2 20.266666666666666 26.453333333333333 26.453333333333333 0 0 0 -15.466666666666665 24.319999999999997 10.666666666666666 10.666666666666666 0 0 0 10.666666666666666 10.666666666666666 10.666666666666666 10.666666666666666 0 0 0 10.666666666666666 -10.666666666666666 5.119999999999999 5.119999999999999 0 0 1 2.88 -4.693333333333333A220.26666666666665 220.26666666666665 0 0 1 128 21.333333333333332a222.07999999999998 222.07999999999998 0 0 1 90.24000000000001 18.346666666666664 5.333333333333333 5.333333333333333 0 0 1 2.986666666666667 4.8 10.666666666666666 10.666666666666666 0 0 0 10.666666666666666 10.666666666666666 10.666666666666666 10.666666666666666 0 0 0 10.666666666666666 -10.666666666666666 26.346666666666668 26.346666666666668 0 0 0 -15.573333333333332 -24.21333333333333Z"/><g><path fill="#fff" stroke-width="10.667" d="M54.93333333333334 85.33333333333333a8 8 0 0 0 0 -16h-32a8 8 0 0 0 -8 8v64a8 8 0 0 0 8 8h32a8.106666666666666 8.106666666666666 0 0 0 8 -8v-32a8.106666666666666 8.106666666666666 0 0 0 -8 -8h-10.666666666666666a8 8 0 0 0 0 16h2.6666666666666665v16H30.93333333333333V85.33333333333333Z"/><path fill="#fff" stroke-width="10.667" d="M152.2133333333333 69.33333333333333h-11.946666666666667a8 8 0 0 0 -8 8v64a8 8 0 0 0 16 0v-16h3.9466666666666663a28.05333333333333 28.05333333333333 0 1 0 0 -56Zm0 40h-3.9466666666666663V85.33333333333333h3.9466666666666663a12.053333333333331 12.053333333333331 0 1 1 0 24Z"/><path fill="#fff" stroke-width="10.667" d="M223.36 122.45333333333333a28.05333333333333 28.05333333333333 0 0 0 -12.479999999999999 -53.33333333333333h-11.946666666666667a8 8 0 0 0 -8 8v64a8 8 0 0 0 16 0v-12.479999999999999l18.346666666666664 18.346666666666664a7.786666666666666 7.786666666666666 0 0 0 5.653333333333333 2.3466666666666667 7.893333333333333 7.893333333333333 0 0 0 5.653333333333333 -2.3466666666666667 8 8 0 0 0 0 -11.306666666666667Zm0 -25.066666666666666a12.053333333333331 12.053333333333331 0 0 1 -12.053333333333331 11.946666666666667h-4.373333333333333V85.33333333333333h3.9466666666666663a12.159999999999998 12.159999999999998 0 0 1 12.053333333333331 12.053333333333331Z"/><path fill="#fff" stroke-width="10.667" d="M81.6 69.33333333333333a8 8 0 0 0 -8 8v64a8 8 0 0 0 8 8 40 40 0 0 0 0 -80Zm8 62.61333333333333V86.72a24 24 0 0 1 0 45.22666666666667Z"/></g></g></svg>