<svg xmlns="http://www.w3.org/2000/svg" viewBox="0 0 256 256" id="Coding-Apps-Website-Web-Form-Drop-Down-Menu-1--Streamline-Ultimate" height="256" width="256">
  <desc>
    Coding Apps Website Web Form Drop Down Menu 1 Streamline Icon: https://streamlinehq.com
  </desc>
  <path d="M233.92 56.42666666666666H22.08a21.333333333333332 21.333333333333332 0 0 0 -21.333333333333332 21.333333333333332v100.47999999999999a21.333333333333332 21.333333333333332 0 0 0 21.333333333333332 21.333333333333332h211.83999999999997a21.333333333333332 21.333333333333332 0 0 0 21.333333333333332 -21.333333333333332V77.75999999999999a21.333333333333332 21.333333333333332 0 0 0 -21.333333333333332 -21.333333333333332Zm-88.74666666666667 121.81333333333333H22.08V77.75999999999999h123.09333333333332Zm82.02666666666667 -63.04 -24.53333333333333 32a5.119999999999999 5.119999999999999 0 0 1 -4.266666666666667 2.1333333333333333 5.4399999999999995 5.4399999999999995 0 0 1 -4.266666666666667 -2.1333333333333333l-23.46666666666667 -32a5.653333333333333 5.653333333333333 0 0 1 -0.5333333333333333 -5.653333333333333 5.546666666666667 5.546666666666667 0 0 1 4.8 -2.88h48a5.226666666666667 5.226666666666667 0 0 1 4.693333333333333 2.88 5.4399999999999995 5.4399999999999995 0 0 1 -0.42666666666666664 5.653333333333333Z" fill="#ffffff" stroke-width="10.6667"></path>
</svg>