<svg xmlns="http://www.w3.org/2000/svg" viewBox="0 0 256 256" id="Coding-Apps-Website-Big-Data-Database-Globality-Velocity--Streamline-Ultimate" height="256" width="256">
  <desc>
    Coding Apps Website Big Data Database Globality Velocity Streamline Icon: https://streamlinehq.com
  </desc>
  <g id="Coding-Apps-Website-Big-Data-Database-Globality-Velocity--Streamline-Ultimate.svg">
    <path d="M157.33333333333331 125.33333333333333A78.72 78.72 0 0 0 96 48.63999999999999l-0.8533333333333333 0a75.94666666666666 75.94666666666666 0 0 0 -16.426666666666666 -1.7066666666666666 78.61333333333333 78.61333333333333 0 0 0 -11.306666666666667 156.26666666666665 90.13333333333333 90.13333333333333 0 0 0 10.666666666666666 0.7466666666666667 86.29333333333332 86.29333333333332 0 0 0 10.666666666666666 -0.7466666666666667h0.8533333333333333a78.82666666666665 78.82666666666665 0 0 0 67.73333333333332 -77.86666666666666Zm-78.61333333333333 57.38666666666666h-1.7066666666666666a207.04 207.04 0 0 1 -9.813333333333333 -49.38666666666666h22.93333333333333a210.13333333333333 210.13333333333333 0 0 1 -9.706666666666667 49.28Zm25.706666666666667 -6.186666666666666a228.16 228.16 0 0 0 7.04 -43.199999999999996h24a57.70666666666666 57.70666666666666 0 0 1 -31.04 43.199999999999996Zm29.973333333333333 -64.53333333333333h-22.506666666666664a221.76 221.76 0 0 0 -3.626666666666667 -35.733333333333334 57.38666666666666 57.38666666666666 0 0 1 26.133333333333333 35.733333333333334ZM85.33333333333333 68.37333333333333a207.25333333333333 207.25333333333333 0 0 1 5.76 43.626666666666665H66.66666666666666a216.64 216.64 0 0 1 5.866666666666667 -43.626666666666665 58.986666666666665 58.986666666666665 0 0 1 12.799999999999999 0Zm-36.266666666666666 7.893333333333333a237.44 237.44 0 0 0 -3.733333333333333 35.733333333333334h-22.4A57.38666666666666 57.38666666666666 0 0 1 49.06666666666666 76.26666666666667ZM21.866666666666664 133.33333333333331h23.893333333333334A238.71999999999997 238.71999999999997 0 0 0 53.33333333333333 176.53333333333333a57.28 57.28 0 0 1 -31.46666666666667 -43.199999999999996Z" fill="#ffffff" stroke-width="10.6667"></path>
    <path d="M136 2.6666666666666665h-32a10.666666666666666 10.666666666666666 0 0 0 -10.666666666666666 10.666666666666666v16a10.666666666666666 10.666666666666666 0 0 0 21.333333333333332 0v-5.333333333333333h21.333333333333332a10.666666666666666 10.666666666666666 0 0 0 0 -21.333333333333332Z" fill="#ffffff" stroke-width="10.6667"></path>
    <path d="M136 226.66666666666666h-21.333333333333332v-5.333333333333333a10.666666666666666 10.666666666666666 0 0 0 -21.333333333333332 0v16a10.666666666666666 10.666666666666666 0 0 0 10.666666666666666 10.666666666666666h32a10.666666666666666 10.666666666666666 0 0 0 0 -21.333333333333332Z" fill="#ffffff" stroke-width="10.6667"></path>
    <path d="M256 50.666666666666664a2.6666666666666665 2.6666666666666665 0 0 0 -4.053333333333333 -2.2399999999999998 71.36 71.36 0 0 1 -37.33333333333333 9.6 71.03999999999999 71.03999999999999 0 0 1 -37.33333333333333 -9.6 2.88 2.88 0 0 0 -2.7733333333333334 0 2.7733333333333334 2.7733333333333334 0 0 0 -1.3866666666666667 2.3466666666666667V85.33333333333333c0 10.026666666666666 17.066666666666666 21.333333333333332 41.49333333333333 21.333333333333332S256 96 256 85.33333333333333Z" fill="#ffffff" stroke-width="10.6667"></path>
    <path d="M173.12 21.333333333333332c0 10.026666666666666 17.066666666666666 21.333333333333332 41.49333333333333 21.333333333333332S256 31.36 256 21.333333333333332s-16.96 -21.333333333333332 -41.38666666666666 -21.333333333333332 -41.49333333333333 11.306666666666667 -41.49333333333333 21.333333333333332Z" fill="#ffffff" stroke-width="10.6667"></path>
    <path d="M256 199.78666666666666a2.7733333333333334 2.7733333333333334 0 0 0 -1.3866666666666667 -2.3466666666666667 2.6666666666666665 2.6666666666666665 0 0 0 -2.6666666666666665 0 70.39999999999999 70.39999999999999 0 0 1 -37.33333333333333 9.6 70.08 70.08 0 0 1 -37.33333333333333 -9.6 2.88 2.88 0 0 0 -2.7733333333333334 0 2.7733333333333334 2.7733333333333334 0 0 0 -1.3866666666666667 2.3466666666666667V234.66666666666666c0 10.026666666666666 17.066666666666666 21.333333333333332 41.49333333333333 21.333333333333332S256 245.33333333333331 256 234.66666666666666Z" fill="#ffffff" stroke-width="10.6667"></path>
    <path d="M173.12 170.66666666666666c0 10.026666666666666 17.066666666666666 21.333333333333332 41.49333333333333 21.333333333333332S256 181.33333333333331 256 170.66666666666666s-16.96 -21.333333333333332 -41.38666666666666 -21.333333333333332 -41.49333333333333 11.2 -41.49333333333333 21.333333333333332Z" fill="#ffffff" stroke-width="10.6667"></path>
  </g>
</svg>