<svg xmlns="http://www.w3.org/2000/svg" id="Coding-Apps-Website-Web-Form-Drop-Down-Menu-Form-3--Streamline-Ultimate" width="256" height="256" viewBox="0 0 256 256"><desc>Coding Apps Website Web Form Drop Down Menu Form 3 Streamline Icon: https://streamlinehq.com</desc><g id="Coding-Apps-Website-Web-Form-Drop-Down-Menu-Form-3--Streamline-Ultimate.svg"><path fill="#fff" stroke-width="10.667" d="M233.49333333333334 1.1733333333333333H22.506666666666664a21.333333333333332 21.333333333333332 0 0 0 -21.333333333333332 21.333333333333332v210.98666666666668a21.333333333333332 21.333333333333332 0 0 0 21.333333333333332 21.333333333333332h210.98666666666668a21.333333333333332 21.333333333333332 0 0 0 21.333333333333332 -21.333333333333332V22.506666666666664a21.333333333333332 21.333333333333332 0 0 0 -21.333333333333332 -21.333333333333332ZM160 233.49333333333334H22.506666666666664V22.506666666666664H160Zm65.28 -49.28 -15.146666666666665 20.266666666666666a5.333333333333333 5.333333333333333 0 0 1 -8.533333333333333 0l-15.146666666666665 -20.266666666666666a5.333333333333333 5.333333333333333 0 0 1 4.266666666666667 -8.533333333333333h30.29333333333333a5.333333333333333 5.333333333333333 0 0 1 4.266666666666667 8.533333333333333ZM226.24 74.66666666666666a5.4399999999999995 5.4399999999999995 0 0 1 -4.8 2.986666666666667h-30.29333333333333a5.333333333333333 5.333333333333333 0 0 1 -4.266666666666667 -8.533333333333333l15.146666666666665 -20.05333333333333a5.546666666666667 5.546666666666667 0 0 1 8.533333333333333 0l15.146666666666665 20.159999999999997a5.4399999999999995 5.4399999999999995 0 0 1 0.5333333333333333 5.4399999999999995Z"/><g><path fill="#fff" stroke-width="10.667" d="M47.14666666666666 88.53333333333333H128a10.666666666666666 10.666666666666666 0 0 0 0 -21.333333333333332H47.14666666666666a10.666666666666666 10.666666666666666 0 0 0 0 21.333333333333332Z"/><path fill="#fff" stroke-width="10.667" d="M128 118.82666666666667H47.14666666666666a10.666666666666666 10.666666666666666 0 0 0 0 21.333333333333332H128a10.666666666666666 10.666666666666666 0 0 0 0 -21.333333333333332Z"/><path fill="#fff" stroke-width="10.667" d="M128 170.66666666666666H47.14666666666666a10.666666666666666 10.666666666666666 0 0 0 0 21.333333333333332H128a10.666666666666666 10.666666666666666 0 1 0 0 -21.333333333333332Z"/></g></g></svg>