<svg xmlns="http://www.w3.org/2000/svg" id="Coffee-Espresso-Machine--Streamline-Ultimate" width="256" height="256" viewBox="0 0 256 256"><desc>Coffee Espresso Machine Streamline Icon: https://streamlinehq.com</desc><g id="Coffee-Espresso-Machine--Streamline-Ultimate.svg"><path fill="#fff" stroke-width="10.667" d="M10.666666666666666 170.66666666666666h29.65333333333333a2.6666666666666665 2.6666666666666665 0 0 1 2.5599999999999996 2.1333333333333333A10.666666666666666 10.666666666666666 0 0 0 53.33333333333333 181.33333333333331h2.6666666666666665a2.6666666666666665 2.6666666666666665 0 0 1 2.6666666666666665 2.6666666666666665v2.6666666666666665a10.666666666666666 10.666666666666666 0 0 0 21.333333333333332 0v-2.6666666666666665a2.6666666666666665 2.6666666666666665 0 0 1 2.6666666666666665 -2.6666666666666665H85.33333333333333a10.666666666666666 10.666666666666666 0 0 0 10.666666666666666 -10.666666666666666v-21.333333333333332a10.666666666666666 10.666666666666666 0 0 0 -10.666666666666666 -10.666666666666666H53.33333333333333a10.666666666666666 10.666666666666666 0 0 0 -10.666666666666666 8.533333333333333 2.6666666666666665 2.6666666666666665 0 0 1 -2.5599999999999996 2.1333333333333333H10.666666666666666a10.666666666666666 10.666666666666666 0 0 0 0 21.333333333333332Z"/><path fill="#fff" stroke-width="10.667" d="M234.66666666666666 0H69.33333333333333A37.33333333333333 37.33333333333333 0 0 0 32 37.33333333333333V96a10.666666666666666 10.666666666666666 0 0 0 10.666666666666666 10.666666666666666h8a2.6666666666666665 2.6666666666666665 0 0 1 2.6666666666666665 2.6666666666666665v13.333333333333332a5.333333333333333 5.333333333333333 0 0 0 5.333333333333333 5.333333333333333h21.333333333333332a5.333333333333333 5.333333333333333 0 0 0 5.333333333333333 -5.333333333333333v-13.333333333333332a2.6666666666666665 2.6666666666666665 0 0 1 2.6666666666666665 -2.6666666666666665H106.66666666666666a5.333333333333333 5.333333333333333 0 0 1 5.333333333333333 5.333333333333333v96a5.333333333333333 5.333333333333333 0 0 1 -5.333333333333333 5.333333333333333H10.666666666666666a10.666666666666666 10.666666666666666 0 0 0 -10.666666666666666 10.666666666666666v21.333333333333332a10.666666666666666 10.666666666666666 0 0 0 10.666666666666666 10.666666666666666h234.66666666666666a10.666666666666666 10.666666666666666 0 0 0 10.666666666666666 -10.666666666666666V21.333333333333332a21.333333333333332 21.333333333333332 0 0 0 -21.333333333333332 -21.333333333333332ZM74.66666666666666 58.666666666666664A16 16 0 1 1 90.66666666666666 42.666666666666664 16 16 0 0 1 74.66666666666666 58.666666666666664Zm157.33333333333331 40h-42.666666666666664a8 8 0 0 1 0 -16h42.666666666666664a8 8 0 0 1 0 16Zm0 -32h-42.666666666666664a8 8 0 0 1 0 -16h42.666666666666664a8 8 0 0 1 0 16Z"/></g></svg>