<svg xmlns="http://www.w3.org/2000/svg" viewBox="0 0 256 256" id="Coffee-Cold--Streamline-Ultimate" height="256" width="256">
  <desc>
    Coffee Cold Streamline Icon: https://streamlinehq.com
  </desc>
  <path d="M74.66666666666666 242.55999999999997A16 16 0 0 0 89.91999999999999 256h76.16a16 16 0 0 0 15.786666666666665 -13.44l18.56 -120.42666666666665a5.226666666666667 5.226666666666667 0 0 1 5.226666666666667 -4.586666666666666h12.906666666666666a10.666666666666666 10.666666666666666 0 1 0 0 -21.333333333333332h-12.373333333333331a5.226666666666667 5.226666666666667 0 0 1 -5.119999999999999 -4.373333333333333 73.91999999999999 73.91999999999999 0 0 0 -27.52 -44.05333333333333 10.666666666666666 10.666666666666666 0 0 0 -13.013333333333332 16.85333333333333 52.16 52.16 0 0 1 17.706666666666663 24.426666666666666 5.119999999999999 5.119999999999999 0 0 1 -0.6399999999999999 4.8 5.226666666666667 5.226666666666667 0 0 1 -4.373333333333333 2.3466666666666667h-24.64a5.226666666666667 5.226666666666667 0 0 1 -4.16 -2.0266666666666664 5.013333333333333 5.013333333333333 0 0 1 -1.0666666666666667 -4.373333333333333l12.159999999999998 -61.653333333333336a5.4399999999999995 5.4399999999999995 0 0 1 7.68 -3.733333333333333l34.666666666666664 17.28a10.666666666666666 10.666666666666666 0 1 0 9.493333333333332 -18.986666666666665L166.39999999999998 2.2399999999999998a21.333333333333332 21.333333333333332 0 0 0 -18.773333333333333 0 21.333333333333332 21.333333333333332 0 0 0 -11.626666666666667 14.933333333333332l-14.826666666666664 74.66666666666666a5.226666666666667 5.226666666666667 0 0 1 -5.226666666666667 4.373333333333333H82.77333333333333a5.333333333333333 5.333333333333333 0 0 1 -4.373333333333333 -2.3466666666666667 5.4399999999999995 5.4399999999999995 0 0 1 -0.6399999999999999 -4.8 53.33333333333333 53.33333333333333 0 0 1 36.906666666666666 -33.81333333333333 10.666666666666666 10.666666666666666 0 0 0 -5.333333333333333 -20.69333333333333 74.66666666666666 74.66666666666666 0 0 0 -54.29333333333333 57.38666666666666 5.333333333333333 5.333333333333333 0 0 1 -5.226666666666667 4.266666666666667H37.44a10.666666666666666 10.666666666666666 0 1 0 0 21.333333333333332h12.906666666666666a5.226666666666667 5.226666666666667 0 0 1 5.226666666666667 4.586666666666666ZM173.33333333333331 117.33333333333333a5.653333333333333 5.653333333333333 0 0 1 4.053333333333333 1.92 5.4399999999999995 5.4399999999999995 0 0 1 1.1733333333333333 4.266666666666667l-3.3066666666666666 21.333333333333332a5.226666666666667 5.226666666666667 0 0 1 -5.226666666666667 4.4799999999999995H138.66666666666666a5.226666666666667 5.226666666666667 0 0 1 -4.053333333333333 -1.92 5.546666666666667 5.546666666666667 0 0 1 -1.1733333333333333 -4.373333333333333l4.16 -21.333333333333332a5.226666666666667 5.226666666666667 0 0 1 5.226666666666667 -4.373333333333333Zm-62.39999999999999 27.733333333333334a5.226666666666667 5.226666666666667 0 0 1 -5.226666666666667 4.373333333333333H85.97333333333333a5.226666666666667 5.226666666666667 0 0 1 -5.226666666666667 -4.4799999999999995l-3.3066666666666666 -21.333333333333332a5.4399999999999995 5.4399999999999995 0 0 1 1.1733333333333333 -4.266666666666667 5.653333333333333 5.653333333333333 0 0 1 4.053333333333333 -2.0266666666666664h27.199999999999996a5.4399999999999995 5.4399999999999995 0 0 1 4.053333333333333 1.92 5.653333333333333 5.653333333333333 0 0 1 1.1733333333333333 4.4799999999999995Z" fill="#ffffff" stroke-width="10.6667"></path>
</svg>