<svg xmlns="http://www.w3.org/2000/svg" viewBox="0 0 256 256" id="Cog-Search-1--Streamline-Ultimate" height="256" width="256">
  <desc>
    Cog Search 1 Streamline Icon: https://streamlinehq.com
  </desc>
  <g id="Cog-Search-1--Streamline-Ultimate.svg">
    <path d="m247.21813333333333 218 -52.668800000000005 -52.668800000000005C239.24159999999998 98.24533333333332 194.55146666666667 7.9370666666666665 114.10879999999999 2.7754666666666665 33.66506666666666 -2.3861333333333334 -22.199466666666666 81.47093333333333 13.552 153.71733333333333c27.940266666666666 56.46079999999999 99.04746666666666 75.64906666666667 151.59893333333332 40.9088s52.668800000000005 52.77226666666667 52.77226666666667 52.77226666666667c8.103466666666666 8.055466666666666 21.191466666666663 8.055466666666666 29.294933333333333 0 8.1248 -8.1152 8.1248 -21.2832 0 -29.3984Zm-139.30666666666667 -26.906666666666666C43.93599999999999 191.0965333333333 3.952 121.8432 35.93706666666667 66.43733333333333c31.98506666666667 -55.40586666666667 111.95413333333332 -55.40906666666667 143.9445333333333 -0.0063999999999999994 7.294933333333333 12.634666666666668 11.136 26.967466666666667 11.136 41.556266666666666 0 45.8976 -37.209599999999995 83.10506666666666 -83.10613333333333 83.10613333333333Z" fill="#ffffff" stroke-width="10.6667"></path>
    <path d="m160.37226666666666 115.25973333333333 -4.8831999999999995 -4.363733333333333c-0.7573333333333332 -0.7413333333333334 -1.2042666666666666 -1.7450666666666665 -1.2458666666666667 -2.804266666666667 0.014933333333333333 -1.0965333333333334 0.4629333333333333 -2.1418666666666666 1.2458666666666667 -2.9088l4.8831999999999995 -4.363733333333333c4.472533333333333 -4.026666666666666 5.928533333333332 -10.433066666666665 3.6351999999999998 -15.997866666666667 -2.3946666666666667 -5.5018666666666665 -7.924266666666666 -8.967466666666667 -13.919999999999998 -8.7264h-6.440533333333333c-1.0901333333333332 0.06186666666666666 -2.1525333333333334 -0.3552 -2.9088 -1.1423999999999999 -0.8128 -0.7392 -1.2351999999999999 -1.8144 -1.1423999999999999 -2.9088v-6.440533333333333c0.7082666666666666 -10.933333333333332 -10.683733333333333 -18.53333333333333 -20.506666666666668 -13.68 -1.6383999999999999 0.8095999999999999 -3.106133333333333 1.9274666666666667 -4.322133333333333 3.291733333333333l-4.2592 4.778666666666666c-1.5914666666666666 1.6416 -4.225066666666667 1.6416 -5.816533333333333 0l-3.947733333333333 -3.947733333333333c-7.2885333333333335 -8.1792 -20.698666666666664 -5.401599999999999 -24.138666666666666 4.999466666666667 -0.5738666666666666 1.7354666666666667 -0.8074666666666667 3.5648 -0.6901333333333333 5.3888v6.440533333333333c0.0928 1.0943999999999998 -0.3296 2.1696 -1.1423999999999999 2.9088 -0.7146666666666667 0.6442666666666667 -1.6351999999999998 1.0122666666666666 -2.5973333333333333 1.0389333333333333h-6.440533333333333c-6.004266666666666 -0.27199999999999996 -11.5488 3.2042666666666664 -13.919999999999998 8.7264 -1.8336 5.4624 -0.19306666666666666 11.4912 4.155733333333333 15.270399999999999l4.882133333333333 4.363733333333333c0.7829333333333334 0.7669333333333334 1.2309333333333332 1.8122666666666665 1.2469333333333332 2.9088 -0.042666666666666665 1.0592 -0.4885333333333333 2.062933333333333 -1.2469333333333332 2.804266666666667l-4.882133333333333 4.363733333333333c-8.180266666666666 7.287466666666667 -5.402666666666666 20.697599999999998 4.999466666666667 24.1376 1.7344 0.5738666666666666 3.5648 0.8085333333333333 5.3888 0.6901333333333333h6.440533333333333c1.0826666666666667 -0.023466666666666667 2.130133333333333 0.38826666666666665 2.9088 1.1423999999999999 0.7989333333333333 0.7477333333333332 1.2191999999999998 1.8165333333333333 1.1423999999999999 2.9088v6.545066666666667c-0.7082666666666666 10.932266666666665 10.683733333333333 18.532266666666665 20.506666666666668 13.68 1.6383999999999999 -0.8095999999999999 3.1050666666666666 -1.9274666666666667 4.321066666666667 -3.291733333333333l4.2592 -4.778666666666666c1.6159999999999999 -1.5839999999999999 4.201599999999999 -1.5839999999999999 5.8176 0l4.2592 4.778666666666666c2.6421333333333332 2.974933333333333 6.409599999999999 4.7072 10.388266666666667 4.778666666666666 1.8602666666666665 -0.008533333333333334 3.6981333333333333 -0.39679999999999993 5.401599999999999 -1.1434666666666666 5.568 -2.2762666666666664 9.102933333333333 -7.808 8.830933333333332 -13.816533333333332v-6.5440000000000005c-0.0768 -1.0922666666666667 0.3423999999999999 -2.1610666666666667 1.1423999999999999 -2.9088 0.7712 -0.7647999999999999 1.8229333333333333 -1.1786666666666665 2.9088 -1.1423999999999999h6.440533333333333c10.933333333333332 0.7082666666666666 18.53333333333333 -10.6848 13.68 -20.506666666666668 -0.8095999999999999 -1.6383999999999999 -1.9274666666666667 -3.106133333333333 -3.291733333333333 -4.322133333333333Zm-33.55413333333333 -7.272533333333333c0.07999999999999999 14.554666666666666 -15.6256 23.7376 -28.269866666666665 16.529066666666665 -12.644266666666667 -7.207466666666666 -12.744533333333333 -25.400533333333332 -0.18026666666666663 -32.74666666666666 2.896 -1.6928 6.1888000000000005 -2.584533333333333 9.543466666666667 -2.584533333333333 10.401066666666665 -0.0010666666666666667 18.849066666666666 8.401066666666665 18.906666666666666 18.80213333333333Z" fill="#ffffff" stroke-width="10.6667"></path>
  </g>
</svg>