<svg xmlns="http://www.w3.org/2000/svg" viewBox="0 0 256 256" id="Cog-Hand-Give-1--Streamline-Ultimate" height="256" width="256">
  <desc>
    Cog Hand Give 1 Streamline Icon: https://streamlinehq.com
  </desc>
  <g id="Cog-Hand-Give-1--Streamline-Ultimate.svg">
    <path d="M166.67626666666666 77.21386666666666c0 12.3552 13.374933333333333 20.077866666666665 24.074666666666666 13.899733333333332 4.965333333333334 -2.8671999999999995 8.024533333333332 -8.165333333333333 8.024533333333332 -13.899733333333332 0 -12.3552 -13.374933333333333 -20.0768 -24.074666666666666 -13.898666666666665 -4.965333333333334 2.866133333333333 -8.024533333333332 8.165333333333333 -8.024533333333332 13.898666666666665" fill="#ffffff" stroke-width="10.6667"></path>
    <path d="M233.8709333333333 80.5312c-1.7141333333333333 -1.8794666666666666 -1.7141333333333333 -4.755199999999999 0 -6.6335999999999995l10.699733333333334 -11.449599999999998c5.991466666666666 -6.209066666666666 6.964266666666667 -15.709866666666667 2.3541333333333334 -23.003733333333333 -4.085333333333333 -7.291733333333333 -12.530133333333334 -10.967466666666667 -20.650666666666666 -8.987733333333333l-15.086933333333334 3.530666666666667c-2.494933333333333 0.5642666666666667 -5.005866666666666 -0.8778666666666666 -5.778133333333333 -3.317333333333333l-4.4938666666666665 -14.4448c-4.058666666666666 -14.002133333333333 -21.754666666666665 -18.359466666666666 -31.85066666666667 -7.842133333333333 -2.1216 2.2090666666666667 -3.6757333333333335 4.900266666666666 -4.528 7.842133333333333l-4.4938666666666665 14.8736c-0.7712 2.4383999999999997 -3.2832 3.880533333333333 -5.778133333333333 3.3162666666666665l-15.086933333333334 -3.530666666666667c-8.021333333333333 -2.0565333333333333 -16.436266666666665 1.4314666666666667 -20.650666666666666 8.559999999999999 -4.357333333333333 7.2202666666666655 -3.3503999999999996 16.464 2.4608 22.575999999999997l10.699733333333334 11.449599999999998c1.7141333333333333 1.8784 1.7141333333333333 4.754133333333333 0 6.6335999999999995L120.98773333333332 91.55199999999999c-10.010666666666665 10.711466666666666 -4.672 28.2432 9.6096 31.557333333333332 2.8224 0.6549333333333334 5.756799999999999 0.6570666666666667 8.580266666666667 0.007466666666666667l15.086933333333334 -3.424c2.5034666666666663 -0.6208 5.050666666666666 0.8415999999999999 5.778133333333333 3.3162666666666665l4.4938666666666665 14.8736c4.345599999999999 14.002133333333333 22.21973333333333 18.049066666666665 32.17386666666667 7.284266666666666 1.9264000000000001 -2.0842666666666663 3.3632 -4.5738666666666665 4.2048 -7.284266666666666l4.4938666666666665 -14.8736c0.7274666666666666 -2.474666666666667 3.2746666666666666 -3.9370666666666665 5.778133333333333 -3.3162666666666665l15.086933333333334 3.424c14.286933333333332 3.2906666666666666 26.779733333333333 -10.1184 22.486399999999996 -24.1376 -0.8490666666666666 -2.770133333333333 -2.3178666666666663 -5.309866666666666 -4.296533333333333 -7.4272Zm-51.144533333333335 28.782933333333332c-24.7104 0 -40.154666666666664 -26.749866666666666 -27.799466666666664 -48.14933333333333s43.242666666666665 -21.39946666666667 55.59786666666666 0c2.8170666666666664 4.8789333333333325 4.3008 10.414933333333334 4.3008 16.049066666666665 0 17.727999999999998 -14.371199999999998 32.10026666666666 -32.099199999999996 32.10026666666666Z" fill="#ffffff" stroke-width="10.6667"></path>
    <path d="M16.878933333333332 154.4672c-5.9093333333333335 -0.0010666666666666667 -10.699733333333334 4.7904 -10.699733333333334 10.699733333333334v77.57333333333332c0.025599999999999998 8.236799999999999 8.958933333333333 13.3568 16.07893333333333 9.216 3.2832 -1.9104 5.3088 -5.4176 5.320533333333334 -9.216v-77.57333333333332c0 -5.9093333333333335 -4.7904 -10.699733333333334 -10.699733333333334 -10.699733333333334Z" fill="#ffffff" stroke-width="10.6667"></path>
    <path d="M172.02666666666667 205.29066666666665H74.44373333333333c-5.147733333333333 0.6527999999999999 -9.072 -4.512 -7.063466666666667 -9.296 1.1722666666666666 -2.7914666666666665 4.0607999999999995 -4.459733333333333 7.063466666666667 -4.0789333333333335h26.9632c7.658666666666666 -0.005333333333333333 12.830933333333334 -7.820799999999999 9.844266666666666 -14.872533333333333 -3.7482666666666664 -8.8448 -12.435199999999998 -14.580266666666667 -22.041599999999995 -14.551466666666666H43.6288c-2.9546666666666668 0 -5.3504000000000005 2.3946666666666667 -5.3504000000000005 5.349333333333332v69.5488c0 2.9546666666666668 2.3957333333333333 5.3504000000000005 5.3504000000000005 5.3504000000000005h115.1296c13.237333333333334 0 23.967999999999996 -10.730666666666666 23.967999999999996 -23.967999999999996v-2.7818666666666663c0 -5.9093333333333335 -4.7914666666666665 -10.699733333333334 -10.700800000000001 -10.699733333333334Z" fill="#ffffff" stroke-width="10.6667"></path>
  </g>
</svg>