<svg xmlns="http://www.w3.org/2000/svg" id="Cog--Streamline-Ultimate" width="256" height="256" viewBox="0 0 256 256"><desc>Cog Streamline Icon: https://streamlinehq.com</desc><path fill="#fff" stroke-width="10.667" d="M240 101.33333333333333h-19.84a101.44 101.44 0 0 0 -8.106666666666666 -19.626666666666665l13.973333333333333 -14.08a15.573333333333332 15.573333333333332 0 0 0 4.693333333333333 -11.306666666666667 15.68 15.68 0 0 0 -4.693333333333333 -11.306666666666667l-15.04 -15.04a15.893333333333333 15.893333333333333 0 0 0 -22.613333333333333 0l-14.08 14.08a96 96 0 0 0 -19.626666666666665 -8.213333333333333V16A16 16 0 0 0 138.66666666666666 0h-21.333333333333332a16 16 0 0 0 -16 16v19.84a96 96 0 0 0 -19.626666666666665 8.213333333333333L67.62666666666667 29.973333333333333a15.893333333333333 15.893333333333333 0 0 0 -22.613333333333333 0L29.973333333333333 45.01333333333333a15.68 15.68 0 0 0 -4.693333333333333 11.306666666666667 15.36 15.36 0 0 0 4.693333333333333 11.306666666666667l13.973333333333333 14.08a101.44 101.44 0 0 0 -8.106666666666666 19.626666666666665H16A16 16 0 0 0 0 117.33333333333333v21.333333333333332a16 16 0 0 0 16 16h19.84a98.77333333333333 98.77333333333333 0 0 0 8.106666666666666 19.626666666666665l-13.973333333333333 14.08a16 16 0 0 0 0 22.613333333333333l15.04 15.04a16.32 16.32 0 0 0 22.613333333333333 0l14.08 -13.973333333333333a98.77333333333333 98.77333333333333 0 0 0 19.626666666666665 8.106666666666666v19.84A16 16 0 0 0 117.33333333333333 256h21.333333333333332a16 16 0 0 0 16 -16v-19.84a98.77333333333333 98.77333333333333 0 0 0 19.626666666666665 -8.106666666666666l14.08 13.973333333333333a15.893333333333333 15.893333333333333 0 0 0 22.613333333333333 0l15.04 -15.04a16 16 0 0 0 0 -22.613333333333333l-13.973333333333333 -14.08a98.77333333333333 98.77333333333333 0 0 0 8.106666666666666 -19.626666666666665h19.84A16 16 0 0 0 256 138.66666666666666v-21.333333333333332a16 16 0 0 0 -16 -16ZM128 181.33333333333331a53.33333333333333 53.33333333333333 0 1 1 53.33333333333333 -53.33333333333333 53.33333333333333 53.33333333333333 0 0 1 -53.33333333333333 53.33333333333333Z"/></svg>