<svg xmlns="http://www.w3.org/2000/svg" viewBox="0 0 256 256" id="Coin-Purse-1--Streamline-Ultimate" height="256" width="256">
  <desc>
    Coin Purse 1 Streamline Icon: https://streamlinehq.com
  </desc>
  <g id="Coin-Purse-1--Streamline-Ultimate.svg">
    <path d="M207.25333333333333 119.46666666666665a5.333333333333333 5.333333333333333 0 0 1 -4.586666666666666 -5.226666666666667V102.72a16 16 0 0 0 -16 -16h-117.33333333333333A16 16 0 0 0 53.33333333333333 102.72v11.52a5.333333333333333 5.333333333333333 0 0 1 -4.586666666666666 5.226666666666667c-28.906666666666666 4.693333333333333 -48.959999999999994 30.826666666666668 -48.74666666666667 64a64.74666666666667 64.74666666666667 0 0 0 65.17333333333333 64h125.65333333333332a64.74666666666667 64.74666666666667 0 0 0 65.17333333333333 -64c0 -33.17333333333333 -19.84 -59.30666666666666 -48.74666666666667 -64Z" fill="#ffffff" stroke-width="10.6667"></path>
    <path d="M32 92.05333333333334a13.333333333333332 13.333333333333332 0 0 0 13.333333333333332 -13.333333333333332v-5.333333333333333a3.3066666666666666 3.3066666666666666 0 0 1 3.626666666666667 -2.6666666666666665h158.07999999999998a3.3066666666666666 3.3066666666666666 0 0 1 3.626666666666667 2.6666666666666665v5.333333333333333a13.333333333333332 13.333333333333332 0 1 0 26.666666666666664 0v-5.333333333333333a29.759999999999998 29.759999999999998 0 0 0 -30.29333333333333 -29.333333333333332H170.66666666666666a2.6666666666666665 2.6666666666666665 0 0 1 -2.3466666666666667 -3.9466666666666663 21.333333333333332 21.333333333333332 0 0 0 2.3466666666666667 -9.386666666666667 21.333333333333332 21.333333333333332 0 0 0 -40.42666666666666 -10.666666666666666A2.5599999999999996 2.5599999999999996 0 0 1 128 21.333333333333332a2.88 2.88 0 0 1 -2.3466666666666667 -1.2799999999999998 21.333333333333332 21.333333333333332 0 0 0 -18.986666666666665 -10.666666666666666 21.333333333333332 21.333333333333332 0 0 0 -21.333333333333332 21.333333333333332 21.333333333333332 21.333333333333332 0 0 0 2.2399999999999998 9.386666666666667 2.6666666666666665 2.6666666666666665 0 0 1 -2.2399999999999998 3.9466666666666663H48.959999999999994a29.759999999999998 29.759999999999998 0 0 0 -30.29333333333333 29.333333333333332v5.333333333333333A13.333333333333332 13.333333333333332 0 0 0 32 92.05333333333334Z" fill="#ffffff" stroke-width="10.6667"></path>
  </g>
</svg>