<svg xmlns="http://www.w3.org/2000/svg" viewBox="0 0 256 256" id="Color-Palette--Streamline-Ultimate" height="256" width="256">
  <desc>
    Color Palette Streamline Icon: https://streamlinehq.com
  </desc>
  <path d="M219.62666666666667 92.90666666666667a2.6666666666666665 2.6666666666666665 0 0 1 -0.96 -2.0266666666666664 90.66666666666666 90.66666666666666 0 0 0 -181.33333333333331 0 2.986666666666667 2.986666666666667 0 0 1 -1.0666666666666667 2.2399999999999998A90.56 90.56 0 0 0 90.66666666666666 256a89.49333333333334 89.49333333333334 0 0 0 36.266666666666666 -7.68 2.453333333333333 2.453333333333333 0 0 1 2.1333333333333333 0 89.49333333333334 89.49333333333334 0 0 0 36.266666666666666 7.68 90.56 90.56 0 0 0 54.29333333333333 -163.0933333333333Zm-90.13333333333333 129.81333333333333a2.986666666666667 2.986666666666667 0 0 1 -2.986666666666667 0 69.33333333333333 69.33333333333333 0 0 1 -28.8 -42.666666666666664 2.5599999999999996 2.5599999999999996 0 0 1 0.8533333333333333 -2.5599999999999996 2.453333333333333 2.453333333333333 0 0 1 2.5599999999999996 -0.5333333333333333 88.96 88.96 0 0 0 53.33333333333333 0 2.453333333333333 2.453333333333333 0 0 1 2.5599999999999996 0.5333333333333333 2.5599999999999996 2.5599999999999996 0 0 1 0.8533333333333333 2.5599999999999996 69.33333333333333 69.33333333333333 0 0 1 -28.373333333333335 42.666666666666664Zm28.906666666666666 -72.10666666666665a2.7733333333333334 2.7733333333333334 0 0 1 -1.4933333333333334 2.986666666666667 68.47999999999999 68.47999999999999 0 0 1 -57.81333333333333 0 2.7733333333333334 2.7733333333333334 0 0 1 -1.4933333333333334 -2.986666666666667 69.86666666666666 69.86666666666666 0 0 1 28.906666666666666 -42.666666666666664 2.986666666666667 2.986666666666667 0 0 1 2.986666666666667 0 69.86666666666666 69.86666666666666 0 0 1 28.906666666666666 42.666666666666664ZM80 134.93333333333334a2.986666666666667 2.986666666666667 0 0 1 -2.0266666666666664 1.7066666666666666 2.5599999999999996 2.5599999999999996 0 0 1 -2.5599999999999996 -0.8533333333333333 69.33333333333333 69.33333333333333 0 0 1 -15.146666666666665 -30.4 2.7733333333333334 2.7733333333333334 0 0 1 1.4933333333333334 -2.986666666666667A69.01333333333332 69.01333333333332 0 0 1 90.66666666666666 96a65.6 65.6 0 0 1 9.28 0.6399999999999999 2.6666666666666665 2.6666666666666665 0 0 1 2.1333333333333333 1.8133333333333335 2.453333333333333 2.453333333333333 0 0 1 -0.6399999999999999 2.6666666666666665 91.41333333333333 91.41333333333333 0 0 0 -21.439999999999998 33.81333333333333Zm74.66666666666666 -33.81333333333333a2.453333333333333 2.453333333333333 0 0 1 -0.6399999999999999 -2.6666666666666665 2.6666666666666665 2.6666666666666665 0 0 1 2.1333333333333333 -1.8133333333333335A65.6 65.6 0 0 1 165.33333333333331 96a69.01333333333332 69.01333333333332 0 0 1 28.906666666666666 6.3999999999999995 2.7733333333333334 2.7733333333333334 0 0 1 1.4933333333333334 2.986666666666667 69.33333333333333 69.33333333333333 0 0 1 -15.146666666666665 30.4 2.5599999999999996 2.5599999999999996 0 0 1 -2.5599999999999996 0.8533333333333333 2.986666666666667 2.986666666666667 0 0 1 -2.0266666666666664 -1.7066666666666666 91.41333333333333 91.41333333333333 0 0 0 -21.439999999999998 -33.81333333333333ZM128 21.333333333333332a69.44 69.44 0 0 1 67.62666666666667 54.39999999999999 2.5599999999999996 2.5599999999999996 0 0 1 -0.8533333333333333 2.5599999999999996 2.453333333333333 2.453333333333333 0 0 1 -2.5599999999999996 0 89.27999999999999 89.27999999999999 0 0 0 -63.14666666666666 3.52 2.453333333333333 2.453333333333333 0 0 1 -2.1333333333333333 0A89.27999999999999 89.27999999999999 0 0 0 64 78.82666666666665a2.453333333333333 2.453333333333333 0 0 1 -2.5599999999999996 0 2.5599999999999996 2.5599999999999996 0 0 1 -0.8533333333333333 -2.5599999999999996A69.44 69.44 0 0 1 128 21.333333333333332ZM90.66666666666666 234.66666666666666a69.33333333333333 69.33333333333333 0 0 1 -52.58666666666666 -114.45333333333333 2.5599999999999996 2.5599999999999996 0 0 1 2.5599999999999996 -0.8533333333333333 2.986666666666667 2.986666666666667 0 0 1 2.0266666666666664 1.7066666666666666 90.13333333333333 90.13333333333333 0 0 0 30.93333333333333 41.92 2.986666666666667 2.986666666666667 0 0 1 1.0666666666666667 2.2399999999999998 90.24000000000001 90.24000000000001 0 0 0 26.77333333333333 64 2.453333333333333 2.453333333333333 0 0 1 0.6399999999999999 2.6666666666666665 2.6666666666666665 2.6666666666666665 0 0 1 -2.1333333333333333 1.8133333333333335 65.6 65.6 0 0 1 -9.28 0.96Zm74.66666666666666 0a65.6 65.6 0 0 1 -9.28 -0.6399999999999999 2.6666666666666665 2.6666666666666665 0 0 1 -2.1333333333333333 -1.8133333333333335 2.453333333333333 2.453333333333333 0 0 1 0.6399999999999999 -2.6666666666666665 90.24000000000001 90.24000000000001 0 0 0 26.77333333333333 -64 2.986666666666667 2.986666666666667 0 0 1 1.0666666666666667 -2.2399999999999998 90.13333333333333 90.13333333333333 0 0 0 30.93333333333333 -42.239999999999995 2.986666666666667 2.986666666666667 0 0 1 2.0266666666666664 -1.7066666666666666 2.5599999999999996 2.5599999999999996 0 0 1 2.5599999999999996 0.8533333333333333A69.33333333333333 69.33333333333333 0 0 1 165.33333333333331 234.66666666666666Z" fill="#ffffff" stroke-width="10.6667"></path>
</svg>