<svg xmlns="http://www.w3.org/2000/svg" viewBox="0 0 256 256" id="Color-Picker-2--Streamline-Ultimate" height="256" width="256">
  <desc>
    Color Picker 2 Streamline Icon: https://streamlinehq.com
  </desc>
  <path d="M242.98666666666668 13.013333333333332a50.879999999999995 50.879999999999995 0 0 0 -71.67999999999999 3.733333333333333l-21.333333333333332 21.333333333333332a2.88 2.88 0 0 1 -3.84 0L140.69333333333333 32a10.666666666666666 10.666666666666666 0 0 0 -15.04 15.04l5.653333333333333 5.653333333333333a2.6666666666666665 2.6666666666666665 0 0 1 0 3.84l-96 96a53.33333333333333 53.33333333333333 0 0 0 -19.093333333333334 41.70666666666666l-10.666666666666666 10.666666666666666a15.893333333333333 15.893333333333333 0 0 0 0 22.613333333333333l22.613333333333333 22.613333333333333a15.893333333333333 15.893333333333333 0 0 0 22.613333333333333 0l10.666666666666666 -10.666666666666666a53.33333333333333 53.33333333333333 0 0 0 41.70666666666666 -19.093333333333334l96 -96a2.6666666666666665 2.6666666666666665 0 0 1 3.84 0l5.653333333333333 5.653333333333333A10.666666666666666 10.666666666666666 0 1 0 224 115.30666666666667l-5.653333333333333 -5.653333333333333a2.6666666666666665 2.6666666666666665 0 0 1 0 -3.84l21.333333333333332 -21.333333333333332a50.879999999999995 50.879999999999995 0 0 0 3.3066666666666666 -71.46666666666667ZM87.68 206.07999999999998c-10.666666666666666 10.133333333333333 -20.05333333333333 14.719999999999999 -26.986666666666665 12.479999999999999a10.666666666666666 10.666666666666666 0 0 0 -10.666666666666666 2.5599999999999996l-9.386666666666667 9.493333333333332a2.6666666666666665 2.6666666666666665 0 0 1 -3.84 0l-11.413333333333334 -11.306666666666667a2.88 2.88 0 0 1 0 -3.84l9.493333333333332 -9.386666666666667a10.666666666666666 10.666666666666666 0 0 0 2.5599999999999996 -10.666666666666666c-2.1333333333333333 -7.04 2.3466666666666667 -16.85333333333333 12.479999999999999 -26.986666666666665l16.64 -16.53333333333333a2.5599999999999996 2.5599999999999996 0 0 1 3.733333333333333 0l14.293333333333333 14.293333333333333a8 8 0 0 0 11.306666666666667 0 7.893333333333333 7.893333333333333 0 0 0 0 -11.306666666666667l-14.293333333333333 -14.4a2.6666666666666665 2.6666666666666665 0 0 1 0 -3.84l6.293333333333333 -6.186666666666666a2.5599999999999996 2.5599999999999996 0 0 1 3.733333333333333 0l14.293333333333333 14.293333333333333a8 8 0 0 0 11.306666666666667 0 7.893333333333333 7.893333333333333 0 0 0 0 -11.306666666666667l-14.293333333333333 -14.293333333333333a2.6666666666666665 2.6666666666666665 0 0 1 0 -3.84l6.293333333333333 -6.186666666666666a2.5599999999999996 2.5599999999999996 0 0 1 3.733333333333333 0l14.293333333333333 14.293333333333333a8 8 0 0 0 11.306666666666667 0 7.893333333333333 7.893333333333333 0 0 0 0 -11.306666666666667l-14.293333333333333 -14.293333333333333a2.6666666666666665 2.6666666666666665 0 0 1 0 -3.84l22.08 -22.08a2.6666666666666665 2.6666666666666665 0 0 1 3.84 0l33.92 33.92a2.6666666666666665 2.6666666666666665 0 0 1 0 3.84Z" fill="#ffffff" stroke-width="10.6667"></path>
</svg>