<svg xmlns="http://www.w3.org/2000/svg" id="Color-Palette-2--Streamline-Ultimate" width="256" height="256" viewBox="0 0 256 256"><desc>Color Palette 2 Streamline Icon: https://streamlinehq.com</desc><path fill="#fff" stroke-width="10.667" d="M128 0a128 128 0 1 0 128 128A128 128 0 0 0 128 0Zm106.66666666666666 128a104.42666666666665 104.42666666666665 0 0 1 -3.733333333333333 27.839999999999996 2.453333333333333 2.453333333333333 0 0 1 -1.3866666666666667 1.7066666666666666 2.986666666666667 2.986666666666667 0 0 1 -2.1333333333333333 0l-60.48 -25.066666666666666a2.5599999999999996 2.5599999999999996 0 0 1 -1.5999999999999999 -2.5599999999999996v-4.053333333333333a2.5599999999999996 2.5599999999999996 0 0 1 1.5999999999999999 -2.5599999999999996l60.48 -25.066666666666666a2.986666666666667 2.986666666666667 0 0 1 2.1333333333333333 0 2.453333333333333 2.453333333333333 0 0 1 1.3866666666666667 1.7066666666666666A104.42666666666665 104.42666666666665 0 0 1 234.66666666666666 128ZM21.333333333333332 128a104.42666666666665 104.42666666666665 0 0 1 3.733333333333333 -27.839999999999996 2.453333333333333 2.453333333333333 0 0 1 1.3866666666666667 -1.7066666666666666 2.986666666666667 2.986666666666667 0 0 1 2.1333333333333333 0l60.48 25.066666666666666a2.5599999999999996 2.5599999999999996 0 0 1 1.5999999999999999 2.5599999999999996v4.053333333333333a2.5599999999999996 2.5599999999999996 0 0 1 -1.5999999999999999 2.5599999999999996l-60.48 24.959999999999997a2.986666666666667 2.986666666666667 0 0 1 -2.1333333333333333 0 2.453333333333333 2.453333333333333 0 0 1 -1.3866666666666667 -1.7066666666666666A104.42666666666665 104.42666666666665 0 0 1 21.333333333333332 128Zm199.14666666666668 -53.33333333333333a2.6666666666666665 2.6666666666666665 0 0 1 -1.2799999999999998 3.84l-60.48 25.173333333333332a2.5599999999999996 2.5599999999999996 0 0 1 -2.986666666666667 -0.6399999999999999l-2.7733333333333334 -2.7733333333333334a2.5599999999999996 2.5599999999999996 0 0 1 -0.6399999999999999 -2.986666666666667l24.959999999999997 -60.48a3.093333333333333 3.093333333333333 0 0 1 1.5999999999999999 -1.4933333333333334 3.1999999999999997 3.1999999999999997 0 0 1 2.2399999999999998 0A106.66666666666666 106.66666666666666 0 0 1 220.48000000000002 74.66666666666666Zm-64.63999999999999 -49.6a2.453333333333333 2.453333333333333 0 0 1 1.7066666666666666 1.3866666666666667 2.986666666666667 2.986666666666667 0 0 1 0 2.1333333333333333l-25.066666666666666 60.693333333333335a2.3466666666666667 2.3466666666666667 0 0 1 -2.2399999999999998 1.4933333333333334h-4.266666666666667a2.5599999999999996 2.5599999999999996 0 0 1 -2.5599999999999996 -1.5999999999999999L98.34666666666666 28.586666666666666a2.986666666666667 2.986666666666667 0 0 1 0 -2.1333333333333333 2.453333333333333 2.453333333333333 0 0 1 1.7066666666666666 -1.3866666666666667 105.70666666666666 105.70666666666666 0 0 1 55.67999999999999 0ZM74.66666666666666 35.519999999999996a3.1999999999999997 3.1999999999999997 0 0 1 2.2399999999999998 0 3.093333333333333 3.093333333333333 0 0 1 1.5999999999999999 1.4933333333333334l25.173333333333332 60.266666666666666a2.5599999999999996 2.5599999999999996 0 0 1 -0.6399999999999999 2.986666666666667l-2.7733333333333334 2.7733333333333334a2.5599999999999996 2.5599999999999996 0 0 1 -2.986666666666667 0.6399999999999999L36.8 78.72A2.6666666666666665 2.6666666666666665 0 0 1 35.519999999999996 74.66666666666666 106.66666666666666 106.66666666666666 0 0 1 74.66666666666666 35.519999999999996ZM35.519999999999996 181.33333333333331a2.6666666666666665 2.6666666666666665 0 0 1 1.2799999999999998 -3.84l61.54666666666666 -25.493333333333332a1.1733333333333333 1.1733333333333333 0 0 1 1.1733333333333333 0 37.44 37.44 0 0 0 3.52 3.626666666666667 2.5599999999999996 2.5599999999999996 0 0 1 0.6399999999999999 2.986666666666667l-24.959999999999997 60.58666666666666a3.093333333333333 3.093333333333333 0 0 1 -1.5999999999999999 1.4933333333333334 3.1999999999999997 3.1999999999999997 0 0 1 -2.2399999999999998 0A106.66666666666666 106.66666666666666 0 0 1 35.519999999999996 181.33333333333331Zm64.63999999999999 49.81333333333333a2.453333333333333 2.453333333333333 0 0 1 -1.7066666666666666 -1.3866666666666667 2.986666666666667 2.986666666666667 0 0 1 0 -2.1333333333333333l25.066666666666666 -60.48a2.5599999999999996 2.5599999999999996 0 0 1 2.5599999999999996 -1.5999999999999999h4.266666666666667a2.3466666666666667 2.3466666666666667 0 0 1 2.2399999999999998 1.4933333333333334l25.173333333333332 60.693333333333335a2.986666666666667 2.986666666666667 0 0 1 0 2.1333333333333333 2.453333333333333 2.453333333333333 0 0 1 -1.7066666666666666 1.3866666666666667 105.70666666666666 105.70666666666666 0 0 1 -55.67999999999999 0Zm80.96 -10.666666666666666a3.1999999999999997 3.1999999999999997 0 0 1 -2.2399999999999998 0 3.093333333333333 3.093333333333333 0 0 1 -1.5999999999999999 -1.4933333333333334l-24.959999999999997 -60.48a2.5599999999999996 2.5599999999999996 0 0 1 0.6399999999999999 -2.986666666666667l2.7733333333333334 -2.7733333333333334a2.5599999999999996 2.5599999999999996 0 0 1 2.986666666666667 -0.6399999999999999l60.48 24.959999999999997a2.6666666666666665 2.6666666666666665 0 0 1 1.2799999999999998 3.84A106.66666666666666 106.66666666666666 0 0 1 181.33333333333331 220.48000000000002Z"/></svg>