<svg xmlns="http://www.w3.org/2000/svg" viewBox="0 0 256 256" id="Color-Blind--Streamline-Ultimate" height="256" width="256">
  <desc>
    Color Blind Streamline Icon: https://streamlinehq.com
  </desc>
  <g id="Color-Blind--Streamline-Ultimate.svg">
    <path d="m208.95999999999998 62.08 43.519999999999996 -43.519999999999996A10.666666666666666 10.666666666666666 0 1 0 237.33333333333331 3.413333333333333l-10.666666666666666 10.666666666666666L4.693333333333333 236.0533333333333l-1.3866666666666667 1.3866666666666667a10.666666666666666 10.666666666666666 0 0 0 0 15.146666666666665A10.666666666666666 10.666666666666666 0 0 0 10.666666666666666 256a10.666666666666666 10.666666666666666 0 0 0 7.573333333333332 -3.093333333333333l56.74666666666667 -56.74666666666667a108.90666666666667 108.90666666666667 0 0 0 52.16 14.933333333333332h1.7066666666666666c46.08 1.0666666666666667 92.05333333333334 -37.22666666666667 119.78666666666666 -73.38666666666666a29.333333333333332 29.333333333333332 0 0 0 0 -34.56 236.37333333333333 236.37333333333333 0 0 0 -39.68 -41.06666666666666Zm-41.28 41.17333333333333a40.85333333333333 40.85333333333333 0 0 1 4.16 17.813333333333333 41.81333333333333 41.81333333333333 0 0 1 -41.81333333333333 41.70666666666666 42.666666666666664 42.666666666666664 0 0 1 -17.813333333333333 -4.053333333333333Z" fill="#ffffff" stroke-width="10.6667"></path>
    <path d="M38.61333333333333 169.17333333333332c1.8133333333333335 1.7066666666666666 3.9466666666666663 3.52 5.973333333333334 5.226666666666667L177.38666666666666 41.599999999999994a105.49333333333334 105.49333333333334 0 0 0 -48.10666666666666 -12.053333333333331C83.19999999999999 28.586666666666666 37.12 66.77333333333333 9.493333333333332 102.82666666666667a29.119999999999997 29.119999999999997 0 0 0 0 34.56 235.62666666666667 235.62666666666667 0 0 0 29.119999999999997 31.786666666666665Zm73.17333333333333 -106.66666666666666a10.666666666666666 10.666666666666666 0 1 1 -10.666666666666666 10.666666666666666 10.666666666666666 10.666666666666666 0 0 1 10.666666666666666 -10.773333333333333Zm-35.093333333333334 32a10.666666666666666 10.666666666666666 0 1 1 -10.666666666666666 10.666666666666666 10.666666666666666 10.666666666666666 0 0 1 10.666666666666666 -10.666666666666666Z" fill="#ffffff" stroke-width="10.6667"></path>
  </g>
</svg>