<svg xmlns="http://www.w3.org/2000/svg" id="Color-Bucket-Brush--Streamline-Ultimate" width="256" height="256" viewBox="0 0 256 256"><desc>Color Bucket Brush Streamline Icon: https://streamlinehq.com</desc><g id="Color-Bucket-Brush--Streamline-Ultimate.svg"><path fill="#fff" stroke-width="10.667" d="M118.61333333333332 99.62666666666667a10.666666666666666 10.666666666666666 0 0 0 13.12 -7.1466666666666665l14.08 -47.36a16.106666666666666 16.106666666666666 0 0 0 -1.2799999999999998 -12.159999999999998 15.68 15.68 0 0 0 -9.493333333333332 -7.786666666666666L52.693333333333335 0.6399999999999999a16.106666666666666 16.106666666666666 0 0 0 -19.946666666666665 10.666666666666666L18.346666666666664 59.519999999999996a10.666666666666666 10.666666666666666 0 0 0 0.96 8.106666666666666 10.026666666666666 10.026666666666666 0 0 0 6.293333333333333 5.119999999999999Z"/><path fill="#fff" stroke-width="10.667" d="M183.89333333333332 101.33333333333333a148.37333333333333 148.37333333333333 0 0 0 -42.666666666666664 5.76c-16.426666666666666 5.546666666666667 -26.133333333333333 14.186666666666667 -26.133333333333333 21.333333333333332v96c0 14.719999999999999 31.04 26.666666666666664 69.33333333333333 26.666666666666664s69.33333333333333 -11.946666666666667 69.33333333333333 -26.666666666666664V128c-0.5333333333333333 -14.719999999999999 -31.57333333333333 -26.666666666666664 -69.86666666666666 -26.666666666666664ZM234.66666666666666 191.36a15.893333333333333 15.893333333333333 0 0 1 -15.68 16.64A16.64 16.64 0 0 1 202.66666666666666 191.36a10.666666666666666 10.666666666666666 0 1 0 -22.186666666666667 0 10.666666666666666 10.666666666666666 0 0 1 -22.186666666666667 0V155.73333333333332a6.079999999999999 6.079999999999999 0 0 0 -4.373333333333333 -5.866666666666667c-14.4 -3.84 -21.973333333333333 -10.026666666666666 -21.973333333333333 -13.226666666666667 0 -4.8 17.493333333333332 -16.53333333333333 49.919999999999995 -16.53333333333333 27.733333333333334 0 53.33333333333333 8.959999999999999 53.33333333333333 25.066666666666666Z"/><path fill="#fff" stroke-width="10.667" d="M97.27999999999999 110.18666666666667 10.666666666666666 85.33333333333333l-2.3466666666666667 8a59.093333333333334 59.093333333333334 0 0 0 15.893333333333333 59.519999999999996L3.84 221.54666666666665a26.77333333333333 26.77333333333333 0 0 0 18.133333333333333 33.28 22.93333333333333 22.93333333333333 0 0 0 7.573333333333332 1.1733333333333333 26.560000000000002 26.560000000000002 0 0 0 25.706666666666667 -19.2l20.479999999999997 -68.8a60.266666666666666 60.266666666666666 0 0 0 23.786666666666665 -10.666666666666666 10.666666666666666 10.666666666666666 0 0 0 4.373333333333333 -8v-21.333333333333332a15.68 15.68 0 0 1 0.7466666666666667 -4.906666666666666 10.666666666666666 10.666666666666666 0 0 0 -7.359999999999999 -12.906666666666666ZM29.439999999999998 235.94666666666666a8 8 0 0 1 0 -16 8 8 0 1 1 0 16Z"/></g></svg>