<svg xmlns="http://www.w3.org/2000/svg" fill="none" viewBox="0 0 256 256" id="Command-Button-Keyboard--Streamline-Ultimate" height="256" width="256">
  <desc>
    Command Button Keyboard Streamline Icon: https://streamlinehq.com
  </desc>
  <path fill="#ffffff" fill-rule="evenodd" d="M0 42.13408C0 18.51616 18.51456 0 42.13312 0H213.86666666666667C237.64586666666665 0 256 19.74581333333333 256 42.13408V213.86666666666667c0 23.6192 -18.5152 42.13333333333333 -42.13333333333333 42.13333333333333H42.13312C18.514986666666665 256 0 237.48586666666665 0 213.86666666666667V42.13408Zm60.62634666666666 34.35136c0 -9.177493333333333 7.74784 -16.925546666666666 16.92448 -16.925546666666666 9.176746666666666 0 16.924799999999998 7.748266666666667 16.924799999999998 16.925546666666666v16.92416h-16.924799999999998c-9.177173333333332 0 -16.92448 -7.747306666666667 -16.92448 -16.92416Zm49.84938666666666 0v16.92416h36.1152V76.48544c0 -18.01312 14.910933333333332 -32.92554666666666 32.9248 -32.92554666666666s32.9248 14.912213333333334 32.9248 32.92554666666666c0 18.013866666666665 -14.911999999999999 32.92469333333333 -32.9248 32.92469333333333h-16.924799999999998v36.11413333333333h16.924799999999998c18.013866666666665 0 32.9248 14.913066666666666 32.9248 32.925866666666664 0 18.013866666666665 -14.911999999999999 32.92373333333333 -32.9248 32.92373333333333 -18.013866666666665 0 -32.9248 -14.909866666666666 -32.9248 -32.92373333333333v-16.925866666666664h-36.1152v16.925866666666664c0 18.013866666666665 -14.911573333333333 32.92373333333333 -32.924906666666665 32.92373333333333 -18.01344 0 -32.924479999999996 -14.909866666666666 -32.924479999999996 -32.92373333333333 0 -18.0128 14.910506666666667 -32.925866666666664 32.924479999999996 -32.925866666666664h16.924799999999998v-36.11413333333333h-16.924799999999998c-18.01344 0 -32.924479999999996 -14.910933333333332 -32.924479999999996 -32.92469333333333 0 -18.01312 14.910506666666667 -32.92554666666666 32.924479999999996 -32.92554666666666 18.013866666666665 0 32.924906666666665 14.912213333333334 32.924906666666665 32.92554666666666Zm0 69.03882666666667v-36.11413333333333h36.1152v36.11413333333333h-36.1152Zm69.03999999999999 -52.114666666666665h-16.924799999999998V76.48544c0 -9.177493333333333 7.748266666666667 -16.925546666666666 16.924799999999998 -16.925546666666666s16.924799999999998 7.748266666666667 16.924799999999998 16.925546666666666c0 9.176746666666666 -7.747199999999999 16.92416 -16.924799999999998 16.92416Zm-16.924799999999998 85.04053333333333v-16.925866666666664h16.924799999999998c9.176533333333332 0 16.924799999999998 7.748266666666667 16.924799999999998 16.925866666666664 0 9.176533333333332 -7.747199999999999 16.92373333333333 -16.924799999999998 16.92373333333333s-16.924799999999998 -7.747199999999999 -16.924799999999998 -16.92373333333333Zm-85.04010666666666 -16.925866666666664h16.924799999999998v16.925866666666664c0 9.176533333333332 -7.74752 16.92373333333333 -16.924799999999998 16.92373333333333 -9.177173333333332 0 -16.92448 -7.747199999999999 -16.92448 -16.92373333333333 0 -9.1776 7.74784 -16.925866666666664 16.92448 -16.925866666666664Z" clip-rule="evenodd" stroke-width="10.6667"></path>
</svg>