<svg xmlns="http://www.w3.org/2000/svg" viewBox="0 0 256 256" id="Common-File-Text-Clock--Streamline-Ultimate" height="256" width="256">
  <desc>
    Common File Text Clock Streamline Icon: https://streamlinehq.com
  </desc>
  <g id="Common-File-Text-Clock--Streamline-Ultimate.svg">
    <path d="M212.04053333333331 80.18346666666666c0 -5.7152 -4.6335999999999995 -10.348799999999999 -10.349866666666667 -10.349866666666667h-72.44906666666665c-7.966933333333333 -0.025599999999999998 -12.973866666666666 8.583466666666666 -9.012266666666665 15.496533333333334 1.8496 3.2288 5.290666666666667 5.214933333333333 9.012266666666665 5.2032h72.44906666666665c5.716266666666667 0 10.349866666666667 -4.6335999999999995 10.349866666666667 -10.349866666666667Z" fill="#ffffff" stroke-width="10.6667"></path>
    <path d="M247.43679999999998 33.6096 222.3904 8.563199999999998C218.50986666666665 4.7136 213.26293333333334 2.5557333333333334 207.79733333333334 2.5599999999999996H87.84213333333334c-11.431466666666667 0 -20.699733333333334 9.267199999999999 -20.699733333333334 20.699733333333334v75.24373333333332c0 1.4282666666666666 1.1594666666666666 2.5866666666666664 2.5877333333333334 2.5866666666666664 3.7258666666666667 0 10.349866666666667 0 15.318399999999999 0.8277333333333333 1.5328 0.19519999999999998 2.8704 -1.0432 2.7936 -2.5866666666666664V28.434133333333335c0 -2.8576 2.3167999999999997 -5.1743999999999994 5.175466666666667 -5.1743999999999994h112.60586666666667c1.3823999999999999 -0.013866666666666666 2.7167999999999997 0.5055999999999999 3.7258666666666667 1.4485333333333332l22.14933333333333 21.9424c0.9429333333333334 1.0090666666666666 1.4624 2.3434666666666666 1.4485333333333332 3.7258666666666667v138.48106666666666c0 2.8576 -2.3167999999999997 5.1743999999999994 -5.1743999999999994 5.1743999999999994h-71.104c-1.2768 -0.05973333333333333 -2.3743999999999996 0.8992 -2.4842666666666666 2.1738666666666666 -0.8117333333333333 4.973866666666666 -2.094933333333333 9.860266666666666 -3.829333333333333 14.593066666666667 -0.6485333333333333 1.6821333333333333 0.5781333333333333 3.4954666666666663 2.3808 3.5189333333333335h80.00426666666667c11.432533333333334 0 20.699733333333334 -9.267199999999999 20.699733333333334 -20.699733333333334V48.202666666666666c0.004266666666666667 -5.465599999999999 -2.1536 -10.712533333333333 -6.0032 -14.593066666666667Z" fill="#ffffff" stroke-width="10.6667"></path>
    <path d="M134.41706666666664 116.40853333333332c-2.3957333333333333 0.047999999999999994 -4.699733333333333 0.9258666666666666 -6.520533333333333 2.4832 -0.9866666666666666 1.0069333333333332 -0.9866666666666666 2.616533333333333 0 3.6224 4.4512 4.033066666666667 8.442666666666666 8.545066666666667 11.901866666666665 13.454933333333333 0.45439999999999997 0.7050666666666667 1.232 1.1328 2.0704 1.1392h33.74079999999999c7.966933333333333 -0.025599999999999998 12.9184 -8.666666666666666 8.913066666666666 -15.554133333333333 -1.8474666666666666 -3.175466666666667 -5.239466666666667 -5.133866666666666 -8.913066666666666 -5.1456Z" fill="#ffffff" stroke-width="10.6667"></path>
    <path d="M72.31786666666666 113.71733333333333c-53.7792 0.07999999999999999 -87.3056 58.34773333333334 -60.346666666666664 104.88213333333334 26.958933333333334 46.53439999999999 94.18346666666667 46.434133333333335 121.00373333333332 -0.18026666666666663 6.081066666666667 -10.568533333333333 9.2896 -22.544 9.307733333333333 -34.737066666666664 0.0576 -38.66453333333333 -31.300266666666666 -70.0224 -69.9648 -69.9648Zm0 119.02293333333333c-37.84426666666666 -0.07999999999999999 -61.411199999999994 -41.0976 -42.4192 -73.83253333333333 18.99093333333333 -32.733866666666664 66.29653333333333 -32.63466666666666 85.14986666666667 0.18026666666666663 4.298666666666667 7.482666666666667 6.552533333333333 15.964799999999999 6.5344 24.594133333333332 -0.05653333333333333 27.15093333333333 -22.11413333333333 49.115733333333324 -49.26506666666666 49.05813333333333Z" fill="#ffffff" stroke-width="10.6667"></path>
    <path d="M93.01759999999999 173.33226666666667h-8.384c-1.1562666666666666 0.07146666666666666 -2.0970666666666666 -0.9183999999999999 -1.9658666666666664 -2.0704v-13.453866666666666c-0.025599999999999998 -7.968 -8.666666666666666 -12.919466666666667 -15.554133333333333 -8.914133333333332 -3.175466666666667 1.8474666666666666 -5.133866666666666 5.239466666666667 -5.1456 8.914133333333332v25.874133333333333c0 5.716266666666667 4.6335999999999995 10.349866666666667 10.349866666666667 10.349866666666667h20.699733333333334c7.966933333333333 0.025599999999999998 12.974933333333333 -8.583466666666666 9.013333333333332 -15.495466666666667 -1.8506666666666665 -3.2288 -5.291733333333333 -5.215999999999999 -9.013333333333332 -5.204266666666666Z" fill="#ffffff" stroke-width="10.6667"></path>
  </g>
</svg>