<svg xmlns="http://www.w3.org/2000/svg" id="Common-File-Module-1--Streamline-Ultimate" width="256" height="256" viewBox="0 0 256 256"><desc>Common File Module 1 Streamline Icon: https://streamlinehq.com</desc><g id="Common-File-Module-1--Streamline-Ultimate.svg"><path fill="#fff" stroke-width="10.667" d="M249.70666666666665 32 224 6.293333333333333A21.333333333333332 21.333333333333332 0 0 0 208.95999999999998 0H85.33333333333333a21.333333333333332 21.333333333333332 0 0 0 -21.333333333333332 21.333333333333332v93.33333333333333a2.6666666666666665 2.6666666666666665 0 0 0 2.5599999999999996 2.6666666666666665l16 0a2.5599999999999996 2.5599999999999996 0 0 0 2.7733333333333334 -2.3466666666666667V26.666666666666664a5.333333333333333 5.333333333333333 0 0 1 5.333333333333333 -5.333333333333333h116.05333333333334a5.013333333333333 5.013333333333333 0 0 1 3.733333333333333 1.5999999999999999l22.613333333333333 22.613333333333333a5.013333333333333 5.013333333333333 0 0 1 1.5999999999999999 3.733333333333333V192a5.333333333333333 5.333333333333333 0 0 1 -5.333333333333333 5.333333333333333h-86.61333333333332a2.6666666666666665 2.6666666666666665 0 0 0 -2.453333333333333 3.626666666666667 93.44 93.44 0 0 1 3.413333333333333 15.466666666666665 2.6666666666666665 2.6666666666666665 0 0 0 2.6666666666666665 2.2399999999999998H234.66666666666666a21.333333333333332 21.333333333333332 0 0 0 21.333333333333332 -21.333333333333332V47.04A21.333333333333332 21.333333333333332 0 0 0 249.70666666666665 32Z"/><path fill="#fff" stroke-width="10.667" d="M85.33333333333333 202.66666666666666h32s10.666666666666666 0 10.666666666666666 10.666666666666666v32s0 10.666666666666666 -10.666666666666666 10.666666666666666H85.33333333333333s-10.666666666666666 0 -10.666666666666666 -10.666666666666666v-32s0 -10.666666666666666 10.666666666666666 -10.666666666666666"/><path fill="#fff" stroke-width="10.667" d="M10.666666666666666 202.66666666666666h32s10.666666666666666 0 10.666666666666666 10.666666666666666v32s0 10.666666666666666 -10.666666666666666 10.666666666666666H10.666666666666666s-10.666666666666666 0 -10.666666666666666 -10.666666666666666v-32s0 -10.666666666666666 10.666666666666666 -10.666666666666666"/><path fill="#fff" stroke-width="10.667" d="M48 133.33333333333331h32s10.666666666666666 0 10.666666666666666 10.666666666666666v32s0 10.666666666666666 -10.666666666666666 10.666666666666666h-32s-10.666666666666666 0 -10.666666666666666 -10.666666666666666v-32s0 -10.666666666666666 10.666666666666666 -10.666666666666666"/></g></svg>