<svg xmlns="http://www.w3.org/2000/svg" viewBox="0 0 256 256" id="Common-File-Stack--Streamline-Ultimate" height="256" width="256">
  <desc>
    Common File Stack Streamline Icon: https://streamlinehq.com
  </desc>
  <g id="Common-File-Stack--Streamline-Ultimate.svg">
    <path d="M193.81333333333333 197.33333333333331H85.33333333333333a5.333333333333333 5.333333333333333 0 0 1 -5.333333333333333 -5.333333333333333V46.18666666666667a10.666666666666666 10.666666666666666 0 0 0 -21.333333333333332 0v152.95999999999998a19.52 19.52 0 0 0 19.52 19.52h115.62666666666667a10.666666666666666 10.666666666666666 0 0 0 0 -21.333333333333332Z" fill="#ffffff" stroke-width="10.6667"></path>
    <path d="M156.48 234.66666666666666H48a5.333333333333333 5.333333333333333 0 0 1 -5.333333333333333 -5.333333333333333V83.52a10.666666666666666 10.666666666666666 0 0 0 -21.333333333333332 0v152.95999999999998A19.52 19.52 0 0 0 40.85333333333333 256h115.62666666666667a10.666666666666666 10.666666666666666 0 1 0 0 -21.333333333333332Z" fill="#ffffff" stroke-width="10.6667"></path>
    <path d="m229.12 38.08 -30.506666666666664 -32a19.413333333333334 19.413333333333334 0 0 0 -13.866666666666667 -6.079999999999999H117.33333333333333a21.333333333333332 21.333333333333332 0 0 0 -21.333333333333332 21.333333333333332v138.66666666666666a21.333333333333332 21.333333333333332 0 0 0 21.333333333333332 21.333333333333332h97.81333333333333A19.52 19.52 0 0 0 234.66666666666666 161.81333333333333V51.626666666666665a18.986666666666665 18.986666666666665 0 0 0 -5.546666666666667 -13.546666666666667Z" fill="#ffffff" stroke-width="10.6667"></path>
  </g>
</svg>