<svg xmlns="http://www.w3.org/2000/svg" id="Common-File-Edit--Streamline-Ultimate" width="256" height="256" viewBox="0 0 256 256"><desc>Common File Edit Streamline Icon: https://streamlinehq.com</desc><g id="Common-File-Edit--Streamline-Ultimate.svg"><path fill="#fff" stroke-width="10.667" d="M249.70666666666665 32 224 6.293333333333333A21.333333333333332 21.333333333333332 0 0 0 208.8533333333333 0H85.33333333333333a21.333333333333332 21.333333333333332 0 0 0 -21.333333333333332 21.333333333333332v102.18666666666667a2.6666666666666665 2.6666666666666665 0 0 0 4.4799999999999995 1.92l15.04 -14.4A5.013333333333333 5.013333333333333 0 0 0 85.33333333333333 106.66666666666666V26.666666666666664a5.333333333333333 5.333333333333333 0 0 1 5.333333333333333 -5.333333333333333h116.05333333333334a5.013333333333333 5.013333333333333 0 0 1 3.733333333333333 1.5999999999999999l22.613333333333333 22.613333333333333a5.013333333333333 5.013333333333333 0 0 1 1.5999999999999999 3.733333333333333V192a5.333333333333333 5.333333333333333 0 0 1 -5.333333333333333 5.333333333333333h-106.66666666666666a5.013333333333333 5.013333333333333 0 0 0 -3.733333333333333 1.5999999999999999l-14.933333333333332 15.146666666666665a2.7733333333333334 2.7733333333333334 0 0 0 1.92 4.586666666666666H234.66666666666666a21.333333333333332 21.333333333333332 0 0 0 21.333333333333332 -21.333333333333332V47.04A21.333333333333332 21.333333333333332 0 0 0 249.70666666666665 32Z"/><path fill="#fff" stroke-width="10.667" d="M128 123.62666666666667a29.013333333333335 29.013333333333335 0 0 0 -38.4 2.88l-69.86666666666666 70.18666666666667a2.6666666666666665 2.6666666666666665 0 0 0 0 3.84l35.733333333333334 35.733333333333334a2.6666666666666665 2.6666666666666665 0 0 0 3.84 0l71.25333333333333 -71.25333333333333a28.05333333333333 28.05333333333333 0 0 0 -2.5599999999999996 -41.38666666666666Z"/><path fill="#fff" stroke-width="10.667" d="M11.306666666666667 214.71999999999997a2.6666666666666665 2.6666666666666665 0 0 0 -4.4799999999999995 1.3866666666666667L0 249.59999999999997a5.4399999999999995 5.4399999999999995 0 0 0 1.4933333333333334 4.8 5.013333333333333 5.013333333333333 0 0 0 3.84 1.5999999999999999h1.0666666666666667l33.49333333333333 -6.72a2.6666666666666665 2.6666666666666665 0 0 0 1.3866666666666667 -4.4799999999999995Z"/></g></svg>