<svg xmlns="http://www.w3.org/2000/svg" viewBox="0 0 256 256" id="Common-File-Give-Hand-3--Streamline-Ultimate" height="256" width="256">
  <desc>
    Common File Give Hand 3 Streamline Icon: https://streamlinehq.com
  </desc>
  <g id="Common-File-Give-Hand-3--Streamline-Ultimate.svg">
    <path d="m250.45333333333332 38.08 -30.506666666666664 -32a19.413333333333334 19.413333333333334 0 0 0 -13.866666666666667 -6.079999999999999H85.33333333333333a21.333333333333332 21.333333333333332 0 0 0 -21.333333333333332 21.333333333333332v125.33333333333333a2.6666666666666665 2.6666666666666665 0 0 0 2.6666666666666665 2.6666666666666665h16a2.6666666666666665 2.6666666666666665 0 0 0 2.6666666666666665 -2.6666666666666665V26.666666666666664a5.333333333333333 5.333333333333333 0 0 1 5.333333333333333 -5.333333333333333H202.66666666666666a5.546666666666667 5.546666666666667 0 0 1 3.9466666666666663 1.7066666666666666l26.24 27.839999999999996a5.119999999999999 5.119999999999999 0 0 1 1.4933333333333334 3.626666666666667V208a5.333333333333333 5.333333333333333 0 0 1 -5.333333333333333 5.333333333333333h-24.106666666666662a2.6666666666666665 2.6666666666666665 0 0 0 -2.6666666666666665 2.5599999999999996 140.79999999999998 140.79999999999998 0 0 1 -1.2799999999999998 15.68 2.6666666666666665 2.6666666666666665 0 0 0 2.6666666666666665 3.093333333333333h32.85333333333333A19.52 19.52 0 0 0 256 215.14666666666668V51.626666666666665a18.986666666666665 18.986666666666665 0 0 0 -5.546666666666667 -13.546666666666667Z" fill="#ffffff" stroke-width="10.6667"></path>
    <path d="M176 208H86.82666666666667a6.72 6.72 0 1 1 0 -13.333333333333332H105.6a10.666666666666666 10.666666666666666 0 0 0 9.813333333333333 -14.826666666666664 23.786666666666665 23.786666666666665 0 0 0 -21.973333333333333 -14.506666666666668H58.666666666666664a5.333333333333333 5.333333333333333 0 0 0 -5.333333333333333 5.333333333333333v69.33333333333333a5.333333333333333 5.333333333333333 0 0 0 5.333333333333333 5.333333333333333h104.10666666666665a23.893333333333334 23.893333333333334 0 0 0 23.893333333333334 -23.893333333333334v-2.7733333333333334a10.666666666666666 10.666666666666666 0 0 0 -10.666666666666666 -10.666666666666666Z" fill="#ffffff" stroke-width="10.6667"></path>
    <path d="M32 165.33333333333331H5.333333333333333a5.333333333333333 5.333333333333333 0 0 0 -5.333333333333333 5.333333333333333v80a5.333333333333333 5.333333333333333 0 0 0 5.333333333333333 5.333333333333333H32a5.333333333333333 5.333333333333333 0 0 0 5.333333333333333 -5.333333333333333V170.66666666666666a5.333333333333333 5.333333333333333 0 0 0 -5.333333333333333 -5.333333333333333Zm-16 77.33333333333333a8 8 0 1 1 8 -8 8.106666666666666 8.106666666666666 0 0 1 -8 8Z" fill="#ffffff" stroke-width="10.6667"></path>
  </g>
</svg>