<svg xmlns="http://www.w3.org/2000/svg" viewBox="0 0 256 256" id="Common-File-Text-Add--Streamline-Ultimate" height="256" width="256">
  <desc>
    Common File Text Add Streamline Icon: https://streamlinehq.com
  </desc>
  <g id="Common-File-Text-Add--Streamline-Ultimate.svg">
    <path d="M213.33333333333331 80a10.666666666666666 10.666666666666666 0 0 0 -10.666666666666666 -10.666666666666666h-74.66666666666666a10.666666666666666 10.666666666666666 0 0 0 0 21.333333333333332h74.66666666666666a10.666666666666666 10.666666666666666 0 0 0 10.666666666666666 -10.666666666666666Z" fill="#ffffff" stroke-width="10.6667"></path>
    <path d="M133.33333333333331 117.33333333333333a10.666666666666666 10.666666666666666 0 0 0 0 21.333333333333332h42.666666666666664a10.666666666666666 10.666666666666666 0 0 0 0 -21.333333333333332Z" fill="#ffffff" stroke-width="10.6667"></path>
    <path d="M249.70666666666665 32 224 6.293333333333333A21.333333333333332 21.333333333333332 0 0 0 208.95999999999998 0H85.33333333333333a21.333333333333332 21.333333333333332 0 0 0 -21.333333333333332 21.333333333333332v77.65333333333334a2.7733333333333334 2.7733333333333334 0 0 0 2.5599999999999996 2.6666666666666665c3.9466666666666663 0 10.666666666666666 0 15.893333333333333 0.8533333333333333A2.6666666666666665 2.6666666666666665 0 0 0 85.33333333333333 99.83999999999999V26.666666666666664a5.333333333333333 5.333333333333333 0 0 1 5.333333333333333 -5.333333333333333h116.05333333333334a5.013333333333333 5.013333333333333 0 0 1 3.733333333333333 1.5999999999999999l22.613333333333333 22.613333333333333a5.013333333333333 5.013333333333333 0 0 1 1.5999999999999999 3.733333333333333V192a5.333333333333333 5.333333333333333 0 0 1 -5.333333333333333 5.333333333333333h-73.17333333333333a2.6666666666666665 2.6666666666666665 0 0 0 -2.5599999999999996 2.2399999999999998 94.93333333333334 94.93333333333334 0 0 1 -4.266666666666667 15.573333333333332 2.5599999999999996 2.5599999999999996 0 0 0 2.453333333333333 3.52H234.66666666666666a21.333333333333332 21.333333333333332 0 0 0 21.333333333333332 -21.333333333333332V47.04A21.333333333333332 21.333333333333332 0 0 0 249.70666666666665 32Z" fill="#ffffff" stroke-width="10.6667"></path>
    <path d="M69.33333333333333 117.33333333333333a69.33333333333333 69.33333333333333 0 1 0 69.33333333333333 69.33333333333333A69.44 69.44 0 0 0 69.33333333333333 117.33333333333333ZM96 194.66666666666666H80a2.6666666666666665 2.6666666666666665 0 0 0 -2.6666666666666665 2.6666666666666665V213.33333333333331a8 8 0 0 1 -16 0v-16a2.6666666666666665 2.6666666666666665 0 0 0 -2.6666666666666665 -2.6666666666666665H42.666666666666664a8 8 0 0 1 0 -16h16a2.6666666666666665 2.6666666666666665 0 0 0 2.6666666666666665 -2.6666666666666665V160a8 8 0 0 1 16 0v16a2.6666666666666665 2.6666666666666665 0 0 0 2.6666666666666665 2.6666666666666665H96a8 8 0 0 1 0 16Z" fill="#ffffff" stroke-width="10.6667"></path>
  </g>
</svg>