<svg xmlns="http://www.w3.org/2000/svg" id="Common-File-Horizontal--Streamline-Ultimate" width="256" height="256" viewBox="0 0 256 256"><desc>Common File Horizontal Streamline Icon: https://streamlinehq.com</desc><path fill="#fff" stroke-width="10.667" d="M234.66666666666666 208a5.333333333333333 5.333333333333333 0 0 1 -5.333333333333333 5.333333333333333h-202.66666666666666a5.333333333333333 5.333333333333333 0 0 1 -5.333333333333333 -5.333333333333333v-160a5.333333333333333 5.333333333333333 0 0 1 5.333333333333333 -5.333333333333333H181.33333333333331a5.226666666666667 5.226666666666667 0 0 1 3.84 1.5999999999999999l48.32 48.32A5.226666666666667 5.226666666666667 0 0 1 234.66666666666666 96Zm21.333333333333332 -118.29333333333332a10.666666666666666 10.666666666666666 0 0 0 -3.093333333333333 -7.466666666666666l-57.81333333333333 -57.81333333333333a10.666666666666666 10.666666666666666 0 0 0 -7.466666666666666 -3.093333333333333H21.333333333333332a21.333333333333332 21.333333333333332 0 0 0 -21.333333333333332 21.333333333333332v170.66666666666666a21.333333333333332 21.333333333333332 0 0 0 21.333333333333332 21.333333333333332h213.33333333333331a21.333333333333332 21.333333333333332 0 0 0 21.333333333333332 -21.333333333333332V89.70666666666666Z"/></svg>