<svg xmlns="http://www.w3.org/2000/svg" viewBox="0 0 256 256" id="Compass-Directions--Streamline-Ultimate" height="256" width="256">
  <desc>
    Compass Directions Streamline Icon: https://streamlinehq.com
  </desc>
  <path d="M128 0a128 128 0 1 0 128 128A128 128 0 0 0 128 0Zm11.413333333333334 164.90666666666667L76.8 189.54666666666665a7.893333333333333 7.893333333333333 0 0 1 -10.666666666666666 -10.666666666666666l24.64 -62.50666666666667a5.333333333333333 5.333333333333333 0 0 1 3.84 -3.1999999999999997 5.4399999999999995 5.4399999999999995 0 0 1 4.8 1.4933333333333334l41.38666666666666 41.38666666666666a5.4399999999999995 5.4399999999999995 0 0 1 1.4933333333333334 4.8 5.333333333333333 5.333333333333333 0 0 1 -2.88 4.053333333333333Zm50.13333333333333 -88 -24.64 62.50666666666667a5.333333333333333 5.333333333333333 0 0 1 -3.84 3.1999999999999997 5.226666666666667 5.226666666666667 0 0 1 -4.8 -1.4933333333333334l-41.38666666666666 -41.38666666666666a5.4399999999999995 5.4399999999999995 0 0 1 -1.4933333333333334 -4.8 5.333333333333333 5.333333333333333 0 0 1 3.1999999999999997 -3.84l62.61333333333333 -24.64a7.68 7.68 0 0 1 8.64 1.7066666666666666 7.786666666666666 7.786666666666666 0 0 1 1.7066666666666666 8.746666666666666Z" fill="#ffffff" stroke-width="10.6667"></path>
</svg>