<svg xmlns="http://www.w3.org/2000/svg" viewBox="0 0 256 256" id="Compass-1--Streamline-Ultimate" height="256" width="256">
  <desc>
    Compass 1 Streamline Icon: https://streamlinehq.com
  </desc>
  <g id="Compass-1--Streamline-Ultimate.svg">
    <path d="M109.33333333333333 128a18.666666666666664 18.666666666666664 0 1 0 37.33333333333333 0 18.666666666666664 18.666666666666664 0 1 0 -37.33333333333333 0" fill="#ffffff" stroke-width="10.6667"></path>
    <path d="M128 0a128 128 0 1 0 128 128A128 128 0 0 0 128 0Zm-8 24a8 8 0 0 1 16 0v16a8 8 0 0 1 -16 0Zm-80 112h-16a8 8 0 0 1 0 -16h16a8 8 0 0 1 0 16Zm8.853333333333332 -75.84a8 8 0 1 1 11.306666666666667 -11.306666666666667L71.46666666666667 60.16a8 8 0 0 1 0 11.306666666666667 8.426666666666666 8.426666666666666 0 0 1 -5.653333333333333 2.3466666666666667 8 8 0 0 1 -5.653333333333333 -2.3466666666666667Zm87.14666666666666 171.83999999999997a8 8 0 0 1 -16 0v-16a8 8 0 0 1 16 0Zm12.586666666666666 -69.12 -71.25333333333333 29.759999999999998a10.666666666666666 10.666666666666666 0 0 1 -4.053333333333333 0.7466666666666667 10.666666666666666 10.666666666666666 0 0 1 -7.359999999999999 -2.88 10.666666666666666 10.666666666666666 0 0 1 -2.7733333333333334 -11.413333333333334L89.6 105.70666666666666A27.306666666666665 27.306666666666665 0 0 1 105.70666666666666 89.6l73.49333333333333 -26.453333333333333a10.666666666666666 10.666666666666666 0 0 1 13.44 14.186666666666667l-29.65333333333333 71.25333333333333a26.666666666666664 26.666666666666664 0 0 1 -14.4 14.293333333333333Zm58.56 44.266666666666666a7.573333333333332 7.573333333333332 0 0 1 -5.653333333333333 2.3466666666666667 7.893333333333333 7.893333333333333 0 0 1 -5.653333333333333 -2.3466666666666667l-11.306666666666667 -11.306666666666667a8 8 0 1 1 11.306666666666667 -11.306666666666667l11.306666666666667 11.306666666666667a7.893333333333333 7.893333333333333 0 0 1 0 11.306666666666667Zm24.85333333333333 -71.14666666666666h-16a8 8 0 0 1 0 -16h16a8 8 0 0 1 0 16Z" fill="#ffffff" stroke-width="10.6667"></path>
  </g>
</svg>