<svg xmlns="http://www.w3.org/2000/svg" viewBox="0 0 256 256" id="Composition-Focus-Square--Streamline-Ultimate" height="256" width="256">
  <desc>
    Composition Focus Square Streamline Icon: https://streamlinehq.com
  </desc>
  <path d="M256 21.333333333333332a21.333333333333332 21.333333333333332 0 0 0 -21.333333333333332 -21.333333333333332H21.333333333333332a21.333333333333332 21.333333333333332 0 0 0 -21.333333333333332 21.333333333333332v213.33333333333331a21.333333333333332 21.333333333333332 0 0 0 21.333333333333332 21.333333333333332h213.33333333333331a21.333333333333332 21.333333333333332 0 0 0 21.333333333333332 -21.333333333333332Zm-21.333333333333332 93.33333333333333a2.6666666666666665 2.6666666666666665 0 0 1 -2.6666666666666665 2.6666666666666665H202.66666666666666a2.6666666666666665 2.6666666666666665 0 0 1 -2.6666666666666665 -2.6666666666666665v-48a10.666666666666666 10.666666666666666 0 0 0 -10.666666666666666 -10.666666666666666h-48A2.6666666666666665 2.6666666666666665 0 0 1 138.66666666666666 53.33333333333333V24a2.6666666666666665 2.6666666666666665 0 0 1 2.6666666666666665 -2.6666666666666665h88a5.333333333333333 5.333333333333333 0 0 1 5.333333333333333 5.333333333333333ZM114.66666666666666 21.333333333333332a2.6666666666666665 2.6666666666666665 0 0 1 2.6666666666666665 2.6666666666666665V53.33333333333333a2.6666666666666665 2.6666666666666665 0 0 1 -2.6666666666666665 2.6666666666666665h-48a10.666666666666666 10.666666666666666 0 0 0 -10.666666666666666 10.666666666666666v48A2.6666666666666665 2.6666666666666665 0 0 1 53.33333333333333 117.33333333333333H24a2.6666666666666665 2.6666666666666665 0 0 1 -2.6666666666666665 -2.6666666666666665V26.666666666666664a5.333333333333333 5.333333333333333 0 0 1 5.333333333333333 -5.333333333333333ZM21.333333333333332 141.33333333333331a2.6666666666666665 2.6666666666666665 0 0 1 2.6666666666666665 -2.6666666666666665H53.33333333333333a2.6666666666666665 2.6666666666666665 0 0 1 2.6666666666666665 2.6666666666666665v48a10.666666666666666 10.666666666666666 0 0 0 10.666666666666666 10.666666666666666h48A2.6666666666666665 2.6666666666666665 0 0 1 117.33333333333333 202.66666666666666v29.333333333333332a2.6666666666666665 2.6666666666666665 0 0 1 -2.6666666666666665 2.6666666666666665H26.666666666666664a5.333333333333333 5.333333333333333 0 0 1 -5.333333333333333 -5.333333333333333ZM141.33333333333331 234.66666666666666a2.6666666666666665 2.6666666666666665 0 0 1 -2.6666666666666665 -2.6666666666666665V202.66666666666666a2.6666666666666665 2.6666666666666665 0 0 1 2.6666666666666665 -2.6666666666666665h48a10.666666666666666 10.666666666666666 0 0 0 10.666666666666666 -10.666666666666666v-48A2.6666666666666665 2.6666666666666665 0 0 1 202.66666666666666 138.66666666666666h29.333333333333332a2.6666666666666665 2.6666666666666665 0 0 1 2.6666666666666665 2.6666666666666665v88a5.333333333333333 5.333333333333333 0 0 1 -5.333333333333333 5.333333333333333Z" fill="#ffffff" stroke-width="10.6667"></path>
</svg>