<svg xmlns="http://www.w3.org/2000/svg" id="Computer-Chip-Core--Streamline-Ultimate" width="256" height="256" viewBox="0 0 256 256"><desc>Computer Chip Core Streamline Icon: https://streamlinehq.com</desc><g id="Computer-Chip-Core--Streamline-Ultimate.svg"><path fill="#fff" stroke-width="10.667" d="M133.6533333333333 64a8 8 0 0 1 -11.306666666666667 0L104.10666666666665 46.08a2.7733333333333334 2.7733333333333334 0 0 0 -1.8133333333333335 -0.7466666666666667H101.33333333333333a2.6666666666666665 2.6666666666666665 0 0 0 -2.6666666666666665 2.6666666666666665v160a2.6666666666666665 2.6666666666666665 0 0 0 2.6666666666666665 2.6666666666666665h0.96a2.7733333333333334 2.7733333333333334 0 0 0 1.8133333333333335 -0.7466666666666667L122.34666666666666 192a8 8 0 0 1 11.306666666666667 0l18.24 18.24a2.7733333333333334 2.7733333333333334 0 0 0 1.8133333333333335 0.7466666666666667h0.96a2.6666666666666665 2.6666666666666665 0 0 0 2.6666666666666665 -2.6666666666666665V48a2.6666666666666665 2.6666666666666665 0 0 0 -2.6666666666666665 -2.6666666666666665h-0.96a2.7733333333333334 2.7733333333333334 0 0 0 -1.8133333333333335 0.7466666666666667Z"/><path fill="#fff" stroke-width="10.667" d="M224 101.33333333333333a10.666666666666666 10.666666666666666 0 0 0 0 -21.333333333333332h-18.666666666666664a2.6666666666666665 2.6666666666666665 0 0 1 -2.6666666666666665 -2.6666666666666665v-10.666666666666666a2.6666666666666665 2.6666666666666665 0 0 1 2.6666666666666665 -2.6666666666666665H224a10.666666666666666 10.666666666666666 0 0 0 0 -21.333333333333332h-18.666666666666664a2.6666666666666665 2.6666666666666665 0 0 1 -2.6666666666666665 -2.6666666666666665V16A16 16 0 0 0 186.66666666666666 0h-117.33333333333333A16 16 0 0 0 53.33333333333333 16v24a2.6666666666666665 2.6666666666666665 0 0 1 -2.6666666666666665 2.6666666666666665H32a10.666666666666666 10.666666666666666 0 0 0 0 21.333333333333332h18.666666666666664a2.6666666666666665 2.6666666666666665 0 0 1 2.6666666666666665 2.6666666666666665v10.666666666666666a2.6666666666666665 2.6666666666666665 0 0 1 -2.6666666666666665 2.6666666666666665H32a10.666666666666666 10.666666666666666 0 0 0 0 21.333333333333332h18.666666666666664a2.6666666666666665 2.6666666666666665 0 0 1 2.6666666666666665 2.6666666666666665v10.666666666666666a2.6666666666666665 2.6666666666666665 0 0 1 -2.6666666666666665 2.6666666666666665H32a10.666666666666666 10.666666666666666 0 0 0 0 21.333333333333332h18.666666666666664a2.6666666666666665 2.6666666666666665 0 0 1 2.6666666666666665 2.6666666666666665v10.666666666666666a2.6666666666666665 2.6666666666666665 0 0 1 -2.6666666666666665 2.6666666666666665H32a10.666666666666666 10.666666666666666 0 0 0 0 21.333333333333332h18.666666666666664a2.6666666666666665 2.6666666666666665 0 0 1 2.6666666666666665 2.6666666666666665v10.666666666666666a2.6666666666666665 2.6666666666666665 0 0 1 -2.6666666666666665 2.6666666666666665H32a10.666666666666666 10.666666666666666 0 0 0 0 21.333333333333332h18.666666666666664a2.6666666666666665 2.6666666666666665 0 0 1 2.6666666666666665 2.6666666666666665v24A16 16 0 0 0 69.33333333333333 256h117.33333333333333a16 16 0 0 0 16 -16v-24a2.6666666666666665 2.6666666666666665 0 0 1 2.6666666666666665 -2.6666666666666665H224a10.666666666666666 10.666666666666666 0 0 0 0 -21.333333333333332h-18.666666666666664a2.6666666666666665 2.6666666666666665 0 0 1 -2.6666666666666665 -2.6666666666666665v-10.666666666666666a2.6666666666666665 2.6666666666666665 0 0 1 2.6666666666666665 -2.6666666666666665H224a10.666666666666666 10.666666666666666 0 0 0 0 -21.333333333333332h-18.666666666666664a2.6666666666666665 2.6666666666666665 0 0 1 -2.6666666666666665 -2.6666666666666665v-10.666666666666666a2.6666666666666665 2.6666666666666665 0 0 1 2.6666666666666665 -2.6666666666666665H224a10.666666666666666 10.666666666666666 0 0 0 0 -21.333333333333332h-18.666666666666664a2.6666666666666665 2.6666666666666665 0 0 1 -2.6666666666666665 -2.6666666666666665v-10.666666666666666a2.6666666666666665 2.6666666666666665 0 0 1 2.6666666666666665 -2.6666666666666665Zm-50.666666666666664 -64v181.33333333333331a8.106666666666666 8.106666666666666 0 0 1 -8 8H149.33333333333331a8 8 0 0 1 -5.653333333333333 -2.3466666666666667l-13.76 -13.76a2.6666666666666665 2.6666666666666665 0 0 0 -3.84 0L112.32 224a8 8 0 0 1 -5.653333333333333 2.3466666666666667H90.66666666666666a8.106666666666666 8.106666666666666 0 0 1 -8 -8V37.33333333333333a8.106666666666666 8.106666666666666 0 0 1 8 -8H106.66666666666666a8 8 0 0 1 5.653333333333333 2.3466666666666667l13.76 13.76a2.6666666666666665 2.6666666666666665 0 0 0 3.84 0L143.68 32a8 8 0 0 1 5.653333333333333 -2.6666666666666665h16a8.106666666666666 8.106666666666666 0 0 1 8 8Z"/></g></svg>