<svg xmlns="http://www.w3.org/2000/svg" id="Computer-Chip-32--Streamline-Ultimate" width="256" height="256" viewBox="0 0 256 256"><desc>Computer Chip 32 Streamline Icon: https://streamlinehq.com</desc><g id="Computer-Chip-32--Streamline-Ultimate.svg"><path fill="#fff" stroke-width="10.667" d="M25.92 117.33333333333333H10.666666666666666a10.666666666666666 10.666666666666666 0 0 0 0 21.333333333333332h15.253333333333332a10.666666666666666 10.666666666666666 0 0 0 0 -21.333333333333332Z"/><path fill="#fff" stroke-width="10.667" d="M25.92 170.66666666666666H10.666666666666666a10.666666666666666 10.666666666666666 0 0 0 0 21.333333333333332h15.253333333333332a10.666666666666666 10.666666666666666 0 0 0 0 -21.333333333333332Z"/><path fill="#fff" stroke-width="10.667" d="M25.92 69.33333333333333H10.666666666666666a10.666666666666666 10.666666666666666 0 0 0 0 21.333333333333332h15.253333333333332a10.666666666666666 10.666666666666666 0 0 0 0 -21.333333333333332Z"/><path fill="#fff" stroke-width="10.667" d="M245.33333333333331 117.33333333333333h-15.253333333333332a10.666666666666666 10.666666666666666 0 0 0 0 21.333333333333332H245.33333333333331a10.666666666666666 10.666666666666666 0 0 0 0 -21.333333333333332Z"/><path fill="#fff" stroke-width="10.667" d="M230.07999999999998 90.66666666666666H245.33333333333331a10.666666666666666 10.666666666666666 0 0 0 0 -21.333333333333332h-15.253333333333332a10.666666666666666 10.666666666666666 0 0 0 0 21.333333333333332Z"/><path fill="#fff" stroke-width="10.667" d="M256 181.33333333333331a10.666666666666666 10.666666666666666 0 0 0 -10.666666666666666 -10.666666666666666h-15.253333333333332a10.666666666666666 10.666666666666666 0 0 0 0 21.333333333333332H245.33333333333331a10.666666666666666 10.666666666666666 0 0 0 10.666666666666666 -10.666666666666666Z"/><path fill="#fff" stroke-width="10.667" d="M128 36.69333333333333a10.666666666666666 10.666666666666666 0 0 0 10.666666666666666 -10.666666666666666V10.666666666666666a10.666666666666666 10.666666666666666 0 0 0 -21.333333333333332 0v15.36a10.666666666666666 10.666666666666666 0 0 0 10.666666666666666 10.666666666666666Z"/><path fill="#fff" stroke-width="10.667" d="M80 36.69333333333333a10.666666666666666 10.666666666666666 0 0 0 10.666666666666666 -10.666666666666666V10.666666666666666a10.666666666666666 10.666666666666666 0 0 0 -21.333333333333332 0v15.36a10.666666666666666 10.666666666666666 0 0 0 10.666666666666666 10.666666666666666Z"/><path fill="#fff" stroke-width="10.667" d="M176 36.69333333333333a10.666666666666666 10.666666666666666 0 0 0 10.666666666666666 -10.666666666666666V10.666666666666666a10.666666666666666 10.666666666666666 0 0 0 -21.333333333333332 0v15.36a10.666666666666666 10.666666666666666 0 0 0 10.666666666666666 10.666666666666666Z"/><path fill="#fff" stroke-width="10.667" d="M128 219.41333333333333a10.666666666666666 10.666666666666666 0 0 0 -10.666666666666666 10.666666666666666V245.33333333333331a10.666666666666666 10.666666666666666 0 0 0 21.333333333333332 0v-15.253333333333332a10.666666666666666 10.666666666666666 0 0 0 -10.666666666666666 -10.666666666666666Z"/><path fill="#fff" stroke-width="10.667" d="M176 219.41333333333333a10.666666666666666 10.666666666666666 0 0 0 -10.666666666666666 10.666666666666666V245.33333333333331a10.666666666666666 10.666666666666666 0 0 0 21.333333333333332 0v-15.253333333333332a10.666666666666666 10.666666666666666 0 0 0 -10.666666666666666 -10.666666666666666Z"/><path fill="#fff" stroke-width="10.667" d="M80 219.41333333333333a10.666666666666666 10.666666666666666 0 0 0 -10.666666666666666 10.666666666666666V245.33333333333331a10.666666666666666 10.666666666666666 0 0 0 21.333333333333332 0v-15.253333333333332a10.666666666666666 10.666666666666666 0 0 0 -10.666666666666666 -10.666666666666666Z"/><path fill="#fff" stroke-width="10.667" d="M192.74666666666667 48H63.25333333333333A15.253333333333332 15.253333333333332 0 0 0 48 63.25333333333333v129.49333333333334a15.253333333333332 15.253333333333332 0 0 0 15.253333333333332 15.253333333333332h129.49333333333334a15.253333333333332 15.253333333333332 0 0 0 15.253333333333332 -15.253333333333332V63.25333333333333a15.253333333333332 15.253333333333332 0 0 0 -15.253333333333332 -15.253333333333332Zm-92.69333333333333 88h-10.026666666666666a8 8 0 1 1 0 -16h10.026666666666666a5.333333333333333 5.333333333333333 0 0 0 5.333333333333333 -5.333333333333333 5.4399999999999995 5.4399999999999995 0 0 0 -5.333333333333333 -5.333333333333333H80a8 8 0 0 1 0 -16h20.05333333333333A21.333333333333332 21.333333333333332 0 0 1 117.33333333333333 126.50666666666666a2.5599999999999996 2.5599999999999996 0 0 0 0 2.986666666666667 21.333333333333332 21.333333333333332 0 0 1 -17.706666666666663 33.17333333333333H80a8 8 0 0 1 0 -16h20.05333333333333a5.333333333333333 5.333333333333333 0 0 0 5.333333333333333 -5.333333333333333 5.4399999999999995 5.4399999999999995 0 0 0 -5.333333333333333 -5.333333333333333Zm75.84 10.666666666666666a8 8 0 0 1 0 16h-33.28a8 8 0 0 1 -7.466666666666666 -5.119999999999999 8.106666666666666 8.106666666666666 0 0 1 2.1333333333333333 -8.853333333333332L160.64 128c7.04 -6.186666666666666 8 -7.466666666666666 7.1466666666666665 -11.84a8.746666666666666 8.746666666666666 0 0 0 -8.533333333333333 -6.933333333333334 8.64 8.64 0 0 0 -8.64 8.64 8 8 0 0 1 -16 0 24.64 24.64 0 0 1 48.85333333333333 -4.906666666666666 25.599999999999998 25.599999999999998 0 0 1 -11.626666666666667 26.453333333333333l-2.7733333333333334 2.453333333333333a2.6666666666666665 2.6666666666666665 0 0 0 -0.7466666666666667 2.986666666666667 2.5599999999999996 2.5599999999999996 0 0 0 2.453333333333333 1.7066666666666666Z"/></g></svg>