<svg xmlns="http://www.w3.org/2000/svg" id="Computer-Chip-Flash--Streamline-Ultimate" width="256" height="256" viewBox="0 0 256 256"><desc>Computer Chip Flash Streamline Icon: https://streamlinehq.com</desc><g id="Computer-Chip-Flash--Streamline-Ultimate.svg"><path fill="#fff" stroke-width="10.667" d="M114.13333333333333 225.38666666666666a8 8 0 0 0 -8 8v13.333333333333332a8 8 0 0 0 16 0v-13.333333333333332a8 8 0 0 0 -8 -8Z"/><path fill="#fff" stroke-width="10.667" d="M151.46666666666664 225.38666666666666a8 8 0 0 0 -8 8v13.333333333333332a8 8 0 0 0 16 0v-13.333333333333332a8 8 0 0 0 -8 -8Z"/><path fill="#fff" stroke-width="10.667" d="M114.13333333333333 76.05333333333333a8.106666666666666 8.106666666666666 0 0 0 8 -8V54.72a8 8 0 1 0 -16 0v13.333333333333332a8.106666666666666 8.106666666666666 0 0 0 8 8Z"/><path fill="#fff" stroke-width="10.667" d="M76.8 225.38666666666666a8 8 0 0 0 -8 8v13.333333333333332a8 8 0 0 0 16 0v-13.333333333333332a8 8 0 0 0 -8 -8Z"/><path fill="#fff" stroke-width="10.667" d="M76.8 76.05333333333333a8.106666666666666 8.106666666666666 0 0 0 8.533333333333333 -8V54.72a8 8 0 0 0 -16 0v13.333333333333332a8.106666666666666 8.106666666666666 0 0 0 7.466666666666666 8Z"/><path fill="#fff" stroke-width="10.667" d="M213.86666666666667 185.38666666666666H200.53333333333333a8 8 0 0 0 0 16h13.333333333333332a8 8 0 0 0 0 -16Z"/><path fill="#fff" stroke-width="10.667" d="M35.199999999999996 142.72H21.866666666666664a8 8 0 1 0 0 16H35.199999999999996a8 8 0 0 0 0 -16Z"/><path fill="#fff" stroke-width="10.667" d="M213.86666666666667 142.72H200.53333333333333a8 8 0 0 0 0 16h13.333333333333332a8 8 0 0 0 0 -16Z"/><path fill="#fff" stroke-width="10.667" d="M35.199999999999996 100.05333333333334H21.866666666666664a8 8 0 1 0 0 16H35.199999999999996a8 8 0 0 0 0 -16Z"/><path fill="#fff" stroke-width="10.667" d="M35.199999999999996 185.38666666666666H21.866666666666664a8 8 0 0 0 0 16H35.199999999999996a8 8 0 1 0 0 -16Z"/><path fill="#fff" stroke-width="10.667" d="M154.56 128A23.893333333333334 23.893333333333334 0 0 1 149.33333333333331 98.02666666666666l4.266666666666667 -7.359999999999999a2.986666666666667 2.986666666666667 0 0 0 0 -2.6666666666666665 2.6666666666666665 2.6666666666666665 0 0 0 -2.3466666666666667 -1.2799999999999998H69.86666666666666a16 16 0 0 0 -16 16v96a16 16 0 0 0 16 16h96a16 16 0 0 0 16 -16v-64a2.5599999999999996 2.5599999999999996 0 0 0 -1.1733333333333333 -2.1333333333333333 2.3466666666666667 2.3466666666666667 0 0 0 -2.3466666666666667 0 24 24 0 0 1 -23.786666666666665 -4.586666666666666Zm-74.02666666666667 49.38666666666666a8 8 0 0 1 8 -8h18.666666666666664a8 8 0 0 1 0 16H88.53333333333333a8.106666666666666 8.106666666666666 0 0 1 -8 -8Z"/><path fill="#fff" stroke-width="10.667" d="M241.49333333333334 50.986666666666665a10.666666666666666 10.666666666666666 0 0 0 -10.026666666666666 -6.933333333333334h-11.84a2.6666666666666665 2.6666666666666665 0 0 1 -2.453333333333333 -1.3866666666666667 2.6666666666666665 2.6666666666666665 0 0 1 0.5333333333333333 -2.88l18.56 -20.586666666666666a10.666666666666666 10.666666666666666 0 0 0 -7.786666666666666 -17.813333333333333h-37.76a10.666666666666666 10.666666666666666 0 0 0 -9.386666666666667 6.506666666666666l-22.186666666666667 53.33333333333333a10.666666666666666 10.666666666666666 0 0 0 0.96 10.026666666666666 10.666666666666666 10.666666666666666 0 0 0 8.853333333333332 4.8h7.253333333333334a2.6666666666666665 2.6666666666666665 0 0 1 2.3466666666666667 1.2799999999999998 2.986666666666667 2.986666666666667 0 0 1 0 2.6666666666666665l-15.466666666666665 26.026666666666664a8 8 0 0 0 1.8133333333333335 10.666666666666666 7.786666666666666 7.786666666666666 0 0 0 10.666666666666666 0l63.25333333333333 -53.33333333333333a10.666666666666666 10.666666666666666 0 0 0 2.6666666666666665 -12.373333333333331Z"/></g></svg>