<svg xmlns="http://www.w3.org/2000/svg" id="Composition-Window-Man--Streamline-Ultimate" width="256" height="256" viewBox="0 0 256 256"><desc>Composition Window Man Streamline Icon: https://streamlinehq.com</desc><g id="Composition-Window-Man--Streamline-Ultimate.svg"><path fill="#fff" stroke-width="10.667" d="M224 26.666666666666664H32a32 32 0 0 0 -32 32v138.66666666666666a32 32 0 0 0 32 32h192a32 32 0 0 0 32 -32v-138.66666666666666a32 32 0 0 0 -32 -32Zm10.666666666666666 170.66666666666666a10.666666666666666 10.666666666666666 0 0 1 -10.666666666666666 10.666666666666666H32a10.666666666666666 10.666666666666666 0 0 1 -10.666666666666666 -10.666666666666666v-138.66666666666666a10.666666666666666 10.666666666666666 0 0 1 10.666666666666666 -10.666666666666666h192a10.666666666666666 10.666666666666666 0 0 1 10.666666666666666 10.666666666666666Z"/><path fill="#fff" stroke-width="10.667" d="M128 149.33333333333331a42.666666666666664 42.666666666666664 0 1 0 -42.666666666666664 -42.666666666666664 42.666666666666664 42.666666666666664 0 0 0 42.666666666666664 42.666666666666664Zm0 -21.333333333333332a21.333333333333332 21.333333333333332 0 0 1 -21.333333333333332 -21.333333333333332 21.333333333333332 21.333333333333332 0 0 1 1.4933333333333334 -7.893333333333333 2.7733333333333334 2.7733333333333334 0 0 1 1.5999999999999999 -1.4933333333333334 2.986666666666667 2.986666666666667 0 0 1 2.1333333333333333 0 63.36 63.36 0 0 0 29.013333333333335 7.04 48.85333333333333 48.85333333333333 0 0 0 5.653333333333333 0 2.986666666666667 2.986666666666667 0 0 1 1.92 0.6399999999999999 2.6666666666666665 2.6666666666666665 0 0 1 0.8533333333333333 1.7066666666666666 21.333333333333332 21.333333333333332 0 0 1 -21.333333333333332 21.333333333333332Z"/><path fill="#fff" stroke-width="10.667" d="M128 160a70.72 70.72 0 0 0 -52.05333333333333 23.04 5.333333333333333 5.333333333333333 0 0 0 3.9466666666666663 8.959999999999999h96a5.333333333333333 5.333333333333333 0 0 0 3.9466666666666663 -8.959999999999999A70.72 70.72 0 0 0 128 160Z"/></g></svg>