<svg xmlns="http://www.w3.org/2000/svg" id="Concert-Rock-1--Streamline-Ultimate" width="256" height="256" viewBox="0 0 256 256"><desc>Concert Rock 1 Streamline Icon: https://streamlinehq.com</desc><g id="Concert-Rock-1--Streamline-Ultimate.svg"><path fill="#fff" stroke-width="10.667" d="M202.66666666666666 26.666666666666664A16 16 0 0 0 186.88 42.666666666666664v32a10.666666666666666 10.666666666666666 0 0 1 -10.666666666666666 10.666666666666666H128a10.666666666666666 10.666666666666666 0 0 1 -10.666666666666666 -10.666666666666666V16a16 16 0 0 0 -32 0v77.44a5.333333333333333 5.333333333333333 0 0 1 -3.3066666666666666 5.013333333333333 5.4399999999999995 5.4399999999999995 0 0 1 -5.866666666666667 -1.2799999999999998l-10.666666666666666 -10.666666666666666A16.53333333333333 16.53333333333333 0 0 0 53.33333333333333 80.96a16.106666666666666 16.106666666666666 0 0 0 -11.84 5.119999999999999 16.426666666666666 16.426666666666666 0 0 0 -1.4933333333333334 21.333333333333332l58.13333333333333 75.41333333333333a10.666666666666666 10.666666666666666 0 0 0 8.426666666666666 4.16h85.97333333333333a10.666666666666666 10.666666666666666 0 0 0 8.32 -4.053333333333333 80.85333333333332 80.85333333333332 0 0 0 17.813333333333333 -49.28V42.666666666666664A16 16 0 0 0 202.66666666666666 26.666666666666664Z"/><path fill="#fff" stroke-width="10.667" d="M192 202.66666666666666H96a16 16 0 0 0 -16 16v21.333333333333332A16 16 0 0 0 96 256h96a16 16 0 0 0 16 -16v-21.333333333333332A16 16 0 0 0 192 202.66666666666666Zm-82.66666666666666 34.666666666666664a8 8 0 1 1 8 -8 8.106666666666666 8.106666666666666 0 0 1 -7.786666666666666 8Zm34.666666666666664 0a8 8 0 1 1 8 -8 8.106666666666666 8.106666666666666 0 0 1 -7.786666666666666 8Zm34.666666666666664 0a8 8 0 1 1 8 -8 8.106666666666666 8.106666666666666 0 0 1 -7.786666666666666 8Z"/></g></svg>