<svg xmlns="http://www.w3.org/2000/svg" viewBox="0 0 256 256" id="Concert-Dj--Streamline-Ultimate" height="256" width="256">
  <desc>
    Concert Dj Streamline Icon: https://streamlinehq.com
  </desc>
  <g id="Concert-Dj--Streamline-Ultimate.svg">
    <path d="m255.36 235.62666666666667 -15.253333333333332 -53.33333333333333A16 16 0 0 0 224.74666666666667 170.66666666666666H31.253333333333334a16 16 0 0 0 -15.36 11.626666666666667l-15.253333333333332 53.33333333333333A16 16 0 0 0 16 256h224a16 16 0 0 0 15.36 -20.37333333333333ZM74.66666666666666 234.66666666666666c-17.919999999999998 0 -32 -9.386666666666667 -32 -21.333333333333332s14.08 -21.333333333333332 32 -21.333333333333332 32 9.386666666666667 32 21.333333333333332 -13.973333333333333 21.333333333333332 -32 21.333333333333332Zm106.66666666666666 0c-17.919999999999998 0 -32 -9.386666666666667 -32 -21.333333333333332s14.08 -21.333333333333332 32 -21.333333333333332 32 9.386666666666667 32 21.333333333333332 -14.08 21.333333333333332 -32 21.333333333333332Z" fill="#ffffff" stroke-width="10.6667"></path>
    <path d="M96 74.66666666666666a32 32 0 1 0 64 0 32 32 0 1 0 -64 0" fill="#ffffff" stroke-width="10.6667"></path>
    <path d="M178.02666666666667 154.66666666666666a5.4399999999999995 5.4399999999999995 0 0 0 4.8 -7.786666666666666 60.48 60.48 0 0 0 -109.65333333333332 0 5.4399999999999995 5.4399999999999995 0 0 0 4.8 7.786666666666666Z" fill="#ffffff" stroke-width="10.6667"></path>
    <path d="M193.92 46.29333333333333a5.013333333333333 5.013333333333333 0 0 1 -3.52 -3.1999999999999997A66.66666666666666 66.66666666666666 0 0 0 65.70666666666666 42.666666666666664a5.653333333333333 5.653333333333333 0 0 1 -3.626666666666667 3.3066666666666666 26.666666666666664 26.666666666666664 0 0 0 6.826666666666666 52.373333333333335h10.666666666666666a5.333333333333333 5.333333333333333 0 0 0 5.333333333333333 -5.333333333333333V53.33333333333333a11.626666666666667 11.626666666666667 0 0 1 0.8533333333333333 -4.16 45.33333333333333 45.33333333333333 0 0 1 83.62666666666667 0A11.626666666666667 11.626666666666667 0 0 1 170.66666666666666 53.33333333333333v40a5.333333333333333 5.333333333333333 0 0 0 5.333333333333333 5.333333333333333h10.666666666666666a26.666666666666664 26.666666666666664 0 0 0 7.253333333333334 -52.373333333333335Z" fill="#ffffff" stroke-width="10.6667"></path>
  </g>
</svg>