<svg xmlns="http://www.w3.org/2000/svg" viewBox="0 0 256 256" id="Concert-Microphone--Streamline-Ultimate" height="256" width="256">
  <desc>
    Concert Microphone Streamline Icon: https://streamlinehq.com
  </desc>
  <path d="M240 84.69333333333333a5.333333333333333 5.333333333333333 0 0 1 3.9466666666666663 -5.226666666666667A15.893333333333333 15.893333333333333 0 0 0 256 64V21.333333333333332a21.333333333333332 21.333333333333332 0 0 0 -21.333333333333332 -21.333333333333332H21.333333333333332a21.333333333333332 21.333333333333332 0 0 0 -21.333333333333332 21.333333333333332v42.666666666666664a15.893333333333333 15.893333333333333 0 0 0 12.053333333333331 15.466666666666665 5.333333333333333 5.333333333333333 0 0 1 3.9466666666666663 5.226666666666667V229.33333333333331a5.333333333333333 5.333333333333333 0 0 1 -5.333333333333333 5.333333333333333 10.666666666666666 10.666666666666666 0 0 0 0 21.333333333333332h234.66666666666666a10.666666666666666 10.666666666666666 0 0 0 0 -21.333333333333332 5.333333333333333 5.333333333333333 0 0 1 -5.333333333333333 -5.333333333333333ZM26.666666666666664 58.666666666666664A5.333333333333333 5.333333333333333 0 0 1 21.333333333333332 53.33333333333333V36.906666666666666a2.6666666666666665 2.6666666666666665 0 0 1 1.7066666666666666 -2.453333333333333 2.6666666666666665 2.6666666666666665 0 0 1 2.986666666666667 0.7466666666666667L42.666666666666664 54.29333333333333a2.453333333333333 2.453333333333333 0 0 1 0 2.7733333333333334 2.6666666666666665 2.6666666666666665 0 0 1 -2.453333333333333 1.5999999999999999Zm19.306666666666665 -32.959999999999994a2.6666666666666665 2.6666666666666665 0 0 1 0 -2.7733333333333334A2.6666666666666665 2.6666666666666665 0 0 1 48 21.333333333333332h49.493333333333325a2.5599999999999996 2.5599999999999996 0 0 1 2.453333333333333 1.7066666666666666 2.453333333333333 2.453333333333333 0 0 1 -0.6399999999999999 2.88L74.66666666666666 49.919999999999995a4.906666666666666 4.906666666666666 0 0 1 -3.9466666666666663 1.4933333333333334 5.653333333333333 5.653333333333333 0 0 1 -3.733333333333333 -1.8133333333333335Zm78.29333333333332 6.293333333333333a5.546666666666667 5.546666666666667 0 0 1 7.466666666666666 0l23.46666666666667 22.506666666666664a2.453333333333333 2.453333333333333 0 0 1 0.6399999999999999 2.88 2.6666666666666665 2.6666666666666665 0 0 1 -2.453333333333333 1.7066666666666666H102.61333333333332a2.6666666666666665 2.6666666666666665 0 0 1 -2.453333333333333 -1.7066666666666666 2.453333333333333 2.453333333333333 0 0 1 0.6399999999999999 -2.88Zm32 -5.653333333333333a2.453333333333333 2.453333333333333 0 0 1 -0.6399999999999999 -2.88 2.5599999999999996 2.5599999999999996 0 0 1 2.88 -2.1333333333333333h49.493333333333325a2.6666666666666665 2.6666666666666665 0 0 1 2.3466666666666667 1.5999999999999999 2.6666666666666665 2.6666666666666665 0 0 1 0 2.7733333333333334l-20.799999999999997 23.893333333333334a5.653333333333333 5.653333333333333 0 0 1 -3.733333333333333 1.8133333333333335 4.906666666666666 4.906666666666666 0 0 1 -3.9466666666666663 -1.4933333333333334Zm73.28 9.28a2.6666666666666665 2.6666666666666665 0 0 1 2.986666666666667 -0.7466666666666667 2.6666666666666665 2.6666666666666665 0 0 1 1.7066666666666666 2.453333333333333V53.33333333333333a5.333333333333333 5.333333333333333 0 0 1 -5.333333333333333 5.333333333333333h-13.226666666666667a2.6666666666666665 2.6666666666666665 0 0 1 -2.3466666666666667 -1.5999999999999999 2.453333333333333 2.453333333333333 0 0 1 0 -2.7733333333333334Zm-100.05333333333334 181.33333333333331a5.226666666666667 5.226666666666667 0 0 1 6.826666666666666 0l15.893333333333333 13.226666666666667a2.6666666666666665 2.6666666666666665 0 0 1 0.7466666666666667 2.986666666666667 2.6666666666666665 2.6666666666666665 0 0 1 -2.453333333333333 1.7066666666666666h-35.199999999999996a2.6666666666666665 2.6666666666666665 0 0 1 -2.453333333333333 -1.7066666666666666 2.6666666666666665 2.6666666666666665 0 0 1 0.7466666666666667 -2.986666666666667ZM177.59999999999997 234.66666666666666a2.5599999999999996 2.5599999999999996 0 0 1 -2.2399999999999998 -1.1733333333333333 2.453333333333333 2.453333333333333 0 0 1 0 -2.5599999999999996 10.666666666666666 10.666666666666666 0 0 0 -2.986666666666667 -12.479999999999999l-26.24 -21.866666666666664a5.226666666666667 5.226666666666667 0 0 1 -1.92 -4.053333333333333v-27.41333333333333a2.6666666666666665 2.6666666666666665 0 0 1 0.96 -2.1333333333333333 2.88 2.88 0 0 1 2.2399999999999998 0l2.1333333333333333 0a10.666666666666666 10.666666666666666 0 0 0 9.493333333333332 -5.866666666666667 10.666666666666666 10.666666666666666 0 0 0 -4.693333333333333 -14.293333333333333L128 129.49333333333334a5.119999999999999 5.119999999999999 0 0 1 -2.986666666666667 -4.586666666666666A24 24 0 1 0 101.33333333333333 149.33333333333331a24.53333333333333 24.53333333333333 0 0 0 10.026666666666666 -2.1333333333333333 5.013333333333333 5.013333333333333 0 0 1 4.586666666666666 0l3.733333333333333 1.92a5.333333333333333 5.333333333333333 0 0 1 2.986666666666667 4.8v38.61333333333333a5.226666666666667 5.226666666666667 0 0 1 -1.92 4.053333333333333l-26.24 21.866666666666664a10.666666666666666 10.666666666666666 0 0 0 -2.986666666666667 12.479999999999999 2.453333333333333 2.453333333333333 0 0 1 0 2.5599999999999996 2.5599999999999996 2.5599999999999996 0 0 1 -2.2399999999999998 1.1733333333333333H42.666666666666664a5.333333333333333 5.333333333333333 0 0 1 -5.333333333333333 -5.333333333333333V85.33333333333333a5.333333333333333 5.333333333333333 0 0 1 5.333333333333333 -5.333333333333333h170.66666666666666a5.333333333333333 5.333333333333333 0 0 1 5.333333333333333 5.333333333333333v144a5.333333333333333 5.333333333333333 0 0 1 -5.333333333333333 5.333333333333333Z" fill="#ffffff" stroke-width="10.6667"></path>
</svg>