<svg xmlns="http://www.w3.org/2000/svg" id="Connector-1--Streamline-Ultimate" width="256" height="256" viewBox="0 0 256 256"><desc>Connector 1 Streamline Icon: https://streamlinehq.com</desc><g id="Connector-1--Streamline-Ultimate.svg"><path fill="#fff" stroke-width="10.667" d="M202.66666666666666 106.66666666666666a10.666666666666666 10.666666666666666 0 0 0 -10.666666666666666 -10.666666666666666h-29.333333333333332a2.6666666666666665 2.6666666666666665 0 0 1 -2.6666666666666665 -2.6666666666666665V64a10.666666666666666 10.666666666666666 0 0 0 -10.666666666666666 -10.666666666666666h-42.666666666666664a10.666666666666666 10.666666666666666 0 0 0 -10.666666666666666 10.666666666666666v29.333333333333332a2.6666666666666665 2.6666666666666665 0 0 1 -2.6666666666666665 2.6666666666666665H64a10.666666666666666 10.666666666666666 0 0 0 -10.666666666666666 10.666666666666666v42.666666666666664a10.666666666666666 10.666666666666666 0 0 0 10.666666666666666 10.666666666666666h29.333333333333332a2.6666666666666665 2.6666666666666665 0 0 1 2.6666666666666665 2.6666666666666665V192a10.666666666666666 10.666666666666666 0 0 0 10.666666666666666 10.666666666666666h42.666666666666664a10.666666666666666 10.666666666666666 0 0 0 10.666666666666666 -10.666666666666666v-29.333333333333332a2.6666666666666665 2.6666666666666665 0 0 1 2.6666666666666665 -2.6666666666666665H192a10.666666666666666 10.666666666666666 0 0 0 10.666666666666666 -10.666666666666666Z"/><path fill="#fff" stroke-width="10.667" d="M10.666666666666666 104h16s10.666666666666666 0 10.666666666666666 10.666666666666666v26.666666666666664s0 10.666666666666666 -10.666666666666666 10.666666666666666H10.666666666666666s-10.666666666666666 0 -10.666666666666666 -10.666666666666666v-26.666666666666664s0 -10.666666666666666 10.666666666666666 -10.666666666666666"/><path fill="#fff" stroke-width="10.667" d="M229.33333333333331 104H245.33333333333331s10.666666666666666 0 10.666666666666666 10.666666666666666v26.666666666666664s0 10.666666666666666 -10.666666666666666 10.666666666666666h-16s-10.666666666666666 0 -10.666666666666666 -10.666666666666666v-26.666666666666664s0 -10.666666666666666 10.666666666666666 -10.666666666666666"/><path fill="#fff" stroke-width="10.667" d="M114.66666666666666 0h26.666666666666664s10.666666666666666 0 10.666666666666666 10.666666666666666v16s0 10.666666666666666 -10.666666666666666 10.666666666666666h-26.666666666666664s-10.666666666666666 0 -10.666666666666666 -10.666666666666666V10.666666666666666s0 -10.666666666666666 10.666666666666666 -10.666666666666666"/><path fill="#fff" stroke-width="10.667" d="M114.66666666666666 218.66666666666666h26.666666666666664s10.666666666666666 0 10.666666666666666 10.666666666666666V245.33333333333331s0 10.666666666666666 -10.666666666666666 10.666666666666666h-26.666666666666664s-10.666666666666666 0 -10.666666666666666 -10.666666666666666v-16s0 -10.666666666666666 10.666666666666666 -10.666666666666666"/></g></svg>