<svg xmlns="http://www.w3.org/2000/svg" id="Controls-Forward--Streamline-Ultimate" width="256" height="256" viewBox="0 0 256 256"><desc>Controls Forward Streamline Icon: https://streamlinehq.com</desc><path fill="#fff" stroke-width="10.667" d="M250.55999999999997 115.83999999999999 138.66666666666666 14.719999999999999a16 16 0 0 0 -26.666666666666664 12.159999999999998v58.986666666666665a2.6666666666666665 2.6666666666666665 0 0 1 -1.5999999999999999 2.453333333333333 2.6666666666666665 2.6666666666666665 0 0 1 -2.88 0L26.666666666666664 14.719999999999999A16 16 0 0 0 0 26.88v202.66666666666666a16 16 0 0 0 26.666666666666664 12.053333333333331l80.85333333333332 -72.96a2.6666666666666665 2.6666666666666665 0 0 1 2.88 0 2.5599999999999996 2.5599999999999996 0 0 1 1.5999999999999999 2.3466666666666667v58.986666666666665a16 16 0 0 0 26.666666666666664 11.2l111.89333333333333 -101.01333333333334a16.426666666666666 16.426666666666666 0 0 0 0 -24.319999999999997Z"/></svg>