<svg xmlns="http://www.w3.org/2000/svg" id="Contact-Us-Faq--Streamline-Ultimate" width="256" height="256" viewBox="0 0 256 256"><desc>Contact Us Faq Streamline Icon: https://streamlinehq.com</desc><g id="Contact-Us-Faq--Streamline-Ultimate.svg"><path fill="#fff" stroke-width="10.667" d="M192.53333333333333 69.97333333333333a8.959999999999999 8.959999999999999 0 0 0 -8.959999999999999 8.959999999999999v50.986666666666665a8.959999999999999 8.959999999999999 0 1 0 17.919999999999998 0V78.93333333333334a9.066666666666666 9.066666666666666 0 0 0 -8.959999999999999 -8.959999999999999Z"/><path fill="#fff" stroke-width="10.667" d="M124.58666666666666 69.97333333333333a9.066666666666666 9.066666666666666 0 0 0 -8.959999999999999 8.959999999999999v25.92h17.919999999999998V78.93333333333334a9.066666666666666 9.066666666666666 0 0 0 -8.959999999999999 -8.959999999999999Z"/><path fill="#fff" stroke-width="10.667" d="M244.0533333333333 20.69333333333333H11.946666666666667A11.946666666666667 11.946666666666667 0 0 0 0 32.64v154.66666666666666a11.946666666666667 11.946666666666667 0 0 0 11.946666666666667 12.053333333333331h27.733333333333334a88.42666666666665 88.42666666666665 0 0 1 -15.786666666666665 35.946666666666665c34.773333333333326 0.5333333333333333 56.74666666666667 -12.906666666666666 69.86666666666666 -35.946666666666665h150.29333333333332A11.946666666666667 11.946666666666667 0 0 0 256 187.30666666666664V32.64a11.946666666666667 11.946666666666667 0 0 0 -11.946666666666667 -11.946666666666667ZM80.42666666666666 69.97333333333333H64a9.066666666666666 9.066666666666666 0 0 0 -8.959999999999999 8.959999999999999v25.92h16.96a8 8 0 0 1 0 16H54.50666666666667v26.026666666666664a8 8 0 1 1 -16 0V78.93333333333334A24.959999999999997 24.959999999999997 0 0 1 64 53.97333333333333h16.426666666666666a8 8 0 1 1 0 16ZM149.33333333333331 146.88a8 8 0 0 1 -16 0v-26.026666666666664h-17.706666666666663v26.026666666666664a8 8 0 0 1 -16 0V78.93333333333334a24.959999999999997 24.959999999999997 0 1 1 49.70666666666666 0Zm67.94666666666666 -16.96a25.28 25.28 0 0 1 -10.666666666666666 20.266666666666666l8 8a8 8 0 0 1 0 11.306666666666667 8 8 0 0 1 -11.306666666666667 0l-14.933333333333332 -14.933333333333332a24.959999999999997 24.959999999999997 0 0 1 -21.333333333333332 -24.64V78.93333333333334a24.959999999999997 24.959999999999997 0 1 1 49.919999999999995 0Z"/></g></svg>