<svg xmlns="http://www.w3.org/2000/svg" viewBox="0 0 256 256" id="Content-Ink-Pen-Write--Streamline-Ultimate" height="256" width="256">
  <desc>
    Content Ink Pen Write Streamline Icon: https://streamlinehq.com
  </desc>
  <g id="Content-Ink-Pen-Write--Streamline-Ultimate.svg">
    <path d="M199.25333333333333 56.74666666666667a47.89333333333333 47.89333333333333 0 0 0 -67.84 0c-13.12 13.013333333333332 -30.613333333333333 85.33333333333333 -32.64 93.97333333333333a5.226666666666667 5.226666666666667 0 0 0 1.4933333333333334 5.013333333333333 5.333333333333333 5.333333333333333 0 0 0 5.013333333333333 1.4933333333333334c8.213333333333333 -2.0266666666666664 80.85333333333332 -19.52 93.97333333333333 -32.64a47.89333333333333 47.89333333333333 0 0 0 0 -67.84ZM165.33333333333331 106.66666666666666A16 16 0 1 1 181.33333333333331 90.66666666666666a16 16 0 0 1 -16 16Z" fill="#ffffff" stroke-width="10.6667"></path>
    <path d="m254.4 44.266666666666666 -42.666666666666664 -42.666666666666664a5.226666666666667 5.226666666666667 0 0 0 -4.373333333333333 -1.5999999999999999 5.546666666666667 5.546666666666667 0 0 0 -3.9466666666666663 2.5599999999999996l-16 26.666666666666664a5.226666666666667 5.226666666666667 0 0 0 0.8533333333333333 6.506666666666666l32 32a5.013333333333333 5.013333333333333 0 0 0 3.733333333333333 1.5999999999999999 5.119999999999999 5.119999999999999 0 0 0 2.7733333333333334 -0.7466666666666667l26.666666666666664 -16a5.546666666666667 5.546666666666667 0 0 0 2.5599999999999996 -3.9466666666666663 5.226666666666667 5.226666666666667 0 0 0 -1.5999999999999999 -4.373333333333333Z" fill="#ffffff" stroke-width="10.6667"></path>
    <path d="M181.33333333333331 192H53.33333333333333a9.706666666666667 9.706666666666667 0 0 1 -10.666666666666666 -10.666666666666666 9.706666666666667 9.706666666666667 0 0 1 10.666666666666666 -10.666666666666666h21.333333333333332a10.666666666666666 10.666666666666666 0 0 0 0 -21.333333333333332H53.33333333333333a31.04 31.04 0 0 0 -32 32 31.04 31.04 0 0 0 32 32h128a10.666666666666666 10.666666666666666 0 1 1 0 21.333333333333332H10.666666666666666a10.666666666666666 10.666666666666666 0 0 0 0 21.333333333333332h170.66666666666666a32 32 0 0 0 0 -64Z" fill="#ffffff" stroke-width="10.6667"></path>
  </g>
</svg>