<svg xmlns="http://www.w3.org/2000/svg" viewBox="0 0 256 256" id="Controls-Camera-Off--Streamline-Ultimate" height="256" width="256">
  <desc>
    Controls Camera Off Streamline Icon: https://streamlinehq.com
  </desc>
  <g id="Controls-Camera-Off--Streamline-Ultimate.svg">
    <path d="M33.81333333333333 68.58666666666666a2.88 2.88 0 0 0 -2.986666666666667 0A16 16 0 0 0 21.333333333333332 82.66666666666666v96a16 16 0 0 0 16 16h116.05333333333334a2.6666666666666665 2.6666666666666665 0 0 0 2.453333333333333 -1.5999999999999999 2.7733333333333334 2.7733333333333334 0 0 0 0 -2.986666666666667Z" fill="#ffffff" stroke-width="10.6667"></path>
    <path d="m231.89333333333332 79.46666666666667 -32 18.24a15.36 15.36 0 0 0 -7.893333333333333 13.333333333333332v39.25333333333333a15.36 15.36 0 0 0 7.893333333333333 13.333333333333332l32 18.24A16 16 0 0 0 256 168.53333333333333V92.79999999999998a16 16 0 0 0 -24.106666666666662 -13.333333333333332Z" fill="#ffffff" stroke-width="10.6667"></path>
    <path d="M182.07999999999998 167.04a3.093333333333333 3.093333333333333 0 0 1 -0.7466666666666667 -1.92V82.66666666666666a16 16 0 0 0 -16 -16H82.88a3.093333333333333 3.093333333333333 0 0 1 -1.92 -0.7466666666666667L18.24 3.093333333333333A10.666666666666666 10.666666666666666 0 0 0 4.693333333333333 1.8133333333333335L3.093333333333333 3.093333333333333a10.666666666666666 10.666666666666666 0 0 0 0 15.146666666666665l234.66666666666666 234.66666666666666a10.666666666666666 10.666666666666666 0 0 0 15.146666666666665 -15.146666666666665Z" fill="#ffffff" stroke-width="10.6667"></path>
  </g>
</svg>