<svg xmlns="http://www.w3.org/2000/svg" id="Content-Paper-Edit--Streamline-Ultimate" width="256" height="256" viewBox="0 0 256 256"><desc>Content Paper Edit Streamline Icon: https://streamlinehq.com</desc><g id="Content-Paper-Edit--Streamline-Ultimate.svg"><path fill="#fff" stroke-width="10.667" d="M136 53.33333333333333h-64a8 8 0 0 0 0 16h64a8 8 0 0 0 0 -16Z"/><path fill="#fff" stroke-width="10.667" d="M144 98.66666666666666a8.106666666666666 8.106666666666666 0 0 0 -8 -8h-85.33333333333333a8 8 0 0 0 0 16h85.33333333333333a8.106666666666666 8.106666666666666 0 0 0 8 -8Z"/><path fill="#fff" stroke-width="10.667" d="M50.666666666666664 128a8 8 0 0 0 0 16h58.666666666666664a8 8 0 0 0 0 -16Z"/><path fill="#fff" stroke-width="10.667" d="M120.53333333333333 188.26666666666665a2.6666666666666665 2.6666666666666665 0 0 0 -2.453333333333333 -1.5999999999999999H26.666666666666664A5.333333333333333 5.333333333333333 0 0 1 21.333333333333332 181.33333333333331V26.666666666666664a5.333333333333333 5.333333333333333 0 0 1 5.333333333333333 -5.333333333333333h138.66666666666666a5.333333333333333 5.333333333333333 0 0 1 5.333333333333333 5.333333333333333v107.41333333333333a2.6666666666666665 2.6666666666666665 0 0 0 1.5999999999999999 2.453333333333333 2.7733333333333334 2.7733333333333334 0 0 0 2.986666666666667 -0.5333333333333333l13.653333333333332 -13.653333333333332a11.2 11.2 0 0 0 3.093333333333333 -7.573333333333332V21.333333333333332a21.333333333333332 21.333333333333332 0 0 0 -21.333333333333332 -21.333333333333332H21.333333333333332a21.333333333333332 21.333333333333332 0 0 0 -21.333333333333332 21.333333333333332v165.33333333333331a21.333333333333332 21.333333333333332 0 0 0 21.333333333333332 21.333333333333332h83.94666666666666a5.333333333333333 5.333333333333333 0 0 0 5.119999999999999 -3.733333333333333 19.84 19.84 0 0 1 5.333333333333333 -8.746666666666666l4.266666666666667 -4.266666666666667a2.7733333333333334 2.7733333333333334 0 0 0 0.5333333333333333 -2.986666666666667Z"/><path fill="#fff" stroke-width="10.667" d="M128.64 214.71999999999997a2.6666666666666665 2.6666666666666665 0 0 0 -4.4799999999999995 1.3866666666666667L117.33333333333333 249.59999999999997a5.4399999999999995 5.4399999999999995 0 0 0 1.4933333333333334 4.8 5.013333333333333 5.013333333333333 0 0 0 3.733333333333333 1.5999999999999999h1.0666666666666667l33.49333333333333 -6.72a2.5599999999999996 2.5599999999999996 0 0 0 2.0266666666666664 -1.8133333333333335 2.453333333333333 2.453333333333333 0 0 0 -0.6399999999999999 -2.6666666666666665Z"/><path fill="#fff" stroke-width="10.667" d="M247.78666666666666 125.54666666666665a27.839999999999996 27.839999999999996 0 0 0 -39.46666666666667 0L138.66666666666666 194.88a5.119999999999999 5.119999999999999 0 0 0 0 7.466666666666666l32 32a5.119999999999999 5.119999999999999 0 0 0 7.466666666666666 0l69.44 -69.33333333333333a27.839999999999996 27.839999999999996 0 0 0 0.21333333333333332 -39.46666666666667Z"/></g></svg>