<svg xmlns="http://www.w3.org/2000/svg" viewBox="0 0 256 256" id="Content-Pen-Write--Streamline-Ultimate" height="256" width="256">
  <desc>
    Content Pen Write Streamline Icon: https://streamlinehq.com
  </desc>
  <g id="Content-Pen-Write--Streamline-Ultimate.svg">
    <path d="M94.08 211.0933333333333a10.666666666666666 10.666666666666666 0 0 0 -15.146666666666665 0l-13.76 13.76 -13.76 -13.76a10.666666666666666 10.666666666666666 0 0 0 -14.4 -0.6399999999999999l-32 26.666666666666664a10.666666666666666 10.666666666666666 0 0 0 -1.3866666666666667 15.04 10.666666666666666 10.666666666666666 0 0 0 15.04 1.3866666666666667l24.53333333333333 -20.479999999999997 14.4 14.506666666666668a10.666666666666666 10.666666666666666 0 0 0 15.146666666666665 0l13.76 -13.866666666666667 8.426666666666666 8.533333333333333a10.666666666666666 10.666666666666666 0 0 0 15.146666666666665 -15.146666666666665Z" fill="#ffffff" stroke-width="10.6667"></path>
    <path d="M253.65333333333334 35.839999999999996a30.826666666666668 30.826666666666668 0 0 0 -14.719999999999999 -18.346666666666664L207.89333333333332 0.7466666666666667a5.4399999999999995 5.4399999999999995 0 0 0 -7.253333333333334 2.0266666666666664l-85.33333333333333 154.24a5.4399999999999995 5.4399999999999995 0 0 0 0 4.053333333333333 5.546666666666667 5.546666666666667 0 0 0 2.5599999999999996 3.1999999999999997l26.453333333333333 14.613333333333333a5.653333333333333 5.653333333333333 0 0 0 2.5599999999999996 0.6399999999999999 5.226666666666667 5.226666666666667 0 0 0 4.693333333333333 -2.7733333333333334L228.90666666666667 36.266666666666666a9.493333333333332 9.493333333333332 0 0 1 4.16 5.546666666666667 9.28 9.28 0 0 1 -0.7466666666666667 7.1466666666666665l-38.82666666666667 70.50666666666666a10.666666666666666 10.666666666666666 0 0 0 4.16 14.506666666666668 10.666666666666666 10.666666666666666 0 0 0 14.506666666666668 -4.16l38.82666666666667 -70.50666666666666a31.04 31.04 0 0 0 2.6666666666666665 -23.46666666666667Z" fill="#ffffff" stroke-width="10.6667"></path>
    <path d="m139.73333333333332 187.0933333333333 -26.453333333333333 -14.506666666666668a5.546666666666667 5.546666666666667 0 0 0 -5.4399999999999995 0 5.226666666666667 5.226666666666667 0 0 0 -2.453333333333333 4.693333333333333l1.0666666666666667 29.333333333333332a5.013333333333333 5.013333333333333 0 0 0 2.7733333333333334 4.4799999999999995 5.333333333333333 5.333333333333333 0 0 0 5.226666666666667 0l25.386666666666663 -14.826666666666664a5.013333333333333 5.013333333333333 0 0 0 2.5599999999999996 -4.586666666666666 5.546666666666667 5.546666666666667 0 0 0 -2.6666666666666665 -4.586666666666666Z" fill="#ffffff" stroke-width="10.6667"></path>
  </g>
</svg>