<svg xmlns="http://www.w3.org/2000/svg" viewBox="0 0 256 256" id="Content-Typing-Machine-1--Streamline-Ultimate" height="256" width="256">
  <desc>
    Content Typing Machine 1 Streamline Icon: https://streamlinehq.com
  </desc>
  <path d="M253.33333333333331 141.33333333333331a8.106666666666666 8.106666666666666 0 0 0 -8 -8h-5.333333333333333v-13.333333333333332a8.106666666666666 8.106666666666666 0 0 0 -8 -8H208V68.37333333333333A21.333333333333332 21.333333333333332 0 0 0 201.70666666666665 53.33333333333333L154.66666666666666 6.293333333333333A21.333333333333332 21.333333333333332 0 0 0 139.62666666666667 0H69.33333333333333a21.333333333333332 21.333333333333332 0 0 0 -21.333333333333332 21.333333333333332v90.66666666666666H24a8.106666666666666 8.106666666666666 0 0 0 -8 8v13.333333333333332H10.666666666666666A8 8 0 0 0 10.666666666666666 149.33333333333331h5.333333333333333v16a8.106666666666666 8.106666666666666 0 0 0 8 8h6.933333333333334l-8.106666666666666 64.63999999999999a15.893333333333333 15.893333333333333 0 0 0 3.9466666666666663 12.586666666666666 15.573333333333332 15.573333333333332 0 0 0 11.946666666666667 5.4399999999999995h178.55999999999997a15.573333333333332 15.573333333333332 0 0 0 11.946666666666667 -5.4399999999999995 15.893333333333333 15.893333333333333 0 0 0 3.9466666666666663 -12.586666666666666l-7.466666666666666 -59.30666666666666h6.293333333333333a8.106666666666666 8.106666666666666 0 0 0 8 -8v-21.333333333333332h5.333333333333333a8.106666666666666 8.106666666666666 0 0 0 8 -8Zm-69.33333333333333 77.33333333333333a10.666666666666666 10.666666666666666 0 1 1 -10.666666666666666 -10.666666666666666 10.666666666666666 10.666666666666666 0 0 1 10.666666666666666 10.666666666666666Zm-45.33333333333333 0a10.666666666666666 10.666666666666666 0 1 1 -10.666666666666666 -10.666666666666666 10.666666666666666 10.666666666666666 0 0 1 10.666666666666666 10.666666666666666Zm-45.33333333333333 0a10.666666666666666 10.666666666666666 0 1 1 -10.666666666666666 -10.666666666666666 10.666666666666666 10.666666666666666 0 0 1 10.666666666666666 10.666666666666666Zm86.29333333333332 -157.33333333333331h-27.626666666666665V33.70666666666666ZM69.33333333333333 24A2.6666666666666665 2.6666666666666665 0 0 1 72 21.333333333333332h61.33333333333333a2.6666666666666665 2.6666666666666665 0 0 1 2.6666666666666665 2.6666666666666665V69.33333333333333a8.106666666666666 8.106666666666666 0 0 0 8 8h40a2.6666666666666665 2.6666666666666665 0 0 1 2.6666666666666665 2.6666666666666665V138.66666666666666h-6.72a16.106666666666666 16.106666666666666 0 0 0 -15.466666666666665 13.12A34.56 34.56 0 0 1 128 176a34.56 34.56 0 0 1 -36.48 -24.21333333333333A16.746666666666666 16.746666666666666 0 0 0 76.05333333333333 138.66666666666666H69.33333333333333Z" fill="#ffffff" stroke-width="10.6667"></path>
</svg>