<svg xmlns="http://www.w3.org/2000/svg" viewBox="0 0 256 256" id="Copyright-And-Protecttion-1--Streamline-Ultimate" height="256" width="256">
  <desc>
    Copyright And Protecttion 1 Streamline Icon: https://streamlinehq.com
  </desc>
  <path d="M128 1.4933333333333334A126.50666666666666 126.50666666666666 0 1 0 254.50666666666666 128 126.50666666666666 126.50666666666666 0 0 0 128 1.4933333333333334Zm-14.826666666666664 98.66666666666666H90.88v71.78666666666666a10.666666666666666 10.666666666666666 0 0 1 -21.333333333333332 0V100.16H47.25333333333333a10.666666666666666 10.666666666666666 0 0 1 0 -21.333333333333332h65.91999999999999a10.666666666666666 10.666666666666666 0 0 1 0 21.333333333333332Zm98.56 71.78666666666666a10.666666666666666 10.666666666666666 0 0 1 -21.333333333333332 0v-49.17333333333333l-8.213333333333333 11.413333333333334a10.666666666666666 10.666666666666666 0 0 1 -17.386666666666663 0l-8.106666666666666 -11.413333333333334v49.17333333333333a10.666666666666666 10.666666666666666 0 0 1 -21.333333333333332 0V89.49333333333334a10.666666666666666 10.666666666666666 0 0 1 19.306666666666665 -6.186666666666666l18.88 26.346666666666668L192 83.30666666666666a10.666666666666666 10.666666666666666 0 0 1 19.413333333333334 6.186666666666666Z" fill="#ffffff" stroke-width="10.6667"></path>
</svg>