<svg xmlns="http://www.w3.org/2000/svg" viewBox="0 0 256 256" id="Corporate-Social-Media--Streamline-Ultimate" height="256" width="256">
  <desc>
    Corporate Social Media Streamline Icon: https://streamlinehq.com
  </desc>
  <g id="Corporate-Social-Media--Streamline-Ultimate.svg">
    <path d="M128.74239999999998 186.08853333333332c-7.1808 1.9509333333333334 -14.589866666666666 2.930133333333333 -22.029866666666667 2.9098666666666664h-5.195733333333333c-4.421333333333333 -13.281066666666668 -7.893333333333333 -26.858666666666664 -10.391466666666666 -40.63146666666667h37.617066666666666c1.8912 -0.023466666666666667 3.733333333333333 -0.6015999999999999 5.2992 -1.6618666666666666v-17.5616c-1.5562666666666667 -1.0922666666666667 -3.3983999999999996 -1.7066666666666666 -5.2992 -1.7664H88.00746666666666c-1.4794666666666665 -13.594666666666665 -1.9647999999999999 -27.277866666666668 -1.4549333333333332 -40.94293333333333h47.800533333333334c1.6234666666666666 -8.981333333333332 8.916266666666665 -15.851733333333332 17.9776 -16.938666666666666s0 -0.8309333333333333 0 -1.2469333333333332v-2.5973333333333333h-3.9487999999999994c-1.2469333333333332 -6.858666666666666 -4.1568 -20.782933333333332 -6.962133333333332 -33.25333333333333 5.670399999999999 2.651733333333333 11.008 5.965866666666667 15.898666666666665 9.872 3.2096 -4.753066666666666 7.824 -8.386133333333333 13.197866666666666 -10.391466666666666v-5.610666666666667c-12.256 -9.629866666666667 -26.540799999999997 -16.345599999999997 -41.77386666666666 -19.64053333333333h-0.9354666666666667C77.87093333333333 -4.167466666666666 27.64693333333333 23.63093333333333 10.279466666666666 71.67786666666666s0 0.832 0 1.2469333333333332c-7.899733333333334 22.036266666666666 -7.899733333333334 46.132266666666666 0 68.16853333333333v1.2469333333333332c12.881066666666666 34.9568 43.6384 60.2304 80.42986666666667 66.08959999999999 1.0069333333333332 0.3317333333333333 2.0576 0.5066666666666666 3.1178666666666666 0.5194666666666666 4.3082666666666665 0.5429333333333333 8.6464 0.8202666666666666 12.9888 0.832 9.195733333333333 -0.0021333333333333334 18.351999999999997 -1.2256 27.2256 -3.6373333333333333v-20.055466666666668c-1.7322666666666664 -0.4885333333333333 -3.566933333333333 -0.4885333333333333 -5.2992 0Zm-61.51786666666666 -58.71146666666667H27.425066666666666c-1.7024 -6.5855999999999995 -2.574933333333333 -13.357866666666666 -2.5984 -20.159999999999997 0.020266666666666665 -7.014399999999999 0.9279999999999999 -13.9968 2.7018666666666666 -20.782933333333332h38.24106666666667c-0.5109333333333332 13.665066666666664 -0.02453333333333333 27.348266666666664 1.4549333333333332 40.94293333333333Zm51.1264 -101.52533333333334c2.7018666666666666 11.2224 6.8576 29.616 8.831999999999999 39.90293333333333H88.00746666666666c1.4933333333333334 -13.461333333333332 3.9583999999999997 -26.797866666666668 7.3781333333333325 -39.90293333333333 3.7834666666666665 -0.5781333333333333 7.603199999999999 -0.8906666666666667 11.4304 -0.9354666666666667 3.861333333333333 0.05333333333333333 7.7152 0.3658666666666666 11.534933333333331 0.9354666666666667Zm-45.93066666666667 6.754133333333333c-2.3349333333333333 10.911999999999999 -4.070399999999999 21.943466666666666 -5.195733333333333 33.04533333333333H36.050133333333335c8.475733333333332 -14.461866666666666 21.1648 -25.991466666666668 36.37013333333333 -33.04533333333333ZM35.9456 148.16h34.084266666666664c2.059733333333333 12.026666666666666 4.8 23.9264 8.209066666666665 35.64266666666666 -17.800533333333334 -6.624 -32.748799999999996 -19.2224 -42.29333333333333 -35.64266666666666Z" fill="#ffffff" stroke-width="10.6667"></path>
    <path d="M173.01013333333333 73.5488h46.761599999999994c2.4618666666666664 -0.05866666666666666 4.545066666666666 -1.8378666666666668 4.987733333333333 -4.260266666666666s0 -0.624 0 -0.9354666666666667V57.129599999999996c-0.16426666666666667 -1.5936 -0.6218666666666666 -3.1445333333333334 -1.3503999999999998 -4.5717333333333325 -0.48960000000000004 -0.7424 -1.0464 -1.4378666666666666 -1.6629333333333334 -2.0778666666666665 -0.3232 -0.5290666666666666 -0.7061333333333333 -1.0165333333333333 -1.1434666666666666 -1.4549333333333332 -0.7274666666666666 -0.624 -1.5584 -0.9354666666666667 -2.2858666666666663 -1.4549333333333332l-1.5584 -0.832c-0.7242666666666666 -0.09813333333333332 -1.458133333333333 -0.09813333333333332 -2.1824 0 -0.6890666666666667 -0.09813333333333332 -1.3888 -0.09813333333333332 -2.0778666666666665 0h-5.9232V13.693866666666667c0 -5.739733333333334 -4.652799999999999 -10.391466666666666 -10.391466666666666 -10.391466666666666 -5.739733333333334 0 -10.391466666666666 4.651733333333333 -10.391466666666666 10.391466666666666v32.21333333333333h-5.092266666666666c-0.7957333333333333 -0.04906666666666666 -1.5946666666666665 -0.04906666666666666 -2.3903999999999996 0 -0.5877333333333333 -0.05866666666666666 -1.1786666666666665 -0.05866666666666666 -1.7664 0 -0.8992 0.4224 -1.7674666666666665 0.9087999999999999 -2.5973333333333333 1.4549333333333332 -0.5226666666666666 0.2496 -1.0111999999999999 0.5642666666666667 -1.4549333333333332 0.9354666666666667 -0.7584 0.6805333333333332 -1.392 1.490133333333333 -1.8709333333333333 2.389333333333333 -0.3423999999999999 0.3552 -0.6549333333333334 0.7381333333333333 -0.9354666666666667 1.1434666666666666 -0.7178666666666667 1.3141333333333334 -1.1423999999999999 2.7669333333333332 -1.2469333333333332 4.260266666666666v12.2624c-0.0192 2.6421333333333332 1.9487999999999999 4.8789333333333325 4.5728 5.195733333333333Z" fill="#ffffff" stroke-width="10.6667"></path>
    <path d="M253.44 242.30613333333332c0 -5.738666666666667 -4.652799999999999 -10.391466666666666 -10.391466666666666 -10.391466666666666V89.86346666666665c-0.112 -2.788266666666667 -2.405333333333333 -4.989866666666666 -5.195733333333333 -4.987733333333333h-83.13173333333333c-1.3493333333333333 0.022399999999999996 -2.6442666666666668 0.5397333333333333 -3.6373333333333333 1.4549333333333332 -0.9632000000000001 0.9269333333333334 -1.5232 2.1962666666666664 -1.5584 3.5328V231.91466666666668H16.6176c-7.9989333333333335 0.0010666666666666667 -12.998399999999998 8.660266666666665 -8.9984 15.588266666666666 1.8559999999999999 3.2138666666666666 5.2863999999999995 5.1946666666666665 8.9984 5.1946666666666665h226.43093333333334c5.738666666666667 0 10.391466666666666 -4.651733333333333 10.391466666666666 -10.391466666666666Zm-41.565866666666665 -106.40853333333332h-31.1744c-6 0 -9.749333333333333 -6.494933333333333 -6.749866666666667 -11.690666666666667 1.3930666666666665 -2.4117333333333333 3.965866666666667 -3.896533333333333 6.749866666666667 -3.896533333333333h31.1744c5.9989333333333335 0 9.749333333333333 6.494933333333333 6.749866666666667 11.690666666666667 -1.3930666666666665 2.4106666666666667 -3.965866666666667 3.896533333333333 -6.749866666666667 3.896533333333333Zm7.793066666666666 30.446933333333334c0 4.304 -3.4890666666666665 7.794133333333333 -7.793066666666666 7.794133333333333h-31.1744c-6 0 -9.749333333333333 -6.494933333333333 -6.749866666666667 -11.690666666666667 1.392 -2.4117333333333333 3.965866666666667 -3.896533333333333 6.749866666666667 -3.896533333333333h31.1744c4.321066666666667 -0.0010666666666666667 7.841066666666666 3.472 7.897599999999999 7.793066666666666Zm-38.96746666666667 30.446933333333334h31.1744c5.9989333333333335 0 9.749333333333333 6.494933333333333 6.749866666666667 11.690666666666667 -1.3930666666666665 2.4117333333333333 -3.965866666666667 3.896533333333333 -6.749866666666667 3.896533333333333h-31.1744c-6 0 -9.749333333333333 -6.494933333333333 -6.749866666666667 -11.690666666666667 1.392 -2.4106666666666667 3.9647999999999994 -3.896533333333333 6.749866666666667 -3.896533333333333Z" fill="#ffffff" stroke-width="10.6667"></path>
  </g>
</svg>