<svg xmlns="http://www.w3.org/2000/svg" viewBox="0 0 256 256" id="Credit-Card-Visa--Streamline-Ultimate" height="256" width="256">
  <desc>
    Credit Card Visa Streamline Icon: https://streamlinehq.com
  </desc>
  <g id="Credit-Card-Visa--Streamline-Ultimate.svg">
    <path d="M233.70666666666665 37.33333333333333H22.29333333333333A21.866666666666664 21.866666666666664 0 0 0 0 58.666666666666664v138.66666666666666a21.866666666666664 21.866666666666664 0 0 0 22.29333333333333 21.333333333333332h211.41333333333333a21.866666666666664 21.866666666666664 0 0 0 22.29333333333333 -21.333333333333332v-138.66666666666666a21.866666666666664 21.866666666666664 0 0 0 -22.29333333333333 -21.333333333333332ZM90.88 108.90666666666667l-21.333333333333332 43.84a8 8 0 0 1 -7.1466666666666665 4.586666666666666h-7.04a8 8 0 0 1 -8 -7.1466666666666665L44.05333333333333 117.33333333333333a2.7733333333333334 2.7733333333333334 0 0 0 -2.6666666666666665 -2.3466666666666667H37.33333333333333a8 8 0 0 1 0 -16h13.653333333333332a8 8 0 0 1 8 7.1466666666666665l1.7066666666666666 17.599999999999998a2.88 2.88 0 0 0 2.2399999999999998 2.3466666666666667 2.6666666666666665 2.6666666666666665 0 0 0 2.88 -1.4933333333333334l10.666666666666666 -22.186666666666667a8 8 0 1 1 14.4 6.826666666666666Zm19.84 42.666666666666664a8.106666666666666 8.106666666666666 0 0 1 -7.893333333333333 6.3999999999999995 8 8 0 0 1 -7.786666666666666 -9.6l8.64 -43.30666666666666a8 8 0 1 1 15.68 3.1999999999999997Zm55.46666666666667 -43.413333333333334a8 8 0 0 1 -9.706666666666667 5.76c-2.7733333333333334 -0.7466666666666667 -8.32 -1.7066666666666666 -10.666666666666666 0.6399999999999999s3.84 5.333333333333333 5.226666666666667 6.079999999999999c13.333333333333332 8.213333333333333 14.4 16.85333333333333 12.906666666666666 22.613333333333333a21.333333333333332 21.333333333333332 0 0 1 -10.666666666666666 13.44 24.53333333333333 24.53333333333333 0 0 1 -11.306666666666667 2.6666666666666665 39.78666666666666 39.78666666666666 0 0 1 -12.906666666666666 -2.453333333333333 8 8 0 0 1 5.226666666666667 -15.146666666666665 15.893333333333333 15.893333333333333 0 0 0 11.52 0.7466666666666667 3.733333333333333 3.733333333333333 0 0 0 2.3466666666666667 -3.413333333333333c0 -2.3466666666666667 -3.733333333333333 -3.733333333333333 -5.546666666666667 -4.8 -16.426666666666666 -10.666666666666666 -14.933333333333332 -20.69333333333333 -10.666666666666666 -27.733333333333334 7.893333333333333 -13.12 26.453333333333333 -8.746666666666666 28.586666666666666 -8.106666666666666a7.893333333333333 7.893333333333333 0 0 1 5.653333333333333 9.386666666666667Zm47.78666666666667 49.17333333333333a8.106666666666666 8.106666666666666 0 0 1 -8.64 -7.359999999999999l0 -2.3466666666666667a2.5599999999999996 2.5599999999999996 0 0 0 -2.5599999999999996 -2.453333333333333h-8.32a2.5599999999999996 2.5599999999999996 0 0 0 -2.453333333333333 1.4933333333333334l-3.1999999999999997 6.826666666666666a8 8 0 0 1 -14.506666666666668 -6.933333333333334l20.69333333333333 -43.199999999999996a8.533333333333333 8.533333333333333 0 0 1 7.68 -4.906666666666666l7.893333333333333 0a8.106666666666666 8.106666666666666 0 0 1 7.786666666666666 7.359999999999999c0.8533333333333333 10.666666666666666 0.8533333333333333 10.666666666666666 3.52 42.666666666666664a8.106666666666666 8.106666666666666 0 0 1 -7.893333333333333 8.533333333333333Z" fill="#ffffff" stroke-width="10.6667"></path>
    <path d="m200.2133333333333 128.85333333333332 2.88 -6.186666666666666 0.5333333333333333 6.186666666666666 -3.413333333333333 0z" fill="#ffffff" stroke-width="10.6667"></path>
  </g>
</svg>