<svg xmlns="http://www.w3.org/2000/svg" viewBox="0 0 256 256" id="Credit-Card-1--Streamline-Ultimate" height="256" width="256">
  <desc>
    Credit Card 1 Streamline Icon: https://streamlinehq.com
  </desc>
  <g id="Credit-Card-1--Streamline-Ultimate.svg">
    <path d="M5.333333333333333 192a21.333333333333332 21.333333333333332 0 0 0 21.333333333333332 21.333333333333332h202.66666666666666a21.333333333333332 21.333333333333332 0 0 0 21.333333333333332 -21.333333333333332V101.33333333333333a2.6666666666666665 2.6666666666666665 0 0 0 -2.6666666666666665 -2.6666666666666665H8a2.6666666666666665 2.6666666666666665 0 0 0 -2.6666666666666665 2.6666666666666665ZM181.33333333333331 168h32a8 8 0 0 1 0 16h-32a8 8 0 0 1 0 -16Zm-133.33333333333331 -42.666666666666664h85.33333333333333a8 8 0 0 1 0 16h-85.33333333333333a8 8 0 0 1 0 -16Zm0 42.666666666666664h32a8 8 0 0 1 0 16h-32a8 8 0 0 1 0 -16Z" fill="#ffffff" stroke-width="10.6667"></path>
    <path d="M250.66666666666666 64a21.333333333333332 21.333333333333332 0 0 0 -21.333333333333332 -21.333333333333332h-202.66666666666666a21.333333333333332 21.333333333333332 0 0 0 -21.333333333333332 21.333333333333332v16a2.6666666666666665 2.6666666666666665 0 0 0 2.6666666666666665 2.6666666666666665h240a2.6666666666666665 2.6666666666666665 0 0 0 2.6666666666666665 -2.6666666666666665Z" fill="#ffffff" stroke-width="10.6667"></path>
  </g>
</svg>