<svg xmlns="http://www.w3.org/2000/svg" viewBox="0 0 256 256" id="Crypto-Currency-Bitcoin-Laptop--Streamline-Ultimate" height="256" width="256">
  <desc>
    Crypto Currency Bitcoin Laptop Streamline Icon: https://streamlinehq.com
  </desc>
  <g id="Crypto-Currency-Bitcoin-Laptop--Streamline-Ultimate.svg">
    <path d="M147.30666666666667 79.46666666666667a2.6666666666666665 2.6666666666666665 0 0 1 -1.5999999999999999 -2.453333333333333V69.33333333333333a8 8 0 0 0 -16 0V74.66666666666666a2.6666666666666665 2.6666666666666665 0 0 1 -2.6666666666666665 2.6666666666666665h-5.333333333333333a2.6666666666666665 2.6666666666666665 0 0 1 -2.6666666666666665 -2.6666666666666665v-5.333333333333333a8 8 0 0 0 -16 0V74.66666666666666a2.6666666666666665 2.6666666666666665 0 0 1 -2.6666666666666665 2.6666666666666665 8.106666666666666 8.106666666666666 0 0 0 -8 8v64a8.106666666666666 8.106666666666666 0 0 0 8 8 2.6666666666666665 2.6666666666666665 0 0 1 2.6666666666666665 2.6666666666666665v5.333333333333333a8 8 0 0 0 16 0V160a2.6666666666666665 2.6666666666666665 0 0 1 2.6666666666666665 -2.6666666666666665h5.333333333333333a2.6666666666666665 2.6666666666666665 0 0 1 2.6666666666666665 2.6666666666666665v5.333333333333333a8 8 0 0 0 16 0v-7.68a2.6666666666666665 2.6666666666666665 0 0 1 1.5999999999999999 -2.453333333333333 24 24 0 0 0 14.4 -21.866666666666664 23.46666666666667 23.46666666666667 0 0 0 -4.906666666666666 -14.4 2.5599999999999996 2.5599999999999996 0 0 1 0 -3.1999999999999997 23.46666666666667 23.46666666666667 0 0 0 4.906666666666666 -14.4 24 24 0 0 0 -14.4 -21.866666666666664ZM108.37333333333333 96a2.6666666666666665 2.6666666666666665 0 0 1 2.6666666666666665 -2.6666666666666665h26.666666666666664a8 8 0 0 1 0 16h-26.666666666666664a2.6666666666666665 2.6666666666666665 0 0 1 -2.6666666666666665 -2.6666666666666665Zm29.333333333333332 45.33333333333333h-26.666666666666664a2.6666666666666665 2.6666666666666665 0 0 1 -2.6666666666666665 -2.6666666666666665v-10.666666666666666a2.6666666666666665 2.6666666666666665 0 0 1 2.6666666666666665 -2.6666666666666665h26.666666666666664a8 8 0 0 1 0 16Z" fill="#ffffff" stroke-width="10.6667"></path>
    <path d="M254.9333333333333 199.14666666666668a11.306666666666667 11.306666666666667 0 0 0 -2.453333333333333 -8.746666666666666 10.666666666666666 10.666666666666666 0 0 0 -8.106666666666666 -3.733333333333333h-2.6666666666666665a2.6666666666666665 2.6666666666666665 0 0 1 -2.6666666666666665 -2.6666666666666665V48a21.333333333333332 21.333333333333332 0 0 0 -21.333333333333332 -21.333333333333332h-181.33333333333331a21.333333333333332 21.333333333333332 0 0 0 -21.333333333333332 21.333333333333332v136a2.6666666666666665 2.6666666666666665 0 0 1 -2.6666666666666665 2.6666666666666665h-0.7466666666666667a10.666666666666666 10.666666666666666 0 0 0 -8.106666666666666 3.733333333333333 10.666666666666666 10.666666666666666 0 0 0 -2.453333333333333 8.64l1.3866666666666667 8a26.560000000000002 26.560000000000002 0 0 0 26.24 22.29333333333333h198.61333333333334a26.560000000000002 26.560000000000002 0 0 0 26.24 -22.29333333333333ZM36.373333333333335 58.666666666666664a10.666666666666666 10.666666666666666 0 0 1 10.666666666666666 -10.666666666666666h160a10.666666666666666 10.666666666666666 0 0 1 10.666666666666666 10.666666666666666v117.33333333333333a10.666666666666666 10.666666666666666 0 0 1 -10.666666666666666 10.666666666666666h-160a10.666666666666666 10.666666666666666 0 0 1 -10.666666666666666 -10.666666666666666Z" fill="#ffffff" stroke-width="10.6667"></path>
  </g>
</svg>