<svg xmlns="http://www.w3.org/2000/svg" id="Crypto-Chat-Mobile-Phone--Streamline-Ultimate" width="256" height="256" fill="none" viewBox="0 0 256 256"><desc>Crypto Chat Mobile Phone Streamline Icon: https://streamlinehq.com</desc><path fill="#fff" stroke-width="10.667" d="M81.82826666666666 42.051199999999994c9.04 0 14.690133333333332 -9.786666666666665 10.170666666666666 -17.614933333333333 -2.098133333333333 -3.634133333333333 -5.9744 -5.872 -10.170666666666666 -5.872H40.99413333333333c-16.214399999999998 0 -29.357866666666666 13.144533333333332 -29.357866666666666 29.357866666666666v176.14933333333332c-0.0063999999999999994 16.218666666666664 13.139199999999999 29.3696 29.357866666666666 29.368533333333332h81.13493333333332c16.218666666666664 0.011733333333333333 29.3696 -13.139199999999999 29.357866666666666 -29.357866666666666v-51.69173333333333c0.023466666666666667 -6.779733333333334 -7.3002666666666665 -11.0432 -13.184 -7.6736 -2.7498666666666662 1.5744 -4.441599999999999 4.504533333333333 -4.430933333333333 7.6736v16.461866666666666c0 6.485333333333333 -5.2565333333333335 11.742933333333333 -11.742933333333333 11.742933333333333H40.99413333333333c-6.4864 0 -11.742933333333333 -5.2576 -11.742933333333333 -11.742933333333333V53.79413333333333c0 -6.485333333333333 5.2576 -11.742933333333333 11.742933333333333 -11.742933333333333h40.83413333333333Z"/><path fill="#fff" stroke-width="10.667" d="M162.5045333333333 93.32586666666666V78.34773333333334h15.159466666666667c5.7653333333333325 0.2165333333333333 9.133866666666666 6.593066666666666 6.064 11.477333333333334 -1.3184 2.098133333333333 -3.5882666666666663 3.408 -6.064 3.5008h-15.159466666666667Z"/><path fill="#fff" stroke-width="10.667" d="M177.664 62.6656h0.032c5.764266666666666 -0.22826666666666665 9.12 -6.6112 6.040533333333333 -11.490133333333333 -1.3237333333333332 -2.094933333333333 -3.5957333333333334 -3.4005333333333327 -6.072533333333333 -3.488h-15.159466666666667v14.978133333333332h15.159466666666667Z"/><path fill="#fff" fill-rule="evenodd" stroke-width="10.667" d="M95.46133333333333 158.79999999999998c-2.1002666666666663 1.0773333333333333 -4.660266666666667 0.6186666666666667 -6.256 -1.1210666666666667 -1.664 -1.6405333333333332 -2.1098666666666666 -4.1536 -1.1103999999999998 -6.266666666666667l17.9776 -37.97333333333333c0.3808 -0.8149333333333333 0.3808 -1.7568000000000001 0 -2.5728 -5.189333333333333 -10.819199999999999 -7.7152 -22.7232 -7.365333333333333 -34.7168 -0.4170666666666667 -19.357866666666666 6.961066666666666 -38.071466666666666 20.47573333333333 -51.93706666666667C132.68266666666665 10.384 151.18613333333332 2.5791999999999997 170.51093333333333 2.5610666666666666c22.711466666666666 -0.1472 44.20479999999999 10.251733333333332 58.1824 28.15253333333333 14.027733333333332 17.909333333333333 18.991999999999997 41.296 13.451733333333333 63.36 -5.528533333333333 22.040533333333332 -20.92053333333333 40.29653333333333 -41.70986666666666 49.470933333333335 -20.781866666666666 9.1328 -44.624 8.106666666666666 -64.54506666666666 -2.7754666666666665 -0.8138666666666667 -0.38613333333333333 -1.7589333333333332 -0.38613333333333333 -2.5728 0l-37.855999999999995 18.03093333333333ZM177.83466666666666 24.51093333333333c0 -6.032 -6.530133333333333 -9.802666666666667 -11.7536 -6.786133333333333 -2.424533333333333 1.3994666666666666 -3.917866666666667 3.986133333333333 -3.917866666666667 6.786133333333333v7.4944h-7.4944c-4.331733333333333 -0.0063999999999999994 -7.8464 3.504 -7.8464 7.835733333333334v61.331199999999995c0 4.3242666666666665 3.5231999999999997 7.8368 7.8464 7.8368h7.4944v7.493333333333333c0 6.033066666666667 6.530133333333333 9.802666666666667 11.7536 6.786133333333333 2.424533333333333 -1.3994666666666666 3.917866666666667 -3.986133333333333 3.917866666666667 -6.786133333333333v-7.493333333333333c17.833599999999997 -0.13013333333333332 28.837333333333333 -19.5168 19.809066666666666 -34.89493333333333 -0.7530666666666666 -1.2821333333333333 -1.6266666666666665 -2.4874666666666663 -2.610133333333333 -3.602133333333333 11.810133333333333 -13.362133333333333 4.7264 -34.49813333333333 -12.750933333333332 -38.044799999999995 -1.4613333333333334 -0.2965333333333333 -2.9471999999999996 -0.45119999999999993 -4.437333333333333 -0.46186666666666665v-7.4944Z" clip-rule="evenodd"/></svg>