<svg xmlns="http://www.w3.org/2000/svg" id="Crypto-Currency-Bitcoin-Code--Streamline-Ultimate" width="256" height="256" viewBox="0 0 256 256"><desc>Crypto Currency Bitcoin Code Streamline Icon: https://streamlinehq.com</desc><g id="Crypto-Currency-Bitcoin-Code--Streamline-Ultimate.svg"><path fill="#fff" stroke-width="10.667" d="M66.66666666666666 205.01333333333332a2.5599999999999996 2.5599999999999996 0 0 0 2.5599999999999996 2.5599999999999996H85.33333333333333A13.013333333333332 13.013333333333332 0 1 0 85.33333333333333 181.33333333333331H69.22666666666666a2.5599999999999996 2.5599999999999996 0 0 0 -2.5599999999999996 2.5599999999999996Z"/><path fill="#fff" stroke-width="10.667" d="M79.67999999999999 95.35999999999999a78.39999999999999 78.39999999999999 0 1 0 78.29333333333332 78.29333333333332 78.29333333333332 78.29333333333332 0 0 0 -78.29333333333332 -78.29333333333332Zm-28.69333333333333 36.586666666666666a7.893333333333333 7.893333333333333 0 0 1 7.786666666666666 -7.893333333333333H64a2.6666666666666665 2.6666666666666665 0 0 0 2.6666666666666665 -2.5599999999999996 7.893333333333333 7.893333333333333 0 1 1 15.68 0 2.5599999999999996 2.5599999999999996 0 0 0 2.5599999999999996 2.5599999999999996 28.69333333333333 28.69333333333333 0 0 1 28.69333333333333 28.8 28.373333333333335 28.373333333333335 0 0 1 -6.933333333333334 19.093333333333334 2.5599999999999996 2.5599999999999996 0 0 0 0 3.52 28.16 28.16 0 0 1 7.359999999999999 19.093333333333334A28.586666666666666 28.586666666666666 0 0 1 85.33333333333333 223.25333333333333a2.6666666666666665 2.6666666666666665 0 0 0 -2.5599999999999996 2.6666666666666665 7.893333333333333 7.893333333333333 0 0 1 -15.68 0 2.6666666666666665 2.6666666666666665 0 0 0 -3.093333333333333 -2.6666666666666665h-5.226666666666667a7.786666666666666 7.786666666666666 0 0 1 -7.786666666666666 -7.786666666666666Z"/><path fill="#fff" stroke-width="10.667" d="M98.02666666666666 152.85333333333332A13.12 13.12 0 0 0 85.33333333333333 139.73333333333332H69.22666666666666a2.6666666666666665 2.6666666666666665 0 0 0 -2.5599999999999996 2.6666666666666665v21.333333333333332a2.6666666666666665 2.6666666666666665 0 0 0 2.5599999999999996 2.6666666666666665H85.33333333333333a13.12 13.12 0 0 0 12.693333333333332 -13.546666666666667Z"/><path fill="#fff" stroke-width="10.667" d="M17.066666666666666 66.66666666666666a7.893333333333333 7.893333333333333 0 1 0 0 15.68h41.70666666666666a7.893333333333333 7.893333333333333 0 1 0 0 -15.68h-10.666666666666666A2.6666666666666665 2.6666666666666665 0 0 1 45.76 64V14.4a10.666666666666666 10.666666666666666 0 0 0 -10.666666666666666 -10.666666666666666 14.293333333333333 14.293333333333333 0 0 0 -10.026666666666666 4.053333333333333L11.52 21.973333333333333a7.786666666666666 7.786666666666666 0 0 0 0 10.666666666666666 8 8 0 0 0 10.666666666666666 0l2.986666666666667 -3.093333333333333a2.6666666666666665 2.6666666666666665 0 0 1 2.88 -0.5333333333333333 2.453333333333333 2.453333333333333 0 0 1 2.0266666666666664 2.986666666666667v32a2.6666666666666665 2.6666666666666665 0 0 1 -2.5599999999999996 2.6666666666666665Z"/><path fill="#fff" stroke-width="10.667" d="M100.58666666666666 82.34666666666666A28.8 28.8 0 0 0 129.27999999999997 53.33333333333333V32a28.69333333333333 28.69333333333333 0 1 0 -57.38666666666666 0v21.333333333333332a28.8 28.8 0 0 0 28.69333333333333 29.013333333333335ZM87.57333333333334 32.74666666666666a13.013333333333332 13.013333333333332 0 1 1 26.026666666666664 0V53.33333333333333a13.013333333333332 13.013333333333332 0 0 1 -26.026666666666664 0Z"/><path fill="#fff" stroke-width="10.667" d="M184.10666666666668 66.66666666666666h-10.666666666666666A2.6666666666666665 2.6666666666666665 0 0 1 170.66666666666666 64V14.4a10.666666666666666 10.666666666666666 0 0 0 -10.666666666666666 -10.666666666666666 14.08 14.08 0 0 0 -10.026666666666666 4.053333333333333l-13.76 13.866666666666667a7.786666666666666 7.786666666666666 0 0 0 0 10.666666666666666 8 8 0 0 0 10.666666666666666 0l2.986666666666667 -3.093333333333333a2.6666666666666665 2.6666666666666665 0 0 1 2.88 -0.5333333333333333 2.453333333333333 2.453333333333333 0 0 1 1.5999999999999999 2.3466666666666667V64a2.6666666666666665 2.6666666666666665 0 0 1 -2.5599999999999996 2.6666666666666665h-10.666666666666666a7.893333333333333 7.893333333333333 0 1 0 0 15.68h41.70666666666666a7.893333333333333 7.893333333333333 0 1 0 0 -15.68Z"/><path fill="#fff" stroke-width="10.667" d="M225.92 4.053333333333333a28.586666666666666 28.586666666666666 0 0 0 -28.69333333333333 28.69333333333333V53.33333333333333a28.69333333333333 28.69333333333333 0 0 0 57.38666666666666 0V32A28.69333333333333 28.69333333333333 0 0 0 225.92 4.053333333333333ZM238.9333333333333 53.33333333333333A13.12 13.12 0 0 1 213.33333333333331 53.33333333333333V32a13.12 13.12 0 1 1 26.133333333333333 0Z"/><path fill="#fff" stroke-width="10.667" d="M246.82666666666665 150.18666666666667h-10.666666666666666a2.6666666666666665 2.6666666666666665 0 0 1 -2.6666666666666665 -2.5599999999999996V98.02666666666666a10.666666666666666 10.666666666666666 0 0 0 -10.666666666666666 -10.666666666666666 13.866666666666667 13.866666666666667 0 0 0 -9.92 4.053333333333333l-13.866666666666667 13.866666666666667a7.893333333333333 7.893333333333333 0 0 0 10.666666666666666 10.666666666666666l3.093333333333333 -3.093333333333333a2.453333333333333 2.453333333333333 0 0 1 2.7733333333333334 -0.5333333333333333 2.6666666666666665 2.6666666666666665 0 0 1 1.5999999999999999 2.3466666666666667v32a2.5599999999999996 2.5599999999999996 0 0 1 -2.5599999999999996 2.5599999999999996h-10.666666666666666a7.893333333333333 7.893333333333333 0 0 0 0 15.68h41.81333333333333a7.893333333333333 7.893333333333333 0 0 0 0 -15.68Z"/><path fill="#fff" stroke-width="10.667" d="M163.2 87.57333333333334a29.013333333333335 29.013333333333335 0 0 0 -7.359999999999999 0.96 7.786666666666666 7.786666666666666 0 0 0 -5.546666666666667 9.493333333333332 7.893333333333333 7.893333333333333 0 0 0 9.6 5.653333333333333 13.226666666666667 13.226666666666667 0 0 1 16.426666666666666 12.586666666666666v21.333333333333332a13.12 13.12 0 0 1 -1.8133333333333335 6.613333333333333 7.786666666666666 7.786666666666666 0 0 0 2.6666666666666665 10.666666666666666 8 8 0 0 0 4.053333333333333 1.0666666666666667 7.893333333333333 7.893333333333333 0 0 0 6.72 -3.84 28.16 28.16 0 0 0 4.053333333333333 -14.933333333333332v-21.333333333333332a28.69333333333333 28.69333333333333 0 0 0 -28.8 -28.266666666666666Z"/><path fill="#fff" stroke-width="10.667" d="M184.10666666666668 233.70666666666665h-10.666666666666666a2.5599999999999996 2.5599999999999996 0 0 1 -2.5599999999999996 -2.5599999999999996v-5.333333333333333a7.893333333333333 7.893333333333333 0 0 0 -15.68 0v5.333333333333333a2.5599999999999996 2.5599999999999996 0 0 1 -2.5599999999999996 2.5599999999999996 7.893333333333333 7.893333333333333 0 1 0 0 15.68h32a7.893333333333333 7.893333333333333 0 1 0 0 -15.68Z"/><path fill="#fff" stroke-width="10.667" d="M225.92 170.66666666666666a28.69333333333333 28.69333333333333 0 0 0 -28.69333333333333 28.69333333333333v21.333333333333332a28.69333333333333 28.69333333333333 0 1 0 57.38666666666666 0v-21.333333333333332A28.8 28.8 0 0 0 225.92 170.66666666666666Zm13.013333333333332 49.6a13.12 13.12 0 0 1 -26.133333333333333 0v-21.333333333333332a13.12 13.12 0 0 1 26.133333333333333 0Z"/></g></svg>