<svg xmlns="http://www.w3.org/2000/svg" fill="none" viewBox="0 0 256 256" id="Crypto-Encryption-Key--Streamline-Ultimate" height="256" width="256">
  <desc>
    Crypto Encryption Key Streamline Icon: https://streamlinehq.com
  </desc>
  <path fill="#ffffff" fill-rule="evenodd" d="M190.8768 49.88704c5.788799999999999 -0.11829333333333332 10.444799999999999 -4.847573333333333 10.444799999999999 -10.664426666666666 0 -5.890986666666667 -4.7754666666666665 -10.666666666666666 -10.666666666666666 -10.666666666666666 -11.659733333333332 0 -21.111466666666665 9.451839999999999 -21.111466666666665 21.111146666666667v31.333333333333332c0 5.891093333333332 4.7754666666666665 10.666666666666666 10.666666666666666 10.666666666666666s10.666666666666666 -4.775573333333333 10.666666666666666 -10.666666666666666V49.88704Z" clip-rule="evenodd" stroke-width="10.6667"></path>
  <path fill="#ffffff" fill-rule="evenodd" d="M106.87786666666666 23.555946666666664c0 -5.890986666666667 4.776533333333333 -10.666666666666666 10.666666666666666 -10.666666666666666h20.884266666666665c11.659733333333332 0 21.111466666666665 9.451839999999999 21.111466666666665 21.111146666666667v47c0 5.891093333333332 -4.776533333333333 10.666666666666666 -10.666666666666666 10.666666666666666 -5.8911999999999995 0 -10.666666666666666 -4.775573333333333 -10.666666666666666 -10.666666666666666V34.22261333333333h-20.662399999999998c-5.890133333333333 0 -10.666666666666666 -4.775573333333333 -10.666666666666666 -10.666666666666666Z" clip-rule="evenodd" stroke-width="10.6667"></path>
  <path fill="#ffffff" fill-rule="evenodd" d="M169.76639999999998 169.55626666666666c5.8911999999999995 0 10.666666666666666 4.7754666666666665 10.666666666666666 10.666666666666666v31.1104h10.222933333333334c5.8911999999999995 0 10.666666666666666 4.776533333333333 10.666666666666666 10.666666666666666 0 5.8911999999999995 -4.7754666666666665 10.666666666666666 -10.666666666666666 10.666666666666666h-10.444799999999999c-11.658666666666665 0 -21.111466666666665 -9.451733333333333 -21.111466666666665 -21.1104v-31.333333333333332c0 -5.8911999999999995 4.776533333333333 -10.666666666666666 10.666666666666666 -10.666666666666666Z" clip-rule="evenodd" stroke-width="10.6667"></path>
  <path fill="#ffffff" fill-rule="evenodd" d="M127.98826666666668 164.3328c5.8911999999999995 0 10.666666666666666 4.776533333333333 10.666666666666666 10.666666666666666v47.00053333333333c0 11.659733333333332 -9.451733333333333 21.111466666666665 -21.111466666666665 21.111466666666665H96.65493333333333c-5.890986666666667 0 -10.666666666666666 -4.7754666666666665 -10.666666666666666 -10.666666666666666s4.7756799999999995 -10.666666666666666 10.666666666666666 -10.666666666666666h20.666666666666664v-46.778666666666666c0 -5.890133333333333 4.7754666666666665 -10.666666666666666 10.666666666666666 -10.666666666666666Z" clip-rule="evenodd" stroke-width="10.6667"></path>
  <path fill="#ffffff" d="M33.99466666666666 232.448a20.88533333333333 20.88533333333333 0 1 0 41.77066666666666 0 20.88533333333333 20.88533333333333 0 1 0 -41.77066666666666 0" stroke-width="10.6667"></path>
  <path fill="#ffffff" d="M211.55199999999996 222.0053333333333a20.88533333333333 20.88533333333333 0 1 0 41.77066666666666 0 20.88533333333333 20.88533333333333 0 1 0 -41.77066666666666 0" stroke-width="10.6667"></path>
  <path fill="#ffffff" d="M211.55199999999996 39.232a20.88533333333333 20.88533333333333 0 1 0 41.77066666666666 0 20.88533333333333 20.88533333333333 0 1 0 -41.77066666666666 0" stroke-width="10.6667"></path>
  <path fill="#ffffff" d="M54.879999999999995 23.552a20.88533333333333 20.88533333333333 0 1 0 41.77066666666666 0 20.88533333333333 20.88533333333333 0 1 0 -41.77066666666666 0" stroke-width="10.6667"></path>
  <path fill="#ffffff" d="M253.3216 121.74826666666667c-0.3712 -4.452266666666667 -2.4042666666666666 -8.593066666666665 -5.685333333333333 -11.578666666666665 -3.2810666666666664 -2.9856 -7.562666666666666 -4.589973333333333 -11.972266666666666 -4.487146666666666H124.45653333333333c-3.7429333333333332 -13.100906666666667 -11.572266666666666 -24.621546666666664 -22.317546666666665 -32.83744 -10.745280000000001 -8.215786666666666 -23.82816 -12.684906666666667 -37.29013333333333 -12.73824h-5.960746666666666c-15.297066666666666 1.66848 -29.462186666666668 8.952106666666666 -39.82197333333333 20.476053333333333C8.706421333333333 92.10677333333332 2.8687573333333334 107.07413333333332 2.654944 122.6592c0.029792 16.66133333333333 6.583648 32.629333333333335 18.222922666666665 44.39999999999999 11.63936 11.769599999999999 27.413013333333332 18.3808 43.85856 18.3808 13.470293333333332 0.034133333333333335 26.580693333333333 -4.4042666666666666 37.325226666666666 -12.634666666666668 10.744746666666666 -8.231466666666666 18.531413333333333 -19.8016 22.16981333333333 -32.940799999999996h37.09226666666666c0.5066666666666666 -0.0021333333333333334 1.0026666666666666 0.13546666666666665 1.4389333333333332 0.3957333333333333 0.43520000000000003 0.26026666666666665 0.7925333333333333 0.6357333333333333 1.0357333333333334 1.0848l10.571733333333333 18.914133333333332c0.4725333333333333 0.8767999999999999 1.1733333333333333 1.6064 2.0256 2.1087999999999996 0.8522666666666666 0.5013333333333333 1.824 0.7573333333333332 2.8106666666666666 0.7402666666666666 0.96 0.017066666666666667 1.9082666666666666 -0.21439999999999998 2.754133333333333 -0.6730666666666667 0.8469333333333333 -0.4586666666666666 1.5637333333333334 -1.1296 2.082133333333333 -1.9477333333333333l11.921066666666665 -19.255466666666663c0.25279999999999997 -0.39893333333333336 0.6037333333333332 -0.7232 1.0175999999999998 -0.9429333333333334 0.41386666666666666 -0.21973333333333334 0.8767999999999999 -0.3274666666666667 1.3439999999999999 -0.3104h2.3616c0.5066666666666666 -0.0021333333333333334 1.0026666666666666 0.13546666666666665 1.4389333333333332 0.3957333333333333 0.43520000000000003 0.26026666666666665 0.7925333333333333 0.6357333333333333 1.0357333333333334 1.0848l10.7968 18.458666666666666c0.4725333333333333 0.8767999999999999 1.1733333333333333 1.6053333333333333 2.0256 2.107733333333333 0.8522666666666666 0.5024 1.824 0.7584 2.8106666666666666 0.7402666666666666 0.96 0.01813333333333333 1.9082666666666666 -0.21333333333333332 2.754133333333333 -0.6719999999999999 0.8469333333333333 -0.4586666666666666 1.5637333333333334 -1.1296 2.082133333333333 -1.9487999999999999l12.820266666666665 -20.28053333333333c2.2986666666666666 -0.012799999999999999 4.570666666666666 -0.49706666666666666 6.679466666666666 -1.4250666666666665 2.107733333333333 -0.9279999999999999 4.008533333333333 -2.2794666666666665 5.585066666666666 -3.973333333333333 1.5776 -1.6938666666666666 2.7989333333333333 -3.694933333333333 3.5904 -5.880533333333333 0.7914666666666667 -2.1866666666666665 1.1370666666666667 -4.512 1.0154666666666667 -6.8373333333333335Zm-200.05674666666667 15.04c-2.78048 0 -5.4985599999999994 -0.8351999999999999 -7.810346666666666 -2.4010666666666665 -2.311893333333333 -1.5648 -4.113813333333333 -3.7888 -5.177813333333333 -6.391466666666666 -1.0641066666666665 -2.6026666666666665 -1.3425066666666665 -5.465599999999999 -0.7999999999999999 -8.229333333333333 0.5424 -2.7626666666666666 1.8812799999999998 -5.3002666666666665 3.8474666666666666 -7.291733333333333 1.96608 -1.9914666666666667 4.470933333333333 -3.3482666666666665 7.198079999999999 -3.8975999999999997 2.7270399999999997 -0.5504 5.553599999999999 -0.2677333333333333 8.122453333333333 0.8106666666666666 2.568853333333333 1.0773333333333333 4.76448 2.9024 6.309226666666666 5.2448 1.5447466666666667 2.3423999999999996 2.3691733333333334 5.096533333333333 2.3691733333333334 7.912533333333333 0 1.8709333333333333 -0.36362666666666665 3.722666666666666 -1.07008 5.450666666666667 -0.7064533333333333 1.728 -1.7420799999999999 3.298133333333333 -3.0474666666666668 4.620799999999999 -1.3053866666666667 1.3226666666666667 -2.8552533333333328 2.3712 -4.560853333333333 3.086933333333333 -1.7055999999999998 0.7157333333333333 -3.5336533333333335 1.0848 -5.37984 1.0848Z" stroke-width="10.6667"></path>
</svg>