<svg xmlns="http://www.w3.org/2000/svg" id="Crypto-Currency-Bitcoin-Monitor-Mining--Streamline-Ultimate" width="256" height="256" viewBox="0 0 256 256"><desc>Crypto Currency Bitcoin Monitor Mining Streamline Icon: https://streamlinehq.com</desc><g id="Crypto-Currency-Bitcoin-Monitor-Mining--Streamline-Ultimate.svg"><path fill="#fff" stroke-width="10.667" d="M93.33333333333333 144a8.106666666666666 8.106666666666666 0 0 0 8 8 2.6666666666666665 2.6666666666666665 0 0 1 2.6666666666666665 2.6666666666666665v10.666666666666666a8 8 0 0 0 16 0v-10.666666666666666a2.6666666666666665 2.6666666666666665 0 0 1 2.6666666666666665 -2.6666666666666665h5.333333333333333a2.6666666666666665 2.6666666666666665 0 0 1 2.6666666666666665 2.6666666666666665v10.666666666666666a8 8 0 0 0 16 0v-13.013333333333332a2.6666666666666665 2.6666666666666665 0 0 1 1.5999999999999999 -2.453333333333333A24 24 0 0 0 162.66666666666666 128a23.46666666666667 23.46666666666667 0 0 0 -4.906666666666666 -14.4 2.5599999999999996 2.5599999999999996 0 0 1 0 -3.1999999999999997A23.46666666666667 23.46666666666667 0 0 0 162.66666666666666 96a24 24 0 0 0 -14.4 -21.333333333333332 2.6666666666666665 2.6666666666666665 0 0 1 -1.5999999999999999 -2.453333333333333V58.879999999999995a8 8 0 0 0 -16 0v10.666666666666666a2.6666666666666665 2.6666666666666665 0 0 1 -2.6666666666666665 2.6666666666666665h-5.333333333333333a2.6666666666666665 2.6666666666666665 0 0 1 -2.6666666666666665 -2.6666666666666665v-10.666666666666666a8 8 0 0 0 -16 0v10.666666666666666a2.6666666666666665 2.6666666666666665 0 0 1 -2.6666666666666665 2.6666666666666665 8.106666666666666 8.106666666666666 0 0 0 -8 8ZM138.66666666666666 88a8 8 0 0 1 0 16h-26.666666666666664a2.6666666666666665 2.6666666666666665 0 0 1 -2.6666666666666665 -2.6666666666666665v-10.666666666666666a2.6666666666666665 2.6666666666666665 0 0 1 2.6666666666666665 -2.6666666666666665Zm0 48h-26.666666666666664a2.6666666666666665 2.6666666666666665 0 0 1 -2.6666666666666665 -2.6666666666666665v-10.666666666666666a2.6666666666666665 2.6666666666666665 0 0 1 2.6666666666666665 -2.6666666666666665H138.66666666666666a8 8 0 0 1 0 16Z"/><path fill="#fff" stroke-width="10.667" d="M160 16H96a10.666666666666666 10.666666666666666 0 0 0 0 21.333333333333332h64a10.666666666666666 10.666666666666666 0 0 0 0 -21.333333333333332Z"/><path fill="#fff" stroke-width="10.667" d="M160 197.33333333333331H96a10.666666666666666 10.666666666666666 0 0 0 0 21.333333333333332h64a10.666666666666666 10.666666666666666 0 0 0 0 -21.333333333333332Z"/><path fill="#fff" stroke-width="10.667" d="M218.66666666666666 170.66666666666666a10.666666666666666 10.666666666666666 0 0 0 10.666666666666666 -10.666666666666666V96a10.666666666666666 10.666666666666666 0 0 0 -21.333333333333332 0v64a10.666666666666666 10.666666666666666 0 0 0 10.666666666666666 10.666666666666666Z"/><path fill="#fff" stroke-width="10.667" d="M48 160V96a10.666666666666666 10.666666666666666 0 0 0 -21.333333333333332 0v64a10.666666666666666 10.666666666666666 0 0 0 21.333333333333332 0Z"/><path fill="#fff" stroke-width="10.667" d="M64 181.33333333333331H10.666666666666666a10.666666666666666 10.666666666666666 0 0 0 -10.666666666666666 10.666666666666666v53.33333333333333a10.666666666666666 10.666666666666666 0 0 0 10.666666666666666 10.666666666666666h53.33333333333333a10.666666666666666 10.666666666666666 0 0 0 10.666666666666666 -10.666666666666666v-53.33333333333333a10.666666666666666 10.666666666666666 0 0 0 -10.666666666666666 -10.666666666666666Zm-10.666666666666666 50.666666666666664a2.6666666666666665 2.6666666666666665 0 0 1 -2.6666666666666665 2.6666666666666665h-26.666666666666664a2.6666666666666665 2.6666666666666665 0 0 1 -2.6666666666666665 -2.6666666666666665v-26.666666666666664a2.6666666666666665 2.6666666666666665 0 0 1 2.6666666666666665 -2.6666666666666665h26.666666666666664a2.6666666666666665 2.6666666666666665 0 0 1 2.6666666666666665 2.6666666666666665Z"/><path fill="#fff" stroke-width="10.667" d="M64 0H10.666666666666666a10.666666666666666 10.666666666666666 0 0 0 -10.666666666666666 10.666666666666666v53.33333333333333a10.666666666666666 10.666666666666666 0 0 0 10.666666666666666 10.666666666666666h53.33333333333333a10.666666666666666 10.666666666666666 0 0 0 10.666666666666666 -10.666666666666666V10.666666666666666a10.666666666666666 10.666666666666666 0 0 0 -10.666666666666666 -10.666666666666666ZM53.33333333333333 50.666666666666664a2.6666666666666665 2.6666666666666665 0 0 1 -2.6666666666666665 2.6666666666666665h-26.666666666666664A2.6666666666666665 2.6666666666666665 0 0 1 21.333333333333332 50.666666666666664v-26.666666666666664A2.6666666666666665 2.6666666666666665 0 0 1 24 21.333333333333332h26.666666666666664a2.6666666666666665 2.6666666666666665 0 0 1 2.6666666666666665 2.6666666666666665Z"/><path fill="#fff" stroke-width="10.667" d="M245.33333333333331 0h-53.33333333333333a10.666666666666666 10.666666666666666 0 0 0 -10.666666666666666 10.666666666666666v53.33333333333333a10.666666666666666 10.666666666666666 0 0 0 10.666666666666666 10.666666666666666h53.33333333333333a10.666666666666666 10.666666666666666 0 0 0 10.666666666666666 -10.666666666666666V10.666666666666666a10.666666666666666 10.666666666666666 0 0 0 -10.666666666666666 -10.666666666666666Zm-10.666666666666666 50.666666666666664a2.6666666666666665 2.6666666666666665 0 0 1 -2.6666666666666665 2.6666666666666665h-26.666666666666664a2.6666666666666665 2.6666666666666665 0 0 1 -2.6666666666666665 -2.6666666666666665v-26.666666666666664a2.6666666666666665 2.6666666666666665 0 0 1 2.6666666666666665 -2.6666666666666665h26.666666666666664a2.6666666666666665 2.6666666666666665 0 0 1 2.6666666666666665 2.6666666666666665Z"/><path fill="#fff" stroke-width="10.667" d="M245.33333333333331 181.33333333333331h-53.33333333333333a10.666666666666666 10.666666666666666 0 0 0 -10.666666666666666 10.666666666666666v53.33333333333333a10.666666666666666 10.666666666666666 0 0 0 10.666666666666666 10.666666666666666h53.33333333333333a10.666666666666666 10.666666666666666 0 0 0 10.666666666666666 -10.666666666666666v-53.33333333333333a10.666666666666666 10.666666666666666 0 0 0 -10.666666666666666 -10.666666666666666Zm-10.666666666666666 50.666666666666664a2.6666666666666665 2.6666666666666665 0 0 1 -2.6666666666666665 2.6666666666666665h-26.666666666666664a2.6666666666666665 2.6666666666666665 0 0 1 -2.6666666666666665 -2.6666666666666665v-26.666666666666664a2.6666666666666665 2.6666666666666665 0 0 1 2.6666666666666665 -2.6666666666666665h26.666666666666664a2.6666666666666665 2.6666666666666665 0 0 1 2.6666666666666665 2.6666666666666665Z"/></g></svg>