<svg xmlns="http://www.w3.org/2000/svg" viewBox="0 0 256 256" id="Crypto-Currency-Bitcoin-Dollar-Exchange--Streamline-Ultimate" height="256" width="256">
  <desc>
    Crypto Currency Bitcoin Dollar Exchange Streamline Icon: https://streamlinehq.com
  </desc>
  <g id="Crypto-Currency-Bitcoin-Dollar-Exchange--Streamline-Ultimate.svg">
    <path d="M226.30079999999998 175.2448c-2.0031999999999996 -2.0191999999999997 -5.268266666666666 -2.0191999999999997 -7.2703999999999995 0l-20.483199999999997 20.48213333333333c-1.5189333333333332 1.456 -1.9690666666666665 3.7055999999999996 -1.1263999999999998 5.633066666666666 0.8074666666666667 1.8944 2.6528 3.138133333333333 4.7114666666666665 3.1743999999999994h5.734399999999999c0.8757333333333334 0.03093333333333333 1.68 0.49066666666666664 2.1514666666666664 1.2288 0.46826666666666666 0.7157333333333333 0.46826666666666666 1.6405333333333332 0 2.3562666666666665 -7.305599999999999 14.3392 -22.3296 23.073066666666666 -38.404266666666665 22.325333333333333 -7.883733333333333 0.025599999999999998 -12.783999999999999 8.576 -8.820266666666665 15.389866666666666 1.8282666666666665 3.1423999999999994 5.185066666666666 5.080533333333333 8.820266666666665 5.092266666666666 30.7232 0 55.71093333333333 -19.355733333333333 60.422399999999996 -44.24106666666666 0.28159999999999996 -1.1904 1.3376000000000001 -2.034133333333333 2.5599999999999996 -2.0490666666666666h8.602666666666666c2.075733333333333 0.01813333333333333 3.9487999999999994 -1.2437333333333331 4.7114666666666665 -3.1743999999999994 0.8245333333333332 -1.8965333333333334 0.37439999999999996 -4.107733333333333 -1.1274666666666666 -5.530666666666666Z" fill="#ffffff" stroke-width="10.6667"></path>
    <path d="M24.653866666666666 80.5152c0.9343999999999999 0.9674666666666667 2.238933333333333 1.4890666666666665 3.584 1.4335999999999998 1.3429333333333333 0.042666666666666665 2.6421333333333332 -0.47679999999999995 3.584 -1.4335999999999998L52.304 60.032c2.7594666666666665 -2.8138666666666663 1.4367999999999999 -7.560533333333333 -2.3808 -8.542933333333332 -0.4256 -0.10986666666666667 -0.8650666666666667 -0.16426666666666667 -1.3055999999999999 -0.16106666666666666h-5.735466666666666c-0.8554666666666666 -0.008533333333333334 -1.6565333333333332 -0.4277333333333333 -2.1504 -1.1274666666666666 -0.4010666666666667 -0.7701333333333333 -0.4010666666666667 -1.6874666666666667 0 -2.4576 7.379199999999999 -14.2944 22.441599999999998 -22.9472 38.50666666666666 -22.12053333333333 7.883733333333333 -0.025599999999999998 12.782933333333332 -8.576 8.819199999999999 -15.389866666666666 -1.8272 -3.1423999999999994 -5.183999999999999 -5.080533333333333 -8.819199999999999 -5.092266666666666C51.1904 3.8143999999999996 26.02133333333333 22.2432 18.816 49.38133333333333c-0.2826666666666666 1.1904 -1.3376000000000001 2.034133333333333 -2.5599999999999996 2.0490666666666666H7.653333333333333c-2.0671999999999997 0.0096 -3.925333333333333 1.2618666666666667 -4.7114666666666665 3.1743999999999994 -0.7829333333333334 1.9338666666666664 -0.3402666666666666 4.148266666666666 1.1263999999999998 5.632Z" fill="#ffffff" stroke-width="10.6667"></path>
    <path d="M107.50399999999999 158.75733333333332c-0.055466666666666664 -4.219733333333333 -3.4623999999999997 -7.6255999999999995 -7.681066666666666 -7.681066666666666H74.2208c-1.4143999999999999 0 -2.5610666666666666 1.1466666666666665 -2.5610666666666666 2.5599999999999996v10.241066666666665c0 1.4143999999999999 1.1466666666666665 2.5610666666666666 2.5610666666666666 2.5610666666666666h25.60213333333333c4.219733333333333 -0.055466666666666664 7.6255999999999995 -3.4623999999999997 7.681066666666666 -7.681066666666666Z" fill="#ffffff" stroke-width="10.6667"></path>
    <path d="M99.82293333333332 181.69706666666664H74.2208c-1.4143999999999999 0 -2.5610666666666666 1.1466666666666665 -2.5610666666666666 2.5599999999999996v10.241066666666665c0 1.4143999999999999 1.1466666666666665 2.5610666666666666 2.5610666666666666 2.5610666666666666h25.60213333333333c5.912533333333333 -0.0010666666666666667 9.608533333333334 -6.401066666666666 6.6517333333333335 -11.522133333333333 -1.3717333333333332 -2.3754666666666666 -3.9072 -3.84 -6.6517333333333335 -3.84Z" fill="#ffffff" stroke-width="10.6667"></path>
    <path d="M87.02186666666667 97.30986666666666c-59.12746666666666 -0.0021333333333333334 -96.08106666666666 64.00319999999999 -66.51946666666666 115.2096 29.560533333333332 51.20746666666666 103.46986666666666 51.21066666666667 133.03573333333333 0.0063999999999999994 6.7424 -11.6768 10.292266666666666 -24.92373333333333 10.292266666666666 -38.407466666666664 -0.11306666666666666 -42.373333333333335 -34.435199999999995 -76.69546666666666 -76.80853333333333 -76.80853333333333ZM66.53973333333333 220.20373333333333v-5.121066666666667c0 -1.4133333333333333 -1.1466666666666665 -2.5599999999999996 -2.5599999999999996 -2.5599999999999996 -4.3072 0.05973333333333333 -7.798399999999999 -3.477333333333333 -7.681066666666666 -7.7834666666666665v-61.4464c0 -4.242133333333333 3.4378666666666664 -7.681066666666666 7.681066666666666 -7.681066666666666 1.4133333333333333 0 2.5599999999999996 -1.1456 2.5599999999999996 -2.5599999999999996v-5.018666666666666c0 -5.912533333333333 6.3999999999999995 -9.607466666666665 11.521066666666666 -6.6517333333333335 2.376533333333333 1.3728 3.84 3.9082666666666666 3.84 6.6517333333333335v5.121066666666667c0 1.4143999999999999 1.1466666666666665 2.5599999999999996 2.5610666666666666 2.5599999999999996h5.119999999999999c1.4143999999999999 0 2.5610666666666666 -1.1456 2.5610666666666666 -2.5599999999999996v-5.121066666666667c0 -5.912533333333333 6.3999999999999995 -9.607466666666665 11.521066666666666 -6.6517333333333335 2.376533333333333 1.3728 3.84 3.9082666666666666 3.84 6.6517333333333335v7.373866666666666c-0.0031999999999999997 1.0218666666666665 0.6005333333333334 1.9477333333333333 1.5359999999999998 2.3552 13.709866666666667 5.819733333333333 18.215466666666664 23.0304 9.114666666666666 34.82026666666667 -0.7189333333333333 0.8981333333333332 -0.7189333333333333 2.174933333333333 0 3.0719999999999996 3.0016 3.9903999999999997 4.652799999999999 8.833066666666666 4.7114666666666665 13.826133333333333 -0.035199999999999995 9.1456 -5.453866666666666 17.413333333333334 -13.826133333333333 21.096533333333333 -0.9023999999999999 0.3936 -1.4997333333333334 1.2693333333333332 -1.5359999999999998 2.2527999999999997v7.373866666666666c0 5.912533333333333 -6.401066666666666 9.608533333333334 -11.521066666666666 6.6517333333333335 -2.376533333333333 -1.3717333333333332 -3.8410666666666664 -3.9072 -3.8410666666666664 -6.6517333333333335v-5.121066666666667c0 -1.4133333333333333 -1.1456 -2.5599999999999996 -2.5599999999999996 -2.5599999999999996h-5.119999999999999c-1.4143999999999999 0 -2.5610666666666666 1.1466666666666665 -2.5610666666666666 2.5599999999999996v5.121066666666667c-0.021333333333333333 5.912533333333333 -6.436266666666667 9.584 -11.5456 6.609066666666667 -2.3541333333333334 -1.3706666666666667 -3.8058666666666667 -3.885866666666667 -3.8154666666666666 -6.609066666666667Z" fill="#ffffff" stroke-width="10.6667"></path>
    <path d="M197.11359999999996 117.79199999999999c43.36 0 70.45973333333333 -46.9376 48.77973333333333 -84.48853333333332 -21.68 -37.55093333333333 -75.87946666666666 -37.55093333333333 -97.55946666666667 0 -4.944 8.562133333333332 -7.546666666666667 18.275199999999998 -7.546666666666667 28.163199999999996 0 31.108266666666665 25.21813333333333 56.32533333333333 56.32639999999999 56.32533333333333Zm12.802133333333332 -89.712c5.912533333333333 0 9.607466666666665 6.401066666666666 6.6517333333333335 11.521066666666666 -1.3728 2.376533333333333 -3.9082666666666666 3.8410666666666664 -6.6517333333333335 3.8410666666666664h-17.410133333333334c-2.0533333333333332 0.055466666666666664 -3.6874666666666664 1.7354666666666667 -3.6874666666666664 3.7888 -0.01813333333333333 1.5392000000000001 0.9205333333333333 2.926933333333333 2.3562666666666665 3.482666666666667l17.613866666666667 7.0656c7.261866666666666 2.932266666666666 12.007466666666666 9.989333333333333 11.982933333333332 17.819733333333332 0.0031999999999999997 8.612266666666667 -5.803733333333334 16.144 -14.133333333333333 18.331733333333332 -1.0922666666666667 0.3189333333333333 -1.8432 1.3205333333333331 -1.8432 2.4576v0.9216c-0.03093333333333333 5.912533333333333 -6.4512 9.574399999999999 -11.556266666666666 6.590933333333333 -2.344533333333333 -1.3695999999999997 -3.7909333333333333 -3.8752 -3.8058666666666667 -6.590933333333333 0 -1.4133333333333333 -1.1456 -2.5599999999999996 -2.5599999999999996 -2.5599999999999996h-2.5599999999999996c-5.912533333333333 0 -9.608533333333334 -6.401066666666666 -6.6517333333333335 -11.521066666666666 1.3717333333333332 -2.376533333333333 3.9072 -3.8410666666666664 6.6517333333333335 -3.8410666666666664h17.30773333333333c2.075733333333333 0.05866666666666666 3.7898666666666667 -1.6096 3.7888 -3.6864 0.032 -1.5669333333333333 -0.9045333333333333 -2.992 -2.3552 -3.584l-17.614933333333333 -6.964266666666667c-13.6896 -5.4719999999999995 -16.322133333333333 -23.710933333333333 -4.739199999999999 -32.82986666666666 2.011733333333333 -1.5839999999999999 4.318933333333333 -2.747733333333333 6.7871999999999995 -3.424 1.1711999999999998 -0.28906666666666664 1.9808 -1.3546666666666667 1.9456 -2.5599999999999996v-0.7167999999999999c0 -5.912533333333333 6.401066666666666 -9.608533333333334 11.522133333333333 -6.6517333333333335 2.376533333333333 1.3717333333333332 3.84 3.9072 3.84 6.6517333333333335 0 1.4143999999999999 1.1466666666666665 2.5599999999999996 2.5599999999999996 2.5599999999999996Z" fill="#ffffff" stroke-width="10.6667"></path>
  </g>
</svg>