<svg xmlns="http://www.w3.org/2000/svg" viewBox="0 0 256 256" id="Crypto-Currency-Bitcoin-Chip--Streamline-Ultimate" height="256" width="256">
  <desc>
    Crypto Currency Bitcoin Chip Streamline Icon: https://streamlinehq.com
  </desc>
  <g id="Crypto-Currency-Bitcoin-Chip--Streamline-Ultimate.svg">
    <path d="M140.79999999999998 136H106.66666666666666a2.6666666666666665 2.6666666666666665 0 0 0 -2.6666666666666665 2.6666666666666665v17.066666666666666a2.6666666666666665 2.6666666666666665 0 0 0 2.6666666666666665 2.6666666666666665h34.13333333333333a11.2 11.2 0 1 0 0 -22.4Z" fill="#ffffff" stroke-width="10.6667"></path>
    <path d="M152 108.79999999999998a10.666666666666666 10.666666666666666 0 0 0 -11.2 -10.666666666666666H106.66666666666666a2.6666666666666665 2.6666666666666665 0 0 0 -2.6666666666666665 2.6666666666666665V117.33333333333333a2.6666666666666665 2.6666666666666665 0 0 0 2.6666666666666665 2.6666666666666665h34.13333333333333a10.666666666666666 10.666666666666666 0 0 0 11.2 -11.2Z" fill="#ffffff" stroke-width="10.6667"></path>
    <path d="M245.33333333333331 133.33333333333331a10.666666666666666 10.666666666666666 0 0 0 0 -21.333333333333332h-24a2.6666666666666665 2.6666666666666665 0 0 1 -2.6666666666666665 -2.6666666666666665v-16a2.6666666666666665 2.6666666666666665 0 0 1 2.6666666666666665 -2.6666666666666665H245.33333333333331a10.666666666666666 10.666666666666666 0 0 0 0 -21.333333333333332h-24a2.6666666666666665 2.6666666666666665 0 0 1 -2.6666666666666665 -2.6666666666666665V49.38666666666666a12.159999999999998 12.159999999999998 0 0 0 -12.053333333333331 -12.053333333333331h-17.28a2.6666666666666665 2.6666666666666665 0 0 1 -2.6666666666666665 -2.6666666666666665V10.666666666666666a10.666666666666666 10.666666666666666 0 0 0 -21.333333333333332 0v24a2.6666666666666665 2.6666666666666665 0 0 1 -2.6666666666666665 2.6666666666666665h-26.666666666666664a2.6666666666666665 2.6666666666666665 0 0 1 -2.6666666666666665 -2.6666666666666665V10.666666666666666a10.666666666666666 10.666666666666666 0 0 0 -21.333333333333332 0v24a2.6666666666666665 2.6666666666666665 0 0 1 -2.6666666666666665 2.6666666666666665h-16a2.6666666666666665 2.6666666666666665 0 0 1 -2.6666666666666665 -2.6666666666666665V10.666666666666666a10.666666666666666 10.666666666666666 0 0 0 -21.333333333333332 0v24a2.6666666666666665 2.6666666666666665 0 0 1 -2.6666666666666665 2.6666666666666665H49.38666666666666A12.159999999999998 12.159999999999998 0 0 0 37.33333333333333 49.38666666666666v17.28a2.6666666666666665 2.6666666666666665 0 0 1 -2.6666666666666665 2.6666666666666665H10.666666666666666a10.666666666666666 10.666666666666666 0 0 0 0 21.333333333333332h24a2.6666666666666665 2.6666666666666665 0 0 1 2.6666666666666665 2.6666666666666665v26.666666666666664a2.6666666666666665 2.6666666666666665 0 0 1 -2.6666666666666665 2.6666666666666665H10.666666666666666a10.666666666666666 10.666666666666666 0 0 0 0 21.333333333333332h24a2.6666666666666665 2.6666666666666665 0 0 1 2.6666666666666665 2.6666666666666665v16a2.6666666666666665 2.6666666666666665 0 0 1 -2.6666666666666665 2.6666666666666665H10.666666666666666a10.666666666666666 10.666666666666666 0 0 0 0 21.333333333333332h24a2.6666666666666665 2.6666666666666665 0 0 1 2.6666666666666665 2.6666666666666665v17.28a12.159999999999998 12.159999999999998 0 0 0 12.053333333333331 12.053333333333331h17.28a2.6666666666666665 2.6666666666666665 0 0 1 2.6666666666666665 2.6666666666666665V245.33333333333331a10.666666666666666 10.666666666666666 0 0 0 21.333333333333332 0v-24a2.6666666666666665 2.6666666666666665 0 0 1 2.6666666666666665 -2.6666666666666665h26.666666666666664a2.6666666666666665 2.6666666666666665 0 0 1 2.6666666666666665 2.6666666666666665V245.33333333333331a10.666666666666666 10.666666666666666 0 0 0 21.333333333333332 0v-24a2.6666666666666665 2.6666666666666665 0 0 1 2.6666666666666665 -2.6666666666666665h16a2.6666666666666665 2.6666666666666665 0 0 1 2.6666666666666665 2.6666666666666665V245.33333333333331a10.666666666666666 10.666666666666666 0 0 0 21.333333333333332 0v-24a2.6666666666666665 2.6666666666666665 0 0 1 2.6666666666666665 -2.6666666666666665h17.28a12.159999999999998 12.159999999999998 0 0 0 12.053333333333331 -12.053333333333331v-17.28a2.6666666666666665 2.6666666666666665 0 0 1 2.6666666666666665 -2.6666666666666665H245.33333333333331a10.666666666666666 10.666666666666666 0 0 0 0 -21.333333333333332h-24a2.6666666666666665 2.6666666666666665 0 0 1 -2.6666666666666665 -2.6666666666666665v-26.666666666666664a2.6666666666666665 2.6666666666666665 0 0 1 2.6666666666666665 -2.6666666666666665ZM88 89.6A8.106666666666666 8.106666666666666 0 0 1 96 81.6h2.1333333333333333a2.6666666666666665 2.6666666666666665 0 0 0 2.6666666666666665 -2.6666666666666665v-8.533333333333333a8 8 0 1 1 16 0v8.533333333333333a2.6666666666666665 2.6666666666666665 0 0 0 2.6666666666666665 2.6666666666666665h10.666666666666666a2.6666666666666665 2.6666666666666665 0 0 0 2.6666666666666665 -2.6666666666666665v-8.533333333333333a8 8 0 1 1 16 0v10.666666666666666a2.6666666666666665 2.6666666666666665 0 0 0 1.7066666666666666 2.453333333333333 27.093333333333334 27.093333333333334 0 0 1 10.666666666666666 43.413333333333334 1.5999999999999999 1.5999999999999999 0 0 0 0 2.1333333333333333 27.093333333333334 27.093333333333334 0 0 1 -10.666666666666666 43.413333333333334 2.6666666666666665 2.6666666666666665 0 0 0 -1.7066666666666666 2.453333333333333v10.666666666666666a8 8 0 0 1 -16 0v-8.533333333333333a2.6666666666666665 2.6666666666666665 0 0 0 -2.6666666666666665 -2.6666666666666665h-10.666666666666666a2.6666666666666665 2.6666666666666665 0 0 0 -2.6666666666666665 2.6666666666666665v8.533333333333333a8 8 0 0 1 -16 0v-8.533333333333333a2.6666666666666665 2.6666666666666665 0 0 0 -2.6666666666666665 -2.6666666666666665H96a8.106666666666666 8.106666666666666 0 0 1 -8 -8Z" fill="#ffffff" stroke-width="10.6667"></path>
  </g>
</svg>