<svg xmlns="http://www.w3.org/2000/svg" id="Css-1--Streamline-Ultimate" width="256" height="256" viewBox="0 0 256 256"><desc>Css 1 Streamline Icon: https://streamlinehq.com</desc><path fill="#fff" stroke-width="10.667" d="M240 0h-224A16 16 0 0 0 0 16v224A16 16 0 0 0 16 256h224a16 16 0 0 0 16 -16v-224A16 16 0 0 0 240 0Zm-160 201.38666666666666a6.72 6.72 0 0 1 0 13.333333333333332 49.38666666666666 49.38666666666666 0 0 1 0 -98.66666666666666 6.72 6.72 0 0 1 0 13.333333333333332 36.05333333333333 36.05333333333333 0 1 0 0 72Zm35.199999999999996 -47.25333333333333 20.799999999999997 10.666666666666666a26.133333333333333 26.133333333333333 0 0 1 14.613333333333333 23.68 26.453333333333333 26.453333333333333 0 0 1 -26.346666666666668 26.453333333333333H101.33333333333333a6.72 6.72 0 0 1 0 -13.333333333333332h22.93333333333333a13.12 13.12 0 0 0 5.866666666666667 -24.85333333333333l-20.799999999999997 -10.666666666666666a26.453333333333333 26.453333333333333 0 0 1 11.733333333333334 -50.02666666666667h22.93333333333333a6.72 6.72 0 0 1 0 13.333333333333332h-22.93333333333333a13.013333333333332 13.013333333333332 0 0 0 -5.866666666666667 24.746666666666663Zm64 0 20.799999999999997 10.666666666666666a26.133333333333333 26.133333333333333 0 0 1 14.613333333333333 23.68 26.453333333333333 26.453333333333333 0 0 1 -26.346666666666668 26.453333333333333H165.33333333333331a6.72 6.72 0 0 1 0 -13.333333333333332h22.93333333333333a13.12 13.12 0 0 0 5.866666666666667 -24.85333333333333l-20.799999999999997 -10.666666666666666a26.453333333333333 26.453333333333333 0 0 1 11.733333333333334 -50.02666666666667h22.93333333333333a6.72 6.72 0 0 1 0 13.333333333333332h-22.93333333333333a13.013333333333332 13.013333333333332 0 0 0 -5.866666666666667 24.746666666666663Z"/></svg>