<svg xmlns="http://www.w3.org/2000/svg" fill="none" viewBox="0 0 256 256" id="Curly-Brackets--Streamline-Ultimate" height="256" width="256">
  <desc>
    Curly Brackets Streamline Icon: https://streamlinehq.com
  </desc>
  <path fill="#ffffff" fill-rule="evenodd" d="M74.97237333333334 23.911466666666662c5.891093333333332 0 10.666666666666666 -4.7756799999999995 10.666666666666666 -10.666666666666666 0 -5.89104 -4.775573333333333 -10.666677333333332 -10.666666666666666 -10.666677333333332h-5.16c-17.670293333333333 0 -31.99605333333333 14.322570666666666 -32 31.992970666666665l-0.015893333333333332 72.21717333333333c-0.0010666666666666667 5.2223999999999995 -3.754773333333333 9.566933333333333 -8.710826666666666 10.485333333333333 -0.6469333333333334 -0.039466666666666664 -1.2990933333333332 -0.05866666666666666 -1.9558399999999998 -0.05866666666666666l-6.3408 0c-5.890986666666667 0 -10.666613333333332 4.7754666666666665 -10.666613333333332 10.666666666666666L10.12304 128l-0.0006399999999999999 0.11946666666666667c0 5.890133333333333 4.775626666666666 10.666666666666666 10.666613333333332 10.666666666666666l6.3408 0c0.6567466666666666 0 1.3089066666666667 -0.020266666666666665 1.9558399999999998 -0.05866666666666666 4.956053333333333 0.9183999999999999 8.70976 5.262933333333333 8.710826666666666 10.485333333333333l0.015893333333333332 72.21653333333333c0.003946666666666666 17.6704 14.329706666666667 31.99253333333333 32 31.99253333333333h5.16c5.891093333333332 0 10.666666666666666 -4.7754666666666665 10.666666666666666 -10.666666666666666 0 -5.890133333333333 -4.775573333333333 -10.666666666666666 -10.666666666666666 -10.666666666666666h-5.16c-5.890133333333333 0 -10.665386666666667 -4.773333333333333 -10.666666666666666 -10.663466666666666l-0.015893333333333332 -72.2176c-0.0017066666666666667 -8.135466666666666 -3.0396799999999997 -15.5616 -8.042346666666667 -21.207466666666665 5.002666666666666 -5.6448 8.04064 -13.070933333333333 8.042346666666667 -21.207466666666665l0.015893333333333332 -72.21674666666667c0.0012799999999999999 -5.890133333333333 4.776533333333333 -10.66432 10.666666666666666 -10.66432l5.16 0Zm106.09429333333333 0c-5.890133333333333 0 -10.666666666666666 -4.7756799999999995 -10.666666666666666 -10.666666666666666 0 -5.89104 4.776533333333333 -10.666677333333332 10.666666666666666 -10.666677333333332h5.160533333333333c17.6704 0 31.995733333333334 14.322570666666666 32 31.992970666666665l0.016 72.21717333333333c0.0010666666666666667 5.2223999999999995 3.754666666666666 9.566933333333333 8.7104 10.485333333333333 0.6474666666666666 -0.039466666666666664 1.2992 -0.05866666666666666 1.9562666666666666 -0.05866666666666666l6.3402666666666665 0c5.8911999999999995 0 10.666666666666666 4.7754666666666665 10.666666666666666 10.666666666666666l0 0.1184 0 0.11946666666666667c0 5.890133333333333 -4.7754666666666665 10.666666666666666 -10.666666666666666 10.666666666666666l-6.3402666666666665 0c-0.6570666666666667 0 -1.3088 -0.020266666666666665 -1.9562666666666666 -0.05866666666666666 -4.955733333333333 0.9183999999999999 -8.709333333333333 5.262933333333333 -8.7104 10.485333333333333l-0.016 72.21653333333333c-0.004266666666666667 17.6704 -14.3296 31.99253333333333 -32 31.99253333333333h-5.160533333333333c-5.890133333333333 0 -10.666666666666666 -4.7754666666666665 -10.666666666666666 -10.666666666666666 0 -5.890133333333333 4.776533333333333 -10.666666666666666 10.666666666666666 -10.666666666666666h5.160533333333333c5.890133333333333 0 10.6656 -4.773333333333333 10.666666666666666 -10.663466666666666l0.016 -72.2176c0.0010666666666666667 -8.135466666666666 3.0399999999999996 -15.5616 8.041599999999999 -21.207466666666665 -5.0016 -5.6448 -8.040533333333332 -13.070933333333333 -8.041599999999999 -21.207466666666665l-0.016 -72.21674666666667c-0.0010666666666666667 -5.890133333333333 -4.776533333333333 -10.66432 -10.666666666666666 -10.66432l-5.160533333333333 0Z" clip-rule="evenodd" stroke-width="10.6667"></path>
</svg>