<svg xmlns="http://www.w3.org/2000/svg" id="Currency-Sign-Kips-Increase--Streamline-Ultimate" width="256" height="256" viewBox="0 0 256 256"><desc>Currency Sign Kips Increase Streamline Icon: https://streamlinehq.com</desc><g id="Currency-Sign-Kips-Increase--Streamline-Ultimate.svg"><path fill="#fff" stroke-width="10.667" d="M247.8976 117.25013333333334c0 -2.88 -2.3338666666666663 -5.213866666666666 -5.2128 -5.213866666666666h-52.132266666666666c-2.1045333333333334 0.010666666666666666 -3.995733333333333 1.2853333333333332 -4.795733333333333 3.2330666666666663 -0.8735999999999999 1.9274666666666667 -0.4106666666666666 4.197333333333333 1.1466666666666665 5.629866666666667l14.700800000000001 14.805333333333332c0.5344 0.46933333333333327 0.8064 1.1701333333333332 0.7306666666666667 1.8762666666666665 -0.0096 0.7136 -0.31146666666666667 1.392 -0.8341333333333334 1.877333333333333l-47.75359999999999 43.99893333333333c-0.9493333333333333 0.8490666666666666 -2.3861333333333334 0.8490666666666666 -3.335466666666666 0l-30.236800000000002 -24.1888c-3.022933333333333 -2.4021333333333335 -6.6144 -3.981866666666667 -10.426666666666666 -4.5877333333333326 -6.6752 -1.1818666666666666 -13.522133333333333 0.7797333333333333 -18.558933333333332 5.317333333333333l-2.293333333333333 1.9808 -75.59039999999999 68.08426666666666c-7.963733333333334 6.1024 -6.333866666666666 18.537599999999998 2.9333333333333336 22.381866666666667 4.949333333333334 2.0544 10.6528 0.8682666666666666 14.374399999999998 -2.9888l74.54826666666666 -66.31146666666666c0.9493333333333333 -0.8501333333333332 2.3861333333333334 -0.8501333333333332 3.335466666666666 0l29.924266666666668 24.1888c8.6816 6.822399999999999 21.020799999999998 6.381866666666667 29.193599999999996 -1.0432l52.6528 -48.58666666666666c0.9994666666666667 -0.9269333333333334 2.5450666666666666 -0.9269333333333334 3.5455999999999994 0l15.325866666666666 15.2224c0.9418666666666666 1.0133333333333332 2.2666666666666666 1.5808 3.6490666666666667 1.5637333333333334 0.6527999999999999 0.14826666666666666 1.3290666666666666 0.14826666666666666 1.9818666666666664 0 2.0138666666666665 -0.8735999999999999 3.2650666666666663 -2.916266666666666 3.127466666666667 -5.108266666666666Z"/><path fill="#fff" stroke-width="10.667" d="M81.07626666666667 2.5599999999999996C24.892799999999998 2.5599999999999996 -10.221866666666667 63.38026666666667 17.869866666666667 112.03626666666665c28.09173333333333 48.65599999999999 98.32106666666665 48.65599999999999 126.4128 0 6.405333333333333 -11.0944 9.778133333333333 -23.68 9.778133333333333 -36.49173333333333C154.06079999999997 35.236266666666666 121.38453333333332 2.5599999999999996 81.07626666666667 2.5599999999999996Zm36.49173333333333 83.4112H94.63040000000001l22.937599999999996 23.25013333333333c3.0496 3.0528 3.0496 7.9989333333333335 0 11.051733333333333 -1.458133333333333 1.4773333333333334 -3.4496 2.304 -5.525333333333333 2.2944 -2.0831999999999997 0.046933333333333334 -4.0885333333333325 -0.7861333333333334 -5.5264 -2.2944L73.15199999999999 86.70079999999999v28.04693333333333c0 6.0192 -6.516266666666667 9.781333333333333 -11.729066666666665 6.772266666666667 -2.4192 -1.3973333333333333 -3.9103999999999997 -3.9786666666666664 -3.9103999999999997 -6.772266666666667V85.97119999999998h-12.927999999999999c-6.020266666666666 -0.0010666666666666667 -9.782399999999999 -6.517333333333333 -6.772266666666667 -11.730133333333331 1.3973333333333333 -2.4192 3.9786666666666664 -3.909333333333333 6.772266666666667 -3.909333333333333h12.927999999999999V41.7632c0 -6.020266666666666 6.516266666666667 -9.782399999999999 11.730133333333331 -6.772266666666667 2.4192 1.3973333333333333 3.909333333333333 3.9786666666666664 3.909333333333333 6.772266666666667v28.04693333333333l33.990399999999994 -33.57333333333333c3.2746666666666666 -5.050666666666666 10.789333333333333 -4.6624 13.526399999999999 0.6997333333333333 1.9007999999999998 3.7248 0.5354666666666666 8.285866666666667 -3.1008 10.353066666666667L94.63040000000001 70.4352h22.937599999999996c5.979733333333333 0.6944 8.9664 7.601066666666666 5.3759999999999994 12.431999999999999 -1.2874666666666665 1.7322666666666664 -3.2319999999999998 2.8544 -5.3759999999999994 3.1039999999999996Z"/></g></svg>