<svg xmlns="http://www.w3.org/2000/svg" id="Currency-Pound-International--Streamline-Ultimate" width="256" height="256" viewBox="0 0 256 256"><desc>Currency Pound International Streamline Icon: https://streamlinehq.com</desc><g id="Currency-Pound-International--Streamline-Ultimate.svg"><path fill="#fff" stroke-width="10.667" d="M242.66666666666666 198.18666666666664h-57.6a2.5599999999999996 2.5599999999999996 0 0 1 -2.2399999999999998 -1.1733333333333333 2.5599999999999996 2.5599999999999996 0 0 1 0 -2.453333333333333 109.44 109.44 0 0 0 6.826666666666666 -42.026666666666664v-15.68a2.6666666666666665 2.6666666666666665 0 0 1 2.6666666666666665 -2.6666666666666665h18.88a10.666666666666666 10.666666666666666 0 0 0 0 -21.333333333333332H192a2.6666666666666665 2.6666666666666665 0 0 1 -2.6666666666666665 -2.6666666666666665V80.42666666666666a21.333333333333332 21.333333333333332 0 1 1 42.666666666666664 0 10.666666666666666 10.666666666666666 0 0 0 21.333333333333332 0 42.666666666666664 42.666666666666664 0 0 0 -85.33333333333333 0v29.759999999999998a2.6666666666666665 2.6666666666666665 0 0 1 -2.6666666666666665 2.6666666666666665h-18.773333333333333a10.666666666666666 10.666666666666666 0 0 0 0 21.333333333333332h18.773333333333333a2.6666666666666665 2.6666666666666665 0 0 1 2.6666666666666665 2.6666666666666665v15.68c0 30.29333333333333 -7.253333333333334 45.653333333333336 -21.333333333333332 45.653333333333336a10.666666666666666 10.666666666666666 0 0 0 0 21.333333333333332h96a10.666666666666666 10.666666666666666 0 0 0 0 -21.333333333333332Z"/><path fill="#fff" stroke-width="10.667" d="M130.34666666666666 21.973333333333333A2.453333333333333 2.453333333333333 0 0 1 132.26666666666665 21.333333333333332h3.733333333333333a10.666666666666666 10.666666666666666 0 0 0 0 -21.333333333333332C12.479999999999999 0 2.6666666666666665 112.32 2.6666666666666665 128s9.706666666666667 128 133.33333333333331 128a10.666666666666666 10.666666666666666 0 0 0 0 -21.333333333333332h-3.733333333333333a2.88 2.88 0 0 1 -2.0266666666666664 -0.8533333333333333 176.8533333333333 176.8533333333333 0 0 1 -27.946666666666665 -35.199999999999996 2.6666666666666665 2.6666666666666665 0 0 1 0 -2.5599999999999996 2.7733333333333334 2.7733333333333334 0 0 1 2.3466666666666667 -1.3866666666666667h16.426666666666666a10.666666666666666 10.666666666666666 0 0 0 0 -21.333333333333332H93.44a2.6666666666666665 2.6666666666666665 0 0 1 -2.5599999999999996 -1.92 148.16 148.16 0 0 1 -5.546666666666667 -29.866666666666664 2.7733333333333334 2.7733333333333334 0 0 1 0.7466666666666667 -2.0266666666666664 2.6666666666666665 2.6666666666666665 0 0 1 2.3466666666666667 -0.8533333333333333h21.973333333333333a10.666666666666666 10.666666666666666 0 1 0 0 -21.333333333333332H88.42666666666665a2.6666666666666665 2.6666666666666665 0 0 1 -1.92 -0.8533333333333333 2.7733333333333334 2.7733333333333334 0 0 1 -1.1733333333333333 -2.0266666666666664 148.16 148.16 0 0 1 5.119999999999999 -30.08 2.6666666666666665 2.6666666666666665 0 0 1 2.5599999999999996 -1.92h27.626666666666665a10.666666666666666 10.666666666666666 0 0 0 0 -21.333333333333332h-16a2.7733333333333334 2.7733333333333334 0 0 1 -2.3466666666666667 -1.3866666666666667 2.986666666666667 2.986666666666667 0 0 1 0 -2.6666666666666665 190.9333333333333 190.9333333333333 0 0 1 28.05333333333333 -35.093333333333334ZM92.16 222.29333333333332a2.5599999999999996 2.5599999999999996 0 0 1 0 3.1999999999999997 2.453333333333333 2.453333333333333 0 0 1 -3.093333333333333 0.7466666666666667 107.41333333333333 107.41333333333333 0 0 1 -37.54666666666667 -26.88 2.88 2.88 0 0 1 0 -2.88 2.6666666666666665 2.6666666666666665 0 0 1 1.8133333333333335 -1.5999999999999999h21.333333333333332a2.6666666666666665 2.6666666666666665 0 0 1 2.453333333333333 1.5999999999999999 151.78666666666666 151.78666666666666 0 0 0 15.04 25.813333333333333ZM68.58666666666666 170.66666666666666a2.6666666666666665 2.6666666666666665 0 0 1 0 2.3466666666666667 2.453333333333333 2.453333333333333 0 0 1 -2.0266666666666664 0.96H36.05333333333333a2.6666666666666665 2.6666666666666665 0 0 1 -2.453333333333333 -1.5999999999999999 106.66666666666666 106.66666666666666 0 0 1 -8.746666666666666 -30.29333333333333 2.7733333333333334 2.7733333333333334 0 0 1 0.6399999999999999 -2.0266666666666664 2.6666666666666665 2.6666666666666665 0 0 1 2.0266666666666664 -1.3866666666666667h34.239999999999995a2.6666666666666665 2.6666666666666665 0 0 1 2.6666666666666665 2.453333333333333A175.36 175.36 0 0 0 68.58666666666666 170.66666666666666ZM64 114.88a2.6666666666666665 2.6666666666666665 0 0 1 -2.6666666666666665 2.453333333333333H27.52a2.88 2.88 0 0 1 -2.0266666666666664 -0.8533333333333333 3.1999999999999997 3.1999999999999997 0 0 1 -0.6399999999999999 -2.1333333333333333 106.66666666666666 106.66666666666666 0 0 1 8.746666666666666 -30.29333333333333 2.6666666666666665 2.6666666666666665 0 0 1 2.453333333333333 -1.5999999999999999h29.973333333333333a2.453333333333333 2.453333333333333 0 0 1 2.0266666666666664 0.96 2.6666666666666665 2.6666666666666665 0 0 1 0 2.3466666666666667A175.36 175.36 0 0 0 64 114.88Zm-10.666666666666666 -53.33333333333333a2.6666666666666665 2.6666666666666665 0 0 1 -2.453333333333333 -1.5999999999999999 2.88 2.88 0 0 1 0 -2.88 107.41333333333333 107.41333333333333 0 0 1 38.08 -27.306666666666665 2.453333333333333 2.453333333333333 0 0 1 3.093333333333333 0.7466666666666667 2.5599999999999996 2.5599999999999996 0 0 1 0 3.1999999999999997 151.78666666666666 151.78666666666666 0 0 0 -14.719999999999999 25.813333333333333 2.6666666666666665 2.6666666666666665 0 0 1 -2.6666666666666665 1.5999999999999999Z"/></g></svg>