<svg xmlns="http://www.w3.org/2000/svg" viewBox="0 0 256 256" id="Currency-Sign-Rupee-Decrease--Streamline-Ultimate" height="256" width="256">
  <desc>
    Currency Sign Rupee Decrease Streamline Icon: https://streamlinehq.com
  </desc>
  <g id="Currency-Sign-Rupee-Decrease--Streamline-Ultimate.svg">
    <path d="M245.33333333333331 250.66666666666666a5.333333333333333 5.333333333333333 0 0 1 -5.333333333333333 5.333333333333333h-53.33333333333333a5.333333333333333 5.333333333333333 0 0 1 -3.84 -9.066666666666666l15.146666666666665 -15.146666666666665a2.5599999999999996 2.5599999999999996 0 0 0 0.7466666666666667 -1.92 2.6666666666666665 2.6666666666666665 0 0 0 -0.8533333333333333 -1.92L149.33333333333331 182.9333333333333a2.7733333333333334 2.7733333333333334 0 0 0 -3.52 0l-30.826666666666668 24.746666666666663A23.146666666666665 23.146666666666665 0 0 1 85.33333333333333 206.71999999999997l-2.2399999999999998 -2.0266666666666664 -78.50666666666666 -69.44a13.333333333333332 13.333333333333332 0 0 1 8.853333333333332 -23.253333333333334 12.693333333333332 12.693333333333332 0 0 1 8.853333333333332 3.413333333333333l76.37333333333333 67.84a2.5599999999999996 2.5599999999999996 0 0 0 3.413333333333333 0l30.93333333333333 -24.746666666666663a23.253333333333334 23.253333333333334 0 0 1 29.973333333333333 1.0666666666666667l53.33333333333333 49.70666666666666a2.6666666666666665 2.6666666666666665 0 0 0 3.626666666666667 0l15.573333333333332 -15.573333333333332a5.4399999999999995 5.4399999999999995 0 0 1 3.84 -1.5999999999999999 4.586666666666666 4.586666666666666 0 0 1 2.0266666666666664 0 5.333333333333333 5.333333333333333 0 0 1 3.3066666666666666 4.906666666666666Z" fill="#ffffff" stroke-width="10.6667"></path>
    <path d="M181.33333333333331 0a74.66666666666666 74.66666666666666 0 1 0 74.66666666666666 74.66666666666666 74.66666666666666 74.66666666666666 0 0 0 -74.66666666666666 -74.66666666666666Zm21.333333333333332 57.493333333333325h10.666666666666666a8 8 0 0 1 0 16h-10.666666666666666a36.373333333333335 36.373333333333335 0 0 1 -33.28 28.266666666666666l20.479999999999997 20.479999999999997a8 8 0 0 1 0 11.306666666666667 8.426666666666666 8.426666666666666 0 0 1 -5.653333333333333 2.3466666666666667 8.213333333333333 8.213333333333333 0 0 1 -5.653333333333333 -2.3466666666666667l-33.599999999999994 -34.026666666666664a8 8 0 0 1 5.653333333333333 -13.653333333333332h16.96a20.586666666666666 20.586666666666666 0 0 0 18.773333333333333 -12.373333333333331h-18.773333333333333a8 8 0 0 1 0 -16h18.773333333333333a20.479999999999997 20.479999999999997 0 0 0 -18.773333333333333 -12.266666666666666h-16.96a8 8 0 0 1 0 -16H213.33333333333331a8 8 0 0 1 0 16h-15.573333333333332A37.33333333333333 37.33333333333333 0 0 1 202.66666666666666 57.493333333333325Z" fill="#ffffff" stroke-width="10.6667"></path>
  </g>
</svg>