<svg xmlns="http://www.w3.org/2000/svg" viewBox="0 0 256 256" id="Currency-Sign-Won-Coupon--Streamline-Ultimate" height="256" width="256">
  <desc>
    Currency Sign Won Coupon Streamline Icon: https://streamlinehq.com
  </desc>
  <path d="M225.49333333333334 79.89333333333333a2.7733333333333334 2.7733333333333334 0 0 1 -1.4933333333333334 -2.453333333333333V58.666666666666664a10.666666666666666 10.666666666666666 0 0 0 -10.666666666666666 -10.666666666666666H42.666666666666664a10.666666666666666 10.666666666666666 0 0 0 -10.666666666666666 10.666666666666666v18.773333333333333a2.7733333333333334 2.7733333333333334 0 0 1 -1.4933333333333334 2.453333333333333 53.33333333333333 53.33333333333333 0 0 0 0 96 2.88 2.88 0 0 1 1.4933333333333334 2.453333333333333v18.986666666666665a10.666666666666666 10.666666666666666 0 0 0 10.666666666666666 10.666666666666666h170.66666666666666a10.666666666666666 10.666666666666666 0 0 0 10.666666666666666 -10.666666666666666v-18.773333333333333a2.88 2.88 0 0 1 1.4933333333333334 -2.453333333333333 53.33333333333333 53.33333333333333 0 0 0 0 -96Zm-49.493333333333325 42.666666666666664h-5.973333333333334l-13.013333333333332 42.666666666666664a8 8 0 0 1 -15.36 0l-13.013333333333332 -42.666666666666664h-1.2799999999999998l-13.013333333333332 42.666666666666664a8 8 0 0 1 -15.36 0l-13.013333333333332 -42.666666666666664H80a8 8 0 0 1 0 -16h1.0666666666666667L77.65333333333334 96a7.893333333333333 7.893333333333333 0 0 1 5.333333333333333 -9.92 8 8 0 0 1 10.026666666666666 5.226666666666667L97.81333333333333 106.66666666666666h17.706666666666663l4.8 -15.786666666666665a8 8 0 0 1 15.36 0l4.8 15.786666666666665h17.706666666666663l4.8 -15.786666666666665a8.106666666666666 8.106666666666666 0 0 1 10.026666666666666 -5.226666666666667 7.893333333333333 7.893333333333333 0 0 1 5.333333333333333 9.92l-3.413333333333333 10.666666666666666h1.0666666666666667a8 8 0 0 1 0 16Z" fill="#ffffff" stroke-width="10.6667"></path>
</svg>