<svg xmlns="http://www.w3.org/2000/svg" viewBox="0 0 256 256" id="Currency-Yuan-Bubble--Streamline-Ultimate" height="256" width="256">
  <desc>
    Currency Yuan Bubble Streamline Icon: https://streamlinehq.com
  </desc>
  <path d="M229.65333333333334 88a2.6666666666666665 2.6666666666666665 0 0 1 -1.4933333333333334 -3.413333333333333 43.519999999999996 43.519999999999996 0 0 0 -56.53333333333333 -56.63999999999999 2.6666666666666665 2.6666666666666665 0 0 1 -3.52 -1.3866666666666667 43.73333333333333 43.73333333333333 0 0 0 -80.21333333333332 0 2.6666666666666665 2.6666666666666665 0 0 1 -3.52 1.3866666666666667 43.519999999999996 43.519999999999996 0 0 0 -56.53333333333333 56.63999999999999 2.6666666666666665 2.6666666666666665 0 0 1 -1.4933333333333334 3.413333333333333 43.519999999999996 43.519999999999996 0 0 0 0 80 2.6666666666666665 2.6666666666666665 0 0 1 1.4933333333333334 3.413333333333333 43.519999999999996 43.519999999999996 0 0 0 56.53333333333333 56.63999999999999 2.6666666666666665 2.6666666666666665 0 0 1 3.52 1.3866666666666667 43.73333333333333 43.73333333333333 0 0 0 80.21333333333332 0 2.6666666666666665 2.6666666666666665 0 0 1 3.52 -1.3866666666666667 43.519999999999996 43.519999999999996 0 0 0 56.53333333333333 -56.63999999999999 2.6666666666666665 2.6666666666666665 0 0 1 1.4933333333333334 -3.413333333333333 43.519999999999996 43.519999999999996 0 0 0 0 -80ZM181.33333333333331 75.52l-34.13333333333333 48.32a2.6666666666666665 2.6666666666666665 0 0 0 0 2.7733333333333334 2.6666666666666665 2.6666666666666665 0 0 0 2.1333333333333333 1.3866666666666667h10.666666666666666a10.666666666666666 10.666666666666666 0 0 1 0 21.333333333333332h-18.56a2.6666666666666665 2.6666666666666665 0 0 0 -2.6666666666666665 2.6666666666666665v10.666666666666666a2.6666666666666665 2.6666666666666665 0 0 0 2.6666666666666665 2.6666666666666665H160a10.666666666666666 10.666666666666666 0 0 1 0 21.333333333333332h-18.56a2.6666666666666665 2.6666666666666665 0 0 0 -2.6666666666666665 2.5599999999999996v18.666666666666664a10.666666666666666 10.666666666666666 0 1 1 -21.333333333333332 0v-18.666666666666664a2.6666666666666665 2.6666666666666665 0 0 0 -2.6666666666666665 -2.5599999999999996h-18.133333333333333a10.666666666666666 10.666666666666666 0 0 1 0 -21.333333333333332h18.24a2.6666666666666665 2.6666666666666665 0 0 0 2.6666666666666665 -2.6666666666666665v-10.666666666666666a2.6666666666666665 2.6666666666666665 0 0 0 -2.6666666666666665 -2.6666666666666665H96.64a10.666666666666666 10.666666666666666 0 0 1 0 -21.333333333333332h10.666666666666666a2.6666666666666665 2.6666666666666665 0 0 0 2.3466666666666667 -1.3866666666666667 2.6666666666666665 2.6666666666666665 0 0 0 0 -2.7733333333333334L75.41333333333333 75.52A10.666666666666666 10.666666666666666 0 1 1 92.79999999999998 63.36l33.17333333333333 47.36a2.88 2.88 0 0 0 2.2399999999999998 1.0666666666666667 2.7733333333333334 2.7733333333333334 0 0 0 2.1333333333333333 -1.0666666666666667l33.17333333333333 -47.36A10.666666666666666 10.666666666666666 0 1 1 181.33333333333331 75.52Z" fill="#ffffff" stroke-width="10.6667"></path>
</svg>