<svg xmlns="http://www.w3.org/2000/svg" id="Currency-Euro-Circle--Streamline-Ultimate" width="256" height="256" viewBox="0 0 256 256"><desc>Currency Euro Circle Streamline Icon: https://streamlinehq.com</desc><path fill="#fff" stroke-width="10.667" d="M128 0a128 128 0 1 0 128 128A128 128 0 0 0 128 0Zm21.333333333333332 89.49333333333334a13.333333333333332 13.333333333333332 0 0 1 0 26.666666666666664H102.72a2.5599999999999996 2.5599999999999996 0 0 0 -2.6666666666666665 2.3466666666666667 90.13333333333333 90.13333333333333 0 0 0 0 9.493333333333332v3.733333333333333a2.6666666666666665 2.6666666666666665 0 0 0 2.6666666666666665 2.5599999999999996h33.92a13.333333333333332 13.333333333333332 0 0 1 0 26.666666666666664h-24.746666666666663a2.5599999999999996 2.5599999999999996 0 0 0 -2.3466666666666667 1.5999999999999999 2.453333333333333 2.453333333333333 0 0 0 0 2.7733333333333334c10.666666666666666 13.013333333333332 29.013333333333335 18.666666666666664 58.45333333333333 18.666666666666664a13.333333333333332 13.333333333333332 0 0 1 0 26.666666666666664c-19.626666666666665 0 -72.42666666666666 0 -89.70666666666666 -47.89333333333333a2.6666666666666665 2.6666666666666665 0 0 0 -2.453333333333333 -1.8133333333333335h-8.959999999999999a13.333333333333332 13.333333333333332 0 0 1 0 -26.666666666666664h3.52a2.5599999999999996 2.5599999999999996 0 0 0 2.0266666666666664 -0.8533333333333333 2.453333333333333 2.453333333333333 0 0 0 0.6399999999999999 -1.92l0 -3.52 0 -8.959999999999999a2.3466666666666667 2.3466666666666667 0 0 0 -0.42666666666666664 -1.7066666666666666 2.6666666666666665 2.6666666666666665 0 0 0 -1.92 -0.8533333333333333h-3.413333333333333a13.333333333333332 13.333333333333332 0 1 1 0 -26.666666666666664h10.666666666666666a2.6666666666666665 2.6666666666666665 0 0 0 2.453333333333333 -1.5999999999999999c18.986666666666665 -42.666666666666664 68.8 -42.666666666666664 87.68 -42.666666666666664a13.333333333333332 13.333333333333332 0 0 1 0 26.666666666666664c-24.53333333333333 0 -41.49333333333333 3.84 -52.48 12.693333333333332a2.5599999999999996 2.5599999999999996 0 0 0 -0.8533333333333333 2.986666666666667 2.6666666666666665 2.6666666666666665 0 0 0 2.453333333333333 1.8133333333333335Z"/></svg>