<svg xmlns="http://www.w3.org/2000/svg" viewBox="0 0 256 256" id="Customer-Relationship-Management-Lead-Management-1--Streamline-Ultimate" height="256" width="256">
  <desc>
    Customer Relationship Management Lead Management 1 Streamline Icon: https://streamlinehq.com
  </desc>
  <g id="Customer-Relationship-Management-Lead-Management-1--Streamline-Ultimate.svg">
    <path d="M248.8533333333333 134.93333333333334v10.666666666666666a10.666666666666666 10.666666666666666 0 0 1 -8.533333333333333 10.666666666666666l-13.226666666666667 2.6666666666666665a99.30666666666667 99.30666666666667 0 0 1 -12.586666666666666 29.973333333333333l7.573333333333332 11.306666666666667A10.666666666666666 10.666666666666666 0 0 1 220.79999999999998 213.33333333333331l-14.613333333333333 14.613333333333333a10.666666666666666 10.666666666666666 0 0 1 -13.44 1.2799999999999998L181.33333333333331 221.54666666666665A99.30666666666667 99.30666666666667 0 0 1 151.46666666666664 234.66666666666666l-2.1333333333333333 12.693333333333332a10.666666666666666 10.666666666666666 0 0 1 -10.666666666666666 8.533333333333333h-21.333333333333332a10.666666666666666 10.666666666666666 0 0 1 -10.666666666666666 -8.533333333333333L104.53333333333333 234.66666666666666A99.30666666666667 99.30666666666667 0 0 1 74.66666666666666 221.54666666666665l-11.306666666666667 7.573333333333332a10.666666666666666 10.666666666666666 0 0 1 -13.44 -1.2799999999999998L35.199999999999996 213.33333333333331a10.666666666666666 10.666666666666666 0 0 1 -1.2799999999999998 -13.44l7.573333333333332 -11.306666666666667a99.30666666666667 99.30666666666667 0 0 1 -12.586666666666666 -29.973333333333333l-13.226666666666667 -2.6666666666666665a10.666666666666666 10.666666666666666 0 0 1 -8.533333333333333 -10.666666666666666v-10.666666666666666h69.97333333333333a50.879999999999995 50.879999999999995 0 0 0 101.75999999999999 0Z" fill="#ffffff" stroke-width="10.6667"></path>
    <path d="M183.14666666666668 40.64a24.746666666666663 24.746666666666663 0 1 0 49.493333333333325 0 24.746666666666663 24.746666666666663 0 1 0 -49.493333333333325 0" fill="#ffffff" stroke-width="10.6667"></path>
    <path d="M23.46666666666667 40.64a24.746666666666663 24.746666666666663 0 1 0 49.493333333333325 0 24.746666666666663 24.746666666666663 0 1 0 -49.493333333333325 0" fill="#ffffff" stroke-width="10.6667"></path>
    <path d="M72.53333333333333 93.86666666666667a53.33333333333333 53.33333333333333 0 0 0 -12.266666666666666 -5.76A52.48 52.48 0 0 0 0 113.49333333333334h61.120000000000005A117.33333333333333 117.33333333333333 0 0 1 72.53333333333333 93.86666666666667Z" fill="#ffffff" stroke-width="10.6667"></path>
    <path d="M193.92 113.81333333333333H256a52.48 52.48 0 0 0 -60.373333333333335 -25.599999999999998 53.33333333333333 53.33333333333333 0 0 0 -12.479999999999999 5.866666666666667 123.09333333333332 123.09333333333332 0 0 1 10.773333333333333 19.733333333333334Z" fill="#ffffff" stroke-width="10.6667"></path>
    <path d="M182.07999999999998 113.81333333333333A61.22666666666667 61.22666666666667 0 0 0 128 74.66666666666666a61.44 61.44 0 0 0 -54.61333333333333 39.25333333333333Z" fill="#ffffff" stroke-width="10.6667"></path>
    <path d="M95.89333333333333 31.04a31.04 31.04 0 1 0 62.08 0 31.04 31.04 0 1 0 -62.08 0" fill="#ffffff" stroke-width="10.6667"></path>
  </g>
</svg>