<svg xmlns="http://www.w3.org/2000/svg" viewBox="0 0 256 256" id="Data-File-Bars-Edit--Streamline-Ultimate" height="256" width="256">
  <desc>
    Data File Bars Edit Streamline Icon: https://streamlinehq.com
  </desc>
  <g id="Data-File-Bars-Edit--Streamline-Ultimate.svg">
    <path d="M122.66666666666666 106.66666666666666h10.666666666666666s5.333333333333333 0 5.333333333333333 5.333333333333333V138.66666666666666s0 5.333333333333333 -5.333333333333333 5.333333333333333h-10.666666666666666s-5.333333333333333 0 -5.333333333333333 -5.333333333333333v-26.666666666666664s0 -5.333333333333333 5.333333333333333 -5.333333333333333" fill="#ffffff" stroke-width="10.6667"></path>
    <path d="M160 58.666666666666664h10.666666666666666s5.333333333333333 0 5.333333333333333 5.333333333333333v74.66666666666666s0 5.333333333333333 -5.333333333333333 5.333333333333333h-10.666666666666666s-5.333333333333333 0 -5.333333333333333 -5.333333333333333V64s0 -5.333333333333333 5.333333333333333 -5.333333333333333" fill="#ffffff" stroke-width="10.6667"></path>
    <path d="M197.33333333333331 80h10.666666666666666s5.333333333333333 0 5.333333333333333 5.333333333333333v53.33333333333333s0 5.333333333333333 -5.333333333333333 5.333333333333333h-10.666666666666666s-5.333333333333333 0 -5.333333333333333 -5.333333333333333V85.33333333333333s0 -5.333333333333333 5.333333333333333 -5.333333333333333" fill="#ffffff" stroke-width="10.6667"></path>
    <path d="M224 6.293333333333333A21.333333333333332 21.333333333333332 0 0 0 208.95999999999998 0H85.33333333333333a21.333333333333332 21.333333333333332 0 0 0 -21.333333333333332 21.333333333333332v96.74666666666667a3.093333333333333 3.093333333333333 0 0 0 0.7466666666666667 1.92l16 16a2.7733333333333334 2.7733333333333334 0 0 0 4.586666666666666 -1.92V26.666666666666664a5.333333333333333 5.333333333333333 0 0 1 5.333333333333333 -5.333333333333333h116.05333333333334a5.013333333333333 5.013333333333333 0 0 1 3.733333333333333 1.5999999999999999l22.613333333333333 22.613333333333333a5.013333333333333 5.013333333333333 0 0 1 1.5999999999999999 3.733333333333333V192a5.333333333333333 5.333333333333333 0 0 1 -5.333333333333333 5.333333333333333h-83.41333333333333a2.6666666666666665 2.6666666666666665 0 0 0 -2.5599999999999996 3.52c1.7066666666666666 4.693333333333333 3.84 12.373333333333331 4.8 15.893333333333333a2.6666666666666665 2.6666666666666665 0 0 0 2.5599999999999996 1.92H234.66666666666666a21.333333333333332 21.333333333333332 0 0 0 21.333333333333332 -21.333333333333332V47.14666666666666A21.333333333333332 21.333333333333332 0 0 0 249.70666666666665 32Z" fill="#ffffff" stroke-width="10.6667"></path>
    <path d="m127.35999999999999 214.71999999999997 -29.973333333333333 29.973333333333333a2.6666666666666665 2.6666666666666665 0 0 0 1.3866666666666667 4.4799999999999995l33.49333333333333 6.826666666666666h1.0666666666666667a5.013333333333333 5.013333333333333 0 0 0 3.733333333333333 -1.5999999999999999 5.226666666666667 5.226666666666667 0 0 0 1.5999999999999999 -4.8l-6.72 -33.49333333333333a2.6666666666666665 2.6666666666666665 0 0 0 -4.586666666666666 -1.3866666666666667Z" fill="#ffffff" stroke-width="10.6667"></path>
    <path d="m118.93333333333334 196.79999999999998 -70.18666666666667 -70.18666666666667A29.013333333333335 29.013333333333335 0 0 0 10.666666666666666 123.62666666666667a28.05333333333333 28.05333333333333 0 0 0 -2.1333333333333333 41.38666666666666l71.25333333333333 71.25333333333333a2.6666666666666665 2.6666666666666665 0 0 0 3.84 0l35.733333333333334 -35.733333333333334a2.5599999999999996 2.5599999999999996 0 0 0 -0.42666666666666664 -3.733333333333333Z" fill="#ffffff" stroke-width="10.6667"></path>
  </g>
</svg>