<svg xmlns="http://www.w3.org/2000/svg" viewBox="0 0 256 256" id="Database-Share-1--Streamline-Ultimate" height="256" width="256">
  <desc>
    Database Share 1 Streamline Icon: https://streamlinehq.com
  </desc>
  <g id="Database-Share-1--Streamline-Ultimate.svg">
    <path d="M98.02666666666666 229.9733333333333a2.6666666666666665 2.6666666666666665 0 0 0 2.0266666666666664 -4.586666666666666 44.48 44.48 0 0 1 -13.226666666666667 -32 2.6666666666666665 2.6666666666666665 0 0 0 -2.3466666666666667 -2.5599999999999996 135.57333333333332 135.57333333333332 0 0 1 -65.49333333333333 -23.68 2.6666666666666665 2.6666666666666665 0 0 0 -4.266666666666667 2.1333333333333333v18.346666666666664c0 21.333333333333332 35.946666666666665 38.82666666666667 83.30666666666666 42.346666666666664Z" fill="#ffffff" stroke-width="10.6667"></path>
    <path d="M14.719999999999999 140.05333333333334c0 19.2 30.186666666666667 35.41333333333333 71.57333333333332 40.74666666666666a2.6666666666666665 2.6666666666666665 0 0 0 2.88 -1.8133333333333335 45.22666666666667 45.22666666666667 0 0 1 42.666666666666664 -30.93333333333333 68.90666666666667 68.90666666666667 0 0 1 23.57333333333333 7.04 2.6666666666666665 2.6666666666666665 0 0 0 3.413333333333333 -1.1733333333333333l5.546666666666667 -9.386666666666667a3.093333333333333 3.093333333333333 0 0 0 0 -2.88 2.88 2.88 0 0 0 -2.6666666666666665 -1.1733333333333333 374.4 374.4 0 0 1 -45.653333333333336 4.906666666666666c-37.44 0 -76.37333333333333 -8.959999999999999 -97.06666666666666 -25.813333333333333a2.6666666666666665 2.6666666666666665 0 0 0 -4.266666666666667 2.1333333333333333Z" fill="#ffffff" stroke-width="10.6667"></path>
    <path d="M116.05333333333334 97.38666666666667c-37.44 0 -76.37333333333333 -8.959999999999999 -97.06666666666666 -25.813333333333333a2.6666666666666665 2.6666666666666665 0 0 0 -4.266666666666667 2.1333333333333333v18.346666666666664c0 23.57333333333333 45.33333333333333 42.666666666666664 101.33333333333333 42.666666666666664a209.92 209.92 0 0 0 52.8 -6.3999999999999995 2.7733333333333334 2.7733333333333334 0 0 0 1.8133333333333335 -1.4933333333333334 45.22666666666667 45.22666666666667 0 0 1 41.28 -26.77333333333333H213.33333333333331a2.5599999999999996 2.5599999999999996 0 0 0 2.7733333333333334 -1.7066666666666666 78.72 78.72 0 0 0 1.1733333333333333 -24.64 2.6666666666666665 2.6666666666666665 0 0 0 -1.5999999999999999 -2.453333333333333 2.453333333333333 2.453333333333333 0 0 0 -2.7733333333333334 0C192 88.42666666666665 153.38666666666666 97.38666666666667 116.05333333333334 97.38666666666667Z" fill="#ffffff" stroke-width="10.6667"></path>
    <path d="M14.719999999999999 44.05333333333333a101.33333333333333 42.666666666666664 0 1 0 202.66666666666666 0 101.33333333333333 42.666666666666664 0 1 0 -202.66666666666666 0" fill="#ffffff" stroke-width="10.6667"></path>
    <path d="M211.94666666666666 116.05333333333334a29.333333333333332 29.333333333333332 0 0 0 -29.333333333333332 29.333333333333332 24.85333333333333 24.85333333333333 0 0 0 0.7466666666666667 5.653333333333333 2.7733333333333334 2.7733333333333334 0 0 1 -1.2799999999999998 2.88L153.70666666666665 170.66666666666666a2.5599999999999996 2.5599999999999996 0 0 1 -3.093333333333333 0 29.333333333333332 29.333333333333332 0 1 0 -18.666666666666664 51.946666666666665 28.8 28.8 0 0 0 21.973333333333333 -10.133333333333333 2.5599999999999996 2.5599999999999996 0 0 1 2.986666666666667 -0.6399999999999999l24.21333333333333 9.706666666666667a2.6666666666666665 2.6666666666666665 0 0 1 1.7066666666666666 2.5599999999999996 29.226666666666667 29.226666666666667 0 1 0 29.119999999999997 -28.16 28.69333333333333 28.69333333333333 0 0 0 -21.866666666666664 10.026666666666666 2.5599999999999996 2.5599999999999996 0 0 1 -2.986666666666667 0.6399999999999999l-24.21333333333333 -9.6a2.6666666666666665 2.6666666666666665 0 0 1 -1.5999999999999999 -2.7733333333333334 21.333333333333332 21.333333333333332 0 0 0 -0.6399999999999999 -6.72 2.5599999999999996 2.5599999999999996 0 0 1 1.2799999999999998 -2.88l28.373333333333335 -17.066666666666666a2.5599999999999996 2.5599999999999996 0 0 1 3.093333333333333 0 29.226666666666667 29.226666666666667 0 1 0 18.56 -51.84Z" fill="#ffffff" stroke-width="10.6667"></path>
  </g>
</svg>