<svg xmlns="http://www.w3.org/2000/svg" id="Data-Transfer-Diagonal--Streamline-Ultimate" width="256" height="256" viewBox="0 0 256 256"><desc>Data Transfer Diagonal Streamline Icon: https://streamlinehq.com</desc><g id="Data-Transfer-Diagonal--Streamline-Ultimate.svg"><path fill="#fff" stroke-width="10.667" d="M110.61333333333332 205.9733333333333a16.32 16.32 0 0 0 11.306666666666667 4.693333333333333 15.893333333333333 15.893333333333333 0 0 0 11.306666666666667 -4.693333333333333l76.26666666666667 -76.26666666666667a2.6666666666666665 2.6666666666666665 0 0 1 3.84 0l9.386666666666667 9.493333333333332a10.666666666666666 10.666666666666666 0 0 0 17.919999999999998 -5.013333333333333L256 73.91999999999999a10.666666666666666 10.666666666666666 0 0 0 -3.093333333333333 -9.92 10.666666666666666 10.666666666666666 0 0 0 -10.133333333333333 -2.88l-60.373333333333335 14.933333333333332a10.666666666666666 10.666666666666666 0 0 0 -7.68 7.466666666666666 10.666666666666666 10.666666666666666 0 0 0 2.7733333333333334 10.666666666666666l9.386666666666667 9.493333333333332a2.3466666666666667 2.3466666666666667 0 0 1 0.7466666666666667 1.8133333333333335 2.5599999999999996 2.5599999999999996 0 0 1 -0.7466666666666667 1.92l-76.26666666666667 76.26666666666667a16.106666666666666 16.106666666666666 0 0 0 0 22.29333333333333Z"/><path fill="#fff" stroke-width="10.667" d="m123.09333333333332 49.70666666666666 -78.82666666666665 74.66666666666666a2.6666666666666665 2.6666666666666665 0 0 1 -3.733333333333333 0L33.28 117.33333333333333a10.666666666666666 10.666666666666666 0 0 0 -17.919999999999998 5.013333333333333L0 182.07999999999998a10.666666666666666 10.666666666666666 0 0 0 3.093333333333333 9.92 10.666666666666666 10.666666666666666 0 0 0 10.666666666666666 2.88l59.84 -14.933333333333332a10.666666666666666 10.666666666666666 0 0 0 4.906666666666666 -17.919999999999998L66.88 150.39999999999998a2.88 2.88 0 0 1 -0.7466666666666667 -1.92 2.453333333333333 2.453333333333333 0 0 1 0.8533333333333333 -1.8133333333333335l78.08 -73.70666666666666a16 16 0 0 0 -21.973333333333333 -23.253333333333334Z"/></g></svg>