<svg xmlns="http://www.w3.org/2000/svg" id="Database-2--Streamline-Ultimate" width="256" height="256" viewBox="0 0 256 256"><desc>Database 2 Streamline Icon: https://streamlinehq.com</desc><g id="Database-2--Streamline-Ultimate.svg"><path fill="#fff" stroke-width="10.667" d="M239.00906666666666 186.60053333333332c-0.04586666666666667 -1.0879999999999999 -0.6698666666666666 -2.0682666666666663 -1.6362666666666668 -2.5706666666666664 -0.9695999999999999 -0.5888 -2.1856 -0.5888 -3.1552 0 -22.668799999999997 18.462933333333332 -65.31946666666667 28.161066666666663 -106.2176 28.161066666666663s-83.66613333333333 -9.698133333333333 -106.2176 -28.161066666666663c-0.9695999999999999 -0.5888 -2.1856 -0.5888 -3.1552 0 -0.9663999999999999 0.5024 -1.5914666666666666 1.4826666666666668 -1.6362666666666668 2.5706666666666664v20.0992c0 25.823999999999998 49.66186666666667 46.74026666666666 111.00906666666666 46.74026666666666s111.00906666666666 -20.916266666666665 111.00906666666666 -46.74026666666666Z"/><path fill="#fff" stroke-width="10.667" d="M16.99093333333333 154.4672c0 25.823999999999998 49.66186666666667 46.74026666666666 111.00906666666666 46.74026666666666s111.00906666666666 -20.916266666666665 111.00906666666666 -46.74026666666666V134.368c-0.04479999999999999 -1.0879999999999999 -0.6698666666666666 -2.0682666666666663 -1.6362666666666668 -2.5706666666666664 -0.9695999999999999 -0.5888 -2.1856 -0.5888 -3.1552 0 -22.668799999999997 18.462933333333332 -65.31946666666667 28.161066666666663 -106.2176 28.161066666666663s-83.66506666666666 -9.698133333333333 -106.2176 -28.161066666666663c-0.9695999999999999 -0.5888 -2.1856 -0.5888 -3.1552 0 -0.9663999999999999 0.5024 -1.5904 1.4826666666666668 -1.6362666666666668 2.5706666666666664Z"/><path fill="#fff" stroke-width="10.667" d="M128 107.72586666666666c-40.898133333333334 0 -83.66613333333333 -9.698133333333333 -106.2176 -28.161066666666663 -0.9695999999999999 -0.5888 -2.1856 -0.5888 -3.1552 0 -0.7872 0.3616 -1.3823999999999999 1.0421333333333331 -1.6362666666666668 1.8698666666666668v20.449066666666667c0 25.823999999999998 49.66186666666667 46.74026666666666 111.00906666666666 46.74026666666666s111.00906666666666 -20.916266666666665 111.00906666666666 -46.74026666666666V81.43466666666666c-0.04479999999999999 -1.0879999999999999 -0.6698666666666666 -2.0693333333333332 -1.6362666666666668 -2.5706666666666664 -0.9695999999999999 -0.5888 -2.1856 -0.5888 -3.1552 0 -22.668799999999997 19.163733333333333 -65.31946666666667 28.861866666666664 -106.2176 28.861866666666664Z"/><path fill="#fff" stroke-width="10.667" d="M16.99093333333333 49.300266666666666c0 35.9808 92.50773333333332 58.469333333333324 166.51306666666665 40.47893333333333 34.346666666666664 -8.349866666666667 55.505066666666664 -23.780266666666666 55.505066666666664 -40.47893333333333 0 -35.9808 -92.50773333333332 -58.468266666666665 -166.51306666666665 -40.477866666666664 -34.346666666666664 8.348799999999999 -55.505066666666664 23.779199999999996 -55.505066666666664 40.477866666666664"/></g></svg>