<svg xmlns="http://www.w3.org/2000/svg" id="Database-1--Streamline-Ultimate" width="256" height="256" viewBox="0 0 256 256"><desc>Database 1 Streamline Icon: https://streamlinehq.com</desc><g id="Database-1--Streamline-Ultimate.svg"><path fill="#fff" stroke-width="10.667" d="M117.33333333333333 210.88v21.333333333333332a2.6666666666666665 2.6666666666666665 0 0 1 -2.6666666666666665 2.6666666666666665H59.413333333333334a10.666666666666666 10.666666666666666 0 0 0 0 21.333333333333332h137.17333333333332a10.666666666666666 10.666666666666666 0 0 0 0 -21.333333333333332h-55.36a2.6666666666666665 2.6666666666666665 0 0 1 -2.6666666666666665 -2.6666666666666665v-21.333333333333332a10.666666666666666 10.666666666666666 0 0 0 -10.666666666666666 -10.666666666666666 10.666666666666666 10.666666666666666 0 0 0 -10.559999999999999 10.666666666666666Z"/><path fill="#fff" stroke-width="10.667" d="M222.9333333333333 245.33333333333331a10.666666666666666 10.666666666666666 0 0 0 10.666666666666666 10.666666666666666h10.666666666666666a10.666666666666666 10.666666666666666 0 0 0 0 -21.333333333333332h-10.666666666666666a10.666666666666666 10.666666666666666 0 0 0 -10.666666666666666 10.666666666666666Z"/><path fill="#fff" stroke-width="10.667" d="M11.946666666666667 256h10.666666666666666a10.666666666666666 10.666666666666666 0 1 0 0 -21.333333333333332h-10.666666666666666a10.666666666666666 10.666666666666666 0 0 0 0 21.333333333333332Z"/><path fill="#fff" stroke-width="10.667" d="M230.82666666666665 124.47999999999999a2.7733333333333334 2.7733333333333334 0 0 0 -1.4933333333333334 -2.453333333333333 2.6666666666666665 2.6666666666666665 0 0 0 -2.88 0c-20.37333333333333 16.53333333333333 -58.879999999999995 25.28 -96 25.28s-75.41333333333333 -8.746666666666666 -96 -25.28a2.453333333333333 2.453333333333333 0 0 0 -2.7733333333333334 0 2.5599999999999996 2.5599999999999996 0 0 0 -1.4933333333333334 2.453333333333333v23.253333333333334c0 23.36 44.8 42.666666666666664 100.16 42.666666666666664s100.16 -18.88 100.16 -42.666666666666664Z"/><path fill="#fff" stroke-width="10.667" d="M130.66666666666666 95.03999999999999c-36.906666666666666 0 -75.41333333333333 -8.746666666666666 -96 -25.386666666666663a2.6666666666666665 2.6666666666666665 0 0 0 -4.266666666666667 2.1333333333333333v23.253333333333334c0 23.36 44.8 42.666666666666664 100.16 42.666666666666664s100.16 -18.88 100.16 -42.666666666666664V71.78666666666666a2.6666666666666665 2.6666666666666665 0 0 0 -4.373333333333333 -2.1333333333333333c-20.266666666666666 16.64 -58.773333333333326 25.386666666666663 -95.68 25.386666666666663Z"/><path fill="#fff" stroke-width="10.667" d="M30.506666666666664 42.346666666666664a100.16 42.13333333333333 0 1 0 200.32 0 100.16 42.13333333333333 0 1 0 -200.32 0"/></g></svg>