<svg xmlns="http://www.w3.org/2000/svg" id="Data-Lake-1--Streamline-Ultimate" width="256" height="256" fill="none" viewBox="0 0 256 256"><desc>Data Lake 1 Streamline Icon: https://streamlinehq.com</desc><path fill="#fff" fill-rule="evenodd" stroke-width="10.667" d="M128 43.28533333333333c35.135999999999996 0 63.616 -9.696 63.616 -21.65333333333333C191.61599999999999 9.696 163.136 0 128 0 92.86399999999999 0 64.38399999999999 9.685333333333332 64.38399999999999 21.642666666666663c0 11.946666666666667 28.479999999999997 21.642666666666663 63.616 21.642666666666663Zm63.616 32.74666666666666c0 11.936 -28.522666666666666 21.65333333333333 -63.616 21.65333333333333 -35.093333333333334 0 -63.616 -9.717333333333332 -63.616 -21.65333333333333v-25.813333333333333a3.84 3.84 0 0 1 1.5999999999999999 -3.0506666666666664 3.52 3.52 0 0 1 3.488 0c18.581333333333333 7.7333333333333325 38.50666666666666 11.413333333333334 58.528 10.815999999999999a141.44 141.44 0 0 0 58.528 -10.815999999999999 3.52 3.52 0 0 1 3.488 0 3.7119999999999997 3.7119999999999997 0 0 1 1.5999999999999999 3.0506666666666664v25.813333333333333Zm0 54.39999999999999c0 11.936 -28.522666666666666 21.642666666666663 -63.616 21.642666666666663 -35.093333333333334 0 -63.616 -9.706666666666667 -63.616 -21.642666666666663v-25.813333333333333a3.84 3.84 0 0 1 1.5999999999999999 -3.0506666666666664 3.904 3.904 0 0 1 3.488 0c18.56 7.786666666666666 38.50666666666666 11.477333333333334 58.528 10.815999999999999a139.17866666666666 139.17866666666666 0 0 0 58.528 -10.815999999999999 3.904 3.904 0 0 1 3.488 0 3.7119999999999997 3.7119999999999997 0 0 1 1.5999999999999999 3.0506666666666664v25.813333333333333Zm-133.33333333333331 48a5.333333333333333 5.333333333333333 0 0 0 -7.562666666666666 0c-14.549333333333333 14.613333333333333 -28.72533333333333 14.698666666666664 -44.85333333333333 14.698666666666664a5.333333333333333 5.333333333333333 0 0 0 -5.333333333333333 5.333333333333333v21.482666666666663c7.754666666666666 0 17.333333333333332 -0.05333333333333333 26.794666666666664 -1.8133333333333335 9.674666666666667 -1.8133333333333335 18.368 -5.247999999999999 24.53333333333333 -11.445333333333332a8 8 0 0 1 11.349333333333334 0c13.205333333333332 13.269333333333332 26.026666666666664 13.258666666666667 29.439999999999998 13.258666666666667l0.11733333333333332 0 0.10666666666666666 0c3.424 0 16.24533333333333 0 29.450666666666667 -13.258666666666667a8 8 0 0 1 11.338666666666665 0c13.216000000000001 13.269333333333332 26.026666666666664 13.258666666666667 29.450666666666667 13.258666666666667h0.224c3.424 0 16.24533333333333 0 29.450666666666667 -13.258666666666667a8 8 0 0 1 11.338666666666665 0c6.175999999999999 6.197333333333333 14.869333333333332 9.642666666666667 24.544 11.445333333333332 9.461333333333332 1.76 19.04 1.8133333333333335 26.794666666666664 1.8133333333333335v-21.482666666666663a5.333333333333333 5.333333333333333 0 0 0 -5.333333333333333 -5.333333333333333c-16.128 0 -30.304000000000002 -0.08533333333333333 -44.864000000000004 -14.709333333333333a5.333333333333333 5.333333333333333 0 0 0 -7.552 0c-14.656 14.719999999999999 -29.045333333333332 14.719999999999999 -32.896 14.719999999999999h-0.14933333333333332c-3.84 0 -18.24 0 -32.896 -14.719999999999999a5.333333333333333 5.333333333333333 0 0 0 -7.552 0c-14.656 14.719999999999999 -29.045333333333332 14.719999999999999 -32.896 14.719999999999999h-0.14933333333333332c-3.84 0 -18.24 0 -32.896 -14.719999999999999ZM0.5333333333333333 249.50399999999996V235.94666666666666c7.68 0 18.645333333333333 -0.032 29.717333333333332 -2.0906666666666665 9.077333333333332 -1.6853333333333333 18.794666666666664 -4.832 27.125333333333334 -10.890666666666664 15.84 12.853333333333333 30.869333333333334 12.981333333333334 35.391999999999996 12.981333333333334 4.512 0 19.456 -0.128 35.232 -12.853333333333333 15.786666666666665 12.725333333333333 30.72 12.853333333333333 35.232 12.853333333333333 4.522666666666666 0 19.552 -0.128 35.391999999999996 -12.981333333333334 8.330666666666666 6.0586666666666655 18.048 9.205333333333332 27.125333333333334 10.890666666666664 11.072 2.0693333333333332 22.026666666666664 2.0906666666666665 29.717333333333332 2.0906666666666665v13.568a5.333333333333333 5.333333333333333 0 0 1 -5.333333333333333 5.333333333333333H5.866666666666667a5.333333333333333 5.333333333333333 0 0 1 -5.333333333333333 -5.333333333333333Z" clip-rule="evenodd"/></svg>