<svg xmlns="http://www.w3.org/2000/svg" id="Data-File-Graph--Streamline-Ultimate" width="256" height="256" viewBox="0 0 256 256"><desc>Data File Graph Streamline Icon: https://streamlinehq.com</desc><path fill="#fff" stroke-width="10.667" d="M213.33333333333331 256a21.333333333333332 21.333333333333332 0 0 0 21.333333333333332 -21.333333333333332V67.52a21.333333333333332 21.333333333333332 0 0 0 -6.293333333333333 -15.146666666666665L182.29333333333332 6.293333333333333A21.333333333333332 21.333333333333332 0 0 0 167.14666666666665 0H42.666666666666664a21.333333333333332 21.333333333333332 0 0 0 -21.333333333333332 21.333333333333332v213.33333333333331a21.333333333333332 21.333333333333332 0 0 0 21.333333333333332 21.333333333333332Zm-26.666666666666664 -64a8.106666666666666 8.106666666666666 0 0 1 -8 8H74.66666666666666a8 8 0 0 1 0 -16h104a8.106666666666666 8.106666666666666 0 0 1 8 8Zm-117.33333333333333 -44.693333333333335 34.773333333333326 -34.879999999999995a10.666666666666666 10.666666666666666 0 0 1 13.226666666666667 -1.5999999999999999l17.813333333333333 10.666666666666666a2.5599999999999996 2.5599999999999996 0 0 0 3.1999999999999997 0l26.666666666666664 -26.560000000000002a10.666666666666666 10.666666666666666 0 1 1 15.04 15.04L146.13333333333333 144a10.666666666666666 10.666666666666666 0 0 1 -13.013333333333332 1.5999999999999999l-17.813333333333333 -10.666666666666666a2.5599999999999996 2.5599999999999996 0 0 0 -3.1999999999999997 0l-27.41333333333333 27.41333333333333a10.666666666666666 10.666666666666666 0 0 1 -15.04 -15.04Z"/></svg>