<svg xmlns="http://www.w3.org/2000/svg" id="Data-Transfer-Circle--Streamline-Ultimate" width="256" height="256" viewBox="0 0 256 256"><desc>Data Transfer Circle Streamline Icon: https://streamlinehq.com</desc><path fill="#fff" stroke-width="10.667" d="M128 0a128 128 0 1 0 128 128A128 128 0 0 0 128 0ZM95.14666666666666 128.95999999999998a10.666666666666666 10.666666666666666 0 0 1 6.186666666666666 9.706666666666667v13.333333333333332a2.6666666666666665 2.6666666666666665 0 0 0 2.6666666666666665 2.6666666666666665h40a10.666666666666666 10.666666666666666 0 0 1 0 21.333333333333332H104a2.6666666666666665 2.6666666666666665 0 0 0 -2.6666666666666665 2.6666666666666665V192a10.666666666666666 10.666666666666666 0 0 1 -6.186666666666666 9.706666666666667 10.666666666666666 10.666666666666666 0 0 1 -4.4799999999999995 0.96 10.666666666666666 10.666666666666666 0 0 1 -6.826666666666666 -2.453333333333333l-32 -26.666666666666664a10.666666666666666 10.666666666666666 0 0 1 0 -16.426666666666666l32 -26.666666666666664a10.666666666666666 10.666666666666666 0 0 1 11.306666666666667 -1.4933333333333334ZM165.33333333333331 128a10.666666666666666 10.666666666666666 0 0 1 -4.4799999999999995 -0.96 10.666666666666666 10.666666666666666 0 0 1 -6.186666666666666 -9.706666666666667V104a2.6666666666666665 2.6666666666666665 0 0 0 -2.6666666666666665 -2.6666666666666665H112a10.666666666666666 10.666666666666666 0 0 1 0 -21.333333333333332h40a2.6666666666666665 2.6666666666666665 0 0 0 2.6666666666666665 -2.6666666666666665V64a10.666666666666666 10.666666666666666 0 0 1 17.493333333333332 -8.213333333333333l32 26.666666666666664a10.666666666666666 10.666666666666666 0 0 1 0 16.426666666666666l-32 26.666666666666664a10.666666666666666 10.666666666666666 0 0 1 -6.826666666666666 2.453333333333333Z"/></svg>