<svg xmlns="http://www.w3.org/2000/svg" id="Database-Disable--Streamline-Ultimate" width="256" height="256" viewBox="0 0 256 256"><desc>Database Disable Streamline Icon: https://streamlinehq.com</desc><g id="Database-Disable--Streamline-Ultimate.svg"><path fill="#fff" stroke-width="10.667" d="M92.90666666666667 228.16a2.7733333333333334 2.7733333333333334 0 0 0 2.453333333333333 -1.0666666666666667A2.88 2.88 0 0 0 96 224a84.16 84.16 0 0 1 -8.533333333333333 -32 2.88 2.88 0 0 0 -2.2399999999999998 -2.5599999999999996 136.42666666666665 136.42666666666665 0 0 1 -65.70666666666666 -23.57333333333333 2.6666666666666665 2.6666666666666665 0 0 0 -2.7733333333333334 0 2.5599999999999996 2.5599999999999996 0 0 0 -1.4933333333333334 2.3466666666666667v18.453333333333333c-0.5333333333333333 20.266666666666666 32.85333333333333 37.33333333333333 77.65333333333334 41.49333333333333Z"/><path fill="#fff" stroke-width="10.667" d="M14.719999999999999 138.66666666666666c0 18.88 29.119999999999997 34.879999999999995 69.54666666666665 40.53333333333333a2.6666666666666665 2.6666666666666665 0 0 0 2.0266666666666664 -0.5333333333333333 2.3466666666666667 2.3466666666666667 0 0 0 0.96 -1.8133333333333335 84.16 84.16 0 0 1 9.386666666666667 -29.973333333333333 2.6666666666666665 2.6666666666666665 0 0 0 0 -2.5599999999999996 2.5599999999999996 2.5599999999999996 0 0 0 -2.1333333333333333 -1.2799999999999998c-30.506666666666664 -2.7733333333333334 -58.773333333333326 -11.2 -75.52 -24.746666666666663a2.6666666666666665 2.6666666666666665 0 0 0 -2.7733333333333334 0 2.5599999999999996 2.5599999999999996 0 0 0 -1.4933333333333334 2.3466666666666667Z"/><path fill="#fff" stroke-width="10.667" d="M116.05333333333334 96c-37.44 0 -76.37333333333333 -8.853333333333332 -97.06666666666666 -25.706666666666667a2.6666666666666665 2.6666666666666665 0 0 0 -2.7733333333333334 0 2.5599999999999996 2.5599999999999996 0 0 0 -1.4933333333333334 2.3466666666666667V90.66666666666666c0 21.866666666666664 39.14666666666666 40 89.6 42.666666666666664a2.3466666666666667 2.3466666666666667 0 0 0 2.1333333333333333 -0.96 85.33333333333333 85.33333333333333 0 0 1 99.30666666666667 -23.68 2.6666666666666665 2.6666666666666665 0 0 0 2.88 -0.5333333333333333 24.106666666666662 24.106666666666662 0 0 0 8.746666666666666 -17.173333333333332V72.32a2.6666666666666665 2.6666666666666665 0 0 0 -1.5999999999999999 -2.3466666666666667 2.6666666666666665 2.6666666666666665 0 0 0 -2.7733333333333334 0C192 87.14666666666666 153.38666666666666 96 116.05333333333334 96Z"/><path fill="#fff" stroke-width="10.667" d="M14.719999999999999 42.666666666666664a101.33333333333333 42.666666666666664 0 1 0 202.66666666666666 0 101.33333333333333 42.666666666666664 0 1 0 -202.66666666666666 0"/><path fill="#fff" stroke-width="10.667" d="M171.94666666666666 117.33333333333333a69.33333333333333 69.33333333333333 0 1 0 69.33333333333333 69.33333333333333 69.44 69.44 0 0 0 -69.33333333333333 -69.33333333333333Zm0 117.33333333333333a47.67999999999999 47.67999999999999 0 0 1 -22.613333333333333 -5.653333333333333 2.7733333333333334 2.7733333333333334 0 0 1 -1.3866666666666667 -2.0266666666666664 2.6666666666666665 2.6666666666666665 0 0 1 0.7466666666666667 -2.2399999999999998l61.120000000000005 -61.120000000000005a2.7733333333333334 2.7733333333333334 0 0 1 2.2399999999999998 -0.7466666666666667 2.6666666666666665 2.6666666666666665 0 0 1 1.92 1.3866666666666667 46.82666666666666 46.82666666666666 0 0 1 5.653333333333333 22.4 48 48 0 0 1 -47.67999999999999 48Zm0 -96a47.78666666666667 47.78666666666667 0 0 1 22.4 5.653333333333333 2.7733333333333334 2.7733333333333334 0 0 1 1.3866666666666667 2.0266666666666664 2.6666666666666665 2.6666666666666665 0 0 1 -0.7466666666666667 2.2399999999999998l-61.120000000000005 61.120000000000005a2.7733333333333334 2.7733333333333334 0 0 1 -2.2399999999999998 0.7466666666666667 2.453333333333333 2.453333333333333 0 0 1 -1.92 -1.3866666666666667 46.93333333333334 46.93333333333334 0 0 1 -5.76 -22.4 48.10666666666666 48.10666666666666 0 0 1 48 -48Z"/></g></svg>