<svg xmlns="http://www.w3.org/2000/svg" viewBox="0 0 256 256" id="Data-File-Search--Streamline-Ultimate" height="256" width="256">
  <desc>
    Data File Search Streamline Icon: https://streamlinehq.com
  </desc>
  <g id="Data-File-Search--Streamline-Ultimate.svg">
    <path d="m93.33333333333333 226.13333333333333 26.77333333333333 26.77333333333333a10.666666666666666 10.666666666666666 0 0 0 15.04 0 10.666666666666666 10.666666666666666 0 0 0 0 -15.146666666666665l-26.666666666666664 -26.666666666666664a2.7733333333333334 2.7733333333333334 0 0 1 0 -3.3066666666666666 58.666666666666664 58.666666666666664 0 1 0 -106.66666666666666 -18.133333333333333 58.13333333333333 58.13333333333333 0 0 0 43.519999999999996 43.84 59.199999999999996 59.199999999999996 0 0 0 45.120000000000005 -7.68 2.5599999999999996 2.5599999999999996 0 0 1 2.88 0.31999999999999995ZM58.666666666666664 213.33333333333331A37.33333333333333 37.33333333333333 0 1 1 96 176.32 37.33333333333333 37.33333333333333 0 0 1 58.666666666666664 213.33333333333331Z" fill="#ffffff" stroke-width="10.6667"></path>
    <path d="M256 197.33333333333331V47.04A21.333333333333332 21.333333333333332 0 0 0 249.70666666666665 32L224 6.293333333333333A21.333333333333332 21.333333333333332 0 0 0 208.95999999999998 0H85.33333333333333a21.333333333333332 21.333333333333332 0 0 0 -21.333333333333332 21.333333333333332v77.86666666666666a2.5599999999999996 2.5599999999999996 0 0 0 2.3466666666666667 2.5599999999999996 84.16 84.16 0 0 1 15.573333333333332 3.3066666666666666 2.5599999999999996 2.5599999999999996 0 0 0 3.413333333333333 -2.453333333333333V26.666666666666664a5.333333333333333 5.333333333333333 0 0 1 5.333333333333333 -5.333333333333333h116.05333333333334a5.013333333333333 5.013333333333333 0 0 1 3.733333333333333 1.5999999999999999l22.613333333333333 22.613333333333333a5.013333333333333 5.013333333333333 0 0 1 1.5999999999999999 3.733333333333333V192a5.333333333333333 5.333333333333333 0 0 1 -5.333333333333333 5.333333333333333h-97.27999999999999a2.6666666666666665 2.6666666666666665 0 0 0 -2.453333333333333 1.8133333333333335 64 64 0 0 1 -4.4799999999999995 10.666666666666666 3.52 3.52 0 0 0 0 2.5599999999999996l4.906666666666666 4.8a5.013333333333333 5.013333333333333 0 0 0 3.093333333333333 1.3866666666666667H234.66666666666666a21.333333333333332 21.333333333333332 0 0 0 21.333333333333332 -21.226666666666667Z" fill="#ffffff" stroke-width="10.6667"></path>
    <path d="M120.21333333333332 133.12a10.666666666666666 10.666666666666666 0 0 0 10.666666666666666 -4.16l17.599999999999998 -24.746666666666663a2.5599999999999996 2.5599999999999996 0 0 1 3.52 -0.7466666666666667l16.106666666666666 9.6a10.666666666666666 10.666666666666666 0 0 0 13.226666666666667 -1.5999999999999999l1.0666666666666667 -1.2799999999999998 28.69333333333333 -39.89333333333333a10.666666666666666 10.666666666666666 0 1 0 -17.28 -12.373333333333331l-21.333333333333332 29.866666666666664a2.6666666666666665 2.6666666666666665 0 0 1 -3.52 0.6399999999999999l-16.21333333333333 -9.6a10.666666666666666 10.666666666666666 0 0 0 -14.08 2.986666666666667l-24.64 34.773333333333326a9.706666666666667 9.706666666666667 0 0 0 -1.8133333333333335 6.293333333333333 5.333333333333333 5.333333333333333 0 0 0 0 1.3866666666666667 84.47999999999999 84.47999999999999 0 0 1 6.826666666666666 8.213333333333333Z" fill="#ffffff" stroke-width="10.6667"></path>
  </g>
</svg>