<svg xmlns="http://www.w3.org/2000/svg" id="Day-Sunrise-1--Streamline-Ultimate" width="256" height="256" viewBox="0 0 256 256"><desc>Day Sunrise 1 Streamline Icon: https://streamlinehq.com</desc><g id="Day-Sunrise-1--Streamline-Ultimate.svg"><path fill="#fff" stroke-width="10.667" d="m79.57333333333332 164.26666666666665 6.293333333333333 -8.426666666666666a2.7733333333333334 2.7733333333333334 0 0 0 0 -3.1999999999999997 53.33333333333333 53.33333333333333 0 1 1 84.47999999999999 0 2.6666666666666665 2.6666666666666665 0 0 0 0 3.1999999999999997l6.506666666666666 8.533333333333333a28.479999999999997 28.479999999999997 0 0 1 2.6666666666666665 4.586666666666666 2.6666666666666665 2.6666666666666665 0 0 0 4.4799999999999995 0.7466666666666667 74.66666666666666 74.66666666666666 0 1 0 -111.46666666666665 0A2.3466666666666667 2.3466666666666667 0 0 0 74.66666666666666 170.66666666666666a2.3466666666666667 2.3466666666666667 0 0 0 2.0266666666666664 -1.4933333333333334 26.77333333333333 26.77333333333333 0 0 1 2.7733333333333334 -4.8Z"/><path fill="#fff" stroke-width="10.667" d="M18.56 130.66666666666666h16a10.666666666666666 10.666666666666666 0 0 0 0 -21.333333333333332h-16a10.666666666666666 10.666666666666666 0 0 0 0 21.333333333333332Z"/><path fill="#fff" stroke-width="10.667" d="M54.39999999999999 61.54666666666666a10.666666666666666 10.666666666666666 0 0 0 15.04 0 10.666666666666666 10.666666666666666 0 0 0 0 -15.04L58.13333333333333 35.093333333333334a10.666666666666666 10.666666666666666 0 0 0 -15.466666666666665 0 10.666666666666666 10.666666666666666 0 0 0 0 15.146666666666665Z"/><path fill="#fff" stroke-width="10.667" d="M128 37.33333333333333a10.666666666666666 10.666666666666666 0 0 0 10.666666666666666 -10.666666666666666V10.666666666666666a10.666666666666666 10.666666666666666 0 0 0 -21.333333333333332 0v16a10.666666666666666 10.666666666666666 0 0 0 10.666666666666666 10.666666666666666Z"/><path fill="#fff" stroke-width="10.667" d="M42.666666666666664 204.90666666666667a10.666666666666666 10.666666666666666 0 0 0 15.04 0l11.306666666666667 -11.413333333333334a10.666666666666666 10.666666666666666 0 0 0 -14.613333333333333 -15.04L42.666666666666664 189.76a10.666666666666666 10.666666666666666 0 0 0 0 15.146666666666665Z"/><path fill="#fff" stroke-width="10.667" d="M210.55999999999997 120a10.666666666666666 10.666666666666666 0 0 0 10.666666666666666 10.666666666666666h16a10.666666666666666 10.666666666666666 0 0 0 0 -21.333333333333332h-16a10.666666666666666 10.666666666666666 0 0 0 -10.666666666666666 10.666666666666666Z"/><path fill="#fff" stroke-width="10.667" d="M193.92 64.63999999999999a10.666666666666666 10.666666666666666 0 0 0 7.573333333333332 -3.093333333333333L213.33333333333331 50.239999999999995a10.666666666666666 10.666666666666666 0 0 0 0 -15.146666666666665 10.666666666666666 10.666666666666666 0 0 0 -15.04 0l-11.946666666666667 11.413333333333334a10.666666666666666 10.666666666666666 0 0 0 0 15.04 10.666666666666666 10.666666666666666 0 0 0 7.573333333333332 3.093333333333333Z"/><path fill="#fff" stroke-width="10.667" d="M201.49333333333334 178.45333333333332a10.666666666666666 10.666666666666666 0 0 0 -15.146666666666665 0 10.666666666666666 10.666666666666666 0 0 0 0 15.04l11.413333333333334 11.413333333333334a10.666666666666666 10.666666666666666 0 0 0 7.466666666666666 3.093333333333333 10.666666666666666 10.666666666666666 0 0 0 7.573333333333332 -3.093333333333333 10.666666666666666 10.666666666666666 0 0 0 0 -15.146666666666665Z"/><path fill="#fff" stroke-width="10.667" d="M256 245.33333333333331a10.666666666666666 10.666666666666666 0 0 0 -10.666666666666666 -10.666666666666666H10.666666666666666a10.666666666666666 10.666666666666666 0 0 0 0 21.333333333333332h234.66666666666666a10.666666666666666 10.666666666666666 0 0 0 10.666666666666666 -10.666666666666666Z"/><path fill="#fff" stroke-width="10.667" d="M138.66666666666666 189.33333333333331a2.6666666666666665 2.6666666666666665 0 0 1 2.6666666666666665 -2.6666666666666665h16a8 8 0 0 0 6.3999999999999995 -12.799999999999999l-29.333333333333332 -39.14666666666666a8.106666666666666 8.106666666666666 0 0 0 -12.693333333333332 0L92.37333333333333 173.86666666666667a8 8 0 0 0 6.3999999999999995 12.799999999999999h16a2.6666666666666665 2.6666666666666665 0 0 1 2.6666666666666665 2.6666666666666665V213.33333333333331a10.666666666666666 10.666666666666666 0 0 0 21.333333333333332 0Z"/></g></svg>