<svg xmlns="http://www.w3.org/2000/svg" viewBox="0 0 256 256" id="Delete-2--Streamline-Ultimate" height="256" width="256">
  <desc>
    Delete 2 Streamline Icon: https://streamlinehq.com
  </desc>
  <path d="M256 128a128 128 0 1 0 -128 128 128 128 0 0 0 128 -128Zm-77.75999999999999 34.986666666666665a10.666666666666666 10.666666666666666 0 0 1 0 15.04 10.666666666666666 10.666666666666666 0 0 1 -15.146666666666665 0l-33.17333333333333 -33.17333333333333a2.7733333333333334 2.7733333333333334 0 0 0 -3.733333333333333 0l-33.17333333333333 33.17333333333333a10.666666666666666 10.666666666666666 0 0 1 -15.04 -15.04l33.17333333333333 -33.17333333333333a2.7733333333333334 2.7733333333333334 0 0 0 0 -3.733333333333333L77.97333333333333 92.90666666666667a10.666666666666666 10.666666666666666 0 0 1 0 -15.146666666666665 10.666666666666666 10.666666666666666 0 0 1 15.04 0l33.17333333333333 33.17333333333333a2.5599999999999996 2.5599999999999996 0 0 0 3.733333333333333 0l33.17333333333333 -33.17333333333333a10.666666666666666 10.666666666666666 0 1 1 15.146666666666665 15.146666666666665l-33.17333333333333 33.17333333333333a2.5599999999999996 2.5599999999999996 0 0 0 0 3.733333333333333Z" fill="#ffffff" stroke-width="10.6667"></path>
</svg>