<svg xmlns="http://www.w3.org/2000/svg" id="Delete--Streamline-Ultimate" width="256" height="256" viewBox="0 0 256 256"><desc>Delete Streamline Icon: https://streamlinehq.com</desc><path fill="#fff" stroke-width="10.667" d="M128 0a128 128 0 1 0 128 128A128 128 0 0 0 128 0ZM56.42666666666666 56.42666666666666a102.72 102.72 0 0 1 130.45333333333332 -10.666666666666666 2.7733333333333334 2.7733333333333334 0 0 1 0 4.266666666666667L49.81333333333333 187.30666666666664a2.88 2.88 0 0 1 -4.266666666666667 0 101.22666666666666 101.22666666666666 0 0 1 10.666666666666666 -130.56Zm143.57333333333332 143.68a101.65333333333332 101.65333333333332 0 0 1 -130.45333333333332 10.666666666666666 2.7733333333333334 2.7733333333333334 0 0 1 0 -4.266666666666667L206.61333333333334 69.22666666666666a2.7733333333333334 2.7733333333333334 0 0 1 4.266666666666667 0 101.22666666666666 101.22666666666666 0 0 1 -10.666666666666666 130.56Z"/></svg>