<svg xmlns="http://www.w3.org/2000/svg" viewBox="0 0 256 256" id="Delivery-Truck-Clock--Streamline-Ultimate" height="256" width="256">
  <desc>
    Delivery Truck Clock Streamline Icon: https://streamlinehq.com
  </desc>
  <g id="Delivery-Truck-Clock--Streamline-Ultimate.svg">
    <path d="M92.37333333333333 233.59999999999997a16 16 0 1 0 32 0 16 16 0 1 0 -32 0" fill="#ffffff" stroke-width="10.6667"></path>
    <path d="M235.73333333333335 142.50666666666666a21.333333333333332 21.333333333333332 0 0 0 -20.159999999999997 -15.573333333333332h-26.560000000000002a2.7733333333333334 2.7733333333333334 0 0 1 -2.6666666666666665 -2.453333333333333 19.626666666666665 19.626666666666665 0 0 0 -19.306666666666665 -16.21333333333333h-25.599999999999998a2.7733333333333334 2.7733333333333334 0 0 0 -2.3466666666666667 1.4933333333333334 80.32 80.32 0 0 1 -71.67999999999999 44.266666666666666l-6.72 0a3.3066666666666666 3.3066666666666666 0 0 0 -2.1333333333333333 0.7466666666666667 2.453333333333333 2.453333333333333 0 0 0 -0.8533333333333333 1.92v55.57333333333333a18.666666666666664 18.666666666666664 0 0 0 18.666666666666664 18.666666666666664h3.3066666666666666a2.6666666666666665 2.6666666666666665 0 0 0 2.6666666666666665 -2.1333333333333333 26.453333333333333 26.453333333333333 0 0 1 52.16 0 2.6666666666666665 2.6666666666666665 0 0 0 2.5599999999999996 2.2399999999999998H181.33333333333331a2.7733333333333334 2.7733333333333334 0 0 0 2.6666666666666665 -2.2399999999999998 26.453333333333333 26.453333333333333 0 0 1 52.16 0 2.1333333333333333 2.1333333333333333 0 0 0 2.1333333333333333 1.7066666666666666 18.346666666666664 18.346666666666664 0 0 0 14.826666666666664 -8.959999999999999 21.333333333333332 21.333333333333332 0 0 0 2.1333333333333333 -17.706666666666663Zm-22.4 5.653333333333333a2.6666666666666665 2.6666666666666665 0 0 1 2.5599999999999996 1.8133333333333335c0.7466666666666667 2.1333333333333333 2.2399999999999998 6.72 5.226666666666667 16.21333333333333a2.6666666666666665 2.6666666666666665 0 0 1 0 2.3466666666666667 2.3466666666666667 2.3466666666666667 0 0 1 -2.1333333333333333 1.0666666666666667h-30.506666666666664a2.6666666666666665 2.6666666666666665 0 0 1 -2.6666666666666665 -2.6666666666666665v-16a2.6666666666666665 2.6666666666666665 0 0 1 2.5599999999999996 -2.6666666666666665Z" fill="#ffffff" stroke-width="10.6667"></path>
    <path d="M193.70666666666665 233.59999999999997a16 16 0 1 0 32 0 16 16 0 1 0 -32 0" fill="#ffffff" stroke-width="10.6667"></path>
    <path d="M67.41333333333333 140.90666666666667A67.30666666666666 67.30666666666666 0 1 0 0 73.6a67.30666666666666 67.30666666666666 0 0 0 67.41333333333333 67.30666666666666Zm45.86666666666666 -67.30666666666666a45.97333333333333 45.97333333333333 0 1 1 -45.86666666666666 -45.86666666666666 45.97333333333333 45.97333333333333 0 0 1 45.86666666666666 45.86666666666666Z" fill="#ffffff" stroke-width="10.6667"></path>
    <path d="M67.41333333333333 84.26666666666667h19.626666666666665a10.666666666666666 10.666666666666666 0 0 0 0 -21.333333333333332h-6.293333333333333a2.6666666666666665 2.6666666666666665 0 0 1 -2.6666666666666665 -2.6666666666666665V49.06666666666666a10.666666666666666 10.666666666666666 0 0 0 -21.333333333333332 0v24.53333333333333a10.666666666666666 10.666666666666666 0 0 0 10.666666666666666 10.666666666666666Z" fill="#ffffff" stroke-width="10.6667"></path>
  </g>
</svg>