<svg xmlns="http://www.w3.org/2000/svg" viewBox="0 0 256 256" id="Delivery-Package-Person--Streamline-Ultimate" height="256" width="256">
  <desc>
    Delivery Package Person Streamline Icon: https://streamlinehq.com
  </desc>
  <g id="Delivery-Package-Person--Streamline-Ultimate.svg">
    <path d="M117.33333333333333 133.33333333333331H88a2.6666666666666665 2.6666666666666665 0 0 0 -2.6666666666666665 2.6666666666666665v40a5.333333333333333 5.333333333333333 0 0 1 -8.533333333333333 4.266666666666667l-10.666666666666666 -8.426666666666666a2.88 2.88 0 0 0 -3.1999999999999997 0l-10.666666666666666 8.426666666666666a5.333333333333333 5.333333333333333 0 0 1 -8.533333333333333 -4.266666666666667v-40a2.6666666666666665 2.6666666666666665 0 0 0 -2.6666666666666665 -2.6666666666666665H10.666666666666666a10.666666666666666 10.666666666666666 0 0 0 -10.666666666666666 10.666666666666666V245.33333333333331a10.666666666666666 10.666666666666666 0 0 0 10.666666666666666 10.666666666666666h106.66666666666666a10.666666666666666 10.666666666666666 0 0 0 10.666666666666666 -10.666666666666666v-101.33333333333333a10.666666666666666 10.666666666666666 0 0 0 -10.666666666666666 -10.666666666666666Z" fill="#ffffff" stroke-width="10.6667"></path>
    <path d="M227.2 89.17333333333332a2.88 2.88 0 0 1 -1.4933333333333334 -2.3466666666666667 2.7733333333333334 2.7733333333333334 0 0 1 1.3866666666666667 -2.3466666666666667 45.44 45.44 0 0 0 22.4 -39.14666666666666A46.39999999999999 46.39999999999999 0 0 0 204.16 0a45.86666666666666 45.86666666666666 0 0 0 -40.53333333333333 25.173333333333332 2.6666666666666665 2.6666666666666665 0 0 1 -2.453333333333333 1.4933333333333334H144a10.666666666666666 10.666666666666666 0 0 0 0 21.333333333333332h12.586666666666666a2.6666666666666665 2.6666666666666665 0 0 1 2.5599999999999996 2.3466666666666667 45.33333333333333 45.33333333333333 0 0 0 21.333333333333332 33.28 2.7733333333333334 2.7733333333333334 0 0 1 1.2799999999999998 2.453333333333333 2.6666666666666665 2.6666666666666665 0 0 1 -1.5999999999999999 2.2399999999999998A53.33333333333333 53.33333333333333 0 0 0 149.33333333333331 136.53333333333333v32a5.4399999999999995 5.4399999999999995 0 0 0 5.333333333333333 5.333333333333333H170.66666666666666a2.6666666666666665 2.6666666666666665 0 0 1 2.5599999999999996 2.453333333333333l8.106666666666666 73.38666666666666a5.4399999999999995 5.4399999999999995 0 0 0 5.333333333333333 4.8h32a5.333333333333333 5.333333333333333 0 0 0 5.333333333333333 -4.8l7.359999999999999 -73.17333333333333a2.6666666666666665 2.6666666666666665 0 0 1 2.6666666666666665 -2.453333333333333h16.64a5.4399999999999995 5.4399999999999995 0 0 0 5.333333333333333 -5.333333333333333v-32a53.33333333333333 53.33333333333333 0 0 0 -28.8 -47.57333333333333Zm-0.8533333333333333 -41.17333333333333a1.92 1.92 0 0 1 1.0666666666666667 0 1.4933333333333334 1.4933333333333334 0 0 1 0 1.1733333333333333 23.893333333333334 23.893333333333334 0 0 1 -46.08 2.1333333333333333 2.453333333333333 2.453333333333333 0 0 1 0 -2.2399999999999998 2.5599999999999996 2.5599999999999996 0 0 1 2.0266666666666664 -1.0666666666666667Z" fill="#ffffff" stroke-width="10.6667"></path>
  </g>
</svg>