<svg xmlns="http://www.w3.org/2000/svg" viewBox="0 0 256 256" id="Delivery-Drone--Streamline-Ultimate" height="256" width="256">
  <desc>
    Delivery Drone Streamline Icon: https://streamlinehq.com
  </desc>
  <g id="Delivery-Drone--Streamline-Ultimate.svg">
    <path d="M173.65333333333334 153.49333333333334h-27.733333333333334a2.6666666666666665 2.6666666666666665 0 0 0 -2.6666666666666665 2.6666666666666665v32a2.5599999999999996 2.5599999999999996 0 0 1 -1.5999999999999999 2.453333333333333 2.6666666666666665 2.6666666666666665 0 0 1 -2.88 -0.5333333333333333l-8.853333333333332 -8.746666666666666a2.6666666666666665 2.6666666666666665 0 0 0 -3.84 0l-8.853333333333332 8.853333333333332a2.6666666666666665 2.6666666666666665 0 0 1 -2.88 0.5333333333333333 2.5599999999999996 2.5599999999999996 0 0 1 -1.5999999999999999 -2.453333333333333v-32a2.6666666666666665 2.6666666666666665 0 0 0 -2.6666666666666665 -2.6666666666666665h-27.733333333333334a5.333333333333333 5.333333333333333 0 0 0 -5.333333333333333 5.333333333333333v81.06666666666666a5.333333333333333 5.333333333333333 0 0 0 5.333333333333333 5.333333333333333h91.30666666666667a5.333333333333333 5.333333333333333 0 0 0 5.333333333333333 -5.333333333333333v-81.17333333333333a5.333333333333333 5.333333333333333 0 0 0 -5.333333333333333 -5.333333333333333Z" fill="#ffffff" stroke-width="10.6667"></path>
    <path d="M255.25333333333333 23.786666666666665a10.666666666666666 10.666666666666666 0 0 0 -12.159999999999998 -7.786666666666666l-30.93333333333333 6.933333333333334a2.2399999999999998 2.2399999999999998 0 0 1 -1.8133333333333335 0 2.2399999999999998 2.2399999999999998 0 0 1 -0.7466666666666667 -1.5999999999999999 10.666666666666666 10.666666666666666 0 1 0 -20.37333333333333 0 2.2399999999999998 2.2399999999999998 0 0 1 -0.7466666666666667 1.5999999999999999 2.2399999999999998 2.2399999999999998 0 0 1 -1.8133333333333335 0l-30.93333333333333 -6.933333333333334a10.666666666666666 10.666666666666666 0 0 0 -4.4799999999999995 19.946666666666665l35.839999999999996 7.893333333333333a2.7733333333333334 2.7733333333333334 0 0 1 2.1333333333333333 2.6666666666666665v15.146666666666665a10.666666666666666 10.666666666666666 0 0 1 -7.359999999999999 9.813333333333333L160 77.97333333333333a2.2399999999999998 2.2399999999999998 0 0 1 -2.2399999999999998 -0.7466666666666667 35.519999999999996 35.519999999999996 0 0 0 -58.45333333333333 0A2.5599999999999996 2.5599999999999996 0 0 1 96 77.86666666666666l-21.333333333333332 -6.3999999999999995a10.666666666666666 10.666666666666666 0 0 1 -7.359999999999999 -9.813333333333333V46.50666666666667a2.7733333333333334 2.7733333333333334 0 0 1 2.1333333333333333 -2.6666666666666665l35.839999999999996 -7.893333333333333A10.666666666666666 10.666666666666666 0 0 0 100.26666666666667 16l-30.93333333333333 6.933333333333334a2.2399999999999998 2.2399999999999998 0 0 1 -1.8133333333333335 0A2.2399999999999998 2.2399999999999998 0 0 1 66.77333333333333 21.333333333333332a10.666666666666666 10.666666666666666 0 1 0 -20.37333333333333 0 2.2399999999999998 2.2399999999999998 0 0 1 -0.7466666666666667 1.5999999999999999 2.2399999999999998 2.2399999999999998 0 0 1 -1.8133333333333335 0l-30.93333333333333 -6.933333333333334a10.666666666666666 10.666666666666666 0 0 0 -4.4799999999999995 19.946666666666665l35.839999999999996 7.893333333333333a2.7733333333333334 2.7733333333333334 0 0 1 2.1333333333333333 2.6666666666666665v15.146666666666665a30.93333333333333 30.93333333333333 0 0 0 21.973333333333333 29.439999999999998l22.08 6.3999999999999995a2.5599999999999996 2.5599999999999996 0 0 1 1.92 2.3466666666666667l0.6399999999999999 4.266666666666667a2.5599999999999996 2.5599999999999996 0 0 1 -2.0266666666666664 3.093333333333333L64 113.38666666666667A30.4 30.4 0 0 0 43.84 128a31.253333333333334 31.253333333333334 0 0 0 -3.1999999999999997 24.106666666666662l4.266666666666667 14.826666666666664a10.666666666666666 10.666666666666666 0 1 0 19.626666666666665 -5.653333333333333l-4.266666666666667 -14.826666666666664a10.666666666666666 10.666666666666666 0 0 1 7.68 -12.799999999999999l32 -7.04a8.106666666666666 8.106666666666666 0 0 0 2.7733333333333334 -1.1733333333333333 2.7733333333333334 2.7733333333333334 0 0 1 3.093333333333333 0 35.093333333333334 35.093333333333334 0 0 0 44.58666666666666 0 2.6666666666666665 2.6666666666666665 0 0 1 3.093333333333333 0 7.253333333333334 7.253333333333334 0 0 0 2.7733333333333334 1.1733333333333333l32 7.04a10.666666666666666 10.666666666666666 0 0 1 7.68 12.799999999999999L192 160.85333333333332a10.666666666666666 10.666666666666666 0 1 0 19.626666666666665 5.653333333333333l4.266666666666667 -14.826666666666664a31.253333333333334 31.253333333333334 0 0 0 -3.1999999999999997 -24.106666666666662 30.4 30.4 0 0 0 -19.626666666666665 -14.186666666666667l-27.52 -6.186666666666666a2.5599999999999996 2.5599999999999996 0 0 1 -2.0266666666666664 -3.093333333333333l0.6399999999999999 -4.266666666666667a2.5599999999999996 2.5599999999999996 0 0 1 1.92 -2.3466666666666667l22.08 -6.3999999999999995a30.93333333333333 30.93333333333333 0 0 0 21.973333333333333 -29.439999999999998V46.50666666666667a2.7733333333333334 2.7733333333333334 0 0 1 2.1333333333333333 -2.6666666666666665l35.839999999999996 -7.893333333333333a10.666666666666666 10.666666666666666 0 0 0 7.1466666666666665 -12.159999999999998ZM128 112.74666666666667a15.36 15.36 0 1 1 15.253333333333332 -15.36A15.36 15.36 0 0 1 128 112.74666666666667Z" fill="#ffffff" stroke-width="10.6667"></path>
  </g>
</svg>