<svg xmlns="http://www.w3.org/2000/svg" id="Dentistry-Tooth-Shield--Streamline-Ultimate" width="256" height="256" viewBox="0 0 256 256"><desc>Dentistry Tooth Shield Streamline Icon: https://streamlinehq.com</desc><path fill="#fff" stroke-width="10.667" d="M256 21.333333333333332a21.333333333333332 21.333333333333332 0 0 0 -21.333333333333332 -21.333333333333332H21.333333333333332A20.37333333333333 20.37333333333333 0 0 0 6.186666666666666 6.293333333333333 20.586666666666666 20.586666666666666 0 0 0 0 21.333333333333332v77.97333333333333A161.38666666666666 161.38666666666666 0 0 0 126.50666666666666 256a7.253333333333334 7.253333333333334 0 0 0 2.1333333333333333 0 7.573333333333332 7.573333333333332 0 0 0 2.1333333333333333 0A161.38666666666666 161.38666666666666 0 0 0 256 98.13333333333333Zm-83.52 135.46666666666664a97.17333333333332 97.17333333333332 0 0 1 -1.8133333333333335 19.626666666666665 5.973333333333334 5.973333333333334 0 0 1 -5.866666666666667 4.8 5.866666666666667 5.866666666666667 0 0 1 -5.866666666666667 -5.226666666666667c-2.3466666666666667 -22.186666666666667 -15.253333333333332 -39.14666666666666 -30.72 -39.14666666666666s-28.266666666666666 16.85333333333333 -30.72 39.04a5.973333333333334 5.973333333333334 0 0 1 -5.973333333333334 5.333333333333333 5.866666666666667 5.866666666666667 0 0 1 -6.186666666666666 -4.586666666666666 99.30666666666667 99.30666666666667 0 0 1 -2.0266666666666664 -19.84 93.12 93.12 0 0 1 5.76 -32.64 5.546666666666667 5.546666666666667 0 0 0 -0.96 -5.4399999999999995A60.906666666666666 60.906666666666666 0 0 1 74.66666666666666 76.8c0 -19.946666666666665 12.906666666666666 -35.733333333333334 28.906666666666666 -35.733333333333334a28.373333333333335 28.373333333333335 0 0 1 20.586666666666666 8.746666666666666 5.4399999999999995 5.4399999999999995 0 0 0 7.68 0 28.373333333333335 28.373333333333335 0 0 1 20.586666666666666 -8.746666666666666c16 0 28.906666666666666 15.786666666666665 28.906666666666666 35.733333333333334a60.906666666666666 60.906666666666666 0 0 1 -13.653333333333332 41.92 5.546666666666667 5.546666666666667 0 0 0 -0.96 5.4399999999999995 93.54666666666665 93.54666666666665 0 0 1 5.76 32.64Z"/></svg>