<svg xmlns="http://www.w3.org/2000/svg" fill="none" viewBox="0 0 256 256" id="Dental-Crown-1--Streamline-Ultimate" height="256" width="256">
  <desc>
    Dental Crown 1 Streamline Icon: https://streamlinehq.com
  </desc>
  <path fill="#ffffff" fill-rule="evenodd" d="M85.77184 5.573482666666667c0.11242666666666667 -0.003765333333333333 0.22496 -0.0051519999999999995 0.3374933333333333 -0.004170666666666666 9.166933333333333 0.08027733333333333 18.207253333333334 2.149024 26.496533333333332 6.063434666666667 5.617066666666666 2.6522666666666668 10.797866666666666 6.109013333333333 15.386666666666665 10.248533333333333 4.590933333333333 -4.139306666666666 9.774933333333333 -7.595733333333333 15.394133333333333 -10.247893333333334 8.2912 -3.913674666666666 17.333333333333332 -5.982592 26.502399999999998 -6.064063999999999 0.11306666666666666 -0.0010026666666666665 0.22719999999999999 0.00040533333333333334 0.3413333333333333 0.004245333333333334 17.789866666666665 0.6009493333333333 34.61546666666666 8.231658666666666 46.788266666666665 21.219285333333332 12.172799999999999 12.98752 18.699733333333334 30.272106666666666 18.148266666666665 48.063893333333326 -0.005333333333333333 0.16650666666666666 -0.016 0.3326933333333333 -0.03093333333333333 0.49855999999999995 -1.9647999999999999 20.963626666666666 -9.243733333333333 41.02549333333333 -21.082666666666665 58.31509333333333h-41.06346666666666V89.34506666666665c0 -4.418346666666666 -3.5818666666666665 -8 -8 -8H89.84010666666667c-4.41824 0 -8 3.5816533333333336 -8 8v44.32533333333333H38.528213333333326c-10.27296 -17.853866666666665 -16.347626666666663 -37.87712 -17.683093333333332 -58.54559999999999 -0.005653333333333333 -0.08842666666666667 -0.00992 -0.17696 -0.012693333333333334 -0.2654933333333333 -0.5570133333333334 -17.79413333333333 5.967466666666667 -35.08245333333333 18.141973333333333 -48.07178666666667S67.97888 6.168831999999999 85.77184 5.573482666666667ZM46.8192 149.67039999999997c-0.07733333333333334 0.7189333333333333 -0.2580266666666666 1.4250666666666665 -0.5387733333333333 2.096l-0.00031999999999999997 0 -0.027839999999999997 0.06826666666666667c-6.783359999999999 16.6592 -10.236373333333333 34.48533333333333 -10.163733333333333 52.47253333333333v19.053866666666664c0 7.179733333333333 2.852053333333333 14.065066666666667 7.928746666666666 19.141333333333332 5.076586666666667 5.076266666666666 11.962026666666667 7.928533333333332 19.141546666666663 7.928533333333332 7.17952 0 14.064853333333334 -2.852266666666667 19.141546666666663 -7.928533333333332 5.076586666666667 -5.076266666666666 7.92864 -11.961599999999999 7.92864 -19.141333333333332 0 -0.12906666666666666 -0.0030933333333333334 -0.2581333333333333 -0.00928 -0.3872 -0.49365333333333333 -10.186666666666666 2.9825066666666666 -20.167466666666666 9.69728 -27.8432 6.6864 -7.642666666666667 16.064853333333332 -12.407466666666666 26.17792 -13.301333333333334 5.3536 -0.2645333333333333 10.702933333333334 0.6090666666666666 15.696 2.562133333333333 5.0336 1.9701333333333333 9.588266666666666 4.9909333333333326 13.358933333333333 8.862933333333332 3.770666666666666 3.872 6.670933333333332 8.504533333333333 8.506666666666666 13.5872 1.8357333333333332 5.083733333333333 2.5653333333333332 10.500266666666667 2.1386666666666665 15.888 -0.017066666666666667 0.2101333333333333 -0.025599999999999998 0.4202666666666666 -0.025599999999999998 0.6314666666666666 0 7.179733333333333 2.852266666666667 14.065066666666667 7.929599999999999 19.141333333333332 5.076266666666666 5.076266666666666 11.961599999999999 7.928533333333332 19.141333333333332 7.928533333333332s14.065066666666667 -2.852266666666667 19.141333333333332 -7.928533333333332c5.076266666666666 -5.076266666666666 7.928533333333332 -11.961599999999999 7.928533333333332 -19.141333333333332v-19.1072c0.08639999999999999 -18.762666666666664 -3.6768 -37.33866666666667 -11.050666666666666 -54.583466666666666h-43.86986666666667c-4.4181333333333335 0 -8 -3.5818666666666665 -8 -8V97.34506666666665H97.84010666666667v44.32533333333333c0 4.4181333333333335 -3.5817599999999996 8 -8 8H46.8192Z" clip-rule="evenodd" stroke-width="10.6667"></path>
</svg>