<svg xmlns="http://www.w3.org/2000/svg" viewBox="0 0 256 256" id="Dentistry-Tooth-Chipped--Streamline-Ultimate" height="256" width="256">
  <desc>
    Dentistry Tooth Chipped Streamline Icon: https://streamlinehq.com
  </desc>
  <g id="Dentistry-Tooth-Chipped--Streamline-Ultimate.svg">
    <path d="M160 37.33333333333333a10.666666666666666 10.666666666666666 0 0 0 10.666666666666666 -10.666666666666666V10.666666666666666a10.666666666666666 10.666666666666666 0 0 0 -21.333333333333332 0v16a10.666666666666666 10.666666666666666 0 0 0 10.666666666666666 10.666666666666666Z" fill="#ffffff" stroke-width="10.6667"></path>
    <path d="M212.58666666666664 36.906666666666666a10.666666666666666 10.666666666666666 0 1 0 -15.04 -15.04l-11.413333333333334 11.306666666666667a10.666666666666666 10.666666666666666 0 0 0 0 15.146666666666665 10.666666666666666 10.666666666666666 0 0 0 7.573333333333332 3.093333333333333 10.666666666666666 10.666666666666666 0 0 0 7.573333333333332 -3.093333333333333Z" fill="#ffffff" stroke-width="10.6667"></path>
    <path d="M224 64h-16a10.666666666666666 10.666666666666666 0 0 0 0 21.333333333333332H224a10.666666666666666 10.666666666666666 0 0 0 0 -21.333333333333332Z" fill="#ffffff" stroke-width="10.6667"></path>
    <path d="M186.45333333333332 99.62666666666667a7.04 7.04 0 0 0 0 -1.4933333333333334 2.453333333333333 2.453333333333333 0 0 0 -2.3466666666666667 -2.1333333333333333 21.333333333333332 21.333333333333332 0 0 1 -21.333333333333332 -21.333333333333332 5.333333333333333 5.333333333333333 0 0 0 -6.3999999999999995 -5.76 21.333333333333332 21.333333333333332 0 0 1 -25.599999999999998 -21.333333333333332 3.52 3.52 0 0 0 -1.3866666666666667 -2.7733333333333334 3.413333333333333 3.413333333333333 0 0 0 -2.986666666666667 0 45.44 45.44 0 0 0 -18.666666666666664 10.666666666666666 5.546666666666667 5.546666666666667 0 0 1 -7.253333333333334 0A46.72 46.72 0 0 0 68.58666666666666 42.666666666666664C42.666666666666664 42.666666666666664 21.333333333333332 67.73333333333332 21.333333333333332 99.62666666666667a94.72 94.72 0 0 0 19.946666666666665 62.93333333333334 5.4399999999999995 5.4399999999999995 0 0 1 0.96 5.226666666666667 141.22666666666666 141.22666666666666 0 0 0 -8 47.46666666666667A153.81333333333333 153.81333333333333 0 0 0 37.33333333333333 245.33333333333331a13.866666666666667 13.866666666666667 0 0 0 13.546666666666667 10.666666666666666 14.186666666666667 14.186666666666667 0 0 0 14.08 -12.586666666666666C68.16 213.9733333333333 85.33333333333333 192 104 192s35.839999999999996 22.186666666666667 39.04 51.73333333333333A14.186666666666667 14.186666666666667 0 0 0 157.12 256 13.866666666666667 13.866666666666667 0 0 0 170.66666666666666 245.33333333333331a153.81333333333333 153.81333333333333 0 0 0 2.88 -29.759999999999998 141.22666666666666 141.22666666666666 0 0 0 -8 -47.46666666666667 5.4399999999999995 5.4399999999999995 0 0 1 0.96 -5.226666666666667 94.72 94.72 0 0 0 19.946666666666665 -63.25333333333333Z" fill="#ffffff" stroke-width="10.6667"></path>
  </g>
</svg>