<svg xmlns="http://www.w3.org/2000/svg" viewBox="0 0 256 256" id="Dentistry-Tooth-Jaws--Streamline-Ultimate" height="256" width="256">
  <desc>
    Dentistry Tooth Jaws Streamline Icon: https://streamlinehq.com
  </desc>
  <g id="Dentistry-Tooth-Jaws--Streamline-Ultimate.svg">
    <path d="M227.41333333333333 8.106666666666666a615.5733333333333 615.5733333333333 0 0 0 -198.82666666666665 0A21.333333333333332 21.333333333333332 0 0 0 10.666666666666666 29.119999999999997v69.33333333333333a21.333333333333332 21.333333333333332 0 0 0 21.333333333333332 21.333333333333332h32a20.266666666666666 20.266666666666666 0 0 0 8.426666666666666 -1.8133333333333335 5.4399999999999995 5.4399999999999995 0 0 1 4.4799999999999995 0 20.266666666666666 20.266666666666666 0 0 0 8.426666666666666 1.8133333333333335h32a20.266666666666666 20.266666666666666 0 0 0 8.426666666666666 -1.8133333333333335 5.4399999999999995 5.4399999999999995 0 0 1 4.4799999999999995 0 20.266666666666666 20.266666666666666 0 0 0 8.426666666666666 1.8133333333333335h32a20.266666666666666 20.266666666666666 0 0 0 8.426666666666666 -1.8133333333333335 5.4399999999999995 5.4399999999999995 0 0 1 4.4799999999999995 0 20.266666666666666 20.266666666666666 0 0 0 8.426666666666666 1.8133333333333335h32a21.333333333333332 21.333333333333332 0 0 0 21.333333333333332 -21.333333333333332v-69.33333333333333A21.333333333333332 21.333333333333332 0 0 0 227.41333333333333 8.106666666666666ZM64 93.12a5.333333333333333 5.333333333333333 0 0 1 -5.333333333333333 5.333333333333333h-21.333333333333332a5.333333333333333 5.333333333333333 0 0 1 -5.333333333333333 -5.333333333333333V70.50666666666666a15.893333333333333 15.893333333333333 0 0 1 4.16 -10.666666666666666 15.786666666666665 15.786666666666665 0 0 1 23.68 0 15.893333333333333 15.893333333333333 0 0 1 4.16 10.666666666666666Zm53.33333333333333 0a5.333333333333333 5.333333333333333 0 0 1 -5.333333333333333 5.333333333333333h-21.333333333333332a5.333333333333333 5.333333333333333 0 0 1 -5.333333333333333 -5.333333333333333v-32a5.226666666666667 5.226666666666667 0 0 1 0 -1.2799999999999998 15.893333333333333 15.893333333333333 0 0 1 32 0 5.226666666666667 5.226666666666667 0 0 1 0 1.2799999999999998Zm53.33333333333333 0a5.333333333333333 5.333333333333333 0 0 1 -5.333333333333333 5.333333333333333h-21.333333333333332a5.333333333333333 5.333333333333333 0 0 1 -5.333333333333333 -5.333333333333333v-32a5.226666666666667 5.226666666666667 0 0 1 0 -1.2799999999999998 15.893333333333333 15.893333333333333 0 0 1 32 0 5.226666666666667 5.226666666666667 0 0 1 0 1.2799999999999998Zm53.33333333333333 0a5.333333333333333 5.333333333333333 0 0 1 -5.333333333333333 5.333333333333333h-21.333333333333332a5.333333333333333 5.333333333333333 0 0 1 -5.333333333333333 -5.333333333333333V70.50666666666666a15.893333333333333 15.893333333333333 0 0 1 4.16 -10.666666666666666 15.786666666666665 15.786666666666665 0 0 1 23.68 0 15.893333333333333 15.893333333333333 0 0 1 4.16 10.666666666666666Z" fill="#ffffff" stroke-width="10.6667"></path>
    <path d="M224 136.2133333333333h-32a20.266666666666666 20.266666666666666 0 0 0 -8.426666666666666 1.8133333333333335 5.4399999999999995 5.4399999999999995 0 0 1 -4.4799999999999995 0 20.266666666666666 20.266666666666666 0 0 0 -8.426666666666666 -1.8133333333333335h-32a20.266666666666666 20.266666666666666 0 0 0 -8.426666666666666 1.8133333333333335 5.4399999999999995 5.4399999999999995 0 0 1 -4.4799999999999995 0 20.266666666666666 20.266666666666666 0 0 0 -8.426666666666666 -1.8133333333333335H85.33333333333333a20.266666666666666 20.266666666666666 0 0 0 -8.426666666666666 1.8133333333333335 5.4399999999999995 5.4399999999999995 0 0 1 -4.4799999999999995 0 20.266666666666666 20.266666666666666 0 0 0 -8.426666666666666 -1.8133333333333335H32a21.333333333333332 21.333333333333332 0 0 0 -21.333333333333332 21.333333333333332v69.33333333333333a21.333333333333332 21.333333333333332 0 0 0 17.919999999999998 21.333333333333332A610.6666666666666 610.6666666666666 0 0 0 128 256a610.6666666666666 610.6666666666666 0 0 0 99.41333333333333 -8.106666666666666 21.333333333333332 21.333333333333332 0 0 0 17.919999999999998 -21.333333333333332v-69.33333333333333a21.333333333333332 21.333333333333332 0 0 0 -21.333333333333332 -21.013333333333332ZM64 185.38666666666666a16 16 0 0 1 -32 0v-22.506666666666664a5.333333333333333 5.333333333333333 0 0 1 5.333333333333333 -5.333333333333333h21.333333333333332a5.333333333333333 5.333333333333333 0 0 1 5.333333333333333 5.333333333333333Zm53.33333333333333 0a16 16 0 0 1 -32 0v-22.506666666666664a5.333333333333333 5.333333333333333 0 0 1 5.333333333333333 -5.333333333333333h21.333333333333332a5.333333333333333 5.333333333333333 0 0 1 5.333333333333333 5.333333333333333Zm53.33333333333333 0a16 16 0 0 1 -32 0v-22.506666666666664a5.333333333333333 5.333333333333333 0 0 1 5.333333333333333 -5.333333333333333h21.333333333333332a5.333333333333333 5.333333333333333 0 0 1 5.333333333333333 5.333333333333333Zm53.33333333333333 0a16 16 0 0 1 -32 0v-22.506666666666664a5.333333333333333 5.333333333333333 0 0 1 5.333333333333333 -5.333333333333333h21.333333333333332a5.333333333333333 5.333333333333333 0 0 1 5.333333333333333 5.333333333333333Z" fill="#ffffff" stroke-width="10.6667"></path>
  </g>
</svg>