<svg xmlns="http://www.w3.org/2000/svg" id="Design-File-Ai--Streamline-Ultimate" width="256" height="256" viewBox="0 0 256 256"><desc>Design File Ai Streamline Icon: https://streamlinehq.com</desc><g id="Design-File-Ai--Streamline-Ultimate.svg"><path fill="#fff" stroke-width="10.667" d="M186.66666666666666 64h41.599999999999994a2.6666666666666665 2.6666666666666665 0 0 0 1.8133333333333335 -4.586666666666666L175.25333333333333 4.586666666666666A2.6666666666666665 2.6666666666666665 0 0 0 170.66666666666666 6.3999999999999995v41.599999999999994A16 16 0 0 0 186.66666666666666 64Z"/><path fill="#fff" stroke-width="10.667" d="M106.66666666666666 139.94666666666666a9.493333333333332 9.493333333333332 0 0 0 -9.386666666666667 9.386666666666667v6.613333333333333a2.7733333333333334 2.7733333333333334 0 0 0 2.7733333333333334 2.7733333333333334h13.226666666666667a2.7733333333333334 2.7733333333333334 0 0 0 2.7733333333333334 -2.7733333333333334V149.33333333333331a9.493333333333332 9.493333333333332 0 0 0 -9.386666666666667 -9.386666666666667Z"/><path fill="#fff" stroke-width="10.667" d="M232 74.66666666666666H186.66666666666666A26.666666666666664 26.666666666666664 0 0 1 160 48V2.6666666666666665a2.6666666666666665 2.6666666666666665 0 0 0 -2.6666666666666665 -2.6666666666666665H42.666666666666664a21.333333333333332 21.333333333333332 0 0 0 -21.333333333333332 21.333333333333332v213.33333333333331a21.333333333333332 21.333333333333332 0 0 0 21.333333333333332 21.333333333333332h170.66666666666666a21.333333333333332 21.333333333333332 0 0 0 21.333333333333332 -21.333333333333332V77.33333333333333a2.6666666666666665 2.6666666666666665 0 0 0 -2.6666666666666665 -2.6666666666666665Zm-102.72 122.66666666666666a6.613333333333333 6.613333333333333 0 1 1 -13.226666666666667 0v-22.613333333333333a2.7733333333333334 2.7733333333333334 0 0 0 -2.7733333333333334 -2.7733333333333334H100.05333333333334a2.7733333333333334 2.7733333333333334 0 0 0 -2.7733333333333334 2.7733333333333334v22.613333333333333a6.613333333333333 6.613333333333333 0 0 1 -13.226666666666667 0v-46.72a23.46666666666667 23.46666666666667 0 0 1 20.266666666666666 -23.786666666666665A22.613333333333333 22.613333333333333 0 0 1 129.27999999999997 149.33333333333331Zm34.666666666666664 -6.613333333333333h1.2799999999999998a6.613333333333333 6.613333333333333 0 1 1 0 13.226666666666667h-21.333333333333332a6.613333333333333 6.613333333333333 0 0 1 0 -13.226666666666667h1.3866666666666667a2.6666666666666665 2.6666666666666665 0 0 0 2.6666666666666665 -2.6666666666666665v-45.33333333333333a2.7733333333333334 2.7733333333333334 0 0 0 -2.6666666666666665 -2.7733333333333334h-1.3866666666666667a6.613333333333333 6.613333333333333 0 1 1 0 -13.226666666666667h21.333333333333332a6.613333333333333 6.613333333333333 0 1 1 0 13.226666666666667h-1.2799999999999998a2.6666666666666665 2.6666666666666665 0 0 0 -2.6666666666666665 2.6666666666666665v45.33333333333333a2.7733333333333334 2.7733333333333334 0 0 0 2.6666666666666665 2.7733333333333334Z"/></g></svg>