<svg xmlns="http://www.w3.org/2000/svg" viewBox="0 0 256 256" id="Design-Tool-Ink--Streamline-Ultimate" height="256" width="256">
  <desc>
    Design Tool Ink Streamline Icon: https://streamlinehq.com
  </desc>
  <g id="Design-Tool-Ink--Streamline-Ultimate.svg">
    <path d="M58.666666666666664 74.66666666666666h138.66666666666666a21.333333333333332 21.333333333333332 0 0 0 21.333333333333332 -21.333333333333332V21.333333333333332a21.333333333333332 21.333333333333332 0 0 0 -21.333333333333332 -21.333333333333332h-138.66666666666666a21.333333333333332 21.333333333333332 0 0 0 -21.333333333333332 21.333333333333332v32a21.333333333333332 21.333333333333332 0 0 0 21.333333333333332 21.333333333333332Zm56 -21.333333333333332a2.6666666666666665 2.6666666666666665 0 0 1 -2.6666666666666665 -2.6666666666666665v-26.666666666666664a2.6666666666666665 2.6666666666666665 0 0 1 2.6666666666666665 -2.6666666666666665h26.666666666666664a2.6666666666666665 2.6666666666666665 0 0 1 2.6666666666666665 2.6666666666666665v26.666666666666664a2.6666666666666665 2.6666666666666665 0 0 1 -2.6666666666666665 2.6666666666666665Zm82.66666666666666 -2.6666666666666665a2.6666666666666665 2.6666666666666665 0 0 1 -2.6666666666666665 2.6666666666666665h-26.666666666666664a2.6666666666666665 2.6666666666666665 0 0 1 -2.6666666666666665 -2.6666666666666665v-26.666666666666664a2.6666666666666665 2.6666666666666665 0 0 1 2.6666666666666665 -2.6666666666666665h26.666666666666664a2.6666666666666665 2.6666666666666665 0 0 1 2.6666666666666665 2.6666666666666665Zm-138.66666666666666 -26.666666666666664A2.6666666666666665 2.6666666666666665 0 0 1 61.33333333333333 21.333333333333332h26.666666666666664a2.6666666666666665 2.6666666666666665 0 0 1 2.6666666666666665 2.6666666666666665v26.666666666666664a2.6666666666666665 2.6666666666666665 0 0 1 -2.6666666666666665 2.6666666666666665h-26.666666666666664a2.6666666666666665 2.6666666666666665 0 0 1 -2.6666666666666665 -2.6666666666666665Z" fill="#ffffff" stroke-width="10.6667"></path>
    <path d="M200.2133333333333 109.86666666666667a5.4399999999999995 5.4399999999999995 0 0 1 -2.88 -4.693333333333333V96a5.333333333333333 5.333333333333333 0 0 0 -5.333333333333333 -5.333333333333333H64a5.333333333333333 5.333333333333333 0 0 0 -5.333333333333333 5.333333333333333v9.173333333333332a5.119999999999999 5.119999999999999 0 0 1 -2.88 4.693333333333333c-11.946666666666667 6.079999999999999 -39.78666666666666 23.68 -39.78666666666666 55.46666666666667v53.33333333333333A37.33333333333333 37.33333333333333 0 0 0 53.33333333333333 256h149.33333333333331a37.33333333333333 37.33333333333333 0 0 0 37.33333333333333 -37.33333333333333v-53.33333333333333c0 -31.786666666666665 -27.839999999999996 -49.38666666666666 -39.78666666666666 -55.46666666666667Zm-13.546666666666667 55.46666666666667a10.666666666666666 10.666666666666666 0 0 1 10.666666666666666 10.666666666666666v32a10.666666666666666 10.666666666666666 0 0 1 -10.666666666666666 10.666666666666666h-117.33333333333333a10.666666666666666 10.666666666666666 0 0 1 -10.666666666666666 -10.666666666666666v-32a10.666666666666666 10.666666666666666 0 0 1 10.666666666666666 -10.666666666666666Z" fill="#ffffff" stroke-width="10.6667"></path>
  </g>
</svg>