<svg xmlns="http://www.w3.org/2000/svg" viewBox="0 0 256 256" id="Design-Tool-Compass--Streamline-Ultimate" height="256" width="256">
  <desc>
    Design Tool Compass Streamline Icon: https://streamlinehq.com
  </desc>
  <g id="Design-Tool-Compass--Streamline-Ultimate.svg">
    <path d="M52.456533333333326 184.85546666666667H5.5808c-1.4378666666666666 0 -2.6037333333333335 1.1658666666666666 -2.6037333333333335 2.6037333333333335v18.125866666666667c0.023466666666666667 0.8234666666666667 0.20053333333333334 1.6362666666666668 0.5205333333333333 2.3957333333333333l18.541866666666664 36.9792c2.114133333333333 5.3728 9.251199999999999 6.442666666666666 12.846933333333332 1.9253333333333331 0.46399999999999997 -0.5834666666666666 0.8394666666666667 -1.232 1.1114666666666666 -1.9253333333333331l19.063466666666663 -36.9792c0.144 -0.7925333333333333 0.144 -1.6042666666666667 0 -2.3957333333333333v-18.125866666666667c0 -1.4378666666666666 -1.1658666666666666 -2.6037333333333335 -2.6048 -2.6037333333333335Z" fill="#ffffff" stroke-width="10.6667"></path>
    <path d="M5.5808 70.26986666666666h46.87573333333333c1.4389333333333332 0 2.6048 -1.1658666666666666 2.6048 -2.6048v-7.604266666666666c0 -20.04693333333333 -21.7024 -32.57599999999999 -39.06346666666666 -22.552533333333333C7.940266666666666 42.16 2.9770666666666665 50.75733333333333 2.9770666666666665 60.0608v7.604266666666666c0 1.4389333333333332 1.1658666666666666 2.6048 2.6037333333333335 2.6048Z" fill="#ffffff" stroke-width="10.6667"></path>
    <path d="m251.31413333333333 236.41813333333334 -13.333333333333332 -20.833066666666667c-0.46933333333333327 -0.7679999999999999 -0.46933333333333327 -1.7333333333333334 0 -2.5002666666666666 2.2944 -4.756266666666667 1.9391999999999998 -10.363733333333332 -0.9376 -14.792533333333333l-76.04266666666666 -120.41813333333332c-0.9568 -1.4912 -2.6048 -2.3935999999999997 -4.375466666666666 -2.3957333333333333H94.1248c-2.1930666666666667 0 -4.150399999999999 1.3749333333333331 -4.896 3.4368L69.74933333333333 131.62453333333332c-1.6831999999999998 3.6191999999999998 -5.188266666666666 6.049066666666667 -9.166933333333333 6.354133333333333H55.06133333333333V88.49919999999999c0 -1.4378666666666666 -1.1658666666666666 -2.6048 -2.6048 -2.6048H5.5808c-1.4378666666666666 0 -2.6037333333333335 1.1658666666666666 -2.6037333333333335 2.6048v78.12586666666667c0 1.4389333333333332 1.1658666666666666 2.6048 2.6037333333333335 2.6048h78.12693333333333c8.332799999999999 -0.31999999999999995 15.725866666666665 -5.437866666666666 18.957866666666668 -13.125333333333332l21.979733333333332 -58.64746666666666c0.47679999999999995 -0.7402666666666666 1.3077333333333332 -1.1754666666666667 2.187733333333333 -1.1456 1.0005333333333333 -0.07893333333333333 1.9626666666666666 0.4021333333333333 2.5002666666666666 1.2501333333333333l74.79253333333332 121.66933333333333c2.9728 4.808533333333333 8.3104 7.637333333333332 13.9584 7.3962666666666665 0.9386666666666665 -0.046933333333333334 1.824 0.43520000000000003 2.2922666666666665 1.2490666666666665l13.437866666666666 20.834133333333334c4.410666666666666 6.735999999999999 14.458666666666666 6.171733333333333 18.086399999999998 -1.0165333333333333 1.6842666666666668 -3.335466666666666 1.4602666666666666 -7.316266666666666 -0.5866666666666667 -10.4416Z" fill="#ffffff" stroke-width="10.6667"></path>
    <path d="M94.12373333333332 59.8528h62.50133333333333c2.8768 0 5.2085333333333335 -2.331733333333333 5.2085333333333335 -5.2085333333333335V39.01866666666666c0 -28.066133333333333 -30.381866666666667 -45.60746666666666 -54.687999999999995 -31.5744 -11.281066666666668 6.513066666666667 -18.229333333333333 18.549333333333333 -18.229333333333333 31.5744v15.6256c0 2.8768 2.331733333333333 5.2085333333333335 5.207466666666667 5.2085333333333335Zm31.2512 -41.667199999999994c8.0192 0 13.0304 8.680533333333333 9.0208 15.624533333333334 -4.0096 6.9450666666666665 -14.033066666666667 6.9450666666666665 -18.042666666666666 0 -0.9141333333333332 -1.5829333333333333 -1.3952 -3.3792 -1.3952 -5.2085333333333335 0 -5.752533333333333 4.663466666666666 -10.416 10.417066666666667 -10.416Z" fill="#ffffff" stroke-width="10.6667"></path>
  </g>
</svg>