<svg xmlns="http://www.w3.org/2000/svg" viewBox="0 0 256 256" id="Design-Tool-Fibonacci--Streamline-Ultimate" height="256" width="256">
  <desc>
    Design Tool Fibonacci Streamline Icon: https://streamlinehq.com
  </desc>
  <g id="Design-Tool-Fibonacci--Streamline-Ultimate.svg">
    <path d="M199.78666666666666 149.33333333333331a2.453333333333333 2.453333333333333 0 0 0 1.92 -0.8533333333333333 2.5599999999999996 2.5599999999999996 0 0 0 0.7466666666666667 -1.92A134.39999999999998 134.39999999999998 0 0 0 146.66666666666666 42.666666666666664a162.02666666666664 162.02666666666664 0 0 0 -89.27999999999999 -32 115.09333333333332 115.09333333333332 0 0 0 -12.159999999999998 0 2.6666666666666665 2.6666666666666665 0 0 0 -2.5599999999999996 2.986666666666667v133.01333333333332a2.6666666666666665 2.6666666666666665 0 0 0 2.6666666666666665 2.6666666666666665Z" fill="#ffffff" stroke-width="10.6667"></path>
    <path d="M53.33333333333333 225.17333333333332A55.67999999999999 55.67999999999999 0 0 1 42.666666666666664 192v48A16 16 0 0 0 58.666666666666664 256h64a98.34666666666666 98.34666666666666 0 0 1 -45.01333333333333 -10.666666666666666A68.69333333333333 68.69333333333333 0 0 1 53.33333333333333 225.17333333333332Z" fill="#ffffff" stroke-width="10.6667"></path>
    <path d="M53.33333333333333 162.7733333333333a1.5999999999999999 1.5999999999999999 0 0 0 -1.1733333333333333 -2.7733333333333334h-6.826666666666666a2.6666666666666665 2.6666666666666665 0 0 0 -2.6666666666666665 2.6666666666666665V192a41.599999999999994 41.599999999999994 0 0 1 10.666666666666666 -29.226666666666667Z" fill="#ffffff" stroke-width="10.6667"></path>
    <path d="M90.66666666666666 181.33333333333331a10.666666666666666 10.666666666666666 0 0 0 -9.813333333333333 11.52 15.786666666666665 15.786666666666665 0 0 0 3.84 10.666666666666666A14.293333333333333 14.293333333333333 0 0 0 96 208c11.413333333333334 0 21.333333333333332 -7.466666666666666 21.333333333333332 -16a31.253333333333334 31.253333333333334 0 0 0 -32 -32 30.826666666666668 30.826666666666668 0 0 0 -32 32 44.693333333333335 44.693333333333335 0 0 0 13.76 32.85333333333333A76.58666666666666 76.58666666666666 0 0 0 114.45333333333333 245.33333333333331a2.7733333333333334 2.7733333333333334 0 0 0 2.0266666666666664 -0.7466666666666667 2.453333333333333 2.453333333333333 0 0 0 0.8533333333333333 -1.92v-26.666666666666664a2.2399999999999998 2.2399999999999998 0 0 0 -1.1733333333333333 -2.0266666666666664 2.3466666666666667 2.3466666666666667 0 0 0 -2.3466666666666667 0A35.519999999999996 35.519999999999996 0 0 1 96 218.66666666666666a24.959999999999997 24.959999999999997 0 0 1 -19.413333333333334 -8.32 27.199999999999996 27.199999999999996 0 0 1 -6.3999999999999995 -17.493333333333332A20.69333333333333 20.69333333333333 0 0 1 90.66666666666666 170.66666666666666a5.333333333333333 5.333333333333333 0 0 1 0 10.666666666666666Z" fill="#ffffff" stroke-width="10.6667"></path>
    <path d="M128 192v50.239999999999995a2.88 2.88 0 0 0 0.8533333333333333 2.0266666666666664 2.7733333333333334 2.7733333333333334 0 0 0 2.0266666666666664 0.6399999999999999c33.28 -3.3066666666666666 68.47999999999999 -26.24 71.57333333333332 -82.13333333333333a2.7733333333333334 2.7733333333333334 0 0 0 -0.7466666666666667 -1.92 2.6666666666666665 2.6666666666666665 0 0 0 -1.92 -0.8533333333333333h-79.36a2.7733333333333334 2.7733333333333334 0 0 0 -2.453333333333333 1.4933333333333334 2.6666666666666665 2.6666666666666665 0 0 0 0 2.88A42.666666666666664 42.666666666666664 0 0 1 128 192Z" fill="#ffffff" stroke-width="10.6667"></path>
    <path d="M202.66666666666666 206.50666666666666A84.47999999999999 84.47999999999999 0 0 1 165.97333333333333 245.33333333333331a91.94666666666666 91.94666666666666 0 0 1 -43.30666666666666 10.666666666666666h74.66666666666666a16 16 0 0 0 16 -16v-46.82666666666666a2.7733333333333334 2.7733333333333334 0 0 0 -2.2399999999999998 -2.6666666666666665 2.88 2.88 0 0 0 -2.986666666666667 1.92 91.83999999999999 91.83999999999999 0 0 1 -5.4399999999999995 14.08Z" fill="#ffffff" stroke-width="10.6667"></path>
    <path d="M213.33333333333331 16A16 16 0 0 0 197.33333333333331 0H93.44a2.5599999999999996 2.5599999999999996 0 0 0 -2.6666666666666665 2.3466666666666667 2.5599999999999996 2.5599999999999996 0 0 0 1.92 2.88 166.72 166.72 0 0 1 17.066666666666666 5.4399999999999995 171.73333333333335 171.73333333333335 0 0 1 43.30666666666666 23.36A147.73333333333332 147.73333333333332 0 0 1 202.66666666666666 97.06666666666666a146.34666666666666 146.34666666666666 0 0 1 5.4399999999999995 16.32 2.6666666666666665 2.6666666666666665 0 0 0 5.226666666666667 -0.7466666666666667Z" fill="#ffffff" stroke-width="10.6667"></path>
  </g>
</svg>