<svg xmlns="http://www.w3.org/2000/svg" id="Design-Tool-Magic-Wand-1--Streamline-Ultimate" width="256" height="256" viewBox="0 0 256 256"><desc>Design Tool Magic Wand 1 Streamline Icon: https://streamlinehq.com</desc><path fill="#fff" stroke-width="10.667" d="m251.0933333333333 112.53333333333333 -28.479999999999997 -28.479999999999997a4.8 4.8 0 0 1 -0.5333333333333333 -2.0266666666666664l14.933333333333332 -44.58666666666666a14.08 14.08 0 0 0 -18.453333333333333 -18.453333333333333l-44.48 14.933333333333332a5.653333333333333 5.653333333333333 0 0 1 -2.0266666666666664 0L143.46666666666664 4.906666666666666a12.906666666666666 12.906666666666666 0 0 0 -22.72 10.666666666666666l4.906666666666666 43.73333333333333a6.186666666666666 6.186666666666666 0 0 1 0 1.1733333333333333l-46.29333333333333 25.599999999999998a13.12 13.12 0 0 0 3.626666666666667 25.173333333333332l30.186666666666667 7.04a2.5599999999999996 2.5599999999999996 0 0 1 1.92 1.8133333333333335 2.7733333333333334 2.7733333333333334 0 0 1 -0.6399999999999999 2.6666666666666665L3.9466666666666663 233.28a13.226666666666667 13.226666666666667 0 0 0 18.773333333333333 18.773333333333333l110.50666666666666 -110.50666666666666a2.986666666666667 2.986666666666667 0 0 1 2.6666666666666665 -0.6399999999999999 2.6666666666666665 2.6666666666666665 0 0 1 1.8133333333333335 2.0266666666666664l7.04 30.186666666666667a13.12 13.12 0 0 0 25.173333333333332 3.52l25.28 -45.54666666666666s0.96 -0.6399999999999999 1.0666666666666667 -0.7466666666666667l43.946666666666665 4.906666666666666a12.906666666666666 12.906666666666666 0 0 0 10.879999999999999 -22.72Z"/></svg>