<svg xmlns="http://www.w3.org/2000/svg" id="Design-Drawing-Board--Streamline-Ultimate" width="256" height="256" viewBox="0 0 256 256"><desc>Design Drawing Board Streamline Icon: https://streamlinehq.com</desc><g id="Design-Drawing-Board--Streamline-Ultimate.svg"><path fill="#fff" stroke-width="10.667" d="M117.57546666666667 242.33173333333332c0 8.024533333333332 8.686933333333332 13.04 15.637333333333332 9.028266666666667 3.2256 -1.8624 5.211733333333333 -5.3045333333333335 5.211733333333333 -9.028266666666667v-49.51786666666666c0 -1.44 -1.1669333333333332 -2.606933333333333 -2.6058666666666666 -2.606933333333333h-15.637333333333332c-1.4389333333333332 0 -2.6058666666666666 1.1669333333333332 -2.6058666666666666 2.606933333333333Z"/><path fill="#fff" stroke-width="10.667" d="M35.32266666666666 237.64053333333334c-4.1365333333333325 6.875733333333333 0.7210666666666665 15.652266666666666 8.744533333333333 15.797333333333334 4.277333333333333 0.07786666666666667 8.167466666666666 -2.466133333333333 9.812266666666666 -6.414933333333334l26.583466666666666 -53.0624c0.8597333333333333 -1.7546666666666666 -0.4448 -3.7962666666666665 -2.3978666666666664 -3.7535999999999996H60.65599999999999c-1.0154666666666667 -0.022399999999999996 -1.952 0.5471999999999999 -2.3978666666666664 1.4602666666666666Z"/><path fill="#fff" stroke-width="10.667" d="M202.1205333333333 247.02293333333333c3.0848 7.4079999999999995 13.0336 8.698666666666666 17.906133333333333 2.3221333333333334 2.5984 -3.3983999999999996 2.8554666666666666 -8.039466666666666 0.6506666666666666 -11.704533333333332l-22.935466666666663 -45.97333333333333c-0.44586666666666663 -0.9130666666666666 -1.3823999999999999 -1.4826666666666668 -2.3968 -1.4602666666666666h-17.410133333333334c-1.9530666666666667 -0.042666666666666665 -3.2576 1.9989333333333335 -2.3978666666666664 3.7535999999999996Z"/><path fill="#fff" stroke-width="10.667" d="M247.88586666666666 169.35786666666667c0 -5.757866666666666 -4.667733333333333 -10.4256 -10.424533333333333 -10.4256h-7.818666666666666c-1.44 0 -2.606933333333333 -1.1669333333333332 -2.606933333333333 -2.6058666666666666V59.89653333333334c0 -14.3936 -11.668266666666668 -26.061866666666663 -26.061866666666663 -26.061866666666663h-59.9424c-1.44 0 -2.606933333333333 -1.1669333333333332 -2.606933333333333 -2.6058666666666666V12.984533333333333c0 -8.024533333333332 -8.686933333333332 -13.04 -15.637333333333332 -9.028266666666667 -3.2256 1.8624 -5.211733333333333 5.3045333333333335 -5.211733333333333 9.028266666666667v18.244266666666665c0 1.4389333333333332 -1.1669333333333332 2.6058666666666666 -2.606933333333333 2.6058666666666666H55.02613333333333c-14.3936 0 -26.061866666666663 11.668266666666668 -26.061866666666663 26.061866666666663v96.42986666666667c0 1.4389333333333332 -1.1669333333333332 2.6058666666666666 -2.6058666666666666 2.6058666666666666H18.538666666666664c-8.024533333333332 0 -13.04 8.687999999999999 -9.028266666666667 15.637333333333332 1.8624 3.2256 5.3045333333333335 5.2128 9.028266666666667 5.2128h218.92266666666666c5.756799999999999 0 10.424533333333333 -4.667733333333333 10.424533333333333 -10.424533333333333ZM49.81333333333333 59.89653333333334c0 -2.878933333333333 2.3338666666666663 -5.2128 5.2128 -5.211733333333333h145.94773333333333c2.878933333333333 0 5.2128 2.3327999999999998 5.2128 5.211733333333333v96.42986666666667c0 1.4389333333333332 -1.1669333333333332 2.6058666666666666 -2.606933333333333 2.6058666666666666H52.42026666666666c-1.44 0 -2.606933333333333 -1.1669333333333332 -2.606933333333333 -2.6058666666666666Z"/></g></svg>