<svg xmlns="http://www.w3.org/2000/svg" viewBox="0 0 256 256" id="Design-Tool-Pencil-Ruler--Streamline-Ultimate" height="256" width="256">
  <desc>
    Design Tool Pencil Ruler Streamline Icon: https://streamlinehq.com
  </desc>
  <g id="Design-Tool-Pencil-Ruler--Streamline-Ultimate.svg">
    <path d="M99.2 64a2.6666666666666665 2.6666666666666665 0 0 0 2.2399999999999998 -1.2799999999999998 2.6666666666666665 2.6666666666666665 0 0 0 0 -2.5599999999999996L74.66666666666666 2.986666666666667a5.546666666666667 5.546666666666667 0 0 0 -9.6 0L37.12 60.16a2.6666666666666665 2.6666666666666665 0 0 0 0 2.5599999999999996 2.6666666666666665 2.6666666666666665 0 0 0 2.3466666666666667 1.2799999999999998Z" fill="#ffffff" stroke-width="10.6667"></path>
    <path d="M37.33333333333333 216a2.6666666666666665 2.6666666666666665 0 0 0 -2.6666666666666665 2.6666666666666665v2.6666666666666665a34.666666666666664 34.666666666666664 0 0 0 69.33333333333333 0v-2.6666666666666665a2.6666666666666665 2.6666666666666665 0 0 0 -2.6666666666666665 -2.6666666666666665Z" fill="#ffffff" stroke-width="10.6667"></path>
    <path d="M205.33333333333331 0h-53.33333333333333a16 16 0 0 0 -16 16v13.333333333333332A2.6666666666666665 2.6666666666666665 0 0 0 138.66666666666666 32h18.666666666666664a5.333333333333333 5.333333333333333 0 0 1 0 10.666666666666666H138.66666666666666a2.6666666666666665 2.6666666666666665 0 0 0 -2.6666666666666665 2.6666666666666665v26.666666666666664A2.6666666666666665 2.6666666666666665 0 0 0 138.66666666666666 74.66666666666666h18.666666666666664a5.333333333333333 5.333333333333333 0 0 1 0 10.666666666666666H138.66666666666666a2.6666666666666665 2.6666666666666665 0 0 0 -2.6666666666666665 2.6666666666666665v26.666666666666664A2.6666666666666665 2.6666666666666665 0 0 0 138.66666666666666 117.33333333333333h18.666666666666664a5.333333333333333 5.333333333333333 0 0 1 0 10.666666666666666H138.66666666666666a2.6666666666666665 2.6666666666666665 0 0 0 -2.6666666666666665 2.6666666666666665v26.666666666666664A2.6666666666666665 2.6666666666666665 0 0 0 138.66666666666666 160h18.666666666666664a5.333333333333333 5.333333333333333 0 0 1 0 10.666666666666666H138.66666666666666a2.6666666666666665 2.6666666666666665 0 0 0 -2.6666666666666665 2.6666666666666665v66.66666666666666a16 16 0 0 0 16 16h53.33333333333333a16 16 0 0 0 16 -16v-224a16 16 0 0 0 -16 -16Zm-26.666666666666664 208a13.333333333333332 13.333333333333332 0 1 1 -13.333333333333332 13.333333333333332 13.333333333333332 13.333333333333332 0 0 1 13.333333333333332 -13.333333333333332Z" fill="#ffffff" stroke-width="10.6667"></path>
    <g>
      <path d="M64 80a5.333333333333333 5.333333333333333 0 0 0 -5.333333333333333 -5.333333333333333h-21.333333333333332a2.6666666666666665 2.6666666666666665 0 0 0 -2.6666666666666665 2.6666666666666665V202.66666666666666a2.6666666666666665 2.6666666666666665 0 0 0 2.6666666666666665 2.6666666666666665h21.333333333333332a5.333333333333333 5.333333333333333 0 0 0 5.333333333333333 -5.333333333333333Z" fill="#ffffff" stroke-width="10.6667"></path>
      <path d="M104 77.33333333333333A2.6666666666666665 2.6666666666666665 0 0 0 101.33333333333333 74.66666666666666h-21.333333333333332a5.333333333333333 5.333333333333333 0 0 0 -5.333333333333333 5.333333333333333v120a5.333333333333333 5.333333333333333 0 0 0 5.333333333333333 5.333333333333333h21.333333333333332a2.6666666666666665 2.6666666666666665 0 0 0 2.6666666666666665 -2.6666666666666665Z" fill="#ffffff" stroke-width="10.6667"></path>
    </g>
  </g>
</svg>