<svg xmlns="http://www.w3.org/2000/svg" id="Design-File-Text-Image--Streamline-Ultimate" width="256" height="256" viewBox="0 0 256 256"><desc>Design File Text Image Streamline Icon: https://streamlinehq.com</desc><path fill="#fff" stroke-width="10.667" d="M228.37333333333333 52.373333333333335 182.29333333333332 6.293333333333333A21.333333333333332 21.333333333333332 0 0 0 167.14666666666665 0H42.666666666666664a21.333333333333332 21.333333333333332 0 0 0 -21.333333333333332 21.333333333333332v213.33333333333331a21.333333333333332 21.333333333333332 0 0 0 21.333333333333332 21.333333333333332h170.66666666666666a21.333333333333332 21.333333333333332 0 0 0 21.333333333333332 -21.333333333333332V67.52a21.333333333333332 21.333333333333332 0 0 0 -6.293333333333333 -15.146666666666665ZM91.73333333333332 48A16 16 0 1 1 75.73333333333332 64a16 16 0 0 1 16 -16Zm-16.21333333333333 87.89333333333333 15.68 -25.493333333333332a10.666666666666666 10.666666666666666 0 0 1 13.653333333333332 -2.2399999999999998l16.85333333333333 12.906666666666666a2.6666666666666665 2.6666666666666665 0 0 0 3.733333333333333 0l16.106666666666666 -20.69333333333333a10.666666666666666 10.666666666666666 0 0 1 8.64 -4.373333333333333 10.666666666666666 10.666666666666666 0 0 1 8.213333333333333 4.586666666666666l15.466666666666665 35.946666666666665a5.333333333333333 5.333333333333333 0 0 1 -4.906666666666666 7.466666666666666H80a5.333333333333333 5.333333333333333 0 0 1 -4.4799999999999995 -8.106666666666666Zm100.47999999999999 85.33333333333333h-106.66666666666666a8 8 0 0 1 0 -16h106.66666666666666a8 8 0 0 1 0 16Zm0 -37.33333333333333h-106.66666666666666a8 8 0 0 1 0 -16h106.66666666666666a8 8 0 0 1 0 16Z"/></svg>