<svg xmlns="http://www.w3.org/2000/svg" viewBox="0 0 256 256" id="Desktop-Computer-1--Streamline-Ultimate" height="256" width="256">
  <desc>
    Desktop Computer 1 Streamline Icon: https://streamlinehq.com
  </desc>
  <g id="Desktop-Computer-1--Streamline-Ultimate.svg">
    <path d="M131.83999999999997 202.66666666666666a1.5999999999999999 1.5999999999999999 0 0 1 0 -1.8133333333333335 1.7066666666666666 1.7066666666666666 0 0 1 1.5999999999999999 -0.96 10.666666666666666 10.666666666666666 0 0 0 0 -21.333333333333332H26.666666666666664a5.333333333333333 5.333333333333333 0 0 1 -5.333333333333333 -5.333333333333333V50.666666666666664a5.333333333333333 5.333333333333333 0 0 1 5.333333333333333 -5.333333333333333H202.66666666666666a5.333333333333333 5.333333333333333 0 0 1 5.333333333333333 5.333333333333333v5.333333333333333a10.666666666666666 10.666666666666666 0 0 0 21.333333333333332 0v-10.666666666666666a21.333333333333332 21.333333333333332 0 0 0 -21.333333333333332 -21.333333333333332H21.333333333333332a21.333333333333332 21.333333333333332 0 0 0 -21.333333333333332 21.333333333333332v133.33333333333331a21.333333333333332 21.333333333333332 0 0 0 21.333333333333332 21.333333333333332h67.73333333333332a2.6666666666666665 2.6666666666666665 0 0 1 2.3466666666666667 1.3866666666666667 2.88 2.88 0 0 1 0 2.7733333333333334L78.18666666666667 224a5.333333333333333 5.333333333333333 0 0 0 4.4799999999999995 8.32h58.666666666666664a5.333333333333333 5.333333333333333 0 0 0 4.4799999999999995 -8.32Z" fill="#ffffff" stroke-width="10.6667"></path>
    <path d="M245.33333333333331 82.66666666666666h-74.66666666666666a10.666666666666666 10.666666666666666 0 0 0 -10.666666666666666 10.666666666666666v128a10.666666666666666 10.666666666666666 0 0 0 10.666666666666666 10.666666666666666h74.66666666666666a10.666666666666666 10.666666666666666 0 0 0 10.666666666666666 -10.666666666666666v-128a10.666666666666666 10.666666666666666 0 0 0 -10.666666666666666 -10.666666666666666ZM234.66666666666666 117.33333333333333h-21.333333333333332a8 8 0 0 1 0 -16h21.333333333333332a8 8 0 0 1 0 16Zm2.6666666666666665 82.66666666666666a8.106666666666666 8.106666666666666 0 0 1 -8 8h-42.666666666666664a8 8 0 0 1 0 -16h42.666666666666664a8.106666666666666 8.106666666666666 0 0 1 8 8Z" fill="#ffffff" stroke-width="10.6667"></path>
  </g>
</svg>