<svg xmlns="http://www.w3.org/2000/svg" viewBox="0 0 256 256" id="Desktop-Monitor-Smiley--Streamline-Ultimate" height="256" width="256">
  <desc>
    Desktop Monitor Smiley Streamline Icon: https://streamlinehq.com
  </desc>
  <g id="Desktop-Monitor-Smiley--Streamline-Ultimate.svg">
    <path d="M256 16A16 16 0 0 0 240 0h-224A16 16 0 0 0 0 16v170.66666666666666A16 16 0 0 0 16 202.66666666666666h224a16 16 0 0 0 16 -16v-170.66666666666666Zm-21.333333333333332 138.66666666666666a5.333333333333333 5.333333333333333 0 0 1 -5.333333333333333 5.333333333333333h-202.66666666666666a5.333333333333333 5.333333333333333 0 0 1 -5.333333333333333 -5.333333333333333v-128a5.333333333333333 5.333333333333333 0 0 1 5.333333333333333 -5.333333333333333h202.66666666666666a5.333333333333333 5.333333333333333 0 0 1 5.333333333333333 5.333333333333333Z" fill="#ffffff" stroke-width="10.6667"></path>
    <path d="M153.06666666666666 220.58666666666664a5.4399999999999995 5.4399999999999995 0 0 0 -3.733333333333333 -1.92h-42.666666666666664a5.653333333333333 5.653333333333333 0 0 0 -4.053333333333333 1.92l-22.4 26.986666666666665a5.226666666666667 5.226666666666667 0 0 0 0 5.546666666666667A5.119999999999999 5.119999999999999 0 0 0 85.33333333333333 256h85.33333333333333a5.4399999999999995 5.4399999999999995 0 0 0 4.373333333333333 -8.426666666666666Z" fill="#ffffff" stroke-width="10.6667"></path>
    <path d="M101.33333333333333 77.33333333333333a10.666666666666666 10.666666666666666 0 0 0 10.666666666666666 -10.666666666666666V53.33333333333333a10.666666666666666 10.666666666666666 0 0 0 -21.333333333333332 0v13.333333333333332a10.666666666666666 10.666666666666666 0 0 0 10.666666666666666 10.666666666666666Z" fill="#ffffff" stroke-width="10.6667"></path>
    <path d="M160 77.33333333333333a10.666666666666666 10.666666666666666 0 0 0 10.666666666666666 -10.666666666666666V53.33333333333333a10.666666666666666 10.666666666666666 0 0 0 -21.333333333333332 0v13.333333333333332a10.666666666666666 10.666666666666666 0 0 0 10.666666666666666 10.666666666666666Z" fill="#ffffff" stroke-width="10.6667"></path>
    <path d="M164.69333333333333 103.25333333333333a47.89333333333333 47.89333333333333 0 0 1 -67.84 0 10.666666666666666 10.666666666666666 0 0 0 -15.04 15.146666666666665 69.44 69.44 0 0 0 98.02666666666666 0 10.666666666666666 10.666666666666666 0 0 0 -15.146666666666665 -15.146666666666665Z" fill="#ffffff" stroke-width="10.6667"></path>
  </g>
</svg>