<svg xmlns="http://www.w3.org/2000/svg" fill="none" viewBox="0 0 256 256" id="Diagnostic-Desktop--Streamline-Ultimate" height="256" width="256">
  <desc>
    Diagnostic Desktop Streamline Icon: https://streamlinehq.com
  </desc>
  <path fill="#ffffff" fill-rule="evenodd" d="M118.26133333333333 23.68h-9.408v39.519999999999996a29.482666666666663 29.482666666666663 0 0 0 58.96533333333333 0V23.68h-9.408a10.666666666666666 10.666666666666666 0 1 1 0 -21.333333333333332h10.026666666666666a20.704 20.704 0 0 1 20.714666666666666 20.69333333333333v40.16a50.816 50.816 0 0 1 -39.861333333333334 49.61066666666666 34.495999999999995 34.495999999999995 0 0 0 68.704 -4.4479999999999995V92.128a27.85066666666667 27.85066666666667 0 1 1 21.333333333333332 -0.6399999999999999v16.874666666666666a55.82933333333333 55.82933333333333 0 0 1 -111.46666666666665 4.554666666666666 50.80533333333333 50.80533333333333 0 0 1 -40.34133333333333 -49.71733333333333V23.04A20.69333333333333 20.69333333333333 0 0 1 108.224 2.3466666666666667h10.037333333333333a10.666666666666666 10.666666666666666 0 1 1 0 21.333333333333332Zm-98.34666666666666 2.496h51.605333333333334v21.333333333333332H21.610666666666663v140h211.70133333333334V160.10666666666665l0.9813333333333333 -0.96a71.84 71.84 0 0 0 20.351999999999997 -40.91733333333333v70.98666666666666a19.626666666666665 19.626666666666665 0 0 1 -19.626666666666665 19.626666666666665h-88.17066666666666l8.202666666666666 23.477333333333334h26.186666666666667a10.666666666666666 10.666666666666666 0 0 1 0 21.333333333333332H73.68533333333333a10.666666666666666 10.666666666666666 0 1 1 0 -21.333333333333332h26.186666666666667l8.213333333333333 -23.477333333333334H19.914666666666665a19.626666666666665 19.626666666666665 0 0 1 -19.626666666666665 -19.626666666666665V45.80266666666666a19.626666666666665 19.626666666666665 0 0 1 19.626666666666665 -19.626666666666665Z" clip-rule="evenodd" stroke-width="10.6667"></path>
</svg>