<svg xmlns="http://www.w3.org/2000/svg" viewBox="0 0 256 256" id="Diagram-Curve-Rise-Dash--Streamline-Ultimate" height="256" width="256">
  <desc>
    Diagram Curve Rise Dash Streamline Icon: https://streamlinehq.com
  </desc>
  <g id="Diagram-Curve-Rise-Dash--Streamline-Ultimate.svg">
    <path d="M0 128a15.36 15.36 0 0 0 30.72 0v-20.479999999999997a15.36 15.36 0 1 0 -30.72 0Z" fill="#ffffff" stroke-width="10.6667"></path>
    <path d="M128 137.49333333333334a15.36 15.36 0 1 0 -30.72 0v20.479999999999997a15.36 15.36 0 1 0 30.72 0Z" fill="#ffffff" stroke-width="10.6667"></path>
    <path d="M210.45333333333332 144.74666666666667A15.466666666666665 15.466666666666665 0 0 0 194.55999999999997 160a25.706666666666667 25.706666666666667 0 0 1 -3.626666666666667 12.159999999999998 15.36 15.36 0 0 0 5.4399999999999995 21.333333333333332 14.933333333333332 14.933333333333332 0 0 0 7.786666666666666 2.2399999999999998 15.466666666666665 15.466666666666665 0 0 0 13.226666666666667 -7.573333333333332 56.213333333333324 56.213333333333324 0 0 0 7.893333333333333 -26.77333333333333 15.466666666666665 15.466666666666665 0 0 0 -14.826666666666664 -16.64Z" fill="#ffffff" stroke-width="10.6667"></path>
    <path d="M90.13333333333333 79.46666666666667a26.453333333333333 26.453333333333333 0 0 1 6.293333333333333 10.666666666666666 15.253333333333332 15.253333333333332 0 0 0 14.719999999999999 11.306666666666667 18.56 18.56 0 0 0 4.16 0 15.36 15.36 0 0 0 10.666666666666666 -18.88 56.74666666666667 56.74666666666667 0 0 0 -13.76 -24.21333333333333 15.36 15.36 0 1 0 -22.08 21.333333333333332Z" fill="#ffffff" stroke-width="10.6667"></path>
    <path d="M134.82666666666665 211.83999999999997a62.50666666666667 62.50666666666667 0 0 0 18.773333333333333 3.1999999999999997h6.3999999999999995a15.36 15.36 0 1 0 0 -30.72h-6.3999999999999995a29.333333333333332 29.333333333333332 0 0 1 -8.533333333333333 -1.4933333333333334 15.36 15.36 0 1 0 -10.666666666666666 29.013333333333335Z" fill="#ffffff" stroke-width="10.6667"></path>
    <path d="M54.50666666666667 71.67999999999999a15.36 15.36 0 0 0 -2.1333333333333333 -30.613333333333333 57.28 57.28 0 0 0 -26.560000000000002 8.746666666666666A15.36 15.36 0 0 0 42.666666666666664 75.73333333333332a25.813333333333333 25.813333333333333 0 0 1 11.84 -4.053333333333333Z" fill="#ffffff" stroke-width="10.6667"></path>
    <path d="M251.51999999999998 117.33333333333333 220.79999999999998 86.39999999999999a15.466666666666665 15.466666666666665 0 0 0 -21.333333333333332 0L168.32 117.33333333333333a15.36 15.36 0 0 0 10.666666666666666 26.24h61.44a15.36 15.36 0 0 0 10.666666666666666 -26.24Z" fill="#ffffff" stroke-width="10.6667"></path>
  </g>
</svg>