<svg xmlns="http://www.w3.org/2000/svg" viewBox="0 0 256 256" id="Diagram-Up-Double--Streamline-Ultimate" height="256" width="256">
  <desc>
    Diagram Up Double Streamline Icon: https://streamlinehq.com
  </desc>
  <path d="M4.4799999999999995 33.92a15.253333333333332 15.253333333333332 0 0 0 10.666666666666666 26.133333333333333H26.666666666666664a2.6666666666666665 2.6666666666666665 0 0 1 2.6666666666666665 2.6666666666666665v94.61333333333332a98.66666666666666 98.66666666666666 0 0 0 197.33333333333331 0V62.72a2.6666666666666665 2.6666666666666665 0 0 1 2.6666666666666665 -2.6666666666666665h11.306666666666667a15.253333333333332 15.253333333333332 0 0 0 10.666666666666666 -26.133333333333333L222.18666666666664 4.4799999999999995a15.893333333333333 15.893333333333333 0 0 0 -10.666666666666666 -4.4799999999999995 15.573333333333332 15.573333333333332 0 0 0 -10.666666666666666 4.4799999999999995L170.66666666666666 33.92a15.253333333333332 15.253333333333332 0 0 0 10.666666666666666 26.133333333333333h11.413333333333334a2.7733333333333334 2.7733333333333334 0 0 1 2.6666666666666665 2.6666666666666665v94.61333333333332a67.94666666666666 67.94666666666666 0 0 1 -135.89333333333332 0V62.72a2.7733333333333334 2.7733333333333334 0 0 1 2.6666666666666665 -2.6666666666666665H74.66666666666666a15.253333333333332 15.253333333333332 0 0 0 10.666666666666666 -26.133333333333333L55.57333333333333 4.4799999999999995a15.573333333333332 15.573333333333332 0 0 0 -10.666666666666666 -4.4799999999999995 15.893333333333333 15.893333333333333 0 0 0 -10.666666666666666 4.4799999999999995Z" fill="#ffffff" stroke-width="10.6667"></path>
</svg>