<svg xmlns="http://www.w3.org/2000/svg" viewBox="0 0 256 256" id="Diagram-Arrow-Down-1--Streamline-Ultimate" height="256" width="256">
  <desc>
    Diagram Arrow Down 1 Streamline Icon: https://streamlinehq.com
  </desc>
  <path d="M256 10.666666666666666a10.666666666666666 10.666666666666666 0 0 0 -10.666666666666666 -10.666666666666666H10.666666666666666a10.666666666666666 10.666666666666666 0 0 0 -10.666666666666666 10.666666666666666v32a10.666666666666666 10.666666666666666 0 0 0 10.666666666666666 10.666666666666666h82.66666666666666a2.6666666666666665 2.6666666666666665 0 0 1 2.6666666666666665 2.6666666666666665V160a2.6666666666666665 2.6666666666666665 0 0 1 -2.6666666666666665 2.6666666666666665H58.666666666666664a10.666666666666666 10.666666666666666 0 0 0 -7.786666666666666 18.026666666666664l65.70666666666666 70.72a15.466666666666665 15.466666666666665 0 0 0 22.826666666666668 0l65.70666666666666 -70.72a10.666666666666666 10.666666666666666 0 0 0 -7.786666666666666 -18.026666666666664h-34.666666666666664A2.6666666666666665 2.6666666666666665 0 0 1 160 160V56a2.6666666666666665 2.6666666666666665 0 0 1 2.6666666666666665 -2.6666666666666665H245.33333333333331a10.666666666666666 10.666666666666666 0 0 0 10.666666666666666 -10.666666666666666Z" fill="#ffffff" stroke-width="10.6667"></path>
</svg>