<svg xmlns="http://www.w3.org/2000/svg" id="Diagram-Dash-Circle-Large-Head--Streamline-Ultimate" width="256" height="256" fill="none" viewBox="0 0 256 256"><desc>Diagram Dash Circle Large Head Streamline Icon: https://streamlinehq.com</desc><path fill="#fff" fill-rule="evenodd" stroke-width="10.667" d="M182.52906666666667 26.39605333333333c-7.003733333333333 -2.2736 -14.524799999999999 1.561173333333333 -16.79893333333333 8.56512 -2.273066666666667 7.004053333333333 1.5615999999999999 14.525013333333334 8.565333333333333 16.798613333333332 6.1696 2.00256 12.056533333333334 4.803733333333333 17.510399999999997 8.336746666666667 6.180266666666666 4.0036266666666664 14.436266666666665 2.23904 18.439466666666664 -3.941226666666666 4.0032 -6.180373333333333 2.238933333333333 -14.436053333333334 -3.941333333333333 -18.43968 -7.4048 -4.797226666666666 -15.398399999999999 -8.600533333333333 -23.77493333333333 -11.319573333333333Zm-113.25162666666667 4.042666666666666c-4.165546666666666 -4.165546666666666 -10.91936 -4.165546666666666 -15.084906666666665 0L4.903146666666666 79.72810666666666c-3.0506453333333328 3.0506666666666664 -3.9632341333333327 7.638506666666666 -2.3122346666666664 11.624426666666666 1.6509973333333332 3.985813333333333 5.540448 6.584746666666666 9.854741333333333 6.584746666666666h35.95573333333333v15.81632c0 7.3632 5.969493333333333 13.333333333333332 13.333333333333332 13.333333333333332 7.363733333333333 0 13.333333333333332 -5.970133333333333 13.333333333333332 -13.333333333333332V97.93728h35.95594666666666c4.314666666666667 0 8.203733333333332 -2.598933333333333 9.854933333333333 -6.584746666666666 1.6511999999999998 -3.98592 0.7381333333333333 -8.57376 -2.312533333333333 -11.624426666666666L69.27744 30.438719999999996ZM217.78986666666665 63.492266666666666c6.075733333333333 -4.16064 14.374399999999998 -2.60832 18.535466666666665 3.4674133333333335 4.8031999999999995 7.014293333333333 8.701866666666666 14.618346666666667 11.594666666666665 22.632213333333333 2.5002666666666666 6.926293333333334 -1.0879999999999999 14.568213333333333 -8.013866666666665 17.068586666666665 -6.9269333333333325 2.5000533333333332 -14.568533333333331 -1.0875733333333333 -17.0688 -8.013866666666665 -2.1247999999999996 -5.884906666666667 -4.986666666666666 -11.468799999999998 -8.514133333333334 -16.619733333333333 -4.161066666666667 -6.0756266666666665 -2.6090666666666666 -14.373866666666666 3.466666666666667 -18.534613333333333Zm36.407466666666664 68.29546666666667c0.4437333333333333 -7.3504000000000005 -5.1552 -13.668266666666668 -12.505600000000001 -14.111999999999998 -7.3504000000000005 -0.44266666666666665 -13.669333333333334 5.156266666666666 -14.111999999999998 12.506666666666668 -0.3701333333333333 6.1376 -1.424 12.220799999999999 -3.1445333333333334 18.136533333333333 -2.0554666666666668 7.0709333333333335 2.0096 14.469333333333333 9.080533333333332 16.525866666666666 7.0709333333333335 2.0565333333333333 14.469333333333333 -2.0085333333333333 16.525866666666666 -9.079466666666665 2.2741333333333333 -7.820799999999999 3.6661333333333332 -15.863466666666667 4.155733333333333 -23.9776Zm-26.043733333333336 42.458666666666666c5.658666666666666 4.712533333333333 6.424533333333333 13.12 1.712 18.7776 -5.384533333333334 6.465066666666666 -11.578666666666665 12.225066666666665 -18.436266666666665 17.133866666666666 -5.988266666666666 4.285866666666666 -14.3168 2.9066666666666667 -18.602666666666664 -3.0816 -4.286933333333333 -5.9872 -2.9066666666666667 -14.3168 3.0805333333333333 -18.602666666666664 5.010133333333333 -3.5850666666666666 9.534933333333333 -7.793066666666666 13.467733333333332 -12.5152 4.7136 -5.658666666666666 13.12 -6.4256 18.778666666666666 -1.712Zm-53.87946666666666 53.13386666666666c7.170133333333333 -1.6778666666666666 11.623466666666666 -8.850133333333332 9.945599999999999 -16.020266666666664 -1.6778666666666666 -7.170133333333333 -8.850133333333332 -11.623466666666666 -16.020266666666664 -9.945599999999999 -6.4288 1.5039999999999998 -13.019733333333331 2.235733333333333 -19.631999999999998 2.174933333333333 -7.3632 -0.06826666666666667 -13.387733333333333 5.8453333333333335 -13.456 13.208533333333332 -0.06826666666666667 7.3642666666666665 5.8464 13.3888 13.209599999999998 13.456 8.741333333333333 0.08106666666666666 17.454933333333333 -0.8853333333333333 25.953066666666665 -2.8735999999999997Zm-90.91701333333333 -38.016c4.569493333333333 -5.773866666666667 12.954986666666667 -6.750933333333333 18.72949333333333 -2.181333333333333 5.268053333333333 4.1685333333333325 11.076053333333334 7.595733333333333 17.260586666666665 10.1888 6.7914666666666665 2.848 9.9872 10.6624 7.1392 17.4528s-10.6624 9.9872 -17.4528 7.1392c-8.418453333333332 -3.530666666666667 -16.323839999999997 -8.1952 -23.494613333333334 -13.869866666666667 -5.774506666666666 -4.569599999999999 -6.751359999999999 -12.954666666666665 -2.1818666666666666 -18.729599999999998Zm-8.689066666666665 -43.40693333333333c-1.85472 -7.1264 -9.135359999999999 -11.399466666666665 -16.26176 -9.544533333333334 -7.1264 1.8549333333333333 -11.399893333333333 9.134933333333333 -9.545173333333333 16.261333333333333 2.2977066666666666 8.8288 5.779413333333332 17.297066666666666 10.34432 25.17653333333333 3.6912000000000003 6.3722666666666665 11.84896 8.545066666666667 18.220799999999997 4.8544 6.37184 -3.6917333333333335 8.544853333333332 -11.849599999999999 4.853653333333333 -18.220799999999997 -3.3590400000000002 -5.798399999999999 -5.9210666666666665 -12.029866666666665 -7.611839999999999 -18.526933333333332Z" clip-rule="evenodd"/></svg>