<svg xmlns="http://www.w3.org/2000/svg" viewBox="0 0 256 256" id="Diagram-Split-Horizontal--Streamline-Ultimate" height="256" width="256">
  <desc>
    Diagram Split Horizontal Streamline Icon: https://streamlinehq.com
  </desc>
  <path d="M194.55999999999997 64.63999999999999a48.10666666666666 48.10666666666666 0 0 1 -48 48H15.36a15.36 15.36 0 0 0 0 30.72h131.2a48.10666666666666 48.10666666666666 0 0 1 48 48 2.6666666666666665 2.6666666666666665 0 0 1 -2.6666666666666665 2.6666666666666665H179.2a15.36 15.36 0 0 0 -10.666666666666666 26.24l30.72 30.72a15.466666666666665 15.466666666666665 0 0 0 21.333333333333332 0l30.72 -30.72a15.36 15.36 0 0 0 -10.666666666666666 -26.24h-12.693333333333332a2.6666666666666665 2.6666666666666665 0 0 1 -2.6666666666666665 -2.6666666666666665 78.50666666666666 78.50666666666666 0 0 0 -29.546666666666667 -61.33333333333333 2.3466666666666667 2.3466666666666667 0 0 1 -0.96 -2.0266666666666664 2.6666666666666665 2.6666666666666665 0 0 1 0.96 -2.0266666666666664 78.50666666666666 78.50666666666666 0 0 0 29.546666666666667 -61.33333333333333V64a2.6666666666666665 2.6666666666666665 0 0 1 2.6666666666666665 -2.6666666666666665h12.693333333333332a15.36 15.36 0 0 0 10.666666666666666 -26.24L220.79999999999998 4.4799999999999995a15.573333333333332 15.573333333333332 0 0 0 -10.666666666666666 -4.4799999999999995 15.68 15.68 0 0 0 -10.666666666666666 4.4799999999999995L168.32 35.199999999999996a15.36 15.36 0 0 0 10.666666666666666 26.24H192a2.6666666666666665 2.6666666666666665 0 0 1 2.6666666666666665 2.6666666666666665Z" fill="#ffffff" stroke-width="10.6667"></path>
</svg>