<svg xmlns="http://www.w3.org/2000/svg" id="Diagram-Dash-Up-Then-Down-Large-Head--Streamline-Ultimate" width="256" height="256" fill="none" viewBox="0 0 256 256"><desc>Diagram Dash Up Then Down Large Head Streamline Icon: https://streamlinehq.com</desc><path fill="#fff" fill-rule="evenodd" stroke-width="10.667" d="M107.11466666666666 18.410666666666664A13.333333333333332 13.333333333333332 0 0 1 94.51733333333334 32.42666666666666a68.46933333333332 68.46933333333332 0 0 0 4.053333333333333 136.832l0.07466666666666666 0h81.81333333333333v-40.04266666666666a8 8 0 0 1 13.653333333333332 -5.653333333333333l56.49066666666667 56.49066666666667a8 8 0 0 1 0 11.306666666666667l-56.49066666666667 56.50133333333333a8 8 0 0 1 -13.653333333333332 -5.653333333333333v-46.29333333333333H98.66666666666666A95.136 95.136 0 0 1 93.088 5.8133333333333335a13.333333333333332 13.333333333333332 0 0 1 14.026666666666666 12.607999999999999Zm14.570666666666668 0.7146666666666667c0 -7.359999999999999 5.973333333333334 -13.333333333333332 13.333333333333332 -13.333333333333332l28.288 0a13.333333333333332 13.333333333333332 0 1 1 0 26.666666666666664l-28.288 0c-7.359999999999999 0 -13.333333333333332 -5.973333333333334 -13.333333333333332 -13.333333333333332Zm81.6 -13.333333333333332a13.333333333333332 13.333333333333332 0 1 0 0 26.666666666666664l24.512 0a13.333333333333332 13.333333333333332 0 0 0 0 -26.666666666666664l-24.522666666666666 0Z" clip-rule="evenodd"/></svg>