<svg xmlns="http://www.w3.org/2000/svg" viewBox="0 0 256 256" id="Dial-Finger-1--Streamline-Ultimate" height="256" width="256">
  <desc>
    Dial Finger 1 Streamline Icon: https://streamlinehq.com
  </desc>
  <g id="Dial-Finger-1--Streamline-Ultimate.svg">
    <path d="M0 18.666666666666664a18.666666666666664 18.666666666666664 0 1 0 37.33333333333333 0 18.666666666666664 18.666666666666664 0 1 0 -37.33333333333333 0" fill="#ffffff" stroke-width="10.6667"></path>
    <path d="M53.33333333333333 18.666666666666664a18.666666666666664 18.666666666666664 0 1 0 37.33333333333333 0 18.666666666666664 18.666666666666664 0 1 0 -37.33333333333333 0" fill="#ffffff" stroke-width="10.6667"></path>
    <path d="M106.66666666666666 18.666666666666664a18.666666666666664 18.666666666666664 0 1 0 37.33333333333333 0 18.666666666666664 18.666666666666664 0 1 0 -37.33333333333333 0" fill="#ffffff" stroke-width="10.6667"></path>
    <path d="M0 72a18.666666666666664 18.666666666666664 0 1 0 37.33333333333333 0 18.666666666666664 18.666666666666664 0 1 0 -37.33333333333333 0" fill="#ffffff" stroke-width="10.6667"></path>
    <path d="M53.33333333333333 72a18.666666666666664 18.666666666666664 0 1 0 37.33333333333333 0 18.666666666666664 18.666666666666664 0 1 0 -37.33333333333333 0" fill="#ffffff" stroke-width="10.6667"></path>
    <path d="M106.66666666666666 72a18.666666666666664 18.666666666666664 0 1 0 37.33333333333333 0 18.666666666666664 18.666666666666664 0 1 0 -37.33333333333333 0" fill="#ffffff" stroke-width="10.6667"></path>
    <path d="M0 125.33333333333333a18.666666666666664 18.666666666666664 0 1 0 37.33333333333333 0 18.666666666666664 18.666666666666664 0 1 0 -37.33333333333333 0" fill="#ffffff" stroke-width="10.6667"></path>
    <path d="M53.33333333333333 125.33333333333333a18.666666666666664 18.666666666666664 0 1 0 37.33333333333333 0 18.666666666666664 18.666666666666664 0 1 0 -37.33333333333333 0" fill="#ffffff" stroke-width="10.6667"></path>
    <path d="M208 181.33333333333331H181.33333333333331v-64a21.333333333333332 21.333333333333332 0 0 0 -42.666666666666664 0v90.02666666666666l-15.573333333333332 -18.773333333333333a21.333333333333332 21.333333333333332 0 1 0 -32.85333333333333 27.306666666666665l32 38.18666666666667a5.226666666666667 5.226666666666667 0 0 0 4.053333333333333 1.92H250.66666666666666a5.333333333333333 5.333333333333333 0 0 0 5.333333333333333 -5.333333333333333v-21.333333333333332a48.10666666666666 48.10666666666666 0 0 0 -48 -48Z" fill="#ffffff" stroke-width="10.6667"></path>
  </g>
</svg>