<svg xmlns="http://www.w3.org/2000/svg" viewBox="0 0 256 256" id="Dial-Pad--Streamline-Ultimate" height="256" width="256">
  <desc>
    Dial Pad Streamline Icon: https://streamlinehq.com
  </desc>
  <g id="Dial-Pad--Streamline-Ultimate.svg">
    <path d="M16.746666666666666 27.626666666666665a27.626666666666665 27.626666666666665 0 1 0 55.25333333333333 0 27.626666666666665 27.626666666666665 0 1 0 -55.25333333333333 0" fill="#ffffff" stroke-width="10.6667"></path>
    <path d="M100.05333333333334 27.626666666666665a27.626666666666665 27.626666666666665 0 1 0 55.25333333333333 0 27.626666666666665 27.626666666666665 0 1 0 -55.25333333333333 0" fill="#ffffff" stroke-width="10.6667"></path>
    <path d="M211.62666666666667 55.25333333333333a27.626666666666665 27.626666666666665 0 1 0 -27.626666666666665 -27.626666666666665 27.626666666666665 27.626666666666665 0 0 0 27.626666666666665 27.626666666666665Z" fill="#ffffff" stroke-width="10.6667"></path>
    <path d="M44.373333333333335 66.88a27.626666666666665 27.626666666666665 0 1 0 27.626666666666665 27.626666666666665 27.733333333333334 27.733333333333334 0 0 0 -27.626666666666665 -27.626666666666665Z" fill="#ffffff" stroke-width="10.6667"></path>
    <path d="M128 66.88a27.626666666666665 27.626666666666665 0 1 0 27.626666666666665 27.626666666666665A27.733333333333334 27.733333333333334 0 0 0 128 66.88Z" fill="#ffffff" stroke-width="10.6667"></path>
    <path d="M211.62666666666667 66.88a27.626666666666665 27.626666666666665 0 1 0 27.626666666666665 27.626666666666665 27.733333333333334 27.733333333333334 0 0 0 -27.626666666666665 -27.626666666666665Z" fill="#ffffff" stroke-width="10.6667"></path>
    <path d="M44.373333333333335 133.86666666666667a27.626666666666665 27.626666666666665 0 1 0 27.626666666666665 27.626666666666665 27.626666666666665 27.626666666666665 0 0 0 -27.626666666666665 -27.626666666666665Z" fill="#ffffff" stroke-width="10.6667"></path>
    <path d="M128 133.86666666666667a27.626666666666665 27.626666666666665 0 1 0 27.626666666666665 27.626666666666665A27.626666666666665 27.626666666666665 0 0 0 128 133.86666666666667Z" fill="#ffffff" stroke-width="10.6667"></path>
    <path d="M100.05333333333334 228.37333333333333a27.626666666666665 27.626666666666665 0 1 0 55.25333333333333 0 27.626666666666665 27.626666666666665 0 1 0 -55.25333333333333 0" fill="#ffffff" stroke-width="10.6667"></path>
    <path d="M211.62666666666667 133.86666666666667a27.626666666666665 27.626666666666665 0 1 0 27.626666666666665 27.626666666666665 27.626666666666665 27.626666666666665 0 0 0 -27.626666666666665 -27.626666666666665Z" fill="#ffffff" stroke-width="10.6667"></path>
  </g>
</svg>