<svg xmlns="http://www.w3.org/2000/svg" viewBox="0 0 256 256" id="Diamond-Shine--Streamline-Ultimate" height="256" width="256">
  <desc>
    Diamond Shine Streamline Icon: https://streamlinehq.com
  </desc>
  <g id="Diamond-Shine--Streamline-Ultimate.svg">
    <path d="M213.33333333333331 96a10.666666666666666 10.666666666666666 0 0 0 8.533333333333333 -4.266666666666667l16 -21.333333333333332a10.666666666666666 10.666666666666666 0 1 0 -17.066666666666666 -12.799999999999999l-16 21.333333333333332a10.666666666666666 10.666666666666666 0 0 0 2.1333333333333333 14.933333333333332 10.666666666666666 10.666666666666666 0 0 0 6.3999999999999995 2.1333333333333333Z" fill="#ffffff" stroke-width="10.6667"></path>
    <path d="M221.86666666666667 164.16a10.666666666666666 10.666666666666666 0 0 0 -17.066666666666666 12.799999999999999l16 21.333333333333332a10.666666666666666 10.666666666666666 0 0 0 8.533333333333333 4.266666666666667 10.666666666666666 10.666666666666666 0 0 0 6.3999999999999995 -2.1333333333333333 10.666666666666666 10.666666666666666 0 0 0 2.1333333333333333 -14.933333333333332Z" fill="#ffffff" stroke-width="10.6667"></path>
    <path d="M245.33333333333331 117.33333333333333h-26.666666666666664a10.666666666666666 10.666666666666666 0 0 0 0 21.333333333333332H245.33333333333331a10.666666666666666 10.666666666666666 0 0 0 0 -21.333333333333332Z" fill="#ffffff" stroke-width="10.6667"></path>
    <path d="M35.199999999999996 57.493333333333325a10.666666666666666 10.666666666666666 0 0 0 -17.066666666666666 12.799999999999999l16 21.333333333333332A10.666666666666666 10.666666666666666 0 0 0 42.666666666666664 96a10.666666666666666 10.666666666666666 0 0 0 6.3999999999999995 -2.1333333333333333 10.666666666666666 10.666666666666666 0 0 0 2.1333333333333333 -14.933333333333332Z" fill="#ffffff" stroke-width="10.6667"></path>
    <path d="m34.13333333333333 164.16 -16 21.333333333333332a10.666666666666666 10.666666666666666 0 0 0 2.1333333333333333 14.933333333333332 10.666666666666666 10.666666666666666 0 0 0 6.3999999999999995 2.1333333333333333 10.666666666666666 10.666666666666666 0 0 0 8.533333333333333 -4.266666666666667l16 -21.333333333333332a10.666666666666666 10.666666666666666 0 0 0 -17.066666666666666 -12.799999999999999Z" fill="#ffffff" stroke-width="10.6667"></path>
    <path d="M48 128a10.666666666666666 10.666666666666666 0 0 0 -10.666666666666666 -10.666666666666666H10.666666666666666a10.666666666666666 10.666666666666666 0 0 0 0 21.333333333333332h26.666666666666664a10.666666666666666 10.666666666666666 0 0 0 10.666666666666666 -10.666666666666666Z" fill="#ffffff" stroke-width="10.6667"></path>
    <path d="m182.29333333333332 189.76 -50.666666666666664 25.28a7.68 7.68 0 0 1 -6.613333333333333 0l-51.30666666666666 -25.28a2.7733333333333334 2.7733333333333334 0 0 0 -2.88 0 2.88 2.88 0 0 0 -1.4933333333333334 2.2399999999999998 10.666666666666666 10.666666666666666 0 0 0 2.7733333333333334 7.1466666666666665l48 52.8a10.666666666666666 10.666666666666666 0 0 0 15.786666666666665 0l48 -52.8a10.666666666666666 10.666666666666666 0 0 0 2.7733333333333334 -7.1466666666666665 2.88 2.88 0 0 0 -1.4933333333333334 -2.5599999999999996 2.7733333333333334 2.7733333333333334 0 0 0 -2.88 0.31999999999999995Z" fill="#ffffff" stroke-width="10.6667"></path>
    <path d="m72.32 170.66666666666666 40 20.05333333333333a5.119999999999999 5.119999999999999 0 0 0 5.119999999999999 0 5.226666666666667 5.226666666666667 0 0 0 2.5599999999999996 -4.4799999999999995V93.22666666666666A5.226666666666667 5.226666666666667 0 0 0 117.33333333333333 88.53333333333333L73.28 64.74666666666667a2.6666666666666665 2.6666666666666665 0 0 0 -2.6666666666666665 0 2.5599999999999996 2.5599999999999996 0 0 0 -1.2799999999999998 2.2399999999999998v99.2a5.333333333333333 5.333333333333333 0 0 0 2.986666666666667 4.4799999999999995Z" fill="#ffffff" stroke-width="10.6667"></path>
    <path d="M84.37333333333333 52.58666666666666 125.44 74.66666666666666a5.4399999999999995 5.4399999999999995 0 0 0 5.119999999999999 0l41.06666666666666 -22.186666666666667a5.653333333333333 5.653333333333333 0 0 0 2.7733333333333334 -3.84 5.4399999999999995 5.4399999999999995 0 0 0 -1.3866666666666667 -4.4799999999999995L135.89333333333332 3.413333333333333a10.666666666666666 10.666666666666666 0 0 0 -15.786666666666665 0L82.98666666666666 44.266666666666666a5.4399999999999995 5.4399999999999995 0 0 0 -1.3866666666666667 4.4799999999999995 5.653333333333333 5.653333333333333 0 0 0 2.7733333333333334 3.84Z" fill="#ffffff" stroke-width="10.6667"></path>
    <path d="M182.71999999999997 64.74666666666667 138.66666666666666 88.53333333333333a5.226666666666667 5.226666666666667 0 0 0 -2.7733333333333334 4.693333333333333v93.12a5.226666666666667 5.226666666666667 0 0 0 2.5599999999999996 4.4799999999999995 5.119999999999999 5.119999999999999 0 0 0 5.119999999999999 0L183.67999999999998 170.66666666666666a5.333333333333333 5.333333333333333 0 0 0 2.986666666666667 -4.8V67.09333333333333a2.5599999999999996 2.5599999999999996 0 0 0 -1.2799999999999998 -2.2399999999999998 2.6666666666666665 2.6666666666666665 0 0 0 -2.6666666666666665 -0.10666666666666666Z" fill="#ffffff" stroke-width="10.6667"></path>
  </g>
</svg>