<svg xmlns="http://www.w3.org/2000/svg" id="Dice--Streamline-Ultimate" width="256" height="256" fill="none" viewBox="0 0 256 256"><desc>Dice Streamline Icon: https://streamlinehq.com</desc><path fill="#fff" fill-rule="evenodd" stroke-width="10.667" d="M113.9648 119.55413333333333c14.519466666666666 -2.466133333333333 24.291199999999996 -16.235946666666663 21.825066666666665 -30.755626666666664l-10.631466666666666 -62.59786666666666C122.69226666666665 11.680959999999999 108.92266666666666 1.9095466666666667 94.40330666666667 4.37552L29.28917333333333 15.434346666666666C14.769493333333333 17.900266666666667 4.998090666666666 31.669866666666667 7.4640640000000005 46.18954666666666l10.631402666666666 62.59765333333333c2.4660266666666666 14.519466666666666 16.235626666666665 24.291199999999996 30.755306666666662 21.825066666666665l65.11402666666666 -11.058133333333332ZM58.44330666666666 67.49248c0 -7.2817066666666665 5.902933333333333 -13.184639999999998 13.184639999999998 -13.184639999999998 7.281599999999999 0 13.184533333333334 5.902933333333333 13.184533333333334 13.184639999999998 0 7.2817066666666665 -5.902933333333333 13.184639999999998 -13.184639999999998 13.184639999999998 -7.281599999999999 0 -13.184533333333334 -5.903039999999999 -13.184533333333334 -13.184639999999998ZM215.21173333333334 238.1152c-7.059200000000001 12.925866666666666 -23.259733333333333 17.681066666666666 -36.185599999999994 10.621866666666666l-57.9648 -31.658666666666665c-12.9248 -7.059200000000001 -17.680746666666664 -23.259733333333333 -10.621866666666666 -36.185599999999994l30.4352 -55.724799999999995c7.059200000000001 -12.9248 23.259733333333333 -17.681066666666666 36.185599999999994 -10.6208l57.9648 31.657600000000002c12.925866666666666 7.059200000000001 17.681066666666666 23.259733333333333 10.621866666666666 36.185599999999994l-30.4352 55.724799999999995Zm-44.906666666666666 -92.23146666666665c-7.2821333333333325 0 -13.185066666666666 5.902933333333333 -13.185066666666666 13.184 0 7.2821333333333325 5.902933333333333 13.185066666666666 13.185066666666666 13.185066666666666 7.281066666666666 0 13.184 -5.902933333333333 13.184 -13.185066666666666 0 -7.281066666666666 -5.902933333333333 -13.184 -13.184 -13.184Zm1.8154666666666666 56.21013333333333c0 -7.281066666666666 5.902933333333333 -13.184 13.184 -13.184 7.2821333333333325 0 13.185066666666666 5.902933333333333 13.185066666666666 13.184 0 7.2821333333333325 -5.902933333333333 13.185066666666666 -13.185066666666666 13.185066666666666 -7.281066666666666 0 -13.184 -5.902933333333333 -13.184 -13.185066666666666Z" clip-rule="evenodd"/></svg>