<svg xmlns="http://www.w3.org/2000/svg" viewBox="0 0 256 256" id="Direction-Button-2--Streamline-Ultimate" height="256" width="256">
  <desc>
    Direction Button 2 Streamline Icon: https://streamlinehq.com
  </desc>
  <g id="Direction-Button-2--Streamline-Ultimate.svg">
    <path d="M101.33333333333333 127.89333333333333a26.666666666666664 26.666666666666664 0 1 0 53.33333333333333 0 26.666666666666664 26.666666666666664 0 1 0 -53.33333333333333 0" fill="#ffffff" stroke-width="10.6667"></path>
    <path d="M136.53333333333333 4.16a10.666666666666666 10.666666666666666 0 0 0 -17.066666666666666 0l-32 42.666666666666664A10.666666666666666 10.666666666666666 0 0 0 96 64h64a10.666666666666666 10.666666666666666 0 0 0 8.533333333333333 -17.066666666666666Z" fill="#ffffff" stroke-width="10.6667"></path>
    <path d="M58.13333333333333 86.29333333333332a10.666666666666666 10.666666666666666 0 0 0 -10.666666666666666 1.0666666666666667l-42.666666666666664 32A10.666666666666666 10.666666666666666 0 0 0 0 128a10.666666666666666 10.666666666666666 0 0 0 4.266666666666667 8.533333333333333l42.666666666666664 32a10.666666666666666 10.666666666666666 0 0 0 10.666666666666666 0.96A10.666666666666666 10.666666666666666 0 0 0 64 160V96a10.666666666666666 10.666666666666666 0 0 0 -5.866666666666667 -9.706666666666667Z" fill="#ffffff" stroke-width="10.6667"></path>
    <path d="M160 192H96a10.666666666666666 10.666666666666666 0 0 0 -9.493333333333332 5.866666666666667 10.666666666666666 10.666666666666666 0 0 0 0.96 11.2l32 42.666666666666664a10.666666666666666 10.666666666666666 0 0 0 17.066666666666666 0l32 -42.666666666666664a10.666666666666666 10.666666666666666 0 0 0 0.96 -11.2A10.666666666666666 10.666666666666666 0 0 0 160 192Z" fill="#ffffff" stroke-width="10.6667"></path>
    <path d="m251.73333333333335 119.35999999999999 -42.666666666666664 -32A10.666666666666666 10.666666666666666 0 0 0 192 96v64a10.666666666666666 10.666666666666666 0 0 0 5.866666666666667 9.493333333333332 10.666666666666666 10.666666666666666 0 0 0 11.2 -0.96l42.666666666666664 -32a10.666666666666666 10.666666666666666 0 0 0 4.266666666666667 -8.533333333333333 10.666666666666666 10.666666666666666 0 0 0 -4.266666666666667 -8.64Z" fill="#ffffff" stroke-width="10.6667"></path>
  </g>
</svg>