<svg xmlns="http://www.w3.org/2000/svg" id="Direction-Button-3--Streamline-Ultimate" width="256" height="256" viewBox="0 0 256 256"><desc>Direction Button 3 Streamline Icon: https://streamlinehq.com</desc><g id="Direction-Button-3--Streamline-Ultimate.svg"><path fill="#fff" stroke-width="10.667" d="M101.33333333333333 128a21.333333333333332 21.333333333333332 0 0 0 -6.293333333333333 -15.146666666666665l-16 -16A21.333333333333332 21.333333333333332 0 0 0 64 90.66666666666666H16A16 16 0 0 0 0 106.66666666666666v42.666666666666664a16 16 0 0 0 16 16H64a21.333333333333332 21.333333333333332 0 0 0 15.04 -6.293333333333333l16 -16A21.333333333333332 21.333333333333332 0 0 0 101.33333333333333 128Z"/><path fill="#fff" stroke-width="10.667" d="M240 90.66666666666666H192a21.333333333333332 21.333333333333332 0 0 0 -15.04 6.186666666666666l-16 16a21.333333333333332 21.333333333333332 0 0 0 0 30.186666666666667l16 16a21.333333333333332 21.333333333333332 0 0 0 15.04 6.293333333333333h48A16 16 0 0 0 256 149.33333333333331v-42.666666666666664a16 16 0 0 0 -16 -16Z"/><path fill="#fff" stroke-width="10.667" d="M143.04 160.85333333333332a21.333333333333332 21.333333333333332 0 0 0 -30.08 0l-16 16A21.333333333333332 21.333333333333332 0 0 0 90.66666666666666 192v48A16 16 0 0 0 106.66666666666666 256h42.666666666666664a16 16 0 0 0 16 -16V192a21.333333333333332 21.333333333333332 0 0 0 -6.293333333333333 -15.146666666666665Z"/><path fill="#fff" stroke-width="10.667" d="M112.96 95.03999999999999a21.333333333333332 21.333333333333332 0 0 0 30.08 0l16.106666666666666 -16A21.333333333333332 21.333333333333332 0 0 0 165.33333333333331 64V16A16 16 0 0 0 149.33333333333331 0h-42.666666666666664a16 16 0 0 0 -16 16V64a21.333333333333332 21.333333333333332 0 0 0 6.293333333333333 15.04Z"/></g></svg>