<svg xmlns="http://www.w3.org/2000/svg" id="Disability-Parking--Streamline-Ultimate" width="256" height="256" viewBox="0 0 256 256"><desc>Disability Parking Streamline Icon: https://streamlinehq.com</desc><g id="Disability-Parking--Streamline-Ultimate.svg"><path fill="#fff" stroke-width="10.667" d="M207.19893333333334 6.583466666666666H186.92266666666666c-6.839466666666667 -0.0608 -12.398933333333334 5.498666666666666 -12.338133333333333 12.338133333333333v101.38559999999998c-0.0288 9.497599999999998 10.235733333333332 15.464533333333332 18.474666666666664 10.739199999999999 3.8463999999999996 -2.2047999999999996 6.2143999999999995 -6.305066666666666 6.2005333333333335 -10.739199999999999V98.85013333333333h7.9392c35.5968 0 57.84426666666667 -38.5344 40.04586666666667 -69.36106666666666 -8.260266666666666 -14.307199999999998 -23.52533333333333 -23.119999999999997 -40.04586666666667 -23.119999999999997Zm0 62.97706666666666h-7.9392V32.22506666666666h7.9392c11.0496 -0.6773333333333333 20.60053333333333 7.630933333333333 21.45813333333333 18.66773333333333 -0.8575999999999999 11.0368 -10.408533333333333 19.345066666666668 -21.45813333333333 18.66773333333333Z"/><path fill="#fff" stroke-width="10.667" d="M52.38399999999999 33.834666666666664c0 22.711466666666666 24.586666666666666 36.906666666666666 44.256 25.550933333333333 9.128533333333333 -5.2703999999999995 14.751999999999999 -15.011199999999999 14.751999999999999 -25.550933333333333 0 -22.712533333333333 -24.586666666666666 -36.90773333333333 -44.256 -25.552 -9.128533333333333 5.2703999999999995 -14.751999999999999 15.011199999999999 -14.751999999999999 25.552"/><path fill="#fff" stroke-width="10.667" d="M119.01013333333333 210.74986666666666c-10.229333333333333 12.151466666666666 -25.316266666666667 19.14453333333333 -41.19893333333333 19.0976 -41.29493333333333 -0.016 -67.08693333333332 -44.72853333333333 -46.42666666666666 -80.4832 1.5264 -2.6410666666666662 3.275733333333333 -5.147733333333333 5.2288 -7.492266666666667 5.285333333333333 -6.359466666666666 1.7045333333333332 -16.056533333333334 -6.444799999999999 -17.453866666666666 -3.7834666666666665 -0.6485333333333333 -7.624533333333333 0.7701333333333333 -10.077866666666665 3.7215999999999996C-17.074133333333332 172.57279999999997 7.797333333333333 240.57599999999996 64.8608 250.54506666666668c26.4832 4.6272 53.42293333333333 -5.226666666666667 70.67093333333332 -25.847466666666666 5.285333333333333 -6.359466666666666 1.7055999999999998 -16.056533333333334 -6.444799999999999 -17.453866666666666 -3.7824 -0.6485333333333333 -7.624533333333333 0.7690666666666666 -10.076799999999999 3.720533333333333Z"/><path fill="#fff" stroke-width="10.667" d="M172.224 161.6128c-9.075199999999999 -11.118933333333333 -22.66133333333333 -17.577599999999997 -37.014399999999995 -17.594666666666665H93.904v-30.040533333333332l31.005866666666666 6.6517333333333335h3.111466666666667c11.384533333333332 0.5365333333333333 19.081599999999998 -11.451733333333333 13.854933333333332 -21.57973333333333 -2.1450666666666667 -4.155733333333333 -6.128 -7.054933333333333 -10.743466666666666 -7.816533333333333 -16.686933333333332 -5.745066666666666 -33.95733333333333 -9.629866666666667 -51.49759999999999 -11.5872h-1.824c-8.887466666666667 0 -16.092799999999997 7.204266666666666 -16.092799999999997 16.092799999999997v64.37226666666666c0 8.887466666666667 7.205333333333333 16.092799999999997 16.092799999999997 16.092799999999997h57.398399999999995c4.7616 0.03733333333333333 9.268266666666666 2.1536 12.338133333333333 5.793066666666666l30.577066666666667 37.12213333333333c7.441066666666666 9.904 22.813866666666662 8.0384 27.6704 -3.3578666666666668 2.4874666666666663 -5.835733333333334 1.3141333333333334 -12.586666666666666 -2.994133333333333 -17.2416Z"/></g></svg>