<svg xmlns="http://www.w3.org/2000/svg" viewBox="0 0 256 256" id="Discount--Streamline-Ultimate" height="256" width="256">
  <desc>
    Discount Streamline Icon: https://streamlinehq.com
  </desc>
  <g id="Discount--Streamline-Ultimate.svg">
    <path d="M5.333333333333333 48a42.666666666666664 42.666666666666664 0 1 0 85.33333333333333 0 42.666666666666664 42.666666666666664 0 1 0 -85.33333333333333 0" fill="#ffffff" stroke-width="10.6667"></path>
    <path d="M165.33333333333331 208a42.666666666666664 42.666666666666664 0 1 0 85.33333333333333 0 42.666666666666664 42.666666666666664 0 1 0 -85.33333333333333 0" fill="#ffffff" stroke-width="10.6667"></path>
    <path d="M239.04 16.96a21.333333333333332 21.333333333333332 0 0 0 -30.08 0l-192 192a21.333333333333332 21.333333333333332 0 0 0 0 30.08 21.333333333333332 21.333333333333332 0 0 0 30.08 0l192 -192a21.333333333333332 21.333333333333332 0 0 0 0 -30.08Z" fill="#ffffff" stroke-width="10.6667"></path>
  </g>
</svg>