<svg xmlns="http://www.w3.org/2000/svg" id="Discount--Streamline-Ultimate" width="256" height="256" viewBox="0 0 256 256"><desc>Discount Streamline Icon: https://streamlinehq.com</desc><g id="Discount--Streamline-Ultimate.svg"><path fill="#fff" stroke-width="10.667" d="M5.333333333333333 48a42.666666666666664 42.666666666666664 0 1 0 85.33333333333333 0 42.666666666666664 42.666666666666664 0 1 0 -85.33333333333333 0"/><path fill="#fff" stroke-width="10.667" d="M165.33333333333331 208a42.666666666666664 42.666666666666664 0 1 0 85.33333333333333 0 42.666666666666664 42.666666666666664 0 1 0 -85.33333333333333 0"/><path fill="#fff" stroke-width="10.667" d="M239.04 16.96a21.333333333333332 21.333333333333332 0 0 0 -30.08 0l-192 192a21.333333333333332 21.333333333333332 0 0 0 0 30.08 21.333333333333332 21.333333333333332 0 0 0 30.08 0l192 -192a21.333333333333332 21.333333333333332 0 0 0 0 -30.08Z"/></g></svg>