<svg xmlns="http://www.w3.org/2000/svg" fill="none" viewBox="0 0 256 256" id="Division-Math-Symbol-Circle--Streamline-Ultimate" height="256" width="256">
  <desc>
    Division Math Symbol Circle Streamline Icon: https://streamlinehq.com
  </desc>
  <path fill="#ffffff" fill-rule="evenodd" d="M0 128.00106666666665C0 57.30837333333333 57.30741333333333 0 128 0c70.69226666666665 0 128 57.30837333333333 128 128.00106666666665C256 198.69333333333333 198.69226666666668 256 128 256 57.30752 256 0 198.69333333333333 0 128.00106666666665Zm63.563946666666666 -8.532266666666667c-4.41824 0 -8 3.5818666666666665 -8 8s3.5817599999999996 8 8 8H192.43626666666665c4.4181333333333335 0 8 -3.5818666666666665 8 -8s-3.5818666666666665 -8 -8 -8H63.563946666666666Zm63.865386666666666 -28.517973333333334c8.453333333333333 0 15.306666666666667 -6.852799999999999 15.306666666666667 -15.306133333333332s-6.853333333333333 -15.306133333333332 -15.306666666666667 -15.306133333333332c-8.453333333333333 0 -15.3056 6.852799999999999 -15.3056 15.306133333333332s6.852266666666666 15.306133333333332 15.3056 15.306133333333332Zm15.306666666666667 88.34517333333334c0 8.453333333333333 -6.853333333333333 15.3056 -15.306666666666667 15.3056 -8.453333333333333 0 -15.3056 -6.852266666666666 -15.3056 -15.3056 0 -8.453333333333333 6.852266666666666 -15.306666666666667 15.3056 -15.306666666666667 8.453333333333333 0 15.306666666666667 6.853333333333333 15.306666666666667 15.306666666666667Z" clip-rule="evenodd" stroke-width="10.6667"></path>
</svg>