<svg xmlns="http://www.w3.org/2000/svg" id="Doctor-Home-Visit-1--Streamline-Ultimate" width="256" height="256" fill="none" viewBox="0 0 256 256"><desc>Doctor Home Visit 1 Streamline Icon: https://streamlinehq.com</desc><path fill="#fff" fill-rule="evenodd" stroke-width="10.667" d="M188.288 77.48266666666666a37.16266666666667 37.16266666666667 0 1 0 0 -74.32533333333333 37.16266666666667 37.16266666666667 0 0 0 0 74.32533333333333Zm43.89333333333333 33.94133333333333a62.05866666666666 62.05866666666666 0 0 1 18.176 43.882666666666665v15.936a10.666666666666666 10.666666666666666 0 0 1 -10.666666666666666 10.666666666666666h-15.936l-7.690666666666666 61.58933333333333a10.666666666666666 10.666666666666666 0 0 1 -10.591999999999999 9.344h-34.367999999999995a10.666666666666666 10.666666666666666 0 0 1 -10.581333333333333 -9.344l-0.3413333333333333 -2.7199999999999998v-57.58933333333333a26.666666666666664 26.666666666666664 0 0 0 -8.533333333333333 -19.658666666666665l-23.872 -22.016a62.06933333333333 62.06933333333333 0 0 1 104.40533333333333 -30.090666666666667Zm-88 71.72266666666667a10.655999999999999 10.655999999999999 0 0 0 -3.413333333333333 -7.882666666666666l-58.624 -54.08a10.666666666666666 10.666666666666666 0 0 0 -14.464 0L9.066666666666666 175.264a10.655999999999999 10.655999999999999 0 0 0 -3.413333333333333 7.893333333333333v59.242666666666665a10.666666666666666 10.666666666666666 0 0 0 10.655999999999999 10.666666666666666h117.22666666666666a10.655999999999999 10.655999999999999 0 0 0 10.666666666666666 -10.666666666666666V183.14666666666668ZM83.62666666666667 160.43733333333333H66.18666666666667a5.333333333333333 5.333333333333333 0 0 0 -5.333333333333333 5.333333333333333v18.538666666666664H42.32533333333333a5.333333333333333 5.333333333333333 0 0 0 -5.333333333333333 5.333333333333333v17.439999999999998a5.333333333333333 5.333333333333333 0 0 0 5.333333333333333 5.333333333333333h18.528v18.538666666666664a5.333333333333333 5.333333333333333 0 0 0 5.333333333333333 5.333333333333333H83.62666666666667a5.333333333333333 5.333333333333333 0 0 0 5.333333333333333 -5.333333333333333v-18.538666666666664h18.549333333333333a5.333333333333333 5.333333333333333 0 0 0 5.333333333333333 -5.333333333333333V189.65333333333334a5.333333333333333 5.333333333333333 0 0 0 -5.333333333333333 -5.333333333333333H88.96v-18.538666666666664a5.333333333333333 5.333333333333333 0 0 0 -5.333333333333333 -5.333333333333333Z" clip-rule="evenodd"/></svg>