<svg xmlns="http://www.w3.org/2000/svg" fill="none" viewBox="0 0 256 256" id="Document-Scanning-Mode-Camera--Streamline-Ultimate" height="256" width="256">
  <desc>
    Document Scanning Mode Camera Streamline Icon: https://streamlinehq.com
  </desc>
  <path fill="#ffffff" fill-rule="evenodd" d="M27.327999999999996 22.506666666666664c-2.368 0 -4.8213333333333335 2.453333333333333 -4.8213333333333335 4.8213333333333335v30.976a10.666666666666666 10.666666666666666 0 1 1 -21.333333333333332 0V27.327999999999996C1.1733333333333333 13.173333333333334 13.173333333333334 1.1733333333333333 27.327999999999996 1.1733333333333333h30.976a10.666666666666666 10.666666666666666 0 1 1 0 21.333333333333332H27.327999999999996Zm170.368 -21.333333333333332a10.666666666666666 10.666666666666666 0 1 0 0 21.333333333333332h30.976c2.368 0 4.8213333333333335 2.453333333333333 4.8213333333333335 4.8213333333333335v30.976a10.666666666666666 10.666666666666666 0 1 0 21.333333333333332 0V27.327999999999996c0 -14.154666666666666 -12 -26.154666666666664 -26.154666666666664 -26.154666666666664h-30.976ZM72.14933333333333 64.928a3.1999999999999997 3.1999999999999997 0 0 1 0.064 -0.6399999999999999 3.1999999999999997 3.1999999999999997 0 0 1 0.6399999999999999 -0.05333333333333333h110.29333333333332a3.1999999999999997 3.1999999999999997 0 0 1 0.6399999999999999 0.05333333333333333 3.2319999999999998 3.2319999999999998 0 0 1 0.064 0.6399999999999999v125.06666666666666a3.221333333333333 3.221333333333333 0 0 1 -0.064 0.6399999999999999 3.157333333333333 3.157333333333333 0 0 1 -0.6399999999999999 0.064H72.85333333333332a3.1466666666666665 3.1466666666666665 0 0 1 -0.6399999999999999 -0.05333333333333333 3.189333333333333 3.189333333333333 0 0 1 -0.05333333333333333 -0.6399999999999999V64.91733333333333Zm0.7146666666666667 -22.026666666666664c-5.834666666666667 0 -11.530666666666665 1.984 -15.786666666666665 6.250666666666666 -4.266666666666667 4.256 -6.250666666666666 9.941333333333333 -6.250666666666666 15.786666666666665v125.056c0 5.834666666666667 1.984 11.52 6.250666666666666 15.786666666666665 4.256 4.266666666666667 9.952 6.250666666666666 15.786666666666665 6.250666666666666H183.14666666666668c5.834666666666667 0 11.52 -1.984 15.786666666666665 -6.250666666666666 4.256 -4.266666666666667 6.250666666666666 -9.952 6.250666666666666 -15.786666666666665V64.928c0 -5.834666666666667 -1.9946666666666666 -11.52 -6.250666666666666 -15.786666666666665 -4.266666666666667 -4.256 -9.952 -6.239999999999999 -15.786666666666665 -6.239999999999999H72.85333333333332Zm26.560000000000002 33.84533333333333a10.666666666666666 10.666666666666666 0 1 0 0 21.333333333333332h25.226666666666667a10.666666666666666 10.666666666666666 0 1 0 0 -21.333333333333332H99.42399999999999Zm-10.666666666666666 48.58666666666666a10.666666666666666 10.666666666666666 0 0 1 10.666666666666666 -10.666666666666666h58.218666666666664a10.666666666666666 10.666666666666666 0 0 1 0 21.333333333333332H99.42399999999999a10.666666666666666 10.666666666666666 0 0 1 -10.666666666666666 -10.666666666666666Zm10.666666666666666 27.253333333333334a10.666666666666666 10.666666666666666 0 1 0 0 21.333333333333332h58.218666666666664a10.666666666666666 10.666666666666666 0 1 0 0 -21.333333333333332H99.42399999999999Zm144.74666666666667 34.45333333333333a10.666666666666666 10.666666666666666 0 0 1 10.666666666666666 10.666666666666666v30.965333333333334c0 14.154666666666666 -12.010666666666665 26.154666666666664 -26.16533333333333 26.154666666666664h-30.976a10.666666666666666 10.666666666666666 0 0 1 0 -21.333333333333332h30.976c2.368 0 4.8213333333333335 -2.453333333333333 4.8213333333333335 -4.8213333333333335v-30.976a10.666666666666666 10.666666666666666 0 0 1 10.666666666666666 -10.666666666666666Zm-221.664 10.666666666666666a10.666666666666666 10.666666666666666 0 1 0 -21.333333333333332 0v30.965333333333334c0 14.154666666666666 12 26.154666666666664 26.154666666666664 26.154666666666664h30.976a10.666666666666666 10.666666666666666 0 0 0 0 -21.333333333333332H27.327999999999996c-2.368 0 -4.8213333333333335 -2.453333333333333 -4.8213333333333335 -4.8213333333333335v-30.976Z" clip-rule="evenodd" stroke-width="10.6667"></path>
</svg>