<svg xmlns="http://www.w3.org/2000/svg" id="Download-Bottom--Streamline-Ultimate" width="256" height="256" viewBox="0 0 256 256"><desc>Download Bottom Streamline Icon: https://streamlinehq.com</desc><g id="Download-Bottom--Streamline-Ultimate.svg"><path fill="#fff" stroke-width="10.667" d="M241.81333333333333 180.69333333333333a13.013333333333332 13.013333333333332 0 0 0 -13.013333333333332 12.906666666666666V213.33333333333331a16.746666666666666 16.746666666666666 0 0 1 -16.746666666666666 16.746666666666666H43.946666666666665A16.746666666666666 16.746666666666666 0 0 1 27.199999999999996 213.33333333333331v-19.733333333333334a13.013333333333332 13.013333333333332 0 0 0 -25.92 0V213.33333333333331a42.666666666666664 42.666666666666664 0 0 0 42.666666666666664 42.666666666666664h168.10666666666665a42.666666666666664 42.666666666666664 0 0 0 42.666666666666664 -42.666666666666664v-19.733333333333334a12.906666666666666 12.906666666666666 0 0 0 -12.906666666666666 -12.906666666666666Z"/><path fill="#fff" stroke-width="10.667" d="M128 0a20.69333333333333 20.69333333333333 0 0 0 -20.69333333333333 20.69333333333333V117.33333333333333a2.6666666666666665 2.6666666666666665 0 0 1 -2.6666666666666665 2.6666666666666665H76.26666666666667a10.666666666666666 10.666666666666666 0 0 0 -7.786666666666666 17.066666666666666l51.73333333333333 59.519999999999996a10.666666666666666 10.666666666666666 0 0 0 15.573333333333332 0l51.73333333333333 -59.519999999999996a10.666666666666666 10.666666666666666 0 0 0 -7.786666666666666 -17.066666666666666h-28.373333333333335a2.6666666666666665 2.6666666666666665 0 0 1 -2.6666666666666665 -2.6666666666666665V20.69333333333333A20.69333333333333 20.69333333333333 0 0 0 128 0Z"/></g></svg>