<svg xmlns="http://www.w3.org/2000/svg" viewBox="0 0 256 256" id="Drawer-Send--Streamline-Ultimate" height="256" width="256">
  <desc>
    Drawer Send Streamline Icon: https://streamlinehq.com
  </desc>
  <g id="Drawer-Send--Streamline-Ultimate.svg">
    <path d="M102.50666666666666 136a5.333333333333333 5.333333333333333 0 0 0 5.226666666666667 -4.373333333333333 79.46666666666667 79.46666666666667 0 0 1 78.93333333333334 -61.653333333333336v12.693333333333332a5.333333333333333 5.333333333333333 0 0 0 2.986666666666667 4.8 5.4399999999999995 5.4399999999999995 0 0 0 5.653333333333333 -0.6399999999999999l48 -37.33333333333333a5.333333333333333 5.333333333333333 0 0 0 0 -8.32l-48 -37.33333333333333a5.4399999999999995 5.4399999999999995 0 0 0 -5.653333333333333 -0.6399999999999999 5.333333333333333 5.333333333333333 0 0 0 -2.986666666666667 4.8V21.333333333333332A83.84 83.84 0 0 0 128 45.44c-32 32 -31.36 83.09333333333333 -31.253333333333334 85.33333333333333a5.333333333333333 5.333333333333333 0 0 0 5.76 5.226666666666667Z" fill="#ffffff" stroke-width="10.6667"></path>
    <path d="m254.71999999999997 168.32 -32 -58.773333333333326a20.37333333333333 20.37333333333333 0 0 0 -17.919999999999998 -10.666666666666666H181.33333333333331a10.666666666666666 10.666666666666666 0 0 0 0 21.333333333333332h21.333333333333332a2.7733333333333334 2.7733333333333334 0 0 1 2.3466666666666667 1.3866666666666667l23.146666666666665 42.666666666666664a2.6666666666666665 2.6666666666666665 0 0 1 0 2.6666666666666665 2.5599999999999996 2.5599999999999996 0 0 1 -2.2399999999999998 1.2799999999999998H186.66666666666666a16 16 0 0 0 -16 16 16 16 0 0 1 -16 16h-53.33333333333333A16 16 0 0 1 85.33333333333333 184a16 16 0 0 0 -16 -16H29.866666666666664a2.88 2.88 0 0 1 -2.2399999999999998 -1.2799999999999998 2.6666666666666665 2.6666666666666665 0 0 1 0 -2.6666666666666665l22.29333333333333 -42.666666666666664a2.5599999999999996 2.5599999999999996 0 0 1 2.3466666666666667 -1.3866666666666667h17.066666666666666a10.666666666666666 10.666666666666666 0 0 0 0 -21.333333333333332H50.56a20.37333333333333 20.37333333333333 0 0 0 -17.919999999999998 10.666666666666666L1.2799999999999998 168.32a15.146666666666665 15.146666666666665 0 0 0 -1.2799999999999998 5.013333333333333v64a16 16 0 0 0 16 16h224a16 16 0 0 0 16 -16v-64a13.12 13.12 0 0 0 -1.2799999999999998 -5.013333333333333Z" fill="#ffffff" stroke-width="10.6667"></path>
  </g>
</svg>