<svg xmlns="http://www.w3.org/2000/svg" viewBox="0 0 256 256" id="Drawer-Upload--Streamline-Ultimate" height="256" width="256">
  <desc>
    Drawer Upload Streamline Icon: https://streamlinehq.com
  </desc>
  <g id="Drawer-Upload--Streamline-Ultimate.svg">
    <path d="m254.71999999999997 162.98666666666665 -32 -58.773333333333326a20.37333333333333 20.37333333333333 0 0 0 -17.919999999999998 -10.666666666666666H181.33333333333331a10.666666666666666 10.666666666666666 0 0 0 0 21.333333333333332h21.333333333333332a2.7733333333333334 2.7733333333333334 0 0 1 2.3466666666666667 1.3866666666666667l23.146666666666665 42.666666666666664a2.6666666666666665 2.6666666666666665 0 0 1 0 2.6666666666666665 2.5599999999999996 2.5599999999999996 0 0 1 -2.2399999999999998 1.2799999999999998H186.66666666666666a16 16 0 0 0 -16 16 16 16 0 0 1 -16 16h-53.33333333333333A16 16 0 0 1 85.33333333333333 178.66666666666666a16 16 0 0 0 -16 -16H29.866666666666664a2.7733333333333334 2.7733333333333334 0 0 1 -2.2399999999999998 -1.2799999999999998 2.6666666666666665 2.6666666666666665 0 0 1 0 -2.6666666666666665l22.29333333333333 -42.666666666666664a2.5599999999999996 2.5599999999999996 0 0 1 2.3466666666666667 -1.3866666666666667h17.066666666666666a10.666666666666666 10.666666666666666 0 0 0 0 -21.333333333333332H50.56a20.37333333333333 20.37333333333333 0 0 0 -17.919999999999998 10.666666666666666L1.2799999999999998 162.98666666666665a15.146666666666665 15.146666666666665 0 0 0 -1.2799999999999998 5.013333333333333v64a16 16 0 0 0 16 16h224a16 16 0 0 0 16 -16v-64a12.693333333333332 12.693333333333332 0 0 0 -1.2799999999999998 -5.013333333333333Z" fill="#ffffff" stroke-width="10.6667"></path>
    <path d="M163.73333333333332 50.346666666666664 134.39999999999998 11.2a7.893333333333333 7.893333333333333 0 0 0 -6.3999999999999995 -3.1999999999999997 8 8 0 0 0 -6.3999999999999995 3.1999999999999997L92.26666666666667 50.346666666666664a7.893333333333333 7.893333333333333 0 0 0 -0.7466666666666667 8.32 8 8 0 0 0 7.1466666666666665 4.4799999999999995h10.666666666666666a2.6666666666666665 2.6666666666666665 0 0 1 2.6666666666666665 2.6666666666666665v40a16 16 0 1 0 32 0V65.81333333333333a2.6666666666666665 2.6666666666666665 0 0 1 2.6666666666666665 -2.6666666666666665h10.666666666666666a8 8 0 0 0 6.3999999999999995 -12.799999999999999Z" fill="#ffffff" stroke-width="10.6667"></path>
  </g>
</svg>