<svg xmlns="http://www.w3.org/2000/svg" id="Drawer-Envelope--Streamline-Ultimate" width="256" height="256" viewBox="0 0 256 256"><desc>Drawer Envelope Streamline Icon: https://streamlinehq.com</desc><g id="Drawer-Envelope--Streamline-Ultimate.svg"><path fill="#fff" stroke-width="10.667" d="m44.2848 45.80266666666666 7.510399999999999 10.431999999999999c6.584533333333333 6.125866666666667 15.313066666666666 9.421866666666666 24.304000000000002 9.178666666666667h62.06506666666667c9.090133333333332 0.1824 17.876266666666666 -3.2725333333333335 24.40853333333333 -9.5968l7.093333333333334 -10.430933333333332v26.703999999999997l-67.5936 17.002666666666666c-5.602133333333333 1.5733333333333333 -10.338133333333332 5.3322666666666665 -13.143466666666665 10.430933333333332 -3.022933333333333 4.8949333333333325 -3.8912 10.820266666666665 -2.398933333333333 16.376533333333334l13.248 52.15573333333333c0.32639999999999997 1.1701333333333332 1.392 1.9797333333333331 2.606933333333333 1.9818666666666664h16.064c0.8170666666666666 -0.016 1.5839999999999999 -0.39893333333333336 2.0864 -1.0432 0.30826666666666663 -0.6976 0.30826666666666663 -1.4933333333333334 0 -2.190933333333333l-7.614933333333333 -31.2928c-0.12906666666666666 -0.8693333333333333 0.13866666666666666 -1.7504 0.7306666666666667 -2.398933333333333 0.5653333333333332 -0.6581333333333332 1.4527999999999999 -0.9397333333333333 2.2944 -0.7306666666666667l38.80426666666666 7.093333333333334c10.987733333333333 3.2885333333333335 22.89493333333333 0.5098666666666667 31.2928 -7.301333333333333l31.293866666666666 -25.556266666666666c0.7466666666666667 -0.4085333333333333 1.6511999999999998 -0.4085333333333333 2.398933333333333 0 0.8927999999999999 0.24853333333333333 1.5754666666666666 0.9717333333333333 1.7727999999999997 1.877333333333333l10.535466666666666 39.42933333333333 -65.29813333333333 16.690133333333332c-1.9285333333333332 0.5568 -2.5312 2.9930666666666665 -1.0837333333333332 4.385066666666667 0.4608 0.4437333333333333 1.0698666666666665 0.7018666666666666 1.7088 0.7263999999999999h63.83893333333333l5.9456 -1.5648c5.574399999999999 -1.3119999999999998 10.364799999999999 -4.8576 13.246933333333333 -9.805866666666667 2.910933333333333 -4.9344 3.7728 -10.813866666666666 2.4 -16.376533333333334l-17.002666666666666 -64.56853333333333c-2.8735999999999997 -11.527466666666665 -14.554666666666666 -18.53653333333333 -26.077866666666665 -15.646933333333333l-19.4016 5.007999999999999V13.257599999999998c0.08959999999999999 -2.357333333333333 -0.7754666666666666 -4.650666666666666 -2.398933333333333 -6.362666666666667 -2.0042666666666666 -2.4032 -4.909866666666666 -3.8752 -8.032 -4.068266666666666H33.8528c-2.4757333333333333 -0.014933333333333333 -4.865066666666666 0.9183999999999999 -6.6752 2.6079999999999997 -2.328533333333333 1.9391999999999998 -3.6992 4.7936 -3.7557333333333336 7.822933333333333v153.8592c0 1.44 1.168 2.6079999999999997 2.6079999999999997 2.6079999999999997h15.646933333333333c1.44 0 2.6079999999999997 -1.168 2.6079999999999997 -2.6079999999999997Zm169.088 37.239466666666665 -41.09866666666667 33.275733333333335c-3.2938666666666667 3.095466666666667 -8.0192 4.1365333333333325 -12.309333333333331 2.7114666666666665l-52.154666666666664 -9.700266666666666Zm-59.04 -59.352533333333334c1.0154666666666667 -0.022399999999999996 1.952 0.5471999999999999 2.398933333333333 1.4602666666666666 0.46399999999999997 0.8437333333333333 0.46399999999999997 1.8677333333333332 0 2.7114666666666665 -11.474133333333334 15.751466666666666 -10.1184 16.690133333333332 -19.298133333333332 16.690133333333332h-61.856c-8.344533333333333 0 -7.301333333333333 -1.1477333333333333 -18.462933333333332 -16.690133333333332 -0.46399999999999997 -0.8437333333333333 -0.46399999999999997 -1.8677333333333332 0 -2.7114666666666665 0.35946666666666666 -0.8010666666666666 1.1103999999999998 -1.3546666666666667 1.9818666666666664 -1.4602666666666666Z"/><path fill="#fff" stroke-width="10.667" d="M12.990933333333333 185.37066666666664c-8.029866666666667 0 -13.048533333333333 8.693333333333332 -9.0336 15.646933333333333 1.8634666666666666 3.227733333333333 5.306666666666667 5.215999999999999 9.0336 5.215999999999999v20.861866666666664c0 14.402133333333333 11.675733333333334 26.077866666666665 26.077866666666665 26.077866666666665h177.32906666666668c14.402133333333333 0 26.0768 -11.675733333333334 26.0768 -26.077866666666665v-20.861866666666664c8.029866666666667 0 13.048533333333333 -8.693333333333332 9.0336 -15.646933333333333 -1.8624 -3.227733333333333 -5.306666666666667 -5.215999999999999 -9.0336 -5.215999999999999Z"/></g></svg>