<svg xmlns="http://www.w3.org/2000/svg" id="Dribbble-Logo--Streamline-Ultimate" width="256" height="256" viewBox="0 0 256 256"><desc>Dribbble Logo Streamline Icon: https://streamlinehq.com</desc><path fill="#fff" stroke-width="10.667" d="M256 128A128 128 0 0 0 66.98666666666666 15.466666666666665 129.06666666666666 129.06666666666666 0 0 0 0 128a128 128 0 0 0 28.906666666666666 80.85333333333332A128 128 0 0 0 256 128Zm-41.92 -62.72A106.66666666666666 106.66666666666666 0 0 1 234.66666666666666 124.26666666666667c-9.386666666666667 -0.96 -19.413333333333334 -1.4933333333333334 -27.946666666666665 -1.4933333333333334a257.38666666666666 257.38666666666666 0 0 0 -44.48 4.053333333333333c-2.88 -7.359999999999999 -5.973333333333334 -14.613333333333333 -9.493333333333332 -21.333333333333332a250.55999999999997 250.55999999999997 0 0 0 61.33333333333333 -40.21333333333333Zm-14.186666666666667 -15.786666666666665a234.66666666666666 234.66666666666666 0 0 1 -57.81333333333333 37.013333333333335 256 256 0 0 0 -49.81333333333333 -58.879999999999995A104.42666666666665 104.42666666666665 0 0 1 128 21.333333333333332a105.6 105.6 0 0 1 71.89333333333333 28.16ZM71.25333333333333 37.86666666666666a237.86666666666667 237.86666666666667 0 0 1 50.666666666666664 56.53333333333333A233.81333333333333 233.81333333333333 0 0 1 46.39999999999999 106.66666666666666c-7.573333333333332 0 -15.146666666666665 0 -22.72 -1.1733333333333333a106.66666666666666 106.66666666666666 0 0 1 47.57333333333333 -67.62666666666667ZM21.333333333333332 127.14666666666666c8.32 0.7466666666666667 16.746666666666666 1.2799999999999998 25.066666666666666 1.2799999999999998a256 256 0 0 0 86.29333333333332 -15.146666666666665c2.986666666666667 5.973333333333334 5.76 12.053333333333331 8.213333333333333 18.24a253.86666666666667 253.86666666666667 0 0 0 -102.29333333333332 54.50666666666667A106.66666666666666 106.66666666666666 0 0 1 21.333333333333332 127.14666666666666ZM51.946666666666665 202.66666666666666a232.2133333333333 232.2133333333333 0 0 1 96 -50.986666666666665 237.86666666666667 237.86666666666667 0 0 1 10.026666666666666 68.16l0 10.666666666666666A109.65333333333332 109.65333333333332 0 0 1 128 234.66666666666666a106.66666666666666 106.66666666666666 0 0 1 -76.05333333333333 -32Zm128 18.773333333333333 0 -1.5999999999999999a260.26666666666665 260.26666666666665 0 0 0 -10.666666666666666 -72.53333333333333 228.0533333333333 228.0533333333333 0 0 1 37.33333333333333 -3.1999999999999997c8.106666666666666 0 17.706666666666663 0.5333333333333333 26.560000000000002 1.3866666666666667a106.66666666666666 106.66666666666666 0 0 1 -53.76 75.94666666666666Z"/></svg>