<svg xmlns="http://www.w3.org/2000/svg" id="Drugs-Cannabis--Streamline-Ultimate" width="256" height="256" viewBox="0 0 256 256"><desc>Drugs Cannabis Streamline Icon: https://streamlinehq.com</desc><path fill="#fff" stroke-width="10.667" d="M243.0933333333333 177.06666666666666a130.56 130.56 0 0 0 -53.33333333333333 -12.053333333333331 110.08 110.08 0 0 0 -11.84 0.6399999999999999 2.6666666666666665 2.6666666666666665 0 0 1 -2.7733333333333334 -1.7066666666666666 2.7733333333333334 2.7733333333333334 0 0 1 0.96 -3.093333333333333 190.61333333333334 190.61333333333334 0 0 0 21.333333333333332 -18.24 204.79999999999998 204.79999999999998 0 0 0 38.61333333333333 -55.25333333333333 8.32 8.32 0 0 0 -10.666666666666666 -10.666666666666666 204.79999999999998 204.79999999999998 0 0 0 -55.25333333333333 38.61333333333333 179.62666666666667 179.62666666666667 0 0 0 -16.64 19.2 2.7733333333333334 2.7733333333333334 0 0 1 -3.3066666666666666 0.8533333333333333 2.88 2.88 0 0 1 -1.4933333333333334 -2.986666666666667 209.38666666666666 209.38666666666666 0 0 0 4.693333333333333 -42.666666666666664A216.8533333333333 216.8533333333333 0 0 0 135.68 5.119999999999999a8.32 8.32 0 0 0 -15.36 0 216.8533333333333 216.8533333333333 0 0 0 -17.599999999999998 83.62666666666667 209.38666666666666 209.38666666666666 0 0 0 4.693333333333333 42.666666666666664 2.88 2.88 0 0 1 -1.4933333333333334 2.986666666666667 2.7733333333333334 2.7733333333333334 0 0 1 -3.3066666666666666 -0.8533333333333333 179.62666666666667 179.62666666666667 0 0 0 -16.64 -19.2 204.79999999999998 204.79999999999998 0 0 0 -55.25333333333333 -38.08 8.32 8.32 0 0 0 -10.666666666666666 10.666666666666666 204.79999999999998 204.79999999999998 0 0 0 38.61333333333333 55.25333333333333 190.61333333333334 190.61333333333334 0 0 0 21.333333333333332 18.24 2.7733333333333334 2.7733333333333334 0 0 1 0.96 3.093333333333333 2.6666666666666665 2.6666666666666665 0 0 1 -2.7733333333333334 1.7066666666666666 110.08 110.08 0 0 0 -11.84 -0.6399999999999999 130.56 130.56 0 0 0 -53.33333333333333 12.053333333333331 8.213333333333333 8.213333333333333 0 0 0 -4.906666666666666 7.573333333333332 8.426666666666666 8.426666666666666 0 0 0 4.906666666666666 7.573333333333332 132.26666666666665 132.26666666666665 0 0 0 53.33333333333333 12.053333333333331A117.97333333333333 117.97333333333333 0 0 0 84.16 202.66666666666666a2.2399999999999998 2.2399999999999998 0 0 1 2.453333333333333 1.1733333333333333 2.2399999999999998 2.2399999999999998 0 0 1 0 2.7733333333333334A103.68 103.68 0 0 0 66.66666666666666 234.66666666666666a8.426666666666666 8.426666666666666 0 0 0 1.5999999999999999 9.493333333333332c6.826666666666666 6.72 31.04 -4.4799999999999995 47.78666666666667 -13.653333333333332a2.6666666666666665 2.6666666666666665 0 0 1 2.6666666666666665 0 2.7733333333333334 2.7733333333333334 0 0 1 1.2799999999999998 2.2399999999999998v14.933333333333332a8 8 0 0 0 16 0v-14.933333333333332a2.7733333333333334 2.7733333333333334 0 0 1 1.2799999999999998 -2.2399999999999998 2.6666666666666665 2.6666666666666665 0 0 1 2.6666666666666665 0A114.34666666666666 114.34666666666666 0 0 0 181.33333333333331 246.4a8.853333333333332 8.853333333333332 0 0 0 6.3999999999999995 -2.0266666666666664 8.32 8.32 0 0 0 1.7066666666666666 -9.493333333333332 103.68 103.68 0 0 0 -19.52 -28.16 2.2399999999999998 2.2399999999999998 0 0 1 0 -2.7733333333333334 2.2399999999999998 2.2399999999999998 0 0 1 2.453333333333333 -1.1733333333333333 117.97333333333333 117.97333333333333 0 0 0 18.24 1.4933333333333334 132.26666666666665 132.26666666666665 0 0 0 53.33333333333333 -12.053333333333331 8.426666666666666 8.426666666666666 0 0 0 4.906666666666666 -7.573333333333332 8.213333333333333 8.213333333333333 0 0 0 -5.76 -7.573333333333332Z"/></svg>