<svg xmlns="http://www.w3.org/2000/svg" fill="none" viewBox="0 0 256 256" id="Dual-Sim-Signal-4--Streamline-Ultimate" height="256" width="256">
  <desc>
    Dual Sim Signal 4 Streamline Icon: https://streamlinehq.com
  </desc>
  <path fill="#ffffff" fill-rule="evenodd" d="M191.94346666666667 5.277130666666666c3.5690666666666666 -3.568906666666667 8.372266666666667 -5.276479624533333 13.389866666666666 -5.276479624533333h32c5.0176 0 9.820799999999998 1.7075729578666667 13.389866666666666 5.276479624533333C254.29226666666665 8.846026666666667 256 13.649386666666667 256 18.667306666666665V170.1344c0 5.0176 -1.707733333333333 9.820799999999998 -5.2768 13.389866666666666 -3.5690666666666666 3.5690666666666666 -8.372266666666667 5.2768 -13.389866666666666 5.2768h-32c-5.0176 0 -9.820799999999998 -1.707733333333333 -13.389866666666666 -5.2768 -3.5690666666666666 -3.5690666666666666 -5.2768 -8.372266666666667 -5.2768 -13.389866666666666V18.667306666666665c0 -5.01792 1.707733333333333 -9.82128 5.2768 -13.390175999999999ZM98.60981333333332 58.610453333333325c3.568853333333333 -3.568853333333333 8.372586666666667 -5.276479999999999 13.390186666666667 -5.276479999999999h32c5.0176 0 9.820799999999998 1.7076266666666666 13.389866666666666 5.276479999999999 3.5690666666666666 3.5689599999999997 5.2768 8.372266666666667 5.2768 13.390186666666667v98.13376c0 5.0176 -1.707733333333333 9.820799999999998 -5.2768 13.389866666666666 -3.5690666666666666 3.5690666666666666 -8.372266666666667 5.2768 -13.389866666666666 5.2768h-32c-5.0176 0 -9.821333333333332 -1.707733333333333 -13.390186666666667 -5.2768 -3.568853333333333 -3.5690666666666666 -5.276479999999999 -8.372266666666667 -5.276479999999999 -13.389866666666666V72.00064c0 -5.01792 1.7076266666666666 -9.821226666666666 5.276479999999999 -13.390186666666667ZM112 208c-5.0176 0 -9.821333333333332 1.707733333333333 -13.390186666666667 5.2768 -3.568853333333333 3.5690666666666666 -5.276479999999999 8.372266666666667 -5.276479999999999 13.389866666666666v10.666666666666666c0 5.0176 1.7076266666666666 9.820799999999998 5.276479999999999 13.389866666666666 3.568853333333333 3.5690666666666666 8.372586666666667 5.2768 13.390186666666667 5.2768h32c5.0176 0 9.820799999999998 -1.707733333333333 13.389866666666666 -5.2768 3.5690666666666666 -3.5690666666666666 5.2768 -8.372266666666667 5.2768 -13.389866666666666v-10.666666666666666c0 -5.0176 -1.707733333333333 -9.820799999999998 -5.2768 -13.389866666666666 -3.5690666666666666 -3.5690666666666666 -8.372266666666667 -5.2768 -13.389866666666666 -5.2768h-32ZM5.276479999999999 111.94346666666667c3.5688959999999996 -3.5690666666666666 8.37216 -5.275733333333333 13.390186666666667 -5.275733333333333h32c5.018026666666667 0 9.821333333333332 1.7066666666666666 13.390186666666667 5.275733333333333 3.568853333333333 3.5690666666666666 5.276479999999999 8.372266666666667 5.276479999999999 13.390933333333333v44.8c0 5.0176 -1.7076266666666666 9.820799999999998 -5.276479999999999 13.389866666666666 -3.568853333333333 3.5690666666666666 -8.37216 5.2768 -13.390186666666667 5.2768h-32c-5.018026666666667 0 -9.821290666666666 -1.707733333333333 -13.390186666666667 -5.2768C1.7075733333333334 179.9552 0 175.152 0 170.1344v-44.8c0 -5.018666666666666 1.7075733333333334 -9.821866666666665 5.276479999999999 -13.390933333333333ZM18.666666666666664 208c-5.018026666666667 0 -9.821290666666666 1.707733333333333 -13.390186666666667 5.2768C1.7075733333333334 216.84586666666667 0 221.64906666666664 0 226.66666666666666v10.666666666666666c0 5.0176 1.7075733333333334 9.820799999999998 5.276479999999999 13.389866666666666C8.845376 254.29226666666665 13.64864 256 18.666666666666664 256h32c5.018026666666667 0 9.821333333333332 -1.707733333333333 13.390186666666667 -5.2768 3.568853333333333 -3.5690666666666666 5.276479999999999 -8.372266666666667 5.276479999999999 -13.389866666666666v-10.666666666666666c0 -5.0176 -1.7076266666666666 -9.820799999999998 -5.276479999999999 -13.389866666666666C60.488 209.70773333333332 55.68469333333333 208 50.666666666666664 208h-32ZM192 234.58346666666665c-5.8911999999999995 0 -10.666666666666666 4.7754666666666665 -10.666666666666666 10.666666666666666s4.7754666666666665 10.666666666666666 10.666666666666666 10.666666666666666h53.33333333333333c5.8911999999999995 0 10.666666666666666 -4.7754666666666665 10.666666666666666 -10.666666666666666s-4.7754666666666665 -10.666666666666666 -10.666666666666666 -10.666666666666666h-53.33333333333333Z" clip-rule="evenodd" stroke-width="10.6667"></path>
</svg>