<svg xmlns="http://www.w3.org/2000/svg" fill="none" viewBox="0 0 256 256" id="Duplicate--Streamline-Ultimate" height="256" width="256">
  <desc>
    Duplicate Streamline Icon: https://streamlinehq.com
  </desc>
  <path fill="#ffffff" fill-rule="evenodd" d="M0 21.333333333333332C0 9.551242666666667 9.551264 0 21.333333333333332 0h149.33333333333331c11.782399999999999 0 21.333333333333332 9.551274666666666 21.333333333333332 21.333333333333332v16c0 5.890986666666667 -4.7754666666666665 10.666666666666666 -10.666666666666666 10.666666666666666s-10.666666666666666 -4.7756799999999995 -10.666666666666666 -10.666666666666666V21.333333333333332L21.333333333333332 21.333333333333332v149.33333333333331h16c5.890986666666667 0 10.666666666666666 4.7754666666666665 10.666666666666666 10.666666666666666s-4.7756799999999995 10.666666666666666 -10.666666666666666 10.666666666666666H21.333333333333332c-11.78208 0 -21.333333333333332 -9.550933333333333 -21.333333333333332 -21.333333333333332V21.333333333333332Z" clip-rule="evenodd" stroke-width="10.6667"></path>
  <path fill="#ffffff" fill-rule="evenodd" d="M85.33333333333333 64c-11.78208 0 -21.333333333333332 9.551253333333332 -21.333333333333332 21.333333333333332v149.33333333333331c0 11.782399999999999 9.551253333333332 21.333333333333332 21.333333333333332 21.333333333333332h149.33333333333331c11.782399999999999 0 21.333333333333332 -9.550933333333333 21.333333333333332 -21.333333333333332V85.33333333333333c0 -11.78208 -9.550933333333333 -21.333333333333332 -21.333333333333332 -21.333333333333332H85.33333333333333Z" clip-rule="evenodd" stroke-width="10.6667"></path>
</svg>