<svg xmlns="http://www.w3.org/2000/svg" id="E-Commerce-Apparel--Streamline-Ultimate" width="256" height="256" viewBox="0 0 256 256"><desc>E Commerce Apparel Streamline Icon: https://streamlinehq.com</desc><g id="E-Commerce-Apparel--Streamline-Ultimate.svg"><path fill="#fff" stroke-width="10.667" d="M240 0h-224A16 16 0 0 0 0 16v170.66666666666666A16 16 0 0 0 16 202.66666666666666h224a16 16 0 0 0 16 -16v-170.66666666666666A16 16 0 0 0 240 0ZM234.66666666666666 154.66666666666666a5.333333333333333 5.333333333333333 0 0 1 -5.333333333333333 5.333333333333333h-202.66666666666666a5.333333333333333 5.333333333333333 0 0 1 -5.333333333333333 -5.333333333333333v-128a5.333333333333333 5.333333333333333 0 0 1 5.333333333333333 -5.333333333333333h202.66666666666666a5.333333333333333 5.333333333333333 0 0 1 5.333333333333333 5.333333333333333Z"/><path fill="#fff" stroke-width="10.667" d="M153.06666666666666 220.58666666666664a5.4399999999999995 5.4399999999999995 0 0 0 -3.733333333333333 -1.92h-42.666666666666664a5.653333333333333 5.653333333333333 0 0 0 -4.053333333333333 1.92l-22.4 26.986666666666665a5.226666666666667 5.226666666666667 0 0 0 0 5.546666666666667A5.119999999999999 5.119999999999999 0 0 0 85.33333333333333 256h85.33333333333333a5.4399999999999995 5.4399999999999995 0 0 0 4.373333333333333 -8.426666666666666Z"/><path fill="#fff" stroke-width="10.667" d="M183.14666666666668 54.82666666666666A15.893333333333333 15.893333333333333 0 0 0 167.68 42.666666666666664H144a5.333333333333333 5.333333333333333 0 0 0 -5.333333333333333 5.333333333333333 10.666666666666666 10.666666666666666 0 0 1 -21.333333333333332 0 5.333333333333333 5.333333333333333 0 0 0 -5.333333333333333 -5.333333333333333H88.32a15.893333333333333 15.893333333333333 0 0 0 -15.466666666666665 12.159999999999998L64 89.38666666666667a5.4399999999999995 5.4399999999999995 0 0 0 1.0666666666666667 4.586666666666666 5.226666666666667 5.226666666666667 0 0 0 4.266666666666667 2.0266666666666664h13.333333333333332a2.6666666666666665 2.6666666666666665 0 0 1 2.6666666666666665 2.6666666666666665v34.666666666666664a5.333333333333333 5.333333333333333 0 0 0 5.333333333333333 5.333333333333333h74.66666666666666a5.333333333333333 5.333333333333333 0 0 0 5.333333333333333 -5.333333333333333V98.66666666666666a2.6666666666666665 2.6666666666666665 0 0 1 2.6666666666666665 -2.6666666666666665h13.333333333333332a5.226666666666667 5.226666666666667 0 0 0 4.16 -2.0266666666666664 5.4399999999999995 5.4399999999999995 0 0 0 1.0666666666666667 -4.586666666666666Z"/></g></svg>