<svg xmlns="http://www.w3.org/2000/svg" id="E-Commerce-Touch-Buy--Streamline-Ultimate" width="256" height="256" viewBox="0 0 256 256"><desc>E Commerce Touch Buy Streamline Icon: https://streamlinehq.com</desc><g id="E-Commerce-Touch-Buy--Streamline-Ultimate.svg"><path fill="#fff" stroke-width="10.667" d="M85.97333333333333 54.50666666666667a8 8 0 0 0 -10.666666666666666 2.6666666666666665L60.48 81.38666666666666a2.88 2.88 0 0 1 -2.3466666666666667 1.2799999999999998h-2.986666666666667a5.119999999999999 5.119999999999999 0 0 0 -4.266666666666667 2.1333333333333333 5.333333333333333 5.333333333333333 0 0 0 -0.8533333333333333 4.693333333333333l16 53.33333333333333a5.226666666666667 5.226666666666667 0 0 0 5.119999999999999 3.84h53.33333333333333a5.333333333333333 5.333333333333333 0 0 0 5.013333333333333 -3.626666666666667l17.813333333333333 -53.33333333333333a5.333333333333333 5.333333333333333 0 0 0 -5.013333333333333 -7.04h-4.8a2.88 2.88 0 0 1 -2.3466666666666667 -1.2799999999999998l-14.506666666666668 -24.21333333333333a8 8 0 0 0 -13.973333333333333 8.32l7.893333333333333 13.12a2.986666666666667 2.986666666666667 0 0 1 0 2.6666666666666665 2.6666666666666665 2.6666666666666665 0 0 1 -2.3466666666666667 1.3866666666666667H83.09333333333333a2.7733333333333334 2.7733333333333334 0 0 1 -2.3466666666666667 -4.053333333333333l7.893333333333333 -13.12a8 8 0 0 0 -2.6666666666666665 -10.986666666666666Z"/><path fill="#fff" stroke-width="10.667" d="M252.16 193.81333333333333a13.76 13.76 0 0 0 -9.493333333333332 -16.21333333333333L202.66666666666666 165.97333333333333a2.6666666666666665 2.6666666666666665 0 0 1 -1.92 -2.5599999999999996v-48.74666666666667a10.666666666666666 10.666666666666666 0 0 0 -21.333333333333332 0v75.30666666666666a2.6666666666666665 2.6666666666666665 0 0 1 -1.92 2.5599999999999996 2.7733333333333334 2.7733333333333334 0 0 1 -2.986666666666667 -1.0666666666666667c-15.786666666666665 -22.826666666666668 -40.53333333333333 -15.573333333333332 -28.906666666666666 2.2399999999999998l32 47.78666666666667a2.453333333333333 2.453333333333333 0 0 0 2.1333333333333333 1.1733333333333333h61.653333333333336a2.7733333333333334 2.7733333333333334 0 0 0 2.6666666666666665 -2.2399999999999998l7.786666666666666 -42.666666666666664Z"/><path fill="#fff" stroke-width="10.667" d="M136.85333333333332 216a10.666666666666666 10.666666666666666 0 0 0 -10.666666666666666 -10.666666666666666h-2.6666666666666665a2.6666666666666665 2.6666666666666665 0 0 1 -2.6666666666666665 -2.6666666666666665v-5.653333333333333a2.6666666666666665 2.6666666666666665 0 0 1 2.1333333333333333 -2.5599999999999996 10.666666666666666 10.666666666666666 0 0 0 -2.1333333333333333 -21.333333333333332h-90.66666666666666a5.333333333333333 5.333333333333333 0 0 1 -5.333333333333333 -5.333333333333333v-128a5.333333333333333 5.333333333333333 0 0 1 5.333333333333333 -5.333333333333333h192a5.333333333333333 5.333333333333333 0 0 1 5.333333333333333 5.333333333333333v112a10.666666666666666 10.666666666666666 0 0 0 21.333333333333332 0v-117.33333333333333a21.333333333333332 21.333333333333332 0 0 0 -21.333333333333332 -21.333333333333332h-202.66666666666666a21.333333333333332 21.333333333333332 0 0 0 -21.333333333333332 21.333333333333332v138.66666666666666a21.333333333333332 21.333333333333332 0 0 0 21.333333333333332 21.333333333333332h72a2.6666666666666665 2.6666666666666665 0 0 1 2.6666666666666665 2.6666666666666665V202.66666666666666a2.6666666666666665 2.6666666666666665 0 0 1 -2.6666666666666665 2.6666666666666665H72.85333333333332a10.666666666666666 10.666666666666666 0 1 0 0 21.333333333333332h53.33333333333333a10.666666666666666 10.666666666666666 0 0 0 10.666666666666666 -10.666666666666666Z"/></g></svg>