<svg xmlns="http://www.w3.org/2000/svg" id="E-Commerce-Shopping-Bag--Streamline-Ultimate" width="256" height="256" viewBox="0 0 256 256"><desc>E Commerce Shopping Bag Streamline Icon: https://streamlinehq.com</desc><g id="E-Commerce-Shopping-Bag--Streamline-Ultimate.svg"><path fill="#fff" stroke-width="10.667" d="M212.69333333333333 179.41333333333333 202.66666666666666 90.45333333333333A17.919999999999998 17.919999999999998 0 0 0 185.17333333333332 74.66666666666666h-17.173333333333332a2.6666666666666665 2.6666666666666665 0 0 1 -2.6666666666666665 -2.6666666666666665v-10.666666666666666A38.72 38.72 0 0 0 128 21.333333333333332a38.72 38.72 0 0 0 -37.33333333333333 40v10.666666666666666a2.6666666666666665 2.6666666666666665 0 0 1 -2.6666666666666665 2.6666666666666665H70.82666666666665A17.919999999999998 17.919999999999998 0 0 0 53.33333333333333 90.45333333333333l-9.6 88.96a108.16 108.16 0 0 0 -1.0666666666666667 11.733333333333334 27.946666666666665 27.946666666666665 0 0 0 28.16 27.52h114.34666666666666A27.946666666666665 27.946666666666665 0 0 0 213.33333333333331 191.14666666666668a108.16 108.16 0 0 0 -0.6399999999999999 -11.733333333333334Zm-100.69333333333333 6.3999999999999995a8 8 0 0 1 0 -16h21.333333333333332a6.293333333333333 6.293333333333333 0 0 0 6.293333333333333 -6.293333333333333 6.186666666666666 6.186666666666666 0 0 0 -3.9466666666666663 -5.866666666666667L114.02666666666666 149.33333333333331a22.29333333333333 22.29333333333333 0 0 1 3.84 -42.666666666666664 2.7733333333333334 2.7733333333333334 0 0 0 2.1333333333333333 -2.6666666666666665v-3.52a8 8 0 0 1 16 0v2.6666666666666665a2.6666666666666665 2.6666666666666665 0 0 0 2.6666666666666665 2.6666666666666665h5.333333333333333a8 8 0 0 1 0 16h-21.333333333333332a6.293333333333333 6.293333333333333 0 0 0 -2.3466666666666667 12.159999999999998l21.973333333333333 8.746666666666666a22.29333333333333 22.29333333333333 0 0 1 -3.84 42.666666666666664 2.7733333333333334 2.7733333333333334 0 0 0 -2.1333333333333333 2.6666666666666665v3.1999999999999997a8 8 0 0 1 -16 0v-2.6666666666666665a2.6666666666666665 2.6666666666666665 0 0 0 -2.6666666666666665 -2.6666666666666665Zm0 -124.47999999999999A17.493333333333332 17.493333333333332 0 0 1 128 42.666666666666664a17.493333333333332 17.493333333333332 0 0 1 16 18.666666666666664v10.666666666666666a2.6666666666666665 2.6666666666666665 0 0 1 -2.6666666666666665 2.6666666666666665h-26.666666666666664a2.6666666666666665 2.6666666666666665 0 0 1 -2.6666666666666665 -2.6666666666666665Z"/><path fill="#fff" stroke-width="10.667" d="M10.666666666666666 42.666666666666664a10.666666666666666 10.666666666666666 0 0 0 10.666666666666666 -10.666666666666666v-8A2.6666666666666665 2.6666666666666665 0 0 1 24 21.333333333333332H32a10.666666666666666 10.666666666666666 0 0 0 0 -21.333333333333332H21.333333333333332a21.333333333333332 21.333333333333332 0 0 0 -21.333333333333332 21.333333333333332v10.666666666666666a10.666666666666666 10.666666666666666 0 0 0 10.666666666666666 10.666666666666666Z"/><path fill="#fff" stroke-width="10.667" d="M32 234.66666666666666h-8a2.6666666666666665 2.6666666666666665 0 0 1 -2.6666666666666665 -2.6666666666666665V224a10.666666666666666 10.666666666666666 0 0 0 -21.333333333333332 0v10.666666666666666a21.333333333333332 21.333333333333332 0 0 0 21.333333333333332 21.333333333333332h10.666666666666666a10.666666666666666 10.666666666666666 0 0 0 0 -21.333333333333332Z"/><path fill="#fff" stroke-width="10.667" d="M234.66666666666666 0h-10.666666666666666a10.666666666666666 10.666666666666666 0 0 0 0 21.333333333333332h8a2.6666666666666665 2.6666666666666665 0 0 1 2.6666666666666665 2.6666666666666665V32a10.666666666666666 10.666666666666666 0 0 0 21.333333333333332 0V21.333333333333332a21.333333333333332 21.333333333333332 0 0 0 -21.333333333333332 -21.333333333333332Z"/><path fill="#fff" stroke-width="10.667" d="M245.33333333333331 213.33333333333331a10.666666666666666 10.666666666666666 0 0 0 -10.666666666666666 10.666666666666666v8a2.6666666666666665 2.6666666666666665 0 0 1 -2.6666666666666665 2.6666666666666665H224a10.666666666666666 10.666666666666666 0 0 0 0 21.333333333333332h10.666666666666666a21.333333333333332 21.333333333333332 0 0 0 21.333333333333332 -21.333333333333332v-10.666666666666666a10.666666666666666 10.666666666666666 0 0 0 -10.666666666666666 -10.666666666666666Z"/></g></svg>