<svg xmlns="http://www.w3.org/2000/svg" viewBox="0 0 256 256" id="Earpods-Ear--Streamline-Ultimate" height="256" width="256">
  <desc>
    Earpods Ear Streamline Icon: https://streamlinehq.com
  </desc>
  <g id="Earpods-Ear--Streamline-Ultimate.svg">
    <path d="M172.16 188.0533333333333a10.666666666666666 10.666666666666666 0 0 0 -11.626666666666667 9.6 38.61333333333333 38.61333333333333 0 0 1 -60.373333333333335 28.373333333333335 40.31999999999999 40.31999999999999 0 0 1 -16.746666666666666 -30.93333333333333 57.6 57.6 0 0 0 -28.906666666666666 -47.67999999999999 66.77333333333333 66.77333333333333 0 0 1 25.599999999999998 -124.05333333333334 64 64 0 0 1 50.346666666666664 17.706666666666663 10.666666666666666 10.666666666666666 0 0 0 14.826666666666664 -15.36A85.33333333333333 85.33333333333333 0 0 0 78.08 2.0266666666666664a88.21333333333332 88.21333333333332 0 0 0 -34.239999999999995 163.83999999999997 36.586666666666666 36.586666666666666 0 0 1 18.346666666666664 31.253333333333334 59.946666666666665 59.946666666666665 0 0 0 119.14666666666666 2.6666666666666665 10.666666666666666 10.666666666666666 0 0 0 -9.173333333333332 -11.733333333333334Z" fill="#ffffff" stroke-width="10.6667"></path>
    <path d="M42.666666666666664 74.66666666666666a10.666666666666666 10.666666666666666 0 1 0 20.479999999999997 5.866666666666667A29.65333333333333 29.65333333333333 0 0 1 96 59.30666666666666a10.666666666666666 10.666666666666666 0 1 0 3.093333333333333 -21.333333333333332A50.986666666666665 50.986666666666665 0 0 0 42.666666666666664 74.66666666666666Z" fill="#ffffff" stroke-width="10.6667"></path>
    <path d="M249.70666666666665 139.83999999999997 174.29333333333332 64a39.57333333333333 39.57333333333333 0 0 0 -32 -10.666666666666666 55.14666666666666 55.14666666666666 0 0 0 -33.599999999999994 16.53333333333333 55.36 55.36 0 0 0 -16.106666666666666 32 16.106666666666666 16.106666666666666 0 0 0 4.586666666666666 13.44l26.77333333333333 26.77333333333333a16.106666666666666 16.106666666666666 0 0 0 13.44 4.586666666666666 55.36 55.36 0 0 0 32 -16.106666666666666l1.7066666666666666 -1.7066666666666666a5.4399999999999995 5.4399999999999995 0 0 1 7.68 0l41.599999999999994 41.599999999999994a21.333333333333332 21.333333333333332 0 0 0 30.08 -30.186666666666667ZM133.33333333333331 90.66666666666666a10.666666666666666 10.666666666666666 0 1 1 -10.666666666666666 10.666666666666666 10.666666666666666 10.666666666666666 0 0 1 10.666666666666666 -10.666666666666666Z" fill="#ffffff" stroke-width="10.6667"></path>
  </g>
</svg>