<svg xmlns="http://www.w3.org/2000/svg" fill="none" viewBox="0 0 256 256" id="Earthquake-Global-Seismic-Wave--Streamline-Ultimate" height="256" width="256">
  <desc>
    Earthquake Global Seismic Wave Streamline Icon: https://streamlinehq.com
  </desc>
  <path fill="#ffffff" fill-rule="evenodd" d="M47.96053333333333 58.613119999999995c9.9744 -11.494186666666666 22.383573333333334 -20.817813333333334 36.423359999999995 -27.169386666666668 -2.9168000000000003 7.0847999999999995 -5.4639999999999995 14.809066666666666 -7.621546666666667 22.9824 -9.186879999999999 1.1217066666666666 -18.734506666666665 2.517653333333333 -28.80181333333333 4.186986666666666Zm51.64256 -6.459946666666667c3.6976 -11.887786666666665 8.161173333333332 -21.70997333333333 12.988906666666667 -28.96501333333333 5.0304 -0.73312 10.174933333333332 -1.1126399999999999 15.406933333333331 -1.1126399999999999 5.210666666666667 0 10.332799999999999 0.37621333333333334 15.341866666666665 1.1031466666666665 4.716799999999999 7.284373333333333 9.056 17.02677333333333 12.677333333333332 28.707626666666663 -18.857599999999998 -1.2782933333333333 -37.0784 -1.1866666666666665 -56.41503999999999 0.26688Zm83.99050666666666 24.010133333333332c12.6144 1.7135999999999998 25.894399999999997 4.0012799999999995 40.340266666666665 6.863893333333333 2.3327999999999998 4.967786666666666 4.2912 10.146346666666666 5.837866666666667 15.499626666666666 1.6362666666666668 5.659413333333333 7.5498666666666665 8.921706666666665 13.209599999999998 7.2854399999999995 5.658666666666666 -1.635733333333333 8.920533333333333 -7.549653333333333 7.285333333333334 -13.20896C234.9333333333333 39.55221333333333 186.0128 0.7421877333333333 127.99893333333333 0.7421877333333333 69.98634666666666 0.7421877333333333 21.0656 39.55221333333333 5.732106666666667 92.60330666666665c-1.6357546666666665 5.659306666666667 1.6260373333333331 11.573226666666665 7.285386666666666 13.20896 5.659413333333333 1.6362666666666668 11.573333333333332 -1.6260266666666665 13.209066666666667 -7.2854399999999995 1.5403733333333334 -5.329386666666666 3.488106666666667 -10.485653333333332 5.807146666666666 -15.433173333333333 52.07541333333333 -9.732586666666666 88.65216 -12.877226666666667 129.42122666666666 -9.398399999999999 0.42346666666666666 2.159893333333333 0.8245333333333332 4.360426666666666 1.2010666666666667 6.599573333333333 0.9770666666666666 5.809493333333333 6.478933333333334 9.726613333333333 12.287999999999998 8.749333333333333 5.810133333333333 -0.9772799999999999 9.726933333333333 -6.478933333333334 8.749866666666666 -12.288426666666666 -0.03306666666666666 -0.19765333333333335 -0.0672 -0.3950933333333333 -0.10026666666666667 -0.5924266666666667Zm-4.765866666666666 -22.113599999999998c-2.1471999999999998 -8.107626666666667 -4.657066666666666 -15.742933333333333 -7.506133333333333 -22.737919999999995 14.044799999999999 6.3024 26.46933333333333 15.574933333333334 36.4704 27.019199999999998 -10.076799999999999 -1.73536 -19.669333333333334 -3.1621333333333332 -28.964266666666663 -4.28128ZM26.782719999999998 159.33226666666667c-1.74016 -5.627733333333333 -7.713279999999999 -8.779733333333333 -13.34144 -7.04 -5.628202666666667 1.7397333333333331 -8.780128 7.713066666666666 -7.040053333333333 13.340799999999998C22.44704 217.53279999999998 70.80362666666666 255.25759999999997 127.99893333333333 255.25759999999997c57.19573333333333 0 105.55306666666667 -37.7248 121.59893333333333 -89.62453333333333 1.7397333333333331 -5.627733333333333 -1.4122666666666666 -11.601066666666664 -7.041066666666667 -13.340799999999998 -5.627733333333333 -1.7397333333333331 -11.601066666666664 1.4122666666666666 -13.340799999999998 7.04 -1.4442666666666666 4.672 -3.2032 9.204266666666665 -5.252266666666666 13.574399999999999 -14.446933333333334 2.7007999999999996 -27.70133333333333 4.893866666666666 -40.184533333333334 6.5792 1.0197333333333334 -6.0736 1.8581333333333332 -12.321066666666667 2.5056 -18.69653333333333 0.5941333333333333 -5.860266666666666 -3.674666666666666 -11.0944 -9.536 -11.6896 -5.860266666666666 -0.5941333333333333 -11.093333333333334 3.674666666666666 -11.688533333333334 9.536 -0.8309333333333333 8.186666666666666 -1.9850666666666665 16.0032 -3.4122666666666666 23.37173333333333 -23.351466666666667 2.123733333333333 -44.64853333333333 2.2207999999999997 -67.23914666666667 0.28586666666666666 -1.4922666666666666 -7.655466666666666 -2.689493333333333 -15.797333333333334 -3.535573333333333 -24.337066666666665 -0.5806933333333333 -5.862399999999999 -5.803946666666667 -10.143999999999998 -11.666239999999998 -9.562666666666665 -5.862293333333334 0.5802666666666666 -10.143893333333333 5.803733333333334 -9.563199999999998 11.666133333333331 0.6683733333333333 6.746666666666666 1.5501866666666664 13.349333333333334 2.634133333333333 19.75893333333333 -12.57696 -1.712 -25.815786666666668 -3.9936 -40.213119999999996 -6.846933333333333 -2.061653333333333 -4.3904 -3.83072 -8.945066666666666 -5.2821333333333325 -13.639466666666666Zm21.423146666666668 38.336c9.957333333333333 11.394133333333333 22.315306666666665 20.634666666666668 36.283199999999994 26.935466666666663 -2.8265599999999997 -6.981333333333333 -5.3240533333333335 -14.583466666666666 -7.4630399999999995 -22.67093333333333 -9.249706666666667 -1.1168 -18.795413333333332 -2.5386666666666664 -28.82016 -4.264533333333333Zm64.13973333333333 35.1072c5.108266666666666 0.7562666666666666 10.334933333333332 1.1488 15.653333333333332 1.1488 5.319466666666666 0 10.548266666666667 -0.3925333333333333 15.657599999999999 -1.1498666666666666 4.7274666666666665 -7.559466666666666 9.024 -17.354666666666667 12.5856 -28.916266666666665 -19.329066666666666 1.4464 -37.547733333333326 1.5306666666666664 -56.40736 0.24533333333333332 3.54688 11.453866666666666 7.815359999999999 21.1648 12.510826666666667 28.672Zm59.16799999999999 -8.173866666666665c14.08 -6.352 26.5248 -15.6928 36.52373333333333 -27.213866666666664 -10.130133333333333 1.68 -19.733333333333334 3.0826666666666664 -28.9728 4.208 -2.158933333333333 8.212266666666666 -4.685866666666667 15.927466666666668 -7.550933333333333 23.005866666666666ZM96.56181333333333 110.65386666666666l-10.738666666666667 20.694399999999998 -0.013226666666666666 0.025599999999999998c-2.542613333333333 4.8671999999999995 -7.62528 7.748266666666667 -12.859413333333332 7.748266666666667H13.502613333333333c-5.891050666666667 0 -10.666677333333332 -4.7754666666666665 -10.666677333333332 -10.666666666666666s4.775626666666666 -10.666666666666666 10.666677333333332 -10.666666666666666h55.322026666666666l15.8512 -30.54656c1.3128533333333332 -2.5348266666666666 3.337066666666667 -4.585813333333333 5.761706666666666 -5.94144 2.42272 -1.3544533333333333 5.170026666666667 -1.9787733333333333 7.909546666666666 -1.8292266666666666 2.7398399999999996 0.14965333333333333 5.410773333333333 1.0702933333333333 7.67936 2.6944 2.272213333333333 1.6268799999999999 4.057813333333333 3.903253333333333 5.072213333333333 6.5879466666666655l18.406399999999998 48.77248 16.488533333333333 -35.73642666666667c1.1637333333333333 -2.5172266666666667 3.022933333333333 -4.613759999999999 5.2981333333333325 -6.071146666666666 2.272 -1.4552533333333333 4.888533333333333 -2.237546666666667 7.546666666666667 -2.2941866666666666 2.6592 -0.05674666666666667 5.303466666666666 0.6133333333333333 7.632 1.96576 2.331733333333333 1.3543466666666666 4.273066666666667 3.353493333333333 5.547733333333333 5.81056l8.6016 16.58784h61.8816c5.8911999999999995 0 10.666666666666666 4.7754666666666665 10.666666666666666 10.666666666666666s-4.7754666666666665 10.666666666666666 -10.666666666666666 10.666666666666666h-66.00533333333333c-5.234133333333333 0 -10.32 -2.8810666666666664 -12.862933333333332 -7.748266666666667l-0.013866666666666666 -0.0288 -4.1109333333333336 -7.926399999999999 -17.422933333333333 37.76213333333333c-1.1967999999999999 2.6592 -3.1616 4.849066666666666 -5.579733333333333 6.337066666666666 -2.4512 1.5072 -5.278933333333333 2.2421333333333333 -8.1152 2.1482666666666663 -2.8373333333333335 -0.09386666666666667 -5.616 -1.0133333333333332 -7.966933333333333 -2.6890666666666663 -2.3221333333333334 -1.6543999999999999 -4.1376 -3.984 -5.1466666666666665 -6.732799999999999l-18.714986666666665 -49.590399999999995Z" clip-rule="evenodd" stroke-width="10.6667"></path>
</svg>