<svg xmlns="http://www.w3.org/2000/svg" viewBox="0 0 256 256" id="Earth-Cash--Streamline-Ultimate" height="256" width="256">
  <desc>
    Earth Cash Streamline Icon: https://streamlinehq.com
  </desc>
  <g id="Earth-Cash--Streamline-Ultimate.svg">
    <path d="M117.33333333333333 235.83999999999997a5.76 5.76 0 0 0 -3.626666666666667 -2.2399999999999998 107.52 107.52 0 0 1 -32 -9.706666666666667 2.5599999999999996 2.5599999999999996 0 0 1 -1.4933333333333334 -2.453333333333333v-12.266666666666666a26.666666666666664 26.666666666666664 0 0 1 9.493333333333332 -20.37333333333333 47.57333333333333 47.57333333333333 0 0 0 13.546666666666667 -18.986666666666665c0.7466666666666667 -3.52 1.7066666666666666 -6.933333333333334 2.7733333333333334 -10.666666666666666a43.30666666666666 43.30666666666666 0 0 0 0.8533333333333333 -7.466666666666666 48.10666666666666 48.10666666666666 0 0 0 -48 -48H27.52a2.5599999999999996 2.5599999999999996 0 0 1 -2.0266666666666664 -1.0666666666666667 2.453333333333333 2.453333333333333 0 0 1 -0.5333333333333333 -2.2399999999999998 106.66666666666666 106.66666666666666 0 0 1 155.2 -65.38666666666666 2.6666666666666665 2.6666666666666665 0 0 1 1.2799999999999998 2.986666666666667 2.7733333333333334 2.7733333333333334 0 0 1 -2.5599999999999996 2.0266666666666664h-26.88a29.333333333333332 29.333333333333332 0 0 0 0 58.666666666666664 27.41333333333333 27.41333333333333 0 0 1 13.653333333333332 3.84 4.906666666666666 4.906666666666666 0 0 0 3.84 0.6399999999999999 82.98666666666666 82.98666666666666 0 0 1 17.173333333333332 -1.8133333333333335 85.33333333333333 85.33333333333333 0 0 1 64 28.8 3.1999999999999997 3.1999999999999997 0 0 0 5.333333333333333 -2.1333333333333333 128 128 0 0 0 -256 0c0 52.48 42.666666666666664 128 128 128a3.1999999999999997 3.1999999999999997 0 0 0 2.1333333333333333 -5.546666666666667 85.33333333333333 85.33333333333333 0 0 1 -12.799999999999999 -14.613333333333333Z" fill="#ffffff" stroke-width="10.6667"></path>
    <path d="M186.66666666666666 117.33333333333333a69.33333333333333 69.33333333333333 0 1 0 69.33333333333333 69.33333333333333 69.44 69.44 0 0 0 -69.33333333333333 -69.33333333333333Zm10.133333333333333 108.79999999999998a2.5599999999999996 2.5599999999999996 0 0 0 -2.1333333333333333 2.5599999999999996v3.3066666666666666a8 8 0 0 1 -16 0v-2.6666666666666665a2.6666666666666665 2.6666666666666665 0 0 0 -2.6666666666666665 -2.6666666666666665H170.66666666666666a8 8 0 0 1 0 -16h21.333333333333332a6.293333333333333 6.293333333333333 0 0 0 6.293333333333333 -6.293333333333333 6.186666666666666 6.186666666666666 0 0 0 -3.9466666666666663 -5.866666666666667l-21.973333333333333 -8.853333333333332a22.29333333333333 22.29333333333333 0 0 1 3.84 -42.666666666666664 2.5599999999999996 2.5599999999999996 0 0 0 2.1333333333333333 -2.5599999999999996v-3.3066666666666666a8 8 0 0 1 16 0v2.6666666666666665a2.6666666666666665 2.6666666666666665 0 0 0 2.6666666666666665 2.6666666666666665H202.66666666666666a8 8 0 0 1 0 16h-21.333333333333332a6.293333333333333 6.293333333333333 0 0 0 -6.293333333333333 6.293333333333333 6.186666666666666 6.186666666666666 0 0 0 3.9466666666666663 5.866666666666667l21.973333333333333 8.853333333333332a22.29333333333333 22.29333333333333 0 0 1 -3.84 42.666666666666664Z" fill="#ffffff" stroke-width="10.6667"></path>
  </g>
</svg>