<svg xmlns="http://www.w3.org/2000/svg" viewBox="0 0 256 256" id="Earth-Pin-2--Streamline-Ultimate" height="256" width="256">
  <desc>
    Earth Pin 2 Streamline Icon: https://streamlinehq.com
  </desc>
  <path d="M128 0a101.44 101.44 0 0 0 -101.33333333333333 101.33333333333333C26.666666666666664 171.2 96 234.66666666666666 117.33333333333333 252.26666666666665a15.893333333333333 15.893333333333333 0 0 0 20.479999999999997 0C160 234.66666666666666 229.33333333333331 171.2 229.33333333333331 101.33333333333333A101.44 101.44 0 0 0 128 0Zm0 170.66666666666666A69.22666666666666 69.22666666666666 0 0 1 89.70666666666666 43.626666666666665a5.4399999999999995 5.4399999999999995 0 0 1 5.546666666666667 0 5.226666666666667 5.226666666666667 0 0 1 2.7733333333333334 4.693333333333333v36.373333333333335a8.64 8.64 0 0 1 -5.226666666666667 7.893333333333333A13.013333333333332 13.013333333333332 0 0 0 85.33333333333333 104.53333333333333v8.746666666666666a13.013333333333332 13.013333333333332 0 0 0 24.53333333333333 5.973333333333334 10.666666666666666 10.666666666666666 0 0 1 9.92 -5.973333333333334h26.24a8.746666666666666 8.746666666666666 0 0 0 8.746666666666666 -8.746666666666666l0 -17.706666666666663a8.64 8.64 0 0 0 -8.64 -8.64h-4.373333333333333a8.64 8.64 0 0 1 -8.64 -8.64V64a10.666666666666666 10.666666666666666 0 0 1 10.666666666666666 -10.666666666666666 10.666666666666666 10.666666666666666 0 0 0 10.666666666666666 -10.666666666666666 3.52 3.52 0 0 1 1.5999999999999999 -2.88 3.3066666666666666 3.3066666666666666 0 0 1 3.3066666666666666 0A69.33333333333333 69.33333333333333 0 0 1 128 170.66666666666666Z" fill="#ffffff" stroke-width="10.6667"></path>
</svg>