<svg xmlns="http://www.w3.org/2000/svg" id="Earth-Setting--Streamline-Ultimate" width="256" height="256" viewBox="0 0 256 256"><desc>Earth Setting Streamline Icon: https://streamlinehq.com</desc><g id="Earth-Setting--Streamline-Ultimate.svg"><path fill="#fff" stroke-width="10.667" d="M172.79999999999998 182.4a15.893333333333333 15.893333333333333 0 1 0 31.786666666666665 0 15.893333333333333 15.893333333333333 0 1 0 -31.786666666666665 0"/><path fill="#fff" stroke-width="10.667" d="M239.14666666666668 185.70666666666665a4.906666666666666 4.906666666666666 0 0 1 0 -6.613333333333333l10.666666666666666 -10.666666666666666a18.88 18.88 0 0 0 2.5599999999999996 -22.4 18.453333333333333 18.453333333333333 0 0 0 -20.479999999999997 -8.853333333333332l-14.933333333333332 3.52a4.906666666666666 4.906666666666666 0 0 1 -5.653333333333333 -3.3066666666666666l-4.4799999999999995 -14.719999999999999a18.666666666666664 18.666666666666664 0 0 0 -35.839999999999996 0l-4.4799999999999995 14.719999999999999a4.906666666666666 4.906666666666666 0 0 1 -5.653333333333333 3.3066666666666666l-14.933333333333332 -3.52a18.346666666666664 18.346666666666664 0 0 0 -20.37333333333333 8.853333333333332 18.666666666666664 18.666666666666664 0 0 0 2.453333333333333 22.4l10.666666666666666 10.666666666666666a4.906666666666666 4.906666666666666 0 0 1 0 6.613333333333333l-10.666666666666666 11.2a18.666666666666664 18.666666666666664 0 0 0 -2.453333333333333 22.4 18.346666666666664 18.346666666666664 0 0 0 20.37333333333333 8.853333333333332l14.933333333333332 -3.52a4.906666666666666 4.906666666666666 0 0 1 5.653333333333333 3.3066666666666666l4.16 14.719999999999999a18.666666666666664 18.666666666666664 0 0 0 35.839999999999996 0l4.4799999999999995 -14.719999999999999a4.906666666666666 4.906666666666666 0 0 1 5.653333333333333 -3.3066666666666666l14.933333333333332 3.52a18.453333333333333 18.453333333333333 0 0 0 20.479999999999997 -8.853333333333332 18.88 18.88 0 0 0 -2.5599999999999996 -22.4Zm-50.45333333333333 28.373333333333335a32 32 0 1 1 32 -32 32 32 0 0 1 -32 32Z"/><path fill="#fff" stroke-width="10.667" d="M155.62666666666667 247.25333333333333a5.4399999999999995 5.4399999999999995 0 0 0 -6.293333333333333 -3.626666666666667 34.13333333333333 34.13333333333333 0 0 1 -8 0.96 33.70666666666666 33.70666666666666 0 0 1 -25.599999999999998 -11.626666666666667 5.546666666666667 5.546666666666667 0 0 0 -3.1999999999999997 -1.7066666666666666 105.70666666666666 105.70666666666666 0 0 1 -32 -10.666666666666666v-13.44a26.453333333333333 26.453333333333333 0 0 1 9.493333333333332 -20.266666666666666 47.57333333333333 47.57333333333333 0 0 0 -30.72 -83.94666666666666h-34.13333333333333a105.38666666666667 105.38666666666667 0 0 1 162.34666666666666 -63.36h-35.733333333333334a29.119999999999997 29.119999999999997 0 1 0 0 58.13333333333333 27.306666666666665 27.306666666666665 0 0 1 14.08 4.053333333333333 33.599999999999994 33.599999999999994 0 0 1 22.826666666666668 -8.746666666666666 34.239999999999995 34.239999999999995 0 0 1 33.06666666666666 24.53333333333333 5.333333333333333 5.333333333333333 0 0 0 6.186666666666666 3.626666666666667 34.13333333333333 34.13333333333333 0 0 1 8 -0.96 32 32 0 0 1 11.2 1.92 5.333333333333333 5.333333333333333 0 0 0 7.04 -5.4399999999999995 126.72 126.72 0 0 0 -253.01333333333332 9.92c0 51.946666666666665 42.666666666666664 126.72 126.72 126.72a127.14666666666666 127.14666666666666 0 0 0 25.599999999999998 -2.6666666666666665 2.6666666666666665 2.6666666666666665 0 0 0 1.7066666666666666 -1.2799999999999998 2.7733333333333334 2.7733333333333334 0 0 0 0.42666666666666664 -2.1333333333333333Z"/></g></svg>