<svg xmlns="http://www.w3.org/2000/svg" viewBox="0 0 256 256" id="Earth-Refresh--Streamline-Ultimate" height="256" width="256">
  <desc>
    Earth Refresh Streamline Icon: https://streamlinehq.com
  </desc>
  <g id="Earth-Refresh--Streamline-Ultimate.svg">
    <path d="M240.53333333333333 199.57333333333332a10.666666666666666 10.666666666666666 0 0 0 -13.226666666666667 6.506666666666666 42.666666666666664 42.666666666666664 0 0 1 -70.39999999999999 16.85333333333333 5.4399999999999995 5.4399999999999995 0 0 1 -1.5999999999999999 -3.733333333333333 5.013333333333333 5.013333333333333 0 0 1 1.5999999999999999 -3.733333333333333l16.106666666666666 -16.21333333333333a5.119999999999999 5.119999999999999 0 0 0 1.1733333333333333 -5.653333333333333 5.226666666666667 5.226666666666667 0 0 0 -4.8 -3.1999999999999997h-46.61333333333333a5.226666666666667 5.226666666666667 0 0 0 -5.226666666666667 5.226666666666667v46.61333333333333a5.333333333333333 5.333333333333333 0 0 0 3.1999999999999997 4.8 5.4399999999999995 5.4399999999999995 0 0 0 5.76 -1.1733333333333333l8.213333333333333 -8.213333333333333a5.333333333333333 5.333333333333333 0 0 1 7.359999999999999 0A64 64 0 0 0 247.04 213.33333333333331a10.666666666666666 10.666666666666666 0 0 0 -6.506666666666666 -13.76Z" fill="#ffffff" stroke-width="10.6667"></path>
    <path d="M96 246.71999999999997a4.8 4.8 0 0 0 3.9466666666666663 -0.8533333333333333 4.4799999999999995 4.4799999999999995 0 0 0 1.8133333333333335 -3.626666666666667v-11.733333333333334a5.119999999999999 5.119999999999999 0 0 0 -3.733333333333333 -5.013333333333333 104.74666666666667 104.74666666666667 0 0 1 -17.173333333333332 -6.826666666666666v-13.653333333333332a26.346666666666668 26.346666666666668 0 0 1 9.28 -20.05333333333333 46.93333333333334 46.93333333333334 0 0 0 -30.08 -82.98666666666666H26.24A104.64 104.64 0 0 1 128 21.333333333333332a103.35999999999999 103.35999999999999 0 0 1 58.986666666666665 18.346666666666664h-35.41333333333333a28.8 28.8 0 1 0 0 57.493333333333325 26.88 26.88 0 0 1 19.626666666666665 8.746666666666666 72 72 0 0 1 12.693333333333332 -1.0666666666666667 78.82666666666665 78.82666666666665 0 0 1 45.120000000000005 14.186666666666667 3.413333333333333 3.413333333333333 0 0 0 4.373333333333333 0 21.333333333333332 21.333333333333332 0 0 1 14.826666666666664 -6.079999999999999 3.9466666666666663 3.9466666666666663 0 0 0 2.986666666666667 -1.3866666666666667 3.84 3.84 0 0 0 0.96 -3.1999999999999997 125.44 125.44 0 0 0 -249.59999999999997 17.066666666666666C2.5599999999999996 138.66666666666666 8.106666666666666 224 96 246.71999999999997Z" fill="#ffffff" stroke-width="10.6667"></path>
    <path d="M253.44 133.01333333333332a5.119999999999999 5.119999999999999 0 0 0 -3.1999999999999997 -4.8 5.226666666666667 5.226666666666667 0 0 0 -5.76 1.0666666666666667l-8.853333333333332 8.853333333333332a5.226666666666667 5.226666666666667 0 0 1 -7.359999999999999 0 64 64 0 0 0 -104.74666666666667 25.066666666666666 10.666666666666666 10.666666666666666 0 0 0 6.506666666666666 13.226666666666667 10.666666666666666 10.666666666666666 0 0 0 13.226666666666667 -6.506666666666666 42.666666666666664 42.666666666666664 0 0 1 70.08 -17.066666666666666 5.226666666666667 5.226666666666667 0 0 1 1.5999999999999999 3.733333333333333 5.546666666666667 5.546666666666667 0 0 1 -1.5999999999999999 3.413333333333333l-15.466666666666665 15.466666666666665a5.226666666666667 5.226666666666667 0 0 0 3.626666666666667 8.959999999999999h46.61333333333333a5.226666666666667 5.226666666666667 0 0 0 5.226666666666667 -5.226666666666667Z" fill="#ffffff" stroke-width="10.6667"></path>
  </g>
</svg>