<svg xmlns="http://www.w3.org/2000/svg" id="Electronics-Capacitor--Streamline-Ultimate" width="256" height="256" viewBox="0 0 256 256"><desc>Electronics Capacitor Streamline Icon: https://streamlinehq.com</desc><g id="Electronics-Capacitor--Streamline-Ultimate.svg"><path fill="#fff" stroke-width="10.667" d="M181.33333333333331 130.66666666666666a5.333333333333333 5.333333333333333 0 0 0 5.333333333333333 -5.333333333333333V16A16 16 0 0 0 170.66666666666666 0H85.33333333333333a16 16 0 0 0 -16 16v109.33333333333333a5.333333333333333 5.333333333333333 0 0 0 5.333333333333333 5.333333333333333Z"/><path fill="#fff" stroke-width="10.667" d="M74.66666666666666 146.66666666666666a5.333333333333333 5.333333333333333 0 0 0 -5.333333333333333 5.333333333333333V170.66666666666666a5.333333333333333 5.333333333333333 0 0 0 5.333333333333333 5.333333333333333h13.333333333333332a2.6666666666666665 2.6666666666666665 0 0 1 2.6666666666666665 2.6666666666666665V245.33333333333331a10.666666666666666 10.666666666666666 0 0 0 21.333333333333332 0v-66.66666666666666a2.6666666666666665 2.6666666666666665 0 0 1 2.6666666666666665 -2.6666666666666665h26.666666666666664a2.6666666666666665 2.6666666666666665 0 0 1 2.6666666666666665 2.6666666666666665V245.33333333333331a10.666666666666666 10.666666666666666 0 0 0 21.333333333333332 0v-66.66666666666666a2.6666666666666665 2.6666666666666665 0 0 1 2.6666666666666665 -2.6666666666666665H181.33333333333331a5.333333333333333 5.333333333333333 0 0 0 5.333333333333333 -5.333333333333333v-18.666666666666664a5.333333333333333 5.333333333333333 0 0 0 -5.333333333333333 -5.333333333333333Z"/></g></svg>