<svg xmlns="http://www.w3.org/2000/svg" id="Electronics-Fuse--Streamline-Ultimate" width="256" height="256" viewBox="0 0 256 256"><desc>Electronics Fuse Streamline Icon: https://streamlinehq.com</desc><g id="Electronics-Fuse--Streamline-Ultimate.svg"><path fill="#fff" stroke-width="10.667" d="m250.55999999999997 69.44 -64 -64a16.53333333333333 16.53333333333333 0 0 0 -22.613333333333333 0L152.53333333333333 16.64a15.68 15.68 0 0 0 -4.266666666666667 13.973333333333333 2.453333333333333 2.453333333333333 0 0 1 -0.7466666666666667 2.3466666666666667L32.959999999999994 147.51999999999998a2.6666666666666665 2.6666666666666665 0 0 1 -2.3466666666666667 0.7466666666666667 15.786666666666665 15.786666666666665 0 0 0 -13.866666666666667 4.16L5.4399999999999995 163.73333333333332a16 16 0 0 0 0 22.613333333333333l64 64a15.893333333333333 15.893333333333333 0 0 0 22.613333333333333 0l11.413333333333334 -11.2a15.04 15.04 0 0 0 4.16 -13.866666666666667 3.093333333333333 3.093333333333333 0 0 1 0.7466666666666667 -2.3466666666666667l114.45333333333333 -114.34666666666666a2.453333333333333 2.453333333333333 0 0 1 2.3466666666666667 -0.7466666666666667l2.7733333333333334 0a15.893333333333333 15.893333333333333 0 0 0 11.306666666666667 -4.586666666666666l11.306666666666667 -11.413333333333334a16 16 0 0 0 0 -22.4ZM46.93333333333334 160a2.5599999999999996 2.5599999999999996 0 0 1 0 -3.733333333333333L156.26666666666665 46.82666666666666a3.093333333333333 3.093333333333333 0 0 1 1.92 -0.7466666666666667 3.3066666666666666 3.3066666666666666 0 0 1 1.92 0.7466666666666667L209.06666666666666 96a2.5599999999999996 2.5599999999999996 0 0 1 0 3.733333333333333L99.73333333333332 208.95999999999998a2.6666666666666665 2.6666666666666665 0 0 1 -3.84 0Z"/><path fill="#fff" stroke-width="10.667" d="M173.22666666666663 82.66666666666666a8 8 0 0 0 -11.306666666666667 0l-10.026666666666666 10.133333333333333a3.093333333333333 3.093333333333333 0 0 1 -1.92 0.7466666666666667H128a8 8 0 0 0 -8 8v44.266666666666666a2.6666666666666665 2.6666666666666665 0 0 1 -0.96 2.0266666666666664 2.88 2.88 0 0 1 -2.1333333333333333 0.6399999999999999l-14.186666666666667 -2.0266666666666664a8.106666666666666 8.106666666666666 0 0 0 -6.826666666666666 2.2399999999999998l-13.12 13.226666666666667a7.893333333333333 7.893333333333333 0 0 0 0 11.306666666666667 8 8 0 0 0 11.306666666666667 0l9.386666666666667 -9.493333333333332a2.986666666666667 2.986666666666667 0 0 1 2.2399999999999998 -0.7466666666666667l21.333333333333332 2.986666666666667a8 8 0 0 0 9.173333333333332 -7.893333333333333v-45.86666666666666a2.6666666666666665 2.6666666666666665 0 0 1 2.6666666666666665 -2.6666666666666665h15.68a8.426666666666666 8.426666666666666 0 0 0 5.76 -2.3466666666666667l13.12 -13.226666666666667a8 8 0 0 0 -0.21333333333333332 -11.306666666666667Z"/></g></svg>