<svg xmlns="http://www.w3.org/2000/svg" viewBox="0 0 256 256" id="Electronics-Led-Light--Streamline-Ultimate" height="256" width="256">
  <desc>
    Electronics Led Light Streamline Icon: https://streamlinehq.com
  </desc>
  <path d="M202.66666666666666 144h-2.6666666666666665a2.6666666666666665 2.6666666666666665 0 0 1 -2.6666666666666665 -2.6666666666666665V69.33333333333333a69.33333333333333 69.33333333333333 0 0 0 -138.66666666666666 0v72a2.6666666666666665 2.6666666666666665 0 0 1 -2.6666666666666665 2.6666666666666665H53.33333333333333a10.666666666666666 10.666666666666666 0 0 0 0 21.333333333333332h29.333333333333332a2.6666666666666665 2.6666666666666665 0 0 1 2.6666666666666665 2.6666666666666665V245.33333333333331a10.666666666666666 10.666666666666666 0 0 0 21.333333333333332 0v-77.33333333333333a2.6666666666666665 2.6666666666666665 0 0 1 2.6666666666666665 -2.6666666666666665h37.33333333333333a2.6666666666666665 2.6666666666666665 0 0 1 2.6666666666666665 2.6666666666666665V245.33333333333331a10.666666666666666 10.666666666666666 0 0 0 21.333333333333332 0v-77.33333333333333a2.6666666666666665 2.6666666666666665 0 0 1 2.6666666666666665 -2.6666666666666665H202.66666666666666a10.666666666666666 10.666666666666666 0 0 0 0 -21.333333333333332Zm-101.65333333333332 -64a8 8 0 0 1 11.306666666666667 -11.306666666666667l13.76 13.76a2.6666666666666665 2.6666666666666665 0 0 0 3.84 0l13.76 -13.76a8 8 0 0 1 11.306666666666667 11.306666666666667l-18.24 18.56a2.7733333333333334 2.7733333333333334 0 0 0 -0.7466666666666667 1.8133333333333335v40.959999999999994a2.6666666666666665 2.6666666666666665 0 0 1 -2.6666666666666665 2.6666666666666665h-10.666666666666666a2.6666666666666665 2.6666666666666665 0 0 1 -2.6666666666666665 -2.6666666666666665V100.37333333333333a2.7733333333333334 2.7733333333333334 0 0 0 -0.7466666666666667 -1.8133333333333335Z" fill="#ffffff" stroke-width="10.6667"></path>
</svg>