<svg xmlns="http://www.w3.org/2000/svg" viewBox="0 0 256 256" id="Email-Action-Subtract--Streamline-Ultimate" height="256" width="256">
  <desc>
    Email Action Subtract Streamline Icon: https://streamlinehq.com
  </desc>
  <g id="Email-Action-Subtract--Streamline-Ultimate.svg">
    <path d="M186.66666666666666 101.33333333333333a84.26666666666667 84.26666666666667 0 0 1 33.599999999999994 7.04 3.093333333333333 3.093333333333333 0 0 0 2.5599999999999996 0 2.7733333333333334 2.7733333333333334 0 0 0 1.1733333333333333 -2.453333333333333V18.666666666666664a1.92 1.92 0 0 0 -1.0666666666666667 -1.5999999999999999 1.5999999999999999 1.5999999999999999 0 0 0 -1.8133333333333335 0L130.13333333333333 84.58666666666666a25.706666666666667 25.706666666666667 0 0 1 -36.266666666666666 0L2.88 17.493333333333332a1.5999999999999999 1.5999999999999999 0 0 0 -1.8133333333333335 0 1.92 1.92 0 0 0 -1.0666666666666667 1.5999999999999999v112A18.666666666666664 18.666666666666664 0 0 0 18.666666666666664 149.33333333333331h89.70666666666666a2.6666666666666665 2.6666666666666665 0 0 0 2.453333333333333 -1.4933333333333334A85.33333333333333 85.33333333333333 0 0 1 186.66666666666666 101.33333333333333Z" fill="#ffffff" stroke-width="10.6667"></path>
    <path d="M103.78666666666666 74.66666666666666a11.52 11.52 0 0 0 16.426666666666666 0L210.66666666666666 8.106666666666666a4.4799999999999995 4.4799999999999995 0 0 0 1.0666666666666667 -4.8c-0.96 -3.3066666666666666 -3.84 -3.3066666666666666 -6.3999999999999995 -3.3066666666666666H18.666666666666664c-2.5599999999999996 0 -5.4399999999999995 0 -6.506666666666666 3.3066666666666666a4.693333333333333 4.693333333333333 0 0 0 1.1733333333333333 4.8Z" fill="#ffffff" stroke-width="10.6667"></path>
    <path d="M186.66666666666666 117.33333333333333a69.33333333333333 69.33333333333333 0 1 0 69.33333333333333 69.33333333333333 69.44 69.44 0 0 0 -69.33333333333333 -69.33333333333333ZM160 194.66666666666666a8 8 0 0 1 0 -16h53.33333333333333a8 8 0 0 1 0 16Z" fill="#ffffff" stroke-width="10.6667"></path>
  </g>
</svg>