<svg xmlns="http://www.w3.org/2000/svg" viewBox="0 0 256 256" id="Email-Action-Warning--Streamline-Ultimate" height="256" width="256">
  <desc>
    Email Action Warning Streamline Icon: https://streamlinehq.com
  </desc>
  <g id="Email-Action-Warning--Streamline-Ultimate.svg">
    <path d="M186.66666666666666 106.66666666666666a31.36 31.36 0 0 1 27.839999999999996 16.746666666666666l4.4799999999999995 8.533333333333333a2.6666666666666665 2.6666666666666665 0 0 0 2.986666666666667 1.3866666666666667 2.7733333333333334 2.7733333333333334 0 0 0 2.0266666666666664 -2.5599999999999996V18.666666666666664a1.92 1.92 0 0 0 -1.0666666666666667 -1.5999999999999999 1.5999999999999999 1.5999999999999999 0 0 0 -1.8133333333333335 0L130.13333333333333 84.58666666666666a25.706666666666667 25.706666666666667 0 0 1 -36.266666666666666 0L2.88 17.493333333333332a1.5999999999999999 1.5999999999999999 0 0 0 -1.8133333333333335 0 1.92 1.92 0 0 0 -1.0666666666666667 1.5999999999999999v112A18.666666666666664 18.666666666666664 0 0 0 18.666666666666664 149.33333333333331h125.01333333333334a2.6666666666666665 2.6666666666666665 0 0 0 2.3466666666666667 -1.3866666666666667l12.799999999999999 -24.53333333333333A31.36 31.36 0 0 1 186.66666666666666 106.66666666666666Z" fill="#ffffff" stroke-width="10.6667"></path>
    <path d="M103.78666666666666 74.66666666666666a11.52 11.52 0 0 0 16.426666666666666 0L210.66666666666666 8.106666666666666a4.4799999999999995 4.4799999999999995 0 0 0 1.0666666666666667 -4.8c-0.96 -3.3066666666666666 -3.84 -3.3066666666666666 -6.3999999999999995 -3.3066666666666666H18.666666666666664c-2.5599999999999996 0 -5.4399999999999995 0 -6.3999999999999995 3.3066666666666666a4.4799999999999995 4.4799999999999995 0 0 0 1.0666666666666667 4.8Z" fill="#ffffff" stroke-width="10.6667"></path>
    <path d="M200.32 130.88a15.466666666666665 15.466666666666665 0 0 0 -27.306666666666665 0l-53.97333333333333 102.82666666666667A15.253333333333332 15.253333333333332 0 0 0 132.69333333333333 256h107.94666666666666a15.253333333333332 15.253333333333332 0 0 0 13.653333333333332 -22.29333333333333Zm-13.653333333333332 32a8.106666666666666 8.106666666666666 0 0 1 8 8v32a8 8 0 0 1 -16 0V170.66666666666666a8.106666666666666 8.106666666666666 0 0 1 8 -8Zm0 74.66666666666666a10.666666666666666 10.666666666666666 0 1 1 10.666666666666666 -10.666666666666666 10.666666666666666 10.666666666666666 0 0 1 -10.666666666666666 10.453333333333333Z" fill="#ffffff" stroke-width="10.6667"></path>
  </g>
</svg>