<svg xmlns="http://www.w3.org/2000/svg" viewBox="0 0 256 256" id="Email-Action-Search-1--Streamline-Ultimate" height="256" width="256">
  <desc>
    Email Action Search 1 Streamline Icon: https://streamlinehq.com
  </desc>
  <g id="Email-Action-Search-1--Streamline-Ultimate.svg">
    <path d="M96.74666666666667 177.49333333333334a2.5599999999999996 2.5599999999999996 0 0 0 2.5599999999999996 -2.5599999999999996 73.17333333333333 73.17333333333333 0 0 1 96 -66.77333333333333 2.3466666666666667 2.3466666666666667 0 0 0 2.3466666666666667 0 2.6666666666666665 2.6666666666666665 0 0 0 1.0666666666666667 -2.1333333333333333V78.39999999999999a2.5599999999999996 2.5599999999999996 0 0 0 -1.1733333333333333 -2.2399999999999998 2.453333333333333 2.453333333333333 0 0 0 -2.5599999999999996 0L155.0933333333333 96a7.786666666666666 7.786666666666666 0 0 1 -3.52 0.8533333333333333L47.25333333333333 96a7.68 7.68 0 0 1 -3.52 0L4.053333333333333 75.73333333333332a2.453333333333333 2.453333333333333 0 0 0 -2.5599999999999996 0 2.5599999999999996 2.5599999999999996 0 0 0 -1.4933333333333334 2.3466666666666667L0 160a17.599999999999998 17.599999999999998 0 0 0 17.493333333333332 17.599999999999998Z" fill="#ffffff" stroke-width="10.6667"></path>
    <path d="M49.06666666666666 80.85333333333332H149.33333333333331l36.586666666666666 -18.133333333333333a2.453333333333333 2.453333333333333 0 0 0 1.3866666666666667 -2.1333333333333333 2.453333333333333 2.453333333333333 0 0 0 -1.0666666666666667 -2.3466666666666667L107.2 2.453333333333333a13.333333333333332 13.333333333333332 0 0 0 -15.253333333333332 0L12.266666666666666 58.02666666666667a2.453333333333333 2.453333333333333 0 0 0 -1.0666666666666667 2.3466666666666667 2.986666666666667 2.986666666666667 0 0 0 1.3866666666666667 2.1333333333333333Z" fill="#ffffff" stroke-width="10.6667"></path>
    <path d="M247.46666666666664 252.90666666666667a10.666666666666666 10.666666666666666 0 0 0 0 -14.719999999999999l-26.346666666666668 -26.560000000000002a2.453333333333333 2.453333333333333 0 0 1 0 -3.1999999999999997A57.38666666666666 57.38666666666666 0 1 0 172.26666666666665 234.66666666666666a57.6 57.6 0 0 0 30.4 -8.64 2.453333333333333 2.453333333333333 0 0 1 3.1999999999999997 0l26.453333333333333 26.453333333333333a10.666666666666666 10.666666666666666 0 0 0 15.146666666666665 0.42666666666666664Zm-74.66666666666666 -111.89333333333333a36.586666666666666 36.586666666666666 0 1 1 -36.69333333333333 36.48 36.69333333333333 36.69333333333333 0 0 1 36.373333333333335 -36.48Z" fill="#ffffff" stroke-width="10.6667"></path>
  </g>
</svg>