<svg xmlns="http://www.w3.org/2000/svg" id="Emergency-Call--Streamline-Ultimate" width="256" height="256" fill="none" viewBox="0 0 256 256"><desc>Emergency Call Streamline Icon: https://streamlinehq.com</desc><path fill="#fff" fill-rule="evenodd" stroke-width="10.667" d="M250.6592 52.34495999999999c2.948266666666666 5.100586666666667 1.2031999999999998 11.625386666666666 -3.8975999999999997 14.573333333333332l-23.28533333333333 13.457813333333334 23.28533333333333 13.457813333333334c5.1008 2.9479466666666667 6.845866666666667 9.472746666666666 3.8975999999999997 14.573546666666667l-14.055466666666668 24.314666666666668c-2.948266666666666 5.099733333333333 -9.472 6.8448 -14.571733333333334 3.8975999999999997l-23.287466666666663 -13.4592v26.924799999999998c0 5.8911999999999995 -4.7754666666666665 10.666666666666666 -10.666666666666666 10.666666666666666h-28.129066666666667c-5.890133333333333 0 -10.666666666666666 -4.7754666666666665 -10.666666666666666 -10.666666666666666v-26.924799999999998l-23.2864 13.4592c-5.099733333333333 2.9471999999999996 -11.624533333333334 1.2021333333333333 -14.5728 -3.8975999999999997l-14.054506666666665 -24.314666666666668c-2.948266666666666 -5.1008 -1.2033066666666665 -11.6256 3.8974933333333333 -14.573546666666667l23.285546666666665 -13.457813333333334 -23.285546666666665 -13.457813333333334c-5.1008 -2.9479466666666667 -6.845759999999999 -9.472746666666666 -3.8974933333333333 -14.573333333333332L111.42293333333333 28.029866666666667c2.948266666666666 -5.100053333333333 9.473066666666666 -6.8448 14.5728 -3.8970666666666665l23.2864 13.458453333333333V10.666666666666666c0 -5.89104 4.776533333333333 -10.666666666666666 10.666666666666666 -10.666666666666666h28.129066666666667c5.8911999999999995 0 10.666666666666666 4.775626666666666 10.666666666666666 10.666656V37.59125333333333l23.287466666666663 -13.458453333333333c5.099733333333333 -2.947733333333333 11.623466666666666 -1.2029866666666666 14.571733333333334 3.8970666666666665l14.055466666666668 24.31509333333333ZM35.70592 109.03146666666666c4.519146666666666 -0.5888 9.091093333333333 0.592 12.759893333333332 3.2949333333333333 0.21525333333333332 0.15893333333333332 0.41824 0.33386666666666664 0.6072533333333333 0.5226666666666666l18.39616 18.395733333333332c0.1890133333333333 0.1888 0.36362666666666665 0.3925333333333333 0.5222399999999999 0.6069333333333333 2.7035733333333334 3.669333333333333 3.88416 8.241066666666665 3.29472 12.760533333333331 -0.58944 4.519466666666666 -2.903253333333333 8.634666666666666 -6.457493333333333 11.488 -1.40736 1.1296 -2.32352 2.7594666666666665 -2.5569066666666664 4.548266666666667 -0.21845333333333333 1.6746666666666665 0.17717333333333332 3.3685333333333336 1.10656 4.769066666666666l28.785386666666668 28.786133333333332c1.4010666666666665 0.9290666666666666 3.0944000000000003 1.3248 4.76928 1.1061333333333332 1.78944 -0.23359999999999997 3.4192 -1.1498666666666666 4.548693333333333 -2.5568 2.8525866666666664 -3.554133333333333 6.968426666666667 -5.867733333333334 11.487893333333332 -6.4576 4.519466666666666 -0.5898666666666667 9.091199999999999 0.5909333333333333 12.759466666666665 3.2949333333333333 0.21546666666666664 0.15893333333333332 0.4192 0.3328 0.608 0.5216l18.395733333333332 18.3968c0.1888 0.1888 0.3637333333333333 0.3914666666666667 0.5226666666666666 0.6069333333333333 2.702933333333333 3.669333333333333 3.883733333333333 8.241066666666665 3.2949333333333333 12.760533333333331 -0.576 4.413866666666666 -2.7967999999999997 8.443733333333332 -6.212266666666666 11.2864l-5.3728 5.373866666666666c-6.155733333333332 7.1264 -14.405333333333333 12.129066666666667 -23.5744 14.2912 -9.237973333333333 2.1781333333333333 -18.92992 1.3589333333333333 -27.671786666666666 -2.3392 -0.2293333333333333 -0.09706666666666666 -0.45152 -0.2101333333333333 -0.6650666666666667 -0.3381333333333333 -31.858453333333333 -19.104 -58.51872 -45.764266666666664 -77.62316799999999 -77.6224 -0.13117866666666667 -0.21866666666666668 -0.24648533333333333 -0.4469333333333333 -0.34505600000000003 -0.6826666666666666 -3.6629119999999995 -8.741333333333333 -4.464213333333333 -18.419199999999996 -2.289045333333333 -27.644799999999996 2.1594879999999996 -9.159466666666667 7.142602666666666 -17.40693333333333 14.242549333333333 -23.577599999999997l5.379413333333333 -5.379199999999999c2.8432 -3.415466666666666 6.87296 -5.636266666666666 11.287146666666667 -6.212266666666666Z" clip-rule="evenodd"/></svg>