<svg xmlns="http://www.w3.org/2000/svg" fill="none" viewBox="0 0 256 256" id="Emoji-Angry-Face-Horns-Demon--Streamline-Ultimate" height="256" width="256">
  <desc>
    Emoji Angry Face Horns Demon Streamline Icon: https://streamlinehq.com
  </desc>
  <path fill="#ffffff" fill-rule="evenodd" d="M17.247999999999998 1.8026666666666666a8 8 0 0 1 7.328 5.023999999999999c4.8 11.989333333333335 13.258666666666667 21.717333333333332 22.442666666666668 28.447999999999997 8.362666666666666 6.143999999999999 16.64 9.301333333333332 22.496 9.898666666666667A112 112 0 0 1 128 28.8a112 112 0 0 1 58.48533333333333 16.37333333333333c5.866666666666667 -0.5973333333333333 14.144 -3.754666666666666 22.517333333333333 -9.898666666666667 9.184 -6.72 17.653333333333332 -16.458666666666666 22.442666666666668 -28.447999999999997a8 8 0 0 1 14.783999999999999 -0.18133333333333335c16.53333333333333 38.602666666666664 5.279999999999999 78.70933333333332 -11.52 98.83733333333333a112.42666666666665 112.42666666666665 0 0 1 5.824 35.85066666666667c0 62.154666666666664 -50.37866666666666 112.53333333333333 -112.53333333333333 112.53333333333333 -62.154666666666664 0 -112.53333333333333 -50.37866666666666 -112.53333333333333 -112.53333333333333 0 -12.543999999999999 2.048 -24.607999999999997 5.834666666666667 -35.872C4.512 85.32266666666666 -6.741333333333333 45.22666666666667 9.792 6.645333333333333A8 8 0 0 1 17.247999999999998 1.8133333333333335Zm53.97333333333333 104.84266666666667a18.314666666666668 18.314666666666668 0 0 1 25.333333333333332 6.72 8 8 0 0 0 13.824 -8.064 34.31466666666667 34.31466666666667 0 0 0 -47.21066666666667 -12.479999999999999 8 8 0 0 0 8.064 13.824Zm75.46666666666667 -1.3439999999999999a34.31466666666667 34.31466666666667 0 0 1 47.21066666666667 -12.479999999999999 8 8 0 0 1 -8.064 13.824 18.314666666666668 18.314666666666668 0 0 0 -25.322666666666667 6.72 8 8 0 0 1 -13.824 -8.064ZM129.06666666666666 162.13333333333333a78.82666666666665 78.82666666666665 0 0 0 -23.04 3.296c-6.624 2.0586666666666664 -13.141333333333332 5.333333333333333 -17.237333333333332 10.239999999999998a8 8 0 1 0 12.287999999999998 10.250666666666666c1.2373333333333334 -1.4826666666666668 4.32 -3.541333333333333 9.706666666666667 -5.215999999999999A63.007999999999996 63.007999999999996 0 0 1 129.06666666666666 178.13333333333333c13.888 0 24.191999999999997 4.053333333333333 28.479999999999997 8.32a8 8 0 0 0 11.306666666666667 -11.306666666666667c-8.522666666666666 -8.533333333333333 -23.808 -13.013333333333332 -39.78666666666666 -13.013333333333332Zm-40 -36.8a12 12 0 1 1 0 24 12 12 0 0 1 0 -24Zm80 0a12 12 0 1 1 0 24 12 12 0 0 1 0 -24Z" clip-rule="evenodd" stroke-width="10.6667"></path>
</svg>