<svg xmlns="http://www.w3.org/2000/svg" id="Engineer-Project-Superviser-1--Streamline-Ultimate" width="256" height="256" fill="none" viewBox="0 0 256 256"><desc>Engineer Project Superviser 1 Streamline Icon: https://streamlinehq.com</desc><path fill="#fff" fill-rule="evenodd" stroke-width="10.667" d="M94.65173333333333 63.019733333333335V40.647466666666666c15.463466666666665 8.075733333333332 26.043733333333336 23.855999999999998 26.935466666666663 42.535466666666665h6.471466666666666c6.020266666666666 0 10.900266666666667 4.88 10.900266666666667 10.900266666666667 0 6.021333333333333 -4.88 10.901333333333334 -10.900266666666667 10.901333333333334H13.461333333333332c-6.021333333333333 0 -10.901333333333334 -4.88 -10.901333333333334 -10.901333333333334 0 -6.020266666666666 4.881066666666666 -10.900266666666667 10.901333333333334 -10.900266666666667h6.4821333333333335c1.4687999999999999 -21.709866666666663 16.382933333333334 -40.224 36.593066666666665 -46.25386666666666v-4.311466666666666c0 -6.020266666666666 4.881066666666666 -10.901333333333334 10.901333333333334 -10.901333333333334 5.713066666666666 0 10.398933333333332 4.394666666666666 10.862933333333332 9.988266666666666l0 0.0608v31.254399999999997c0 4.5152 3.6597333333333335 8.175999999999998 8.174933333333332 8.175999999999998s8.175999999999998 -3.6608 8.175999999999998 -8.175999999999998Zm94.12373333333332 -35.11253333333333c4.2272 -4.2272 9.863466666666666 -6.190933333333334 15.610666666666667 -6.190933333333334h38.15253333333333c6.021333333333333 0 10.901333333333334 4.881066666666666 10.901333333333334 10.901333333333334s-4.88 10.901333333333334 -10.901333333333334 10.901333333333334h-38.15253333333333v73.57973333333334h38.15253333333333c6.021333333333333 0 10.901333333333334 4.881066666666666 10.901333333333334 10.901333333333334s-4.88 10.901333333333334 -10.901333333333334 10.901333333333334h-38.15253333333333v73.5808h38.15253333333333c6.021333333333333 0 10.901333333333334 4.88 10.901333333333334 10.900266666666667s-4.88 10.901333333333334 -10.901333333333334 10.901333333333334h-38.15253333333333c-5.747199999999999 0 -11.383466666666665 -1.9637333333333333 -15.610666666666667 -6.190933333333334 -4.2272 -4.2272 -6.190933333333334 -9.864533333333332 -6.190933333333334 -15.610666666666667V138.90133333333333h-16.35093333333333c-6.021333333333333 0 -10.901333333333334 -4.881066666666666 -10.901333333333334 -10.901333333333334s4.88 -10.901333333333334 10.901333333333334 -10.901333333333334h16.35093333333333V43.51786666666666c0 -5.747199999999999 1.9626666666666666 -11.383466666666665 6.190933333333334 -15.610666666666667ZM71.8016 169.02826666666664c30.211199999999998 0 56.25706666666666 19.79413333333333 65.63306666666666 46.88106666666667H5.1264c9.376 -27.086933333333334 36.46293333333333 -46.88106666666667 66.67519999999999 -46.88106666666667ZM18.965333333333334 117.72373333333333c6.155733333333332 22.95573333333333 26.852266666666665 40.3936 51.79306666666666 40.3936 25.405866666666668 0 46.25279999999999 -16.970666666666666 52.02453333333333 -40.3936H99.83253333333332c-4.898133333333333 11.096533333333333 -15.886933333333333 18.590933333333332 -29.07413333333333 18.590933333333332 -12.435199999999998 0 -23.457066666666666 -7.598933333333333 -28.669866666666667 -18.590933333333332H18.965333333333334Z" clip-rule="evenodd"/></svg>