<svg xmlns="http://www.w3.org/2000/svg" fill="none" viewBox="0 0 256 256" id="Engine-Temperature-Warning--Streamline-Ultimate" height="256" width="256">
  <desc>
    Engine Temperature Warning Streamline Icon: https://streamlinehq.com
  </desc>
  <path fill="#ffffff" fill-rule="evenodd" d="M128 0c5.8911999999999995 0 10.666666666666666 4.775626666666666 10.666666666666666 10.666666666666666v6.400426666666666h32c5.8911999999999995 0 10.666666666666666 4.775573333333333 10.666666666666666 10.666666666666666 0 5.890986666666667 -4.7754666666666665 10.666666666666666 -10.666666666666666 10.666666666666666h-32v16h32c5.8911999999999995 0 10.666666666666666 4.775573333333333 10.666666666666666 10.666666666666666 0 5.890986666666667 -4.7754666666666665 10.666666666666666 -10.666666666666666 10.666666666666666h-32v16h32c5.8911999999999995 0 10.666666666666666 4.775573333333333 10.666666666666666 10.666666666666666 0 5.890773333333333 -4.7754666666666665 10.666239999999998 -10.666666666666666 10.666239999999998h-32v12.011733333333334c18.40213333333333 4.736 32 21.441066666666664 32 41.3216 0 23.564799999999998 -19.102933333333333 42.666666666666664 -42.666666666666664 42.666666666666664 -23.56416 0 -42.666666666666664 -19.101866666666666 -42.666666666666664 -42.666666666666664 0 -19.880533333333332 13.597546666666666 -36.5856 32 -41.3216V10.666666666666666c0 -5.89104 4.7754666666666665 -10.666666666666666 10.666666666666666 -10.666666666666666Zm-21.333333333333332 166.39999999999998c0 -11.781333333333333 9.550933333333333 -21.333333333333332 21.333333333333332 -21.333333333333332s21.333333333333332 9.552 21.333333333333332 21.333333333333332c0 11.782399999999999 -9.550933333333333 21.333333333333332 -21.333333333333332 21.333333333333332s-21.333333333333332 -9.550933333333333 -21.333333333333332 -21.333333333333332Zm-41.524159999999995 55.391999999999996c-4.165653333333333 -4.166399999999999 -10.91936 -4.166399999999999 -15.085013333333332 0 -6.696106666666666 6.6954666666666665 -12.762133333333333 9.706666666666667 -18.59488 11.214933333333331 -6.206933333333333 1.6053333333333333 -12.581013333333333 1.6608 -20.795946666666666 1.6608 -5.89104 0 -10.666666666666666 4.7754666666666665 -10.666666666666666 10.666666666666666 0 5.890133333333333 4.775626666666666 10.666666666666666 10.666666666666666 10.666666666666666l0.5127466666666667 0c7.670186666666667 0.0010666666666666667 16.567466666666665 0.0021333333333333334 25.62464 -2.3402666666666665 7.033173333333332 -1.8186666666666667 13.941866666666666 -4.968533333333333 20.779519999999998 -10.1568C73.55306666666667 255.77173333333332 87.88554666666666 256.00106666666665 92.79999999999998 256.00106666666665c4.912746666666666 0 19.237333333333332 -0.2293333333333333 35.199999999999996 -12.484266666666667 15.962666666666665 12.254933333333334 30.28693333333333 12.484266666666667 35.199999999999996 12.484266666666667 4.914133333333333 0 19.24693333333333 -0.2293333333333333 35.215999999999994 -12.497066666666665 6.8384 5.188266666666666 13.7472 8.338133333333332 20.779733333333333 10.1568 9.057066666666666 2.3423999999999996 17.955199999999998 2.341333333333333 25.624533333333332 2.3402666666666665l0.5130666666666666 0c5.8911999999999995 0 10.666666666666666 -4.776533333333333 10.666666666666666 -10.666666666666666 0 -5.8911999999999995 -4.7754666666666665 -10.666666666666666 -10.666666666666666 -10.666666666666666 -8.2144 0 -14.588799999999999 -0.055466666666666664 -20.79573333333333 -1.6608 -5.832533333333332 -1.5082666666666666 -11.898666666666665 -4.519466666666666 -18.5952 -11.214933333333331 -4.165333333333333 -4.166399999999999 -10.919466666666667 -4.166399999999999 -15.084799999999998 0 -12.906666666666666 12.9056 -24.3168 12.882133333333332 -27.46773333333333 12.875733333333333l-0.18986666666666666 0 -0.18986666666666666 0c-3.150933333333333 0.0063999999999999994 -14.561066666666665 0.029866666666666666 -27.46773333333333 -12.875733333333333 -4.165333333333333 -4.166399999999999 -10.919466666666667 -4.166399999999999 -15.084799999999998 0 -12.906666666666666 12.9056 -24.316906666666668 12.882133333333332 -27.46784 12.875733333333333l-0.18975999999999998 0 -0.18975999999999998 0c-3.150826666666666 0.0063999999999999994 -14.561173333333333 0.029866666666666666 -27.46773333333333 -12.875733333333333Zm-6.95264 -56.4416c3.0294399999999997 0.16746666666666665 5.844053333333333 1.6181333333333332 7.739413333333333 3.9872 3.325013333333333 4.155733333333333 6.386773333333332 6.3616 9.241066666666665 7.788799999999999 5.2690133333333335 2.6346666666666665 7.4048 9.042133333333332 4.770239999999999 14.311466666666664 -2.6345599999999996 5.269333333333333 -9.041706666666666 7.4048 -14.310826666666665 4.770133333333333 -2.930133333333333 -1.4655999999999998 -5.805013333333333 -3.2906666666666666 -8.617066666666666 -5.6096 -6.6512 4.9344 -13.371199999999998 7.960533333333332 -20.20864 9.729066666666666 -9.057173333333333 2.3423999999999996 -17.954453333333333 2.341333333333333 -25.62464 2.3402666666666665l-0.5127466666666667 0c-5.89104 0 -10.666666666666666 -4.776533333333333 -10.666666666666666 -10.666666666666666 0 -5.8911999999999995 4.775626666666666 -10.666666666666666 10.666666666666666 -10.666666666666666 8.214933333333333 0 14.589013333333334 -0.055466666666666664 20.795946666666666 -1.6608 5.832746666666666 -1.5082666666666666 11.898773333333333 -4.519466666666666 18.59488 -11.214933333333331 2.1454933333333335 -2.1461333333333332 5.102933333333333 -3.275733333333333 8.132373333333334 -3.1082666666666663Zm131.88053333333332 3.9872c1.8954666666666666 -2.3690666666666664 4.7104 -3.8197333333333328 7.739733333333334 -3.9872 3.0293333333333328 -0.16746666666666665 5.9872 0.9621333333333333 8.132266666666666 3.1082666666666663 6.696533333333333 6.6954666666666665 12.762666666666664 9.706666666666667 18.5952 11.214933333333331 6.206933333333333 1.6053333333333333 12.580266666666667 1.6608 20.79573333333333 1.6608 5.8911999999999995 0 10.666666666666666 4.7754666666666665 10.666666666666666 10.666666666666666 0 5.890133333333333 -4.7754666666666665 10.666666666666666 -10.666666666666666 10.666666666666666l-0.5130666666666666 0c-7.670399999999999 0.0010666666666666667 -16.567466666666665 0.0021333333333333334 -25.624533333333332 -2.3402666666666665 -6.8373333333333335 -1.7685333333333333 -13.557333333333332 -4.794666666666666 -20.208 -9.729066666666666 -2.8127999999999997 2.3189333333333333 -5.6874666666666664 4.144 -8.6176 5.6096 -5.269333333333333 2.6346666666666665 -11.675733333333334 0.4992 -14.310399999999998 -4.770133333333333 -2.6346666666666665 -5.269333333333333 -0.4992 -11.6768 4.770133333333333 -14.311466666666664 2.8544 -1.4272 5.915733333333333 -3.6330666666666667 9.240533333333332 -7.788799999999999Z" clip-rule="evenodd" stroke-width="10.6667"></path>
</svg>