<svg xmlns="http://www.w3.org/2000/svg" viewBox="0 0 256 256" id="Envelope-Sealed--Streamline-Ultimate" height="256" width="256">
  <desc>
    Envelope Sealed Streamline Icon: https://streamlinehq.com
  </desc>
  <g id="Envelope-Sealed--Streamline-Ultimate.svg">
    <path d="M81.17333333333333 40h93.86666666666667c10.666666666666666 0 11.52 -3.84 38.72 -35.519999999999996a2.7733333333333334 2.7733333333333334 0 0 0 0 -2.88 2.6666666666666665 2.6666666666666665 0 0 0 -2.0266666666666664 -1.5999999999999999H44.266666666666666a2.6666666666666665 2.6666666666666665 0 0 0 -2.3466666666666667 1.5999999999999999 2.7733333333333334 2.7733333333333334 0 0 0 0.7466666666666667 2.88c26.666666666666664 31.57333333333333 27.626666666666665 35.199999999999996 38.50666666666666 35.519999999999996Z" fill="#ffffff" stroke-width="10.6667"></path>
    <path d="M197.65333333333334 47.89333333333333a32.85333333333333 32.85333333333333 0 0 1 -22.4 8.106666666666666H138.66666666666666a2.6666666666666665 2.6666666666666665 0 0 0 -2.6666666666666665 2.6666666666666665v149.33333333333331a2.6666666666666665 2.6666666666666665 0 0 0 2.6666666666666665 2.6666666666666665h58.666666666666664a7.893333333333333 7.893333333333333 0 0 1 6.186666666666666 2.88l25.28 30.29333333333333a15.146666666666665 15.146666666666665 0 0 0 0.5333333333333333 -3.84v-224a16.85333333333333 16.85333333333333 0 0 0 -0.5333333333333333 -4.053333333333333Z" fill="#ffffff" stroke-width="10.6667"></path>
    <path d="M52.48 213.33333333333331a7.893333333333333 7.893333333333333 0 0 1 6.186666666666666 -2.88H117.33333333333333a2.6666666666666665 2.6666666666666665 0 0 0 2.6666666666666665 -2.6666666666666665V58.666666666666664a2.6666666666666665 2.6666666666666665 0 0 0 -2.6666666666666665 -2.6666666666666665H80.96a33.06666666666666 33.06666666666666 0 0 1 -22.826666666666668 -8.32l-30.93333333333333 -35.733333333333334a16.85333333333333 16.85333333333333 0 0 0 0 4.053333333333333v224a15.893333333333333 15.893333333333333 0 0 0 0 3.84Z" fill="#ffffff" stroke-width="10.6667"></path>
    <path d="M194.34666666666664 227.62666666666667a2.3466666666666667 2.3466666666666667 0 0 0 -2.0266666666666664 -0.96H64a2.3466666666666667 2.3466666666666667 0 0 0 -2.0266666666666664 0.96l-19.946666666666665 24a2.6666666666666665 2.6666666666666665 0 0 0 0 2.7733333333333334 2.6666666666666665 2.6666666666666665 0 0 0 2.3466666666666667 1.5999999999999999h167.57333333333332a2.6666666666666665 2.6666666666666665 0 0 0 2.3466666666666667 -1.5999999999999999 2.6666666666666665 2.6666666666666665 0 0 0 0 -2.7733333333333334Z" fill="#ffffff" stroke-width="10.6667"></path>
  </g>
</svg>