<svg xmlns="http://www.w3.org/2000/svg" id="Envelope-Letter--Streamline-Ultimate" width="256" height="256" viewBox="0 0 256 256"><desc>Envelope Letter Streamline Icon: https://streamlinehq.com</desc><path fill="#fff" stroke-width="10.667" d="M234.66666666666666 42.666666666666664H21.333333333333332a21.333333333333332 21.333333333333332 0 0 0 -21.333333333333332 21.333333333333332v128a21.333333333333332 21.333333333333332 0 0 0 21.333333333333332 21.333333333333332h213.33333333333331a21.333333333333332 21.333333333333332 0 0 0 21.333333333333332 -21.333333333333332V64a21.333333333333332 21.333333333333332 0 0 0 -21.333333333333332 -21.333333333333332Zm-10.666666666666666 37.33333333333333v42.666666666666664a5.333333333333333 5.333333333333333 0 0 1 -5.333333333333333 5.333333333333333h-42.666666666666664a5.333333333333333 5.333333333333333 0 0 1 -5.333333333333333 -5.333333333333333v-42.666666666666664a5.333333333333333 5.333333333333333 0 0 1 5.333333333333333 -5.333333333333333h42.666666666666664a5.333333333333333 5.333333333333333 0 0 1 5.333333333333333 5.333333333333333ZM48 146.66666666666666h85.33333333333333a8 8 0 1 1 0 16h-85.33333333333333a8 8 0 0 1 0 -16ZM40 117.33333333333333a7.893333333333333 7.893333333333333 0 0 1 8 -8h21.333333333333332a8 8 0 0 1 0 16h-21.333333333333332a7.893333333333333 7.893333333333333 0 0 1 -8 -8Z"/></svg>