<svg xmlns="http://www.w3.org/2000/svg" fill="none" viewBox="0 0 256 256" id="Equal-Math-Symbol-Circle--Streamline-Ultimate" height="256" width="256">
  <desc>
    Equal Math Symbol Circle Streamline Icon: https://streamlinehq.com
  </desc>
  <path fill="#ffffff" fill-rule="evenodd" d="M128 0C57.30752 0 0.00008138026666666666 57.30837333333333 0.00008138026666666666 128.00106666666665 0.00008138026666666666 198.69333333333333 57.307626666666664 256 128 256c70.69226666666665 0 128 -57.30666666666666 128 -127.99893333333333C256 57.30837333333333 198.69226666666668 0 128 0ZM59.73344 97.54165333333333c0 -4.41824 3.5817599999999996 -8 8 -8H188.26666666666665c4.4181333333333335 0 8 3.5817599999999996 8 8s-3.5818666666666665 8 -8 8H67.73344c-4.41824 0 -8 -3.5817599999999996 -8 -8Zm8 51.85461333333333c-4.41824 0 -8 3.5808 -8 8 0 4.4181333333333335 3.5817599999999996 8 8 8H188.26666666666665c4.4181333333333335 0 8 -3.5818666666666665 8 -8 0 -4.4192 -3.5818666666666665 -8 -8 -8H67.73344Z" clip-rule="evenodd" stroke-width="10.6667"></path>
</svg>