<svg xmlns="http://www.w3.org/2000/svg" viewBox="0 0 256 256" id="Escalator-Descend--Streamline-Ultimate" height="256" width="256">
  <desc>
    Escalator Descend Streamline Icon: https://streamlinehq.com
  </desc>
  <g id="Escalator-Descend--Streamline-Ultimate.svg">
    <path d="M185.70666666666665 85.86666666666667a5.653333333333333 5.653333333333333 0 0 1 1.5999999999999999 3.84 5.4399999999999995 5.4399999999999995 0 0 1 -1.5999999999999999 3.733333333333333L172.26666666666665 106.66666666666666a5.226666666666667 5.226666666666667 0 0 0 -1.1733333333333333 5.866666666666667 5.4399999999999995 5.4399999999999995 0 0 0 4.906666666666666 3.3066666666666666h53.33333333333333a5.333333333333333 5.333333333333333 0 0 0 5.333333333333333 -5.333333333333333v-53.33333333333333a5.333333333333333 5.333333333333333 0 0 0 -3.3066666666666666 -5.013333333333333 5.4399999999999995 5.4399999999999995 0 0 0 -5.76 1.1733333333333333l-13.546666666666667 13.653333333333332a5.119999999999999 5.119999999999999 0 0 1 -7.466666666666666 0l-51.199999999999996 -51.093333333333334a13.333333333333332 13.333333333333332 0 0 0 -18.773333333333333 18.88Z" fill="#ffffff" stroke-width="10.6667"></path>
    <path d="M256 206.71999999999997a37.33333333333333 37.33333333333333 0 0 0 -37.33333333333333 -37.33333333333333h-35.946666666666665a5.546666666666667 5.546666666666667 0 0 1 -3.9466666666666663 -1.7066666666666666l-73.6 -78.61333333333333a16.21333333333333 16.21333333333333 0 0 0 -11.733333333333334 -5.013333333333333H37.33333333333333a37.33333333333333 37.33333333333333 0 0 0 0 74.66666666666666h30.613333333333333a5.4399999999999995 5.4399999999999995 0 0 1 3.9466666666666663 1.5999999999999999l73.6 78.61333333333333a16.32 16.32 0 0 0 11.733333333333334 5.119999999999999h61.44a37.44 37.44 0 0 0 37.33333333333333 -37.33333333333333Z" fill="#ffffff" stroke-width="10.6667"></path>
  </g>
</svg>