<svg xmlns="http://www.w3.org/2000/svg" viewBox="0 0 256 256" id="Ethernet-Port--Streamline-Ultimate" height="256" width="256">
  <desc>
    Ethernet Port Streamline Icon: https://streamlinehq.com
  </desc>
  <path d="M256 21.333333333333332a21.333333333333332 21.333333333333332 0 0 0 -21.333333333333332 -21.333333333333332H21.333333333333332a21.333333333333332 21.333333333333332 0 0 0 -21.333333333333332 21.333333333333332v213.33333333333331a21.333333333333332 21.333333333333332 0 0 0 21.333333333333332 21.333333333333332h213.33333333333331a21.333333333333332 21.333333333333332 0 0 0 21.333333333333332 -21.333333333333332Zm-48 138.66666666666666a10.666666666666666 10.666666666666666 0 0 1 -10.666666666666666 10.666666666666666h-40a2.6666666666666665 2.6666666666666665 0 0 0 -2.6666666666666665 2.6666666666666665v24a5.333333333333333 5.333333333333333 0 0 1 -5.333333333333333 5.333333333333333h-42.666666666666664a5.333333333333333 5.333333333333333 0 0 1 -5.333333333333333 -5.333333333333333v-24a2.6666666666666665 2.6666666666666665 0 0 0 -2.6666666666666665 -2.6666666666666665H58.666666666666664a10.666666666666666 10.666666666666666 0 0 1 -10.666666666666666 -10.666666666666666V74.66666666666666a10.666666666666666 10.666666666666666 0 0 1 10.666666666666666 -10.666666666666666h10.666666666666666a2.6666666666666665 2.6666666666666665 0 0 1 2.6666666666666665 2.6666666666666665V96a8 8 0 0 0 16 0V66.66666666666666A2.6666666666666665 2.6666666666666665 0 0 1 90.66666666666666 64h10.666666666666666a2.6666666666666665 2.6666666666666665 0 0 1 2.6666666666666665 2.6666666666666665V96a8 8 0 0 0 16 0V66.66666666666666A2.6666666666666665 2.6666666666666665 0 0 1 122.66666666666666 64h10.666666666666666a2.6666666666666665 2.6666666666666665 0 0 1 2.6666666666666665 2.6666666666666665V96a8 8 0 0 0 16 0V66.66666666666666A2.6666666666666665 2.6666666666666665 0 0 1 154.66666666666666 64h10.666666666666666a2.6666666666666665 2.6666666666666665 0 0 1 2.6666666666666665 2.6666666666666665V96a8 8 0 0 0 16 0V66.66666666666666A2.6666666666666665 2.6666666666666665 0 0 1 186.66666666666666 64h10.666666666666666a10.666666666666666 10.666666666666666 0 0 1 10.666666666666666 10.666666666666666Z" fill="#ffffff" stroke-width="10.6667"></path>
</svg>