<svg xmlns="http://www.w3.org/2000/svg" viewBox="0 0 256 256" id="Expand-2--Streamline-Ultimate" height="256" width="256">
  <desc>
    Expand 2 Streamline Icon: https://streamlinehq.com
  </desc>
  <path d="M218.66666666666666 56.213333333333324a2.5599999999999996 2.5599999999999996 0 0 1 3.733333333333333 0l15.36 15.36A10.666666666666666 10.666666666666666 0 0 0 245.33333333333331 74.66666666666666a10.666666666666666 10.666666666666666 0 0 0 10.666666666666666 -10.666666666666666V10.666666666666666a10.666666666666666 10.666666666666666 0 0 0 -10.666666666666666 -10.666666666666666h-53.33333333333333a10.666666666666666 10.666666666666666 0 0 0 -9.813333333333333 6.613333333333333 10.666666666666666 10.666666666666666 0 0 0 2.2399999999999998 11.626666666666667l15.36 15.36a2.5599999999999996 2.5599999999999996 0 0 1 0 3.733333333333333l-69.86666666666666 69.86666666666666a2.6666666666666665 2.6666666666666665 0 0 1 -3.84 0L56.213333333333324 37.33333333333333a2.5599999999999996 2.5599999999999996 0 0 1 0 -3.733333333333333l15.36 -15.36A10.666666666666666 10.666666666666666 0 0 0 73.81333333333333 6.613333333333333 10.666666666666666 10.666666666666666 0 0 0 64 0H10.666666666666666a10.666666666666666 10.666666666666666 0 0 0 -10.666666666666666 10.666666666666666v53.33333333333333a10.666666666666666 10.666666666666666 0 0 0 6.613333333333333 9.813333333333333A10.666666666666666 10.666666666666666 0 0 0 10.666666666666666 74.66666666666666a10.666666666666666 10.666666666666666 0 0 0 7.573333333333332 -3.093333333333333l15.36 -15.36a2.5599999999999996 2.5599999999999996 0 0 1 3.733333333333333 0l69.97333333333333 69.86666666666666a2.88 2.88 0 0 1 0 3.84L37.33333333333333 199.78666666666666a2.5599999999999996 2.5599999999999996 0 0 1 -3.733333333333333 0l-15.36 -15.36a10.666666666666666 10.666666666666666 0 0 0 -11.626666666666667 -2.2399999999999998A10.666666666666666 10.666666666666666 0 0 0 0 192v53.33333333333333a10.666666666666666 10.666666666666666 0 0 0 10.666666666666666 10.666666666666666h53.33333333333333a10.666666666666666 10.666666666666666 0 0 0 9.813333333333333 -6.613333333333333 10.666666666666666 10.666666666666666 0 0 0 -2.2399999999999998 -11.626666666666667l-15.36 -15.36a2.5599999999999996 2.5599999999999996 0 0 1 0 -3.733333333333333l69.86666666666666 -69.97333333333333a2.88 2.88 0 0 1 3.84 0l69.86666666666666 69.97333333333333a2.5599999999999996 2.5599999999999996 0 0 1 0 3.733333333333333l-15.36 15.36a10.666666666666666 10.666666666666666 0 0 0 -2.2399999999999998 11.626666666666667A10.666666666666666 10.666666666666666 0 0 0 192 256h53.33333333333333a10.666666666666666 10.666666666666666 0 0 0 10.666666666666666 -10.666666666666666v-53.33333333333333a10.666666666666666 10.666666666666666 0 0 0 -6.613333333333333 -9.813333333333333 10.666666666666666 10.666666666666666 0 0 0 -11.626666666666667 2.2399999999999998l-15.36 15.36a2.5599999999999996 2.5599999999999996 0 0 1 -3.733333333333333 0l-69.97333333333333 -69.86666666666666a2.88 2.88 0 0 1 0 -3.84Z" fill="#ffffff" stroke-width="10.6667"></path>
</svg>