<svg xmlns="http://www.w3.org/2000/svg" viewBox="0 0 256 256" id="Expand-Full--Streamline-Ultimate" height="256" width="256">
  <desc>
    Expand Full Streamline Icon: https://streamlinehq.com
  </desc>
  <g id="Expand-Full--Streamline-Ultimate.svg">
    <path d="M253.33333333333331 26.133333333333333a23.57333333333333 23.57333333333333 0 0 0 -23.46666666666667 -23.46666666666667h-61.120000000000005a13.333333333333332 13.333333333333332 0 0 0 0 26.666666666666664H224a2.6666666666666665 2.6666666666666665 0 0 1 2.6666666666666665 2.6666666666666665v34.879999999999995a13.333333333333332 13.333333333333332 0 0 0 26.666666666666664 0Z" fill="#ffffff" stroke-width="10.6667"></path>
    <path d="M2.6666666666666665 66.88a13.333333333333332 13.333333333333332 0 0 0 26.666666666666664 0V32A2.6666666666666665 2.6666666666666665 0 0 1 32 29.333333333333332h55.25333333333333a13.333333333333332 13.333333333333332 0 0 0 0 -26.666666666666664H26.133333333333333a23.57333333333333 23.57333333333333 0 0 0 -23.46666666666667 23.46666666666667Z" fill="#ffffff" stroke-width="10.6667"></path>
    <path d="M253.33333333333331 229.76v-40.64a13.333333333333332 13.333333333333332 0 0 0 -26.666666666666664 0V224a2.6666666666666665 2.6666666666666665 0 0 1 -2.6666666666666665 2.6666666666666665h-55.25333333333333a13.333333333333332 13.333333333333332 0 0 0 0 26.666666666666664h61.120000000000005a23.57333333333333 23.57333333333333 0 0 0 23.46666666666667 -23.57333333333333Z" fill="#ffffff" stroke-width="10.6667"></path>
    <path d="M2.6666666666666665 229.76a23.57333333333333 23.57333333333333 0 0 0 23.46666666666667 23.57333333333333h61.120000000000005a13.333333333333332 13.333333333333332 0 0 0 0 -26.666666666666664H32a2.6666666666666665 2.6666666666666665 0 0 1 -2.6666666666666665 -2.6666666666666665v-34.879999999999995a13.333333333333332 13.333333333333332 0 0 0 -26.666666666666664 0Z" fill="#ffffff" stroke-width="10.6667"></path>
    <path d="M77.01333333333332 86.82666666666667h101.86666666666667s20.799999999999997 0 20.799999999999997 20.799999999999997v40.85333333333333s0 20.799999999999997 -20.799999999999997 20.799999999999997H77.01333333333332s-20.799999999999997 0 -20.799999999999997 -20.799999999999997v-40.85333333333333s0 -20.799999999999997 20.799999999999997 -20.799999999999997" fill="#ffffff" stroke-width="10.6667"></path>
  </g>
</svg>