<svg xmlns="http://www.w3.org/2000/svg" fill="none" viewBox="0 0 256 256" id="Export-File--Streamline-Ultimate" height="256" width="256">
  <desc>
    Export File Streamline Icon: https://streamlinehq.com
  </desc>
  <path fill="#ffffff" fill-rule="evenodd" d="M16.289066666666663 27.0432C16.289066666666663 13.511466666666665 27.24053333333333 2.5599999999999996 40.77226666666667 2.5599999999999996h143.3792c6.281599999999999 0 12.492799999999999 2.4010666666666665 17.138133333333332 7.0112l31.01653333333333 29.773866666666667c4.801066666666666 4.634666666666666 7.4048 11.024000000000001 7.4048 17.521066666666666v172.09066666666666c0 13.543466666666667 -10.951466666666665 24.4832 -24.494933333333336 24.4832H40.784c-13.524266666666666 0.0063999999999999994 -24.4896 -10.958933333333334 -24.4832 -24.4832V27.0432Zm155.33333333333331 83.8656c-1.3866666666666667 3.3482666666666665 -4.652799999999999 5.530666666666666 -8.276266666666666 5.529599999999999h-23.372799999999998v67.44426666666666c0 9.1936 -9.953066666666667 14.939733333333333 -17.914666666666665 10.343466666666666 -3.6959999999999997 -2.1344 -5.972266666666666 -6.0767999999999995 -5.972266666666666 -10.343466666666666v-67.44426666666666H92.64213333333333c-6.895999999999999 -0.005333333333333333 -11.198933333333333 -7.474133333333333 -7.746133333333333 -13.442133333333333 0.39039999999999997 -0.6741333333333334 0.8661333333333332 -1.2938666666666667 1.4165333333333332 -1.8442666666666665l35.35146666666667 -35.35253333333333c3.4976000000000003 -3.4922666666666666 9.162666666666667 -3.4922666666666666 12.660266666666667 0l35.35146666666667 35.35253333333333c2.5578666666666665 2.562133333333333 3.3216 6.412799999999999 1.9349333333333334 9.756799999999998Z" clip-rule="evenodd" stroke-width="10.6667"></path>
</svg>