<svg xmlns="http://www.w3.org/2000/svg" viewBox="0 0 256 256" id="Face-Id-1--Streamline-Ultimate" height="256" width="256">
  <desc>
    Face Id 1 Streamline Icon: https://streamlinehq.com
  </desc>
  <path d="M128 0a128 128 0 1 0 128 128A128 128 0 0 0 128 0Zm26.666666666666664 80a10.666666666666666 10.666666666666666 0 0 1 21.333333333333332 0v32a10.666666666666666 10.666666666666666 0 0 1 -21.333333333333332 0Zm-74.66666666666666 0a10.666666666666666 10.666666666666666 0 0 1 21.333333333333332 0v32a10.666666666666666 10.666666666666666 0 0 1 -21.333333333333332 0Zm106.66666666666666 85.86666666666667a69.44 69.44 0 0 1 -116.26666666666667 0 10.666666666666666 10.666666666666666 0 1 1 17.919999999999998 -11.733333333333334 47.89333333333333 47.89333333333333 0 0 0 80.42666666666666 0 10.666666666666666 10.666666666666666 0 1 1 17.919999999999998 11.733333333333334Z" fill="#ffffff" stroke-width="10.6667"></path>
</svg>