<svg xmlns="http://www.w3.org/2000/svg" viewBox="0 0 256 256" id="Facebook-Messenger-Logo--Streamline-Ultimate" height="256" width="256">
  <desc>
    Facebook Messenger Logo Streamline Icon: https://streamlinehq.com
  </desc>
  <path d="M128 8.853333333333332C57.38666666666666 8.853333333333332 0 61.33333333333333 0 125.86666666666667a109.65333333333332 109.65333333333332 0 0 0 26.560000000000002 71.46666666666667 3.093333333333333 3.093333333333333 0 0 1 0.7466666666666667 1.92v29.013333333333335a18.773333333333333 18.773333333333333 0 0 0 8.959999999999999 16.106666666666666 18.346666666666664 18.346666666666664 0 0 0 9.92 2.7733333333333334 19.413333333333334 19.413333333333334 0 0 0 8.426666666666666 -1.8133333333333335l22.08 -10.666666666666666a2.986666666666667 2.986666666666667 0 0 1 2.3466666666666667 0 137.27999999999997 137.27999999999997 0 0 0 48.959999999999994 8.959999999999999c70.61333333333333 0 128 -52.48 128 -117.33333333333333S198.61333333333334 8.853333333333332 128 8.853333333333332Zm64 89.81333333333333 -36.906666666666666 59.093333333333334a10.666666666666666 10.666666666666666 0 0 1 -14.719999999999999 3.413333333333333l-28.05333333333333 -17.599999999999998a10.666666666666666 10.666666666666666 0 0 0 -10.666666666666666 0l-31.04 18.24A5.653333333333333 5.653333333333333 0 0 1 64 161.06666666666666a5.333333333333333 5.333333333333333 0 0 1 -0.8533333333333333 -6.506666666666666L96 96.53333333333333a10.666666666666666 10.666666666666666 0 0 1 6.613333333333333 -5.119999999999999 10.666666666666666 10.666666666666666 0 0 1 8.32 1.2799999999999998l27.733333333333334 17.493333333333332a10.666666666666666 10.666666666666666 0 0 0 10.666666666666666 0l35.41333333333333 -19.306666666666665a5.226666666666667 5.226666666666667 0 0 1 6.3999999999999995 1.0666666666666667 5.119999999999999 5.119999999999999 0 0 1 0.8533333333333333 6.72Z" fill="#ffffff" stroke-width="10.6667"></path>
</svg>