<svg xmlns="http://www.w3.org/2000/svg" id="Factory-Industrial-Robot-Arm-1--Streamline-Ultimate" width="256" height="256" viewBox="0 0 256 256"><desc>Factory Industrial Robot Arm 1 Streamline Icon: https://streamlinehq.com</desc><g id="Factory-Industrial-Robot-Arm-1--Streamline-Ultimate.svg"><path fill="#fff" stroke-width="10.667" d="M177.59999999999997 218.02666666666667H170.66666666666666v-25.28a32.74666666666666 32.74666666666666 0 0 0 -65.49333333333333 0v25.28h-6.826666666666666a16 16 0 0 0 -16 16v16.64a5.333333333333333 5.333333333333333 0 0 0 5.333333333333333 5.333333333333333h100.58666666666666a5.333333333333333 5.333333333333333 0 0 0 5.333333333333333 -5.333333333333333v-16.64a16 16 0 0 0 -16 -16ZM138.66666666666666 203.73333333333335a11.306666666666667 11.306666666666667 0 0 1 0 -22.4 11.306666666666667 11.306666666666667 0 1 1 0 22.506666666666664Z"/><path fill="#fff" stroke-width="10.667" d="M255.14666666666668 93.97333333333333a46.08 46.08 0 0 0 -44.05333333333333 -32.959999999999994A44.693333333333335 44.693333333333335 0 0 0 192 65.06666666666666l-24.106666666666662 -24.746666666666663A32 32 0 0 0 122.24000000000001 3.626666666666667 32 32 0 0 0 106.66666666666666 23.146666666666665L39.68 74.66666666666666a34.13333333333333 34.13333333333333 0 0 0 -20.586666666666666 3.733333333333333 35.093333333333334 35.093333333333334 0 0 0 19.626666666666665 66.02666666666667l50.773333333333326 52.16V192A48.42666666666666 48.42666666666666 0 0 1 106.66666666666666 154.88L69.54666666666665 117.33333333333333a34.666666666666664 34.666666666666664 0 0 0 0 -16.53333333333333l51.946666666666665 -41.06666666666666a32 32 0 0 0 24.85333333333333 2.88l23.893333333333334 24.106666666666662a44.693333333333335 44.693333333333335 0 0 0 -4.8 20.266666666666666 45.97333333333333 45.97333333333333 0 0 0 34.239999999999995 44.48 12.479999999999999 12.479999999999999 0 0 0 3.413333333333333 0 13.333333333333332 13.333333333333332 0 0 0 3.3066666666666666 -26.24 19.306666666666665 19.306666666666665 0 1 1 23.46666666666667 -24.106666666666662 13.333333333333332 13.333333333333332 0 1 0 25.493333333333332 -7.466666666666666Zm-219.83999999999997 26.666666666666664a11.2 11.2 0 1 1 11.306666666666667 -11.2 10.666666666666666 10.666666666666666 0 0 1 -11.306666666666667 11.2Zm101.75999999999999 -77.01333333333332A11.733333333333334 11.733333333333334 0 1 1 149.33333333333331 32a11.626666666666667 11.626666666666667 0 0 1 -12.266666666666666 11.626666666666667Z"/></g></svg>