<svg xmlns="http://www.w3.org/2000/svg" viewBox="0 0 256 256" id="Factory-Building-1--Streamline-Ultimate" height="256" width="256">
  <desc>
    Factory Building 1 Streamline Icon: https://streamlinehq.com
  </desc>
  <g id="Factory-Building-1--Streamline-Ultimate.svg">
    <path d="m99.31199999999998 79.024 -2.7264 -23.996799999999997c-0.5621333333333333 -5.594666666666666 -5.285333333333333 -9.845333333333333 -10.907733333333333 -9.817599999999999H54.91733333333333c-5.6224 -0.027733333333333332 -10.3456 4.222933333333333 -10.907733333333333 9.817599999999999l-3.2725333333333335 23.996799999999997Z" fill="#ffffff" stroke-width="10.6667"></path>
    <path d="m103.02080000000001 120.69226666666665 -2.0725333333333333 -25.306666666666665h-61.30133333333333l-3.7088 42.6496 67.08266666666665 -17.34293333333333Z" fill="#ffffff" stroke-width="10.6667"></path>
    <path d="M220.71679999999998 5.3962666666666665c-9.757866666666665 -0.0031999999999999997 -18.76053333333333 5.249066666666666 -23.5616 13.744 -2.683733333333333 -1.877333333333333 -5.8869333333333325 -2.8693333333333335 -9.1616 -2.836266666666667 -12.596266666666667 0 -20.4672 13.634133333333333 -14.170666666666666 24.541866666666667 2.9226666666666667 5.0624 8.324266666666666 8.181333333333333 14.170666666666666 8.181333333333333 3.2661333333333333 -0.021333333333333333 6.4544 -1.008 9.1616 -2.8351999999999995 10.412799999999999 18.2272 36.6528 18.34773333333333 47.232 0.2165333333333333C254.96746666666664 28.27733333333333 241.952 5.492266666666667 220.95999999999998 5.3962666666666665l-0.2432 0Z" fill="#ffffff" stroke-width="10.6667"></path>
    <path d="M117.09226666666666 32.6656c0 12.5952 13.6352 20.4672 24.54293333333333 14.169599999999999 5.0624 -2.9226666666666667 8.180266666666666 -8.324266666666666 8.180266666666666 -14.169599999999999 0 -12.5952 -13.634133333333333 -20.4672 -24.541866666666667 -14.169599999999999 -5.0624 2.9226666666666667 -8.181333333333333 8.324266666666666 -8.181333333333333 14.169599999999999" fill="#ffffff" stroke-width="10.6667"></path>
    <path d="M236.20586666666668 103.67573333333333c-1.4709333333333332 0.012799999999999999 -2.9344 0.19626666666666664 -4.363733333333333 0.5450666666666666L14.667733333333333 160.5056C7.552 162.3424 2.574933333333333 168.75413333333333 2.5599999999999996 176.10346666666663v69.04639999999999c0 3.012266666666666 2.4415999999999998 5.453866666666666 5.453866666666666 5.453866666666666h149.32799999999997c3.012266666666666 0 5.453866666666666 -2.4415999999999998 5.453866666666666 -5.453866666666666v-47.775999999999996c0 -3.012266666666666 2.4415999999999998 -5.453866666666666 5.453866666666666 -5.453866666666666h31.523199999999996c2.9877333333333334 0.0576 5.3962666666666665 2.466133333333333 5.453866666666666 5.453866666666666v47.775999999999996c0 3.012266666666666 2.4426666666666668 5.453866666666666 5.453866666666666 5.453866666666666h37.3056c3.012266666666666 0 5.453866666666666 -2.4415999999999998 5.453866666666666 -5.453866666666666V121.01866666666666c0 -9.536 -7.698133333333333 -17.2832 -17.234133333333332 -17.34293333333333Zm-173.65333333333334 128.16639999999998H51.644800000000004c-6.2976 -0.022399999999999996 -10.209066666666665 -6.853333333333333 -7.04 -12.296533333333333 1.4602666666666666 -2.5077333333333334 4.1386666666666665 -4.054399999999999 7.04 -4.065066666666667h10.907733333333333c6.2976 0.023466666666666667 10.209066666666665 6.854399999999999 7.041066666666667 12.2976 -1.4602666666666666 2.5077333333333334 -4.1386666666666665 4.054399999999999 -7.041066666666667 4.064Zm0 -32.7232H51.644800000000004c-6.2976 -0.022399999999999996 -10.209066666666665 -6.854399999999999 -7.04 -12.296533333333333 1.4602666666666666 -2.5077333333333334 4.1386666666666665 -4.054399999999999 7.04 -4.065066666666667h10.907733333333333c6.2976 0.022399999999999996 10.209066666666665 6.854399999999999 7.041066666666667 12.296533333333333 -1.4602666666666666 2.5077333333333334 -4.1386666666666665 4.054399999999999 -7.041066666666667 4.065066666666667Zm54.53973333333333 32.7232H106.18453333333333c-6.2976 -0.022399999999999996 -10.209066666666665 -6.853333333333333 -7.041066666666667 -12.296533333333333 1.4602666666666666 -2.5077333333333334 4.1386666666666665 -4.054399999999999 7.041066666666667 -4.065066666666667h10.907733333333333c6.2976 0.023466666666666667 10.209066666666665 6.854399999999999 7.04 12.2976 -1.4592 2.5077333333333334 -4.1386666666666665 4.054399999999999 -7.04 4.064Zm0 -32.7232H106.18453333333333c-6.2976 -0.022399999999999996 -10.209066666666665 -6.854399999999999 -7.041066666666667 -12.296533333333333 1.4602666666666666 -2.5077333333333334 4.1386666666666665 -4.054399999999999 7.041066666666667 -4.065066666666667h10.907733333333333c6.2976 0.022399999999999996 10.209066666666665 6.854399999999999 7.04 12.296533333333333 -1.4592 2.5077333333333334 -4.1386666666666665 4.054399999999999 -7.04 4.065066666666667Z" fill="#ffffff" stroke-width="10.6667"></path>
  </g>
</svg>