<svg xmlns="http://www.w3.org/2000/svg" id="Family-Child-Play-Ball-Warning--Streamline-Ultimate" width="256" height="256" viewBox="0 0 256 256"><desc>Family Child Play Ball Warning Streamline Icon: https://streamlinehq.com</desc><path fill="#fff" stroke-width="10.667" d="m254.18666666666664 227.2 -112 -213.33333333333331a16 16 0 0 0 -28.373333333333335 0l-112 213.33333333333331a16 16 0 0 0 14.186666666666667 23.46666666666667h224a15.786666666666665 15.786666666666665 0 0 0 13.653333333333332 -7.68 16 16 0 0 0 0.5333333333333333 -15.786666666666665ZM138.66666666666666 202.66666666666666l10.666666666666666 10.666666666666666a8 8 0 1 1 -10.666666666666666 10.666666666666666l-10.666666666666666 -10.666666666666666a18.24 18.24 0 0 1 -5.013333333333333 -16 2.5599999999999996 2.5599999999999996 0 0 0 -0.6399999999999999 -2.1333333333333333 2.6666666666666665 2.6666666666666665 0 0 0 -2.0266666666666664 -0.96h-6.826666666666666a2.6666666666666665 2.6666666666666665 0 0 0 -2.453333333333333 1.4933333333333334l-7.68 15.36a8 8 0 1 1 -14.293333333333333 -7.04l7.68 -15.466666666666665a18.56 18.56 0 0 1 16.746666666666666 -10.666666666666666h16.106666666666666a2.6666666666666665 2.6666666666666665 0 0 0 2.453333333333333 -1.4933333333333334l2.6666666666666665 -5.333333333333333a2.7733333333333334 2.7733333333333334 0 0 0 0 -2.5599999999999996 2.3466666666666667 2.3466666666666667 0 0 0 -2.2399999999999998 -1.2799999999999998h-7.04a18.666666666666664 18.666666666666664 0 0 1 -17.706666666666663 -12.799999999999999l-2.88 -8.64a8 8 0 1 1 15.146666666666665 -5.119999999999999l2.88 8.746666666666666a2.7733333333333334 2.7733333333333334 0 0 0 2.5599999999999996 1.8133333333333335h35.946666666666665a18.773333333333333 18.773333333333333 0 0 1 13.12 5.4399999999999995L186.98666666666668 170.66666666666666a8 8 0 0 1 0 11.306666666666667 8 8 0 0 1 -11.306666666666667 0l-12.906666666666666 -12.906666666666666a2.7733333333333334 2.7733333333333334 0 0 0 -1.8133333333333335 -0.7466666666666667h-5.013333333333333a2.6666666666666665 2.6666666666666665 0 0 0 -2.453333333333333 1.4933333333333334L138.66666666666666 199.36a2.7733333333333334 2.7733333333333334 0 0 0 0 3.3066666666666666Zm-3.093333333333333 -79.78666666666666a18.666666666666664 18.666666666666664 0 1 1 18.666666666666664 18.666666666666664 18.773333333333333 18.773333333333333 0 0 1 -18.24 -18.88Zm-48 45.33333333333333a16 16 0 1 1 -16 -16 16 16 0 0 1 16.426666666666666 15.786666666666665Z"/></svg>