<svg xmlns="http://www.w3.org/2000/svg" viewBox="0 0 256 256" id="Fast-Food-French-Fries--Streamline-Ultimate" height="256" width="256">
  <desc>
    Fast Food French Fries Streamline Icon: https://streamlinehq.com
  </desc>
  <g id="Fast-Food-French-Fries--Streamline-Ultimate.svg">
    <path d="M93.26293333333332 114.25706666666667c0.1664 1.7557333333333331 0.7754666666666666 3.4410666666666665 1.7706666666666666 4.8970666666666665 1.936 2.9311999999999996 3.2479999999999998 6.228266666666666 3.8549333333333333 9.688533333333332 0 2.3957333333333333 8.2304 7.3962666666666665 21.877333333333333 8.750933333333332 3.2522666666666664 0.3381333333333333 6.008533333333333 -2.368 5.730133333333333 -5.6255999999999995L116.07786666666667 8.203733333333332c-0.2208 -2.8810666666666664 -2.7456 -5.031466666666667 -5.6255999999999995 -4.792533333333333L89.61706666666666 5.182933333333333c-2.882133333333333 0.2208 -5.032533333333333 2.7456 -4.792533333333333 5.6255999999999995Z" fill="#ffffff" stroke-width="10.6667"></path>
    <path d="M156.81173333333334 128.42559999999997c0.5930666666666666 -3.7237333333333336 1.9786666666666666 -7.275733333333333 4.0629333333333335 -10.418133333333333 1.0122666666666666 -1.4858666666666667 1.6224 -3.2085333333333335 1.7706666666666666 -5.000533333333333l8.334933333333332 -103.03253333333333c0.23893333333333333 -2.88 -1.9114666666666666 -5.403733333333333 -4.792533333333333 -5.6255999999999995l-20.836266666666667 -1.7706666666666666c-2.878933333333333 -0.24 -5.403733333333333 1.9104 -5.6255999999999995 4.792533333333333l-10.417066666666667 123.7632c-0.12906666666666666 1.5530666666666666 0.4448 3.0826666666666664 1.5626666666666664 4.167466666666666 1.1253333333333333 1.0442666666666667 2.635733333333333 1.5733333333333333 4.166399999999999 1.458133333333333 13.752533333333332 -0.5205333333333333 21.3568 -5.521066666666666 21.773866666666667 -8.333866666666665Z" fill="#ffffff" stroke-width="10.6667"></path>
    <path d="M182.23146666666665 107.58933333333331h15.209599999999998c2.2869333333333333 0.013866666666666666 4.314666666666667 -1.4645333333333332 5.000533333333333 -3.6458666666666666l19.2736 -60.943999999999996c0.8202666666666666 -2.7584 -0.704 -5.667199999999999 -3.4378666666666664 -6.563199999999999l-19.898666666666664 -6.250666666666666c-1.2682666666666667 -0.5216 -2.690133333333333 -0.5216 -3.9583999999999997 0 -1.232 0.6485333333333333 -2.1386666666666665 1.7802666666666664 -2.5002666666666666 3.125333333333333L168.896 106.23573333333333c-0.3658666666666666 0.9653333333333333 -0.07146666666666666 2.0576 0.7296 2.708266666666667 0.832 0.5066666666666666 1.877333333333333 0.5066666666666666 2.708266666666667 0 3.1776 -1.1008 6.540799999999999 -1.5615999999999999 9.897599999999999 -1.3536000000000001Z" fill="#ffffff" stroke-width="10.6667"></path>
    <path d="M53.46666666666667 103.94346666666667c0.6858666666666666 2.181333333333333 2.7136 3.6608 5.000533333333333 3.646933333333333h15.0016c3.578666666666667 -0.0288 7.125333333333334 0.6805333333333332 10.418133333333333 2.0831999999999997 0.8565333333333333 0.5493333333333332 1.9551999999999998 0.5493333333333332 2.8127999999999997 0 0.896 -0.7776000000000001 1.1530666666666667 -2.062933333333333 0.6250666666666667 -3.125333333333333L64.19733333333333 33.623466666666666c-0.3626666666666667 -1.3450666666666664 -1.2682666666666667 -2.4768 -2.5002666666666666 -3.125333333333333 -1.2682666666666667 -0.5216 -2.6912000000000003 -0.5216 -3.9594666666666662 0l-19.897599999999997 6.250666666666666c-2.6656 0.8053333333333332 -4.257066666666667 3.5328 -3.646933333333333 6.250666666666666Z" fill="#ffffff" stroke-width="10.6667"></path>
    <path d="M217.75573333333332 135.9264c1.4485333333333332 -6.409599999999999 -3.328 -12.542933333333332 -9.896533333333332 -12.709333333333333h-25.62773333333333c-5.0624 -0.0928 -9.457066666666666 3.4677333333333333 -10.418133333333333 8.4384 -2.708266666666667 15.105066666666666 -24.898133333333334 21.877333333333333 -44.37973333333333 21.877333333333333s-41.67146666666666 -6.772266666666667 -44.3808 -21.877333333333333c-0.9610666666666666 -4.970666666666666 -5.355733333333333 -8.531199999999998 -10.417066666666667 -8.4384h-24.586666666666666c-6.782933333333333 -0.16746666666666665 -11.912533333333332 6.090666666666666 -10.417066666666667 12.709333333333333l27.085866666666664 105.94986666666667c1.6021333333333332 6.8064 7.696 11.604266666666668 14.689066666666665 11.563733333333333h97.09440000000001c6.949333333333333 0.013866666666666666 13.012266666666665 -4.715733333333333 14.689066666666665 -11.460266666666666Z" fill="#ffffff" stroke-width="10.6667"></path>
  </g>
</svg>