<svg xmlns="http://www.w3.org/2000/svg" fill="none" viewBox="0 0 256 256" id="Favorite-Medical--Streamline-Ultimate" height="256" width="256">
  <desc>
    Favorite Medical Streamline Icon: https://streamlinehq.com
  </desc>
  <path fill="#ffffff" fill-rule="evenodd" d="M128.07466666666664 49.36533333333333c-17.930666666666667 -18.026666666666664 -36.61866666666666 -26.826666666666668 -54.431999999999995 -28.128 -19.818666666666665 -1.4293333333333333 -37.376 6.517333333333333 -50.10133333333333 19.157333333333334 -25.098666666666666 24.917333333333332 -32.831999999999994 69.952 -1.728 101.056a8.437333333333333 8.437333333333333 0 0 0 0.2773333333333333 0.26666666666666666l100.608 91.136a8 8 0 0 0 10.741333333333332 0l100.608 -91.136a8.671999999999999 8.671999999999999 0 0 0 0.288 -0.26666666666666666c30.93333333333333 -30.93333333333333 23.15733333333333 -75.96799999999999 -1.8559999999999999 -100.90666666666667 -12.693333333333332 -12.661333333333333 -30.218666666666667 -20.650666666666666 -50.016 -19.25333333333333 -17.802666666666667 1.2693333333333332 -36.46933333333333 10.047999999999998 -54.39999999999999 28.074666666666666Zm-9.888 23.370666666666665h19.626666666666665a10.666666666666666 10.666666666666666 0 0 1 10.666666666666666 10.666666666666666v24.117333333333335h24.106666666666662a10.666666666666666 10.666666666666666 0 0 1 10.666666666666666 10.666666666666666v19.626666666666665a10.666666666666666 10.666666666666666 0 0 1 -10.666666666666666 10.666666666666666h-24.106666666666662v24.117333333333335a10.666666666666666 10.666666666666666 0 0 1 -10.666666666666666 10.666666666666666h-19.626666666666665a10.666666666666666 10.666666666666666 0 0 1 -10.666666666666666 -10.666666666666666l0 -24.117333333333335H83.40266666666666a10.666666666666666 10.666666666666666 0 0 1 -10.666666666666666 -10.666666666666666v-19.626666666666665a10.666666666666666 10.666666666666666 0 0 1 10.666666666666666 -10.666666666666666h24.106666666666662V83.41333333333333a10.666666666666666 10.666666666666666 0 0 1 10.666666666666666 -10.666666666666666Z" clip-rule="evenodd" stroke-width="10.6667"></path>
</svg>