<svg xmlns="http://www.w3.org/2000/svg" id="Fiber-Access-1--Streamline-Ultimate" width="256" height="256" fill="none" viewBox="0 0 256 256"><desc>Fiber Access 1 Streamline Icon: https://streamlinehq.com</desc><path fill="#fff" fill-rule="evenodd" stroke-width="10.667" d="M85.33333333333333 58.666666666666664a21.333333333333332 21.333333333333332 0 0 1 35.70133333333333 -15.776c0.10666666666666666 0.17066666666666666 0.20266666666666666 0.33066666666666666 0.31999999999999995 0.49066666666666664l5.205333333333333 7.573333333333332A21.333333333333332 21.333333333333332 0 1 1 85.33333333333333 58.666666666666664Zm-15.626666666666667 -21.333333333333332H10.666666666666666a10.666666666666666 10.666666666666666 0 0 1 0 -21.333333333333332h96a42.666666666666664 42.666666666666664 0 0 1 38.656 24.575999999999997L168.79999999999998 74.66666666666666H213.33333333333331V58.666666666666664a10.666666666666666 10.666666666666666 0 0 1 18.986666666666665 -6.666666666666666l21.28 26.592a10.623999999999999 10.623999999999999 0 0 1 0 13.482666666666667l-21.269333333333332 26.592A10.666666666666666 10.666666666666666 0 0 1 213.33333333333331 112V96h-50.13333333333333a10.666666666666666 10.666666666666666 0 0 1 -8.789333333333332 -4.618666666666666l-9.493333333333332 -13.791999999999998A42.666666666666664 42.666666666666664 0 1 1 69.71733333333333 37.33333333333333ZM85.33333333333333 197.33333333333331a21.333333333333332 21.333333333333332 0 1 1 41.22666666666667 7.712l-5.215999999999999 7.573333333333332 -0.31999999999999995 0.49066666666666664A21.333333333333332 21.333333333333332 0 0 1 85.33333333333333 197.33333333333331Zm59.98933333333333 18.090666666666664A42.666666666666664 42.666666666666664 0 0 1 106.66666666666666 240H10.666666666666666a10.666666666666666 10.666666666666666 0 1 1 0 -21.333333333333332h59.04a42.666666666666664 42.666666666666664 0 1 1 75.19999999999999 -40.256l9.504 -13.791999999999998A10.666666666666666 10.666666666666666 0 0 1 163.2 160H213.33333333333331v-16a10.666666666666666 10.666666666666666 0 0 1 18.986666666666665 -6.666666666666666l21.28 26.592a10.623999999999999 10.623999999999999 0 0 1 0 13.482666666666667l-21.269333333333332 26.592A10.666666666666666 10.666666666666666 0 0 1 213.33333333333331 197.33333333333331V181.33333333333331h-44.53333333333333l-23.477333333333334 34.090666666666664Z" clip-rule="evenodd"/></svg>