<svg xmlns="http://www.w3.org/2000/svg" fill="none" viewBox="0 0 256 256" id="Field-Corner-Kick--Streamline-Ultimate" height="256" width="256">
  <desc>
    Field Corner Kick Streamline Icon: https://streamlinehq.com
  </desc>
  <path fill="#ffffff" fill-rule="evenodd" d="M169.20853333333332 88.73194666666666c-10.202666666666666 -5.6726399999999995 -21.97013333333333 -7.455253333333333 -33.208533333333335 -4.627626666666666v98.50688l52.455466666666666 25.086933333333334c0.6826666666666666 0.2432 1.3472 0.5589333333333333 1.9829333333333334 0.9482666666666667l52.4064 25.063466666666663c5.3141333333333325 2.5418666666666665 7.561599999999999 8.910933333333332 5.019733333333333 14.225066666666665 -2.5408 5.3152 -8.909866666666666 7.562666666666666 -14.225066666666665 5.0207999999999995l-46.25066666666667 -22.119466666666668c-14.897066666666667 14.418133333333332 -37.86026666666666 23.562666666666665 -62.056533333333334 23.562666666666665 -24.177493333333334 0 -46.334720000000004 -8.109866666666665 -61.761599999999994 -22.2592l-41.467306666666666 20.733866666666664c-5.269119999999999 2.6346666666666665 -11.676298666666668 0.4992 -14.310848 -4.770133333333333 -2.634549333333333 -5.269333333333333 -0.49882666666666664 -11.6768 4.770261333333333 -14.311466666666664l47.61962666666666 -23.809066666666666c0.5285333333333333 -0.32426666666666665 1.0778666666666665 -0.5973333333333333 1.6411733333333332 -0.8213333333333332l52.84309333333333 -26.42133333333333V13.473066666666664c0 -3.1383573333333334 1.8346666666666664 -5.986815999999999 4.692266666666667 -7.284309333333333 18.473599999999998 -8.387775999999999 39.80373333333333 -8.54896 57.62453333333333 1.3590293333333332 0.07466666666666666 0.041567999999999994 0.14933333333333332 0.08433066666666666 0.22186666666666666 0.12826666666666664 11.980799999999999 7.173333333333333 27.757866666666665 8.064533333333333 40.62826666666666 1.8033066666666664 2.478933333333333 -1.2061653333333333 5.4048 -1.050624 7.741866666666667 0.41162666666666664 2.3381333333333334 1.4622933333333332 3.7578666666666667 4.025066666666667 3.7578666666666667 6.782293333333333V83.87306666666666c0 3.2288 -1.9413333333333331 6.141119999999999 -4.9216 7.3837866666666665 -17.5872 7.33376 -38.71146666666667 6.117866666666666 -55.02826666666667 -2.4305066666666666l-0.17493333333333333 -0.0944ZM125.4368 201.20639999999997l40.7776 19.501866666666665c-10.462933333333332 7.347199999999999 -24.9696 12.357333333333333 -40.88213333333333 12.357333333333333 -16.03093333333333 0 -30.099093333333332 -4.389333333333333 -40.69589333333333 -11.458133333333333l40.80042666666667 -20.401066666666665Z" clip-rule="evenodd" stroke-width="10.6667"></path>
</svg>