<svg xmlns="http://www.w3.org/2000/svg" id="File-Code-Check--Streamline-Ultimate" width="256" height="256" viewBox="0 0 256 256"><desc>File Code Check Streamline Icon: https://streamlinehq.com</desc><g id="File-Code-Check--Streamline-Ultimate.svg"><path fill="#fff" stroke-width="10.667" d="M69.33333333333333 117.33333333333333a69.33333333333333 69.33333333333333 0 1 0 69.33333333333333 69.33333333333333A69.44 69.44 0 0 0 69.33333333333333 117.33333333333333Zm34.879999999999995 55.57333333333333 -30.93333333333333 41.28a15.893333333333333 15.893333333333333 0 0 1 -11.733333333333334 6.3999999999999995h-1.0666666666666667a16 16 0 0 1 -11.306666666666667 -4.693333333333333l-16 -16a8 8 0 0 1 11.306666666666667 -11.306666666666667L58.346666666666664 202.66666666666666a2.6666666666666665 2.6666666666666665 0 0 0 3.9466666666666663 0l29.119999999999997 -38.82666666666667a8 8 0 0 1 12.799999999999999 9.6Z"/><path fill="#fff" stroke-width="10.667" d="M189.33333333333331 122.66666666666666V160a8 8 0 0 0 16 0v-37.33333333333333a8 8 0 0 0 -16 0Z"/><path fill="#fff" stroke-width="10.667" d="M146.66666666666666 90.66666666666666V53.33333333333333a8 8 0 0 0 -16 0v37.33333333333333a8 8 0 0 0 16 0Z"/><path fill="#fff" stroke-width="10.667" d="M216 85.33333333333333V58.666666666666664A13.333333333333332 13.333333333333332 0 0 0 202.66666666666666 45.33333333333333h-16a13.333333333333332 13.333333333333332 0 0 0 -13.333333333333332 13.333333333333332V85.33333333333333a13.333333333333332 13.333333333333332 0 0 0 13.333333333333332 13.333333333333332H202.66666666666666A13.333333333333332 13.333333333333332 0 0 0 216 85.33333333333333Zm-16 -5.333333333333333a2.6666666666666665 2.6666666666666665 0 0 1 -2.6666666666666665 2.6666666666666665H192a2.6666666666666665 2.6666666666666665 0 0 1 -2.6666666666666665 -2.6666666666666665V64a2.6666666666666665 2.6666666666666665 0 0 1 2.6666666666666665 -2.6666666666666665h5.333333333333333a2.6666666666666665 2.6666666666666665 0 0 1 2.6666666666666665 2.6666666666666665Z"/><path fill="#fff" stroke-width="10.667" d="M249.70666666666665 32 224 6.293333333333333A21.333333333333332 21.333333333333332 0 0 0 208.95999999999998 0H85.33333333333333a21.333333333333332 21.333333333333332 0 0 0 -21.333333333333332 21.333333333333332v77.65333333333334a2.7733333333333334 2.7733333333333334 0 0 0 2.5599999999999996 2.6666666666666665c3.9466666666666663 0 10.666666666666666 0 15.893333333333333 0.8533333333333333A2.6666666666666665 2.6666666666666665 0 0 0 85.33333333333333 99.83999999999999V26.666666666666664a5.333333333333333 5.333333333333333 0 0 1 5.333333333333333 -5.333333333333333h116.05333333333334a5.013333333333333 5.013333333333333 0 0 1 3.733333333333333 1.5999999999999999l22.613333333333333 22.613333333333333a5.013333333333333 5.013333333333333 0 0 1 1.5999999999999999 3.733333333333333V192a5.333333333333333 5.333333333333333 0 0 1 -5.333333333333333 5.333333333333333h-73.17333333333333a2.6666666666666665 2.6666666666666665 0 0 0 -2.5599999999999996 2.2399999999999998 94.93333333333334 94.93333333333334 0 0 1 -4.266666666666667 15.573333333333332 2.5599999999999996 2.5599999999999996 0 0 0 2.453333333333333 3.52H234.66666666666666a21.333333333333332 21.333333333333332 0 0 0 21.333333333333332 -21.333333333333332V47.04A21.333333333333332 21.333333333333332 0 0 0 249.70666666666665 32Z"/><path fill="#fff" stroke-width="10.667" d="M153.70666666666665 167.04a13.12 13.12 0 0 0 8.959999999999999 -12.373333333333331V128A13.333333333333332 13.333333333333332 0 0 0 149.33333333333331 114.66666666666666h-16a12.586666666666666 12.586666666666666 0 0 0 -9.706666666666667 4.586666666666666s0 1.5999999999999999 0 1.92a73.49333333333333 73.49333333333333 0 0 1 10.666666666666666 10.666666666666666c0.5333333333333333 0.5333333333333333 1.3866666666666667 1.2799999999999998 1.3866666666666667 0s0 -1.4933333333333334 1.1733333333333333 -1.4933333333333334h6.826666666666666a2.6666666666666665 2.6666666666666665 0 0 1 2.6666666666666665 2.6666666666666665v16.96a3.84 3.84 0 0 0 0 1.0666666666666667 79.14666666666666 79.14666666666666 0 0 1 5.119999999999999 14.613333333333333 2.1333333333333333 2.1333333333333333 0 0 0 2.2399999999999998 1.3866666666666667Z"/></g></svg>