<svg xmlns="http://www.w3.org/2000/svg" viewBox="0 0 256 256" id="File-Code--Streamline-Ultimate" height="256" width="256">
  <desc>
    File Code Streamline Icon: https://streamlinehq.com
  </desc>
  <path d="M228.37333333333333 52.373333333333335 182.29333333333332 6.293333333333333A21.333333333333332 21.333333333333332 0 0 0 167.14666666666665 0H42.666666666666664a21.333333333333332 21.333333333333332 0 0 0 -21.333333333333332 21.333333333333332v213.33333333333331a21.333333333333332 21.333333333333332 0 0 0 21.333333333333332 21.333333333333332h170.66666666666666a21.333333333333332 21.333333333333332 0 0 0 21.333333333333332 -21.333333333333332V67.52a21.333333333333332 21.333333333333332 0 0 0 -6.293333333333333 -15.146666666666665ZM115.83999999999999 202.66666666666666a8.106666666666666 8.106666666666666 0 0 1 -11.306666666666667 0l-35.733333333333334 -38.72a7.893333333333333 7.893333333333333 0 0 1 0 -10.666666666666666l35.626666666666665 -38.18666666666667a8 8 0 0 1 11.52 10.666666666666666l-28.586666666666666 30.93333333333333a2.6666666666666665 2.6666666666666665 0 0 0 0 3.626666666666667l28.69333333333333 30.826666666666668a7.893333333333333 7.893333333333333 0 0 1 -0.21333333333333332 11.52Zm71.36 -38.29333333333333 -35.626666666666665 38.08a8.213333333333333 8.213333333333333 0 0 1 -10.666666666666666 0 8 8 0 0 1 0 -11.306666666666667l27.733333333333334 -31.146666666666665a2.6666666666666665 2.6666666666666665 0 0 0 0 -3.626666666666667l-28.69333333333333 -30.506666666666664a8 8 0 0 1 0 -11.306666666666667 8 8 0 0 1 11.306666666666667 0l35.519999999999996 38.18666666666667a7.893333333333333 7.893333333333333 0 0 1 0.42666666666666664 11.2Z" fill="#ffffff" stroke-width="10.6667"></path>
</svg>