<svg xmlns="http://www.w3.org/2000/svg" id="File-C-Plus-Plus--Streamline-Ultimate" width="256" height="256" viewBox="0 0 256 256"><desc>File C Plus Plus Streamline Icon: https://streamlinehq.com</desc><g id="File-C-Plus-Plus--Streamline-Ultimate.svg"><path fill="#fff" stroke-width="10.667" d="M186.66666666666666 64h41.599999999999994a2.6666666666666665 2.6666666666666665 0 0 0 1.8133333333333335 -4.586666666666666L175.25333333333333 4.586666666666666A2.6666666666666665 2.6666666666666665 0 0 0 170.66666666666666 6.3999999999999995v41.599999999999994A16 16 0 0 0 186.66666666666666 64Z"/><path fill="#fff" stroke-width="10.667" d="M232 74.66666666666666H186.66666666666666A26.666666666666664 26.666666666666664 0 0 1 160 48V2.6666666666666665a2.6666666666666665 2.6666666666666665 0 0 0 -2.6666666666666665 -2.6666666666666665H42.666666666666664a21.333333333333332 21.333333333333332 0 0 0 -21.333333333333332 21.333333333333332v213.33333333333331a21.333333333333332 21.333333333333332 0 0 0 21.333333333333332 21.333333333333332h170.66666666666666a21.333333333333332 21.333333333333332 0 0 0 21.333333333333332 -21.333333333333332V77.33333333333333a2.6666666666666665 2.6666666666666665 0 0 0 -2.6666666666666665 -2.6666666666666665ZM80 196.0533333333333a6.72 6.72 0 0 1 0 13.333333333333332 38.72 38.72 0 0 1 0 -77.33333333333333 6.72 6.72 0 0 1 0 13.333333333333332 25.386666666666663 25.386666666666663 0 1 0 0 50.666666666666664Zm64 -18.666666666666664h-11.946666666666667a2.7733333333333334 2.7733333333333334 0 0 0 -2.7733333333333334 2.6666666666666665V192a6.613333333333333 6.613333333333333 0 1 1 -13.226666666666667 0v-11.946666666666667a2.7733333333333334 2.7733333333333334 0 0 0 -2.7733333333333334 -2.6666666666666665H101.33333333333333a6.72 6.72 0 0 1 0 -13.333333333333332h11.946666666666667a2.7733333333333334 2.7733333333333334 0 0 0 2.7733333333333334 -2.6666666666666665V149.33333333333331a6.613333333333333 6.613333333333333 0 0 1 13.226666666666667 0v12.053333333333331a2.7733333333333334 2.7733333333333334 0 0 0 2.7733333333333334 2.6666666666666665h11.946666666666667a6.72 6.72 0 0 1 0 13.333333333333332Zm64 0h-11.946666666666667a2.7733333333333334 2.7733333333333334 0 0 0 -2.7733333333333334 2.6666666666666665V192a6.613333333333333 6.613333333333333 0 1 1 -13.226666666666667 0v-11.946666666666667a2.7733333333333334 2.7733333333333334 0 0 0 -2.7733333333333334 -2.6666666666666665H165.33333333333331a6.72 6.72 0 0 1 0 -13.333333333333332h11.946666666666667a2.7733333333333334 2.7733333333333334 0 0 0 2.7733333333333334 -2.6666666666666665V149.33333333333331a6.613333333333333 6.613333333333333 0 1 1 13.226666666666667 0v12.053333333333331a2.7733333333333334 2.7733333333333334 0 0 0 2.7733333333333334 2.6666666666666665h11.946666666666667a6.72 6.72 0 0 1 0 13.333333333333332Z"/></g></svg>