<svg xmlns="http://www.w3.org/2000/svg" id="File-Code-Edit-1--Streamline-Ultimate" width="256" height="256" viewBox="0 0 256 256"><desc>File Code Edit 1 Streamline Icon: https://streamlinehq.com</desc><g id="File-Code-Edit-1--Streamline-Ultimate.svg"><path fill="#fff" stroke-width="10.667" d="M156.58666666666664 132.16a8.106666666666666 8.106666666666666 0 0 0 0 -10.666666666666666l-21.333333333333332 -23.253333333333334a2.6666666666666665 2.6666666666666665 0 0 1 0 -3.626666666666667l21.333333333333332 -23.146666666666665a8 8 0 0 0 -11.413333333333334 -10.666666666666666L117.33333333333333 90.34666666666666a8.106666666666666 8.106666666666666 0 0 0 0 10.666666666666666l28.479999999999997 30.4a8.106666666666666 8.106666666666666 0 0 0 10.773333333333333 0.7466666666666667Z"/><path fill="#fff" stroke-width="10.667" d="M173.76 120.85333333333332a8 8 0 0 0 11.413333333333334 10.666666666666666l28.69333333333333 -30.186666666666667a8.106666666666666 8.106666666666666 0 0 0 0 -10.666666666666666l-28.479999999999997 -30.826666666666668a8 8 0 0 0 -11.306666666666667 0 7.786666666666666 7.786666666666666 0 0 0 0 11.306666666666667l21.333333333333332 23.146666666666665a2.6666666666666665 2.6666666666666665 0 0 1 0 3.626666666666667Z"/><path fill="#fff" stroke-width="10.667" d="M249.70666666666665 34.026666666666664 224 8.213333333333333a21.333333333333332 21.333333333333332 0 0 0 -15.04 -6.186666666666666H85.33333333333333a21.333333333333332 21.333333333333332 0 0 0 -21.333333333333332 21.333333333333332v92.69333333333333a3.093333333333333 3.093333333333333 0 0 0 0.7466666666666667 1.92l16 16a2.6666666666666665 2.6666666666666665 0 0 0 4.586666666666666 -1.92V28.69333333333333a5.333333333333333 5.333333333333333 0 0 1 5.333333333333333 -5.333333333333333h116.05333333333334a5.013333333333333 5.013333333333333 0 0 1 3.733333333333333 1.5999999999999999l22.613333333333333 22.613333333333333a5.013333333333333 5.013333333333333 0 0 1 1.5999999999999999 3.733333333333333v142.72a5.333333333333333 5.333333333333333 0 0 1 -5.333333333333333 5.333333333333333h-81.38666666666666a2.7733333333333334 2.7733333333333334 0 0 0 -2.6666666666666665 3.3066666666666666c1.1733333333333333 4.4799999999999995 2.88 12.266666666666666 3.733333333333333 16a2.7733333333333334 2.7733333333333334 0 0 0 2.5599999999999996 2.0266666666666664H234.66666666666666a21.333333333333332 21.333333333333332 0 0 0 21.333333333333332 -21.333333333333332V49.06666666666666a21.333333333333332 21.333333333333332 0 0 0 -6.293333333333333 -15.04Z"/><path fill="#fff" stroke-width="10.667" d="m118.93333333333334 194.77333333333334 -70.18666666666667 -70.18666666666667A29.013333333333335 29.013333333333335 0 0 0 10.666666666666666 121.6a28.16 28.16 0 0 0 -2.1333333333333333 41.49333333333333L79.36 234.66666666666666a2.6666666666666665 2.6666666666666665 0 0 0 3.84 0l35.733333333333334 -35.733333333333334a2.5599999999999996 2.5599999999999996 0 0 0 0 -4.16Z"/><path fill="#fff" stroke-width="10.667" d="m127.35999999999999 212.69333333333333 -29.973333333333333 29.973333333333333a2.6666666666666665 2.6666666666666665 0 0 0 1.3866666666666667 4.4799999999999995l33.49333333333333 6.72h1.0666666666666667a5.333333333333333 5.333333333333333 0 0 0 3.733333333333333 -1.4933333333333334 5.4399999999999995 5.4399999999999995 0 0 0 1.4933333333333334 -4.8l-6.72 -33.599999999999994a2.6666666666666665 2.6666666666666665 0 0 0 -4.4799999999999995 -1.2799999999999998Z"/></g></svg>