<svg xmlns="http://www.w3.org/2000/svg" viewBox="0 0 256 256" id="File-Html--Streamline-Ultimate" height="256" width="256">
  <desc>
    File Html Streamline Icon: https://streamlinehq.com
  </desc>
  <g id="File-Html--Streamline-Ultimate.svg">
    <path d="M165.33333333333331 64h41.599999999999994a2.6666666666666665 2.6666666666666665 0 0 0 1.8133333333333335 -4.586666666666666L153.92 4.586666666666666A2.6666666666666665 2.6666666666666665 0 0 0 149.33333333333331 6.3999999999999995v41.599999999999994A16 16 0 0 0 165.33333333333331 64Z" fill="#ffffff" stroke-width="10.6667"></path>
    <path d="M243.2 106.66666666666666H34.666666666666664A2.6666666666666665 2.6666666666666665 0 0 1 32 104V96a2.6666666666666665 2.6666666666666665 0 0 1 2.6666666666666665 -2.6666666666666665h176A2.6666666666666665 2.6666666666666665 0 0 0 213.33333333333331 90.66666666666666V77.33333333333333a2.6666666666666665 2.6666666666666665 0 0 0 -2.6666666666666665 -2.6666666666666665H165.33333333333331A26.666666666666664 26.666666666666664 0 0 1 138.66666666666666 48V2.6666666666666665a2.6666666666666665 2.6666666666666665 0 0 0 -2.6666666666666665 -2.6666666666666665H21.333333333333332a21.333333333333332 21.333333333333332 0 0 0 -21.333333333333332 21.333333333333332v213.33333333333331a21.333333333333332 21.333333333333332 0 0 0 21.333333333333332 21.333333333333332h170.66666666666666a21.333333333333332 21.333333333333332 0 0 0 20.69333333333333 -16.426666666666666c0 -0.7466666666666667 0 -2.2399999999999998 -1.3866666666666667 -2.2399999999999998H34.666666666666664A2.6666666666666665 2.6666666666666665 0 0 1 32 234.66666666666666v-8a2.6666666666666665 2.6666666666666665 0 0 1 2.6666666666666665 -2.6666666666666665H243.2a11.946666666666667 11.946666666666667 0 0 0 12.799999999999999 -10.666666666666666v-96a11.946666666666667 11.946666666666667 0 0 0 -12.799999999999999 -10.666666666666666ZM70.61333333333333 197.33333333333331a6.613333333333333 6.613333333333333 0 1 1 -13.226666666666667 0v-22.613333333333333a2.7733333333333334 2.7733333333333334 0 0 0 -2.7733333333333334 -2.6666666666666665H41.38666666666666a2.7733333333333334 2.7733333333333334 0 0 0 -2.7733333333333334 2.6666666666666665v22.613333333333333a6.613333333333333 6.613333333333333 0 1 1 -13.226666666666667 0v-64a6.613333333333333 6.613333333333333 0 0 1 13.226666666666667 0v22.72a2.7733333333333334 2.7733333333333334 0 0 0 2.7733333333333334 2.6666666666666665h13.226666666666667a2.7733333333333334 2.7733333333333334 0 0 0 2.7733333333333334 -2.6666666666666665V133.33333333333331a6.613333333333333 6.613333333333333 0 0 1 13.226666666666667 0ZM128 140.05333333333334h-11.946666666666667a2.7733333333333334 2.7733333333333334 0 0 0 -2.7733333333333334 2.6666666666666665v54.61333333333333a6.613333333333333 6.613333333333333 0 1 1 -13.226666666666667 0v-54.61333333333333a2.7733333333333334 2.7733333333333334 0 0 0 -2.7733333333333334 -2.6666666666666665H85.33333333333333a6.72 6.72 0 0 1 0 -13.333333333333332h42.666666666666664a6.72 6.72 0 0 1 0 13.333333333333332Zm59.946666666666665 57.28a6.613333333333333 6.613333333333333 0 1 1 -13.226666666666667 0v-31.253333333333334c0 -1.3866666666666667 -1.7066666666666666 -1.1733333333333333 -2.2399999999999998 0l-1.1733333333333333 2.3466666666666667a7.04 7.04 0 0 1 -11.946666666666667 0l-1.2799999999999998 -2.5599999999999996c0 -0.96 -2.1333333333333333 -0.7466666666666667 -2.1333333333333333 0v31.46666666666667a6.613333333333333 6.613333333333333 0 1 1 -13.226666666666667 0v-64a6.613333333333333 6.613333333333333 0 0 1 5.119999999999999 -6.506666666666666 6.72 6.72 0 0 1 7.466666666666666 3.52l8.746666666666666 17.599999999999998a1.3866666666666667 1.3866666666666667 0 0 0 2.453333333333333 0l8.853333333333332 -17.706666666666663a6.826666666666666 6.826666666666666 0 0 1 7.466666666666666 -3.52 6.613333333333333 6.613333333333333 0 0 1 5.119999999999999 6.506666666666666Zm46.72 6.72h-21.333333333333332a17.28 17.28 0 0 1 -17.28 -17.386666666666663v-53.33333333333333a6.613333333333333 6.613333333333333 0 1 1 13.226666666666667 0v53.33333333333333a4.053333333333333 4.053333333333333 0 0 0 4.053333333333333 4.053333333333333h21.333333333333332a6.72 6.72 0 0 1 0 13.333333333333332Z" fill="#ffffff" stroke-width="10.6667"></path>
  </g>
</svg>