<svg xmlns="http://www.w3.org/2000/svg" viewBox="0 0 256 256" id="Filter-Sort-Lines-Descending--Streamline-Ultimate" height="256" width="256">
  <desc>
    Filter Sort Lines Descending Streamline Icon: https://streamlinehq.com
  </desc>
  <g id="Filter-Sort-Lines-Descending--Streamline-Ultimate.svg">
    <path d="M245.33333333333331 58.239999999999995H10.666666666666666a10.666666666666666 10.666666666666666 0 0 1 0 -21.333333333333332h234.66666666666666a10.666666666666666 10.666666666666666 0 0 1 0 21.333333333333332Z" fill="#ffffff" stroke-width="10.6667"></path>
    <path d="M220.37333333333333 111.89333333333333H35.626666666666665a10.666666666666666 10.666666666666666 0 0 1 0 -21.333333333333332h184.74666666666667a10.666666666666666 10.666666666666666 0 0 1 0 21.333333333333332Z" fill="#ffffff" stroke-width="10.6667"></path>
    <path d="M162.24 219.0933333333333H93.75999999999999a10.666666666666666 10.666666666666666 0 1 1 0 -21.333333333333332h68.47999999999999a10.666666666666666 10.666666666666666 0 0 1 0 21.333333333333332Z" fill="#ffffff" stroke-width="10.6667"></path>
    <path d="M195.30666666666664 165.44H60.693333333333335a10.666666666666666 10.666666666666666 0 1 1 0 -21.333333333333332h134.61333333333332a10.666666666666666 10.666666666666666 0 0 1 0 21.333333333333332Z" fill="#ffffff" stroke-width="10.6667"></path>
  </g>
</svg>