<svg xmlns="http://www.w3.org/2000/svg" id="Filter-1--Streamline-Ultimate" width="256" height="256" viewBox="0 0 256 256"><desc>Filter 1 Streamline Icon: https://streamlinehq.com</desc><path fill="#fff" stroke-width="10.667" d="M243.51999999999998 38.18666666666667A24 24 0 0 0 224 0H32a24.106666666666662 24.106666666666662 0 0 0 -21.333333333333332 13.226666666666667 23.68 23.68 0 0 0 1.92 24.746666666666663l75.73333333333332 108.47999999999999v85.33333333333333A24.106666666666662 24.106666666666662 0 0 0 114.34666666666666 256a31.146666666666665 31.146666666666665 0 0 0 16.746666666666666 -4.373333333333333l26.346666666666668 -16.426666666666666a24.21333333333333 24.21333333333333 0 0 0 9.6 -19.2v-69.44Zm-100.69333333333333 96a13.12 13.12 0 0 0 -2.453333333333333 7.68v69.12a5.333333333333333 5.333333333333333 0 0 1 -2.5599999999999996 4.586666666666666l-15.04 8.853333333333332a5.333333333333333 5.333333333333333 0 0 1 -5.333333333333333 0 5.333333333333333 5.333333333333333 0 0 1 -2.6666666666666665 -4.586666666666666v-77.54666666666665a13.226666666666667 13.226666666666667 0 0 0 -2.3466666666666667 -7.573333333333332L42.666666666666664 35.093333333333334a5.4399999999999995 5.4399999999999995 0 0 1 0 -5.546666666666667 5.333333333333333 5.333333333333333 0 0 1 4.8 -2.88h161.17333333333332a5.333333333333333 5.333333333333333 0 0 1 4.8 2.88 5.4399999999999995 5.4399999999999995 0 0 1 0 5.546666666666667Z"/></svg>