<svg xmlns="http://www.w3.org/2000/svg" id="Filter-2-1--Streamline-Ultimate" width="256" height="256" viewBox="0 0 256 256"><desc>Filter 2 1 Streamline Icon: https://streamlinehq.com</desc><g id="Filter-2-1--Streamline-Ultimate.svg"><path fill="#fff" stroke-width="10.667" d="M234.66666666666666 0H58.666666666666664a21.333333333333332 21.333333333333332 0 0 0 -21.333333333333332 21.333333333333332v176a21.333333333333332 21.333333333333332 0 0 0 21.333333333333332 21.333333333333332H234.66666666666666a21.333333333333332 21.333333333333332 0 0 0 21.333333333333332 -21.333333333333332V21.333333333333332a21.333333333333332 21.333333333333332 0 0 0 -21.333333333333332 -21.333333333333332Zm-58.666666666666664 157.33333333333331H117.33333333333333a8.106666666666666 8.106666666666666 0 0 1 -5.333333333333333 -14.08l38.4 -33.81333333333333c10.666666666666666 -9.173333333333332 13.866666666666667 -12.799999999999999 11.946666666666667 -22.506666666666664a18.666666666666664 18.666666666666664 0 0 0 -37.013333333333335 3.733333333333333 8 8 0 0 1 -16 0 34.666666666666664 34.666666666666664 0 0 1 68.69333333333333 -6.933333333333334c3.84 19.306666666666665 -6.826666666666666 28.69333333333333 -17.066666666666666 37.76L138.66666666666666 141.33333333333331h37.33333333333333a8 8 0 0 1 0 16Z"/><path fill="#fff" stroke-width="10.667" d="M208 234.66666666666666h-181.33333333333331a5.333333333333333 5.333333333333333 0 0 1 -5.333333333333333 -5.333333333333333v-181.33333333333331a10.666666666666666 10.666666666666666 0 0 0 -21.333333333333332 0V234.66666666666666a21.333333333333332 21.333333333333332 0 0 0 21.333333333333332 21.333333333333332h186.66666666666666a10.666666666666666 10.666666666666666 0 0 0 0 -21.333333333333332Z"/></g></svg>