<svg xmlns="http://www.w3.org/2000/svg" id="Firework-2--Streamline-Ultimate" width="256" height="256" viewBox="0 0 256 256"><desc>Firework 2 Streamline Icon: https://streamlinehq.com</desc><g id="Firework-2--Streamline-Ultimate.svg"><path fill="#fff" stroke-width="10.667" d="M231.25333333333333 189.76a16.32 16.32 0 1 0 16.21333333333333 16.21333333333333 16.21333333333333 16.21333333333333 0 0 0 -16.21333333333333 -16.21333333333333Z"/><path fill="#fff" stroke-width="10.667" d="M231.25333333333333 32.53333333333333a16.32 16.32 0 1 0 -16.21333333333333 -16.32 16.32 16.32 0 0 0 16.21333333333333 16.32Z"/><path fill="#fff" stroke-width="10.667" d="M30.29333333333333 32.53333333333333a16.32 16.32 0 1 0 0 -32 16.32 16.32 0 0 0 0 32.53333333333333Z"/><path fill="#fff" stroke-width="10.667" d="M24.746666666666663 195.30666666666664a16.32 16.32 0 1 0 16.21333333333333 16.32 16.32 16.32 0 0 0 -16.21333333333333 -16.32Z"/><path fill="#fff" stroke-width="10.667" d="M130.7733333333333 93.01333333333334a27.946666666666665 27.946666666666665 0 0 0 -27.946666666666665 27.946666666666665V245.33333333333331a10.666666666666666 10.666666666666666 0 0 0 10.666666666666666 10.666666666666666h34.56a10.666666666666666 10.666666666666666 0 0 0 10.666666666666666 -10.666666666666666V120.96a27.946666666666665 27.946666666666665 0 0 0 -27.946666666666665 -27.946666666666665Z"/><path fill="#fff" stroke-width="10.667" d="M234.02666666666667 100.47999999999999h-44.58666666666666a10.666666666666666 10.666666666666666 0 0 0 0 21.333333333333332h44.58666666666666a10.666666666666666 10.666666666666666 0 0 0 0 -21.333333333333332Z"/><path fill="#fff" stroke-width="10.667" d="M16.85333333333333 111.14666666666666a10.666666666666666 10.666666666666666 0 0 0 10.666666666666666 10.666666666666666h44.693333333333335a10.666666666666666 10.666666666666666 0 0 0 0 -21.333333333333332H27.52a10.666666666666666 10.666666666666666 0 0 0 -10.666666666666666 10.666666666666666Z"/><path fill="#fff" stroke-width="10.667" d="M130.7733333333333 79.89333333333333a10.666666666666666 10.666666666666666 0 0 0 10.666666666666666 -10.666666666666666V24.64a10.666666666666666 10.666666666666666 0 0 0 -21.333333333333332 0v44.58666666666666a10.666666666666666 10.666666666666666 0 0 0 10.666666666666666 10.666666666666666Z"/><path fill="#fff" stroke-width="10.667" d="m216.53333333333333 170.66666666666666 -19.626666666666665 -19.626666666666665a10.666666666666666 10.666666666666666 0 0 0 -15.04 15.04l19.626666666666665 19.733333333333334a10.666666666666666 10.666666666666666 0 0 0 7.573333333333332 3.093333333333333 10.666666666666666 10.666666666666666 0 0 0 7.466666666666666 -3.093333333333333 10.666666666666666 10.666666666666666 0 0 0 0 -15.146666666666665Z"/><path fill="#fff" stroke-width="10.667" d="M71.25333333333333 33.70666666666666a10.666666666666666 10.666666666666666 0 0 0 -15.146666666666665 0 10.666666666666666 10.666666666666666 0 0 0 0 15.04l19.733333333333334 19.733333333333334A10.666666666666666 10.666666666666666 0 0 0 90.88 53.33333333333333Z"/><path fill="#fff" stroke-width="10.667" d="M205.44 48.74666666666667a10.666666666666666 10.666666666666666 0 0 0 0 -15.04 10.666666666666666 10.666666666666666 0 0 0 -15.146666666666665 0l-22.4 22.4a10.666666666666666 10.666666666666666 0 0 0 0 15.146666666666665 10.666666666666666 10.666666666666666 0 0 0 7.573333333333332 3.093333333333333 10.666666666666666 10.666666666666666 0 0 0 7.466666666666666 -3.093333333333333Z"/><path fill="#fff" stroke-width="10.667" d="M67.41333333333333 148.26666666666665 45.01333333333333 170.66666666666666a10.666666666666666 10.666666666666666 0 0 0 15.04 15.146666666666665l22.506666666666664 -22.506666666666664a10.666666666666666 10.666666666666666 0 0 0 0 -15.04 10.666666666666666 10.666666666666666 0 0 0 -15.146666666666665 0Z"/></g></svg>