<svg xmlns="http://www.w3.org/2000/svg" id="Fitbit-Logo--Streamline-Ultimate" width="256" height="256" viewBox="0 0 256 256"><desc>Fitbit Logo Streamline Icon: https://streamlinehq.com</desc><g id="Fitbit-Logo--Streamline-Ultimate.svg"><path fill="#fff" stroke-width="10.667" d="M197.33333333333331 128a26.666666666666664 26.666666666666664 0 1 0 53.33333333333333 0 26.666666666666664 26.666666666666664 0 1 0 -53.33333333333333 0"/><path fill="#fff" stroke-width="10.667" d="M90.66666666666666 128a21.333333333333332 21.333333333333332 0 1 0 42.666666666666664 0 21.333333333333332 21.333333333333332 0 1 0 -42.666666666666664 0"/><path fill="#fff" stroke-width="10.667" d="M48 128a16 16 0 1 0 32 0 16 16 0 1 0 -32 0"/><path fill="#fff" stroke-width="10.667" d="M5.333333333333333 128a16 16 0 1 0 32 0 16 16 0 1 0 -32 0"/><path fill="#fff" stroke-width="10.667" d="M90.66666666666666 181.33333333333331a21.333333333333332 21.333333333333332 0 1 0 42.666666666666664 0 21.333333333333332 21.333333333333332 0 1 0 -42.666666666666664 0"/><path fill="#fff" stroke-width="10.667" d="M48 181.33333333333331a16 16 0 1 0 32 0 16 16 0 1 0 -32 0"/><path fill="#fff" stroke-width="10.667" d="M112 53.33333333333333a21.333333333333332 21.333333333333332 0 1 0 21.333333333333332 21.333333333333332 21.333333333333332 21.333333333333332 0 0 0 -21.333333333333332 -21.333333333333332Z"/><path fill="#fff" stroke-width="10.667" d="M144 128a21.333333333333332 21.333333333333332 0 1 0 42.666666666666664 0 21.333333333333332 21.333333333333332 0 1 0 -42.666666666666664 0"/><path fill="#fff" stroke-width="10.667" d="M144 181.33333333333331a21.333333333333332 21.333333333333332 0 1 0 42.666666666666664 0 21.333333333333332 21.333333333333332 0 1 0 -42.666666666666664 0"/><path fill="#fff" stroke-width="10.667" d="M165.33333333333331 53.33333333333333a21.333333333333332 21.333333333333332 0 1 0 21.333333333333332 21.333333333333332 21.333333333333332 21.333333333333332 0 0 0 -21.333333333333332 -21.333333333333332Z"/><path fill="#fff" stroke-width="10.667" d="M112 0a21.333333333333332 21.333333333333332 0 1 0 21.333333333333332 21.333333333333332 21.333333333333332 21.333333333333332 0 0 0 -21.333333333333332 -21.333333333333332Z"/><path fill="#fff" stroke-width="10.667" d="M90.66666666666666 234.66666666666666a21.333333333333332 21.333333333333332 0 1 0 42.666666666666664 0 21.333333333333332 21.333333333333332 0 1 0 -42.666666666666664 0"/><path fill="#fff" stroke-width="10.667" d="M64 58.666666666666664A16 16 0 1 0 80 74.66666666666666 16 16 0 0 0 64 58.666666666666664Z"/></g></svg>