<svg xmlns="http://www.w3.org/2000/svg" id="Fitness-Shaker--Streamline-Ultimate" width="256" height="256" viewBox="0 0 256 256"><desc>Fitness Shaker Streamline Icon: https://streamlinehq.com</desc><g id="Fitness-Shaker--Streamline-Ultimate.svg"><path fill="#fff" stroke-width="10.667" d="M160 21.333333333333332h-13.333333333333332a5.333333333333333 5.333333333333333 0 0 1 -5.333333333333333 -5.333333333333333v-2.6666666666666665a13.333333333333332 13.333333333333332 0 0 0 -26.666666666666664 0v2.6666666666666665a5.333333333333333 5.333333333333333 0 0 1 -5.333333333333333 5.333333333333333H96a26.666666666666664 26.666666666666664 0 0 0 -26.666666666666664 26.666666666666664v10.666666666666666A5.333333333333333 5.333333333333333 0 0 0 74.66666666666666 64h106.66666666666666a5.333333333333333 5.333333333333333 0 0 0 5.333333333333333 -5.333333333333333v-10.666666666666666A26.666666666666664 26.666666666666664 0 0 0 160 21.333333333333332Z"/><path fill="#fff" stroke-width="10.667" d="M181.33333333333331 80H74.66666666666666a5.333333333333333 5.333333333333333 0 0 0 -5.333333333333333 5.333333333333333v11.733333333333334a15.893333333333333 15.893333333333333 0 0 0 4.4799999999999995 10.666666666666666l15.786666666666665 16.85333333333333a5.226666666666667 5.226666666666667 0 0 1 0 7.359999999999999l-15.68 15.893333333333333a15.68 15.68 0 0 0 -4.586666666666666 11.2v70.29333333333332A26.666666666666664 26.666666666666664 0 0 0 96 256h64a26.666666666666664 26.666666666666664 0 0 0 26.666666666666664 -26.666666666666664v-70.18666666666667a16.32 16.32 0 0 0 -4.8 -11.413333333333334l-15.786666666666665 -15.466666666666665a5.546666666666667 5.546666666666667 0 0 1 -1.7066666666666666 -3.733333333333333 5.013333333333333 5.013333333333333 0 0 1 1.5999999999999999 -3.733333333333333l16.106666666666666 -16.64a15.68 15.68 0 0 0 4.586666666666666 -11.2V85.33333333333333a5.333333333333333 5.333333333333333 0 0 0 -5.333333333333333 -5.333333333333333ZM153.49333333333334 181.33333333333331l-29.65333333333333 34.56a2.6666666666666665 2.6666666666666665 0 0 1 -4.693333333333333 -1.7066666666666666v-23.04a5.333333333333333 5.333333333333333 0 0 0 -5.333333333333333 -5.333333333333333H104.53333333333333a2.6666666666666665 2.6666666666666665 0 0 1 -2.453333333333333 -1.5999999999999999 2.88 2.88 0 0 1 0 -2.88l29.65333333333333 -34.56a2.6666666666666665 2.6666666666666665 0 0 1 4.693333333333333 1.7066666666666666v23.04a5.333333333333333 5.333333333333333 0 0 0 5.333333333333333 5.333333333333333h9.28a2.6666666666666665 2.6666666666666665 0 0 1 2.453333333333333 1.5999999999999999 2.88 2.88 0 0 1 0 2.88Z"/></g></svg>