<svg xmlns="http://www.w3.org/2000/svg" viewBox="0 0 256 256" id="Fitness-Bicycle-1--Streamline-Ultimate" height="256" width="256">
  <desc>
    Fitness Bicycle 1 Streamline Icon: https://streamlinehq.com
  </desc>
  <g id="Fitness-Bicycle-1--Streamline-Ultimate.svg">
    <path d="M68.02879999999999 179.86666666666667c0 10.036266666666666 10.863999999999999 16.30933333333333 19.5552 11.290666666666667 4.034133333333333 -2.328533333333333 6.519466666666666 -6.632533333333333 6.519466666666666 -11.290666666666667 0 -10.036266666666666 -10.865066666666666 -16.308266666666665 -19.556266666666666 -11.290666666666667 -4.034133333333333 2.3296 -6.5184 6.6335999999999995 -6.5184 11.290666666666667" fill="#ffffff" stroke-width="10.6667"></path>
    <path d="M194.02026666666666 86.72853333333333c1.0432 -0.8341333333333334 3.7557333333333336 -0.8341333333333334 8.657066666666665 -0.7296h8.7616c32.1152 0 52.18773333333333 -34.76693333333333 36.12906666666667 -62.57919999999999C240.11626666666666 10.512 226.34346666666664 2.5599999999999996 211.4389333333333 2.5599999999999996h-46.9344c-8.0288 0.025599999999999998 -13.019733333333331 8.7328 -8.982399999999998 15.6736 1.861333333333333 3.1999999999999997 5.279999999999999 5.1743999999999994 8.982399999999998 5.186133333333333h46.9344c16.0576 0 26.093866666666663 17.382399999999997 18.065066666666667 31.289599999999997 -3.726933333333333 6.453333333333333 -10.613333333333333 10.429866666666666 -18.065066666666667 10.429866666666666h-8.344533333333333c-9.734399999999999 -1.6394666666666666 -19.618133333333333 1.9189333333333334 -26.074666666666666 9.386666666666667 -0.6250666666666667 0.8341333333333334 -42.86613333333333 80.83093333333332 -42.86613333333333 80.83093333333332 -1.3706666666666667 2.1727999999999996 -4.5792 2.048 -5.776 -0.22506666666666666 -0.21866666666666668 -0.41493333333333327 -0.3477333333333333 -0.8714666666666666 -0.3776 -1.3397333333333332v-20.85973333333333c0 -2.88 -2.3349333333333333 -5.213866666666666 -5.214933333333333 -5.214933333333333H105.472c-2.942933333333333 -0.0063999999999999994 -5.746133333333333 -1.2565333333333333 -7.7184 -3.4410666666666665L67.19466666666666 90.37866666666667c-0.5504 -0.8575999999999999 -0.5504 -1.9573333333333331 0 -2.816 0.3466666666666667 -0.8277333333333333 1.0954666666666666 -1.4186666666666667 1.9808 -1.5637333333333334h9.283199999999999c10.0352 0.08106666666666666 16.3968 -10.731733333333333 11.449599999999998 -19.463466666666665 -1.6746666666666665 -2.9546666666666668 -4.4352 -5.1392 -7.694933333333333 -6.089599999999999C28.08213333333333 44.279466666666664 24.74453333333333 44.279466666666664 23.70133333333333 44.279466666666664c-16.0576 0 -26.093866666666663 17.382399999999997 -18.064 31.289599999999997 3.7258666666666667 6.453333333333333 10.612266666666667 10.429866666666666 18.064 10.429866666666666h6.884266666666666c2.942933333333333 0.0063999999999999994 5.746133333333333 1.2565333333333333 7.7184 3.4410666666666665l29.515733333333333 32.8544c0.9183999999999999 0.8981333333333332 1.1690666666666667 2.2784 0.6261333333333333 3.442133333333333 -0.5098666666666667 1.2149333333333332 -1.7066666666666666 1.9989333333333335 -3.0250666666666666 1.9808 -40.144 0.11946666666666667 -65.10506666666666 43.651199999999996 -44.92906666666667 78.35839999999999 4.398933333333333 7.566933333333333 10.631466666666666 13.905066666666666 18.1248 18.430933333333332 2.9525333333333332 1.7162666666666664 3.4229333333333334 5.790933333333333 0.9386666666666665 8.135466666666666l-2.398933333333333 2.3978666666666664c-5.700266666666666 5.7013333333333325 -3.0922666666666663 15.434666666666667 4.6944 17.521066666666666 3.6138666666666666 0.9685333333333334 7.470933333333333 -0.06506666666666666 10.116266666666666 -2.7104l14.706133333333334 -14.810666666666666c1.968 -1.952 4.632533333333333 -3.0399999999999996 7.4048 -3.0239999999999996h103.46346666666666c1.5605333333333333 0.16533333333333333 3.1338666666666666 0.16533333333333333 4.693333333333333 0 1.7589333333333332 -0.4298666666666667 3.614933333333333 0.0832 4.9024 1.3557333333333332l16.896 17.000533333333333c5.700266666666666 5.700266666666666 15.434666666666667 3.0922666666666663 17.521066666666666 -4.6944 0.9685333333333334 -3.6138666666666666 -0.06506666666666666 -7.469866666666666 -2.7104 -10.116266666666666l-17.000533333333333 -16.896c-1.2842666666666664 -1.5029333333333332 -1.6064 -3.6031999999999997 -0.8341333333333334 -5.422933333333333 0.3392 -1.5424 0.5141333333333333 -3.1157333333333335 0.5216 -4.6944 0.055466666666666664 -11.398399999999999 -8.158933333333334 -21.1584 -19.399466666666665 -23.049599999999998l-28.2656 -8.657066666666665c-1.4975999999999998 -0.43626666666666664 -2.6976 -1.5584 -3.2330666666666663 -3.0239999999999996 -0.6730666666666667 -1.3823999999999999 -0.6730666666666667 -2.9984 0 -4.3808Zm-76.45013333333333 129.9552c-3.0538666666666665 3.0506666666666664 -8.001066666666667 3.0506666666666664 -11.056 0l-9.282133333333332 -9.282133333333332c-1.5210666666666666 -1.4837333333333333 -3.7898666666666667 -1.8965333333333334 -5.736533333333332 -1.0432 -3.303466666666666 1.3952 -6.8448 2.1386666666666665 -10.429866666666666 2.190933333333333 -22.231466666666666 0.608 -36.785066666666665 -23.078400000000002 -26.196266666666666 -42.635733333333334 10.589866666666666 -19.557333333333332 38.37866666666666 -20.317866666666667 50.02133333333333 -1.3685333333333332 4.762666666666666 7.7504 5.595733333333333 17.2928 2.2496 25.751466666666666 -0.8362666666666666 1.9146666666666665 -0.4224 4.144 1.0432 5.632l9.282133333333332 9.283199999999999c3.367466666666666 3.0645333333333333 3.415466666666666 8.346666666666666 0.10453333333333333 11.471999999999998Z" fill="#ffffff" stroke-width="10.6667"></path>
  </g>
</svg>