<svg xmlns="http://www.w3.org/2000/svg" id="Fitness-Jumping-Rope--Streamline-Ultimate" width="256" height="256" viewBox="0 0 256 256"><desc>Fitness Jumping Rope Streamline Icon: https://streamlinehq.com</desc><g id="Fitness-Jumping-Rope--Streamline-Ultimate.svg"><path fill="#fff" stroke-width="10.667" d="M60.58666666666666 172.79999999999998a5.333333333333333 5.333333333333333 0 0 0 -5.333333333333333 -4.8H30.08a5.333333333333333 5.333333333333333 0 0 0 -5.333333333333333 4.8l-5.973333333333334 56.63999999999999a24 24 0 1 0 47.78666666666667 0Z"/><path fill="#fff" stroke-width="10.667" d="m237.22666666666663 229.44 -5.973333333333334 -56.63999999999999a5.333333333333333 5.333333333333333 0 0 0 -5.333333333333333 -4.8h-25.173333333333332a5.333333333333333 5.333333333333333 0 0 0 -5.333333333333333 4.8l-5.973333333333334 56.63999999999999a24 24 0 1 0 47.78666666666667 0Z"/><path fill="#fff" stroke-width="10.667" d="M168.95999999999998 25.066666666666666A53.33333333333333 53.33333333333333 0 0 1 202.66666666666666 74.66666666666666v48a5.333333333333333 5.333333333333333 0 0 1 -5.333333333333333 5.333333333333333 5.653333333333333 5.653333333333333 0 0 0 -4.16 1.92 5.653333333333333 5.653333333333333 0 0 0 -1.0666666666666667 4.4799999999999995l2.6666666666666665 13.333333333333332a5.333333333333333 5.333333333333333 0 0 0 5.226666666666667 4.266666666666667h25.599999999999998a5.333333333333333 5.333333333333333 0 0 0 5.119999999999999 -3.84c0.5333333333333333 -1.92 1.5999999999999999 -5.4399999999999995 3.84 -13.76a5.653333333333333 5.653333333333333 0 0 0 -1.0666666666666667 -4.4799999999999995 5.653333333333333 5.653333333333333 0 0 0 -4.16 -1.92 5.333333333333333 5.333333333333333 0 0 1 -5.333333333333333 -5.333333333333333V74.66666666666666a74.66666666666666 74.66666666666666 0 0 0 -74.66666666666666 -74.66666666666666 77.12 77.12 0 0 0 -18.666666666666664 2.3466666666666667 11.306666666666667 11.306666666666667 0 0 1 -5.333333333333333 0A77.12 77.12 0 0 0 106.66666666666666 0a74.66666666666666 74.66666666666666 0 0 0 -74.66666666666666 74.66666666666666v48a5.333333333333333 5.333333333333333 0 0 1 -5.333333333333333 5.333333333333333 5.653333333333333 5.653333333333333 0 0 0 -4.16 1.92 5.653333333333333 5.653333333333333 0 0 0 -1.0666666666666667 4.4799999999999995c2.2399999999999998 8.32 3.3066666666666666 11.84 3.84 13.76a5.333333333333333 5.333333333333333 0 0 0 5.119999999999999 3.84h25.599999999999998a5.333333333333333 5.333333333333333 0 0 0 5.226666666666667 -4.266666666666667L64 134.39999999999998a5.653333333333333 5.653333333333333 0 0 0 -1.0666666666666667 -4.4799999999999995 5.653333333333333 5.653333333333333 0 0 0 -4.266666666666667 -1.92 5.333333333333333 5.333333333333333 0 0 1 -5.333333333333333 -5.333333333333333V74.66666666666666a53.33333333333333 53.33333333333333 0 0 1 33.70666666666666 -49.6 2.5599999999999996 2.5599999999999996 0 0 1 3.093333333333333 0.8533333333333333 2.5599999999999996 2.5599999999999996 0 0 1 0 3.1999999999999997A74.66666666666666 74.66666666666666 0 0 0 74.66666666666666 74.66666666666666a53.33333333333333 53.33333333333333 0 0 0 106.66666666666666 0 74.66666666666666 74.66666666666666 0 0 0 -15.466666666666665 -45.54666666666666 2.5599999999999996 2.5599999999999996 0 0 1 0 -3.1999999999999997 2.5599999999999996 2.5599999999999996 0 0 1 3.093333333333333 -0.8533333333333333ZM128 106.66666666666666a32 32 0 0 1 -32 -32 53.33333333333333 53.33333333333333 0 0 1 26.666666666666664 -46.18666666666667 10.666666666666666 10.666666666666666 0 0 1 10.666666666666666 0A53.33333333333333 53.33333333333333 0 0 1 160 74.66666666666666a32 32 0 0 1 -32 32Z"/></g></svg>