<svg xmlns="http://www.w3.org/2000/svg" id="Flag-Plain--Streamline-Ultimate" width="256" height="256" viewBox="0 0 256 256"><desc>Flag Plain Streamline Icon: https://streamlinehq.com</desc><g id="Flag-Plain--Streamline-Ultimate.svg"><path fill="#fff" stroke-width="10.667" d="M250.98666666666668 80.21333333333332 175.57333333333332 4.8a15.893333333333333 15.893333333333333 0 0 0 -22.613333333333333 0l-43.413333333333334 43.30666666666666a2.88 2.88 0 0 0 0 3.84L164.48 106.66666666666666a8 8 0 0 1 0 11.306666666666667 8 8 0 0 1 -11.306666666666667 0L85.33333333333333 49.919999999999995a16.426666666666666 16.426666666666666 0 0 0 -22.506666666666664 0L21.333333333333332 91.62666666666667a5.333333333333333 5.333333333333333 0 0 0 0 7.573333333333332l90.45333333333333 90.56a5.546666666666667 5.546666666666667 0 0 0 7.573333333333332 0L149.33333333333331 159.04a36.373333333333335 36.373333333333335 0 0 0 2.1333333333333333 23.253333333333334 10.666666666666666 10.666666666666666 0 0 0 7.786666666666666 5.866666666666667 10.666666666666666 10.666666666666666 0 0 0 9.28 -2.986666666666667l82.34666666666666 -82.34666666666666a15.893333333333333 15.893333333333333 0 0 0 0.10666666666666666 -22.613333333333333Z"/><path fill="#fff" stroke-width="10.667" d="M23.04 123.09333333333332A13.333333333333332 13.333333333333332 0 0 0 4.266666666666667 141.97333333333333l109.97333333333333 110.08a13.333333333333332 13.333333333333332 0 0 0 18.88 -18.88Z"/></g></svg>