<svg xmlns="http://www.w3.org/2000/svg" id="Flag--Streamline-Ultimate" width="256" height="256" viewBox="0 0 256 256"><desc>Flag Streamline Icon: https://streamlinehq.com</desc><g id="Flag--Streamline-Ultimate.svg"><path fill="#fff" stroke-width="10.667" d="m251.30666666666664 166.50666666666666 -72.21333333333332 -57.70666666666666a2.88 2.88 0 0 1 0 -4.266666666666667l64 -50.986666666666665c5.546666666666667 -4.4799999999999995 5.226666666666667 -8.64 4.4799999999999995 -10.666666666666666s-2.986666666666667 -5.546666666666667 -10.133333333333333 -5.546666666666667h-101.33333333333333V21.333333333333332A16 16 0 0 0 120 5.333333333333333h-64a5.333333333333333 5.333333333333333 0 0 0 -5.333333333333333 5.333333333333333v128a5.333333333333333 5.333333333333333 0 0 0 5.333333333333333 5.333333333333333h45.120000000000005a37.76 37.76 0 0 0 -16.64 17.28 10.666666666666666 10.666666666666666 0 0 0 1.0666666666666667 10.026666666666666 10.666666666666666 10.666666666666666 0 0 0 8.853333333333332 4.693333333333333h153.6a5.333333333333333 5.333333333333333 0 0 0 3.3066666666666666 -9.493333333333332Z"/><path fill="#fff" stroke-width="10.667" d="M18.666666666666664 0a16 16 0 0 0 -16 16v224a16 16 0 0 0 32 0v-224A16 16 0 0 0 18.666666666666664 0Z"/></g></svg>