<svg xmlns="http://www.w3.org/2000/svg" viewBox="0 0 256 256" id="Flash-Drive--Streamline-Ultimate" height="256" width="256">
  <desc>
    Flash Drive Streamline Icon: https://streamlinehq.com
  </desc>
  <g id="Flash-Drive--Streamline-Ultimate.svg">
    <path d="M117.33333333333333 32a5.333333333333333 5.333333333333333 0 0 0 -5.333333333333333 5.333333333333333v10.666666666666666a5.333333333333333 5.333333333333333 0 0 0 10.666666666666666 0v-10.666666666666666A5.333333333333333 5.333333333333333 0 0 0 117.33333333333333 32Z" fill="#ffffff" stroke-width="10.6667"></path>
    <path d="M138.66666666666666 32a5.333333333333333 5.333333333333333 0 0 0 -5.333333333333333 5.333333333333333v10.666666666666666a5.333333333333333 5.333333333333333 0 0 0 10.666666666666666 0v-10.666666666666666A5.333333333333333 5.333333333333333 0 0 0 138.66666666666666 32Z" fill="#ffffff" stroke-width="10.6667"></path>
    <path d="M177.49333333333334 70.93333333333334a2.7733333333333334 2.7733333333333334 0 0 1 -1.4933333333333334 -2.3466666666666667V21.333333333333332a21.333333333333332 21.333333333333332 0 0 0 -21.333333333333332 -21.333333333333332h-53.33333333333333a21.333333333333332 21.333333333333332 0 0 0 -21.333333333333332 21.333333333333332v47.25333333333333a2.7733333333333334 2.7733333333333334 0 0 1 -1.4933333333333334 2.3466666666666667A15.893333333333333 15.893333333333333 0 0 0 69.33333333333333 85.33333333333333v122.66666666666666A48.10666666666666 48.10666666666666 0 0 0 117.33333333333333 256h21.333333333333332a48.10666666666666 48.10666666666666 0 0 0 48 -48V85.33333333333333a15.893333333333333 15.893333333333333 0 0 0 -9.173333333333332 -14.4ZM144 122.66666666666666h-32a10.666666666666666 10.666666666666666 0 0 1 0 -21.333333333333332h32a10.666666666666666 10.666666666666666 0 0 1 0 21.333333333333332Zm-42.666666666666664 -98.66666666666666A2.6666666666666665 2.6666666666666665 0 0 1 104 21.333333333333332h48a2.6666666666666665 2.6666666666666665 0 0 1 2.6666666666666665 2.6666666666666665v37.33333333333333a2.6666666666666665 2.6666666666666665 0 0 1 -2.6666666666666665 2.6666666666666665h-48a2.6666666666666665 2.6666666666666665 0 0 1 -2.6666666666666665 -2.6666666666666665Z" fill="#ffffff" stroke-width="10.6667"></path>
  </g>
</svg>