<svg xmlns="http://www.w3.org/2000/svg" viewBox="0 0 256 256" id="Flash-Off--Streamline-Ultimate" height="256" width="256">
  <desc>
    Flash Off Streamline Icon: https://streamlinehq.com
  </desc>
  <g id="Flash-Off--Streamline-Ultimate.svg">
    <path d="M249.92 246.9333333333333a10.666666666666666 10.666666666666666 0 0 0 0 -15.04l-76.37333333333333 -76.47999999999999 36.373333333333335 -50.986666666666665a5.226666666666667 5.226666666666667 0 0 0 0 -5.546666666666667 5.333333333333333 5.333333333333333 0 0 0 -4.266666666666667 -2.88H126.93333333333334L146.7733333333333 6.506666666666666a5.226666666666667 5.226666666666667 0 0 0 -2.986666666666667 -6.506666666666666 5.333333333333333 5.333333333333333 0 0 0 -6.506666666666666 1.8133333333333335L88.53333333333333 70.50666666666666 21.333333333333332 3.093333333333333A10.666666666666666 10.666666666666666 0 0 0 6.079999999999999 18.133333333333333l229.44 229.33333333333331a10.666666666666666 10.666666666666666 0 0 0 6.826666666666666 2.6666666666666665 10.666666666666666 10.666666666666666 0 0 0 7.573333333333332 -3.1999999999999997Z" fill="#ffffff" stroke-width="10.6667"></path>
    <path d="M68.8 103.35999999999999a2.6666666666666665 2.6666666666666665 0 0 0 -4.053333333333333 0l-34.13333333333333 47.89333333333333a5.4399999999999995 5.4399999999999995 0 0 0 0 5.546666666666667 5.546666666666667 5.546666666666667 0 0 0 4.8 2.88h78.61333333333333l-20.266666666666666 89.81333333333333a5.333333333333333 5.333333333333333 0 0 0 2.986666666666667 5.973333333333334 5.76 5.76 0 0 0 2.2399999999999998 0.5333333333333333 5.333333333333333 5.333333333333333 0 0 0 4.266666666666667 -2.2399999999999998l47.04 -65.81333333333333a2.5599999999999996 2.5599999999999996 0 0 0 0 -3.413333333333333Z" fill="#ffffff" stroke-width="10.6667"></path>
  </g>
</svg>