<svg xmlns="http://www.w3.org/2000/svg" id="Flip-Vertical-Down--Streamline-Ultimate" width="256" height="256" viewBox="0 0 256 256"><desc>Flip Vertical Down Streamline Icon: https://streamlinehq.com</desc><g id="Flip-Vertical-Down--Streamline-Ultimate.svg"><path fill="#fff" stroke-width="10.667" d="M8 157.33333333333331a13.333333333333332 13.333333333333332 0 1 0 26.666666666666664 0 13.333333333333332 13.333333333333332 0 1 0 -26.666666666666664 0"/><path fill="#fff" stroke-width="10.667" d="M8 200a13.333333333333332 13.333333333333332 0 1 0 26.666666666666664 0 13.333333333333332 13.333333333333332 0 1 0 -26.666666666666664 0"/><path fill="#fff" stroke-width="10.667" d="M8 242.66666666666666a13.333333333333332 13.333333333333332 0 1 0 26.666666666666664 0 13.333333333333332 13.333333333333332 0 1 0 -26.666666666666664 0"/><path fill="#fff" stroke-width="10.667" d="M61.33333333333333 242.66666666666666a13.333333333333332 13.333333333333332 0 1 0 26.666666666666664 0 13.333333333333332 13.333333333333332 0 1 0 -26.666666666666664 0"/><path fill="#fff" stroke-width="10.667" d="M114.66666666666666 242.66666666666666a13.333333333333332 13.333333333333332 0 1 0 26.666666666666664 0 13.333333333333332 13.333333333333332 0 1 0 -26.666666666666664 0"/><path fill="#fff" stroke-width="10.667" d="M168 242.66666666666666a13.333333333333332 13.333333333333332 0 1 0 26.666666666666664 0 13.333333333333332 13.333333333333332 0 1 0 -26.666666666666664 0"/><path fill="#fff" stroke-width="10.667" d="M221.33333333333331 157.33333333333331a13.333333333333332 13.333333333333332 0 1 0 26.666666666666664 0 13.333333333333332 13.333333333333332 0 1 0 -26.666666666666664 0"/><path fill="#fff" stroke-width="10.667" d="M221.33333333333331 200a13.333333333333332 13.333333333333332 0 1 0 26.666666666666664 0 13.333333333333332 13.333333333333332 0 1 0 -26.666666666666664 0"/><path fill="#fff" stroke-width="10.667" d="M221.33333333333331 242.66666666666666a13.333333333333332 13.333333333333332 0 1 0 26.666666666666664 0 13.333333333333332 13.333333333333332 0 1 0 -26.666666666666664 0"/><path fill="#fff" stroke-width="10.667" d="M0 122.66666666666666a8.106666666666666 8.106666666666666 0 0 0 8 8h82.56a2.6666666666666665 2.6666666666666665 0 0 0 1.92 -0.8533333333333333 2.7733333333333334 2.7733333333333334 0 0 0 0.7466666666666667 -1.8133333333333335l0 -5.119999999999999a128 128 0 0 1 31.46666666666667 -84.05333333333333 21.333333333333332 21.333333333333332 0 1 1 32 28.05333333333333 85.33333333333333 85.33333333333333 0 0 0 -21.333333333333332 56l0 5.546666666666667a2.6666666666666665 2.6666666666666665 0 0 0 2.6666666666666665 2.453333333333333h109.97333333333333a8 8 0 0 0 0 -16 2.6666666666666665 2.6666666666666665 0 0 1 -2.6666666666666665 -2.88V18.666666666666664A18.666666666666664 18.666666666666664 0 0 0 226.66666666666666 0H29.333333333333332A18.666666666666664 18.666666666666664 0 0 0 10.666666666666666 18.666666666666664v93.33333333333333a2.6666666666666665 2.6666666666666665 0 0 1 -2.6666666666666665 2.6666666666666665 8 8 0 0 0 -8 8Z"/><path fill="#fff" stroke-width="10.667" d="M122.34666666666666 122.66666666666666a98.88 98.88 0 0 1 24.319999999999997 -64.85333333333332 7.893333333333333 7.893333333333333 0 0 0 -0.8533333333333333 -10.666666666666666 8 8 0 0 0 -11.306666666666667 0.7466666666666667 114.56 114.56 0 0 0 -21.333333333333332 114.77333333333333 2.6666666666666665 2.6666666666666665 0 0 1 -1.0666666666666667 3.1999999999999997l-9.6 5.866666666666667 -8.213333333333333 4.906666666666666a8 8 0 0 0 2.2399999999999998 14.613333333333333l19.093333333333334 4.586666666666666 23.46666666666667 5.76a8.32 8.32 0 0 0 9.6 -5.866666666666667l5.013333333333333 -20.05333333333333 6.293333333333333 -23.146666666666665a8 8 0 0 0 -11.946666666666667 -8.746666666666666l-7.786666666666666 4.693333333333333 -8.746666666666666 5.4399999999999995a2.6666666666666665 2.6666666666666665 0 0 1 -2.3466666666666667 0 2.7733333333333334 2.7733333333333334 0 0 1 -1.5999999999999999 -1.7066666666666666 96 96 0 0 1 -5.226666666666667 -29.546666666666667Z"/></g></svg>