<svg xmlns="http://www.w3.org/2000/svg" viewBox="0 0 256 256" id="Floppy-Disk-1--Streamline-Ultimate" height="256" width="256">
  <desc>
    Floppy Disk 1 Streamline Icon: https://streamlinehq.com
  </desc>
  <path d="M234.66666666666666 0H47.04A21.333333333333332 21.333333333333332 0 0 0 32 6.293333333333333L6.293333333333333 32A21.333333333333332 21.333333333333332 0 0 0 0 47.04V234.66666666666666a21.333333333333332 21.333333333333332 0 0 0 21.333333333333332 21.333333333333332h213.33333333333331a21.333333333333332 21.333333333333332 0 0 0 21.333333333333332 -21.333333333333332V21.333333333333332a21.333333333333332 21.333333333333332 0 0 0 -21.333333333333332 -21.333333333333332ZM50.666666666666664 64a2.6666666666666665 2.6666666666666665 0 0 1 -2.6666666666666665 -2.6666666666666665v-37.33333333333333A2.6666666666666665 2.6666666666666665 0 0 1 50.666666666666664 21.333333333333332h154.66666666666666a3.093333333333333 3.093333333333333 0 0 1 1.92 0.7466666666666667 3.093333333333333 3.093333333333333 0 0 1 0.7466666666666667 1.92v37.33333333333333a2.6666666666666665 2.6666666666666665 0 0 1 -2.6666666666666665 2.6666666666666665Zm114.66666666666666 69.33333333333333A37.33333333333333 37.33333333333333 0 1 1 128 96a37.33333333333333 37.33333333333333 0 0 1 37.33333333333333 37.33333333333333Zm-117.33333333333333 82.66666666666666a2.6666666666666665 2.6666666666666665 0 0 1 2.6666666666666665 -2.6666666666666665h154.66666666666666a2.6666666666666665 2.6666666666666665 0 0 1 2.6666666666666665 2.6666666666666665v16a2.6666666666666665 2.6666666666666665 0 0 1 -2.6666666666666665 2.6666666666666665H50.666666666666664a2.6666666666666665 2.6666666666666665 0 0 1 -2.6666666666666665 -2.6666666666666665Z" fill="#ffffff" stroke-width="10.6667"></path>
</svg>