<svg xmlns="http://www.w3.org/2000/svg" id="Flow-1--Streamline-Ultimate" width="256" height="256" viewBox="0 0 256 256"><desc>Flow 1 Streamline Icon: https://streamlinehq.com</desc><path fill="#fff" stroke-width="10.667" d="M253.44 121.82079999999999c0.0576 -46.736 -36.090666666666664 -85.53066666666666 -82.7136 -88.7712C162.90453333333332 8.288 131.2117333333333 1.2789333333333333 113.67786666666666 20.433066666666665c-3.3183999999999996 3.624533333333333 -5.803733333333334 7.930666666666667 -7.284266666666666 12.616533333333333H68.79679999999999C60.75733333333333 8.1888 28.82026666666667 1.3536000000000001 11.309866666666666 20.746666666666666 -6.2005333333333335 40.13973333333333 3.848533333333333 71.21493333333333 29.3984 76.68373333333332c17.022933333333334 3.642666666666667 34.041599999999995 -6.183466666666666 39.398399999999995 -22.746666666666663h37.5968c8.071466666666666 24.680533333333333 39.834666666666664 31.3696 57.17333333333333 12.0384 3.127466666666667 -3.4869333333333334 5.4944 -7.5872 6.950399999999999 -12.0384 52.016 4.0927999999999995 80.09386666666666 62.959999999999994 50.541866666666664 105.96053333333333 -11.582933333333333 16.852266666666665 -30.154666666666664 27.575466666666664 -50.541866666666664 29.17973333333333 -8.071466666666666 -24.681599999999996 -39.834666666666664 -31.3696 -57.17333333333333 -12.0384 -3.127466666666667 3.4869333333333334 -5.4944 7.586133333333334 -6.950399999999999 12.0384H48.849066666666666l18.694399999999998 -18.694399999999998c4.119466666666666 -4.085333333333333 4.119466666666666 -10.744533333333333 0 -14.829866666666668 -4.0736 -4.049066666666667 -10.651733333333333 -4.049066666666667 -14.725333333333333 0l-36.55253333333333 36.55253333333333c-0.976 0.9941333333333333 -1.7557333333333331 2.1632 -2.2976 3.4463999999999997 -1.0442666666666667 2.542933333333333 -1.0442666666666667 5.3952 0 7.9370666666666665 0.5418666666666666 1.2832 1.3215999999999999 2.4522666666666666 2.2976 3.4463999999999997l36.55253333333333 36.55253333333333c5.7077333333333335 5.668266666666666 15.411200000000001 3.0314666666666668 17.4656 -4.7456 0.9535999999999999 -3.6095999999999995 -0.09066666666666667 -7.453866666666666 -2.740266666666667 -10.084266666666666l-18.694399999999998 -18.0672h57.544533333333334c7.821866666666666 24.7616 39.51573333333333 31.770666666666664 57.04853333333333 12.616533333333333 3.3183999999999996 -3.624533333333333 5.8048 -7.930666666666667 7.284266666666666 -12.616533333333333 46.62293333333333 -3.2405333333333335 82.7712 -42.035199999999996 82.7136 -88.77013333333333Z"/></svg>