<svg xmlns="http://www.w3.org/2000/svg" fill="none" viewBox="0 0 256 256" id="Flow-Chart-Hierachy--Streamline-Ultimate" height="256" width="256">
  <desc>
    Flow Chart Hierachy Streamline Icon: https://streamlinehq.com
  </desc>
  <path fill="#ffffff" fill-rule="evenodd" d="M172.2677333333333 76.26687999999999H139.2v24.532586666666663h84.26666666666667c3.4176 0 6.887466666666667 1.1742933333333332 9.5232 3.809813333333333s3.8101333333333334 6.105386666666666 3.8101333333333334 9.524053333333333v50.13333333333333c0 3.4186666666666667 -1.1743999999999999 6.888533333333333 -3.8101333333333334 9.524266666666666 -2.635733333333333 2.6346666666666665 -6.1056 3.8090666666666664 -9.5232 3.8090666666666664h-84.26666666666667v27.733333333333334h22.4c3.2128 0 6.114133333333333 1.9221333333333332 7.3664 4.88 1.2533333333333332 2.9578666666666664 0.6154666666666666 6.378666666666666 -1.6202666666666667 8.685866666666666l-33.06666666666666 34.13333333333333c-1.4912 1.5392000000000001 -3.538133333333333 2.416 -5.682133333333333 2.4330666666666665 -2.144 0.017066666666666667 -4.2048 -0.8266666666666667 -5.720533333333333 -2.3423999999999996l-34.133226666666665 -34.13333333333333c-2.288 -2.288 -2.9724799999999996 -5.729066666666666 -1.7341866666666665 -8.717866666666666 1.2381866666666665 -2.9898666666666665 4.155306666666666 -4.938666666666666 7.39104 -4.938666666666666H117.86666666666667v-27.733333333333334H32.533226666666664c-3.4180266666666665 0 -6.888 -1.1743999999999999 -9.52352 -3.8090666666666664 -2.6356266666666666 -2.635733333333333 -3.809813333333333 -6.1056 -3.809813333333333 -9.524266666666666v-50.13333333333333c0 -3.4186666666666667 1.1741866666666665 -6.888533333333333 3.809813333333333 -9.524053333333333 2.6355199999999996 -2.6355199999999996 6.1054933333333326 -3.809813333333333 9.52352 -3.809813333333333H117.86666666666667V76.26687999999999H84.80106666666666c-21.67008 0 -37.86677333333333 -17.63637333333333 -37.86677333333333 -37.86709333333333 0 -21.6704 17.636266666666664 -37.865932799999996 37.86677333333333 -37.865932799999996h87.46666666666665c21.66933333333333 0 37.86666666666666 17.634679466666665 37.86666666666666 37.865932799999996 0 20.41813333333333 -17.44853333333333 37.86709333333333 -37.86666666666666 37.86709333333333Z" clip-rule="evenodd" stroke-width="10.6667"></path>
</svg>