<svg xmlns="http://www.w3.org/2000/svg" id="Focus-Auto-1--Streamline-Ultimate" width="256" height="256" viewBox="0 0 256 256"><desc>Focus Auto 1 Streamline Icon: https://streamlinehq.com</desc><g id="Focus-Auto-1--Streamline-Ultimate.svg"><path fill="#fff" stroke-width="10.667" d="M128 61.33333333333333a37.33333333333333 37.33333333333333 0 0 0 -37.33333333333333 37.33333333333333v85.33333333333333a10.666666666666666 10.666666666666666 0 0 0 21.333333333333332 0v-37.33333333333333a2.6666666666666665 2.6666666666666665 0 0 1 2.6666666666666665 -2.6666666666666665h26.666666666666664a2.6666666666666665 2.6666666666666665 0 0 1 2.6666666666666665 2.6666666666666665v37.33333333333333a10.666666666666666 10.666666666666666 0 0 0 21.333333333333332 0v-85.33333333333333a37.33333333333333 37.33333333333333 0 0 0 -37.33333333333333 -37.33333333333333Zm-13.333333333333332 61.33333333333333a2.6666666666666665 2.6666666666666665 0 0 1 -2.6666666666666665 -2.6666666666666665v-21.333333333333332a16 16 0 0 1 32 0v21.333333333333332a2.6666666666666665 2.6666666666666665 0 0 1 -2.6666666666666665 2.6666666666666665Z"/><path fill="#fff" stroke-width="10.667" d="M53.33333333333333 26.666666666666664a10.666666666666666 10.666666666666666 0 0 0 -10.666666666666666 -10.666666666666666H21.333333333333332a21.333333333333332 21.333333333333332 0 0 0 -21.333333333333332 21.333333333333332v21.333333333333332a10.666666666666666 10.666666666666666 0 0 0 21.333333333333332 0V42.666666666666664a5.333333333333333 5.333333333333333 0 0 1 5.333333333333333 -5.333333333333333H42.666666666666664a10.666666666666666 10.666666666666666 0 0 0 10.666666666666666 -10.666666666666666Z"/><path fill="#fff" stroke-width="10.667" d="M42.666666666666664 218.66666666666666H26.666666666666664A5.333333333333333 5.333333333333333 0 0 1 21.333333333333332 213.33333333333331v-16a10.666666666666666 10.666666666666666 0 0 0 -21.333333333333332 0v21.333333333333332a21.333333333333332 21.333333333333332 0 0 0 21.333333333333332 21.333333333333332h21.333333333333332a10.666666666666666 10.666666666666666 0 0 0 0 -21.333333333333332Z"/><path fill="#fff" stroke-width="10.667" d="M234.66666666666666 16h-21.333333333333332a10.666666666666666 10.666666666666666 0 0 0 0 21.333333333333332h16a5.333333333333333 5.333333333333333 0 0 1 5.333333333333333 5.333333333333333v16a10.666666666666666 10.666666666666666 0 0 0 21.333333333333332 0v-21.333333333333332a21.333333333333332 21.333333333333332 0 0 0 -21.333333333333332 -21.333333333333332Z"/><path fill="#fff" stroke-width="10.667" d="M245.33333333333331 186.66666666666666a10.666666666666666 10.666666666666666 0 0 0 -10.666666666666666 10.666666666666666V213.33333333333331a5.333333333333333 5.333333333333333 0 0 1 -5.333333333333333 5.333333333333333H213.33333333333331a10.666666666666666 10.666666666666666 0 0 0 0 21.333333333333332h21.333333333333332a21.333333333333332 21.333333333333332 0 0 0 21.333333333333332 -21.333333333333332v-21.333333333333332a10.666666666666666 10.666666666666666 0 0 0 -10.666666666666666 -10.666666666666666Z"/></g></svg>