<svg xmlns="http://www.w3.org/2000/svg" viewBox="0 0 256 256" id="Focus-M--Streamline-Ultimate" height="256" width="256">
  <desc>
    Focus M Streamline Icon: https://streamlinehq.com
  </desc>
  <g id="Focus-M--Streamline-Ultimate.svg">
    <path d="m150.82666666666665 66.56 -20.586666666666666 34.239999999999995a2.5599999999999996 2.5599999999999996 0 0 1 -4.4799999999999995 0L105.17333333333332 66.56A10.666666666666666 10.666666666666666 0 0 0 85.33333333333333 72v112a10.666666666666666 10.666666666666666 0 0 0 21.333333333333332 0v-64a2.6666666666666665 2.6666666666666665 0 0 1 1.92 -2.5599999999999996 2.6666666666666665 2.6666666666666665 0 0 1 2.986666666666667 1.1733333333333333l7.253333333333334 12.053333333333331a10.666666666666666 10.666666666666666 0 0 0 18.346666666666664 0l7.253333333333334 -12.053333333333331a2.6666666666666665 2.6666666666666665 0 0 1 2.986666666666667 -1.1733333333333333 2.6666666666666665 2.6666666666666665 0 0 1 1.92 2.5599999999999996v64a10.666666666666666 10.666666666666666 0 0 0 21.333333333333332 0V72a10.666666666666666 10.666666666666666 0 0 0 -19.84 -5.4399999999999995Z" fill="#ffffff" stroke-width="10.6667"></path>
    <path d="M42.666666666666664 16H21.333333333333332a21.333333333333332 21.333333333333332 0 0 0 -21.333333333333332 21.333333333333332v21.333333333333332a10.666666666666666 10.666666666666666 0 0 0 21.333333333333332 0V42.666666666666664a5.333333333333333 5.333333333333333 0 0 1 5.333333333333333 -5.333333333333333H42.666666666666664a10.666666666666666 10.666666666666666 0 0 0 0 -21.333333333333332Z" fill="#ffffff" stroke-width="10.6667"></path>
    <path d="M42.666666666666664 218.66666666666666H26.666666666666664A5.333333333333333 5.333333333333333 0 0 1 21.333333333333332 213.33333333333331v-16a10.666666666666666 10.666666666666666 0 0 0 -21.333333333333332 0v21.333333333333332a21.333333333333332 21.333333333333332 0 0 0 21.333333333333332 21.333333333333332h21.333333333333332a10.666666666666666 10.666666666666666 0 0 0 0 -21.333333333333332Z" fill="#ffffff" stroke-width="10.6667"></path>
    <path d="M234.66666666666666 16h-21.333333333333332a10.666666666666666 10.666666666666666 0 0 0 0 21.333333333333332h16a5.333333333333333 5.333333333333333 0 0 1 5.333333333333333 5.333333333333333v16a10.666666666666666 10.666666666666666 0 0 0 21.333333333333332 0v-21.333333333333332a21.333333333333332 21.333333333333332 0 0 0 -21.333333333333332 -21.333333333333332Z" fill="#ffffff" stroke-width="10.6667"></path>
    <path d="M245.33333333333331 186.66666666666666a10.666666666666666 10.666666666666666 0 0 0 -10.666666666666666 10.666666666666666V213.33333333333331a5.333333333333333 5.333333333333333 0 0 1 -5.333333333333333 5.333333333333333H213.33333333333331a10.666666666666666 10.666666666666666 0 0 0 0 21.333333333333332h21.333333333333332a21.333333333333332 21.333333333333332 0 0 0 21.333333333333332 -21.333333333333332v-21.333333333333332a10.666666666666666 10.666666666666666 0 0 0 -10.666666666666666 -10.666666666666666Z" fill="#ffffff" stroke-width="10.6667"></path>
  </g>
</svg>