<svg xmlns="http://www.w3.org/2000/svg" id="Folder-Share--Streamline-Ultimate" width="256" height="256" viewBox="0 0 256 256"><desc>Folder Share Streamline Icon: https://streamlinehq.com</desc><g id="Folder-Share--Streamline-Ultimate.svg"><path fill="#fff" stroke-width="10.667" d="M159.12213333333332 150.208c0.6112 0.35306666666666664 1.3653333333333333 0.35306666666666664 1.9765333333333333 0l18.833066666666667 -11.237333333333334c0.6304 -0.3349333333333333 1.0581333333333331 -0.9568 1.1445333333333334 -1.6650666666666665 3.7439999999999998 -18.985599999999998 19.3696 -33.34826666666666 38.602666666666664 -35.4816 1.1317333333333333 -0.2912 1.9104 -1.3290666666666666 1.8730666666666667 -2.4970666666666665V49.3824c0 -8.619733333333333 -6.987733333333333 -15.607466666666667 -15.607466666666667 -15.607466666666667H103.14240000000001c-1.9818666666666664 -0.020266666666666665 -3.7877333333333336 -1.1434666666666666 -4.6815999999999995 -2.9130666666666665l-9.885866666666665 -19.665066666666664C85.95519999999999 5.893333333333333 80.5472 2.5439999999999996 74.63253333333333 2.5599999999999996H18.6528C10.033066666666667 2.5599999999999996 3.045333333333333 9.547733333333333 3.045333333333333 18.167466666666666v156.0768c0 8.619733333333333 6.987733333333333 15.607466666666667 15.607466666666667 15.607466666666667h81.16053333333332c1.3013333333333332 0.004266666666666667 2.3882666666666665 -0.992 2.4970666666666665 -2.289066666666667 2.485333333333333 -22.33813333333333 21.330133333333333 -39.2576 43.8048 -39.331199999999995 4.407466666666666 0.039466666666666664 8.787199999999999 0.7050666666666667 13.006933333333333 1.9765333333333333Z"/><path fill="#fff" stroke-width="10.667" d="M233.30986666666666 196.5109333333333c-10.0608 -3.3578666666666668 -21.153066666666668 -0.8746666666666667 -28.822400000000002 6.4512 -0.7050666666666667 0.7114666666666666 -1.7578666666666667 0.9546666666666666 -2.7050666666666663 0.624l-26.532266666666665 -10.405333333333333c-0.31999999999999995 -0.17279999999999998 -0.5471999999999999 -0.47679999999999995 -0.6250666666666667 -0.832v-3.6415999999999995c0.05973333333333333 -0.4170666666666667 0.2848 -0.7925333333333333 0.6250666666666667 -1.0410666666666666l30.0704 -18.625066666666665c0.8629333333333333 -0.5237333333333333 1.9466666666666665 -0.5237333333333333 2.8096 0 7.273599999999999 5.1104 16.541866666666664 6.462933333333333 24.971733333333333 3.6415999999999995 8.766933333333332 -2.7807999999999997 15.6352 -9.650133333333333 18.417066666666663 -18.417066666666663 5.745066666666666 -18.462933333333332 -8.0288 -37.21173333333333 -27.365333333333332 -37.25013333333333 -16.8352 0.46826666666666666 -29.76853333333333 15.072 -28.197333333333333 31.839999999999996 0.023466666666666667 0.9312 -0.45333333333333337 1.8047999999999997 -1.2490666666666665 2.289066666666667l-29.75893333333333 17.89653333333333c-0.8629333333333333 0.5247999999999999 -1.9456 0.5247999999999999 -2.808533333333333 0 -15.768533333333332 -10.802133333333332 -37.4912 -3.4048 -43.38986666666666 14.775466666666667 -6.765866666666666 20.962133333333334 11.697066666666666 41.38773333333333 33.23413333333333 36.76693333333333 5.189333333333333 -1.1136 9.965866666666667 -3.648 13.797333333333334 -7.320533333333334 0.8149333333333333 -0.5589333333333333 1.8901333333333332 -0.5589333333333333 2.7050666666666663 0l25.5968 10.405333333333333c0.8767999999999999 0.37333333333333335 1.4495999999999998 1.2309333333333332 1.456 2.1845333333333334 0.8714666666666666 22.090666666666667 25.33013333333333 34.952533333333335 44.02453333333333 23.153066666666664 11.240533333333333 -7.0944 16.144 -20.977066666666666 11.851733333333332 -33.5584 -2.542933333333333 -8.911999999999999 -9.316266666666666 -15.9968 -18.1056 -18.936533333333333Z"/></g></svg>