<svg xmlns="http://www.w3.org/2000/svg" id="Folder-Add--Streamline-Ultimate" width="256" height="256" viewBox="0 0 256 256"><desc>Folder Add Streamline Icon: https://streamlinehq.com</desc><g id="Folder-Add--Streamline-Ultimate.svg"><path fill="#fff" stroke-width="10.667" d="M101.33333333333333 186.66666666666666a85.33333333333333 85.33333333333333 0 0 1 85.33333333333333 -85.33333333333333 83.84 83.84 0 0 1 33.599999999999994 7.04 2.6666666666666665 2.6666666666666665 0 0 0 3.733333333333333 -2.3466666666666667V48A16 16 0 0 0 208 32H102.61333333333332a5.4399999999999995 5.4399999999999995 0 0 1 -4.8 -2.986666666666667L87.68 8.853333333333332A15.893333333333333 15.893333333333333 0 0 0 73.38666666666666 0H16A16 16 0 0 0 0 16v160A16 16 0 0 0 16 192h81.49333333333333c2.6666666666666665 0 3.84 -3.52 3.84 -5.333333333333333Z"/><path fill="#fff" stroke-width="10.667" d="M186.66666666666666 117.33333333333333a69.33333333333333 69.33333333333333 0 1 0 69.33333333333333 69.33333333333333 69.44 69.44 0 0 0 -69.33333333333333 -69.33333333333333Zm34.666666666666664 69.33333333333333a8.106666666666666 8.106666666666666 0 0 1 -8 8h-16a2.6666666666666665 2.6666666666666665 0 0 0 -2.6666666666666665 2.6666666666666665V213.33333333333331a8 8 0 0 1 -16 0v-16a2.6666666666666665 2.6666666666666665 0 0 0 -2.6666666666666665 -2.6666666666666665H160a8 8 0 0 1 0 -16h16a2.6666666666666665 2.6666666666666665 0 0 0 2.6666666666666665 -2.6666666666666665V160a8 8 0 0 1 16 0v16a2.6666666666666665 2.6666666666666665 0 0 0 2.6666666666666665 2.6666666666666665H213.33333333333331a8.106666666666666 8.106666666666666 0 0 1 8 8Z"/></g></svg>