<svg xmlns="http://www.w3.org/2000/svg" viewBox="0 0 256 256" id="Folder-Hold--Streamline-Ultimate" height="256" width="256">
  <desc>
    Folder Hold Streamline Icon: https://streamlinehq.com
  </desc>
  <g id="Folder-Hold--Streamline-Ultimate.svg">
    <path d="M181.33333333333331 234.66666666666666h-40a2.6666666666666665 2.6666666666666665 0 0 1 -2.6666666666666665 -2.6666666666666665v-37.33333333333333a2.6666666666666665 2.6666666666666665 0 0 1 2.6666666666666665 -2.6666666666666665H224a16 16 0 0 0 16 -16v-128A16 16 0 0 0 224 32h-105.38666666666667a5.4399999999999995 5.4399999999999995 0 0 1 -4.8 -2.986666666666667L103.68 8.853333333333332A15.893333333333333 15.893333333333333 0 0 0 89.38666666666667 0H32a16 16 0 0 0 -16 16v160A16 16 0 0 0 32 192h82.66666666666666a2.6666666666666665 2.6666666666666665 0 0 1 2.6666666666666665 2.6666666666666665v37.33333333333333a2.6666666666666665 2.6666666666666665 0 0 1 -2.6666666666666665 2.6666666666666665H74.66666666666666a10.666666666666666 10.666666666666666 0 0 0 0 21.333333333333332h106.66666666666666a10.666666666666666 10.666666666666666 0 0 0 0 -21.333333333333332Z" fill="#ffffff" stroke-width="10.6667"></path>
    <path d="M42.666666666666664 234.66666666666666H21.333333333333332a10.666666666666666 10.666666666666666 0 0 0 0 21.333333333333332h21.333333333333332a10.666666666666666 10.666666666666666 0 0 0 0 -21.333333333333332Z" fill="#ffffff" stroke-width="10.6667"></path>
    <path d="M234.66666666666666 234.66666666666666h-21.333333333333332a10.666666666666666 10.666666666666666 0 0 0 0 21.333333333333332h21.333333333333332a10.666666666666666 10.666666666666666 0 0 0 0 -21.333333333333332Z" fill="#ffffff" stroke-width="10.6667"></path>
  </g>
</svg>