<svg xmlns="http://www.w3.org/2000/svg" fill="none" viewBox="0 0 256 256" id="Following-1--Streamline-Ultimate" height="256" width="256">
  <desc>
    Following 1 Streamline Icon: https://streamlinehq.com
  </desc>
  <path fill="#ffffff" fill-rule="evenodd" d="M109.48266666666666 104.07466666666666a50.687999999999995 50.687999999999995 0 1 0 0 -101.37599999999999 50.687999999999995 50.687999999999995 0 0 0 0 101.37599999999999Zm2.0266666666666664 104.576c0 6.069333333333333 1.8346666666666664 11.701333333333332 4.981333333333334 16.37333333333333H15.829333333333333c-6.133333333333333 0 -11.050666666666666 -5.183999999999999 -10.026666666666666 -11.232 8.032 -47.18933333333334 48.53333333333333 -87.25333333333333 103.62666666666667 -87.25333333333333 30.08 0 55.79733333333333 11.925333333333334 74.27199999999999 30.432000000000002a26.645333333333333 26.645333333333333 0 0 0 -4.661333333333333 15.061333333333332v7.285333333333334h-38.208a29.333333333333332 29.333333333333332 0 0 0 -29.333333333333332 29.333333333333332Zm86.19733333333332 -13.333333333333332V172.0533333333333a8 8 0 0 1 13.653333333333332 -5.653333333333333l36.64 36.61866666666666a8 8 0 0 1 0 11.317333333333332l-36.629333333333335 36.629333333333335a8 8 0 0 1 -13.653333333333332 -5.653333333333333v-23.31733333333333h-56.885333333333335a13.333333333333332 13.333333333333332 0 0 1 0 -26.666666666666664h56.87466666666666Z" clip-rule="evenodd" stroke-width="10.6667"></path>
</svg>