<svg xmlns="http://www.w3.org/2000/svg" viewBox="0 0 256 256" id="Font-Size--Streamline-Ultimate" height="256" width="256">
  <desc>
    Font Size Streamline Icon: https://streamlinehq.com
  </desc>
  <g id="Font-Size--Streamline-Ultimate.svg">
    <path d="M187.41333333333333 218.77333333333334H181.33333333333331a2.5599999999999996 2.5599999999999996 0 0 1 -2.453333333333333 -1.8133333333333335L113.49333333333334 26.88a15.573333333333332 15.573333333333332 0 0 0 -14.719999999999999 -10.666666666666666 15.893333333333333 15.893333333333333 0 0 0 -14.826666666666664 10.666666666666666L19.2 216.95999999999998a2.6666666666666665 2.6666666666666665 0 0 1 -2.453333333333333 1.8133333333333335H10.666666666666666a10.666666666666666 10.666666666666666 0 1 0 0 21.333333333333332h32a10.666666666666666 10.666666666666666 0 0 0 10.666666666666666 -10.666666666666666 10.026666666666666 10.026666666666666 0 0 0 -8.64 -10.133333333333333 3.1999999999999997 3.1999999999999997 0 0 1 -1.8133333333333335 -1.2799999999999998 2.986666666666667 2.986666666666667 0 0 1 0 -2.1333333333333333l16 -47.14666666666666a2.6666666666666665 2.6666666666666665 0 0 1 2.5599999999999996 -1.7066666666666666h77.12a2.6666666666666665 2.6666666666666665 0 0 1 2.453333333333333 1.7066666666666666l16 47.14666666666666a2.453333333333333 2.453333333333333 0 0 1 0 2.1333333333333333 3.1999999999999997 3.1999999999999997 0 0 1 -1.8133333333333335 1.2799999999999998 10.666666666666666 10.666666666666666 0 0 0 -8.426666666666666 10.133333333333333 10.666666666666666 10.666666666666666 0 0 0 10.666666666666666 10.666666666666666h32a10.666666666666666 10.666666666666666 0 0 0 0 -21.333333333333332ZM69.12 145.92a2.7733333333333334 2.7733333333333334 0 0 1 -2.1333333333333333 -1.0666666666666667 2.5599999999999996 2.5599999999999996 0 0 1 0 -2.453333333333333L96 55.46666666666667a2.7733333333333334 2.7733333333333334 0 0 1 2.7733333333333334 -2.1333333333333333 2.7733333333333334 2.7733333333333334 0 0 1 2.453333333333333 1.8133333333333335l29.65333333333333 86.93333333333334a2.88 2.88 0 0 1 0 2.453333333333333 2.7733333333333334 2.7733333333333334 0 0 1 -2.1333333333333333 1.0666666666666667Z" fill="#ffffff" stroke-width="10.6667"></path>
    <path d="M245.33333333333331 218.77333333333334h-2.1333333333333333a2.5599999999999996 2.5599999999999996 0 0 1 -2.453333333333333 -1.8133333333333335L195.30666666666664 84.16a16.32 16.32 0 0 0 -30.826666666666668 0l-12.373333333333331 36.16a10.666666666666666 10.666666666666666 0 0 0 19.84 6.72l5.4399999999999995 -16.106666666666666a2.7733333333333334 2.7733333333333334 0 0 1 2.453333333333333 -1.8133333333333335 2.7733333333333334 2.7733333333333334 0 0 1 2.5599999999999996 1.8133333333333335l15.573333333333332 45.76a2.3466666666666667 2.3466666666666667 0 0 1 0 2.3466666666666667 2.5599999999999996 2.5599999999999996 0 0 1 -2.1333333333333333 1.1733333333333333H181.33333333333331a10.666666666666666 10.666666666666666 0 0 0 0 21.333333333333332h23.46666666666667a2.6666666666666665 2.6666666666666665 0 0 1 2.453333333333333 1.7066666666666666l11.733333333333334 34.239999999999995a2.88 2.88 0 0 1 -1.2799999999999998 3.1999999999999997 10.666666666666666 10.666666666666666 0 0 0 -5.546666666666667 9.066666666666666 10.666666666666666 10.666666666666666 0 0 0 10.666666666666666 10.666666666666666H245.33333333333331a10.666666666666666 10.666666666666666 0 0 0 0 -21.333333333333332Z" fill="#ffffff" stroke-width="10.6667"></path>
  </g>
</svg>