<svg xmlns="http://www.w3.org/2000/svg" viewBox="0 0 256 256" id="Forbidden-Phone-Off--Streamline-Ultimate" height="256" width="256">
  <desc>
    Forbidden Phone Off Streamline Icon: https://streamlinehq.com
  </desc>
  <g id="Forbidden-Phone-Off--Streamline-Ultimate.svg">
    <path d="M80 136.32V53.33333333333333a10.666666666666666 10.666666666666666 0 0 1 10.666666666666666 -10.666666666666666h74.66666666666666a9.386666666666667 9.386666666666667 0 0 1 3.52 0.6399999999999999 6.186666666666666 6.186666666666666 0 0 0 4.16 0 15.253333333333332 15.253333333333332 0 0 0 2.7733333333333334 -1.92l13.866666666666667 -13.866666666666667a2.7733333333333334 2.7733333333333334 0 0 0 0 -3.733333333333333A26.88 26.88 0 0 0 170.66666666666666 16H85.33333333333333A26.666666666666664 26.666666666666664 0 0 0 58.666666666666664 42.666666666666664v109.65333333333332a2.6666666666666665 2.6666666666666665 0 0 0 4.586666666666666 1.8133333333333335L79.25333333333333 138.66666666666666a2.7733333333333334 2.7733333333333334 0 0 0 0.7466666666666667 -2.3466666666666667Z" fill="#ffffff" stroke-width="10.6667"></path>
    <path d="M252.90666666666667 3.093333333333333a10.666666666666666 10.666666666666666 0 0 0 -15.146666666666665 0l-234.66666666666666 234.66666666666666a10.666666666666666 10.666666666666666 0 0 0 -1.92 12.373333333333331 9.28 9.28 0 0 0 1.92 2.7733333333333334 10.666666666666666 10.666666666666666 0 0 0 15.146666666666665 0l41.81333333333333 -41.81333333333333A26.77333333333333 26.77333333333333 0 0 0 85.33333333333333 229.33333333333331h85.33333333333333a26.666666666666664 26.666666666666664 0 0 0 26.666666666666664 -26.666666666666664V73.70666666666666l55.57333333333333 -55.46666666666667a10.666666666666666 10.666666666666666 0 0 0 1.92 -12.373333333333331 9.28 9.28 0 0 0 -1.92 -2.7733333333333334ZM165.33333333333331 181.33333333333331H96l-1.92 -4.586666666666666 77.12 -77.12a2.6666666666666665 2.6666666666666665 0 0 1 4.586666666666666 1.92V170.66666666666666a10.666666666666666 10.666666666666666 0 0 1 -10.453333333333333 10.666666666666666Z" fill="#ffffff" stroke-width="10.6667"></path>
  </g>
</svg>