<svg xmlns="http://www.w3.org/2000/svg" viewBox="0 0 256 256" id="Fruit-Watermelon--Streamline-Ultimate" height="256" width="256">
  <desc>
    Fruit Watermelon Streamline Icon: https://streamlinehq.com
  </desc>
  <g id="Fruit-Watermelon--Streamline-Ultimate.svg">
    <path d="M212.37333333333333 212.37333333333333a149.33333333333331 149.33333333333331 0 0 1 -210.66666666666666 0 5.333333333333333 5.333333333333333 0 0 1 0 -7.786666666666666l15.68 -15.893333333333333a5.333333333333333 5.333333333333333 0 0 1 7.466666666666666 0A115.73333333333332 115.73333333333332 0 1 0 188.58666666666664 24.85333333333333a5.333333333333333 5.333333333333333 0 0 1 0 -7.466666666666666l16 -15.68a5.333333333333333 5.333333333333333 0 0 1 7.786666666666666 0 149.33333333333331 149.33333333333331 0 0 1 0 210.66666666666666Z" fill="#ffffff" stroke-width="10.6667"></path>
    <path d="M178.77333333333334 35.306666666666665a5.546666666666667 5.546666666666667 0 0 0 -3.733333333333333 -1.7066666666666666 5.4399999999999995 5.4399999999999995 0 0 0 -4.373333333333333 1.5999999999999999L35.199999999999996 170.66666666666666a5.4399999999999995 5.4399999999999995 0 0 0 -1.5999999999999999 3.9466666666666663 5.546666666666667 5.546666666666667 0 0 0 1.7066666666666666 3.733333333333333A101.44 101.44 0 0 0 178.77333333333334 35.306666666666665ZM80 183.46666666666664c-5.76 0 -10.666666666666666 -6.933333333333334 -10.666666666666666 -15.573333333333332s4.586666666666666 -15.466666666666665 10.666666666666666 -15.466666666666665 10.666666666666666 6.933333333333334 10.666666666666666 15.466666666666665 -5.333333333333333 15.573333333333332 -10.666666666666666 15.573333333333332ZM149.33333333333331 149.33333333333331c-4.053333333333333 4.053333333333333 -12.266666666666666 2.3466666666666667 -18.346666666666664 -3.733333333333333s-7.359999999999999 -13.866666666666667 -2.986666666666667 -17.599999999999998 12.159999999999998 -2.453333333333333 18.24 3.626666666666667 7.466666666666666 13.973333333333333 3.093333333333333 17.706666666666663Zm18.24 -59.30666666666666c-8.533333333333333 0 -15.466666666666665 -4.586666666666666 -15.466666666666665 -10.666666666666666s6.933333333333334 -10.666666666666666 15.466666666666665 -10.666666666666666 15.573333333333332 4.693333333333333 15.573333333333332 10.666666666666666 -6.613333333333333 10.986666666666666 -15.253333333333332 10.986666666666666Z" fill="#ffffff" stroke-width="10.6667"></path>
  </g>
</svg>