<svg xmlns="http://www.w3.org/2000/svg" viewBox="0 0 256 256" id="Fruit-Banana--Streamline-Ultimate" height="256" width="256">
  <desc>
    Fruit Banana Streamline Icon: https://streamlinehq.com
  </desc>
  <path d="M226.02666666666667 166.07999999999998a5.226666666666667 5.226666666666667 0 0 1 -1.3866666666666667 -6.3999999999999995C250.34666666666664 105.38666666666667 264.1066666666667 32.959999999999994 244.16 10.666666666666666a33.92 33.92 0 0 0 -56.63999999999999 10.666666666666666L157.86666666666667 96.64c-1.8133333333333335 4.586666666666666 -3.84 9.066666666666666 -6.079999999999999 13.546666666666667a5.333333333333333 5.333333333333333 0 0 1 -3.413333333333333 2.6666666666666665 5.4399999999999995 5.4399999999999995 0 0 1 -4.266666666666667 -0.6399999999999999 58.346666666666664 58.346666666666664 0 0 0 -21.333333333333332 -8.746666666666666 60.05333333333333 60.05333333333333 0 0 0 -70.29333333333332 47.46666666666667 5.4399999999999995 5.4399999999999995 0 0 0 2.6666666666666665 5.76 5.333333333333333 5.333333333333333 0 0 0 6.186666666666666 0 55.89333333333333 55.89333333333333 0 0 1 46.61333333333333 -12.053333333333331 57.17333333333333 57.17333333333333 0 0 1 8.64 2.3466666666666667 5.333333333333333 5.333333333333333 0 0 1 3.3066666666666666 4.053333333333333 5.013333333333333 5.013333333333333 0 0 1 -1.5999999999999999 4.906666666666666 164.37333333333333 164.37333333333333 0 0 1 -74.66666666666666 38.18666666666667l-25.706666666666667 5.653333333333333a19.733333333333334 19.733333333333334 0 0 0 -2.0266666666666664 37.97333333333333 175.14666666666668 175.14666666666668 0 0 0 55.46666666666667 9.066666666666666 173.86666666666667 173.86666666666667 0 0 0 95.35999999999999 -28.586666666666666 169.92 169.92 0 0 0 23.893333333333334 -18.773333333333333 5.333333333333333 5.333333333333333 0 0 1 6.72 0 65.38666666666666 65.38666666666666 0 0 1 7.359999999999999 6.079999999999999 55.78666666666667 55.78666666666667 0 0 1 16 45.44 5.333333333333333 5.333333333333333 0 0 0 3.3066666666666666 5.013333333333333 5.546666666666667 5.546666666666667 0 0 0 6.186666666666666 -1.0666666666666667 59.84 59.84 0 0 0 0 -85.33333333333333ZM207.78666666666666 29.439999999999998a12.586666666666666 12.586666666666666 0 0 1 20.266666666666666 -3.733333333333333c9.173333333333332 10.133333333333333 2.88 70.82666666666665 -23.04 124.58666666666666a5.226666666666667 5.226666666666667 0 0 1 -5.76 2.986666666666667 60.906666666666666 60.906666666666666 0 0 0 -23.253333333333334 0 5.4399999999999995 5.4399999999999995 0 0 1 -6.293333333333333 -4.053333333333333 57.6 57.6 0 0 0 -4.693333333333333 -13.44 5.119999999999999 5.119999999999999 0 0 1 0 -5.119999999999999 168.85333333333332 168.85333333333332 0 0 0 13.12 -26.026666666666664Z" fill="#ffffff" stroke-width="10.6667"></path>
</svg>