<svg xmlns="http://www.w3.org/2000/svg" viewBox="0 0 256 256" id="Fruit-Apricot--Streamline-Ultimate" height="256" width="256">
  <desc>
    Fruit Apricot Streamline Icon: https://streamlinehq.com
  </desc>
  <g id="Fruit-Apricot--Streamline-Ultimate.svg">
    <path d="M138.66666666666666 93.97333333333333a23.57333333333333 23.57333333333333 0 0 1 -17.493333333333332 -30.72l2.5599999999999996 -6.72V10.666666666666666a10.666666666666666 10.666666666666666 0 0 0 -21.333333333333332 0v47.25333333333333l-1.4933333333333334 -0.7466666666666667a10.666666666666666 10.666666666666666 0 0 1 -1.1733333333333333 3.1999999999999997 71.14666666666666 71.14666666666666 0 0 0 -3.733333333333333 7.573333333333332A132.48 132.48 0 0 0 109.86666666666667 202.66666666666666a10.666666666666666 10.666666666666666 0 0 1 -8.533333333333333 17.173333333333332 10.666666666666666 10.666666666666666 0 0 1 -8.426666666666666 -4.266666666666667A153.38666666666666 153.38666666666666 0 0 1 76.16 59.626666666666665c1.3866666666666667 -3.1999999999999997 2.88 -6.186666666666666 4.373333333333333 -9.066666666666666C34.13333333333333 40.42666666666666 2.7733333333333334 71.89333333333333 2.7733333333333334 138.66666666666666a113.17333333333332 113.17333333333332 0 0 0 110.08 115.73333333333332A113.17333333333332 113.17333333333332 0 0 0 222.9333333333333 138.66666666666666a135.14666666666665 135.14666666666665 0 0 0 -9.6 -54.72A110.29333333333332 110.29333333333332 0 0 1 162.02666666666664 96 127.03999999999999 127.03999999999999 0 0 1 138.66666666666666 93.97333333333333Z" fill="#ffffff" stroke-width="10.6667"></path>
    <path d="M162.02666666666664 80.32a96 96 0 0 0 90.77333333333333 -66.98666666666666 7.466666666666666 7.466666666666666 0 0 0 -5.546666666666667 -9.6 104.42666666666665 104.42666666666665 0 0 0 -20.479999999999997 -2.1333333333333333 95.35999999999999 95.35999999999999 0 0 0 -90.66666666666666 66.98666666666666 7.466666666666666 7.466666666666666 0 0 0 5.4399999999999995 9.706666666666667 104.10666666666665 104.10666666666665 0 0 0 20.479999999999997 2.0266666666666664Z" fill="#ffffff" stroke-width="10.6667"></path>
  </g>
</svg>