<svg xmlns="http://www.w3.org/2000/svg" viewBox="0 0 256 256" id="Funny-Mask--Streamline-Ultimate" height="256" width="256">
  <desc>
    Funny Mask Streamline Icon: https://streamlinehq.com
  </desc>
  <path d="M249.28 169.17333333333332a8.32 8.32 0 0 0 -6.72 -1.0666666666666667 77.22666666666666 77.22666666666666 0 0 1 -57.493333333333325 -4.4799999999999995l-10.666666666666666 -6.506666666666666a27.199999999999996 27.199999999999996 0 0 0 7.466666666666666 -42.666666666666664h4.4799999999999995a53.33333333333333 53.33333333333333 0 0 0 52.266666666666666 -42.666666666666664H245.33333333333331a10.666666666666666 10.666666666666666 0 0 0 0 -21.333333333333332h-7.04a53.33333333333333 53.33333333333333 0 0 0 -103.25333333333333 -5.119999999999999 36.16 36.16 0 0 0 -13.546666666666667 0 53.33333333333333 53.33333333333333 0 0 0 -103.25333333333333 5.119999999999999H10.666666666666666a10.666666666666666 10.666666666666666 0 0 0 0 21.333333333333332h7.573333333333332a53.33333333333333 53.33333333333333 0 0 0 52.266666666666666 42.666666666666664H74.66666666666666a26.88 26.88 0 0 0 -7.466666666666666 18.666666666666664 27.306666666666665 27.306666666666665 0 0 0 14.933333333333332 23.786666666666665l-10.666666666666666 6.72a77.65333333333334 77.65333333333334 0 0 1 -57.6 4.4799999999999995 8.32 8.32 0 0 0 -6.72 1.0666666666666667 8.213333333333333 8.213333333333333 0 0 0 -3.52 5.76c-3.626666666666667 26.133333333333333 5.76 40.10666666666666 13.866666666666667 47.25333333333333a54.08 54.08 0 0 0 43.946666666666665 10.666666666666666 43.519999999999996 43.519999999999996 0 0 0 32 13.12A59.519999999999996 59.519999999999996 0 0 0 128 234.66666666666666a58.239999999999995 58.239999999999995 0 0 0 34.45333333333333 10.666666666666666l3.733333333333333 0a42.666666666666664 42.666666666666664 0 0 0 28.373333333333335 -13.013333333333332 54.08 54.08 0 0 0 43.946666666666665 -10.666666666666666c8.106666666666666 -7.1466666666666665 17.173333333333332 -21.333333333333332 14.293333333333333 -47.25333333333333a8.213333333333333 8.213333333333333 0 0 0 -3.52 -5.226666666666667ZM186.02666666666667 28.906666666666666a32 32 0 1 1 -23.786666666666665 53.33333333333333l0 -0.5333333333333333a32 32 0 0 1 -7.893333333333333 -21.333333333333332 32 32 0 0 1 31.68 -31.46666666666667Zm-53.33333333333333 37.65333333333333a52.373333333333335 52.373333333333335 0 0 0 11.306666666666667 27.41333333333333l7.1466666666666665 25.066666666666666a10.666666666666666 10.666666666666666 0 0 0 10.666666666666666 7.68 5.973333333333334 5.973333333333334 0 0 1 6.079999999999999 6.079999999999999 5.866666666666667 5.866666666666667 0 0 1 -8.746666666666666 5.333333333333333 10.666666666666666 10.666666666666666 0 0 0 -14.613333333333333 6.079999999999999 17.066666666666666 17.066666666666666 0 0 1 -32 0 10.666666666666666 10.666666666666666 0 0 0 -10.026666666666666 -7.1466666666666665 11.52 11.52 0 0 0 -4.586666666666666 1.0666666666666667 5.866666666666667 5.866666666666667 0 0 1 -8.746666666666666 -5.333333333333333 5.973333333333334 5.973333333333334 0 0 1 6.079999999999999 -6.079999999999999 10.666666666666666 10.666666666666666 0 0 0 10.666666666666666 -7.68l7.1466666666666665 -24.959999999999997a53.33333333333333 53.33333333333333 0 0 0 11.306666666666667 -27.52 11.306666666666667 11.306666666666667 0 0 1 8.533333333333333 0Zm-94.18666666666667 -5.653333333333333a32 32 0 0 1 64 -0.6399999999999999v0.6399999999999999a32 32 0 0 1 -7.893333333333333 21.333333333333332l0 0.5333333333333333a32 32 0 0 1 -23.68 10.666666666666666 32 32 0 0 1 -32.42666666666666 -32.53333333333333Z" fill="#ffffff" stroke-width="10.6667"></path>
</svg>