<svg xmlns="http://www.w3.org/2000/svg" viewBox="0 0 256 256" id="Gaming-Ribbon-First--Streamline-Ultimate" height="256" width="256">
  <desc>
    Gaming Ribbon First Streamline Icon: https://streamlinehq.com
  </desc>
  <g id="Gaming-Ribbon-First--Streamline-Ultimate.svg">
    <path d="m249.28 210.88 -32 -55.25333333333333a2.986666666666667 2.986666666666667 0 0 0 -2.453333333333333 -1.3866666666666667 2.5599999999999996 2.5599999999999996 0 0 0 -2.2399999999999998 1.4933333333333334 51.30666666666666 51.30666666666666 0 0 1 -9.173333333333332 12.586666666666666 49.38666666666666 49.38666666666666 0 0 1 -36.906666666666666 14.506666666666668 2.88 2.88 0 0 0 -2.0266666666666664 0.8533333333333333 47.46666666666667 47.46666666666667 0 0 1 -10.666666666666666 8.213333333333333 2.6666666666666665 2.6666666666666665 0 0 0 -0.96 3.626666666666667l31.36 53.33333333333333a10.666666666666666 10.666666666666666 0 0 0 19.2 -1.8133333333333335l8.853333333333332 -24.426666666666666 25.493333333333332 4.266666666666667a10.666666666666666 10.666666666666666 0 0 0 10.666666666666666 -4.373333333333333 10.666666666666666 10.666666666666666 0 0 0 0.8533333333333333 -11.626666666666667Z" fill="#ffffff" stroke-width="10.6667"></path>
    <path d="M91.52 183.67999999999998a2.453333333333333 2.453333333333333 0 0 0 -2.0266666666666664 -0.7466666666666667 49.919999999999995 49.919999999999995 0 0 1 -36.906666666666666 -14.613333333333333 51.30666666666666 51.30666666666666 0 0 1 -9.173333333333332 -12.586666666666666 2.5599999999999996 2.5599999999999996 0 0 0 -2.2399999999999998 -1.4933333333333334 2.986666666666667 2.986666666666667 0 0 0 -2.453333333333333 1.3866666666666667l-32 55.25333333333333a10.666666666666666 10.666666666666666 0 0 0 10.666666666666666 15.786666666666665l25.493333333333332 -4.266666666666667 8.853333333333332 24.426666666666666a10.666666666666666 10.666666666666666 0 0 0 19.2 1.8133333333333335l31.36 -53.33333333333333a2.6666666666666665 2.6666666666666665 0 0 0 -0.42666666666666664 -3.3066666666666666 51.519999999999996 51.519999999999996 0 0 1 -10.346666666666666 -8.32Z" fill="#ffffff" stroke-width="10.6667"></path>
    <path d="M157.97333333333333 165.33333333333331a33.81333333333333 33.81333333333333 0 0 0 42.666666666666664 -42.666666666666664 33.81333333333333 33.81333333333333 0 0 0 0 -60.05333333333333 33.81333333333333 33.81333333333333 0 0 0 -42.666666666666664 -42.666666666666664 33.70666666666666 33.70666666666666 0 0 0 -59.946666666666665 0 33.81333333333333 33.81333333333333 0 0 0 -42.666666666666664 42.666666666666664 33.81333333333333 33.81333333333333 0 0 0 0 60.05333333333333 33.81333333333333 33.81333333333333 0 0 0 42.666666666666664 42.666666666666664 33.70666666666666 33.70666666666666 0 0 0 59.946666666666665 0Zm-46.50666666666667 -82.02666666666667a8.106666666666666 8.106666666666666 0 0 1 -10.666666666666666 -1.5999999999999999 8 8 0 0 1 1.5999999999999999 -10.666666666666666l12.799999999999999 -9.6a13.333333333333332 13.333333333333332 0 0 1 21.333333333333332 10.666666666666666v40h2.1333333333333333A8 8 0 0 1 138.66666666666666 128h-21.333333333333332a8 8 0 0 1 0 -16h2.6666666666666665V76.90666666666667Z" fill="#ffffff" stroke-width="10.6667"></path>
  </g>
</svg>