<svg xmlns="http://www.w3.org/2000/svg" id="Garbage-Bin--Streamline-Ultimate" width="256" height="256" viewBox="0 0 256 256"><desc>Garbage Bin Streamline Icon: https://streamlinehq.com</desc><g id="Garbage-Bin--Streamline-Ultimate.svg"><path fill="#fff" stroke-width="10.667" d="M189.33333333333331 5.333333333333333H45.33333333333333A16 16 0 0 0 29.333333333333332 21.333333333333332v21.333333333333332a5.333333333333333 5.333333333333333 0 0 0 5.333333333333333 5.333333333333333h186.66666666666666a5.333333333333333 5.333333333333333 0 0 0 5.333333333333333 -5.333333333333333 37.33333333333333 37.33333333333333 0 0 0 -37.33333333333333 -37.33333333333333Z"/><path fill="#fff" stroke-width="10.667" d="M205.33333333333331 64h-160a5.333333333333333 5.333333333333333 0 0 0 -5.333333333333333 5.333333333333333V192a2.6666666666666665 2.6666666666666665 0 0 0 4.053333333333333 2.2399999999999998 39.89333333333333 39.89333333333333 0 0 1 57.28 52.266666666666666 2.6666666666666665 2.6666666666666665 0 0 0 2.2399999999999998 4.16h51.73333333333333a5.333333333333333 5.333333333333333 0 0 0 5.119999999999999 -3.84l50.02666666666667 -176a5.653333333333333 5.653333333333333 0 0 0 -0.8533333333333333 -4.693333333333333 5.226666666666667 5.226666666666667 0 0 0 -4.266666666666667 -2.1333333333333333Z"/><path fill="#fff" stroke-width="10.667" d="M42.666666666666664 226.66666666666666a24 24 0 1 0 48 0 24 24 0 1 0 -48 0"/></g></svg>