<svg xmlns="http://www.w3.org/2000/svg" viewBox="0 0 256 256" id="Gas-F--Streamline-Ultimate" height="256" width="256">
  <desc>
    Gas F Streamline Icon: https://streamlinehq.com
  </desc>
  <path d="M252.58666666666664 92.16a10.666666666666666 10.666666666666666 0 0 0 -15.04 0c-19.626666666666665 21.333333333333332 -29.546666666666667 35.946666666666665 -29.546666666666667 44.58666666666666v80a10.666666666666666 10.666666666666666 0 1 1 -21.333333333333332 0V73.28a26.77333333333333 26.77333333333333 0 0 0 -26.666666666666664 -26.666666666666664h-2.6666666666666665a2.6666666666666665 2.6666666666666665 0 0 1 -2.6666666666666665 -2.6666666666666665V25.386666666666663A18.666666666666664 18.666666666666664 0 0 0 136 6.72h-117.33333333333333A18.666666666666664 18.666666666666664 0 0 0 0 25.386666666666663v202.66666666666666a18.773333333333333 18.773333333333333 0 0 0 18.666666666666664 18.666666666666664h117.33333333333333a18.666666666666664 18.666666666666664 0 0 0 18.666666666666664 -18.666666666666664V70.61333333333333a2.6666666666666665 2.6666666666666665 0 0 1 2.6666666666666665 -2.6666666666666665H160a5.4399999999999995 5.4399999999999995 0 0 1 5.333333333333333 5.333333333333333v144a32 32 0 1 0 64 0v-23.68a2.6666666666666665 2.6666666666666665 0 0 1 1.4933333333333334 -2.453333333333333l10.666666666666666 -5.4399999999999995a16 16 0 0 0 8.853333333333332 -14.293333333333333v-12.799999999999999a16 16 0 0 0 -16 -16h-2.7733333333333334a2.6666666666666665 2.6666666666666665 0 0 1 -2.6666666666666665 -2.5599999999999996V138.66666666666666a143.68 143.68 0 0 1 23.893333333333334 -31.04 10.666666666666666 10.666666666666666 0 0 0 -0.21333333333333332 -15.466666666666665Zm-148.58666666666664 42.666666666666664h-26.666666666666664a8 8 0 0 0 -8 8v18.666666666666664h18.666666666666664a8 8 0 1 1 0 16H69.33333333333333v34.666666666666664a8 8 0 0 1 -16 0v-69.33333333333333a24 24 0 0 1 24 -24h26.666666666666664a8 8 0 0 1 0 16Zm21.333333333333332 -61.44a5.333333333333333 5.333333333333333 0 0 1 -5.333333333333333 5.333333333333333h-85.33333333333333a5.333333333333333 5.333333333333333 0 0 1 -5.333333333333333 -5.333333333333333v-32a5.333333333333333 5.333333333333333 0 0 1 5.333333333333333 -5.333333333333333h85.33333333333333a5.4399999999999995 5.4399999999999995 0 0 1 5.333333333333333 5.333333333333333Z" fill="#ffffff" stroke-width="10.6667"></path>
</svg>