<svg xmlns="http://www.w3.org/2000/svg" fill="none" viewBox="0 0 256 256" id="Gateway--Streamline-Ultimate" height="256" width="256">
  <desc>
    Gateway Streamline Icon: https://streamlinehq.com
  </desc>
  <path fill="#ffffff" fill-rule="evenodd" d="M25.475839999999998 9.661461333333332c9.34944 0 17.44352 5.375125333333333 21.36053333333333 13.203818666666665h23.64181333333333c3.544533333333333 0 6.8576 1.7607466666666665 8.840853333333332 4.698666666666666l17.329706666666667 25.671786666666666c9.584106666666667 -4.248106666666667 20.191786666666665 -6.608106666666666 31.350186666666666 -6.608106666666666 10.9088 0 21.290666666666667 2.2555733333333334 30.705066666666667 6.325866666666666l18.106666666666666 -25.58368c2 -2.825173333333333 5.245866666666666 -4.504533333333333 8.7072 -4.504533333333333h23.64053333333333c3.9168000000000003 -7.828693333333334 12.010666666666665 -13.203818666666665 21.361066666666666 -13.203818666666665 13.182933333333333 0 23.869866666666667 10.687231999999998 23.869866666666667 23.870485333333335 0 13.18336 -10.686933333333332 23.870506666666664 -23.869866666666667 23.870506666666664 -9.3504 0 -17.444266666666664 -5.375146666666667 -21.361066666666666 -13.20384h-18.122666666666667l-14.066133333333333 19.875306666666667C194.34666666666664 78.27509333333333 205.44 99.87658666666665 205.44 124.06933333333333c0 24.058666666666667 -10.971733333333333 45.5552 -28.183466666666664 59.75893333333333l14.078933333333334 20.391466666666666 23.604266666666664 0v-12.783999999999999c0 -3.2352 1.9498666666666664 -6.1525333333333325 4.938666666666666 -7.390933333333333 2.9898666666666665 -1.2384 6.430933333333333 -0.5536 8.718933333333332 1.7344l23.450666666666667 23.450666666666667c3.1231999999999998 3.1242666666666663 3.1231999999999998 8.189866666666667 0 11.314133333333332l-23.450666666666667 23.449599999999997c-2.288 2.288 -5.729066666666666 2.9728 -8.718933333333332 1.7344 -2.9888 -1.2384 -4.938666666666666 -4.1546666666666665 -4.938666666666666 -7.390933333333333v-12.783999999999999l-29.20213333333333 0c-3.5050666666666666 0 -6.786133333333333 -1.7215999999999998 -8.7776 -4.6058666666666666l-17.895466666666664 -25.92c-9.509333333333332 4.1696 -20.01813333333333 6.4832 -31.065599999999996 6.4832 -10.418133333333333 0 -20.3552 -2.0565333333333333 -29.42805333333333 -5.786666666666666l-19.6176 25.643733333333333c-2.0182399999999996 2.6378666666666666 -5.150293333333333 4.1856 -8.472 4.1856l-29.42656 0 0 12.783999999999999c0 3.2362666666666664 -1.94912 6.1525333333333325 -4.93856 7.390933333333333 -2.98944 1.2384 -6.430293333333333 0.5536 -8.718293333333332 -1.7344L3.9473066666666665 220.54399999999998c-3.1241898666666668 -3.1242666666666663 -3.1241887999999998 -8.189866666666667 0 -11.314133333333332l23.45056 -23.450666666666667c2.288 -2.288 5.728853333333333 -2.9728 8.718293333333332 -1.7344 2.98944 1.2384 4.93856 4.155733333333333 4.93856 7.390933333333333l0 12.783999999999999 24.156586666666662 0 14.808959999999999 -19.357866666666666c-17.94624 -14.183466666666668 -29.462933333333332 -36.14293333333333 -29.462933333333332 -60.79253333333333 0 -23.952746666666663 10.874346666666668 -45.36543999999999 27.955413333333333 -59.57056L64.80917333333332 44.198613333333334H46.83648c-3.9170133333333332 7.828693333333334 -12.011093333333331 13.20384 -21.360639999999997 13.20384 -13.18336 0 -23.870538666666665 -10.687146666666665 -23.870538666666665 -23.870506666666664 0 -13.183253333333333 10.687178666666664 -23.870485333333335 23.870538666666665 -23.870485333333335Z" clip-rule="evenodd" stroke-width="10.6667"></path>
</svg>