<svg xmlns="http://www.w3.org/2000/svg" viewBox="0 0 256 256" id="Gauge-Dashboard--Streamline-Ultimate" height="256" width="256">
  <desc>
    Gauge Dashboard Streamline Icon: https://streamlinehq.com
  </desc>
  <g id="Gauge-Dashboard--Streamline-Ultimate.svg">
    <path d="M128 39.14666666666666C58.71893333333333 39.14346666666667 2.5599999999999996 95.3056 2.5599999999999996 164.58666666666664v26.133333333333333c0 14.433066666666665 11.700266666666666 26.1344 26.133333333333333 26.133333333333333h198.61333333333334c14.433066666666665 -0.0010666666666666667 26.133333333333333 -11.700266666666666 26.133333333333333 -26.133333333333333v-26.133333333333333c0 -69.28106666666666 -56.15893333333333 -125.4432 -125.44 -125.44Zm99.30666666666667 138.50666666666666h-20.906666666666666c-6.0352 0 -9.806933333333333 -6.533333333333333 -6.7893333333333326 -11.76 1.3994666666666666 -2.4255999999999998 3.9882666666666666 -3.92 6.7893333333333326 -3.92h20.906666666666666c6.0352 0 9.806933333333333 6.533333333333333 6.7893333333333326 11.76 -1.4005333333333332 2.4255999999999998 -3.9882666666666666 3.92 -6.7893333333333326 3.92Zm-28.746666666666663 -39.93173333333333c-2.8031999999999995 0.05653333333333333 -5.412266666666666 -1.4282666666666666 -6.794666666666666 -3.867733333333333 -2.0031999999999996 -3.678933333333333 -0.7594666666666666 -8.282666666666666 2.8224 -10.453333333333333L212.67199999999997 112.32c3.7119999999999997 -1.9285333333333332 8.282666666666666 -0.6485333333333333 10.453333333333333 2.926933333333333 1.984 3.7055999999999996 0.6933333333333334 8.316799999999999 -2.926933333333333 10.453333333333333l-18.084266666666664 10.453333333333333c-1.0325333333333333 0.816 -2.2549333333333332 1.3557333333333332 -3.554133333333333 1.5679999999999998Zm-41.81333333333333 26.865066666666667c0 22.129066666666667 -23.955199999999998 35.959466666666664 -43.120000000000005 24.89493333333333 -19.1648 -11.064533333333333 -19.1648 -38.72533333333333 0 -49.78986666666666 4.370133333333333 -2.5237333333333334 9.326933333333333 -3.851733333333333 14.373333333333331 -3.851733333333333 2.8704 -0.016 5.725866666666667 0.4064 8.467199999999998 1.2544l39.09546666666667 -60.2112c2.3957333333333333 -3.307733333333333 6.8896 -4.296533333333333 10.453333333333333 -2.299733333333333 3.3962666666666665 2.3381333333333334 4.401066666666667 6.906666666666666 2.299733333333333 10.453333333333333l-39.09546666666667 60.2112c4.811733333333333 5.294933333333333 7.493333333333333 12.183466666666668 7.5264 19.338666666666665ZM88.1728 106.048c-3.678933333333333 2.0031999999999996 -8.282666666666666 0.7594666666666666 -10.453333333333333 -2.8224l-10.453333333333333 -18.084266666666664c-2.0031999999999996 -3.678933333333333 -0.7594666666666666 -8.282666666666666 2.8224 -10.453333333333333 3.7119999999999997 -1.9285333333333332 8.282666666666666 -0.6485333333333333 10.453333333333333 2.926933333333333l10.453333333333333 18.084266666666664c1.936 3.6544 0.7007999999999999 8.183466666666666 -2.8224 10.348799999999999Zm-34.60053333333333 30.628266666666665 -18.084266666666664 -10.453333333333333c-3.6202666666666663 -2.1365333333333334 -4.9109333333333325 -6.747733333333334 -2.926933333333333 -10.453333333333333 2.0010666666666665 -3.9487999999999994 6.843733333333333 -5.5008 10.766933333333334 -3.4496l18.084266666666664 10.453333333333333c5.230933333333333 3.0176 5.233066666666666 10.565333333333333 0.004266666666666667 13.5872 -2.4266666666666667 1.4015999999999997 -5.416533333333334 1.4026666666666667 -7.844266666666667 0.0021333333333333334ZM57.44 169.81333333333333c-0.05653333333333333 4.306133333333333 -3.5338666666666665 7.7834666666666665 -7.84 7.84H28.69333333333333c-6.0352 0 -9.806933333333333 -6.533333333333333 -6.7893333333333326 -11.76 1.4005333333333332 -2.4255999999999998 3.9882666666666666 -3.92 6.7893333333333326 -3.92h20.906666666666666c4.306133333333333 0.05653333333333333 7.7834666666666665 3.5338666666666665 7.84 7.84ZM128 57.44c4.306133333333333 0.05653333333333333 7.7834666666666665 3.5338666666666665 7.84 7.84v20.906666666666666c0 6.0352 -6.533333333333333 9.806933333333333 -11.76 6.7893333333333326 -2.4255999999999998 -1.4005333333333332 -3.92 -3.9882666666666666 -3.92 -6.7893333333333326V65.28c0.05653333333333333 -4.306133333333333 3.5338666666666665 -7.7834666666666665 7.84 -7.84Z" fill="#ffffff" stroke-width="10.6667"></path>
    <path d="M114.93333333333334 164.58666666666664c0 10.058666666666666 10.888533333333331 16.345599999999997 19.599999999999998 11.316266666666666 4.042666666666666 -2.3338666666666663 6.533333333333333 -6.647466666666666 6.533333333333333 -11.316266666666666 0 -10.058666666666666 -10.888533333333331 -16.345599999999997 -19.599999999999998 -11.316266666666666 -4.042666666666666 2.3338666666666663 -6.533333333333333 6.647466666666666 -6.533333333333333 11.316266666666666" fill="#ffffff" stroke-width="10.6667"></path>
  </g>
</svg>