<svg xmlns="http://www.w3.org/2000/svg" id="Gender-Female--Streamline-Ultimate" width="256" height="256" viewBox="0 0 256 256"><desc>Gender Female Streamline Icon: https://streamlinehq.com</desc><path fill="#fff" stroke-width="10.667" d="M210.66666666666666 82.66666666666666a82.66666666666666 82.66666666666666 0 1 0 -98.13333333333333 81.06666666666666 2.88 2.88 0 0 1 2.1333333333333333 2.6666666666666665v28.266666666666666a2.6666666666666665 2.6666666666666665 0 0 1 -2.6666666666666665 2.6666666666666665H96A13.333333333333332 13.333333333333332 0 0 0 96 224h16a2.6666666666666665 2.6666666666666665 0 0 1 2.6666666666666665 2.6666666666666665v16a13.333333333333332 13.333333333333332 0 0 0 26.666666666666664 0v-16a2.6666666666666665 2.6666666666666665 0 0 1 2.6666666666666665 -2.6666666666666665H160a13.333333333333332 13.333333333333332 0 0 0 0 -26.666666666666664h-16a2.6666666666666665 2.6666666666666665 0 0 1 -2.6666666666666665 -2.6666666666666665V166.39999999999998a2.88 2.88 0 0 1 2.1333333333333333 -2.6666666666666665 82.66666666666666 82.66666666666666 0 0 0 67.19999999999999 -81.06666666666666Zm-138.66666666666666 0A56 56 0 1 1 128 138.66666666666666a56.10666666666666 56.10666666666666 0 0 1 -56 -56Z"/></svg>