<svg xmlns="http://www.w3.org/2000/svg" viewBox="0 0 256 256" id="Gender-Hetero--Streamline-Ultimate" height="256" width="256">
  <desc>
    Gender Hetero Streamline Icon: https://streamlinehq.com
  </desc>
  <path d="M240.15573333333333 2.5599999999999996h-41.654399999999995c-2.0565333333333333 -0.021333333333333333 -3.915733333333333 1.2181333333333333 -4.686933333333333 3.1242666666666663 -0.8341333333333334 1.9114666666666666 -0.4224 4.1376 1.0421333333333331 5.623466666666666l9.684266666666666 9.685333333333332c1.0623999999999998 1.024 1.0623999999999998 2.724266666666667 0 3.7482666666666664l-21.556266666666666 21.973333333333333c-0.9578666666666666 0.7114666666666666 -2.2698666666666663 0.7114666666666666 -3.227733333333333 0 -27.899733333333334 -17.727999999999998 -64.42133333333334 -13.374933333333333 -87.37173333333334 10.413866666666665 -42.656 -6.914133333333333 -81.392 25.933866666666663 -81.5392 69.14666666666666 0.051199999999999996 30.715733333333333 20.24 57.762133333333324 49.6736 66.544 1.1103999999999998 0.32426666666666665 1.8741333333333332 1.3418666666666665 1.8741333333333332 2.4992v8.2272c0 1.4378666666666666 -1.1658666666666666 2.6037333333333335 -2.6037333333333335 2.6037333333333335h-4.581333333333333c-9.820799999999998 -1.5424 -17.62773333333333 8.123733333333334 -14.053333333333331 17.399466666666665 2.187733333333333 5.677866666666667 8.041599999999999 9.057066666666666 14.053333333333331 8.113066666666667h5.101866666666666c1.4378666666666666 0 2.6037333333333335 1.1658666666666666 2.6037333333333335 2.6037333333333335v5.102933333333333c-0.8917333333333333 9.9008 9.268266666666666 17.053866666666664 18.287999999999997 12.875733333333333 4.948266666666666 -2.2912 7.9232 -7.444266666666666 7.433599999999999 -12.875733333333333v-5.102933333333333c-0.02453333333333333 -1.2565333333333333 0.8512 -2.352 2.0831999999999997 -2.6037333333333335h5.2063999999999995c9.9008 -0.8917333333333333 15.123199999999999 -12.1664 9.399466666666665 -20.2944 -2.1834666666666664 -3.1018666666666665 -5.621333333333333 -5.086933333333333 -9.399466666666665 -5.4272h-5.2063999999999995c-1.4154666666666667 -0.05333333333333333 -2.5504 -1.1882666666666666 -2.6037333333333335 -2.6037333333333335v-5.934933333333333c0.042666666666666665 -1.2842666666666664 1.0154666666666667 -2.3466666666666667 2.2912 -2.4992 14.9152 -2.235733333333333 28.7168 -9.209599999999998 39.364266666666666 -19.891199999999998 42.6016 6.3744 81.04533333333333 -26.283733333333334 81.64373333333333 -69.35466666666666 0.15893333333333332 -13.232 -3.4528 -26.235733333333332 -10.413866666666665 -37.49013333333333 -0.7317333333333332 -0.9130666666666666 -0.7317333333333332 -2.2112 0 -3.1242666666666663l21.972266666666663 -21.972266666666663c0.4853333333333333 -0.5226666666666666 1.1626666666666665 -0.8234666666666667 1.8752 -0.8330666666666666 0.7071999999999999 0.032 1.3770666666666664 0.32853333333333334 1.8741333333333332 0.8330666666666666l9.5808 9.5808c2.8618666666666663 2.8053333333333335 7.688533333333333 1.4613333333333334 8.687999999999999 -2.4202666666666666 0.10239999999999999 -0.39999999999999997 0.15786666666666666 -0.8117333333333333 0.16319999999999998 -1.2245333333333333V7.3504000000000005C244.992 4.6944 242.81599999999997 2.6090666666666666 240.15573333333333 2.5599999999999996ZM146.432 149.2896c6.394666666666667 -18.174933333333332 5.000533333333333 -38.18346666666666 -3.8528000000000002 -55.297066666666666 -4.609066666666666 -8.818133333333332 -17.0368 -9.339733333333333 -22.368 -0.9386666666666665 -2.474666666666667 3.899733333333333 -2.6816 8.822399999999998 -0.5418666666666666 12.9152 3.4037333333333333 6.4064 5.124266666666666 13.573333333333332 4.9984 20.826666666666664 -0.03733333333333333 33.74933333333333 -36.59413333333333 54.803200000000004 -65.80373333333333 37.89653333333333 -29.2096 -16.906666666666666 -29.163733333333333 -59.093333333333334 0.08213333333333334 -75.93599999999999 5.585066666666666 -3.2170666666666663 11.8112 -5.1616 18.234666666666666 -5.698133333333333 -2.760533333333333 7.2245333333333335 -4.2752 14.866133333333332 -4.477866666666666 22.598399999999998 -0.012799999999999999 13.7152 4.045866666666667 27.125333333333334 11.663999999999998 38.53013333333333 6.068266666666666 7.873066666666666 18.384 6.224 22.167466666666662 -2.9685333333333332 1.5135999999999998 -3.6757333333333335 1.2490666666666665 -7.8431999999999995 -0.7157333333333333 -11.298133333333332 -18.7168 -28.083199999999998 -0.013866666666666666 -65.8976 33.66506666666666 -68.06613333333333 33.68 -2.1674666666666664 57.07626666666667 32.93653333333333 42.11413333333333 63.188266666666664 -6.8010666666666655 13.751466666666666 -20.295466666666666 22.9472 -35.58186666666666 24.247466666666668Z" fill="#ffffff" stroke-width="10.6667"></path>
</svg>