<svg xmlns="http://www.w3.org/2000/svg" id="Gesture-Double-Tap--Streamline-Ultimate" width="256" height="256" viewBox="0 0 256 256"><desc>Gesture Double Tap Streamline Icon: https://streamlinehq.com</desc><g id="Gesture-Double-Tap--Streamline-Ultimate.svg"><path fill="#fff" stroke-width="10.667" d="M128 51.946666666666665A70.29333333333332 70.29333333333332 0 0 0 68.37333333333333 160a8 8 0 1 0 13.546666666666667 -8.426666666666666A54.29333333333333 54.29333333333333 0 1 1 175.46666666666664 96a53.33333333333333 53.33333333333333 0 0 1 -1.4933333333333334 55.14666666666666 8 8 0 0 0 13.546666666666667 8.533333333333333A70.39999999999999 70.39999999999999 0 0 0 128 51.946666666666665Z"/><path fill="#fff" stroke-width="10.667" d="M233.59999999999997 78.08A114.02666666666666 114.02666666666666 0 0 0 128 9.28a113.70666666666666 113.70666666666666 0 0 0 -105.6 69.01333333333332A114.13333333333333 114.13333333333333 0 0 0 42.666666666666664 202.66666666666666a8 8 0 0 0 11.306666666666667 0.5333333333333333 8 8 0 0 0 0 -11.306666666666667A98.45333333333333 98.45333333333333 0 0 1 37.013333333333335 84.69333333333333 98.13333333333333 98.13333333333333 0 0 1 128 25.28a98.34666666666666 98.34666666666666 0 0 1 90.98666666666665 59.30666666666666A98.45333333333333 98.45333333333333 0 0 1 201.70666666666665 192 8 8 0 1 0 213.33333333333331 202.66666666666666a114.34666666666666 114.34666666666666 0 0 0 20.266666666666666 -124.58666666666666Z"/><path fill="#fff" stroke-width="10.667" d="m175.14666666666668 181.33333333333331 -40 -11.946666666666667a2.6666666666666665 2.6666666666666665 0 0 1 -1.8133333333333335 -2.5599999999999996v-48.32a10.666666666666666 10.666666666666666 0 0 0 -21.333333333333332 0v75.41333333333333a2.6666666666666665 2.6666666666666665 0 0 1 -1.92 2.453333333333333 2.5599999999999996 2.5599999999999996 0 0 1 -2.986666666666667 -0.96c-15.893333333333333 -22.826666666666668 -41.17333333333333 -15.466666666666665 -29.439999999999998 2.3466666666666667l31.04 46.61333333333333a5.333333333333333 5.333333333333333 0 0 0 4.4799999999999995 2.3466666666666667H170.66666666666666a5.226666666666667 5.226666666666667 0 0 0 5.226666666666667 -4.373333333333333c2.1333333333333333 -11.733333333333334 7.1466666666666665 -39.25333333333333 8.32 -44.373333333333335a13.653333333333332 13.653333333333332 0 0 0 -9.066666666666666 -16.64Z"/></g></svg>