<svg xmlns="http://www.w3.org/2000/svg" viewBox="0 0 256 256" id="Gift-Box-1--Streamline-Ultimate" height="256" width="256">
  <desc>
    Gift Box 1 Streamline Icon: https://streamlinehq.com
  </desc>
  <g id="Gift-Box-1--Streamline-Ultimate.svg">
    <path d="M186.34666666666664 121.38666666666667h-38.29333333333333a72.96 72.96 0 0 0 24.53333333333333 -11.84 27.199999999999996 27.199999999999996 0 1 0 -38.50666666666666 -38.4 38.50666666666666 38.50666666666666 0 0 0 -6.3999999999999995 10.666666666666666 36.05333333333333 36.05333333333333 0 0 0 -6.506666666666666 -10.666666666666666 27.199999999999996 27.199999999999996 0 1 0 -38.4 38.4 72.96 72.96 0 0 0 24.53333333333333 11.84H69.01333333333332a18.666666666666664 18.666666666666664 0 0 0 -18.666666666666664 18.666666666666664v10.666666666666666a18.773333333333333 18.773333333333333 0 0 0 18.666666666666664 18.666666666666664H117.33333333333333a2.6666666666666665 2.6666666666666665 0 0 0 2.6666666666666665 -2.6666666666666665v-45.33333333333333h16v45.33333333333333a2.6666666666666665 2.6666666666666665 0 0 0 2.6666666666666665 2.6666666666666665h48a18.773333333333333 18.773333333333333 0 0 0 18.666666666666664 -18.666666666666664v-10.666666666666666a18.666666666666664 18.666666666666664 0 0 0 -18.986666666666665 -18.666666666666664ZM149.33333333333331 86.18666666666667a5.866666666666667 5.866666666666667 0 0 1 4.16 -1.7066666666666666 6.293333333333333 6.293333333333333 0 0 1 4.053333333333333 1.7066666666666666 5.866666666666667 5.866666666666667 0 0 1 0 8.213333333333333 62.72 62.72 0 0 1 -14.293333333333333 6.079999999999999A59.626666666666665 59.626666666666665 0 0 1 149.33333333333331 86.18666666666667Zm-51.30666666666666 0a5.866666666666667 5.866666666666667 0 0 1 8.106666666666666 0 61.97333333333333 61.97333333333333 0 0 1 6.079999999999999 14.4 62.72 62.72 0 0 1 -14.293333333333333 -6.079999999999999 5.76 5.76 0 0 1 0 -8.32Z" fill="#ffffff" stroke-width="10.6667"></path>
    <path d="M138.66666666666666 185.38666666666666a2.6666666666666665 2.6666666666666665 0 0 0 -2.6666666666666665 2.6666666666666665v53.33333333333333a2.6666666666666665 2.6666666666666665 0 0 0 2.6666666666666665 2.6666666666666665h27.41333333333333a18.773333333333333 18.773333333333333 0 0 0 18.56 -17.386666666666663l2.7733333333333334 -38.50666666666666a2.5599999999999996 2.5599999999999996 0 0 0 -0.7466666666666667 -2.0266666666666664 2.453333333333333 2.453333333333333 0 0 0 -1.92 -0.7466666666666667Z" fill="#ffffff" stroke-width="10.6667"></path>
    <path d="M119.68 188.0533333333333a2.6666666666666665 2.6666666666666665 0 0 0 -2.6666666666666665 -2.6666666666666665H70.93333333333334a2.7733333333333334 2.7733333333333334 0 0 0 -2.0266666666666664 0.7466666666666667 2.88 2.88 0 0 0 -0.6399999999999999 2.0266666666666664l2.6666666666666665 38.50666666666666a18.88 18.88 0 0 0 18.666666666666664 17.386666666666663H117.33333333333333a2.6666666666666665 2.6666666666666665 0 0 0 2.6666666666666665 -2.6666666666666665Z" fill="#ffffff" stroke-width="10.6667"></path>
    <path d="M128 49.38666666666666a10.666666666666666 10.666666666666666 0 0 0 10.666666666666666 -10.666666666666666v-16a10.666666666666666 10.666666666666666 0 0 0 -21.333333333333332 0v16a10.666666666666666 10.666666666666666 0 0 0 10.666666666666666 10.666666666666666Z" fill="#ffffff" stroke-width="10.6667"></path>
    <path d="M65.28 74.66666666666666a10.666666666666666 10.666666666666666 0 0 0 0 -15.146666666666665L53.97333333333333 48.63999999999999a10.666666666666666 10.666666666666666 0 0 0 -15.04 0 10.666666666666666 10.666666666666666 0 0 0 0 15.36l11.306666666666667 10.666666666666666a10.666666666666666 10.666666666666666 0 0 0 15.04 0Z" fill="#ffffff" stroke-width="10.6667"></path>
    <path d="M28.69333333333333 126.72h-16a10.666666666666666 10.666666666666666 0 1 0 0 21.333333333333332h16a10.666666666666666 10.666666666666666 0 0 0 0 -21.333333333333332Z" fill="#ffffff" stroke-width="10.6667"></path>
    <path d="M217.06666666666666 48.63999999999999a10.666666666666666 10.666666666666666 0 0 0 -15.04 0l-11.306666666666667 11.306666666666667a10.666666666666666 10.666666666666666 0 0 0 0 15.146666666666665 10.666666666666666 10.666666666666666 0 0 0 15.04 0L217.06666666666666 64a10.666666666666666 10.666666666666666 0 0 0 0 -15.36Z" fill="#ffffff" stroke-width="10.6667"></path>
    <path d="M243.30666666666664 126.72h-16a10.666666666666666 10.666666666666666 0 0 0 0 21.333333333333332h16a10.666666666666666 10.666666666666666 0 0 0 0 -21.333333333333332Z" fill="#ffffff" stroke-width="10.6667"></path>
  </g>
</svg>