<svg xmlns="http://www.w3.org/2000/svg" id="Global-Business-Man-User--Streamline-Ultimate" width="256" height="256" viewBox="0 0 256 256"><desc>Global Business Man User Streamline Icon: https://streamlinehq.com</desc><g id="Global-Business-Man-User--Streamline-Ultimate.svg"><path fill="#fff" stroke-width="10.667" d="M128.95999999999998 254.71999999999997h5.866666666666667a10.666666666666666 10.666666666666666 0 0 0 -0.8533333333333333 -20.69333333333333h-2.986666666666667a2.453333333333333 2.453333333333333 0 0 1 -2.1333333333333333 -1.1733333333333333 239.25333333333333 239.25333333333333 0 0 1 -20.159999999999997 -33.81333333333333 2.7733333333333334 2.7733333333333334 0 0 1 0 -2.5599999999999996 2.88 2.88 0 0 1 2.2399999999999998 -1.2799999999999998h7.786666666666666a10.666666666666666 10.666666666666666 0 1 0 0 -20.586666666666666H100.69333333333333a2.6666666666666665 2.6666666666666665 0 0 1 -2.5599999999999996 -1.92 174.9333333333333 174.9333333333333 0 0 1 -7.68 -36.586666666666666 2.7733333333333334 2.7733333333333334 0 0 1 0.7466666666666667 -2.0266666666666664 2.453333333333333 2.453333333333333 0 0 1 1.92 -0.8533333333333333h23.146666666666665a10.666666666666666 10.666666666666666 0 0 0 0 -20.69333333333333H93.01333333333334a2.6666666666666665 2.6666666666666665 0 0 1 -1.92 -0.8533333333333333 2.7733333333333334 2.7733333333333334 0 0 1 -0.7466666666666667 -2.0266666666666664 154.24 154.24 0 0 1 4.693333333333333 -26.133333333333333 2.7733333333333334 2.7733333333333334 0 0 1 2.5599999999999996 -2.0266666666666664h29.013333333333335a10.666666666666666 10.666666666666666 0 1 0 0 -20.586666666666666H107.73333333333332a2.88 2.88 0 0 1 -2.2399999999999998 -1.2799999999999998 2.453333333333333 2.453333333333333 0 0 1 0 -2.5599999999999996A169.27999999999997 169.27999999999997 0 0 1 128 23.04a2.986666666666667 2.986666666666667 0 0 1 1.92 -0.96l6.079999999999999 0c5.76 0 8.533333333333333 -4.16 8.853333333333332 -9.92a10.666666666666666 10.666666666666666 0 0 0 -9.92 -10.666666666666666 23.04 23.04 0 0 0 -3.84 0h-1.5999999999999999A124.16 124.16 0 0 0 2.7733333333333334 123.83999999999999a128 128 0 0 0 126.18666666666667 130.88Zm-29.866666666666664 -30.186666666666667a2.7733333333333334 2.7733333333333334 0 0 1 0 3.093333333333333 2.453333333333333 2.453333333333333 0 0 1 -2.88 0.7466666666666667 105.06666666666666 105.06666666666666 0 0 1 -43.84 -28.69333333333333 2.5599999999999996 2.5599999999999996 0 0 1 0 -2.88 2.5599999999999996 2.5599999999999996 0 0 1 2.3466666666666667 -1.5999999999999999h28.8a2.88 2.88 0 0 1 2.5599999999999996 1.7066666666666666 229.54666666666665 229.54666666666665 0 0 0 13.013333333333332 27.626666666666665ZM50.02666666666667 56.42666666666666a102.72 102.72 0 0 1 42.666666666666664 -27.946666666666665 2.5599999999999996 2.5599999999999996 0 0 1 2.986666666666667 0.7466666666666667A2.7733333333333334 2.7733333333333334 0 0 1 96 32a178.34666666666664 178.34666666666664 0 0 0 -13.866666666666667 26.88 2.6666666666666665 2.6666666666666665 0 0 1 -2.453333333333333 1.7066666666666666h-27.733333333333334a2.6666666666666665 2.6666666666666665 0 0 1 -2.453333333333333 -1.5999999999999999 2.6666666666666665 2.6666666666666665 0 0 1 0.5333333333333333 -2.5599999999999996ZM32 83.09333333333333a2.6666666666666665 2.6666666666666665 0 0 1 2.453333333333333 -1.5999999999999999h36.266666666666666a2.6666666666666665 2.6666666666666665 0 0 1 2.986666666666667 3.84 168 168 0 0 0 -3.733333333333333 25.28 2.6666666666666665 2.6666666666666665 0 0 1 -2.6666666666666665 2.453333333333333H27.306666666666665a2.6666666666666665 2.6666666666666665 0 0 1 -2.0266666666666664 -0.96 2.453333333333333 2.453333333333333 0 0 1 -0.6399999999999999 -2.1333333333333333A109.01333333333334 109.01333333333334 0 0 1 32 83.09333333333333Zm1.7066666666666666 89.91999999999999a111.35999999999999 111.35999999999999 0 0 1 -10.666666666666666 -36.906666666666666 2.3466666666666667 2.3466666666666667 0 0 1 0.6399999999999999 -2.0266666666666664 2.88 2.88 0 0 1 2.0266666666666664 -0.8533333333333333h41.599999999999994a2.5599999999999996 2.5599999999999996 0 0 1 2.6666666666666665 2.453333333333333 191.14666666666668 191.14666666666668 0 0 0 6.293333333333333 35.519999999999996 2.6666666666666665 2.6666666666666665 0 0 1 0 2.3466666666666667 2.7733333333333334 2.7733333333333334 0 0 1 -2.1333333333333333 1.0666666666666667H36.586666666666666a2.6666666666666665 2.6666666666666665 0 0 1 -2.453333333333333 -1.5999999999999999Z"/><path fill="#fff" stroke-width="10.667" d="M196.37333333333333 91.73333333333332a56.959999999999994 56.959999999999994 0 0 0 -56.85333333333333 56.85333333333333v36.266666666666666a5.226666666666667 5.226666666666667 0 0 0 5.226666666666667 5.119999999999999h18.56a2.6666666666666665 2.6666666666666665 0 0 1 2.6666666666666665 2.453333333333333l4.693333333333333 54.82666666666666a5.119999999999999 5.119999999999999 0 0 0 5.119999999999999 4.693333333333333h41.38666666666666a5.119999999999999 5.119999999999999 0 0 0 5.119999999999999 -4.693333333333333l4.4799999999999995 -55.25333333333333a2.6666666666666665 2.6666666666666665 0 0 1 2.6666666666666665 -2.453333333333333h18.666666666666664a5.226666666666667 5.226666666666667 0 0 0 5.119999999999999 -5.119999999999999v-36.266666666666666a56.959999999999994 56.959999999999994 0 0 0 -56.85333333333333 -56.42666666666666Zm7.786666666666666 66.66666666666666a7.786666666666666 7.786666666666666 0 1 1 -15.573333333333332 0V117.33333333333333a7.786666666666666 7.786666666666666 0 1 1 15.573333333333332 0Z"/><path fill="#fff" stroke-width="10.667" d="M196.37333333333333 86.61333333333332a41.38666666666666 41.38666666666666 0 1 0 -41.28 -41.38666666666666 41.38666666666666 41.38666666666666 0 0 0 41.28 41.38666666666666Zm-23.786666666666665 -51.093333333333334a2.6666666666666665 2.6666666666666665 0 0 1 1.7066666666666666 -1.4933333333333334 2.7733333333333334 2.7733333333333334 0 0 1 2.2399999999999998 0 55.25333333333333 55.25333333333333 0 0 0 31.253333333333334 9.6A56.42666666666666 56.42666666666666 0 0 0 219.0933333333333 42.666666666666664a2.453333333333333 2.453333333333333 0 0 1 3.093333333333333 2.453333333333333 25.813333333333333 25.813333333333333 0 1 1 -51.626666666666665 0 24.746666666666663 24.746666666666663 0 0 1 2.0266666666666664 -9.6Z"/></g></svg>