<svg xmlns="http://www.w3.org/2000/svg" id="Go-Backward-30-Control--Streamline-Ultimate" width="256" height="256" fill="none" viewBox="0 0 256 256"><desc>Go Backward 30 Control Streamline Icon: https://streamlinehq.com</desc><path fill="#fff" fill-rule="evenodd" stroke-width="10.667" d="M120.45866666666666 4.949333333333334A10.666666666666666 10.666666666666666 0 0 1 138.66666666666666 12.490666666666666v13.280000000000001c58.208 5.3759999999999994 103.78666666666666 54.346666666666664 103.78666666666666 113.952 0 63.21066666666667 -51.242666666666665 114.45333333333333 -114.45333333333333 114.45333333333333S13.546666666666667 202.9333333333333 13.546666666666667 139.72266666666667a114.24000000000001 114.24000000000001 0 0 1 42.176 -88.74666666666667 10.666666666666666 10.666666666666666 0 0 1 13.482666666666667 16.53333333333333 93.12 93.12 0 1 0 151.904 72.21333333333332A93.12 93.12 0 0 0 138.66666666666666 47.22133333333333v12.170666666666666a10.666666666666666 10.666666666666666 0 0 1 -18.197333333333333 7.552l-23.46666666666667 -23.455999999999996a10.666666666666666 10.666666666666666 0 0 1 0 -15.082666666666665L120.45866666666666 4.949333333333334ZM95.2 91.73333333333332c-8.586666666666666 0 -16.21333333333333 4.1386666666666665 -20.981333333333332 10.485333333333333a10.666666666666666 10.666666666666666 0 0 0 17.066666666666666 12.810666666666666 4.8853333333333335 4.8853333333333335 0 0 1 8.810666666666666 2.9226666666666667v2.496a5.514666666666667 5.514666666666667 0 0 1 -5.525333333333333 5.514666666666667 10.666666666666666 10.666666666666666 0 1 0 0 21.333333333333332h0.6293333333333333a8 8 0 0 1 8 8v3.1039999999999996a8 8 0 0 1 -8 8c-4.16 0 -7.7333333333333325 -2.8373333333333335 -8.608 -5.333333333333333a10.666666666666666 10.666666666666666 0 1 0 -20.11733333333333 7.1146666666666665C70.72 180.192 83.09333333333333 187.73333333333335 95.2 187.73333333333335a29.333333333333332 29.333333333333332 0 0 0 29.333333333333332 -29.333333333333332v-3.1039999999999996a29.226666666666667 29.226666666666667 0 0 0 -7.712 -19.818666666666665c2.9013333333333335 -4.288 4.597333333333333 -9.461333333333332 4.597333333333333 -15.029333333333334v-2.485333333333333c0 -14.485333333333333 -11.733333333333334 -26.229333333333333 -26.218666666666667 -26.229333333333333Zm64.82133333333333 21.333333333333332a7.221333333333334 7.221333333333334 0 0 0 -7.221333333333334 7.232v38.879999999999995c0 3.989333333333333 3.2319999999999998 7.221333333333334 7.221333333333334 7.221333333333334h1.5573333333333332a7.221333333333334 7.221333333333334 0 0 0 7.221333333333334 -7.221333333333334v-38.89066666666666a7.221333333333334 7.221333333333334 0 0 0 -7.221333333333334 -7.221333333333334h-1.5573333333333332Zm-28.554666666666666 7.232A28.554666666666666 28.554666666666666 0 0 1 160.02133333333333 91.73333333333332h1.5573333333333332a28.554666666666666 28.554666666666666 0 0 1 28.554666666666666 28.56533333333333v38.879999999999995a28.554666666666666 28.554666666666666 0 0 1 -28.554666666666666 28.554666666666666h-1.5573333333333332a28.554666666666666 28.554666666666666 0 0 1 -28.554666666666666 -28.554666666666666v-38.89066666666666Z" clip-rule="evenodd"/></svg>