<svg xmlns="http://www.w3.org/2000/svg" id="Go-Pro--Streamline-Ultimate" width="256" height="256" viewBox="0 0 256 256"><desc>Go Pro Streamline Icon: https://streamlinehq.com</desc><g id="Go-Pro--Streamline-Ultimate.svg"><path fill="#fff" stroke-width="10.667" d="M133.33333333333331 98.66666666666666a24 24 0 0 0 24 24h96a2.6666666666666665 2.6666666666666665 0 0 0 2.6666666666666665 -2.6666666666666665V26.666666666666664A26.666666666666664 26.666666666666664 0 0 0 229.33333333333331 0h-93.33333333333333a2.6666666666666665 2.6666666666666665 0 0 0 -2.6666666666666665 2.6666666666666665ZM194.66666666666666 96a34.666666666666664 34.666666666666664 0 1 1 34.666666666666664 -34.666666666666664A34.666666666666664 34.666666666666664 0 0 1 194.66666666666666 96Z"/><path fill="#fff" stroke-width="10.667" d="M157.33333333333331 138.66666666666666A40 40 0 0 1 117.33333333333333 98.66666666666666v-96a2.6666666666666665 2.6666666666666665 0 0 0 -2.6666666666666665 -2.6666666666666665H26.666666666666664A26.666666666666664 26.666666666666664 0 0 0 0 26.666666666666664v128A26.666666666666664 26.666666666666664 0 0 0 26.666666666666664 181.33333333333331h202.66666666666666a26.666666666666664 26.666666666666664 0 0 0 26.666666666666664 -26.666666666666664v-13.333333333333332a2.6666666666666665 2.6666666666666665 0 0 0 -2.6666666666666665 -2.6666666666666665ZM30.72 48a8 8 0 0 1 7.893333333333333 -8H74.66666666666666a8 8 0 0 1 0 16H38.61333333333333a8 8 0 0 1 -7.893333333333333 -8Z"/><path fill="#fff" stroke-width="10.667" d="M176 234.66666666666666h-24a2.6666666666666665 2.6666666666666665 0 0 1 -2.6666666666666665 -2.6666666666666665V197.33333333333331a5.333333333333333 5.333333333333333 0 0 0 -5.333333333333333 -5.333333333333333h-32a5.333333333333333 5.333333333333333 0 0 0 -5.333333333333333 5.333333333333333v5.333333333333333a2.6666666666666665 2.6666666666666665 0 0 1 -2.6666666666666665 2.6666666666666665h-37.33333333333333A2.6666666666666665 2.6666666666666665 0 0 1 64 202.66666666666666a5.333333333333333 5.333333333333333 0 0 0 -5.333333333333333 -5.333333333333333h-42.666666666666664a16 16 0 0 0 0 32h42.666666666666664A5.333333333333333 5.333333333333333 0 0 0 64 224a2.6666666666666665 2.6666666666666665 0 0 1 2.6666666666666665 -2.6666666666666665h37.33333333333333A2.6666666666666665 2.6666666666666665 0 0 1 106.66666666666666 224v8a2.6666666666666665 2.6666666666666665 0 0 1 -2.6666666666666665 2.6666666666666665H80a10.666666666666666 10.666666666666666 0 0 0 0 21.333333333333332h96a10.666666666666666 10.666666666666666 0 0 0 0 -21.333333333333332Z"/></g></svg>