<svg xmlns="http://www.w3.org/2000/svg" viewBox="0 0 256 256" id="Gold-Bars--Streamline-Ultimate" height="256" width="256">
  <desc>
    Gold Bars Streamline Icon: https://streamlinehq.com
  </desc>
  <g id="Gold-Bars--Streamline-Ultimate.svg">
    <path d="M100.58666666666666 178.98666666666668a10.666666666666666 10.666666666666666 0 0 0 -10.666666666666666 -8.32H32.64a10.666666666666666 10.666666666666666 0 0 0 -10.666666666666666 8.32l-16.64 64a10.666666666666666 10.666666666666666 0 0 0 2.1333333333333333 9.066666666666666 10.666666666666666 10.666666666666666 0 0 0 8.533333333333333 3.9466666666666663H106.66666666666666a10.666666666666666 10.666666666666666 0 0 0 8.32 -3.9466666666666663 10.666666666666666 10.666666666666666 0 0 0 2.0266666666666664 -9.066666666666666Z" fill="#ffffff" stroke-width="10.6667"></path>
    <path d="M228.58666666666664 178.98666666666668a10.666666666666666 10.666666666666666 0 0 0 -10.666666666666666 -8.32h-57.28a10.666666666666666 10.666666666666666 0 0 0 -10.666666666666666 8.32l-16.64 64a10.666666666666666 10.666666666666666 0 0 0 2.1333333333333333 9.066666666666666 10.666666666666666 10.666666666666666 0 0 0 8.32 3.9466666666666663H234.66666666666666a10.666666666666666 10.666666666666666 0 0 0 8.32 -3.9466666666666663 10.666666666666666 10.666666666666666 0 0 0 2.0266666666666664 -9.066666666666666Z" fill="#ffffff" stroke-width="10.6667"></path>
    <path d="m86.18666666666667 77.65333333333334 -16.64 64a10.666666666666666 10.666666666666666 0 0 0 2.1333333333333333 9.066666666666666 10.666666666666666 10.666666666666666 0 0 0 8.32 3.9466666666666663H170.66666666666666a10.666666666666666 10.666666666666666 0 0 0 8.32 -3.9466666666666663 10.666666666666666 10.666666666666666 0 0 0 2.0266666666666664 -9.066666666666666l-16.53333333333333 -64a10.666666666666666 10.666666666666666 0 0 0 -10.666666666666666 -8.32H96.64a10.666666666666666 10.666666666666666 0 0 0 -10.453333333333333 8.32Z" fill="#ffffff" stroke-width="10.6667"></path>
    <path d="M41.06666666666666 90.34666666666666a7.893333333333333 7.893333333333333 0 0 0 7.893333333333333 7.893333333333333 8 8 0 0 0 8 -7.573333333333332 38.18666666666667 38.18666666666667 0 0 1 33.28 -33.49333333333333 8 8 0 0 0 0 -16A36.586666666666666 36.586666666666666 0 0 1 57.06666666666666 8.32 8 8 0 0 0 49.06666666666666 0a8 8 0 0 0 -8 8A36.48 36.48 0 0 1 7.786666666666666 41.17333333333333a7.893333333333333 7.893333333333333 0 0 0 -7.786666666666666 8 8.106666666666666 8.106666666666666 0 0 0 8 8 35.519999999999996 35.519999999999996 0 0 1 33.06666666666666 33.17333333333333Z" fill="#ffffff" stroke-width="10.6667"></path>
    <path d="m251.41333333333333 96 -2.7733333333333334 0A16.32 16.32 0 0 1 234.66666666666666 82.02666666666667l0 -2.7733333333333334a5.4399999999999995 5.4399999999999995 0 0 0 -10.666666666666666 0l0 2.7733333333333334A16.32 16.32 0 0 1 210.02666666666667 96l-2.7733333333333334 0a5.4399999999999995 5.4399999999999995 0 0 0 0 10.666666666666666l2.7733333333333334 0A16.32 16.32 0 0 1 224 120.64l0 2.7733333333333334a5.4399999999999995 5.4399999999999995 0 0 0 10.666666666666666 0l0 -2.7733333333333334A16.32 16.32 0 0 1 248.64 106.66666666666666l2.7733333333333334 0a5.4399999999999995 5.4399999999999995 0 0 0 0 -10.666666666666666Z" fill="#ffffff" stroke-width="10.6667"></path>
  </g>
</svg>