<svg xmlns="http://www.w3.org/2000/svg" viewBox="0 0 256 256" id="Golf-Ball--Streamline-Ultimate" height="256" width="256">
  <desc>
    Golf Ball Streamline Icon: https://streamlinehq.com
  </desc>
  <g id="Golf-Ball--Streamline-Ultimate.svg">
    <path d="M175.67999999999998 167.68a92.26666666666667 92.26666666666667 0 0 1 -95.35999999999999 0 10.666666666666666 10.666666666666666 0 0 0 -11.306666666666667 18.133333333333333 112.85333333333332 112.85333333333332 0 0 0 43.73333333333333 15.68 5.4399999999999995 5.4399999999999995 0 0 1 4.586666666666666 5.333333333333333V245.33333333333331a10.666666666666666 10.666666666666666 0 1 0 21.333333333333332 0v-38.50666666666666a5.4399999999999995 5.4399999999999995 0 0 1 4.586666666666666 -5.333333333333333 112.85333333333332 112.85333333333332 0 0 0 43.73333333333333 -15.68 10.666666666666666 10.666666666666666 0 1 0 -11.306666666666667 -18.133333333333333Z" fill="#ffffff" stroke-width="10.6667"></path>
    <path d="M128 165.22666666666666a82.66666666666666 82.66666666666666 0 1 0 -82.66666666666666 -82.66666666666666A82.66666666666666 82.66666666666666 0 0 0 128 165.22666666666666Zm37.33333333333333 -32a10.666666666666666 10.666666666666666 0 1 1 10.666666666666666 -10.666666666666666 10.666666666666666 10.666666666666666 0 0 1 -10.666666666666666 10.879999999999999Zm16 -53.33333333333333a10.666666666666666 10.666666666666666 0 1 1 -10.666666666666666 10.666666666666666 10.666666666666666 10.666666666666666 0 0 1 10.666666666666666 -10.453333333333333Zm-21.333333333333332 -32a10.666666666666666 10.666666666666666 0 1 1 -10.666666666666666 10.666666666666666 10.666666666666666 10.666666666666666 0 0 1 10.666666666666666 -10.453333333333333Zm-16 32a10.666666666666666 10.666666666666666 0 1 1 -10.666666666666666 10.666666666666666 10.666666666666666 10.666666666666666 0 0 1 10.666666666666666 -10.453333333333333ZM128 117.33333333333333a10.666666666666666 10.666666666666666 0 1 1 -10.666666666666666 10.666666666666666 10.666666666666666 10.666666666666666 0 0 1 10.666666666666666 -10.666666666666666Z" fill="#ffffff" stroke-width="10.6667"></path>
  </g>
</svg>