<svg xmlns="http://www.w3.org/2000/svg" viewBox="0 0 256 256" id="Golf-Hole--Streamline-Ultimate" height="256" width="256">
  <desc>
    Golf Hole Streamline Icon: https://streamlinehq.com
  </desc>
  <path d="M198.29333333333332 71.25333333333333a2.6666666666666665 2.6666666666666665 0 0 1 0 -3.84l27.946666666666665 -27.839999999999996a10.666666666666666 10.666666666666666 0 0 0 2.2399999999999998 -11.626666666666667A10.666666666666666 10.666666666666666 0 0 0 218.66666666666666 21.333333333333332h-98.66666666666666a2.6666666666666665 2.6666666666666665 0 0 1 -2.6666666666666665 -2.6666666666666665V10.666666666666666a10.666666666666666 10.666666666666666 0 0 0 -21.333333333333332 0v213.33333333333331a8 8 0 0 1 -16 0v-27.199999999999996a2.6666666666666665 2.6666666666666665 0 0 0 -0.96 -2.0266666666666664 2.986666666666667 2.986666666666667 0 0 0 -2.1333333333333333 -0.5333333333333333C49.38666666666666 198.4 26.666666666666664 208.53333333333333 26.666666666666664 224c0 20.799999999999997 41.17333333333333 32 80 32s80 -11.2 80 -32c0 -18.453333333333333 -32 -29.333333333333332 -66.88 -32a2.6666666666666665 2.6666666666666665 0 0 1 -2.453333333333333 -2.6666666666666665v-69.33333333333333a2.6666666666666665 2.6666666666666665 0 0 1 2.6666666666666665 -2.6666666666666665h98.66666666666666a10.666666666666666 10.666666666666666 0 0 0 9.813333333333333 -6.613333333333333 10.666666666666666 10.666666666666666 0 0 0 -2.2399999999999998 -11.626666666666667Z" fill="#ffffff" stroke-width="10.6667"></path>
</svg>