<svg xmlns="http://www.w3.org/2000/svg" id="Google-Assistant-Logo--Streamline-Ultimate" width="256" height="256" viewBox="0 0 256 256"><desc>Google Assistant Logo Streamline Icon: https://streamlinehq.com</desc><g id="Google-Assistant-Logo--Streamline-Ultimate.svg"><path fill="#fff" stroke-width="10.667" d="M132.05333333333334 144a32 32 0 1 0 64 0 32 32 0 1 0 -64 0"/><path fill="#fff" stroke-width="10.667" d="M9.386666666666667 64a64 64 0 1 0 128 0 64 64 0 1 0 -128 0"/><path fill="#fff" stroke-width="10.667" d="M132.05333333333334 224a32 32 0 1 0 64 0 32 32 0 1 0 -64 0"/><path fill="#fff" stroke-width="10.667" d="M204.0533333333333 96a21.333333333333332 21.333333333333332 0 1 0 42.666666666666664 0 21.333333333333332 21.333333333333332 0 1 0 -42.666666666666664 0"/></g></svg>