<svg xmlns="http://www.w3.org/2000/svg" viewBox="0 0 256 256" id="Google-Assistant-Logo--Streamline-Ultimate" height="256" width="256">
  <desc>
    Google Assistant Logo Streamline Icon: https://streamlinehq.com
  </desc>
  <g id="Google-Assistant-Logo--Streamline-Ultimate.svg">
    <path d="M132.05333333333334 144a32 32 0 1 0 64 0 32 32 0 1 0 -64 0" fill="#ffffff" stroke-width="10.6667"></path>
    <path d="M9.386666666666667 64a64 64 0 1 0 128 0 64 64 0 1 0 -128 0" fill="#ffffff" stroke-width="10.6667"></path>
    <path d="M132.05333333333334 224a32 32 0 1 0 64 0 32 32 0 1 0 -64 0" fill="#ffffff" stroke-width="10.6667"></path>
    <path d="M204.0533333333333 96a21.333333333333332 21.333333333333332 0 1 0 42.666666666666664 0 21.333333333333332 21.333333333333332 0 1 0 -42.666666666666664 0" fill="#ffffff" stroke-width="10.6667"></path>
  </g>
</svg>