<svg xmlns="http://www.w3.org/2000/svg" viewBox="0 0 256 256" id="Google-Analytics-Logo--Streamline-Ultimate" height="256" width="256">
  <desc>
    Google Analytics Logo Streamline Icon: https://streamlinehq.com
  </desc>
  <g id="Google-Analytics-Logo--Streamline-Ultimate.svg">
    <path d="M218.66666666666666 0A37.33333333333333 37.33333333333333 0 0 0 181.33333333333331 37.33333333333333v181.33333333333331a37.33333333333333 37.33333333333333 0 0 0 74.66666666666666 0v-181.33333333333331A37.33333333333333 37.33333333333333 0 0 0 218.66666666666666 0Z" fill="#ffffff" stroke-width="10.6667"></path>
    <path d="M128 117.33333333333333a37.33333333333333 37.33333333333333 0 0 0 -37.33333333333333 37.33333333333333v64a37.33333333333333 37.33333333333333 0 0 0 74.66666666666666 0v-64A37.33333333333333 37.33333333333333 0 0 0 128 117.33333333333333Z" fill="#ffffff" stroke-width="10.6667"></path>
    <path d="M0 218.66666666666666a37.33333333333333 37.33333333333333 0 1 0 74.66666666666666 0 37.33333333333333 37.33333333333333 0 1 0 -74.66666666666666 0" fill="#ffffff" stroke-width="10.6667"></path>
  </g>
</svg>