<svg xmlns="http://www.w3.org/2000/svg" viewBox="0 0 256 256" id="Google-Keep-Logo-2--Streamline-Ultimate" height="256" width="256">
  <desc>
    Google Keep Logo 2 Streamline Icon: https://streamlinehq.com
  </desc>
  <g id="Google-Keep-Logo-2--Streamline-Ultimate.svg">
    <path d="M80 197.33333333333331v10.666666666666666a21.333333333333332 21.333333333333332 0 0 0 21.333333333333332 21.333333333333332V245.33333333333331a10.666666666666666 10.666666666666666 0 0 0 10.666666666666666 10.666666666666666h32a10.666666666666666 10.666666666666666 0 0 0 10.666666666666666 -10.666666666666666v-15.573333333333332a21.333333333333332 21.333333333333332 0 0 0 21.333333333333332 -21.333333333333332v-10.666666666666666Z" fill="#ffffff" stroke-width="10.6667"></path>
    <path d="M181.33333333333331 176A95.03999999999999 95.03999999999999 0 0 0 224 96 96 96 0 0 0 32 96a95.03999999999999 95.03999999999999 0 0 0 42.666666666666664 80Z" fill="#ffffff" stroke-width="10.6667"></path>
  </g>
</svg>