<svg xmlns="http://www.w3.org/2000/svg" id="Google-Home-2--Streamline-Ultimate" width="256" height="256" fill="none" viewBox="0 0 256 256"><desc>Google Home 2 Streamline Icon: https://streamlinehq.com</desc><path fill="#fff" fill-rule="evenodd" stroke-width="10.667" d="M127.49973333333332 0c-20.567466666666665 0 -39.58016 4.787498666666666 -53.727466666666665 12.940586666666665 -13.490346666666667 7.774613333333333 -23.92352 19.546666666666667 -24.573439999999998 34.14517333333333l-0.4331733333333333 2.3327999999999998c1.0501333333333331 9.022826666666667 7.977813333333334 18.37568 21.298666666666666 26.052586666666663C84.36629333333333 83.71338666666666 104.65557333333334 89.06666666666666 127.49973333333332 89.06666666666666c22.8448 0 43.13386666666666 -5.35328 57.43573333333333 -13.59552 13.243733333333333 -7.632106666666666 20.167466666666666 -16.920746666666666 21.28 -25.894826666666663l-0.39786666666666665 -2.064213333333333c-0.46399999999999997 -14.795626666666665 -10.968533333333333 -26.721386666666664 -24.589866666666666 -34.57152C167.08053333333334 4.787498666666666 148.06719999999999 0 127.49973333333332 0Zm83.58613333333332 74.83210666666666c-4.9184 5.595093333333333 -11.163733333333333 10.469013333333333 -18.161066666666663 14.501759999999999C175.78453333333334 99.21216 152.63573333333332 105.06666666666666 127.49973333333332 105.06666666666666c-25.13525333333333 0 -48.28373333333333 -5.8545066666666665 -65.42453333333333 -15.7328 -6.945919999999999 -4.002986666666667 -13.150293333333332 -8.834773333333333 -18.052266666666664 -14.378026666666665L28.62517333333333 157.86666666666667H227.09973333333335l-16.013866666666665 -83.03456ZM21.467946666666666 196.4064l4.191039999999999 -22.567466666666665c0.22229333333333334 0.01813333333333333 0.44725333333333334 0.027733333333333332 0.6743466666666666 0.027733333333333332H229.6661333333333c0.17386666666666664 0 0.34559999999999996 -0.005333333333333333 0.5162666666666667 -0.016l4.3392 22.501333333333335 0.03626666666666666 0.19946666666666668c2.490666666666667 14.945066666666666 -1.2170666666666665 30.24853333333333 -11.511466666666665 41.8304C213.01653333333334 249.66506666666663 199.1168 256 184 256H72.00010666666665c-15.117226666666667 0 -29.016 -6.334933333333333 -39.046079999999996 -17.618133333333333 -10.294826666666665 -11.581866666666667 -14.002666666666666 -26.885333333333335 -11.511786666666666 -41.8304l0.024319999999999998 -0.14613333333333334 0.0013866666666666665 0.0010666666666666667ZM91.33333333333333 48.53333333333333c0 6.627413333333333 5.372586666666667 12 12 12 6.627199999999999 0 12 -5.372586666666667 12 -12s-5.3728 -12 -12 -12c-6.627413333333333 0 -12 5.372586666666667 -12 12Zm49.33333333333333 0c0 6.627413333333333 5.3728 12 12 12s12 -5.372586666666667 12 -12 -5.3728 -12 -12 -12 -12 5.372586666666667 -12 12Z" clip-rule="evenodd"/></svg>