<svg xmlns="http://www.w3.org/2000/svg" id="Google-Photos-Logo--Streamline-Ultimate" width="256" height="256" viewBox="0 0 256 256"><desc>Google Photos Logo Streamline Icon: https://streamlinehq.com</desc><g id="Google-Photos-Logo--Streamline-Ultimate.svg"><path fill="#fff" stroke-width="10.667" d="M186.13333333333333 64a61.97333333333333 61.97333333333333 0 0 0 -52.16 -64 5.546666666666667 5.546666666666667 0 0 0 -4.16 1.2799999999999998 5.546666666666667 5.546666666666667 0 0 0 -1.8133333333333335 4.373333333333333V128a61.33333333333333 61.33333333333333 0 0 0 58.13333333333333 -64Z"/><path fill="#fff" stroke-width="10.667" d="M254.4 129.81333333333333a5.546666666666667 5.546666666666667 0 0 0 -4.053333333333333 -1.8133333333333335H128a61.33333333333333 61.33333333333333 0 0 0 -64 -58.13333333333333 61.97333333333333 61.97333333333333 0 0 0 -64 52.16 5.546666666666667 5.546666666666667 0 0 0 1.2799999999999998 4.16 5.546666666666667 5.546666666666667 0 0 0 4.373333333333333 1.8133333333333335H128a61.33333333333333 61.33333333333333 0 0 0 -58.13333333333333 64 61.97333333333333 61.97333333333333 0 0 0 52.16 64 5.546666666666667 5.546666666666667 0 0 0 4.16 -1.2799999999999998 5.546666666666667 5.546666666666667 0 0 0 1.8133333333333335 -4.053333333333333V128a61.33333333333333 61.33333333333333 0 0 0 64 58.13333333333333 61.97333333333333 61.97333333333333 0 0 0 64 -52.16 5.546666666666667 5.546666666666667 0 0 0 -1.5999999999999999 -4.16Z"/></g></svg>