<svg xmlns="http://www.w3.org/2000/svg" fill="none" viewBox="0 0 256 256" id="Gradient-2--Streamline-Ultimate" height="256" width="256">
  <desc>
    Gradient 2 Streamline Icon: https://streamlinehq.com
  </desc>
  <path fill="#ffffff" fill-rule="evenodd" d="M2.7306666666666666 37.184a32.778666666666666 32.778666666666666 0 1 1 65.55733333333333 0 32.778666666666666 32.778666666666666 0 0 1 -65.55733333333333 0Zm0 90.81599999999999a32.778666666666666 32.778666666666666 0 1 1 65.55733333333333 0 32.778666666666666 32.778666666666666 0 0 1 -65.55733333333333 0Zm0 90.81599999999999a32.778666666666666 32.778666666666666 0 1 1 65.55733333333333 0 32.778666666666666 32.778666666666666 0 0 1 -65.55733333333333 0ZM92.30933333333333 37.184a25.962666666666667 25.962666666666667 0 1 1 51.91466666666666 0 25.962666666666667 25.962666666666667 0 0 1 -51.91466666666666 0Zm0 90.81599999999999a25.962666666666667 25.962666666666667 0 1 1 51.91466666666666 0 25.962666666666667 25.962666666666667 0 0 1 -51.91466666666666 0Zm0 90.81599999999999a25.962666666666667 25.962666666666667 0 1 1 51.91466666666666 0 25.962666666666667 25.962666666666667 0 0 1 -51.91466666666666 0Zm160.95999999999998 -181.63199999999998a12.192 12.192 0 1 1 -24.394666666666666 0 12.192 12.192 0 0 1 24.394666666666666 0Zm-12.192 103.008a12.202666666666666 12.202666666666666 0 1 0 0 -24.394666666666666 12.202666666666666 12.202666666666666 0 0 0 0 24.394666666666666Zm12.192 78.61333333333333a12.202666666666666 12.202666666666666 0 1 1 -24.394666666666666 0 12.202666666666666 12.202666666666666 0 0 1 24.394666666666666 0Zm-65.38666666666666 -201.248a19.626666666666665 19.626666666666665 0 1 0 0 39.263999999999996 19.626666666666665 19.626666666666665 0 0 0 0 -39.263999999999996Zm0 90.80533333333332a19.626666666666665 19.626666666666665 0 1 0 0 39.27466666666666 19.626666666666665 19.626666666666665 0 0 0 0 -39.27466666666666Zm0 90.81599999999999a19.626666666666665 19.626666666666665 0 1 0 0 39.263999999999996 19.626666666666665 19.626666666666665 0 0 0 0 -39.263999999999996Z" clip-rule="evenodd" stroke-width="10.6667"></path>
</svg>