<svg xmlns="http://www.w3.org/2000/svg" id="Graph-Stats-Circle--Streamline-Ultimate" width="256" height="256" viewBox="0 0 256 256"><desc>Graph Stats Circle Streamline Icon: https://streamlinehq.com</desc><g id="Graph-Stats-Circle--Streamline-Ultimate.svg"><path fill="#fff" stroke-width="10.667" d="M206.4 149.33333333333331a32.85333333333333 32.85333333333333 0 0 1 -30.4 -16.746666666666666 2.5599999999999996 2.5599999999999996 0 0 0 -4.693333333333333 0.7466666666666667l-16.85333333333333 53.33333333333333a15.893333333333333 15.893333333333333 0 0 1 -15.573333333333332 10.666666666666666 15.786666666666665 15.786666666666665 0 0 1 -15.36 -11.2L98.77333333333333 93.86666666666667a2.6666666666666665 2.6666666666666665 0 0 0 -5.226666666666667 0 153.81333333333333 153.81333333333333 0 0 1 -12.799999999999999 40A30.08 30.08 0 0 1 51.946666666666665 149.33333333333331H1.8133333333333335a128 128 0 0 0 252.37333333333333 0Z"/><path fill="#fff" stroke-width="10.667" d="M51.946666666666665 128c10.026666666666666 0 10.666666666666666 0 20.479999999999997 -37.97333333333333 2.1333333333333333 -8.746666666666666 4.8 -18.986666666666665 8 -30.93333333333333A15.893333333333333 15.893333333333333 0 0 1 96 48a15.68 15.68 0 0 1 15.466666666666665 10.666666666666666l25.599999999999998 95.25333333333333a2.6666666666666665 2.6666666666666665 0 0 0 5.119999999999999 0l14.4 -45.76a15.893333333333333 15.893333333333333 0 0 1 14.4 -10.666666666666666 16.106666666666666 16.106666666666666 0 0 1 15.36 8.32l3.093333333333333 5.973333333333334c6.186666666666666 12.479999999999999 8 15.466666666666665 16.96 15.466666666666665H256A128 128 0 0 0 0 128Z"/></g></svg>