<svg xmlns="http://www.w3.org/2000/svg" id="Graph-Stats-Descend--Streamline-Ultimate" width="256" height="256" viewBox="0 0 256 256"><desc>Graph Stats Descend Streamline Icon: https://streamlinehq.com</desc><path fill="#fff" stroke-width="10.667" d="M74.66666666666666 146.24a35.733333333333334 35.733333333333334 0 0 0 50.02666666666667 -0.8533333333333333l22.826666666666668 -22.826666666666668a5.333333333333333 5.333333333333333 0 0 1 7.253333333333334 0l38.08 38.18666666666667a2.2399999999999998 2.2399999999999998 0 0 1 0.7466666666666667 1.8133333333333335 2.453333333333333 2.453333333333333 0 0 1 -0.7466666666666667 1.8133333333333335l-18.133333333333333 18.026666666666664a10.666666666666666 10.666666666666666 0 0 0 7.253333333333334 17.599999999999998h61.76a10.666666666666666 10.666666666666666 0 0 0 10.666666666666666 -10.666666666666666V128a10.666666666666666 10.666666666666666 0 0 0 -17.493333333333332 -7.253333333333334L218.34666666666664 138.66666666666666a2.6666666666666665 2.6666666666666665 0 0 1 -3.626666666666667 0l-38.08 -37.86666666666666a36.906666666666666 36.906666666666666 0 0 0 -50.986666666666665 0l-22.72 22.826666666666668a5.119999999999999 5.119999999999999 0 0 1 -7.1466666666666665 0l-67.84 -64a15.253333333333332 15.253333333333332 0 0 0 -21.333333333333332 0.7466666666666667 15.253333333333332 15.253333333333332 0 0 0 0.7466666666666667 21.333333333333332Z"/></svg>