<svg xmlns="http://www.w3.org/2000/svg" fill="none" viewBox="0 0 256 256" id="Group-Running--Streamline-Ultimate" height="256" width="256">
  <desc>
    Group Running Streamline Icon: https://streamlinehq.com
  </desc>
  <path fill="#ffffff" fill-rule="evenodd" d="M124.58346666666667 5.641930666666667c-19.139626666666665 0 -34.65568 15.516149333333333 -34.65568 34.656202666666665 0 19.140159999999998 15.516053333333334 34.656213333333326 34.65568 34.656213333333326 19.140266666666665 0 34.657066666666665 -15.516053333333334 34.657066666666665 -34.656213333333326 0 -19.140053333333334 -15.5168 -34.656202666666665 -34.657066666666665 -34.656202666666665Zm53.633066666666664 98.67742933333332 -8.8256 4.412373333333333 29.787733333333335 62.88426666666667c1.1029333333333333 2.2058666666666666 4.4128 4.4128 6.618666666666667 3.3098666666666667l29.85813333333333 -7.723733333333333c8.8256 -2.2058666666666666 17.652266666666666 3.3098666666666667 19.85813333333333 12.135466666666666 2.206933333333333 8.826666666666666 -3.3098666666666667 17.652266666666666 -12.135466666666666 19.85813333333333l-29.85813333333333 7.723733333333333c-3.3098666666666667 1.1029333333333333 -6.6197333333333335 1.1029333333333333 -9.928533333333332 1.1029333333333333 -16.548266666666663 0 -30.890666666666664 -9.929599999999999 -36.4064 -25.373866666666665l-2.206933333333333 -6.6197333333333335 -26.4768 17.6512c-1.1039999999999999 0 -2.206933333333333 1.1039999999999999 -2.206933333333333 2.206933333333333l-15.445333333333332 44.541866666666664c-3.3098666666666667 6.6197333333333335 -8.8256 9.929599999999999 -15.445013333333332 9.929599999999999 -2.2064 0 -4.412693333333333 0 -6.6192 -1.1039999999999999 -8.825813333333333 -4.4128 -12.135466666666666 -13.2384 -8.825813333333333 -22.063999999999997l15.445013333333332 -44.541866666666664c3.3095466666666664 -6.6197333333333335 7.722346666666667 -12.135466666666666 14.34208 -16.548266666666663l31.9936 -20.962133333333334 -12.135466666666666 -22.063999999999997 -15.445333333333332 7.722666666666666c-14.3424 6.6197333333333335 -31.993493333333333 4.4128 -44.12895999999999 -7.722666666666666L59.691093333333335 102.52586666666667c-6.619413333333332 -6.619306666666667 -6.619413333333332 -16.54837333333333 0 -23.167786666666665 6.619306666666667 -6.619306666666667 16.548479999999998 -6.619306666666667 23.167786666666665 0l20.338773333333332 20.54816c2.2065066666666664 2.2064 4.413013333333333 2.2065066666666664 6.618879999999999 1.1032533333333332l29.787733333333335 -15.445013333333332 24.270933333333332 -12.135573333333333c9.928533333333332 -4.412906666666666 19.85813333333333 -5.515946666666666 29.786666666666665 -2.206293333333333 9.929599999999999 3.3096533333333333 17.652266666666666 11.032106666666666 22.065066666666667 19.85792l15.445333333333332 29.303466666666665c3.3087999999999997 7.722666666666666 0 17.652266666666666 -7.722666666666666 22.065066666666667 -8.250666666666666 4.1248 -17.207466666666665 1.4762666666666666 -22.065066666666667 -6.6197333333333335l-15.445333333333332 -29.30368c-2.2058666666666666 -2.2064 -5.515733333333333 -3.3094399999999995 -7.722666666666666 -2.206293333333333ZM83.77429333333333 193.67999999999998l4.802133333333333 -3.2010666666666663 4.2301866666666665 -12.199466666666666c0.18922666666666665 -0.5461333333333334 0.4135466666666666 -1.0783999999999998 0.6717866666666665 -1.5946666666666665 4.187946666666667 -8.376533333333333 10.045226666666666 -15.795199999999998 18.871466666666667 -21.68l0.08853333333333332 -0.05866666666666666 0.0010666666666666667 0 18.404266666666665 -12.058666666666667 -0.2016 -0.4256 -0.5205333333333333 0.26026666666666665 -0.22186666666666666 0.10773333333333332 -0.1536 0.07253333333333332c-10.760533333333331 4.9664 -23.002666666666663 6.2208000000000006 -34.56437333333333 3.4357333333333333l-30.16224 19.761066666666665c-6.619413333333332 4.4128 -11.03232 9.929599999999999 -14.341973333333332 16.548266666666663l-15.445013333333332 44.54293333333334c-3.30976 8.8256 0 17.6512 8.825813333333333 22.063999999999997 2.2064 1.1029333333333333 4.412693333333333 1.1029333333333333 6.6192 1.1029333333333333 6.619306666666667 0 12.135573333333333 -3.3087999999999997 15.445226666666667 -9.928533333333332l15.44512 -44.541866666666664c0 -1.1039999999999999 1.1031466666666665 -2.206933333333333 2.2064 -2.206933333333333ZM28.132266666666666 79.35776l13.321813333333333 13.45888c0.4485333333333333 6.90208 3.3757866666666665 13.69056 8.781759999999998 19.109759999999998l18.839146666666664 19.032533333333333c-14.276799999999998 6.4192 -31.736746666666665 4.149333333333333 -43.77162666666666 -7.884799999999999L4.964511999999999 102.52554666666666c-6.619349333333333 -6.619306666666667 -6.619349333333333 -16.548479999999998 0 -23.167786666666665 6.619381333333333 -6.619413333333332 16.548448 -6.619413333333332 23.167754666666667 0ZM87.15509333333333 10.260757333333332c-6.607146666666666 8.222549333333333 -10.56064 18.668309333333333 -10.56064 30.037376 0 8.33568 2.1252266666666664 16.174933333333332 5.86336 23.005546666666664 -10.47168 -4.364586666666666 -22.715626666666665 -2.3616 -31.560533333333332 6.008959999999999 -9.45216 -6.189226666666666 -15.696106666666667 -16.872746666666664 -15.696106666666667 -29.014506666666666 0 -19.140053333333334 15.51616 -34.656202666666665 34.656213333333326 -34.656202666666665 6.29984 0 12.207146666666667 1.68096 17.297706666666667 4.618826666666666Z" clip-rule="evenodd" stroke-width="10.6667"></path>
</svg>