<svg xmlns="http://www.w3.org/2000/svg" viewBox="0 0 256 256" id="Gymnastics-Ribbon-Person-2--Streamline-Ultimate" height="256" width="256">
  <desc>
    Gymnastics Ribbon Person 2 Streamline Icon: https://streamlinehq.com
  </desc>
  <g id="Gymnastics-Ribbon-Person-2--Streamline-Ultimate.svg">
    <path d="M84.37333333333333 152.95999999999998H53.33333333333333a32 32 0 0 1 -24.85333333333333 -11.946666666666667 2.7733333333333334 2.7733333333333334 0 0 0 -3.626666666666667 -0.5333333333333333A58.666666666666664 58.666666666666664 0 1 0 117.33333333333333 188.37333333333333a58.02666666666667 58.02666666666667 0 0 0 -13.333333333333332 -37.013333333333335 2.453333333333333 2.453333333333333 0 0 0 -2.7733333333333334 -0.8533333333333333 64 64 0 0 1 -16.85333333333333 2.453333333333333Z" fill="#ffffff" stroke-width="10.6667"></path>
    <path d="M74.66666666666666 35.626666666666665a26.666666666666664 26.666666666666664 0 1 0 53.33333333333333 0 26.666666666666664 26.666666666666664 0 1 0 -53.33333333333333 0" fill="#ffffff" stroke-width="10.6667"></path>
    <path d="M256 51.626666666666665a16 16 0 0 0 -32 0v42.666666666666664a16 16 0 0 1 -16 16h-23.786666666666665a10.666666666666666 10.666666666666666 0 0 1 -5.866666666666667 -1.8133333333333335l-41.17333333333333 -27.306666666666665a16 16 0 0 0 -19.84 0.8533333333333333l-22.72 19.2a16.32 16.32 0 0 1 -10.666666666666666 3.733333333333333H53.33333333333333a16 16 0 0 0 0 32h31.04a47.57333333333333 47.57333333333333 0 0 0 30.72 -11.2l12.266666666666666 -10.133333333333333a2.7733333333333334 2.7733333333333334 0 0 1 3.093333333333333 0l24.64 16a10.666666666666666 10.666666666666666 0 0 1 4.906666666666666 8.959999999999999v90.66666666666666a16 16 0 0 0 32 0v-86.29333333333332a2.6666666666666665 2.6666666666666665 0 0 1 2.6666666666666665 -2.6666666666666665h13.333333333333332a48.10666666666666 48.10666666666666 0 0 0 48 -48Z" fill="#ffffff" stroke-width="10.6667"></path>
  </g>
</svg>