<svg xmlns="http://www.w3.org/2000/svg" viewBox="0 0 256 256" id="Hair-Skin--Streamline-Ultimate" height="256" width="256">
  <desc>
    Hair Skin Streamline Icon: https://streamlinehq.com
  </desc>
  <g id="Hair-Skin--Streamline-Ultimate.svg">
    <path d="M128 159.04a42.666666666666664 42.666666666666664 0 0 0 42.666666666666664 -42.666666666666664 54.39999999999999 54.39999999999999 0 0 0 -7.359999999999999 -25.599999999999998c-7.1466666666666665 -14.613333333333333 -14.506666666666668 -29.65333333333333 3.9466666666666663 -74.66666666666666A10.666666666666666 10.666666666666666 0 0 0 150.93333333333334 2.986666666666667C132.79999999999998 16.53333333333333 77.33333333333333 57.70666666666666 85.33333333333333 117.33333333333333a44.8 44.8 0 0 0 42.666666666666664 41.70666666666666Z" fill="#ffffff" stroke-width="10.6667"></path>
    <path d="M240 116.37333333333333h-42.666666666666664a10.666666666666666 10.666666666666666 0 0 0 -10.666666666666666 10.026666666666666 58.666666666666664 58.666666666666664 0 0 1 -117.33333333333333 0 10.666666666666666 10.666666666666666 0 0 0 -10.666666666666666 -10.026666666666666h-42.666666666666664a16 16 0 0 0 -16 16v106.66666666666666a16 16 0 0 0 16 16h224a16 16 0 0 0 16 -16v-106.66666666666666a16 16 0 0 0 -16 -16Zm-224 48a10.666666666666666 10.666666666666666 0 0 1 10.666666666666666 -10.666666666666666 10.666666666666666 10.666666666666666 0 1 1 0 21.333333333333332 10.666666666666666 10.666666666666666 0 0 1 -10.666666666666666 -10.666666666666666Zm21.333333333333332 74.66666666666666a10.666666666666666 10.666666666666666 0 1 1 0 -21.333333333333332 10.666666666666666 10.666666666666666 0 1 1 0 21.333333333333332ZM74.66666666666666 201.59999999999997a10.666666666666666 10.666666666666666 0 1 1 0 -21.333333333333332 10.666666666666666 10.666666666666666 0 1 1 0 21.333333333333332Zm21.333333333333332 37.44a10.666666666666666 10.666666666666666 0 1 1 0 -21.333333333333332 10.666666666666666 10.666666666666666 0 1 1 0 21.333333333333332Zm58.666666666666664 0a10.666666666666666 10.666666666666666 0 1 1 0 -21.333333333333332 10.666666666666666 10.666666666666666 0 1 1 0 21.333333333333332ZM181.33333333333331 201.59999999999997a10.666666666666666 10.666666666666666 0 1 1 0 -21.333333333333332 10.666666666666666 10.666666666666666 0 1 1 0 21.333333333333332Zm32 37.44a10.666666666666666 10.666666666666666 0 1 1 0 -21.333333333333332 10.666666666666666 10.666666666666666 0 1 1 0 21.333333333333332Zm16 -64a10.666666666666666 10.666666666666666 0 1 1 0 -21.333333333333332 10.666666666666666 10.666666666666666 0 1 1 0 21.333333333333332Z" fill="#ffffff" stroke-width="10.6667"></path>
  </g>
</svg>