<svg xmlns="http://www.w3.org/2000/svg" id="Hair-Dress-Barber--Streamline-Ultimate" width="256" height="256" viewBox="0 0 256 256"><desc>Hair Dress Barber Streamline Icon: https://streamlinehq.com</desc><path fill="#fff" stroke-width="10.667" d="M46.72 198.29333333333332a5.4399999999999995 5.4399999999999995 0 0 1 -3.626666666666667 5.013333333333333 10.666666666666666 10.666666666666666 0 0 0 -7.04 10.026666666666666v16a26.666666666666664 26.666666666666664 0 0 0 26.666666666666664 26.666666666666664h130.56a26.666666666666664 26.666666666666664 0 0 0 26.666666666666664 -26.666666666666664V213.33333333333331a10.666666666666666 10.666666666666666 0 0 0 -7.04 -10.026666666666666 5.4399999999999995 5.4399999999999995 0 0 1 -3.626666666666667 -5.013333333333333V57.70666666666666a5.4399999999999995 5.4399999999999995 0 0 1 4.053333333333333 -5.013333333333333 10.666666666666666 10.666666666666666 0 0 0 6.613333333333333 -10.026666666666666V26.666666666666664a26.666666666666664 26.666666666666664 0 0 0 -26.666666666666664 -26.666666666666664H62.72a26.666666666666664 26.666666666666664 0 0 0 -26.666666666666664 26.666666666666664V42.666666666666664a10.666666666666666 10.666666666666666 0 0 0 6.613333333333333 10.026666666666666 5.4399999999999995 5.4399999999999995 0 0 1 3.626666666666667 5.013333333333333Zm141.33333333333331 -79.14666666666666a5.4399999999999995 5.4399999999999995 0 0 1 -3.626666666666667 5.013333333333333L71.57333333333332 163.83999999999997a2.88 2.88 0 0 1 -2.453333333333333 0 2.3466666666666667 2.3466666666666667 0 0 1 -1.0666666666666667 -2.1333333333333333v-24.85333333333333a5.333333333333333 5.333333333333333 0 0 1 3.52 -5.013333333333333l112.85333333333332 -39.68a2.88 2.88 0 0 1 2.453333333333333 0 2.453333333333333 2.453333333333333 0 0 1 1.1733333333333333 2.1333333333333333ZM157.97333333333333 53.33333333333333a2.6666666666666665 2.6666666666666665 0 0 1 0.8533333333333333 5.226666666666667L74.66666666666666 87.89333333333333a5.4399999999999995 5.4399999999999995 0 0 1 -4.8 -0.6399999999999999 5.226666666666667 5.226666666666667 0 0 1 -2.2399999999999998 -4.373333333333333V58.666666666666664a5.333333333333333 5.333333333333333 0 0 1 5.333333333333333 -5.333333333333333ZM98.02666666666666 202.66666666666666a2.6666666666666665 2.6666666666666665 0 0 1 -0.8533333333333333 -5.226666666666667L181.33333333333331 168.10666666666665a5.4399999999999995 5.4399999999999995 0 0 1 4.8 0.6399999999999999 5.333333333333333 5.333333333333333 0 0 1 2.3466666666666667 4.373333333333333v24.21333333333333a5.333333333333333 5.333333333333333 0 0 1 -5.333333333333333 5.333333333333333Z"/></svg>