<svg xmlns="http://www.w3.org/2000/svg" viewBox="0 0 256 256" id="Hair-Dress-Round-Brush-1--Streamline-Ultimate" height="256" width="256">
  <desc>
    Hair Dress Round Brush 1 Streamline Icon: https://streamlinehq.com
  </desc>
  <path d="M254.07999999999998 125.97333333333333a10.666666666666666 10.666666666666666 0 0 0 -3.733333333333333 -14.613333333333333L242.13333333333333 106.66666666666666a2.6666666666666665 2.6666666666666665 0 0 1 -1.1733333333333333 -2.88 45.44 45.44 0 0 0 -1.7066666666666666 -23.786666666666665 96.53333333333333 96.53333333333333 0 0 0 -24.53333333333333 -38.4c-20.799999999999997 -20.799999999999997 -44.693333333333335 -30.08 -61.97333333333333 -25.92a2.7733333333333334 2.7733333333333334 0 0 1 -3.413333333333333 -1.4933333333333334l-5.119999999999999 -8.533333333333333a10.666666666666666 10.666666666666666 0 0 0 -14.186666666666667 -3.733333333333333 10.666666666666666 10.666666666666666 0 0 0 -3.626666666666667 14.613333333333333l5.973333333333334 10.026666666666666a2.5599999999999996 2.5599999999999996 0 0 1 0 3.1999999999999997L109.86666666666667 51.84a2.6666666666666665 2.6666666666666665 0 0 1 -4.16 -0.5333333333333333l-2.453333333333333 -4.266666666666667A10.666666666666666 10.666666666666666 0 0 0 85.33333333333333 58.02666666666667l5.973333333333334 9.92a2.7733333333333334 2.7733333333333334 0 0 1 0 3.3066666666666666L68.37333333333333 93.33333333333333a2.6666666666666665 2.6666666666666665 0 0 1 -2.1333333333333333 0.7466666666666667A2.986666666666667 2.986666666666667 0 0 1 64 92.79999999999998l-2.453333333333333 -4.266666666666667a10.666666666666666 10.666666666666666 0 0 0 -18.346666666666664 10.666666666666666l5.973333333333334 9.92a2.7733333333333334 2.7733333333333334 0 0 1 0 3.3066666666666666l-22.186666666666667 22.4a2.986666666666667 2.986666666666667 0 0 1 -2.2399999999999998 0.7466666666666667 2.986666666666667 2.986666666666667 0 0 1 -2.0266666666666664 -1.2799999999999998l-2.453333333333333 -4.266666666666667a10.666666666666666 10.666666666666666 0 0 0 -18.346666666666664 10.666666666666666l7.1466666666666665 11.84a2.5599999999999996 2.5599999999999996 0 0 1 0 2.453333333333333c-7.466666666666666 17.493333333333332 1.8133333333333335 44.16 24.53333333333333 66.98666666666666a81.91999999999999 81.91999999999999 0 0 0 53.33333333333333 27.093333333333334 32.74666666666666 32.74666666666666 0 0 0 13.12 -2.6666666666666665 2.5599999999999996 2.5599999999999996 0 0 1 2.453333333333333 0l11.946666666666667 7.1466666666666665a11.306666666666667 11.306666666666667 0 0 0 5.4399999999999995 1.4933333333333334 10.666666666666666 10.666666666666666 0 0 0 9.173333333333332 -5.226666666666667 10.666666666666666 10.666666666666666 0 0 0 -3.626666666666667 -14.613333333333333l-4.266666666666667 -2.453333333333333a2.986666666666667 2.986666666666667 0 0 1 -1.2799999999999998 -2.0266666666666664 2.986666666666667 2.986666666666667 0 0 1 0.7466666666666667 -2.2399999999999998l22.08 -21.973333333333333a2.7733333333333334 2.7733333333333334 0 0 1 3.3066666666666666 0l9.92 5.973333333333334a10.666666666666666 10.666666666666666 0 0 0 5.4399999999999995 1.4933333333333334 10.666666666666666 10.666666666666666 0 0 0 9.173333333333332 -5.119999999999999 10.666666666666666 10.666666666666666 0 0 0 -3.626666666666667 -14.719999999999999l-3.733333333333333 -2.1333333333333333a2.986666666666667 2.986666666666667 0 0 1 -1.2799999999999998 -2.0266666666666664 2.6666666666666665 2.6666666666666665 0 0 1 0.7466666666666667 -2.1333333333333333l22.08 -22.08a2.7733333333333334 2.7733333333333334 0 0 1 3.3066666666666666 0l9.92 5.973333333333334a10.666666666666666 10.666666666666666 0 0 0 5.4399999999999995 1.4933333333333334 10.666666666666666 10.666666666666666 0 0 0 9.173333333333332 -5.119999999999999 10.666666666666666 10.666666666666666 0 0 0 -3.626666666666667 -14.719999999999999l-4.266666666666667 -2.453333333333333a2.6666666666666665 2.6666666666666665 0 0 1 -0.5333333333333333 -4.16l22.08 -22.08a2.5599999999999996 2.5599999999999996 0 0 1 3.1999999999999997 0l10.026666666666666 5.973333333333334a10.026666666666666 10.026666666666666 0 0 0 5.4399999999999995 1.4933333333333334 10.666666666666666 10.666666666666666 0 0 0 9.173333333333332 -6.186666666666666ZM135.57333333333332 184.53333333333333c-2.5599999999999996 2.5599999999999996 -8.533333333333333 2.6666666666666665 -15.573333333333332 0l-1.5999999999999999 -0.5333333333333333a2.7733333333333334 2.7733333333333334 0 0 1 -1.7066666666666666 -1.92 2.6666666666666665 2.6666666666666665 0 0 1 0.7466666666666667 -2.453333333333333l21.333333333333332 -21.333333333333332a2.453333333333333 2.453333333333333 0 0 1 3.093333333333333 0 76.05333333333333 76.05333333333333 0 0 0 13.12 5.653333333333333Zm-86.72 22.72q-2.1333333333333333 -2.1333333333333333 -3.84 -4.16a2.6666666666666665 2.6666666666666665 0 0 1 0 -3.626666666666667l22.613333333333333 -22.613333333333333a2.5599999999999996 2.5599999999999996 0 0 1 1.92 -0.7466666666666667 2.453333333333333 2.453333333333333 0 0 1 1.92 0.8533333333333333l3.52 3.84 3.84 3.52a2.453333333333333 2.453333333333333 0 0 1 0.8533333333333333 1.92 2.5599999999999996 2.5599999999999996 0 0 1 -0.7466666666666667 1.92l-22.4 22.613333333333333a2.6666666666666665 2.6666666666666665 0 0 1 -3.626666666666667 0Zm-18.88 -45.33333333333333 19.733333333333334 -19.733333333333334a71.78666666666666 71.78666666666666 0 0 0 5.653333333333333 13.013333333333332 2.5599999999999996 2.5599999999999996 0 0 1 0 3.1999999999999997l-21.333333333333332 21.333333333333332a2.6666666666666665 2.6666666666666665 0 0 1 -2.453333333333333 0.7466666666666667 2.5599999999999996 2.5599999999999996 0 0 1 -1.92 -1.7066666666666666c-2.3466666666666667 -8.106666666666666 -2.2399999999999998 -14.293333333333333 0.31999999999999995 -16.85333333333333Zm58.879999999999995 -58.879999999999995a2.6666666666666665 2.6666666666666665 0 0 1 2.453333333333333 -0.7466666666666667 2.5599999999999996 2.5599999999999996 0 0 1 1.92 1.7066666666666666 92.05333333333334 92.05333333333334 0 0 0 4.586666666666666 10.026666666666666 2.7733333333333334 2.7733333333333334 0 0 1 -0.5333333333333333 3.1999999999999997l-21.333333333333332 21.333333333333332a2.6666666666666665 2.6666666666666665 0 0 1 -2.453333333333333 0.7466666666666667 2.7733333333333334 2.7733333333333334 0 0 1 -1.92 -1.7066666666666666 9.386666666666667 9.386666666666667 0 0 1 0 -1.5999999999999999c-2.2399999999999998 -7.1466666666666665 -2.1333333333333333 -13.013333333333332 0 -15.573333333333332Zm41.49333333333333 -41.49333333333333a2.6666666666666665 2.6666666666666665 0 0 1 2.453333333333333 -0.7466666666666667 2.5599999999999996 2.5599999999999996 0 0 1 1.92 1.7066666666666666 83.62666666666667 83.62666666666667 0 0 0 4.586666666666666 10.026666666666666 2.7733333333333334 2.7733333333333334 0 0 1 -0.5333333333333333 3.1999999999999997l-21.333333333333332 21.333333333333332a2.6666666666666665 2.6666666666666665 0 0 1 -2.453333333333333 0.7466666666666667 2.453333333333333 2.453333333333333 0 0 1 -1.8133333333333335 -1.8133333333333335c-2.88 -8.106666666666666 -2.88 -14.4 0 -17.066666666666666Zm1.3866666666666667 62.72 -3.733333333333333 -4.053333333333333a2.7733333333333334 2.7733333333333334 0 0 1 0 -3.626666666666667l22.826666666666668 -22.72a2.5599999999999996 2.5599999999999996 0 0 1 1.92 -0.7466666666666667 2.2399999999999998 2.2399999999999998 0 0 1 1.92 0.96l3.52 3.733333333333333 3.733333333333333 3.626666666666667a2.453333333333333 2.453333333333333 0 0 1 0.8533333333333333 1.92 2.3466666666666667 2.3466666666666667 0 0 1 -0.7466666666666667 1.92L139.41333333333333 128a2.7733333333333334 2.7733333333333334 0 0 1 -3.626666666666667 0Zm-41.49333333333333 41.49333333333333c-1.2799999999999998 -1.3866666666666667 -2.453333333333333 -2.7733333333333334 -3.733333333333333 -4.053333333333333a2.88 2.88 0 0 1 0 -3.733333333333333l22.72 -22.613333333333333a2.7733333333333334 2.7733333333333334 0 0 1 1.92 -0.7466666666666667 2.88 2.88 0 0 1 2.0266666666666664 0.8533333333333333c1.0666666666666667 1.2799999999999998 2.1333333333333333 2.5599999999999996 3.413333333333333 3.84s2.453333333333333 2.3466666666666667 3.733333333333333 3.52a2.2399999999999998 2.2399999999999998 0 0 1 0.96 1.92 2.5599999999999996 2.5599999999999996 0 0 1 -0.7466666666666667 1.92l-22.506666666666664 22.72a2.88 2.88 0 0 1 -3.733333333333333 0Zm86.82666666666667 -22.72c-2.5599999999999996 2.5599999999999996 -8.533333333333333 2.6666666666666665 -15.573333333333332 0l-1.5999999999999999 0a2.7733333333333334 2.7733333333333334 0 0 1 -1.7066666666666666 -1.92 2.6666666666666665 2.6666666666666665 0 0 1 0.7466666666666667 -2.453333333333333l21.333333333333332 -21.333333333333332a2.5599999999999996 2.5599999999999996 0 0 1 3.093333333333333 0 75.52 75.52 0 0 0 10.133333333333333 4.4799999999999995 2.453333333333333 2.453333333333333 0 0 1 1.5999999999999999 1.92 2.5599999999999996 2.5599999999999996 0 0 1 -0.6399999999999999 2.453333333333333Zm22.613333333333333 -86.72a79.36 79.36 0 0 1 19.306666666666665 29.759999999999998 17.386666666666663 17.386666666666663 0 0 1 0 15.573333333333332c-5.333333333333333 5.226666666666667 -26.026666666666664 0 -45.33333333333333 -18.88S149.33333333333331 42.666666666666664 154.34666666666666 37.44a9.493333333333332 9.493333333333332 0 0 1 6.506666666666666 -1.92 63.14666666666666 63.14666666666666 0 0 1 38.82666666666667 20.799999999999997ZM77.01333333333332 225.81333333333333a2.5599999999999996 2.5599999999999996 0 0 1 -1.7066666666666666 -1.8133333333333335 2.6666666666666665 2.6666666666666665 0 0 1 0.7466666666666667 -2.453333333333333l21.333333333333332 -21.333333333333332a2.5599999999999996 2.5599999999999996 0 0 1 3.1999999999999997 0 71.78666666666666 71.78666666666666 0 0 0 13.013333333333332 5.653333333333333 0.6399999999999999 0.6399999999999999 0 0 1 0 0.5333333333333333l-19.52 19.626666666666665c-2.5599999999999996 2.6666666666666665 -8.746666666666666 2.6666666666666665 -17.066666666666666 -0.21333333333333332Z" fill="#ffffff" stroke-width="10.6667"></path>
</svg>