<svg xmlns="http://www.w3.org/2000/svg" viewBox="0 0 256 256" id="Halloween-Candy--Streamline-Ultimate" height="256" width="256">
  <desc>
    Halloween Candy Streamline Icon: https://streamlinehq.com
  </desc>
  <g id="Halloween-Candy--Streamline-Ultimate.svg">
    <path d="M42.666666666666664 81.28a58.239999999999995 58.239999999999995 0 0 0 6.079999999999999 0 49.06666666666666 49.06666666666666 0 0 0 1.1733333333333333 7.786666666666666 57.6 57.6 0 0 1 50.239999999999995 2.7733333333333334 57.70666666666666 57.70666666666666 0 0 1 51.30666666666666 -2.3466666666666667 67.52 67.52 0 0 0 -3.52 -11.413333333333334 57.28 57.28 0 0 0 -22.613333333333333 -30.93333333333333 56.53333333333333 56.53333333333333 0 0 0 -37.33333333333333 -10.666666666666666 46.72 46.72 0 0 0 -9.493333333333332 1.8133333333333335A59.946666666666665 59.946666666666665 0 0 0 53.33333333333333 2.7733333333333334a10.666666666666666 10.666666666666666 0 0 0 -10.666666666666666 -0.96 10.666666666666666 10.666666666666666 0 0 0 -5.973333333333334 8.853333333333332l-3.413333333333333 27.52L8.106666666666666 51.413333333333334a10.666666666666666 10.666666666666666 0 0 0 -1.1733333333333333 18.24 62.08 62.08 0 0 0 34.986666666666665 11.626666666666667Z" fill="#ffffff" stroke-width="10.6667"></path>
    <path d="M252.0533333333333 38.18666666666667a10.666666666666666 10.666666666666666 0 0 0 -10.666666666666666 -5.013333333333333L213.33333333333331 37.12 208.2133333333333 8.853333333333332A10.666666666666666 10.666666666666666 0 0 0 189.12 4.266666666666667L153.27999999999997 53.33333333333333a103.57333333333334 103.57333333333334 0 0 1 14.08 33.38666666666666 56.63999999999999 56.63999999999999 0 0 1 16.85333333333333 -2.5599999999999996 60.05333333333333 60.05333333333333 0 0 1 34.239999999999995 10.666666666666666l33.06666666666666 -45.22666666666667a10.666666666666666 10.666666666666666 0 0 0 0.5333333333333333 -11.413333333333334Z" fill="#ffffff" stroke-width="10.6667"></path>
    <path d="m201.81333333333333 104 -1.3866666666666667 -0.6399999999999999 -1.2799999999999998 0 -1.2799999999999998 0 -3.093333333333333 -0.8533333333333333 -1.3866666666666667 0 -1.0666666666666667 0H172.79999999999998l-0.5333333333333333 0H170.66666666666666l-2.453333333333333 0.96a47.04 47.04 0 0 0 -12.373333333333331 7.253333333333334 50.346666666666664 50.346666666666664 0 0 0 -8.959999999999999 -5.653333333333333l-0.96 0 -0.7466666666666667 0 -0.8533333333333333 0 -0.96 0 -0.7466666666666667 0 -0.7466666666666667 0 -1.0666666666666667 0h-1.4933333333333334l-0.7466666666666667 0 -1.0666666666666667 0h-2.5599999999999996l-1.1733333333333333 0h-7.466666666666666l-1.8133333333333335 0 -1.8133333333333335 0 -5.333333333333333 -3.413333333333333a48.42666666666666 48.42666666666666 0 0 0 -17.066666666666666 8.853333333333332 44.48 44.48 0 0 0 -24.106666666666662 -10.133333333333333 23.146666666666665 23.146666666666665 0 0 0 -3.84 0h-7.466666666666666l-1.0666666666666667 0h-1.1733333333333333l-0.6399999999999999 0 -1.5999999999999999 0 -0.8533333333333333 0c-24.426666666666666 8.213333333333333 -42.666666666666664 38.61333333333333 -42.666666666666664 74.66666666666666 0 42.666666666666664 25.066666666666666 77.12 56.10666666666666 77.12a44.48 44.48 0 0 0 27.946666666666665 -10.666666666666666 52.693333333333335 52.693333333333335 0 0 0 28.05333333333333 10.666666666666666 44.8 44.8 0 0 0 28.05333333333333 -10.666666666666666 44.48 44.48 0 0 0 27.946666666666665 10.666666666666666c30.93333333333333 0 56.10666666666666 -34.56 56.10666666666666 -77.12 -0.7466666666666667 -32 -17.066666666666666 -60.906666666666666 -39.25333333333333 -71.03999999999999Zm-41.92 32a16 16 0 1 1 -16 16A16 16 0 0 1 160 135.89333333333332Zm-62.82666666666666 0a16 16 0 1 1 -16 16 16 16 0 0 1 16 -16.106666666666666Zm79.03999999999999 64 -21.333333333333332 13.973333333333333a10.666666666666666 10.666666666666666 0 0 1 -5.866666666666667 1.8133333333333335 10.666666666666666 10.666666666666666 0 0 1 -5.973333333333334 -1.8133333333333335l-14.933333333333332 -9.92 -15.146666666666665 10.026666666666666a10.666666666666666 10.666666666666666 0 0 1 -11.84 0l-21.333333333333332 -13.973333333333333a10.666666666666666 10.666666666666666 0 0 1 -2.88 -14.826666666666664 10.666666666666666 10.666666666666666 0 0 1 14.719999999999999 -2.986666666666667l15.146666666666665 10.133333333333333 15.04 -10.133333333333333a10.666666666666666 10.666666666666666 0 0 1 11.84 0L149.33333333333331 192l15.04 -10.133333333333333a10.666666666666666 10.666666666666666 0 0 1 11.84 17.813333333333333Z" fill="#ffffff" stroke-width="10.6667"></path>
  </g>
</svg>