<svg xmlns="http://www.w3.org/2000/svg" id="Hand-Drag--Streamline-Ultimate" width="256" height="256" viewBox="0 0 256 256"><desc>Hand Drag Streamline Icon: https://streamlinehq.com</desc><path fill="#fff" stroke-width="10.667" d="M218.05866666666668 41.15946666666666c-2.6965333333333334 -0.046933333333333334 -5.370666666666666 0.4789333333333333 -7.848533333333333 1.5434666666666665 -1.1754666666666667 0.5130666666666666 -1.9338666666666664 1.6768 -1.9296 2.958933333333333v64.32746666666667c0 4.952533333333333 -5.359999999999999 8.046933333333332 -9.649066666666666 5.571199999999999 -1.9903999999999997 -1.1488 -3.2159999999999997 -3.2725333333333335 -3.2159999999999997 -5.571199999999999V36.39893333333333c-0.8095999999999999 -11.778133333333333 -10.580266666666667 -20.931199999999997 -22.386133333333333 -20.970666666666666 -2.6954666666666665 -0.046933333333333334 -5.370666666666666 0.48 -7.848533333333333 1.5434666666666665 -1.1754666666666667 0.5141333333333333 -1.9338666666666664 1.6768 -1.9296 2.96v83.88266666666667c0 4.951466666666667 -5.359999999999999 8.046933333333332 -9.649066666666666 5.571199999999999 -1.9903999999999997 -1.1498666666666666 -3.2159999999999997 -3.2736 -3.2159999999999997 -5.571199999999999V23.53386666666667C149.57653333333332 11.755733333333334 139.80586666666665 2.6026666666666665 128 2.5632c-2.6954666666666665 -0.046933333333333334 -5.370666666666666 0.4789333333333333 -7.848533333333333 1.5434666666666665 -1.1754666666666667 0.5130666666666666 -1.9338666666666664 1.675733333333333 -1.9296 2.958933333333333v90.05866666666665c0 4.951466666666667 -5.359999999999999 8.046933333333332 -9.649066666666666 5.571199999999999 -1.9903999999999997 -1.1498666666666666 -3.2159999999999997 -3.2725333333333335 -3.2159999999999997 -5.571199999999999v-60.725333333333325C103.59573333333333 19.157333333333334 83.82933333333332 10.286933333333334 69.77813333333333 20.43413333333333c-5.649066666666666 4.0789333333333335 -9.091199999999999 10.544 -9.3216 17.50933333333333v121.9648c0 4.951466666666667 -5.361066666666667 8.046933333333332 -9.649066666666666 5.570133333333333 -1.9903999999999997 -1.1488 -3.2170666666666663 -3.2725333333333335 -3.2170666666666663 -5.570133333333333V102.27093333333332c0 -1.7770666666666666 -1.44 -3.2170666666666663 -3.2159999999999997 -3.2170666666666663H37.94133333333333c-12.435199999999998 0 -22.514133333333334 10.079999999999998 -22.514133333333334 22.515199999999997v51.46133333333333c0 27.146666666666665 40.2688 80.4096 88.90026666666667 80.4096h68.70186666666666c37.2736 -0.07039999999999999 67.47306666666665 -30.269866666666665 67.54346666666666 -67.54346666666666V63.6736c0 -12.434133333333332 -10.079999999999998 -22.514133333333334 -22.514133333333334 -22.514133333333334Z"/></svg>