<svg xmlns="http://www.w3.org/2000/svg" id="Hard-Drive-1--Streamline-Ultimate" width="256" height="256" viewBox="0 0 256 256"><desc>Hard Drive 1 Streamline Icon: https://streamlinehq.com</desc><g id="Hard-Drive-1--Streamline-Ultimate.svg"><path fill="#fff" stroke-width="10.667" d="M245.33333333333331 125.33333333333333H10.666666666666666a10.666666666666666 10.666666666666666 0 0 0 -10.666666666666666 10.666666666666666v32a26.666666666666664 26.666666666666664 0 0 0 16.96 24.746666666666663 2.5599999999999996 2.5599999999999996 0 0 1 1.7066666666666666 2.453333333333333v12.799999999999999a8 8 0 0 0 16 0v-10.666666666666666a2.6666666666666665 2.6666666666666665 0 0 1 2.6666666666666665 -2.6666666666666665h181.33333333333331a2.6666666666666665 2.6666666666666665 0 0 1 2.6666666666666665 2.6666666666666665v10.666666666666666a8 8 0 0 0 16 0v-12.799999999999999a2.5599999999999996 2.5599999999999996 0 0 1 1.7066666666666666 -2.453333333333333A26.666666666666664 26.666666666666664 0 0 0 256 168v-32a10.666666666666666 10.666666666666666 0 0 0 -10.666666666666666 -10.666666666666666Zm-32 42.666666666666664a10.666666666666666 10.666666666666666 0 1 1 10.666666666666666 -10.666666666666666 10.666666666666666 10.666666666666666 0 0 1 -10.666666666666666 10.666666666666666Zm-21.333333333333332 -10.666666666666666a10.666666666666666 10.666666666666666 0 1 1 -10.666666666666666 -10.666666666666666 10.666666666666666 10.666666666666666 0 0 1 10.666666666666666 10.666666666666666Zm-32 0a10.666666666666666 10.666666666666666 0 1 1 -10.666666666666666 -10.666666666666666 10.666666666666666 10.666666666666666 0 0 1 10.666666666666666 10.666666666666666Z"/><path fill="#fff" stroke-width="10.667" d="M11.52 114.66666666666666h232.95999999999998a10.666666666666666 10.666666666666666 0 0 0 9.813333333333333 -6.72 10.666666666666666 10.666666666666666 0 0 0 -2.2399999999999998 -11.413333333333334l-48.74666666666667 -51.84A16 16 0 0 0 192 40H64a16.106666666666666 16.106666666666666 0 0 0 -11.413333333333334 4.8L4.16 96a10.666666666666666 10.666666666666666 0 0 0 -2.453333333333333 11.626666666666667 10.666666666666666 10.666666666666666 0 0 0 9.813333333333333 7.04Z"/></g></svg>