<svg xmlns="http://www.w3.org/2000/svg" viewBox="0 0 256 256" id="Harddrive-Download-2--Streamline-Ultimate" height="256" width="256">
  <desc>
    Harddrive Download 2 Streamline Icon: https://streamlinehq.com
  </desc>
  <g id="Harddrive-Download-2--Streamline-Ultimate.svg">
    <path d="M199.26080000000002 151.5424H56.7392c-39.199999999999996 -1.7717333333333332 -65.61813333333333 39.556266666666666 -47.553066666666666 74.3904 9.146666666666667 17.636266666666664 27.706666666666667 28.351999999999997 47.553066666666666 27.454933333333333h142.52159999999998c39.199999999999996 1.7717333333333332 65.61813333333333 -39.556266666666666 47.553066666666666 -74.3904 -9.146666666666667 -17.636266666666664 -27.706666666666667 -28.351999999999997 -47.553066666666666 -27.454933333333333Zm0 66.26666666666667c-11.772799999999998 0.0010666666666666667 -19.1296 -12.7424 -13.2448 -22.937599999999996 5.885866666666666 -10.1952 20.601599999999998 -10.1952 26.487466666666666 -0.0010666666666666667 1.3429333333333333 2.325333333333333 2.0490666666666666 4.962133333333333 2.0490666666666666 7.646933333333333 0.05866666666666666 8.469333333333333 -6.822399999999999 15.3504 -15.291733333333333 15.291733333333333ZM50.6016 202.51733333333334c0 -4.251733333333333 3.4463999999999997 -7.698133333333333 7.698133333333333 -7.698133333333333h39.11573333333333c5.885866666666666 -0.688 10.309333333333333 5.253333333333333 7.962666666666667 10.695466666666665 -1.3472 3.122133333333333 -4.584533333333333 4.992 -7.962666666666667 4.596266666666667H58.299733333333336c-4.2112 0.0010666666666666667 -7.640533333333334 -3.3823999999999996 -7.698133333333333 -7.5935999999999995Z" fill="#ffffff" stroke-width="10.6667"></path>
    <path d="M112.60373333333332 62.59733333333333c0 1.4357333333333333 -1.1648 2.600533333333333 -2.600533333333333 2.600533333333333h-17.685333333333332c-7.993599999999999 0.47786666666666666 -12.472533333333333 9.430399999999999 -8.061866666666667 16.11413333333333 0.2677333333333333 0.4053333333333333 0.5621333333333333 0.7914666666666667 0.8832 1.1551999999999998l35.57866666666666 35.7856c4.0192 3.8314666666666666 10.337066666666665 3.8314666666666666 14.356266666666667 0l35.47413333333333 -35.5776c5.4528 -5.865600000000001 2.5119999999999996 -15.4336 -5.293866666666666 -17.223466666666667 -0.6186666666666667 -0.14186666666666664 -1.2501333333333333 -0.22719999999999999 -1.8837333333333333 -0.2538666666666667h-17.685333333333332c-1.4367999999999999 0 -2.600533333333333 -1.1648 -2.600533333333333 -2.600533333333333V19.11253333333333C144.0544 7.380266666666666 131.96053333333333 -1.0015999999999998 121.3152 4.023466666666666c-5.7653333333333325 2.722133333333333 -9.237333333333332 8.734933333333332 -8.711466666666666 15.089066666666668Z" fill="#ffffff" stroke-width="10.6667"></path>
  </g>
</svg>