<svg xmlns="http://www.w3.org/2000/svg" id="Hbo-Logo--Streamline-Ultimate" width="256" height="256" fill="none" viewBox="0 0 256 256"><desc>Hbo Logo Streamline Icon: https://streamlinehq.com</desc><path fill="#fff" fill-rule="evenodd" stroke-width="10.667" d="M21.333333333333332 84.29749333333334c0 -5.890986666666667 -4.7756799999999995 -10.666666666666666 -10.666666666666666 -10.666666666666666 -5.89104 0 -10.666666666666666 4.7756799999999995 -10.666666666666666 10.666666666666666v87.40490666666666c0 5.8911999999999995 4.775626666666666 10.666666666666666 10.666666666666666 10.666666666666666 5.890986666666667 0 10.666666666666666 -4.7754666666666665 10.666666666666666 -10.666666666666666V138.66666666666666h29.65621333333333v33.03573333333333c0 5.8911999999999995 4.7756799999999995 10.666666666666666 10.666666666666666 10.666666666666666 5.891093333333332 0 10.666666666666666 -4.7754666666666665 10.666666666666666 -10.666666666666666V84.29749333333334c0 -5.890986666666667 -4.775573333333333 -10.666666666666666 -10.666666666666666 -10.666666666666666 -5.890986666666667 0 -10.666666666666666 4.7756799999999995 -10.666666666666666 10.666666666666666V117.33333333333333H21.333333333333332V84.29749333333334Zm56.570346666666666 0c0 -5.890986666666667 4.775573333333333 -10.666666666666666 10.666666666666666 -10.666666666666666h29.13525333333333c8.623999999999999 0 16.894933333333334 3.426026666666666 22.993066666666667 9.524373333333333 6.0992 6.0982400000000005 9.524266666666666 14.369386666666665 9.524266666666666 22.9936 0 1.8736 -0.16106666666666666 3.7296 -0.47679999999999995 5.551466666666666 6.924799999999999 -22.064106666666664 27.53493333333333 -38.06944 51.883733333333325 -38.06944 30.026666666666664 0 54.36906666666667 24.341973333333332 54.36906666666667 54.36917333333333 0 30.027733333333334 -24.342399999999998 54.36906666666667 -54.36906666666667 54.36906666666667 -24.3488 0 -44.958933333333334 -16.005333333333333 -51.883733333333325 -38.068266666666666 0.3157333333333333 1.8207999999999998 0.47679999999999995 3.6778666666666666 0.47679999999999995 5.550933333333333 0 8.623999999999999 -3.4250666666666665 16.894933333333334 -9.524266666666666 22.993066666666667 -6.098133333333333 6.098133333333333 -14.369066666666665 9.524266666666666 -22.993066666666667 9.524266666666666H88.57034666666667c-5.891093333333332 0 -10.666666666666666 -4.7754666666666665 -10.666666666666666 -10.666666666666666V84.29749333333334ZM141.78773333333334 128c2.942933333333333 -3.243733333333333 5.1786666666666665 -7.022933333333333 6.606933333333332 -11.098666666666666 -0.7434666666666666 3.582933333333333 -1.1338666666666666 7.294933333333333 -1.1338666666666666 11.098666666666666 0 3.8037333333333327 0.39039999999999997 7.515733333333333 1.1338666666666666 11.098666666666666 -1.4282666666666666 -4.074666666666666 -3.664 -7.854933333333333 -6.606933333333332 -11.098666666666666ZM99.23701333333334 94.96415999999999V117.33333333333333h18.468586666666667c2.9664 0 5.8111999999999995 -1.1786666666666665 7.908266666666666 -3.275733333333333 2.098133333333333 -2.0970666666666666 3.275733333333333 -4.9429333333333325 3.275733333333333 -7.9088 0 -2.9662933333333332 -1.1776 -5.8111999999999995 -3.275733333333333 -7.908693333333333 -2.0970666666666666 -2.0974933333333334 -4.941866666666666 -3.2759466666666666 -7.908266666666666 -3.2759466666666666H99.23701333333334Zm0 43.702506666666665v22.36906666666667h18.468586666666667c2.9664 0 5.8111999999999995 -1.1776 7.908266666666666 -3.275733333333333 2.098133333333333 -2.0970666666666666 3.275733333333333 -4.941866666666666 3.275733333333333 -7.908266666666666 0 -2.9664 -1.1776 -5.8111999999999995 -3.275733333333333 -7.9093333333333335 -2.0970666666666666 -2.0970666666666666 -4.941866666666666 -3.275733333333333 -7.908266666666666 -3.275733333333333H99.23701333333334Zm102.39285333333333 -43.702506666666665c-18.24533333333333 0 -33.03573333333333 14.790506666666666 -33.03573333333333 33.03583999999999s14.7904 33.03573333333333 33.03573333333333 33.03573333333333c18.24533333333333 0 33.03573333333333 -14.7904 33.03573333333333 -33.03573333333333 0 -18.24533333333333 -14.7904 -33.03583999999999 -33.03573333333333 -33.03583999999999ZM225.62986666666666 128c0 13.255466666666665 -10.744533333333333 24 -24 24 -13.254399999999999 0 -24 -10.744533333333333 -24 -24 0 -13.254399999999999 10.7456 -23.999786666666665 24 -23.999786666666665 13.255466666666665 0 24 10.745386666666665 24 23.999786666666665Z" clip-rule="evenodd"/></svg>