<svg xmlns="http://www.w3.org/2000/svg" id="Headphones-1--Streamline-Ultimate" width="256" height="256" viewBox="0 0 256 256"><desc>Headphones 1 Streamline Icon: https://streamlinehq.com</desc><g id="Headphones-1--Streamline-Ultimate.svg"><path fill="#fff" stroke-width="10.667" d="M71.36 146.02666666666664c-3.093333333333333 -1.92 -6.293333333333333 -3.9466666666666663 -9.493333333333332 -6.293333333333333a5.333333333333333 5.333333333333333 0 0 0 -8.533333333333333 4.266666666666667v106.66666666666666a5.333333333333333 5.333333333333333 0 0 0 9.066666666666666 3.733333333333333c4.586666666666666 -4.586666666666666 8.746666666666666 -8.106666666666666 12.373333333333331 -11.2 8.853333333333332 -7.466666666666666 15.893333333333333 -13.333333333333332 15.893333333333333 -24.53333333333333V170.66666666666666c0 -12.479999999999999 -9.813333333333333 -18.666666666666664 -19.306666666666665 -24.64Z"/><path fill="#fff" stroke-width="10.667" d="M236.58666666666664 139.62666666666667a2.6666666666666665 2.6666666666666665 0 0 1 -1.92 -2.5599999999999996V106.66666666666666a106.66666666666666 106.66666666666666 0 0 0 -213.33333333333331 0v30.4a2.6666666666666665 2.6666666666666665 0 0 1 -1.92 2.5599999999999996A26.77333333333333 26.77333333333333 0 0 0 0 165.33333333333331v64A26.666666666666664 26.666666666666664 0 0 0 26.666666666666664 256h10.666666666666666a5.333333333333333 5.333333333333333 0 0 0 5.333333333333333 -5.333333333333333V106.66666666666666a85.33333333333333 85.33333333333333 0 0 1 170.66666666666666 0v144a5.333333333333333 5.333333333333333 0 0 0 5.333333333333333 5.333333333333333h10.666666666666666a26.666666666666664 26.666666666666664 0 0 0 26.666666666666664 -26.666666666666664v-64a26.77333333333333 26.77333333333333 0 0 0 -19.413333333333334 -25.706666666666667Z"/><path fill="#fff" stroke-width="10.667" d="M194.13333333333333 139.73333333333332c-3.1999999999999997 2.3466666666666667 -6.3999999999999995 4.373333333333333 -9.493333333333332 6.293333333333333 -9.493333333333332 5.973333333333334 -19.306666666666665 12.159999999999998 -19.306666666666665 24.64v48c0 11.2 7.04 17.066666666666666 15.893333333333333 24.53333333333333 3.626666666666667 3.093333333333333 7.786666666666666 6.613333333333333 12.373333333333331 11.2a5.333333333333333 5.333333333333333 0 0 0 9.066666666666666 -3.733333333333333v-106.66666666666666a5.333333333333333 5.333333333333333 0 0 0 -8.533333333333333 -4.266666666666667Z"/></g></svg>