<svg xmlns="http://www.w3.org/2000/svg" id="Headphones-Customer-Support-Question--Streamline-Ultimate" width="256" height="256" viewBox="0 0 256 256"><desc>Headphones Customer Support Question Streamline Icon: https://streamlinehq.com</desc><g id="Headphones-Customer-Support-Question--Streamline-Ultimate.svg"><path fill="#fff" stroke-width="10.667" d="M256 149.33333333333331a48 48 0 0 0 -32 -45.22666666666667V96A96 96 0 0 0 32 96v8.106666666666666a48 48 0 0 0 0 90.45333333333333 16.426666666666666 16.426666666666666 0 0 0 14.613333333333333 -1.92A16.32 16.32 0 0 0 53.33333333333333 179.51999999999998V96a74.66666666666666 74.66666666666666 0 0 1 149.33333333333331 0v83.52a15.893333333333333 15.893333333333333 0 0 0 5.333333333333333 11.733333333333334v6.079999999999999c0 15.786666666666665 -13.76 21.333333333333332 -26.666666666666664 21.333333333333332h-18.986666666666665a21.333333333333332 21.333333333333332 0 1 0 -18.346666666666664 32 21.333333333333332 21.333333333333332 0 0 0 18.346666666666664 -10.666666666666666H181.33333333333331c28.266666666666666 0 48 -17.493333333333332 48 -42.666666666666664V192a48 48 0 0 0 26.666666666666664 -42.666666666666664Z"/><path fill="#fff" stroke-width="10.667" d="M114.66666666666666 178.66666666666666a13.333333333333332 13.333333333333332 0 1 0 26.666666666666664 0 13.333333333333332 13.333333333333332 0 1 0 -26.666666666666664 0"/><path fill="#fff" stroke-width="10.667" d="M101.33333333333333 112a13.333333333333332 13.333333333333332 0 0 0 13.333333333333332 -13.333333333333332 13.333333333333332 13.333333333333332 0 1 1 18.666666666666664 12.266666666666666 31.04 31.04 0 0 0 -18.666666666666664 28.479999999999997v5.973333333333334a13.333333333333332 13.333333333333332 0 1 0 26.666666666666664 0v-5.973333333333334a4.4799999999999995 4.4799999999999995 0 0 1 2.6666666666666665 -4.053333333333333 40 40 0 1 0 -56 -36.69333333333333A13.333333333333332 13.333333333333332 0 0 0 101.33333333333333 112Z"/></g></svg>