<svg xmlns="http://www.w3.org/2000/svg" id="Hearing-Disability--Streamline-Ultimate" width="256" height="256" fill="none" viewBox="0 0 256 256"><desc>Hearing Disability Streamline Icon: https://streamlinehq.com</desc><path fill="#fff" fill-rule="evenodd" stroke-width="10.667" d="M15.603413333333332 225.31733333333332c-4.165653333333333 4.165333333333333 -4.165653333333333 10.919466666666667 0 15.084799999999998 4.165546666666666 4.165333333333333 10.919253333333332 4.165333333333333 15.084906666666665 0l100.42954666666665 -100.42986666666667c3.122133333333333 -2.2090666666666667 7.474133333333333 -1.9157333333333333 10.269866666666665 0.8810666666666667 3.1242666666666663 3.1242666666666663 3.1242666666666663 8.189866666666667 0 11.314133333333332l-67.53845333333334 67.53813333333332c2.0260266666666666 2.7594666666666665 4.234346666666666 5.403733333333333 6.530986666666667 7.5872l-0.00031999999999999997 0 0.056319999999999995 0.05226666666666666c9.3184 8.609066666666667 21.757759999999998 13.959466666666666 35.309866666666665 13.959466666666666 28.545066666666663 0 52.266666666666666 -23.7216 52.266666666666666 -52.266666666666666 0 -12.327466666666666 5.725866666666667 -24.630399999999998 15.064533333333333 -32.10133333333333 0.1536 -0.12266666666666666 0.30079999999999996 -0.25493333333333335 0.43946666666666667 -0.3936 0.5631999999999999 -0.5621333333333333 1.0943999999999998 -1.0197333333333334 1.776 -1.6042666666666667l0.0010666666666666667 -0.0010666666666666667c0.4864 -0.4181333333333333 1.0485333333333333 -0.9013333333333333 1.7535999999999998 -1.5349333333333333 1.3728 -1.2362666666666666 2.978133333333333 -2.8031999999999995 4.357333333333333 -4.779733333333333 20.0128 -22.069333333333333 20.413866666666664 -52.09013333333333 9.0688 -76.16608 -11.380266666666666 -24.149226666666667 -35.07306666666666 -43.4176 -64.46079999999999 -43.4176 -40.27914666666666 0 -72.53365333333332 32.2544 -72.53365333333332 72.53322666666666v75.86858666666666l-47.87573333333333 47.876266666666666ZM203.3152 37.60501333333333c-4.165333333333333 4.165653333333333 -4.165333333333333 10.91936 0 15.085013333333332 4.165333333333333 4.165546666666666 10.919466666666667 4.165546666666666 15.084799999999998 0l22.0096 -22.00949333333333c4.165333333333333 -4.165653333333333 4.165333333333333 -10.91936 0 -15.085013333333332 -4.165333333333333 -4.165546666666666 -10.919466666666667 -4.165546666666666 -15.084799999999998 0l-22.0096 22.00949333333333Zm-67.79626666666667 24.969386666666665c-21.854933333333335 0 -38.99808 17.143786666666664 -38.99808 38.99872 0 4.418346666666666 3.5816533333333336 8.000213333333333 8 8.000213333333333 4.417813333333333 0 7.99968 -3.5818666666666665 7.99968 -8.000213333333333 0 -13.018453333333333 9.980799999999999 -22.99872 22.998399999999997 -22.99872 4.362666666666666 0 8.375466666666666 1.22208 11.8016 3.3164799999999994 3.7695999999999996 2.3041066666666667 8.6944 1.1159466666666666 10.998399999999998 -2.6538666666666666 2.304 -3.76992 1.1157333333333332 -8.693866666666667 -2.6538666666666666 -10.998079999999998 -5.84 -3.5690666666666666 -12.724266666666667 -5.664533333333333 -20.14613333333333 -5.664533333333333Z" clip-rule="evenodd"/></svg>