<svg xmlns="http://www.w3.org/2000/svg" viewBox="0 0 256 256" id="Help-Question-Network--Streamline-Ultimate" height="256" width="256">
  <desc>
    Help Question Network Streamline Icon: https://streamlinehq.com
  </desc>
  <g id="Help-Question-Network--Streamline-Ultimate.svg">
    <path d="M192 74.66666666666666a10.666666666666666 10.666666666666666 0 0 0 7.466666666666666 -2.986666666666667L218.55999999999997 53.33333333333333a2.5599999999999996 2.5599999999999996 0 0 1 2.6666666666666665 -0.6399999999999999 28.479999999999997 28.479999999999997 0 0 0 8 1.1733333333333333A26.666666666666664 26.666666666666664 0 1 0 202.66666666666666 26.666666666666664a28.05333333333333 28.05333333333333 0 0 0 1.3866666666666667 8.533333333333333 2.453333333333333 2.453333333333333 0 0 1 -0.6399999999999999 2.6666666666666665L184.42666666666665 56.53333333333333A10.666666666666666 10.666666666666666 0 0 0 192 74.66666666666666Z" fill="#ffffff" stroke-width="10.6667"></path>
    <path d="M229.33333333333331 202.66666666666666a28.05333333333333 28.05333333333333 0 0 0 -8.533333333333333 1.3866666666666667 2.453333333333333 2.453333333333333 0 0 1 -2.6666666666666665 -0.6399999999999999l-19.093333333333334 -19.093333333333334a10.666666666666666 10.666666666666666 0 1 0 -15.146666666666665 14.933333333333332l19.306666666666665 19.52a2.453333333333333 2.453333333333333 0 0 1 0.6399999999999999 2.6666666666666665 27.199999999999996 27.199999999999996 0 0 0 -1.1733333333333333 7.893333333333333 26.666666666666664 26.666666666666664 0 1 0 26.666666666666664 -26.666666666666664Z" fill="#ffffff" stroke-width="10.6667"></path>
    <path d="M26.77333333333333 53.33333333333333a28.479999999999997 28.479999999999997 0 0 0 8 -1.1733333333333333 2.5599999999999996 2.5599999999999996 0 0 1 2.6666666666666665 1.1733333333333333l19.2 18.986666666666665A10.666666666666666 10.666666666666666 0 0 0 64 74.66666666666666a10.666666666666666 10.666666666666666 0 0 0 7.466666666666666 -18.24L52.693333333333335 37.86666666666666a2.453333333333333 2.453333333333333 0 0 1 -0.6399999999999999 -2.6666666666666665A28.05333333333333 28.05333333333333 0 0 0 53.33333333333333 26.666666666666664 26.666666666666664 26.666666666666664 0 1 0 26.77333333333333 53.33333333333333Z" fill="#ffffff" stroke-width="10.6667"></path>
    <path d="m56.959999999999994 184.2133333333333 -19.093333333333334 19.2a2.453333333333333 2.453333333333333 0 0 1 -2.6666666666666665 0.6399999999999999 28.05333333333333 28.05333333333333 0 0 0 -8.533333333333333 -1.3866666666666667A26.666666666666664 26.666666666666664 0 1 0 53.33333333333333 229.33333333333331a27.199999999999996 27.199999999999996 0 0 0 -1.1733333333333333 -7.893333333333333 2.453333333333333 2.453333333333333 0 0 1 1.1733333333333333 -2.6666666666666665l19.306666666666665 -19.52a10.666666666666666 10.666666666666666 0 0 0 -15.146666666666665 -15.04Z" fill="#ffffff" stroke-width="10.6667"></path>
    <path d="M192 133.44h10.666666666666666a2.88 2.88 0 0 1 2.453333333333333 1.4933333333333334A26.666666666666664 26.666666666666664 0 1 0 229.22666666666663 96a26.88 26.88 0 0 0 -23.786666666666665 14.613333333333333 2.6666666666666665 2.6666666666666665 0 0 1 -2.3466666666666667 1.3866666666666667H192a10.666666666666666 10.666666666666666 0 0 0 0 21.333333333333332Z" fill="#ffffff" stroke-width="10.6667"></path>
    <path d="M0 122.66666666666666a26.666666666666664 26.666666666666664 0 0 0 50.346666666666664 12.159999999999998 3.093333333333333 3.093333333333333 0 0 1 2.986666666666667 -1.4933333333333334h10.666666666666666a10.666666666666666 10.666666666666666 0 0 0 0 -21.333333333333332H53.33333333333333a2.6666666666666665 2.6666666666666665 0 0 1 -2.3466666666666667 -1.3866666666666667A26.666666666666664 26.666666666666664 0 0 0 0 122.66666666666666Z" fill="#ffffff" stroke-width="10.6667"></path>
    <path d="M111.89333333333333 200.10666666666668a16 16 0 1 0 32 0 16 16 0 1 0 -32 0" fill="#ffffff" stroke-width="10.6667"></path>
    <path d="M128 64a45.44 45.44 0 0 0 -45.33333333333333 45.33333333333333 13.333333333333332 13.333333333333332 0 0 0 26.666666666666664 0 18.666666666666664 18.666666666666664 0 1 1 26.133333333333333 17.173333333333332 34.773333333333326 34.773333333333326 0 0 0 -20.799999999999997 32v4.373333333333333a13.333333333333332 13.333333333333332 0 0 0 26.666666666666664 0v-4.373333333333333a8.106666666666666 8.106666666666666 0 0 1 4.8 -7.359999999999999A45.33333333333333 45.33333333333333 0 0 0 128 64Z" fill="#ffffff" stroke-width="10.6667"></path>
  </g>
</svg>