<svg xmlns="http://www.w3.org/2000/svg" fill="none" viewBox="0 0 256 256" id="Hierarchy-5-Organize--Streamline-Ultimate" height="256" width="256">
  <desc>
    Hierarchy 5 Organize Streamline Icon: https://streamlinehq.com
  </desc>
  <path fill="#ffffff" fill-rule="evenodd" d="M61.33333333333333 0a16 16 0 0 0 -16 16v53.33333333333333A16 16 0 0 0 61.33333333333333 85.33333333333333H117.33333333333333v45.33333333333333H48a26.666666666666664 26.666666666666664 0 0 0 -26.666666666666664 26.666666666666664v36.48a32.010666666666665 32.010666666666665 0 1 0 21.333333333333332 0v-36.48a5.333333333333333 5.333333333333333 0 0 1 5.333333333333333 -5.333333333333333H117.33333333333333v41.81333333333333a32.010666666666665 32.010666666666665 0 1 0 21.333333333333332 0v-41.81333333333333h69.33333333333333a5.333333333333333 5.333333333333333 0 0 1 5.333333333333333 5.333333333333333v36.48a32.010666666666665 32.010666666666665 0 1 0 21.333333333333332 0v-36.48a26.666666666666664 26.666666666666664 0 0 0 -26.666666666666664 -26.666666666666664H138.66666666666666V85.33333333333333h56a16 16 0 0 0 16 -16v-53.33333333333333a16 16 0 0 0 -16 -16H61.33333333333333Z" clip-rule="evenodd" stroke-width="10.6667"></path>
</svg>