<svg xmlns="http://www.w3.org/2000/svg" fill="none" viewBox="0 0 256 256" id="Hospital-Building-Pin--Streamline-Ultimate" height="256" width="256">
  <desc>
    Hospital Building Pin Streamline Icon: https://streamlinehq.com
  </desc>
  <path fill="#ffffff" fill-rule="evenodd" d="M207.31733333333332 3.0719999999999996a41.408 41.408 0 0 0 -41.408 41.41866666666667c0 6.357333333333333 2.5066666666666664 13.888 5.504 20.82133333333333 3.093333333333333 7.210666666666667 7.210666666666667 14.837333333333333 11.328 21.759999999999998s8.352 13.290666666666667 11.765333333333333 17.973333333333333c1.696 2.325333333333333 3.2746666666666666 4.351999999999999 4.586666666666666 5.866666666666667 0.6399999999999999 0.7253333333333334 1.3546666666666667 1.4933333333333334 2.0906666666666665 2.1546666666666665 0.3626666666666667 0.31999999999999995 0.9066666666666667 0.7679999999999999 1.5786666666666664 1.1946666666666665l0.021333333333333333 0a8.501333333333333 8.501333333333333 0 0 0 9.077333333333332 0.010666666666666666l0.021333333333333333 0a11.626666666666667 11.626666666666667 0 0 0 1.5786666666666664 -1.2053333333333334c0.736 -0.6506666666666666 1.4506666666666668 -1.4293333333333333 2.0906666666666665 -2.1653333333333333a88.32 88.32 0 0 0 4.586666666666666 -5.856c3.413333333333333 -4.693333333333333 7.648 -11.050666666666666 11.765333333333333 -17.973333333333333s8.224 -14.549333333333333 11.338666666666665 -21.759999999999998c2.986666666666667 -6.933333333333334 5.493333333333333 -14.464 5.493333333333333 -20.82133333333333A41.408 41.408 0 0 0 207.31733333333332 3.0719999999999996Zm0 52.55466666666666a12.597333333333333 12.597333333333333 0 1 0 0 -25.194666666666667 12.597333333333333 12.597333333333333 0 0 0 0 25.194666666666667Zm-72.97066666666666 -2.453333333333333a8 8 0 0 0 -8 -8H9.472a8 8 0 0 0 -8 8v191.75466666666665c0 4.4159999999999995 3.5733333333333333 8 8 8h40.256v-33.80266666666667a10.666666666666666 10.666666666666666 0 0 1 10.666666666666666 -10.666666666666666H75.41333333333333a10.666666666666666 10.666666666666666 0 0 1 10.666666666666666 10.666666666666666v33.80266666666667h40.256l0.18133333333333335 0h85.44a8 8 0 0 0 8 -8v-84.32a8 8 0 0 0 -8 -8h-61.504v50.154666666666664a8 8 0 0 1 -16 0v-50.154666666666664h-0.11733333333333332l0 -99.43466666666666ZM55.98933333333333 77.728a8 8 0 0 0 -16 0v59.73333333333333a8 8 0 0 0 16 0v-24.351999999999997h23.82933333333333v24.362666666666662a8 8 0 0 0 16 0V77.728a8 8 0 1 0 -16 0v19.38133333333333H56V77.728Z" clip-rule="evenodd" stroke-width="10.6667"></path>
</svg>