<svg xmlns="http://www.w3.org/2000/svg" id="Hospital-Sign--Streamline-Ultimate" width="256" height="256" viewBox="0 0 256 256"><desc>Hospital Sign Streamline Icon: https://streamlinehq.com</desc><path fill="#fff" stroke-width="10.667" d="M256 32a16 16 0 0 0 -16 -16h-160A16 16 0 0 0 64 32a5.333333333333333 5.333333333333333 0 0 1 -5.333333333333333 5.333333333333333h-21.333333333333332A5.333333333333333 5.333333333333333 0 0 1 32 32V16a16 16 0 0 0 -32 0v224a16 16 0 0 0 32 0V192a5.333333333333333 5.333333333333333 0 0 1 5.333333333333333 -5.333333333333333h21.333333333333332a5.333333333333333 5.333333333333333 0 0 1 5.333333333333333 5.333333333333333 16 16 0 0 0 16 16h160A16 16 0 0 0 256 192ZM64 149.33333333333331a5.333333333333333 5.333333333333333 0 0 1 -5.333333333333333 5.333333333333333h-21.333333333333332A5.333333333333333 5.333333333333333 0 0 1 32 149.33333333333331V74.66666666666666a5.333333333333333 5.333333333333333 0 0 1 5.333333333333333 -5.333333333333333h21.333333333333332A5.333333333333333 5.333333333333333 0 0 1 64 74.66666666666666Zm154.66666666666666 -21.333333333333332a5.333333333333333 5.333333333333333 0 0 1 -5.333333333333333 5.333333333333333h-26.666666666666664a5.333333333333333 5.333333333333333 0 0 0 -5.333333333333333 5.333333333333333v26.666666666666664a5.333333333333333 5.333333333333333 0 0 1 -5.333333333333333 5.333333333333333h-32a5.333333333333333 5.333333333333333 0 0 1 -5.333333333333333 -5.333333333333333V138.66666666666666a5.333333333333333 5.333333333333333 0 0 0 -5.333333333333333 -5.333333333333333H106.66666666666666a5.333333333333333 5.333333333333333 0 0 1 -5.333333333333333 -5.333333333333333V96a5.333333333333333 5.333333333333333 0 0 1 5.333333333333333 -5.333333333333333h26.666666666666664A5.333333333333333 5.333333333333333 0 0 0 138.66666666666666 85.33333333333333V58.666666666666664a5.333333333333333 5.333333333333333 0 0 1 5.333333333333333 -5.333333333333333h32a5.333333333333333 5.333333333333333 0 0 1 5.333333333333333 5.333333333333333V85.33333333333333a5.333333333333333 5.333333333333333 0 0 0 5.333333333333333 5.333333333333333H213.33333333333331a5.333333333333333 5.333333333333333 0 0 1 5.333333333333333 5.333333333333333Z"/></svg>