<svg xmlns="http://www.w3.org/2000/svg" id="House-Chimney--Streamline-Ultimate" width="256" height="256" viewBox="0 0 256 256"><desc>House Chimney Streamline Icon: https://streamlinehq.com</desc><path fill="#fff" stroke-width="10.667" d="m252.90666666666667 120.42666666666665 -33.49333333333333 -33.38666666666666A3.093333333333333 3.093333333333333 0 0 1 218.66666666666666 85.33333333333333V21.333333333333332a10.666666666666666 10.666666666666666 0 0 0 -10.666666666666666 -10.666666666666666h-32a10.666666666666666 10.666666666666666 0 0 0 -10.666666666666666 10.666666666666666v5.119999999999999a2.6666666666666665 2.6666666666666665 0 0 1 -1.5999999999999999 2.453333333333333 2.7733333333333334 2.7733333333333334 0 0 1 -2.986666666666667 0L135.57333333333332 3.093333333333333a10.666666666666666 10.666666666666666 0 0 0 -15.146666666666665 0l-117.33333333333333 117.33333333333333a10.666666666666666 10.666666666666666 0 0 0 -2.2399999999999998 11.626666666666667A10.666666666666666 10.666666666666666 0 0 0 10.666666666666666 138.66666666666666h13.333333333333332a2.6666666666666665 2.6666666666666665 0 0 1 2.6666666666666665 2.6666666666666665V245.33333333333331a10.666666666666666 10.666666666666666 0 0 0 10.666666666666666 10.666666666666666h181.33333333333331a10.666666666666666 10.666666666666666 0 0 0 10.666666666666666 -10.666666666666666v-104a2.6666666666666665 2.6666666666666665 0 0 1 2.6666666666666665 -2.6666666666666665H245.33333333333331a10.666666666666666 10.666666666666666 0 0 0 9.813333333333333 -6.613333333333333 10.666666666666666 10.666666666666666 0 0 0 -2.2399999999999998 -11.626666666666667Z"/></svg>