<svg xmlns="http://www.w3.org/2000/svg" id="House-4--Streamline-Ultimate" width="256" height="256" viewBox="0 0 256 256"><desc>House 4 Streamline Icon: https://streamlinehq.com</desc><g id="House-4--Streamline-Ultimate.svg"><path fill="#fff" stroke-width="10.667" d="m28.16 112.96 96 -79.78666666666666a5.119999999999999 5.119999999999999 0 0 1 6.613333333333333 0l96 79.78666666666666a15.466666666666665 15.466666666666665 0 0 0 21.973333333333333 -2.3466666666666667 16.21333333333333 16.21333333333333 0 0 0 -2.2399999999999998 -22.506666666666664l-96 -79.89333333333333a36.373333333333335 36.373333333333335 0 0 0 -46.08 0l-96 79.89333333333333a16.21333333333333 16.21333333333333 0 0 0 -2.2399999999999998 22.506666666666664 15.466666666666665 15.466666666666665 0 0 0 21.973333333333333 2.3466666666666667Z"/><path fill="#fff" stroke-width="10.667" d="M237.65333333333334 234.66666666666666v-74.66666666666666a23.68 23.68 0 0 0 -7.786666666666666 -16.96l-88.53333333333333 -74.66666666666666a20.69333333333333 20.69333333333333 0 0 0 -26.666666666666664 0l-88.53333333333333 74.66666666666666A23.68 23.68 0 0 0 18.346666666666664 160v74.66666666666666a21.333333333333332 21.333333333333332 0 0 0 21.333333333333332 21.333333333333332h56.959999999999994a10.666666666666666 10.666666666666666 0 0 0 10.666666666666666 -10.666666666666666v-58.666666666666664a10.666666666666666 10.666666666666666 0 0 1 10.666666666666666 -10.666666666666666h21.333333333333332a10.666666666666666 10.666666666666666 0 0 1 10.666666666666666 10.666666666666666V245.33333333333331a10.666666666666666 10.666666666666666 0 0 0 10.666666666666666 10.666666666666666h57.38666666666666a21.333333333333332 21.333333333333332 0 0 0 19.626666666666665 -21.333333333333332Z"/></g></svg>