<svg xmlns="http://www.w3.org/2000/svg" id="Human-Resources-Businessman-Clock--Streamline-Ultimate" width="256" height="256" viewBox="0 0 256 256"><desc>Human Resources Businessman Clock Streamline Icon: https://streamlinehq.com</desc><g id="Human-Resources-Businessman-Clock--Streamline-Ultimate.svg"><path fill="#fff" stroke-width="10.667" d="M74.66666666666666 0a74.66666666666666 74.66666666666666 0 1 0 74.66666666666666 74.66666666666666 74.66666666666666 74.66666666666666 0 0 0 -74.66666666666666 -74.66666666666666Zm0 128a53.33333333333333 53.33333333333333 0 1 1 53.33333333333333 -53.33333333333333 53.33333333333333 53.33333333333333 0 0 1 -53.33333333333333 53.33333333333333Z"/><path fill="#fff" stroke-width="10.667" d="M96 64.96h-7.893333333333333A2.6666666666666665 2.6666666666666665 0 0 1 85.33333333333333 62.29333333333333V47.78666666666667a10.666666666666666 10.666666666666666 0 0 0 -21.333333333333332 0v27.733333333333334a10.666666666666666 10.666666666666666 0 0 0 10.666666666666666 10.666666666666666h21.333333333333332a10.666666666666666 10.666666666666666 0 1 0 0 -21.333333333333332Z"/><path fill="#fff" stroke-width="10.667" d="M227.30666666666664 99.41333333333333a2.7733333333333334 2.7733333333333334 0 0 1 -1.4933333333333334 -2.2399999999999998 2.88 2.88 0 0 1 1.2799999999999998 -2.453333333333333 42.666666666666664 42.666666666666664 0 0 0 19.413333333333334 -35.839999999999996A43.30666666666666 43.30666666666666 0 1 0 180.58666666666664 96a2.5599999999999996 2.5599999999999996 0 0 1 1.1733333333333333 2.3466666666666667 2.453333333333333 2.453333333333333 0 0 1 -1.3866666666666667 2.2399999999999998 50.879999999999995 50.879999999999995 0 0 0 -26.346666666666668 44.48v29.866666666666664a5.653333333333333 5.653333333333333 0 0 0 1.5999999999999999 3.84 5.333333333333333 5.333333333333333 0 0 0 3.733333333333333 1.4933333333333334h15.466666666666665a2.6666666666666665 2.6666666666666665 0 0 1 2.6666666666666665 2.453333333333333l6.933333333333334 68.47999999999999a5.119999999999999 5.119999999999999 0 0 0 5.226666666666667 4.8h30.29333333333333a5.333333333333333 5.333333333333333 0 0 0 5.333333333333333 -4.8l6.826666666666666 -68.47999999999999a2.6666666666666665 2.6666666666666665 0 0 1 2.5599999999999996 -2.453333333333333h15.466666666666665a5.333333333333333 5.333333333333333 0 0 0 3.733333333333333 -1.4933333333333334 5.226666666666667 5.226666666666667 0 0 0 2.1333333333333333 -3.84v-30.29333333333333a50.346666666666664 50.346666666666664 0 0 0 -28.69333333333333 -45.22666666666667ZM213.33333333333331 136.10666666666665a8 8 0 0 1 -16 0v-18.026666666666664a8 8 0 0 1 16 0Zm-31.146666666666665 -83.62666666666667a2.5599999999999996 2.5599999999999996 0 0 1 1.5999999999999999 -1.7066666666666666 2.3466666666666667 2.3466666666666667 0 0 1 2.2399999999999998 0 53.33333333333333 53.33333333333333 0 0 0 28.05333333333333 7.786666666666666 61.54666666666666 61.54666666666666 0 0 0 9.92 -0.6399999999999999 0.96 0.96 0 0 1 1.1733333333333333 0.96 22.08 22.08 0 0 1 -44.16 0 21.333333333333332 21.333333333333332 0 0 1 1.1733333333333333 -6.3999999999999995Z"/></g></svg>