<svg xmlns="http://www.w3.org/2000/svg" viewBox="0 0 256 256" id="Human-Resources-Workflow--Streamline-Ultimate" height="256" width="256">
  <desc>
    Human Resources Workflow Streamline Icon: https://streamlinehq.com
  </desc>
  <g id="Human-Resources-Workflow--Streamline-Ultimate.svg">
    <path d="M117.44 18.666666666666664a10.666666666666666 10.666666666666666 0 1 0 21.333333333333332 0 10.666666666666666 10.666666666666666 0 1 0 -21.333333333333332 0" fill="#ffffff" stroke-width="10.6667"></path>
    <path d="M128 34.666666666666664A21.333333333333332 21.333333333333332 0 0 0 106.66666666666666 53.33333333333333a2.7733333333333334 2.7733333333333334 0 0 0 0.5333333333333333 2.1333333333333333 2.6666666666666665 2.6666666666666665 0 0 0 2.0266666666666664 0.96h37.013333333333335a2.6666666666666665 2.6666666666666665 0 0 0 2.0266666666666664 -0.96 2.88 2.88 0 0 0 1.0666666666666667 -2.1333333333333333 21.333333333333332 21.333333333333332 0 0 0 -21.333333333333332 -18.666666666666664Z" fill="#ffffff" stroke-width="10.6667"></path>
    <path d="M218.77333333333334 125.33333333333333a10.666666666666666 10.666666666666666 0 1 0 21.333333333333332 0 10.666666666666666 10.666666666666666 0 1 0 -21.333333333333332 0" fill="#ffffff" stroke-width="10.6667"></path>
    <path d="M208.32 160a2.7733333333333334 2.7733333333333334 0 0 0 0 2.1333333333333333 2.6666666666666665 2.6666666666666665 0 0 0 2.0266666666666664 0.96h37.013333333333335a2.6666666666666665 2.6666666666666665 0 0 0 2.0266666666666664 -0.96 2.88 2.88 0 0 0 0.6399999999999999 -2.1333333333333333 21.333333333333332 21.333333333333332 0 0 0 -42.666666666666664 0Z" fill="#ffffff" stroke-width="10.6667"></path>
    <path d="M117.44 210.66666666666666a10.666666666666666 10.666666666666666 0 1 0 21.333333333333332 0 10.666666666666666 10.666666666666666 0 1 0 -21.333333333333332 0" fill="#ffffff" stroke-width="10.6667"></path>
    <path d="M128 226.66666666666666A21.333333333333332 21.333333333333332 0 0 0 106.66666666666666 245.33333333333331a2.7733333333333334 2.7733333333333334 0 0 0 0.5333333333333333 2.1333333333333333 2.6666666666666665 2.6666666666666665 0 0 0 2.0266666666666664 0.96h37.013333333333335a2.6666666666666665 2.6666666666666665 0 0 0 2.0266666666666664 -0.96 2.88 2.88 0 0 0 1.0666666666666667 -2.1333333333333333 21.333333333333332 21.333333333333332 0 0 0 -21.333333333333332 -18.666666666666664Z" fill="#ffffff" stroke-width="10.6667"></path>
    <path d="M16.106666666666666 125.33333333333333a10.666666666666666 10.666666666666666 0 1 0 21.333333333333332 0 10.666666666666666 10.666666666666666 0 1 0 -21.333333333333332 0" fill="#ffffff" stroke-width="10.6667"></path>
    <path d="M26.77333333333333 141.33333333333331A21.333333333333332 21.333333333333332 0 0 0 5.653333333333333 160a2.7733333333333334 2.7733333333333334 0 0 0 0 2.1333333333333333 2.6666666666666665 2.6666666666666665 0 0 0 2.0266666666666664 0.96h37.54666666666667a2.6666666666666665 2.6666666666666665 0 0 0 2.0266666666666664 -0.96 2.88 2.88 0 0 0 0.6399999999999999 -2.1333333333333333 21.333333333333332 21.333333333333332 0 0 0 -21.119999999999997 -18.666666666666664Z" fill="#ffffff" stroke-width="10.6667"></path>
    <path d="M174.29333333333332 85.33333333333333a5.333333333333333 5.333333333333333 0 0 0 9.813333333333333 0l1.1733333333333333 -2.3466666666666667a2.3466666666666667 2.3466666666666667 0 0 1 2.0266666666666664 -1.4933333333333334 2.453333333333333 2.453333333333333 0 0 1 2.3466666666666667 0.7466666666666667A89.70666666666666 89.70666666666666 0 0 1 202.66666666666666 98.77333333333333a10.666666666666666 10.666666666666666 0 0 0 9.173333333333332 5.4399999999999995 10.666666666666666 10.666666666666666 0 0 0 5.333333333333333 -1.4933333333333334 10.666666666666666 10.666666666666666 0 0 0 3.9466666666666663 -14.506666666666668 107.73333333333332 107.73333333333332 0 0 0 -23.146666666666665 -27.41333333333333 2.6666666666666665 2.6666666666666665 0 0 1 -0.6399999999999999 -3.1999999999999997l5.119999999999999 -10.666666666666666a5.4399999999999995 5.4399999999999995 0 0 0 -0.8533333333333333 -5.866666666666667 5.333333333333333 5.333333333333333 0 0 0 -5.76 -1.3866666666666667l-28.373333333333335 10.666666666666666a5.4399999999999995 5.4399999999999995 0 0 0 -3.3066666666666666 6.826666666666666Z" fill="#ffffff" stroke-width="10.6667"></path>
    <path d="M37.12 98.24000000000001a5.226666666666667 5.226666666666667 0 0 0 1.8133333333333335 3.626666666666667 5.333333333333333 5.333333333333333 0 0 0 3.733333333333333 1.3866666666666667l30.186666666666667 -1.92a5.226666666666667 5.226666666666667 0 0 0 4.693333333333333 -3.626666666666667 5.119999999999999 5.119999999999999 0 0 0 -1.4933333333333334 -5.653333333333333L67.94666666666666 85.33333333333333a2.5599999999999996 2.5599999999999996 0 0 1 -0.96 -1.92 2.6666666666666665 2.6666666666666665 0 0 1 0.8533333333333333 -1.92 87.46666666666665 87.46666666666665 0 0 1 22.29333333333333 -16.64 10.666666666666666 10.666666666666666 0 1 0 -9.493333333333332 -19.093333333333334 107.52 107.52 0 0 0 -29.119999999999997 21.333333333333332 2.6666666666666665 2.6666666666666665 0 0 1 -3.626666666666667 0L44.05333333333333 64a5.333333333333333 5.333333333333333 0 0 0 -5.866666666666667 -0.7466666666666667 5.4399999999999995 5.4399999999999995 0 0 0 -2.986666666666667 5.119999999999999Z" fill="#ffffff" stroke-width="10.6667"></path>
    <path d="M82.13333333333333 196.37333333333333a5.333333333333333 5.333333333333333 0 0 0 -4.373333333333333 -4.373333333333333 5.226666666666667 5.226666666666667 0 0 0 -5.333333333333333 2.6666666666666665l-2.453333333333333 4.053333333333333a2.6666666666666665 2.6666666666666665 0 0 1 -1.92 1.2799999999999998 2.7733333333333334 2.7733333333333334 0 0 1 -2.2399999999999998 -0.7466666666666667 87.25333333333333 87.25333333333333 0 0 1 -14.186666666666667 -20.37333333333333 10.666666666666666 10.666666666666666 0 0 0 -14.293333333333333 -4.8 10.666666666666666 10.666666666666666 0 0 0 -4.8 14.293333333333333 107.52 107.52 0 0 0 23.04 30.826666666666668 2.6666666666666665 2.6666666666666665 0 0 1 0 3.3066666666666666l-5.226666666666667 8.959999999999999a5.333333333333333 5.333333333333333 0 0 0 0 5.866666666666667 5.546666666666667 5.546666666666667 0 0 0 5.546666666666667 2.0266666666666664l29.226666666666667 -7.68a5.333333333333333 5.333333333333333 0 0 0 3.84 -6.506666666666666Z" fill="#ffffff" stroke-width="10.6667"></path>
    <path d="M218.98666666666668 183.89333333333332a5.226666666666667 5.226666666666667 0 0 0 -6.079999999999999 -4.373333333333333l-29.866666666666664 4.586666666666666a5.226666666666667 5.226666666666667 0 0 0 -4.373333333333333 3.9466666666666663 5.333333333333333 5.333333333333333 0 0 0 2.0266666666666664 5.546666666666667l6.613333333333333 4.8a3.413333333333333 3.413333333333333 0 0 1 1.0666666666666667 2.0266666666666664 2.88 2.88 0 0 1 -0.8533333333333333 2.0266666666666664 85.33333333333333 85.33333333333333 0 0 1 -21.333333333333332 15.36 10.666666666666666 10.666666666666666 0 0 0 4.4799999999999995 20.159999999999997 10.666666666666666 10.666666666666666 0 0 0 4.8 -1.0666666666666667 107.41333333333333 107.41333333333333 0 0 0 29.866666666666664 -22.186666666666667 2.6666666666666665 2.6666666666666665 0 0 1 3.52 0l6.186666666666666 4.4799999999999995a5.4399999999999995 5.4399999999999995 0 0 0 3.093333333333333 1.0666666666666667 5.333333333333333 5.333333333333333 0 0 0 2.7733333333333334 -0.8533333333333333A5.119999999999999 5.119999999999999 0 0 0 224 213.33333333333331Z" fill="#ffffff" stroke-width="10.6667"></path>
    <path d="M80.42666666666666 165.44a7.253333333333334 7.253333333333334 0 0 0 0.96 6.613333333333333 7.1466666666666665 7.1466666666666665 0 0 0 5.866666666666667 2.986666666666667h81.6a7.1466666666666665 7.1466666666666665 0 0 0 5.866666666666667 -2.986666666666667 7.253333333333334 7.253333333333334 0 0 0 0.96 -6.613333333333333 50.45333333333333 50.45333333333333 0 0 0 -95.25333333333333 0Z" fill="#ffffff" stroke-width="10.6667"></path>
    <path d="M106.34666666666666 102.61333333333332a21.759999999999998 21.759999999999998 0 1 0 43.519999999999996 0 21.759999999999998 21.759999999999998 0 1 0 -43.519999999999996 0" fill="#ffffff" stroke-width="10.6667"></path>
  </g>
</svg>