<svg xmlns="http://www.w3.org/2000/svg" viewBox="0 0 256 256" id="Human-Resources-Hierarchy-1--Streamline-Ultimate" height="256" width="256">
  <desc>
    Human Resources Hierarchy 1 Streamline Icon: https://streamlinehq.com
  </desc>
  <g id="Human-Resources-Hierarchy-1--Streamline-Ultimate.svg">
    <path d="M23.68 92.69333333333333a29.65333333333333 29.65333333333333 0 1 0 59.30666666666666 0 29.65333333333333 29.65333333333333 0 1 0 -59.30666666666666 0" fill="#ffffff" stroke-width="10.6667"></path>
    <path d="M53.33333333333333 134.18666666666667a53.33333333333333 53.33333333333333 0 0 0 -53.33333333333333 50.56 2.453333333333333 2.453333333333333 0 0 0 0.7466666666666667 2.0266666666666664 2.88 2.88 0 0 0 1.92 0.7466666666666667h101.33333333333333a3.3066666666666666 3.3066666666666666 0 0 0 1.92 -0.7466666666666667 2.7733333333333334 2.7733333333333334 0 0 0 0.6399999999999999 -2.0266666666666664A53.33333333333333 53.33333333333333 0 0 0 53.33333333333333 134.18666666666667Z" fill="#ffffff" stroke-width="10.6667"></path>
    <path d="M154.66666666666666 56a2.6666666666666665 2.6666666666666665 0 0 1 2.6666666666666665 -2.6666666666666665h8a10.666666666666666 10.666666666666666 0 0 0 0 -21.333333333333332H149.33333333333331a16 16 0 0 0 -16 16v66.66666666666666a2.6666666666666665 2.6666666666666665 0 0 1 -2.6666666666666665 2.6666666666666665H112a10.666666666666666 10.666666666666666 0 0 0 0 21.333333333333332h18.666666666666664a2.6666666666666665 2.6666666666666665 0 0 1 2.6666666666666665 2.6666666666666665v66.66666666666666A16 16 0 0 0 149.33333333333331 224h16a10.666666666666666 10.666666666666666 0 0 0 0 -21.333333333333332h-8a2.6666666666666665 2.6666666666666665 0 0 1 -2.6666666666666665 -2.6666666666666665Z" fill="#ffffff" stroke-width="10.6667"></path>
    <path d="M197.9733333333333 191.36a20.69333333333333 20.69333333333333 0 1 0 41.38666666666666 0 20.69333333333333 20.69333333333333 0 1 0 -41.38666666666666 0" fill="#ffffff" stroke-width="10.6667"></path>
    <path d="M218.66666666666666 218.66666666666666a37.33333333333333 37.33333333333333 0 0 0 -37.33333333333333 34.45333333333333 2.7733333333333334 2.7733333333333334 0 0 0 0.7466666666666667 2.0266666666666664 2.6666666666666665 2.6666666666666665 0 0 0 1.92 0.8533333333333333h69.12a2.88 2.88 0 0 0 2.0266666666666664 -0.8533333333333333 2.7733333333333334 2.7733333333333334 0 0 0 0.6399999999999999 -2.0266666666666664 37.33333333333333 37.33333333333333 0 0 0 -37.12 -34.45333333333333Z" fill="#ffffff" stroke-width="10.6667"></path>
    <path d="M197.9733333333333 20.69333333333333a20.69333333333333 20.69333333333333 0 1 0 41.38666666666666 0 20.69333333333333 20.69333333333333 0 1 0 -41.38666666666666 0" fill="#ffffff" stroke-width="10.6667"></path>
    <path d="M218.66666666666666 48A37.33333333333333 37.33333333333333 0 0 0 181.33333333333331 82.45333333333333a2.7733333333333334 2.7733333333333334 0 0 0 0.7466666666666667 2.0266666666666664 2.6666666666666665 2.6666666666666665 0 0 0 1.92 0.8533333333333333h69.12a2.88 2.88 0 0 0 2.0266666666666664 -0.8533333333333333 2.7733333333333334 2.7733333333333334 0 0 0 0.8533333333333333 -2.0266666666666664 37.33333333333333 37.33333333333333 0 0 0 -37.33333333333333 -34.45333333333333Z" fill="#ffffff" stroke-width="10.6667"></path>
  </g>
</svg>