<svg xmlns="http://www.w3.org/2000/svg" id="Human-Resources-Rating-Woman--Streamline-Ultimate" width="256" height="256" viewBox="0 0 256 256"><desc>Human Resources Rating Woman Streamline Icon: https://streamlinehq.com</desc><g id="Human-Resources-Rating-Woman--Streamline-Ultimate.svg"><path fill="#fff" stroke-width="10.667" d="M255.25333333333333 59.199999999999996a10.666666666666666 10.666666666666666 0 0 0 -9.92 -6.506666666666666h-15.893333333333333a2.5599999999999996 2.5599999999999996 0 0 1 -2.453333333333333 -1.7066666666666666l-9.066666666666666 -23.786666666666665a11.306666666666667 11.306666666666667 0 0 0 -19.84 0L192 42.666666666666664l0 0.7466666666666667a26.77333333333333 26.77333333333333 0 0 1 -13.226666666666667 21.973333333333333 2.6666666666666665 2.6666666666666665 0 0 0 -0.96 3.1999999999999997l2.453333333333333 5.653333333333333a26.666666666666664 26.666666666666664 0 0 1 -6.613333333333333 30.506666666666664A22.506666666666664 22.506666666666664 0 0 1 170.66666666666666 106.66666666666666a2.88 2.88 0 0 0 -0.96 3.1999999999999997 10.666666666666666 10.666666666666666 0 0 0 2.88 3.9466666666666663 10.666666666666666 10.666666666666666 0 0 0 12.693333333333332 1.4933333333333334l21.333333333333332 -11.733333333333334a2.453333333333333 2.453333333333333 0 0 1 2.6666666666666665 0l20.799999999999997 11.733333333333334a10.666666666666666 10.666666666666666 0 0 0 5.4399999999999995 1.3866666666666667 10.666666666666666 10.666666666666666 0 0 0 7.359999999999999 -2.88A10.666666666666666 10.666666666666666 0 0 0 245.33333333333331 101.54666666666665l-7.466666666666666 -17.599999999999998a2.88 2.88 0 0 1 0.96 -3.3066666666666666l13.866666666666667 -9.706666666666667a10.666666666666666 10.666666666666666 0 0 0 2.5599999999999996 -11.733333333333334Z"/><path fill="#fff" stroke-width="10.667" d="M82.34666666666666 104.64A26.666666666666664 26.666666666666664 0 0 1 75.73333333333332 74.66666666666666l2.3466666666666667 -5.546666666666667a2.7733333333333334 2.7733333333333334 0 0 0 -0.8533333333333333 -3.3066666666666666A27.626666666666665 27.626666666666665 0 0 1 64 42.666666666666664l-5.973333333333334 -15.466666666666665a10.666666666666666 10.666666666666666 0 0 0 -19.733333333333334 0l-9.28 23.786666666666665a2.6666666666666665 2.6666666666666665 0 0 1 -2.453333333333333 1.7066666666666666H10.666666666666666a10.666666666666666 10.666666666666666 0 0 0 -9.92 6.506666666666666 10.666666666666666 10.666666666666666 0 0 0 3.1999999999999997 12.373333333333331l13.226666666666667 9.173333333333332a2.5599999999999996 2.5599999999999996 0 0 1 0.8533333333333333 3.1999999999999997L10.666666666666666 101.54666666666665a10.666666666666666 10.666666666666666 0 0 0 2.6666666666666665 12.266666666666666 10.666666666666666 10.666666666666666 0 0 0 12.799999999999999 1.4933333333333334l20.799999999999997 -11.733333333333334a2.453333333333333 2.453333333333333 0 0 1 2.6666666666666665 0l21.333333333333332 11.733333333333334a11.52 11.52 0 0 0 5.546666666666667 1.3866666666666667 10.666666666666666 10.666666666666666 0 0 0 7.253333333333334 -2.88 9.6 9.6 0 0 0 1.5999999999999999 -3.84 2.5599999999999996 2.5599999999999996 0 0 0 0 -3.3066666666666666 16.96 16.96 0 0 1 -2.986666666666667 -2.0266666666666664Z"/><path fill="#fff" stroke-width="10.667" d="M157.97333333333333 62.93333333333334a2.6666666666666665 2.6666666666666665 0 0 1 0.96 -3.3066666666666666l13.866666666666667 -9.706666666666667a10.666666666666666 10.666666666666666 0 0 0 2.453333333333333 -11.733333333333334A10.666666666666666 10.666666666666666 0 0 0 165.33333333333331 32H149.33333333333331a2.6666666666666665 2.6666666666666665 0 0 1 -2.5599999999999996 -1.7066666666666666L138.02666666666664 6.186666666666666A10.666666666666666 10.666666666666666 0 0 0 128 0a10.666666666666666 10.666666666666666 0 0 0 -10.133333333333333 6.186666666666666l-8.959999999999999 23.786666666666665A2.6666666666666665 2.6666666666666665 0 0 1 106.66666666666666 32H90.66666666666666a10.666666666666666 10.666666666666666 0 0 0 -9.92 6.506666666666666 10.666666666666666 10.666666666666666 0 0 0 3.1999999999999997 12.373333333333331l13.12 9.066666666666666a2.6666666666666665 2.6666666666666665 0 0 1 0.96 3.3066666666666666l-7.68 17.173333333333332A10.666666666666666 10.666666666666666 0 0 0 100.37333333333333 96a10.666666666666666 10.666666666666666 0 0 0 5.4399999999999995 -1.3866666666666667l21.333333333333332 -11.84a2.7733333333333334 2.7733333333333334 0 0 1 2.5599999999999996 0l21.333333333333332 11.84a10.666666666666666 10.666666666666666 0 0 0 5.4399999999999995 1.3866666666666667 10.666666666666666 10.666666666666666 0 0 0 7.359999999999999 -2.88 10.666666666666666 10.666666666666666 0 0 0 2.6666666666666665 -12.373333333333331Z"/><path fill="#fff" stroke-width="10.667" d="M180.58666666666664 172.69333333333333a48.213333333333324 48.213333333333324 0 0 0 -96 0c0 19.626666666666665 -4.586666666666666 26.453333333333333 -8.106666666666666 29.973333333333333a10.666666666666666 10.666666666666666 0 1 0 14.933333333333332 15.146666666666665 39.78666666666666 39.78666666666666 0 0 0 6.186666666666666 -7.786666666666666 2.6666666666666665 2.6666666666666665 0 0 1 1.92 -1.1733333333333333 3.093333333333333 3.093333333333333 0 0 1 2.1333333333333333 0.5333333333333333 42.666666666666664 42.666666666666664 0 0 0 8.106666666666666 5.653333333333333 2.5599999999999996 2.5599999999999996 0 0 1 1.3866666666666667 2.5599999999999996 2.453333333333333 2.453333333333333 0 0 1 -1.5999999999999999 2.2399999999999998 63.14666666666666 63.14666666666666 0 0 0 -32 28.266666666666666 5.119999999999999 5.119999999999999 0 0 0 0 5.226666666666667 5.119999999999999 5.119999999999999 0 0 0 4.586666666666666 2.6666666666666665h101.12a5.119999999999999 5.119999999999999 0 0 0 4.586666666666666 -2.6666666666666665 5.119999999999999 5.119999999999999 0 0 0 0 -5.226666666666667 63.14666666666666 63.14666666666666 0 0 0 -32 -28.266666666666666 2.453333333333333 2.453333333333333 0 0 1 -1.5999999999999999 -2.2399999999999998 2.5599999999999996 2.5599999999999996 0 0 1 1.3866666666666667 -2.5599999999999996 47.89333333333333 47.89333333333333 0 0 0 8.106666666666666 -5.653333333333333 3.093333333333333 3.093333333333333 0 0 1 2.1333333333333333 -0.5333333333333333 2.6666666666666665 2.6666666666666665 0 0 1 1.92 1.1733333333333333 39.78666666666666 39.78666666666666 0 0 0 6.186666666666666 7.786666666666666 10.666666666666666 10.666666666666666 0 0 0 7.466666666666666 3.093333333333333 10.666666666666666 10.666666666666666 0 0 0 7.573333333333332 -3.1999999999999997 10.666666666666666 10.666666666666666 0 0 0 0 -15.04c-3.84 -3.52 -8.426666666666666 -10.666666666666666 -8.426666666666666 -29.973333333333333Zm-48.213333333333324 26.88a26.88 26.88 0 0 1 -26.453333333333333 -22.4 2.7733333333333334 2.7733333333333334 0 0 1 2.1333333333333333 -3.093333333333333 43.519999999999996 43.519999999999996 0 0 0 10.666666666666666 -3.3066666666666666 28.479999999999997 28.479999999999997 0 0 0 11.413333333333334 -9.6 3.3066666666666666 3.3066666666666666 0 0 1 2.1333333333333333 -1.1733333333333333 2.453333333333333 2.453333333333333 0 0 1 2.1333333333333333 1.0666666666666667 50.879999999999995 50.879999999999995 0 0 0 10.666666666666666 9.706666666666667 34.45333333333333 34.45333333333333 0 0 0 10.666666666666666 4.906666666666666 2.6666666666666665 2.6666666666666665 0 0 1 2.0266666666666664 3.1999999999999997 26.88 26.88 0 0 1 -25.386666666666663 20.69333333333333Z"/></g></svg>