<svg xmlns="http://www.w3.org/2000/svg" viewBox="0 0 256 256" id="Human-Resources-Search-Employees--Streamline-Ultimate" height="256" width="256">
  <desc>
    Human Resources Search Employees Streamline Icon: https://streamlinehq.com
  </desc>
  <g id="Human-Resources-Search-Employees--Streamline-Ultimate.svg">
    <path d="M221.01333333333332 137.38666666666666a2.5599999999999996 2.5599999999999996 0 0 0 -0.8533333333333333 -2.1333333333333333L213.33333333333331 128a2.7733333333333334 2.7733333333333334 0 0 0 -2.986666666666667 0 73.81333333333333 73.81333333333333 0 0 1 -28.8 5.76 72.74666666666667 72.74666666666667 0 0 1 -23.253333333333334 -3.733333333333333 2.6666666666666665 2.6666666666666665 0 0 0 -3.3066666666666666 1.4933333333333334 78.93333333333334 78.93333333333334 0 0 1 -10.666666666666666 17.493333333333332 2.986666666666667 2.986666666666667 0 0 0 0 2.3466666666666667 64 64 0 0 0 2.6666666666666665 7.68 2.6666666666666665 2.6666666666666665 0 0 0 1.4933333333333334 1.3866666666666667c26.026666666666664 9.6 59.84 25.493333333333332 59.84 74.66666666666666v16a17.28 17.28 0 0 1 0 2.3466666666666667 2.6666666666666665 2.6666666666666665 0 0 0 0.6399999999999999 2.1333333333333333 2.88 2.88 0 0 0 2.0266666666666664 0.8533333333333333h39.68a5.333333333333333 5.333333333333333 0 0 0 5.333333333333333 -5.333333333333333v-9.066666666666666c0 -33.06666666666666 -23.04 -41.28 -43.413333333333334 -48.53333333333333l-5.226666666666667 -1.92a2.6666666666666665 2.6666666666666665 0 0 1 -1.4933333333333334 -1.3866666666666667 11.84 11.84 0 0 1 -0.7466666666666667 -2.1333333333333333 30.506666666666664 30.506666666666664 0 0 1 0 -13.226666666666667 58.239999999999995 58.239999999999995 0 0 0 15.893333333333333 -37.44Z" fill="#ffffff" stroke-width="10.6667"></path>
    <path d="M106.66666666666666 58.666666666666664a74.66666666666666 74.66666666666666 0 0 1 3.3066666666666666 -21.973333333333333 2.88 2.88 0 0 0 0 -2.1333333333333333 3.1999999999999997 3.1999999999999997 0 0 0 -1.8133333333333335 -1.2799999999999998A55.36 55.36 0 0 0 96 32C70.72 32 45.33333333333333 48.63999999999999 45.33333333333333 85.33333333333333c0 44.373333333333335 18.026666666666664 55.04 20.159999999999997 59.519999999999996a36.586666666666666 36.586666666666666 0 0 1 0.6399999999999999 20.37333333333333c-0.7466666666666667 2.7733333333333334 -1.8133333333333335 3.9466666666666663 -2.5599999999999996 4.266666666666667l-8.106666666666666 2.88C29.439999999999998 181.9733333333333 0 192 0 234.66666666666666v16a5.333333333333333 5.333333333333333 0 0 0 5.333333333333333 5.333333333333333h181.33333333333331a5.333333333333333 5.333333333333333 0 0 0 5.333333333333333 -5.333333333333333V234.66666666666666c0 -42.13333333333333 -29.546666666666667 -52.58666666666666 -55.67999999999999 -61.97333333333333l-8.32 -2.7733333333333334c-0.7466666666666667 0 -1.8133333333333335 -1.4933333333333334 -2.5599999999999996 -4.266666666666667a37.86666666666666 37.86666666666666 0 0 1 0 -20.37333333333333 74.66666666666666 74.66666666666666 0 0 0 14.186666666666667 -21.333333333333332 2.88 2.88 0 0 0 -0.96 -3.3066666666666666 74.66666666666666 74.66666666666666 0 0 1 -32 -61.97333333333333Z" fill="#ffffff" stroke-width="10.6667"></path>
    <path d="M213.33333333333331 108.16a2.7733333333333334 2.7733333333333334 0 0 1 3.3066666666666666 0l21.333333333333332 21.333333333333332a10.666666666666666 10.666666666666666 0 0 0 15.146666666666665 0 10.666666666666666 10.666666666666666 0 0 0 0 -15.146666666666665l-21.333333333333332 -21.333333333333332a2.7733333333333334 2.7733333333333334 0 0 1 0 -3.3066666666666666A58.666666666666664 58.666666666666664 0 1 0 213.33333333333331 108.16ZM144 58.666666666666664A37.33333333333333 37.33333333333333 0 1 1 181.33333333333331 96a37.33333333333333 37.33333333333333 0 0 1 -37.33333333333333 -37.33333333333333Z" fill="#ffffff" stroke-width="10.6667"></path>
  </g>
</svg>