<svg xmlns="http://www.w3.org/2000/svg" viewBox="0 0 256 256" id="Human-Resources-Businessman--Streamline-Ultimate" height="256" width="256">
  <desc>
    Human Resources Businessman Streamline Icon: https://streamlinehq.com
  </desc>
  <g id="Human-Resources-Businessman--Streamline-Ultimate.svg">
    <path d="M205.54666666666665 204.69333333333333a2.6666666666666665 2.6666666666666665 0 0 0 -2.6666666666666665 2.6666666666666665v8a8 8 0 0 1 -16 0v-8a2.6666666666666665 2.6666666666666665 0 0 0 -2.6666666666666665 -2.6666666666666665H138.66666666666666a2.6666666666666665 2.6666666666666665 0 0 0 -2.6666666666666665 2.6666666666666665v24a16.106666666666666 16.106666666666666 0 0 0 16 16h85.33333333333333a16 16 0 0 0 16 -16v-24a2.6666666666666665 2.6666666666666665 0 0 0 -2.6666666666666665 -2.6666666666666665Z" fill="#ffffff" stroke-width="10.6667"></path>
    <path d="M250.88 194.02666666666667a2.6666666666666665 2.6666666666666665 0 0 0 2.6666666666666665 -2.6666666666666665v-24a16 16 0 0 0 -16 -16H234.66666666666666a2.6666666666666665 2.6666666666666665 0 0 1 -2.5599999999999996 -2.2399999999999998 12.053333333333331 12.053333333333331 0 0 0 -0.8533333333333333 -2.5599999999999996l-5.333333333333333 -10.666666666666666a26.666666666666664 26.666666666666664 0 0 0 -25.599999999999998 -16.53333333333333h-10.666666666666666a26.453333333333333 26.453333333333333 0 0 0 -25.493333333333332 16.53333333333333l-5.333333333333333 10.666666666666666a12.053333333333331 12.053333333333331 0 0 0 -0.8533333333333333 2.5599999999999996 2.6666666666666665 2.6666666666666665 0 0 1 -2.5599999999999996 2.2399999999999998h-3.093333333333333a16 16 0 0 0 -16 16v24a2.6666666666666665 2.6666666666666665 0 0 0 2.6666666666666665 2.6666666666666665Zm-67.73333333333332 -48.53333333333333c2.3466666666666667 -4.8 3.52 -4.8 6.3999999999999995 -4.8h10.666666666666666c2.88 0 4.16 0 6.506666666666666 4.8l1.0666666666666667 2.0266666666666664a2.7733333333333334 2.7733333333333334 0 0 1 0 2.5599999999999996 2.5599999999999996 2.5599999999999996 0 0 1 -2.2399999999999998 1.2799999999999998H184.53333333333333a2.88 2.88 0 0 1 -2.3466666666666667 -1.2799999999999998 2.7733333333333334 2.7733333333333334 0 0 1 0 -2.5599999999999996Z" fill="#ffffff" stroke-width="10.6667"></path>
    <path d="M77.75999999999999 92.26666666666667a2.6666666666666665 2.6666666666666665 0 0 1 0 -4.586666666666666 43.413333333333334 43.413333333333334 0 1 0 -66.13333333333333 -36.906666666666666 42.666666666666664 42.666666666666664 0 0 0 19.413333333333334 36.05333333333333 2.7733333333333334 2.7733333333333334 0 0 1 0.96 2.453333333333333 2.5599999999999996 2.5599999999999996 0 0 1 -1.4933333333333334 2.2399999999999998 50.666666666666664 50.666666666666664 0 0 0 -28.05333333333333 45.44v30.4a5.333333333333333 5.333333333333333 0 0 0 1.4933333333333334 3.3066666666666666 5.226666666666667 5.226666666666667 0 0 0 3.84 1.5999999999999999h15.466666666666665a2.6666666666666665 2.6666666666666665 0 0 1 2.6666666666666665 2.3466666666666667l6.933333333333334 68.8a5.226666666666667 5.226666666666667 0 0 0 5.333333333333333 4.8h30.29333333333333a5.226666666666667 5.226666666666667 0 0 0 5.333333333333333 -4.8l6.933333333333334 -68.8a2.6666666666666665 2.6666666666666665 0 0 1 2.6666666666666665 -2.3466666666666667h15.466666666666665a5.226666666666667 5.226666666666667 0 0 0 3.84 -1.5999999999999999 5.333333333333333 5.333333333333333 0 0 0 1.4933333333333334 -3.733333333333333v-29.973333333333333a51.093333333333334 51.093333333333334 0 0 0 -26.453333333333333 -44.693333333333335ZM61.33333333333333 128a8 8 0 1 1 -16 0v-17.706666666666663a8 8 0 0 1 16 0ZM33.81333333333333 44.373333333333335A2.453333333333333 2.453333333333333 0 0 1 35.41333333333333 42.666666666666664a2.6666666666666665 2.6666666666666665 0 0 1 2.3466666666666667 0 54.72 54.72 0 0 0 28.16 7.786666666666666 62.50666666666667 62.50666666666667 0 0 0 10.026666666666666 -0.8533333333333333 0.8533333333333333 0.8533333333333333 0 0 1 0.7466666666666667 0 1.3866666666666667 1.3866666666666667 0 0 1 0 0.7466666666666667 22.186666666666667 22.186666666666667 0 1 1 -44.266666666666666 0 21.333333333333332 21.333333333333332 0 0 1 1.3866666666666667 -5.973333333333334Z" fill="#ffffff" stroke-width="10.6667"></path>
  </g>
</svg>