<svg xmlns="http://www.w3.org/2000/svg" viewBox="0 0 256 256" id="Human-Resources-Network--Streamline-Ultimate" height="256" width="256">
  <desc>
    Human Resources Network Streamline Icon: https://streamlinehq.com
  </desc>
  <g id="Human-Resources-Network--Streamline-Ultimate.svg">
    <path d="M124.90666666666667 169.6a10.666666666666666 10.666666666666666 0 0 0 0 -21.333333333333332H89.06666666666666a2.6666666666666665 2.6666666666666665 0 0 1 -2.5599999999999996 -1.7066666666666666 135.35999999999999 135.35999999999999 0 0 1 -6.826666666666666 -26.986666666666665 2.7733333333333334 2.7733333333333334 0 0 1 0 -2.1333333333333333 2.6666666666666665 2.6666666666666665 0 0 1 2.0266666666666664 -0.96h48a10.666666666666666 10.666666666666666 0 0 0 0 -21.333333333333332H81.28a2.453333333333333 2.453333333333333 0 0 1 -1.92 -0.8533333333333333 2.453333333333333 2.453333333333333 0 0 1 -0.7466666666666667 -2.0266666666666664 113.91999999999999 113.91999999999999 0 0 1 5.546666666666667 -27.306666666666665A2.3466666666666667 2.3466666666666667 0 0 1 86.39999999999999 64h45.120000000000005a2.6666666666666665 2.6666666666666665 0 0 1 2.5599999999999996 1.8133333333333335 115.62666666666667 115.62666666666667 0 0 1 4.906666666666666 21.333333333333332 10.666666666666666 10.666666666666666 0 0 0 10.666666666666666 9.173333333333332h1.3866666666666667A10.666666666666666 10.666666666666666 0 0 0 160 83.41333333333333a141.6533333333333 141.6533333333333 0 0 0 -3.3066666666666666 -16.53333333333333 2.6666666666666665 2.6666666666666665 0 0 1 2.5599999999999996 -2.88h21.333333333333332a2.6666666666666665 2.6666666666666665 0 0 1 2.3466666666666667 1.3866666666666667 76.37333333333333 76.37333333333333 0 0 1 7.466666666666666 17.386666666666663 10.666666666666666 10.666666666666666 0 0 0 13.12 7.359999999999999 10.666666666666666 10.666666666666666 0 0 0 7.253333333333334 -13.12A106.02666666666666 106.02666666666666 0 0 0 109.65333333333332 0c-74.66666666666666 0 -106.66666666666666 53.33333333333333 -106.66666666666666 106.66666666666666a101.97333333333333 101.97333333333333 0 0 0 105.70666666666666 105.27999999999999 10.666666666666666 10.666666666666666 0 0 0 10.666666666666666 -10.666666666666666 10.666666666666666 10.666666666666666 0 0 0 -7.786666666666666 -10.026666666666666 2.1333333333333333 2.1333333333333333 0 0 1 -1.3866666666666667 -0.96 195.83999999999997 195.83999999999997 0 0 1 -10.666666666666666 -16.85333333333333 2.986666666666667 2.986666666666667 0 0 1 0 -2.6666666666666665 2.7733333333333334 2.7733333333333334 0 0 1 2.3466666666666667 -1.2799999999999998ZM64 144.95999999999998a2.6666666666666665 2.6666666666666665 0 0 1 0 2.3466666666666667 2.7733333333333334 2.7733333333333334 0 0 1 -2.1333333333333333 1.0666666666666667H37.76a2.453333333333333 2.453333333333333 0 0 1 -2.2399999999999998 -1.3866666666666667 87.89333333333333 87.89333333333333 0 0 1 -9.813333333333333 -27.306666666666665 2.6666666666666665 2.6666666666666665 0 0 1 0.6399999999999999 -2.1333333333333333 2.3466666666666667 2.3466666666666667 0 0 1 2.0266666666666664 -0.96h27.306666666666665a2.5599999999999996 2.5599999999999996 0 0 1 2.5599999999999996 2.3466666666666667A153.70666666666665 153.70666666666665 0 0 0 64 144.95999999999998Zm-6.3999999999999995 -52.05333333333333a2.6666666666666665 2.6666666666666665 0 0 1 -2.6666666666666665 2.453333333333333H27.626666666666665a2.88 2.88 0 0 1 -2.0266666666666664 -0.8533333333333333 2.6666666666666665 2.6666666666666665 0 0 1 -0.6399999999999999 -2.1333333333333333 81.91999999999999 81.91999999999999 0 0 1 8.853333333333332 -27.41333333333333 2.6666666666666665 2.6666666666666665 0 0 1 2.3466666666666667 -0.96h22.826666666666668a2.5599999999999996 2.5599999999999996 0 0 1 2.0266666666666664 1.0666666666666667 2.453333333333333 2.453333333333333 0 0 1 0 2.2399999999999998 133.54666666666665 133.54666666666665 0 0 0 -3.52 25.599999999999998ZM59.199999999999996 42.666666666666664a2.6666666666666665 2.6666666666666665 0 0 1 -2.453333333333333 -1.8133333333333335 2.5599999999999996 2.5599999999999996 0 0 1 0.96 -2.986666666666667 87.78666666666666 87.78666666666666 0 0 1 14.4 -8.426666666666666 2.7733333333333334 2.7733333333333334 0 0 1 3.093333333333333 0.6399999999999999 2.7733333333333334 2.7733333333333334 0 0 1 0 3.093333333333333q-2.2399999999999998 4.053333333333333 -4.16 8a2.5599999999999996 2.5599999999999996 0 0 1 -2.1333333333333333 1.4933333333333334Zm40.10666666666666 0a2.6666666666666665 2.6666666666666665 0 0 1 -2.2399999999999998 -4.053333333333333A149.33333333333331 149.33333333333331 0 0 1 106.66666666666666 24.53333333333333a2.6666666666666665 2.6666666666666665 0 0 1 2.1333333333333333 -0.96 2.6666666666666665 2.6666666666666665 0 0 1 2.0266666666666664 0.96 132.69333333333333 132.69333333333333 0 0 1 10.026666666666666 13.76 2.453333333333333 2.453333333333333 0 0 1 0 2.6666666666666665 2.6666666666666665 2.6666666666666665 0 0 1 -2.3466666666666667 1.3866666666666667Zm43.946666666666665 -8.426666666666666a2.7733333333333334 2.7733333333333334 0 0 1 0 -3.1999999999999997 2.5599999999999996 2.5599999999999996 0 0 1 3.093333333333333 0 86.61333333333332 86.61333333333332 0 0 1 12.053333333333331 7.359999999999999 2.6666666666666665 2.6666666666666665 0 0 1 -1.5999999999999999 4.8H149.33333333333331a2.5599999999999996 2.5599999999999996 0 0 1 -2.3466666666666667 -1.4933333333333334c-1.1733333333333333 -3.1999999999999997 -2.453333333333333 -5.4399999999999995 -3.733333333333333 -7.786666666666666ZM78.61333333333333 179.83999999999997a2.5599999999999996 2.5599999999999996 0 0 1 0 3.093333333333333 2.453333333333333 2.453333333333333 0 0 1 -2.986666666666667 0.6399999999999999 79.36 79.36 0 0 1 -15.68 -9.173333333333332 2.5599999999999996 2.5599999999999996 0 0 1 -0.96 -2.986666666666667 2.6666666666666665 2.6666666666666665 0 0 1 2.5599999999999996 -1.8133333333333335h10.666666666666666a2.5599999999999996 2.5599999999999996 0 0 1 2.3466666666666667 1.4933333333333334c0.96 2.88 2.453333333333333 5.866666666666667 4.053333333333333 8.746666666666666Z" fill="#ffffff" stroke-width="10.6667"></path>
    <path d="M218.55999999999997 195.62666666666667a2.7733333333333334 2.7733333333333334 0 0 1 0 -4.586666666666666 47.04 47.04 0 1 0 -54.18666666666667 0 2.6666666666666665 2.6666666666666665 0 0 1 0 4.586666666666666 61.33333333333333 61.33333333333333 0 0 0 -33.49333333333333 54.61333333333333 5.226666666666667 5.226666666666667 0 0 0 5.226666666666667 5.333333333333333h111.57333333333334a5.333333333333333 5.333333333333333 0 0 0 5.333333333333333 -5.333333333333333 61.44 61.44 0 0 0 -34.45333333333333 -54.61333333333333Zm-32.64 37.54666666666667v-15.893333333333333a7.893333333333333 7.893333333333333 0 0 1 7.893333333333333 -7.893333333333333 8 8 0 0 1 8 7.893333333333333v15.893333333333333a8.106666666666666 8.106666666666666 0 0 1 -8 8 8 8 0 0 1 -7.893333333333333 -8Zm-19.52 -88.42666666666665a2.7733333333333334 2.7733333333333334 0 0 1 1.7066666666666666 -1.5999999999999999 2.7733333333333334 2.7733333333333334 0 0 1 2.2399999999999998 0 61.01333333333333 61.01333333333333 0 0 0 32.64 9.6 65.28 65.28 0 0 0 12.159999999999998 -1.2799999999999998 1.2799999999999998 1.2799999999999998 0 0 1 1.0666666666666667 0 1.4933333333333334 1.4933333333333334 0 0 1 0.5333333333333333 1.0666666666666667 25.92 25.92 0 0 1 -51.73333333333333 0 27.199999999999996 27.199999999999996 0 0 1 1.3866666666666667 -7.786666666666666Z" fill="#ffffff" stroke-width="10.6667"></path>
  </g>
</svg>