<svg xmlns="http://www.w3.org/2000/svg" fill="none" viewBox="0 0 256 256" id="Hydrogen--Streamline-Ultimate" height="256" width="256">
  <desc>
    Hydrogen Streamline Icon: https://streamlinehq.com
  </desc>
  <path fill="#ffffff" fill-rule="evenodd" d="M18.666666666666664 0A18.666666666666664 18.666666666666664 0 0 0 0 18.666666666666664v218.66666666666666C0 247.63733333333334 8.362666666666666 256 18.666666666666664 256h218.66666666666666A18.666666666666664 18.666666666666664 0 0 0 256 237.33333333333331V18.666666666666664A18.666666666666664 18.666666666666664 0 0 0 237.33333333333331 0H18.666666666666664Zm48 202.66666666666666a8 8 0 0 1 8 -8h106.66666666666666a8 8 0 0 1 0 16H74.66666666666666a8 8 0 0 1 -8 -8ZM112 80a8 8 0 0 0 -16 0v96a8 8 0 0 0 16 0v-44h32V176a8 8 0 0 0 16 0v-96a8 8 0 0 0 -16 0v36h-32V80Z" clip-rule="evenodd" stroke-width="10.6667"></path>
</svg>