<svg xmlns="http://www.w3.org/2000/svg" id="Ice-Water--Streamline-Ultimate" width="256" height="256" viewBox="0 0 256 256"><desc>Ice Water Streamline Icon: https://streamlinehq.com</desc><g id="Ice-Water--Streamline-Ultimate.svg"><path fill="#fff" stroke-width="10.667" d="M0 197.33333333333331a10.666666666666666 10.666666666666666 0 0 0 10.666666666666666 10.666666666666666 49.28 49.28 0 0 0 34.986666666666665 -13.866666666666667 2.6666666666666665 2.6666666666666665 0 0 1 3.52 0 60.48 60.48 0 0 0 37.97333333333333 13.866666666666667 61.33333333333333 61.33333333333333 0 0 0 39.14666666666666 -15.04 2.5599999999999996 2.5599999999999996 0 0 1 3.413333333333333 0 61.33333333333333 61.33333333333333 0 0 0 39.14666666666666 15.04 60.48 60.48 0 0 0 37.97333333333333 -14.08 2.6666666666666665 2.6666666666666665 0 0 1 3.52 0A49.28 49.28 0 0 0 245.33333333333331 208a10.666666666666666 10.666666666666666 0 0 0 0 -21.333333333333332 29.546666666666667 29.546666666666667 0 0 1 -25.92 -15.253333333333332 10.666666666666666 10.666666666666666 0 0 0 -8.64 -5.973333333333334 10.666666666666666 10.666666666666666 0 0 0 -9.6 4.266666666666667 44.48 44.48 0 0 1 -32 16.96 44.373333333333335 44.373333333333335 0 0 1 -32 -16.96 10.666666666666666 10.666666666666666 0 0 0 -9.173333333333332 -4.373333333333333 10.666666666666666 10.666666666666666 0 0 0 -8.64 4.373333333333333 44.373333333333335 44.373333333333335 0 0 1 -32 16.96 44.48 44.48 0 0 1 -32 -16.96 10.666666666666666 10.666666666666666 0 0 0 -18.24 1.7066666666666666A29.226666666666667 29.226666666666667 0 0 1 10.666666666666666 186.66666666666666a10.666666666666666 10.666666666666666 0 0 0 -10.666666666666666 10.666666666666666Z"/><path fill="#fff" stroke-width="10.667" d="M245.33333333333331 234.66666666666666a29.546666666666667 29.546666666666667 0 0 1 -25.92 -15.253333333333332 10.666666666666666 10.666666666666666 0 0 0 -8.64 -5.973333333333334 10.666666666666666 10.666666666666666 0 0 0 -9.6 4.266666666666667 44.48 44.48 0 0 1 -32 16.96 44.373333333333335 44.373333333333335 0 0 1 -32 -16.96A10.666666666666666 10.666666666666666 0 0 0 128 213.33333333333331a10.666666666666666 10.666666666666666 0 0 0 -8.64 4.373333333333333 44.373333333333335 44.373333333333335 0 0 1 -32 16.96 44.48 44.48 0 0 1 -32 -16.96 10.666666666666666 10.666666666666666 0 0 0 -18.24 1.7066666666666666A29.226666666666667 29.226666666666667 0 0 1 10.666666666666666 234.66666666666666a10.666666666666666 10.666666666666666 0 0 0 0 21.333333333333332 49.28 49.28 0 0 0 34.986666666666665 -13.866666666666667 2.6666666666666665 2.6666666666666665 0 0 1 3.52 0A60.48 60.48 0 0 0 87.14666666666666 256a61.33333333333333 61.33333333333333 0 0 0 39.14666666666666 -15.04 2.5599999999999996 2.5599999999999996 0 0 1 3.413333333333333 0A61.33333333333333 61.33333333333333 0 0 0 168.85333333333332 256a60.48 60.48 0 0 0 37.97333333333333 -14.08 2.6666666666666665 2.6666666666666665 0 0 1 3.52 0A49.28 49.28 0 0 0 245.33333333333331 256a10.666666666666666 10.666666666666666 0 0 0 0 -21.333333333333332Z"/><path fill="#fff" stroke-width="10.667" d="M60.906666666666666 70.82666666666665a12.266666666666666 12.266666666666666 0 0 0 2.7733333333333334 0l20.159999999999997 -5.76a2.3466666666666667 2.3466666666666667 0 0 1 2.0266666666666664 0l16.746666666666666 9.6a2.6666666666666665 2.6666666666666665 0 0 1 0 4.693333333333333l-16.746666666666666 9.6a2.3466666666666667 2.3466666666666667 0 0 1 -2.0266666666666664 0L64 84.16a10.666666666666666 10.666666666666666 0 0 0 -5.546666666666667 20.69333333333333l12.693333333333332 3.3066666666666666a2.6666666666666665 2.6666666666666665 0 0 1 1.8133333333333335 3.3066666666666666l-3.626666666666667 12.586666666666666a10.666666666666666 10.666666666666666 0 0 0 7.466666666666666 13.12l2.7733333333333334 0a10.666666666666666 10.666666666666666 0 0 0 10.666666666666666 -7.893333333333333l5.333333333333333 -20.159999999999997a2.7733333333333334 2.7733333333333334 0 0 1 1.2799999999999998 -1.5999999999999999l16.85333333333333 -9.706666666666667a2.453333333333333 2.453333333333333 0 0 1 2.6666666666666665 0 2.7733333333333334 2.7733333333333334 0 0 1 1.2799999999999998 2.3466666666666667v19.306666666666665a3.093333333333333 3.093333333333333 0 0 1 -0.7466666666666667 1.92l-15.146666666666665 15.04A10.666666666666666 10.666666666666666 0 0 0 117.33333333333333 151.57333333333332l9.173333333333332 -9.28a2.6666666666666665 2.6666666666666665 0 0 1 3.84 0l9.173333333333332 9.28a10.666666666666666 10.666666666666666 0 0 0 15.146666666666665 0 10.666666666666666 10.666666666666666 0 0 0 0 -15.146666666666665l-14.826666666666664 -14.719999999999999a3.093333333333333 3.093333333333333 0 0 1 -0.7466666666666667 -1.92V100.47999999999999a2.7733333333333334 2.7733333333333334 0 0 1 1.2799999999999998 -2.3466666666666667 2.453333333333333 2.453333333333333 0 0 1 2.6666666666666665 0l16.85333333333333 9.706666666666667a2.7733333333333334 2.7733333333333334 0 0 1 1.2799999999999998 1.5999999999999999l5.333333333333333 20.159999999999997a10.666666666666666 10.666666666666666 0 0 0 10.666666666666666 7.893333333333333l2.7733333333333334 0a10.666666666666666 10.666666666666666 0 0 0 7.466666666666666 -13.12l-3.3066666666666666 -12.586666666666666a2.6666666666666665 2.6666666666666665 0 0 1 1.8133333333333335 -3.3066666666666666l12.693333333333332 -3.3066666666666666A10.666666666666666 10.666666666666666 0 0 0 192 84.16l-20.159999999999997 5.4399999999999995a2.3466666666666667 2.3466666666666667 0 0 1 -2.0266666666666664 0l-16.746666666666666 -9.6a2.6666666666666665 2.6666666666666665 0 0 1 0 -4.693333333333333L170.66666666666666 65.38666666666666a2.3466666666666667 2.3466666666666667 0 0 1 2.0266666666666664 0l19.306666666666665 5.119999999999999a12.266666666666666 12.266666666666666 0 0 0 2.7733333333333334 0 10.666666666666666 10.666666666666666 0 0 0 10.666666666666666 -7.893333333333333 10.666666666666666 10.666666666666666 0 0 0 -7.466666666666666 -13.12l-12.693333333333332 -3.3066666666666666a2.6666666666666665 2.6666666666666665 0 0 1 -1.8133333333333335 -3.3066666666666666l3.3066666666666666 -12.586666666666666a10.666666666666666 10.666666666666666 0 0 0 -7.466666666666666 -13.12 10.666666666666666 10.666666666666666 0 0 0 -13.12 7.573333333333332l-5.333333333333333 20.159999999999997a2.7733333333333334 2.7733333333333334 0 0 1 -1.2799999999999998 1.5999999999999999l-16.85333333333333 9.706666666666667a2.453333333333333 2.453333333333333 0 0 1 -2.6666666666666665 0 2.7733333333333334 2.7733333333333334 0 0 1 -1.3866666666666667 -2.0266666666666664V34.879999999999995a3.093333333333333 3.093333333333333 0 0 1 0.7466666666666667 -1.92l14.826666666666664 -14.719999999999999A10.666666666666666 10.666666666666666 0 1 0 138.66666666666666 3.093333333333333l-9.173333333333332 9.28a2.6666666666666665 2.6666666666666665 0 0 1 -3.84 0L117.33333333333333 3.093333333333333a10.666666666666666 10.666666666666666 0 0 0 -15.573333333333332 15.146666666666665l14.826666666666664 14.719999999999999a3.093333333333333 3.093333333333333 0 0 1 0.7466666666666667 1.92v19.306666666666665a2.7733333333333334 2.7733333333333334 0 0 1 -1.2799999999999998 2.3466666666666667 2.453333333333333 2.453333333333333 0 0 1 -2.6666666666666665 0l-16.85333333333333 -9.706666666666667a2.7733333333333334 2.7733333333333334 0 0 1 -1.2799999999999998 -1.5999999999999999l-5.333333333333333 -20.159999999999997a10.666666666666666 10.666666666666666 0 0 0 -13.12 -7.573333333333332 10.666666666666666 10.666666666666666 0 0 0 -7.466666666666666 13.12l3.3066666666666666 12.586666666666666a2.6666666666666665 2.6666666666666665 0 0 1 -1.8133333333333335 3.3066666666666666l-12.693333333333332 3.3066666666666666a10.666666666666666 10.666666666666666 0 0 0 -7.466666666666666 13.12 10.666666666666666 10.666666666666666 0 0 0 10.239999999999998 7.893333333333333Z"/></g></svg>