<svg xmlns="http://www.w3.org/2000/svg" viewBox="0 0 256 256" id="Ice-Cream-Cone--Streamline-Ultimate" height="256" width="256">
  <desc>
    Ice Cream Cone Streamline Icon: https://streamlinehq.com
  </desc>
  <g id="Ice-Cream-Cone--Streamline-Ultimate.svg">
    <path d="M175.78666666666666 138.66666666666666a36.373333333333335 36.373333333333335 0 0 1 -12.159999999999998 -4.053333333333333 5.333333333333333 5.333333333333333 0 0 0 -6.613333333333333 1.2799999999999998 37.33333333333333 37.33333333333333 0 0 1 -58.02666666666667 0 5.333333333333333 5.333333333333333 0 0 0 -6.613333333333333 -1.2799999999999998 36.373333333333335 36.373333333333335 0 0 1 -12.159999999999998 4.053333333333333 2.7733333333333334 2.7733333333333334 0 0 0 -1.92 1.2799999999999998 2.6666666666666665 2.6666666666666665 0 0 0 0 2.3466666666666667l39.89333333333333 107.2a10.666666666666666 10.666666666666666 0 0 0 20.05333333333333 0l39.89333333333333 -106.66666666666666a2.6666666666666665 2.6666666666666665 0 0 0 0 -2.3466666666666667 2.7733333333333334 2.7733333333333334 0 0 0 -2.3466666666666667 -1.8133333333333335Z" fill="#ffffff" stroke-width="10.6667"></path>
    <path d="M128 0a74.66666666666666 74.66666666666666 0 0 0 -74.66666666666666 74.66666666666666v26.666666666666664a21.333333333333332 21.333333333333332 0 0 0 42.666666666666664 0 5.333333333333333 5.333333333333333 0 0 1 10.666666666666666 0v10.666666666666666a21.333333333333332 21.333333333333332 0 0 0 42.666666666666664 0v-10.666666666666666a5.333333333333333 5.333333333333333 0 0 1 10.666666666666666 0 21.333333333333332 21.333333333333332 0 0 0 42.666666666666664 0V74.66666666666666a74.66666666666666 74.66666666666666 0 0 0 -74.66666666666666 -74.66666666666666Z" fill="#ffffff" stroke-width="10.6667"></path>
  </g>
</svg>