<svg xmlns="http://www.w3.org/2000/svg" id="Idea-Strategy--Streamline-Ultimate" width="256" height="256" viewBox="0 0 256 256"><desc>Idea Strategy Streamline Icon: https://streamlinehq.com</desc><g id="Idea-Strategy--Streamline-Ultimate.svg"><path fill="#fff" stroke-width="10.667" d="M17.599999999999998 229.01333333333332a26.666666666666664 26.666666666666664 0 1 0 53.33333333333333 0 26.666666666666664 26.666666666666664 0 1 0 -53.33333333333333 0"/><path fill="#fff" stroke-width="10.667" d="M108.26666666666667 202.34666666666664h42.666666666666664s5.333333333333333 0 5.333333333333333 5.333333333333333v42.666666666666664s0 5.333333333333333 -5.333333333333333 5.333333333333333h-42.666666666666664s-5.333333333333333 0 -5.333333333333333 -5.333333333333333v-42.666666666666664s0 -5.333333333333333 5.333333333333333 -5.333333333333333"/><path fill="#fff" stroke-width="10.667" d="m237.76 247.89333333333332 -18.026666666666664 -36.05333333333333a5.226666666666667 5.226666666666667 0 0 0 -9.493333333333332 0L192 247.89333333333332a5.333333333333333 5.333333333333333 0 0 0 0 5.226666666666667 5.226666666666667 5.226666666666667 0 0 0 4.4799999999999995 2.5599999999999996h36.16a5.226666666666667 5.226666666666667 0 0 0 4.4799999999999995 -2.5599999999999996 5.333333333333333 5.333333333333333 0 0 0 0.6399999999999999 -5.226666666666667Z"/><path fill="#fff" stroke-width="10.667" d="M44.266666666666666 192a10.666666666666666 10.666666666666666 0 0 0 10.666666666666666 -10.666666666666666v-13.653333333333332a2.6666666666666665 2.6666666666666665 0 0 1 2.6666666666666665 -2.6666666666666665h58.666666666666664a2.6666666666666665 2.6666666666666665 0 0 1 2.6666666666666665 2.6666666666666665V181.33333333333331a10.666666666666666 10.666666666666666 0 0 0 21.333333333333332 0v-13.653333333333332a2.6666666666666665 2.6666666666666665 0 0 1 2.6666666666666665 -2.6666666666666665h58.666666666666664a2.6666666666666665 2.6666666666666665 0 0 1 2.6666666666666665 2.6666666666666665V181.33333333333331a10.666666666666666 10.666666666666666 0 0 0 21.333333333333332 0v-21.333333333333332a16 16 0 0 0 -16 -16h-160a16 16 0 0 0 -16 16v21.333333333333332a10.666666666666666 10.666666666666666 0 0 0 10.666666666666666 10.666666666666666Z"/><path fill="#fff" stroke-width="10.667" d="M101.97333333333333 80.32a2.6666666666666665 2.6666666666666665 0 0 1 0.96 2.1333333333333333v5.866666666666667a8 8 0 0 0 8 7.68h37.33333333333333a7.893333333333333 7.893333333333333 0 0 0 8 -8v-5.546666666666667a2.7733333333333334 2.7733333333333334 0 0 1 1.0666666666666667 -2.1333333333333333 44.05333333333333 44.05333333333333 0 0 0 17.599999999999998 -34.666666666666664A46.50666666666667 46.50666666666667 0 0 0 129.6 0 46.61333333333333 46.61333333333333 0 0 0 84.26666666666667 45.653333333333336a44.16 44.16 0 0 0 17.706666666666663 34.666666666666664Z"/><path fill="#fff" stroke-width="10.667" d="M128.74666666666667 135.46666666666664a8 8 0 0 0 8 -8v-1.8133333333333335a2.6666666666666665 2.6666666666666665 0 0 1 2.6666666666666665 -2.6666666666666665h3.52a8 8 0 0 0 0 -16h-26.666666666666664a8 8 0 0 0 0 16h1.8133333333333335a2.6666666666666665 2.6666666666666665 0 0 1 2.6666666666666665 2.6666666666666665V128a8.106666666666666 8.106666666666666 0 0 0 8 7.466666666666666Z"/></g></svg>