<svg xmlns="http://www.w3.org/2000/svg" id="Image-File-Eps--Streamline-Ultimate" width="256" height="256" viewBox="0 0 256 256"><desc>Image File Eps Streamline Icon: https://streamlinehq.com</desc><g id="Image-File-Eps--Streamline-Ultimate.svg"><path fill="#fff" stroke-width="10.667" d="M128 145.27999999999997h-6.613333333333333a2.7733333333333334 2.7733333333333334 0 0 0 -2.7733333333333334 2.7733333333333334v13.226666666666667a2.7733333333333334 2.7733333333333334 0 0 0 2.7733333333333334 2.7733333333333334H128a9.386666666666667 9.386666666666667 0 0 0 0 -18.773333333333333Z"/><path fill="#fff" stroke-width="10.667" d="M186.66666666666666 64h41.599999999999994a2.6666666666666665 2.6666666666666665 0 0 0 1.8133333333333335 -4.586666666666666L175.25333333333333 4.586666666666666A2.6666666666666665 2.6666666666666665 0 0 0 170.66666666666666 6.3999999999999995v41.599999999999994A16 16 0 0 0 186.66666666666666 64Z"/><path fill="#fff" stroke-width="10.667" d="M232 74.66666666666666H186.66666666666666A26.666666666666664 26.666666666666664 0 0 1 160 48V2.6666666666666665a2.6666666666666665 2.6666666666666665 0 0 0 -2.6666666666666665 -2.6666666666666665H42.666666666666664a21.333333333333332 21.333333333333332 0 0 0 -21.333333333333332 21.333333333333332v213.33333333333331a21.333333333333332 21.333333333333332 0 0 0 21.333333333333332 21.333333333333332h170.66666666666666a21.333333333333332 21.333333333333332 0 0 0 21.333333333333332 -21.333333333333332V77.33333333333333a2.6666666666666665 2.6666666666666665 0 0 0 -2.6666666666666665 -2.6666666666666665ZM62.72 164.05333333333334H74.66666666666666a6.613333333333333 6.613333333333333 0 1 1 0 13.226666666666667H62.72a2.7733333333333334 2.7733333333333334 0 0 0 -2.7733333333333334 2.7733333333333334V192a4.053333333333333 4.053333333333333 0 0 0 4.053333333333333 4.053333333333333h21.333333333333332a6.613333333333333 6.613333333333333 0 0 1 0 13.226666666666667H64A17.173333333333332 17.173333333333332 0 0 1 46.72 192v-42.666666666666664A17.173333333333332 17.173333333333332 0 0 1 64 132.05333333333334h21.333333333333332a6.613333333333333 6.613333333333333 0 0 1 0 13.226666666666667H64a4.053333333333333 4.053333333333333 0 0 0 -4.053333333333333 4.053333333333333v11.946666666666667a2.7733333333333334 2.7733333333333334 0 0 0 2.7733333333333334 2.7733333333333334Zm64 13.226666666666667h-5.226666666666667a2.7733333333333334 2.7733333333333334 0 0 0 -2.7733333333333334 2.7733333333333334V202.66666666666666a6.613333333333333 6.613333333333333 0 1 1 -13.226666666666667 0v-64a6.506666666666666 6.506666666666666 0 0 1 6.613333333333333 -6.613333333333333H128a22.613333333333333 22.613333333333333 0 0 1 22.506666666666664 24.959999999999997 23.46666666666667 23.46666666666667 0 0 1 -23.893333333333334 20.266666666666666Zm48.63999999999999 -18.666666666666664 19.626666666666665 13.013333333333332a20.69333333333333 20.69333333333333 0 0 1 -11.413333333333334 37.76H165.33333333333331a6.72 6.72 0 0 1 0 -13.333333333333332h18.133333333333333a7.253333333333334 7.253333333333334 0 0 0 3.9466666666666663 -13.333333333333332l-19.626666666666665 -13.013333333333332a20.69333333333333 20.69333333333333 0 0 1 -9.066666666666666 -17.173333333333332 20.479999999999997 20.479999999999997 0 0 1 20.479999999999997 -20.479999999999997h18.133333333333333a6.613333333333333 6.613333333333333 0 0 1 0 13.226666666666667h-18.133333333333333a7.253333333333334 7.253333333333334 0 0 0 -3.9466666666666663 13.333333333333332Z"/></g></svg>