<svg xmlns="http://www.w3.org/2000/svg" viewBox="0 0 256 256" id="Image-File-Star--Streamline-Ultimate" height="256" width="256">
  <desc>
    Image File Star Streamline Icon: https://streamlinehq.com
  </desc>
  <g id="Image-File-Star--Streamline-Ultimate.svg">
    <path d="M134.50666666666666 182.82666666666665a13.653333333333332 13.653333333333332 0 0 0 3.1999999999999997 -14.719999999999999 13.226666666666667 13.226666666666667 0 0 0 -12.479999999999999 -8.106666666666666h-26.666666666666664a2.6666666666666665 2.6666666666666665 0 0 1 -2.5599999999999996 -1.5999999999999999l-14.293333333333333 -33.28A13.76 13.76 0 0 0 69.33333333333333 117.33333333333333a13.973333333333333 13.973333333333333 0 0 0 -12.479999999999999 7.786666666666666L42.666666666666664 158.39999999999998a2.6666666666666665 2.6666666666666665 0 0 1 -2.453333333333333 1.5999999999999999H13.44a13.12 13.12 0 0 0 -12.479999999999999 8.106666666666666 13.546666666666667 13.546666666666667 0 0 0 3.413333333333333 14.826666666666664l23.36 21.333333333333332a2.7733333333333334 2.7733333333333334 0 0 1 0.7466666666666667 3.093333333333333l-13.12 29.546666666666667a13.44 13.44 0 0 0 3.413333333333333 15.466666666666665 14.293333333333333 14.293333333333333 0 0 0 16 1.8133333333333335l33.28 -18.666666666666664a2.2399999999999998 2.2399999999999998 0 0 1 2.5599999999999996 0l33.17333333333333 18.666666666666664a13.653333333333332 13.653333333333332 0 0 0 16.106666666666666 -1.8133333333333335 13.44 13.44 0 0 0 3.413333333333333 -15.466666666666665l-13.12 -29.973333333333333a2.7733333333333334 2.7733333333333334 0 0 1 0.6399999999999999 -3.093333333333333Z" fill="#ffffff" stroke-width="10.6667"></path>
    <path d="M156.58666666666664 59.093333333333334A16 16 0 1 0 140.69333333333333 74.66666666666666a15.893333333333333 15.893333333333333 0 0 0 15.893333333333333 -15.573333333333332Z" fill="#ffffff" stroke-width="10.6667"></path>
    <path d="M118.61333333333332 137.6a2.0266666666666664 2.0266666666666664 0 0 0 1.8133333333333335 1.0666666666666667h96a2.2399999999999998 2.2399999999999998 0 0 0 1.8133333333333335 -1.0666666666666667 2.0266666666666664 2.0266666666666664 0 0 0 0 -2.0266666666666664l-34.45333333333333 -55.14666666666666a3.733333333333333 3.733333333333333 0 0 0 -3.3066666666666666 -1.92 4.053333333333333 4.053333333333333 0 0 0 -3.413333333333333 1.92l-19.306666666666665 30.826666666666668a1.8133333333333335 1.8133333333333335 0 0 1 -1.7066666666666666 0.96 1.7066666666666666 1.7066666666666666 0 0 1 -1.5999999999999999 -0.96l-6.933333333333334 -10.666666666666666a3.9466666666666663 3.9466666666666663 0 0 0 -3.413333333333333 -1.8133333333333335 3.9466666666666663 3.9466666666666663 0 0 0 -3.3066666666666666 1.8133333333333335l-22.08 35.306666666666665a2.0266666666666664 2.0266666666666664 0 0 0 -0.10666666666666666 1.7066666666666666Z" fill="#ffffff" stroke-width="10.6667"></path>
    <path d="M249.70666666666665 32 224 6.293333333333333A21.333333333333332 21.333333333333332 0 0 0 208.95999999999998 0H85.33333333333333a21.333333333333332 21.333333333333332 0 0 0 -21.333333333333332 21.333333333333332v72.42666666666666a2.6666666666666665 2.6666666666666665 0 0 0 2.453333333333333 2.2399999999999998 87.25333333333333 87.25333333333333 0 0 1 15.466666666666665 2.2399999999999998A2.6666666666666665 2.6666666666666665 0 0 0 85.33333333333333 96V26.666666666666664a5.333333333333333 5.333333333333333 0 0 1 5.333333333333333 -5.333333333333333h116.05333333333334a5.013333333333333 5.013333333333333 0 0 1 3.733333333333333 1.5999999999999999l22.613333333333333 22.613333333333333a5.013333333333333 5.013333333333333 0 0 1 1.5999999999999999 3.733333333333333V192a5.333333333333333 5.333333333333333 0 0 1 -5.333333333333333 5.333333333333333h-78.29333333333332a2.6666666666666665 2.6666666666666665 0 0 0 -1.7066666666666666 0.6399999999999999l-12.906666666666666 11.626666666666667a2.88 2.88 0 0 0 0 2.88l2.0266666666666664 4.586666666666666a3.1999999999999997 3.1999999999999997 0 0 0 2.88 1.5999999999999999H234.66666666666666a21.333333333333332 21.333333333333332 0 0 0 21.333333333333332 -21.333333333333332V47.04A21.333333333333332 21.333333333333332 0 0 0 249.70666666666665 32Z" fill="#ffffff" stroke-width="10.6667"></path>
  </g>
</svg>