<svg xmlns="http://www.w3.org/2000/svg" viewBox="0 0 256 256" id="Image-File-Jpg--Streamline-Ultimate" height="256" width="256">
  <desc>
    Image File Jpg Streamline Icon: https://streamlinehq.com
  </desc>
  <g id="Image-File-Jpg--Streamline-Ultimate.svg">
    <path d="M186.66666666666666 64h41.599999999999994a2.6666666666666665 2.6666666666666665 0 0 0 1.8133333333333335 -4.586666666666666L175.25333333333333 4.586666666666666A2.6666666666666665 2.6666666666666665 0 0 0 170.66666666666666 6.3999999999999995v41.599999999999994A16 16 0 0 0 186.66666666666666 64Z" fill="#ffffff" stroke-width="10.6667"></path>
    <path d="M128 139.94666666666666h-6.613333333333333a2.7733333333333334 2.7733333333333334 0 0 0 -2.7733333333333334 2.7733333333333334v13.226666666666667a2.7733333333333334 2.7733333333333334 0 0 0 2.7733333333333334 2.7733333333333334H128a9.386666666666667 9.386666666666667 0 0 0 0 -18.773333333333333Z" fill="#ffffff" stroke-width="10.6667"></path>
    <path d="M232 74.66666666666666H186.66666666666666A26.666666666666664 26.666666666666664 0 0 1 160 48V2.6666666666666665a2.6666666666666665 2.6666666666666665 0 0 0 -2.6666666666666665 -2.6666666666666665H42.666666666666664a21.333333333333332 21.333333333333332 0 0 0 -21.333333333333332 21.333333333333332v213.33333333333331a21.333333333333332 21.333333333333332 0 0 0 21.333333333333332 21.333333333333332h170.66666666666666a21.333333333333332 21.333333333333332 0 0 0 21.333333333333332 -21.333333333333332V77.33333333333333a2.6666666666666665 2.6666666666666665 0 0 0 -2.6666666666666665 -2.6666666666666665ZM97.27999999999999 181.33333333333331a22.613333333333333 22.613333333333333 0 1 1 -45.22666666666667 0 6.613333333333333 6.613333333333333 0 1 1 13.226666666666667 0 9.386666666666667 9.386666666666667 0 1 0 18.773333333333333 0v-48a6.613333333333333 6.613333333333333 0 0 1 13.226666666666667 0Zm29.333333333333332 -9.386666666666667h-5.226666666666667a2.7733333333333334 2.7733333333333334 0 0 0 -2.7733333333333334 2.7733333333333334v22.613333333333333a6.613333333333333 6.613333333333333 0 1 1 -13.226666666666667 0v-64a6.506666666666666 6.506666666666666 0 0 1 6.613333333333333 -6.613333333333333H128a22.613333333333333 22.613333333333333 0 0 1 22.506666666666664 24.959999999999997 23.46666666666667 23.46666666666667 0 0 1 -23.893333333333334 20.266666666666666Zm77.33333333333333 -17.28a6.613333333333333 6.613333333333333 0 1 1 -13.226666666666667 0V149.33333333333331a9.386666666666667 9.386666666666667 0 0 0 -18.773333333333333 0v32a9.386666666666667 9.386666666666667 0 0 0 17.599999999999998 4.4799999999999995c0.5333333333333333 -0.96 1.2799999999999998 -3.1999999999999997 -0.96 -3.1999999999999997h-1.92a6.613333333333333 6.613333333333333 0 1 1 0 -13.226666666666667h10.666666666666666a6.613333333333333 6.613333333333333 0 0 1 6.613333333333333 6.613333333333333v5.333333333333333a22.613333333333333 22.613333333333333 0 0 1 -45.22666666666667 0v-32a22.613333333333333 22.613333333333333 0 0 1 45.22666666666667 0Z" fill="#ffffff" stroke-width="10.6667"></path>
  </g>
</svg>