<svg xmlns="http://www.w3.org/2000/svg" id="Incognito--Streamline-Ultimate" width="256" height="256" fill="none" viewBox="0 0 256 256"><desc>Incognito Streamline Icon: https://streamlinehq.com</desc><path fill="#fff" fill-rule="evenodd" stroke-width="10.667" d="M75.96309333333333 6.916341333333333c-14.537066666666664 0 -26.88117333333333 10.647178666666665 -29.01546666666667 25.026698666666665l-10.591466666666665 71.35786666666667H19.122346666666665c-8.836511999999999 0 -15.999946666666666 7.163093333333333 -15.999946666666666 16.000426666666666 0 8.836266666666667 7.1634346666666655 16 15.999946666666666 16H236.8768c8.836266666666667 0 16 -7.163733333333333 16 -16 0 -8.837333333333333 -7.163733333333333 -16.000426666666666 -16 -16.000426666666666h-17.233066666666666l-10.590933333333332 -71.35786666666667C206.91839999999996 17.563519999999997 194.57386666666665 6.916341333333333 180.03733333333332 6.916341333333333H75.96309333333333ZM42.91925333333333 202.2613333333333c0 -15.550933333333333 12.605866666666666 -28.156799999999997 28.156053333333332 -28.156799999999997 15.550079999999998 0 28.155946666666665 12.605866666666666 28.155946666666665 28.156799999999997 0 15.549866666666667 -12.605866666666666 28.155733333333334 -28.155946666666665 28.155733333333334 -15.550186666666665 0 -28.156053333333332 -12.605866666666666 -28.156053333333332 -28.155733333333334Zm28.156053333333332 -49.49013333333333c-27.332266666666662 0 -49.48938666666667 22.157866666666667 -49.48938666666667 49.49013333333333 0 27.332266666666662 22.15712 49.48906666666666 49.48938666666667 49.48906666666666 23.407893333333334 0 43.01962666666666 -16.251733333333334 48.16949333333333 -38.0864 2.8031999999999995 -0.48 5.7333333333333325 -0.736 8.755199999999999 -0.736s5.952 0.256 8.755199999999999 0.7349333333333333c5.1488 21.83573333333333 24.76053333333333 38.087466666666664 48.16853333333333 38.087466666666664 27.332266666666662 0 49.49013333333333 -22.156799999999997 49.49013333333333 -49.48906666666666s-22.157866666666667 -49.49013333333333 -49.49013333333333 -49.49013333333333c-23.84213333333333 0 -43.7472 16.860799999999998 -48.44053333333333 39.309866666666665 -2.776533333333333 -0.3210666666666666 -5.6096 -0.4864 -8.4832 -0.4864s-5.706666666666667 0.16533333333333333 -8.4832 0.4864c-4.693333333333333 -22.447999999999997 -24.598613333333333 -39.309866666666665 -48.44149333333333 -39.309866666666665ZM156.76799999999997 202.2613333333333c0 -15.550933333333333 12.605866666666666 -28.156799999999997 28.155733333333334 -28.156799999999997 15.550933333333333 0 28.156799999999997 12.605866666666666 28.156799999999997 28.156799999999997 0 15.549866666666667 -12.605866666666666 28.155733333333334 -28.156799999999997 28.155733333333334 -15.549866666666667 0 -28.155733333333334 -12.605866666666666 -28.155733333333334 -28.155733333333334Z" clip-rule="evenodd"/></svg>