<svg xmlns="http://www.w3.org/2000/svg" id="Information-Desk-Customer--Streamline-Ultimate" width="256" height="256" viewBox="0 0 256 256"><desc>Information Desk Customer Streamline Icon: https://streamlinehq.com</desc><g id="Information-Desk-Customer--Streamline-Ultimate.svg"><path fill="#fff" stroke-width="10.667" d="M148.05333333333334 66.66666666666666a24 24 0 1 0 48 0 24 24 0 1 0 -48 0"/><path fill="#fff" stroke-width="10.667" d="M125.22666666666666 135.04a2.453333333333333 2.453333333333333 0 0 0 0 2.453333333333333 2.453333333333333 2.453333333333333 0 0 0 2.7733333333333334 1.1733333333333333h89.49333333333334a2.0266666666666664 2.0266666666666664 0 0 0 1.7066666666666666 -0.8533333333333333 2.1333333333333333 2.1333333333333333 0 0 0 0 -1.8133333333333335 49.38666666666666 49.38666666666666 0 0 0 -93.97333333333333 -0.96Z"/><path fill="#fff" stroke-width="10.667" d="M238.71999999999997 176a10.666666666666666 10.666666666666666 0 0 0 0 -21.333333333333332H107.94666666666666a5.333333333333333 5.333333333333333 0 0 1 -5.333333333333333 -5.333333333333333v-16a48 48 0 1 0 -96 0V170.66666666666666a5.333333333333333 5.333333333333333 0 0 0 5.333333333333333 5.333333333333333h10.666666666666666a5.226666666666667 5.226666666666667 0 0 1 5.333333333333333 4.906666666666666L32.959999999999994 245.33333333333331a5.226666666666667 5.226666666666667 0 0 0 5.333333333333333 4.906666666666666h32.74666666666666a5.333333333333333 5.333333333333333 0 0 0 5.333333333333333 -4.906666666666666l4.586666666666666 -64a5.226666666666667 5.226666666666667 0 0 1 5.333333333333333 -4.906666666666666Z"/><path fill="#fff" stroke-width="10.667" d="M22.72 37.33333333333333a32 32 0 1 0 64 0 32 32 0 1 0 -64 0"/></g></svg>