<svg xmlns="http://www.w3.org/2000/svg" id="Information-Circle--Streamline-Ultimate" width="256" height="256" viewBox="0 0 256 256"><desc>Information Circle Streamline Icon: https://streamlinehq.com</desc><path fill="#fff" stroke-width="10.667" d="M128 0a128 128 0 1 0 128 128A128 128 0 0 0 128 0Zm2.6666666666666665 53.33333333333333a16 16 0 1 1 -16 16 16 16 0 0 1 16 -16Zm24 144h-42.666666666666664a10.666666666666666 10.666666666666666 0 0 1 0 -21.333333333333332h8a2.6666666666666665 2.6666666666666665 0 0 0 2.6666666666666665 -2.6666666666666665v-48a2.6666666666666665 2.6666666666666665 0 0 0 -2.6666666666666665 -2.6666666666666665h-8a10.666666666666666 10.666666666666666 0 0 1 0 -21.333333333333332h10.666666666666666a21.333333333333332 21.333333333333332 0 0 1 21.333333333333332 21.333333333333332v50.666666666666664a2.6666666666666665 2.6666666666666665 0 0 0 2.6666666666666665 2.6666666666666665h8a10.666666666666666 10.666666666666666 0 0 1 0 21.333333333333332Z"/></svg>