<svg xmlns="http://www.w3.org/2000/svg" viewBox="0 0 256 256" id="Instrument-Pan-Flute--Streamline-Ultimate" height="256" width="256">
  <desc>
    Instrument Pan Flute Streamline Icon: https://streamlinehq.com
  </desc>
  <g id="Instrument-Pan-Flute--Streamline-Ultimate.svg">
    <path d="M64 218.66666666666666H32a2.6666666666666665 2.6666666666666665 0 0 0 -2.6666666666666665 2.6666666666666665V245.33333333333331a10.666666666666666 10.666666666666666 0 0 0 10.666666666666666 10.666666666666666h16a10.666666666666666 10.666666666666666 0 0 0 10.666666666666666 -10.666666666666666v-24A2.6666666666666665 2.6666666666666665 0 0 0 64 218.66666666666666Z" fill="#ffffff" stroke-width="10.6667"></path>
    <path d="M117.33333333333333 218.66666666666666H85.33333333333333a2.6666666666666665 2.6666666666666665 0 0 0 -2.6666666666666665 2.6666666666666665V245.33333333333331a10.666666666666666 10.666666666666666 0 0 0 10.666666666666666 10.666666666666666h16a10.666666666666666 10.666666666666666 0 0 0 10.666666666666666 -10.666666666666666v-24a2.6666666666666665 2.6666666666666665 0 0 0 -2.6666666666666665 -2.6666666666666665Z" fill="#ffffff" stroke-width="10.6667"></path>
    <path d="M170.66666666666666 218.66666666666666h-32a2.6666666666666665 2.6666666666666665 0 0 0 -2.6666666666666665 2.6666666666666665V245.33333333333331a10.666666666666666 10.666666666666666 0 0 0 10.666666666666666 10.666666666666666h16a10.666666666666666 10.666666666666666 0 0 0 10.666666666666666 -10.666666666666666v-24a2.6666666666666665 2.6666666666666665 0 0 0 -2.6666666666666665 -2.6666666666666665Z" fill="#ffffff" stroke-width="10.6667"></path>
    <path d="M224 218.66666666666666h-32a2.6666666666666665 2.6666666666666665 0 0 0 -2.6666666666666665 2.6666666666666665V245.33333333333331a10.666666666666666 10.666666666666666 0 0 0 10.666666666666666 10.666666666666666h16a10.666666666666666 10.666666666666666 0 0 0 10.666666666666666 -10.666666666666666v-24a2.6666666666666665 2.6666666666666665 0 0 0 -2.6666666666666665 -2.6666666666666665Z" fill="#ffffff" stroke-width="10.6667"></path>
    <path d="M237.33333333333331 170.66666666666666h-10.666666666666666V10.666666666666666a10.666666666666666 10.666666666666666 0 0 0 -10.666666666666666 -10.666666666666666h-16a10.666666666666666 10.666666666666666 0 0 0 -10.666666666666666 10.666666666666666v160h-16V42.666666666666664a10.666666666666666 10.666666666666666 0 0 0 -10.666666666666666 -10.666666666666666h-16a10.666666666666666 10.666666666666666 0 0 0 -10.666666666666666 10.666666666666666v128h-16V74.66666666666666a10.666666666666666 10.666666666666666 0 0 0 -10.666666666666666 -10.666666666666666h-16a10.666666666666666 10.666666666666666 0 0 0 -10.666666666666666 10.666666666666666v96h-16v-64a10.666666666666666 10.666666666666666 0 0 0 -10.666666666666666 -10.666666666666666h-16a10.666666666666666 10.666666666666666 0 0 0 -10.666666666666666 10.666666666666666v64h-10.666666666666666a5.333333333333333 5.333333333333333 0 0 0 -5.333333333333333 5.333333333333333v21.333333333333332a5.333333333333333 5.333333333333333 0 0 0 5.333333333333333 5.333333333333333h218.66666666666666a5.333333333333333 5.333333333333333 0 0 0 5.333333333333333 -5.333333333333333v-21.333333333333332a5.333333333333333 5.333333333333333 0 0 0 -5.333333333333333 -5.333333333333333Z" fill="#ffffff" stroke-width="10.6667"></path>
  </g>
</svg>