<svg xmlns="http://www.w3.org/2000/svg" viewBox="0 0 256 256" id="Instrument-Classical-Piano--Streamline-Ultimate" height="256" width="256">
  <desc>
    Instrument Classical Piano Streamline Icon: https://streamlinehq.com
  </desc>
  <g id="Instrument-Classical-Piano--Streamline-Ultimate.svg">
    <path d="M114.13333333333333 85.86666666666667a10.666666666666666 10.666666666666666 0 1 1 17.066666666666666 -12.799999999999999l48 64 0.6399999999999999 1.0666666666666667h60.16a5.333333333333333 5.333333333333333 0 0 0 5.333333333333333 -5.333333333333333V128a64 64 0 0 0 -64 -64 21.333333333333332 21.333333333333332 0 0 1 -21.333333333333332 -21.333333333333332A42.666666666666664 42.666666666666664 0 0 0 128.85333333333332 1.0666666666666667a16 16 0 0 0 -19.306666666666665 9.6L64 130.98666666666665a5.333333333333333 5.333333333333333 0 0 0 5.333333333333333 7.68h78.72a2.5599999999999996 2.5599999999999996 0 0 0 2.3466666666666667 -1.4933333333333334 2.88 2.88 0 0 0 0 -2.7733333333333334Z" fill="#ffffff" stroke-width="10.6667"></path>
    <path d="M256 170.66666666666666a16 16 0 0 0 -16 -16h-170.66666666666666A16 16 0 0 0 53.33333333333333 170.66666666666666v8a2.6666666666666665 2.6666666666666665 0 0 1 -2.6666666666666665 2.6666666666666665H16A16 16 0 0 0 0 196.79999999999998v21.333333333333332A16 16 0 0 0 16 234.66666666666666h18.666666666666664a2.6666666666666665 2.6666666666666665 0 0 1 2.6666666666666665 2.6666666666666665V245.33333333333331a10.666666666666666 10.666666666666666 0 0 0 21.333333333333332 0v-8.533333333333333a2.6666666666666665 2.6666666666666665 0 0 1 2.6666666666666665 -2.1333333333333333h154.66666666666666a2.6666666666666665 2.6666666666666665 0 0 1 2.6666666666666665 2.6666666666666665V245.33333333333331a10.666666666666666 10.666666666666666 0 1 0 21.333333333333332 0v-8.106666666666666a2.6666666666666665 2.6666666666666665 0 0 1 2.2399999999999998 -2.6666666666666665A16.106666666666666 16.106666666666666 0 0 0 256 218.13333333333333Z" fill="#ffffff" stroke-width="10.6667"></path>
  </g>
</svg>