<svg xmlns="http://www.w3.org/2000/svg" viewBox="0 0 256 256" id="Instrument-Tambourine--Streamline-Ultimate" height="256" width="256">
  <desc>
    Instrument Tambourine Streamline Icon: https://streamlinehq.com
  </desc>
  <g id="Instrument-Tambourine--Streamline-Ultimate.svg">
    <path d="M224.64 94.93333333333334a2.88 2.88 0 0 0 2.3466666666666667 1.5999999999999999 2.7733333333333334 2.7733333333333334 0 0 0 2.453333333333333 -1.3866666666666667 42.666666666666664 42.666666666666664 0 0 0 -52.693333333333335 -60.266666666666666 2.5599999999999996 2.5599999999999996 0 0 0 -1.7066666666666666 2.1333333333333333 2.6666666666666665 2.6666666666666665 0 0 0 1.1733333333333333 2.5599999999999996 132.48 132.48 0 0 1 22.29333333333333 17.919999999999998 128 128 0 0 1 26.133333333333333 37.44Z" fill="#ffffff" stroke-width="10.6667"></path>
    <path d="m243.41333333333333 161.81333333333333 -2.7733333333333334 -2.5599999999999996a2.88 2.88 0 0 0 -2.7733333333333334 0 2.6666666666666665 2.6666666666666665 0 0 0 -1.5999999999999999 2.2399999999999998 130.13333333333333 130.13333333333333 0 0 1 -27.199999999999996 69.22666666666666 2.88 2.88 0 0 0 0 2.7733333333333334 2.7733333333333334 2.7733333333333334 0 0 0 2.3466666666666667 1.5999999999999999 42.666666666666664 42.666666666666664 0 0 0 32 -72.85333333333332Z" fill="#ffffff" stroke-width="10.6667"></path>
    <path d="M106.66666666666666 19.2a1.92 1.92 0 0 0 1.8133333333333335 -1.1733333333333333 1.92 1.92 0 0 0 0 -2.2399999999999998 43.946666666666665 43.946666666666665 0 0 0 -2.986666666666667 -3.3066666666666666 42.666666666666664 42.666666666666664 0 0 0 -60.266666666666666 0A42.026666666666664 42.026666666666664 0 0 0 32 36.586666666666666a2.5599999999999996 2.5599999999999996 0 0 0 1.1733333333333333 2.6666666666666665 2.7733333333333334 2.7733333333333334 0 0 0 2.88 0A130.02666666666664 130.02666666666664 0 0 1 106.66666666666666 19.2Z" fill="#ffffff" stroke-width="10.6667"></path>
    <path d="M145.70666666666665 254.50666666666666a29.333333333333332 29.333333333333332 0 0 0 9.066666666666666 1.4933333333333334 28.69333333333333 28.69333333333333 0 0 0 14.826666666666664 -4.266666666666667 116.47999999999999 116.47999999999999 0 0 0 21.333333333333332 -16.96A120 120 0 1 0 21.333333333333332 65.06666666666666a117.33333333333333 117.33333333333333 0 0 0 -17.066666666666666 21.333333333333332 28.266666666666666 28.266666666666666 0 0 0 7.359999999999999 37.65333333333333 2.6666666666666665 2.6666666666666665 0 0 1 1.0666666666666667 1.92 21.333333333333332 21.333333333333332 0 0 0 3.413333333333333 9.706666666666667 20.479999999999997 20.479999999999997 0 0 0 2.7733333333333334 3.413333333333333 19.733333333333334 19.733333333333334 0 0 0 5.4399999999999995 3.9466666666666663 215.78666666666666 215.78666666666666 0 0 1 88.64 88.64 21.333333333333332 21.333333333333332 0 0 0 8.533333333333333 8.853333333333332 20.479999999999997 20.479999999999997 0 0 0 8.533333333333333 2.6666666666666665 2.88 2.88 0 0 1 1.8133333333333335 1.0666666666666667 27.839999999999996 27.839999999999996 0 0 0 13.866666666666667 10.239999999999998ZM42.666666666666664 74.66666666666666a2.7733333333333334 2.7733333333333334 0 0 1 3.52 0 42.666666666666664 42.666666666666664 0 0 0 69.65333333333334 -20.479999999999997 2.6666666666666665 2.6666666666666665 0 0 1 2.88 -2.0266666666666664 100.79999999999998 100.79999999999998 0 0 1 30.613333333333333 8.853333333333332 2.88 2.88 0 0 1 1.3866666666666667 3.093333333333333 42.666666666666664 42.666666666666664 0 0 0 46.29333333333333 53.33333333333333 2.5599999999999996 2.5599999999999996 0 0 1 2.88 1.8133333333333335 96.96 96.96 0 0 1 4.906666666666666 29.119999999999997 2.6666666666666665 2.6666666666666665 0 0 1 -2.0266666666666664 2.6666666666666665 42.666666666666664 42.666666666666664 0 0 0 -25.28 64 2.5599999999999996 2.5599999999999996 0 0 1 0 3.3066666666666666l-1.1733333333333333 1.2799999999999998a100.79999999999998 100.79999999999998 0 0 1 -17.599999999999998 13.866666666666667 6.826666666666666 6.826666666666666 0 0 1 -5.76 0.6399999999999999 2.5599999999999996 2.5599999999999996 0 0 1 -1.3866666666666667 -1.1733333333333333 2.453333333333333 2.453333333333333 0 0 1 0 -1.92 21.333333333333332 21.333333333333332 0 0 0 0 -18.773333333333333A258.34666666666664 258.34666666666664 0 0 0 43.519999999999996 104.96a21.333333333333332 21.333333333333332 0 0 0 -16.32 -1.1733333333333333 11.626666666666667 11.626666666666667 0 0 0 -2.453333333333333 0.96 2.1333333333333333 2.1333333333333333 0 0 1 -1.8133333333333335 0A2.3466666666666667 2.3466666666666667 0 0 1 21.333333333333332 103.46666666666665a7.04 7.04 0 0 1 0.6399999999999999 -5.866666666666667A104.10666666666665 104.10666666666665 0 0 1 36.266666666666666 80.10666666666665Z" fill="#ffffff" stroke-width="10.6667"></path>
  </g>
</svg>