<svg xmlns="http://www.w3.org/2000/svg" viewBox="0 0 256 256" id="Instagram-Logo--Streamline-Ultimate" height="256" width="256">
  <desc>
    Instagram Logo Streamline Icon: https://streamlinehq.com
  </desc>
  <g id="Instagram-Logo--Streamline-Ultimate.svg">
    <path d="M197.33333333333331 0h-138.66666666666666A58.773333333333326 58.773333333333326 0 0 0 0 58.666666666666664v138.66666666666666A58.773333333333326 58.773333333333326 0 0 0 58.666666666666664 256h138.66666666666666a58.773333333333326 58.773333333333326 0 0 0 58.666666666666664 -58.666666666666664v-138.66666666666666A58.773333333333326 58.773333333333326 0 0 0 197.33333333333331 0ZM213.33333333333331 170.66666666666666a42.666666666666664 42.666666666666664 0 0 1 -42.666666666666664 42.666666666666664H85.33333333333333a42.666666666666664 42.666666666666664 0 0 1 -42.666666666666664 -42.666666666666664V85.33333333333333a42.666666666666664 42.666666666666664 0 0 1 42.666666666666664 -42.666666666666664h85.33333333333333a42.666666666666664 42.666666666666664 0 0 1 42.666666666666664 42.666666666666664Z" fill="#ffffff" stroke-width="10.6667"></path>
    <path d="M85.33333333333333 128a42.666666666666664 42.666666666666664 0 1 0 85.33333333333333 0 42.666666666666664 42.666666666666664 0 1 0 -85.33333333333333 0" fill="#ffffff" stroke-width="10.6667"></path>
    <path d="M170.66666666666666 74.66666666666666a10.666666666666666 10.666666666666666 0 1 0 21.333333333333332 0 10.666666666666666 10.666666666666666 0 1 0 -21.333333333333332 0" fill="#ffffff" stroke-width="10.6667"></path>
  </g>
</svg>