<svg xmlns="http://www.w3.org/2000/svg" id="Insurance-Head--Streamline-Ultimate" width="256" height="256" viewBox="0 0 256 256"><desc>Insurance Head Streamline Icon: https://streamlinehq.com</desc><path fill="#fff" stroke-width="10.667" d="M228.58666666666664 105.17333333333332a79.57333333333332 79.57333333333332 0 0 1 -7.68 -15.466666666666665c0 -56.213333333333324 -51.946666666666665 -89.70666666666666 -102.08 -89.70666666666666a105.91999999999999 105.91999999999999 0 0 0 -106.66666666666666 107.30666666666667c0 37.33333333333333 13.546666666666667 65.38666666666666 40.31999999999999 83.41333333333333a5.119999999999999 5.119999999999999 0 0 1 2.3466666666666667 4.373333333333333v55.57333333333333a5.333333333333333 5.333333333333333 0 0 0 5.333333333333333 5.333333333333333h106.66666666666666a5.333333333333333 5.333333333333333 0 0 0 5.333333333333333 -5.333333333333333v-32a5.333333333333333 5.333333333333333 0 0 1 5.333333333333333 -5.333333333333333h16a26.666666666666664 26.666666666666664 0 0 0 26.666666666666664 -26.666666666666664v-21.333333333333332a5.333333333333333 5.333333333333333 0 0 1 5.333333333333333 -5.333333333333333h5.866666666666667a13.866666666666667 13.866666666666667 0 0 0 10.666666666666666 -5.546666666666667 13.546666666666667 13.546666666666667 0 0 0 2.0266666666666664 -8 82.13333333333333 82.13333333333333 0 0 0 -15.466666666666665 -41.28ZM172.16 117.33333333333333a10.666666666666666 10.666666666666666 0 0 1 -10.666666666666666 10.666666666666666h-16a5.333333333333333 5.333333333333333 0 0 0 -5.333333333333333 5.333333333333333V149.33333333333331a10.666666666666666 10.666666666666666 0 0 1 -10.666666666666666 10.666666666666666h-21.333333333333332a10.666666666666666 10.666666666666666 0 0 1 -10.666666666666666 -10.666666666666666v-16a5.333333333333333 5.333333333333333 0 0 0 -5.333333333333333 -5.333333333333333h-16a10.666666666666666 10.666666666666666 0 0 1 -10.666666666666666 -10.666666666666666V96a10.666666666666666 10.666666666666666 0 0 1 10.666666666666666 -10.666666666666666h16a5.333333333333333 5.333333333333333 0 0 0 5.333333333333333 -5.333333333333333V64a10.666666666666666 10.666666666666666 0 0 1 10.666666666666666 -10.666666666666666h21.333333333333332a10.666666666666666 10.666666666666666 0 0 1 10.666666666666666 10.666666666666666v16a5.333333333333333 5.333333333333333 0 0 0 5.333333333333333 5.333333333333333h16a10.666666666666666 10.666666666666666 0 0 1 10.666666666666666 10.666666666666666Z"/></svg>