<svg xmlns="http://www.w3.org/2000/svg" viewBox="0 0 256 256" id="Insurance-Hand--Streamline-Ultimate" height="256" width="256">
  <desc>
    Insurance Hand Streamline Icon: https://streamlinehq.com
  </desc>
  <g id="Insurance-Hand--Streamline-Ultimate.svg">
    <path d="M256 65.28A11.946666666666667 11.946666666666667 0 0 0 244.0533333333333 53.33333333333333H208a5.333333333333333 5.333333333333333 0 0 1 -5.333333333333333 -5.333333333333333V11.946666666666667A11.946666666666667 11.946666666666667 0 0 0 190.71999999999997 0h-40.10666666666666A11.946666666666667 11.946666666666667 0 0 0 138.66666666666666 11.946666666666667V48a5.333333333333333 5.333333333333333 0 0 1 -5.333333333333333 5.333333333333333H97.27999999999999A11.946666666666667 11.946666666666667 0 0 0 85.33333333333333 65.28v40.10666666666666A11.946666666666667 11.946666666666667 0 0 0 97.27999999999999 117.33333333333333h36.05333333333333a5.333333333333333 5.333333333333333 0 0 1 5.333333333333333 5.333333333333333v36.05333333333333A11.946666666666667 11.946666666666667 0 0 0 150.61333333333332 170.66666666666666h40.10666666666666A11.946666666666667 11.946666666666667 0 0 0 202.66666666666666 158.72V122.66666666666666a5.333333333333333 5.333333333333333 0 0 1 5.333333333333333 -5.333333333333333h36.05333333333333A11.946666666666667 11.946666666666667 0 0 0 256 105.38666666666667Z" fill="#ffffff" stroke-width="10.6667"></path>
    <path d="M10.666666666666666 157.33333333333331a10.666666666666666 10.666666666666666 0 0 0 -10.666666666666666 10.666666666666666V245.33333333333331a10.666666666666666 10.666666666666666 0 0 0 21.333333333333332 0v-77.33333333333333a10.666666666666666 10.666666666666666 0 0 0 -10.666666666666666 -10.666666666666666Z" fill="#ffffff" stroke-width="10.6667"></path>
    <path d="M165.33333333333331 208H68.05333333333333a6.72 6.72 0 1 1 0 -13.333333333333332H94.93333333333334a10.666666666666666 10.666666666666666 0 0 0 9.813333333333333 -14.826666666666664 23.786666666666665 23.786666666666665 0 0 0 -21.973333333333333 -14.506666666666668H37.33333333333333a5.333333333333333 5.333333333333333 0 0 0 -5.333333333333333 5.333333333333333v69.33333333333333a5.333333333333333 5.333333333333333 0 0 0 5.333333333333333 5.333333333333333h114.77333333333333a23.893333333333334 23.893333333333334 0 0 0 23.893333333333334 -23.893333333333334v-2.7733333333333334a10.666666666666666 10.666666666666666 0 0 0 -10.666666666666666 -10.666666666666666Z" fill="#ffffff" stroke-width="10.6667"></path>
  </g>
</svg>