<svg xmlns="http://www.w3.org/2000/svg" viewBox="0 0 256 256" id="Iris-Scan-1--Streamline-Ultimate" height="256" width="256">
  <desc>
    Iris Scan 1 Streamline Icon: https://streamlinehq.com
  </desc>
  <g id="Iris-Scan-1--Streamline-Ultimate.svg">
    <path d="M69.33333333333333 234.66666666666666H24a2.6666666666666665 2.6666666666666665 0 0 1 -2.6666666666666665 -2.6666666666666665V186.66666666666666a10.666666666666666 10.666666666666666 0 0 0 -21.333333333333332 0V234.66666666666666a21.333333333333332 21.333333333333332 0 0 0 21.333333333333332 21.333333333333332h48a10.666666666666666 10.666666666666666 0 0 0 0 -21.333333333333332Z" fill="#ffffff" stroke-width="10.6667"></path>
    <path d="M10.666666666666666 80a10.666666666666666 10.666666666666666 0 0 0 10.666666666666666 -10.666666666666666V24A2.6666666666666665 2.6666666666666665 0 0 1 24 21.333333333333332H69.33333333333333a10.666666666666666 10.666666666666666 0 0 0 0 -21.333333333333332H21.333333333333332a21.333333333333332 21.333333333333332 0 0 0 -21.333333333333332 21.333333333333332v48a10.666666666666666 10.666666666666666 0 0 0 10.666666666666666 10.666666666666666Z" fill="#ffffff" stroke-width="10.6667"></path>
    <path d="M245.33333333333331 176a10.666666666666666 10.666666666666666 0 0 0 -10.666666666666666 10.666666666666666v45.33333333333333a2.6666666666666665 2.6666666666666665 0 0 1 -2.6666666666666665 2.6666666666666665H186.66666666666666a10.666666666666666 10.666666666666666 0 0 0 0 21.333333333333332H234.66666666666666a21.333333333333332 21.333333333333332 0 0 0 21.333333333333332 -21.333333333333332v-48a10.666666666666666 10.666666666666666 0 0 0 -10.666666666666666 -10.666666666666666Z" fill="#ffffff" stroke-width="10.6667"></path>
    <path d="M234.66666666666666 0h-48a10.666666666666666 10.666666666666666 0 0 0 0 21.333333333333332h45.33333333333333a2.6666666666666665 2.6666666666666665 0 0 1 2.6666666666666665 2.6666666666666665V69.33333333333333a10.666666666666666 10.666666666666666 0 0 0 21.333333333333332 0V21.333333333333332a21.333333333333332 21.333333333333332 0 0 0 -21.333333333333332 -21.333333333333332Z" fill="#ffffff" stroke-width="10.6667"></path>
    <path d="M117.33333333333333 128a10.666666666666666 10.666666666666666 0 1 0 21.333333333333332 0 10.666666666666666 10.666666666666666 0 1 0 -21.333333333333332 0" fill="#ffffff" stroke-width="10.6667"></path>
    <path d="M51.626666666666665 120.10666666666665a11.733333333333334 11.733333333333334 0 0 0 0 15.786666666666665c18.133333333333333 20.05333333333333 47.57333333333333 40.53333333333333 76.69333333333333 40.10666666666666s58.45333333333333 -20.05333333333333 76.69333333333333 -40.10666666666666a11.733333333333334 11.733333333333334 0 0 0 0 -15.786666666666665C186.34666666666664 99.62666666666667 156.90666666666667 79.57333333333332 128 80s-57.81333333333333 19.626666666666665 -76.37333333333333 40.10666666666666ZM160 128a32 32 0 1 1 -32 -32 32 32 0 0 1 32 32Z" fill="#ffffff" stroke-width="10.6667"></path>
    <path d="M128 48a10.666666666666666 10.666666666666666 0 0 0 10.666666666666666 -10.666666666666666V21.333333333333332a10.666666666666666 10.666666666666666 0 0 0 -21.333333333333332 0v16a10.666666666666666 10.666666666666666 0 0 0 10.666666666666666 10.666666666666666Z" fill="#ffffff" stroke-width="10.6667"></path>
    <path d="M128 208a10.666666666666666 10.666666666666666 0 0 0 -10.666666666666666 10.666666666666666V234.66666666666666a10.666666666666666 10.666666666666666 0 0 0 21.333333333333332 0v-16a10.666666666666666 10.666666666666666 0 0 0 -10.666666666666666 -10.666666666666666Z" fill="#ffffff" stroke-width="10.6667"></path>
    <path d="M245.33333333333331 117.33333333333333h-16a10.666666666666666 10.666666666666666 0 0 0 0 21.333333333333332H245.33333333333331a10.666666666666666 10.666666666666666 0 0 0 0 -21.333333333333332Z" fill="#ffffff" stroke-width="10.6667"></path>
    <path d="M10.666666666666666 138.66666666666666h16a10.666666666666666 10.666666666666666 0 0 0 0 -21.333333333333332H10.666666666666666a10.666666666666666 10.666666666666666 0 0 0 0 21.333333333333332Z" fill="#ffffff" stroke-width="10.6667"></path>
  </g>
</svg>