<svg xmlns="http://www.w3.org/2000/svg" id="Java--Streamline-Ultimate" width="256" height="256" viewBox="0 0 256 256"><desc>Java Streamline Icon: https://streamlinehq.com</desc><g id="Java--Streamline-Ultimate.svg"><path fill="#fff" stroke-width="10.667" d="M202.66666666666666 102.72a9.386666666666667 9.386666666666667 0 0 0 -9.386666666666667 9.28v6.72a2.7733333333333334 2.7733333333333334 0 0 0 2.7733333333333334 2.6666666666666665h13.226666666666667a2.7733333333333334 2.7733333333333334 0 0 0 2.7733333333333334 -2.6666666666666665v-6.72a9.386666666666667 9.386666666666667 0 0 0 -9.386666666666667 -9.28Z"/><path fill="#fff" stroke-width="10.667" d="M96 102.72a9.386666666666667 9.386666666666667 0 0 0 -9.386666666666667 9.28v6.72a2.7733333333333334 2.7733333333333334 0 0 0 2.7733333333333334 2.6666666666666665h13.226666666666667a2.7733333333333334 2.7733333333333334 0 0 0 2.7733333333333334 -2.6666666666666665v-6.72A9.386666666666667 9.386666666666667 0 0 0 96 102.72Z"/><path fill="#fff" stroke-width="10.667" d="M240 48h-224A16 16 0 0 0 0 64v128a16 16 0 0 0 16 16h224A16 16 0 0 0 256 192V64a16 16 0 0 0 -16 -16Zm-174.71999999999997 96a22.613333333333333 22.613333333333333 0 1 1 -45.22666666666667 0 6.613333333333333 6.613333333333333 0 0 1 13.226666666666667 0 9.386666666666667 9.386666666666667 0 0 0 18.773333333333333 0V96a6.613333333333333 6.613333333333333 0 0 1 13.226666666666667 0Zm53.33333333333333 16a6.613333333333333 6.613333333333333 0 1 1 -13.226666666666667 0v-22.613333333333333a2.7733333333333334 2.7733333333333334 0 0 0 -2.7733333333333334 -2.6666666666666665H89.38666666666667a2.7733333333333334 2.7733333333333334 0 0 0 -2.7733333333333334 2.6666666666666665V160a6.613333333333333 6.613333333333333 0 1 1 -13.226666666666667 0v-46.61333333333333a23.46666666666667 23.46666666666667 0 0 1 20.266666666666666 -23.893333333333334 22.613333333333333 22.613333333333333 0 0 1 24.959999999999997 22.506666666666664Zm53.33333333333333 -48a87.14666666666666 87.14666666666666 0 0 1 -17.28 52.05333333333333 6.613333333333333 6.613333333333333 0 0 1 -10.666666666666666 0 87.14666666666666 87.14666666666666 0 0 1 -17.28 -52.05333333333333V96a6.613333333333333 6.613333333333333 0 0 1 13.226666666666667 0v16a72.63999999999999 72.63999999999999 0 0 0 8.32 33.70666666666666c0 0.7466666666666667 1.8133333333333335 0.6399999999999999 2.2399999999999998 0a73.70666666666666 73.70666666666666 0 0 0 8.213333333333333 -33.599999999999994V96a6.613333333333333 6.613333333333333 0 1 1 13.226666666666667 0Zm53.33333333333333 48a6.613333333333333 6.613333333333333 0 1 1 -13.226666666666667 0v-22.613333333333333a2.7733333333333334 2.7733333333333334 0 0 0 -2.7733333333333334 -2.6666666666666665h-13.226666666666667a2.7733333333333334 2.7733333333333334 0 0 0 -2.7733333333333334 2.6666666666666665V160a6.613333333333333 6.613333333333333 0 1 1 -13.226666666666667 0v-46.61333333333333a23.46666666666667 23.46666666666667 0 0 1 20.266666666666666 -23.893333333333334 22.613333333333333 22.613333333333333 0 0 1 24.959999999999997 22.506666666666664Z"/></g></svg>