<svg xmlns="http://www.w3.org/2000/svg" viewBox="0 0 256 256" id="Job-Search-Man--Streamline-Ultimate" height="256" width="256">
  <desc>
    Job Search Man Streamline Icon: https://streamlinehq.com
  </desc>
  <g id="Job-Search-Man--Streamline-Ultimate.svg">
    <path d="M112 216a114.66666666666666 114.66666666666666 0 0 1 -46.93333333333334 -10.026666666666666 2.7733333333333334 2.7733333333333334 0 0 0 -2.5599999999999996 0 2.6666666666666665 2.6666666666666665 0 0 0 -1.1733333333333333 2.2399999999999998v21.333333333333332a5.333333333333333 5.333333333333333 0 0 0 5.333333333333333 5.333333333333333H80a2.6666666666666665 2.6666666666666665 0 0 1 2.6666666666666665 2.6666666666666665v13.12a5.333333333333333 5.333333333333333 0 0 0 5.333333333333333 5.333333333333333h53.33333333333333a5.333333333333333 5.333333333333333 0 0 0 5.333333333333333 -5.333333333333333v-13.333333333333332A2.6666666666666665 2.6666666666666665 0 0 1 149.33333333333331 234.66666666666666h13.333333333333332a5.333333333333333 5.333333333333333 0 0 0 5.333333333333333 -5.333333333333333v-23.46666666666667a2.5599999999999996 2.5599999999999996 0 0 0 -1.2799999999999998 -2.2399999999999998 2.453333333333333 2.453333333333333 0 0 0 -2.5599999999999996 0 114.34666666666666 114.34666666666666 0 0 1 -52.16 12.373333333333331Z" fill="#ffffff" stroke-width="10.6667"></path>
    <path d="m237.9733333333333 202.02666666666667 -44.05333333333333 -44.05333333333333a2.5599999999999996 2.5599999999999996 0 0 1 0 -3.413333333333333 98.77333333333333 98.77333333333333 0 1 0 -25.706666666666667 25.706666666666667 2.5599999999999996 2.5599999999999996 0 0 1 3.413333333333333 0l44.05333333333333 44.05333333333333a16 16 0 0 0 22.613333333333333 0 15.893333333333333 15.893333333333333 0 0 0 -0.31999999999999995 -22.29333333333333ZM90.88 80.74666666666667a2.453333333333333 2.453333333333333 0 0 1 1.7066666666666666 -1.7066666666666666 2.3466666666666667 2.3466666666666667 0 0 1 2.2399999999999998 0 57.28 57.28 0 0 0 30.506666666666664 8.746666666666666 62.08 62.08 0 0 0 10.666666666666666 -1.0666666666666667 1.0666666666666667 1.0666666666666667 0 0 1 0.96 0 1.2799999999999998 1.2799999999999998 0 0 1 0 0.8533333333333333 24 24 0 0 1 -48 0 22.93333333333333 22.93333333333333 0 0 1 1.92 -6.826666666666666ZM34.666666666666664 98.77333333333333a77.44 77.44 0 1 1 130.66666666666666 56.213333333333324 2.1333333333333333 2.1333333333333333 0 0 1 -1.92 0.6399999999999999 2.453333333333333 2.453333333333333 0 0 1 -1.7066666666666666 -1.0666666666666667 58.02666666666667 58.02666666666667 0 0 0 -25.92 -22.08 2.6666666666666665 2.6666666666666665 0 0 1 0 -4.8 45.22666666666667 45.22666666666667 0 1 0 -43.519999999999996 0 2.5599999999999996 2.5599999999999996 0 0 1 1.3866666666666667 2.453333333333333 2.6666666666666665 2.6666666666666665 0 0 1 -1.7066666666666666 2.3466666666666667 49.6 49.6 0 0 0 -26.666666666666664 23.46666666666667 2.453333333333333 2.453333333333333 0 0 1 -1.8133333333333335 1.3866666666666667 2.6666666666666665 2.6666666666666665 0 0 1 -2.3466666666666667 0 77.44 77.44 0 0 1 -26.453333333333333 -58.56Z" fill="#ffffff" stroke-width="10.6667"></path>
  </g>
</svg>