<svg xmlns="http://www.w3.org/2000/svg" id="Job-Responsibility-Bag-Hand--Streamline-Ultimate" width="256" height="256" viewBox="0 0 256 256"><desc>Job Responsibility Bag Hand Streamline Icon: https://streamlinehq.com</desc><g id="Job-Responsibility-Bag-Hand--Streamline-Ultimate.svg"><g><path fill="#fff" stroke-width="10.667" d="M256 72.96V57.493333333333325a23.46666666666667 23.46666666666667 0 0 0 -23.46666666666667 -23.46666666666667h-28.69333333333333l-2.88 -17.493333333333332A19.733333333333334 19.733333333333334 0 0 0 181.33333333333331 0h-38.72a19.733333333333334 19.733333333333334 0 0 0 -19.52 16.53333333333333l-2.88 17.493333333333332H91.52a23.46666666666667 23.46666666666667 0 0 0 -23.46666666666667 23.46666666666667v15.466666666666665Zm-117.33333333333333 -53.33333333333333a3.733333333333333 3.733333333333333 0 0 1 3.733333333333333 -3.093333333333333H181.33333333333331a3.733333333333333 3.733333333333333 0 0 1 3.733333333333333 3.093333333333333l2.453333333333333 14.933333333333332h-51.199999999999996Z"/><path fill="#fff" stroke-width="10.667" d="M170.02666666666664 88.96V104.53333333333333a8 8 0 0 1 -16 0V88.96H68.05333333333333v50.773333333333326a23.46666666666667 23.46666666666667 0 0 0 23.46666666666667 23.46666666666667H232.53333333333333a23.46666666666667 23.46666666666667 0 0 0 23.46666666666667 -23.46666666666667V88.96Z"/></g><path fill="#fff" stroke-width="10.667" d="m183.36 201.49333333333334 -32 10.666666666666666A2.1333333333333333 2.1333333333333333 0 0 0 149.33333333333331 213.33333333333331a18.346666666666664 18.346666666666664 0 0 1 -16.746666666666666 10.666666666666666H96a4.586666666666666 4.586666666666666 0 0 1 0 -9.173333333333332h36.69333333333333a9.173333333333332 9.173333333333332 0 0 0 0 -18.346666666666664h-32A64.96 64.96 0 0 0 64 183.14666666666668H45.33333333333333a36.906666666666666 36.906666666666666 0 0 0 -16.426666666666666 3.9466666666666663L1.2799999999999998 200.8533333333333A2.453333333333333 2.453333333333333 0 0 0 0 202.66666666666666v49.38666666666666a2.2399999999999998 2.2399999999999998 0 0 0 1.1733333333333333 2.0266666666666664 2.3466666666666667 2.3466666666666667 0 0 0 2.3466666666666667 0l29.439999999999998 -18.346666666666664a9.386666666666667 9.386666666666667 0 0 1 7.893333333333333 -1.0666666666666667c91.30666666666667 30.826666666666668 60.8 30.93333333333333 163.73333333333332 -21.333333333333332a4.693333333333333 4.693333333333333 0 0 0 0.8533333333333333 -7.893333333333333 23.146666666666665 23.146666666666665 0 0 0 -22.08 -3.9466666666666663Z"/></g></svg>