<svg xmlns="http://www.w3.org/2000/svg" viewBox="0 0 256 256" id="Keyboard-Wireless--Streamline-Ultimate" height="256" width="256">
  <desc>
    Keyboard Wireless Streamline Icon: https://streamlinehq.com
  </desc>
  <g id="Keyboard-Wireless--Streamline-Ultimate.svg">
    <path d="M72.74666666666667 51.413333333333334a101.22666666666666 101.22666666666666 0 0 1 110.50666666666666 0 10.666666666666666 10.666666666666666 0 0 0 14.826666666666664 -2.986666666666667 10.666666666666666 10.666666666666666 0 0 0 -2.986666666666667 -14.719999999999999 120.64 120.64 0 0 0 -134.18666666666667 0 10.666666666666666 10.666666666666666 0 0 0 -2.986666666666667 14.719999999999999 10.666666666666666 10.666666666666666 0 0 0 14.826666666666664 2.986666666666667Z" fill="#ffffff" stroke-width="10.6667"></path>
    <path d="M79.67999999999999 70.61333333333333A10.666666666666666 10.666666666666666 0 0 0 76.8 85.33333333333333a10.666666666666666 10.666666666666666 0 0 0 14.719999999999999 2.88 66.98666666666666 66.98666666666666 0 0 1 72.96 0 10.026666666666666 10.026666666666666 0 0 0 5.866666666666667 1.8133333333333335A10.666666666666666 10.666666666666666 0 0 0 179.2 85.33333333333333a10.666666666666666 10.666666666666666 0 0 0 -2.88 -14.826666666666664 88.64 88.64 0 0 0 -96.64 0.10666666666666666Z" fill="#ffffff" stroke-width="10.6667"></path>
    <path d="M229.33333333333331 125.33333333333333h-202.66666666666666a26.666666666666664 26.666666666666664 0 0 0 -26.666666666666664 26.666666666666664v64a26.666666666666664 26.666666666666664 0 0 0 26.666666666666664 26.666666666666664h202.66666666666666a26.666666666666664 26.666666666666664 0 0 0 26.666666666666664 -26.666666666666664v-64a26.666666666666664 26.666666666666664 0 0 0 -26.666666666666664 -26.666666666666664Zm-2.6666666666666665 80h-5.333333333333333a5.333333333333333 5.333333333333333 0 0 1 0 -10.666666666666666h5.333333333333333a5.333333333333333 5.333333333333333 0 0 1 0 10.666666666666666Zm0 -32h-5.333333333333333a5.333333333333333 5.333333333333333 0 0 1 0 -10.666666666666666h5.333333333333333a5.333333333333333 5.333333333333333 0 0 1 0 10.666666666666666Zm-157.33333333333331 21.333333333333332h117.33333333333333a5.333333333333333 5.333333333333333 0 0 1 0 10.666666666666666h-117.33333333333333a5.333333333333333 5.333333333333333 0 0 1 0 -10.666666666666666Zm-8 -21.333333333333332a5.333333333333333 5.333333333333333 0 0 1 0 -10.666666666666666h5.333333333333333a5.333333333333333 5.333333333333333 0 0 1 0 10.666666666666666Zm26.666666666666664 -5.333333333333333a5.333333333333333 5.333333333333333 0 0 1 5.333333333333333 -5.333333333333333h5.333333333333333a5.333333333333333 5.333333333333333 0 0 1 0 10.666666666666666h-5.333333333333333a5.333333333333333 5.333333333333333 0 0 1 -5.333333333333333 -5.333333333333333Zm32 0a5.333333333333333 5.333333333333333 0 0 1 5.333333333333333 -5.333333333333333h5.333333333333333a5.333333333333333 5.333333333333333 0 0 1 0 10.666666666666666h-5.333333333333333a5.333333333333333 5.333333333333333 0 0 1 -5.333333333333333 -5.333333333333333Zm32 0a5.333333333333333 5.333333333333333 0 0 1 5.333333333333333 -5.333333333333333h5.333333333333333a5.333333333333333 5.333333333333333 0 0 1 0 10.666666666666666h-5.333333333333333a5.333333333333333 5.333333333333333 0 0 1 -5.333333333333333 -5.333333333333333Zm37.44 5.333333333333333a5.333333333333333 5.333333333333333 0 0 1 0 -10.666666666666666h5.226666666666667a5.333333333333333 5.333333333333333 0 0 1 0 10.666666666666666Zm-160 -10.666666666666666h5.333333333333333a5.333333333333333 5.333333333333333 0 0 1 0 10.666666666666666h-5.333333333333333a5.333333333333333 5.333333333333333 0 0 1 0 -10.666666666666666Zm0 32h5.333333333333333a5.333333333333333 5.333333333333333 0 0 1 0 10.666666666666666h-5.333333333333333a5.333333333333333 5.333333333333333 0 0 1 0 -10.666666666666666Z" fill="#ffffff" stroke-width="10.6667"></path>
  </g>
</svg>