<svg xmlns="http://www.w3.org/2000/svg" id="Keyboard-Eject--Streamline-Ultimate" width="256" height="256" viewBox="0 0 256 256"><desc>Keyboard Eject Streamline Icon: https://streamlinehq.com</desc><path fill="#fff" stroke-width="10.667" d="M211.51999999999998 0H44.48A44.693333333333335 44.693333333333335 0 0 0 0 44.48v167.04A44.693333333333335 44.693333333333335 0 0 0 44.48 256h167.04A44.693333333333335 44.693333333333335 0 0 0 256 211.51999999999998V44.48A44.693333333333335 44.693333333333335 0 0 0 211.51999999999998 0ZM56.42666666666666 119.03999999999999l67.73333333333332 -72.21333333333332a5.226666666666667 5.226666666666667 0 0 1 7.68 0l67.73333333333332 72.21333333333332a5.226666666666667 5.226666666666667 0 0 1 0.96 5.76 5.119999999999999 5.119999999999999 0 0 1 -4.8 3.1999999999999997H60.266666666666666a5.119999999999999 5.119999999999999 0 0 1 -4.8 -3.1999999999999997 5.226666666666667 5.226666666666667 0 0 1 0.96 -5.76ZM208 192a5.333333333333333 5.333333333333333 0 0 1 -5.333333333333333 5.333333333333333H53.33333333333333a5.333333333333333 5.333333333333333 0 0 1 -5.333333333333333 -5.333333333333333v-32a5.333333333333333 5.333333333333333 0 0 1 5.333333333333333 -5.333333333333333h149.33333333333331a5.333333333333333 5.333333333333333 0 0 1 5.333333333333333 5.333333333333333Z"/></svg>