<svg xmlns="http://www.w3.org/2000/svg" id="Keyboard-Asterisk-1--Streamline-Ultimate" width="256" height="256" viewBox="0 0 256 256"><desc>Keyboard Asterisk 1 Streamline Icon: https://streamlinehq.com</desc><path fill="#fff" stroke-width="10.667" d="M7.359999999999999 178.13333333333333a14.186666666666667 14.186666666666667 0 0 0 6.826666666666666 26.666666666666664A14.933333333333332 14.933333333333332 0 0 0 21.333333333333332 202.66666666666666l88.74666666666667 -48.74666666666667a2.453333333333333 2.453333333333333 0 0 1 2.5599999999999996 0 2.7733333333333334 2.7733333333333334 0 0 1 1.3866666666666667 2.3466666666666667v85.33333333333333a14.186666666666667 14.186666666666667 0 1 0 28.373333333333335 0v-85.33333333333333a2.7733333333333334 2.7733333333333334 0 0 1 1.3866666666666667 -2.3466666666666667 2.453333333333333 2.453333333333333 0 0 1 2.5599999999999996 0L234.66666666666666 202.66666666666666a14.933333333333332 14.933333333333332 0 0 0 6.933333333333334 1.8133333333333335 14.186666666666667 14.186666666666667 0 0 0 6.826666666666666 -26.666666666666664l-86.93333333333334 -47.78666666666667A2.88 2.88 0 0 1 160 128a2.7733333333333334 2.7733333333333334 0 0 1 1.2799999999999998 -2.3466666666666667l87.35999999999999 -47.78666666666667A14.293333333333333 14.293333333333333 0 0 0 234.66666666666666 53.33333333333333l-88.53333333333333 48.42666666666666a2.453333333333333 2.453333333333333 0 0 1 -2.5599999999999996 0 2.453333333333333 2.453333333333333 0 0 1 -1.3866666666666667 -2.2399999999999998v-85.33333333333333a14.186666666666667 14.186666666666667 0 1 0 -28.373333333333335 0v85.33333333333333a2.453333333333333 2.453333333333333 0 0 1 -1.3866666666666667 2.2399999999999998 2.453333333333333 2.453333333333333 0 0 1 -2.5599999999999996 0L21.333333333333332 53.33333333333333A14.293333333333333 14.293333333333333 0 0 0 7.359999999999999 77.86666666666666l86.93333333333334 47.78666666666667A2.7733333333333334 2.7733333333333334 0 0 1 96 128a2.88 2.88 0 0 1 -1.2799999999999998 2.3466666666666667Z"/></svg>