<svg xmlns="http://www.w3.org/2000/svg" id="Keyboard-Option--Streamline-Ultimate" width="256" height="256" viewBox="0 0 256 256"><desc>Keyboard Option Streamline Icon: https://streamlinehq.com</desc><path fill="#fff" stroke-width="10.667" d="M256 44.48A44.693333333333335 44.693333333333335 0 0 0 211.51999999999998 0H44.48A44.693333333333335 44.693333333333335 0 0 0 0 44.48v167.04A44.693333333333335 44.693333333333335 0 0 0 44.48 256h167.04A44.693333333333335 44.693333333333335 0 0 0 256 211.51999999999998ZM207.04 186.66666666666666h-37.33333333333333a21.333333333333332 21.333333333333332 0 0 1 -15.04 -6.293333333333333l-65.28 -65.28a10.666666666666666 10.666666666666666 0 0 0 -7.573333333333332 -3.093333333333333H47.04a10.666666666666666 10.666666666666666 0 0 1 0 -21.333333333333332h39.25333333333333a21.333333333333332 21.333333333333332 0 0 1 15.04 6.293333333333333l65.28 65.28a10.666666666666666 10.666666666666666 0 0 0 7.573333333333332 3.093333333333333h32.85333333333333a10.666666666666666 10.666666666666666 0 0 1 0 21.333333333333332Zm0 -74.66666666666666H154.66666666666666a10.666666666666666 10.666666666666666 0 0 1 0 -21.333333333333332h52.373333333333335a10.666666666666666 10.666666666666666 0 0 1 0 21.333333333333332Z"/></svg>