<svg xmlns="http://www.w3.org/2000/svg" viewBox="0 0 256 256" id="Keyboard--Streamline-Ultimate" height="256" width="256">
  <desc>
    Keyboard Streamline Icon: https://streamlinehq.com
  </desc>
  <path d="M229.33333333333331 138.66666666666666H50.666666666666664a2.6666666666666665 2.6666666666666665 0 0 1 -2.6666666666666665 -2.6666666666666665v-2.6666666666666665a21.333333333333332 21.333333333333332 0 0 1 21.333333333333332 -21.333333333333332h138.66666666666666a48 48 0 0 0 0 -96H138.66666666666666a5.333333333333333 5.333333333333333 0 0 1 -5.333333333333333 -5.333333333333333 10.666666666666666 10.666666666666666 0 0 0 -21.333333333333332 0A26.666666666666664 26.666666666666664 0 0 0 138.66666666666666 37.33333333333333h69.33333333333333a26.666666666666664 26.666666666666664 0 0 1 0 53.33333333333333h-138.66666666666666a42.666666666666664 42.666666666666664 0 0 0 -42.666666666666664 42.666666666666664v2.7733333333333334a2.6666666666666665 2.6666666666666665 0 0 1 -2.453333333333333 2.6666666666666665A26.77333333333333 26.77333333333333 0 0 0 0 165.33333333333331v64A26.666666666666664 26.666666666666664 0 0 0 26.666666666666664 256h202.66666666666666a26.666666666666664 26.666666666666664 0 0 0 26.666666666666664 -26.666666666666664v-64a26.666666666666664 26.666666666666664 0 0 0 -26.666666666666664 -26.666666666666664Zm-2.6666666666666665 80h-5.333333333333333a5.333333333333333 5.333333333333333 0 0 1 0 -10.666666666666666h5.333333333333333a5.333333333333333 5.333333333333333 0 0 1 0 10.666666666666666Zm0 -32h-5.333333333333333a5.333333333333333 5.333333333333333 0 0 1 0 -10.666666666666666h5.333333333333333a5.333333333333333 5.333333333333333 0 0 1 0 10.666666666666666Zm-157.33333333333331 21.333333333333332h117.33333333333333a5.333333333333333 5.333333333333333 0 0 1 0 10.666666666666666h-117.33333333333333a5.333333333333333 5.333333333333333 0 0 1 0 -10.666666666666666Zm-8 -21.333333333333332a5.333333333333333 5.333333333333333 0 0 1 0 -10.666666666666666h5.333333333333333a5.333333333333333 5.333333333333333 0 0 1 0 10.666666666666666Zm26.666666666666664 -5.333333333333333a5.333333333333333 5.333333333333333 0 0 1 5.333333333333333 -5.333333333333333h5.333333333333333a5.333333333333333 5.333333333333333 0 0 1 0 10.666666666666666h-5.333333333333333a5.333333333333333 5.333333333333333 0 0 1 -5.333333333333333 -5.333333333333333Zm32 0a5.333333333333333 5.333333333333333 0 0 1 5.333333333333333 -5.333333333333333h5.333333333333333a5.333333333333333 5.333333333333333 0 0 1 0 10.666666666666666h-5.333333333333333a5.333333333333333 5.333333333333333 0 0 1 -5.333333333333333 -5.333333333333333Zm32 0a5.333333333333333 5.333333333333333 0 0 1 5.333333333333333 -5.333333333333333h5.333333333333333a5.333333333333333 5.333333333333333 0 0 1 0 10.666666666666666h-5.333333333333333a5.333333333333333 5.333333333333333 0 0 1 -5.333333333333333 -5.333333333333333Zm37.44 5.333333333333333a5.333333333333333 5.333333333333333 0 0 1 0 -10.666666666666666h5.226666666666667a5.333333333333333 5.333333333333333 0 0 1 0 10.666666666666666Zm-154.7733333333333 -10.666666666666666a5.333333333333333 5.333333333333333 0 0 1 0 10.666666666666666h-5.333333333333333a5.333333333333333 5.333333333333333 0 0 1 0 -10.666666666666666Zm-5.333333333333333 32h5.333333333333333a5.333333333333333 5.333333333333333 0 0 1 0 10.666666666666666h-5.333333333333333a5.333333333333333 5.333333333333333 0 0 1 0 -10.666666666666666Z" fill="#ffffff" stroke-width="10.6667"></path>
</svg>