<svg xmlns="http://www.w3.org/2000/svg" viewBox="0 0 256 256" id="Keyhole-Square--Streamline-Ultimate" height="256" width="256">
  <desc>
    Keyhole Square Streamline Icon: https://streamlinehq.com
  </desc>
  <path d="M233.17333333333332 0H22.826666666666668A22.826666666666668 22.826666666666668 0 0 0 0 22.826666666666668v210.34666666666664A22.826666666666668 22.826666666666668 0 0 0 22.826666666666668 256h210.34666666666664A22.826666666666668 22.826666666666668 0 0 0 256 233.17333333333332V22.826666666666668A22.826666666666668 22.826666666666668 0 0 0 233.17333333333332 0ZM154.66666666666666 191.25333333333333a5.226666666666667 5.226666666666667 0 0 1 -5.226666666666667 6.079999999999999h-45.86666666666666a5.333333333333333 5.333333333333333 0 0 1 -5.226666666666667 -6.293333333333333l13.44 -62.50666666666667a36.586666666666666 36.586666666666666 0 0 1 7.359999999999999 -68.90666666666667A37.33333333333333 37.33333333333333 0 0 1 165.33333333333331 96a36.8 36.8 0 0 1 -21.333333333333332 33.06666666666666Z" fill="#ffffff" stroke-width="10.6667"></path>
</svg>