<svg xmlns="http://www.w3.org/2000/svg" id="Kindle-Hold--Streamline-Ultimate" width="256" height="256" viewBox="0 0 256 256"><desc>Kindle Hold Streamline Icon: https://streamlinehq.com</desc><g id="Kindle-Hold--Streamline-Ultimate.svg"><path fill="#fff" stroke-width="10.667" d="M133.33333333333331 130.66666666666666h-74.66666666666666a8 8 0 0 0 0 16h74.66666666666666a8 8 0 0 0 0 -16Z"/><path fill="#fff" stroke-width="10.667" d="M133.33333333333331 93.33333333333333h-74.66666666666666a8 8 0 0 0 0 16h74.66666666666666a8 8 0 0 0 0 -16Z"/><path fill="#fff" stroke-width="10.667" d="M58.666666666666664 56a8 8 0 0 0 0 16H117.33333333333333a8 8 0 0 0 0 -16Z"/><path fill="#fff" stroke-width="10.667" d="m255.04 244.16 -22.72 -42.666666666666664a2.2399999999999998 2.2399999999999998 0 0 1 0 -1.2799999999999998V160c0 -19.413333333333334 -14.08 -29.973333333333333 -30.506666666666664 -42.666666666666664l-8.426666666666666 -6.506666666666666a2.7733333333333334 2.7733333333333334 0 0 1 -1.0666666666666667 -2.1333333333333333V16A16 16 0 0 0 176 0h-160A16 16 0 0 0 0 16V213.33333333333331a16 16 0 0 0 16 16h145.38666666666666a2.88 2.88 0 0 1 2.3466666666666667 1.2799999999999998 160 160 0 0 0 16.96 22.72 8 8 0 0 0 11.946666666666667 -10.666666666666666A89.6 89.6 0 0 1 173.33333333333331 213.33333333333331v-10.666666666666666a7.466666666666666 7.466666666666666 0 0 0 -1.92 -5.119999999999999l-18.666666666666664 -22.186666666666667a7.786666666666666 7.786666666666666 0 0 1 11.413333333333334 -10.666666666666666L192 192a8 8 0 0 0 10.666666666666666 -10.666666666666666l-10.666666666666666 -10.666666666666666a2.7733333333333334 2.7733333333333334 0 0 1 -0.7466666666666667 -1.8133333333333335v-33.06666666666666a2.5599999999999996 2.5599999999999996 0 0 1 1.4933333333333334 -2.3466666666666667 2.88 2.88 0 0 1 2.7733333333333334 0c13.333333333333332 10.666666666666666 19.733333333333334 16.32 19.733333333333334 26.24v43.413333333333334a7.786666666666666 7.786666666666666 0 0 0 0.96 3.733333333333333l24 44.693333333333335a8.106666666666666 8.106666666666666 0 0 0 10.666666666666666 3.3066666666666666 8 8 0 0 0 4.16 -10.666666666666666Zm-110.93333333333334 -92.58666666666666a24 24 0 0 0 -5.4399999999999995 31.04 2.6666666666666665 2.6666666666666665 0 0 1 0 2.6666666666666665 2.7733333333333334 2.7733333333333334 0 0 1 -2.3466666666666667 1.3866666666666667H32a10.666666666666666 10.666666666666666 0 0 1 -10.666666666666666 -10.666666666666666V32a10.666666666666666 10.666666666666666 0 0 1 10.666666666666666 -10.666666666666666h128a10.666666666666666 10.666666666666666 0 0 1 10.666666666666666 10.666666666666666v113.6a2.7733333333333334 2.7733333333333334 0 0 1 -1.1733333333333333 2.2399999999999998 3.1999999999999997 3.1999999999999997 0 0 1 -2.453333333333333 0 23.57333333333333 23.57333333333333 0 0 0 -22.93333333333333 3.733333333333333Z"/></g></svg>