<svg xmlns="http://www.w3.org/2000/svg" id="Kitchenware-Spatula-1--Streamline-Ultimate" width="256" height="256" viewBox="0 0 256 256"><desc>Kitchenware Spatula 1 Streamline Icon: https://streamlinehq.com</desc><g id="Kitchenware-Spatula-1--Streamline-Ultimate.svg"><g><path fill="#fff" stroke-width="10.667" d="M38.61333333333333 199.25333333333333a5.4399999999999995 5.4399999999999995 0 0 0 -7.573333333333332 0L5.333333333333333 225.06666666666666a17.919999999999998 17.919999999999998 0 0 0 0 25.599999999999998 17.919999999999998 17.919999999999998 0 0 0 25.599999999999998 0l25.813333333333333 -25.706666666666667a5.4399999999999995 5.4399999999999995 0 0 0 0 -7.573333333333332Z"/><path fill="#fff" stroke-width="10.667" d="m118.72 155.41333333333333 -18.133333333333333 -18.133333333333333a5.333333333333333 5.333333333333333 0 0 0 -7.466666666666666 0l-43.199999999999996 43.199999999999996a5.4399999999999995 5.4399999999999995 0 0 0 0 7.466666666666666l18.133333333333333 18.133333333333333a5.333333333333333 5.333333333333333 0 0 0 7.466666666666666 0l43.199999999999996 -43.199999999999996a5.4399999999999995 5.4399999999999995 0 0 0 0 -7.466666666666666Z"/></g><path fill="#fff" stroke-width="10.667" d="M249.70666666666665 93.01333333333334A21.333333333333332 21.333333333333332 0 0 0 256 77.86666666666666a21.333333333333332 21.333333333333332 0 0 0 -6.293333333333333 -15.04l-56.53333333333333 -56.53333333333333A21.333333333333332 21.333333333333332 0 0 0 178.13333333333333 0a21.333333333333332 21.333333333333332 0 0 0 -15.146666666666665 6.293333333333333L113.81333333333333 55.46666666666667a21.333333333333332 21.333333333333332 0 0 0 -6.079999999999999 17.706666666666663l5.653333333333333 46.29333333333333a26.453333333333333 26.453333333333333 0 0 0 23.146666666666665 23.146666666666665l46.29333333333333 5.653333333333333a21.333333333333332 21.333333333333332 0 0 0 17.706666666666663 -6.079999999999999ZM136.10666666666665 78.93333333333334a8.213333333333333 8.213333333333333 0 0 1 -5.653333333333333 -2.3466666666666667 7.893333333333333 7.893333333333333 0 0 1 0 -11.306666666666667l30.186666666666667 -30.186666666666667a8 8 0 0 1 11.306666666666667 11.306666666666667l-30.186666666666667 30.186666666666667a8.426666666666666 8.426666666666666 0 0 1 -5.653333333333333 2.3466666666666667ZM149.33333333333331 114.24000000000001a8.426666666666666 8.426666666666666 0 0 1 -5.653333333333333 -2.3466666666666667 8.213333333333333 8.213333333333333 0 0 1 0 -11.413333333333334l53.33333333333333 -52.8a8 8 0 0 1 11.306666666666667 0 7.893333333333333 7.893333333333333 0 0 1 0 11.306666666666667l-52.693333333333335 53.33333333333333a8.426666666666666 8.426666666666666 0 0 1 -6.293333333333333 1.92Zm71.14666666666666 -18.88 -30.186666666666667 30.186666666666667a7.786666666666666 7.786666666666666 0 0 1 -5.653333333333333 2.3466666666666667 7.893333333333333 7.893333333333333 0 0 1 -5.653333333333333 -2.3466666666666667 8 8 0 0 1 0 -11.306666666666667l30.186666666666667 -30.186666666666667a8 8 0 0 1 11.306666666666667 11.306666666666667Z"/></g></svg>