<svg xmlns="http://www.w3.org/2000/svg" id="Knives-Set--Streamline-Ultimate" width="256" height="256" viewBox="0 0 256 256"><desc>Knives Set Streamline Icon: https://streamlinehq.com</desc><g id="Knives-Set--Streamline-Ultimate.svg"><path fill="#fff" stroke-width="10.667" d="M137.3589333333333 76.37546666666665c2.037333333333333 2.0533333333333332 5.357866666666666 2.0533333333333332 7.3952 0l46.349866666666664 -46.349866666666664c9.115733333333333 -7.844266666666667 6.321066666666667 -22.61653333333333 -5.031466666666667 -26.587733333333333 -6.090666666666666 -2.1311999999999998 -12.863999999999999 -0.2997333333333333 -17.049599999999998 4.6112l-46.349866666666664 46.3488c-1.9978666666666665 2.0608 -1.9978666666666665 5.335466666666666 0 7.3952Z"/><path fill="#fff" stroke-width="10.667" d="M248.38933333333333 70.75093333333334c-6.075733333333333 -6.150399999999999 -16.005333333333333 -6.150399999999999 -22.081066666666665 0l-47.808 47.80693333333333c-1.9968 2.0608 -1.9968 5.335466666666666 0 7.3952l14.685866666666666 14.685866666666666c2.037333333333333 2.0544 5.358933333333333 2.0544 7.3952 0l47.808 -47.80693333333333c6.150399999999999 -6.075733333333333 6.150399999999999 -16.005333333333333 0 -22.081066666666665Z"/><path fill="#fff" stroke-width="10.667" d="M118.6112 123.14133333333332c1.9477333333333333 1.7738666666666667 4.925866666666666 1.7738666666666667 6.874666666666666 0l16.247466666666668 -15.52c1.0666666666666667 -0.9535999999999999 1.6736 -2.3178666666666663 1.6671999999999998 -3.749333333333333 -0.004266666666666667 -1.4069333333333331 -0.5653333333333332 -2.7551999999999994 -1.5626666666666664 -3.749333333333333l-29.268266666666666 -29.57973333333333c-1.0154666666666667 -0.9493333333333333 -2.3583999999999996 -1.472 -3.749333333333333 -1.458133333333333 -1.3813333333333333 -0.017066666666666667 -2.7050666666666663 0.5504 -3.6448 1.5615999999999999L80.69866666666667 95.22773333333333c-1.2458666666666667 1.2725333333333333 -0.8746666666666667 3.392 0.7285333333333333 4.165333333333333 13.298133333333332 6.403199999999999 25.7824 14.376533333333334 37.184 23.748266666666666Z"/><path fill="#fff" stroke-width="10.667" d="M168.1888 133.24373333333332c-1.0272 -0.9312 -2.3626666666666667 -1.4506666666666668 -3.749333333333333 -1.458133333333333 -1.3589333333333333 -0.007466666666666667 -2.6666666666666665 0.5152 -3.6448 1.458133333333333l-12.811733333333333 12.811733333333333c-1.7749333333333333 1.9477333333333333 -1.7749333333333333 4.925866666666666 0 6.8736 8.701866666666666 11.769599999999999 15.9744 24.5312 21.664 38.017066666666665 0.368 0.7487999999999999 1.0592 1.2864 1.8752 1.458133333333333 0.8202666666666666 0.17279999999999998 1.6725333333333332 -0.05973333333333333 2.2912 -0.6250666666666667l23.539199999999997 -21.664c1.0666666666666667 -0.9535999999999999 1.6736 -2.3189333333333333 1.6671999999999998 -3.749333333333333 -0.004266666666666667 -1.408 -0.5653333333333332 -2.756266666666667 -1.5626666666666664 -3.749333333333333Z"/><path fill="#fff" stroke-width="10.667" d="M14.142933333333334 97.20639999999999c-2.866133333333333 -0.21333333333333332 -5.692799999999999 0.7658666666666667 -7.8111999999999995 2.708266666666667 -2.144 1.9871999999999999 -3.3525333333333336 4.784 -3.333333333333333 7.706666666666667v135.40266666666668c0 5.752533333333333 4.663466666666666 10.416 10.416 10.416h144.672c3.0271999999999997 0.025599999999999998 5.916799999999999 -1.2671999999999999 7.915733333333333 -3.541333333333333 1.9711999999999998 -2.2976 2.8458666666666663 -5.339733333333333 2.3957333333333333 -8.332799999999999C157.60426666666666 163.0144 93.23733333333332 102.77546666666666 14.142933333333334 97.20639999999999Z"/></g></svg>