<svg xmlns="http://www.w3.org/2000/svg" id="Lab-Tube--Streamline-Ultimate" width="256" height="256" viewBox="0 0 256 256"><desc>Lab Tube Streamline Icon: https://streamlinehq.com</desc><g id="Lab-Tube--Streamline-Ultimate.svg"><path fill="#fff" stroke-width="10.667" d="M42.64853333333333 179.57866666666666c-19.511466666666664 25.49973333333333 -19.511466666666664 35.5136 -19.511466666666664 38.7136 -2.4202666666666666 24.517333333333333 22.606933333333334 42.45973333333333 45.0496 32.297599999999996 12.493866666666666 -5.6575999999999995 19.994666666666667 -18.648533333333333 18.6464 -32.297599999999996 0 -3.1999999999999997 0 -13.213866666666664 -19.511466666666664 -38.7136 -6.436266666666667 -7.6693333333333324 -18.2368 -7.6693333333333324 -24.673066666666664 0Z"/><path fill="#fff" stroke-width="10.667" d="M231.98293333333334 35.77173333333333C225.96266666666668 9.445333333333332 197.33759999999998 -4.768 172.7264 6.348799999999999L67.2192 54.1472c-7.432533333333333 3.3109333333333333 -15.5072 4.933333333333334 -23.6416 4.748799999999999 -11.346133333333334 -0.30293333333333333 -19.201066666666666 11.234133333333332 -14.762666666666664 21.68l27.874133333333333 61.94133333333333c2.5791999999999997 5.601066666666666 8.1824 9.189333333333334 14.348799999999999 9.188266666666667 4.6272 0.03733333333333333 9.026133333333332 -2.0106666666666664 11.975466666666666 -5.575466666666667 5.2885333333333335 -6.157866666666667 11.883733333333334 -11.060266666666665 19.3056 -14.349866666666665l104.3712 -46.6624c19.19253333333333 -8.235733333333332 29.813333333333333 -28.9568 25.2928 -49.34613333333333Zm-33.757866666666665 30.247466666666668 -5.9872 2.6847999999999996c-2.5951999999999997 1.1626666666666665 -5.6416 0.008533333333333334 -6.813866666666667 -2.5813333333333333l-2.6847999999999996 -5.988266666666666c-3.2970666666666664 -7.271466666666666 -13.230933333333333 -8.245333333333333 -17.8784 -1.7535999999999998 -2.1578666666666666 3.0133333333333328 -2.5439999999999996 6.948266666666666 -1.0133333333333332 10.322133333333333l2.683733333333333 5.884799999999999c0.5653333333333332 1.2469333333333332 0.5653333333333332 2.676266666666667 0 3.9232 -0.4202666666666666 1.3141333333333334 -1.4037333333333333 2.373333333333333 -2.683733333333333 2.8906666666666667l-9.290666666666667 4.232533333333333c-1.2576 0.5162666666666667 -2.6666666666666665 0.5162666666666667 -3.9232 0 -1.2938666666666667 -0.4565333333333333 -2.3402666666666665 -1.4282666666666666 -2.8906666666666667 -2.683733333333333l-2.994133333333333 -6.6080000000000005c-3.243733333333333 -7.2544 -13.125333333333332 -8.276266666666666 -17.7856 -1.8399999999999999 -2.2442666666666664 3.0986666666666665 -2.5898666666666665 7.183999999999999 -0.9002666666666667 10.615466666666666l2.8906666666666667 6.606933333333332c1.1626666666666665 2.5951999999999997 0.0096 5.6416 -2.5802666666666667 6.813866666666667l-11.149866666666664 4.955733333333333c-2.5962666666666667 1.1029333333333333 -5.6 -0.035199999999999995 -6.813866666666667 -2.5813333333333333l-3.6128 -8.052266666666666c-3.7055999999999996 -7.0304 -13.632 -7.413333333333332 -17.867733333333334 -0.6890666666666667 -1.7248 2.738133333333333 -2.066133333333333 6.126933333333334 -0.9216 9.154133333333332l3.7162666666666664 8.362666666666666c1.1456 2.4288 0.19413333333333332 5.329066666666666 -2.1674666666666664 6.606933333333332 -3.608533333333333 2.0063999999999997 -7.060266666666667 4.283733333333333 -10.3232 6.813866666666667 -1.2245333333333333 1.0442666666666667 -2.88 1.4293333333333333 -4.439466666666666 1.0314666666666665 -1.5338666666666667 -0.4085333333333333 -2.8149333333333333 -1.4634666666666665 -3.5103999999999997 -2.8895999999999997L53.59146666666667 85.11786666666666c-0.6719999999999999 -1.4389333333333332 -0.6719999999999999 -3.102933333333333 0 -4.5418666666666665 0.7861333333333334 -1.3962666666666665 2.1450666666666667 -2.376533333333333 3.7162666666666664 -2.6847999999999996 6.299733333333333 -1.0346666666666666 12.441600000000001 -2.8735999999999997 18.273066666666665 -5.470933333333333l105.50719999999998 -47.48906666666666c12.867199999999999 -5.9328 27.923199999999998 1.5445333333333333 30.970666666666666 15.382399999999999 2.021333333333333 10.757333333333332 -3.7418666666666667 21.46666666666667 -13.833599999999999 25.705599999999997Z"/></g></svg>