<svg xmlns="http://www.w3.org/2000/svg" viewBox="0 0 256 256" id="Lab-Tube-Experiment--Streamline-Ultimate" height="256" width="256">
  <desc>
    Lab Tube Experiment Streamline Icon: https://streamlinehq.com
  </desc>
  <path d="M186.66666666666666 6.613333333333333A15.893333333333333 15.893333333333333 0 0 0 173.65333333333334 0H82.24A15.893333333333333 15.893333333333333 0 0 0 69.33333333333333 6.613333333333333 16.32 16.32 0 0 0 67.19999999999999 21.333333333333332 136.85333333333332 136.85333333333332 0 0 1 74.66666666666666 66.02666666666667V202.66666666666666a53.33333333333333 53.33333333333333 0 1 0 106.66666666666666 0V66.02666666666667A136.74666666666667 136.74666666666667 0 0 1 188.79999999999998 21.333333333333332a16.106666666666666 16.106666666666666 0 0 0 -2.1333333333333333 -14.719999999999999ZM103.03999999999999 157.22666666666666A13.44 13.44 0 1 1 116.47999999999999 170.66666666666666a13.333333333333332 13.333333333333332 0 0 1 -13.44 -13.44ZM137.81333333333333 224a13.333333333333332 13.333333333333332 0 1 1 0 -26.666666666666664 13.333333333333332 13.333333333333332 0 1 1 0 26.666666666666664Zm5.333333333333333 -96a13.226666666666667 13.226666666666667 0 0 1 -13.333333333333332 -13.226666666666667 13.44 13.44 0 0 1 13.333333333333332 -13.44 13.333333333333332 13.333333333333332 0 1 1 0 26.666666666666664Zm21.333333333333332 -100.05333333333334A157.76 157.76 0 0 0 160 66.02666666666667V80a5.333333333333333 5.333333333333333 0 0 1 -5.333333333333333 5.333333333333333h-53.33333333333333a5.333333333333333 5.333333333333333 0 0 1 -5.333333333333333 -5.333333333333333V66.02666666666667a161.70666666666665 161.70666666666665 0 0 0 -4.4799999999999995 -38.08 5.119999999999999 5.119999999999999 0 0 1 0.96 -4.586666666666666 5.226666666666667 5.226666666666667 0 0 1 4.053333333333333 -2.0266666666666664H160a5.333333333333333 5.333333333333333 0 0 1 5.119999999999999 6.613333333333333Z" fill="#ffffff" stroke-width="10.6667"></path>
</svg>