<svg xmlns="http://www.w3.org/2000/svg" viewBox="0 0 256 256" id="Laboratory-Drug-File--Streamline-Ultimate" height="256" width="256">
  <desc>
    Laboratory Drug File Streamline Icon: https://streamlinehq.com
  </desc>
  <g id="Laboratory-Drug-File--Streamline-Ultimate.svg">
    <path d="M128 85.33333333333333H64a8 8 0 0 0 0 16h64A8 8 0 0 0 128 85.33333333333333Z" fill="#ffffff" stroke-width="10.6667"></path>
    <path d="M128 123.2H64a8 8 0 1 0 0 16h64a8 8 0 1 0 0 -16Z" fill="#ffffff" stroke-width="10.6667"></path>
    <path d="M101.44 161.06666666666666H64a8 8 0 0 0 0 16h37.44a8 8 0 0 0 0 -16Z" fill="#ffffff" stroke-width="10.6667"></path>
    <path d="M91.52 224H37.33333333333333a5.333333333333333 5.333333333333333 0 0 1 -5.333333333333333 -5.333333333333333v-160a5.333333333333333 5.333333333333333 0 0 1 5.333333333333333 -5.333333333333333h138.66666666666666a5.333333333333333 5.333333333333333 0 0 1 5.333333333333333 5.333333333333333v12.373333333333331h19.946666666666665A25.599999999999998 25.599999999999998 0 0 1 213.33333333333331 74.66666666666666V37.33333333333333A16 16 0 0 0 197.33333333333331 21.333333333333332h-53.33333333333333a2.88 2.88 0 0 1 -2.2399999999999998 -1.2799999999999998 40.74666666666666 40.74666666666666 0 0 0 -70.18666666666667 0A2.88 2.88 0 0 1 69.33333333333333 21.333333333333332h-53.33333333333333A16 16 0 0 0 0 37.33333333333333v202.66666666666666A16 16 0 0 0 16 256h88.42666666666665a50.666666666666664 50.666666666666664 0 0 1 -12.906666666666666 -29.546666666666667 18.88 18.88 0 0 1 0 -2.453333333333333Z" fill="#ffffff" stroke-width="10.6667"></path>
    <path d="M246.9333333333333 200.42666666666665 209.28 160V97.70666666666666a8.106666666666666 8.106666666666666 0 0 0 -8 -8h-37.86666666666666a8 8 0 0 0 -8 8V160L117.33333333333333 200.42666666666665a41.70666666666666 41.70666666666666 0 0 0 -3.626666666666667 5.226666666666667 8.106666666666666 8.106666666666666 0 0 0 0 1.1733333333333333 28.479999999999997 28.479999999999997 0 0 0 -2.1333333333333333 4.906666666666666 0.7466666666666667 0.7466666666666667 0 0 1 0 0.5333333333333333 32.74666666666666 32.74666666666666 0 0 0 2.1333333333333333 23.786666666666665l0 0.6399999999999999a35.626666666666665 35.626666666666665 0 0 0 2.6666666666666665 4.266666666666667l0.8533333333333333 1.2799999999999998a38.29333333333333 38.29333333333333 0 0 0 4.16 4.16l0 0.6399999999999999a33.599999999999994 33.599999999999994 0 0 0 21.333333333333332 7.68h77.54666666666665a33.599999999999994 33.599999999999994 0 0 0 23.68 -9.173333333333332 33.06666666666666 33.06666666666666 0 0 0 10.666666666666666 -23.253333333333334s0 -0.8533333333333333 0 -1.3866666666666667a33.17333333333333 33.17333333333333 0 0 0 -7.68 -20.479999999999997Zm-75.52 -36.8V105.70666666666666h21.866666666666664v57.919999999999995a8.213333333333333 8.213333333333333 0 0 0 2.1333333333333333 5.546666666666667l26.88 28.479999999999997h-79.89333333333333l26.77333333333333 -28.479999999999997a8.32 8.32 0 0 0 2.2399999999999998 -5.546666666666667Z" fill="#ffffff" stroke-width="10.6667"></path>
  </g>
</svg>