<svg xmlns="http://www.w3.org/2000/svg" id="Labor-Hands-Action--Streamline-Ultimate" width="256" height="256" fill="none" viewBox="0 0 256 256"><desc>Labor Hands Action Streamline Icon: https://streamlinehq.com</desc><path fill="#fff" fill-rule="evenodd" stroke-width="10.667" d="M127.79733333333333 6.641066666666667c6.705066666666667 0 13.316266666666666 0.9045333333333333 19.671466666666667 2.6453333333333333v38.70186666666666c0 4.426666666666666 3.5893333333333333 8.014933333333332 8.014933333333332 8.014933333333332s8.015999999999998 -3.5882666666666663 8.015999999999998 -8.014933333333332V15.757866666666667c6.1728 3.3728 11.889066666666666 7.630933333333333 16.95253333333333 12.693333333333332 13.187199999999999 13.188266666666665 20.9184 30.814933333333332 21.73653333333333 49.36853333333333H53.40586666666667c0.8181333333333334 -18.5536 8.548266666666667 -36.18026666666667 21.7376 -49.36853333333333 5.0624 -5.0624 10.778666666666666 -9.320533333333334 16.9504 -12.692266666666665v32.22933333333333c0 4.426666666666666 3.5882666666666663 8.014933333333332 8.014933333333332 8.014933333333332s8.014933333333332 -3.5882666666666663 8.014933333333332 -8.014933333333332V9.287466666666667c6.3562666666666665 -1.7418666666666667 12.967466666666667 -2.6464 19.6736 -2.6464Zm74.29013333333333 87.2096h8.7712c4.426666666666666 0 8.015999999999998 3.5882666666666663 8.015999999999998 8.014933333333332s-3.5893333333333333 8.015999999999998 -8.015999999999998 8.015999999999998h-16.941866666666666l-5.794133333333333 14.270933333333334c-1.2277333333333331 3.022933333333333 -4.164266666666666 5.000533333333333 -7.4261333333333335 5.000533333333333H74.89599999999999c-3.2618666666666667 0 -6.199466666666667 -1.9776 -7.4261333333333335 -5.000533333333333l-5.794133333333333 -14.270933333333334H44.736c-4.426666666666666 0 -8.014933333333332 -3.5893333333333333 -8.014933333333332 -8.015999999999998 0 -4.426666666666666 3.5882666666666663 -8.014933333333332 8.014933333333332 -8.014933333333332h157.35146666666665ZM36.623999999999995 249.35893333333334l-22.709333333333333 -28.614399999999996C6.612266666666667 211.7088 2.6079999999999997 200.4544 2.5599999999999996 188.8384V130.13333333333333c0 -4.517333333333333 1.7941333333333331 -8.849066666666666 4.9887999999999995 -12.043733333333332 3.1936 -3.1936 7.5264 -4.9887999999999995 12.043733333333332 -4.9887999999999995s8.849066666666666 1.7952 12.042666666666666 4.9887999999999995c3.1946666666666665 3.1946666666666665 4.9887999999999995 7.5264 4.9887999999999995 12.043733333333332l0.1248 16.208c-0.1973333333333333 0.10986666666666667 -0.3925333333333333 0.2293333333333333 -0.5834666666666666 0.35839999999999994 -5.158399999999999 3.4677333333333333 -8.874666666666666 8.696533333333333 -10.452266666666667 14.708266666666667 -1.5786666666666664 6.011733333333333 -0.9109333333333334 12.391466666666666 1.877333333333333 17.946666666666665 0.09813333333333332 0.19413333333333332 0.20373333333333332 0.38506666666666667 0.31786666666666663 0.5717333333333333l17.148799999999998 28.16533333333333c2.3018666666666663 3.7802666666666664 7.234133333333333 4.978133333333333 11.014399999999998 2.676266666666667 3.781333333333333 -2.3018666666666663 4.980266666666666 -7.232 2.6773333333333333 -11.013333333333332l-16.95253333333333 -27.8432c-0.9365333333333333 -2.0085333333333333 -1.1423999999999999 -4.283733333333333 -0.5791999999999999 -6.433066666666666 0.5877333333333333 -2.2378666666666662 1.9722666666666666 -4.1845333333333325 3.8922666666666665 -5.476266666666666 0.13973333333333332 -0.09386666666666667 0.2752 -0.19093333333333332 0.4064 -0.2922666666666667 1.2341333333333333 -0.5898666666666667 2.5408 -1.0218666666666665 3.8912 -1.2799999999999998 2.1365333333333334 -0.4106666666666666 4.334933333333333 -0.38186666666666663 6.4608 0.08639999999999999 2.1247999999999996 0.46719999999999995 4.132266666666666 1.3632 5.9008 2.6336 1.7674666666666665 1.2693333333333332 3.2576 2.8853333333333335 4.378666666666666 4.749866666666666l12.945066666666666 19.530666666666665c5.642666666666667 8.346666666666666 8.6496 18.197333333333333 8.629333333333333 28.27413333333333v35.654399999999995H36.623999999999995Zm182.75199999999998 0 22.709333333333333 -28.614399999999996c7.3024 -9.035733333333333 11.307733333333333 -20.29013333333333 11.354666666666667 -31.906133333333333V130.13333333333333c0 -4.517333333333333 -1.7941333333333331 -8.849066666666666 -4.9887999999999995 -12.043733333333332 -3.1936 -3.1936 -7.525333333333333 -4.9887999999999995 -12.042666666666666 -4.9887999999999995s-8.850133333333332 1.7952 -12.043733333333332 4.9887999999999995c-3.1946666666666665 3.1946666666666665 -4.9887999999999995 7.5264 -4.9887999999999995 12.043733333333332l-0.1248 16.208c0.19839999999999997 0.10986666666666667 0.3925333333333333 0.2293333333333333 0.5845333333333333 0.35839999999999994 5.157333333333333 3.4677333333333333 8.8736 8.696533333333333 10.4512 14.708266666666667 1.5786666666666664 6.011733333333333 0.912 12.391466666666666 -1.877333333333333 17.946666666666665 -0.09706666666666666 0.19413333333333332 -0.20373333333333332 0.38506666666666667 -0.31786666666666663 0.5717333333333333l-17.148799999999998 28.16533333333333c-2.3018666666666663 3.7802666666666664 -7.233066666666667 4.978133333333333 -11.014399999999998 2.676266666666667 -3.7802666666666664 -2.3018666666666663 -4.980266666666666 -7.232 -2.6773333333333333 -11.013333333333332l16.953599999999998 -27.8432c0.9354666666666667 -2.0085333333333333 1.1423999999999999 -4.283733333333333 0.5781333333333333 -6.433066666666666 -0.5877333333333333 -2.2378666666666662 -1.9711999999999998 -4.1845333333333325 -3.8912 -5.476266666666666 -0.14079999999999998 -0.09386666666666667 -0.27626666666666666 -0.19093333333333332 -0.40746666666666664 -0.2922666666666667 -1.2330666666666665 -0.5898666666666667 -2.5418666666666665 -1.0218666666666665 -3.8901333333333334 -1.2799999999999998 -2.1376 -0.4106666666666666 -4.335999999999999 -0.38186666666666663 -6.4608 0.08639999999999999 -2.1258666666666666 0.46719999999999995 -4.134399999999999 1.3632 -5.9008 2.6336 -1.7674666666666665 1.2693333333333332 -3.2586666666666666 2.8853333333333335 -4.379733333333333 4.749866666666666l-12.945066666666666 19.530666666666665c-5.642666666666667 8.346666666666666 -8.6496 18.197333333333333 -8.629333333333333 28.27413333333333v35.654399999999995h51.0976Z" clip-rule="evenodd"/></svg>