<svg xmlns="http://www.w3.org/2000/svg" viewBox="0 0 256 256" id="Laptop-Download--Streamline-Ultimate" height="256" width="256">
  <desc>
    Laptop Download Streamline Icon: https://streamlinehq.com
  </desc>
  <g id="Laptop-Download--Streamline-Ultimate.svg">
    <path d="M26.666666666666664 106.66666666666666v74.66666666666666a10.666666666666666 10.666666666666666 0 0 0 21.333333333333332 0v-74.66666666666666a10.666666666666666 10.666666666666666 0 0 1 10.666666666666666 -10.666666666666666H64a10.666666666666666 10.666666666666666 0 0 0 10.666666666666666 -10.666666666666666 10.666666666666666 10.666666666666666 0 0 0 -10.666666666666666 -10.666666666666666h-5.333333333333333a32 32 0 0 0 -32 32Z" fill="#ffffff" stroke-width="10.6667"></path>
    <path d="M197.33333333333331 96a10.666666666666666 10.666666666666666 0 0 1 10.666666666666666 10.666666666666666v74.66666666666666a10.666666666666666 10.666666666666666 0 0 0 21.333333333333332 0v-74.66666666666666a32 32 0 0 0 -32 -32H192a10.666666666666666 10.666666666666666 0 0 0 -10.666666666666666 10.666666666666666 10.666666666666666 10.666666666666666 0 0 0 10.666666666666666 10.666666666666666Z" fill="#ffffff" stroke-width="10.6667"></path>
    <path d="M71.89333333333333 256h112.21333333333332c32 0 61.33333333333333 -10.133333333333333 71.57333333333332 -40.959999999999994a5.119999999999999 5.119999999999999 0 0 0 -0.6399999999999999 -4.8 5.546666666666667 5.546666666666667 0 0 0 -4.373333333333333 -2.2399999999999998h-85.33333333333333a5.333333333333333 5.333333333333333 0 0 0 -5.333333333333333 5.333333333333333c0 7.573333333333332 -10.666666666666666 16 -32 16s-32 -8.426666666666666 -32 -16a5.333333333333333 5.333333333333333 0 0 0 -5.333333333333333 -5.333333333333333h-85.33333333333333a5.546666666666667 5.546666666666667 0 0 0 -4.373333333333333 2.2399999999999998 5.119999999999999 5.119999999999999 0 0 0 -0.6399999999999999 4.8C10.666666666666666 245.86666666666667 39.36 256 71.89333333333333 256Z" fill="#ffffff" stroke-width="10.6667"></path>
    <path d="M112 93.33333333333333a2.6666666666666665 2.6666666666666665 0 0 1 -2.6666666666666665 2.6666666666666665H90.66666666666666a10.666666666666666 10.666666666666666 0 0 0 -9.813333333333333 6.613333333333333 10.666666666666666 10.666666666666666 0 0 0 2.2399999999999998 11.626666666666667l37.33333333333333 37.33333333333333a10.666666666666666 10.666666666666666 0 0 0 15.146666666666665 0l37.33333333333333 -37.33333333333333a10.666666666666666 10.666666666666666 0 0 0 2.2399999999999998 -11.626666666666667A10.666666666666666 10.666666666666666 0 0 0 165.33333333333331 96h-18.666666666666664a2.6666666666666665 2.6666666666666665 0 0 1 -2.6666666666666665 -2.6666666666666665V16a16 16 0 0 0 -32 0Z" fill="#ffffff" stroke-width="10.6667"></path>
  </g>
</svg>