<svg xmlns="http://www.w3.org/2000/svg" id="Laptop--Streamline-Ultimate" width="256" height="256" viewBox="0 0 256 256"><desc>Laptop Streamline Icon: https://streamlinehq.com</desc><path fill="#fff" stroke-width="10.667" d="m248.53333333333333 220.69333333333333 -22.506666666666664 -72.85333333333332a14.293333333333333 14.293333333333333 0 0 0 -3.626666666666667 -5.973333333333334 27.946666666666665 27.946666666666665 0 0 0 6.933333333333334 -18.346666666666664V31.146666666666665A28.586666666666666 28.586666666666666 0 0 0 200.8533333333333 2.6666666666666665H55.04A28.479999999999997 28.479999999999997 0 0 0 26.666666666666664 31.146666666666665v92.37333333333333a28.373333333333335 28.373333333333335 0 0 0 6.826666666666666 18.346666666666664 15.573333333333332 15.573333333333332 0 0 0 -3.626666666666667 5.973333333333334L7.786666666666666 219.83999999999997a23.146666666666665 23.146666666666665 0 0 0 20.69333333333333 33.49333333333333h199.04a22.93333333333333 22.93333333333333 0 0 0 19.626666666666665 -10.666666666666666 22.506666666666664 22.506666666666664 0 0 0 1.3866666666666667 -21.973333333333333Zm-83.19999999999999 4.906666666666666a5.226666666666667 5.226666666666667 0 0 1 -4.266666666666667 2.2399999999999998H94.93333333333334a5.4399999999999995 5.4399999999999995 0 0 1 -4.373333333333333 -2.2399999999999998 5.546666666666667 5.546666666666667 0 0 1 -0.7466666666666667 -4.8L96 201.59999999999997a5.333333333333333 5.333333333333333 0 0 1 5.119999999999999 -3.733333333333333h53.33333333333333a5.333333333333333 5.333333333333333 0 0 1 5.013333333333333 3.733333333333333l6.3999999999999995 19.2a5.226666666666667 5.226666666666667 0 0 1 -0.5333333333333333 4.8ZM48 31.146666666666665a7.1466666666666665 7.1466666666666665 0 0 1 7.04 -7.1466666666666665h145.81333333333333a7.1466666666666665 7.1466666666666665 0 0 1 7.1466666666666665 7.1466666666666665v92.37333333333333a7.1466666666666665 7.1466666666666665 0 0 1 -7.1466666666666665 7.1466666666666665H55.04a7.1466666666666665 7.1466666666666665 0 0 1 -7.04 -7.1466666666666665Z"/></svg>