<svg xmlns="http://www.w3.org/2000/svg" id="Laptop-Help-Message--Streamline-Ultimate" width="256" height="256" viewBox="0 0 256 256"><desc>Laptop Help Message Streamline Icon: https://streamlinehq.com</desc><g id="Laptop-Help-Message--Streamline-Ultimate.svg"><path fill="#fff" stroke-width="10.667" d="M256 218.66666666666666a5.333333333333333 5.333333333333333 0 0 0 -5.333333333333333 -5.333333333333333h-18.666666666666664a2.6666666666666665 2.6666666666666665 0 0 1 -2.6666666666666665 -2.6666666666666665V165.33333333333331a10.666666666666666 10.666666666666666 0 0 0 -21.333333333333332 0v45.33333333333333a2.6666666666666665 2.6666666666666665 0 0 1 -2.6666666666666665 2.6666666666666665H50.666666666666664a2.6666666666666665 2.6666666666666665 0 0 1 -2.6666666666666665 -2.6666666666666665V97.81333333333333a7.1466666666666665 7.1466666666666665 0 0 1 7.1466666666666665 -7.1466666666666665H80a10.666666666666666 10.666666666666666 0 0 0 0 -21.333333333333332H55.14666666666666A28.586666666666666 28.586666666666666 0 0 0 26.666666666666664 97.81333333333333v112.85333333333332a2.6666666666666665 2.6666666666666665 0 0 1 -2.6666666666666665 2.6666666666666665H5.333333333333333a5.333333333333333 5.333333333333333 0 0 0 -5.333333333333333 5.333333333333333A37.33333333333333 37.33333333333333 0 0 0 37.33333333333333 256h181.33333333333331a37.33333333333333 37.33333333333333 0 0 0 37.33333333333333 -37.33333333333333Z"/><path fill="#fff" stroke-width="10.667" d="M112 149.33333333333331a5.333333333333333 5.333333333333333 0 0 0 2.2399999999999998 -0.5333333333333333l36.16 -17.173333333333332a2.88 2.88 0 0 1 2.453333333333333 0A70.08 70.08 0 1 0 185.92 0 68.69333333333333 68.69333333333333 0 0 0 117.33333333333333 70.08a71.14666666666666 71.14666666666666 0 0 0 7.04 33.06666666666666 2.88 2.88 0 0 1 0 2.453333333333333l-17.173333333333332 36.16a5.226666666666667 5.226666666666667 0 0 0 1.0666666666666667 5.973333333333334 5.013333333333333 5.013333333333333 0 0 0 3.733333333333333 1.5999999999999999Zm98.66666666666666 -93.33333333333333A24 24 0 0 1 186.66666666666666 80a8 8 0 0 1 0 -16 8 8 0 1 0 -8 -8 8 8 0 0 1 -16 0 24 24 0 0 1 48 0ZM186.66666666666666 106.66666666666666a8 8 0 1 1 8 -8 8.106666666666666 8.106666666666666 0 0 1 -8 8Z"/></g></svg>