<svg xmlns="http://www.w3.org/2000/svg" viewBox="0 0 256 256" id="Laptop-Clock--Streamline-Ultimate" height="256" width="256">
  <desc>
    Laptop Clock Streamline Icon: https://streamlinehq.com
  </desc>
  <g id="Laptop-Clock--Streamline-Ultimate.svg">
    <path d="M102.29333333333332 162.56a25.599999999999998 25.599999999999998 0 0 1 -16.426666666666666 -14.826666666666664 5.226666666666667 5.226666666666667 0 0 0 -5.013333333333333 -3.84H5.333333333333333a5.119999999999999 5.119999999999999 0 0 0 -4.373333333333333 2.3466666666666667 5.013333333333333 5.013333333333333 0 0 0 0 5.013333333333333 57.919999999999995 57.919999999999995 0 0 0 53.33333333333333 35.306666666666665h44.373333333333335a2.6666666666666665 2.6666666666666665 0 0 0 2.6666666666666665 -2.5599999999999996 86.50666666666666 86.50666666666666 0 0 1 2.6666666666666665 -18.346666666666664 2.6666666666666665 2.6666666666666665 0 0 0 -1.7066666666666666 -3.093333333333333Z" fill="#ffffff" stroke-width="10.6667"></path>
    <path d="M37.33333333333333 128a10.666666666666666 10.666666666666666 0 0 0 10.666666666666666 -10.666666666666666V32a10.666666666666666 10.666666666666666 0 0 1 10.666666666666666 -10.666666666666666h128a10.666666666666666 10.666666666666666 0 0 1 10.666666666666666 10.666666666666666v67.62666666666667a2.6666666666666665 2.6666666666666665 0 0 0 2.2399999999999998 2.6666666666666665 85.33333333333333 85.33333333333333 0 0 1 15.573333333333332 3.9466666666666663 2.3466666666666667 2.3466666666666667 0 0 0 2.3466666666666667 0 2.5599999999999996 2.5599999999999996 0 0 0 1.1733333333333333 -2.1333333333333333V32a32 32 0 0 0 -32 -32h-128a32 32 0 0 0 -32 32v85.33333333333333a10.666666666666666 10.666666666666666 0 0 0 10.666666666666666 10.666666666666666Z" fill="#ffffff" stroke-width="10.6667"></path>
    <path d="M186.66666666666666 117.33333333333333a69.33333333333333 69.33333333333333 0 1 0 69.33333333333333 69.33333333333333 69.44 69.44 0 0 0 -69.33333333333333 -69.33333333333333Zm0 117.33333333333333a48 48 0 1 1 48 -48 48.10666666666666 48.10666666666666 0 0 1 -48 48Z" fill="#ffffff" stroke-width="10.6667"></path>
    <path d="M208 178.66666666666666h-10.666666666666666a2.6666666666666665 2.6666666666666665 0 0 1 -2.6666666666666665 -2.6666666666666665v-21.333333333333332a8 8 0 0 0 -16 0v32a8.106666666666666 8.106666666666666 0 0 0 8 8h21.333333333333332a8 8 0 0 0 0 -16Z" fill="#ffffff" stroke-width="10.6667"></path>
  </g>
</svg>