<svg xmlns="http://www.w3.org/2000/svg" id="Laptop-Warning--Streamline-Ultimate" width="256" height="256" viewBox="0 0 256 256"><desc>Laptop Warning Streamline Icon: https://streamlinehq.com</desc><g id="Laptop-Warning--Streamline-Ultimate.svg"><path fill="#fff" stroke-width="10.667" d="M37.33333333333333 130.66666666666666a10.666666666666666 10.666666666666666 0 0 0 10.666666666666666 -10.666666666666666v-85.33333333333333a10.666666666666666 10.666666666666666 0 0 1 10.666666666666666 -10.666666666666666h128a10.666666666666666 10.666666666666666 0 0 1 10.666666666666666 10.666666666666666v69.65333333333334a2.6666666666666665 2.6666666666666665 0 0 0 1.5999999999999999 2.453333333333333 29.866666666666664 29.866666666666664 0 0 1 15.573333333333332 14.08 2.1333333333333333 2.1333333333333333 0 0 0 2.453333333333333 1.1733333333333333 2.2399999999999998 2.2399999999999998 0 0 0 1.5999999999999999 -2.1333333333333333v-85.33333333333333a32 32 0 0 0 -32 -32H58.666666666666664a32 32 0 0 0 -32 32v85.33333333333333a10.666666666666666 10.666666666666666 0 0 0 10.666666666666666 10.773333333333333Z"/><path fill="#fff" stroke-width="10.667" d="M254.29333333333332 231.04 200.32 128a15.466666666666665 15.466666666666665 0 0 0 -27.306666666666665 0l-53.97333333333333 102.82666666666667a15.253333333333332 15.253333333333332 0 0 0 0.5333333333333333 14.933333333333332 15.573333333333332 15.573333333333332 0 0 0 13.226666666666667 7.359999999999999h107.83999999999999a15.253333333333332 15.253333333333332 0 0 0 13.653333333333332 -22.29333333333333Zm-75.62666666666667 -68.37333333333333a8 8 0 0 1 16 0v32a8 8 0 0 1 -16 0ZM186.66666666666666 234.66666666666666a10.666666666666666 10.666666666666666 0 1 1 10.666666666666666 -10.666666666666666 10.666666666666666 10.666666666666666 0 0 1 -10.666666666666666 10.666666666666666Z"/><path fill="#fff" stroke-width="10.667" d="m123.62666666666667 187.83999999999997 9.493333333333332 -18.026666666666664a2.6666666666666665 2.6666666666666665 0 0 0 -3.1999999999999997 -3.733333333333333 44.906666666666666 44.906666666666666 0 0 1 -12.586666666666666 1.92 32.85333333333333 32.85333333333333 0 0 1 -31.46666666666667 -17.599999999999998 5.226666666666667 5.226666666666667 0 0 0 -5.013333333333333 -3.84H5.333333333333333a5.119999999999999 5.119999999999999 0 0 0 -4.373333333333333 2.7733333333333334 5.013333333333333 5.013333333333333 0 0 0 0 5.013333333333333 57.919999999999995 57.919999999999995 0 0 0 53.33333333333333 35.306666666666665h67.52a2.5599999999999996 2.5599999999999996 0 0 0 1.8133333333333335 -1.8133333333333335Z"/></g></svg>