<svg xmlns="http://www.w3.org/2000/svg" viewBox="0 0 256 256" id="Laptop-Smiley-1--Streamline-Ultimate" height="256" width="256">
  <desc>
    Laptop Smiley 1 Streamline Icon: https://streamlinehq.com
  </desc>
  <g id="Laptop-Smiley-1--Streamline-Ultimate.svg">
    <path d="M37.013333333333335 157.12a10.666666666666666 10.666666666666666 0 0 0 10.666666666666666 -10.666666666666666V57.81333333333333a7.1466666666666665 7.1466666666666665 0 0 1 7.04 -7.1466666666666665H200.53333333333333a7.1466666666666665 7.1466666666666665 0 0 1 7.1466666666666665 7.1466666666666665v88.64a10.666666666666666 10.666666666666666 0 1 0 21.333333333333332 0V57.81333333333333a28.586666666666666 28.586666666666666 0 0 0 -28.479999999999997 -28.479999999999997H54.72a28.479999999999997 28.479999999999997 0 0 0 -28.373333333333335 28.479999999999997v88.64a10.666666666666666 10.666666666666666 0 0 0 10.666666666666666 10.666666666666666Z" fill="#ffffff" stroke-width="10.6667"></path>
    <path d="M254.82666666666665 175.36a5.226666666666667 5.226666666666667 0 0 0 -4.16 -2.0266666666666664h-85.33333333333333a5.333333333333333 5.333333333333333 0 0 0 -5.333333333333333 5.333333333333333c0 7.573333333333332 -13.12 16 -32 16s-32 -8.426666666666666 -32 -16a5.333333333333333 5.333333333333333 0 0 0 -5.333333333333333 -5.333333333333333h-85.33333333333333a5.226666666666667 5.226666666666667 0 0 0 -4.16 2.0266666666666664 5.4399999999999995 5.4399999999999995 0 0 0 -1.0666666666666667 4.586666666666666 61.653333333333336 61.653333333333336 0 0 0 59.84 46.72h136.10666666666665A61.653333333333336 61.653333333333336 0 0 0 256 179.94666666666666a5.4399999999999995 5.4399999999999995 0 0 0 -1.1733333333333333 -4.586666666666666Z" fill="#ffffff" stroke-width="10.6667"></path>
    <path d="M101.01333333333334 100.26666666666667a8.106666666666666 8.106666666666666 0 0 0 8 -8V80a8 8 0 1 0 -16 0v12.266666666666666a8 8 0 0 0 8 8Z" fill="#ffffff" stroke-width="10.6667"></path>
    <path d="M154.34666666666666 100.26666666666667a8.106666666666666 8.106666666666666 0 0 0 8 -8V80a8 8 0 1 0 -16 0v12.266666666666666a8 8 0 0 0 8 8Z" fill="#ffffff" stroke-width="10.6667"></path>
    <path d="M81.70666666666666 121.17333333333332a8 8 0 0 0 0 11.306666666666667 66.66666666666666 66.66666666666666 0 0 0 94.29333333333332 0 8 8 0 0 0 -11.306666666666667 -11.306666666666667 50.773333333333326 50.773333333333326 0 0 1 -71.67999999999999 0 8 8 0 0 0 -11.306666666666667 0Z" fill="#ffffff" stroke-width="10.6667"></path>
  </g>
</svg>