<svg xmlns="http://www.w3.org/2000/svg" viewBox="0 0 256 256" id="Launch-Go--Streamline-Ultimate" height="256" width="256">
  <desc>
    Launch Go Streamline Icon: https://streamlinehq.com
  </desc>
  <g id="Launch-Go--Streamline-Ultimate.svg">
    <path d="M163.83999999999997 138.66666666666666a12.799999999999999 12.799999999999999 0 0 0 12.799999999999999 -12.799999999999999V84.47999999999999a12.799999999999999 12.799999999999999 0 1 0 -25.599999999999998 0v40.959999999999994a12.799999999999999 12.799999999999999 0 0 0 12.799999999999999 13.226666666666667Z" fill="#ffffff" stroke-width="10.6667"></path>
    <path d="M15.36 256a15.253333333333332 15.253333333333332 0 0 0 15.36 -15.36v-53.33333333333333a2.6666666666666665 2.6666666666666665 0 0 1 2.6666666666666665 -2.6666666666666665h189.22666666666663a2.6666666666666665 2.6666666666666665 0 0 1 2.6666666666666665 2.6666666666666665v53.33333333333333a15.36 15.36 0 0 0 30.72 0V15.36a15.36 15.36 0 0 0 -30.72 0v12.693333333333332a2.6666666666666665 2.6666666666666665 0 0 1 -2.6666666666666665 2.6666666666666665H33.38666666666666a2.6666666666666665 2.6666666666666665 0 0 1 -2.6666666666666665 -2.6666666666666665V15.36a15.36 15.36 0 0 0 -30.72 0v225.28A15.253333333333332 15.253333333333332 0 0 0 15.36 256ZM135.68 84.47999999999999a28.16 28.16 0 0 1 56.32 0v40.959999999999994a28.16 28.16 0 0 1 -56.32 0ZM64 87.03999999999999a28.16 28.16 0 1 1 56.32 0 7.68 7.68 0 0 1 -15.36 0 12.799999999999999 12.799999999999999 0 1 0 -25.599999999999998 0V128a12.799999999999999 12.799999999999999 0 1 0 25.599999999999998 0 2.5599999999999996 2.5599999999999996 0 0 0 -2.5599999999999996 -2.5599999999999996h-5.119999999999999a7.68 7.68 0 0 1 0 -15.36h15.36a7.68 7.68 0 0 1 7.68 7.68v10.666666666666666A28.16 28.16 0 0 1 64 128Z" fill="#ffffff" stroke-width="10.6667"></path>
  </g>
</svg>