<svg xmlns="http://www.w3.org/2000/svg" id="Laundry-Hand-Wash--Streamline-Ultimate" width="256" height="256" viewBox="0 0 256 256"><desc>Laundry Hand Wash Streamline Icon: https://streamlinehq.com</desc><g id="Laundry-Hand-Wash--Streamline-Ultimate.svg"><path fill="#fff" stroke-width="10.667" d="M255.04 50.666666666666664a2.88 2.88 0 0 0 0.96 -1.8133333333333335V2.6666666666666665a2.6666666666666665 2.6666666666666665 0 0 0 -1.0666666666666667 -1.92 2.7733333333333334 2.7733333333333334 0 0 0 -1.8133333333333335 -0.7466666666666667h-58.56a2.453333333333333 2.453333333333333 0 0 0 -1.4933333333333334 0l-3.093333333333333 2.1333333333333333a48.959999999999994 48.959999999999994 0 0 1 -26.666666666666664 8.106666666666666A231.14666666666668 231.14666666666668 0 0 0 63.25333333333333 27.733333333333334l-46.93333333333334 18.773333333333333A19.093333333333334 19.093333333333334 0 0 0 2.986666666666667 67.19999999999999 18.56 18.56 0 0 0 21.333333333333332 83.09333333333333a18.88 18.88 0 0 0 5.973333333333334 -0.96l25.173333333333332 -8.426666666666666a2.6666666666666665 2.6666666666666665 0 0 1 2.88 4.16 97.70666666666666 97.70666666666666 0 0 0 -20.37333333333333 52.373333333333335A17.599999999999998 17.599999999999998 0 0 0 42.666666666666664 146.88a20.266666666666666 20.266666666666666 0 0 0 19.733333333333334 1.1733333333333333 18.026666666666664 18.026666666666664 0 0 0 10.026666666666666 -15.146666666666665 39.89333333333333 39.89333333333333 0 0 1 19.52 -33.92 58.666666666666664 58.666666666666664 0 0 1 15.68 -5.973333333333334 2.7733333333333334 2.7733333333333334 0 0 1 2.88 1.2799999999999998 2.5599999999999996 2.5599999999999996 0 0 1 0 3.093333333333333 105.17333333333332 105.17333333333332 0 0 0 -20.799999999999997 35.946666666666665l-7.786666666666666 23.36a18.56 18.56 0 0 0 11.733333333333334 23.57333333333333 18.24 18.24 0 0 0 5.866666666666667 0.96A18.666666666666664 18.666666666666664 0 0 0 117.33333333333333 168.53333333333333l7.786666666666666 -23.46666666666667a69.65333333333334 69.65333333333334 0 0 1 22.29333333333333 -32l21.333333333333332 -16.96A15.893333333333333 15.893333333333333 0 0 1 181.33333333333331 92.69333333333333a16.21333333333333 16.21333333333333 0 0 1 13.226666666666667 11.626666666666667l1.1733333333333333 4.053333333333333a15.36 15.36 0 0 1 -0.5333333333333333 10.666666666666666l-6.186666666666666 15.573333333333332a18.773333333333333 18.773333333333333 0 0 0 0.8533333333333333 15.68 18.56 18.56 0 0 0 34.13333333333333 -2.88l7.04 -17.493333333333332a48 48 0 0 0 1.3866666666666667 -29.013333333333335 42.666666666666664 42.666666666666664 0 0 1 7.786666666666666 -32.53333333333333Z"/><path fill="#fff" stroke-width="10.667" d="M244.37333333333333 234.66666666666666c-16.746666666666666 1.3866666666666667 -28.373333333333335 -16.53333333333333 -28.479999999999997 -16.746666666666666a10.666666666666666 10.666666666666666 0 0 0 -18.24 0A35.839999999999996 35.839999999999996 0 0 1 168.32 234.66666666666666a29.866666666666664 29.866666666666664 0 0 1 -25.599999999999998 -15.786666666666665 11.2 11.2 0 0 0 -18.346666666666664 -1.7066666666666666A45.44 45.44 0 0 1 91.41333333333333 234.66666666666666a37.86666666666666 37.86666666666666 0 0 1 -29.439999999999998 -16.85333333333333 10.666666666666666 10.666666666666666 0 0 0 -17.386666666666663 -0.96S28.906666666666666 236.0533333333333 11.413333333333334 234.66666666666666a10.666666666666666 10.666666666666666 0 0 0 -10.666666666666666 10.026666666666666A10.666666666666666 10.666666666666666 0 0 0 10.666666666666666 256h2.3466666666666667a60.8 60.8 0 0 0 37.86666666666666 -15.573333333333332 2.6666666666666665 2.6666666666666665 0 0 1 3.52 0A55.14666666666666 55.14666666666666 0 0 0 91.41333333333333 256a61.97333333333333 61.97333333333333 0 0 0 38.72 -14.4 2.6666666666666665 2.6666666666666665 0 0 1 3.52 0A48.32 48.32 0 0 0 168.32 256a54.93333333333334 54.93333333333334 0 0 0 36.8 -14.186666666666667 2.5599999999999996 2.5599999999999996 0 0 1 3.52 0A50.239999999999995 50.239999999999995 0 0 0 245.86666666666667 256a10.666666666666666 10.666666666666666 0 0 0 10.133333333333333 -11.84 10.666666666666666 10.666666666666666 0 0 0 -11.626666666666667 -9.493333333333332Z"/></g></svg>