<svg xmlns="http://www.w3.org/2000/svg" id="Layers-Stacked--Streamline-Ultimate" width="256" height="256" viewBox="0 0 256 256"><desc>Layers Stacked Streamline Icon: https://streamlinehq.com</desc><g id="Layers-Stacked--Streamline-Ultimate.svg"><path fill="#fff" stroke-width="10.667" d="m12.373333333333331 78.93333333333334 102.82666666666667 44.693333333333335a32 32 0 0 0 25.599999999999998 0l102.93333333333334 -44.693333333333335a16.21333333333333 16.21333333333333 0 0 0 9.6 -14.933333333333332 15.786666666666665 15.786666666666665 0 0 0 -9.706666666666667 -14.613333333333333L140.79999999999998 4.8a32 32 0 0 0 -25.599999999999998 0l-102.82666666666667 44.8A15.786666666666665 15.786666666666665 0 0 0 2.6666666666666665 64a16.106666666666666 16.106666666666666 0 0 0 9.706666666666667 14.933333333333332Z"/><path fill="#fff" stroke-width="10.667" d="m243.62666666666667 113.6 -13.226666666666667 -5.76a10.666666666666666 10.666666666666666 0 0 0 -8.533333333333333 0L128 148.58666666666664l-93.86666666666667 -40.74666666666666a10.666666666666666 10.666666666666666 0 0 0 -8.533333333333333 0l-13.226666666666667 5.76a15.893333333333333 15.893333333333333 0 0 0 0 29.333333333333332l102.82666666666667 44.693333333333335a32 32 0 0 0 25.599999999999998 0l102.82666666666667 -44.693333333333335a16.106666666666666 16.106666666666666 0 0 0 9.706666666666667 -14.933333333333332 15.786666666666665 15.786666666666665 0 0 0 -9.706666666666667 -14.4Z"/><path fill="#fff" stroke-width="10.667" d="m243.62666666666667 177.06666666666666 -13.226666666666667 -5.76a10.666666666666666 10.666666666666666 0 0 0 -8.533333333333333 0L128 212.16l-93.86666666666667 -40.85333333333333a10.666666666666666 10.666666666666666 0 0 0 -8.533333333333333 0l-13.226666666666667 5.76A16.106666666666666 16.106666666666666 0 0 0 2.6666666666666665 192a15.786666666666665 15.786666666666665 0 0 0 9.706666666666667 14.613333333333333l102.82666666666667 44.8a32 32 0 0 0 25.599999999999998 0l102.82666666666667 -44.8a15.786666666666665 15.786666666666665 0 0 0 9.706666666666667 -14.613333333333333 16.106666666666666 16.106666666666666 0 0 0 -9.706666666666667 -14.933333333333332Z"/></g></svg>