<svg xmlns="http://www.w3.org/2000/svg" fill="none" viewBox="0 0 256 256" id="Layout-Dashboard--Streamline-Ultimate" height="256" width="256">
  <desc>
    Layout Dashboard Streamline Icon: https://streamlinehq.com
  </desc>
  <path fill="#ffffff" fill-rule="evenodd" d="M157.31199999999998 -0.0026041706666666666c-10.309333333333333 0 -18.666666666666664 8.357345504 -18.666666666666664 18.666710837333333v48c0 10.309226666666666 8.357333333333333 18.666666666666664 18.666666666666664 18.666666666666664h80c10.309333333333333 0 18.666666666666664 -8.35744 18.666666666666664 -18.666666666666664v-48c0 -10.309365333333332 -8.357333333333333 -18.666710837333333 -18.666666666666664 -18.666710837333333h-80ZM157.31199999999998 106.66666666666666c-10.309333333333333 0 -18.666666666666664 8.357333333333333 -18.666666666666664 18.666666666666664v112.00213333333332c0 10.309333333333333 8.357333333333333 18.666666666666664 18.666666666666664 18.666666666666664h80c10.309333333333333 0 18.666666666666664 -8.357333333333333 18.666666666666664 -18.666666666666664V125.33333333333333c0 -10.309333333333333 -8.357333333333333 -18.666666666666664 -18.666666666666664 -18.666666666666664h-80ZM0.02083328 18.666666666666664C0.02083328 8.357354666666666 8.378186666666666 0 18.687466666666666 0h80C108.99733333333333 0 117.35466666666667 8.357344 117.35466666666667 18.666666666666664v112.00213333333332c0 10.309333333333333 -8.357333333333333 18.666666666666664 -18.6672 18.666666666666664h-80c-10.30928 0 -18.666633386666668 -8.357333333333333 -18.666633386666668 -18.666666666666664V18.666666666666664ZM18.687466666666666 170.66453333333334c-10.30928 0 -18.666633386666668 8.357333333333333 -18.666633386666668 18.666666666666664v48c0 10.309333333333333 8.357353386666666 18.666666666666664 18.666633386666668 18.666666666666664h80c10.309866666666666 0 18.6672 -8.357333333333333 18.6672 -18.666666666666664v-48c0 -10.309333333333333 -8.357333333333333 -18.666666666666664 -18.6672 -18.666666666666664h-80Z" clip-rule="evenodd" stroke-width="10.6667"></path>
</svg>