<svg xmlns="http://www.w3.org/2000/svg" id="Layout-Content--Streamline-Ultimate" width="256" height="256" fill="none" viewBox="0 0 256 256"><desc>Layout Content Streamline Icon: https://streamlinehq.com</desc><path fill="#fff" fill-rule="evenodd" stroke-width="10.667" d="M20.266666666666666 2.6666666666666665c-4.66784 0 -9.144426666666666 1.8542826666666665 -12.445077333333332 5.154922666666666C4.520949333333333 11.12224 2.6666666666666665 15.598826666666668 2.6666666666666665 20.266666666666666v76.8c0 4.66784 1.8542826666666665 9.144426666666666 5.154922666666666 12.4448 3.3006506666666664 3.301333333333333 7.777237333333333 5.1552 12.445077333333332 5.1552h76.8c4.66784 0 9.144426666666666 -1.8538666666666668 12.4448 -5.1552 3.301333333333333 -3.3003733333333334 5.1552 -7.77696 5.1552 -12.4448V20.266666666666666c0 -4.66784 -1.8538666666666668 -9.144426666666666 -5.1552 -12.445077333333332C106.21109333333334 4.520949333333333 101.73450666666668 2.6666666666666665 97.06666666666666 2.6666666666666665H20.266666666666666Zm0 138.66666666666666c-4.66784 0 -9.144426666666666 1.8538666666666668 -12.445077333333332 5.1552C4.520949333333333 149.78879999999998 2.6666666666666665 154.2656 2.6666666666666665 158.93333333333334v76.8c0 4.667733333333333 1.854272 9.144533333333332 5.154922666666666 12.4448 3.3006506666666664 3.301333333333333 7.777237333333333 5.1552 12.445077333333332 5.1552h76.8c4.66784 0 9.144426666666666 -1.8538666666666668 12.4448 -5.1552 3.301333333333333 -3.3002666666666665 5.1552 -7.777066666666666 5.1552 -12.4448v-76.8c0 -4.667733333333333 -1.8538666666666668 -9.144533333333332 -5.1552 -12.4448 -3.3003733333333334 -3.301333333333333 -7.77696 -5.1552 -12.4448 -5.1552H20.266666666666666Zm110.36906666666665 -117.33333333333333c0 -4.41824 3.5818666666666665 -8 8 -8h106.66666666666666c4.4181333333333335 0 8 3.5817599999999996 8 8s-3.5818666666666665 8 -8 8h-106.66666666666666c-4.4181333333333335 0 -8 -3.5817599999999996 -8 -8Zm8 26.666666666666664c-4.4181333333333335 0 -8 3.5817599999999996 -8 8s3.5818666666666665 8 8 8h106.66666666666666c4.4181333333333335 0 8 -3.5817599999999996 8 -8s-3.5818666666666665 -8 -8 -8h-106.66666666666666Zm-8 42.666666666666664c0 -4.41824 3.5818666666666665 -8 8 -8h106.66666666666666c4.4181333333333335 0 8 3.5817599999999996 8 8s-3.5818666666666665 8 -8 8h-106.66666666666666c-4.4181333333333335 0 -8 -3.5817599999999996 -8 -8Zm8 61.33333333333333c-4.4181333333333335 0 -8 3.5818666666666665 -8 8s3.5818666666666665 8 8 8h106.66666666666666c4.4181333333333335 0 8 -3.5818666666666665 8 -8s-3.5818666666666665 -8 -8 -8h-106.66666666666666Zm-8 42.666666666666664c0 -4.4181333333333335 3.5818666666666665 -8 8 -8h106.66666666666666c4.4181333333333335 0 8 3.5818666666666665 8 8s-3.5818666666666665 8 -8 8h-106.66666666666666c-4.4181333333333335 0 -8 -3.5818666666666665 -8 -8Zm8 26.666666666666664c-4.4181333333333335 0 -8 3.5818666666666665 -8 8s3.5818666666666665 8 8 8h106.66666666666666c4.4181333333333335 0 8 -3.5818666666666665 8 -8s-3.5818666666666665 -8 -8 -8h-106.66666666666666Z" clip-rule="evenodd"/></svg>