<svg xmlns="http://www.w3.org/2000/svg" id="Lens-Shade--Streamline-Ultimate" width="256" height="256" viewBox="0 0 256 256"><desc>Lens Shade Streamline Icon: https://streamlinehq.com</desc><g id="Lens-Shade--Streamline-Ultimate.svg"><path fill="#fff" stroke-width="10.667" d="M197.33333333333331 133.33333333333331A16 16 0 0 0 181.33333333333331 117.33333333333333H74.66666666666666a16 16 0 0 0 -16 16v74.66666666666666A16 16 0 0 0 74.66666666666666 224h106.66666666666666a16 16 0 0 0 16 -16Zm-24 18.666666666666664v37.33333333333333a8 8 0 0 1 -16 0v-37.33333333333333a8 8 0 0 1 16 0Zm-37.33333333333333 0v37.33333333333333a8 8 0 0 1 -16 0v-37.33333333333333a8 8 0 0 1 16 0Zm-37.33333333333333 0v37.33333333333333a8 8 0 0 1 -16 0v-37.33333333333333a8 8 0 0 1 16 0Z"/><path fill="#fff" stroke-width="10.667" d="M197.33333333333331 0h-138.66666666666666a15.893333333333333 15.893333333333333 0 0 0 -14.933333333333332 21.333333333333332l17.919999999999998 70.18666666666667a16.106666666666666 16.106666666666666 0 0 0 14.826666666666664 9.813333333333333h103.14666666666666a16 16 0 0 0 14.933333333333332 -10.666666666666666l17.599999999999998 -68.58666666666666A16.106666666666666 16.106666666666666 0 0 0 197.33333333333331 0Z"/><path fill="#fff" stroke-width="10.667" d="M170.66666666666666 240a5.333333333333333 5.333333333333333 0 0 0 -5.333333333333333 -5.333333333333333h-74.66666666666666a5.333333333333333 5.333333333333333 0 0 0 -5.333333333333333 5.333333333333333A16 16 0 0 0 101.33333333333333 256h53.33333333333333a16 16 0 0 0 16 -16Z"/></g></svg>