<svg xmlns="http://www.w3.org/2000/svg" viewBox="0 0 256 256" id="Lift-1--Streamline-Ultimate" height="256" width="256">
  <desc>
    Lift 1 Streamline Icon: https://streamlinehq.com
  </desc>
  <path d="M240 0h-224A16 16 0 0 0 0 16v224A16 16 0 0 0 16 256h224a16 16 0 0 0 16 -16v-224A16 16 0 0 0 240 0Zm-160 40H128a8 8 0 0 1 0 16H80a8 8 0 0 1 0 -16Zm10.666666666666666 189.33333333333331a5.333333333333333 5.333333333333333 0 0 1 -5.333333333333333 5.333333333333333H26.666666666666664a5.333333333333333 5.333333333333333 0 0 1 -5.333333333333333 -5.333333333333333V96a5.333333333333333 5.333333333333333 0 0 1 5.333333333333333 -5.333333333333333H85.33333333333333a5.333333333333333 5.333333333333333 0 0 1 5.333333333333333 5.333333333333333Zm90.66666666666666 0a5.333333333333333 5.333333333333333 0 0 1 -5.333333333333333 5.333333333333333H117.33333333333333a5.333333333333333 5.333333333333333 0 0 1 -5.333333333333333 -5.333333333333333V96a5.333333333333333 5.333333333333333 0 0 1 5.333333333333333 -5.333333333333333h58.666666666666664a5.333333333333333 5.333333333333333 0 0 1 5.333333333333333 5.333333333333333Zm37.33333333333333 -26.666666666666664a16 16 0 1 1 16 -16 16 16 0 0 1 -16 16Zm0 -53.33333333333333a16 16 0 1 1 16 -16 16 16 0 0 1 -16 16Z" fill="#ffffff" stroke-width="10.6667"></path>
</svg>