<svg xmlns="http://www.w3.org/2000/svg" id="Light-Mode-Hdr--Streamline-Ultimate" width="256" height="256" viewBox="0 0 256 256"><desc>Light Mode Hdr Streamline Icon: https://streamlinehq.com</desc><g id="Light-Mode-Hdr--Streamline-Ultimate.svg"><path fill="#fff" stroke-width="10.667" d="M144 128a34.666666666666664 34.666666666666664 0 0 0 -23.146666666666665 -32.64 2.3466666666666667 2.3466666666666667 0 0 0 -2.3466666666666667 0 2.453333333333333 2.453333333333333 0 0 0 -1.1733333333333333 2.1333333333333333v60.373333333333335a2.453333333333333 2.453333333333333 0 0 0 1.1733333333333333 2.1333333333333333 2.3466666666666667 2.3466666666666667 0 0 0 2.3466666666666667 0 34.666666666666664 34.666666666666664 0 0 0 23.146666666666665 -32Z"/><path fill="#fff" stroke-width="10.667" d="M213.33333333333331 106.66666666666666a13.333333333333332 13.333333333333332 0 0 0 -13.333333333333332 -13.333333333333332h-10.666666666666666a2.6666666666666665 2.6666666666666665 0 0 0 -2.6666666666666665 2.6666666666666665v21.333333333333332a2.6666666666666665 2.6666666666666665 0 0 0 2.6666666666666665 2.6666666666666665h10.666666666666666A13.333333333333332 13.333333333333332 0 0 0 213.33333333333331 106.66666666666666Z"/><path fill="#fff" stroke-width="10.667" d="M256 82.66666666666666A40 40 0 0 0 216 42.666666666666664H40A40 40 0 0 0 0 82.66666666666666v90.66666666666666A40 40 0 0 0 40 213.33333333333331h176A40 40 0 0 0 256 173.33333333333331Zm-29.013333333333335 82.34666666666666a8 8 0 0 1 0 11.306666666666667 8 8 0 0 1 -11.306666666666667 0l-24.426666666666666 -24.426666666666666a2.7733333333333334 2.7733333333333334 0 0 0 -2.986666666666667 -0.6399999999999999 2.6666666666666665 2.6666666666666665 0 0 0 -1.5999999999999999 2.453333333333333V170.66666666666666a8 8 0 0 1 -16 0V85.33333333333333a8.106666666666666 8.106666666666666 0 0 1 8 -8h21.333333333333332a29.333333333333332 29.333333333333332 0 0 1 3.84 58.45333333333333 2.5599999999999996 2.5599999999999996 0 0 0 -2.2399999999999998 1.7066666666666666 2.6666666666666665 2.6666666666666665 0 0 0 0.6399999999999999 2.7733333333333334ZM160 128a50.666666666666664 50.666666666666664 0 0 1 -50.666666666666664 50.666666666666664 8.106666666666666 8.106666666666666 0 0 1 -8 -8V85.33333333333333a8.106666666666666 8.106666666666666 0 0 1 8 -8A50.666666666666664 50.666666666666664 0 0 1 160 128Zm-114.66666666666666 8A2.6666666666666665 2.6666666666666665 0 0 0 42.666666666666664 138.66666666666666v32a8 8 0 0 1 -16 0V85.33333333333333A8 8 0 0 1 42.666666666666664 85.33333333333333v32a2.6666666666666665 2.6666666666666665 0 0 0 2.6666666666666665 2.6666666666666665h21.333333333333332A2.6666666666666665 2.6666666666666665 0 0 0 69.33333333333333 117.33333333333333V85.33333333333333A8 8 0 0 1 85.33333333333333 85.33333333333333v85.33333333333333a8 8 0 0 1 -16 0v-32a2.6666666666666665 2.6666666666666665 0 0 0 -2.6666666666666665 -2.6666666666666665Z"/></g></svg>