<svg xmlns="http://www.w3.org/2000/svg" viewBox="0 0 256 256" id="Light-Mode-Bright-Dark--Streamline-Ultimate" height="256" width="256">
  <desc>
    Light Mode Bright Dark Streamline Icon: https://streamlinehq.com
  </desc>
  <path d="m242.98666666666668 118.61333333333332 -26.24 -26.24a3.093333333333333 3.093333333333333 0 0 1 -0.7466666666666667 -1.92V53.33333333333333A13.333333333333332 13.333333333333332 0 0 0 202.66666666666666 40h-37.12a3.093333333333333 3.093333333333333 0 0 1 -1.92 -0.7466666666666667l-26.24 -26.24a13.226666666666667 13.226666666666667 0 0 0 -18.773333333333333 0L92.37333333333333 39.25333333333333a3.093333333333333 3.093333333333333 0 0 1 -1.92 0.7466666666666667H53.33333333333333A13.333333333333332 13.333333333333332 0 0 0 40 53.33333333333333v37.12a3.093333333333333 3.093333333333333 0 0 1 -0.7466666666666667 1.92l-26.24 26.24a13.226666666666667 13.226666666666667 0 0 0 0 18.773333333333333l26.24 26.24a3.093333333333333 3.093333333333333 0 0 1 0.7466666666666667 1.92V202.66666666666666A13.333333333333332 13.333333333333332 0 0 0 53.33333333333333 216h37.12a3.093333333333333 3.093333333333333 0 0 1 1.92 0.7466666666666667l26.24 26.24a13.226666666666667 13.226666666666667 0 0 0 18.773333333333333 0l26.24 -26.24a3.093333333333333 3.093333333333333 0 0 1 1.92 -0.7466666666666667H202.66666666666666A13.333333333333332 13.333333333333332 0 0 0 216 202.66666666666666v-37.12a3.093333333333333 3.093333333333333 0 0 1 0.7466666666666667 -1.92l26.24 -26.24a13.226666666666667 13.226666666666667 0 0 0 0 -18.773333333333333ZM181.33333333333331 128a53.33333333333333 53.33333333333333 0 0 1 -51.30666666666666 53.33333333333333 2.2399999999999998 2.2399999999999998 0 0 1 -2.0266666666666664 -2.0266666666666664V77.44a2.453333333333333 2.453333333333333 0 0 1 0.8533333333333333 -1.92 2.2399999999999998 2.2399999999999998 0 0 1 1.92 -0.8533333333333333A53.33333333333333 53.33333333333333 0 0 1 181.33333333333331 128Z" fill="#ffffff" stroke-width="10.6667"></path>
</svg>