<svg xmlns="http://www.w3.org/2000/svg" id="Like--Streamline-Ultimate" width="256" height="256" viewBox="0 0 256 256"><desc>Like Streamline Icon: https://streamlinehq.com</desc><path fill="#fff" stroke-width="10.667" d="M253.33333333333331 123.30666666666667a24 24 0 0 0 -24 -24h-71.78666666666666a2.6666666666666665 2.6666666666666665 0 0 1 -2.0266666666666664 -0.96 2.453333333333333 2.453333333333333 0 0 1 -0.5333333333333333 -2.3466666666666667 269.5466666666666 269.5466666666666 0 0 0 7.68 -50.45333333333333A35.839999999999996 35.839999999999996 0 0 0 154.56 21.333333333333332a25.173333333333332 25.173333333333332 0 0 0 -18.56 -8.426666666666666 20.159999999999997 20.159999999999997 0 0 0 -21.333333333333332 19.946666666666665A76.69333333333333 76.69333333333333 0 0 1 42.666666666666664 109.97333333333333H10.666666666666666a8.106666666666666 8.106666666666666 0 0 0 -8 8v96a8 8 0 0 0 8 8c48.32 0 64 6.826666666666666 77.97333333333333 12.799999999999999a86.93333333333334 86.93333333333334 0 0 0 39.36 8.533333333333333h69.33333333333333a24 24 0 0 0 24 -24 23.68 23.68 0 0 0 -2.453333333333333 -10.666666666666666 24 24 0 0 0 13.12 -21.333333333333332 23.68 23.68 0 0 0 -2.453333333333333 -10.666666666666666 24 24 0 0 0 13.12 -21.333333333333332 23.68 23.68 0 0 0 -2.453333333333333 -10.666666666666666 24 24 0 0 0 13.12 -21.333333333333332Z"/></svg>