<svg xmlns="http://www.w3.org/2000/svg" viewBox="0 0 256 256" id="Like-Chat--Streamline-Ultimate" height="256" width="256">
  <desc>
    Like Chat Streamline Icon: https://streamlinehq.com
  </desc>
  <g id="Like-Chat--Streamline-Ultimate.svg">
    <path d="M235.2 10.666666666666666H21.333333333333332a21.333333333333332 21.333333333333332 0 0 0 -21.333333333333332 21.333333333333332v151.89333333333332a21.333333333333332 21.333333333333332 0 0 0 21.333333333333332 21.333333333333332h49.81333333333333V234.66666666666666a10.666666666666666 10.666666666666666 0 0 0 10.666666666666666 10.666666666666666 10.666666666666666 10.666666666666666 0 0 0 7.466666666666666 -3.093333333333333l37.54666666666667 -37.54666666666667h108.37333333333333a21.333333333333332 21.333333333333332 0 0 0 20.799999999999997 -21.333333333333332V32a21.333333333333332 21.333333333333332 0 0 0 -20.799999999999997 -21.333333333333332ZM234.66666666666666 178.02666666666667a5.333333333333333 5.333333333333333 0 0 1 -5.333333333333333 5.333333333333333h-106.66666666666666a10.666666666666666 10.666666666666666 0 0 0 -7.573333333333332 3.093333333333333l-22.4 22.506666666666664v-14.933333333333332a10.666666666666666 10.666666666666666 0 0 0 -10.666666666666666 -10.666666666666666l-55.14666666666666 0a4.906666666666666 4.906666666666666 0 0 1 -3.733333333333333 -1.4933333333333334 5.013333333333333 5.013333333333333 0 0 1 -1.8133333333333335 -3.3066666666666666L21.333333333333332 37.33333333333333a5.4399999999999995 5.4399999999999995 0 0 1 1.5999999999999999 -3.733333333333333 5.013333333333333 5.013333333333333 0 0 1 3.1999999999999997 -1.5999999999999999H229.33333333333331a5.4399999999999995 5.4399999999999995 0 0 1 5.333333333333333 5.333333333333333Z" fill="#ffffff" stroke-width="10.6667"></path>
    <path d="M68.8 149.33333333333331h10.666666666666666a4.906666666666666 4.906666666666666 0 0 0 5.333333333333333 -4.266666666666667V89.6a4.906666666666666 4.906666666666666 0 0 0 -5.333333333333333 -4.266666666666667h-10.666666666666666a4.906666666666666 4.906666666666666 0 0 0 -5.333333333333333 4.266666666666667v55.46666666666667a4.906666666666666 4.906666666666666 0 0 0 5.333333333333333 4.266666666666667Z" fill="#ffffff" stroke-width="10.6667"></path>
    <path d="m98.66666666666666 142.29333333333332 25.066666666666666 11.413333333333334a33.06666666666666 33.06666666666666 0 0 0 12.799999999999999 2.5599999999999996h28.586666666666666a14.186666666666667 14.186666666666667 0 0 0 13.546666666666667 -9.813333333333333l12.053333333333331 -36.05333333333333a14.506666666666668 14.506666666666668 0 0 0 -1.92 -13.013333333333332 18.666666666666664 18.666666666666664 0 0 0 -13.333333333333332 -6.72H160V61.33333333333333a13.333333333333332 13.333333333333332 0 0 0 -26.666666666666664 0V64c0 16.96 -15.253333333333332 22.93333333333333 -28.266666666666666 22.93333333333333h-4.266666666666667a5.4399999999999995 5.4399999999999995 0 0 0 -5.333333333333333 5.333333333333333v45.120000000000005a5.4399999999999995 5.4399999999999995 0 0 0 3.1999999999999997 4.906666666666666Z" fill="#ffffff" stroke-width="10.6667"></path>
  </g>
</svg>