<svg xmlns="http://www.w3.org/2000/svg" fill="none" viewBox="0 0 256 256" id="Link-Disconnected--Streamline-Ultimate" height="256" width="256">
  <desc>
    Link Disconnected Streamline Icon: https://streamlinehq.com
  </desc>
  <path fill="#ffffff" fill-rule="evenodd" d="M249.06666666666666 249.06666666666666a10.666666666666666 10.666666666666666 0 0 1 -15.082666666666665 0L6.933333333333334 22.026666666666664A10.666666666666666 10.666666666666666 0 1 1 22.016 6.922666666666666l64.05333333333333 64.064L122.66666666666666 34.38933333333333a69.96266666666666 69.96266666666666 0 1 1 98.94399999999999 98.94399999999999l-36.586666666666666 36.586666666666666 64.05333333333333 64.064a10.666666666666666 10.666666666666666 0 0 1 0 15.093333333333334Zm-79.14666666666666 -94.21866666666666 36.608 -36.59733333333333a48.629333333333335 48.629333333333335 0 0 0 -68.768 -68.77866666666667L101.152 86.08l68.77866666666667 68.77866666666667ZM66.16533333333334 121.06666666666666l-16.682666666666666 16.682666666666666a48.63999999999999 48.63999999999999 0 0 0 0 68.768c18.186666666666667 18.186666666666667 52.68266666666666 16.095999999999997 72.53333333333333 -3.7439999999999998l12.885333333333332 -12.906666666666666a10.666666666666666 10.666666666666666 0 0 1 15.082666666666665 15.093333333333334l-12.896 12.896c-26.474666666666668 26.474666666666668 -74.56 31.872 -102.688 3.7439999999999998a69.97333333333333 69.97333333333333 0 0 1 0 -98.94399999999999l16.671999999999997 -16.671999999999997a10.666666666666666 10.666666666666666 0 1 1 15.093333333333334 15.082666666666665Z" clip-rule="evenodd" stroke-width="10.6667"></path>
</svg>