<svg xmlns="http://www.w3.org/2000/svg" id="List-Numbers--Streamline-Ultimate" width="256" height="256" viewBox="0 0 256 256"><desc>List Numbers Streamline Icon: https://streamlinehq.com</desc><g id="List-Numbers--Streamline-Ultimate.svg"><path fill="#fff" stroke-width="10.667" d="M82.66666666666666 48h160a10.666666666666666 10.666666666666666 0 0 0 0 -21.333333333333332h-160a10.666666666666666 10.666666666666666 0 0 0 0 21.333333333333332Z"/><path fill="#fff" stroke-width="10.667" d="M242.66666666666666 117.33333333333333h-160a10.666666666666666 10.666666666666666 0 0 0 0 21.333333333333332h160a10.666666666666666 10.666666666666666 0 0 0 0 -21.333333333333332Z"/><path fill="#fff" stroke-width="10.667" d="M242.66666666666666 208h-160a10.666666666666666 10.666666666666666 0 0 0 0 21.333333333333332h160a10.666666666666666 10.666666666666666 0 0 0 0 -21.333333333333332Z"/><path fill="#fff" stroke-width="10.667" d="M23.57333333333333 184a21.333333333333332 21.333333333333332 0 0 0 -20.586666666666666 15.786666666666665 8 8 0 0 0 15.466666666666665 4.16 5.333333333333333 5.333333333333333 0 0 1 5.119999999999999 -3.9466666666666663 5.333333333333333 5.333333333333333 0 0 1 5.333333333333333 5.333333333333333 5.333333333333333 5.333333333333333 0 0 1 -5.333333333333333 5.333333333333333 8 8 0 0 0 0 16 5.333333333333333 5.333333333333333 0 0 1 5.333333333333333 5.333333333333333 5.333333333333333 5.333333333333333 0 0 1 -10.666666666666666 1.3866666666666667 8 8 0 1 0 -15.36 4.373333333333333 21.333333333333332 21.333333333333332 0 0 0 41.81333333333333 -5.76 20.69333333333333 20.69333333333333 0 0 0 -3.626666666666667 -11.84 2.986666666666667 2.986666666666667 0 0 1 0 -2.986666666666667 20.69333333333333 20.69333333333333 0 0 0 3.626666666666667 -11.84 21.333333333333332 21.333333333333332 0 0 0 -21.119999999999997 -21.333333333333332Z"/><path fill="#fff" stroke-width="10.667" d="M45.33333333333333 114.66666666666666a21.333333333333332 21.333333333333332 0 0 0 -42.666666666666664 0 8.106666666666666 8.106666666666666 0 0 0 8 8 8.106666666666666 8.106666666666666 0 0 0 8 -8 5.333333333333333 5.333333333333333 0 0 1 10.666666666666666 0 10.666666666666666 10.666666666666666 0 0 1 -2.453333333333333 6.826666666666666L4.373333333333333 149.33333333333331a8.106666666666666 8.106666666666666 0 0 0 -0.96 8.426666666666666 8.106666666666666 8.106666666666666 0 0 0 7.253333333333334 4.586666666666666h26.666666666666664a8 8 0 0 0 0 -16h-4.4799999999999995a2.6666666666666665 2.6666666666666665 0 0 1 -2.3466666666666667 -1.4933333333333334 2.5599999999999996 2.5599999999999996 0 0 1 0 -2.88l8.64 -10.666666666666666a27.626666666666665 27.626666666666665 0 0 0 6.186666666666666 -16.64Z"/><path fill="#fff" stroke-width="10.667" d="M42.666666666666664 56h-2.6666666666666665A2.6666666666666665 2.6666666666666665 0 0 1 37.33333333333333 53.33333333333333V17.28A14.719999999999999 14.719999999999999 0 0 0 22.613333333333333 2.6666666666666665H16a8 8 0 0 0 0 16h2.6666666666666665A2.6666666666666665 2.6666666666666665 0 0 1 21.333333333333332 21.333333333333332v32a2.6666666666666665 2.6666666666666665 0 0 1 -2.6666666666666665 2.6666666666666665H16a8 8 0 0 0 0 16H42.666666666666664a8 8 0 0 0 0 -16Z"/></g></svg>