<svg xmlns="http://www.w3.org/2000/svg" id="Loading--Streamline-Ultimate" width="256" height="256" viewBox="0 0 256 256"><desc>Loading Streamline Icon: https://streamlinehq.com</desc><g id="Loading--Streamline-Ultimate.svg"><path fill="#fff" stroke-width="10.667" d="M128 69.33333333333333A16 16 0 0 0 144 53.33333333333333V21.333333333333332a16 16 0 0 0 -32 0v32A16 16 0 0 0 128 69.33333333333333Z"/><path fill="#fff" stroke-width="10.667" d="M88.21333333333332 65.17333333333333 65.6 42.666666666666664A16.32 16.32 0 0 0 42.666666666666664 42.666666666666664a15.786666666666665 15.786666666666665 0 0 0 -4.693333333333333 11.306666666666667A16.21333333333333 16.21333333333333 0 0 0 42.666666666666664 65.17333333333333l22.93333333333333 22.613333333333333a16 16 0 0 0 11.306666666666667 4.693333333333333 16 16 0 0 0 11.306666666666667 -27.306666666666665Z"/><path fill="#fff" stroke-width="10.667" d="M5.333333333333333 128A16 16 0 0 0 21.333333333333332 144h32a16 16 0 0 0 0 -32H21.333333333333332A16 16 0 0 0 5.333333333333333 128Z"/><path fill="#fff" stroke-width="10.667" d="M74.66666666666666 165.54666666666665a15.786666666666665 15.786666666666665 0 0 0 -11.733333333333334 5.119999999999999l-22.72 22.186666666666667a16.106666666666666 16.106666666666666 0 0 0 0 22.613333333333333 16.106666666666666 16.106666666666666 0 0 0 22.72 0L85.33333333333333 192.8533333333333a16 16 0 0 0 -10.666666666666666 -27.306666666666665Z"/><path fill="#fff" stroke-width="10.667" d="M112 234.66666666666666a16 16 0 0 0 32 0v-32a16 16 0 0 0 -32 0Z"/><path fill="#fff" stroke-width="10.667" d="M171.2 170.66666666666666a16 16 0 0 0 0 22.613333333333333l22.613333333333333 22.613333333333333a16.21333333333333 16.21333333333333 0 0 0 11.306666666666667 4.693333333333333 16.426666666666666 16.426666666666666 0 0 0 11.413333333333334 -4.693333333333333 16.106666666666666 16.106666666666666 0 0 0 4.586666666666666 -11.306666666666667 15.786666666666665 15.786666666666665 0 0 0 -4.693333333333333 -11.413333333333334L193.81333333333333 170.66666666666666a16 16 0 0 0 -22.613333333333333 0Z"/><path fill="#fff" stroke-width="10.667" d="M250.66666666666666 128a16 16 0 0 0 -16 -16h-32a16 16 0 0 0 -16 16 16 16 0 0 0 16 16h32a16 16 0 0 0 16 -16Z"/><path fill="#fff" stroke-width="10.667" d="M202.66666666666666 36.373333333333335a16.21333333333333 16.21333333333333 0 0 0 -10.666666666666666 4.693333333333333L169.17333333333332 64a16 16 0 0 0 0 22.613333333333333 16.106666666666666 16.106666666666666 0 0 0 22.72 0L214.50666666666666 64A16 16 0 0 0 202.66666666666666 36.373333333333335Z"/></g></svg>