<svg xmlns="http://www.w3.org/2000/svg" viewBox="0 0 256 256" id="Loading-Circle--Streamline-Ultimate" height="256" width="256">
  <desc>
    Loading Circle Streamline Icon: https://streamlinehq.com
  </desc>
  <g id="Loading-Circle--Streamline-Ultimate.svg">
    <path d="M128 68.05333333333333a13.013333333333332 13.013333333333332 0 0 0 13.013333333333332 -13.12V13.226666666666667a13.013333333333332 13.013333333333332 0 0 0 -26.026666666666664 0v41.70666666666666A13.013333333333332 13.013333333333332 0 0 0 128 68.05333333333333Z" fill="#ffffff" stroke-width="10.6667"></path>
    <path d="M72.42666666666666 68.16A12.906666666666666 12.906666666666666 0 0 0 83.73333333333332 74.66666666666666a13.44 13.44 0 0 0 6.506666666666666 -1.7066666666666666 13.013333333333332 13.013333333333332 0 0 0 4.693333333333333 -17.813333333333333L87.14666666666666 41.599999999999994a13.013333333333332 13.013333333333332 0 0 0 -17.813333333333333 -4.8 13.12 13.12 0 0 0 -4.8 17.813333333333333Z" fill="#ffffff" stroke-width="10.6667"></path>
    <path d="m31.146666666666665 97.6 13.546666666666667 7.786666666666666a12.906666666666666 12.906666666666666 0 0 0 6.506666666666666 1.2799999999999998 13.12 13.12 0 0 0 11.306666666666667 -6.506666666666666 13.013333333333332 13.013333333333332 0 0 0 -4.8 -17.813333333333333L44.16 74.66666666666666a13.013333333333332 13.013333333333332 0 0 0 -17.813333333333333 4.8 13.226666666666667 13.226666666666667 0 0 0 4.8 18.133333333333333Z" fill="#ffffff" stroke-width="10.6667"></path>
    <path d="M23.68 151.46666666666664h15.68a13.12 13.12 0 0 0 0 -26.133333333333333H23.68a13.12 13.12 0 0 0 0 26.133333333333333Z" fill="#ffffff" stroke-width="10.6667"></path>
    <path d="m44.693333333333335 171.41333333333333 -13.546666666666667 7.893333333333333a13.013333333333332 13.013333333333332 0 1 0 13.013333333333332 22.506666666666664l13.546666666666667 -7.786666666666666a13.013333333333332 13.013333333333332 0 0 0 4.8 -17.813333333333333 13.226666666666667 13.226666666666667 0 0 0 -17.813333333333333 -4.8Z" fill="#ffffff" stroke-width="10.6667"></path>
    <path d="M69.33333333333333 240a12.799999999999999 12.799999999999999 0 0 0 17.813333333333333 -4.8l7.786666666666666 -13.546666666666667a13.013333333333332 13.013333333333332 0 1 0 -22.506666666666664 -13.013333333333332l-7.893333333333333 13.546666666666667a13.12 13.12 0 0 0 4.8 17.813333333333333Z" fill="#ffffff" stroke-width="10.6667"></path>
    <path d="M128 256a13.013333333333332 13.013333333333332 0 0 0 13.013333333333332 -13.12v-15.786666666666665a13.013333333333332 13.013333333333332 0 1 0 -26.026666666666664 0v15.573333333333332A13.013333333333332 13.013333333333332 0 0 0 128 256Z" fill="#ffffff" stroke-width="10.6667"></path>
    <path d="M168.85333333333332 235.2A13.013333333333332 13.013333333333332 0 0 0 192 222.18666666666664l-7.893333333333333 -13.546666666666667a13.013333333333332 13.013333333333332 0 1 0 -22.506666666666664 13.013333333333332Z" fill="#ffffff" stroke-width="10.6667"></path>
    <path d="m224.8533333333333 179.30666666666664 -13.546666666666667 -7.893333333333333a13.226666666666667 13.226666666666667 0 0 0 -17.813333333333333 4.8 13.013333333333332 13.013333333333332 0 0 0 4.8 17.813333333333333l13.546666666666667 7.786666666666666a13.013333333333332 13.013333333333332 0 1 0 13.013333333333332 -22.506666666666664Z" fill="#ffffff" stroke-width="10.6667"></path>
    <path d="M203.62666666666667 138.66666666666666a13.013333333333332 13.013333333333332 0 0 0 13.013333333333332 13.013333333333332h15.68a13.12 13.12 0 0 0 0 -26.133333333333333h-15.68A13.12 13.12 0 0 0 203.62666666666667 138.66666666666666Z" fill="#ffffff" stroke-width="10.6667"></path>
    <path d="M193.49333333333334 100.58666666666666a13.12 13.12 0 0 0 11.306666666666667 6.079999999999999 12.906666666666666 12.906666666666666 0 0 0 6.506666666666666 -1.7066666666666666l13.546666666666667 -7.786666666666666a13.226666666666667 13.226666666666667 0 0 0 4.8 -17.813333333333333A13.013333333333332 13.013333333333332 0 0 0 211.83999999999997 74.66666666666666l-13.546666666666667 7.786666666666666a13.013333333333332 13.013333333333332 0 0 0 -4.8 18.133333333333333Z" fill="#ffffff" stroke-width="10.6667"></path>
    <path d="M165.76 72.96a13.44 13.44 0 0 0 6.506666666666666 1.7066666666666666 12.906666666666666 12.906666666666666 0 0 0 11.306666666666667 -6.506666666666666L192 54.61333333333333a13.12 13.12 0 0 0 -4.8 -17.813333333333333 13.013333333333332 13.013333333333332 0 0 0 -17.813333333333333 4.8l-8.32 13.546666666666667a13.013333333333332 13.013333333333332 0 0 0 4.693333333333333 17.813333333333333Z" fill="#ffffff" stroke-width="10.6667"></path>
  </g>
</svg>