<svg xmlns="http://www.w3.org/2000/svg" viewBox="0 0 256 256" id="Location-Off-Target--Streamline-Ultimate" height="256" width="256">
  <desc>
    Location Off Target Streamline Icon: https://streamlinehq.com
  </desc>
  <g id="Location-Off-Target--Streamline-Ultimate.svg">
    <path d="M150.72 194.77333333333334a71.89333333333333 71.89333333333333 0 0 1 -22.72 3.733333333333333 70.50666666666666 70.50666666666666 0 0 1 -66.77333333333333 -93.12 13.12 13.12 0 0 0 -24.746666666666663 -8.533333333333333 108.58666666666666 108.58666666666666 0 0 0 -3.52 13.76 5.119999999999999 5.119999999999999 0 0 1 -5.119999999999999 4.373333333333333H13.013333333333332a13.013333333333332 13.013333333333332 0 1 0 0 26.026666666666664h14.826666666666664a5.333333333333333 5.333333333333333 0 0 1 5.226666666666667 4.373333333333333 96.53333333333333 96.53333333333333 0 0 0 77.54666666666665 77.54666666666665 5.333333333333333 5.333333333333333 0 0 1 4.373333333333333 5.226666666666667v14.826666666666664a13.013333333333332 13.013333333333332 0 1 0 26.026666666666664 0v-14.826666666666664a5.119999999999999 5.119999999999999 0 0 1 4.373333333333333 -5.119999999999999 108.58666666666666 108.58666666666666 0 0 0 13.76 -3.52 13.12 13.12 0 0 0 -8.426666666666666 -24.746666666666663Z" fill="#ffffff" stroke-width="10.6667"></path>
    <path d="M208.10666666666668 189.65333333333334a5.333333333333333 5.333333333333333 0 0 1 -0.6399999999999999 -6.72 96.96 96.96 0 0 0 15.573333333333332 -37.54666666666667 5.119999999999999 5.119999999999999 0 0 1 5.119999999999999 -4.373333333333333h14.826666666666664a13.013333333333332 13.013333333333332 0 0 0 0 -26.026666666666664h-14.826666666666664a5.333333333333333 5.333333333333333 0 0 1 -5.226666666666667 -4.373333333333333 96.53333333333333 96.53333333333333 0 0 0 -77.54666666666665 -77.54666666666665 5.333333333333333 5.333333333333333 0 0 1 -4.373333333333333 -5.226666666666667V13.013333333333332a13.013333333333332 13.013333333333332 0 1 0 -26.026666666666664 0v14.826666666666664a5.119999999999999 5.119999999999999 0 0 1 -4.373333333333333 5.119999999999999 96.96 96.96 0 0 0 -37.54666666666667 15.573333333333332 5.119999999999999 5.119999999999999 0 0 1 -6.613333333333333 0L22.29333333333333 3.84A13.013333333333332 13.013333333333332 0 0 0 3.84 22.29333333333333l229.86666666666667 229.86666666666667a13.013333333333332 13.013333333333332 0 0 0 18.453333333333333 -18.453333333333333ZM128 57.493333333333325A70.50666666666666 70.50666666666666 0 0 1 198.50666666666666 128a69.54666666666665 69.54666666666665 0 0 1 -8.746666666666666 33.92 5.013333333333333 5.013333333333333 0 0 1 -3.84 2.5599999999999996 4.8 4.8 0 0 1 -4.373333333333333 -1.3866666666666667L92.90666666666667 74.66666666666666a5.226666666666667 5.226666666666667 0 0 1 -1.4933333333333334 -4.373333333333333 5.4399999999999995 5.4399999999999995 0 0 1 2.6666666666666665 -3.9466666666666663A70.29333333333332 70.29333333333332 0 0 1 128 57.493333333333325Z" fill="#ffffff" stroke-width="10.6667"></path>
  </g>
</svg>