<svg xmlns="http://www.w3.org/2000/svg" viewBox="0 0 256 256" id="Locker-Room-Suitcase-Key--Streamline-Ultimate" height="256" width="256">
  <desc>
    Locker Room Suitcase Key Streamline Icon: https://streamlinehq.com
  </desc>
  <g id="Locker-Room-Suitcase-Key--Streamline-Ultimate.svg">
    <path d="M256 84.05333333333333a26.666666666666664 26.666666666666664 0 0 0 -26.666666666666664 -26.666666666666664h-45.33333333333333a5.333333333333333 5.333333333333333 0 0 1 -5.333333333333333 -5.333333333333333v-8.106666666666666a26.77333333333333 26.77333333333333 0 0 0 -26.666666666666664 -26.666666666666664h-48a26.77333333333333 26.77333333333333 0 0 0 -26.666666666666664 26.666666666666664v8.106666666666666a5.333333333333333 5.333333333333333 0 0 1 -5.333333333333333 5.333333333333333H26.666666666666664A26.666666666666664 26.666666666666664 0 0 0 0 84.05333333333333v128a26.77333333333333 26.77333333333333 0 0 0 26.666666666666664 26.666666666666664h202.66666666666666a26.77333333333333 26.77333333333333 0 0 0 26.666666666666664 -26.666666666666664ZM98.66666666666666 43.946666666666665a5.4399999999999995 5.4399999999999995 0 0 1 5.333333333333333 -5.333333333333333h48a5.4399999999999995 5.4399999999999995 0 0 1 5.333333333333333 5.333333333333333v8.106666666666666a5.333333333333333 5.333333333333333 0 0 1 -5.333333333333333 5.333333333333333h-48a5.333333333333333 5.333333333333333 0 0 1 -5.333333333333333 -5.333333333333333ZM160 190.71999999999997a37.65333333333333 37.65333333333333 0 0 1 -29.119999999999997 -14.08 5.119999999999999 5.119999999999999 0 0 0 -4.16 -1.92H69.33333333333333a5.4399999999999995 5.4399999999999995 0 0 1 -3.733333333333333 -1.5999999999999999l-16 -16a5.333333333333333 5.333333333333333 0 0 1 0 -7.573333333333332l16 -16a5.333333333333333 5.333333333333333 0 0 1 3.733333333333333 -1.4933333333333334h57.38666666666666a5.226666666666667 5.226666666666667 0 0 0 4.16 -2.0266666666666664A37.33333333333333 37.33333333333333 0 1 1 160 190.71999999999997Z" fill="#ffffff" stroke-width="10.6667"></path>
    <path d="M160 137.38666666666666a16 16 0 1 0 16 16 16 16 0 0 0 -16 -16Z" fill="#ffffff" stroke-width="10.6667"></path>
  </g>
</svg>