<svg xmlns="http://www.w3.org/2000/svg" viewBox="0 0 256 256" id="Lock-Hierarchy--Streamline-Ultimate" height="256" width="256">
  <desc>
    Lock Hierarchy Streamline Icon: https://streamlinehq.com
  </desc>
  <g id="Lock-Hierarchy--Streamline-Ultimate.svg">
    <path d="M93.33333333333333 34.666666666666664v10.666666666666666H90.66666666666666a10.666666666666666 10.666666666666666 0 0 0 -10.666666666666666 10.666666666666666v56a10.666666666666666 10.666666666666666 0 0 0 10.666666666666666 10.666666666666666h74.66666666666666a10.666666666666666 10.666666666666666 0 0 0 10.666666666666666 -10.666666666666666V56a10.666666666666666 10.666666666666666 0 0 0 -10.666666666666666 -10.666666666666666h-2.6666666666666665v-10.666666666666666a34.666666666666664 34.666666666666664 0 0 0 -69.33333333333333 0Zm34.666666666666664 64a10.666666666666666 10.666666666666666 0 1 1 10.666666666666666 -10.666666666666666 10.666666666666666 10.666666666666666 0 0 1 -10.666666666666666 10.666666666666666Zm0 -82.66666666666666a18.773333333333333 18.773333333333333 0 0 1 18.666666666666664 18.666666666666664V42.666666666666664a2.6666666666666665 2.6666666666666665 0 0 1 -2.6666666666666665 2.6666666666666665h-32a2.6666666666666665 2.6666666666666665 0 0 1 -2.6666666666666665 -2.6666666666666665v-8A18.773333333333333 18.773333333333333 0 0 1 128 16Z" fill="#ffffff" stroke-width="10.6667"></path>
    <path d="M229.33333333333331 210.66666666666666v-48a16 16 0 0 0 -16 -16h-74.66666666666666v-5.333333333333333a10.666666666666666 10.666666666666666 0 0 0 -21.333333333333332 0v5.333333333333333H42.666666666666664a16 16 0 0 0 -16 16v48a23.68 23.68 0 0 0 -13.333333333333332 21.333333333333332 24 24 0 0 0 48 0 23.68 23.68 0 0 0 -13.333333333333332 -21.333333333333332v-37.33333333333333a5.333333333333333 5.333333333333333 0 0 1 5.333333333333333 -5.333333333333333h58.666666666666664a5.333333333333333 5.333333333333333 0 0 1 5.333333333333333 5.333333333333333v37.33333333333333a23.68 23.68 0 0 0 -13.333333333333332 21.333333333333332 24 24 0 0 0 48 0 23.68 23.68 0 0 0 -13.333333333333332 -21.333333333333332v-37.33333333333333a5.333333333333333 5.333333333333333 0 0 1 5.333333333333333 -5.333333333333333H202.66666666666666a5.333333333333333 5.333333333333333 0 0 1 5.333333333333333 5.333333333333333v37.33333333333333a23.68 23.68 0 0 0 -13.333333333333332 21.333333333333332 24 24 0 0 0 48 0 23.68 23.68 0 0 0 -13.333333333333332 -21.333333333333332Z" fill="#ffffff" stroke-width="10.6667"></path>
  </g>
</svg>