<svg xmlns="http://www.w3.org/2000/svg" viewBox="0 0 256 256" id="Lock-5--Streamline-Ultimate" height="256" width="256">
  <desc>
    Lock 5 Streamline Icon: https://streamlinehq.com
  </desc>
  <path d="M200 125.01333333333334v-53.33333333333333a72 72 0 0 0 -144 0v53.33333333333333a85.33333333333333 85.33333333333333 0 1 0 144 0ZM128 192a21.333333333333332 21.333333333333332 0 1 1 21.333333333333332 -21.333333333333332 21.333333333333332 21.333333333333332 0 0 1 -21.333333333333332 21.333333333333332Zm45.33333333333333 -102.61333333333332a5.546666666666667 5.546666666666667 0 0 1 -2.5599999999999996 4.586666666666666 5.119999999999999 5.119999999999999 0 0 1 -5.119999999999999 0 84.47999999999999 84.47999999999999 0 0 0 -75.30666666666666 0 5.119999999999999 5.119999999999999 0 0 1 -5.119999999999999 0 5.546666666666667 5.546666666666667 0 0 1 -2.5599999999999996 -4.586666666666666V72a45.33333333333333 45.33333333333333 0 0 1 90.66666666666666 0Z" fill="#ffffff" stroke-width="10.6667"></path>
</svg>