<svg xmlns="http://www.w3.org/2000/svg" viewBox="0 0 256 256" id="Lock-Unlock-4--Streamline-Ultimate" height="256" width="256">
  <desc>
    Lock Unlock 4 Streamline Icon: https://streamlinehq.com
  </desc>
  <path d="M200 107.30666666666667V72a72 72 0 0 0 -144 0 13.333333333333332 13.333333333333332 0 0 0 26.666666666666664 0 45.33333333333333 45.33333333333333 0 0 1 90.66666666666666 0V96a5.333333333333333 5.333333333333333 0 0 1 -5.333333333333333 5.333333333333333H80a53.33333333333333 53.33333333333333 0 0 0 -53.33333333333333 53.33333333333333V202.66666666666666a53.33333333333333 53.33333333333333 0 0 0 53.33333333333333 53.33333333333333h96a53.33333333333333 53.33333333333333 0 0 0 53.33333333333333 -53.33333333333333v-48a53.33333333333333 53.33333333333333 0 0 0 -29.333333333333332 -47.36ZM149.33333333333331 176a21.333333333333332 21.333333333333332 0 1 1 -21.333333333333332 -21.333333333333332 21.333333333333332 21.333333333333332 0 0 1 21.333333333333332 21.333333333333332Z" fill="#ffffff" stroke-width="10.6667"></path>
</svg>