<svg xmlns="http://www.w3.org/2000/svg" id="Lock-Shield--Streamline-Ultimate" width="256" height="256" viewBox="0 0 256 256"><desc>Lock Shield Streamline Icon: https://streamlinehq.com</desc><g id="Lock-Shield--Streamline-Ultimate.svg"><path fill="#fff" stroke-width="10.667" d="M146.66666666666666 77.22666666666666a18.666666666666664 18.666666666666664 0 0 0 -37.33333333333333 0v16a2.6666666666666665 2.6666666666666665 0 0 0 2.6666666666666665 2.7733333333333334h32a2.6666666666666665 2.6666666666666665 0 0 0 2.6666666666666665 -2.6666666666666665Z"/><path fill="#fff" stroke-width="10.667" d="M256 21.333333333333332a21.333333333333332 21.333333333333332 0 0 0 -21.333333333333332 -21.333333333333332H21.333333333333332a21.333333333333332 21.333333333333332 0 0 0 -21.333333333333332 21.333333333333332v77.97333333333333A161.38666666666666 161.38666666666666 0 0 0 126.50666666666666 256a7.253333333333334 7.253333333333334 0 0 0 2.1333333333333333 0 7.573333333333332 7.573333333333332 0 0 0 2.1333333333333333 0A161.49333333333334 161.49333333333334 0 0 0 256 98.13333333333333ZM80 165.22666666666666V106.66666666666666a10.666666666666666 10.666666666666666 0 0 1 10.666666666666666 -10.666666666666666h2.6666666666666665V77.22666666666666a34.666666666666664 34.666666666666664 0 0 1 69.33333333333333 0V96h2.6666666666666665a10.666666666666666 10.666666666666666 0 0 1 10.666666666666666 10.666666666666666v58.666666666666664a10.666666666666666 10.666666666666666 0 0 1 -10.666666666666666 10.666666666666666h-74.66666666666666a10.666666666666666 10.666666666666666 0 0 1 -10.666666666666666 -10.773333333333333Z"/><path fill="#fff" stroke-width="10.667" d="M114.66666666666666 141.22666666666666a13.333333333333332 13.333333333333332 0 1 0 26.666666666666664 0 13.333333333333332 13.333333333333332 0 1 0 -26.666666666666664 0"/></g></svg>