<svg xmlns="http://www.w3.org/2000/svg" viewBox="0 0 256 256" id="Login-Key--Streamline-Ultimate" height="256" width="256">
  <desc>
    Login Key Streamline Icon: https://streamlinehq.com
  </desc>
  <path d="M250.66666666666666 0h-32a5.013333333333333 5.013333333333333 0 0 0 -3.733333333333333 1.5999999999999999l-101.65333333333332 101.65333333333332a80 80 0 1 0 39.46666666666667 39.46666666666667l24.746666666666663 -24.64 20.586666666666666 6.933333333333334a10.666666666666666 10.666666666666666 0 0 0 10.666666666666666 -2.0266666666666664 10.666666666666666 10.666666666666666 0 0 0 3.626666666666667 -9.706666666666667l-4.266666666666667 -25.813333333333333 7.68 -7.786666666666666 15.573333333333332 7.1466666666666665A10.666666666666666 10.666666666666666 0 0 0 246.07999999999998 74.66666666666666l-5.4399999999999995 -19.306666666666665 13.76 -13.866666666666667A5.013333333333333 5.013333333333333 0 0 0 256 37.33333333333333v-32a5.333333333333333 5.333333333333333 0 0 0 -5.333333333333333 -5.333333333333333ZM74.66666666666666 197.33333333333331A16 16 0 1 1 58.666666666666664 181.33333333333331 16 16 0 0 1 74.66666666666666 197.33333333333331Z" fill="#ffffff" stroke-width="10.6667"></path>
</svg>