<svg xmlns="http://www.w3.org/2000/svg" viewBox="0 0 256 256" id="Login-1--Streamline-Ultimate" height="256" width="256">
  <desc>
    Login 1 Streamline Icon: https://streamlinehq.com
  </desc>
  <g id="Login-1--Streamline-Ultimate.svg">
    <path d="M245.33333333333331 5.333333333333333H112a10.666666666666666 10.666666666666666 0 0 0 -10.666666666666666 10.666666666666666V96a5.333333333333333 5.333333333333333 0 0 0 5.333333333333333 5.333333333333333h72.85333333333332A33.38666666666666 33.38666666666666 0 0 1 213.33333333333331 131.62666666666667a32 32 0 0 1 -32 33.70666666666666h-74.66666666666666a5.333333333333333 5.333333333333333 0 0 0 -5.333333333333333 5.333333333333333v69.33333333333333a10.666666666666666 10.666666666666666 0 0 0 10.666666666666666 10.666666666666666H245.33333333333331a10.666666666666666 10.666666666666666 0 0 0 10.666666666666666 -10.666666666666666v-224a10.666666666666666 10.666666666666666 0 0 0 -10.666666666666666 -10.666666666666666Z" fill="#ffffff" stroke-width="10.6667"></path>
    <path d="M181.33333333333331 149.33333333333331a16 16 0 0 0 0 -32H74.66666666666666V90.66666666666666a10.666666666666666 10.666666666666666 0 0 0 -6.079999999999999 -9.6 10.666666666666666 10.666666666666666 0 0 0 -10.666666666666666 1.2799999999999998l-53.33333333333333 42.666666666666664a10.666666666666666 10.666666666666666 0 0 0 0 16.64l53.33333333333333 42.666666666666664a10.666666666666666 10.666666666666666 0 0 0 11.306666666666667 1.2799999999999998 10.666666666666666 10.666666666666666 0 0 0 5.4399999999999995 -9.6V149.33333333333331Z" fill="#ffffff" stroke-width="10.6667"></path>
  </g>
</svg>