<svg xmlns="http://www.w3.org/2000/svg" id="Love-It-Flag--Streamline-Ultimate" width="256" height="256" viewBox="0 0 256 256"><desc>Love It Flag Streamline Icon: https://streamlinehq.com</desc><path fill="#fff" stroke-width="10.667" d="M249.49333333333334 28.586666666666666a15.786666666666665 15.786666666666665 0 0 0 -14.826666666666664 -2.1333333333333333c-48.959999999999994 16.96 -68.16 10.666666666666666 -105.6 0C96 17.386666666666663 73.38666666666666 9.28 21.333333333333332 22.826666666666668V10.666666666666666a10.666666666666666 10.666666666666666 0 0 0 -21.333333333333332 0v234.66666666666666a10.666666666666666 10.666666666666666 0 0 0 21.333333333333332 0v-29.65333333333333c51.30666666666666 -13.866666666666667 72.85333333333332 -6.079999999999999 105.27999999999999 2.7733333333333334C170.66666666666666 230.50666666666666 192 236.16 245.33333333333331 215.67999999999998a16.106666666666666 16.106666666666666 0 0 0 10.666666666666666 -14.933333333333332V41.599999999999994a16.21333333333333 16.21333333333333 0 0 0 -6.506666666666666 -13.013333333333332ZM138.66666666666666 171.73333333333335a6.72 6.72 0 0 1 -9.6 0L86.29333333333332 128a27.839999999999996 27.839999999999996 0 1 1 39.36 -39.36l5.76 5.76a2.6666666666666665 2.6666666666666665 0 0 0 3.84 0l5.76 -5.76A27.839999999999996 27.839999999999996 0 1 1 180.37333333333333 128Z"/></svg>