<svg xmlns="http://www.w3.org/2000/svg" id="Love-It-Break--Streamline-Ultimate" width="256" height="256" viewBox="0 0 256 256"><desc>Love It Break Streamline Icon: https://streamlinehq.com</desc><g id="Love-It-Break--Streamline-Ultimate.svg"><path fill="#fff" stroke-width="10.667" d="M248.74666666666667 55.46666666666667a70.18666666666667 70.18666666666667 0 0 0 -111.46666666666665 -18.24c-2.2399999999999998 2.0266666666666664 -2.986666666666667 2.453333333333333 -3.3066666666666666 3.413333333333333l-28.8 78.39999999999999a2.5599999999999996 2.5599999999999996 0 0 0 0 2.453333333333333 2.6666666666666665 2.6666666666666665 0 0 0 2.1333333333333333 1.0666666666666667h51.093333333333334a8 8 0 0 1 6.3999999999999995 3.1999999999999997 7.893333333333333 7.893333333333333 0 0 1 1.2799999999999998 7.04l-25.92 92.26666666666667a2.88 2.88 0 0 0 1.1733333333333333 3.093333333333333 2.7733333333333334 2.7733333333333334 0 0 0 3.3066666666666666 0l87.57333333333334 -90.24000000000001a68.16 68.16 0 0 0 16.53333333333333 -82.45333333333333Z"/><path fill="#fff" stroke-width="10.667" d="M147.2 141.97333333333333a3.093333333333333 3.093333333333333 0 0 0 0 -2.3466666666666667 2.986666666666667 2.986666666666667 0 0 0 -2.1333333333333333 -1.0666666666666667H92.37333333333333A8 8 0 0 1 85.33333333333333 128l32 -89.6a2.6666666666666665 2.6666666666666665 0 0 0 0 -2.88 69.22666666666666 69.22666666666666 0 0 0 -58.773333333333326 -17.28A69.01333333333332 69.01333333333332 0 0 0 7.466666666666666 55.46666666666667a68.16 68.16 0 0 0 12.693333333333332 79.46666666666667s78.50666666666666 84.69333333333333 96 102.93333333333334a2.7733333333333334 2.7733333333333334 0 0 0 2.5599999999999996 0.7466666666666667 2.7733333333333334 2.7733333333333334 0 0 0 1.92 -1.8133333333333335Z"/></g></svg>