<svg xmlns="http://www.w3.org/2000/svg" viewBox="0 0 256 256" id="Mailbox-Post--Streamline-Ultimate" height="256" width="256">
  <desc>
    Mailbox Post Streamline Icon: https://streamlinehq.com
  </desc>
  <path d="M181.33333333333331 0H74.66666666666666a48.10666666666666 48.10666666666666 0 0 0 -48 48V245.33333333333331a10.666666666666666 10.666666666666666 0 0 0 21.333333333333332 0v-13.333333333333332a2.6666666666666665 2.6666666666666665 0 0 1 2.6666666666666665 -2.6666666666666665h154.66666666666666a2.6666666666666665 2.6666666666666665 0 0 1 2.6666666666666665 2.6666666666666665V245.33333333333331a10.666666666666666 10.666666666666666 0 0 0 21.333333333333332 0V48A48.10666666666666 48.10666666666666 0 0 0 181.33333333333331 0ZM85.33333333333333 112.53333333333333a3.52 3.52 0 0 1 0 -4.16 3.733333333333333 3.733333333333333 0 0 1 4.266666666666667 -0.96l83.94666666666666 36.05333333333333a3.733333333333333 3.733333333333333 0 0 1 2.3466666666666667 3.413333333333333 3.9466666666666663 3.9466666666666663 0 0 1 -2.3466666666666667 3.52L89.6 186.34666666666664a4.053333333333333 4.053333333333333 0 0 1 -4.266666666666667 -0.8533333333333333 3.733333333333333 3.733333333333333 0 0 1 0 -4.16l17.066666666666666 -34.346666666666664Zm-12.799999999999999 -85.33333333333333h112a2.6666666666666665 2.6666666666666665 0 0 1 2.6666666666666665 2.6666666666666665v37.33333333333333a2.6666666666666665 2.6666666666666665 0 0 1 -2.6666666666666665 2.6666666666666665H72a2.6666666666666665 2.6666666666666665 0 0 1 -2.6666666666666665 -2.6666666666666665V29.333333333333332a2.6666666666666665 2.6666666666666665 0 0 1 2.6666666666666665 -2.6666666666666665Z" fill="#ffffff" stroke-width="10.6667"></path>
</svg>