<svg xmlns="http://www.w3.org/2000/svg" id="Make-Up-Lipstick-1--Streamline-Ultimate" width="256" height="256" viewBox="0 0 256 256"><desc>Make Up Lipstick 1 Streamline Icon: https://streamlinehq.com</desc><g id="Make-Up-Lipstick-1--Streamline-Ultimate.svg"><path fill="#fff" stroke-width="10.667" d="M101.75999999999999 141.22666666666666a5.226666666666667 5.226666666666667 0 0 1 -3.093333333333333 -4.8V16A15.893333333333333 15.893333333333333 0 0 0 73.28 3.093333333333333L32 33.17333333333333a32 32 0 0 0 -13.333333333333332 25.92v77.33333333333333a5.226666666666667 5.226666666666667 0 0 1 -3.093333333333333 4.8A26.560000000000002 26.560000000000002 0 0 0 0 165.33333333333331V245.33333333333331a10.666666666666666 10.666666666666666 0 0 0 10.666666666666666 10.666666666666666h96a10.666666666666666 10.666666666666666 0 0 0 10.666666666666666 -10.666666666666666v-80a26.560000000000002 26.560000000000002 0 0 0 -15.573333333333332 -24.106666666666662Zm-24.426666666666666 -7.893333333333333a5.333333333333333 5.333333333333333 0 0 1 -5.333333333333333 5.333333333333333h-26.666666666666664a5.333333333333333 5.333333333333333 0 0 1 -5.333333333333333 -5.333333333333333v-74.66666666666666a10.666666666666666 10.666666666666666 0 0 1 4.373333333333333 -8.64l24.53333333333333 -17.813333333333333A5.226666666666667 5.226666666666667 0 0 1 74.66666666666666 32a5.4399999999999995 5.4399999999999995 0 0 1 2.88 4.693333333333333Z"/><path fill="#fff" stroke-width="10.667" d="M229.33333333333331 128h-64a26.666666666666664 26.666666666666664 0 0 0 -26.666666666666664 26.666666666666664v50.666666666666664a5.333333333333333 5.333333333333333 0 0 0 5.333333333333333 5.333333333333333h106.66666666666666a5.333333333333333 5.333333333333333 0 0 0 5.333333333333333 -5.333333333333333V154.66666666666666a26.666666666666664 26.666666666666664 0 0 0 -26.666666666666664 -26.666666666666664Z"/><path fill="#fff" stroke-width="10.667" d="M250.66666666666666 226.66666666666666h-106.66666666666666a5.333333333333333 5.333333333333333 0 0 0 -5.333333333333333 5.333333333333333V245.33333333333331a10.666666666666666 10.666666666666666 0 0 0 10.666666666666666 10.666666666666666h96a10.666666666666666 10.666666666666666 0 0 0 10.666666666666666 -10.666666666666666v-13.333333333333332a5.333333333333333 5.333333333333333 0 0 0 -5.333333333333333 -5.333333333333333Z"/></g></svg>