<svg xmlns="http://www.w3.org/2000/svg" viewBox="0 0 256 256" id="Make-Up-Lipstick--Streamline-Ultimate" height="256" width="256">
  <desc>
    Make Up Lipstick Streamline Icon: https://streamlinehq.com
  </desc>
  <g id="Make-Up-Lipstick--Streamline-Ultimate.svg">
    <path d="M85.33333333333333 125.75999999999999a10.666666666666666 10.666666666666666 0 0 0 -7.466666666666666 -3.093333333333333 10.666666666666666 10.666666666666666 0 0 0 -7.466666666666666 3.093333333333333l-50.13333333333333 50.13333333333333a15.893333333333333 15.893333333333333 0 0 0 0 22.613333333333333l52.266666666666666 52.8a16 16 0 0 0 11.306666666666667 4.693333333333333 16 16 0 0 0 11.306666666666667 -4.693333333333333l50.13333333333333 -50.13333333333333a10.666666666666666 10.666666666666666 0 0 0 0 -15.04Z" fill="#ffffff" stroke-width="10.6667"></path>
    <path d="M231.04 1.1733333333333333A16 16 0 0 0 213.33333333333331 4.693333333333333l-63.04 62.93333333333334a5.76 5.76 0 0 1 -4.053333333333333 1.5999999999999999 10.026666666666666 10.026666666666666 0 0 0 -7.893333333333333 2.88l-41.17333333333333 41.49333333333333a5.333333333333333 5.333333333333333 0 0 0 0 7.573333333333332l53.33333333333333 52.8a5.4399999999999995 5.4399999999999995 0 0 0 3.733333333333333 1.5999999999999999 5.653333333333333 5.653333333333333 0 0 0 3.84 -1.5999999999999999l41.49333333333333 -41.49333333333333a10.666666666666666 10.666666666666666 0 0 0 2.88 -8 5.653333333333333 5.653333333333333 0 0 1 1.5999999999999999 -4.16L234.66666666666666 89.17333333333332A21.333333333333332 21.333333333333332 0 0 0 240.95999999999998 74.66666666666666V16a16.106666666666666 16.106666666666666 0 0 0 -9.92 -14.826666666666664Zm-86.39999999999999 99.52 -15.146666666666665 15.146666666666665a5.013333333333333 5.013333333333333 0 0 1 -3.733333333333333 1.5999999999999999 5.226666666666667 5.226666666666667 0 0 1 -3.733333333333333 -1.5999999999999999 5.333333333333333 5.333333333333333 0 0 1 0 -7.573333333333332l15.04 -15.04a5.333333333333333 5.333333333333333 0 0 1 7.573333333333332 0 5.333333333333333 5.333333333333333 0 0 1 0 7.466666666666666Zm74.66666666666666 -28.69333333333333a5.013333333333333 5.013333333333333 0 0 1 -1.5999999999999999 3.733333333333333L192 102.29333333333332a5.333333333333333 5.333333333333333 0 0 1 -7.573333333333332 0l-15.573333333333332 -15.04a5.4399999999999995 5.4399999999999995 0 0 1 -1.5999999999999999 -3.84 5.013333333333333 5.013333333333333 0 0 1 1.5999999999999999 -3.733333333333333l41.70666666666666 -41.70666666666666a5.333333333333333 5.333333333333333 0 0 1 9.066666666666666 3.84Z" fill="#ffffff" stroke-width="10.6667"></path>
  </g>
</svg>