<svg xmlns="http://www.w3.org/2000/svg" id="Make-Up-Mirror-1--Streamline-Ultimate" width="256" height="256" viewBox="0 0 256 256"><desc>Make Up Mirror 1 Streamline Icon: https://streamlinehq.com</desc><g id="Make-Up-Mirror-1--Streamline-Ultimate.svg"><path fill="#fff" stroke-width="10.667" d="M113.91999999999999 62.39999999999999A80.21333333333332 80.21333333333332 0 0 0 64 114.13333333333333a10.666666666666666 10.666666666666666 0 0 0 6.3999999999999995 13.866666666666667 8.426666666666666 8.426666666666666 0 0 0 3.1999999999999997 0.5333333333333333 10.666666666666666 10.666666666666666 0 0 0 10.666666666666666 -7.466666666666666 58.56 58.56 0 0 1 36.906666666666666 -37.86666666666666 10.666666666666666 10.666666666666666 0 0 0 -6.826666666666666 -20.266666666666666Z"/><path fill="#fff" stroke-width="10.667" d="M17.706666666666663 186.66666666666666h24.21333333333333a5.4399999999999995 5.4399999999999995 0 0 0 4.693333333333333 -2.7733333333333334 5.333333333333333 5.333333333333333 0 0 0 0 -5.333333333333333A96 96 0 1 1 224 128a95.25333333333333 95.25333333333333 0 0 1 -14.506666666666668 50.56 5.333333333333333 5.333333333333333 0 0 0 0 5.333333333333333 5.4399999999999995 5.4399999999999995 0 0 0 4.693333333333333 2.7733333333333334h24.21333333333333a5.226666666666667 5.226666666666667 0 0 0 4.8 -2.986666666666667A126.82666666666667 126.82666666666667 0 0 0 256 128a128 128 0 0 0 -256 0 126.82666666666667 126.82666666666667 0 0 0 12.906666666666666 55.67999999999999 5.226666666666667 5.226666666666667 0 0 0 4.8 2.986666666666667Z"/><path fill="#fff" stroke-width="10.667" d="M245.33333333333331 202.66666666666666h-67.09333333333333a10.666666666666666 10.666666666666666 0 0 0 -7.573333333333332 3.093333333333333l-16.64 16.64a5.013333333333333 5.013333333333333 0 0 1 -3.733333333333333 1.5999999999999999H105.70666666666666a5.013333333333333 5.013333333333333 0 0 1 -3.733333333333333 -1.5999999999999999L85.33333333333333 205.76a10.666666666666666 10.666666666666666 0 0 0 -7.573333333333332 -3.093333333333333H10.666666666666666a10.666666666666666 10.666666666666666 0 0 0 -10.666666666666666 10.666666666666666v5.333333333333333C0 242.34666666666664 17.493333333333332 256 48 256h160c30.506666666666664 0 48 -13.653333333333332 48 -37.33333333333333V213.33333333333331a10.666666666666666 10.666666666666666 0 0 0 -10.666666666666666 -10.666666666666666Z"/></g></svg>