<svg xmlns="http://www.w3.org/2000/svg" id="Maps--Streamline-Ultimate" width="256" height="256" viewBox="0 0 256 256"><desc>Maps Streamline Icon: https://streamlinehq.com</desc><path fill="#fff" stroke-width="10.667" d="M256 74.66666666666666a16.106666666666666 16.106666666666666 0 0 0 -7.04 -13.226666666666667l-74.66666666666666 -50.773333333333326a15.786666666666665 15.786666666666665 0 0 0 -17.813333333333333 0L94.08 56.63999999999999a5.4399999999999995 5.4399999999999995 0 0 1 -6.3999999999999995 0L25.493333333333332 10.666666666666666A16 16 0 0 0 0 24V181.33333333333331a16.106666666666666 16.106666666666666 0 0 0 7.04 13.226666666666667l74.66666666666666 50.773333333333326a15.786666666666665 15.786666666666665 0 0 0 17.813333333333333 0l62.18666666666667 -45.76a5.4399999999999995 5.4399999999999995 0 0 1 6.3999999999999995 0L230.50666666666666 245.33333333333331a16.53333333333333 16.53333333333333 0 0 0 9.493333333333332 3.093333333333333 15.893333333333333 15.893333333333333 0 0 0 16 -16Zm-154.66666666666666 5.653333333333333a5.119999999999999 5.119999999999999 0 0 1 2.1333333333333333 -4.266666666666667l46.93333333333334 -35.093333333333334a2.6666666666666665 2.6666666666666665 0 0 1 2.7733333333333334 0 2.6666666666666665 2.6666666666666665 0 0 1 1.4933333333333334 1.7066666666666666v133.01333333333332a5.119999999999999 5.119999999999999 0 0 1 -2.1333333333333333 4.266666666666667l-46.93333333333334 35.093333333333334a2.6666666666666665 2.6666666666666665 0 0 1 -2.7733333333333334 0A2.6666666666666665 2.6666666666666665 0 0 1 101.33333333333333 213.33333333333331ZM21.333333333333332 39.78666666666666a2.6666666666666665 2.6666666666666665 0 0 1 1.4933333333333334 -2.453333333333333 2.6666666666666665 2.6666666666666665 0 0 1 2.7733333333333334 0l52.266666666666666 38.50666666666666a5.4399999999999995 5.4399999999999995 0 0 1 2.1333333333333333 4.266666666666667V213.33333333333331a2.6666666666666665 2.6666666666666665 0 0 1 -1.3866666666666667 2.3466666666666667 2.88 2.88 0 0 1 -2.7733333333333334 0l-52.16 -35.733333333333334a5.226666666666667 5.226666666666667 0 0 1 -2.3466666666666667 -4.373333333333333Zm213.33333333333331 176.42666666666665a2.6666666666666665 2.6666666666666665 0 0 1 -1.4933333333333334 2.453333333333333 2.6666666666666665 2.6666666666666665 0 0 1 -2.7733333333333334 0l-52.266666666666666 -38.18666666666667a5.4399999999999995 5.4399999999999995 0 0 1 -2.1333333333333333 -4.266666666666667V42.666666666666664a2.6666666666666665 2.6666666666666665 0 0 1 1.3866666666666667 -2.3466666666666667 2.88 2.88 0 0 1 2.7733333333333334 0l52.16 35.519999999999996a5.226666666666667 5.226666666666667 0 0 1 2.3466666666666667 4.373333333333333Z"/></svg>