<svg xmlns="http://www.w3.org/2000/svg" viewBox="0 0 256 256" id="Martial-Arts-Helmet--Streamline-Ultimate" height="256" width="256">
  <desc>
    Martial Arts Helmet Streamline Icon: https://streamlinehq.com
  </desc>
  <g id="Martial-Arts-Helmet--Streamline-Ultimate.svg">
    <path d="M232.10666666666668 192a72.85333333333332 72.85333333333332 0 0 1 -30.29333333333333 -12.799999999999999 5.333333333333333 5.333333333333333 0 0 0 -6.826666666666666 0.5333333333333333 93.97333333333333 93.97333333333333 0 0 1 -133.97333333333333 0 5.333333333333333 5.333333333333333 0 0 0 -6.826666666666666 -0.5333333333333333A72.85333333333332 72.85333333333332 0 0 1 23.893333333333334 192 16 16 0 0 0 10.666666666666666 208v32A16.106666666666666 16.106666666666666 0 0 0 26.666666666666664 256a8 8 0 0 0 2.2399999999999998 0 127.35999999999999 127.35999999999999 0 0 0 67.94666666666666 -32 2.6666666666666665 2.6666666666666665 0 0 1 2.88 0 2.6666666666666665 2.6666666666666665 0 0 1 1.5999999999999999 2.453333333333333v13.546666666666667A16 16 0 0 0 117.33333333333333 256h21.333333333333332a16 16 0 0 0 16 -16v-14.4a2.6666666666666665 2.6666666666666665 0 0 1 1.5999999999999999 -2.453333333333333 2.6666666666666665 2.6666666666666665 0 0 1 2.88 0 127.35999999999999 127.35999999999999 0 0 0 67.84 32 9.173333333333332 9.173333333333332 0 0 0 2.3466666666666667 0A16.106666666666666 16.106666666666666 0 0 0 245.33333333333331 240v-32a16 16 0 0 0 -13.226666666666667 -16Z" fill="#ffffff" stroke-width="10.6667"></path>
    <path d="M128 192c47.14666666666666 0 85.33333333333333 -42.666666666666664 85.33333333333333 -96s-38.18666666666667 -96 -85.33333333333333 -96 -85.33333333333333 42.666666666666664 -85.33333333333333 96 38.18666666666667 96 85.33333333333333 96Zm10.666666666666666 -160.74666666666667a2.7733333333333334 2.7733333333333334 0 0 1 1.0666666666666667 -2.1333333333333333 2.5599999999999996 2.5599999999999996 0 0 1 2.3466666666666667 0 60.58666666666666 60.58666666666666 0 0 1 36.05333333333333 31.04 2.6666666666666665 2.6666666666666665 0 0 1 0 2.5599999999999996 2.88 2.88 0 0 1 -2.3466666666666667 1.2799999999999998h-32a5.333333333333333 5.333333333333333 0 0 1 -5.333333333333333 -5.333333333333333Zm0 59.413333333333334a5.333333333333333 5.333333333333333 0 0 1 5.333333333333333 -5.333333333333333H181.33333333333331a5.226666666666667 5.226666666666667 0 0 1 5.333333333333333 4.906666666666666 69.22666666666666 69.22666666666666 0 0 1 0 11.52 5.226666666666667 5.226666666666667 0 0 1 -5.333333333333333 4.906666666666666h-37.33333333333333a5.333333333333333 5.333333333333333 0 0 1 -5.333333333333333 -5.333333333333333Zm0 42.666666666666664a5.333333333333333 5.333333333333333 0 0 1 5.333333333333333 -5.333333333333333h32a2.88 2.88 0 0 1 2.3466666666666667 1.2799999999999998 2.6666666666666665 2.6666666666666665 0 0 1 0 2.5599999999999996 60.58666666666666 60.58666666666666 0 0 1 -36.05333333333333 32 2.5599999999999996 2.5599999999999996 0 0 1 -2.3466666666666667 0 2.7733333333333334 2.7733333333333334 0 0 1 -1.0666666666666667 -2.1333333333333333Zm-21.333333333333332 27.41333333333333a2.7733333333333334 2.7733333333333334 0 0 1 -1.0666666666666667 2.1333333333333333 2.5599999999999996 2.5599999999999996 0 0 1 -2.3466666666666667 0 60.58666666666666 60.58666666666666 0 0 1 -36.05333333333333 -32 2.7733333333333334 2.7733333333333334 0 0 1 0 -2.5599999999999996 2.88 2.88 0 0 1 2.3466666666666667 -0.31999999999999995h32a5.333333333333333 5.333333333333333 0 0 1 5.333333333333333 5.333333333333333ZM77.86666666666666 60.16a60.58666666666666 60.58666666666666 0 0 1 36.05333333333333 -31.46666666666667 2.5599999999999996 2.5599999999999996 0 0 1 2.3466666666666667 0 2.7733333333333334 2.7733333333333334 0 0 1 1.0666666666666667 2.1333333333333333V58.666666666666664a5.333333333333333 5.333333333333333 0 0 1 -5.333333333333333 5.333333333333333h-32a2.88 2.88 0 0 1 -2.3466666666666667 -1.2799999999999998 2.7733333333333334 2.7733333333333334 0 0 1 0.21333333333333332 -2.5599999999999996Zm-8.32 30.08A5.226666666666667 5.226666666666667 0 0 1 74.66666666666666 85.33333333333333h37.33333333333333a5.333333333333333 5.333333333333333 0 0 1 5.333333333333333 5.333333333333333v10.666666666666666a5.333333333333333 5.333333333333333 0 0 1 -5.333333333333333 5.333333333333333H74.66666666666666a5.226666666666667 5.226666666666667 0 0 1 -5.333333333333333 -4.906666666666666 69.22666666666666 69.22666666666666 0 0 1 0.21333333333333332 -11.52Z" fill="#ffffff" stroke-width="10.6667"></path>
  </g>
</svg>