<svg xmlns="http://www.w3.org/2000/svg" viewBox="0 0 256 256" id="Martial-Arts-Swords--Streamline-Ultimate" height="256" width="256">
  <desc>
    Martial Arts Swords Streamline Icon: https://streamlinehq.com
  </desc>
  <g id="Martial-Arts-Swords--Streamline-Ultimate.svg">
    <path d="M53.33333333333333 187.0933333333333a5.333333333333333 5.333333333333333 0 0 0 -7.466666666666666 0l-41.599999999999994 41.599999999999994a16 16 0 0 0 22.613333333333333 22.613333333333333l41.599999999999994 -41.599999999999994a5.333333333333333 5.333333333333333 0 0 0 0 -7.466666666666666Z" fill="#ffffff" stroke-width="10.6667"></path>
    <path d="M209.70666666666665 187.0933333333333a5.333333333333333 5.333333333333333 0 0 0 -7.466666666666666 0L187.0933333333333 202.66666666666666a5.333333333333333 5.333333333333333 0 0 0 0 7.466666666666666l41.599999999999994 41.599999999999994a16 16 0 0 0 22.613333333333333 -22.613333333333333Z" fill="#ffffff" stroke-width="10.6667"></path>
    <path d="M99.52 186.66666666666666a5.546666666666667 5.546666666666667 0 0 1 -1.4933333333333334 -3.84 5.333333333333333 5.333333333333333 0 0 1 1.4933333333333334 -3.733333333333333l13.44 -13.333333333333332a5.4399999999999995 5.4399999999999995 0 0 0 0 -7.573333333333332l-15.146666666666665 -15.146666666666665a5.333333333333333 5.333333333333333 0 0 0 -3.733333333333333 -1.4933333333333334 5.76 5.76 0 0 0 -3.84 1.4933333333333334l-13.333333333333332 13.44a5.4399999999999995 5.4399999999999995 0 0 1 -7.573333333333332 0l-15.04 -15.146666666666665a10.666666666666666 10.666666666666666 0 0 0 -15.04 0 10.666666666666666 10.666666666666666 0 0 0 0 15.146666666666665l60.266666666666666 60.266666666666666a10.666666666666666 10.666666666666666 0 1 0 15.146666666666665 -15.04Z" fill="#ffffff" stroke-width="10.6667"></path>
    <path d="M158.18666666666667 112.96a5.4399999999999995 5.4399999999999995 0 0 0 7.573333333333332 0l85.33333333333333 -85.33333333333333a16 16 0 0 0 -22.4 -22.93333333333333l-85.33333333333333 85.33333333333333a5.76 5.76 0 0 0 -1.4933333333333334 3.84 5.333333333333333 5.333333333333333 0 0 0 1.4933333333333334 3.733333333333333Z" fill="#ffffff" stroke-width="10.6667"></path>
    <path d="M216.74666666666667 141.33333333333331a10.666666666666666 10.666666666666666 0 0 0 -15.04 0l-15.04 15.146666666666665a5.4399999999999995 5.4399999999999995 0 0 1 -7.573333333333332 0L27.306666666666665 4.693333333333333A16 16 0 0 0 4.693333333333333 27.306666666666665l151.78666666666666 151.78666666666666a5.333333333333333 5.333333333333333 0 0 1 1.4933333333333334 3.733333333333333 5.546666666666667 5.546666666666667 0 0 1 -1.4933333333333334 3.84l-15.146666666666665 15.04a10.666666666666666 10.666666666666666 0 1 0 15.146666666666665 15.04l60.266666666666666 -60.266666666666666a10.666666666666666 10.666666666666666 0 0 0 0 -15.146666666666665Z" fill="#ffffff" stroke-width="10.6667"></path>
  </g>
</svg>