<svg xmlns="http://www.w3.org/2000/svg" viewBox="0 0 256 256" id="Maze-Strategy--Streamline-Ultimate" height="256" width="256">
  <desc>
    Maze Strategy Streamline Icon: https://streamlinehq.com
  </desc>
  <g id="Maze-Strategy--Streamline-Ultimate.svg">
    <path d="M90.66666666666666 21.333333333333332H21.333333333333332a21.333333333333332 21.333333333333332 0 0 0 -21.333333333333332 21.333333333333332v192a21.333333333333332 21.333333333333332 0 0 0 21.333333333333332 21.333333333333332h74.66666666666666a10.666666666666666 10.666666666666666 0 0 0 0 -21.333333333333332H61.33333333333333a2.6666666666666665 2.6666666666666665 0 0 1 -2.6666666666666665 -2.6666666666666665V208a10.666666666666666 10.666666666666666 0 0 0 -21.333333333333332 0v24a2.6666666666666665 2.6666666666666665 0 0 1 -2.6666666666666665 2.6666666666666665h-10.666666666666666a2.6666666666666665 2.6666666666666665 0 0 1 -2.6666666666666665 -2.6666666666666665v-101.33333333333333a2.6666666666666665 2.6666666666666665 0 0 1 2.6666666666666665 -2.6666666666666665h26.666666666666664a2.6666666666666665 2.6666666666666665 0 0 1 2.6666666666666665 2.6666666666666665V170.66666666666666a10.666666666666666 10.666666666666666 0 0 0 21.333333333333332 0v-53.33333333333333a10.666666666666666 10.666666666666666 0 0 0 -10.666666666666666 -10.666666666666666H24A2.6666666666666665 2.6666666666666665 0 0 1 21.333333333333332 104v-58.666666666666664A2.6666666666666665 2.6666666666666665 0 0 1 24 42.666666666666664h32a2.6666666666666665 2.6666666666666665 0 0 1 2.6666666666666665 2.6666666666666665v16a2.6666666666666665 2.6666666666666665 0 0 1 -2.6666666666666665 2.6666666666666665H48a10.666666666666666 10.666666666666666 0 0 0 0 21.333333333333332h21.333333333333332a10.666666666666666 10.666666666666666 0 0 0 10.666666666666666 -10.666666666666666V45.33333333333333A2.6666666666666665 2.6666666666666665 0 0 1 82.66666666666666 42.666666666666664h8a10.666666666666666 10.666666666666666 0 0 0 0 -21.333333333333332Z" fill="#ffffff" stroke-width="10.6667"></path>
    <path d="M256 42.666666666666664a21.333333333333332 21.333333333333332 0 0 0 -21.333333333333332 -21.333333333333332h-32a10.666666666666666 10.666666666666666 0 0 0 0 21.333333333333332h29.333333333333332a2.6666666666666665 2.6666666666666665 0 0 1 2.6666666666666665 2.6666666666666665v16a2.6666666666666665 2.6666666666666665 0 0 1 -2.6666666666666665 2.6666666666666665H192a10.666666666666666 10.666666666666666 0 0 0 0 21.333333333333332h40a2.6666666666666665 2.6666666666666665 0 0 1 2.6666666666666665 2.6666666666666665v21.333333333333332a2.6666666666666665 2.6666666666666665 0 0 1 -2.6666666666666665 2.6666666666666665H138.66666666666666a10.666666666666666 10.666666666666666 0 0 0 0 21.333333333333332h18.666666666666664a2.6666666666666665 2.6666666666666665 0 0 1 2.6666666666666665 2.6666666666666665v21.333333333333332a2.6666666666666665 2.6666666666666665 0 0 1 -2.6666666666666665 2.6666666666666665H144a10.666666666666666 10.666666666666666 0 0 0 0 21.333333333333332H170.66666666666666a10.666666666666666 10.666666666666666 0 0 0 10.666666666666666 -10.666666666666666v-34.666666666666664a2.6666666666666665 2.6666666666666665 0 0 1 2.6666666666666665 -2.6666666666666665h48a2.6666666666666665 2.6666666666666665 0 0 1 2.6666666666666665 2.6666666666666665v96a2.6666666666666665 2.6666666666666665 0 0 1 -2.6666666666666665 2.6666666666666665h-10.666666666666666a2.6666666666666665 2.6666666666666665 0 0 1 -2.6666666666666665 -2.6666666666666665V160a10.666666666666666 10.666666666666666 0 0 0 -21.333333333333332 0v72a2.6666666666666665 2.6666666666666665 0 0 1 -2.6666666666666665 2.6666666666666665H170.66666666666666a10.666666666666666 10.666666666666666 0 0 0 0 21.333333333333332h64a21.333333333333332 21.333333333333332 0 0 0 21.333333333333332 -21.333333333333332Z" fill="#ffffff" stroke-width="10.6667"></path>
    <path d="M130.66666666666666 74.66666666666666H101.33333333333333a10.666666666666666 10.666666666666666 0 0 0 -10.666666666666666 10.666666666666666v117.33333333333333a10.666666666666666 10.666666666666666 0 0 0 10.666666666666666 10.666666666666666h18.666666666666664a2.6666666666666665 2.6666666666666665 0 0 1 2.6666666666666665 2.6666666666666665V245.33333333333331a10.666666666666666 10.666666666666666 0 0 0 21.333333333333332 0v-42.666666666666664a10.666666666666666 10.666666666666666 0 0 0 -10.666666666666666 -10.666666666666666h-18.666666666666664a2.6666666666666665 2.6666666666666665 0 0 1 -2.6666666666666665 -2.6666666666666665v-90.66666666666666a2.6666666666666665 2.6666666666666665 0 0 1 2.6666666666666665 -2.6666666666666665h29.333333333333332a10.666666666666666 10.666666666666666 0 0 0 10.666666666666666 -10.666666666666666V45.22666666666667a2.6666666666666665 2.6666666666666665 0 0 1 2.6666666666666665 -2.5599999999999996h8a8.106666666666666 8.106666666666666 0 0 0 7.253333333333334 -4.586666666666666 8 8 0 0 0 -0.96 -8.426666666666666l-21.333333333333332 -26.666666666666664a8.32 8.32 0 0 0 -12.586666666666666 0l-21.333333333333332 26.666666666666664a8 8 0 0 0 -0.96 8.426666666666666 8.106666666666666 8.106666666666666 0 0 0 7.253333333333334 4.586666666666666h8a2.6666666666666665 2.6666666666666665 0 0 1 2.6666666666666665 2.6666666666666665v26.666666666666664a2.6666666666666665 2.6666666666666665 0 0 1 -2.6666666666666665 2.6666666666666665Z" fill="#ffffff" stroke-width="10.6667"></path>
  </g>
</svg>