<svg xmlns="http://www.w3.org/2000/svg" id="Mcafee-Logo--Streamline-Ultimate" width="256" height="256" viewBox="0 0 256 256"><desc>Mcafee Logo Streamline Icon: https://streamlinehq.com</desc><path fill="#fff" stroke-width="10.667" d="M235.11786666666666 4.020266666666666c-1.5648 -0.8351999999999999 -3.4410666666666665 -0.8351999999999999 -5.005866666666666 0l-102.08213333333333 45.566933333333324L25.947733333333332 3.1861333333333333c-1.5648 -0.8351999999999999 -3.4410666666666665 -0.8351999999999999 -5.005866666666666 0 -1.7695999999999998 1.1018666666666665 -2.7125333333333335 3.1519999999999997 -2.3978666666666664 5.2128v192.90346666666667c0.025599999999999998 2.0405333333333333 1.1936 3.8943999999999996 3.0239999999999996 4.796799999999999l104.27199999999999 46.922666666666665c1.4069333333333331 0.5578666666666666 2.9728 0.5578666666666666 4.379733333333333 0l104.27199999999999 -46.922666666666665c1.8304 -0.9023999999999999 2.9984 -2.756266666666667 3.0239999999999996 -4.796799999999999V8.398933333333332c-0.0031999999999999997 -1.7717333333333332 -0.9066666666666667 -3.4218666666666664 -2.3978666666666664 -4.378666666666666ZM70.68053333333333 84.20479999999999l55.15946666666666 24.921599999999998c1.4143999999999999 0.5184 2.9664 0.5184 4.379733333333333 0l55.15946666666666 -24.921599999999998v84.56533333333333l-57.349333333333334 25.754666666666665 -57.349333333333334 -25.754666666666665Z"/></svg>