<svg xmlns="http://www.w3.org/2000/svg" id="Medical-Condition-Flu--Streamline-Ultimate" width="256" height="256" viewBox="0 0 256 256"><desc>Medical Condition Flu Streamline Icon: https://streamlinehq.com</desc><path fill="#fff" stroke-width="10.667" d="M228.58666666666664 105.17333333333332a79.57333333333332 79.57333333333332 0 0 1 -7.68 -15.466666666666665c0 -56.213333333333324 -51.946666666666665 -89.70666666666666 -102.08 -89.70666666666666a105.91999999999999 105.91999999999999 0 0 0 -106.66666666666666 107.30666666666667c0 37.33333333333333 13.546666666666667 65.38666666666666 40.31999999999999 83.41333333333333a5.119999999999999 5.119999999999999 0 0 1 2.3466666666666667 4.373333333333333v55.57333333333333a5.333333333333333 5.333333333333333 0 0 0 5.333333333333333 5.333333333333333h106.66666666666666a5.333333333333333 5.333333333333333 0 0 0 5.333333333333333 -5.333333333333333v-32a5.333333333333333 5.333333333333333 0 0 1 5.333333333333333 -5.333333333333333h16a26.666666666666664 26.666666666666664 0 0 0 26.666666666666664 -26.666666666666664v-21.333333333333332a5.333333333333333 5.333333333333333 0 0 1 5.333333333333333 -5.333333333333333h5.866666666666667a13.866666666666667 13.866666666666667 0 0 0 10.666666666666666 -5.546666666666667 13.546666666666667 13.546666666666667 0 0 0 2.0266666666666664 -8 82.13333333333333 82.13333333333333 0 0 0 -15.466666666666665 -41.28ZM120 160a11.413333333333334 11.413333333333334 0 1 1 11.413333333333334 -10.666666666666666 11.413333333333334 11.413333333333334 0 0 1 -11.413333333333334 10.666666666666666Zm6.079999999999999 -64a11.413333333333334 11.413333333333334 0 1 1 11.413333333333334 11.306666666666667A11.413333333333334 11.413333333333334 0 0 1 126.08 96Zm29.013333333333335 93.12a11.413333333333334 11.413333333333334 0 1 1 11.413333333333334 -11.413333333333334 11.52 11.52 0 0 1 -11.413333333333334 11.626666666666667Zm0 -46.72a11.413333333333334 11.413333333333334 0 1 1 11.413333333333334 -11.413333333333334 11.52 11.52 0 0 1 -11.413333333333334 11.626666666666667Zm11.946666666666667 -69.86666666666666a11.413333333333334 11.413333333333334 0 1 1 11.413333333333334 11.306666666666667 11.413333333333334 11.413333333333334 0 0 1 -11.413333333333334 -11.093333333333334Zm5.76 40.85333333333333a11.52 11.52 0 1 1 11.413333333333334 11.306666666666667 11.413333333333334 11.413333333333334 0 0 1 -11.413333333333334 -11.093333333333334Zm17.28 58.13333333333333A11.413333333333334 11.413333333333334 0 1 1 201.49333333333334 160a11.413333333333334 11.413333333333334 0 0 1 -11.413333333333334 11.733333333333334Z"/></svg>