<svg xmlns="http://www.w3.org/2000/svg" viewBox="0 0 256 256" id="Medical-Specialty-Knee-1--Streamline-Ultimate" height="256" width="256">
  <desc>
    Medical Specialty Knee 1 Streamline Icon: https://streamlinehq.com
  </desc>
  <path d="M166.07999999999998 26.453333333333333 16.96 0a5.013333333333333 5.013333333333333 0 0 0 -4.373333333333333 1.1733333333333333A5.226666666666667 5.226666666666667 0 0 0 10.666666666666666 5.333333333333333v44.58666666666666a5.226666666666667 5.226666666666667 0 0 0 4.16 5.226666666666667l152.32 34.13333333333333a10.666666666666666 10.666666666666666 0 0 0 7.359999999999999 -0.96A25.92 25.92 0 0 1 186.66666666666666 85.33333333333333a26.666666666666664 26.666666666666664 0 1 1 -23.253333333333334 39.57333333333333 10.666666666666666 10.666666666666666 0 0 0 -6.933333333333334 -5.226666666666667L17.173333333333332 88.42666666666665a5.653333333333333 5.653333333333333 0 0 0 -4.4799999999999995 1.0666666666666667 5.4399999999999995 5.4399999999999995 0 0 0 -2.0266666666666664 4.16v39.68a5.226666666666667 5.226666666666667 0 0 0 4.586666666666666 5.226666666666667l98.88 13.546666666666667a16.106666666666666 16.106666666666666 0 0 1 13.866666666666667 15.893333333333333v82.66666666666666a5.333333333333333 5.333333333333333 0 0 0 5.333333333333333 5.333333333333333H170.66666666666666a5.333333333333333 5.333333333333333 0 0 0 5.333333333333333 -5.333333333333333v-23.36a163.83999999999997 163.83999999999997 0 0 0 -11.946666666666667 -62.18666666666667 5.333333333333333 5.333333333333333 0 0 1 1.0666666666666667 -5.4399999999999995 5.119999999999999 5.119999999999999 0 0 1 5.226666666666667 -1.5999999999999999 67.62666666666667 67.62666666666667 0 0 0 32 0 5.653333333333333 5.653333333333333 0 0 1 5.333333333333333 1.7066666666666666 5.333333333333333 5.333333333333333 0 0 1 0.96 5.4399999999999995 165.6533333333333 165.6533333333333 0 0 0 -11.626666666666667 62.18666666666667v23.253333333333334a5.333333333333333 5.333333333333333 0 0 0 5.333333333333333 5.333333333333333h37.33333333333333a5.333333333333333 5.333333333333333 0 0 0 5.333333333333333 -5.333333333333333v-117.33333333333333c0.31999999999999995 -54.39999999999999 -29.866666666666664 -95.25333333333333 -78.93333333333334 -106.88Z" fill="#ffffff" stroke-width="10.6667"></path>
</svg>