<svg xmlns="http://www.w3.org/2000/svg" viewBox="0 0 256 256" id="Medical-Instrument-Walking-Aid--Streamline-Ultimate" height="256" width="256">
  <desc>
    Medical Instrument Walking Aid Streamline Icon: https://streamlinehq.com
  </desc>
  <g id="Medical-Instrument-Walking-Aid--Streamline-Ultimate.svg">
    <path d="M89.17333333333332 224a16 16 0 0 0 -15.253333333333332 -10.666666666666666H57.28A16 16 0 0 0 42.666666666666664 224l-6.3999999999999995 17.919999999999998A10.666666666666666 10.666666666666666 0 0 0 46.39999999999999 256H85.33333333333333a10.666666666666666 10.666666666666666 0 0 0 8.64 -4.373333333333333 10.666666666666666 10.666666666666666 0 0 0 1.4933333333333334 -9.706666666666667Z" fill="#ffffff" stroke-width="10.6667"></path>
    <path d="M207.89333333333332 206.9333333333333a2.6666666666666665 2.6666666666666665 0 0 1 -1.1733333333333333 -1.8133333333333335l-5.013333333333333 -32.53333333333333a24.426666666666666 24.426666666666666 0 0 0 -24.106666666666662 -20.586666666666666H96a5.333333333333333 5.333333333333333 0 0 1 -5.333333333333333 -6.079999999999999L101.44 64a39.89333333333333 39.89333333333333 0 0 1 30.826666666666668 -33.49333333333333 5.4399999999999995 5.4399999999999995 0 0 0 3.413333333333333 -2.5599999999999996 5.013333333333333 5.013333333333333 0 0 0 0 -4.266666666666667 26.24 26.24 0 0 1 -1.1733333333333333 -7.68 24.85333333333333 24.85333333333333 0 0 1 1.0666666666666667 -5.333333333333333 5.119999999999999 5.119999999999999 0 0 0 -1.2799999999999998 -4.906666666666666 5.4399999999999995 5.4399999999999995 0 0 0 -4.8 -1.5999999999999999A66.77333333333333 66.77333333333333 0 0 0 74.66666666666666 60.48L56.42666666666666 199.67999999999998a2.3466666666666667 2.3466666666666667 0 0 0 0.6399999999999999 2.0266666666666664 2.6666666666666665 2.6666666666666665 0 0 0 2.0266666666666664 0.96h14.826666666666664l3.52 0a5.4399999999999995 5.4399999999999995 0 0 0 4.053333333333333 -0.96 5.653333333333333 5.653333333333333 0 0 0 2.0266666666666664 -3.626666666666667L85.33333333333333 183.25333333333333a5.333333333333333 5.333333333333333 0 0 1 5.226666666666667 -4.586666666666666H170.66666666666666a5.333333333333333 5.333333333333333 0 0 1 5.226666666666667 4.4799999999999995l3.3066666666666666 21.333333333333332a2.453333333333333 2.453333333333333 0 0 1 -1.0666666666666667 2.5599999999999996 26.666666666666664 26.666666666666664 0 1 0 29.333333333333332 -0.5333333333333333Z" fill="#ffffff" stroke-width="10.6667"></path>
    <path d="M145.6 16a16 16 0 0 0 16 16h42.666666666666664a16 16 0 0 0 0 -32h-42.666666666666664a16 16 0 0 0 -16 16Z" fill="#ffffff" stroke-width="10.6667"></path>
  </g>
</svg>