<svg xmlns="http://www.w3.org/2000/svg" id="Medical-App-Laptop-1--Streamline-Ultimate" width="256" height="256" viewBox="0 0 256 256"><desc>Medical App Laptop 1 Streamline Icon: https://streamlinehq.com</desc><g id="Medical-App-Laptop-1--Streamline-Ultimate.svg"><path fill="#fff" stroke-width="10.667" d="M111.68 152a5.333333333333333 5.333333333333333 0 0 0 5.333333333333333 5.333333333333333h21.333333333333332a5.333333333333333 5.333333333333333 0 0 0 5.333333333333333 -5.333333333333333v-16a5.333333333333333 5.333333333333333 0 0 1 5.333333333333333 -5.333333333333333h16a5.333333333333333 5.333333333333333 0 0 0 5.333333333333333 -5.333333333333333v-21.333333333333332a5.333333333333333 5.333333333333333 0 0 0 -5.333333333333333 -5.333333333333333H149.33333333333331a5.333333333333333 5.333333333333333 0 0 1 -5.333333333333333 -5.333333333333333v-16a5.333333333333333 5.333333333333333 0 0 0 -5.333333333333333 -5.333333333333333h-21.333333333333332a5.333333333333333 5.333333333333333 0 0 0 -5.333333333333333 5.333333333333333v16a5.333333333333333 5.333333333333333 0 0 1 -5.333333333333333 5.333333333333333H90.34666666666666a5.333333333333333 5.333333333333333 0 0 0 -5.333333333333333 5.333333333333333v21.333333333333332a5.333333333333333 5.333333333333333 0 0 0 5.333333333333333 5.333333333333333H106.66666666666666a5.333333333333333 5.333333333333333 0 0 1 5.333333333333333 5.333333333333333Z"/><path fill="#fff" stroke-width="10.667" d="M37.013333333333335 157.12a10.666666666666666 10.666666666666666 0 0 0 10.666666666666666 -10.666666666666666V57.81333333333333a7.1466666666666665 7.1466666666666665 0 0 1 7.04 -7.1466666666666665H200.53333333333333a7.1466666666666665 7.1466666666666665 0 0 1 7.1466666666666665 7.1466666666666665v88.64a10.666666666666666 10.666666666666666 0 1 0 21.333333333333332 0V57.81333333333333a28.586666666666666 28.586666666666666 0 0 0 -28.479999999999997 -28.479999999999997H54.72a28.479999999999997 28.479999999999997 0 0 0 -28.373333333333335 28.479999999999997v88.64a10.666666666666666 10.666666666666666 0 0 0 10.666666666666666 10.666666666666666Z"/><path fill="#fff" stroke-width="10.667" d="M254.82666666666665 175.36a5.226666666666667 5.226666666666667 0 0 0 -4.16 -2.0266666666666664h-85.33333333333333a5.333333333333333 5.333333333333333 0 0 0 -5.333333333333333 5.333333333333333c0 7.573333333333332 -13.12 16 -32 16s-32 -8.426666666666666 -32 -16a5.333333333333333 5.333333333333333 0 0 0 -5.333333333333333 -5.333333333333333h-85.33333333333333a5.226666666666667 5.226666666666667 0 0 0 -4.16 2.0266666666666664 5.119999999999999 5.119999999999999 0 0 0 -0.96 4.586666666666666 61.44 61.44 0 0 0 59.73333333333333 46.72h136.10666666666665A61.44 61.44 0 0 0 256 179.94666666666666a5.119999999999999 5.119999999999999 0 0 0 -1.1733333333333333 -4.586666666666666Z"/></g></svg>