<svg xmlns="http://www.w3.org/2000/svg" fill="none" viewBox="0 0 256 256" id="Medicine-Search-4--Streamline-Ultimate" height="256" width="256">
  <desc>
    Medicine Search 4 Streamline Icon: https://streamlinehq.com
  </desc>
  <path fill="#ffffff" fill-rule="evenodd" d="M119.06879999999998 22.580053333333332c-53.29056 0 -96.49066666666666 43.20021333333333 -96.49066666666666 96.48981333333333 0 53.29066666666667 43.20010666666667 96.49066666666666 96.49066666666666 96.49066666666666 26.245333333333335 0 50.04266666666666 -10.477866666666666 67.43786666666666 -27.479466666666667 0.23253333333333331 -0.28586666666666666 0.48106666666666664 -0.5631999999999999 0.7477333333333332 -0.8288 0.26559999999999995 -0.26666666666666666 0.5429333333333333 -0.5152 0.8288 -0.7477333333333332 16.998399999999997 -17.3952 27.4752 -41.19146666666666 27.4752 -67.43466666666666 0 -53.28959999999999 -43.199999999999996 -96.48981333333333 -96.4896 -96.48981333333333Zm0 214.31381333333331c28.696533333333335 0 54.99626666666666 -10.2592 75.4336 -27.308799999999998l42.043733333333336 42.043733333333336c4.166399999999999 4.165333333333333 10.919466666666667 4.165333333333333 15.085866666666664 0 4.165333333333333 -4.165333333333333 4.165333333333333 -10.919466666666667 0 -15.084799999999998l-42.044799999999995 -42.044799999999995c17.047466666666665 -20.436266666666665 27.30453333333333 -46.73493333333333 27.30453333333333 -75.42933333333333 0 -65.07167999999999 -52.750933333333336 -117.82312533333334 -117.82293333333332 -117.82312533333334C53.99616 1.2467413333333333 1.2447893333333333 53.99818666666667 1.2447893333333333 119.06986666666667c0 65.07306666666666 52.75137066666666 117.82399999999998 117.82401066666667 117.82399999999998Zm-8.5856 -176.216c8.964266666666667 -8.473706666666665 20.88 -13.117333333333331 33.21386666666666 -12.943893333333332 12.333866666666667 0.17333333333333334 24.11413333333333 5.1501866666666665 32.83626666666666 13.872533333333333 2.9471999999999996 2.9473066666666665 5.4677333333333324 6.24384 7.518933333333333 9.792853333333333 4.0192 6.954133333333333 6.239999999999999 14.878079999999999 6.354133333333333 23.0448 0.17386666666666664 12.334506666666666 -4.4704 24.24917333333333 -12.943999999999999 33.21344 -0.06826666666666667 0.07253333333333332 -0.1376 0.144 -0.20906666666666665 0.21546666666666664l-49.2224 49.22346666666667 -0.16746666666666665 0.16319999999999998c-8.914133333333332 8.532266666666667 -20.80533333333333 13.251199999999999 -33.14538666666667 13.150933333333334 -12.339626666666668 -0.09919999999999998 -24.153386666666666 -5.009066666666667 -32.928533333333334 -13.685333333333332 -8.775146666666666 -8.676266666666667 -13.819199999999999 -20.433066666666665 -14.059199999999999 -32.77119999999999 -0.24 -12.337066666666667 4.342933333333333 -24.2816 12.77408 -33.2928 0.08063999999999999 -0.08639999999999999 0.16277333333333333 -0.17066666666666666 0.2462933333333333 -0.25493333333333335l28.844160000000002 -28.844053333333335 0.11263999999999999 -0.11434666666666667 20.561279999999996 -20.561066666666665c0.07039999999999999 -0.07061333333333333 0.14186666666666664 -0.14037333333333332 0.21439999999999998 -0.20906666666666665Zm23.582933333333333 80.21279999999999L97.25088 104.07626666666665 75.97173333333333 125.35573333333333c-4.564586666666666 4.939733333333333 -7.042986666666666 11.454933333333333 -6.912106666666666 18.183466666666668 0.13194666666666666 6.782933333333333 2.9048533333333335 13.245866666666666 7.728853333333333 18.016 4.824 4.769066666666666 11.318613333333333 7.4688 18.102186666666665 7.5232 6.747946666666666 0.054400000000000004 13.252266666666666 -2.5119999999999996 18.144 -7.156266666666667l21.031466666666667 -21.031466666666667Z" clip-rule="evenodd" stroke-width="10.6667"></path>
</svg>