<svg xmlns="http://www.w3.org/2000/svg" viewBox="0 0 256 256" id="Medical-Instrument-Ambulance-Bed--Streamline-Ultimate" height="256" width="256">
  <desc>
    Medical Instrument Ambulance Bed Streamline Icon: https://streamlinehq.com
  </desc>
  <g id="Medical-Instrument-Ambulance-Bed--Streamline-Ultimate.svg">
    <path d="M256 125.33333333333333a21.333333333333332 21.333333333333332 0 0 0 -21.333333333333332 -21.333333333333332H75.94666666666666a16.106666666666666 16.106666666666666 0 0 1 -15.36 -11.52L42.026666666666664 29.439999999999998a22.08 22.08 0 0 0 -23.253333333333334 -16A21.333333333333332 21.333333333333332 0 0 0 0.8533333333333333 40.64l21.333333333333332 71.57333333333332a48.32 48.32 0 0 0 46.08 34.45333333333333H234.66666666666666a21.333333333333332 21.333333333333332 0 0 0 21.333333333333332 -21.333333333333332Z" fill="#ffffff" stroke-width="10.6667"></path>
    <path d="M64.63999999999999 60.48A15.893333333333333 15.893333333333333 0 0 0 80 72a16.21333333333333 16.21333333333333 0 0 0 4.4799999999999995 -0.6399999999999999 16 16 0 0 0 10.666666666666666 -19.84l-10.666666666666666 -37.33333333333333A16 16 0 1 0 53.33333333333333 23.146666666666665Z" fill="#ffffff" stroke-width="10.6667"></path>
    <path d="M58.666666666666664 210.88a21.333333333333332 21.333333333333332 0 1 0 21.333333333333332 21.333333333333332 21.333333333333332 21.333333333333332 0 0 0 -21.333333333333332 -21.333333333333332Z" fill="#ffffff" stroke-width="10.6667"></path>
    <path d="M197.33333333333331 210.88a21.333333333333332 21.333333333333332 0 1 0 21.333333333333332 21.333333333333332 21.333333333333332 21.333333333333332 0 0 0 -21.333333333333332 -21.333333333333332Z" fill="#ffffff" stroke-width="10.6667"></path>
    <path d="M174.4 209.92a5.973333333333334 5.973333333333334 0 0 0 1.4933333333333334 -4.373333333333333 5.653333333333333 5.653333333333333 0 0 0 -2.3466666666666667 -3.84l-23.04 -15.36a2.7733333333333334 2.7733333333333334 0 0 1 0 -4.4799999999999995l21.333333333333332 -14.293333333333333a2.453333333333333 2.453333333333333 0 0 0 1.0666666666666667 -2.986666666666667 2.453333333333333 2.453333333333333 0 0 0 -2.453333333333333 -1.92h-28.05333333333333a6.079999999999999 6.079999999999999 0 0 0 -2.986666666666667 0.8533333333333333l-8.426666666666666 5.76a5.546666666666667 5.546666666666667 0 0 1 -5.973333333333334 0l-8.426666666666666 -5.76a6.079999999999999 6.079999999999999 0 0 0 -2.986666666666667 -0.8533333333333333H85.33333333333333a2.453333333333333 2.453333333333333 0 0 0 -2.453333333333333 1.92 2.453333333333333 2.453333333333333 0 0 0 1.0666666666666667 2.986666666666667l21.333333333333332 14.293333333333333a2.7733333333333334 2.7733333333333334 0 0 1 0 4.4799999999999995l-22.826666666666668 15.36a5.653333333333333 5.653333333333333 0 0 0 -2.3466666666666667 3.84 5.973333333333334 5.973333333333334 0 0 0 1.4933333333333334 4.373333333333333 32 32 0 0 1 9.066666666666666 22.186666666666667 5.4399999999999995 5.4399999999999995 0 0 0 5.333333333333333 5.333333333333333h64a5.333333333333333 5.333333333333333 0 0 0 5.333333333333333 -5.333333333333333 32 32 0 0 1 9.066666666666666 -22.186666666666667Zm-66.34666666666666 6.186666666666666a2.6666666666666665 2.6666666666666665 0 0 1 -2.5599999999999996 -1.92 2.5599999999999996 2.5599999999999996 0 0 1 1.0666666666666667 -2.986666666666667l18.453333333333333 -12.373333333333331a5.546666666666667 5.546666666666667 0 0 1 5.973333333333334 0L149.33333333333331 211.2a2.5599999999999996 2.5599999999999996 0 0 1 1.0666666666666667 2.986666666666667 2.6666666666666665 2.6666666666666665 0 0 1 -2.5599999999999996 1.92Z" fill="#ffffff" stroke-width="10.6667"></path>
  </g>
</svg>