<svg xmlns="http://www.w3.org/2000/svg" viewBox="0 0 256 256" id="Medical-Specialty-Pregnancy--Streamline-Ultimate" height="256" width="256">
  <desc>
    Medical Specialty Pregnancy Streamline Icon: https://streamlinehq.com
  </desc>
  <path d="M187.30666666666664 23.68a40.21333333333333 40.21333333333333 0 0 0 -30.29333333333333 14.4 4.586666666666666 4.586666666666666 0 0 1 -4.906666666666666 0.96 4.586666666666666 4.586666666666666 0 0 1 -2.7733333333333334 -4.266666666666667V5.333333333333333a5.333333333333333 5.333333333333333 0 0 0 -5.333333333333333 -5.333333333333333H106.66666666666666a5.333333333333333 5.333333333333333 0 0 0 -5.333333333333333 5.333333333333333v30.08a49.17333333333333 49.17333333333333 0 0 0 14.826666666666664 34.346666666666664 38.18666666666667 38.18666666666667 0 0 1 5.013333333333333 47.57333333333333A92.79999999999998 92.79999999999998 0 0 1 42.666666666666664 160a42.666666666666664 42.666666666666664 0 0 0 -42.666666666666664 42.666666666666664v48a5.333333333333333 5.333333333333333 0 0 0 5.333333333333333 5.333333333333333H42.666666666666664a5.333333333333333 5.333333333333333 0 0 0 5.333333333333333 -5.333333333333333v-34.45333333333333a10.666666666666666 10.666666666666666 0 0 1 10.666666666666666 -10.666666666666666c3.52 -0.7466666666666667 9.066666666666666 5.653333333333333 12.159999999999998 8.853333333333332A98.24000000000001 98.24000000000001 0 0 0 181.33333333333331 238.82666666666665c36.05333333333333 -14.719999999999999 74.66666666666666 -54.18666666666667 74.66666666666666 -120.96 0 -55.46666666666667 -28.266666666666666 -94.18666666666667 -68.69333333333333 -94.18666666666667ZM147.2 218.66666666666666a52.693333333333335 52.693333333333335 0 0 1 -43.519999999999996 -21.973333333333333 13.226666666666667 13.226666666666667 0 0 1 -1.5999999999999999 -11.946666666666667 13.44 13.44 0 0 1 8.959999999999999 -8.32 55.89333333333333 55.89333333333333 0 0 1 15.146666666666665 -2.1333333333333333 12.586666666666666 12.586666666666666 0 0 0 11.306666666666667 -7.573333333333332 45.97333333333333 45.97333333333333 0 0 1 36.373333333333335 -24.53333333333333 26.986666666666665 26.986666666666665 0 0 1 26.560000000000002 16.53333333333333 30.93333333333333 30.93333333333333 0 0 1 2.2399999999999998 12.479999999999999c0 25.28 -25.706666666666667 47.46666666666667 -55.46666666666667 47.46666666666667Z" fill="#ffffff" stroke-width="10.6667"></path>
</svg>