<svg xmlns="http://www.w3.org/2000/svg" id="Medical-Specialty-Nose--Streamline-Ultimate" width="256" height="256" viewBox="0 0 256 256"><desc>Medical Specialty Nose Streamline Icon: https://streamlinehq.com</desc><path fill="#fff" stroke-width="10.667" d="M230.18666666666664 162.45333333333332a94.39999999999999 94.39999999999999 0 0 1 -27.733333333333334 -32 292.26666666666665 292.26666666666665 0 0 1 -32 -105.70666666666666l-2.1333333333333333 -19.946666666666665a5.226666666666667 5.226666666666667 0 0 0 -5.226666666666667 -4.8H92.90666666666667a5.226666666666667 5.226666666666667 0 0 0 -5.226666666666667 4.8L85.33333333333333 24.746666666666663a292.37333333333333 292.37333333333333 0 0 1 -32 106.66666666666666 93.22666666666666 93.22666666666666 0 0 1 -27.41333333333333 32c-13.226666666666667 10.666666666666666 -25.813333333333333 21.333333333333332 -25.813333333333333 47.36a57.06666666666666 57.06666666666666 0 0 0 20.05333333333333 41.599999999999994 10.666666666666666 10.666666666666666 0 0 0 15.573333333333332 -3.626666666666667C40.21333333333333 238.9333333333333 49.919999999999995 224 64 224c7.1466666666666665 0 14.826666666666664 0.96 35.41333333333333 17.493333333333332A50.773333333333326 50.773333333333326 0 0 0 128 256a50.773333333333326 50.773333333333326 0 0 0 28.586666666666666 -14.506666666666668C177.28 224.8533333333333 184.32 224 192 224c14.08 0 23.786666666666665 14.933333333333332 28.373333333333335 23.786666666666665a10.666666666666666 10.666666666666666 0 0 0 6.826666666666666 5.4399999999999995 11.413333333333334 11.413333333333334 0 0 0 8.746666666666666 -1.7066666666666666A57.493333333333325 57.493333333333325 0 0 0 256 209.81333333333333c0 -26.24 -12.586666666666666 -36.48 -25.813333333333333 -47.36Z"/></svg>