<svg xmlns="http://www.w3.org/2000/svg" id="Medical-Instrument-Scalpel--Streamline-Ultimate" width="256" height="256" viewBox="0 0 256 256"><desc>Medical Instrument Scalpel Streamline Icon: https://streamlinehq.com</desc><g id="Medical-Instrument-Scalpel--Streamline-Ultimate.svg"><path fill="#fff" stroke-width="10.667" d="M251.30666666666664 11.2a27.093333333333334 27.093333333333334 0 0 0 -19.626666666666665 -10.666666666666666 26.560000000000002 26.560000000000002 0 0 0 -21.333333333333332 7.68L102.50666666666666 116.05333333333334a10.666666666666666 10.666666666666666 0 0 0 0 15.04l22.613333333333333 22.72a10.666666666666666 10.666666666666666 0 0 0 15.146666666666665 0L247.57333333333332 46.29333333333333a27.52 27.52 0 0 0 3.733333333333333 -35.093333333333334Z"/><path fill="#fff" stroke-width="10.667" d="M93.22666666666666 147.73333333333332a5.4399999999999995 5.4399999999999995 0 0 0 -7.573333333333332 0L3.093333333333333 230.29333333333332a10.666666666666666 10.666666666666666 0 0 0 -3.093333333333333 8.533333333333333 10.666666666666666 10.666666666666666 0 0 0 4.586666666666666 7.786666666666666 50.346666666666664 50.346666666666664 0 0 0 28.373333333333335 9.386666666666667 53.33333333333333 53.33333333333333 0 0 0 37.65333333333333 -17.706666666666663 55.14666666666666 55.14666666666666 0 0 0 12.799999999999999 -37.76c0 -19.2 23.253333333333334 -28.906666666666666 23.253333333333334 -29.013333333333335a5.333333333333333 5.333333333333333 0 0 0 3.093333333333333 -3.9466666666666663 5.119999999999999 5.119999999999999 0 0 0 -1.4933333333333334 -4.693333333333333Z"/></g></svg>