<svg xmlns="http://www.w3.org/2000/svg" viewBox="0 0 256 256" id="Medical-Specialty-Feet--Streamline-Ultimate" height="256" width="256">
  <desc>
    Medical Specialty Feet Streamline Icon: https://streamlinehq.com
  </desc>
  <g id="Medical-Specialty-Feet--Streamline-Ultimate.svg">
    <path d="M127.99253333333333 54.82666666666666H102.59093333333334c-36.7744 0.09173333333333333 -59.65866666666666 39.959466666666664 -41.19146666666666 71.76106666666666 5.8133333333333335 10.011733333333332 15.0656 17.571199999999997 26.034133333333333 21.2736l4.599466666666666 1.5679999999999998c15.250133333333332 5.019733333333333 25.5424 19.277866666666664 25.50613333333333 35.33226666666666v19.025066666666667c-0.6442666666666667 26.672 20.37333333333333 48.85653333333333 47.04 49.653333333333336 26.667733333333334 -0.7968 47.68426666666666 -22.981333333333332 47.04 -49.653333333333336V138.45333333333332c0 -46.1856 -37.441066666666664 -83.62666666666667 -83.62666666666667 -83.62666666666667Z" fill="#ffffff" stroke-width="10.6667"></path>
    <path d="M44.36586666666666 28.69333333333333c0 20.11733333333333 21.778133333333333 32.691199999999995 39.199999999999996 22.63253333333333 8.0864 -4.668799999999999 13.066666666666666 -13.296 13.066666666666666 -22.63253333333333 0 -20.11733333333333 -21.777066666666663 -32.691199999999995 -39.199999999999996 -22.63253333333333 -8.085333333333333 4.668799999999999 -13.066666666666666 13.296 -13.066666666666666 22.63253333333333" fill="#ffffff" stroke-width="10.6667"></path>
    <path d="M107.08586666666667 23.46666666666667c0 16.093866666666663 17.422933333333333 26.15253333333333 31.36 18.1056 6.468266666666667 -3.7344 10.453333333333333 -10.6368 10.453333333333333 -18.1056 0 -16.093866666666663 -17.421866666666666 -26.15253333333333 -31.36 -18.1056 -6.468266666666667 3.7344 -10.453333333333333 10.6368 -10.453333333333333 18.1056" fill="#ffffff" stroke-width="10.6667"></path>
    <path d="M159.35253333333333 33.92c0 16.093866666666663 17.422933333333333 26.15253333333333 31.36 18.1056 6.468266666666667 -3.7344 10.453333333333333 -10.6368 10.453333333333333 -18.1056 0 -16.093866666666663 -17.421866666666666 -26.15253333333333 -31.36 -18.1056 -6.468266666666667 3.7344 -10.453333333333333 10.6368 -10.453333333333333 18.1056" fill="#ffffff" stroke-width="10.6667"></path>
  </g>
</svg>