<svg xmlns="http://www.w3.org/2000/svg" viewBox="0 0 256 256" id="Medical-Hospital-1--Streamline-Ultimate" height="256" width="256">
  <desc>
    Medical Hospital 1 Streamline Icon: https://streamlinehq.com
  </desc>
  <g id="Medical-Hospital-1--Streamline-Ultimate.svg">
    <path d="M188.47679999999997 99.67146666666667c-4.978133333333333 -2.8266666666666667 -11.304533333333334 -1.1050666666666666 -14.164266666666666 3.8538666666666668 -2.8970666666666665 5.0016 -1.168 11.405866666666665 3.8538666666666668 14.267733333333332 6.040533333333333 3.333333333333333 7.3941333333333334 6.145066666666666 7.3941333333333334 6.874666666666666 0 14.059733333333334 -15.517866666666666 16.558933333333332 -52.69973333333333 17.288533333333334 -31.24373333333333 0.6250666666666667 -70.40426666666666 1.3536000000000001 -70.40426666666666 35.72266666666667 -0.09919999999999998 5.7194666666666665 1.4175999999999997 11.3504 4.3744 16.247466666666668 1.8816 3.0911999999999997 5.234133333333333 4.983466666666667 8.852266666666665 4.999466666666667 1.9146666666666665 -0.013866666666666666 3.7888 -0.5536 5.416533333333334 -1.5626666666666664 4.908799999999999 -2.9696 6.491733333333333 -9.348266666666666 3.5402666666666662 -14.268799999999999 -0.9728 -1.6330666666666667 -1.4432 -3.5168 -1.3536000000000001 -5.415466666666667 0 -8.644266666666667 8.228266666666666 -12.1856 25.82933333333333 -13.7472 0.6698666666666666 -0.08746666666666666 1.3450666666666664 0.10026666666666667 1.8741333333333332 0.5205333333333333 0.5130666666666666 0.5034666666666666 0.8426666666666667 1.1626666666666665 0.9376 1.8741333333333332l0.7296 9.373866666666666c0.022399999999999996 0.7317333333333332 0.3648 1.4175999999999997 0.9365333333333333 1.8741333333333332 0.608 0.42346666666666666 1.3482666666666667 0.6090666666666666 2.0831999999999997 0.5216 4.098133333333333 -0.6549333333333334 8.244266666666666 -0.9685333333333334 12.3936 -0.9376h13.123199999999999c1.2608 -0.13866666666666666 2.256 -1.1349333333333331 2.3957333333333333 -2.3957333333333333l0.7285333333333333 -9.477333333333332c0.09919999999999998 -1.3376000000000001 1.1626666666666665 -2.4 2.4992 -2.4992 29.266133333333332 -1.1456 59.57333333333333 -5.9370666666666665 59.57333333333333 -37.7024 -0.5557333333333333 -11.221333333333334 -7.5317333333333325 -21.116799999999998 -17.9136 -25.412266666666667Z" fill="#ffffff" stroke-width="10.6667"></path>
    <path d="M128.59093333333334 252.35413333333332c1.6970666666666665 -0.023466666666666667 3.138133333333333 -1.2469333333333332 3.4368 -2.916266666666666l6.4576 -33.536c-0.0010666666666666667 -1.3983999999999999 1.1018666666666665 -2.5482666666666667 2.4992 -2.6037333333333335 18.746666666666666 -0.9376 37.07733333333333 -4.478933333333333 46.45013333333333 -16.768 5.2821333333333325 -6.032 2.0533333333333332 -15.52 -5.8111999999999995 -17.077333333333332 -4.103466666666666 -0.8128 -8.295466666666666 0.9087999999999999 -10.644266666666667 4.3712 -4.5824 5.936 -19.059199999999997 8.9568 -42.9088 8.9568 -12.082133333333333 -1.0314666666666665 -23.983999999999998 3.4463999999999997 -32.3904 12.184533333333334 -5.8048 7.3002666666666665 -7.882666666666666 16.88533333333333 -5.623466666666666 25.933866666666663 0.96 4.968533333333333 5.354666666666667 8.527999999999999 10.413866666666665 8.435199999999998h1.8752c5.6736 -1.0517333333333332 9.410133333333333 -6.516266666666667 8.331733333333332 -12.184533333333334 -0.9333333333333332 -2.9418666666666664 -0.5130666666666666 -6.146133333333333 1.1456 -8.7488 0.5685333333333333 -0.6965333333333332 1.2789333333333333 -1.2650666666666666 2.0831999999999997 -1.6661333333333332 0.8053333333333332 -0.46506666666666663 1.7984 -0.46506666666666663 2.6037333333333335 0 0.8213333333333332 0.4736 1.3354666666666666 1.3429333333333333 1.3536000000000001 2.2912l5.832533333333332 31.244799999999998c0.2976 1.6117333333333335 1.6938666666666666 2.7893333333333334 3.333333333333333 2.811733333333333Z" fill="#ffffff" stroke-width="10.6667"></path>
    <path d="M70.78826666666666 128.72853333333333c-1.7706666666666666 -5.415466666666667 4.270933333333333 -9.685333333333332 9.789866666666665 -12.3936 6.917333333333333 -4.054399999999999 6.8511999999999995 -14.075733333333334 -0.1184 -18.0384 -2.7647999999999997 -1.5722666666666667 -6.097066666666667 -1.7941333333333331 -9.046399999999998 -0.6037333333333332 -26.662399999999998 12.914133333333334 -22.288 32.077866666666665 -20.30933333333333 37.70133333333333 1.4208 4.205866666666666 5.351466666666667 7.0496 9.790933333333333 7.082666666666666 1.1050666666666666 0.15786666666666666 2.2272 0.15786666666666666 3.3322666666666665 0 5.758933333333333 -1.8144 8.772266666666667 -8.130133333333333 6.561066666666666 -13.748266666666666Z" fill="#ffffff" stroke-width="10.6667"></path>
    <path d="M87.6608 85.7152c0.576 0.18346666666666667 1.1946666666666665 0.18346666666666667 1.7706666666666666 0 0.4053333333333333 -0.5408 0.6250666666666667 -1.1978666666666666 0.6250666666666667 -1.8741333333333332 -3.6458666666666666 -50.199466666666666 -3.6458666666666666 -53.74079999999999 -3.6458666666666666 -55.511466666666664 0.008533333333333334 -3.0218666666666665 0.3936 -6.0309333333333335 1.1456 -8.9568 0.30293333333333333 -0.6613333333333333 0.30293333333333333 -1.4218666666666666 0 -2.0831999999999997 -0.4245333333333333 -0.6399999999999999 -1.1114666666666666 -1.0592 -1.8741333333333332 -1.1456 -17.288533333333334 -1.8741333333333332 -35.72373333333333 7.8111999999999995 -52.07466666666666 16.142933333333332 -7.2864 4.125866666666666 -14.9184 7.610666666666667 -22.808533333333333 10.414933333333334 -3.6288 0.7861333333333334 -6.565333333333333 3.4442666666666666 -7.706666666666667 6.978133333333333 -1.2064 3.6288 -0.32639999999999997 7.626666666666666 2.2912 10.414933333333334 13.642666666666665 14.164266666666666 44.2624 26.245333333333335 77.79839999999999 26.245333333333335Z" fill="#ffffff" stroke-width="10.6667"></path>
    <path d="M253.0485333333333 49.67999999999999c-1.0453333333333332 -3.4005333333333327 -3.7557333333333336 -6.032 -7.186133333333332 -6.978133333333333 -7.890133333333333 -2.804266666666667 -15.521066666666666 -6.289066666666667 -22.808533333333333 -10.414933333333334 -16.0384 -8.331733333333332 -34.47253333333333 -18.017066666666665 -52.0736 -16.142933333333332 -0.7637333333333333 0.08639999999999999 -1.4495999999999998 0.5066666666666666 -1.8752 1.1456 -0.30293333333333333 0.6613333333333333 -0.30293333333333333 1.4218666666666666 0 2.0831999999999997 0.7530666666666666 2.926933333333333 1.1381333333333332 5.934933333333333 1.1456 8.9568 0 1.5626666666666664 0 5.102933333333333 -3.6448 54.99093333333333 -0.04586666666666667 0.6826666666666666 0.1781333333333333 1.3557333333333332 0.6250666666666667 1.8741333333333332 0.4608 0.512 1.0879999999999999 0.8437333333333333 1.7695999999999998 0.9376h4.478933333333333c33.536 0 64.15573333333333 -12.081066666666667 77.38239999999999 -26.765866666666668 2.32 -2.651733333333333 3.143466666666667 -6.295466666666666 2.1866666666666665 -9.686399999999999Z" fill="#ffffff" stroke-width="10.6667"></path>
    <path d="M111.61493333333334 127.37493333333333c7.3941333333333334 -0.5205333333333333 14.580266666666667 -0.7285333333333333 20.829866666666668 -0.8330666666666666h12.3936c1.3408 0.0010666666666666667 2.4437333333333333 -1.056 2.4992 -2.3957333333333333 4.3744 -59.15626666666666 6.6655999999999995 -91.23413333333333 6.6655999999999995 -95.19146666666667C153.96266666666665 8.910933333333332 132.24 -3.5722666666666663 114.9024 6.484266666666667c-8.013866666666665 4.648533333333333 -12.954666666666665 13.205333333333332 -12.973866666666666 22.470399999999998 0 1.5615999999999999 0 6.145066666666666 6.770133333333334 96.4416 0.3104 1.3173333333333332 1.5776 2.1770666666666667 2.916266666666666 1.9786666666666666Z" fill="#ffffff" stroke-width="10.6667"></path>
  </g>
</svg>