<svg xmlns="http://www.w3.org/2000/svg" id="Meeting-Remote--Streamline-Ultimate" width="256" height="256" viewBox="0 0 256 256"><desc>Meeting Remote Streamline Icon: https://streamlinehq.com</desc><g id="Meeting-Remote--Streamline-Ultimate.svg"><path fill="#fff" stroke-width="10.667" d="M72.10666666666665 134.29333333333332h122.45333333333333A29.546666666666667 29.546666666666667 0 0 0 224 104.74666666666667V29.439999999999998A29.546666666666667 29.546666666666667 0 0 0 194.55999999999997 0H72.10666666666665A29.546666666666667 29.546666666666667 0 0 0 42.666666666666664 29.439999999999998v75.30666666666666a29.546666666666667 29.546666666666667 0 0 0 29.439999999999998 29.546666666666667ZM64 29.439999999999998A8.106666666666666 8.106666666666666 0 0 1 72.10666666666665 21.333333333333332h122.45333333333333a8.106666666666666 8.106666666666666 0 0 1 8.106666666666666 8.106666666666666v75.30666666666666a8.213333333333333 8.213333333333333 0 0 1 -8.106666666666666 8.213333333333333h-18.773333333333333a2.6666666666666665 2.6666666666666665 0 0 1 -1.92 -0.8533333333333333 56.63999999999999 56.63999999999999 0 0 0 -23.04 -13.76A2.6666666666666665 2.6666666666666665 0 0 1 149.33333333333331 96a2.88 2.88 0 0 1 1.2799999999999998 -2.6666666666666665 30.29333333333333 30.29333333333333 0 1 0 -31.253333333333334 0 2.5599999999999996 2.5599999999999996 0 0 1 1.3866666666666667 2.5599999999999996 2.7733333333333334 2.7733333333333334 0 0 1 -1.92 2.2399999999999998A56.213333333333324 56.213333333333324 0 0 0 96 112.10666666666665a2.6666666666666665 2.6666666666666665 0 0 1 -1.92 0.8533333333333333H72.10666666666665A8.213333333333333 8.213333333333333 0 0 1 64 104.74666666666667Z"/><path fill="#fff" stroke-width="10.667" d="M249.49333333333334 247.36a55.14666666666666 55.14666666666666 0 0 0 -27.093333333333334 -18.24 2.986666666666667 2.986666666666667 0 0 1 -1.92 -2.2399999999999998 2.6666666666666665 2.6666666666666665 0 0 1 1.2799999999999998 -2.5599999999999996 30.506666666666664 30.506666666666664 0 1 0 -31.253333333333334 0 2.7733333333333334 2.7733333333333334 0 0 1 -0.5333333333333333 4.906666666666666 52.373333333333335 52.373333333333335 0 0 0 -20.37333333333333 11.52 2.88 2.88 0 0 1 -3.626666666666667 0 55.67999999999999 55.67999999999999 0 0 0 -21.333333333333332 -11.733333333333334 2.986666666666667 2.986666666666667 0 0 1 -1.92 -2.2399999999999998 2.6666666666666665 2.6666666666666665 0 0 1 1.2799999999999998 -2.5599999999999996 30.506666666666664 30.506666666666664 0 1 0 -31.253333333333334 0 2.7733333333333334 2.7733333333333334 0 0 1 0 4.906666666666666 53.33333333333333 53.33333333333333 0 0 0 -21.333333333333332 12.586666666666666 2.7733333333333334 2.7733333333333334 0 0 1 -3.733333333333333 0 53.33333333333333 53.33333333333333 0 0 0 -21.333333333333332 -12.693333333333332 2.6666666666666665 2.6666666666666665 0 0 1 -2.3466666666666667 -2.0266666666666664 2.6666666666666665 2.6666666666666665 0 0 1 1.1733333333333333 -2.986666666666667 30.4 30.4 0 1 0 -31.253333333333334 0 2.5599999999999996 2.5599999999999996 0 0 1 1.2799999999999998 2.5599999999999996 2.6666666666666665 2.6666666666666665 0 0 1 -1.8133333333333335 2.2399999999999998 55.04 55.04 0 0 0 -26.88 18.133333333333333 5.4399999999999995 5.4399999999999995 0 0 0 -0.6399999999999999 5.653333333333333A5.333333333333333 5.333333333333333 0 0 0 10.666666666666666 256h234.66666666666666a5.333333333333333 5.333333333333333 0 0 0 4.8 -2.986666666666667 5.4399999999999995 5.4399999999999995 0 0 0 -0.6399999999999999 -5.653333333333333Z"/></g></svg>