<svg xmlns="http://www.w3.org/2000/svg" viewBox="0 0 256 256" id="Megaphone--Streamline-Ultimate" height="256" width="256">
  <desc>
    Megaphone Streamline Icon: https://streamlinehq.com
  </desc>
  <g id="Megaphone--Streamline-Ultimate.svg">
    <path d="M256 101.33333333333333a21.333333333333332 21.333333333333332 0 0 0 -14.186666666666667 -20.05333333333333 5.76 5.76 0 0 0 -4.906666666666666 0.6399999999999999 5.546666666666667 5.546666666666667 0 0 0 -2.2399999999999998 4.373333333333333v40.85333333333333a5.546666666666667 5.546666666666667 0 0 0 2.2399999999999998 4.373333333333333 5.653333333333333 5.653333333333333 0 0 0 4.906666666666666 0.6399999999999999A21.333333333333332 21.333333333333332 0 0 0 256 112Z" fill="#ffffff" stroke-width="10.6667"></path>
    <path d="M218.66666666666666 37.33333333333333a15.893333333333333 15.893333333333333 0 0 0 -7.466666666666666 -13.44c-8.853333333333332 -5.653333333333333 -15.68 -0.96 -29.013333333333335 5.546666666666667A239.67999999999998 239.67999999999998 0 0 1 74.66666666666666 58.13333333333333a5.333333333333333 5.333333333333333 0 0 0 -5.333333333333333 5.866666666666667v91.62666666666667a88.74666666666667 88.74666666666667 0 0 0 49.06666666666666 78.29333333333332 10.666666666666666 10.666666666666666 0 0 0 9.493333333333332 -19.2 66.88 66.88 0 0 1 -37.12 -57.81333333333333 234.66666666666666 234.66666666666666 0 0 1 91.2 26.346666666666668c14.719999999999999 6.933333333333334 20.69333333333333 10.666666666666666 29.439999999999998 5.4399999999999995a16 16 0 0 0 7.253333333333334 -13.546666666666667Z" fill="#ffffff" stroke-width="10.6667"></path>
    <path d="M53.33333333333333 64a5.226666666666667 5.226666666666667 0 0 0 -1.5999999999999999 -3.84 5.333333333333333 5.333333333333333 0 0 0 -3.733333333333333 -1.4933333333333334h-10.666666666666666A37.22666666666667 37.22666666666667 0 0 0 0 96v21.333333333333332a37.33333333333333 37.33333333333333 0 0 0 37.54666666666667 37.22666666666667h10.666666666666666A5.333333333333333 5.333333333333333 0 0 0 53.33333333333333 149.33333333333331Z" fill="#ffffff" stroke-width="10.6667"></path>
  </g>
</svg>