<svg xmlns="http://www.w3.org/2000/svg" viewBox="0 0 256 256" id="Messages-Bubble-Square-Typing--Streamline-Ultimate" height="256" width="256">
  <desc>
    Messages Bubble Square Typing Streamline Icon: https://streamlinehq.com
  </desc>
  <path d="M234.66666666666666 16H21.333333333333332A16 16 0 0 0 5.333333333333333 32v144.53333333333333A15.573333333333332 15.573333333333332 0 0 0 21.333333333333332 192h32v42.666666666666664a5.119999999999999 5.119999999999999 0 0 0 2.88 4.693333333333333 5.013333333333333 5.013333333333333 0 0 0 5.4399999999999995 0L129.70666666666665 192H234.66666666666666a16 16 0 0 0 16 -16V32A16 16 0 0 0 234.66666666666666 16ZM202.66666666666666 106.66666666666666a16 16 0 1 1 -16 -16A16 16 0 0 1 202.66666666666666 106.66666666666666ZM53.33333333333333 106.66666666666666a16 16 0 1 1 16 16A16 16 0 0 1 53.33333333333333 106.66666666666666Zm58.666666666666664 0a16 16 0 1 1 16 16 16 16 0 0 1 -16 -16Z" fill="#ffffff" stroke-width="10.6667"></path>
</svg>