<svg xmlns="http://www.w3.org/2000/svg" id="Messages-People-Person-Bubble-Circle-1--Streamline-Ultimate" width="256" height="256" viewBox="0 0 256 256"><desc>Messages People Person Bubble Circle 1 Streamline Icon: https://streamlinehq.com</desc><g id="Messages-People-Person-Bubble-Circle-1--Streamline-Ultimate.svg"><path fill="#fff" stroke-width="10.667" d="M176 0a81.6 81.6 0 0 0 -65.70666666666666 32 10.666666666666666 10.666666666666666 0 1 0 17.066666666666666 12.693333333333332A60.48 60.48 0 0 1 176 21.333333333333332 56.213333333333324 56.213333333333324 0 0 1 234.66666666666666 74.66666666666666a53.33333333333333 53.33333333333333 0 0 1 -35.839999999999996 49.17333333333333 10.666666666666666 10.666666666666666 0 0 0 -3.413333333333333 2.0266666666666664c-2.1333333333333333 2.0266666666666664 -22.08 18.986666666666665 -24.746666666666663 21.333333333333332v-9.066666666666666a10.666666666666666 10.666666666666666 0 0 0 -9.173333333333332 -10.666666666666666 56.42666666666666 56.42666666666666 0 0 1 -8.426666666666666 -1.8133333333333335 10.666666666666666 10.666666666666666 0 1 0 -5.866666666666667 20.586666666666666l2.1333333333333333 0.5333333333333333V170.66666666666666a10.666666666666666 10.666666666666666 0 0 0 6.613333333333333 9.813333333333333 10.666666666666666 10.666666666666666 0 0 0 11.626666666666667 -2.2399999999999998c2.7733333333333334 -2.88 37.76 -32.64 40.74666666666666 -35.306666666666665A74.66666666666666 74.66666666666666 0 0 0 256 74.66666666666666a77.54666666666665 77.54666666666665 0 0 0 -80 -74.66666666666666Z"/><path fill="#fff" stroke-width="10.667" d="M129.27999999999997 69.33333333333333a10.666666666666666 10.666666666666666 0 1 0 21.333333333333332 0 10.666666666666666 10.666666666666666 0 1 0 -21.333333333333332 0"/><path fill="#fff" stroke-width="10.667" d="M163.94666666666666 69.33333333333333a10.666666666666666 10.666666666666666 0 1 0 21.333333333333332 0 10.666666666666666 10.666666666666666 0 1 0 -21.333333333333332 0"/><path fill="#fff" stroke-width="10.667" d="M198.61333333333334 69.33333333333333a10.666666666666666 10.666666666666666 0 1 0 21.333333333333332 0 10.666666666666666 10.666666666666666 0 1 0 -21.333333333333332 0"/><path fill="#fff" stroke-width="10.667" d="M80 170.66666666666666A80 80 0 0 0 0 250.66666666666666a5.333333333333333 5.333333333333333 0 0 0 5.333333333333333 5.333333333333333h149.33333333333331a5.333333333333333 5.333333333333333 0 0 0 5.333333333333333 -5.333333333333333A80 80 0 0 0 80 170.66666666666666Z"/><path fill="#fff" stroke-width="10.667" d="M29.333333333333332 114.66666666666666a50.666666666666664 50.666666666666664 0 1 0 101.33333333333333 0 50.666666666666664 50.666666666666664 0 1 0 -101.33333333333333 0"/></g></svg>