<svg xmlns="http://www.w3.org/2000/svg" id="Messages-People-User-Bubble-Circle--Streamline-Ultimate" width="256" height="256" viewBox="0 0 256 256"><desc>Messages People User Bubble Circle Streamline Icon: https://streamlinehq.com</desc><g id="Messages-People-User-Bubble-Circle--Streamline-Ultimate.svg"><path fill="#fff" stroke-width="10.667" d="M165.33333333333331 0C115.30666666666667 0 74.66666666666666 33.49333333333333 74.66666666666666 74.66666666666666c0 36.373333333333335 32 67.19999999999999 74.66666666666666 73.38666666666666v27.946666666666665a10.666666666666666 10.666666666666666 0 0 0 18.24 7.573333333333332L213.33333333333331 138.66666666666666a73.17333333333333 73.17333333333333 0 0 0 42.666666666666664 -64c0 -41.17333333333333 -40.64 -74.66666666666666 -90.66666666666666 -74.66666666666666Zm36.586666666666666 119.78666666666666a11.2 11.2 0 0 0 -2.88 2.1333333333333333L170.66666666666666 150.29333333333332V138.66666666666666a10.666666666666666 10.666666666666666 0 0 0 -10.133333333333333 -10.666666666666666C124.37333333333333 125.86666666666667 96 102.50666666666666 96 74.66666666666666c0 -29.439999999999998 31.146666666666665 -53.33333333333333 69.33333333333333 -53.33333333333333S234.66666666666666 45.22666666666667 234.66666666666666 74.66666666666666a51.84 51.84 0 0 1 -32.74666666666666 45.120000000000005Z"/><path fill="#fff" stroke-width="10.667" d="M202.66666666666666 50.666666666666664h-74.66666666666666a8 8 0 0 0 0 16h74.66666666666666a8 8 0 0 0 0 -16Z"/><path fill="#fff" stroke-width="10.667" d="M181.33333333333331 82.66666666666666h-53.33333333333333a8 8 0 0 0 0 16h53.33333333333333a8 8 0 0 0 0 -16Z"/><path fill="#fff" stroke-width="10.667" d="M37.33333333333333 138.66666666666666a29.333333333333332 29.333333333333332 0 1 0 -29.333333333333332 -29.333333333333332A29.333333333333332 29.333333333333332 0 0 0 37.33333333333333 138.66666666666666 37.33333333333333 37.33333333333333 0 0 0 0 176v21.333333333333332a5.013333333333333 5.013333333333333 0 0 0 1.5999999999999999 3.733333333333333 5.013333333333333 5.013333333333333 0 0 0 3.733333333333333 1.5999999999999999h8.746666666666666a2.6666666666666665 2.6666666666666665 0 0 1 2.6666666666666665 2.453333333333333L21.333333333333332 251.2a5.333333333333333 5.333333333333333 0 0 0 5.333333333333333 4.8h21.333333333333332a5.333333333333333 5.333333333333333 0 0 0 5.333333333333333 -4.8l4.586666666666666 -46.08a2.6666666666666665 2.6666666666666665 0 0 1 2.6666666666666665 -2.453333333333333h8.746666666666666a5.333333333333333 5.333333333333333 0 0 0 5.333333333333333 -5.333333333333333v-21.333333333333332A37.33333333333333 37.33333333333333 0 0 0 37.33333333333333 138.66666666666666Z"/></g></svg>