<svg xmlns="http://www.w3.org/2000/svg" id="Messages-Bubble-Square-Subtract--Streamline-Ultimate" width="256" height="256" viewBox="0 0 256 256"><desc>Messages Bubble Square Subtract Streamline Icon: https://streamlinehq.com</desc><g id="Messages-Bubble-Square-Subtract--Streamline-Ultimate.svg"><path fill="#fff" stroke-width="10.667" d="M186.66666666666666 101.33333333333333a85.33333333333333 85.33333333333333 0 0 1 38.82666666666667 9.386666666666667 2.453333333333333 2.453333333333333 0 0 0 2.5599999999999996 0 2.5599999999999996 2.5599999999999996 0 0 0 1.2799999999999998 -2.2399999999999998V16A16 16 0 0 0 213.33333333333331 0H16A16 16 0 0 0 0 16v128.53333333333333A15.573333333333332 15.573333333333332 0 0 0 16 160H32v37.33333333333333a5.4399999999999995 5.4399999999999995 0 0 0 3.1999999999999997 4.906666666666666 5.226666666666667 5.226666666666667 0 0 0 5.653333333333333 -0.96L87.35999999999999 160h16.426666666666666a2.6666666666666665 2.6666666666666665 0 0 0 2.453333333333333 -1.8133333333333335A85.33333333333333 85.33333333333333 0 0 1 186.66666666666666 101.33333333333333Z"/><path fill="#fff" stroke-width="10.667" d="M186.66666666666666 117.33333333333333a69.33333333333333 69.33333333333333 0 1 0 69.33333333333333 69.33333333333333 69.44 69.44 0 0 0 -69.33333333333333 -69.33333333333333ZM160 178.66666666666666h53.33333333333333a8 8 0 0 1 0 16h-53.33333333333333a8 8 0 0 1 0 -16Z"/></g></svg>