<svg xmlns="http://www.w3.org/2000/svg" id="Messages-Bubble-Disable--Streamline-Ultimate" width="256" height="256" viewBox="0 0 256 256"><desc>Messages Bubble Disable Streamline Icon: https://streamlinehq.com</desc><g id="Messages-Bubble-Disable--Streamline-Ultimate.svg"><path fill="#fff" stroke-width="10.667" d="M126.39999999999999 126.29333333333332a85.33333333333333 85.33333333333333 0 0 1 102.82666666666667 -13.653333333333332 2.5599999999999996 2.5599999999999996 0 0 0 2.453333333333333 0 2.6666666666666665 2.6666666666666665 0 0 0 1.5999999999999999 -1.92A85.33333333333333 85.33333333333333 0 0 0 234.66666666666666 96c0 -53.33333333333333 -52.58666666666666 -96 -117.33333333333333 -96S0 42.666666666666664 0 96a85.97333333333333 85.97333333333333 0 0 0 28.373333333333335 62.39999999999999L10.666666666666666 206.07999999999998a5.333333333333333 5.333333333333333 0 0 0 1.3866666666666667 5.76 5.4399999999999995 5.4399999999999995 0 0 0 5.653333333333333 1.0666666666666667l62.29333333333333 -25.92a149.33333333333331 149.33333333333331 0 0 0 18.24 3.626666666666667 2.6666666666666665 2.6666666666666665 0 0 0 2.1333333333333333 -0.6399999999999999 2.88 2.88 0 0 0 0.8533333333333333 -2.0266666666666664 85.33333333333333 85.33333333333333 0 0 1 25.173333333333332 -61.653333333333336Z"/><path fill="#fff" stroke-width="10.667" d="M186.55999999999997 117.33333333333333A69.22666666666666 69.22666666666666 0 0 0 117.33333333333333 186.77333333333334c0 53.33333333333333 47.14666666666666 69.22666666666666 69.75999999999999 69.22666666666666A69.44 69.44 0 0 0 256 186.45333333333332c0 -61.22666666666667 -58.666666666666664 -69.12 -69.44 -69.12Zm-22.4 111.78666666666666a2.6666666666666665 2.6666666666666665 0 0 1 -0.6399999999999999 -4.266666666666667l61.33333333333333 -61.33333333333333a2.7733333333333334 2.7733333333333334 0 0 1 4.266666666666667 0.5333333333333333 48.10666666666666 48.10666666666666 0 0 1 -64.96 65.06666666666666Zm-11.413333333333334 -76.47999999999999a48.213333333333324 48.213333333333324 0 0 1 56.42666666666666 -8.426666666666666 2.453333333333333 2.453333333333333 0 0 1 1.3866666666666667 1.92 2.453333333333333 2.453333333333333 0 0 1 -0.7466666666666667 2.2399999999999998l-61.33333333333333 61.33333333333333a2.453333333333333 2.453333333333333 0 0 1 -2.2399999999999998 0.7466666666666667 2.88 2.88 0 0 1 -2.0266666666666664 -1.4933333333333334 47.46666666666667 47.46666666666667 0 0 1 8.533333333333333 -56.32Z"/></g></svg>