<svg xmlns="http://www.w3.org/2000/svg" viewBox="0 0 256 256" id="Messages-Bubble-Text--Streamline-Ultimate" height="256" width="256">
  <desc>
    Messages Bubble Text Streamline Icon: https://streamlinehq.com
  </desc>
  <g id="Messages-Bubble-Text--Streamline-Ultimate.svg">
    <path d="M21.333333333333332 128a10.666666666666666 10.666666666666666 0 1 0 -21.333333333333332 0 128 128 0 0 0 29.013333333333335 80.53333333333333 10.666666666666666 10.666666666666666 0 0 0 8.32 3.84 10.666666666666666 10.666666666666666 0 0 0 6.72 -2.453333333333333 10.666666666666666 10.666666666666666 0 0 0 1.4933333333333334 -14.933333333333332A106.66666666666666 106.66666666666666 0 0 1 21.333333333333332 128Z" fill="#ffffff" stroke-width="10.6667"></path>
    <path d="M97.91999999999999 12.906666666666666A10.666666666666666 10.666666666666666 0 0 0 84.26666666666667 6.506666666666666a128.64 128.64 0 0 0 -66.02666666666667 54.50666666666667 10.666666666666666 10.666666666666666 0 0 0 3.626666666666667 14.613333333333333 10.666666666666666 10.666666666666666 0 0 0 5.4399999999999995 1.5999999999999999 10.666666666666666 10.666666666666666 0 0 0 9.173333333333332 -5.226666666666667 107.73333333333332 107.73333333333332 0 0 1 55.04 -45.44 10.666666666666666 10.666666666666666 0 0 0 6.3999999999999995 -13.653333333333332Z" fill="#ffffff" stroke-width="10.6667"></path>
    <path d="M254.61333333333334 108.16a10.666666666666666 10.666666666666666 0 0 0 -12.053333333333331 -8.959999999999999 10.666666666666666 10.666666666666666 0 0 0 -9.066666666666666 12.053333333333331A109.65333333333332 109.65333333333332 0 0 1 234.66666666666666 126.93333333333334a106.66666666666666 106.66666666666666 0 0 1 -23.893333333333334 67.19999999999999 10.666666666666666 10.666666666666666 0 0 0 1.5999999999999999 15.04 10.666666666666666 10.666666666666666 0 0 0 6.72 2.3466666666666667 10.666666666666666 10.666666666666666 0 0 0 8.32 -3.9466666666666663A128 128 0 0 0 256 126.93333333333334a122.56 122.56 0 0 0 -1.3866666666666667 -18.773333333333333Z" fill="#ffffff" stroke-width="10.6667"></path>
    <path d="M218.34666666666664 62.72a10.666666666666666 10.666666666666666 0 0 0 6.826666666666666 -2.453333333333333 10.666666666666666 10.666666666666666 0 0 0 1.3866666666666667 -15.04 128.95999999999998 128.95999999999998 0 0 0 -73.6 -43.946666666666665 10.666666666666666 10.666666666666666 0 0 0 -4.053333333333333 21.333333333333332 107.30666666666667 107.30666666666667 0 0 1 61.22666666666667 36.16 10.666666666666666 10.666666666666666 0 0 0 8.213333333333333 3.9466666666666663Z" fill="#ffffff" stroke-width="10.6667"></path>
    <path d="M163.94666666666666 227.30666666666664a106.66666666666666 106.66666666666666 0 0 1 -71.36 0A10.666666666666666 10.666666666666666 0 0 0 85.33333333333333 247.67999999999998a128 128 0 0 0 85.33333333333333 0 10.666666666666666 10.666666666666666 0 1 0 -7.1466666666666665 -20.159999999999997Z" fill="#ffffff" stroke-width="10.6667"></path>
    <path d="M133.33333333333331 57.6C95.14666666666666 57.6 64 83.19999999999999 64 114.66666666666666a50.986666666666665 50.986666666666665 0 0 0 16.426666666666666 37.013333333333335 2.6666666666666665 2.6666666666666665 0 0 1 0 3.093333333333333L69.33333333333333 177.81333333333333a5.333333333333333 5.333333333333333 0 0 0 0.96 6.079999999999999 5.546666666666667 5.546666666666667 0 0 0 4.373333333333333 1.7066666666666666 5.76 5.76 0 0 0 2.2399999999999998 0l34.13333333333333 -15.786666666666665a2.3466666666666667 2.3466666666666667 0 0 1 1.7066666666666666 0 82.45333333333333 82.45333333333333 0 0 0 21.333333333333332 2.6666666666666665c38.18666666666667 0 69.33333333333333 -25.599999999999998 69.33333333333333 -57.17333333333333S171.51999999999998 57.6 133.33333333333331 57.6Z" fill="#ffffff" stroke-width="10.6667"></path>
  </g>
</svg>