<svg xmlns="http://www.w3.org/2000/svg" viewBox="0 0 256 256" id="Messages-People-User-Check--Streamline-Ultimate" height="256" width="256">
  <desc>
    Messages People User Check Streamline Icon: https://streamlinehq.com
  </desc>
  <g id="Messages-People-User-Check--Streamline-Ultimate.svg">
    <path d="M141.22666666666666 105.70666666666666a19.413333333333334 19.413333333333334 0 0 0 29.439999999999998 -2.1333333333333333l34.026666666666664 -45.22666666666667a10.666666666666666 10.666666666666666 0 1 0 -17.066666666666666 -12.799999999999999L154.66666666666666 89.06666666666666 138.66666666666666 73.06666666666666a10.666666666666666 10.666666666666666 0 0 0 -15.04 15.04Z" fill="#ffffff" stroke-width="10.6667"></path>
    <path d="M234.66666666666666 0H96a21.333333333333332 21.333333333333332 0 0 0 -21.333333333333332 21.333333333333332v117.33333333333333a21.333333333333332 21.333333333333332 0 0 0 21.333333333333332 21.333333333333332h5.333333333333333v26.666666666666664a10.666666666666666 10.666666666666666 0 0 0 18.24 7.573333333333332l34.13333333333333 -34.239999999999995H234.66666666666666a21.333333333333332 21.333333333333332 0 0 0 21.333333333333332 -21.333333333333332V21.333333333333332a21.333333333333332 21.333333333333332 0 0 0 -21.333333333333332 -21.333333333333332Zm0 136a2.6666666666666665 2.6666666666666665 0 0 1 -2.6666666666666665 2.6666666666666665H149.33333333333331a10.666666666666666 10.666666666666666 0 0 0 -7.573333333333332 3.093333333333333l-19.093333333333334 19.2V149.33333333333331a10.666666666666666 10.666666666666666 0 0 0 -10.666666666666666 -10.666666666666666H98.66666666666666a2.6666666666666665 2.6666666666666665 0 0 1 -2.6666666666666665 -2.6666666666666665V24A2.6666666666666665 2.6666666666666665 0 0 1 98.66666666666666 21.333333333333332h133.33333333333331a2.6666666666666665 2.6666666666666665 0 0 1 2.6666666666666665 2.6666666666666665Z" fill="#ffffff" stroke-width="10.6667"></path>
    <path d="M37.33333333333333 138.66666666666666a29.333333333333332 29.333333333333332 0 1 0 -29.333333333333332 -29.333333333333332A29.333333333333332 29.333333333333332 0 0 0 37.33333333333333 138.66666666666666 37.33333333333333 37.33333333333333 0 0 0 0 176v21.333333333333332a5.013333333333333 5.013333333333333 0 0 0 1.5999999999999999 3.733333333333333 5.013333333333333 5.013333333333333 0 0 0 3.733333333333333 1.5999999999999999h8.746666666666666a2.6666666666666665 2.6666666666666665 0 0 1 2.6666666666666665 2.453333333333333L21.333333333333332 251.2a5.333333333333333 5.333333333333333 0 0 0 5.333333333333333 4.8h21.333333333333332a5.333333333333333 5.333333333333333 0 0 0 5.333333333333333 -4.8l4.586666666666666 -46.08a2.6666666666666665 2.6666666666666665 0 0 1 2.6666666666666665 -2.453333333333333h8.746666666666666a5.333333333333333 5.333333333333333 0 0 0 5.333333333333333 -5.333333333333333v-21.333333333333332A37.33333333333333 37.33333333333333 0 0 0 37.33333333333333 138.66666666666666Z" fill="#ffffff" stroke-width="10.6667"></path>
  </g>
</svg>