<svg xmlns="http://www.w3.org/2000/svg" id="Messages-Bubble-Square-Question--Streamline-Ultimate" width="256" height="256" viewBox="0 0 256 256"><desc>Messages Bubble Square Question Streamline Icon: https://streamlinehq.com</desc><path fill="#fff" stroke-width="10.667" d="M234.66666666666666 16H21.333333333333332A16 16 0 0 0 5.333333333333333 32v144.53333333333333A15.573333333333332 15.573333333333332 0 0 0 21.333333333333332 192h32v42.666666666666664a5.119999999999999 5.119999999999999 0 0 0 2.88 4.693333333333333 5.013333333333333 5.013333333333333 0 0 0 5.4399999999999995 0L129.70666666666665 192H234.66666666666666a16 16 0 0 0 16 -16V32A16 16 0 0 0 234.66666666666666 16Zm-93.33333333333333 96.64V117.33333333333333a8 8 0 0 1 -16 0v-4.693333333333333A22.186666666666667 22.186666666666667 0 0 1 138.66666666666666 92.26666666666667a13.333333333333332 13.333333333333332 0 1 0 -18.666666666666664 -12.266666666666666 8 8 0 0 1 -16 0A29.333333333333332 29.333333333333332 0 1 1 145.06666666666666 106.66666666666666a6.186666666666666 6.186666666666666 0 0 0 -3.733333333333333 5.973333333333334Zm2.6666666666666665 31.36a10.666666666666666 10.666666666666666 0 1 1 -10.666666666666666 -10.666666666666666 10.666666666666666 10.666666666666666 0 0 1 10.666666666666666 10.666666666666666Z"/></svg>