<svg xmlns="http://www.w3.org/2000/svg" id="Meta-Logo--Streamline-Ultimate" width="256" height="256" fill="none" viewBox="0 0 256 256"><desc>Meta Logo Streamline Icon: https://streamlinehq.com</desc><path fill="#fff" fill-rule="evenodd" stroke-width="10.667" d="M20.75733333333333 76.14933333333333C32.42666666666666 59.434666666666665 48.55466666666666 48 64 48c17.642666666666663 0 33.23733333333333 11.52 46.272 24.885333333333335 13.386666666666665 13.717333333333332 26.314666666666668 31.754666666666665 38.37866666666666 49.00266666666667l4.042666666666666 5.770666666666667c10.773333333333333 15.466666666666665 20.863999999999997 29.90933333333333 30.560000000000002 40.98133333333333 5.418666666666667 6.186666666666666 10.346666666666666 10.879999999999999 14.794666666666666 13.973333333333333 4.4799999999999995 3.1039999999999996 7.712 4.053333333333333 9.952 4.053333333333333 7.296 0 13.578666666666665 -2.9013333333333335 18.24 -8.586666666666666 4.789333333333333 -5.834666666666667 8.426666666666666 -15.36 8.426666666666666 -29.215999999999998 0 -26.666666666666664 -7.541333333333332 -47.06133333333333 -16.927999999999997 -60.512C207.94666666666666 74.304 197.44 69.33333333333333 192 69.33333333333333c-8.362666666666666 0 -18.496 5.706666666666667 -30.709333333333333 18.133333333333333a10.666666666666666 10.666666666666666 0 1 1 -15.221333333333334 -14.933333333333332C159.01866666666666 59.33866666666666 174.50666666666666 48 192 48c15.445333333333332 0 31.583999999999996 11.434666666666667 43.242666666666665 28.14933333333333C247.30666666666664 93.44 256 118.15466666666666 256 148.86399999999998c0 17.450666666666663 -4.586666666666666 32.17066666666666 -13.258666666666667 42.74133333333333A44.117333333333335 44.117333333333335 0 0 1 208 208c-8.202666666666666 0 -15.658666666666665 -3.381333333333333 -22.112 -7.861333333333333 -6.485333333333333 -4.490666666666666 -12.725333333333333 -10.634666666666666 -18.688 -17.439999999999998 -10.527999999999999 -12.031999999999998 -21.333333333333332 -27.530666666666665 -31.97866666666667 -42.79466666666666l-4.053333333333333 -5.792c-12.192 -17.418666666666667 -24.170666666666666 -34.048 -36.16 -46.32533333333333C82.66666666666666 75.14666666666666 72.448 69.33333333333333 64 69.33333333333333c-5.429333333333333 0 -15.946666666666667 4.970666666666666 -25.749333333333333 19.018666666666665C28.863999999999997 101.80266666666667 21.333333333333332 122.18666666666667 21.333333333333332 148.87466666666666c0 13.845333333333333 3.6373333333333333 23.36 8.426666666666666 29.205333333333332a22.794666666666664 22.794666666666664 0 0 0 18.24 8.586666666666666c4.1066666666666665 0 10.570666666666666 -3.1679999999999997 19.861333333333334 -12.714666666666666 8.842666666666666 -9.088 18.218666666666664 -21.759999999999998 28.319999999999997 -36.096a10.666666666666666 10.666666666666666 0 0 1 17.439999999999998 12.287999999999998c-10.047999999999998 14.261333333333333 -20.30933333333333 28.245333333333335 -30.474666666666668 38.687999999999995 -9.706666666666667 9.973333333333333 -21.621333333333332 19.168 -35.14666666666666 19.168a44.117333333333335 44.117333333333335 0 0 1 -34.74133333333333 -16.394666666666666C4.586666666666666 181.03466666666668 0 166.32533333333333 0 148.86399999999998 0 118.16533333333332 8.693333333333332 93.44 20.75733333333333 76.16Z" clip-rule="evenodd"/></svg>