<svg xmlns="http://www.w3.org/2000/svg" id="Microsoft-Onedrive-Logo-2--Streamline-Ultimate" width="256" height="256" viewBox="0 0 256 256"><desc>Microsoft Onedrive Logo 2 Streamline Icon: https://streamlinehq.com</desc><g id="Microsoft-Onedrive-Logo-2--Streamline-Ultimate.svg"><path fill="#fff" stroke-width="10.667" d="M232.14613333333332 144.64746666666667c-0.13333333333333333 -29.2928 -31.927466666666664 -47.45706666666666 -57.229866666666666 -32.6944 -0.8512 0.49706666666666666 -1.6831999999999998 1.0261333333333331 -2.4938666666666665 1.5882666666666667 -20.3808 -26.314666666666668 -61.605333333333334 -20.697599999999998 -74.20373333333333 10.109866666666665 -1.1413333333333333 2.7893333333333334 -1.9871999999999999 5.691733333333333 -2.5248 8.657066666666665 -29.372799999999998 0.7584 -46.909866666666666 33.02933333333333 -31.56693333333333 58.08853333333333 7.121066666666666 11.629866666666667 19.905066666666666 18.577066666666667 33.53706666666666 18.225066666666663h122.03946666666667c25.457066666666666 0.5055999999999999 41.91466666666666 -26.735999999999997 29.624533333333332 -49.03573333333333 -3.7792 -6.855466666666667 -9.867733333333334 -12.149333333333333 -17.181866666666664 -14.938666666666666Z"/><path fill="#fff" stroke-width="10.667" d="M80.24533333333332 88.55253333333333c5.4581333333333335 -0.06826666666666667 10.785066666666667 1.6831999999999998 15.138133333333332 4.9770666666666665 2.046933333333333 1.5381333333333331 4.708266666666667 2.0010666666666665 7.154133333333332 1.2448 2.4512 -0.7498666666666667 4.385066666666667 -2.6453333333333333 5.183999999999999 -5.080533333333333 8.830933333333332 -27.847466666666666 44.495999999999995 -35.69173333333333 64.19626666666666 -14.120533333333334 3.36 3.678933333333333 5.962666666666667 7.984 7.658666666666666 12.6688 1.5850666666666666 5.7728 8.824533333333333 7.665066666666666 13.031466666666667 3.4058666666666664 2.2399999999999998 -2.267733333333333 2.8693333333333335 -5.672533333333334 1.5882666666666667 -8.590933333333332 -13.709866666666667 -38.83626666666666 -64.32213333333333 -48.26773333333333 -91.10079999999999 -16.974933333333333 -2.6314666666666664 3.0751999999999997 -4.9056 6.439466666666666 -6.778666666666666 10.027733333333334 -5.086933333333333 -2.130133333333333 -10.557866666666666 -3.1882666666666664 -16.071466666666666 -3.1104000000000003 -22.465066666666665 -0.0010666666666666667 -40.69226666666667 18.180266666666665 -40.748799999999996 40.64533333333333C10.043733333333332 114.68266666666666 -7.241599999999999 147.2149333333333 8.384 172.20266666666663c7.251199999999999 11.596799999999998 20.138666666666666 18.4448 33.808 17.962666666666664 5.986133333333333 -0.022399999999999996 9.703466666666666 -6.516266666666667 6.691199999999999 -11.6896 -1.3877333333333333 -2.382933333333333 -3.933866666666667 -3.8528000000000002 -6.691199999999999 -3.8634666666666666 -17.439999999999998 -1.1808 -27.06133333333333 -20.79893333333333 -17.318399999999997 -35.312 3.9146666666666663 -5.832533333333332 10.309333333333333 -9.524266666666666 17.318399999999997 -9.998933333333333 1.5168 -0.15786666666666666 3.045333333333333 -0.15786666666666666 4.562133333333334 0 2.6336 0.5824 5.380266666666666 -0.24213333333333334 7.258666666666667 -2.1770666666666667 1.7546666666666666 -1.936 2.4522666666666666 -4.608 1.8656 -7.154133333333332 -0.5365333333333333 -2.066133333333333 -0.8149333333333333 -4.190933333333334 -0.8288 -6.325333333333333 0.05653333333333333 -13.8752 11.320533333333332 -25.092266666666664 25.19573333333333 -25.092266666666664Z"/></g></svg>