<svg xmlns="http://www.w3.org/2000/svg" id="Microphone-1--Streamline-Ultimate" width="256" height="256" viewBox="0 0 256 256"><desc>Microphone 1 Streamline Icon: https://streamlinehq.com</desc><g id="Microphone-1--Streamline-Ultimate.svg"><path fill="#fff" stroke-width="10.667" d="M144 202.66666666666666h-32a5.333333333333333 5.333333333333333 0 0 0 -5.333333333333333 5.973333333333334l4.8 37.97333333333333a10.666666666666666 10.666666666666666 0 0 0 10.666666666666666 9.386666666666667h11.946666666666667a10.666666666666666 10.666666666666666 0 0 0 10.666666666666666 -9.386666666666667l4.586666666666666 -37.97333333333333a5.333333333333333 5.333333333333333 0 0 0 -5.333333333333333 -5.973333333333334Z"/><path fill="#fff" stroke-width="10.667" d="M173.33333333333331 90.66666666666666a2.6666666666666665 2.6666666666666665 0 0 0 2.6666666666666665 -2.6666666666666665V26.666666666666664A21.333333333333332 21.333333333333332 0 0 0 161.92 6.613333333333333 105.70666666666666 105.70666666666666 0 0 0 128 0a105.70666666666666 105.70666666666666 0 0 0 -33.92 6.613333333333333A21.333333333333332 21.333333333333332 0 0 0 80 26.666666666666664v61.33333333333333a2.6666666666666665 2.6666666666666665 0 0 0 2.6666666666666665 2.6666666666666665Z"/><path fill="#fff" stroke-width="10.667" d="M141.33333333333331 106.66666666666666a2.6666666666666665 2.6666666666666665 0 0 0 -2.6666666666666665 2.6666666666666665V138.66666666666666a10.666666666666666 10.666666666666666 0 0 1 -21.333333333333332 0v-29.333333333333332a2.6666666666666665 2.6666666666666665 0 0 0 -2.6666666666666665 -2.6666666666666665h-32a2.6666666666666665 2.6666666666666665 0 0 0 -2.6666666666666665 2.6666666666666665V149.33333333333331a20.586666666666666 20.586666666666666 0 0 0 4.4799999999999995 12.799999999999999l14.719999999999999 18.346666666666664a16.21333333333333 16.21333333333333 0 0 0 12.799999999999999 6.186666666666666h32a16.21333333333333 16.21333333333333 0 0 0 12.799999999999999 -6.186666666666666l14.719999999999999 -18.346666666666664a20.586666666666666 20.586666666666666 0 0 0 4.4799999999999995 -12.799999999999999v-40a2.6666666666666665 2.6666666666666665 0 0 0 -2.6666666666666665 -2.6666666666666665Z"/></g></svg>