<svg xmlns="http://www.w3.org/2000/svg" viewBox="0 0 256 256" id="Microchip-Board--Streamline-Ultimate" height="256" width="256">
  <desc>
    Microchip Board Streamline Icon: https://streamlinehq.com
  </desc>
  <g id="Microchip-Board--Streamline-Ultimate.svg">
    <path d="M240 0h-224A16 16 0 0 0 0 16v224A16 16 0 0 0 16 256h224a16 16 0 0 0 16 -16v-224A16 16 0 0 0 240 0ZM40 26.666666666666664h64a8 8 0 0 1 0 16h-64a8 8 0 0 1 0 -16Zm72 72V106.66666666666666a5.333333333333333 5.333333333333333 0 0 1 -10.666666666666666 0v-8a5.333333333333333 5.333333333333333 0 0 1 10.666666666666666 0Zm-32 0V106.66666666666666a5.333333333333333 5.333333333333333 0 0 1 -10.666666666666666 0v-8a5.333333333333333 5.333333333333333 0 0 1 10.666666666666666 0ZM42.666666666666664 178.66666666666666h-8a5.333333333333333 5.333333333333333 0 0 1 0 -10.666666666666666H42.666666666666664a5.333333333333333 5.333333333333333 0 0 1 0 10.666666666666666Zm0 -32h-8a5.333333333333333 5.333333333333333 0 0 1 0 -10.666666666666666H42.666666666666664a5.333333333333333 5.333333333333333 0 0 1 0 10.666666666666666Zm37.33333333333333 69.33333333333333a5.333333333333333 5.333333333333333 0 0 1 -10.666666666666666 0v-8a5.333333333333333 5.333333333333333 0 0 1 10.666666666666666 0Zm32 0a5.333333333333333 5.333333333333333 0 0 1 -10.666666666666666 0v-8a5.333333333333333 5.333333333333333 0 0 1 10.666666666666666 0Zm10.666666666666666 -29.333333333333332a5.333333333333333 5.333333333333333 0 0 1 -5.333333333333333 5.333333333333333H64a5.333333333333333 5.333333333333333 0 0 1 -5.333333333333333 -5.333333333333333V128a5.333333333333333 5.333333333333333 0 0 1 5.333333333333333 -5.333333333333333h53.33333333333333a5.333333333333333 5.333333333333333 0 0 1 5.333333333333333 5.333333333333333Zm24 -8H138.66666666666666a5.333333333333333 5.333333333333333 0 0 1 0 -10.666666666666666h8a5.333333333333333 5.333333333333333 0 0 1 0 10.666666666666666Zm0 -32H138.66666666666666a5.333333333333333 5.333333333333333 0 0 1 0 -10.666666666666666h8a5.333333333333333 5.333333333333333 0 0 1 0 10.666666666666666ZM192 208a10.666666666666666 10.666666666666666 0 1 1 10.666666666666666 -10.666666666666666 10.666666666666666 10.666666666666666 0 0 1 -10.666666666666666 10.666666666666666Zm0 -37.33333333333333a10.666666666666666 10.666666666666666 0 1 1 10.666666666666666 -10.666666666666666 10.666666666666666 10.666666666666666 0 0 1 -10.666666666666666 10.666666666666666Zm0 -37.33333333333333a10.666666666666666 10.666666666666666 0 1 1 10.666666666666666 -10.666666666666666 10.666666666666666 10.666666666666666 0 0 1 -10.666666666666666 10.666666666666666Zm24 -53.33333333333333h-37.33333333333333a8 8 0 0 1 0 -16h37.33333333333333a8 8 0 0 1 0 16Zm0 -37.33333333333333h-64a8 8 0 0 1 0 -16h64a8 8 0 0 1 0 16Z" fill="#ffffff" stroke-width="10.6667"></path>
    <path d="M74.66666666666666 138.66666666666666h32v37.33333333333333H74.66666666666666Z" fill="#ffffff" stroke-width="10.6667"></path>
  </g>
</svg>