<svg xmlns="http://www.w3.org/2000/svg" id="Microsoft-Excel-Logo--Streamline-Ultimate" width="256" height="256" viewBox="0 0 256 256"><desc>Microsoft Excel Logo Streamline Icon: https://streamlinehq.com</desc><g id="Microsoft-Excel-Logo--Streamline-Ultimate.svg"><path fill="#fff" stroke-width="10.667" d="M245.33333333333331 21.333333333333332H90.66666666666666a10.666666666666666 10.666666666666666 0 0 0 -10.666666666666666 10.666666666666666v16h21.333333333333332V42.666666666666664h53.33333333333333v36.05333333333333h-10.666666666666666l0 1.2799999999999998v19.306666666666665h10.666666666666666v36.05333333333333h-10.666666666666666v20.586666666666666h10.666666666666666V192h-15.146666666666665a32 32 0 0 1 -27.52 16h-32V224a10.666666666666666 10.666666666666666 0 0 0 10.666666666666666 10.666666666666666H245.33333333333331a10.666666666666666 10.666666666666666 0 0 0 10.666666666666666 -10.666666666666666V32a10.666666666666666 10.666666666666666 0 0 0 -10.666666666666666 -10.666666666666666Zm-10.666666666666666 170.66666666666666h-53.33333333333333v-36.05333333333333h53.33333333333333Zm0 -56.63999999999999h-53.33333333333333V99.30666666666667h53.33333333333333Zm0 -56.63999999999999h-53.33333333333333V42.666666666666664h53.33333333333333Z"/><path fill="#fff" stroke-width="10.667" d="M101.33333333333333 192h10.666666666666666a16 16 0 0 0 16 -16v-96A16 16 0 0 0 112 64h-96A16 16 0 0 0 0 80v96A16 16 0 0 0 16 192ZM50.13333333333333 90.66666666666666 64 112.85333333333332 77.86666666666666 90.66666666666666h18.88L73.38666666666666 128l23.36 37.33333333333333H77.86666666666666L64 143.14666666666665 50.13333333333333 165.33333333333331H31.253333333333334L54.61333333333333 128 31.253333333333334 90.66666666666666Z"/></g></svg>