<svg xmlns="http://www.w3.org/2000/svg" id="Mist-Sun--Streamline-Ultimate" width="256" height="256" fill="none" viewBox="0 0 256 256"><desc>Mist Sun Streamline Icon: https://streamlinehq.com</desc><path fill="#fff" fill-rule="evenodd" stroke-width="10.667" d="M117.33333333333333 10.666666666666666c0 -5.89104 -4.7754666666666665 -10.666666666666666 -10.666666666666666 -10.666666666666666 -5.891093333333332 0 -10.666666666666666 4.775626666666666 -10.666666666666666 10.666666666666666v20.266666666666666c0 5.890986666666667 4.775573333333333 10.666666666666666 10.666666666666666 10.666666666666666 5.8911999999999995 0 10.666666666666666 -4.7756799999999995 10.666666666666666 -10.666666666666666V10.666666666666666Zm45.86666666666666 94.93333333333334c0 6.950399999999999 -1.2789333333333333 13.602133333333331 -3.6128 19.733333333333334H55.87967999999999C53.54506666666666 119.20213333333334 52.266666666666666 112.5504 52.266666666666666 105.6c0 -30.633386666666667 24.833280000000002 -55.46666666666667 55.46666666666667 -55.46666666666667 30.6336 0 55.46666666666667 24.833280000000002 55.46666666666667 55.46666666666667Zm19.27573333333333 -74.7424c4.165333333333333 4.165546666666666 4.165333333333333 10.91936 0 15.084906666666665l-14.933333333333332 14.933333333333332c-4.165333333333333 4.165653333333333 -10.919466666666667 4.165653333333333 -15.084799999999998 0 -4.165333333333333 -4.165546666666666 -4.165333333333333 -10.91936 0 -15.084906666666665l14.933333333333332 -14.933333333333332c4.165333333333333 -4.165546666666666 10.919466666666667 -4.165546666666666 15.084799999999998 0ZM182.4 96c-5.8911999999999995 0 -10.666666666666666 4.775573333333333 -10.666666666666666 10.666666666666666 0 5.8911999999999995 4.7754666666666665 10.666666666666666 10.666666666666666 10.666666666666666H202.66666666666666c5.8911999999999995 0 10.666666666666666 -4.7754666666666665 10.666666666666666 -10.666666666666666 0 -5.891093333333332 -4.7754666666666665 -10.666666666666666 -10.666666666666666 -10.666666666666666h-20.266666666666666ZM0 106.66666666666666c0 -5.891093333333332 4.775626666666666 -10.666666666666666 10.666666666666666 -10.666666666666666h20.266666666666666c5.890986666666667 0 10.666666666666666 4.775573333333333 10.666666666666666 10.666666666666666 0 5.8911999999999995 -4.7756799999999995 10.666666666666666 -10.666666666666666 10.666666666666666H10.666666666666666c-5.89104 0 -10.666666666666666 -4.7754666666666665 -10.666666666666666 -10.666666666666666Zm45.94250666666666 -75.80906666666667c-4.165653333333333 -4.165546666666666 -10.91936 -4.165546666666666 -15.085013333333332 0 -4.165546666666666 4.165546666666666 -4.165546666666666 10.91936 0 15.084906666666665l14.933333333333332 14.933333333333332c4.165653333333333 4.165653333333333 10.91936 4.165653333333333 15.085013333333332 0 4.165546666666666 -4.165546666666666 4.165546666666666 -10.91936 0 -15.084906666666665l-14.933333333333332 -14.933333333333332ZM87.46666666666665 149.33333333333331c0 -5.8911999999999995 4.775573333333333 -10.666666666666666 10.666666666666666 -10.666666666666666H245.33333333333331c5.8911999999999995 0 10.666666666666666 4.7754666666666665 10.666666666666666 10.666666666666666s-4.7754666666666665 10.666666666666666 -10.666666666666666 10.666666666666666H98.13333333333333c-5.891093333333332 0 -10.666666666666666 -4.7754666666666665 -10.666666666666666 -10.666666666666666Zm-39.46666666666667 64c0 -5.8911999999999995 4.7756799999999995 -10.666666666666666 10.666666666666666 -10.666666666666666H245.33333333333331c5.8911999999999995 0 10.666666666666666 4.7754666666666665 10.666666666666666 10.666666666666666s-4.7754666666666665 10.666666666666666 -10.666666666666666 10.666666666666666H58.666666666666664c-5.890986666666667 0 -10.666666666666666 -4.7754666666666665 -10.666666666666666 -10.666666666666666Zm-36.266666666666666 -42.666666666666664c-5.891050666666667 0 -10.666682666666667 4.7754666666666665 -10.666682666666667 10.666666666666666S5.842282666666667 192 11.733333333333334 192h186.66666666666666c5.8911999999999995 0 10.666666666666666 -4.7754666666666665 10.666666666666666 -10.666666666666666s-4.7754666666666665 -10.666666666666666 -10.666666666666666 -10.666666666666666H11.733333333333334ZM1.0666506666666666 245.33333333333331c0 -5.8911999999999995 4.775632 -10.666666666666666 10.666682666666667 -10.666666666666666h186.66666666666666c5.8911999999999995 0 10.666666666666666 4.7754666666666665 10.666666666666666 10.666666666666666s-4.7754666666666665 10.666666666666666 -10.666666666666666 10.666666666666666H11.733333333333334c-5.891050666666667 0 -10.666682666666667 -4.7754666666666665 -10.666682666666667 -10.666666666666666Z" clip-rule="evenodd"/></svg>