<svg xmlns="http://www.w3.org/2000/svg" viewBox="0 0 256 256" id="Mobile-Phone-Blackberry-2--Streamline-Ultimate" height="256" width="256">
  <desc>
    Mobile Phone Blackberry 2 Streamline Icon: https://streamlinehq.com
  </desc>
  <path d="M202.66666666666666 0H53.33333333333333a26.666666666666664 26.666666666666664 0 0 0 -26.666666666666664 26.666666666666664v202.66666666666666A26.666666666666664 26.666666666666664 0 0 0 53.33333333333333 256h149.33333333333331a26.666666666666664 26.666666666666664 0 0 0 26.666666666666664 -26.666666666666664v-202.66666666666666A26.666666666666664 26.666666666666664 0 0 0 202.66666666666666 0Zm5.333333333333333 128a10.666666666666666 10.666666666666666 0 0 1 -10.666666666666666 10.666666666666666h-138.66666666666666a10.666666666666666 10.666666666666666 0 0 1 -10.666666666666666 -10.666666666666666V32a10.666666666666666 10.666666666666666 0 0 1 10.666666666666666 -10.666666666666666h138.66666666666666a10.666666666666666 10.666666666666666 0 0 1 10.666666666666666 10.666666666666666Zm-32 58.666666666666664a10.666666666666666 10.666666666666666 0 1 1 10.666666666666666 -10.666666666666666 10.666666666666666 10.666666666666666 0 0 1 -10.666666666666666 10.666666666666666Zm10.666666666666666 26.666666666666664a10.666666666666666 10.666666666666666 0 1 1 -10.666666666666666 -10.666666666666666 10.666666666666666 10.666666666666666 0 0 1 10.666666666666666 10.666666666666666ZM128 186.66666666666666a10.666666666666666 10.666666666666666 0 1 1 10.666666666666666 -10.666666666666666 10.666666666666666 10.666666666666666 0 0 1 -10.666666666666666 10.666666666666666Zm10.666666666666666 26.666666666666664a10.666666666666666 10.666666666666666 0 1 1 -10.666666666666666 -10.666666666666666 10.666666666666666 10.666666666666666 0 0 1 10.666666666666666 10.666666666666666Zm-58.666666666666664 -26.666666666666664a10.666666666666666 10.666666666666666 0 1 1 10.666666666666666 -10.666666666666666 10.666666666666666 10.666666666666666 0 0 1 -10.666666666666666 10.666666666666666Zm10.666666666666666 26.666666666666664a10.666666666666666 10.666666666666666 0 1 1 -10.666666666666666 -10.666666666666666 10.666666666666666 10.666666666666666 0 0 1 10.666666666666666 10.666666666666666Z" fill="#ffffff" stroke-width="10.6667"></path>
</svg>