<svg xmlns="http://www.w3.org/2000/svg" viewBox="0 0 256 256" id="Mobile-Shopping-Cart-Exchange--Streamline-Ultimate" height="256" width="256">
  <desc>
    Mobile Shopping Cart Exchange Streamline Icon: https://streamlinehq.com
  </desc>
  <g id="Mobile-Shopping-Cart-Exchange--Streamline-Ultimate.svg">
    <path d="m104.42666666666665 217.38666666666666 -32 -21.333333333333332a8 8 0 0 0 -12.373333333333331 6.613333333333333v1.8133333333333335a2.6666666666666665 2.6666666666666665 0 0 1 -4.053333333333333 2.2399999999999998A42.666666666666664 42.666666666666664 0 0 1 36.05333333333333 170.66666666666666a10.666666666666666 10.666666666666666 0 0 0 -21.333333333333332 0 64 64 0 0 0 43.519999999999996 60.58666666666666 2.7733333333333334 2.7733333333333334 0 0 1 1.8133333333333335 2.5599999999999996V245.33333333333331a8.106666666666666 8.106666666666666 0 0 0 8 8 7.68 7.68 0 0 0 4.4799999999999995 -1.3866666666666667l32 -21.333333333333332a8 8 0 0 0 0 -13.226666666666667Z" fill="#ffffff" stroke-width="10.6667"></path>
    <path d="m160 38.72 32 21.333333333333332a8 8 0 0 0 4.373333333333333 1.2799999999999998 8.533333333333333 8.533333333333333 0 0 0 3.84 -0.96 8 8 0 0 0 3.84 -7.04v-1.8133333333333335a2.6666666666666665 2.6666666666666665 0 0 1 4.053333333333333 -2.2399999999999998A42.666666666666664 42.666666666666664 0 0 1 228.0533333333333 85.33333333333333a10.666666666666666 10.666666666666666 0 0 0 21.333333333333332 0 64 64 0 0 0 -43.519999999999996 -60.58666666666666 2.7733333333333334 2.7733333333333334 0 0 1 -1.8133333333333335 -2.5599999999999996V10.666666666666666a8 8 0 0 0 -4.16 -7.04 7.893333333333333 7.893333333333333 0 0 0 -8.213333333333333 0l-32 21.333333333333332a7.786666666666666 7.786666666666666 0 0 0 -3.626666666666667 6.613333333333333 8.213333333333333 8.213333333333333 0 0 0 3.9466666666666663 7.1466666666666665Z" fill="#ffffff" stroke-width="10.6667"></path>
    <path d="M67.84 117.33333333333333a10.666666666666666 10.666666666666666 0 1 0 21.333333333333332 0 10.666666666666666 10.666666666666666 0 1 0 -21.333333333333332 0" fill="#ffffff" stroke-width="10.6667"></path>
    <path d="M25.173333333333332 117.33333333333333a10.666666666666666 10.666666666666666 0 1 0 21.333333333333332 0 10.666666666666666 10.666666666666666 0 1 0 -21.333333333333332 0" fill="#ffffff" stroke-width="10.6667"></path>
    <path d="M113.17333333333332 3.093333333333333a8 8 0 0 0 -10.133333333333333 5.013333333333333l-6.506666666666666 19.413333333333334a2.6666666666666665 2.6666666666666665 0 0 1 -2.453333333333333 1.8133333333333335H14.613333333333333a7.893333333333333 7.893333333333333 0 0 0 -6.3999999999999995 3.1999999999999997 8.106666666666666 8.106666666666666 0 0 0 -1.2799999999999998 7.1466666666666665l16 53.33333333333333a8.106666666666666 8.106666666666666 0 0 0 7.68 5.653333333333333h53.33333333333333a8 8 0 0 0 7.573333333333332 -5.4399999999999995l26.666666666666664 -80a8 8 0 0 0 -5.013333333333333 -10.133333333333333Z" fill="#ffffff" stroke-width="10.6667"></path>
    <path d="M227.94666666666666 104h-53.33333333333333a18.773333333333333 18.773333333333333 0 0 0 -18.666666666666664 18.666666666666664V234.66666666666666a18.026666666666664 18.026666666666664 0 0 0 17.386666666666663 18.666666666666664h56A18.026666666666664 18.026666666666664 0 0 0 246.61333333333334 234.66666666666666V122.66666666666666a18.773333333333333 18.773333333333333 0 0 0 -18.666666666666664 -18.666666666666664Zm-26.666666666666664 138.66666666666666a8 8 0 1 1 8 -8 8.106666666666666 8.106666666666666 0 0 1 -8 8Zm-26.666666666666664 -122.66666666666666h53.33333333333333a2.6666666666666665 2.6666666666666665 0 0 1 2.6666666666666665 2.6666666666666665V213.33333333333331a2.6666666666666665 2.6666666666666665 0 0 1 -2.6666666666666665 2.6666666666666665h-53.33333333333333a2.6666666666666665 2.6666666666666665 0 0 1 -2.6666666666666665 -2.6666666666666665v-90.66666666666666a2.6666666666666665 2.6666666666666665 0 0 1 2.6666666666666665 -2.6666666666666665Z" fill="#ffffff" stroke-width="10.6667"></path>
  </g>
</svg>