<svg xmlns="http://www.w3.org/2000/svg" id="Modern-Music-Electric-Guitar--Streamline-Ultimate" width="256" height="256" viewBox="0 0 256 256"><desc>Modern Music Electric Guitar Streamline Icon: https://streamlinehq.com</desc><path fill="#fff" stroke-width="10.667" d="M251.51999999999998 12.586666666666666a15.04 15.04 0 0 0 -15.573333333333332 -3.626666666666667l-48.42666666666666 16.106666666666666a15.466666666666665 15.466666666666665 0 0 0 -6.293333333333333 3.9466666666666663l-2.0266666666666664 1.92a16.21333333333333 16.21333333333333 0 0 0 -4.693333333333333 11.733333333333334 16.85333333333333 16.85333333333333 0 0 0 1.5999999999999999 6.826666666666666l-45.22666666666667 44.906666666666666a14.506666666666668 14.506666666666668 0 0 1 -9.066666666666666 -5.973333333333334 18.986666666666665 18.986666666666665 0 0 1 0 -15.253333333333332 15.893333333333333 15.893333333333333 0 0 0 -6.933333333333334 -18.346666666666664 19.84 19.84 0 0 0 -24.64 5.013333333333333 62.50666666666667 62.50666666666667 0 0 0 -19.093333333333334 38.82666666666667 5.333333333333333 5.333333333333333 0 0 1 -4.906666666666666 4.8 69.33333333333333 69.33333333333333 0 0 0 -62.61333333333333 41.92c-9.173333333333332 24.426666666666666 -0.7466666666666667 52.16 23.04 75.94666666666666a80.53333333333333 80.53333333333333 0 0 0 55.67999999999999 26.560000000000002 56.53333333333333 56.53333333333333 0 0 0 20.05333333333333 -3.626666666666667 70.18666666666667 70.18666666666667 0 0 0 42.666666666666664 -62.39999999999999 5.226666666666667 5.226666666666667 0 0 1 4.8 -5.013333333333333 61.76 61.76 0 0 0 38.82666666666667 -18.986666666666665 19.946666666666665 19.946666666666665 0 0 0 5.013333333333333 -24.53333333333333 15.68 15.68 0 0 0 -18.346666666666664 -6.933333333333334 20.159999999999997 20.159999999999997 0 0 1 -15.36 0 14.613333333333333 14.613333333333333 0 0 1 -6.079999999999999 -9.066666666666666l45.33333333333333 -45.22666666666667a15.786666666666665 15.786666666666665 0 0 0 18.133333333333333 -3.093333333333333l34.56 -34.56a15.36 15.36 0 0 0 -0.42666666666666664 -21.866666666666664ZM88.53333333333333 204.79999999999998l-3.84 3.84a16 16 0 0 1 -22.613333333333333 0l-22.72 -22.72a15.893333333333333 15.893333333333333 0 0 1 0 -22.613333333333333l3.84 -3.3066666666666666a16.106666666666666 16.106666666666666 0 0 1 22.613333333333333 0l22.72 22.186666666666667a16.106666666666666 16.106666666666666 0 0 1 0 22.613333333333333Zm20.266666666666666 -32a8 8 0 0 1 -11.306666666666667 0L74.66666666666666 150.50666666666666a8 8 0 0 1 0 -11.306666666666667 7.893333333333333 7.893333333333333 0 0 1 11.306666666666667 0l22.72 22.613333333333333a8 8 0 0 1 0.10666666666666666 11.306666666666667Z"/></svg>