<svg xmlns="http://www.w3.org/2000/svg" id="Modern-Tv-Curvy-Edge--Streamline-Ultimate" width="256" height="256" viewBox="0 0 256 256"><desc>Modern Tv Curvy Edge Streamline Icon: https://streamlinehq.com</desc><path fill="#fff" stroke-width="10.667" d="M256 38.82666666666667a18.986666666666665 18.986666666666665 0 0 0 -5.973333333333334 -13.653333333333332 18.56 18.56 0 0 0 -14.186666666666667 -4.906666666666666 1211.7333333333331 1211.7333333333331 0 0 1 -215.57333333333332 0 18.453333333333333 18.453333333333333 0 0 0 -14.293333333333333 4.906666666666666A18.986666666666665 18.986666666666665 0 0 0 0 38.82666666666667v132.48a18.986666666666665 18.986666666666665 0 0 0 5.973333333333334 13.653333333333332 18.88 18.88 0 0 0 14.186666666666667 4.906666666666666c33.92 -2.6666666666666665 60.58666666666666 -4.266666666666667 89.06666666666666 -4.693333333333333a5.119999999999999 5.119999999999999 0 0 1 3.84 1.5999999999999999 5.013333333333333 5.013333333333333 0 0 1 1.5999999999999999 3.733333333333333v13.333333333333332a5.333333333333333 5.333333333333333 0 0 1 -5.333333333333333 5.333333333333333H74.66666666666666a13.333333333333332 13.333333333333332 0 0 0 0 26.666666666666664h106.66666666666666a13.333333333333332 13.333333333333332 0 0 0 0 -26.666666666666664h-34.666666666666664a5.333333333333333 5.333333333333333 0 0 1 -5.333333333333333 -5.333333333333333v-13.333333333333332a5.013333333333333 5.013333333333333 0 0 1 1.5999999999999999 -3.733333333333333 5.119999999999999 5.119999999999999 0 0 1 3.84 -1.5999999999999999c28.479999999999997 0 55.25333333333333 2.0266666666666664 89.06666666666666 4.693333333333333A18.666666666666664 18.666666666666664 0 0 0 256 171.30666666666664Zm-26.666666666666664 118.08a5.119999999999999 5.119999999999999 0 0 1 -1.7066666666666666 3.84 5.226666666666667 5.226666666666667 0 0 1 -4.053333333333333 1.4933333333333334 1190.5066666666667 1190.5066666666667 0 0 0 -191.57333333333332 0 5.226666666666667 5.226666666666667 0 0 1 -4.053333333333333 -1.4933333333333334 5.119999999999999 5.119999999999999 0 0 1 -1.7066666666666666 -3.84V53.33333333333333a5.119999999999999 5.119999999999999 0 0 1 1.7066666666666666 -3.84 5.226666666666667 5.226666666666667 0 0 1 4.053333333333333 -1.5999999999999999 1191.1466666666665 1191.1466666666665 0 0 0 192 0 5.226666666666667 5.226666666666667 0 0 1 4.053333333333333 1.4933333333333334 5.119999999999999 5.119999999999999 0 0 1 1.2799999999999998 3.9466666666666663Z"/></svg>