<svg xmlns="http://www.w3.org/2000/svg" viewBox="0 0 256 256" id="Modern-Music-Dj--Streamline-Ultimate" height="256" width="256">
  <desc>
    Modern Music Dj Streamline Icon: https://streamlinehq.com
  </desc>
  <g id="Modern-Music-Dj--Streamline-Ultimate.svg">
    <path d="M88 82.66666666666666a40 40 0 1 0 80 0 40 40 0 1 0 -80 0" fill="#ffffff" stroke-width="10.6667"></path>
    <path d="M68.8 122.66666666666666a10.666666666666666 10.666666666666666 0 0 0 10.666666666666666 -10.666666666666666v-42.666666666666664a48 48 0 0 1 96 0v42.666666666666664a10.666666666666666 10.666666666666666 0 0 0 11.2 10.666666666666666 32 32 0 0 0 9.6 -62.39999999999999 69.33333333333333 69.33333333333333 0 0 0 -137.49333333333334 0 32 32 0 0 0 9.493333333333332 62.39999999999999Z" fill="#ffffff" stroke-width="10.6667"></path>
    <path d="M61.33333333333333 184a26.666666666666664 21.333333333333332 0 1 0 53.33333333333333 0 26.666666666666664 21.333333333333332 0 1 0 -53.33333333333333 0" fill="#ffffff" stroke-width="10.6667"></path>
    <path d="M141.33333333333331 184a26.666666666666664 21.333333333333332 0 1 0 53.33333333333333 0 26.666666666666664 21.333333333333332 0 1 0 -53.33333333333333 0" fill="#ffffff" stroke-width="10.6667"></path>
    <path d="m254.4 219.2 -35.41333333333333 -73.17333333333333a21.333333333333332 21.333333333333332 0 0 0 -19.52 -12.693333333333332H55.04a21.333333333333332 21.333333333333332 0 0 0 -19.52 12.693333333333332L0.96 222.29333333333332a9.92 9.92 0 0 0 -0.96 4.266666666666667v10.666666666666666A18.773333333333333 18.773333333333333 0 0 0 18.666666666666664 256h218.45333333333332A18.88 18.88 0 0 0 256 237.33333333333331v-10.666666666666666a12.373333333333331 12.373333333333331 0 0 0 -1.5999999999999999 -7.466666666666666Zm-200.10666666666668 -62.93333333333334a2.6666666666666665 2.6666666666666665 0 0 1 2.453333333333333 -1.5999999999999999h141.01333333333332a2.6666666666666665 2.6666666666666665 0 0 1 2.453333333333333 1.5999999999999999l25.386666666666663 56a3.093333333333333 3.093333333333333 0 0 1 0 2.5599999999999996 2.7733333333333334 2.7733333333333334 0 0 1 -2.2399999999999998 1.1733333333333333h-192a2.6666666666666665 2.6666666666666665 0 0 1 -2.2399999999999998 -1.1733333333333333 2.7733333333333334 2.7733333333333334 0 0 1 0 -2.5599999999999996Z" fill="#ffffff" stroke-width="10.6667"></path>
  </g>
</svg>