<svg xmlns="http://www.w3.org/2000/svg" viewBox="0 0 256 256" id="Modern-Tv-Remote-Smart--Streamline-Ultimate" height="256" width="256">
  <desc>
    Modern Tv Remote Smart Streamline Icon: https://streamlinehq.com
  </desc>
  <path d="M160 0H96a26.666666666666664 26.666666666666664 0 0 0 -26.666666666666664 26.666666666666664v202.66666666666666A26.666666666666664 26.666666666666664 0 0 0 96 256h64a26.666666666666664 26.666666666666664 0 0 0 26.666666666666664 -26.666666666666664v-202.66666666666666A26.666666666666664 26.666666666666664 0 0 0 160 0ZM101.33333333333333 165.33333333333331A16 16 0 1 1 117.33333333333333 149.33333333333331a16 16 0 0 1 -16 16Zm16 32A16 16 0 1 1 101.33333333333333 181.33333333333331a16 16 0 0 1 16 16ZM101.33333333333333 106.66666666666666A16 16 0 1 1 117.33333333333333 90.66666666666666 16 16 0 0 1 101.33333333333333 106.66666666666666Zm8 -80a8.106666666666666 8.106666666666666 0 0 1 8 -8h21.333333333333332a8 8 0 0 1 0 16h-21.333333333333332a8.106666666666666 8.106666666666666 0 0 1 -8 -8ZM138.66666666666666 150.18666666666667a16 16 0 1 1 32 0v46.29333333333333a16 16 0 1 1 -32 0ZM154.66666666666666 106.66666666666666A16 16 0 1 1 170.66666666666666 90.66666666666666a16 16 0 0 1 -16 16Z" fill="#ffffff" stroke-width="10.6667"></path>
</svg>