<svg xmlns="http://www.w3.org/2000/svg" viewBox="0 0 256 256" id="Modern-Tv-4-K--Streamline-Ultimate" height="256" width="256">
  <desc>
    Modern Tv 4 K Streamline Icon: https://streamlinehq.com
  </desc>
  <g id="Modern-Tv-4-K--Streamline-Ultimate.svg">
    <path d="M240 0h-224A16 16 0 0 0 0 16v170.66666666666666A16 16 0 0 0 16 202.66666666666666h224a16 16 0 0 0 16 -16v-170.66666666666666A16 16 0 0 0 240 0ZM234.66666666666666 154.66666666666666a5.333333333333333 5.333333333333333 0 0 1 -5.333333333333333 5.333333333333333h-202.66666666666666a5.333333333333333 5.333333333333333 0 0 1 -5.333333333333333 -5.333333333333333v-128a5.333333333333333 5.333333333333333 0 0 1 5.333333333333333 -5.333333333333333h202.66666666666666a5.333333333333333 5.333333333333333 0 0 1 5.333333333333333 5.333333333333333Z" fill="#ffffff" stroke-width="10.6667"></path>
    <path d="M153.06666666666666 220.58666666666664a5.4399999999999995 5.4399999999999995 0 0 0 -3.733333333333333 -1.92h-42.666666666666664a5.4399999999999995 5.4399999999999995 0 0 0 -4.053333333333333 1.92l-22.4 26.986666666666665A5.333333333333333 5.333333333333333 0 0 0 85.33333333333333 256h85.33333333333333a5.333333333333333 5.333333333333333 0 0 0 4.373333333333333 -8.426666666666666Z" fill="#ffffff" stroke-width="10.6667"></path>
    <path d="M112 45.33333333333333A61.44 61.44 0 0 0 50.666666666666664 106.66666666666666v10.666666666666666a8.106666666666666 8.106666666666666 0 0 0 8 8h42.666666666666664a2.6666666666666665 2.6666666666666665 0 0 1 2.6666666666666665 2.6666666666666665v10.666666666666666a8 8 0 0 0 16 0V53.33333333333333a8.106666666666666 8.106666666666666 0 0 0 -8 -8ZM104 106.66666666666666a2.6666666666666665 2.6666666666666665 0 0 1 -2.6666666666666665 2.6666666666666665h-32a2.6666666666666665 2.6666666666666665 0 0 1 -2.6666666666666665 -2.6666666666666665 45.54666666666666 45.54666666666666 0 0 1 34.026666666666664 -43.946666666666665 2.88 2.88 0 0 1 2.2399999999999998 0 2.7733333333333334 2.7733333333333334 0 0 1 1.0666666666666667 2.1333333333333333Z" fill="#ffffff" stroke-width="10.6667"></path>
    <path d="M192 47.67999999999999a8 8 0 0 0 -11.306666666666667 0l-24.106666666666662 24.426666666666666a2.7733333333333334 2.7733333333333334 0 0 1 -2.986666666666667 0.6399999999999999 2.6666666666666665 2.6666666666666665 0 0 1 -1.5999999999999999 -2.453333333333333V53.33333333333333a8 8 0 0 0 -16 0v85.33333333333333a8 8 0 0 0 16 0v-16.96a2.6666666666666665 2.6666666666666665 0 0 1 1.5999999999999999 -2.453333333333333 2.7733333333333334 2.7733333333333334 0 0 1 2.986666666666667 0.6399999999999999L181.33333333333331 144.32a8 8 0 0 0 11.306666666666667 0 8 8 0 0 0 0 -11.306666666666667l-35.41333333333333 -35.093333333333334a2.6666666666666665 2.6666666666666665 0 0 1 0 -3.84L192 58.986666666666665a8 8 0 0 0 0 -11.306666666666667Z" fill="#ffffff" stroke-width="10.6667"></path>
  </g>
</svg>