<svg xmlns="http://www.w3.org/2000/svg" fill="none" viewBox="0 0 256 256" id="Module-Puzzle-2--Streamline-Ultimate" height="256" width="256">
  <desc>
    Module Puzzle 2 Streamline Icon: https://streamlinehq.com
  </desc>
  <path fill="#ffffff" fill-rule="evenodd" d="M134.63466666666665 2.6666666666666665a21.333333333333332 21.333333333333332 0 0 0 -15.082666666666665 6.239999999999999L91.86133333333333 36.586666666666666A45.33333333333333 45.33333333333333 0 1 0 36.586666666666666 91.87199999999999L8.917333333333332 119.54133333333334a21.333333333333332 21.333333333333332 0 0 0 0 30.176000000000002l22.506666666666664 22.464a5.333333333333333 5.333333333333333 0 0 0 8.693333333333332 -1.7066666666666666 34.666666666666664 34.666666666666664 0 1 1 45.407999999999994 45.407999999999994 5.333333333333333 5.333333333333333 0 0 0 -1.7066666666666666 8.682666666666666l22.464 22.474666666666668a21.333333333333332 21.333333333333332 0 0 0 30.176000000000002 0l27.66933333333333 -27.626666666666665a45.35466666666666 45.35466666666666 0 0 0 52.714666666666666 33.04533333333333 45.33333333333333 45.33333333333333 0 0 0 2.5706666666666664 -88.33066666666667l27.68 -27.66933333333333a21.333333333333332 21.333333333333332 0 0 0 0 -30.176000000000002l-22.528 -22.464a5.333333333333333 5.333333333333333 0 0 0 -8.682666666666666 1.7066666666666666 34.666666666666664 34.666666666666664 0 1 1 -45.407999999999994 -45.407999999999994 5.333333333333333 5.333333333333333 0 0 0 1.7066666666666666 -8.682666666666666L149.71733333333333 8.917333333333332A21.333333333333332 21.333333333333332 0 0 0 134.63466666666665 2.6666666666666665Z" clip-rule="evenodd" stroke-width="10.6667"></path>
</svg>