<svg xmlns="http://www.w3.org/2000/svg" id="Module-Hands-Puzzle--Streamline-Ultimate" width="256" height="256" viewBox="0 0 256 256"><desc>Module Hands Puzzle Streamline Icon: https://streamlinehq.com</desc><g id="Module-Hands-Puzzle--Streamline-Ultimate.svg"><path fill="#fff" stroke-width="10.667" d="M181.33333333333331 166.72a237.65333333333334 237.65333333333334 0 0 0 -16.21333333333333 41.92 1.8133333333333335 1.8133333333333335 0 0 0 0 0.7466666666666667v43.946666666666665a2.6666666666666665 2.6666666666666665 0 0 0 2.6666666666666665 2.6666666666666665h37.33333333333333a2.6666666666666665 2.6666666666666665 0 0 0 2.6666666666666665 -2.6666666666666665v-10.666666666666666a5.226666666666667 5.226666666666667 0 0 1 1.5999999999999999 -3.84l37.97333333333333 -37.65333333333333a10.666666666666666 10.666666666666666 0 0 0 3.093333333333333 -7.466666666666666V117.33333333333333a5.546666666666667 5.546666666666667 0 0 0 -2.2399999999999998 -4.373333333333333 5.333333333333333 5.333333333333333 0 0 0 -4.906666666666666 -0.6399999999999999C235.83999999999997 115.41333333333333 224 128 224 174.9333333333333a5.226666666666667 5.226666666666667 0 0 1 -1.5999999999999999 3.733333333333333L198.9333333333333 202.66666666666666a2.88 2.88 0 0 1 -3.1999999999999997 0 2.6666666666666665 2.6666666666666665 0 0 1 -1.2799999999999998 -2.986666666666667l5.226666666666667 -22.93333333333333c3.626666666666667 -15.36 -10.346666666666666 -21.866666666666664 -18.346666666666664 -10.026666666666666Z"/><path fill="#fff" stroke-width="10.667" d="M12.479999999999999 112.74666666666667a5.333333333333333 5.333333333333333 0 0 0 -4.906666666666666 0.6399999999999999 5.546666666666667 5.546666666666667 0 0 0 -2.2399999999999998 3.9466666666666663v75.73333333333332a10.666666666666666 10.666666666666666 0 0 0 3.52 8c10.666666666666666 9.92 32 32 37.65333333333333 37.65333333333333a5.546666666666667 5.546666666666667 0 0 1 1.4933333333333334 3.733333333333333v10.666666666666666a2.6666666666666665 2.6666666666666665 0 0 0 2.6666666666666665 2.6666666666666665h37.33333333333333a2.6666666666666665 2.6666666666666665 0 0 0 2.6666666666666665 -2.6666666666666665v-43.73333333333333a1.8133333333333335 1.8133333333333335 0 0 0 0 -0.7466666666666667A237.65333333333334 237.65333333333334 0 0 0 74.66666666666666 166.72c-7.68 -11.84 -21.333333333333332 -5.333333333333333 -18.026666666666664 10.026666666666666l5.226666666666667 22.93333333333333a2.6666666666666665 2.6666666666666665 0 0 1 -1.2799999999999998 2.986666666666667 2.88 2.88 0 0 1 -3.1999999999999997 0l-23.46666666666667 -23.57333333333333A5.226666666666667 5.226666666666667 0 0 1 32 174.9333333333333c0 -46.93333333333334 -11.84 -59.519999999999996 -19.52 -62.18666666666667Z"/><path fill="#fff" stroke-width="10.667" d="M82.88 59.73333333333333a37.97333333333333 37.97333333333333 0 0 1 -2.7733333333333334 -3.3066666666666666 5.226666666666667 5.226666666666667 0 0 0 -3.84 -2.453333333333333 5.653333333333333 5.653333333333333 0 0 0 -4.373333333333333 1.5999999999999999L56.42666666666666 71.03999999999999a10.666666666666666 10.666666666666666 0 0 0 0 15.04L117.33333333333333 146.45333333333332a10.666666666666666 10.666666666666666 0 0 0 15.04 0l16.746666666666666 -16.64a5.4399999999999995 5.4399999999999995 0 0 0 1.3866666666666667 -4.906666666666666 5.226666666666667 5.226666666666667 0 0 0 -3.3066666666666666 -3.84 22.613333333333333 22.613333333333333 0 0 1 -7.253333333333334 -4.8 21.333333333333332 21.333333333333332 0 1 1 29.65333333333333 -30.186666666666667 22.613333333333333 22.613333333333333 0 0 1 4.8 7.253333333333334 5.226666666666667 5.226666666666667 0 0 0 3.84 3.3066666666666666 5.4399999999999995 5.4399999999999995 0 0 0 4.906666666666666 -1.3866666666666667l16.64 -16.746666666666666a10.666666666666666 10.666666666666666 0 0 0 0 -15.04L185.59999999999997 49.28a2.7733333333333334 2.7733333333333334 0 0 1 -0.7466666666666667 -2.3466666666666667 2.5599999999999996 2.5599999999999996 0 0 1 1.4933333333333334 -1.92 22.613333333333333 22.613333333333333 0 0 0 5.653333333333333 -4.16A21.333333333333332 21.333333333333332 0 1 0 162.02666666666664 10.666666666666666a24.53333333333333 24.53333333333333 0 0 0 -4.16 5.866666666666667 2.3466666666666667 2.3466666666666667 0 0 1 -1.92 1.4933333333333334 2.7733333333333334 2.7733333333333334 0 0 1 -2.3466666666666667 -0.7466666666666667L139.41333333333333 3.093333333333333a10.666666666666666 10.666666666666666 0 0 0 -15.04 0l-15.466666666666665 15.466666666666665a5.653333333333333 5.653333333333333 0 0 0 -1.5999999999999999 4.373333333333333 5.4399999999999995 5.4399999999999995 0 0 0 2.3466666666666667 3.84 27.733333333333334 27.733333333333334 0 0 1 3.413333333333333 2.7733333333333334A21.333333333333332 21.333333333333332 0 0 1 82.88 59.73333333333333Z"/></g></svg>