<svg xmlns="http://www.w3.org/2000/svg" id="Module-Three--Streamline-Ultimate" width="256" height="256" viewBox="0 0 256 256"><desc>Module Three Streamline Icon: https://streamlinehq.com</desc><g id="Module-Three--Streamline-Ultimate.svg"><path fill="#fff" stroke-width="10.667" d="M88 120h80A18.773333333333333 18.773333333333333 0 0 0 186.66666666666666 101.33333333333333V21.333333333333332A18.773333333333333 18.773333333333333 0 0 0 168 2.6666666666666665h-80A18.773333333333333 18.773333333333333 0 0 0 69.33333333333333 21.333333333333332v80a18.773333333333333 18.773333333333333 0 0 0 18.666666666666664 18.666666666666664ZM93.33333333333333 53.33333333333333V42.666666666666664a16 16 0 0 1 16 -16h10.666666666666666a5.333333333333333 5.333333333333333 0 0 1 0 10.666666666666666h-10.666666666666666a5.333333333333333 5.333333333333333 0 0 0 -5.333333333333333 5.333333333333333v10.666666666666666a5.333333333333333 5.333333333333333 0 0 1 -10.666666666666666 0Z"/><path fill="#fff" stroke-width="10.667" d="M98.66666666666666 136h-80A18.773333333333333 18.773333333333333 0 0 0 0 154.66666666666666V234.66666666666666a18.773333333333333 18.773333333333333 0 0 0 18.666666666666664 18.666666666666664h80A18.773333333333333 18.773333333333333 0 0 0 117.33333333333333 234.66666666666666v-80a18.773333333333333 18.773333333333333 0 0 0 -18.666666666666664 -18.666666666666664Zm-42.666666666666664 29.333333333333332a5.333333333333333 5.333333333333333 0 0 1 -5.333333333333333 5.333333333333333h-10.666666666666666a5.333333333333333 5.333333333333333 0 0 0 -5.333333333333333 5.333333333333333v10.666666666666666a5.333333333333333 5.333333333333333 0 0 1 -10.666666666666666 0v-10.666666666666666a16 16 0 0 1 16 -16h10.666666666666666a5.333333333333333 5.333333333333333 0 0 1 5.333333333333333 5.333333333333333Z"/><path fill="#fff" stroke-width="10.667" d="M237.33333333333331 136h-80A18.773333333333333 18.773333333333333 0 0 0 138.66666666666666 154.66666666666666V234.66666666666666a18.773333333333333 18.773333333333333 0 0 0 18.666666666666664 18.666666666666664h80A18.773333333333333 18.773333333333333 0 0 0 256 234.66666666666666v-80a18.773333333333333 18.773333333333333 0 0 0 -18.666666666666664 -18.666666666666664Zm-42.666666666666664 29.333333333333332a5.333333333333333 5.333333333333333 0 0 1 -5.333333333333333 5.333333333333333h-10.666666666666666a5.333333333333333 5.333333333333333 0 0 0 -5.333333333333333 5.333333333333333v10.666666666666666a5.333333333333333 5.333333333333333 0 0 1 -10.666666666666666 0v-10.666666666666666a16 16 0 0 1 16 -16h10.666666666666666a5.333333333333333 5.333333333333333 0 0 1 5.333333333333333 5.333333333333333Z"/></g></svg>