<svg xmlns="http://www.w3.org/2000/svg" viewBox="0 0 256 256" id="Monetization-Touch-Coin--Streamline-Ultimate" height="256" width="256">
  <desc>
    Monetization Touch Coin Streamline Icon: https://streamlinehq.com
  </desc>
  <g id="Monetization-Touch-Coin--Streamline-Ultimate.svg">
    <path d="M90.66666666666666 181.33333333333331a90.56 90.56 0 0 0 41.17333333333333 -9.92 2.5599999999999996 2.5599999999999996 0 0 0 1.4933333333333334 -2.3466666666666667V149.33333333333331a32 32 0 0 1 32 -32 29.439999999999998 29.439999999999998 0 0 1 8.746666666666666 1.2799999999999998 2.5599999999999996 2.5599999999999996 0 0 0 3.3066666666666666 -1.8133333333333335A88.10666666666665 88.10666666666665 0 0 0 181.33333333333331 90.66666666666666 90.66666666666666 90.66666666666666 0 1 0 90.66666666666666 181.33333333333331Zm18.666666666666664 -85.33333333333333H75.52a24.959999999999997 24.959999999999997 0 0 1 0 -49.81333333333333h6.293333333333333a2.6666666666666665 2.6666666666666665 0 0 0 2.6666666666666665 -2.6666666666666665V37.33333333333333a8 8 0 0 1 16 0v6.186666666666666a2.6666666666666665 2.6666666666666665 0 0 0 2.6666666666666665 2.6666666666666665h23.04a8 8 0 0 1 0 16H75.52a8.959999999999999 8.959999999999999 0 0 0 -8.853333333333332 8.959999999999999 8.853333333333332 8.853333333333332 0 0 0 8.853333333333332 8.853333333333332h33.81333333333333a24.959999999999997 24.959999999999997 0 0 1 0 49.81333333333333h-6.186666666666666a2.6666666666666665 2.6666666666666665 0 0 0 -2.6666666666666665 2.6666666666666665V138.66666666666666a8 8 0 0 1 -16 0v-6.186666666666666a2.6666666666666665 2.6666666666666665 0 0 0 -2.6666666666666665 -2.6666666666666665H58.666666666666664a8 8 0 0 1 0 -16h50.666666666666664a8.959999999999999 8.959999999999999 0 0 0 8.853333333333332 -8.959999999999999 8.853333333333332 8.853333333333332 0 0 0 -8.853333333333332 -8.853333333333332Z" fill="#ffffff" stroke-width="10.6667"></path>
    <path d="M149.33333333333331 225.70666666666665a2.5599999999999996 2.5599999999999996 0 0 1 -1.7066666666666666 2.453333333333333 2.7733333333333334 2.7733333333333334 0 0 1 -2.986666666666667 -0.6399999999999999L128 208.42666666666665a16 16 0 0 0 -24.64 20.37333333333333l23.893333333333334 26.346666666666668a2.453333333333333 2.453333333333333 0 0 0 1.92 0.8533333333333333h124.16a2.6666666666666665 2.6666666666666665 0 0 0 2.6666666666666665 -2.6666666666666665V240a42.666666666666664 42.666666666666664 0 0 0 -42.666666666666664 -42.666666666666664h-29.333333333333332a2.6666666666666665 2.6666666666666665 0 0 1 -2.6666666666666665 -2.6666666666666665V149.33333333333331a16 16 0 0 0 -32 0Z" fill="#ffffff" stroke-width="10.6667"></path>
  </g>
</svg>