<svg xmlns="http://www.w3.org/2000/svg" id="Money-Wallet-Open--Streamline-Ultimate" width="256" height="256" viewBox="0 0 256 256"><desc>Money Wallet Open Streamline Icon: https://streamlinehq.com</desc><path fill="#fff" stroke-width="10.667" d="M256 40.53333333333333A37.33333333333333 37.33333333333333 0 0 0 218.66666666666666 3.1999999999999997h-181.33333333333331A37.54666666666667 37.54666666666667 0 0 0 0 40.53333333333333v138.66666666666666A48.213333333333324 48.213333333333324 0 0 0 35.306666666666665 224c129.38666666666666 30.186666666666667 121.49333333333334 28.8 127.25333333333333 28.8a28.479999999999997 28.479999999999997 0 0 0 18.773333333333333 -6.293333333333333 30.29333333333333 30.29333333333333 0 0 0 10.666666666666666 -24.64v-103.35999999999999A45.54666666666666 45.54666666666666 0 0 0 158.82666666666665 74.66666666666666L43.30666666666666 42.666666666666664a8 8 0 0 1 4.16 -15.466666666666665c39.78666666666666 10.666666666666666 37.54666666666667 10.666666666666666 38.08 10.666666666666666H218.66666666666666a8 8 0 0 1 0 16h-55.89333333333333a2.6666666666666665 2.6666666666666665 0 0 0 -2.5599999999999996 2.3466666666666667 2.6666666666666665 2.6666666666666665 0 0 0 1.92 2.986666666666667 61.01333333333333 61.01333333333333 0 0 1 32 20.37333333333333 2.6666666666666665 2.6666666666666665 0 0 0 2.1333333333333333 0.96h22.4a8 8 0 0 1 0 16h-10.666666666666666a2.5599999999999996 2.5599999999999996 0 0 0 -2.1333333333333333 1.1733333333333333 2.6666666666666665 2.6666666666666665 0 0 0 0 2.3466666666666667 59.199999999999996 59.199999999999996 0 0 1 2.986666666666667 18.453333333333333v74.02666666666667a2.6666666666666665 2.6666666666666665 0 0 0 2.6666666666666665 2.6666666666666665h8A37.33333333333333 37.33333333333333 0 0 0 256 157.86666666666667Zm-90.66666666666666 122.66666666666666a21.333333333333332 21.333333333333332 0 1 1 -21.333333333333332 -21.333333333333332 21.333333333333332 21.333333333333332 0 0 1 21.333333333333332 21.333333333333332Z"/></svg>