<svg xmlns="http://www.w3.org/2000/svg" viewBox="0 0 256 256" id="Monetization-Tablet--Streamline-Ultimate" height="256" width="256">
  <desc>
    Monetization Tablet Streamline Icon: https://streamlinehq.com
  </desc>
  <g id="Monetization-Tablet--Streamline-Ultimate.svg">
    <g>
      <path d="m148.58666666666664 125.86666666666667 16 12.799999999999999a2.6666666666666665 2.6666666666666665 0 0 0 4.373333333333333 -2.1333333333333333V26.666666666666664a26.666666666666664 26.666666666666664 0 0 0 -26.666666666666664 -26.666666666666664h-96a26.666666666666664 26.666666666666664 0 0 0 -26.666666666666664 26.666666666666664v202.66666666666666a26.666666666666664 26.666666666666664 0 0 0 26.666666666666664 26.666666666666664h96a25.92 25.92 0 0 0 8.213333333333333 -1.2799999999999998 2.6666666666666665 2.6666666666666665 0 0 0 1.5999999999999999 -3.626666666666667 42.666666666666664 42.666666666666664 0 0 1 -4.4799999999999995 -17.599999999999998V213.33333333333331a2.88 2.88 0 0 0 -0.6399999999999999 -1.8133333333333335l-7.04 -8a2.88 2.88 0 0 0 -2.0266666666666664 -0.8533333333333333H46.29333333333333a5.333333333333333 5.333333333333333 0 0 1 -5.333333333333333 -5.333333333333333v-149.33333333333331a5.333333333333333 5.333333333333333 0 0 1 5.333333333333333 -5.333333333333333h96a5.333333333333333 5.333333333333333 0 0 1 5.333333333333333 5.333333333333333v75.73333333333332a2.6666666666666665 2.6666666666666665 0 0 0 0.96 2.1333333333333333Zm-54.29333333333333 92.79999999999998a10.666666666666666 10.666666666666666 0 1 1 -10.666666666666666 10.666666666666666 10.666666666666666 10.666666666666666 0 0 1 10.666666666666666 -10.666666666666666Z" fill="#ffffff" stroke-width="10.6667"></path>
      <path d="M195.83999999999997 163.73333333333332a8 8 0 0 1 -5.013333333333333 14.186666666666667 7.68 7.68 0 0 1 -4.906666666666666 -1.7066666666666666l-43.84 -35.093333333333334a14.719999999999999 14.719999999999999 0 0 0 -16.85333333333333 2.7733333333333334 19.84 19.84 0 0 0 -2.2399999999999998 2.986666666666667 14.613333333333333 14.613333333333333 0 0 0 2.2399999999999998 17.706666666666663l39.14666666666666 44.266666666666666a2.453333333333333 2.453333333333333 0 0 1 0.6399999999999999 1.7066666666666666v27.199999999999996a28.373333333333335 28.373333333333335 0 0 0 3.3066666666666666 11.413333333333334 2.5599999999999996 2.5599999999999996 0 0 0 2.3466666666666667 1.4933333333333334h63.04a2.6666666666666665 2.6666666666666665 0 0 0 2.3466666666666667 -1.3866666666666667 2.88 2.88 0 0 0 0 -2.7733333333333334L220.58666666666664 224a2.453333333333333 2.453333333333333 0 0 1 0 -1.4933333333333334V160c0 -15.786666666666665 -15.573333333333332 -31.146666666666665 -30.826666666666668 -43.519999999999996a2.6666666666666665 2.6666666666666665 0 0 0 -4.373333333333333 2.1333333333333333v34.773333333333326a2.6666666666666665 2.6666666666666665 0 0 0 0.96 2.0266666666666664Z" fill="#ffffff" stroke-width="10.6667"></path>
    </g>
    <path d="m108.69333333333333 105.17333333333332 -20.69333333333333 -10.666666666666666a3.9466666666666663 3.9466666666666663 0 0 1 -1.7066666666666666 -3.3066666666666666 3.84 3.84 0 0 1 3.9466666666666663 -3.84h20.05333333333333a8 8 0 0 0 0 -16H104.53333333333333v-1.2799999999999998a8 8 0 0 0 -16 0v1.2799999999999998a19.946666666666665 19.946666666666665 0 0 0 -18.24 19.733333333333334 20.159999999999997 20.159999999999997 0 0 0 9.6 17.066666666666666l20.69333333333333 10.666666666666666a3.9466666666666663 3.9466666666666663 0 0 1 1.7066666666666666 3.3066666666666666 3.84 3.84 0 0 1 -3.9466666666666663 3.84H78.29333333333332a8 8 0 0 0 0 16h10.666666666666666v1.1733333333333333a8 8 0 0 0 16 0v-2.2399999999999998a19.84 19.84 0 0 0 13.76 -18.773333333333333 20.159999999999997 20.159999999999997 0 0 0 -10.026666666666666 -16.96Z" fill="#ffffff" stroke-width="10.6667"></path>
  </g>
</svg>