<svg xmlns="http://www.w3.org/2000/svg" viewBox="0 0 256 256" id="Money-Bag-Dollar--Streamline-Ultimate" height="256" width="256">
  <desc>
    Money Bag Dollar Streamline Icon: https://streamlinehq.com
  </desc>
  <g id="Money-Bag-Dollar--Streamline-Ultimate.svg">
    <path d="M96 85.33333333333333h64a10.666666666666666 10.666666666666666 0 0 0 0 -21.333333333333332H96a10.666666666666666 10.666666666666666 0 0 0 0 21.333333333333332Z" fill="#ffffff" stroke-width="10.6667"></path>
    <path d="M101.01333333333334 48a5.333333333333333 5.333333333333333 0 0 0 5.333333333333333 4.693333333333333H149.33333333333331a5.4399999999999995 5.4399999999999995 0 0 0 5.333333333333333 -4.693333333333333 97.81333333333333 97.81333333333333 0 0 1 12.799999999999999 -32 5.013333333333333 5.013333333333333 0 0 0 -0.7466666666666667 -6.079999999999999 5.333333333333333 5.333333333333333 0 0 0 -5.653333333333333 -1.92l-19.84 8.533333333333333a2.453333333333333 2.453333333333333 0 0 1 -2.1333333333333333 0 2.6666666666666665 2.6666666666666665 0 0 1 -1.4933333333333334 -1.3866666666666667L132.90666666666667 3.3066666666666666a5.333333333333333 5.333333333333333 0 0 0 -9.813333333333333 0l-4.693333333333333 11.84a2.6666666666666665 2.6666666666666665 0 0 1 -1.4933333333333334 1.3866666666666667 2.453333333333333 2.453333333333333 0 0 1 -2.1333333333333333 0L94.93333333333334 8a5.333333333333333 5.333333333333333 0 0 0 -5.973333333333334 1.3866666666666667 5.013333333333333 5.013333333333333 0 0 0 -0.7466666666666667 6.079999999999999 97.81333333333333 97.81333333333333 0 0 1 12.799999999999999 32.53333333333333Z" fill="#ffffff" stroke-width="10.6667"></path>
    <path d="M164.69333333333333 97.27999999999999a6.186666666666666 6.186666666666666 0 0 0 -3.84 -1.2799999999999998H95.14666666666666a6.186666666666666 6.186666666666666 0 0 0 -3.84 1.2799999999999998c-27.199999999999996 21.333333333333332 -57.6 57.6 -57.6 89.6C33.70666666666666 232 58.879999999999995 256 128 256s94.29333333333332 -24 94.29333333333332 -69.12c0 -32 -30.29333333333333 -68.8 -57.6 -89.6ZM138.66666666666666 214.71999999999997a2.7733333333333334 2.7733333333333334 0 0 0 -2.2399999999999998 2.6666666666666665v3.9466666666666663a8 8 0 0 1 -16 0v-3.413333333333333a2.6666666666666665 2.6666666666666665 0 0 0 -2.6666666666666665 -2.6666666666666665h-6.293333333333333a8 8 0 0 1 0 -16h22.93333333333333a7.1466666666666665 7.1466666666666665 0 0 0 2.6666666666666665 -13.866666666666667l-23.253333333333334 -9.28a23.04 23.04 0 0 1 3.52 -44.16 2.7733333333333334 2.7733333333333334 0 0 0 2.2399999999999998 -2.6666666666666665v-3.9466666666666663a8 8 0 0 1 16 0v3.413333333333333a2.6666666666666665 2.6666666666666665 0 0 0 2.6666666666666665 2.6666666666666665h6.293333333333333a8 8 0 0 1 0 16h-22.506666666666664a7.1466666666666665 7.1466666666666665 0 0 0 -2.6666666666666665 13.866666666666667l23.253333333333334 9.28a23.04 23.04 0 0 1 -3.9466666666666663 44.16Z" fill="#ffffff" stroke-width="10.6667"></path>
  </g>
</svg>