<svg xmlns="http://www.w3.org/2000/svg" viewBox="0 0 256 256" id="Monetization-Bill-Magnet--Streamline-Ultimate" height="256" width="256">
  <desc>
    Monetization Bill Magnet Streamline Icon: https://streamlinehq.com
  </desc>
  <g id="Monetization-Bill-Magnet--Streamline-Ultimate.svg">
    <path d="M58.666666666666664 104h138.66666666666666A18.773333333333333 18.773333333333333 0 0 0 216 85.33333333333333V21.333333333333332A18.773333333333333 18.773333333333333 0 0 0 197.33333333333331 2.6666666666666665h-138.66666666666666A18.773333333333333 18.773333333333333 0 0 0 40 21.333333333333332v64A18.773333333333333 18.773333333333333 0 0 0 58.666666666666664 104ZM56 21.333333333333332a2.6666666666666665 2.6666666666666665 0 0 1 2.6666666666666665 -2.6666666666666665h138.66666666666666a2.6666666666666665 2.6666666666666665 0 0 1 2.6666666666666665 2.6666666666666665v64a2.6666666666666665 2.6666666666666665 0 0 1 -2.6666666666666665 2.6666666666666665h-138.66666666666666A2.6666666666666665 2.6666666666666665 0 0 1 56 85.33333333333333Z" fill="#ffffff" stroke-width="10.6667"></path>
    <path d="M106.66666666666666 53.33333333333333a21.333333333333332 21.333333333333332 0 1 0 42.666666666666664 0 21.333333333333332 21.333333333333332 0 1 0 -42.666666666666664 0" fill="#ffffff" stroke-width="10.6667"></path>
    <path d="M194.66666666666666 144a18.773333333333333 18.773333333333333 0 0 0 -18.666666666666664 -18.666666666666664h-21.333333333333332a18.773333333333333 18.773333333333333 0 0 0 -18.666666666666664 18.666666666666664v45.33333333333333c0 2.453333333333333 0 13.76 -8 13.76s-8 -11.306666666666667 -8 -13.76V144a18.773333333333333 18.773333333333333 0 0 0 -18.666666666666664 -18.666666666666664h-21.333333333333332a18.773333333333333 18.773333333333333 0 0 0 -18.666666666666664 18.666666666666664v44.16c0 39.04 26.77333333333333 65.17333333333333 66.66666666666666 65.17333333333333s66.66666666666666 -26.133333333333333 66.66666666666666 -65.17333333333333ZM104 160a2.6666666666666665 2.6666666666666665 0 0 1 -2.6666666666666665 2.6666666666666665h-21.333333333333332a2.6666666666666665 2.6666666666666665 0 0 1 -2.6666666666666665 -2.6666666666666665v-16a2.6666666666666665 2.6666666666666665 0 0 1 2.6666666666666665 -2.6666666666666665h21.333333333333332a2.6666666666666665 2.6666666666666665 0 0 1 2.6666666666666665 2.6666666666666665Zm48 -16a2.6666666666666665 2.6666666666666665 0 0 1 2.6666666666666665 -2.6666666666666665h21.333333333333332a2.6666666666666665 2.6666666666666665 0 0 1 2.6666666666666665 2.6666666666666665V160a2.6666666666666665 2.6666666666666665 0 0 1 -2.6666666666666665 2.6666666666666665h-21.333333333333332a2.6666666666666665 2.6666666666666665 0 0 1 -2.6666666666666665 -2.6666666666666665Z" fill="#ffffff" stroke-width="10.6667"></path>
  </g>
</svg>