<svg xmlns="http://www.w3.org/2000/svg" id="Monitor-Flash--Streamline-Ultimate" width="256" height="256" viewBox="0 0 256 256"><desc>Monitor Flash Streamline Icon: https://streamlinehq.com</desc><g id="Monitor-Flash--Streamline-Ultimate.svg"><path fill="#fff" stroke-width="10.667" d="M135.04 174.29333333333332a3.1999999999999997 3.1999999999999997 0 0 0 0 -2.453333333333333 2.7733333333333334 2.7733333333333334 0 0 0 -2.2399999999999998 -1.1733333333333333H112a5.333333333333333 5.333333333333333 0 0 1 -5.333333333333333 -5.333333333333333V160a5.333333333333333 5.333333333333333 0 0 1 5.333333333333333 -5.333333333333333h35.41333333333333a2.6666666666666665 2.6666666666666665 0 0 0 2.0266666666666664 -0.96L192 101.22666666666666a2.88 2.88 0 0 0 0 -1.5999999999999999V21.333333333333332a21.333333333333332 21.333333333333332 0 0 0 -21.333333333333332 -21.333333333333332H21.333333333333332a21.333333333333332 21.333333333333332 0 0 0 -21.333333333333332 21.333333333333332v112a21.333333333333332 21.333333333333332 0 0 0 21.333333333333332 21.333333333333332h58.666666666666664a5.333333333333333 5.333333333333333 0 0 1 5.333333333333333 5.333333333333333v5.333333333333333a5.333333333333333 5.333333333333333 0 0 1 -5.333333333333333 5.333333333333333H53.33333333333333a10.666666666666666 10.666666666666666 0 0 0 0 21.333333333333332h78.29333333333332a2.453333333333333 2.453333333333333 0 0 0 2.1333333333333333 -1.0666666666666667 2.3466666666666667 2.3466666666666667 0 0 0 0 -2.2399999999999998 24.53333333333333 24.53333333333333 0 0 1 1.2799999999999998 -14.4ZM26.666666666666664 122.66666666666666A5.333333333333333 5.333333333333333 0 0 1 21.333333333333332 117.33333333333333V26.666666666666664a5.333333333333333 5.333333333333333 0 0 1 5.333333333333333 -5.333333333333333h138.66666666666666a5.333333333333333 5.333333333333333 0 0 1 5.333333333333333 5.333333333333333V117.33333333333333a5.333333333333333 5.333333333333333 0 0 1 -5.333333333333333 5.333333333333333Z"/><path fill="#fff" stroke-width="10.667" d="M253.76 175.36a9.28 9.28 0 0 0 -7.04 -15.36h-20.05333333333333a2.6666666666666665 2.6666666666666665 0 0 1 -2.6666666666666665 -2.6666666666666665V101.33333333333333a5.333333333333333 5.333333333333333 0 0 0 -9.493333333333332 -3.3066666666666666l-62.93333333333334 78.61333333333333a9.28 9.28 0 0 0 7.1466666666666665 15.36h19.946666666666665a2.6666666666666665 2.6666666666666665 0 0 1 2.6666666666666665 2.6666666666666665v56a5.333333333333333 5.333333333333333 0 0 0 3.52 5.013333333333333 5.333333333333333 5.333333333333333 0 0 0 5.973333333333334 -1.7066666666666666Z"/></g></svg>