<svg xmlns="http://www.w3.org/2000/svg" id="Monitor-Download--Streamline-Ultimate" width="256" height="256" viewBox="0 0 256 256"><desc>Monitor Download Streamline Icon: https://streamlinehq.com</desc><g id="Monitor-Download--Streamline-Ultimate.svg"><path fill="#fff" stroke-width="10.667" d="M219.2 218.66666666666666a21.333333333333332 21.333333333333332 0 0 0 20.799999999999997 -20.799999999999997V90.13333333333333a21.333333333333332 21.333333333333332 0 0 0 -20.799999999999997 -20.799999999999997H202.66666666666666a10.666666666666666 10.666666666666666 0 0 0 -10.666666666666666 10.666666666666666 10.666666666666666 10.666666666666666 0 0 0 10.666666666666666 10.666666666666666h13.866666666666667a2.6666666666666665 2.6666666666666665 0 0 1 2.6666666666666665 2.6666666666666665v86.72a2.6666666666666665 2.6666666666666665 0 0 1 -2.6666666666666665 2.6666666666666665H39.46666666666667a2.6666666666666665 2.6666666666666665 0 0 1 -2.6666666666666665 -2.6666666666666665V92.79999999999998a2.6666666666666665 2.6666666666666665 0 0 1 2.6666666666666665 -2.6666666666666665H53.33333333333333a10.666666666666666 10.666666666666666 0 0 0 10.666666666666666 -10.666666666666666 10.666666666666666 10.666666666666666 0 0 0 -10.666666666666666 -10.666666666666666H36.8a21.333333333333332 21.333333333333332 0 0 0 -20.799999999999997 21.333333333333332v107.73333333333332a21.333333333333332 21.333333333333332 0 0 0 21.333333333333332 20.799999999999997h78.08a2.6666666666666665 2.6666666666666665 0 0 1 2.6666666666666665 2.6666666666666665v11.2a2.6666666666666665 2.6666666666666665 0 0 1 -2.6666666666666665 2.6666666666666665H62.93333333333334a10.666666666666666 10.666666666666666 0 1 0 0 20.799999999999997h130.13333333333333a10.666666666666666 10.666666666666666 0 1 0 0 -20.799999999999997h-51.946666666666665a2.6666666666666665 2.6666666666666665 0 0 1 -2.453333333333333 -2.6666666666666665v-11.2a2.6666666666666665 2.6666666666666665 0 0 1 2.6666666666666665 -2.6666666666666665Z"/><path fill="#fff" stroke-width="10.667" d="M112.42666666666665 91.09333333333332a2.7733333333333334 2.7733333333333334 0 0 1 -2.6666666666666665 2.6666666666666665H91.52a10.666666666666666 10.666666666666666 0 0 0 -7.359999999999999 17.706666666666663l36.48 36.48a10.666666666666666 10.666666666666666 0 0 0 14.719999999999999 0l36.48 -36.48a10.666666666666666 10.666666666666666 0 0 0 -7.359999999999999 -17.706666666666663h-18.24a2.7733333333333334 2.7733333333333334 0 0 1 -2.6666666666666665 -2.6666666666666665V15.573333333333332a15.573333333333332 15.573333333333332 0 0 0 -31.146666666666665 0Z"/></g></svg>