<svg xmlns="http://www.w3.org/2000/svg" viewBox="0 0 256 256" id="Monitor-Sync--Streamline-Ultimate" height="256" width="256">
  <desc>
    Monitor Sync Streamline Icon: https://streamlinehq.com
  </desc>
  <g id="Monitor-Sync--Streamline-Ultimate.svg">
    <path d="M123.94666666666666 124.37333333333333a2.6666666666666665 2.6666666666666665 0 0 0 -2.453333333333333 -1.7066666666666666H26.666666666666664A5.333333333333333 5.333333333333333 0 0 1 21.333333333333332 117.33333333333333V26.666666666666664a5.333333333333333 5.333333333333333 0 0 1 5.333333333333333 -5.333333333333333h138.66666666666666a5.333333333333333 5.333333333333333 0 0 1 5.333333333333333 5.333333333333333v73.06666666666666a2.6666666666666665 2.6666666666666665 0 0 0 0.96 2.0266666666666664 2.7733333333333334 2.7733333333333334 0 0 0 2.1333333333333333 0.5333333333333333 85.33333333333333 85.33333333333333 0 0 1 12.906666666666666 -0.96h2.453333333333333a2.7733333333333334 2.7733333333333334 0 0 0 2.0266666666666664 -0.7466666666666667 2.6666666666666665 2.6666666666666665 0 0 0 0.8533333333333333 -1.8133333333333335V21.333333333333332a21.333333333333332 21.333333333333332 0 0 0 -21.333333333333332 -21.333333333333332H21.333333333333332a21.333333333333332 21.333333333333332 0 0 0 -21.333333333333332 21.333333333333332v112a21.333333333333332 21.333333333333332 0 0 0 21.333333333333332 21.333333333333332h58.666666666666664a5.333333333333333 5.333333333333333 0 0 1 5.333333333333333 5.333333333333333v5.333333333333333a5.333333333333333 5.333333333333333 0 0 1 -5.333333333333333 5.333333333333333H53.33333333333333a10.666666666666666 10.666666666666666 0 0 0 0 21.333333333333332h40a2.6666666666666665 2.6666666666666665 0 0 0 2.6666666666666665 -2.5599999999999996 90.88 90.88 0 0 1 27.306666666666665 -62.18666666666667 2.6666666666666665 2.6666666666666665 0 0 0 0.6399999999999999 -2.88Z" fill="#ffffff" stroke-width="10.6667"></path>
    <path d="M242.88 198.4a10.666666666666666 10.666666666666666 0 0 0 -13.546666666666667 6.613333333333333 43.626666666666665 43.626666666666665 0 0 1 -73.81333333333333 15.146666666666665 2.5599999999999996 2.5599999999999996 0 0 1 0 -3.626666666666667l18.346666666666664 -18.346666666666664a5.4399999999999995 5.4399999999999995 0 0 0 1.1733333333333333 -5.866666666666667 5.333333333333333 5.333333333333333 0 0 0 -4.906666666666666 -3.3066666666666666H122.66666666666666a5.333333333333333 5.333333333333333 0 0 0 -5.333333333333333 5.333333333333333v47.57333333333333a5.333333333333333 5.333333333333333 0 0 0 3.3066666666666666 4.906666666666666 5.013333333333333 5.013333333333333 0 0 0 5.76 -1.1733333333333333l10.666666666666666 -10.666666666666666A3.3066666666666666 3.3066666666666666 0 0 1 138.66666666666666 234.66666666666666a2.453333333333333 2.453333333333333 0 0 1 1.92 0.8533333333333333 64.96 64.96 0 0 0 108.90666666666667 -23.46666666666667 10.666666666666666 10.666666666666666 0 0 0 -6.613333333333333 -13.653333333333332Z" fill="#ffffff" stroke-width="10.6667"></path>
    <path d="M252.69333333333333 125.54666666666665a5.4399999999999995 5.4399999999999995 0 0 0 -5.76 1.1733333333333333l-10.666666666666666 10.666666666666666a3.093333333333333 3.093333333333333 0 0 1 -1.92 0.7466666666666667 2.6666666666666665 2.6666666666666665 0 0 1 -1.92 -0.8533333333333333A64.96 64.96 0 0 0 123.73333333333332 161.06666666666666a10.666666666666666 10.666666666666666 0 1 0 20.159999999999997 6.933333333333334 43.73333333333333 43.73333333333333 0 0 1 73.6 -15.466666666666665 2.7733333333333334 2.7733333333333334 0 0 1 0 3.733333333333333l-17.706666666666663 17.706666666666663a5.333333333333333 5.333333333333333 0 0 0 3.733333333333333 9.066666666666666h47.14666666666666a5.333333333333333 5.333333333333333 0 0 0 5.333333333333333 -5.333333333333333v-47.25333333333333a5.333333333333333 5.333333333333333 0 0 0 -3.3066666666666666 -4.906666666666666Z" fill="#ffffff" stroke-width="10.6667"></path>
  </g>
</svg>