<svg xmlns="http://www.w3.org/2000/svg" viewBox="0 0 256 256" id="Monitor--Streamline-Ultimate" height="256" width="256">
  <desc>
    Monitor Streamline Icon: https://streamlinehq.com
  </desc>
  <g id="Monitor--Streamline-Ultimate.svg">
    <path d="M184 220.90666666666667h-28.8a2.5599999999999996 2.5599999999999996 0 0 1 -2.453333333333333 -1.7066666666666666 26.560000000000002 26.560000000000002 0 0 0 -49.493333333333325 0 2.5599999999999996 2.5599999999999996 0 0 1 -2.453333333333333 1.7066666666666666h-28.8a8 8 0 0 0 0 16h28.8a2.5599999999999996 2.5599999999999996 0 0 1 2.453333333333333 1.7066666666666666 26.560000000000002 26.560000000000002 0 0 0 49.493333333333325 0 2.5599999999999996 2.5599999999999996 0 0 1 2.453333333333333 -1.7066666666666666h28.8a8 8 0 0 0 0 -16ZM128 239.57333333333332a10.666666666666666 10.666666666666666 0 1 1 10.666666666666666 -10.666666666666666 10.666666666666666 10.666666666666666 0 0 1 -10.666666666666666 10.666666666666666Z" fill="#ffffff" stroke-width="10.6667"></path>
    <path d="M21.333333333333332 228.90666666666667a8 8 0 0 0 -8 -8h-5.333333333333333a8 8 0 0 0 0 16h5.333333333333333a8.106666666666666 8.106666666666666 0 0 0 8 -8Z" fill="#ffffff" stroke-width="10.6667"></path>
    <path d="M40 220.90666666666667a8 8 0 0 0 0 16h5.333333333333333a8 8 0 0 0 0 -16Z" fill="#ffffff" stroke-width="10.6667"></path>
    <path d="M210.66666666666666 220.90666666666667a8 8 0 0 0 0 16h5.333333333333333a8 8 0 0 0 0 -16Z" fill="#ffffff" stroke-width="10.6667"></path>
    <path d="M248 220.90666666666667h-5.333333333333333a8 8 0 0 0 0 16h5.333333333333333a8 8 0 0 0 0 -16Z" fill="#ffffff" stroke-width="10.6667"></path>
    <path d="M213.33333333333331 155.0933333333333a21.333333333333332 21.333333333333332 0 0 0 21.333333333333332 -21.333333333333332V21.333333333333332a21.333333333333332 21.333333333333332 0 0 0 -21.333333333333332 -21.333333333333332H42.666666666666664a21.333333333333332 21.333333333333332 0 0 0 -21.333333333333332 21.333333333333332v112a21.333333333333332 21.333333333333332 0 0 0 21.333333333333332 21.333333333333332h72a2.6666666666666665 2.6666666666666665 0 0 1 2.6666666666666665 2.6666666666666665v10.666666666666666a2.6666666666666665 2.6666666666666665 0 0 1 -2.6666666666666665 2.6666666666666665h-53.33333333333333a10.666666666666666 10.666666666666666 0 0 0 0 21.333333333333332h133.33333333333331a10.666666666666666 10.666666666666666 0 0 0 0 -21.333333333333332h-53.33333333333333a2.6666666666666665 2.6666666666666665 0 0 1 -2.6666666666666665 -2.6666666666666665v-10.666666666666666a2.6666666666666665 2.6666666666666665 0 0 1 2.6666666666666665 -2.6666666666666665ZM210.66666666666666 21.333333333333332a2.6666666666666665 2.6666666666666665 0 0 1 2.6666666666666665 2.6666666666666665v90.66666666666666a2.6666666666666665 2.6666666666666665 0 0 1 -2.6666666666666665 2.6666666666666665H45.33333333333333a2.6666666666666665 2.6666666666666665 0 0 1 -2.6666666666666665 -2.2399999999999998v-90.66666666666666A2.6666666666666665 2.6666666666666665 0 0 1 45.33333333333333 21.333333333333332Z" fill="#ffffff" stroke-width="10.6667"></path>
  </g>
</svg>