<svg xmlns="http://www.w3.org/2000/svg" viewBox="0 0 256 256" id="Monitor-Transfer-1--Streamline-Ultimate" height="256" width="256">
  <desc>
    Monitor Transfer 1 Streamline Icon: https://streamlinehq.com
  </desc>
  <g id="Monitor-Transfer-1--Streamline-Ultimate.svg">
    <path d="M256 18.666666666666664A18.666666666666664 18.666666666666664 0 0 0 237.33333333333331 0h-101.33333333333333A18.666666666666664 18.666666666666664 0 0 0 117.33333333333333 18.666666666666664V21.333333333333332a8 8 0 0 0 16 0v-2.6666666666666665a2.6666666666666665 2.6666666666666665 0 0 1 2.6666666666666665 -2.6666666666666665h101.33333333333333a2.6666666666666665 2.6666666666666665 0 0 1 2.6666666666666665 2.6666666666666665v58.666666666666664a2.6666666666666665 2.6666666666666665 0 0 1 -2.6666666666666665 2.6666666666666665H144a5.333333333333333 5.333333333333333 0 0 0 -5.333333333333333 5.333333333333333v16a5.333333333333333 5.333333333333333 0 0 0 5.333333333333333 5.333333333333333h32a2.6666666666666665 2.6666666666666665 0 0 1 2.6666666666666665 2.6666666666666665v10.666666666666666a2.6666666666666665 2.6666666666666665 0 0 1 -2.6666666666666665 2.6666666666666665H160a8 8 0 0 0 0 16h56a8 8 0 0 0 0 -16h-18.453333333333333a2.6666666666666665 2.6666666666666665 0 0 1 -2.6666666666666665 -2.6666666666666665v-10.666666666666666a2.6666666666666665 2.6666666666666665 0 0 1 2.6666666666666665 -2.6666666666666665h39.78666666666666A18.666666666666664 18.666666666666664 0 0 0 256 88Z" fill="#ffffff" stroke-width="10.6667"></path>
    <path d="M119.57333333333334 103.57333333333334a10.666666666666666 10.666666666666666 0 0 0 2.2399999999999998 -11.626666666666667A10.666666666666666 10.666666666666666 0 0 0 112 85.33333333333333h-3.3066666666666666a2.5599999999999996 2.5599999999999996 0 0 1 -2.0266666666666664 -1.2799999999999998 2.6666666666666665 2.6666666666666665 0 0 1 0 -2.6666666666666665 42.666666666666664 42.666666666666664 0 0 1 37.33333333333333 -22.72 10.666666666666666 10.666666666666666 0 0 0 0 -21.333333333333332 64 64 0 0 0 -61.33333333333333 46.08 2.6666666666666665 2.6666666666666665 0 0 1 -2.5599999999999996 1.92h-10.666666666666666a10.666666666666666 10.666666666666666 0 0 0 -9.813333333333333 6.613333333333333 10.666666666666666 10.666666666666666 0 0 0 2.2399999999999998 11.626666666666667l21.333333333333332 21.333333333333332a10.666666666666666 10.666666666666666 0 0 0 15.146666666666665 0Z" fill="#ffffff" stroke-width="10.6667"></path>
    <path d="M43.199999999999996 95.25333333333333a10.666666666666666 10.666666666666666 0 0 0 -5.866666666666667 -1.92H21.333333333333332a21.333333333333332 21.333333333333332 0 0 0 -21.333333333333332 21.333333333333332V202.66666666666666a21.333333333333332 21.333333333333332 0 0 0 21.333333333333332 21.333333333333332h61.33333333333333a2.6666666666666665 2.6666666666666665 0 0 1 2.6666666666666665 2.6666666666666665v5.333333333333333a2.6666666666666665 2.6666666666666665 0 0 1 -2.6666666666666665 2.6666666666666665H53.33333333333333a10.666666666666666 10.666666666666666 0 0 0 0 21.333333333333332h85.33333333333333a10.666666666666666 10.666666666666666 0 0 0 0 -21.333333333333332h-29.333333333333332a2.6666666666666665 2.6666666666666665 0 0 1 -2.6666666666666665 -2.6666666666666665v-5.333333333333333a2.6666666666666665 2.6666666666666665 0 0 1 2.6666666666666665 -2.6666666666666665H170.66666666666666a21.333333333333332 21.333333333333332 0 0 0 21.333333333333332 -21.333333333333332v-37.33333333333333a10.666666666666666 10.666666666666666 0 0 0 -21.333333333333332 0v18.666666666666664a2.6666666666666665 2.6666666666666665 0 0 1 -2.6666666666666665 2.6666666666666665H24a2.6666666666666665 2.6666666666666665 0 0 1 -2.6666666666666665 -2.6666666666666665V117.33333333333333a2.6666666666666665 2.6666666666666665 0 0 1 2.6666666666666665 -2.6666666666666665H37.33333333333333a10.666666666666666 10.666666666666666 0 0 0 10.666666666666666 -10.666666666666666 10.666666666666666 10.666666666666666 0 0 0 -4.8 -8.746666666666666Z" fill="#ffffff" stroke-width="10.6667"></path>
  </g>
</svg>