<svg xmlns="http://www.w3.org/2000/svg" viewBox="0 0 256 256" id="Monitor-Warning--Streamline-Ultimate" height="256" width="256">
  <desc>
    Monitor Warning Streamline Icon: https://streamlinehq.com
  </desc>
  <g id="Monitor-Warning--Streamline-Ultimate.svg">
    <path d="m124.37333333333333 189.12 5.546666666666667 -10.666666666666666a5.333333333333333 5.333333333333333 0 0 0 0 -5.226666666666667 5.333333333333333 5.333333333333333 0 0 0 -4.586666666666666 -2.5599999999999996H112a5.333333333333333 5.333333333333333 0 0 1 -5.333333333333333 -5.333333333333333V160a5.333333333333333 5.333333333333333 0 0 1 5.333333333333333 -5.333333333333333h27.199999999999996a5.333333333333333 5.333333333333333 0 0 0 4.8 -2.88l13.226666666666667 -25.173333333333332a2.986666666666667 2.986666666666667 0 0 0 0 -2.6666666666666665 2.88 2.88 0 0 0 -2.2399999999999998 -1.2799999999999998H26.666666666666664A5.333333333333333 5.333333333333333 0 0 1 21.333333333333332 117.33333333333333V26.666666666666664a5.333333333333333 5.333333333333333 0 0 1 5.333333333333333 -5.333333333333333h138.66666666666666a5.333333333333333 5.333333333333333 0 0 1 5.333333333333333 5.333333333333333v76.26666666666667a5.4399999999999995 5.4399999999999995 0 0 0 2.1333333333333333 4.266666666666667 5.546666666666667 5.546666666666667 0 0 0 4.8 0.8533333333333333 28.8 28.8 0 0 1 9.066666666666666 -1.3866666666666667 5.4399999999999995 5.4399999999999995 0 0 0 5.333333333333333 -5.333333333333333V21.333333333333332a21.333333333333332 21.333333333333332 0 0 0 -21.333333333333332 -21.333333333333332H21.333333333333332a21.333333333333332 21.333333333333332 0 0 0 -21.333333333333332 21.333333333333332v112a21.333333333333332 21.333333333333332 0 0 0 21.333333333333332 21.333333333333332h58.666666666666664a5.333333333333333 5.333333333333333 0 0 1 5.333333333333333 5.333333333333333v5.333333333333333a5.333333333333333 5.333333333333333 0 0 1 -5.333333333333333 5.333333333333333H53.33333333333333a10.666666666666666 10.666666666666666 0 0 0 0 21.333333333333332h66.34666666666666a5.333333333333333 5.333333333333333 0 0 0 4.693333333333333 -2.88Z" fill="#ffffff" stroke-width="10.6667"></path>
    <path d="m254.29333333333332 233.70666666666665 -53.97333333333333 -102.82666666666667a15.466666666666665 15.466666666666665 0 0 0 -27.306666666666665 0l-53.97333333333333 102.82666666666667A15.253333333333332 15.253333333333332 0 0 0 132.69333333333333 256h107.94666666666666a15.466666666666665 15.466666666666665 0 0 0 13.12 -7.359999999999999 15.253333333333332 15.253333333333332 0 0 0 0.5333333333333333 -14.933333333333332Zm-67.62666666666667 3.626666666666667a10.666666666666666 10.666666666666666 0 1 1 10.666666666666666 -10.666666666666666 10.666666666666666 10.666666666666666 0 0 1 -10.666666666666666 10.666666666666666Zm10.666666666666666 -37.33333333333333a8 8 0 0 1 -16 0v-32a8 8 0 0 1 16 0Z" fill="#ffffff" stroke-width="10.6667"></path>
  </g>
</svg>