<svg xmlns="http://www.w3.org/2000/svg" viewBox="0 0 256 256" id="Move-To-Bottom--Streamline-Ultimate" height="256" width="256">
  <desc>
    Move To Bottom Streamline Icon: https://streamlinehq.com
  </desc>
  <g id="Move-To-Bottom--Streamline-Ultimate.svg">
    <path d="M170.02666666666664 150.82666666666665a8 8 0 0 0 -13.226666666666667 5.546666666666667l-4.693333333333333 71.25333333333333a8.213333333333333 8.213333333333333 0 0 0 2.7733333333333334 6.613333333333333 7.893333333333333 7.893333333333333 0 0 0 6.933333333333334 1.7066666666666666l69.75999999999999 -15.466666666666665a7.893333333333333 7.893333333333333 0 0 0 6.079999999999999 -5.866666666666667 8.106666666666666 8.106666666666666 0 0 0 -2.5599999999999996 -8L213.33333333333331 187.62666666666667a2.88 2.88 0 0 1 -0.7466666666666667 -3.1999999999999997A154.45333333333332 154.45333333333332 0 0 0 190.61333333333334 21.333333333333332a16 16 0 0 0 -24.426666666666666 20.69333333333333 121.81333333333333 121.81333333333333 0 0 1 21.333333333333332 118.82666666666667 2.88 2.88 0 0 1 -1.92 1.5999999999999999 2.1333333333333333 2.1333333333333333 0 0 1 -2.3466666666666667 -0.5333333333333333Z" fill="#ffffff" stroke-width="10.6667"></path>
    <path d="M33.49333333333333 74.66666666666666h44.05333333333333A15.253333333333332 15.253333333333332 0 0 0 92.79999999999998 59.30666666666666V15.253333333333332A15.253333333333332 15.253333333333332 0 0 0 77.54666666666665 0H33.49333333333333A15.253333333333332 15.253333333333332 0 0 0 18.133333333333333 15.253333333333332v44.05333333333333A15.253333333333332 15.253333333333332 0 0 0 33.49333333333333 74.66666666666666Zm5.973333333333334 -50.666666666666664A2.6666666666666665 2.6666666666666665 0 0 1 42.666666666666664 21.333333333333332h26.666666666666664a2.6666666666666665 2.6666666666666665 0 0 1 2.6666666666666665 2.6666666666666665v26.666666666666664a2.6666666666666665 2.6666666666666665 0 0 1 -3.1999999999999997 2.6666666666666665H42.666666666666664a2.6666666666666665 2.6666666666666665 0 0 1 -2.6666666666666665 -2.6666666666666665Z" fill="#ffffff" stroke-width="10.6667"></path>
    <path d="M18.133333333333333 149.97333333333333a15.253333333333332 15.253333333333332 0 0 0 15.36 15.36h44.05333333333333a15.253333333333332 15.253333333333332 0 0 0 15.253333333333332 -15.36V105.91999999999999A15.253333333333332 15.253333333333332 0 0 0 77.54666666666665 90.66666666666666H33.49333333333333A15.253333333333332 15.253333333333332 0 0 0 18.133333333333333 105.91999999999999Zm21.333333333333332 -35.306666666666665a2.6666666666666665 2.6666666666666665 0 0 1 3.1999999999999997 -2.6666666666666665h26.666666666666664a2.6666666666666665 2.6666666666666665 0 0 1 2.6666666666666665 2.6666666666666665v26.666666666666664a2.6666666666666665 2.6666666666666665 0 0 1 -2.6666666666666665 2.6666666666666665H42.666666666666664a2.6666666666666665 2.6666666666666665 0 0 1 -2.6666666666666665 -2.6666666666666665Z" fill="#ffffff" stroke-width="10.6667"></path>
    <path d="M33.38666666666666 181.33333333333331h44.16s15.253333333333332 0 15.253333333333332 15.253333333333332v44.16S92.79999999999998 256 77.54666666666665 256H33.38666666666666S18.133333333333333 256 18.133333333333333 240.74666666666667v-44.16S18.133333333333333 181.33333333333331 33.38666666666666 181.33333333333331" fill="#ffffff" stroke-width="10.6667"></path>
  </g>
</svg>