<svg xmlns="http://www.w3.org/2000/svg" id="Move-Expand-Vertical--Streamline-Ultimate" width="256" height="256" viewBox="0 0 256 256"><desc>Move Expand Vertical Streamline Icon: https://streamlinehq.com</desc><g id="Move-Expand-Vertical--Streamline-Ultimate.svg"><path fill="#fff" stroke-width="10.667" d="M38.61333333333333 102.50666666666666a13.226666666666667 13.226666666666667 0 0 0 18.773333333333333 0l68.69333333333333 -68.47999999999999a2.6666666666666665 2.6666666666666665 0 0 1 3.84 0l68.69333333333333 68.47999999999999a13.226666666666667 13.226666666666667 0 1 0 18.773333333333333 -18.773333333333333L137.38666666666666 3.9466666666666663a13.226666666666667 13.226666666666667 0 0 0 -18.773333333333333 0l-80 79.78666666666666a13.226666666666667 13.226666666666667 0 0 0 0 18.773333333333333Z"/><path fill="#fff" stroke-width="10.667" d="M217.38666666666666 153.49333333333334a13.226666666666667 13.226666666666667 0 0 0 -18.773333333333333 0l-68.69333333333333 68.47999999999999a2.6666666666666665 2.6666666666666665 0 0 1 -3.84 0l-68.69333333333333 -68.47999999999999a13.226666666666667 13.226666666666667 0 0 0 -18.773333333333333 18.773333333333333l80 79.78666666666666a13.12 13.12 0 0 0 18.773333333333333 0l80 -79.78666666666666a13.226666666666667 13.226666666666667 0 0 0 0 -18.773333333333333Z"/></g></svg>