<svg xmlns="http://www.w3.org/2000/svg" viewBox="0 0 256 256" id="Move-Down-1--Streamline-Ultimate" height="256" width="256">
  <desc>
    Move Down 1 Streamline Icon: https://streamlinehq.com
  </desc>
  <g id="Move-Down-1--Streamline-Ultimate.svg">
    <path d="M132.90666666666667 7.466666666666666A13.333333333333332 13.333333333333332 0 0 0 119.57333333333334 21.333333333333332v107.94666666666666a2.6666666666666665 2.6666666666666665 0 0 1 -2.6666666666666665 2.6666666666666665H93.86666666666667a10.666666666666666 10.666666666666666 0 0 0 -7.466666666666666 18.24l38.93333333333333 38.93333333333333a10.666666666666666 10.666666666666666 0 0 0 15.04 0l39.04 -38.93333333333333A10.666666666666666 10.666666666666666 0 0 0 181.33333333333331 138.66666666666666a10.666666666666666 10.666666666666666 0 0 0 -9.813333333333333 -6.613333333333333H149.33333333333331a2.6666666666666665 2.6666666666666665 0 0 1 -2.6666666666666665 -2.6666666666666665V21.333333333333332A13.333333333333332 13.333333333333332 0 0 0 132.90666666666667 7.466666666666666Z" fill="#ffffff" stroke-width="10.6667"></path>
    <path d="M253.33333333333331 234.66666666666666a13.333333333333332 13.333333333333332 0 0 0 -13.333333333333332 -13.333333333333332h-224a13.333333333333332 13.333333333333332 0 0 0 0 26.666666666666664h224A13.333333333333332 13.333333333333332 0 0 0 253.33333333333331 234.66666666666666Z" fill="#ffffff" stroke-width="10.6667"></path>
  </g>
</svg>