<svg xmlns="http://www.w3.org/2000/svg" viewBox="0 0 256 256" id="Move-Expand-Vertical--Streamline-Ultimate" height="256" width="256">
  <desc>
    Move Expand Vertical Streamline Icon: https://streamlinehq.com
  </desc>
  <g id="Move-Expand-Vertical--Streamline-Ultimate.svg">
    <path d="M38.61333333333333 102.50666666666666a13.226666666666667 13.226666666666667 0 0 0 18.773333333333333 0l68.69333333333333 -68.47999999999999a2.6666666666666665 2.6666666666666665 0 0 1 3.84 0l68.69333333333333 68.47999999999999a13.226666666666667 13.226666666666667 0 1 0 18.773333333333333 -18.773333333333333L137.38666666666666 3.9466666666666663a13.226666666666667 13.226666666666667 0 0 0 -18.773333333333333 0l-80 79.78666666666666a13.226666666666667 13.226666666666667 0 0 0 0 18.773333333333333Z" fill="#ffffff" stroke-width="10.6667"></path>
    <path d="M217.38666666666666 153.49333333333334a13.226666666666667 13.226666666666667 0 0 0 -18.773333333333333 0l-68.69333333333333 68.47999999999999a2.6666666666666665 2.6666666666666665 0 0 1 -3.84 0l-68.69333333333333 -68.47999999999999a13.226666666666667 13.226666666666667 0 0 0 -18.773333333333333 18.773333333333333l80 79.78666666666666a13.12 13.12 0 0 0 18.773333333333333 0l80 -79.78666666666666a13.226666666666667 13.226666666666667 0 0 0 0 -18.773333333333333Z" fill="#ffffff" stroke-width="10.6667"></path>
  </g>
</svg>