<svg xmlns="http://www.w3.org/2000/svg" viewBox="0 0 256 256" id="Movie-Cinema-Watch--Streamline-Ultimate" height="256" width="256">
  <desc>
    Movie Cinema Watch Streamline Icon: https://streamlinehq.com
  </desc>
  <g id="Movie-Cinema-Watch--Streamline-Ultimate.svg">
    <path d="M224 0H32a32 32 0 0 0 -32 32v96a32 32 0 0 0 32 32h192a32 32 0 0 0 32 -32V32a32 32 0 0 0 -32 -32Zm10.666666666666666 128a10.666666666666666 10.666666666666666 0 0 1 -10.666666666666666 10.666666666666666H32a10.666666666666666 10.666666666666666 0 0 1 -10.666666666666666 -10.666666666666666V32a10.666666666666666 10.666666666666666 0 0 1 10.666666666666666 -10.666666666666666h192a10.666666666666666 10.666666666666666 0 0 1 10.666666666666666 10.666666666666666Z" fill="#ffffff" stroke-width="10.6667"></path>
    <path d="M101.75999999999999 40.42666666666666a3.9466666666666663 3.9466666666666663 0 0 0 -4.373333333333333 0 6.293333333333333 6.293333333333333 0 0 0 -2.0266666666666664 4.8v68.47999999999999a6.293333333333333 6.293333333333333 0 0 0 2.0266666666666664 4.8 3.9466666666666663 3.9466666666666663 0 0 0 4.373333333333333 0.5333333333333333l59.519999999999996 -31.36a9.386666666666667 9.386666666666667 0 0 0 0 -16.32Z" fill="#ffffff" stroke-width="10.6667"></path>
    <path d="M48 192a32 32 0 0 0 -32 32v26.666666666666664a5.333333333333333 5.333333333333333 0 0 0 5.333333333333333 5.333333333333333h53.33333333333333a5.333333333333333 5.333333333333333 0 0 0 5.333333333333333 -5.333333333333333V224a32 32 0 0 0 -32 -32Z" fill="#ffffff" stroke-width="10.6667"></path>
    <path d="M128 192a32 32 0 0 0 -32 32v26.666666666666664a5.333333333333333 5.333333333333333 0 0 0 5.333333333333333 5.333333333333333h53.33333333333333a5.333333333333333 5.333333333333333 0 0 0 5.333333333333333 -5.333333333333333V224a32 32 0 0 0 -32 -32Z" fill="#ffffff" stroke-width="10.6667"></path>
    <path d="M208 192a32 32 0 0 0 -32 32v26.666666666666664a5.333333333333333 5.333333333333333 0 0 0 5.333333333333333 5.333333333333333h53.33333333333333a5.333333333333333 5.333333333333333 0 0 0 5.333333333333333 -5.333333333333333V224a32 32 0 0 0 -32 -32Z" fill="#ffffff" stroke-width="10.6667"></path>
  </g>
</svg>