<svg xmlns="http://www.w3.org/2000/svg" viewBox="0 0 256 256" id="Movies-Sit-Drink--Streamline-Ultimate" height="256" width="256">
  <desc>
    Movies Sit Drink Streamline Icon: https://streamlinehq.com
  </desc>
  <g id="Movies-Sit-Drink--Streamline-Ultimate.svg">
    <path d="M43.519999999999996 130.34666666666666a2.6666666666666665 2.6666666666666665 0 0 0 -2.6666666666666665 -2.3466666666666667H26.666666666666664a5.333333333333333 5.333333333333333 0 0 1 -5.333333333333333 -5.333333333333333v-96a5.333333333333333 5.333333333333333 0 0 1 5.333333333333333 -5.333333333333333h181.33333333333331a5.333333333333333 5.333333333333333 0 0 1 5.333333333333333 5.333333333333333v64a2.6666666666666665 2.6666666666666665 0 0 0 1.1733333333333333 2.2399999999999998 2.453333333333333 2.453333333333333 0 0 0 2.453333333333333 0 42.666666666666664 42.666666666666664 0 0 1 15.253333333333332 -2.7733333333333334 2.453333333333333 2.453333333333333 0 0 0 2.453333333333333 -1.92V21.333333333333332a21.333333333333332 21.333333333333332 0 0 0 -21.333333333333332 -21.333333333333332H21.333333333333332a21.333333333333332 21.333333333333332 0 0 0 -21.333333333333332 21.333333333333332v106.66666666666666a21.333333333333332 21.333333333333332 0 0 0 21.333333333333332 21.333333333333332h21.333333333333332a2.88 2.88 0 0 0 2.0266666666666664 -0.8533333333333333 3.84 3.84 0 0 0 0.6399999999999999 -2.1333333333333333Z" fill="#ffffff" stroke-width="10.6667"></path>
    <path d="M138.66666666666666 77.33333333333333a26.666666666666664 26.666666666666664 0 1 0 53.33333333333333 0 26.666666666666664 26.666666666666664 0 1 0 -53.33333333333333 0" fill="#ffffff" stroke-width="10.6667"></path>
    <path d="M59.626666666666665 232.53333333333333a12.586666666666666 12.586666666666666 0 0 0 11.306666666666667 22.4l27.946666666666665 -17.599999999999998a2.5599999999999996 2.5599999999999996 0 0 0 1.1733333333333333 -2.6666666666666665l-7.68 -23.146666666666665a2.6666666666666665 2.6666666666666665 0 0 0 -1.8133333333333335 -1.7066666666666666 2.88 2.88 0 0 0 -2.453333333333333 0Z" fill="#ffffff" stroke-width="10.6667"></path>
    <path d="M186.24 129.17333333333332a2.6666666666666665 2.6666666666666665 0 0 0 -0.96 -3.413333333333333 37.44 37.44 0 0 0 -53.33333333333333 14.293333333333333 2.6666666666666665 2.6666666666666665 0 0 0 2.453333333333333 3.9466666666666663h42.666666666666664a2.5599999999999996 2.5599999999999996 0 0 0 2.3466666666666667 -1.4933333333333334Z" fill="#ffffff" stroke-width="10.6667"></path>
    <path d="M98.98666666666665 181.33333333333331a2.3466666666666667 2.3466666666666667 0 0 1 2.3466666666666667 2.3466666666666667 25.386666666666663 25.386666666666663 0 0 0 1.1733333333333333 7.466666666666666l20.479999999999997 61.22666666666667A5.333333333333333 5.333333333333333 0 0 0 128 256h85.33333333333333a5.333333333333333 5.333333333333333 0 0 0 5.119999999999999 -3.733333333333333l36.48 -114.56a27.733333333333334 27.733333333333334 0 0 0 1.0666666666666667 -7.253333333333334A23.786666666666665 23.786666666666665 0 0 0 232.2133333333333 106.66666666666666a26.986666666666665 26.986666666666665 0 0 0 -24.319999999999997 15.04l-18.453333333333333 36.8a2.5599999999999996 2.5599999999999996 0 0 1 -2.3466666666666667 1.4933333333333334h-96L96 123.30666666666667a5.866666666666667 5.866666666666667 0 0 0 -1.2799999999999998 -4.16 5.546666666666667 5.546666666666667 0 0 0 -4.053333333333333 -1.8133333333333335h-2.986666666666667a2.7733333333333334 2.7733333333333334 0 0 1 -2.1333333333333333 -1.0666666666666667 2.453333333333333 2.453333333333333 0 0 1 0 -2.2399999999999998 5.653333333333333 5.653333333333333 0 0 1 5.4399999999999995 -4.266666666666667h10.666666666666666a8 8 0 0 0 0 -16h-10.666666666666666a21.333333333333332 21.333333333333332 0 0 0 -21.333333333333332 16.426666666666666l-1.3866666666666667 5.546666666666667a2.7733333333333334 2.7733333333333334 0 0 1 -2.5599999999999996 2.0266666666666664H58.666666666666664a5.546666666666667 5.546666666666667 0 0 0 -4.053333333333333 1.8133333333333335 5.866666666666667 5.866666666666667 0 0 0 -1.2799999999999998 4.16l4.586666666666666 36.266666666666666H53.33333333333333a10.666666666666666 10.666666666666666 0 0 0 -5.866666666666667 1.8133333333333335A10.666666666666666 10.666666666666666 0 0 0 42.666666666666664 170.66666666666666a10.666666666666666 10.666666666666666 0 0 0 10.666666666666666 10.666666666666666Z" fill="#ffffff" stroke-width="10.6667"></path>
  </g>
</svg>