<svg xmlns="http://www.w3.org/2000/svg" viewBox="0 0 256 256" id="Movies-Reel--Streamline-Ultimate" height="256" width="256">
  <desc>
    Movies Reel Streamline Icon: https://streamlinehq.com
  </desc>
  <g id="Movies-Reel--Streamline-Ultimate.svg">
    <path d="M213.33333333333331 192H37.33333333333333a16 16 0 0 1 0 -32H85.33333333333333a2.7733333333333334 2.7733333333333334 0 0 0 2.453333333333333 -1.4933333333333334 2.5599999999999996 2.5599999999999996 0 0 0 0 -2.88 98.02666666666666 98.02666666666666 0 0 1 -10.666666666666666 -15.573333333333332A2.7733333333333334 2.7733333333333334 0 0 0 74.66666666666666 138.66666666666666H37.33333333333333a37.33333333333333 37.33333333333333 0 0 0 0 74.66666666666666H213.33333333333331a10.666666666666666 10.666666666666666 0 0 1 0 21.333333333333332h-96a10.666666666666666 10.666666666666666 0 0 0 0 21.333333333333332h96a32 32 0 0 0 0 -64Z" fill="#ffffff" stroke-width="10.6667"></path>
    <path d="M165.33333333333331 181.33333333333331A90.66666666666666 90.66666666666666 0 1 0 74.66666666666666 90.66666666666666a90.77333333333333 90.77333333333333 0 0 0 90.66666666666666 90.66666666666666Zm40.64 -103.78666666666666a2.6666666666666665 2.6666666666666665 0 0 1 1.4933333333333334 -2.88l19.946666666666665 -7.68a2.6666666666666665 2.6666666666666665 0 0 1 3.52 1.5999999999999999 69.33333333333333 69.33333333333333 0 0 1 0 45.01333333333333 2.6666666666666665 2.6666666666666665 0 0 1 -3.52 1.5999999999999999l-19.946666666666665 -8.533333333333333a2.6666666666666665 2.6666666666666665 0 0 1 -1.4933333333333334 -3.3066666666666666 43.519999999999996 43.519999999999996 0 0 0 0 -25.813333333333333Zm-63.14666666666666 -52.48a69.33333333333333 69.33333333333333 0 0 1 45.01333333333333 0 2.6666666666666665 2.6666666666666665 0 0 1 1.5999999999999999 3.52L181.33333333333331 48.53333333333333a2.6666666666666665 2.6666666666666665 0 0 1 -3.3066666666666666 1.4933333333333334 43.519999999999996 43.519999999999996 0 0 0 -26.24 0 2.6666666666666665 2.6666666666666665 0 0 1 -2.453333333333333 -1.4933333333333334l-7.68 -19.946666666666665a2.6666666666666665 2.6666666666666665 0 0 1 1.1733333333333333 -3.52ZM186.66666666666666 90.66666666666666a21.333333333333332 21.333333333333332 0 1 1 -21.333333333333332 -21.333333333333332 21.333333333333332 21.333333333333332 0 0 1 21.333333333333332 21.333333333333332Zm-45.44 62.08 8.106666666666666 -19.946666666666665a2.6666666666666665 2.6666666666666665 0 0 1 3.3066666666666666 -1.4933333333333334 43.519999999999996 43.519999999999996 0 0 0 26.24 0 2.6666666666666665 2.6666666666666665 0 0 1 3.3066666666666666 1.4933333333333334l7.68 19.946666666666665a2.6666666666666665 2.6666666666666665 0 0 1 -1.5999999999999999 3.52 69.33333333333333 69.33333333333333 0 0 1 -45.01333333333333 0 2.6666666666666665 2.6666666666666665 0 0 1 -2.0266666666666664 -3.52ZM103.25333333333333 66.56l19.946666666666665 8.106666666666666a2.6666666666666665 2.6666666666666665 0 0 1 1.4933333333333334 3.3066666666666666 43.519999999999996 43.519999999999996 0 0 0 0 26.24 2.6666666666666665 2.6666666666666665 0 0 1 -1.4933333333333334 3.3066666666666666l-19.946666666666665 7.68a2.6666666666666665 2.6666666666666665 0 0 1 -3.52 -1.5999999999999999C93.22666666666666 94.08 96 64 103.25333333333333 66.56Z" fill="#ffffff" stroke-width="10.6667"></path>
  </g>
</svg>