<svg xmlns="http://www.w3.org/2000/svg" viewBox="0 0 256 256" id="Multiple-Neutral-2--Streamline-Ultimate" height="256" width="256">
  <desc>
    Multiple Neutral 2 Streamline Icon: https://streamlinehq.com
  </desc>
  <g id="Multiple-Neutral-2--Streamline-Ultimate.svg">
    <path d="M192 154.66666666666666a62.50666666666667 62.50666666666667 0 0 0 -27.839999999999996 6.506666666666666 5.226666666666667 5.226666666666667 0 0 0 -2.88 3.3066666666666666 5.973333333333334 5.973333333333334 0 0 0 0.6399999999999999 4.266666666666667 94.82666666666667 94.82666666666667 0 0 1 14.08 49.919999999999995 5.4399999999999995 5.4399999999999995 0 0 0 5.333333333333333 5.333333333333333h69.33333333333333a5.333333333333333 5.333333333333333 0 0 0 5.333333333333333 -5.333333333333333 64 64 0 0 0 -64 -64Z" fill="#ffffff" stroke-width="10.6667"></path>
    <path d="M151.35999999999999 109.33333333333333a40 40 0 1 0 80 0 40 40 0 1 0 -80 0" fill="#ffffff" stroke-width="10.6667"></path>
    <path d="M29.333333333333332 82.66666666666666a50.666666666666664 50.666666666666664 0 1 0 101.33333333333333 0 50.666666666666664 50.666666666666664 0 1 0 -101.33333333333333 0" fill="#ffffff" stroke-width="10.6667"></path>
    <path d="M160 218.66666666666666a80 80 0 0 0 -160 0 5.333333333333333 5.333333333333333 0 0 0 5.333333333333333 5.333333333333333h149.33333333333331a5.333333333333333 5.333333333333333 0 0 0 5.333333333333333 -5.333333333333333Z" fill="#ffffff" stroke-width="10.6667"></path>
  </g>
</svg>