<svg xmlns="http://www.w3.org/2000/svg" viewBox="0 0 256 256" id="Multiple-Users-1--Streamline-Ultimate" height="256" width="256">
  <desc>
    Multiple Users 1 Streamline Icon: https://streamlinehq.com
  </desc>
  <g id="Multiple-Users-1--Streamline-Ultimate.svg">
    <path d="M55.67999999999999 126.61333333333332a3.093333333333333 3.093333333333333 0 0 1 -1.8133333333333335 -2.453333333333333 2.7733333333333334 2.7733333333333334 0 0 1 1.7066666666666666 -2.5599999999999996 34.239999999999995 34.239999999999995 0 1 0 -26.88 0 2.7733333333333334 2.7733333333333334 0 0 1 1.7066666666666666 2.5599999999999996 3.093333333333333 3.093333333333333 0 0 1 -1.8133333333333335 2.453333333333333A42.666666666666664 42.666666666666664 0 0 0 0 166.50666666666666v32a5.226666666666667 5.226666666666667 0 0 0 5.226666666666667 5.226666666666667h9.493333333333332a2.6666666666666665 2.6666666666666665 0 0 1 2.5599999999999996 2.453333333333333L21.333333333333332 251.2a5.226666666666667 5.226666666666667 0 0 0 5.226666666666667 4.8h32a5.226666666666667 5.226666666666667 0 0 0 5.226666666666667 -4.8l3.84 -45.44a2.6666666666666665 2.6666666666666665 0 0 1 2.5599999999999996 -2.453333333333333h9.493333333333332a5.226666666666667 5.226666666666667 0 0 0 5.226666666666667 -5.226666666666667v-32a42.666666666666664 42.666666666666664 0 0 0 -29.226666666666667 -39.46666666666667Z" fill="#ffffff" stroke-width="10.6667"></path>
    <path d="M227.41333333333333 126.61333333333332a3.093333333333333 3.093333333333333 0 0 1 -1.8133333333333335 -2.453333333333333 2.7733333333333334 2.7733333333333334 0 0 1 1.7066666666666666 -2.5599999999999996 34.239999999999995 34.239999999999995 0 1 0 -26.88 0 2.7733333333333334 2.7733333333333334 0 0 1 1.7066666666666666 2.5599999999999996 3.093333333333333 3.093333333333333 0 0 1 -1.8133333333333335 2.453333333333333 42.666666666666664 42.666666666666664 0 0 0 -28.586666666666666 39.89333333333333v32a5.226666666666667 5.226666666666667 0 0 0 5.226666666666667 5.226666666666667h9.493333333333332a2.6666666666666665 2.6666666666666665 0 0 1 2.5599999999999996 2.453333333333333l3.84 45.44a5.226666666666667 5.226666666666667 0 0 0 5.226666666666667 4.8h32a5.226666666666667 5.226666666666667 0 0 0 5.226666666666667 -4.8l3.84 -45.44a2.6666666666666665 2.6666666666666665 0 0 1 2.5599999999999996 -2.453333333333333h9.493333333333332a5.226666666666667 5.226666666666667 0 0 0 5.226666666666667 -5.226666666666667v-32a42.666666666666664 42.666666666666664 0 0 0 -29.013333333333335 -39.89333333333333Z" fill="#ffffff" stroke-width="10.6667"></path>
    <path d="M140.48 60.16a2.7733333333333334 2.7733333333333334 0 0 1 -1.8133333333333335 -2.453333333333333 2.6666666666666665 2.6666666666666665 0 0 1 1.4933333333333334 -2.5599999999999996 29.013333333333335 29.013333333333335 0 1 0 -24.53333333333333 0 2.6666666666666665 2.6666666666666665 0 0 1 1.4933333333333334 2.5599999999999996 2.7733333333333334 2.7733333333333334 0 0 1 -1.7066666666666666 2.453333333333333 36.906666666666666 36.906666666666666 0 0 0 -24.319999999999997 34.666666666666664v15.786666666666665a5.4399999999999995 5.4399999999999995 0 0 0 1.5999999999999999 3.733333333333333 5.333333333333333 5.333333333333333 0 0 0 3.733333333333333 1.4933333333333334h8.746666666666666a2.6666666666666665 2.6666666666666665 0 0 1 2.5599999999999996 2.3466666666666667l4.4799999999999995 40.42666666666666a5.333333333333333 5.333333333333333 0 0 0 5.226666666666667 4.693333333333333h21.333333333333332a5.333333333333333 5.333333333333333 0 0 0 5.226666666666667 -4.693333333333333l4.4799999999999995 -40.42666666666666a2.6666666666666665 2.6666666666666665 0 0 1 2.5599999999999996 -2.3466666666666667H160a5.226666666666667 5.226666666666667 0 0 0 5.333333333333333 -5.226666666666667V94.82666666666667a36.906666666666666 36.906666666666666 0 0 0 -24.85333333333333 -34.666666666666664Z" fill="#ffffff" stroke-width="10.6667"></path>
  </g>
</svg>