<svg xmlns="http://www.w3.org/2000/svg" viewBox="0 0 256 256" id="Multiple-Actions-Chat--Streamline-Ultimate" height="256" width="256">
  <desc>
    Multiple Actions Chat Streamline Icon: https://streamlinehq.com
  </desc>
  <g id="Multiple-Actions-Chat--Streamline-Ultimate.svg">
    <path d="m154.13333333333333 90.66666666666666 0.5333333333333333 0 0 -0.6399999999999999 -5.333333333333333 -2.2399999999999998a19.52 19.52 0 0 1 -0.6399999999999999 -12.586666666666666 49.28 49.28 0 0 0 13.013333333333332 -37.97333333333333A34.45333333333333 34.45333333333333 0 0 0 128 0a33.17333333333333 33.17333333333333 0 0 0 -14.293333333333333 3.3066666666666666 2.7733333333333334 2.7733333333333334 0 0 0 -1.0666666666666667 3.9466666666666663 53.33333333333333 53.33333333333333 0 0 1 8.959999999999999 29.973333333333333 66.45333333333333 66.45333333333333 0 0 1 -9.92 38.61333333333333 2.3466666666666667 2.3466666666666667 0 0 0 0 2.2399999999999998 2.3466666666666667 2.3466666666666667 0 0 0 1.5999999999999999 1.7066666666666666 190.29333333333332 190.29333333333332 0 0 1 24.21333333333333 10.666666666666666 2.986666666666667 2.986666666666667 0 0 0 1.3866666666666667 0h15.466666666666665Z" fill="#ffffff" stroke-width="10.6667"></path>
    <path d="M101.33333333333333 128a37.22666666666667 37.22666666666667 0 0 1 13.76 -28.8 2.5599999999999996 2.5599999999999996 0 0 0 0.96 -2.453333333333333 2.5599999999999996 2.5599999999999996 0 0 0 -1.5999999999999999 -2.1333333333333333L101.01333333333334 89.6 96 87.78666666666666a19.52 19.52 0 0 1 -0.6399999999999999 -12.586666666666666 49.28 49.28 0 0 0 13.013333333333332 -37.97333333333333A34.45333333333333 34.45333333333333 0 0 0 74.66666666666666 0a34.45333333333333 34.45333333333333 0 0 0 -33.599999999999994 37.22666666666667A48.74666666666667 48.74666666666667 0 0 0 53.86666666666666 74.66666666666666 20.479999999999997 20.479999999999997 0 0 1 53.33333333333333 87.57333333333334l-5.4399999999999995 2.0266666666666664c-21.333333333333332 7.893333333333333 -36.906666666666666 13.546666666666667 -41.70666666666666 23.253333333333334A80.63999999999999 80.63999999999999 0 0 0 0 144a5.333333333333333 5.333333333333333 0 0 0 5.333333333333333 5.333333333333333h93.33333333333333a2.6666666666666665 2.6666666666666665 0 0 0 2.6666666666666665 -2.6666666666666665Z" fill="#ffffff" stroke-width="10.6667"></path>
    <path d="M234.66666666666666 106.66666666666666h-96a21.333333333333332 21.333333333333332 0 0 0 -21.333333333333332 21.333333333333332v74.66666666666666a21.333333333333332 21.333333333333332 0 0 0 21.333333333333332 21.333333333333332h8a2.6666666666666665 2.6666666666666665 0 0 1 2.6666666666666665 2.6666666666666665V245.33333333333331a10.666666666666666 10.666666666666666 0 0 0 6.079999999999999 9.6 10.026666666666666 10.026666666666666 0 0 0 4.586666666666666 1.0666666666666667 10.666666666666666 10.666666666666666 0 0 0 6.613333333333333 -2.3466666666666667L202.66666666666666 224.53333333333333a3.1999999999999997 3.1999999999999997 0 0 1 1.7066666666666666 -0.5333333333333333H234.66666666666666a21.333333333333332 21.333333333333332 0 0 0 21.333333333333332 -21.333333333333332v-74.66666666666666a21.333333333333332 21.333333333333332 0 0 0 -21.333333333333332 -21.333333333333332Zm-41.38666666666666 98.34666666666666 -18.24 14.613333333333333a2.5599999999999996 2.5599999999999996 0 0 1 -2.88 0 2.6666666666666665 2.6666666666666665 0 0 1 -1.4933333333333334 -2.0266666666666664V213.33333333333331a10.666666666666666 10.666666666666666 0 0 0 -10.666666666666666 -10.666666666666666h-18.666666666666664a2.6666666666666665 2.6666666666666665 0 0 1 -2.6666666666666665 -2.6666666666666665v-69.33333333333333a2.6666666666666665 2.6666666666666665 0 0 1 2.6666666666666665 -2.6666666666666665h90.66666666666666a2.6666666666666665 2.6666666666666665 0 0 1 2.6666666666666665 2.6666666666666665v69.33333333333333a2.5599999999999996 2.5599999999999996 0 0 1 -2.6666666666666665 2.6666666666666665h-32a10.666666666666666 10.666666666666666 0 0 0 -6.72 2.3466666666666667Z" fill="#ffffff" stroke-width="10.6667"></path>
    <path d="M160 160h53.33333333333333a8 8 0 0 0 0 -16h-53.33333333333333a8 8 0 0 0 0 16Z" fill="#ffffff" stroke-width="10.6667"></path>
    <path d="M200 178.66666666666666A8.106666666666666 8.106666666666666 0 0 0 192 170.66666666666666h-32a8 8 0 0 0 0 16h32a8.106666666666666 8.106666666666666 0 0 0 8 -8Z" fill="#ffffff" stroke-width="10.6667"></path>
  </g>
</svg>