<svg xmlns="http://www.w3.org/2000/svg" viewBox="0 0 256 256" id="Music-On-Off-1--Streamline-Ultimate" height="256" width="256">
  <desc>
    Music On Off 1 Streamline Icon: https://streamlinehq.com
  </desc>
  <path d="M222.6901333333333 90.24000000000001c-14.268799999999999 -40.959999999999994 -46.87466666666666 -72.88746666666665 -88.12586666666665 -86.29226666666666 -15.786666666666665 -5.5808 -32.349866666666664 6.123733333333334 -32.35946666666666 22.868266666666663v134.5077333333333c-6.718933333333333 -3.275733333333333 -14.098133333333333 -4.972799999999999 -21.57333333333333 -4.962133333333333 -37.36533333333333 -0.0021333333333333334 -60.717866666666666 40.446933333333334 -42.03733333333333 72.8064 18.6816 32.36053333333333 65.3888 32.36266666666666 84.07253333333333 0.004266666666666667 4.261333333333333 -7.379199999999999 6.504533333333333 -15.750399999999999 6.504533333333333 -24.272 0.1056 -1.7237333333333331 0.1056 -3.4528 0 -5.176533333333333V30.914133333333332c32.23253333333333 10.888533333333331 57.5552 36.17066666666666 68.49386666666666 68.38719999999999 3.488 9.797333333333333 16.27413333333333 12.146133333333333 23.01546666666667 4.2272 3.1296 -3.6757333333333335 4.059733333333333 -8.741333333333333 2.440533333333333 -13.288533333333334Z" fill="#ffffff" stroke-width="10.6667"></path>
</svg>