<svg xmlns="http://www.w3.org/2000/svg" viewBox="0 0 256 256" id="Natural-Disaster-Flood--Streamline-Ultimate" height="256" width="256">
  <desc>
    Natural Disaster Flood Streamline Icon: https://streamlinehq.com
  </desc>
  <g id="Natural-Disaster-Flood--Streamline-Ultimate.svg">
    <path d="M252.16 192a10.666666666666666 10.666666666666666 0 0 0 -15.04 1.3866666666666667S213.33333333333331 221.33333333333331 186.66666666666666 221.33333333333331a131.83999999999997 131.83999999999997 0 0 1 -54.72 -12.586666666666666 151.78666666666666 151.78666666666666 0 0 0 -62.61333333333333 -14.08C33.28 194.66666666666666 4.373333333333333 223.25333333333333 3.093333333333333 224a10.666666666666666 10.666666666666666 0 0 0 15.146666666666665 15.146666666666665S42.666666666666664 216 69.33333333333333 216a131.83999999999997 131.83999999999997 0 0 1 54.72 12.586666666666666 151.78666666666666 151.78666666666666 0 0 0 62.61333333333333 14.08c36.586666666666666 0 65.6 -34.346666666666664 66.88 -35.839999999999996a10.666666666666666 10.666666666666666 0 0 0 -1.3866666666666667 -14.826666666666664Z" fill="#ffffff" stroke-width="10.6667"></path>
    <path d="M17.28 181.33333333333331a95.14666666666666 95.14666666666666 0 0 1 52.05333333333333 -18.666666666666664 131.83999999999997 131.83999999999997 0 0 1 54.72 12.586666666666666 151.78666666666666 151.78666666666666 0 0 0 62.61333333333333 14.08c36.05333333333333 0 64.53333333333333 -37.97333333333333 67.19999999999999 -41.599999999999994a10.666666666666666 10.666666666666666 0 0 0 2.1333333333333333 -6.3999999999999995 10.666666666666666 10.666666666666666 0 0 0 -10.666666666666666 -10.666666666666666c-10.666666666666666 0 -16 -6.933333333333334 -16 -21.333333333333332a96 96 0 0 0 -96 -96 85.33333333333333 85.33333333333333 0 0 0 -64 28.586666666666666 18.88 18.88 0 0 0 18.24 30.93333333333333A42.026666666666664 42.026666666666664 0 0 1 96 72a37.33333333333333 37.33333333333333 0 0 1 37.33333333333333 37.33333333333333 36.586666666666666 36.586666666666666 0 0 1 -3.84 16.53333333333333 10.666666666666666 10.666666666666666 0 1 0 19.093333333333334 9.6A58.773333333333326 58.773333333333326 0 0 0 96 50.666666666666664a1.92 1.92 0 0 1 -1.7066666666666666 -1.1733333333333333 1.8133333333333335 1.8133333333333335 0 0 1 0.6399999999999999 -2.0266666666666664 64 64 0 0 1 38.4 -12.799999999999999 74.66666666666666 74.66666666666666 0 0 1 74.66666666666666 74.66666666666666 41.49333333333333 41.49333333333333 0 0 0 16 36.05333333333333 2.453333333333333 2.453333333333333 0 0 1 1.0666666666666667 2.0266666666666664 2.5599999999999996 2.5599999999999996 0 0 1 -1.0666666666666667 1.92 59.84 59.84 0 0 1 -37.013333333333335 18.453333333333333 131.83999999999997 131.83999999999997 0 0 1 -54.72 -12.586666666666666 151.78666666666666 151.78666666666666 0 0 0 -62.93333333333334 -13.866666666666667 117.33333333333333 117.33333333333333 0 0 0 -65.38666666666666 23.68 10.666666666666666 10.666666666666666 0 0 0 -1.5999999999999999 15.04 10.666666666666666 10.666666666666666 0 0 0 14.933333333333332 1.2799999999999998Z" fill="#ffffff" stroke-width="10.6667"></path>
  </g>
</svg>