<svg xmlns="http://www.w3.org/2000/svg" viewBox="0 0 256 256" id="Natural-Disaster-Hurricane--Streamline-Ultimate" height="256" width="256">
  <desc>
    Natural Disaster Hurricane Streamline Icon: https://streamlinehq.com
  </desc>
  <g id="Natural-Disaster-Hurricane--Streamline-Ultimate.svg">
    <path d="M229.33333333333331 5.333333333333333h-192a10.666666666666666 10.666666666666666 0 0 0 0 21.333333333333332h192a10.666666666666666 10.666666666666666 0 0 0 0 -21.333333333333332Z" fill="#ffffff" stroke-width="10.6667"></path>
    <path d="M202.66666666666666 64a10.666666666666666 10.666666666666666 0 0 0 0 -21.333333333333332H64a10.666666666666666 10.666666666666666 0 0 0 0 21.333333333333332Z" fill="#ffffff" stroke-width="10.6667"></path>
    <path d="M181.33333333333331 90.66666666666666a10.666666666666666 10.666666666666666 0 0 0 -10.666666666666666 -10.666666666666666H26.666666666666664a10.666666666666666 10.666666666666666 0 0 0 0 21.333333333333332H170.66666666666666a10.666666666666666 10.666666666666666 0 0 0 10.666666666666666 -10.666666666666666Z" fill="#ffffff" stroke-width="10.6667"></path>
    <path d="M202.66666666666666 128a10.666666666666666 10.666666666666666 0 0 0 -10.666666666666666 -10.666666666666666H74.66666666666666a10.666666666666666 10.666666666666666 0 0 0 0 21.333333333333332h117.33333333333333a10.666666666666666 10.666666666666666 0 0 0 10.666666666666666 -10.666666666666666Z" fill="#ffffff" stroke-width="10.6667"></path>
    <path d="M224 165.33333333333331a10.666666666666666 10.666666666666666 0 0 0 -10.666666666666666 -10.666666666666666h-96a10.666666666666666 10.666666666666666 0 0 0 0 21.333333333333332h96a10.666666666666666 10.666666666666666 0 0 0 10.666666666666666 -10.666666666666666Z" fill="#ffffff" stroke-width="10.6667"></path>
    <path d="M224 192h-69.33333333333333a10.666666666666666 10.666666666666666 0 0 0 0 21.333333333333332H224a10.666666666666666 10.666666666666666 0 0 0 0 -21.333333333333332Z" fill="#ffffff" stroke-width="10.6667"></path>
    <path d="M181.33333333333331 229.33333333333331h-21.333333333333332a10.666666666666666 10.666666666666666 0 0 0 0 21.333333333333332h21.333333333333332a10.666666666666666 10.666666666666666 0 0 0 0 -21.333333333333332Z" fill="#ffffff" stroke-width="10.6667"></path>
  </g>
</svg>