<svg xmlns="http://www.w3.org/2000/svg" id="Natural-Disaster-Volcano--Streamline-Ultimate" width="256" height="256" viewBox="0 0 256 256"><desc>Natural Disaster Volcano Streamline Icon: https://streamlinehq.com</desc><g id="Natural-Disaster-Volcano--Streamline-Ultimate.svg"><path fill="#fff" stroke-width="10.667" d="M66.77333333333333 27.839999999999996C87.57333333333334 41.06666666666666 96 54.39999999999999 96 73.81333333333333a10.666666666666666 10.666666666666666 0 1 0 21.333333333333332 0C117.33333333333333 39.25333333333333 96 21.333333333333332 78.18666666666667 9.813333333333333a10.666666666666666 10.666666666666666 0 1 0 -11.413333333333334 18.026666666666664Z"/><path fill="#fff" stroke-width="10.667" d="M32.64 110.39999999999999a29.759999999999998 29.759999999999998 0 0 1 41.70666666666666 0A10.666666666666666 10.666666666666666 0 0 0 89.6 96a50.346666666666664 50.346666666666664 0 0 0 -72.21333333333332 0 10.666666666666666 10.666666666666666 0 0 0 0 15.04 10.666666666666666 10.666666666666666 0 0 0 15.253333333333332 -0.6399999999999999Z"/><path fill="#fff" stroke-width="10.667" d="M149.33333333333331 84.47999999999999a10.666666666666666 10.666666666666666 0 0 0 10.666666666666666 -10.666666666666666c0 -19.413333333333334 8.533333333333333 -32.74666666666666 29.226666666666667 -45.97333333333333A10.666666666666666 10.666666666666666 0 0 0 177.81333333333333 9.813333333333333C160 21.333333333333332 138.66666666666666 39.25333333333333 138.66666666666666 73.81333333333333a10.666666666666666 10.666666666666666 0 0 0 10.666666666666666 10.666666666666666Z"/><path fill="#fff" stroke-width="10.667" d="M166.61333333333332 110.50666666666666a10.666666666666666 10.666666666666666 0 0 0 15.04 0 29.759999999999998 29.759999999999998 0 0 1 41.70666666666666 0 10.666666666666666 10.666666666666666 0 0 0 15.146666666666665 0 10.666666666666666 10.666666666666666 0 0 0 0 -15.04A50.346666666666664 50.346666666666664 0 0 0 166.39999999999998 96a10.666666666666666 10.666666666666666 0 0 0 0.21333333333333332 14.506666666666668Z"/><path fill="#fff" stroke-width="10.667" d="M251.2 227.30666666666664c-25.386666666666663 -17.813333333333333 -68.90666666666667 -53.33333333333333 -76.05333333333333 -88.21333333333332a11.306666666666667 11.306666666666667 0 0 0 -10.666666666666666 -9.173333333333332H146.13333333333333a5.333333333333333 5.333333333333333 0 0 0 -4.4799999999999995 2.6666666666666665L131.83999999999997 149.33333333333331a3.84 3.84 0 0 0 3.1999999999999997 5.653333333333333 16 16 0 0 1 14.186666666666667 8.64 16.106666666666666 16.106666666666666 0 0 1 -1.1733333333333333 16.64L124.26666666666667 213.33333333333331a10.666666666666666 10.666666666666666 0 0 1 -8.64 4.4799999999999995 10.666666666666666 10.666666666666666 0 0 1 -6.186666666666666 -2.0266666666666664A10.666666666666666 10.666666666666666 0 0 1 106.66666666666666 200.53333333333333l14.506666666666668 -20.266666666666666a2.7733333333333334 2.7733333333333334 0 0 0 -2.3466666666666667 -4.4799999999999995 16 16 0 0 1 -13.653333333333332 -24.21333333333333l10.666666666666666 -17.599999999999998a2.453333333333333 2.453333333333333 0 0 0 0 -2.6666666666666665 2.453333333333333 2.453333333333333 0 0 0 -2.2399999999999998 -1.3866666666666667H91.41333333333333a11.306666666666667 11.306666666666667 0 0 0 -11.2 10.026666666666666C76.16 176 26.24 213.33333333333331 5.013333333333333 227.2a10.666666666666666 10.666666666666666 0 0 0 -4.4799999999999995 12.586666666666666 11.2 11.2 0 0 0 10.666666666666666 8.106666666666666h233.49333333333334a11.306666666666667 11.306666666666667 0 0 0 6.506666666666666 -20.586666666666666Z"/></g></svg>