<svg xmlns="http://www.w3.org/2000/svg" viewBox="0 0 256 256" id="Navigation-Arrows-Left-1--Streamline-Ultimate" height="256" width="256">
  <desc>
    Navigation Arrows Left 1 Streamline Icon: https://streamlinehq.com
  </desc>
  <g id="Navigation-Arrows-Left-1--Streamline-Ultimate.svg">
    <path d="M163.30666666666667 234.66666666666666v-16a8.106666666666666 8.106666666666666 0 0 0 -2.986666666666667 -6.293333333333333L68.8 138.66666666666666a13.653333333333332 13.653333333333332 0 0 1 0 -20.69333333333333L160 43.519999999999996a7.893333333333333 7.893333333333333 0 0 0 2.986666666666667 -6.186666666666666V21.333333333333332a13.333333333333332 13.333333333333332 0 0 0 -21.333333333333332 -10.666666666666666L6.3999999999999995 117.33333333333333a13.76 13.76 0 0 0 0 21.333333333333332l135.35999999999999 106.66666666666666a13.226666666666667 13.226666666666667 0 0 0 14.08 1.4933333333333334 13.44 13.44 0 0 0 7.466666666666666 -12.159999999999998Z" fill="#ffffff" stroke-width="10.6667"></path>
    <path d="M97.6 117.33333333333333a13.76 13.76 0 0 0 0 21.333333333333332l135.35999999999999 106.66666666666666a13.226666666666667 13.226666666666667 0 0 0 14.08 1.4933333333333334 13.44 13.44 0 0 0 7.466666666666666 -11.946666666666667V21.333333333333332a13.333333333333332 13.333333333333332 0 0 0 -21.333333333333332 -10.666666666666666Z" fill="#ffffff" stroke-width="10.6667"></path>
  </g>
</svg>