<svg xmlns="http://www.w3.org/2000/svg" viewBox="0 0 256 256" id="Navigation-Menu-Horizontal-1--Streamline-Ultimate" height="256" width="256">
  <desc>
    Navigation Menu Horizontal 1 Streamline Icon: https://streamlinehq.com
  </desc>
  <path d="M128 0a128 128 0 1 0 128 128A128 128 0 0 0 128 0ZM90.66666666666666 128a21.333333333333332 21.333333333333332 0 1 1 -21.333333333333332 -21.333333333333332 21.333333333333332 21.333333333333332 0 0 1 21.333333333333332 21.333333333333332Zm37.33333333333333 -21.333333333333332a21.333333333333332 21.333333333333332 0 1 1 -21.333333333333332 21.333333333333332 21.333333333333332 21.333333333333332 0 0 1 21.333333333333332 -21.333333333333332Zm58.666666666666664 42.666666666666664a21.333333333333332 21.333333333333332 0 1 1 21.333333333333332 -21.333333333333332 21.333333333333332 21.333333333333332 0 0 1 -21.333333333333332 21.333333333333332Z" fill="#ffffff" stroke-width="10.6667"></path>
</svg>