<svg xmlns="http://www.w3.org/2000/svg" id="Navigation-Menu--Streamline-Ultimate" width="256" height="256" viewBox="0 0 256 256"><desc>Navigation Menu Streamline Icon: https://streamlinehq.com</desc><g id="Navigation-Menu--Streamline-Ultimate.svg"><path fill="#fff" stroke-width="10.667" d="M16 26.666666666666664h224s10.666666666666666 0 10.666666666666666 10.666666666666666v10.666666666666666s0 10.666666666666666 -10.666666666666666 10.666666666666666h-224s-10.666666666666666 0 -10.666666666666666 -10.666666666666666v-10.666666666666666s0 -10.666666666666666 10.666666666666666 -10.666666666666666"/><path fill="#fff" stroke-width="10.667" d="M16 112h224s10.666666666666666 0 10.666666666666666 10.666666666666666v10.666666666666666s0 10.666666666666666 -10.666666666666666 10.666666666666666h-224s-10.666666666666666 0 -10.666666666666666 -10.666666666666666v-10.666666666666666s0 -10.666666666666666 10.666666666666666 -10.666666666666666"/><path fill="#fff" stroke-width="10.667" d="M16 197.33333333333331h224s10.666666666666666 0 10.666666666666666 10.666666666666666v10.666666666666666s0 10.666666666666666 -10.666666666666666 10.666666666666666h-224s-10.666666666666666 0 -10.666666666666666 -10.666666666666666v-10.666666666666666s0 -10.666666666666666 10.666666666666666 -10.666666666666666"/></g></svg>