<svg xmlns="http://www.w3.org/2000/svg" id="Navigation-Direction-Left-Forward--Streamline-Ultimate" width="256" height="256" fill="none" viewBox="0 0 256 256"><desc>Navigation Direction Left Forward Streamline Icon: https://streamlinehq.com</desc><path fill="#fff" fill-rule="evenodd" stroke-width="10.667" d="M98.32533333333333 58.50666666666667a10.666666666666666 10.666666666666666 0 1 0 -14.805333333333332 -15.36L4.4159999999999995 119.31733333333332a10.666666666666666 10.666666666666666 0 0 0 0 15.36L83.52 210.88a10.666666666666666 10.666666666666666 0 0 0 14.805333333333332 -15.36l-71.14666666666666 -68.50133333333332 71.14666666666666 -68.50133333333332Zm49.86666666666666 -16.362666666666666a8 8 0 0 1 4.864 7.359999999999999V85.22666666666666h12.874666666666666c49.13066666666666 0 89.472 40.34133333333333 89.472 89.472v26.837333333333333c0 3.3066666666666666 -1.1413333333333333 6.688 -3.7119999999999997 9.258666666666667a12.96 12.96 0 0 1 -9.258666666666667 3.701333333333333h-0.992c-3.594666666666667 0 -6.517333333333333 -1.7066666666666666 -8.384 -3.584a12.031999999999998 12.031999999999998 0 0 1 -3.584 -7.925333333333333c-1.7493333333333334 -18.890666666666664 -17.375999999999998 -34.19733333333333 -36.714666666666666 -34.19733333333333h-39.70133333333333v35.72266666666667a8 8 0 0 1 -13.546666666666667 5.76l-80.47999999999999 -77.50399999999999a8 8 0 0 1 0 -11.52L139.50933333333333 43.73333333333333a8 8 0 0 1 8.682666666666666 -1.5999999999999999Z" clip-rule="evenodd"/></svg>