<svg xmlns="http://www.w3.org/2000/svg" fill="none" viewBox="0 0 256 256" id="Nc-Content-Sign--Streamline-Ultimate" height="256" width="256">
  <desc>
    Nc Content Sign Streamline Icon: https://streamlinehq.com
  </desc>
  <path fill="#ffffff" fill-rule="evenodd" d="M45.397333333333336 60.50133333333333A106.22933333333333 106.22933333333333 0 0 0 21.333333333333332 128c0 58.91199999999999 47.754666666666665 106.66666666666666 106.66666666666666 106.66666666666666 25.599999999999998 0 49.10933333333333 -9.024 67.49866666666667 -24.063999999999997l-22.016 -22.016a10.666666666666666 10.666666666666666 0 0 1 15.082666666666665 -15.093333333333334l22.016 22.026666666666664A106.22933333333333 106.22933333333333 0 0 0 234.66666666666666 128c0 -58.91199999999999 -47.754666666666665 -106.66666666666666 -106.66666666666666 -106.66666666666666a106.22933333333333 106.22933333333333 0 0 0 -67.52 24.08533333333333l22.4 22.4a10.666666666666666 10.666666666666666 0 0 1 -15.082666666666665 15.093333333333334l-22.4 -22.4ZM0 128C0 57.312 57.312 0 128 0s128 57.312 128 128 -57.312 128 -128 128S0 198.688 0 128Zm139.51999999999998 -35.007999999999996a23.808 23.808 0 0 0 -11.52 -2.2399999999999998c-6.794666666666666 0 -12.479999999999999 2.0586666666666664 -16.24533333333333 4.874666666666666 -3.754666666666666 2.816 -5.087999999999999 5.898666666666667 -5.087999999999999 8.448 0 2.5279999999999996 1.3439999999999999 5.621333333333333 5.119999999999999 8.458666666666666 3.765333333333333 2.8266666666666667 9.461333333333332 4.896 16.21333333333333 4.896 10.890666666666664 0 21.183999999999997 3.264 28.991999999999997 9.088 7.818666666666666 5.834666666666667 13.653333333333332 14.719999999999999 13.653333333333332 25.471999999999998 0 10.730666666666666 -5.824 19.648 -13.632 25.503999999999998a46.10133333333333 46.10133333333333 0 0 1 -18.346666666666664 8.085333333333333v6.3999999999999995a10.666666666666666 10.666666666666666 0 1 1 -21.333333333333332 0v-6.250666666666666a45.16266666666667 45.16266666666667 0 0 1 -26.656 -16.85333333333333 10.666666666666666 10.666666666666666 0 0 1 16.981333333333332 -12.906666666666666A23.808 23.808 0 0 0 128 165.33333333333331c6.741333333333333 0 12.437333333333331 -2.0693333333333332 16.21333333333333 -4.906666666666666 3.765333333333333 -2.816 5.0986666666666665 -5.92 5.0986666666666665 -8.437333333333333 0 -2.5066666666666664 -1.3226666666666667 -5.568 -5.077333333333333 -8.373333333333333 -3.765333333333333 -2.8053333333333335 -9.461333333333332 -4.8533333333333335 -16.234666666666666 -4.8533333333333335 -10.922666666666666 0 -21.226666666666667 -3.3066666666666666 -29.024 -9.173333333333332C91.15733333333333 123.73333333333332 85.33333333333333 114.81599999999999 85.33333333333333 104.07466666666666c0 -10.730666666666666 5.802666666666667 -19.648 13.621333333333332 -25.503999999999998A46.05866666666666 46.05866666666666 0 0 1 117.33333333333333 70.48533333333333v-6.4639999999999995a10.666666666666666 10.666666666666666 0 1 1 21.333333333333332 0v6.335999999999999a45.13066666666666 45.13066666666666 0 0 1 26.634666666666664 16.832 10.666666666666666 10.666666666666666 0 0 1 -16.981333333333332 12.917333333333334 23.808 23.808 0 0 0 -8.799999999999999 -7.1146666666666665Z" clip-rule="evenodd" stroke-width="10.6667"></path>
</svg>