<svg xmlns="http://www.w3.org/2000/svg" viewBox="0 0 256 256" id="Network-Pin--Streamline-Ultimate" height="256" width="256">
  <desc>
    Network Pin Streamline Icon: https://streamlinehq.com
  </desc>
  <g id="Network-Pin--Streamline-Ultimate.svg">
    <path d="M136.2133333333333 236.69333333333333a102.93333333333334 102.93333333333334 0 0 1 -42.666666666666664 -50.02666666666667h21.333333333333332a10.666666666666666 10.666666666666666 0 0 0 0 -21.333333333333332H86.50666666666666a156.90666666666667 156.90666666666667 0 0 1 -4.266666666666667 -37.33333333333333A162.02666666666664 162.02666666666664 0 0 1 85.33333333333333 96l154.56 0a10.666666666666666 10.666666666666666 0 0 0 9.493333333333332 -14.719999999999999A128 128 0 0 0 129.6 0C49.38666666666666 5.226666666666667 6.186666666666666 64.96 2.5599999999999996 119.03999999999999A128 128 0 0 0 130.24 256a10.666666666666666 10.666666666666666 0 0 0 10.666666666666666 -8.64 10.666666666666666 10.666666666666666 0 0 0 -4.693333333333333 -10.666666666666666ZM64.63999999999999 165.33333333333331H30.4A106.13333333333333 106.13333333333333 0 0 1 28.479999999999997 96H64a184.74666666666667 184.74666666666667 0 0 0 -2.6666666666666665 32 189.01333333333332 189.01333333333332 0 0 0 3.3066666666666666 37.33333333333333Zm65.6 -142.18666666666667A107.94666666666666 107.94666666666666 0 0 1 169.06666666666666 74.66666666666666H91.30666666666667a107.30666666666667 107.30666666666667 0 0 1 38.93333333333333 -51.519999999999996ZM222.61333333333334 74.66666666666666H192a138.66666666666666 138.66666666666666 0 0 0 -25.599999999999998 -47.14666666666666A104.96 104.96 0 0 1 222.61333333333334 74.66666666666666Zm-128 -46.93333333333334A137.92 137.92 0 0 0 68.8 74.66666666666666H37.97333333333333a107.62666666666667 107.62666666666667 0 0 1 56.10666666666666 -46.93333333333334Zm-53.33333333333333 158.93333333333334h29.226666666666667a133.86666666666667 133.86666666666667 0 0 0 23.57333333333333 41.49333333333333 106.66666666666666 106.66666666666666 0 0 1 -52.8 -41.49333333333333Z" fill="#ffffff" stroke-width="10.6667"></path>
    <path d="M200.42666666666665 117.33333333333333a53.33333333333333 53.33333333333333 0 0 0 -53.33333333333333 53.33333333333333c0 33.81333333333333 47.57333333333333 81.70666666666666 49.6 83.73333333333332a5.226666666666667 5.226666666666667 0 0 0 3.733333333333333 1.5999999999999999 5.4399999999999995 5.4399999999999995 0 0 0 3.84 -1.5999999999999999c1.92 -2.0266666666666664 49.493333333333325 -49.919999999999995 49.493333333333325 -83.73333333333332a53.33333333333333 53.33333333333333 0 0 0 -53.33333333333333 -53.33333333333333Zm0 34.666666666666664A18.666666666666664 18.666666666666664 0 1 1 181.33333333333331 170.66666666666666a18.666666666666664 18.666666666666664 0 0 1 19.093333333333334 -18.666666666666664Z" fill="#ffffff" stroke-width="10.6667"></path>
  </g>
</svg>