<svg xmlns="http://www.w3.org/2000/svg" viewBox="0 0 256 256" id="Network-Warning--Streamline-Ultimate" height="256" width="256">
  <desc>
    Network Warning Streamline Icon: https://streamlinehq.com
  </desc>
  <g id="Network-Warning--Streamline-Ultimate.svg">
    <path d="M109.33333333333333 218.13333333333333a2.88 2.88 0 0 0 0 -2.7733333333333334 245.33333333333331 245.33333333333331 0 0 1 -15.786666666666665 -24.746666666666663 2.6666666666666665 2.6666666666666665 0 0 1 0 -2.6666666666666665 2.5599999999999996 2.5599999999999996 0 0 1 2.453333333333333 -1.2799999999999998h22.4a10.666666666666666 10.666666666666666 0 0 0 10.666666666666666 -8.533333333333333s0 -0.8533333333333333 0 -1.1733333333333333a10.666666666666666 10.666666666666666 0 0 0 -10.666666666666666 -11.626666666666667h-32a2.5599999999999996 2.5599999999999996 0 0 1 -2.5599999999999996 -2.0266666666666664A153.6 153.6 0 0 1 79.89333333333333 128a169.81333333333333 169.81333333333333 0 0 1 2.6666666666666665 -29.866666666666664A2.88 2.88 0 0 1 85.33333333333333 96l152.32 0a9.92 9.92 0 0 0 9.6 -14.186666666666667A128 128 0 0 0 127.25333333333333 0 130.66666666666666 130.66666666666666 0 0 0 0 125.86666666666667a128 128 0 0 0 99.62666666666667 126.93333333333334 2.88 2.88 0 0 0 2.5599999999999996 -0.8533333333333333 2.6666666666666665 2.6666666666666665 0 0 0 0.5333333333333333 -2.6666666666666665c-2.1333333333333333 -6.293333333333333 -2.1333333333333333 -14.613333333333333 6.613333333333333 -31.146666666666665ZM169.92 32a2.5599999999999996 2.5599999999999996 0 0 1 3.093333333333333 -0.6399999999999999 104.85333333333332 104.85333333333332 0 0 1 44.8 39.25333333333333 2.6666666666666665 2.6666666666666665 0 0 1 -2.2399999999999998 4.053333333333333h-24.319999999999997a2.7733333333333334 2.7733333333333334 0 0 1 -2.5599999999999996 -1.8133333333333335 140.05333333333334 140.05333333333334 0 0 0 -18.88 -37.54666666666667 2.5599999999999996 2.5599999999999996 0 0 1 0.10666666666666666 -3.3066666666666666ZM90.45333333333333 70.93333333333334a108.69333333333333 108.69333333333333 0 0 1 35.839999999999996 -46.72 2.7733333333333334 2.7733333333333334 0 0 1 3.093333333333333 0 108.69333333333333 108.69333333333333 0 0 1 35.839999999999996 46.72 2.453333333333333 2.453333333333333 0 0 1 0 2.5599999999999996 2.6666666666666665 2.6666666666666665 0 0 1 -2.2399999999999998 1.1733333333333333H92.90666666666667a2.7733333333333334 2.7733333333333334 0 0 1 -2.2399999999999998 -1.1733333333333333 3.093333333333333 3.093333333333333 0 0 1 -0.21333333333333332 -2.5599999999999996Zm-52.266666666666666 0A106.66666666666666 106.66666666666666 0 0 1 82.34666666666666 32 2.5599999999999996 2.5599999999999996 0 0 1 85.33333333333333 32a2.5599999999999996 2.5599999999999996 0 0 1 0 3.1999999999999997 140.90666666666667 140.90666666666667 0 0 0 -18.24 37.65333333333333 2.7733333333333334 2.7733333333333334 0 0 1 -2.5599999999999996 1.8133333333333335H40.42666666666666a2.6666666666666665 2.6666666666666665 0 0 1 -2.2399999999999998 -4.053333333333333ZM29.866666666666664 165.33333333333331a2.6666666666666665 2.6666666666666665 0 0 1 -2.453333333333333 -1.8133333333333335A105.81333333333333 105.81333333333333 0 0 1 21.333333333333332 128a103.57333333333334 103.57333333333334 0 0 1 4.266666666666667 -30.08 2.6666666666666665 2.6666666666666665 0 0 1 2.5599999999999996 -1.92h29.866666666666664a2.453333333333333 2.453333333333333 0 0 1 2.0266666666666664 0.96 2.5599999999999996 2.5599999999999996 0 0 1 0.6399999999999999 2.1333333333333333 193.06666666666666 193.06666666666666 0 0 0 0.96 63.04 2.453333333333333 2.453333333333333 0 0 1 0 2.2399999999999998 2.6666666666666665 2.6666666666666665 0 0 1 -2.0266666666666664 0.96ZM85.97333333333333 224a2.5599999999999996 2.5599999999999996 0 0 1 -3.1999999999999997 0.7466666666666667 106.66666666666666 106.66666666666666 0 0 1 -41.06666666666666 -33.81333333333333 2.6666666666666665 2.6666666666666665 0 0 1 0 -2.7733333333333334 2.6666666666666665 2.6666666666666665 0 0 1 2.453333333333333 -1.4933333333333334h22.29333333333333a2.5599999999999996 2.5599999999999996 0 0 1 2.453333333333333 1.7066666666666666 143.46666666666664 143.46666666666664 0 0 0 17.173333333333332 32 2.453333333333333 2.453333333333333 0 0 1 -0.10666666666666666 3.626666666666667Z" fill="#ffffff" stroke-width="10.6667"></path>
    <path d="M200.42666666666665 130.88a15.466666666666665 15.466666666666665 0 0 0 -27.306666666666665 0l-53.86666666666666 102.72a15.146666666666665 15.146666666666665 0 0 0 0 15.04 15.786666666666665 15.786666666666665 0 0 0 13.226666666666667 7.359999999999999h108.26666666666667a15.573333333333332 15.573333333333332 0 0 0 13.12 -7.359999999999999 15.466666666666665 15.466666666666665 0 0 0 0.5333333333333333 -15.04Zm-13.653333333333332 32a7.893333333333333 7.893333333333333 0 0 1 8 8v32a8 8 0 0 1 -16 0V170.66666666666666a8 8 0 0 1 8 -8Zm0 74.66666666666666a10.666666666666666 10.666666666666666 0 1 1 10.666666666666666 -10.666666666666666 10.666666666666666 10.666666666666666 0 0 1 -10.666666666666666 10.453333333333333Z" fill="#ffffff" stroke-width="10.6667"></path>
  </g>
</svg>