<svg xmlns="http://www.w3.org/2000/svg" viewBox="0 0 256 256" id="Network-Users--Streamline-Ultimate" height="256" width="256">
  <desc>
    Network Users Streamline Icon: https://streamlinehq.com
  </desc>
  <g id="Network-Users--Streamline-Ultimate.svg">
    <path d="M19.946666666666665 182.61333333333334a27.093333333333334 27.093333333333334 0 1 0 54.18666666666667 0 27.093333333333334 27.093333333333334 0 1 0 -54.18666666666667 0" fill="#ffffff" stroke-width="10.6667"></path>
    <path d="M47.04 216.10666666666668a44.05333333333333 44.05333333333333 0 0 0 -44.266666666666666 32 5.4399999999999995 5.4399999999999995 0 0 0 2.0266666666666664 5.333333333333333 10.666666666666666 10.666666666666666 0 0 0 6.933333333333334 2.5599999999999996h70.72a10.666666666666666 10.666666666666666 0 0 0 6.826666666666666 -2.3466666666666667 5.4399999999999995 5.4399999999999995 0 0 0 2.0266666666666664 -5.333333333333333 43.946666666666665 43.946666666666665 0 0 0 -44.266666666666666 -32.21333333333333Z" fill="#ffffff" stroke-width="10.6667"></path>
    <path d="M181.86666666666667 182.61333333333334a27.093333333333334 27.093333333333334 0 1 0 27.093333333333334 -26.986666666666665 27.093333333333334 27.093333333333334 0 0 0 -27.093333333333334 26.986666666666665Z" fill="#ffffff" stroke-width="10.6667"></path>
    <path d="M208.95999999999998 216.10666666666668a43.946666666666665 43.946666666666665 0 0 0 -44.266666666666666 32 5.4399999999999995 5.4399999999999995 0 0 0 2.0266666666666664 5.333333333333333 10.666666666666666 10.666666666666666 0 0 0 6.826666666666666 2.3466666666666667h70.72a10.666666666666666 10.666666666666666 0 0 0 6.933333333333334 -2.3466666666666667 5.4399999999999995 5.4399999999999995 0 0 0 2.0266666666666664 -5.333333333333333 44.05333333333333 44.05333333333333 0 0 0 -44.266666666666666 -32Z" fill="#ffffff" stroke-width="10.6667"></path>
    <path d="M128 0a85.33333333333333 85.33333333333333 0 1 0 85.33333333333333 85.33333333333333 85.33333333333333 85.33333333333333 0 0 0 -85.33333333333333 -85.33333333333333Zm65.6 75.84h-29.439999999999998a119.35999999999999 119.35999999999999 0 0 0 -16.746666666666666 -53.97333333333333 66.45333333333333 66.45333333333333 0 0 1 46.18666666666667 53.97333333333333ZM128 143.89333333333332a97.17333333333332 97.17333333333332 0 0 1 -17.173333333333332 -49.06666666666666h34.346666666666664a97.17333333333332 97.17333333333332 0 0 1 -17.173333333333332 49.06666666666666Zm-17.173333333333332 -68.05333333333333A97.17333333333332 97.17333333333332 0 0 1 128 26.77333333333333a97.17333333333332 97.17333333333332 0 0 1 17.173333333333332 49.06666666666666Zm-2.2399999999999998 -53.97333333333333a119.35999999999999 119.35999999999999 0 0 0 -16.746666666666666 53.97333333333333H62.39999999999999a66.45333333333333 66.45333333333333 0 0 1 46.18666666666667 -53.97333333333333ZM62.39999999999999 94.82666666666667h29.439999999999998A119.35999999999999 119.35999999999999 0 0 0 108.58666666666666 149.33333333333331a66.45333333333333 66.45333333333333 0 0 1 -46.18666666666667 -54.50666666666667Zm85.33333333333333 53.97333333333333a119.35999999999999 119.35999999999999 0 0 0 16.746666666666666 -53.97333333333333h29.439999999999998A66.45333333333333 66.45333333333333 0 0 1 147.41333333333333 149.33333333333331Z" fill="#ffffff" stroke-width="10.6667"></path>
  </g>
</svg>