<svg xmlns="http://www.w3.org/2000/svg" id="Network-Search--Streamline-Ultimate" width="256" height="256" viewBox="0 0 256 256"><desc>Network Search Streamline Icon: https://streamlinehq.com</desc><g id="Network-Search--Streamline-Ultimate.svg"><path fill="#fff" stroke-width="10.667" d="M237.76 96a10.666666666666666 10.666666666666666 0 0 0 9.6 -14.186666666666667A128 128 0 0 0 127.35999999999999 0C16.21333333333333 7.573333333333332 0 99.41333333333333 0 128a128 128 0 0 0 119.03999999999999 128 12.693333333333332 12.693333333333332 0 0 0 11.84 -6.826666666666666 12.693333333333332 12.693333333333332 0 0 0 -3.413333333333333 -16 112.42666666666665 112.42666666666665 0 0 1 -34.879999999999995 -42.666666666666664 3.1999999999999997 3.1999999999999997 0 0 1 0 -2.2399999999999998 2.88 2.88 0 0 1 1.5999999999999999 -1.3866666666666667 10.666666666666666 10.666666666666666 0 0 0 7.253333333333334 -10.026666666666666 10.666666666666666 10.666666666666666 0 0 0 -10.666666666666666 -10.666666666666666H86.39999999999999a2.7733333333333334 2.7733333333333334 0 0 1 -2.6666666666666665 -2.1333333333333333A159.04 159.04 0 0 1 80 128a169.81333333333333 169.81333333333333 0 0 1 2.6666666666666665 -29.866666666666664A2.7733333333333334 2.7733333333333334 0 0 1 85.33333333333333 96l152.42666666666665 0ZM30.08 165.33333333333331a2.7733333333333334 2.7733333333333334 0 0 1 -2.5599999999999996 -1.8133333333333335A105.81333333333333 105.81333333333333 0 0 1 21.333333333333332 128a103.57333333333334 103.57333333333334 0 0 1 4.373333333333333 -30.08 2.6666666666666665 2.6666666666666665 0 0 1 2.5599999999999996 -1.92h29.866666666666664a2.7733333333333334 2.7733333333333334 0 0 1 2.6666666666666665 3.093333333333333A186.66666666666666 186.66666666666666 0 0 0 58.666666666666664 128a176.8533333333333 176.8533333333333 0 0 0 3.1999999999999997 34.13333333333333 2.7733333333333334 2.7733333333333334 0 0 1 -0.6399999999999999 2.2399999999999998 2.986666666666667 2.986666666666667 0 0 1 -2.0266666666666664 0.96ZM85.33333333333333 220.37333333333333A2.5599999999999996 2.5599999999999996 0 0 1 85.33333333333333 224a2.6666666666666665 2.6666666666666665 0 0 1 -3.1999999999999997 0.7466666666666667 108.26666666666667 108.26666666666667 0 0 1 -40.53333333333333 -33.38666666666666 2.88 2.88 0 0 1 0 -2.7733333333333334 2.6666666666666665 2.6666666666666665 0 0 1 2.453333333333333 -1.4933333333333334h22.29333333333333a2.6666666666666665 2.6666666666666665 0 0 1 2.5599999999999996 1.7066666666666666A138.66666666666666 138.66666666666666 0 0 0 85.33333333333333 220.37333333333333ZM67.19999999999999 72.85333333333332a2.7733333333333334 2.7733333333333334 0 0 1 -2.5599999999999996 1.8133333333333335H40.53333333333333a2.6666666666666665 2.6666666666666665 0 0 1 -2.3466666666666667 -1.3866666666666667 2.88 2.88 0 0 1 0 -2.7733333333333334A106.66666666666666 106.66666666666666 0 0 1 82.45333333333333 32a2.6666666666666665 2.6666666666666665 0 0 1 2.88 3.626666666666667 140.90666666666667 140.90666666666667 0 0 0 -18.133333333333333 37.22666666666667ZM93.01333333333334 74.66666666666666a2.7733333333333334 2.7733333333333334 0 0 1 -2.2399999999999998 -1.1733333333333333 3.093333333333333 3.093333333333333 0 0 1 0 -2.5599999999999996 107.94666666666666 107.94666666666666 0 0 1 35.839999999999996 -46.72 2.7733333333333334 2.7733333333333334 0 0 1 3.093333333333333 0 107.83999999999999 107.83999999999999 0 0 1 35.626666666666665 46.72 2.453333333333333 2.453333333333333 0 0 1 0 2.5599999999999996 2.6666666666666665 2.6666666666666665 0 0 1 -2.2399999999999998 1.1733333333333333Zm98.34666666666666 0a2.7733333333333334 2.7733333333333334 0 0 1 -2.5599999999999996 -1.8133333333333335 140.05333333333334 140.05333333333334 0 0 0 -18.88 -37.54666666666667 2.5599999999999996 2.5599999999999996 0 0 1 0 -3.3066666666666666 2.6666666666666665 2.6666666666666665 0 0 1 3.093333333333333 -0.7466666666666667 106.66666666666666 106.66666666666666 0 0 1 44.8 39.25333333333333 2.5599999999999996 2.5599999999999996 0 0 1 0 2.7733333333333334 2.6666666666666665 2.6666666666666665 0 0 1 -2.3466666666666667 1.3866666666666667Z"/><path fill="#fff" stroke-width="10.667" d="M225.92 210.77333333333334a2.6666666666666665 2.6666666666666665 0 0 1 0 -3.3066666666666666A58.13333333333333 58.13333333333333 0 0 0 234.66666666666666 176a58.666666666666664 58.666666666666664 0 1 0 -27.199999999999996 49.493333333333325 2.5599999999999996 2.5599999999999996 0 0 1 3.3066666666666666 0l27.093333333333334 27.093333333333334a10.666666666666666 10.666666666666666 0 1 0 15.04 -15.146666666666665ZM176 138.66666666666666a37.33333333333333 37.33333333333333 0 1 1 -37.33333333333333 37.33333333333333 37.33333333333333 37.33333333333333 0 0 1 37.33333333333333 -37.33333333333333Z"/></g></svg>