<svg xmlns="http://www.w3.org/2000/svg" viewBox="0 0 256 256" id="Network-Browser--Streamline-Ultimate" height="256" width="256">
  <desc>
    Network Browser Streamline Icon: https://streamlinehq.com
  </desc>
  <g id="Network-Browser--Streamline-Ultimate.svg">
    <path d="M58.02666666666667 165.33333333333331H32a10.666666666666666 10.666666666666666 0 0 1 -10.666666666666666 -10.666666666666666V64a10.666666666666666 10.666666666666666 0 0 1 10.666666666666666 -10.666666666666666h165.33333333333331a10.666666666666666 10.666666666666666 0 0 1 10.666666666666666 10.666666666666666v5.333333333333333a10.666666666666666 10.666666666666666 0 0 0 21.333333333333332 0V32a32 32 0 0 0 -32 -32H32a32 32 0 0 0 -32 32v122.66666666666666a32 32 0 0 0 32 32h26.026666666666664a10.666666666666666 10.666666666666666 0 1 0 0 -21.333333333333332ZM64 26.666666666666664a10.666666666666666 10.666666666666666 0 1 1 10.666666666666666 10.666666666666666 10.666666666666666 10.666666666666666 0 0 1 -10.666666666666666 -10.666666666666666Zm48 10.666666666666666a10.666666666666666 10.666666666666666 0 1 1 10.666666666666666 -10.666666666666666 10.666666666666666 10.666666666666666 0 0 1 -10.666666666666666 10.666666666666666Zm-64 -10.666666666666666a10.666666666666666 10.666666666666666 0 1 1 -10.666666666666666 -10.666666666666666 10.666666666666666 10.666666666666666 0 0 1 10.666666666666666 10.666666666666666Z" fill="#ffffff" stroke-width="10.6667"></path>
    <path d="M170.66666666666666 85.33333333333333a85.33333333333333 85.33333333333333 0 1 0 85.33333333333333 85.33333333333333 85.33333333333333 85.33333333333333 0 0 0 -85.33333333333333 -85.33333333333333Zm65.6 75.84h-29.439999999999998a119.35999999999999 119.35999999999999 0 0 0 -16.746666666666666 -53.97333333333333 66.45333333333333 66.45333333333333 0 0 1 46.18666666666667 53.97333333333333ZM170.66666666666666 229.22666666666663a97.17333333333332 97.17333333333332 0 0 1 -17.173333333333332 -49.06666666666666h34.346666666666664a97.17333333333332 97.17333333333332 0 0 1 -17.173333333333332 49.06666666666666Zm-17.173333333333332 -68.05333333333333a97.17333333333332 97.17333333333332 0 0 1 17.173333333333332 -49.06666666666666 97.17333333333332 97.17333333333332 0 0 1 17.173333333333332 49.06666666666666Zm-2.2399999999999998 -53.97333333333333a119.35999999999999 119.35999999999999 0 0 0 -16.746666666666666 53.97333333333333H105.06666666666666a66.45333333333333 66.45333333333333 0 0 1 46.18666666666667 -53.97333333333333Zm-46.18666666666667 72.96h29.439999999999998A119.35999999999999 119.35999999999999 0 0 0 151.25333333333333 234.66666666666666a66.45333333333333 66.45333333333333 0 0 1 -46.18666666666667 -54.50666666666667Zm85.33333333333333 53.97333333333333a119.35999999999999 119.35999999999999 0 0 0 16.746666666666666 -53.97333333333333h29.439999999999998A66.45333333333333 66.45333333333333 0 0 1 190.07999999999998 234.66666666666666Z" fill="#ffffff" stroke-width="10.6667"></path>
  </g>
</svg>