<svg xmlns="http://www.w3.org/2000/svg" viewBox="0 0 256 256" id="Network-Signal--Streamline-Ultimate" height="256" width="256">
  <desc>
    Network Signal Streamline Icon: https://streamlinehq.com
  </desc>
  <g id="Network-Signal--Streamline-Ultimate.svg">
    <path d="M145.27999999999997 45.86666666666666a10.666666666666666 10.666666666666666 0 1 0 0 21.333333333333332 44.266666666666666 44.266666666666666 0 0 1 43.30666666666666 43.413333333333334 10.666666666666666 10.666666666666666 0 0 0 21.333333333333332 0 65.81333333333333 65.81333333333333 0 0 0 -64.63999999999999 -64.74666666666667Z" fill="#ffffff" stroke-width="10.6667"></path>
    <path d="M144.42666666666665 0a10.666666666666666 10.666666666666666 0 0 0 -10.666666666666666 10.666666666666666 10.666666666666666 10.666666666666666 0 0 0 10.666666666666666 10.666666666666666A92.05333333333334 92.05333333333334 0 0 1 234.66666666666666 111.46666666666665a10.666666666666666 10.666666666666666 0 0 0 10.666666666666666 10.666666666666666 10.666666666666666 10.666666666666666 0 0 0 10.666666666666666 -10.666666666666666A113.49333333333334 113.49333333333334 0 0 0 144.42666666666665 0Z" fill="#ffffff" stroke-width="10.6667"></path>
    <path d="M85.33333333333333 85.33333333333333a85.33333333333333 85.33333333333333 0 1 0 85.33333333333333 85.33333333333333 85.33333333333333 85.33333333333333 0 0 0 -85.33333333333333 -85.33333333333333Zm65.70666666666666 75.94666666666666h-29.013333333333335a121.17333333333332 121.17333333333332 0 0 0 -16.746666666666666 -53.97333333333333 66.45333333333333 66.45333333333333 0 0 1 46.18666666666667 53.86666666666666ZM85.33333333333333 229.12a97.81333333333333 97.81333333333333 0 0 1 -17.173333333333332 -49.06666666666666h34.879999999999995A96.85333333333332 96.85333333333332 0 0 1 85.33333333333333 229.12Zm-16.746666666666666 -67.94666666666666A98.56 98.56 0 0 1 85.33333333333333 112a97.6 97.6 0 0 1 17.28 49.17333333333333Zm-2.2399999999999998 -53.97333333333333a121.17333333333332 121.17333333333332 0 0 0 -16.746666666666666 53.97333333333333H20.159999999999997a66.45333333333333 66.45333333333333 0 0 1 46.18666666666667 -53.97333333333333Zm-46.18666666666667 72.85333333333332h29.439999999999998a121.17333333333332 121.17333333333332 0 0 0 16.746666666666666 53.97333333333333 66.45333333333333 66.45333333333333 0 0 1 -46.18666666666667 -53.97333333333333Zm85.33333333333333 53.97333333333333a121.17333333333332 121.17333333333332 0 0 0 16.746666666666666 -53.97333333333333h29.226666666666667a66.45333333333333 66.45333333333333 0 0 1 -46.18666666666667 53.97333333333333Z" fill="#ffffff" stroke-width="10.6667"></path>
  </g>
</svg>