<svg xmlns="http://www.w3.org/2000/svg" id="Night-Club-Disco-Ball--Streamline-Ultimate" width="256" height="256" viewBox="0 0 256 256"><desc>Night Club Disco Ball Streamline Icon: https://streamlinehq.com</desc><g id="Night-Club-Disco-Ball--Streamline-Ultimate.svg"><path fill="#fff" stroke-width="10.667" d="M61.33333333333333 149.33333333333331q0 -10.666666666666666 0.96 -21.333333333333332a2.7733333333333334 2.7733333333333334 0 0 0 -0.6399999999999999 -2.0266666666666664 2.88 2.88 0 0 0 -2.0266666666666664 -0.8533333333333333H26.666666666666664a2.7733333333333334 2.7733333333333334 0 0 0 -2.5599999999999996 2.0266666666666664A92.26666666666667 92.26666666666667 0 0 0 21.333333333333332 149.33333333333331a88.21333333333332 88.21333333333332 0 0 0 2.7733333333333334 22.08 2.5599999999999996 2.5599999999999996 0 0 0 2.5599999999999996 2.0266666666666664h32.959999999999994a2.88 2.88 0 0 0 2.0266666666666664 -0.8533333333333333 2.7733333333333334 2.7733333333333334 0 0 0 0.6399999999999999 -1.92q-0.96 -10.666666666666666 -0.96 -21.333333333333332Z"/><path fill="#fff" stroke-width="10.667" d="M145.6 128a2.7733333333333334 2.7733333333333334 0 0 0 -2.6666666666666665 -2.3466666666666667H81.06666666666666a2.7733333333333334 2.7733333333333334 0 0 0 -2.6666666666666665 2.3466666666666667c-0.6399999999999999 6.826666666666666 -1.0666666666666667 14.08 -1.0666666666666667 21.333333333333332s0 14.826666666666664 1.0666666666666667 21.333333333333332a2.7733333333333334 2.7733333333333334 0 0 0 2.6666666666666665 2.3466666666666667h61.86666666666666a2.7733333333333334 2.7733333333333334 0 0 0 2.6666666666666665 -2.3466666666666667c0.6399999999999999 -6.826666666666666 1.0666666666666667 -14.08 1.0666666666666667 -21.333333333333332s-0.42666666666666664 -14.826666666666664 -1.0666666666666667 -21.333333333333332Z"/><path fill="#fff" stroke-width="10.667" d="M197.22666666666663 173.33333333333331a2.7733333333333334 2.7733333333333334 0 0 0 2.6666666666666665 -2.0266666666666664A93.44 93.44 0 0 0 202.66666666666666 149.33333333333331a92.26666666666667 92.26666666666667 0 0 0 -2.6666666666666665 -21.866666666666664 2.7733333333333334 2.7733333333333334 0 0 0 -2.5599999999999996 -2.0266666666666664h-33.06666666666666a2.453333333333333 2.453333333333333 0 0 0 -1.92 0.8533333333333333 2.453333333333333 2.453333333333333 0 0 0 -0.7466666666666667 2.0266666666666664q0.96 10.666666666666666 0.96 21.333333333333332t-0.96 21.333333333333332a2.453333333333333 2.453333333333333 0 0 0 0.7466666666666667 2.0266666666666664 2.453333333333333 2.453333333333333 0 0 0 1.92 0.8533333333333333Z"/><path fill="#fff" stroke-width="10.667" d="M84.26666666666667 189.33333333333331a2.453333333333333 2.453333333333333 0 0 0 -2.3466666666666667 2.88c6.506666666666666 27.839999999999996 18.773333333333333 45.120000000000005 30.08 45.120000000000005s23.46666666666667 -17.173333333333332 29.973333333333333 -44.693333333333335a2.3466666666666667 2.3466666666666667 0 0 0 -0.5333333333333333 -2.2399999999999998 2.7733333333333334 2.7733333333333334 0 0 0 -2.0266666666666664 -1.0666666666666667Z"/><path fill="#fff" stroke-width="10.667" d="M161.27999999999997 189.33333333333331a2.7733333333333334 2.7733333333333334 0 0 0 -2.6666666666666665 2.1333333333333333 126.72 126.72 0 0 1 -12.799999999999999 36.586666666666666 2.6666666666666665 2.6666666666666665 0 0 0 3.413333333333333 3.733333333333333 91.09333333333332 91.09333333333332 0 0 0 41.92 -38.50666666666666 2.6666666666666665 2.6666666666666665 0 0 0 0 -2.6666666666666665 2.5599999999999996 2.5599999999999996 0 0 0 -2.2399999999999998 -1.2799999999999998Z"/><path fill="#fff" stroke-width="10.667" d="M65.38666666666666 192a2.7733333333333334 2.7733333333333334 0 0 0 -2.6666666666666665 -2.1333333333333333H35.199999999999996a2.5599999999999996 2.5599999999999996 0 0 0 -2.2399999999999998 1.2799999999999998 2.6666666666666665 2.6666666666666665 0 0 0 0 2.6666666666666665A91.09333333333332 91.09333333333332 0 0 0 74.66666666666666 231.78666666666666a2.6666666666666665 2.6666666666666665 0 0 0 3.413333333333333 -3.733333333333333A126.72 126.72 0 0 1 65.38666666666666 192Z"/><path fill="#fff" stroke-width="10.667" d="M62.72 109.33333333333333a2.7733333333333334 2.7733333333333334 0 0 0 2.6666666666666665 -2.1333333333333333A127.03999999999999 127.03999999999999 0 0 1 78.29333333333332 70.39999999999999a2.5599999999999996 2.5599999999999996 0 0 0 0 -3.093333333333333 2.5599999999999996 2.5599999999999996 0 0 0 -3.626666666666667 -0.6399999999999999 90.98666666666665 90.98666666666665 0 0 0 -41.92 38.72 2.6666666666666665 2.6666666666666665 0 0 0 0 2.6666666666666665 2.5599999999999996 2.5599999999999996 0 0 0 2.2399999999999998 1.2799999999999998Z"/><path fill="#fff" stroke-width="10.667" d="M158.61333333333332 107.2a2.7733333333333334 2.7733333333333334 0 0 0 2.6666666666666665 2.1333333333333333h27.626666666666665a2.5599999999999996 2.5599999999999996 0 0 0 2.2399999999999998 -1.2799999999999998 2.6666666666666665 2.6666666666666665 0 0 0 0 -2.6666666666666665A90.98666666666665 90.98666666666665 0 0 0 149.33333333333331 66.66666666666666a2.6666666666666665 2.6666666666666665 0 0 0 -3.093333333333333 0.6399999999999999 2.6666666666666665 2.6666666666666665 0 0 0 0 3.093333333333333 127.03999999999999 127.03999999999999 0 0 1 12.373333333333331 36.8Z"/><path fill="#fff" stroke-width="10.667" d="M123.52 66.88a2.453333333333333 2.453333333333333 0 0 1 -0.8533333333333333 -1.8133333333333335V10.666666666666666a10.666666666666666 10.666666666666666 0 0 0 -21.333333333333332 0v54.39999999999999a2.453333333333333 2.453333333333333 0 0 1 -0.8533333333333333 1.8133333333333335 84.05333333333333 84.05333333333333 0 0 0 -18.453333333333333 39.14666666666666 2.6666666666666665 2.6666666666666665 0 0 0 0 2.3466666666666667 3.093333333333333 3.093333333333333 0 0 0 2.1333333333333333 0.96h54.72a2.6666666666666665 2.6666666666666665 0 0 0 2.5599999999999996 -3.3066666666666666 83.09333333333333 83.09333333333333 0 0 0 -17.919999999999998 -39.14666666666666Z"/><path fill="#fff" stroke-width="10.667" d="M200 64a8.106666666666666 8.106666666666666 0 0 0 8 -8v-5.333333333333333a2.6666666666666665 2.6666666666666665 0 0 1 2.6666666666666665 -2.6666666666666665h5.333333333333333a8 8 0 0 0 0 -16h-5.333333333333333a2.6666666666666665 2.6666666666666665 0 0 1 -2.6666666666666665 -2.6666666666666665v-5.333333333333333a8 8 0 0 0 -16 0v5.333333333333333a2.6666666666666665 2.6666666666666665 0 0 1 -2.6666666666666665 2.6666666666666665h-5.333333333333333a8 8 0 0 0 0 16h5.333333333333333a2.6666666666666665 2.6666666666666665 0 0 1 2.6666666666666665 2.6666666666666665v5.333333333333333a8.106666666666666 8.106666666666666 0 0 0 8 8Z"/><path fill="#fff" stroke-width="10.667" d="M248 218.66666666666666h-10.666666666666666a2.6666666666666665 2.6666666666666665 0 0 1 -2.6666666666666665 -2.6666666666666665v-10.666666666666666a8 8 0 0 0 -16 0v10.666666666666666a2.6666666666666665 2.6666666666666665 0 0 1 -2.6666666666666665 2.6666666666666665h-10.666666666666666a8 8 0 0 0 0 16h10.666666666666666a2.6666666666666665 2.6666666666666665 0 0 1 2.6666666666666665 2.6666666666666665v10.666666666666666a8 8 0 0 0 16 0v-10.666666666666666a2.6666666666666665 2.6666666666666665 0 0 1 2.6666666666666665 -2.6666666666666665h10.666666666666666a8 8 0 0 0 0 -16Z"/><path fill="#fff" stroke-width="10.667" d="M40 42.666666666666664h-5.333333333333333A2.6666666666666665 2.6666666666666665 0 0 1 32 40v-5.333333333333333a8 8 0 0 0 -16 0v5.333333333333333a2.6666666666666665 2.6666666666666665 0 0 1 -2.6666666666666665 2.6666666666666665h-5.333333333333333a8 8 0 0 0 0 16h5.333333333333333a2.6666666666666665 2.6666666666666665 0 0 1 2.6666666666666665 2.6666666666666665v5.333333333333333a8 8 0 0 0 16 0v-5.333333333333333a2.6666666666666665 2.6666666666666665 0 0 1 2.6666666666666665 -2.6666666666666665h5.333333333333333a8 8 0 0 0 0 -16Z"/></g></svg>