<svg xmlns="http://www.w3.org/2000/svg" viewBox="0 0 256 256" id="Night-Moon-Begin--Streamline-Ultimate" height="256" width="256">
  <desc>
    Night Moon Begin Streamline Icon: https://streamlinehq.com
  </desc>
  <g id="Night-Moon-Begin--Streamline-Ultimate.svg">
    <path d="M52.58666666666666 180.69333333333333a10.666666666666666 10.666666666666666 0 0 0 15.146666666666665 0 10.666666666666666 10.666666666666666 0 0 0 3.093333333333333 -7.1466666666666665 10.666666666666666 10.666666666666666 0 0 0 -3.093333333333333 -8 85.33333333333333 85.33333333333333 0 0 1 27.306666666666665 -138.66666666666666 2.7733333333333334 2.7733333333333334 0 0 1 2.5599999999999996 0 2.6666666666666665 2.6666666666666665 0 0 1 1.1733333333333333 2.2399999999999998v1.5999999999999999A104.10666666666665 104.10666666666665 0 0 0 202.66666666666666 134.61333333333332h1.4933333333333334a2.5599999999999996 2.5599999999999996 0 0 1 2.2399999999999998 1.1733333333333333 2.2399999999999998 2.2399999999999998 0 0 1 0 2.453333333333333 84.58666666666666 84.58666666666666 0 0 1 -24 32 10.666666666666666 10.666666666666666 0 0 0 -3.733333333333333 7.786666666666666 10.666666666666666 10.666666666666666 0 0 0 2.453333333333333 7.253333333333334 10.666666666666666 10.666666666666666 0 0 0 15.04 1.3866666666666667 106.66666666666666 106.66666666666666 0 0 0 36.69333333333333 -63.46666666666667 10.666666666666666 10.666666666666666 0 0 0 -3.1999999999999997 -9.6 10.666666666666666 10.666666666666666 0 0 0 -9.6 -2.6666666666666665 81.6 81.6 0 0 1 -17.599999999999998 1.92 82.77333333333333 82.77333333333333 0 0 1 -82.66666666666666 -82.66666666666666 89.06666666666666 89.06666666666666 0 0 1 1.8133333333333335 -17.706666666666663 10.666666666666666 10.666666666666666 0 0 0 -2.6666666666666665 -9.6 10.666666666666666 10.666666666666666 0 0 0 -9.493333333333332 -3.1999999999999997 106.66666666666666 106.66666666666666 0 0 0 -56.85333333333333 181.01333333333332Z" fill="#ffffff" stroke-width="10.6667"></path>
    <path d="M245.33333333333331 234.66666666666666H10.666666666666666a10.666666666666666 10.666666666666666 0 0 0 0 21.333333333333332h234.66666666666666a10.666666666666666 10.666666666666666 0 0 0 0 -21.333333333333332Z" fill="#ffffff" stroke-width="10.6667"></path>
    <path d="M134.39999999999998 134.72a8.106666666666666 8.106666666666666 0 0 0 -12.693333333333332 0L92.37333333333333 173.86666666666667a8 8 0 0 0 6.3999999999999995 12.799999999999999h16a2.6666666666666665 2.6666666666666665 0 0 1 2.6666666666666665 2.6666666666666665V213.33333333333331a10.666666666666666 10.666666666666666 0 0 0 21.333333333333332 0v-24a2.6666666666666665 2.6666666666666665 0 0 1 2.6666666666666665 -2.6666666666666665h16a8 8 0 0 0 7.1466666666666665 -4.4799999999999995 8.213333333333333 8.213333333333333 0 0 0 -0.7466666666666667 -8.32Z" fill="#ffffff" stroke-width="10.6667"></path>
  </g>
</svg>