<svg xmlns="http://www.w3.org/2000/svg" id="No-Gas-Station--Streamline-Ultimate" width="256" height="256" viewBox="0 0 256 256"><desc>No Gas Station Streamline Icon: https://streamlinehq.com</desc><g id="No-Gas-Station--Streamline-Ultimate.svg"><path fill="#fff" stroke-width="10.667" d="M55.25333333333333 245.33333333333331h101.33333333333333a10.666666666666666 10.666666666666666 0 0 0 10.666666666666666 -10.666666666666666V117.33333333333333L45.54666666666666 238.71999999999997a10.666666666666666 10.666666666666666 0 0 0 9.706666666666667 6.613333333333333Z"/><path fill="#fff" stroke-width="10.667" d="M191.25333333333333 93.01333333333334v104a24 24 0 0 0 48 0v-56h8a8 8 0 0 0 0 -16h-7.1466666666666665a44.48 44.48 0 0 1 6.72 -16.85333333333333l7.1466666666666665 -10.666666666666666a8.106666666666666 8.106666666666666 0 0 0 -2.2399999999999998 -10.666666666666666 7.893333333333333 7.893333333333333 0 0 0 -10.666666666666666 2.2399999999999998l-7.1466666666666665 10.666666666666666a60.266666666666666 60.266666666666666 0 0 0 -10.666666666666666 33.70666666666666v64a8 8 0 0 1 -16 0V77.01333333333332Z"/><path fill="#fff" stroke-width="10.667" d="M250.24 13.44a8.213333333333333 8.213333333333333 0 0 0 1.8133333333333335 -2.7733333333333334 8 8 0 0 0 -13.12 -8.64l-71.67999999999999 71.67999999999999V15.68a10.666666666666666 10.666666666666666 0 0 0 -10.666666666666666 -10.666666666666666h-101.33333333333333a10.666666666666666 10.666666666666666 0 0 0 -10.666666666666666 10.666666666666666v77.33333333333333h103.35999999999999l-16 16H44.58666666666666v87.35999999999999L4.266666666666667 236.69333333333333a8.213333333333333 8.213333333333333 0 0 0 0 11.413333333333334 8.213333333333333 8.213333333333333 0 0 0 5.653333333333333 2.2399999999999998 6.933333333333334 6.933333333333334 0 0 0 2.88 0 6.72 6.72 0 0 0 2.7733333333333334 -1.7066666666666666ZM146.98666666666665 69.33333333333333a5.333333333333333 5.333333333333333 0 0 1 -5.333333333333333 5.333333333333333H70.29333333333332a5.333333333333333 5.333333333333333 0 0 1 -5.333333333333333 -5.333333333333333V29.866666666666664a5.333333333333333 5.333333333333333 0 0 1 5.333333333333333 -5.333333333333333h71.36a5.333333333333333 5.333333333333333 0 0 1 5.333333333333333 5.333333333333333Z"/></g></svg>