<svg xmlns="http://www.w3.org/2000/svg" viewBox="0 0 256 256" id="Nodesj-Logo--Streamline-Ultimate" height="256" width="256">
  <desc>
    Nodesj Logo Streamline Icon: https://streamlinehq.com
  </desc>
  <g id="Nodesj-Logo--Streamline-Ultimate.svg">
    <path d="M232 58.879999999999995 138.66666666666666 2.986666666666667a21.333333333333332 21.333333333333332 0 0 0 -21.333333333333332 0L24 58.879999999999995a21.333333333333332 21.333333333333332 0 0 0 -10.666666666666666 18.026666666666664v102.18666666666667a21.333333333333332 21.333333333333332 0 0 0 10.666666666666666 18.026666666666664l27.946666666666665 16.746666666666666a33.28 33.28 0 0 0 50.45333333333333 -28.586666666666666V86.61333333333332a10.666666666666666 10.666666666666666 0 0 0 -21.333333333333332 0v98.66666666666666a12.053333333333331 12.053333333333331 0 0 1 -6.079999999999999 10.666666666666666 12.159999999999998 12.159999999999998 0 0 1 -12.053333333333331 0l-27.839999999999996 -16.85333333333333V77.22666666666666L128 21.333333333333332l93.12 55.57333333333333v101.86666666666667L128 234.66666666666666l-18.133333333333333 -10.666666666666666a10.666666666666666 10.666666666666666 0 1 0 -10.666666666666666 18.24l18.346666666666664 10.666666666666666a21.333333333333332 21.333333333333332 0 0 0 21.333333333333332 0l93.22666666666666 -55.89333333333333a21.333333333333332 21.333333333333332 0 0 0 10.666666666666666 -18.026666666666664V76.90666666666667a21.333333333333332 21.333333333333332 0 0 0 -10.773333333333333 -18.026666666666664Z" fill="#ffffff" stroke-width="10.6667"></path>
    <path d="M165.44 157.44a99.52 99.52 0 0 1 -23.893333333333334 0 9.066666666666666 9.066666666666666 0 0 1 -8 -9.066666666666666 10.666666666666666 10.666666666666666 0 0 0 -21.333333333333332 0A30.613333333333333 30.613333333333333 0 0 0 138.66666666666666 178.66666666666666a126.29333333333332 126.29333333333332 0 0 0 14.506666666666668 0.8533333333333333 129.70666666666665 129.70666666666665 0 0 0 14.613333333333333 -0.8533333333333333 30.613333333333333 30.613333333333333 0 0 0 26.666666666666664 -30.29333333333333A28.586666666666666 28.586666666666666 0 0 0 170.66666666666666 120.10666666666665l-31.04 -5.226666666666667a7.359999999999999 7.359999999999999 0 0 1 -6.186666666666666 -7.253333333333334 9.066666666666666 9.066666666666666 0 0 1 8 -9.066666666666666 99.52 99.52 0 0 1 23.893333333333334 0 9.066666666666666 9.066666666666666 0 0 1 8 9.066666666666666 10.666666666666666 10.666666666666666 0 0 0 21.333333333333332 0 30.613333333333333 30.613333333333333 0 0 0 -26.666666666666664 -30.29333333333333 132.90666666666667 132.90666666666667 0 0 0 -29.119999999999997 0 30.613333333333333 30.613333333333333 0 0 0 -26.77333333333333 30.29333333333333 28.586666666666666 28.586666666666666 0 0 0 24 28.266666666666666l31.04 5.226666666666667a7.253333333333334 7.253333333333334 0 0 1 6.186666666666666 7.253333333333334 9.066666666666666 9.066666666666666 0 0 1 -7.893333333333333 9.066666666666666Z" fill="#ffffff" stroke-width="10.6667"></path>
  </g>
</svg>