<svg xmlns="http://www.w3.org/2000/svg" viewBox="0 0 256 256" id="Notes-Book-Text--Streamline-Ultimate" height="256" width="256">
  <desc>
    Notes Book Text Streamline Icon: https://streamlinehq.com
  </desc>
  <g id="Notes-Book-Text--Streamline-Ultimate.svg">
    <path d="M197.33333333333331 112a10.666666666666666 10.666666666666666 0 0 0 -10.666666666666666 -10.666666666666666h-117.33333333333333a10.666666666666666 10.666666666666666 0 0 0 0 21.333333333333332h117.33333333333333a10.666666666666666 10.666666666666666 0 0 0 10.666666666666666 -10.666666666666666Z" fill="#ffffff" stroke-width="10.6667"></path>
    <path d="M197.33333333333331 154.66666666666666a10.666666666666666 10.666666666666666 0 0 0 -10.666666666666666 -10.666666666666666h-117.33333333333333a10.666666666666666 10.666666666666666 0 0 0 0 21.333333333333332h117.33333333333333a10.666666666666666 10.666666666666666 0 0 0 10.666666666666666 -10.666666666666666Z" fill="#ffffff" stroke-width="10.6667"></path>
    <path d="M154.66666666666666 186.66666666666666h-85.33333333333333a10.666666666666666 10.666666666666666 0 0 0 0 21.333333333333332h85.33333333333333a10.666666666666666 10.666666666666666 0 0 0 0 -21.333333333333332Z" fill="#ffffff" stroke-width="10.6667"></path>
    <path d="M245.33333333333331 48a21.333333333333332 21.333333333333332 0 0 0 -21.333333333333332 -21.333333333333332h-18.666666666666664a2.6666666666666665 2.6666666666666665 0 0 1 -2.6666666666666665 -2.6666666666666665V10.666666666666666a10.666666666666666 10.666666666666666 0 0 0 -21.333333333333332 0v13.333333333333332a2.6666666666666665 2.6666666666666665 0 0 1 -2.6666666666666665 2.6666666666666665h-37.33333333333333a2.6666666666666665 2.6666666666666665 0 0 1 -2.6666666666666665 -2.6666666666666665V10.666666666666666a10.666666666666666 10.666666666666666 0 0 0 -21.333333333333332 0v13.333333333333332a2.6666666666666665 2.6666666666666665 0 0 1 -2.6666666666666665 2.6666666666666665h-37.33333333333333A2.6666666666666665 2.6666666666666665 0 0 1 74.66666666666666 24V10.666666666666666a10.666666666666666 10.666666666666666 0 0 0 -21.333333333333332 0v13.333333333333332a2.6666666666666665 2.6666666666666665 0 0 1 -2.6666666666666665 2.6666666666666665H32a21.333333333333332 21.333333333333332 0 0 0 -21.333333333333332 21.333333333333332V234.66666666666666a21.333333333333332 21.333333333333332 0 0 0 21.333333333333332 21.333333333333332h192a21.333333333333332 21.333333333333332 0 0 0 21.333333333333332 -21.333333333333332Zm-21.333333333333332 184a2.6666666666666665 2.6666666666666665 0 0 1 -2.6666666666666665 2.6666666666666665H34.666666666666664a2.6666666666666665 2.6666666666666665 0 0 1 -2.6666666666666665 -2.6666666666666665v-181.33333333333331a2.6666666666666665 2.6666666666666665 0 0 1 2.6666666666666665 -2.6666666666666665h16a2.6666666666666665 2.6666666666666665 0 0 1 2.6666666666666665 2.6666666666666665v8a10.666666666666666 10.666666666666666 0 0 0 21.333333333333332 0v-8a2.6666666666666665 2.6666666666666665 0 0 1 2.6666666666666665 -2.6666666666666665h37.33333333333333a2.6666666666666665 2.6666666666666665 0 0 1 2.6666666666666665 2.6666666666666665v8a10.666666666666666 10.666666666666666 0 0 0 21.333333333333332 0v-8a2.6666666666666665 2.6666666666666665 0 0 1 2.6666666666666665 -2.6666666666666665h37.33333333333333a2.6666666666666665 2.6666666666666665 0 0 1 2.6666666666666665 2.6666666666666665v8a10.666666666666666 10.666666666666666 0 0 0 21.333333333333332 0v-8a2.6666666666666665 2.6666666666666665 0 0 1 2.6666666666666665 -2.6666666666666665h16a2.6666666666666665 2.6666666666666665 0 0 1 2.6666666666666665 2.6666666666666665Z" fill="#ffffff" stroke-width="10.6667"></path>
  </g>
</svg>