<svg xmlns="http://www.w3.org/2000/svg" id="Notes-Paper-Text--Streamline-Ultimate" width="256" height="256" viewBox="0 0 256 256"><desc>Notes Paper Text Streamline Icon: https://streamlinehq.com</desc><g id="Notes-Paper-Text--Streamline-Ultimate.svg"><path fill="#fff" stroke-width="10.667" d="m199.57333333333332 98.24000000000001 10.666666666666666 -10.666666666666666a10.666666666666666 10.666666666666666 0 1 0 -15.146666666666665 -15.146666666666665l-10.666666666666666 10.666666666666666a10.666666666666666 10.666666666666666 0 0 1 -15.04 0 32.85333333333333 32.85333333333333 0 0 0 -45.22666666666667 0 10.666666666666666 10.666666666666666 0 0 1 -15.146666666666665 0 32.85333333333333 32.85333333333333 0 0 0 -45.01333333333333 0l-10.666666666666666 10.666666666666666a10.666666666666666 10.666666666666666 0 0 0 0 15.146666666666665 10.666666666666666 10.666666666666666 0 0 0 15.04 0l10.666666666666666 -10.666666666666666a10.666666666666666 10.666666666666666 0 0 1 15.146666666666665 0 32 32 0 0 0 45.22666666666667 0 10.666666666666666 10.666666666666666 0 0 1 15.04 0 32 32 0 0 0 45.120000000000005 0Z"/><path fill="#fff" stroke-width="10.667" d="M124.16 147.0933333333333a10.666666666666666 10.666666666666666 0 0 1 -15.146666666666665 0 32.85333333333333 32.85333333333333 0 0 0 -45.22666666666667 0l-10.666666666666666 10.666666666666666a10.666666666666666 10.666666666666666 0 0 0 0 15.146666666666665 10.666666666666666 10.666666666666666 0 0 0 15.04 0l10.666666666666666 -10.666666666666666a10.666666666666666 10.666666666666666 0 0 1 15.146666666666665 0 32 32 0 0 0 45.22666666666667 0 10.666666666666666 10.666666666666666 0 0 0 0 -15.146666666666665 10.666666666666666 10.666666666666666 0 0 0 -15.04 0Z"/><path fill="#fff" stroke-width="10.667" d="M256 21.333333333333332a21.333333333333332 21.333333333333332 0 0 0 -21.333333333333332 -21.333333333333332H21.333333333333332a21.333333333333332 21.333333333333332 0 0 0 -21.333333333333332 21.333333333333332v213.33333333333331a21.333333333333332 21.333333333333332 0 0 0 21.333333333333332 21.333333333333332h149.33333333333331a10.666666666666666 10.666666666666666 0 0 0 7.573333333333332 -3.093333333333333l74.66666666666666 -74.66666666666666A10.666666666666666 10.666666666666666 0 0 0 256 170.66666666666666ZM21.333333333333332 26.666666666666664a5.333333333333333 5.333333333333333 0 0 1 5.333333333333333 -5.333333333333333h202.66666666666666a5.333333333333333 5.333333333333333 0 0 1 5.333333333333333 5.333333333333333V160a5.333333333333333 5.333333333333333 0 0 1 -5.333333333333333 5.333333333333333h-42.666666666666664a21.333333333333332 21.333333333333332 0 0 0 -21.333333333333332 21.333333333333332v42.666666666666664a5.333333333333333 5.333333333333333 0 0 1 -5.333333333333333 5.333333333333333H26.666666666666664a5.333333333333333 5.333333333333333 0 0 1 -5.333333333333333 -5.333333333333333Z"/></g></svg>