<svg xmlns="http://www.w3.org/2000/svg" id="Notes-Upload--Streamline-Ultimate" width="256" height="256" viewBox="0 0 256 256"><desc>Notes Upload Streamline Icon: https://streamlinehq.com</desc><g id="Notes-Upload--Streamline-Ultimate.svg"><path fill="#fff" stroke-width="10.667" d="M128 50.666666666666664V53.33333333333333a10.666666666666666 10.666666666666666 0 0 0 21.333333333333332 0v-2.6666666666666665a2.6666666666666665 2.6666666666666665 0 0 1 2.6666666666666665 -2.6666666666666665h10.666666666666666a2.6666666666666665 2.6666666666666665 0 0 1 2.6666666666666665 2.6666666666666665v50.13333333333333a2.5599999999999996 2.5599999999999996 0 0 0 3.1999999999999997 2.5599999999999996 92.79999999999998 92.79999999999998 0 0 1 15.573333333333332 -2.0266666666666664 2.5599999999999996 2.5599999999999996 0 0 0 2.5599999999999996 -2.5599999999999996V48a21.333333333333332 21.333333333333332 0 0 0 -21.333333333333332 -21.333333333333332h-13.333333333333332a2.6666666666666665 2.6666666666666665 0 0 1 -2.6666666666666665 -2.6666666666666665V10.666666666666666a10.666666666666666 10.666666666666666 0 0 0 -21.333333333333332 0v13.333333333333332a2.6666666666666665 2.6666666666666665 0 0 1 -2.6666666666666665 2.6666666666666665h-16a2.6666666666666665 2.6666666666666665 0 0 1 -2.6666666666666665 -2.6666666666666665V10.666666666666666a10.666666666666666 10.666666666666666 0 0 0 -21.333333333333332 0v13.333333333333332a2.6666666666666665 2.6666666666666665 0 0 1 -2.6666666666666665 2.6666666666666665h-16A2.6666666666666665 2.6666666666666665 0 0 1 64 24V10.666666666666666a10.666666666666666 10.666666666666666 0 0 0 -21.333333333333332 0v13.333333333333332a2.6666666666666665 2.6666666666666665 0 0 1 -2.6666666666666665 2.6666666666666665H21.333333333333332a21.333333333333332 21.333333333333332 0 0 0 -21.333333333333332 21.333333333333332v138.66666666666666a21.333333333333332 21.333333333333332 0 0 0 21.333333333333332 21.333333333333332h79.46666666666667a2.5599999999999996 2.5599999999999996 0 0 0 2.5599999999999996 -3.1999999999999997 92.79999999999998 92.79999999999998 0 0 1 -2.0266666666666664 -15.573333333333332 2.5599999999999996 2.5599999999999996 0 0 0 -2.5599999999999996 -2.5599999999999996h-74.66666666666666a2.6666666666666665 2.6666666666666665 0 0 1 -2.7733333333333334 -2.6666666666666665V50.666666666666664a2.6666666666666665 2.6666666666666665 0 0 1 2.6666666666666665 -2.6666666666666665h16a2.6666666666666665 2.6666666666666665 0 0 1 2.6666666666666665 2.6666666666666665V53.33333333333333a10.666666666666666 10.666666666666666 0 0 0 21.333333333333332 0v-2.6666666666666665a2.6666666666666665 2.6666666666666665 0 0 1 2.6666666666666665 -2.6666666666666665h16a2.6666666666666665 2.6666666666666665 0 0 1 2.6666666666666665 2.6666666666666665V53.33333333333333a10.666666666666666 10.666666666666666 0 0 0 21.333333333333332 0v-2.6666666666666665a2.6666666666666665 2.6666666666666665 0 0 1 2.6666666666666665 -2.6666666666666665h16a2.6666666666666665 2.6666666666666665 0 0 1 2.6666666666666665 2.6666666666666665Z"/><path fill="#fff" stroke-width="10.667" d="M186.66666666666666 117.33333333333333a69.33333333333333 69.33333333333333 0 1 0 69.33333333333333 69.33333333333333 69.44 69.44 0 0 0 -69.33333333333333 -69.33333333333333Zm26.666666666666664 66.34666666666666a5.333333333333333 5.333333333333333 0 0 1 -4.8 2.986666666666667h-8a2.6666666666666665 2.6666666666666665 0 0 0 -2.6666666666666665 2.6666666666666665v29.333333333333332a10.666666666666666 10.666666666666666 0 0 1 -21.333333333333332 0v-29.333333333333332a2.6666666666666665 2.6666666666666665 0 0 0 -2.6666666666666665 -2.6666666666666665h-8.533333333333333a5.333333333333333 5.333333333333333 0 0 1 -4.8 -2.986666666666667 5.4399999999999995 5.4399999999999995 0 0 1 0.6399999999999999 -5.653333333333333l21.333333333333332 -26.666666666666664a5.333333333333333 5.333333333333333 0 0 1 8.32 0l21.333333333333332 26.666666666666664a5.4399999999999995 5.4399999999999995 0 0 1 1.1733333333333333 5.653333333333333Z"/></g></svg>