<svg xmlns="http://www.w3.org/2000/svg" id="Notes-Checklist-Flip--Streamline-Ultimate" width="256" height="256" viewBox="0 0 256 256"><desc>Notes Checklist Flip Streamline Icon: https://streamlinehq.com</desc><g id="Notes-Checklist-Flip--Streamline-Ultimate.svg"><path fill="#fff" stroke-width="10.667" d="M224 29.333333333333332h-21.333333333333332a2.6666666666666665 2.6666666666666665 0 0 1 -2.6666666666666665 -2.6666666666666665V13.333333333333332a10.666666666666666 10.666666666666666 0 0 0 -21.333333333333332 0v44.373333333333335a10.666666666666666 10.666666666666666 0 0 0 21.333333333333332 0V53.33333333333333a2.6666666666666665 2.6666666666666665 0 0 1 2.6666666666666665 -2.6666666666666665h16a5.333333333333333 5.333333333333333 0 0 1 5.333333333333333 5.333333333333333v112a5.333333333333333 5.333333333333333 0 0 1 -5.333333333333333 5.333333333333333h-32a21.333333333333332 21.333333333333332 0 0 0 -21.333333333333332 21.333333333333332v32a5.333333333333333 5.333333333333333 0 0 1 -5.333333333333333 5.333333333333333H37.33333333333333a5.333333333333333 5.333333333333333 0 0 1 -5.333333333333333 -5.333333333333333v-170.66666666666666a5.333333333333333 5.333333333333333 0 0 1 5.333333333333333 -5.333333333333333h10.666666666666666a2.6666666666666665 2.6666666666666665 0 0 0 2.6666666666666665 -2.6666666666666665V32a2.6666666666666665 2.6666666666666665 0 0 0 -2.6666666666666665 -2.6666666666666665H32a21.333333333333332 21.333333333333332 0 0 0 -21.333333333333332 21.333333333333332v181.33333333333331a21.333333333333332 21.333333333333332 0 0 0 21.333333333333332 21.333333333333332h144a10.666666666666666 10.666666666666666 0 0 0 7.893333333333333 -3.413333333333333l58.666666666666664 -64a10.666666666666666 10.666666666666666 0 0 0 2.7733333333333334 -7.253333333333334v-128a21.333333333333332 21.333333333333332 0 0 0 -21.333333333333332 -21.333333333333332Z"/><path fill="#fff" stroke-width="10.667" d="M130.66666666666666 68.37333333333333a10.666666666666666 10.666666666666666 0 0 0 10.666666666666666 -10.666666666666666V53.33333333333333a2.6666666666666665 2.6666666666666665 0 0 1 2.6666666666666665 -2.6666666666666665h21.333333333333332a2.6666666666666665 2.6666666666666665 0 0 0 2.6666666666666665 -2.6666666666666665V32a2.6666666666666665 2.6666666666666665 0 0 0 -2.6666666666666665 -2.6666666666666665h-21.333333333333332a2.6666666666666665 2.6666666666666665 0 0 1 -2.6666666666666665 -2.6666666666666665V13.333333333333332a10.666666666666666 10.666666666666666 0 0 0 -21.333333333333332 0v44.373333333333335a10.666666666666666 10.666666666666666 0 0 0 10.666666666666666 10.666666666666666Z"/><path fill="#fff" stroke-width="10.667" d="M72 68.37333333333333a10.666666666666666 10.666666666666666 0 0 0 10.666666666666666 -10.666666666666666V53.33333333333333A2.6666666666666665 2.6666666666666665 0 0 1 85.33333333333333 50.666666666666664h21.333333333333332a2.6666666666666665 2.6666666666666665 0 0 0 2.6666666666666665 -2.6666666666666665V32a2.6666666666666665 2.6666666666666665 0 0 0 -2.6666666666666665 -2.6666666666666665H85.33333333333333a2.6666666666666665 2.6666666666666665 0 0 1 -2.6666666666666665 -2.6666666666666665V13.333333333333332a10.666666666666666 10.666666666666666 0 0 0 -21.333333333333332 0v44.373333333333335a10.666666666666666 10.666666666666666 0 0 0 10.666666666666666 10.666666666666666Z"/><path fill="#fff" stroke-width="10.667" d="M72.42666666666666 132.90666666666667a10.666666666666666 10.666666666666666 0 0 0 15.146666666666665 0l32 -32A10.666666666666666 10.666666666666666 0 0 0 104.42666666666665 85.33333333333333L80 110.29333333333332l-8.426666666666666 -8.533333333333333A10.666666666666666 10.666666666666666 0 0 0 56.42666666666666 117.33333333333333Z"/><path fill="#fff" stroke-width="10.667" d="M72.42666666666666 192a10.666666666666666 10.666666666666666 0 0 0 15.146666666666665 0l32 -32a10.666666666666666 10.666666666666666 0 0 0 -15.146666666666665 -15.146666666666665L80 168.95999999999998 71.57333333333332 160a10.666666666666666 10.666666666666666 0 0 0 -15.146666666666665 15.146666666666665Z"/><path fill="#fff" stroke-width="10.667" d="M138.66666666666666 114.66666666666666a10.666666666666666 10.666666666666666 0 0 0 10.666666666666666 10.666666666666666h42.666666666666664a10.666666666666666 10.666666666666666 0 0 0 0 -21.333333333333332h-42.666666666666664a10.666666666666666 10.666666666666666 0 0 0 -10.666666666666666 10.666666666666666Z"/></g></svg>