<svg xmlns="http://www.w3.org/2000/svg" viewBox="0 0 256 256" id="Notes-Tasks--Streamline-Ultimate" height="256" width="256">
  <desc>
    Notes Tasks Streamline Icon: https://streamlinehq.com
  </desc>
  <g id="Notes-Tasks--Streamline-Ultimate.svg">
    <path d="M69.01333333333332 117.33333333333333a8 8 0 0 0 0 11.306666666666667 8 8 0 0 0 11.306666666666667 0l10.666666666666666 -10.666666666666666a7.253333333333334 7.253333333333334 0 0 1 10.026666666666666 0 23.57333333333333 23.57333333333333 0 0 0 32.64 0 7.253333333333334 7.253333333333334 0 0 1 10.026666666666666 0 23.57333333333333 23.57333333333333 0 0 0 32.64 0l10.666666666666666 -10.666666666666666A8 8 0 0 0 175.67999999999998 96l-10.666666666666666 10.666666666666666a7.253333333333334 7.253333333333334 0 0 1 -10.026666666666666 0 23.57333333333333 23.57333333333333 0 0 0 -32.64 0 7.253333333333334 7.253333333333334 0 0 1 -10.026666666666666 0 23.57333333333333 23.57333333333333 0 0 0 -32.64 0Z" fill="#ffffff" stroke-width="10.6667"></path>
    <path d="M122.34666666666666 160a7.253333333333334 7.253333333333334 0 0 1 -10.026666666666666 0 23.57333333333333 23.57333333333333 0 0 0 -32.64 0l-10.666666666666666 10.666666666666666a8 8 0 0 0 0 11.306666666666667 8 8 0 0 0 11.306666666666667 0l10.666666666666666 -10.666666666666666a7.253333333333334 7.253333333333334 0 0 1 10.026666666666666 0 23.57333333333333 23.57333333333333 0 0 0 32.64 0 6.826666666666666 6.826666666666666 0 0 1 5.013333333333333 -2.0266666666666664 8 8 0 0 0 0 -16 22.826666666666668 22.826666666666668 0 0 0 -16.32 6.72Z" fill="#ffffff" stroke-width="10.6667"></path>
    <path d="M106.66666666666666 69.33333333333333h42.666666666666664a10.666666666666666 10.666666666666666 0 0 0 10.666666666666666 -10.666666666666666V32A32 32 0 0 0 147.41333333333333 6.613333333333333 32 32 0 0 0 96 32.959999999999994V58.666666666666664a10.666666666666666 10.666666666666666 0 0 0 10.666666666666666 10.666666666666666Zm13.333333333333332 -40a8 8 0 1 1 8 8 8.106666666666666 8.106666666666666 0 0 1 -8 -8Z" fill="#ffffff" stroke-width="10.6667"></path>
    <path d="M208 32h-29.333333333333332a2.6666666666666665 2.6666666666666665 0 0 0 -2.6666666666666665 2.6666666666666665v16a2.6666666666666665 2.6666666666666665 0 0 0 2.6666666666666665 2.6666666666666665H202.66666666666666a5.333333333333333 5.333333333333333 0 0 1 5.333333333333333 5.333333333333333v136.95999999999998a5.013333333333333 5.013333333333333 0 0 1 -1.5999999999999999 3.733333333333333l-33.70666666666666 33.70666666666666a5.013333333333333 5.013333333333333 0 0 1 -3.733333333333333 1.5999999999999999H53.33333333333333a5.333333333333333 5.333333333333333 0 0 1 -5.333333333333333 -5.333333333333333v-170.66666666666666A5.333333333333333 5.333333333333333 0 0 1 53.33333333333333 53.33333333333333h24a2.6666666666666665 2.6666666666666665 0 0 0 2.6666666666666665 -2.6666666666666665v-16A2.6666666666666665 2.6666666666666665 0 0 0 77.33333333333333 32H48a21.333333333333332 21.333333333333332 0 0 0 -21.333333333333332 21.333333333333332v181.33333333333331a21.333333333333332 21.333333333333332 0 0 0 21.333333333333332 21.333333333333332h160a21.333333333333332 21.333333333333332 0 0 0 21.333333333333332 -21.333333333333332V53.33333333333333a21.333333333333332 21.333333333333332 0 0 0 -21.333333333333332 -21.333333333333332Z" fill="#ffffff" stroke-width="10.6667"></path>
  </g>
</svg>