<svg xmlns="http://www.w3.org/2000/svg" id="Notes-Book--Streamline-Ultimate" width="256" height="256" viewBox="0 0 256 256"><desc>Notes Book Streamline Icon: https://streamlinehq.com</desc><path fill="#fff" stroke-width="10.667" d="M256 42.666666666666664a32 32 0 0 0 -32 -32h-8.213333333333333a5.546666666666667 5.546666666666667 0 0 1 -4.693333333333333 -2.6666666666666665A15.893333333333333 15.893333333333333 0 0 0 197.33333333333331 0H42.666666666666664a16 16 0 0 0 -16 16v8a2.6666666666666665 2.6666666666666665 0 0 0 2.6666666666666665 2.6666666666666665H42.666666666666664a10.666666666666666 10.666666666666666 0 0 1 0 21.333333333333332H10.666666666666666a10.666666666666666 10.666666666666666 0 0 0 0 21.333333333333332h13.76a2.6666666666666665 2.6666666666666665 0 0 1 2.6666666666666665 2.6666666666666665v32a2.6666666666666665 2.6666666666666665 0 0 0 2.6666666666666665 2.6666666666666665H42.666666666666664a10.666666666666666 10.666666666666666 0 0 1 0 21.333333333333332H10.666666666666666a10.666666666666666 10.666666666666666 0 0 0 0 21.333333333333332h13.76a2.6666666666666665 2.6666666666666665 0 0 1 2.6666666666666665 2.6666666666666665v32a2.6666666666666665 2.6666666666666665 0 0 0 2.6666666666666665 2.6666666666666665H42.666666666666664a10.666666666666666 10.666666666666666 0 0 1 0 21.333333333333332H10.666666666666666a10.666666666666666 10.666666666666666 0 0 0 0 21.333333333333332h13.76a2.6666666666666665 2.6666666666666665 0 0 1 2.6666666666666665 2.6666666666666665v8A16 16 0 0 0 42.666666666666664 256h154.66666666666666a15.893333333333333 15.893333333333333 0 0 0 13.76 -8 5.546666666666667 5.546666666666667 0 0 1 4.693333333333333 -2.6666666666666665H224a32 32 0 0 0 32 -32V42.666666666666664Zm-93.75999999999999 42.666666666666664a16 16 0 0 1 -16 16H101.33333333333333A16 16 0 0 1 85.33333333333333 85.33333333333333V58.666666666666664A16 16 0 0 1 101.33333333333333 42.666666666666664h44.906666666666666a16 16 0 0 1 16 16ZM234.66666666666666 114.66666666666666a2.6666666666666665 2.6666666666666665 0 0 1 -2.6666666666666665 2.6666666666666665h-16a2.6666666666666665 2.6666666666666665 0 0 1 -2.6666666666666665 -2.6666666666666665v-26.666666666666664a2.6666666666666665 2.6666666666666665 0 0 1 2.6666666666666665 -2.6666666666666665h16a2.6666666666666665 2.6666666666666665 0 0 1 2.6666666666666665 2.6666666666666665Zm-21.333333333333332 26.666666666666664a2.6666666666666665 2.6666666666666665 0 0 1 2.6666666666666665 -2.6666666666666665h16a2.6666666666666665 2.6666666666666665 0 0 1 2.6666666666666665 2.6666666666666665v26.666666666666664a2.6666666666666665 2.6666666666666665 0 0 1 -2.6666666666666665 2.6666666666666665h-16a2.6666666666666665 2.6666666666666665 0 0 1 -2.6666666666666665 -2.6666666666666665ZM234.66666666666666 42.666666666666664v18.666666666666664a2.6666666666666665 2.6666666666666665 0 0 1 -2.6666666666666665 2.6666666666666665h-16a2.6666666666666665 2.6666666666666665 0 0 1 -2.6666666666666665 -2.6666666666666665v-26.666666666666664a2.6666666666666665 2.6666666666666665 0 0 1 2.6666666666666665 -2.6666666666666665H224a10.666666666666666 10.666666666666666 0 0 1 10.666666666666666 10.666666666666666Zm0 170.66666666666666a10.666666666666666 10.666666666666666 0 0 1 -10.666666666666666 10.666666666666666h-8a2.6666666666666665 2.6666666666666665 0 0 1 -2.6666666666666665 -2.6666666666666665v-26.666666666666664a2.6666666666666665 2.6666666666666665 0 0 1 2.6666666666666665 -2.6666666666666665h16a2.6666666666666665 2.6666666666666665 0 0 1 2.6666666666666665 2.6666666666666665Z"/></svg>