<svg xmlns="http://www.w3.org/2000/svg" fill="none" viewBox="0 0 256 256" id="Number-Seven-Circle--Streamline-Ultimate" height="256" width="256">
  <desc>
    Number Seven Circle Streamline Icon: https://streamlinehq.com
  </desc>
  <path fill="#ffffff" fill-rule="evenodd" d="M128 253.328c69.2192 0 125.33333333333333 -56.11306666666667 125.33333333333333 -125.33333333333333C253.33333333333331 58.77514666666666 197.2192 2.6614613333333335 128 2.6614613333333335 58.78026666666666 2.6614613333333335 2.6666666666666665 58.77514666666666 2.6666666666666665 127.99466666666666c0 69.22026666666666 56.1136 125.33333333333333 125.33333333333333 125.33333333333333ZM106.66666666666666 74.66666666666666c-5.890986666666667 0 -10.666666666666666 4.7756799999999995 -10.666666666666666 10.666666666666666s4.775573333333333 10.666666666666666 10.666666666666666 10.666666666666666h24.837333333333333C122.19626666666666 116.08533333333332 117.33333333333333 138.016 117.33333333333333 160.2816V170.66666666666666c0 5.8911999999999995 4.7754666666666665 10.666666666666666 10.666666666666666 10.666666666666666s10.666666666666666 -4.7754666666666665 10.666666666666666 -10.666666666666666v-10.385066666666667c0 -23.8432 6.48 -47.2384 18.747733333333333 -67.68415999999999l1.0655999999999999 -1.7761066666666665c1.9765333333333333 -3.295253333333333 2.0288 -7.39936 0.13546666666666665 -10.743466666666666C156.72213333333332 76.73375999999999 153.17653333333334 74.66666666666666 149.33333333333331 74.66666666666666h-42.666666666666664Z" clip-rule="evenodd" stroke-width="10.6667"></path>
</svg>