<svg xmlns="http://www.w3.org/2000/svg" id="Number-Five-Square--Streamline-Ultimate" width="256" height="256" fill="none" viewBox="0 0 256 256"><desc>Number Five Square Streamline Icon: https://streamlinehq.com</desc><path fill="#fff" fill-rule="evenodd" stroke-width="10.667" d="M99.59946666666667 84.36757333333333C100.09888000000001 78.87349333333333 104.70549333333334 74.66666666666666 110.22186666666666 74.66666666666666h35.556266666666666c5.8911999999999995 0 10.666666666666666 4.7756799999999995 10.666666666666666 10.666666666666666s-4.7754666666666665 10.666666666666666 -10.666666666666666 10.666666666666666h-25.8144l-1.0592 11.645866666666667c2.8447999999999998 -0.6485333333333333 5.762133333333333 -0.9792000000000001 8.699733333333333 -0.9792000000000001H128c17.6736 0 32 14.3264 32 32v10.666666666666666c0 17.672533333333334 -14.3264 32 -32 32 -13.262933333333333 0 -26.780586666666665 -8.292266666666666 -31.390186666666665 -21.334400000000002 -1.9631999999999998 -5.554133333333334 0.9479466666666667 -11.648 6.502293333333332 -13.611733333333333 5.5545599999999995 -1.9626666666666666 11.648426666666666 0.9482666666666667 13.611093333333333 6.5024 1.248 3.5296000000000003 5.961599999999999 7.110399999999999 11.276799999999998 7.110399999999999 5.8911999999999995 0 10.666666666666666 -4.7754666666666665 10.666666666666666 -10.666666666666666v-10.666666666666666c0 -5.8911999999999995 -4.7754666666666665 -10.666666666666666 -10.666666666666666 -10.666666666666666h-0.3957333333333333c-2.760533333333333 0 -5.482666666666667 0.6421333333333332 -7.9509333333333325 1.877333333333333l-2.3434666666666666 -4.688 2.3434666666666666 4.688 -8.216533333333333 4.107733333333333c-3.4602666666666666 1.7301333333333333 -7.587306666666667 1.4506666666666668 -10.783253333333334 -0.7306666666666667 -3.1959466666666665 -2.181333333333333 -4.96 -5.922133333333333 -4.609706666666666 -9.776l3.555626666666667 -39.11082666666667ZM26.666666666666664 5.333333333333333c-11.78208 0 -21.333333333333332 9.551253333333332 -21.333333333333332 21.333333333333332v202.66666666666666c0 11.782399999999999 9.551253333333332 21.333333333333332 21.333333333333332 21.333333333333332h202.66666666666666c11.782399999999999 0 21.333333333333332 -9.550933333333333 21.333333333333332 -21.333333333333332v-202.66666666666666c0 -11.78208 -9.550933333333333 -21.333333333333332 -21.333333333333332 -21.333333333333332h-202.66666666666666Z" clip-rule="evenodd"/></svg>