<svg xmlns="http://www.w3.org/2000/svg" id="Number-Nine--Streamline-Ultimate" width="256" height="256" fill="none" viewBox="0 0 256 256"><desc>Number Nine Streamline Icon: https://streamlinehq.com</desc><path fill="#fff" fill-rule="evenodd" stroke-width="10.667" d="M61.33333333333333 72a66.66666666666666 66.66666666666666 0 0 1 133.33333333333331 0l0 112A66.66666666666666 66.66666666666666 0 0 1 128 250.66666666666666c-28.351999999999997 0 -56.693333333333335 -17.941333333333333 -66.05866666666665 -44.44799999999999a10.666666666666666 10.666666666666666 0 1 1 20.11733333333333 -7.104C88.064 216.10666666666668 107.59466666666665 229.33333333333331 128 229.33333333333331a45.33333333333333 45.33333333333333 0 0 0 45.33333333333333 -45.33333333333333l0 -53.78133333333333a66.66666666666666 66.66666666666666 0 0 1 -112 -48.885333333333335l0 -9.333333333333332Zm112 0a45.33333333333333 45.33333333333333 0 0 0 -90.66666666666666 0l0 9.333333333333332a45.33333333333333 45.33333333333333 0 0 0 90.66666666666666 0l0 -9.333333333333332Z" clip-rule="evenodd"/></svg>