<svg xmlns="http://www.w3.org/2000/svg" fill="none" viewBox="0 0 256 256" id="Number-Three--Streamline-Ultimate" height="256" width="256">
  <desc>
    Number Three Streamline Icon: https://streamlinehq.com
  </desc>
  <path fill="#ffffff" fill-rule="evenodd" d="M82.13450666666665 28.26048C92.57631999999998 14.358933333333333 109.23519999999999 5.333333333333333 128 5.333333333333333c31.664 0 57.33333333333333 25.669013333333332 57.33333333333333 57.33322666666667v7.467199999999999c0 19.23669333333333 -9.175466666666665 36.330346666666664 -23.387733333333333 47.14304 19.588266666666666 11.611733333333333 32.721066666666665 32.96746666666667 32.721066666666665 57.38986666666666v9.333333333333332c0 36.819199999999995 -29.847466666666666 66.66666666666666 -66.66666666666666 66.66666666666666 -28.356693333333332 0 -56.688426666666665 -17.9392 -66.05696 -44.44586666666667 -1.9631999999999998 -5.554133333333334 0.9480533333333333 -11.648 6.5024 -13.611733333333333 5.554346666666666 -1.9626666666666666 11.648426666666666 0.9482666666666667 13.61152 6.5024C88.06346666666667 216.10666666666668 107.5904 229.33333333333331 128 229.33333333333331c25.0368 0 45.33333333333333 -20.296533333333333 45.33333333333333 -45.33333333333333v-9.333333333333332c0 -25.0368 -20.296533333333333 -45.33333333333333 -45.33333333333333 -45.33333333333333h-1.8666666666666665c-5.8911999999999995 0 -10.666666666666666 -4.7754666666666665 -10.666666666666666 -10.666666666666666s4.7754666666666665 -10.666666666666666 10.666666666666666 -10.666666666666666c20.913066666666666 0 37.86666666666666 -16.953173333333332 37.86666666666666 -37.86624v-7.467199999999999C164 42.78442666666667 147.8816 26.666666666666664 128 26.666666666666664c-11.770666666666665 0 -22.222186666666666 5.6380799999999995 -28.808106666666664 14.406186666666665 -3.538026666666666 4.710186666666666 -10.224639999999999 5.66048 -14.934933333333333 2.122453333333333 -4.710186666666666 -3.538026666666666 -5.66048 -10.224533333333333 -2.122453333333333 -14.934826666666666Z" clip-rule="evenodd" stroke-width="10.6667"></path>
</svg>