<svg xmlns="http://www.w3.org/2000/svg" id="Office-Stamp-Document--Streamline-Ultimate" width="256" height="256" viewBox="0 0 256 256"><desc>Office Stamp Document Streamline Icon: https://streamlinehq.com</desc><g id="Office-Stamp-Document--Streamline-Ultimate.svg"><path fill="#fff" stroke-width="10.667" d="M208 64h41.599999999999994a2.6666666666666665 2.6666666666666665 0 0 0 2.453333333333333 -1.7066666666666666 2.6666666666666665 2.6666666666666665 0 0 0 -0.6399999999999999 -2.88L196.58666666666664 4.4799999999999995a2.7733333333333334 2.7733333333333334 0 0 0 -2.986666666666667 0A2.6666666666666665 2.6666666666666665 0 0 0 192 6.3999999999999995v41.599999999999994A16 16 0 0 0 208 64Z"/><path fill="#fff" stroke-width="10.667" d="M181.33333333333331 48V2.6666666666666665a2.6666666666666665 2.6666666666666665 0 0 0 -2.6666666666666665 -2.6666666666666665H64a21.333333333333332 21.333333333333332 0 0 0 -21.333333333333332 21.333333333333332v54.18666666666667a2.6666666666666665 2.6666666666666665 0 0 0 1.1733333333333333 2.2399999999999998 2.2399999999999998 2.2399999999999998 0 0 0 2.453333333333333 0A48.85333333333333 48.85333333333333 0 0 1 64 74.66666666666666a48 48 0 0 1 28.8 86.39999999999999 5.226666666666667 5.226666666666667 0 0 0 -2.1333333333333333 4.16v0.7466666666666667A5.226666666666667 5.226666666666667 0 0 0 96 170.66666666666666h10.666666666666666a37.33333333333333 37.33333333333333 0 0 1 37.33333333333333 37.33333333333333 26.666666666666664 26.666666666666664 0 0 1 -10.026666666666666 20.799999999999997 2.7733333333333334 2.7733333333333334 0 0 0 -0.96 2.6666666666666665 14.826666666666664 14.826666666666664 0 0 1 0 3.1999999999999997v10.666666666666666a27.626666666666665 27.626666666666665 0 0 1 -0.96 7.253333333333334 2.3466666666666667 2.3466666666666667 0 0 0 0 2.3466666666666667 2.6666666666666665 2.6666666666666665 0 0 0 2.1333333333333333 1.0666666666666667H234.66666666666666a21.333333333333332 21.333333333333332 0 0 0 21.333333333333332 -21.333333333333332V77.33333333333333a2.6666666666666665 2.6666666666666665 0 0 0 -2.6666666666666665 -2.6666666666666665H208A26.666666666666664 26.666666666666664 0 0 1 181.33333333333331 48Z"/><path fill="#fff" stroke-width="10.667" d="M117.33333333333333 245.33333333333331v-8a2.6666666666666665 2.6666666666666665 0 0 0 -2.6666666666666665 -2.6666666666666665h-101.33333333333333a2.6666666666666665 2.6666666666666665 0 0 0 -2.6666666666666665 2.6666666666666665V245.33333333333331a10.666666666666666 10.666666666666666 0 0 0 10.666666666666666 10.666666666666666h85.33333333333333a10.666666666666666 10.666666666666666 0 0 0 10.666666666666666 -10.666666666666666Z"/><path fill="#fff" stroke-width="10.667" d="M10.666666666666666 218.66666666666666h106.66666666666666a10.666666666666666 10.666666666666666 0 0 0 10.666666666666666 -10.666666666666666 21.333333333333332 21.333333333333332 0 0 0 -21.333333333333332 -21.333333333333332H96a21.333333333333332 21.333333333333332 0 0 1 -21.333333333333332 -20.69333333333333 21.333333333333332 21.333333333333332 0 0 1 8.533333333333333 -17.599999999999998 32 32 0 1 0 -38.4 0 21.333333333333332 21.333333333333332 0 0 1 8.533333333333333 17.493333333333332 21.333333333333332 21.333333333333332 0 0 1 -21.333333333333332 20.799999999999997H21.333333333333332a21.333333333333332 21.333333333333332 0 0 0 -21.333333333333332 21.333333333333332 10.666666666666666 10.666666666666666 0 0 0 10.666666666666666 10.666666666666666Z"/></g></svg>