<svg xmlns="http://www.w3.org/2000/svg" viewBox="0 0 256 256" id="Office-File-Graph--Streamline-Ultimate" height="256" width="256">
  <desc>
    Office File Graph Streamline Icon: https://streamlinehq.com
  </desc>
  <g id="Office-File-Graph--Streamline-Ultimate.svg">
    <path d="m165.54666666666665 103.25333333333333 -25.28 36.906666666666666a5.4399999999999995 5.4399999999999995 0 0 0 0 6.3999999999999995L169.27999999999997 181.33333333333331a2.7733333333333334 2.7733333333333334 0 0 0 4.16 0 58.45333333333333 58.45333333333333 0 0 0 -3.733333333333333 -78.18666666666667 2.7733333333333334 2.7733333333333334 0 0 0 -4.16 0.10666666666666666Z" fill="#ffffff" stroke-width="10.6667"></path>
    <path d="M125.86666666666667 153.92a5.333333333333333 5.333333333333333 0 0 0 -4.16 -1.92H73.17333333333333a2.6666666666666665 2.6666666666666665 0 0 0 -2.6666666666666665 3.1999999999999997A58.56 58.56 0 0 0 128 202.66666666666666a57.493333333333325 57.493333333333325 0 0 0 28.266666666666666 -7.359999999999999 2.6666666666666665 2.6666666666666665 0 0 0 0.7466666666666667 -4.053333333333333Z" fill="#ffffff" stroke-width="10.6667"></path>
    <path d="M73.17333333333333 136h47.78666666666667a5.119999999999999 5.119999999999999 0 0 0 4.373333333333333 -2.3466666666666667l27.093333333333334 -39.46666666666667a2.6666666666666665 2.6666666666666665 0 0 0 -1.1733333333333333 -3.9466666666666663A56.42666666666666 56.42666666666666 0 0 0 128 85.33333333333333a58.56 58.56 0 0 0 -57.493333333333325 47.46666666666667 2.7733333333333334 2.7733333333333334 0 0 0 2.6666666666666665 3.1999999999999997Z" fill="#ffffff" stroke-width="10.6667"></path>
    <path d="M231.57333333333332 60.906666666666666 173.76 3.093333333333333a10.666666666666666 10.666666666666666 0 0 0 -7.466666666666666 -3.093333333333333H42.666666666666664a21.333333333333332 21.333333333333332 0 0 0 -21.333333333333332 21.333333333333332v213.33333333333331a21.333333333333332 21.333333333333332 0 0 0 21.333333333333332 21.333333333333332h170.66666666666666a21.333333333333332 21.333333333333332 0 0 0 21.333333333333332 -21.333333333333332V68.37333333333333a10.666666666666666 10.666666666666666 0 0 0 -3.093333333333333 -7.466666666666666ZM213.33333333333331 229.33333333333331a5.333333333333333 5.333333333333333 0 0 1 -5.333333333333333 5.333333333333333h-160a5.333333333333333 5.333333333333333 0 0 1 -5.333333333333333 -5.333333333333333v-202.66666666666666a5.333333333333333 5.333333333333333 0 0 1 5.333333333333333 -5.333333333333333H160a5.546666666666667 5.546666666666667 0 0 1 3.84 1.4933333333333334l48.32 48.42666666666666A5.013333333333333 5.013333333333333 0 0 1 213.33333333333331 74.66666666666666Z" fill="#ffffff" stroke-width="10.6667"></path>
  </g>
</svg>