<svg xmlns="http://www.w3.org/2000/svg" id="Office-Drawer--Streamline-Ultimate" width="256" height="256" viewBox="0 0 256 256"><desc>Office Drawer Streamline Icon: https://streamlinehq.com</desc><g id="Office-Drawer--Streamline-Ultimate.svg"><path fill="#fff" stroke-width="10.667" d="M240 144h-224A16 16 0 0 0 0 160v74.66666666666666a16 16 0 0 0 16 16h224A16 16 0 0 0 256 234.66666666666666v-74.66666666666666a16 16 0 0 0 -16 -16Zm-74.66666666666666 34.666666666666664a8.106666666666666 8.106666666666666 0 0 1 -8 8h-58.666666666666664a8 8 0 0 1 0 -16h58.666666666666664a8 8 0 0 1 8 8Z"/><path fill="#fff" stroke-width="10.667" d="M32 128a10.666666666666666 10.666666666666666 0 0 0 10.666666666666666 -10.666666666666666V85.33333333333333a5.333333333333333 5.333333333333333 0 0 1 5.333333333333333 -5.333333333333333h78.72a2.986666666666667 2.986666666666667 0 0 1 2.1333333333333333 1.0666666666666667l11.946666666666667 16a10.666666666666666 10.666666666666666 0 0 0 8.533333333333333 4.266666666666667h58.666666666666664a5.333333333333333 5.333333333333333 0 0 1 5.333333333333333 5.333333333333333v10.666666666666666a10.666666666666666 10.666666666666666 0 0 0 21.333333333333332 0V101.33333333333333a21.333333333333332 21.333333333333332 0 0 0 -21.333333333333332 -21.333333333333332h-58.666666666666664l-9.6 -12.799999999999999a21.333333333333332 21.333333333333332 0 0 0 -17.066666666666666 -8.533333333333333H42.666666666666664a21.333333333333332 21.333333333333332 0 0 0 -21.333333333333332 21.333333333333332V117.33333333333333a10.666666666666666 10.666666666666666 0 0 0 10.666666666666666 10.666666666666666Z"/><path fill="#fff" stroke-width="10.667" d="M32 48a10.666666666666666 10.666666666666666 0 0 0 10.666666666666666 -10.666666666666666V32a5.333333333333333 5.333333333333333 0 0 1 5.333333333333333 -5.333333333333333h78.72a2.986666666666667 2.986666666666667 0 0 1 2.1333333333333333 1.0666666666666667l11.946666666666667 16a10.666666666666666 10.666666666666666 0 0 0 8.533333333333333 4.266666666666667h64a10.666666666666666 10.666666666666666 0 0 0 21.333333333333332 0 21.333333333333332 21.333333333333332 0 0 0 -21.333333333333332 -21.333333333333332h-58.666666666666664l-9.6 -12.799999999999999A21.333333333333332 21.333333333333332 0 0 0 128 5.333333333333333H42.666666666666664a21.333333333333332 21.333333333333332 0 0 0 -21.333333333333332 21.333333333333332v10.666666666666666a10.666666666666666 10.666666666666666 0 0 0 10.666666666666666 10.666666666666666Z"/></g></svg>