<svg xmlns="http://www.w3.org/2000/svg" viewBox="0 0 256 256" id="Office-Shredder-1--Streamline-Ultimate" height="256" width="256">
  <desc>
    Office Shredder 1 Streamline Icon: https://streamlinehq.com
  </desc>
  <g id="Office-Shredder-1--Streamline-Ultimate.svg">
    <path d="M95.35999999999999 154.66666666666666a8.106666666666666 8.106666666666666 0 0 0 -7.68 8.32c1.4933333333333334 35.839999999999996 -2.3466666666666667 71.67999999999999 -7.466666666666666 75.94666666666666a8 8 0 0 0 9.706666666666667 12.799999999999999c15.253333333333332 -11.52 14.719999999999999 -66.34666666666666 13.76 -89.38666666666667a8.213333333333333 8.213333333333333 0 0 0 -8.32 -7.68Z" fill="#ffffff" stroke-width="10.6667"></path>
    <path d="M71.89333333333333 162.66666666666666a8 8 0 0 0 -16 0v6.933333333333334c0 23.253333333333334 0 47.25333333333333 -12.373333333333331 55.67999999999999a8 8 0 0 0 -2.2399999999999998 10.666666666666666 8.106666666666666 8.106666666666666 0 0 0 10.666666666666666 2.2399999999999998c19.84 -13.226666666666667 19.733333333333334 -41.599999999999994 19.52 -69.12Z" fill="#ffffff" stroke-width="10.6667"></path>
    <path d="M175.78666666666666 238.9333333333333c-5.4399999999999995 -4.586666666666666 -8.959999999999999 -40.10666666666666 -7.573333333333332 -75.94666666666666a8 8 0 0 0 -7.68 -8.32 8.32 8.32 0 0 0 -8.32 7.68c-0.8533333333333333 23.04 -1.3866666666666667 77.86666666666666 13.866666666666667 89.38666666666667a7.786666666666666 7.786666666666666 0 0 0 10.666666666666666 -1.5999999999999999 8.106666666666666 8.106666666666666 0 0 0 -0.96 -11.2Z" fill="#ffffff" stroke-width="10.6667"></path>
    <path d="M212.48000000000002 225.28c-12.693333333333332 -8.426666666666666 -12.586666666666666 -32.64 -12.479999999999999 -56v-6.613333333333333a8 8 0 0 0 -16 0v6.506666666666666c0 27.626666666666665 0 56.213333333333324 19.626666666666665 69.44a7.893333333333333 7.893333333333333 0 0 0 10.666666666666666 -2.2399999999999998 8 8 0 0 0 -1.8133333333333335 -11.093333333333334Z" fill="#ffffff" stroke-width="10.6667"></path>
    <path d="M128 154.66666666666666a8 8 0 0 0 -8 8v85.33333333333333a8 8 0 0 0 16 0v-85.33333333333333a8 8 0 0 0 -8 -8Z" fill="#ffffff" stroke-width="10.6667"></path>
    <path d="M256 93.33333333333333a8 8 0 0 0 -8 -8H208a2.6666666666666665 2.6666666666666665 0 0 1 -2.6666666666666665 -2.6666666666666665V37.33333333333333a10.666666666666666 10.666666666666666 0 0 0 -2.6666666666666665 -7.573333333333332L175.57333333333332 3.093333333333333a10.666666666666666 10.666666666666666 0 0 0 -7.573333333333332 -3.093333333333333h-96a21.333333333333332 21.333333333333332 0 0 0 -21.333333333333332 21.333333333333332v61.33333333333333A2.6666666666666665 2.6666666666666665 0 0 1 48 85.33333333333333H8a8 8 0 0 0 -8 8v69.33333333333333a8.106666666666666 8.106666666666666 0 0 0 8 8h26.666666666666664a8.106666666666666 8.106666666666666 0 0 0 8 -8v-21.333333333333332a2.6666666666666665 2.6666666666666665 0 0 1 2.6666666666666665 -2.6666666666666665h165.33333333333331a2.6666666666666665 2.6666666666666665 0 0 1 2.6666666666666665 2.6666666666666665v21.333333333333332a8.106666666666666 8.106666666666666 0 0 0 8 8h26.666666666666664a8.106666666666666 8.106666666666666 0 0 0 8 -8ZM72 26.666666666666664a5.333333333333333 5.333333333333333 0 0 1 5.333333333333333 -5.333333333333333h85.33333333333333a2.5599999999999996 2.5599999999999996 0 0 1 1.92 0.7466666666666667l18.88 18.88a3.093333333333333 3.093333333333333 0 0 1 0.7466666666666667 1.92V80a2.6666666666666665 2.6666666666666665 0 0 1 -2.6666666666666665 2.6666666666666665H74.66666666666666a2.6666666666666665 2.6666666666666665 0 0 1 -2.6666666666666665 -2.6666666666666665ZM240 106.66666666666666a8.106666666666666 8.106666666666666 0 0 1 -8 8h-16a8 8 0 0 1 0 -16h16a8 8 0 0 1 8 8Z" fill="#ffffff" stroke-width="10.6667"></path>
  </g>
</svg>