<svg xmlns="http://www.w3.org/2000/svg" fill="none" viewBox="0 0 256 256" id="Office-Building-Tall-2--Streamline-Ultimate" height="256" width="256">
  <desc>
    Office Building Tall 2 Streamline Icon: https://streamlinehq.com
  </desc>
  <path fill="#ffffff" fill-rule="evenodd" d="M58.666666666666664 0a10.666666666666666 10.666666666666666 0 0 0 -10.666666666666666 10.666666666666666v16h160V10.666666666666666a10.666666666666666 10.666666666666666 0 0 0 -10.666666666666666 -10.666666666666666h-138.66666666666666ZM32 64H21.333333333333332a10.666666666666666 10.666666666666666 0 0 1 0 -21.333333333333332h213.33333333333331a10.666666666666666 10.666666666666666 0 1 1 0 21.333333333333332h-10.666666666666666v170.66666666666666h21.333333333333332a10.666666666666666 10.666666666666666 0 1 1 0 21.333333333333332h-96v-32a21.333333333333332 21.333333333333332 0 1 0 -42.666666666666664 0v32H10.666666666666666a10.666666666666666 10.666666666666666 0 1 1 0 -21.333333333333332h21.333333333333332V64Zm42.666666666666664 2.6666666666666665a8 8 0 0 1 8 8v10.666666666666666a8 8 0 0 1 -16 0V74.66666666666666A8 8 0 0 1 74.66666666666666 66.66666666666666Zm61.33333333333333 8a8 8 0 0 0 -16 0v10.666666666666666a8 8 0 0 0 16 0V74.66666666666666ZM181.33333333333331 66.66666666666666a8 8 0 0 1 8 8v10.666666666666666a8 8 0 0 1 -16 0V74.66666666666666a8 8 0 0 1 8 -8ZM82.66666666666666 117.33333333333333a8 8 0 0 0 -16 0v10.666666666666666a8 8 0 0 0 16 0v-10.666666666666666ZM74.66666666666666 152a8 8 0 0 1 8 8v10.666666666666666a8 8 0 0 1 -16 0v-10.666666666666666a8 8 0 0 1 8 -8ZM82.66666666666666 202.66666666666666a8 8 0 0 0 -16 0v10.666666666666666a8 8 0 0 0 16 0v-10.666666666666666ZM128 109.33333333333333a8 8 0 0 1 8 8v10.666666666666666a8 8 0 0 1 -16 0v-10.666666666666666a8 8 0 0 1 8 -8Zm8 50.666666666666664a8 8 0 0 0 -16 0v10.666666666666666a8 8 0 0 0 16 0v-10.666666666666666ZM181.33333333333331 109.33333333333333a8 8 0 0 1 8 8v10.666666666666666a8 8 0 0 1 -16 0v-10.666666666666666a8 8 0 0 1 8 -8Zm8 50.666666666666664a8 8 0 0 0 -16 0v10.666666666666666a8 8 0 0 0 16 0v-10.666666666666666ZM181.33333333333331 194.66666666666666a8 8 0 0 1 8 8v10.666666666666666a8 8 0 0 1 -16 0v-10.666666666666666a8 8 0 0 1 8 -8Z" clip-rule="evenodd" stroke-width="10.6667"></path>
</svg>