<svg xmlns="http://www.w3.org/2000/svg" viewBox="0 0 256 256" id="Office-Clipper--Streamline-Ultimate" height="256" width="256">
  <desc>
    Office Clipper Streamline Icon: https://streamlinehq.com
  </desc>
  <g id="Office-Clipper--Streamline-Ultimate.svg">
    <path d="m252.79999999999998 238.9333333333333 -31.36 -107.52A20.479999999999997 20.479999999999997 0 0 0 202.66666666666666 117.33333333333333h-11.733333333333334a2.88 2.88 0 0 0 -2.0266666666666664 0.8533333333333333 3.1999999999999997 3.1999999999999997 0 0 0 -0.6399999999999999 2.1333333333333333l10.666666666666666 73.28a26.666666666666664 26.666666666666664 0 0 1 -53.33333333333333 7.786666666666666l-12.053333333333331 -81.81333333333333a2.6666666666666665 2.6666666666666665 0 0 0 -2.6666666666666665 -2.2399999999999998h-7.253333333333334a2.6666666666666665 2.6666666666666665 0 0 0 -2.6666666666666665 2.2399999999999998l-12.053333333333331 81.81333333333333a26.666666666666664 26.666666666666664 0 0 1 -52.8 -7.786666666666666l10.666666666666666 -73.28a2.6666666666666665 2.6666666666666665 0 0 0 -0.6399999999999999 -2.1333333333333333 2.88 2.88 0 0 0 -1.0666666666666667 -0.8533333333333333H53.33333333333333a20.37333333333333 20.37333333333333 0 0 0 -18.773333333333333 14.08L3.1999999999999997 238.9333333333333a13.44 13.44 0 0 0 1.92 11.946666666666667 13.546666666666667 13.546666666666667 0 0 0 10.666666666666666 5.119999999999999h224a12.906666666666666 12.906666666666666 0 0 0 12.799999999999999 -17.066666666666666Z" fill="#ffffff" stroke-width="10.6667"></path>
    <path d="M87.46666666666665 85.33333333333333a2.5599999999999996 2.5599999999999996 0 0 1 1.1733333333333333 2.6666666666666665L72.74666666666667 195.83999999999997a10.666666666666666 10.666666666666666 0 0 0 8.959999999999999 12.159999999999998 10.666666666666666 10.666666666666666 0 0 0 12.053333333333331 -8.959999999999999l16.32 -110.08a21.333333333333332 21.333333333333332 0 0 0 -10.666666666666666 -21.333333333333332A24.21333333333333 24.21333333333333 0 0 1 85.33333333333333 48C85.33333333333333 33.49333333333333 104.85333333333332 21.333333333333332 128 21.333333333333332s42.666666666666664 12.159999999999998 42.666666666666664 26.666666666666664a24.426666666666666 24.426666666666666 0 0 1 -14.186666666666667 19.52 21.333333333333332 21.333333333333332 0 0 0 -10.666666666666666 21.333333333333332l16.32 109.97333333333333a10.666666666666666 10.666666666666666 0 1 0 21.333333333333332 -3.1999999999999997L167.35999999999999 87.78666666666666A2.5599999999999996 2.5599999999999996 0 0 1 168.53333333333333 85.33333333333333 44.05333333333333 44.05333333333333 0 0 0 192 48C192 21.333333333333332 163.83999999999997 0 128 0S64 21.333333333333332 64 48A44.05333333333333 44.05333333333333 0 0 0 87.46666666666665 85.33333333333333Z" fill="#ffffff" stroke-width="10.6667"></path>
  </g>
</svg>