<svg xmlns="http://www.w3.org/2000/svg" viewBox="0 0 256 256" id="Office-Shelf-1--Streamline-Ultimate" height="256" width="256">
  <desc>
    Office Shelf 1 Streamline Icon: https://streamlinehq.com
  </desc>
  <g id="Office-Shelf-1--Streamline-Ultimate.svg">
    <path d="M245.33333333333331 234.66666666666666h-50.666666666666664a2.6666666666666665 2.6666666666666665 0 0 1 -2.6666666666666665 -2.6666666666666665v-64a13.333333333333332 13.333333333333332 0 0 0 -13.333333333333332 -13.333333333333332h-16A13.333333333333332 13.333333333333332 0 0 0 149.33333333333331 168v64a2.6666666666666665 2.6666666666666665 0 0 1 -2.6666666666666665 2.6666666666666665h-10.666666666666666a2.6666666666666665 2.6666666666666665 0 0 1 -2.6666666666666665 -2.6666666666666665v-53.33333333333333a13.333333333333332 13.333333333333332 0 0 0 -13.333333333333332 -13.333333333333332h-16a13.333333333333332 13.333333333333332 0 0 0 -13.333333333333332 13.333333333333332v53.33333333333333a2.6666666666666665 2.6666666666666665 0 0 1 -2.6666666666666665 2.6666666666666665h-10.666666666666666a2.6666666666666665 2.6666666666666665 0 0 1 -2.6666666666666665 -2.6666666666666665v-74.66666666666666a13.333333333333332 13.333333333333332 0 0 0 -13.333333333333332 -13.333333333333332h-16A13.333333333333332 13.333333333333332 0 0 0 32 157.33333333333331v74.66666666666666a2.6666666666666665 2.6666666666666665 0 0 1 -2.6666666666666665 2.6666666666666665H10.666666666666666a10.666666666666666 10.666666666666666 0 0 0 0 21.333333333333332h234.66666666666666a10.666666666666666 10.666666666666666 0 0 0 0 -21.333333333333332Z" fill="#ffffff" stroke-width="10.6667"></path>
    <path d="M10.666666666666666 117.33333333333333h234.66666666666666a10.666666666666666 10.666666666666666 0 0 0 0 -21.333333333333332h-12.479999999999999a2.6666666666666665 2.6666666666666665 0 0 1 -2.0266666666666664 -0.96 2.6666666666666665 2.6666666666666665 0 0 1 -0.6399999999999999 -2.1333333333333333 13.12 13.12 0 0 0 -0.7466666666666667 -7.573333333333332l-24.319999999999997 -58.986666666666665a13.44 13.44 0 0 0 -17.386666666666663 -7.253333333333334l-19.733333333333334 8.106666666666666a13.546666666666667 13.546666666666667 0 0 0 -7.253333333333334 7.1466666666666665 13.12 13.12 0 0 0 0 10.666666666666666l19.52 47.25333333333333a3.093333333333333 3.093333333333333 0 0 1 0 2.5599999999999996 2.7733333333333334 2.7733333333333334 0 0 1 -2.2399999999999998 1.1733333333333333h-26.026666666666664a2.6666666666666665 2.6666666666666665 0 0 1 -2.6666666666666665 -2.6666666666666665v-80A13.333333333333332 13.333333333333332 0 0 0 136 0h-16A13.333333333333332 13.333333333333332 0 0 0 106.66666666666666 13.333333333333332v80a2.6666666666666665 2.6666666666666665 0 0 1 -2.6666666666666665 2.6666666666666665h-10.666666666666666a2.6666666666666665 2.6666666666666665 0 0 1 -2.6666666666666665 -2.6666666666666665v-58.666666666666664A13.333333333333332 13.333333333333332 0 0 0 77.33333333333333 21.333333333333332h-16A13.333333333333332 13.333333333333332 0 0 0 48 34.666666666666664v58.666666666666664a2.6666666666666665 2.6666666666666665 0 0 1 -2.6666666666666665 2.6666666666666665H10.666666666666666a10.666666666666666 10.666666666666666 0 0 0 0 21.333333333333332Z" fill="#ffffff" stroke-width="10.6667"></path>
  </g>
</svg>