<svg xmlns="http://www.w3.org/2000/svg" id="Office-Building-Double--Streamline-Ultimate" width="256" height="256" fill="none" viewBox="0 0 256 256"><desc>Office Building Double Streamline Icon: https://streamlinehq.com</desc><path fill="#fff" fill-rule="evenodd" stroke-width="10.667" d="M0 21.333333333333332a21.333333333333332 21.333333333333332 0 0 1 21.333333333333332 -21.333333333333332h128a21.333333333333332 21.333333333333332 0 0 1 21.333333333333332 21.333333333333332v234.66666666666666h-64v-32a21.333333333333332 21.333333333333332 0 1 0 -42.666666666666664 0v32H0V21.333333333333332Zm186.66666666666666 85.33333333333333H234.66666666666666a21.333333333333332 21.333333333333332 0 0 1 21.333333333333332 21.333333333333332v128h-69.33333333333333V106.66666666666666ZM42.666666666666664 32a10.666666666666666 10.666666666666666 0 0 0 -10.666666666666666 10.666666666666666v26.666666666666664a10.666666666666666 10.666666666666666 0 0 0 10.666666666666666 10.666666666666666h16a10.666666666666666 10.666666666666666 0 0 0 10.666666666666666 -10.666666666666666V42.666666666666664a10.666666666666666 10.666666666666666 0 0 0 -10.666666666666666 -10.666666666666666H42.666666666666664Zm58.666666666666664 10.666666666666666a10.666666666666666 10.666666666666666 0 0 1 10.666666666666666 -10.666666666666666H128a10.666666666666666 10.666666666666666 0 0 1 10.666666666666666 10.666666666666666v26.666666666666664a10.666666666666666 10.666666666666666 0 0 1 -10.666666666666666 10.666666666666666h-16a10.666666666666666 10.666666666666666 0 0 1 -10.666666666666666 -10.666666666666666V42.666666666666664ZM42.666666666666664 122.66666666666666a10.666666666666666 10.666666666666666 0 0 0 -10.666666666666666 10.666666666666666V160a10.666666666666666 10.666666666666666 0 0 0 10.666666666666666 10.666666666666666h16a10.666666666666666 10.666666666666666 0 0 0 10.666666666666666 -10.666666666666666v-26.666666666666664a10.666666666666666 10.666666666666666 0 0 0 -10.666666666666666 -10.666666666666666H42.666666666666664Zm58.666666666666664 10.666666666666666a10.666666666666666 10.666666666666666 0 0 1 10.666666666666666 -10.666666666666666H128a10.666666666666666 10.666666666666666 0 0 1 10.666666666666666 10.666666666666666V160a10.666666666666666 10.666666666666666 0 0 1 -10.666666666666666 10.666666666666666h-16a10.666666666666666 10.666666666666666 0 0 1 -10.666666666666666 -10.666666666666666v-26.666666666666664Z" clip-rule="evenodd"/></svg>