<svg xmlns="http://www.w3.org/2000/svg" viewBox="0 0 256 256" id="Office-Employee--Streamline-Ultimate" height="256" width="256">
  <desc>
    Office Employee Streamline Icon: https://streamlinehq.com
  </desc>
  <g id="Office-Employee--Streamline-Ultimate.svg">
    <path d="M243.94666666666666 234.66666666666666H202.66666666666666a2.453333333333333 2.453333333333333 0 0 1 -2.1333333333333333 -1.0666666666666667 2.453333333333333 2.453333333333333 0 0 1 0 -2.2399999999999998l14.08 -53.33333333333333a9.386666666666667 9.386666666666667 0 0 0 -1.92 -8.426666666666666 10.666666666666666 10.666666666666666 0 0 0 -8.32 -3.84H51.946666666666665a10.666666666666666 10.666666666666666 0 0 0 -8.32 3.84 9.386666666666667 9.386666666666667 0 0 0 -1.92 8.426666666666666l14.08 53.33333333333333a2.453333333333333 2.453333333333333 0 0 1 0 2.2399999999999998 2.453333333333333 2.453333333333333 0 0 1 -2.453333333333333 1.0666666666666667H12.053333333333331a10.666666666666666 10.666666666666666 0 0 0 0 21.333333333333332h231.89333333333332a10.666666666666666 10.666666666666666 0 0 0 0 -21.333333333333332ZM128 192a13.226666666666667 13.226666666666667 0 1 1 -13.12 13.226666666666667A13.12 13.12 0 0 1 128 192Z" fill="#ffffff" stroke-width="10.6667"></path>
    <path d="M66.98666666666666 144.74666666666667a5.333333333333333 5.333333333333333 0 0 0 5.333333333333333 5.119999999999999h111.35999999999999a5.333333333333333 5.333333333333333 0 0 0 5.333333333333333 -5.226666666666667 61.120000000000005 61.120000000000005 0 0 0 -34.13333333333333 -54.82666666666666 2.5599999999999996 2.5599999999999996 0 0 1 0 -4.4799999999999995 46.82666666666666 46.82666666666666 0 1 0 -54.29333333333333 0 2.986666666666667 2.986666666666667 0 0 1 1.1733333333333333 2.453333333333333 2.7733333333333334 2.7733333333333334 0 0 1 -1.4933333333333334 2.1333333333333333 61.22666666666667 61.22666666666667 0 0 0 -33.28 54.82666666666666ZM128 103.14666666666666a7.893333333333333 7.893333333333333 0 0 1 7.893333333333333 7.893333333333333v13.013333333333332a7.893333333333333 7.893333333333333 0 0 1 -15.786666666666665 0v-13.013333333333332a7.893333333333333 7.893333333333333 0 0 1 7.893333333333333 -7.893333333333333Zm-25.066666666666666 -64a2.5599999999999996 2.5599999999999996 0 0 1 1.7066666666666666 -1.5999999999999999 2.3466666666666667 2.3466666666666667 0 0 1 2.2399999999999998 0 59.30666666666666 59.30666666666666 0 0 0 32 9.6 63.25333333333333 63.25333333333333 0 0 0 12.053333333333331 -1.2799999999999998 1.1733333333333333 1.1733333333333333 0 0 1 1.0666666666666667 0 1.4933333333333334 1.4933333333333334 0 0 1 0.5333333333333333 1.0666666666666667 25.706666666666667 25.706666666666667 0 1 1 -50.02666666666667 -8.213333333333333Z" fill="#ffffff" stroke-width="10.6667"></path>
  </g>
</svg>