<svg xmlns="http://www.w3.org/2000/svg" viewBox="0 0 256 256" id="Office-Chair--Streamline-Ultimate" height="256" width="256">
  <desc>
    Office Chair Streamline Icon: https://streamlinehq.com
  </desc>
  <g id="Office-Chair--Streamline-Ultimate.svg">
    <path d="M245.33333333333331 90.24000000000001a26.666666666666664 26.666666666666664 0 0 0 -46.82666666666666 23.04 5.226666666666667 5.226666666666667 0 0 0 5.119999999999999 4.053333333333333h5.546666666666667a2.6666666666666665 2.6666666666666665 0 0 1 2.0266666666666664 0.96 2.453333333333333 2.453333333333333 0 0 1 0.5333333333333333 2.2399999999999998l-4.373333333333333 21.333333333333332a16.21333333333333 16.21333333333333 0 0 1 -9.813333333333333 10.666666666666666 2.88 2.88 0 0 1 -3.1999999999999997 -0.96 15.786666666666665 15.786666666666665 0 0 0 -7.68 -5.653333333333333A189.86666666666667 189.86666666666667 0 0 0 128 138.66666666666666a189.86666666666667 189.86666666666667 0 0 0 -58.346666666666664 8.106666666666666 15.786666666666665 15.786666666666665 0 0 0 -7.68 5.653333333333333 2.88 2.88 0 0 1 -3.1999999999999997 0.96 16.21333333333333 16.21333333333333 0 0 1 -9.813333333333333 -10.666666666666666l-4.373333333333333 -21.333333333333332a2.453333333333333 2.453333333333333 0 0 1 0.5333333333333333 -2.2399999999999998 2.6666666666666665 2.6666666666666665 0 0 1 2.0266666666666664 -1.8133333333333335h5.546666666666667a5.226666666666667 5.226666666666667 0 0 0 5.119999999999999 -4.053333333333333 26.666666666666664 26.666666666666664 0 1 0 -51.626666666666665 0 5.226666666666667 5.226666666666667 0 0 0 5.119999999999999 4.053333333333333h6.506666666666666a5.333333333333333 5.333333333333333 0 0 1 5.226666666666667 4.266666666666667l5.013333333333333 24.85333333333333a37.76 37.76 0 0 0 29.973333333333333 28.906666666666666 2.88 2.88 0 0 1 2.0266666666666664 1.4933333333333334A15.893333333333333 15.893333333333333 0 0 0 74.66666666666666 186.66666666666666h40a2.6666666666666665 2.6666666666666665 0 0 1 2.6666666666666665 2.6666666666666665v6.3999999999999995a2.7733333333333334 2.7733333333333334 0 0 1 -2.3466666666666667 2.6666666666666665 76.90666666666667 76.90666666666667 0 0 0 -48.85333333333333 24.53333333333333 2.7733333333333334 2.7733333333333334 0 0 1 -2.1333333333333333 1.0666666666666667 16 16 0 1 0 16 16.64c0 -1.2799999999999998 0 -1.5999999999999999 3.1999999999999997 -4.906666666666666a53.33333333333333 53.33333333333333 0 0 1 31.04 -15.893333333333333 2.6666666666666665 2.6666666666666665 0 0 1 2.1333333333333333 0.6399999999999999 2.3466666666666667 2.3466666666666667 0 0 1 0.96 2.0266666666666664v5.653333333333333a16 16 0 1 0 21.333333333333332 0v-5.653333333333333a2.6666666666666665 2.6666666666666665 0 0 1 0.96 -2.1333333333333333 3.093333333333333 3.093333333333333 0 0 1 2.1333333333333333 -0.5333333333333333 53.33333333333333 53.33333333333333 0 0 1 31.04 15.893333333333333c2.7733333333333334 3.413333333333333 3.1999999999999997 3.626666666666667 3.1999999999999997 4.906666666666666A16 16 0 1 0 192 224a2.6666666666666665 2.6666666666666665 0 0 1 -2.1333333333333333 -0.96 76.90666666666667 76.90666666666667 0 0 0 -48.85333333333333 -24.53333333333333 2.7733333333333334 2.7733333333333334 0 0 1 -2.3466666666666667 -2.6666666666666665v-6.3999999999999995a2.6666666666666665 2.6666666666666665 0 0 1 2.6666666666666665 -2.6666666666666665H181.33333333333331a15.893333333333333 15.893333333333333 0 0 0 14.613333333333333 -9.813333333333333 2.88 2.88 0 0 1 2.0266666666666664 -1.4933333333333334 37.76 37.76 0 0 0 29.973333333333333 -28.906666666666666l5.013333333333333 -24.85333333333333a5.333333333333333 5.333333333333333 0 0 1 5.226666666666667 -4.266666666666667h6.506666666666666a5.226666666666667 5.226666666666667 0 0 0 5.119999999999999 -4.053333333333333A26.560000000000002 26.560000000000002 0 0 0 245.33333333333331 90.24000000000001Z" fill="#ffffff" stroke-width="10.6667"></path>
    <path d="M76.58666666666666 123.41333333333333a5.333333333333333 5.333333333333333 0 0 0 6.079999999999999 3.413333333333333 249.06666666666666 249.06666666666666 0 0 1 90.66666666666666 0 5.4399999999999995 5.4399999999999995 0 0 0 6.079999999999999 -3.413333333333333A309.3333333333333 309.3333333333333 0 0 0 197.33333333333331 58.666666666666664 62.82666666666666 62.82666666666666 0 0 0 139.62666666666667 0.5333333333333333a120.96 120.96 0 0 0 -23.253333333333334 0A62.82666666666666 62.82666666666666 0 0 0 58.666666666666664 58.666666666666664a309.3333333333333 309.3333333333333 0 0 0 17.919999999999998 64.74666666666667Z" fill="#ffffff" stroke-width="10.6667"></path>
  </g>
</svg>