<svg xmlns="http://www.w3.org/2000/svg" id="Office-Desk-2--Streamline-Ultimate" width="256" height="256" viewBox="0 0 256 256"><desc>Office Desk 2 Streamline Icon: https://streamlinehq.com</desc><g id="Office-Desk-2--Streamline-Ultimate.svg"><path fill="#fff" stroke-width="10.667" d="M250.66666666666666 224h-74.66666666666666a5.333333333333333 5.333333333333333 0 0 0 -5.333333333333333 5.333333333333333v10.666666666666666a16 16 0 0 0 16 16h53.33333333333333a16 16 0 0 0 16 -16v-10.666666666666666a5.333333333333333 5.333333333333333 0 0 0 -5.333333333333333 -5.333333333333333Z"/><path fill="#fff" stroke-width="10.667" d="M240 122.66666666666666H125.33333333333333a2.6666666666666665 2.6666666666666665 0 0 1 -2.6666666666666665 -2.6666666666666665v-10.666666666666666a2.6666666666666665 2.6666666666666665 0 0 1 2.6666666666666665 -2.6666666666666665H170.66666666666666a21.333333333333332 21.333333333333332 0 0 0 21.333333333333332 -21.333333333333332V21.333333333333332a21.333333333333332 21.333333333333332 0 0 0 -21.333333333333332 -21.333333333333332H53.33333333333333a21.333333333333332 21.333333333333332 0 0 0 -21.333333333333332 21.333333333333332v64a21.333333333333332 21.333333333333332 0 0 0 21.333333333333332 21.333333333333332h45.33333333333333a2.6666666666666665 2.6666666666666665 0 0 1 2.6666666666666665 2.6666666666666665v10.666666666666666a2.6666666666666665 2.6666666666666665 0 0 1 -2.6666666666666665 2.6666666666666665H16A16 16 0 0 0 0 138.66666666666666v106.66666666666666a10.666666666666666 10.666666666666666 0 0 0 21.333333333333332 0v-80a5.333333333333333 5.333333333333333 0 0 1 5.333333333333333 -5.333333333333333h224a5.333333333333333 5.333333333333333 0 0 0 5.333333333333333 -5.333333333333333V138.66666666666666a16 16 0 0 0 -16 -16ZM53.33333333333333 21.333333333333332h117.33333333333333v64H53.33333333333333Z"/><path fill="#fff" stroke-width="10.667" d="M176 176h74.66666666666666s5.333333333333333 0 5.333333333333333 5.333333333333333v21.333333333333332s0 5.333333333333333 -5.333333333333333 5.333333333333333h-74.66666666666666s-5.333333333333333 0 -5.333333333333333 -5.333333333333333v-21.333333333333332s0 -5.333333333333333 5.333333333333333 -5.333333333333333"/></g></svg>