<svg xmlns="http://www.w3.org/2000/svg" viewBox="0 0 256 256" id="Office-File-Xls--Streamline-Ultimate" height="256" width="256">
  <desc>
    Office File Xls Streamline Icon: https://streamlinehq.com
  </desc>
  <g id="Office-File-Xls--Streamline-Ultimate.svg">
    <path d="M186.66666666666666 64h41.599999999999994a2.6666666666666665 2.6666666666666665 0 0 0 1.8133333333333335 -4.586666666666666L175.25333333333333 4.4799999999999995A2.7733333333333334 2.7733333333333334 0 0 0 170.66666666666666 6.3999999999999995v41.599999999999994A16 16 0 0 0 186.66666666666666 64Z" fill="#ffffff" stroke-width="10.6667"></path>
    <path d="M232 74.66666666666666H186.66666666666666A26.666666666666664 26.666666666666664 0 0 1 160 48V2.6666666666666665a2.6666666666666665 2.6666666666666665 0 0 0 -2.6666666666666665 -2.6666666666666665H42.666666666666664a21.333333333333332 21.333333333333332 0 0 0 -21.333333333333332 21.333333333333332v213.33333333333331a21.333333333333332 21.333333333333332 0 0 0 21.333333333333332 21.333333333333332h170.66666666666666a21.333333333333332 21.333333333333332 0 0 0 21.333333333333332 -21.333333333333332V77.33333333333333a2.6666666666666665 2.6666666666666665 0 0 0 -2.6666666666666665 -2.6666666666666665ZM96.64 194.02666666666667a6.72 6.72 0 0 1 -2.986666666666667 8.959999999999999 7.68 7.68 0 0 1 -2.986666666666667 0.7466666666666667 6.72 6.72 0 0 1 -5.973333333333334 -3.733333333333333L75.30666666666666 181.33333333333331a0.7466666666666667 0.7466666666666667 0 0 0 -1.2799999999999998 0l-9.386666666666667 18.773333333333333a6.72 6.72 0 0 1 -5.973333333333334 3.733333333333333 7.253333333333334 7.253333333333334 0 0 1 -2.986666666666667 -1.1733333333333333 6.72 6.72 0 0 1 -2.986666666666667 -8.959999999999999l13.866666666666667 -27.839999999999996a2.3466666666666667 2.3466666666666667 0 0 0 0 -2.3466666666666667l-13.866666666666667 -27.839999999999996a6.72 6.72 0 1 1 11.946666666666667 -5.973333333333334l9.28 18.666666666666664a0.8533333333333333 0.8533333333333333 0 0 0 1.4933333333333334 0l9.28 -18.666666666666664a6.72 6.72 0 0 1 11.946666666666667 5.973333333333334l-13.973333333333333 28.16a2.986666666666667 2.986666666666667 0 0 0 0 2.3466666666666667Zm47.36 9.706666666666667h-21.333333333333332a17.28 17.28 0 0 1 -17.28 -17.386666666666663v-53.33333333333333a6.613333333333333 6.613333333333333 0 0 1 13.226666666666667 0v53.33333333333333a4.053333333333333 4.053333333333333 0 0 0 4.053333333333333 4.053333333333333h21.333333333333332a6.72 6.72 0 0 1 0 13.333333333333332Zm31.253333333333334 -50.773333333333326 19.626666666666665 13.12a20.586666666666666 20.586666666666666 0 0 1 -11.413333333333334 37.65333333333333h-18.133333333333333a6.72 6.72 0 0 1 0 -13.333333333333332h18.133333333333333a7.359999999999999 7.359999999999999 0 0 0 7.253333333333334 -7.253333333333334 7.04 7.04 0 0 0 -3.3066666666666666 -5.973333333333334l-19.626666666666665 -13.12a20.586666666666666 20.586666666666666 0 0 1 11.413333333333334 -37.65333333333333h18.133333333333333a6.72 6.72 0 0 1 0 13.333333333333332h-18.133333333333333a7.253333333333334 7.253333333333334 0 0 0 -7.253333333333334 7.253333333333334 7.359999999999999 7.359999999999999 0 0 0 3.3066666666666666 5.973333333333334Z" fill="#ffffff" stroke-width="10.6667"></path>
  </g>
</svg>