<svg xmlns="http://www.w3.org/2000/svg" id="Office-File-Text--Streamline-Ultimate" width="256" height="256" viewBox="0 0 256 256"><desc>Office File Text Streamline Icon: https://streamlinehq.com</desc><g id="Office-File-Text--Streamline-Ultimate.svg"><path fill="#fff" stroke-width="10.667" d="M231.57333333333332 60.906666666666666 173.76 3.093333333333333a10.666666666666666 10.666666666666666 0 0 0 -7.466666666666666 -3.093333333333333H42.666666666666664a21.333333333333332 21.333333333333332 0 0 0 -21.333333333333332 21.333333333333332v213.33333333333331a21.333333333333332 21.333333333333332 0 0 0 21.333333333333332 21.333333333333332h170.66666666666666a21.333333333333332 21.333333333333332 0 0 0 21.333333333333332 -21.333333333333332V68.37333333333333a10.666666666666666 10.666666666666666 0 0 0 -3.093333333333333 -7.466666666666666ZM213.33333333333331 229.33333333333331a5.333333333333333 5.333333333333333 0 0 1 -5.333333333333333 5.333333333333333h-160a5.333333333333333 5.333333333333333 0 0 1 -5.333333333333333 -5.333333333333333v-202.66666666666666a5.333333333333333 5.333333333333333 0 0 1 5.333333333333333 -5.333333333333333h109.33333333333333a2.6666666666666665 2.6666666666666665 0 0 1 2.6666666666666665 2.6666666666666665V53.33333333333333a21.333333333333332 21.333333333333332 0 0 0 21.333333333333332 21.333333333333332h29.333333333333332a2.6666666666666665 2.6666666666666665 0 0 1 2.6666666666666665 2.6666666666666665Z"/><path fill="#fff" stroke-width="10.667" d="M170.66666666666666 101.33333333333333H85.33333333333333a10.666666666666666 10.666666666666666 0 0 0 -10.666666666666666 10.666666666666666V128a10.666666666666666 10.666666666666666 0 0 0 21.333333333333332 0v-2.6666666666666665a2.6666666666666665 2.6666666666666665 0 0 1 2.6666666666666665 -2.6666666666666665h16a2.6666666666666665 2.6666666666666665 0 0 1 2.6666666666666665 2.6666666666666665v53.33333333333333a2.6666666666666665 2.6666666666666665 0 0 1 -2.6666666666666665 2.6666666666666665H101.33333333333333a10.666666666666666 10.666666666666666 0 0 0 0 21.333333333333332h53.33333333333333a10.666666666666666 10.666666666666666 0 0 0 0 -21.333333333333332h-13.333333333333332a2.6666666666666665 2.6666666666666665 0 0 1 -2.6666666666666665 -2.6666666666666665v-53.33333333333333a2.6666666666666665 2.6666666666666665 0 0 1 2.6666666666666665 -2.6666666666666665h16a2.6666666666666665 2.6666666666666665 0 0 1 2.6666666666666665 2.6666666666666665V128a10.666666666666666 10.666666666666666 0 0 0 21.333333333333332 0v-16a10.666666666666666 10.666666666666666 0 0 0 -10.666666666666666 -10.666666666666666Z"/></g></svg>