<svg xmlns="http://www.w3.org/2000/svg" viewBox="0 0 256 256" id="Optimization-Graph--Streamline-Ultimate" height="256" width="256">
  <desc>
    Optimization Graph Streamline Icon: https://streamlinehq.com
  </desc>
  <g id="Optimization-Graph--Streamline-Ultimate.svg">
    <path d="M252.81386666666666 116.94720000000001c0.0384 -5.303466666666666 -3.9103999999999997 -9.790933333333333 -9.175466666666665 -10.427733333333332l-18.039466666666666 -2.293333333333333c-1.0410666666666666 -0.128 -1.904 -0.8682666666666666 -2.1898666666666666 -1.877333333333333 -2.4181333333333335 -8.413866666666665 -5.9232 -16.47573333333333 -10.426666666666666 -23.981866666666665 -0.5696 -0.8906666666666667 -0.5696 -2.0298666666666665 0 -2.920533333333333l11.2608 -14.389333333333333c3.2629333333333332 -4.187733333333333 2.8597333333333332 -10.157866666666667 -0.9386666666666665 -13.867733333333334l-14.910933333333332 -15.432533333333334c-3.694933333333333 -3.7375999999999996 -9.594666666666665 -4.139733333333333 -13.7632 -0.9386666666666665L179.8229333333333 42.08c-0.8896 0.5685333333333333 -2.0288 0.5685333333333333 -2.9194666666666667 0 -7.497599999999999 -4.521599999999999 -15.5616 -8.0288 -23.981866666666665 -10.427733333333332 -1.0101333333333333 -0.28586666666666666 -1.7493333333333334 -1.1488 -1.877333333333333 -2.1898666666666666l-1.9808 -17.413333333333334c-0.6368 -5.265066666666666 -5.124266666666666 -9.213866666666666 -10.427733333333332 -9.175466666666665h-22.001066666666667c-5.303466666666666 -0.0384 -9.790933333333333 3.9103999999999997 -10.427733333333332 9.175466666666665l-2.1898666666666666 18.039466666666666c-0.128 1.0410666666666666 -0.8672 1.904 -1.8762666666666665 2.1898666666666666 -8.420266666666667 2.398933333333333 -16.485333333333333 5.9050666666666665 -23.982933333333335 10.426666666666666 -0.8906666666666667 0.5685333333333333 -2.0298666666666665 0.5685333333333333 -2.9194666666666667 0L60.74453333333333 30.818133333333336c-4.1696 -3.2010666666666663 -10.068266666666666 -2.7989333333333333 -13.764266666666666 0.9386666666666665L31.443199999999997 47.2928c-3.736533333333333 3.6959999999999997 -4.1386666666666665 9.595733333333332 -0.9376 13.764266666666666l11.2608 14.806399999999998c0.5696 0.8906666666666667 0.5696 2.0298666666666665 0 2.920533333333333 -4.503466666666666 7.506133333333333 -8.009599999999999 15.568 -10.426666666666666 23.981866666666665 -0.28586666666666666 1.0090666666666666 -1.1488 1.7493333333333334 -2.1898666666666666 1.877333333333333l-17.413333333333334 2.5023999999999997c-5.266133333333333 0.6357333333333333 -9.214933333333333 5.1232 -9.176533333333332 10.426666666666666v22.106666666666662c-0.0384 5.303466666666666 3.9103999999999997 9.790933333333333 9.176533333333332 10.426666666666666l18.0384 2.2944c1.0410666666666666 0.128 1.904 0.8672 2.1898666666666666 1.8762666666666665 2.4 8.420266666666667 5.906133333333333 16.485333333333333 10.427733333333332 23.982933333333335 0.5685333333333333 0.8896 0.5685333333333333 2.0298666666666665 0 2.9194666666666667l-11.886933333333333 13.764266666666666c-3.2010666666666663 4.1685333333333325 -2.7989333333333333 10.068266666666666 0.9386666666666665 13.764266666666666l15.535999999999998 15.535999999999998c3.6959999999999997 3.7375999999999996 9.595733333333332 4.139733333333333 13.764266666666666 0.9386666666666665l14.806399999999998 -11.261866666666666c0.8906666666666667 -0.5685333333333333 2.0298666666666665 -0.5685333333333333 2.9194666666666667 0 7.497599999999999 4.521599999999999 15.562666666666667 8.027733333333334 23.982933333333335 10.427733333333332 1.0090666666666666 0.28586666666666666 1.7482666666666664 1.1488 1.877333333333333 2.1898666666666666l2.5023999999999997 17.413333333333334c0.6357333333333333 5.265066666666666 5.1232 9.213866666666666 10.426666666666666 9.176533333333332h22.1056c5.303466666666666 0.03733333333333333 9.790933333333333 -3.9114666666666666 10.427733333333332 -9.176533333333332l2.293333333333333 -18.039466666666666c0.128 -1.0410666666666666 0.8682666666666666 -1.904 1.877333333333333 -2.1898666666666666 8.420266666666667 -2.398933333333333 16.485333333333333 -5.9050666666666665 23.982933333333335 -10.426666666666666 0.8896 -0.5685333333333333 2.0288 -0.5685333333333333 2.9194666666666667 0l14.493866666666666 11.261866666666666c4.1685333333333325 3.1999999999999997 10.068266666666666 2.7978666666666663 13.764266666666666 -0.9386666666666665l15.535999999999998 -15.537066666666664c3.7375999999999996 -3.6959999999999997 4.139733333333333 -9.594666666666665 0.9386666666666665 -13.764266666666666l-11.991466666666668 -14.180266666666665c-0.5685333333333333 -0.8906666666666667 -0.5685333333333333 -2.0298666666666665 0 -2.9194666666666667 4.521599999999999 -7.498666666666666 8.027733333333334 -15.562666666666667 10.427733333333332 -23.982933333333335 0.28586666666666666 -1.0090666666666666 1.1488 -1.7493333333333334 2.1898666666666666 -1.877333333333333l18.0384 -2.293333333333333c5.266133333333333 -0.6368 9.214933333333333 -5.124266666666666 9.176533333333332 -10.427733333333332Zm-125.1264 84.04373333333334c-56.18879999999999 0 -91.30666666666667 -60.825599999999994 -63.21173333333333 -109.48586666666667 28.093866666666663 -48.66133333333333 98.3296 -48.66133333333333 126.42346666666666 0 6.4064 11.095466666666667 9.7792 23.682133333333333 9.7792 36.494933333333336 0 40.31146666666666 -32.67946666666666 72.99093333333333 -72.99093333333333 72.99093333333333Z" fill="#ffffff" stroke-width="10.6667"></path>
    <path d="M138.1141333333333 138.42773333333332h15.641599999999999c2.651733333333333 0.24 4.992 -1.7258666666666667 5.2128 -4.379733333333333V90.67093333333334c-0.2208 -2.654933333333333 -2.5610666666666666 -4.620799999999999 -5.2128 -4.379733333333333h-15.641599999999999c-2.651733333333333 -0.24106666666666665 -4.9930666666666665 1.7248 -5.213866666666666 4.379733333333333v43.377066666666664c0.2208 2.6538666666666666 2.562133333333333 4.619733333333333 5.213866666666666 4.378666666666666Z" fill="#ffffff" stroke-width="10.6667"></path>
    <path d="M96.40533333333333 107.1456h15.640533333333332s5.213866666666666 0 5.213866666666666 5.213866666666666v20.8544s0 5.213866666666666 -5.213866666666666 5.213866666666666H96.40533333333333s-5.213866666666666 0 -5.213866666666666 -5.213866666666666v-20.8544s0 -5.213866666666666 5.213866666666666 -5.213866666666666" fill="#ffffff" stroke-width="10.6667"></path>
    <path d="M158.9685333333333 148.8544H91.19146666666667c-8.026666666666666 0 -13.0432 8.689066666666665 -9.0304 15.640533333333332 1.8634666666666666 3.2266666666666666 5.3056 5.213866666666666 9.0304 5.213866666666666h67.77706666666666c8.027733333333334 0 13.044266666666667 -8.690133333333332 9.0304 -15.640533333333332 -1.8624 -3.2266666666666666 -5.3045333333333335 -5.213866666666666 -9.0304 -5.213866666666666Z" fill="#ffffff" stroke-width="10.6667"></path>
  </g>
</svg>