<svg xmlns="http://www.w3.org/2000/svg" viewBox="0 0 256 256" id="Optimization-Graph-Line--Streamline-Ultimate" height="256" width="256">
  <desc>
    Optimization Graph Line Streamline Icon: https://streamlinehq.com
  </desc>
  <g id="Optimization-Graph-Line--Streamline-Ultimate.svg">
    <path d="m243.6384 107.1456 -18.039466666666666 -2.2944c-1.0410666666666666 -0.128 -1.904 -0.8672 -2.1898666666666666 -1.8762666666666665 -2.4170666666666665 -8.413866666666665 -5.9232 -16.476799999999997 -10.426666666666666 -23.982933333333335 -0.5696 -0.8896 -0.5696 -2.0298666666666665 0 -2.9194666666666667l11.2608 -14.389333333333333c3.264 -4.187733333333333 2.8597333333333332 -10.158933333333334 -0.9386666666666665 -13.8688l-14.910933333333332 -16.0576c-3.694933333333333 -3.7375999999999996 -9.594666666666665 -4.139733333333333 -13.7632 -0.9386666666666665L179.8229333333333 42.08c-0.8896 0.5685333333333333 -2.0288 0.5685333333333333 -2.9194666666666667 0 -7.497599999999999 -4.521599999999999 -15.5616 -8.0288 -23.981866666666665 -10.427733333333332 -1.0101333333333333 -0.28586666666666666 -1.7493333333333334 -1.1488 -1.877333333333333 -2.1898666666666666l-1.9808 -17.413333333333334c-0.6368 -5.265066666666666 -5.124266666666666 -9.213866666666666 -10.427733333333332 -9.175466666666665h-22.001066666666667c-5.303466666666666 -0.0384 -9.790933333333333 3.9103999999999997 -10.427733333333332 9.175466666666665l-2.1898666666666666 18.039466666666666c-0.128 1.0410666666666666 -0.8672 1.904 -1.8762666666666665 2.1898666666666666 -8.420266666666667 2.398933333333333 -16.485333333333333 5.9050666666666665 -23.982933333333335 10.426666666666666 -0.8906666666666667 0.5685333333333333 -2.0298666666666665 0.5685333333333333 -2.9194666666666667 0L60.74453333333333 30.818133333333336c-4.1696 -3.2010666666666663 -10.068266666666666 -2.7989333333333333 -13.764266666666666 0.9386666666666665L31.443199999999997 47.2928c-3.736533333333333 3.6959999999999997 -4.1386666666666665 9.595733333333332 -0.9376 13.764266666666666l11.2608 14.806399999999998c0.5696 0.8906666666666667 0.5696 2.0298666666666665 0 2.920533333333333 -4.503466666666666 7.506133333333333 -8.009599999999999 15.568 -10.426666666666666 23.981866666666665 -0.28586666666666666 1.0090666666666666 -1.1488 1.7493333333333334 -2.1898666666666666 1.877333333333333l-17.413333333333334 2.5023999999999997c-5.266133333333333 0.6357333333333333 -9.214933333333333 5.1232 -9.176533333333332 10.426666666666666v22.106666666666662c-0.0384 5.303466666666666 3.9103999999999997 9.790933333333333 9.176533333333332 10.426666666666666l18.0384 2.2944c1.0410666666666666 0.128 1.904 0.8672 2.1898666666666666 1.8762666666666665 2.4 8.420266666666667 5.906133333333333 16.485333333333333 10.427733333333332 23.982933333333335 0.5685333333333333 0.8896 0.5685333333333333 2.0298666666666665 0 2.9194666666666667l-11.886933333333333 13.764266666666666c-3.2010666666666663 4.1685333333333325 -2.7989333333333333 10.068266666666666 0.9386666666666665 13.764266666666666l15.535999999999998 15.535999999999998c3.6959999999999997 3.7375999999999996 9.595733333333332 4.139733333333333 13.764266666666666 0.9386666666666665l14.806399999999998 -11.261866666666666c0.8906666666666667 -0.5685333333333333 2.0298666666666665 -0.5685333333333333 2.9194666666666667 0 7.497599999999999 4.521599999999999 15.562666666666667 8.027733333333334 23.982933333333335 10.427733333333332 1.0090666666666666 0.28586666666666666 1.7482666666666664 1.1488 1.877333333333333 2.1898666666666666l2.5023999999999997 17.413333333333334c0.6357333333333333 5.265066666666666 5.1232 9.213866666666666 10.426666666666666 9.176533333333332h22.1056c5.303466666666666 0.03733333333333333 9.790933333333333 -3.9114666666666666 10.427733333333332 -9.176533333333332l2.293333333333333 -18.039466666666666c0.128 -1.0410666666666666 0.8682666666666666 -1.904 1.877333333333333 -2.1898666666666666 8.420266666666667 -2.398933333333333 16.485333333333333 -5.9050666666666665 23.982933333333335 -10.426666666666666 0.8896 -0.5685333333333333 2.0288 -0.5685333333333333 2.9194666666666667 0l14.493866666666666 11.261866666666666c4.1685333333333325 3.1999999999999997 10.068266666666666 2.7978666666666663 13.764266666666666 -0.9386666666666665l15.535999999999998 -15.537066666666664c3.7375999999999996 -3.6959999999999997 4.139733333333333 -9.594666666666665 0.9386666666666665 -13.764266666666666l-11.991466666666668 -14.180266666666665c-0.5685333333333333 -0.8906666666666667 -0.5685333333333333 -2.0298666666666665 0 -2.9194666666666667 4.521599999999999 -7.498666666666666 8.027733333333334 -15.562666666666667 10.427733333333332 -23.982933333333335 0.28586666666666666 -1.0090666666666666 1.1488 -1.7493333333333334 2.1898666666666666 -1.877333333333333l18.0384 -2.293333333333333c5.266133333333333 -0.6368 9.214933333333333 -5.124266666666666 9.176533333333332 -10.427733333333332v-21.688533333333332c-0.30826666666666663 -5.279999999999999 -4.521599999999999 -9.493333333333332 -9.8016 -9.8016Zm-115.95093333333332 93.84533333333333c-56.18879999999999 0 -91.30666666666667 -60.825599999999994 -63.21173333333333 -109.48586666666667 28.093866666666663 -48.66133333333333 98.3296 -48.66133333333333 126.42346666666666 0 6.4064 11.095466666666667 9.7792 23.682133333333333 9.7792 36.494933333333336 0 40.31146666666666 -32.67946666666666 72.99093333333333 -72.99093333333333 72.99093333333333Z" fill="#ffffff" stroke-width="10.6667"></path>
    <path d="m167.83253333333332 104.74773333333333 -21.48053333333333 19.081599999999998c-0.9802666666666666 0.7647999999999999 -2.3562666666666665 0.7647999999999999 -3.3365333333333336 0l-14.181333333333331 -10.427733333333332c-3.4229333333333334 -2.299733333333333 -7.450666666666667 -3.5338666666666665 -11.574399999999999 -3.544533333333333 -4.282666666666667 0.15573333333333333 -8.391466666666666 1.7333333333333334 -11.677866666666667 4.4832l-26.485333333333333 23.3568c-4.313599999999999 3.8037333333333327 -4.733866666666666 10.381866666666667 -0.9386666666666665 14.702933333333334 1.9765333333333333 2.2496 4.8256 3.541333333333333 7.820799999999999 3.544533333333333 2.5482666666666667 -0.032 4.996266666666666 -0.9962666666666666 6.882133333333333 -2.7104l23.3568 -20.8544c0.9322666666666667 -0.7893333333333332 2.299733333333333 -0.7893333333333332 3.2319999999999998 0l14.285866666666665 10.426666666666666c3.4378666666666664 2.4298666666666664 7.574399999999999 3.6735999999999995 11.782399999999999 3.5455999999999994 4.301866666666666 -0.06293333333333333 8.440533333333333 -1.6522666666666668 11.678933333333333 -4.484266666666667l24.503466666666668 -21.792c6.260266666666666 -5.025066666666667 4.732799999999999 -14.941866666666666 -2.7487999999999997 -17.850666666666665 -3.8378666666666668 -1.4922666666666666 -8.1952 -0.5855999999999999 -11.118933333333333 2.3136Z" fill="#ffffff" stroke-width="10.6667"></path>
  </g>
</svg>