<svg xmlns="http://www.w3.org/2000/svg" id="Origin-Logo--Streamline-Ultimate" width="256" height="256" viewBox="0 0 256 256"><desc>Origin Logo Streamline Icon: https://streamlinehq.com</desc><path fill="#fff" stroke-width="10.667" d="M128 34.366933333333336h-5.003733333333333c1.1754666666666667 -8.349866666666667 4.3584 -16.2912 9.277866666666666 -23.140266666666665 2.7391999999999994 -2.820266666666667 1.3983999999999999 -7.547733333333333 -2.4138666666666664 -8.510933333333334 -1.1829333333333332 -0.29866666666666664 -2.4352 -0.16426666666666667 -3.528533333333333 0.3808 -15.1136 5.3162666666666665 -92.14293333333333 47.32266666666666 -92.14293333333333 125.08266666666665 0 51.810133333333326 42 93.8112 93.8112 93.8112h5.003733333333333c-1.1594666666666666 8.3872 -4.343466666666666 16.3648 -9.277866666666666 23.244799999999998 -1.2874666666666665 1.8090666666666666 -1.2874666666666665 4.235733333333333 0 6.045866666666666 0.9951999999999999 1.2992 2.533333333333333 2.0682666666666663 4.1696 2.0842666666666663 0.5514666666666667 0.09919999999999998 1.1168 0.09919999999999998 1.6682666666666668 0 15.218133333333334 -5.4208 92.24746666666665 -47.4272 92.24746666666665 -125.18613333333333 0 -51.8112 -42 -93.81226666666666 -93.8112 -93.81226666666666Zm0 130.2944c-28.084266666666664 0 -45.63626666666667 -30.40213333333333 -31.59466666666667 -54.724266666666665 14.041599999999999 -24.321066666666667 49.14773333333333 -24.321066666666667 63.18933333333334 0 3.2021333333333333 5.546666666666667 4.887466666666667 11.837866666666665 4.887466666666667 18.24213333333333 0 20.148266666666665 -16.333866666666665 36.48213333333333 -36.48213333333333 36.48213333333333Z"/></svg>