<svg xmlns="http://www.w3.org/2000/svg" id="Package-Dimension--Streamline-Ultimate" width="256" height="256" fill="none" viewBox="0 0 256 256"><desc>Package Dimension Streamline Icon: https://streamlinehq.com</desc><path fill="#fff" fill-rule="evenodd" stroke-width="10.667" d="M43.28885333333333 12.000319999999999c0 -4.314272 -2.5988266666666666 -8.203722666666666 -6.58464 -9.85472 -3.98592 -1.6510005333333333 -8.573866666666666 -0.7384106666666665 -11.624426666666666 2.3122346666666664L4.4897599999999995 25.047786666666667c-0.105024 0.10421333333333332 -0.20788266666666666 0.21045333333333333 -0.3085226666666666 0.31882666666666665C2.4139626666666665 27.270186666666664 1.3333333333333333 29.820053333333334 1.3333333333333333 32.6224l0.00004266666666666666 0.032106666666666665c0.004170666666666666 1.4116266666666668 0.28253866666666666 2.7587200000000003 0.7846506666666666 3.990826666666666 0.5206933333333332 1.2807466666666665 1.3005226666666667 2.4807466666666667 2.3394986666666666 3.5196799999999997L25.079786666666667 60.7872c3.05056 3.0506666666666664 7.638506666666666 3.9633066666666665 11.624426666666666 2.3123199999999997 3.985813333333333 -1.6510933333333333 6.58464 -5.54048 6.58464 -9.85472v-9.955733333333333h102.39968v9.955733333333333c0 4.31424 2.5994666666666664 8.203626666666667 6.584533333333333 9.85472 3.986133333333333 1.6509866666666666 8.573866666666666 0.7383466666666667 11.624533333333334 -2.3123199999999997l20.622933333333332 -20.622186666666664c1.0111999999999999 -1.0116266666666665 1.7770666666666666 -2.1759999999999997 2.2976 -3.418773333333333 0.5322666666666667 -1.2686933333333332 0.8266666666666667 -2.6618666666666666 0.8266666666666667 -4.1238399999999995 0 -1.5098666666666667 -0.3136 -2.946453333333333 -0.88 -4.248213333333333 -0.45119999999999993 -1.0398933333333331 -1.0752 -2.0225066666666667 -1.8730666666666667 -2.904 -0.1344 -0.14773333333333333 -0.27199999999999996 -0.2917333333333333 -0.41279999999999994 -0.43178666666666665L163.89759999999998 4.457834666666667c-3.0506666666666664 -3.0506453333333328 -7.638399999999999 -3.9632351999999997 -11.624533333333334 -2.3122346666666664 -3.9850666666666665 1.6509973333333332 -6.584533333333333 5.540448 -6.584533333333333 9.85472v9.955413333333333H43.28885333333333v-9.955413333333333ZM215.80266666666665 71.51189333333333c0.10453333333333333 -0.10506666666666666 0.2112 -0.20789333333333332 0.3189333333333333 -0.30848 0.9376 -0.8709333333333333 1.9936 -1.54208 3.1136 -2.0135466666666666 1.2736 -0.53728 2.6730666666666663 -0.8343466666666666 4.142933333333334 -0.8343466666666666l0.032 0c2.718933333333333 0.008106666666666667 5.435733333333333 1.0494933333333334 7.510399999999999 3.12416l20.621866666666666 20.622186666666664c3.0506666666666664 3.0506666666666664 3.963733333333333 7.638613333333333 2.312533333333333 11.624426666666666 -1.6511999999999998 3.9857066666666663 -5.540266666666666 6.5851733333333335 -9.854933333333333 6.5851733333333335h-9.9552v102.39999999999999h9.9552c4.314666666666667 0 8.203733333333332 2.5984 9.854933333333333 6.584533333333333 1.6511999999999998 3.9850666666666665 0.7381333333333333 8.573866666666666 -2.312533333333333 11.624533333333334l-20.621866666666666 20.621866666666666c-1.0122666666666666 1.0111999999999999 -2.1759999999999997 1.7770666666666666 -3.4186666666666667 2.2976 -1.2693333333333332 0.5322666666666667 -2.6624 0.8266666666666667 -4.123733333333333 0.8266666666666667 -1.5104 0 -2.9471999999999996 -0.3136 -4.248533333333333 -0.88 -1.04 -0.45013333333333333 -2.0223999999999998 -1.0752 -2.904533333333333 -1.8730666666666667 -0.1472 -0.13333333333333333 -0.2912 -0.2709333333333333 -0.4309333333333333 -0.41279999999999994l-20.581333333333333 -20.580266666666667c-3.0506666666666664 -3.0506666666666664 -3.9626666666666663 -7.6394666666666655 -2.312533333333333 -11.624533333333334 1.6511999999999998 -3.986133333333333 5.541333333333332 -6.584533333333333 9.854933333333333 -6.584533333333333h9.956266666666666v-102.39999999999999h-9.956266666666666c-4.313599999999999 0 -8.203733333333332 -2.5994666666666664 -9.854933333333333 -6.5851733333333335 -1.6501333333333332 -3.985813333333333 -0.7381333333333333 -8.57376 2.312533333333333 -11.624426666666666l20.589866666666666 -20.589973333333333Zm-204.74154666666666 7.510293333333333h34.602239999999995v67.08127999999999c0 5.8911999999999995 4.7756799999999995 10.666666666666666 10.666666666666666 10.666666666666666h64.31637333333333c5.8911999999999995 0 10.666666666666666 -4.7754666666666665 10.666666666666666 -10.666666666666666V79.02218666666667h34.60373333333333c6.636799999999999 0 11.061333333333332 4.424426666666666 11.061333333333332 11.061013333333332V244.93866666666668c0 6.636799999999999 -4.424533333333333 11.061333333333332 -11.061333333333332 11.061333333333332H11.061119999999999C4.424448 256 0 251.57546666666667 0 244.93866666666668V90.08319999999999c0 -6.636586666666666 4.424448 -11.061013333333332 11.061119999999999 -11.061013333333332Zm98.91861333333333 0H66.99669333333333v56.414613333333335h42.983039999999995V79.02218666666667Z" clip-rule="evenodd"/></svg>