<svg xmlns="http://www.w3.org/2000/svg" id="Panoramic--Streamline-Ultimate" width="256" height="256" fill="none" viewBox="0 0 256 256"><desc>Panoramic Streamline Icon: https://streamlinehq.com</desc><path fill="#fff" fill-rule="evenodd" stroke-width="10.667" d="M168.10453333333334 47.70175999999999c-26.614399999999996 3.5949866666666663 -53.59466666666666 3.5949866666666663 -80.20874666666666 0l0.00010666666666666667 160.60224c26.613973333333334 -3.594666666666667 53.59424 -3.594666666666667 80.20864 0l0 -160.60224Zm16 163.20597333333333c15.380266666666666 2.932266666666666 30.587733333333333 7.082666666666666 45.4752 12.449066666666667 11.895466666666666 4.288 24.441599999999998 -4.5258666666666665 24.441599999999998 -17.1712V49.81952c0 -12.644373333333334 -12.546133333333332 -21.45813333333333 -24.441599999999998 -17.170346666666667 -14.887466666666665 5.3664 -30.094933333333334 9.515946666666666 -45.4752 12.448533333333332V210.90773333333334ZM26.420266666666667 32.64917333333333c14.887786666666665 5.366506666666666 30.094506666666664 9.515946666666666 45.475519999999996 12.448533333333332l0 165.81002666666666c-15.381013333333332 2.9333333333333336 -30.587733333333333 7.082666666666666 -45.475519999999996 12.449066666666667 -11.895253333333333 4.288 -24.441098666666665 -4.5258666666666665 -24.441098666666665 -17.170133333333332V49.819626666666665c0 -12.644479999999998 12.545845333333332 -21.458239999999996 24.441098666666665 -17.170453333333334Z" clip-rule="evenodd"/></svg>