<svg xmlns="http://www.w3.org/2000/svg" id="Paper-Write--Streamline-Ultimate" width="256" height="256" viewBox="0 0 256 256"><desc>Paper Write Streamline Icon: https://streamlinehq.com</desc><g id="Paper-Write--Streamline-Ultimate.svg"><path fill="#fff" stroke-width="10.667" d="M202.66666666666666 198.29333333333332a10.666666666666666 10.666666666666666 0 0 0 -10.666666666666666 10.666666666666666v23.04a2.6666666666666665 2.6666666666666665 0 0 1 -2.6666666666666665 2.6666666666666665l-165.33333333333331 0a2.6666666666666665 2.6666666666666665 0 0 1 -2.6666666666666665 -2.453333333333333v-181.33333333333331a2.6666666666666665 2.6666666666666665 0 0 1 2.6666666666666665 -2.6666666666666665H37.33333333333333a10.666666666666666 10.666666666666666 0 0 0 0 -21.333333333333332H21.333333333333332a21.333333333333332 21.333333333333332 0 0 0 -21.333333333333332 21.333333333333332V234.66666666666666a21.333333333333332 21.333333333333332 0 0 0 21.333333333333332 21.333333333333332h170.66666666666666a21.333333333333332 21.333333333333332 0 0 0 21.333333333333332 -21.333333333333332v-25.706666666666667a10.666666666666666 10.666666666666666 0 0 0 -10.666666666666666 -10.666666666666666Z"/><path fill="#fff" stroke-width="10.667" d="M176 48h13.333333333333332a2.6666666666666665 2.6666666666666665 0 0 1 2.6666666666666665 2.6666666666666665v8a10.666666666666666 10.666666666666666 0 0 0 21.333333333333332 0v-10.666666666666666a21.333333333333332 21.333333333333332 0 0 0 -21.333333333333332 -21.333333333333332h-16a10.666666666666666 10.666666666666666 0 0 0 0 21.333333333333332Z"/><path fill="#fff" stroke-width="10.667" d="M74.66666666666666 58.666666666666664h64A16 16 0 0 0 154.66666666666666 42.666666666666664v-5.333333333333333A16 16 0 0 0 138.66666666666666 21.333333333333332h-10.666666666666666a21.333333333333332 21.333333333333332 0 0 0 -42.666666666666664 0H74.66666666666666a16 16 0 0 0 -16 16V42.666666666666664A16 16 0 0 0 74.66666666666666 58.666666666666664Z"/><path fill="#fff" stroke-width="10.667" d="M42.666666666666664 106.66666666666666a10.666666666666666 10.666666666666666 0 0 0 10.666666666666666 10.666666666666666h85.33333333333333a10.666666666666666 10.666666666666666 0 0 0 0 -21.333333333333332H53.33333333333333a10.666666666666666 10.666666666666666 0 0 0 -10.666666666666666 10.666666666666666Z"/><path fill="#fff" stroke-width="10.667" d="M53.33333333333333 149.33333333333331a10.666666666666666 10.666666666666666 0 0 0 0 21.333333333333332h48a10.666666666666666 10.666666666666666 0 0 0 0 -21.333333333333332Z"/><path fill="#fff" stroke-width="10.667" d="M249.70666666666665 87.89333333333333a21.333333333333332 21.333333333333332 0 0 0 -30.08 0l-83.94666666666666 83.94666666666666a4.8 4.8 0 0 0 -1.1733333333333333 1.8133333333333335l-15.146666666666665 37.65333333333333a5.4399999999999995 5.4399999999999995 0 0 0 1.1733333333333333 5.76 5.226666666666667 5.226666666666667 0 0 0 5.76 1.1733333333333333l37.76 -15.04a6.613333333333333 6.613333333333333 0 0 0 1.8133333333333335 -1.1733333333333333l83.84 -83.94666666666666a21.333333333333332 21.333333333333332 0 0 0 0 -30.186666666666667Z"/></g></svg>