<svg xmlns="http://www.w3.org/2000/svg" fill="none" viewBox="0 0 256 256" id="Paper-Sizes-A3--Streamline-Ultimate" height="256" width="256">
  <desc>
    Paper Sizes A3 Streamline Icon: https://streamlinehq.com
  </desc>
  <path fill="#ffffff" fill-rule="evenodd" d="M135.232 3.093333333333333h-99.73333333333332a22.485333333333333 22.485333333333333 0 0 0 -22.357333333333333 22.336l0 203.49866666666665a24 24 0 0 0 24 24H75.19999999999999a26.560000000000002 26.560000000000002 0 0 1 -1.5359999999999998 -17.386666666666663l7.445333333333332 -29.813333333333333 0.288 -1.1199999999999999 13.184 -52.75733333333333a36.384 36.384 0 0 1 70.592 0l1.6533333333333333 6.613333333333333h0.7679999999999999a26.560000000000002 26.560000000000002 0 0 1 5.343999999999999 -15.936 45.6 45.6 0 0 1 42.666666666666664 -17.813333333333333l0 -40.59733333333333 -0.21333333333333332 0h-57.76a22.442666666666668 22.442666666666668 0 0 1 -22.442666666666668 -22.432000000000002V3.9146666666666663a7.253333333333334 7.253333333333334 0 0 1 0.042666666666666665 -0.832Zm75.872 65.03466666666667a22.325333333333333 22.325333333333333 0 0 0 -2.037333333333333 -2.3466666666666667L152.91733333333332 9.610666666666667a22.272 22.272 0 0 0 -1.728 -1.5573333333333332v53.62133333333333a6.442666666666666 6.442666666666666 0 0 0 6.442666666666666 6.442666666666666h53.471999999999994Zm-81.22666666666666 72.16A20.37333333333333 20.37333333333333 0 0 1 149.6533333333333 155.73333333333332l13.280000000000001 53.10933333333333a10.613333333333333 10.613333333333333 0 0 1 0.10666666666666666 0.448l7.541333333333332 30.133333333333333a10.666666666666666 10.666666666666666 0 0 1 -20.69333333333333 5.173333333333333l-5.568 -22.272h-28.874666666666663l-5.568 22.272a10.666666666666666 10.666666666666666 0 0 1 -20.69333333333333 -5.173333333333333l7.530666666666666 -30.133333333333333 0.10666666666666666 -0.448 13.280000000000001 -53.120000000000005a20.384 20.384 0 0 1 19.776 -15.434666666666667Zm0 24.298666666666666 -9.098666666666666 36.40533333333333h18.208l-9.109333333333332 -36.40533333333333Zm79.55199999999999 -24.298666666666666c-9.706666666666667 0 -18.304 4.672 -23.70133333333333 11.84a10.666666666666666 10.666666666666666 0 1 0 17.066666666666666 12.821333333333332 8.298666666666666 8.298666666666666 0 0 1 14.933333333333332 4.970666666666666v3.0399999999999996c0 4.992 -4.053333333333333 9.045333333333332 -9.056 9.045333333333332a10.666666666666666 10.666666666666666 0 1 0 0 21.333333333333332h0.7573333333333332c6.677333333333333 0 12.095999999999998 5.418666666666667 12.095999999999998 12.095999999999998v3.786666666666666c0 6.677333333333333 -5.418666666666667 12.095999999999998 -12.095999999999998 12.095999999999998 -5.930666666666667 0 -11.253333333333332 -3.9786666666666664 -12.693333333333332 -8.064a10.666666666666666 10.666666666666666 0 0 0 -20.11733333333333 7.1146666666666665c4.8 13.589333333333332 18.93333333333333 22.282666666666664 32.81066666666666 22.282666666666664a33.41866666666667 33.41866666666667 0 0 0 33.42933333333333 -33.42933333333333v-3.786666666666666c0 -9.386666666666667 -3.872 -17.866666666666667 -10.101333333333333 -23.946666666666665 3.9466666666666663 -5.119999999999999 6.303999999999999 -11.552 6.303999999999999 -18.528v-3.0399999999999996a29.631999999999998 29.631999999999998 0 0 0 -29.631999999999998 -29.631999999999998Z" clip-rule="evenodd" stroke-width="10.6667"></path>
</svg>