<svg xmlns="http://www.w3.org/2000/svg" viewBox="0 0 256 256" id="Paralympics-Football--Streamline-Ultimate" height="256" width="256">
  <desc>
    Paralympics Football Streamline Icon: https://streamlinehq.com
  </desc>
  <g id="Paralympics-Football--Streamline-Ultimate.svg">
    <path d="M97.70666666666666 30.4a26.666666666666664 26.666666666666664 0 1 0 53.33333333333333 0 26.666666666666664 26.666666666666664 0 1 0 -53.33333333333333 0" fill="#ffffff" stroke-width="10.6667"></path>
    <path d="M94.72 225.38666666666666a24.319999999999997 24.319999999999997 0 1 0 48.63999999999999 0 24.319999999999997 24.319999999999997 0 1 0 -48.63999999999999 0" fill="#ffffff" stroke-width="10.6667"></path>
    <path d="M162.24 190.4a15.146666666666665 15.146666666666665 0 0 0 7.573333333333332 9.6 15.573333333333332 15.573333333333332 0 0 0 12.159999999999998 0.8533333333333333l3.84 -1.3866666666666667a12.373333333333331 12.373333333333331 0 0 0 7.893333333333333 -14.826666666666664 48.32 48.32 0 0 0 -35.626666666666665 -37.97333333333333l-9.706666666666667 -2.453333333333333a5.333333333333333 5.333333333333333 0 0 1 -3.9466666666666663 -4.373333333333333l-4.373333333333333 -28.69333333333333a5.226666666666667 5.226666666666667 0 0 1 1.2799999999999998 -4.266666666666667 5.226666666666667 5.226666666666667 0 0 1 4.053333333333333 -1.8133333333333335h10.666666666666666A47.78666666666667 47.78666666666667 0 0 0 200.95999999999998 74.66666666666666l2.5599999999999996 -6.613333333333333a16 16 0 1 0 -29.65333333333333 -11.626666666666667l-2.6666666666666665 6.506666666666666a15.786666666666665 15.786666666666665 0 0 1 -14.826666666666664 10.133333333333333h-80a48 48 0 0 0 -38.4 19.2l-3.1999999999999997 3.1999999999999997a16 16 0 1 0 25.599999999999998 19.2c4.4799999999999995 -4.4799999999999995 7.786666666666666 -9.6 16 -9.6h25.386666666666663a5.333333333333333 5.333333333333333 0 0 1 5.226666666666667 4.4799999999999995l4.906666666666666 31.36a5.4399999999999995 5.4399999999999995 0 0 1 -3.733333333333333 5.973333333333334l-21.333333333333332 6.293333333333333A16.32 16.32 0 0 1 74.66666666666666 151.57333333333332l-14.506666666666668 -8.746666666666666A16 16 0 0 0 43.30666666666666 170.66666666666666l14.613333333333333 8.746666666666666a48.213333333333324 48.213333333333324 0 0 0 24.64 6.826666666666666A47.46666666666667 47.46666666666667 0 0 0 96 183.78666666666666l27.093333333333334 -8.106666666666666a32 32 0 0 1 16.96 0l9.813333333333333 2.453333333333333a16.21333333333333 16.21333333333333 0 0 1 12.373333333333331 12.266666666666666Z" fill="#ffffff" stroke-width="10.6667"></path>
    <path d="M217.28 219.94666666666666a10.666666666666666 10.666666666666666 0 0 0 -13.546666666666667 6.613333333333333 6.933333333333334 6.933333333333334 0 0 1 -4.8 4.266666666666667 6.613333333333333 6.613333333333333 0 0 1 -8 -4.693333333333333l-2.453333333333333 -9.706666666666667a10.666666666666666 10.666666666666666 0 0 0 -20.69333333333333 5.333333333333333l2.5599999999999996 9.706666666666667a27.626666666666665 27.626666666666665 0 0 0 12.799999999999999 17.066666666666666A28.373333333333335 28.373333333333335 0 0 0 224 233.49333333333334a10.666666666666666 10.666666666666666 0 0 0 -6.72 -13.546666666666667Z" fill="#ffffff" stroke-width="10.6667"></path>
  </g>
</svg>