<svg xmlns="http://www.w3.org/2000/svg" id="Paragraph-Center-Align--Streamline-Ultimate" width="256" height="256" viewBox="0 0 256 256"><desc>Paragraph Center Align Streamline Icon: https://streamlinehq.com</desc><g id="Paragraph-Center-Align--Streamline-Ultimate.svg"><path fill="#fff" stroke-width="10.667" d="M234.66666666666666 253.33333333333331H21.333333333333332a13.333333333333332 13.333333333333332 0 0 1 0 -26.666666666666664h213.33333333333331a13.333333333333332 13.333333333333332 0 0 1 0 26.666666666666664Z"/><path fill="#fff" stroke-width="10.667" d="M234.66666666666666 29.333333333333332H21.333333333333332a13.333333333333332 13.333333333333332 0 0 1 0 -26.666666666666664h213.33333333333331a13.333333333333332 13.333333333333332 0 0 1 0 26.666666666666664Z"/><path fill="#fff" stroke-width="10.667" d="M213.33333333333331 104H42.666666666666664a13.333333333333332 13.333333333333332 0 0 1 0 -26.666666666666664h170.66666666666666a13.333333333333332 13.333333333333332 0 0 1 0 26.666666666666664Z"/><path fill="#fff" stroke-width="10.667" d="M186.66666666666666 178.66666666666666h-117.33333333333333a13.333333333333332 13.333333333333332 0 0 1 0 -26.666666666666664h117.33333333333333a13.333333333333332 13.333333333333332 0 0 1 0 26.666666666666664Z"/></g></svg>