<svg xmlns="http://www.w3.org/2000/svg" viewBox="0 0 256 256" id="Party-Decoration--Streamline-Ultimate" height="256" width="256">
  <desc>
    Party Decoration Streamline Icon: https://streamlinehq.com
  </desc>
  <g id="Party-Decoration--Streamline-Ultimate.svg">
    <path d="M2.6624 21.341866666666665c0 1.0389333333333333 9.346133333333333 63.135999999999996 9.346133333333333 63.135999999999996 1.1296 7.9136 10.402133333333332 11.636266666666666 16.6912 6.700799999999999 0.49706666666666666 -0.39039999999999997 0.9589333333333332 -0.8266666666666667 1.3770666666666664 -1.3013333333333332l34.89066666666666 -39.35573333333333c1.3792 -1.4687999999999999 3.4506666666666668 -2.066133333333333 5.399466666666666 -1.5573333333333332l13.499733333333333 4.049066666666667c1.9690666666666665 0.5408 3.410133333333333 2.2282666666666664 3.6351999999999998 4.258133333333333l7.1648 51.92106666666667c1.0613333333333332 7.9232 10.300799999999999 11.725866666666665 16.63253333333333 6.845866666666667 0.5194666666666666 -0.4010666666666667 1.0005333333333333 -0.8501333333333332 1.4357333333333333 -1.3418666666666665l35.306666666666665 -39.66826666666667c1.3461333333333334 -1.4506666666666668 3.378133333333333 -2.048 5.295999999999999 -1.5573333333333332l10.384 3.0111999999999997c1.9530666666666667 0.5653333333333332 3.3823999999999996 2.2399999999999998 3.634133333333333 4.257066666666667l7.165866666666666 50.986666666666665c0.5536 4.013866666666667 3.392 7.337599999999999 7.268266666666666 8.5152 3.752533333333333 1.0197333333333334 7.76 -0.14293333333333333 10.384 -3.0111999999999997l34.891733333333335 -38.83733333333333c1.2010666666666667 -1.4730666666666665 3.1231999999999998 -2.1536 4.984533333333333 -1.7653333333333334 3.0208 1.2213333333333334 6.2048 1.9903999999999997 9.4496 2.2847999999999997 7.993599999999999 1.1189333333333331 14.200533333333333 -6.8352 11.173333333333334 -14.3168 -1.4048 -3.4730666666666665 -4.5557333333333325 -5.931733333333334 -8.266666666666666 -6.4512L15.954133333333333 11.3728C10.318933333333334 9.4912 4.257066666666667 12.711466666666666 2.6624 18.43413333333333c-0.13653333333333334 0.9642666666666666 -0.13653333333333334 1.9434666666666667 0 2.9077333333333333Z" fill="#ffffff" stroke-width="10.6667"></path>
    <path d="M240.35733333333332 146.05653333333333 11.904 172.01706666666666c-7.993599999999999 0.8789333333333333 -12.037333333333333 10.082133333333333 -7.278933333333333 16.56533333333333 2.2079999999999997 3.0090666666666666 5.853866666666666 4.6112 9.563733333333332 4.2026666666666666h3.2192c2.0394666666666668 -0.2496 4.0352 0.7285333333333333 5.087999999999999 2.4928l26.065066666666667 44.651733333333326c3.965866666666667 6.940799999999999 13.9584 6.984533333333333 17.985066666666665 0.07893333333333333 0.3232 -0.5536 0.5941333333333333 -1.136 0.8095999999999999 -1.7397333333333331l17.7568 -50.260266666666666c0.6922666666666666 -1.8730666666666667 2.3786666666666667 -3.1978666666666666 4.361599999999999 -3.426133333333333l10.384 -1.1423999999999999c2.0576 -0.20266666666666666 4.0447999999999995 0.8117333333333333 5.089066666666667 2.5962666666666667l26.167466666666662 44.859733333333324c3.997866666666667 6.922666666666666 13.989333333333335 6.922666666666666 17.98613333333333 -0.0010666666666666667 0.32426666666666665 -0.5610666666666666 0.5952 -1.152 0.8095999999999999 -1.7642666666666664l17.861333333333334 -50.4672c0.6911999999999999 -1.8730666666666667 2.3775999999999997 -3.198933333333333 4.361599999999999 -3.4271999999999996l9.0336 -1.0389333333333333c2.0266666666666664 -0.1856 3.9754666666666663 0.8288 4.984533333333333 2.5962666666666667l25.234133333333332 43.40586666666667c4.081066666666667 6.8736 14.072533333333332 6.750933333333333 17.983999999999998 -0.2208 0.2773333333333333 -0.4949333333333333 0.5141333333333333 -1.0111999999999999 0.7071999999999999 -1.5445333333333333l21.806933333333333 -60.33173333333333c1.168 -6.863999999999999 -4.6175999999999995 -12.910933333333332 -11.526399999999999 -12.045866666666665Z" fill="#ffffff" stroke-width="10.6667"></path>
  </g>
</svg>