<svg xmlns="http://www.w3.org/2000/svg" viewBox="0 0 256 256" id="Party-Balloon--Streamline-Ultimate" height="256" width="256">
  <desc>
    Party Balloon Streamline Icon: https://streamlinehq.com
  </desc>
  <path d="M212.58666666666664 84.58666666666666a84.58666666666666 84.58666666666666 0 0 0 -169.17333333333332 0c0 39.46666666666667 26.346666666666668 85.86666666666667 62.29333333333333 100.05333333333334a2.453333333333333 2.453333333333333 0 0 1 1.5999999999999999 1.5999999999999999 2.986666666666667 2.986666666666667 0 0 1 0 2.3466666666666667l-3.84 5.76a11.946666666666667 11.946666666666667 0 0 0 -0.6399999999999999 12.479999999999999 12.159999999999998 12.159999999999998 0 0 0 10.666666666666666 6.506666666666666h1.3866666666666667a2.6666666666666665 2.6666666666666665 0 0 1 2.6666666666666665 2.6666666666666665v13.333333333333332A24.746666666666663 24.746666666666663 0 0 0 144 256a10.666666666666666 10.666666666666666 0 0 0 0 -21.333333333333332c-4.8 0 -5.333333333333333 -0.5333333333333333 -5.333333333333333 -5.333333333333333v-13.333333333333332a2.6666666666666665 2.6666666666666665 0 0 1 2.6666666666666665 -2.6666666666666665h1.3866666666666667a12.159999999999998 12.159999999999998 0 0 0 10.666666666666666 -6.506666666666666 11.946666666666667 11.946666666666667 0 0 0 -0.6399999999999999 -12.479999999999999l-3.413333333333333 -5.76a2.986666666666667 2.986666666666667 0 0 1 0 -2.3466666666666667 2.453333333333333 2.453333333333333 0 0 1 1.5999999999999999 -1.5999999999999999c35.306666666666665 -13.973333333333333 61.653333333333336 -60.58666666666666 61.653333333333336 -100.05333333333334ZM128 40a47.57333333333333 47.57333333333333 0 0 0 -42.666666666666664 25.599999999999998 7.893333333333333 7.893333333333333 0 0 1 -7.04 4.373333333333333 7.786666666666666 7.786666666666666 0 0 1 -3.626666666666667 -0.96 8.106666666666666 8.106666666666666 0 0 1 -3.413333333333333 -10.666666666666666A64 64 0 0 1 128 24a8 8 0 0 1 0 16Z" fill="#ffffff" stroke-width="10.6667"></path>
</svg>