<svg xmlns="http://www.w3.org/2000/svg" viewBox="0 0 256 256" id="Party-Mask--Streamline-Ultimate" height="256" width="256">
  <desc>
    Party Mask Streamline Icon: https://streamlinehq.com
  </desc>
  <path d="M250.02666666666667 4.16a10.666666666666666 10.666666666666666 0 0 0 -11.413333333333334 1.3866666666666667c-30.613333333333333 24.85333333333333 -41.28 18.986666666666665 -58.879999999999995 9.386666666666667a97.06666666666666 97.06666666666666 0 0 0 -103.46666666666665 0c-17.706666666666663 9.6 -28.373333333333335 15.466666666666665 -58.879999999999995 -9.386666666666667A10.666666666666666 10.666666666666666 0 0 0 5.973333333333334 4.16 10.666666666666666 10.666666666666666 0 0 0 0 13.866666666666667c0 26.453333333333333 7.359999999999999 112.64 82.02666666666667 112.64A117.33333333333333 117.33333333333333 0 0 0 128 117.33333333333333a119.03999999999999 119.03999999999999 0 0 0 46.08 8.853333333333332 68.90666666666667 68.90666666666667 0 0 0 55.89333333333333 -24.85333333333333 2.3466666666666667 2.3466666666666667 0 0 1 2.88 -0.8533333333333333 2.7733333333333334 2.7733333333333334 0 0 1 1.8133333333333335 2.453333333333333V245.33333333333331a10.666666666666666 10.666666666666666 0 0 0 21.333333333333332 0V13.866666666666667a10.666666666666666 10.666666666666666 0 0 0 -5.973333333333334 -9.706666666666667ZM112.64 79.67999999999999c-4.266666666666667 10.666666666666666 -18.986666666666665 14.08 -32.959999999999994 8.32a154.24 154.24 0 0 1 -35.199999999999996 -31.253333333333334 5.333333333333333 5.333333333333333 0 0 1 3.733333333333333 -8.959999999999999 149.33333333333331 149.33333333333331 0 0 1 46.93333333333334 2.7733333333333334c13.973333333333333 5.76 22.186666666666667 18.773333333333333 17.493333333333332 29.119999999999997Zm99.41333333333333 -22.93333333333333a152.32 152.32 0 0 1 -35.306666666666665 31.253333333333334c-13.866666666666667 5.76 -28.586666666666666 2.0266666666666664 -32.85333333333333 -8.32s3.52 -23.36 17.493333333333332 -29.119999999999997a148.69333333333333 148.69333333333333 0 0 1 46.93333333333334 -2.7733333333333334 5.333333333333333 5.333333333333333 0 0 1 3.733333333333333 8.959999999999999Z" fill="#ffffff" stroke-width="10.6667"></path>
</svg>