<svg xmlns="http://www.w3.org/2000/svg" viewBox="0 0 256 256" id="Pasta-Bowl-Warm--Streamline-Ultimate" height="256" width="256">
  <desc>
    Pasta Bowl Warm Streamline Icon: https://streamlinehq.com
  </desc>
  <g id="Pasta-Bowl-Warm--Streamline-Ultimate.svg">
    <g>
      <path d="M128 93.33333333333333a10.666666666666666 10.666666666666666 0 0 1 -7.253333333333334 -2.88 9.6 9.6 0 0 1 0 -13.866666666666667 15.893333333333333 15.893333333333333 0 0 0 5.013333333333333 -11.52 15.68 15.68 0 0 0 -5.013333333333333 -11.733333333333334 35.41333333333333 35.41333333333333 0 0 1 -10.666666666666666 -25.386666666666663 35.41333333333333 35.41333333333333 0 0 1 10.666666666666666 -25.386666666666663 10.666666666666666 10.666666666666666 0 0 1 14.506666666666668 0 9.6 9.6 0 0 1 0 13.866666666666667 15.893333333333333 15.893333333333333 0 0 0 -5.013333333333333 11.52 15.466666666666665 15.466666666666665 0 0 0 5.013333333333333 11.413333333333334 35.093333333333334 35.093333333333334 0 0 1 0 50.773333333333326 10.666666666666666 10.666666666666666 0 0 1 -7.253333333333334 3.1999999999999997Z" fill="#ffffff" stroke-width="10.6667"></path>
      <path d="M128 112c-29.973333333333333 0 -128 2.453333333333333 -128 34.666666666666664C0 207.04 57.28 256 128 256s128 -48.959999999999994 128 -109.33333333333333c0 -32.21333333333333 -98.02666666666666 -34.666666666666664 -128 -34.666666666666664Zm0 21.333333333333332a348.05333333333334 348.05333333333334 0 0 1 96 10.666666666666666 2.6666666666666665 2.6666666666666665 0 0 1 0 5.333333333333333 348.05333333333334 348.05333333333334 0 0 1 -96 10.666666666666666 348.05333333333334 348.05333333333334 0 0 1 -96 -10.666666666666666 2.6666666666666665 2.6666666666666665 0 0 1 0 -5.119999999999999 348.05333333333334 348.05333333333334 0 0 1 96 -10.879999999999999Z" fill="#ffffff" stroke-width="10.6667"></path>
    </g>
    <path d="M77.44 70.93333333333334a3.733333333333333 3.733333333333333 0 0 1 -0.6399999999999999 4.266666666666667 10.666666666666666 10.666666666666666 0 0 0 7.466666666666666 18.133333333333333 10.666666666666666 10.666666666666666 0 0 0 7.573333333333332 -3.093333333333333 25.173333333333332 25.173333333333332 0 0 0 1.5999999999999999 -34.346666666666664 46.08 46.08 0 0 1 -2.2399999999999998 -4.053333333333333 3.733333333333333 3.733333333333333 0 0 1 0.6399999999999999 -4.266666666666667 10.666666666666666 10.666666666666666 0 0 0 0 -15.04 10.666666666666666 10.666666666666666 0 0 0 -15.04 0 25.173333333333332 25.173333333333332 0 0 0 -1.5999999999999999 34.346666666666664 46.08 46.08 0 0 1 2.2399999999999998 4.053333333333333Z" fill="#ffffff" stroke-width="10.6667"></path>
    <path d="M164.79999999999998 70.93333333333334a3.733333333333333 3.733333333333333 0 0 1 -0.6399999999999999 4.266666666666667 10.666666666666666 10.666666666666666 0 0 0 7.466666666666666 18.133333333333333 10.666666666666666 10.666666666666666 0 0 0 7.573333333333332 -3.093333333333333 25.173333333333332 25.173333333333332 0 0 0 2.1333333333333333 -34.346666666666664 46.08 46.08 0 0 1 -2.2399999999999998 -4.053333333333333 3.733333333333333 3.733333333333333 0 0 1 0.6399999999999999 -4.266666666666667 10.666666666666666 10.666666666666666 0 0 0 0 -15.04 10.666666666666666 10.666666666666666 0 0 0 -15.04 0 25.066666666666666 25.066666666666666 0 0 0 -1.5999999999999999 34.346666666666664 46.08 46.08 0 0 1 1.7066666666666666 4.053333333333333Z" fill="#ffffff" stroke-width="10.6667"></path>
  </g>
</svg>