<svg xmlns="http://www.w3.org/2000/svg" fill="none" viewBox="0 0 256 256" id="Pathfinder-Minus-Back--Streamline-Ultimate" height="256" width="256">
  <desc>
    Pathfinder Minus Back Streamline Icon: https://streamlinehq.com
  </desc>
  <path fill="#ffffff" fill-rule="evenodd" d="M181.37493333333333 47.09749333333333V24.749973333333333c0 -11.78208 -9.550933333333333 -21.333312 -21.333333333333332 -21.333312h-16.910933333333332c-5.8911999999999995 0 -10.666666666666666 4.775637333333333 -10.666666666666666 10.666645333333333 0 5.891093333333332 4.7754666666666665 10.666666666666666 10.666666666666666 10.666666666666666h16.910933333333332v22.347519999999996c0 5.890986666666667 4.7754666666666665 10.666666666666666 10.666666666666666 10.666666666666666s10.666666666666666 -4.7756799999999995 10.666666666666666 -10.666666666666666Zm-72.0672 -22.347519999999996c5.890133333333333 0 10.666666666666666 -4.775573333333333 10.666666666666666 -10.666666666666666 0 -5.891008 -4.776533333333333 -10.666645333333333 -10.666666666666666 -10.666645333333333H75.48437333333334c-5.890986666666667 0 -10.666666666666666 4.775637333333333 -10.666666666666666 10.666645333333333 0 5.891093333333332 4.7756799999999995 10.666666666666666 10.666666666666666 10.666666666666666h33.823359999999994ZM47.09749333333333 181.37493333333333c5.890986666666667 0 10.666666666666666 -4.7754666666666665 10.666666666666666 -10.666666666666666s-4.7756799999999995 -10.666666666666666 -10.666666666666666 -10.666666666666666H24.749973333333333l0 -16.910933333333332c0 -5.8911999999999995 -4.775573333333333 -10.666666666666666 -10.666666666666666 -10.666666666666666 -5.891008 0 -10.666645333333333 4.7754666666666665 -10.666645333333333 10.666666666666666v16.910933333333332c0 11.782399999999999 9.551231999999999 21.333333333333332 21.333312 21.333333333333332h22.347519999999996ZM41.66144 24.749973333333333c5.891093333333332 0 10.666666666666666 -4.775573333333333 10.666666666666666 -10.666666666666666 0 -5.891008 -4.775573333333333 -10.666645333333333 -10.666666666666666 -10.666645333333333H24.749973333333333c-11.78208 0 -21.333312 9.551231999999999 -21.333312 21.333312v16.911466666666666c0 5.891093333333332 4.775637333333333 10.666666666666666 10.666645333333333 10.666666666666666 5.891093333333332 0 10.666666666666666 -4.775573333333333 10.666666666666666 -10.666666666666666V24.749973333333333h16.911466666666666ZM24.749973333333333 75.48437333333334c0 -5.890986666666667 -4.775573333333333 -10.666666666666666 -10.666666666666666 -10.666666666666666 -5.891008 0 -10.666645333333333 4.7756799999999995 -10.666645333333333 10.666666666666666v33.823359999999994c0 5.890133333333333 4.775637333333333 10.666666666666666 10.666645333333333 10.666666666666666 5.891093333333332 0 10.666666666666666 -4.776533333333333 10.666666666666666 -10.666666666666666l0 -33.823359999999994Zm209.16682666666668 -4.650986666666666c10.309333333333333 0 18.666666666666664 8.35744 18.666666666666664 18.66677333333333l-0.0010666666666666667 144.41343999999998c0 10.309333333333333 -8.357333333333333 18.666666666666664 -18.666666666666664 18.666666666666664H86.84639999999999c-10.309333333333333 0 -18.666666666666664 -8.3584 -18.666666666666664 -18.66773333333333v-55.49973333333333c0 -10.309333333333333 8.357333333333333 -18.666666666666664 18.666666666666664 -18.666666666666664l70.23519999999999 0c1.4730666666666665 0 2.6666666666666665 -1.1936 2.6666666666666665 -2.6666666666666665l0.0021333333333333334 -67.57983999999999c0 -10.30912 8.357333333333333 -18.666346666666666 18.666666666666664 -18.666346666666666l55.49973333333333 0.00010666666666666667Z" clip-rule="evenodd" stroke-width="10.6667"></path>
</svg>