<svg xmlns="http://www.w3.org/2000/svg" viewBox="0 0 256 256" id="Pen-Write--Streamline-Ultimate" height="256" width="256">
  <desc>
    Pen Write Streamline Icon: https://streamlinehq.com
  </desc>
  <g id="Pen-Write--Streamline-Ultimate.svg">
    <path d="M202.66666666666666 138.66666666666666a10.666666666666666 10.666666666666666 0 0 0 -10.666666666666666 10.666666666666666v74.66666666666666a10.666666666666666 10.666666666666666 0 0 1 -10.666666666666666 10.666666666666666H32a10.666666666666666 10.666666666666666 0 0 1 -10.666666666666666 -10.666666666666666V32a10.666666666666666 10.666666666666666 0 0 1 10.666666666666666 -10.666666666666666h74.66666666666666a10.666666666666666 10.666666666666666 0 0 0 0 -21.333333333333332H32a32 32 0 0 0 -32 32v192a32 32 0 0 0 32 32h149.33333333333331a32 32 0 0 0 32 -32v-74.66666666666666a10.666666666666666 10.666666666666666 0 0 0 -10.666666666666666 -10.666666666666666Z" fill="#ffffff" stroke-width="10.6667"></path>
    <path d="M93.12 133.54666666666665a5.4399999999999995 5.4399999999999995 0 0 0 -3.733333333333333 3.84l-5.973333333333334 23.893333333333334 -13.333333333333332 13.333333333333332a7.893333333333333 7.893333333333333 0 0 0 0 11.306666666666667 8 8 0 0 0 11.306666666666667 0l13.44 -13.44 23.57333333333333 -5.866666666666667a5.546666666666667 5.546666666666667 0 0 0 3.84 -3.84 5.119999999999999 5.119999999999999 0 0 0 -1.3866666666666667 -5.119999999999999l-22.506666666666664 -22.72a5.333333333333333 5.333333333333333 0 0 0 -5.226666666666667 -1.3866666666666667Z" fill="#ffffff" stroke-width="10.6667"></path>
    <path d="M252.90666666666667 3.093333333333333a10.666666666666666 10.666666666666666 0 0 0 -15.146666666666665 0l-9.493333333333332 9.6a21.333333333333332 21.333333333333332 0 0 0 -16.426666666666666 2.2399999999999998l-0.5333333333333333 0a32 32 0 0 0 -45.120000000000005 0L128 53.33333333333333a10.666666666666666 10.666666666666666 0 1 0 15.04 15.146666666666665L181.33333333333331 29.439999999999998a10.666666666666666 10.666666666666666 0 0 1 14.933333333333332 0l-7.466666666666666 7.466666666666666a5.333333333333333 5.333333333333333 0 0 0 0 7.573333333333332l22.613333333333333 22.72a5.226666666666667 5.226666666666667 0 0 0 3.733333333333333 1.5999999999999999 5.013333333333333 5.013333333333333 0 0 0 3.733333333333333 -1.5999999999999999l18.88 -18.773333333333333a21.333333333333332 21.333333333333332 0 0 0 5.546666666666667 -20.69333333333333l9.6 -9.493333333333332a10.666666666666666 10.666666666666666 0 0 0 0 -15.146666666666665Z" fill="#ffffff" stroke-width="10.6667"></path>
    <path d="M132.26666666666665 151.68a5.4399999999999995 5.4399999999999995 0 0 0 3.84 -1.5999999999999999l67.73333333333332 -67.73333333333332a5.333333333333333 5.333333333333333 0 0 0 0 -7.573333333333332L181.33333333333331 52.16a5.4399999999999995 5.4399999999999995 0 0 0 -7.573333333333332 0l-67.84 67.84a5.119999999999999 5.119999999999999 0 0 0 0 7.466666666666666l22.613333333333333 22.613333333333333a5.226666666666667 5.226666666666667 0 0 0 3.733333333333333 1.5999999999999999Z" fill="#ffffff" stroke-width="10.6667"></path>
  </g>
</svg>