<svg xmlns="http://www.w3.org/2000/svg" id="Pen-Draw-1--Streamline-Ultimate" width="256" height="256" fill="none" viewBox="0 0 256 256"><desc>Pen Draw 1 Streamline Icon: https://streamlinehq.com</desc><path fill="#fff" fill-rule="evenodd" stroke-width="10.667" d="M130.93546666666666 51.541866666666664C105.57557333333332 71.15744 70.35957333333333 107.22346666666665 19.100693333333332 160.3125333333333c-4.0918399999999995 4.237866666666666 -10.844608000000001 4.3562666666666665 -15.082624 0.2645333333333333 -4.238010666666666 -4.091733333333333 -4.356468266666666 -10.8448 -0.264576 -15.082666666666665C54.491946666666664 92.94410666666666 90.99338666666667 55.46624 117.88373333333334 34.667199999999994c13.345066666666668 -10.321706666666666 25.607466666666667 -17.58965333333333 37.0176 -19.84928 5.938133333333333 -1.1757866666666665 11.864533333333334 -1.0428799999999998 17.565866666666665 0.8868266666666667 5.692799999999999 1.9262933333333332 10.463999999999999 5.407253333333333 14.462933333333334 9.861333333333333 7.1936 8.012373333333333 6.856533333333333 18.307626666666664 4.510933333333333 26.833599999999997 -2.373333333333333 8.629439999999999 -7.4079999999999995 18.011733333333332 -13.534933333333331 27.38869333333333 -12.332799999999999 18.875946666666664 -31.06133333333333 40.64469333333333 -49.22346666666667 61.07776 -18.08853333333333 20.348799999999997 -29.668799999999997 36.461866666666666 -34.80672 48.16426666666666 -2.5756799999999997 5.866666666666667 -3.032 9.527466666666665 -2.79936 11.513599999999999 0.15381333333333333 1.3119999999999998 0.5540266666666667 2.1056 2.089173333333333 3.0325333333333333 1.2983466666666665 0.7839999999999999 3.85632 1.3994666666666666 9.009813333333334 -0.2752 5.115093333333333 -1.6618666666666666 11.196159999999999 -5.1104 17.771093333333333 -9.853866666666665 12.853333333333333 -9.272533333333332 25.309866666666665 -21.7824 32.989866666666664 -29.495466666666665l0.4330666666666666 -0.43520000000000003c2.958933333333333 -2.970666666666667 5.994666666666667 -6.290133333333333 9.2896 -9.892266666666666 1.5445333333333333 -1.6896 3.1466666666666665 -3.4410666666666665 4.8256 -5.247999999999999 5.0336 -5.422933333333333 10.6016 -11.173333333333334 16.289066666666663 -15.768533333333332 5.4719999999999995 -4.4192 12.3296 -8.8448 19.978666666666665 -9.880533333333332 8.843733333333333 -1.1989333333333332 16.832 2.3392 22.790399999999998 9.928533333333332 7.470933333333333 9.514666666666667 5.3504000000000005 20.7872 2.277333333333333 28.9952 -3.0656 8.185599999999999 -8.412799999999999 16.916266666666665 -13.108266666666667 24.580266666666663l-0.38186666666666663 0.624c-5.109333333333333 8.343466666666666 -9.493333333333332 15.589333333333332 -11.905066666666666 21.959466666666664 -2.478933333333333 6.552533333333333 -1.6842666666666668 9.067733333333333 -0.9845333333333333 10.117333333333333 0.9568 1.4357333333333333 1.6373333333333333 1.6288 2.6816 1.6650666666666665 1.7493333333333334 0.06293333333333333 4.701866666666667 -0.608 8.849066666666666 -2.7584 8.206933333333332 -4.257066666666667 17.05813333333333 -12.173866666666665 22.69973333333333 -18.379733333333334 3.9626666666666663 -4.3584 10.709333333333333 -4.679466666666666 15.067733333333333 -0.7167999999999999 4.359466666666666 3.9626666666666663 4.680533333333333 10.708266666666667 0.7178666666666667 15.067733333333333 -6.501333333333333 7.150933333333333 -17.32053333333333 17.08373333333333 -28.663466666666665 22.966399999999997 -5.627733333333333 2.9184 -12.419199999999998 5.389866666666666 -19.428266666666666 5.141333333333333 -7.712 -0.27413333333333334 -14.803199999999999 -3.845333333333333 -19.674666666666667 -11.152000000000001 -6.586666666666667 -9.879466666666666 -4.414933333333333 -21.050666666666665 -1.2170666666666665 -29.500799999999998 3.2085333333333335 -8.478933333333334 8.661333333333333 -17.383466666666664 13.409066666666668 -25.133866666666666l0.25493333333333335 -0.416c5.1306666666666665 -8.378666666666666 9.425066666666666 -15.460266666666666 11.704533333333332 -21.545599999999997 2.3541333333333334 -6.285866666666667 1.2362666666666666 -7.9392 0.9226666666666665 -8.338133333333332 -1.7162666666666664 -2.1866666666666665 -2.5258666666666665 -2.0608 -3.0506666666666664 -1.9786666666666666 -0.03306666666666666 0.005333333333333333 -0.06506666666666666 0.0096 -0.09599999999999999 0.013866666666666666 -1.7184 0.23359999999999997 -4.8064 1.5957333333333334 -9.437866666666666 5.336533333333333 -4.413866666666666 3.566933333333333 -9.105066666666666 8.349866666666667 -14.061866666666667 13.688533333333334 -1.4133333333333333 1.5221333333333331 -2.8693333333333335 3.1136 -4.341333333333333 4.722133333333333 -3.458133333333333 3.7802666666666664 -7.003733333333333 7.655466666666666 -10.2912 10.956799999999998 -0.22826666666666665 0.2293333333333333 -0.4629333333333333 0.46506666666666663 -0.7029333333333333 0.7061333333333333 -7.571199999999999 7.606399999999999 -21.062399999999997 21.160533333333333 -35.35466666666666 31.471999999999998 -7.3461333333333325 5.3002666666666665 -15.504 10.192 -23.6608 12.842666666666666 -8.117973333333332 2.6368 -17.865706666666664 3.536 -26.624533333333332 -1.7504 -7.014826666666666 -4.233599999999999 -11.31104 -10.763733333333334 -12.254186666666666 -18.814933333333332 -0.8642133333333333 -7.377066666666666 1.1819733333333333 -15.118933333333333 4.454293333333333 -22.57173333333333 6.55808 -14.9376 20.055466666666668 -33.129599999999996 38.395626666666665 -53.761066666666665 18.264533333333333 -20.548266666666663 35.96373333333333 -41.20821333333333 47.3088 -58.57322666666667 5.712 -8.743573333333334 9.328 -15.934826666666666 10.824533333333331 -21.377493333333334 1.5050666666666666 -5.472106666666666 0.30933333333333335 -6.7867733333333335 0.1888 -6.919253333333334l-0.004266666666666667 -0.004693333333333333c-2.0330666666666666 -2.26496 -3.8357333333333328 -3.3679999999999994 -5.4272 -3.90656 -1.5818666666666665 -0.5351466666666667 -3.648 -0.7483733333333333 -6.5824 -0.1672533333333333 -6.333866666666666 1.2541866666666666 -15.329066666666666 5.911253333333333 -28.110933333333335 15.797013333333332Z" clip-rule="evenodd"/></svg>