<svg xmlns="http://www.w3.org/2000/svg" viewBox="0 0 256 256" id="Pencil-1--Streamline-Ultimate" height="256" width="256">
  <desc>
    Pencil 1 Streamline Icon: https://streamlinehq.com
  </desc>
  <g id="Pencil-1--Streamline-Ultimate.svg">
    <path d="M160.74666666666667 42.666666666666664a5.226666666666667 5.226666666666667 0 0 0 -3.84 -1.5999999999999999 5.333333333333333 5.333333333333333 0 0 0 -3.733333333333333 1.4933333333333334L36.69333333333333 159.04a5.333333333333333 5.333333333333333 0 0 0 0 7.573333333333332l52.693333333333335 52.693333333333335a5.4399999999999995 5.4399999999999995 0 0 0 3.84 1.5999999999999999 5.226666666666667 5.226666666666667 0 0 0 3.733333333333333 -1.5999999999999999L213.33333333333331 102.93333333333334a5.4399999999999995 5.4399999999999995 0 0 0 0 -7.573333333333332Z" fill="#ffffff" stroke-width="10.6667"></path>
    <path d="M25.92 179.2a5.4399999999999995 5.4399999999999995 0 0 0 -8.959999999999999 2.5599999999999996L0.8533333333333333 248.64a5.226666666666667 5.226666666666667 0 0 0 1.4933333333333334 5.013333333333333 5.4399999999999995 5.4399999999999995 0 0 0 5.013333333333333 1.4933333333333334L74.66666666666666 239.04a5.226666666666667 5.226666666666667 0 0 0 3.84 -3.733333333333333 5.546666666666667 5.546666666666667 0 0 0 -1.2799999999999998 -5.226666666666667Z" fill="#ffffff" stroke-width="10.6667"></path>
    <path d="M247.46666666666664 31.146666666666665 224.8533333333333 8.533333333333333a26.88 26.88 0 0 0 -37.76 0l-15.04 15.146666666666665a5.119999999999999 5.119999999999999 0 0 0 0 7.466666666666666l52.8 53.33333333333333a5.119999999999999 5.119999999999999 0 0 0 7.466666666666666 0l15.146666666666665 -15.68a26.666666666666664 26.666666666666664 0 0 0 0 -37.65333333333333Z" fill="#ffffff" stroke-width="10.6667"></path>
  </g>
</svg>