<svg xmlns="http://www.w3.org/2000/svg" fill="none" viewBox="0 0 256 256" id="Pencil-Sketch--Streamline-Ultimate" height="256" width="256">
  <desc>
    Pencil Sketch Streamline Icon: https://streamlinehq.com
  </desc>
  <path fill="#ffffff" fill-rule="evenodd" d="M215.84106666666665 125.03893333333333c2.768 -1.5402666666666667 3.5904 -5.141333333333333 1.7653333333333334 -7.731199999999999l-25.5808 -36.30634666666666c-0.9994666666666667 -1.4180266666666665 -2.6250666666666667 -2.26144 -4.359466666666666 -2.26144H68.40896c-1.7346133333333331 0 -3.3607466666666665 0.8434133333333333 -4.3597866666666665 2.26144L38.442879999999995 117.34293333333332c-1.8283733333333334 2.5951999999999997 -0.9992533333333333 6.2026666666666666 1.7786666666666666 7.739733333333334l0.9794133333333332 0.5418666666666666 45.94976 24.793599999999998c1.7911466666666667 0.9663999999999999 3.97632 0.8298666666666665 5.632533333333333 -0.35306666666666664l30.568213333333333 -21.834666666666667c2.7818666666666663 -1.9871999999999999 6.5184 -1.9871999999999999 9.300266666666666 0l30.567466666666665 21.833599999999997c1.6565333333333332 1.1829333333333332 3.8410666666666664 1.3205333333333331 5.633066666666666 0.3541333333333333l45.92853333333333 -24.788266666666665 1.0602666666666667 -0.5909333333333333Zm10.794666666666666 17.01653333333333c0 -2.114133333333333 -2.2709333333333332 -3.448533333333333 -4.117333333333333 -2.4202666666666666l-0.09173333333333333 0.050133333333333335 -0.0010666666666666667 0 -46.29013333333333 24.983466666666665c-1.7258666666666667 0.9312 -2.8010666666666664 2.7327999999999997 -2.8010666666666664 4.693333333333333l0 77.37813333333332c0 2.9450666666666665 2.3882666666666665 5.333333333333333 5.333333333333333 5.333333333333333l39.967999999999996 0c2.1216 0 4.1568 -0.8426666666666667 5.656533333333333 -2.3434666666666666 1.5008 -1.4997333333333334 2.3434666666666666 -3.534933333333333 2.3434666666666666 -5.656533333333333l0 -102.01813333333332Zm-74.63466666666666 110.01813333333332c2.946133333333333 0 5.333333333333333 -2.3882666666666665 5.333333333333333 -5.333333333333333l0 -78.47146666666666c0 -1.7226666666666666 -0.8309333333333333 -3.339733333333333 -2.2325333333333335 -4.3402666666666665l-24 -17.143466666666665c-1.8549333333333333 -1.3237333333333332 -4.345599999999999 -1.3237333333333332 -6.2005333333333335 0l-23.999786666666665 17.143466666666665c-1.4015999999999997 1.0005333333333333 -2.2333866666666666 2.6176 -2.2333866666666666 4.3402666666666665v78.47146666666666c0 2.9450666666666665 2.3878399999999997 5.333333333333333 5.333333333333333 5.333333333333333h47.99957333333333Zm-74.66623999999999 0c2.9454933333333333 0 5.333333333333333 -2.3882666666666665 5.333333333333333 -5.333333333333333v-77.37706666666666c0 -1.9605333333333332 -1.07552 -3.7632 -2.80064 -4.6944l-46.30048 -24.983466666666665 -0.07274666666666665 -0.039466666666666664 -0.00010666666666666667 0c0.00010666666666666667 0 0.00010666666666666667 0 0 0l-1.51872 -0.8405333333333332c-1.1678933333333332 -0.6453333333333333 -2.6004266666666664 0.19946666666666668 -2.6004266666666664 1.5338666666666667v103.7344c0 4.4181333333333335 3.5816533333333336 8 8 8l39.959786666666666 0ZM143.29706666666667 11.842133333333333l29.9392 42.49258666666667c2.4896 3.5332266666666663 -0.03733333333333333 8.405226666666666 -4.359466666666666 8.405226666666666H87.19797333333334c-4.32224 0 -6.84928 -4.872 -4.3597866666666665 -8.405226666666666L112.7776 11.842133333333333c7.4368 -10.553386666666666 23.08373333333333 -10.553418666666666 30.519466666666666 0Z" clip-rule="evenodd" stroke-width="10.6667"></path>
</svg>