<svg xmlns="http://www.w3.org/2000/svg" viewBox="0 0 256 256" id="Performance-Increase--Streamline-Ultimate" height="256" width="256">
  <desc>
    Performance Increase Streamline Icon: https://streamlinehq.com
  </desc>
  <g id="Performance-Increase--Streamline-Ultimate.svg">
    <path d="M21.333333333333332 190.61333333333334a10.666666666666666 10.666666666666666 0 0 0 -10.666666666666666 10.666666666666666v16a2.6666666666666665 2.6666666666666665 0 0 0 2.6666666666666665 2.6666666666666665h37.33333333333333a2.6666666666666665 2.6666666666666665 0 0 0 2.6666666666666665 -2.6666666666666665v-16a10.666666666666666 10.666666666666666 0 0 0 -10.666666666666666 -10.666666666666666Z" fill="#ffffff" stroke-width="10.6667"></path>
    <path d="M85.33333333333333 158.61333333333332a10.666666666666666 10.666666666666666 0 0 0 -10.666666666666666 10.666666666666666v48a2.6666666666666665 2.6666666666666665 0 0 0 2.6666666666666665 2.6666666666666665h37.33333333333333a2.6666666666666665 2.6666666666666665 0 0 0 2.6666666666666665 -2.6666666666666665v-48a10.666666666666666 10.666666666666666 0 0 0 -10.666666666666666 -10.666666666666666Z" fill="#ffffff" stroke-width="10.6667"></path>
    <path d="M149.33333333333331 121.27999999999999a10.666666666666666 10.666666666666666 0 0 0 -10.666666666666666 10.666666666666666v85.33333333333333a2.6666666666666665 2.6666666666666665 0 0 0 2.6666666666666665 2.6666666666666665h37.33333333333333a2.6666666666666665 2.6666666666666665 0 0 0 2.6666666666666665 -2.6666666666666665v-85.33333333333333a10.666666666666666 10.666666666666666 0 0 0 -10.666666666666666 -10.666666666666666Z" fill="#ffffff" stroke-width="10.6667"></path>
    <path d="M205.33333333333331 219.94666666666666h37.33333333333333a2.6666666666666665 2.6666666666666665 0 0 0 2.6666666666666665 -2.6666666666666665v-128a10.666666666666666 10.666666666666666 0 0 0 -10.666666666666666 -10.666666666666666h-21.333333333333332a10.666666666666666 10.666666666666666 0 0 0 -10.666666666666666 10.666666666666666v128a2.6666666666666665 2.6666666666666665 0 0 0 2.6666666666666665 2.6666666666666665Z" fill="#ffffff" stroke-width="10.6667"></path>
    <path d="m192.74666666666667 44.906666666666666 3.3066666666666666 4.906666666666666A7.893333333333333 7.893333333333333 0 0 0 202.66666666666666 53.33333333333333a7.893333333333333 7.893333333333333 0 0 0 6.613333333333333 -4.053333333333333l21.333333333333332 -37.33333333333333a8 8 0 0 0 0 -8.426666666666666 7.68 7.68 0 0 0 -7.573333333333332 -3.52l-42.666666666666664 5.333333333333333a8 8 0 0 0 -5.653333333333333 12.373333333333331l3.1999999999999997 4.906666666666666a2.5599999999999996 2.5599999999999996 0 0 1 -0.7466666666666667 3.626666666666667L26.133333333333333 127.14666666666666a10.666666666666666 10.666666666666666 0 0 0 -2.986666666666667 14.826666666666664 10.666666666666666 10.666666666666666 0 0 0 8.853333333333332 4.693333333333333 10.026666666666666 10.026666666666666 0 0 0 5.866666666666667 -1.8133333333333335l151.14666666666665 -100.69333333333333a2.6666666666666665 2.6666666666666665 0 0 1 3.733333333333333 0.7466666666666667Z" fill="#ffffff" stroke-width="10.6667"></path>
    <path d="M10.666666666666666 256h234.66666666666666a10.666666666666666 10.666666666666666 0 0 0 3.3066666666666666 -20.799999999999997A11.306666666666667 11.306666666666667 0 0 0 245.33333333333331 234.66666666666666H10.666666666666666a11.306666666666667 11.306666666666667 0 0 0 -3.3066666666666666 0.5333333333333333A10.666666666666666 10.666666666666666 0 0 0 10.666666666666666 256Z" fill="#ffffff" stroke-width="10.6667"></path>
  </g>
</svg>