<svg xmlns="http://www.w3.org/2000/svg" id="Performance-Money-Decrease--Streamline-Ultimate" width="256" height="256" viewBox="0 0 256 256"><desc>Performance Money Decrease Streamline Icon: https://streamlinehq.com</desc><g id="Performance-Money-Decrease--Streamline-Ultimate.svg"><path fill="#fff" stroke-width="10.667" d="M154.56 72.85333333333332a5.226666666666667 5.226666666666667 0 0 1 7.253333333333334 0L192.95999999999998 106.66666666666666a2.6666666666666665 2.6666666666666665 0 0 1 0 3.733333333333333L175.67999999999998 128a8 8 0 0 0 5.653333333333333 13.333333333333332h58.666666666666664a8.106666666666666 8.106666666666666 0 0 0 8 -8V74.66666666666666A8 8 0 0 0 234.66666666666666 69.01333333333332l-15.36 15.04a2.2399999999999998 2.2399999999999998 0 0 1 -1.92 0.7466666666666667 2.6666666666666665 2.6666666666666665 0 0 1 -1.92 -0.8533333333333333l-37.12 -39.78666666666666a26.88 26.88 0 0 0 -36.05333333333333 -2.5599999999999996l-30.72 24.64a5.4399999999999995 5.4399999999999995 0 0 1 -7.1466666666666665 0L43.30666666666666 4.693333333333333a16 16 0 0 0 -22.613333333333333 22.613333333333333l67.94666666666666 67.94666666666666a26.666666666666664 26.666666666666664 0 0 0 35.519999999999996 1.92Z"/><path fill="#fff" stroke-width="10.667" d="M122.66666666666666 240A16 16 0 0 0 106.66666666666666 224H32a16 16 0 0 0 0 32h74.66666666666666a16 16 0 0 0 16 -16Z"/><path fill="#fff" stroke-width="10.667" d="M240 240A16 16 0 0 0 224 224h-74.66666666666666a16 16 0 0 0 0 32h74.66666666666666a16 16 0 0 0 16 -16Z"/><path fill="#fff" stroke-width="10.667" d="M250.66666666666666 192a16 16 0 0 0 -16 -16h-74.66666666666666a16 16 0 0 0 0 32h74.66666666666666a16 16 0 0 0 16 -16Z"/><path fill="#fff" stroke-width="10.667" d="M96 208a16 16 0 0 0 0 -32H21.333333333333332a16 16 0 0 0 0 32Z"/><path fill="#fff" stroke-width="10.667" d="M106.66666666666666 128H32a16 16 0 0 0 0 32h74.66666666666666a16 16 0 0 0 0 -32Z"/></g></svg>