<svg xmlns="http://www.w3.org/2000/svg" viewBox="0 0 256 256" id="Performance-Tablet-Increase--Streamline-Ultimate" height="256" width="256">
  <desc>
    Performance Tablet Increase Streamline Icon: https://streamlinehq.com
  </desc>
  <g id="Performance-Tablet-Increase--Streamline-Ultimate.svg">
    <path d="M52.48 119.03999999999999a13.333333333333332 13.333333333333332 0 0 0 18.773333333333333 18.88l37.86666666666666 -37.86666666666666a2.7733333333333334 2.7733333333333334 0 0 1 3.733333333333333 0l10.026666666666666 10.026666666666666a7.573333333333332 7.573333333333332 0 0 0 5.653333333333333 2.3466666666666667 10.666666666666666 10.666666666666666 0 0 0 3.093333333333333 0 8 8 0 0 0 4.906666666666666 -7.466666666666666v-42.666666666666664a8.106666666666666 8.106666666666666 0 0 0 -8 -8.959999999999999h-42.666666666666664a7.893333333333333 7.893333333333333 0 0 0 -7.359999999999999 4.906666666666666 7.786666666666666 7.786666666666666 0 0 0 1.7066666666666666 8.746666666666666l10.026666666666666 10.026666666666666a2.6666666666666665 2.6666666666666665 0 0 1 0 3.84Z" fill="#ffffff" stroke-width="10.6667"></path>
    <path d="M169.06666666666666 134.07999999999998a10.666666666666666 10.666666666666666 0 0 0 18.133333333333333 -7.573333333333332V35.093333333333334a32 32 0 0 0 -32 -32h-117.33333333333333a32 32 0 0 0 -32 32v165.33333333333331a32 32 0 0 0 32 32h101.33333333333333a10.666666666666666 10.666666666666666 0 1 0 0 -21.333333333333332h-101.33333333333333a10.666666666666666 10.666666666666666 0 0 1 -10.666666666666666 -10.666666666666666V35.093333333333334a10.666666666666666 10.666666666666666 0 0 1 10.666666666666666 -10.666666666666666h117.33333333333333a10.666666666666666 10.666666666666666 0 0 1 10.666666666666666 10.666666666666666v91.41333333333333a10.666666666666666 10.666666666666666 0 0 0 3.1999999999999997 7.573333333333332Z" fill="#ffffff" stroke-width="10.6667"></path>
    <path d="M249.81333333333333 251.51999999999998a2.88 2.88 0 0 0 0 -2.7733333333333334L234.66666666666666 226.24a2.453333333333333 2.453333333333333 0 0 1 0 -1.4933333333333334v-62.18666666666667c0 -14.186666666666667 -12.586666666666666 -28.16 -26.346666666666668 -39.78666666666666a2.7733333333333334 2.7733333333333334 0 0 0 -2.88 0 2.7733333333333334 2.7733333333333334 0 0 0 -1.4933333333333334 2.3466666666666667v38.29333333333333a35.199999999999996 35.199999999999996 0 0 1 -5.013333333333333 10.666666666666666 7.786666666666666 7.786666666666666 0 0 1 -5.653333333333333 2.3466666666666667 8.213333333333333 8.213333333333333 0 0 1 -5.653333333333333 -2.2399999999999998l-30.93333333333333 -30.506666666666664 -0.7466666666666667 -0.5333333333333333a14.613333333333333 14.613333333333333 0 0 0 -17.28 2.986666666666667 16.426666666666666 16.426666666666666 0 0 0 0 20.69333333333333l39.04 44.16a2.453333333333333 2.453333333333333 0 0 1 0.6399999999999999 1.7066666666666666v27.306666666666665a28.373333333333335 28.373333333333335 0 0 0 3.3066666666666666 11.413333333333334 2.7733333333333334 2.7733333333333334 0 0 0 2.3466666666666667 1.4933333333333334h63.46666666666667a2.6666666666666665 2.6666666666666665 0 0 0 2.3466666666666667 -1.3866666666666667Z" fill="#ffffff" stroke-width="10.6667"></path>
  </g>
</svg>