<svg xmlns="http://www.w3.org/2000/svg" viewBox="0 0 256 256" id="Perspective-Grid--Streamline-Ultimate" height="256" width="256">
  <desc>
    Perspective Grid Streamline Icon: https://streamlinehq.com
  </desc>
  <path d="M234.66666666666666 0H21.333333333333332a21.333333333333332 21.333333333333332 0 0 0 -21.333333333333332 21.333333333333332v213.33333333333331a21.333333333333332 21.333333333333332 0 0 0 21.333333333333332 21.333333333333332h213.33333333333331a21.333333333333332 21.333333333333332 0 0 0 21.333333333333332 -21.333333333333332V21.333333333333332a21.333333333333332 21.333333333333332 0 0 0 -21.333333333333332 -21.333333333333332ZM71.57333333333332 234.66666666666666a2.453333333333333 2.453333333333333 0 0 1 -2.3466666666666667 -1.4933333333333334 2.453333333333333 2.453333333333333 0 0 1 0 -2.7733333333333334 172.69333333333333 172.69333333333333 0 0 0 29.333333333333332 -64 2.5599999999999996 2.5599999999999996 0 0 1 3.093333333333333 -2.0266666666666664 70.29333333333332 70.29333333333332 0 0 1 22.29333333333333 8.106666666666666 91.30666666666667 91.30666666666667 0 0 0 34.986666666666665 11.413333333333334 2.7733333333333334 2.7733333333333334 0 0 1 2.0266666666666664 1.3866666666666667 2.5599999999999996 2.5599999999999996 0 0 1 0 2.3466666666666667 149.33333333333331 149.33333333333331 0 0 1 -30.72 46.29333333333333 2.6666666666666665 2.6666666666666665 0 0 1 -1.92 0.8533333333333333ZM21.333333333333332 118.50666666666666a2.6666666666666665 2.6666666666666665 0 0 1 0.8533333333333333 -1.92L39.78666666666666 100.26666666666667a72.10666666666665 72.10666666666665 0 0 1 32.64 -17.066666666666666 2.5599999999999996 2.5599999999999996 0 0 1 3.093333333333333 2.1333333333333333 151.46666666666664 151.46666666666664 0 0 1 6.079999999999999 42.666666666666664l0 11.733333333333334a2.88 2.88 0 0 1 -2.453333333333333 2.453333333333333 92.47999999999999 92.47999999999999 0 0 0 -53.33333333333333 24 2.3466666666666667 2.3466666666666667 0 0 1 -4.4799999999999995 -1.7066666666666666ZM128.64 21.333333333333332a2.6666666666666665 2.6666666666666665 0 0 1 1.92 0.8533333333333333 152.74666666666667 152.74666666666667 0 0 1 34.346666666666664 55.25333333333333 2.7733333333333334 2.7733333333333334 0 0 1 0 2.5599999999999996 2.6666666666666665 2.6666666666666665 0 0 1 -2.453333333333333 0.96 69.44 69.44 0 0 1 -27.306666666666665 -8.746666666666666 92.90666666666667 92.90666666666667 0 0 0 -43.73333333333333 -12.159999999999998 2.6666666666666665 2.6666666666666665 0 0 1 -2.453333333333333 -1.5999999999999999A165.97333333333333 165.97333333333333 0 0 0 69.44 25.599999999999998a2.453333333333333 2.453333333333333 0 0 1 0 -2.7733333333333334 2.453333333333333 2.453333333333333 0 0 1 2.1333333333333333 -1.4933333333333334Zm6.079999999999999 132.48a92.37333333333333 92.37333333333333 0 0 0 -30.08 -10.666666666666666 2.6666666666666665 2.6666666666666665 0 0 1 -2.2399999999999998 -2.88c0 -4.053333333333333 0.5333333333333333 -8.106666666666666 0.5333333333333333 -12.266666666666666a173.65333333333334 173.65333333333334 0 0 0 -5.333333333333333 -42.666666666666664 2.7733333333333334 2.7733333333333334 0 0 1 0.6399999999999999 -2.453333333333333 2.6666666666666665 2.6666666666666665 0 0 1 2.453333333333333 -0.8533333333333333 71.67999999999999 71.67999999999999 0 0 1 23.46666666666667 8.213333333333333 92.69333333333333 92.69333333333333 0 0 0 44.8 12.159999999999998 2.7733333333333334 2.7733333333333334 0 0 1 2.6666666666666665 2.2399999999999998 163.51999999999998 163.51999999999998 0 0 1 1.8133333333333335 23.36 146.56 146.56 0 0 1 -3.733333333333333 32.959999999999994 2.5599999999999996 2.5599999999999996 0 0 1 -2.6666666666666665 2.1333333333333333 72.21333333333332 72.21333333333332 0 0 1 -32.31999999999999 -9.28Zm58.02666666666667 -51.199999999999996a2.6666666666666665 2.6666666666666665 0 0 1 1.92 -2.986666666666667 93.65333333333332 93.65333333333332 0 0 0 35.626666666666665 -18.56 2.5599999999999996 2.5599999999999996 0 0 1 2.88 0 2.7733333333333334 2.7733333333333334 0 0 1 1.4933333333333334 2.453333333333333V128a3.093333333333333 3.093333333333333 0 0 1 -0.7466666666666667 1.92l-12.799999999999999 12.799999999999999a71.14666666666666 71.14666666666666 0 0 1 -24.959999999999997 16.106666666666666 2.6666666666666665 2.6666666666666665 0 0 1 -2.6666666666666665 0 2.453333333333333 2.453333333333333 0 0 1 -0.96 -2.453333333333333 181.33333333333331 181.33333333333331 0 0 0 2.2399999999999998 -28.373333333333335 166.39999999999998 166.39999999999998 0 0 0 -2.0266666666666664 -25.386666666666663ZM234.66666666666666 45.97333333333333a2.7733333333333334 2.7733333333333334 0 0 1 -0.7466666666666667 1.8133333333333335l-12.799999999999999 12.799999999999999a71.46666666666667 71.46666666666667 0 0 1 -30.826666666666668 18.026666666666664 2.6666666666666665 2.6666666666666665 0 0 1 -3.1999999999999997 -1.8133333333333335 172.69333333333333 172.69333333333333 0 0 0 -25.813333333333333 -51.199999999999996 2.6666666666666665 2.6666666666666665 0 0 1 0 -2.7733333333333334 2.6666666666666665 2.6666666666666665 0 0 1 2.1333333333333333 -1.4933333333333334h65.91999999999999a5.333333333333333 5.333333333333333 0 0 1 5.333333333333333 5.333333333333333ZM36.8 21.333333333333332a2.6666666666666665 2.6666666666666665 0 0 1 1.92 0.8533333333333333 149.97333333333333 149.97333333333333 0 0 1 26.666666666666664 37.44 2.7733333333333334 2.7733333333333334 0 0 1 0 2.2399999999999998 2.6666666666666665 2.6666666666666665 0 0 1 -1.3866666666666667 1.4933333333333334 93.33333333333333 93.33333333333333 0 0 0 -38.29333333333333 21.333333333333332 2.453333333333333 2.453333333333333 0 0 1 -2.6666666666666665 0A2.2399999999999998 2.2399999999999998 0 0 1 21.333333333333332 82.88V26.666666666666664a5.333333333333333 5.333333333333333 0 0 1 5.333333333333333 -5.333333333333333ZM21.333333333333332 200.10666666666668a2.6666666666666665 2.6666666666666665 0 0 1 0.8533333333333333 -1.92l17.599999999999998 -16.32a71.78666666666666 71.78666666666666 0 0 1 33.28 -17.173333333333332 2.6666666666666665 2.6666666666666665 0 0 1 2.453333333333333 0.7466666666666667 2.453333333333333 2.453333333333333 0 0 1 0.6399999999999999 2.5599999999999996 150.39999999999998 150.39999999999998 0 0 1 -37.44 65.81333333333333 2.6666666666666665 2.6666666666666665 0 0 1 -1.92 0.8533333333333333h-10.666666666666666a5.333333333333333 5.333333333333333 0 0 1 -5.333333333333333 -5.333333333333333ZM163.41333333333333 234.66666666666666a2.6666666666666665 2.6666666666666665 0 0 1 -2.453333333333333 -1.4933333333333334 2.6666666666666665 2.6666666666666665 0 0 1 0 -2.7733333333333334 175.36 175.36 0 0 0 24 -45.76 2.5599999999999996 2.5599999999999996 0 0 1 2.0266666666666664 -1.7066666666666666 93.12 93.12 0 0 0 42.666666666666664 -20.266666666666666 2.6666666666666665 2.6666666666666665 0 0 1 4.373333333333333 2.0266666666666664v64.63999999999999a5.4399999999999995 5.4399999999999995 0 0 1 -5.333333333333333 5.333333333333333Z" fill="#ffffff" stroke-width="10.6667"></path>
</svg>