<svg xmlns="http://www.w3.org/2000/svg" id="Petri-Dish-2--Streamline-Ultimate" width="256" height="256" fill="none" viewBox="0 0 256 256"><desc>Petri Dish 2 Streamline Icon: https://streamlinehq.com</desc><path fill="#fff" fill-rule="evenodd" stroke-width="10.667" d="M127.99680000000001 3.8723946666666667C59.44330666666666 3.8723946666666667 3.8697919999999995 59.44597333333333 3.8697919999999995 127.99893333333333c0 68.55359999999999 55.57351466666666 124.12693333333334 124.127008 124.12693333333334 68.55359999999999 0 124.12693333333334 -55.57333333333333 124.12693333333334 -124.12693333333334 0 -68.55296 -55.57333333333333 -124.12653866666666 -124.12693333333334 -124.12653866666666ZM67.96768 169.07093333333333c10.035413333333333 0 18.170773333333333 -8.135466666666666 18.170773333333333 -18.170666666666666 0 -10.036266666666666 -8.135359999999999 -18.170666666666666 -18.170773333333333 -18.170666666666666 -10.03552 0 -18.170773333333333 8.1344 -18.170773333333333 18.170666666666666 0 10.0352 8.135253333333333 18.170666666666666 18.170773333333333 18.170666666666666ZM138.64533333333333 157.16266666666667c0 6.0736 -4.922666666666666 10.996266666666665 -10.995199999999999 10.996266666666665 -6.0736 0 -10.996266666666665 -4.922666666666666 -10.996266666666665 -10.996266666666665 0 -6.072533333333333 4.922666666666666 -10.996266666666665 10.996266666666665 -10.996266666666665 6.072533333333333 0 10.995199999999999 4.923733333333333 10.995199999999999 10.996266666666665Zm1.5957333333333334 60.233599999999996c6.072533333333333 0 10.996266666666665 -4.923733333333333 10.996266666666665 -10.996266666666665 0 -6.0736 -4.923733333333333 -10.996266666666665 -10.996266666666665 -10.996266666666665 -6.0736 0 -10.996266666666665 4.922666666666666 -10.996266666666665 10.996266666666665 0 6.072533333333333 4.922666666666666 10.996266666666665 10.996266666666665 10.996266666666665ZM71.78901333333333 74.92576c0 6.072959999999999 -4.923093333333333 10.99616 -10.996053333333332 10.99616s-10.996053333333332 -4.9232 -10.996053333333332 -10.99616c0 -6.072959999999999 4.923093333333333 -10.996053333333332 10.996053333333332 -10.996053333333332s10.996053333333332 4.923093333333333 10.996053333333332 10.996053333333332Zm118.57365333333333 10.552533333333333c0 18.063786666666665 -14.6432 32.70730666666667 -32.7072 32.70730666666667 -13.444266666666666 0 -24.993066666666667 -8.110933333333332 -30.02133333333333 -19.70581333333333 -2.4 0.82656 -4.9749333333333325 1.2753066666666666 -7.655466666666666 1.2753066666666666 -12.973866666666666 0 -23.491733333333332 -10.517759999999999 -23.491733333333332 -23.49205333333333 0 -12.9744 10.517866666666666 -23.49216 23.491733333333332 -23.49216 6.7114666666666665 0 12.764800000000001 2.8138666666666663 17.045333333333332 7.326079999999999 5.628799999999999 -4.580373333333333 12.8096 -7.326079999999999 20.631466666666665 -7.326079999999999 18.064 0 32.7072 14.643626666666666 32.7072 32.707413333333335Zm30.072533333333332 49.08704c-0.2016 -4.413866666666666 -3.9423999999999997 -7.828266666666666 -8.356266666666667 -7.627733333333333 -4.413866666666666 0.2016 -7.828266666666666 3.9434666666666662 -7.627733333333333 8.356266666666667 0.2517333333333333 5.514666666666667 -1.0229333333333333 8.1152 -2.2858666666666663 9.694933333333333 -1.5562666666666667 1.9477333333333333 -3.8986666666666663 3.4197333333333333 -7.898666666666667 5.586133333333334l-0.8682666666666666 0.46826666666666666c-3.5050666666666666 1.8858666666666668 -8.216533333333333 4.4192 -12.109866666666665 8.315733333333332 -4.567466666666666 4.5717333333333325 -7.774933333333333 10.679466666666666 -8.6976 19.178666666666665 -0.47679999999999995 4.392533333333333 2.6976 8.3392 7.090133333333332 8.817066666666665 4.392533333333333 0.47679999999999995 8.340266666666666 -2.6976 8.817066666666665 -7.090133333333332 0.5450666666666666 -5.021866666666666 2.219733333333333 -7.7056000000000004 4.109866666666666 -9.5968 2.171733333333333 -2.1738666666666666 4.920533333333333 -3.662933333333333 8.9376 -5.838933333333333l0.34346666666666664 -0.1856c3.768533333333333 -2.0426666666666664 8.930133333333334 -4.8533333333333335 12.775466666666667 -9.665066666666666 4.1386666666666665 -5.179733333333333 6.162133333333333 -11.8144 5.770666666666667 -20.412799999999997Z" clip-rule="evenodd"/></svg>