<svg xmlns="http://www.w3.org/2000/svg" viewBox="0 0 256 256" id="Phone-Circle--Streamline-Ultimate" height="256" width="256">
  <desc>
    Phone Circle Streamline Icon: https://streamlinehq.com
  </desc>
  <path d="M128 0a128 128 0 0 0 0 256c47.78666666666667 0 65.49333333333333 -18.56 71.89333333333333 -34.13333333333333a42.666666666666664 42.666666666666664 0 0 0 -1.92 -38.50666666666666 20.37333333333333 20.37333333333333 0 0 0 0 -27.41333333333333l-15.36 -15.253333333333332a20.586666666666666 20.586666666666666 0 0 0 -29.013333333333335 1.0666666666666667l-2.2399999999999998 2.2399999999999998a302.4 302.4 0 0 1 -39.36 -39.25333333333333l2.2399999999999998 -2.2399999999999998a20.69333333333333 20.69333333333333 0 0 0 1.1733333333333333 -29.119999999999997L100.16 58.13333333333333a20.69333333333333 20.69333333333333 0 0 0 -29.119999999999997 1.1733333333333333l-9.28 9.28a29.119999999999997 29.119999999999997 0 0 0 -5.119999999999999 35.41333333333333 306.34666666666664 306.34666666666664 0 0 0 95.25333333333333 95.25333333333333 26.24 26.24 0 0 0 14.08 3.9466666666666663 30.29333333333333 30.29333333333333 0 0 0 15.36 -4.586666666666666 26.666666666666664 26.666666666666664 0 0 1 -2.986666666666667 18.026666666666664C171.62666666666667 228.37333333333333 154.13333333333333 234.66666666666666 128 234.66666666666666a106.66666666666666 106.66666666666666 0 1 1 88 -46.29333333333333 10.666666666666666 10.666666666666666 0 1 0 17.493333333333332 12.053333333333331A126.61333333333332 126.61333333333332 0 0 0 256 128 128 128 0 0 0 128 0Z" fill="#ffffff" stroke-width="10.6667"></path>
</svg>