<svg xmlns="http://www.w3.org/2000/svg" viewBox="0 0 256 256" id="Phone-Vibrate--Streamline-Ultimate" height="256" width="256">
  <desc>
    Phone Vibrate Streamline Icon: https://streamlinehq.com
  </desc>
  <g id="Phone-Vibrate--Streamline-Ultimate.svg">
    <path d="m35.093333333333334 56.74666666666667 -16 -20.69333333333333a10.666666666666666 10.666666666666666 0 0 0 -14.933333333333332 -1.8133333333333335 10.666666666666666 10.666666666666666 0 0 0 -1.92 14.933333333333332l10.666666666666666 14.08 -10.666666666666666 14.186666666666667a10.666666666666666 10.666666666666666 0 0 0 0 13.013333333333332l10.666666666666666 14.186666666666667 -10.666666666666666 14.186666666666667a10.666666666666666 10.666666666666666 0 0 0 0 13.013333333333332l10.666666666666666 14.186666666666667 -10.666666666666666 13.973333333333333a10.666666666666666 10.666666666666666 0 0 0 0 13.12l10.666666666666666 14.08 -10.666666666666666 14.186666666666667a10.666666666666666 10.666666666666666 0 0 0 16.85333333333333 13.013333333333332l16 -20.69333333333333a10.666666666666666 10.666666666666666 0 0 0 0 -13.013333333333332l-10.666666666666666 -14.186666666666667 10.666666666666666 -14.08a10.666666666666666 10.666666666666666 0 0 0 0 -13.12l-10.666666666666666 -14.08 10.666666666666666 -14.186666666666667a10.666666666666666 10.666666666666666 0 0 0 0 -13.013333333333332l-10.666666666666666 -14.186666666666667 10.666666666666666 -14.08a10.666666666666666 10.666666666666666 0 0 0 0 -13.013333333333332Z" fill="#ffffff" stroke-width="10.6667"></path>
    <path d="m242.77333333333334 187.30666666666664 10.666666666666666 -14.08a10.666666666666666 10.666666666666666 0 0 0 0 -13.12l-10.666666666666666 -14.08 10.666666666666666 -14.186666666666667a10.666666666666666 10.666666666666666 0 0 0 0 -13.013333333333332l-10.666666666666666 -14.186666666666667 10.666666666666666 -14.186666666666667a10.666666666666666 10.666666666666666 0 0 0 0 -13.013333333333332l-10.666666666666666 -14.186666666666667 10.666666666666666 -14.08a10.666666666666666 10.666666666666666 0 0 0 -16.85333333333333 -13.12l-16 20.69333333333333a10.666666666666666 10.666666666666666 0 0 0 0 13.12l10.666666666666666 14.08 -10.666666666666666 14.186666666666667a10.666666666666666 10.666666666666666 0 0 0 0 13.013333333333332l10.666666666666666 14.186666666666667 -10.666666666666666 14.08a10.666666666666666 10.666666666666666 0 0 0 0 13.12l10.666666666666666 14.08 -10.666666666666666 14.186666666666667a10.666666666666666 10.666666666666666 0 0 0 0 13.013333333333332l16 20.69333333333333a10.666666666666666 10.666666666666666 0 1 0 16.85333333333333 -13.013333333333332Z" fill="#ffffff" stroke-width="10.6667"></path>
    <path d="M170.66666666666666 21.333333333333332H85.33333333333333a26.666666666666664 26.666666666666664 0 0 0 -26.666666666666664 26.666666666666664v160A26.666666666666664 26.666666666666664 0 0 0 85.33333333333333 234.66666666666666h85.33333333333333a26.666666666666664 26.666666666666664 0 0 0 26.666666666666664 -26.666666666666664v-160A26.666666666666664 26.666666666666664 0 0 0 170.66666666666666 21.333333333333332Zm5.333333333333333 154.66666666666666a10.666666666666666 10.666666666666666 0 0 1 -10.666666666666666 10.666666666666666h-74.66666666666666a10.666666666666666 10.666666666666666 0 0 1 -10.666666666666666 -10.666666666666666v-117.33333333333333a10.666666666666666 10.666666666666666 0 0 1 10.666666666666666 -10.666666666666666h74.66666666666666a10.666666666666666 10.666666666666666 0 0 1 10.666666666666666 10.666666666666666Z" fill="#ffffff" stroke-width="10.6667"></path>
  </g>
</svg>