<svg xmlns="http://www.w3.org/2000/svg" id="Phone-Flash-Light--Streamline-Ultimate" width="256" height="256" viewBox="0 0 256 256"><desc>Phone Flash Light Streamline Icon: https://streamlinehq.com</desc><g id="Phone-Flash-Light--Streamline-Ultimate.svg"><path fill="#fff" stroke-width="10.667" d="M197.33333333333331 32V10.666666666666666a10.666666666666666 10.666666666666666 0 0 0 -10.666666666666666 -10.666666666666666h-117.33333333333333a10.666666666666666 10.666666666666666 0 0 0 -10.666666666666666 10.666666666666666v21.333333333333332Z"/><path fill="#fff" stroke-width="10.667" d="M58.666666666666664 48v26.026666666666664a21.333333333333332 21.333333333333332 0 0 0 2.7733333333333334 10.666666666666666l15.786666666666665 27.52a21.333333333333332 21.333333333333332 0 0 1 2.7733333333333334 10.666666666666666V234.66666666666666a21.333333333333332 21.333333333333332 0 0 0 21.333333333333332 21.333333333333332h53.33333333333333a21.333333333333332 21.333333333333332 0 0 0 21.333333333333332 -21.333333333333332V122.66666666666666a21.333333333333332 21.333333333333332 0 0 1 2.7733333333333334 -10.666666666666666l15.786666666666665 -27.52a21.333333333333332 21.333333333333332 0 0 0 2.7733333333333334 -10.666666666666666V48Zm85.33333333333333 85.33333333333333a16 16 0 0 1 -32 0v-21.333333333333332a16 16 0 0 1 32 0Z"/></g></svg>