<svg xmlns="http://www.w3.org/2000/svg" viewBox="0 0 256 256" id="Phone-Type--Streamline-Ultimate" height="256" width="256">
  <desc>
    Phone Type Streamline Icon: https://streamlinehq.com
  </desc>
  <g id="Phone-Type--Streamline-Ultimate.svg">
    <path d="M117.33333333333333 111.78666666666666v85.33333333333333a10.666666666666666 10.666666666666666 0 0 1 -10.666666666666666 10.666666666666666H32a10.666666666666666 10.666666666666666 0 0 1 -10.666666666666666 -10.666666666666666V80a10.666666666666666 10.666666666666666 0 0 1 10.666666666666666 -10.666666666666666h66.66666666666666a2.6666666666666665 2.6666666666666665 0 0 0 2.6666666666666665 -2.6666666666666665v-21.333333333333332A2.6666666666666665 2.6666666666666665 0 0 0 98.66666666666666 42.666666666666664H26.666666666666664A26.666666666666664 26.666666666666664 0 0 0 0 69.33333333333333v160A26.666666666666664 26.666666666666664 0 0 0 26.666666666666664 256h85.33333333333333a26.666666666666664 26.666666666666664 0 0 0 26.666666666666664 -26.666666666666664V114.56a2.6666666666666665 2.6666666666666665 0 0 0 -2.6666666666666665 -2.5599999999999996 43.199999999999996 43.199999999999996 0 0 1 -15.04 -2.6666666666666665 2.5599999999999996 2.5599999999999996 0 0 0 -3.626666666666667 2.453333333333333Z" fill="#ffffff" stroke-width="10.6667"></path>
    <path d="M240 0h-106.66666666666666A16 16 0 0 0 117.33333333333333 16v64A16 16 0 0 0 133.33333333333331 96H160v19.093333333333334a5.333333333333333 5.333333333333333 0 0 0 9.066666666666666 3.84L192 96h48A16 16 0 0 0 256 80v-64A16 16 0 0 0 240 0Zm-98.66666666666666 45.33333333333333a10.666666666666666 10.666666666666666 0 1 1 10.666666666666666 10.666666666666666 10.666666666666666 10.666666666666666 0 0 1 -10.666666666666666 -10.666666666666666Zm37.33333333333333 0a10.666666666666666 10.666666666666666 0 1 1 10.666666666666666 10.666666666666666 10.666666666666666 10.666666666666666 0 0 1 -10.666666666666666 -10.666666666666666Zm48 10.666666666666666a10.666666666666666 10.666666666666666 0 1 1 10.666666666666666 -10.666666666666666 10.666666666666666 10.666666666666666 0 0 1 -10.666666666666666 10.666666666666666Z" fill="#ffffff" stroke-width="10.6667"></path>
  </g>
</svg>