<svg xmlns="http://www.w3.org/2000/svg" id="Phone-Action-Data-Transfer-1--Streamline-Ultimate" width="256" height="256" viewBox="0 0 256 256"><desc>Phone Action Data Transfer 1 Streamline Icon: https://streamlinehq.com</desc><g id="Phone-Action-Data-Transfer-1--Streamline-Ultimate.svg"><path fill="#fff" stroke-width="10.667" d="M128 136v61.33333333333333a10.666666666666666 10.666666666666666 0 0 1 -10.666666666666666 10.666666666666666H42.666666666666664a10.666666666666666 10.666666666666666 0 0 1 -10.666666666666666 -10.666666666666666v-117.33333333333333a10.666666666666666 10.666666666666666 0 0 1 10.666666666666666 -10.666666666666666h56a2.6666666666666665 2.6666666666666665 0 0 0 2.6666666666666665 -2.6666666666666665v-21.333333333333332A2.6666666666666665 2.6666666666666665 0 0 0 98.66666666666666 42.666666666666664H37.33333333333333A26.666666666666664 26.666666666666664 0 0 0 10.666666666666666 69.33333333333333v160A26.666666666666664 26.666666666666664 0 0 0 37.33333333333333 256h85.33333333333333a26.666666666666664 26.666666666666664 0 0 0 26.666666666666664 -26.666666666666664v-93.33333333333333a2.6666666666666665 2.6666666666666665 0 0 0 -2.6666666666666665 -2.6666666666666665h-16a2.6666666666666665 2.6666666666666665 0 0 0 -2.6666666666666665 2.6666666666666665Z"/><path fill="#fff" stroke-width="10.667" d="m148.37333333333333 115.09333333333332 26.666666666666664 -37.33333333333333a5.226666666666667 5.226666666666667 0 0 0 0 -5.546666666666667 5.119999999999999 5.119999999999999 0 0 0 -4.373333333333333 -2.88h-13.333333333333332V13.333333333333332a13.333333333333332 13.333333333333332 0 0 0 -26.666666666666664 0V69.33333333333333H117.33333333333333a5.119999999999999 5.119999999999999 0 0 0 -4.693333333333333 2.88 5.226666666666667 5.226666666666667 0 0 0 0 5.546666666666667l26.666666666666664 37.33333333333333a5.4399999999999995 5.4399999999999995 0 0 0 8.746666666666666 0Z"/><path fill="#fff" stroke-width="10.667" d="m244.37333333333333 39.57333333333333 -26.666666666666664 -37.33333333333333a5.653333333333333 5.653333333333333 0 0 0 -8.746666666666666 0l-26.666666666666664 37.33333333333333a5.226666666666667 5.226666666666667 0 0 0 0 5.546666666666667 5.119999999999999 5.119999999999999 0 0 0 4.693333333333333 2.88h13.333333333333332v56a13.333333333333332 13.333333333333332 0 0 0 26.666666666666664 0V48h13.013333333333332a5.119999999999999 5.119999999999999 0 0 0 4.693333333333333 -2.88 5.226666666666667 5.226666666666667 0 0 0 -0.31999999999999995 -5.546666666666667Z"/></g></svg>