<svg xmlns="http://www.w3.org/2000/svg" viewBox="0 0 256 256" id="Phone-Actions-Refresh--Streamline-Ultimate" height="256" width="256">
  <desc>
    Phone Actions Refresh Streamline Icon: https://streamlinehq.com
  </desc>
  <g id="Phone-Actions-Refresh--Streamline-Ultimate.svg">
    <path d="M183.14666666666668 172.37333333333333a26.88 26.88 0 0 0 -37.76 0l-4.053333333333333 4.16a496.74666666666667 496.74666666666667 0 0 1 -61.76 -61.76l4.053333333333333 -4.16a26.560000000000002 26.560000000000002 0 0 0 0 -37.65333333333333L61.01333333333333 50.346666666666664a27.093333333333334 27.093333333333334 0 0 0 -37.65333333333333 0L10.666666666666666 62.72a37.44 37.44 0 0 0 -4.693333333333333 46.93333333333334 501.3333333333333 501.3333333333333 0 0 0 140.37333333333333 140.26666666666665 37.97333333333333 37.97333333333333 0 0 0 47.04 -4.586666666666666l12.373333333333331 -12.373333333333331a26.666666666666664 26.666666666666664 0 0 0 0 -37.65333333333333Z" fill="#ffffff" stroke-width="10.6667"></path>
    <path d="M252.69333333333333 3.413333333333333a5.4399999999999995 5.4399999999999995 0 0 0 -5.866666666666667 1.0666666666666667L231.14666666666668 20.266666666666666A67.30666666666666 67.30666666666666 0 0 0 182.82666666666665 0a68.05333333333333 68.05333333333333 0 1 0 53.33333333333333 110.39999999999999 10.666666666666666 10.666666666666666 0 0 0 -16.746666666666666 -13.333333333333332 46.29333333333333 46.29333333333333 0 0 1 -36.48 17.599999999999998 46.72 46.72 0 1 1 33.28 -79.46666666666667l-16.85333333333333 16.85333333333333a5.226666666666667 5.226666666666667 0 0 0 -1.1733333333333333 5.866666666666667 5.4399999999999995 5.4399999999999995 0 0 0 4.906666666666666 3.3066666666666666h47.57333333333333a5.4399999999999995 5.4399999999999995 0 0 0 5.333333333333333 -5.333333333333333V8.32a5.226666666666667 5.226666666666667 0 0 0 -3.3066666666666666 -4.906666666666666Z" fill="#ffffff" stroke-width="10.6667"></path>
  </g>
</svg>