<svg xmlns="http://www.w3.org/2000/svg" viewBox="0 0 256 256" id="Phone-Actions-Merge--Streamline-Ultimate" height="256" width="256">
  <desc>
    Phone Actions Merge Streamline Icon: https://streamlinehq.com
  </desc>
  <g id="Phone-Actions-Merge--Streamline-Ultimate.svg">
    <path d="M189.76 171.30666666666664a26.560000000000002 26.560000000000002 0 0 0 -37.65333333333333 0l-4.16 4.053333333333333a496.74666666666667 496.74666666666667 0 0 1 -61.76 -61.76l4.16 -4.053333333333333a26.88 26.88 0 0 0 0 -37.76L67.73333333333332 49.17333333333333a27.41333333333333 27.41333333333333 0 0 0 -37.76 0L17.599999999999998 61.653333333333336a37.33333333333333 37.33333333333333 0 0 0 -4.693333333333333 46.93333333333334 499.62666666666667 499.62666666666667 0 0 0 140.16 140.16 37.76 37.76 0 0 0 46.93333333333334 -4.693333333333333l12.479999999999999 -12.373333333333331a26.77333333333333 26.77333333333333 0 0 0 0 -37.76Z" fill="#ffffff" stroke-width="10.6667"></path>
    <path d="M150.61333333333332 140.16a13.333333333333332 13.333333333333332 0 0 0 9.493333333333332 -3.84l42.666666666666664 -42.666666666666664a13.333333333333332 13.333333333333332 0 0 0 3.84 -9.386666666666667v-32h16.53333333333333a10.666666666666666 10.666666666666666 0 0 0 7.466666666666666 -18.24L200.8533333333333 4.266666666666667a10.666666666666666 10.666666666666666 0 0 0 -15.04 0l-29.866666666666664 29.759999999999998a10.666666666666666 10.666666666666666 0 0 0 -2.2399999999999998 11.626666666666667 10.666666666666666 10.666666666666666 0 0 0 9.813333333333333 6.613333333333333h16.426666666666666v26.346666666666668L141.22666666666666 117.33333333333333a13.333333333333332 13.333333333333332 0 0 0 0 18.88 13.546666666666667 13.546666666666667 0 0 0 9.386666666666667 3.9466666666666663Z" fill="#ffffff" stroke-width="10.6667"></path>
    <path d="m245.33333333333331 117.33333333333333 -15.68 -15.893333333333333a13.333333333333332 13.333333333333332 0 0 0 -19.093333333333334 18.666666666666664l15.893333333333333 16.21333333333333a13.546666666666667 13.546666666666667 0 0 0 18.88 0A13.333333333333332 13.333333333333332 0 0 0 245.33333333333331 117.33333333333333Z" fill="#ffffff" stroke-width="10.6667"></path>
  </g>
</svg>