<svg xmlns="http://www.w3.org/2000/svg" id="Phone-Retro-1--Streamline-Ultimate" width="256" height="256" viewBox="0 0 256 256"><desc>Phone Retro 1 Streamline Icon: https://streamlinehq.com</desc><g id="Phone-Retro-1--Streamline-Ultimate.svg"><path fill="#fff" stroke-width="10.667" d="M104 176a24 24 0 1 0 48 0 24 24 0 1 0 -48 0"/><path fill="#fff" stroke-width="10.667" d="M160 113.49333333333334V96a10.666666666666666 10.666666666666666 0 0 0 -21.333333333333332 0v16h-21.333333333333332V96a10.666666666666666 10.666666666666666 0 0 0 -21.333333333333332 0v17.493333333333332A90.77333333333333 90.77333333333333 0 0 0 21.333333333333332 202.66666666666666v21.333333333333332a16 16 0 0 0 16 16h181.33333333333331A16 16 0 0 0 234.66666666666666 224v-21.333333333333332a90.77333333333333 90.77333333333333 0 0 0 -74.66666666666666 -89.17333333333332Zm-32 22.506666666666664a40 40 0 1 1 -40 40A40 40 0 0 1 128 136Z"/><path fill="#fff" stroke-width="10.667" d="M225.06666666666666 25.813333333333333a483.62666666666667 483.62666666666667 0 0 0 -194.13333333333333 0A39.36 39.36 0 0 0 0 63.04v21.333333333333332a26.666666666666664 26.666666666666664 0 0 0 26.666666666666664 26.666666666666664h32A26.666666666666664 26.666666666666664 0 0 0 85.33333333333333 84.37333333333333V75.73333333333332a2.6666666666666665 2.6666666666666665 0 0 1 2.453333333333333 -2.6666666666666665 482.1333333333333 482.1333333333333 0 0 1 80.42666666666666 0 2.6666666666666665 2.6666666666666665 0 0 1 2.453333333333333 2.6666666666666665v8.64a26.666666666666664 26.666666666666664 0 0 0 26.666666666666664 26.666666666666664h32a26.666666666666664 26.666666666666664 0 0 0 26.666666666666664 -26.666666666666664v-21.333333333333332a39.36 39.36 0 0 0 -30.93333333333333 -37.22666666666667Z"/></g></svg>