<svg xmlns="http://www.w3.org/2000/svg" id="Phone-Action-Location-1--Streamline-Ultimate" width="256" height="256" viewBox="0 0 256 256"><desc>Phone Action Location 1 Streamline Icon: https://streamlinehq.com</desc><g id="Phone-Action-Location-1--Streamline-Ultimate.svg"><path fill="#fff" stroke-width="10.667" d="M157.01333333333332 117.33333333333333v79.78666666666666a10.666666666666666 10.666666666666666 0 0 1 -10.666666666666666 10.666666666666666h-74.66666666666666a10.666666666666666 10.666666666666666 0 0 1 -10.666666666666666 -10.666666666666666v-117.33333333333333a10.666666666666666 10.666666666666666 0 0 1 10.666666666666666 -10.666666666666666h52.693333333333335a2.5599999999999996 2.5599999999999996 0 0 0 2.453333333333333 -1.7066666666666666l8 -21.333333333333332a2.6666666666666665 2.6666666666666665 0 0 0 -2.453333333333333 -3.413333333333333H66.34666666666666a26.666666666666664 26.666666666666664 0 0 0 -26.666666666666664 26.666666666666664v160a26.666666666666664 26.666666666666664 0 0 0 26.666666666666664 26.666666666666664h85.33333333333333a26.666666666666664 26.666666666666664 0 0 0 26.666666666666664 -26.666666666666664V106.66666666666666a2.6666666666666665 2.6666666666666665 0 0 0 -4.16 -2.1333333333333333l-16 10.666666666666666a2.7733333333333334 2.7733333333333334 0 0 0 -1.1733333333333333 2.1333333333333333Z"/><path fill="#fff" stroke-width="10.667" d="M178.02666666666667 3.3066666666666666a5.546666666666667 5.546666666666667 0 0 0 -10.026666666666666 0l-37.97333333333333 101.33333333333333a5.226666666666667 5.226666666666667 0 0 0 1.92 6.186666666666666 5.4399999999999995 5.4399999999999995 0 0 0 6.506666666666666 0l34.56 -28.8 34.56 28.8a5.4399999999999995 5.4399999999999995 0 0 0 6.506666666666666 0 5.226666666666667 5.226666666666667 0 0 0 1.92 -6.186666666666666Z"/></g></svg>