<svg xmlns="http://www.w3.org/2000/svg" id="Phone-Mobile-Device-Iphone-X-2--Streamline-Ultimate" width="256" height="256" viewBox="0 0 256 256"><desc>Phone Mobile Device Iphone X 2 Streamline Icon: https://streamlinehq.com</desc><g id="Phone-Mobile-Device-Iphone-X-2--Streamline-Ultimate.svg"><g><path fill="#fff" stroke-width="10.667" d="M90.66666666666666 37.54666666666667A16 16 0 1 0 106.66666666666666 53.33333333333333a16 16 0 0 0 -16 -15.786666666666665Z"/><path fill="#fff" stroke-width="10.667" d="M133.33333333333331 58.879999999999995A16 16 0 1 0 149.33333333333331 74.66666666666666a16 16 0 0 0 -16 -15.786666666666665Z"/><path fill="#fff" stroke-width="10.667" d="M90.66666666666666 80.21333333333332A16 16 0 1 0 106.66666666666666 96a16 16 0 0 0 -16 -15.786666666666665Z"/></g><path fill="#fff" stroke-width="10.667" d="M187.0933333333333 0H68.90666666666667a32 32 0 0 0 -32 32v192a32 32 0 0 0 32 32h118.18666666666667a32 32 0 0 0 32 -32V32a32 32 0 0 0 -32 -32Zm10.666666666666666 224a10.666666666666666 10.666666666666666 0 0 1 -10.666666666666666 10.666666666666666H68.90666666666667a10.666666666666666 10.666666666666666 0 0 1 -10.666666666666666 -10.666666666666666V32a10.666666666666666 10.666666666666666 0 0 1 10.666666666666666 -10.666666666666666h118.18666666666667a10.666666666666666 10.666666666666666 0 0 1 10.666666666666666 10.666666666666666Z"/></g></svg>