<svg xmlns="http://www.w3.org/2000/svg" id="Photo-Changed-Filter--Streamline-Ultimate" width="256" height="256" viewBox="0 0 256 256"><desc>Photo Changed Filter Streamline Icon: https://streamlinehq.com</desc><g id="Photo-Changed-Filter--Streamline-Ultimate.svg"><g><path fill="#fff" stroke-width="10.667" d="M160 64a96 96 0 0 1 27.839999999999996 4.16A96 96 0 1 0 68.16 187.83999999999997 96 96 0 0 1 160 64Z"/><path fill="#fff" stroke-width="10.667" d="M187.83999999999997 68.16A96 96 0 0 1 68.16 187.83999999999997 96 96 0 1 0 187.83999999999997 68.16Z"/></g><path fill="#fff" stroke-width="10.667" d="M149.33333333333331 157.33333333333331a7.893333333333333 7.893333333333333 0 0 1 -5.653333333333333 -2.3466666666666667l-42.666666666666664 -42.666666666666664a8 8 0 0 1 11.306666666666667 -11.306666666666667l42.666666666666664 42.666666666666664a8 8 0 0 1 0 11.306666666666667 7.893333333333333 7.893333333333333 0 0 1 -5.653333333333333 2.3466666666666667Z"/><path fill="#fff" stroke-width="10.667" d="M170.66666666666666 125.33333333333333a7.893333333333333 7.893333333333333 0 0 1 -5.653333333333333 -2.3466666666666667l-32 -32a8 8 0 0 1 11.306666666666667 -11.306666666666667l32 32a8 8 0 0 1 0 11.306666666666667 7.893333333333333 7.893333333333333 0 0 1 -5.653333333333333 2.3466666666666667Z"/><path fill="#fff" stroke-width="10.667" d="M117.33333333333333 178.66666666666666a7.893333333333333 7.893333333333333 0 0 1 -5.653333333333333 -2.3466666666666667l-32 -32a8 8 0 0 1 11.306666666666667 -11.306666666666667l32 32a8 8 0 0 1 0 11.306666666666667 7.893333333333333 7.893333333333333 0 0 1 -5.653333333333333 2.3466666666666667Z"/></g></svg>