<svg xmlns="http://www.w3.org/2000/svg" viewBox="0 0 256 256" id="Photo-Frame--Streamline-Ultimate" height="256" width="256">
  <desc>
    Photo Frame Streamline Icon: https://streamlinehq.com
  </desc>
  <path d="M245.33333333333331 56A32 32 0 1 0 200 10.666666666666666a32 32 0 0 0 -48 0 32 32 0 0 0 -48 0 32 32 0 0 0 -48 0A32 32 0 1 0 10.666666666666666 56a32 32 0 0 0 0 48 32 32 0 0 0 0 48 32 32 0 0 0 0 48A32 32 0 1 0 56 245.33333333333331a32 32 0 0 0 48 0 32 32 0 0 0 48 0 32 32 0 0 0 48 0A32 32 0 1 0 245.33333333333331 200a32 32 0 0 0 0 -48 32 32 0 0 0 0 -48 32 32 0 0 0 0 -48ZM208 197.33333333333331a10.666666666666666 10.666666666666666 0 0 1 -10.666666666666666 10.666666666666666h-138.66666666666666a10.666666666666666 10.666666666666666 0 0 1 -10.666666666666666 -10.666666666666666v-138.66666666666666a10.666666666666666 10.666666666666666 0 0 1 10.666666666666666 -10.666666666666666h138.66666666666666a10.666666666666666 10.666666666666666 0 0 1 10.666666666666666 10.666666666666666Z" fill="#ffffff" stroke-width="10.6667"></path>
</svg>