<svg xmlns="http://www.w3.org/2000/svg" id="Photography-Equipment-Flash-Light--Streamline-Ultimate" width="256" height="256" viewBox="0 0 256 256"><desc>Photography Equipment Flash Light Streamline Icon: https://streamlinehq.com</desc><g id="Photography-Equipment-Flash-Light--Streamline-Ultimate.svg"><path fill="#fff" stroke-width="10.667" d="M192 133.33333333333331H64a5.333333333333333 5.333333333333333 0 0 0 -5.226666666666667 6.186666666666666l10.666666666666666 64a5.333333333333333 5.333333333333333 0 0 0 5.226666666666667 4.4799999999999995h106.66666666666666a5.333333333333333 5.333333333333333 0 0 0 5.226666666666667 -4.4799999999999995l10.666666666666666 -64a5.333333333333333 5.333333333333333 0 0 0 -5.226666666666667 -6.186666666666666Zm-42.666666666666664 53.33333333333333a16 16 0 1 1 16 -16 16 16 0 0 1 -16 16Z"/><path fill="#fff" stroke-width="10.667" d="M229.33333333333331 26.666666666666664a27.626666666666665 27.626666666666665 0 0 0 -2.5599999999999996 -11.52 3.1999999999999997 3.1999999999999997 0 0 0 -2.0266666666666664 -1.4933333333333334 3.093333333333333 3.093333333333333 0 0 0 -2.3466666666666667 0.7466666666666667l-24.319999999999997 24.319999999999997a3.093333333333333 3.093333333333333 0 0 0 -0.7466666666666667 1.92v36.05333333333333a3.093333333333333 3.093333333333333 0 0 0 0.7466666666666667 1.92l24.319999999999997 24.319999999999997a2.6666666666666665 2.6666666666666665 0 0 0 2.3466666666666667 0.6399999999999999 2.7733333333333334 2.7733333333333334 0 0 0 2.0266666666666664 -1.3866666666666667 27.626666666666665 27.626666666666665 0 0 0 2.5599999999999996 -11.52Z"/><path fill="#fff" stroke-width="10.667" d="M65.38666666666666 31.253333333333334a3.093333333333333 3.093333333333333 0 0 0 1.92 0.7466666666666667h121.38666666666667a3.093333333333333 3.093333333333333 0 0 0 1.92 -0.7466666666666667L214.9333333333333 6.933333333333334a3.093333333333333 3.093333333333333 0 0 0 0.7466666666666667 -2.3466666666666667 3.1999999999999997 3.1999999999999997 0 0 0 -1.4933333333333334 -2.0266666666666664A27.626666666666665 27.626666666666665 0 0 0 202.66666666666666 0H53.33333333333333a27.626666666666665 27.626666666666665 0 0 0 -11.52 2.5599999999999996 3.1999999999999997 3.1999999999999997 0 0 0 -1.4933333333333334 2.0266666666666664 3.093333333333333 3.093333333333333 0 0 0 0.7466666666666667 2.3466666666666667Z"/><path fill="#fff" stroke-width="10.667" d="M57.919999999999995 78.61333333333333a3.093333333333333 3.093333333333333 0 0 0 0.7466666666666667 -1.92V40.64a3.093333333333333 3.093333333333333 0 0 0 -0.7466666666666667 -1.92L33.599999999999994 14.4a3.093333333333333 3.093333333333333 0 0 0 -2.3466666666666667 -0.7466666666666667 3.1999999999999997 3.1999999999999997 0 0 0 -2.0266666666666664 1.4933333333333334A27.626666666666665 27.626666666666665 0 0 0 26.666666666666664 26.666666666666664v64a27.626666666666665 27.626666666666665 0 0 0 2.5599999999999996 11.52 3.1999999999999997 3.1999999999999997 0 0 0 2.0266666666666664 1.4933333333333334 3.093333333333333 3.093333333333333 0 0 0 2.3466666666666667 -0.7466666666666667Z"/><path fill="#fff" stroke-width="10.667" d="M190.61333333333334 86.08a3.093333333333333 3.093333333333333 0 0 0 -1.92 -0.7466666666666667H67.30666666666666a3.093333333333333 3.093333333333333 0 0 0 -1.92 0.7466666666666667l-24.319999999999997 24.319999999999997a3.093333333333333 3.093333333333333 0 0 0 -0.7466666666666667 2.3466666666666667 3.1999999999999997 3.1999999999999997 0 0 0 1.4933333333333334 2.0266666666666664A27.626666666666665 27.626666666666665 0 0 0 53.33333333333333 117.33333333333333h149.33333333333331a26.133333333333333 26.133333333333333 0 0 0 11.52 -2.6666666666666665 2.7733333333333334 2.7733333333333334 0 0 0 1.4933333333333334 -1.92 3.093333333333333 3.093333333333333 0 0 0 -0.7466666666666667 -2.3466666666666667Z"/><path fill="#fff" stroke-width="10.667" d="M149.33333333333331 224h-42.666666666666664a5.333333333333333 5.333333333333333 0 0 0 -5.333333333333333 5.333333333333333v10.666666666666666A16 16 0 0 0 117.33333333333333 256h21.333333333333332a16 16 0 0 0 16 -16v-10.666666666666666a5.333333333333333 5.333333333333333 0 0 0 -5.333333333333333 -5.333333333333333Z"/></g></svg>