<svg xmlns="http://www.w3.org/2000/svg" viewBox="0 0 256 256" id="Photo-Changed-Filter--Streamline-Ultimate" height="256" width="256">
  <desc>
    Photo Changed Filter Streamline Icon: https://streamlinehq.com
  </desc>
  <g id="Photo-Changed-Filter--Streamline-Ultimate.svg">
    <g>
      <path d="M160 64a96 96 0 0 1 27.839999999999996 4.16A96 96 0 1 0 68.16 187.83999999999997 96 96 0 0 1 160 64Z" fill="#ffffff" stroke-width="10.6667"></path>
      <path d="M187.83999999999997 68.16A96 96 0 0 1 68.16 187.83999999999997 96 96 0 1 0 187.83999999999997 68.16Z" fill="#ffffff" stroke-width="10.6667"></path>
    </g>
    <path d="M149.33333333333331 157.33333333333331a7.893333333333333 7.893333333333333 0 0 1 -5.653333333333333 -2.3466666666666667l-42.666666666666664 -42.666666666666664a8 8 0 0 1 11.306666666666667 -11.306666666666667l42.666666666666664 42.666666666666664a8 8 0 0 1 0 11.306666666666667 7.893333333333333 7.893333333333333 0 0 1 -5.653333333333333 2.3466666666666667Z" fill="#ffffff" stroke-width="10.6667"></path>
    <path d="M170.66666666666666 125.33333333333333a7.893333333333333 7.893333333333333 0 0 1 -5.653333333333333 -2.3466666666666667l-32 -32a8 8 0 0 1 11.306666666666667 -11.306666666666667l32 32a8 8 0 0 1 0 11.306666666666667 7.893333333333333 7.893333333333333 0 0 1 -5.653333333333333 2.3466666666666667Z" fill="#ffffff" stroke-width="10.6667"></path>
    <path d="M117.33333333333333 178.66666666666666a7.893333333333333 7.893333333333333 0 0 1 -5.653333333333333 -2.3466666666666667l-32 -32a8 8 0 0 1 11.306666666666667 -11.306666666666667l32 32a8 8 0 0 1 0 11.306666666666667 7.893333333333333 7.893333333333333 0 0 1 -5.653333333333333 2.3466666666666667Z" fill="#ffffff" stroke-width="10.6667"></path>
  </g>
</svg>