<svg xmlns="http://www.w3.org/2000/svg" viewBox="0 0 256 256" id="Picture-Stack-Landscape--Streamline-Ultimate" height="256" width="256">
  <desc>
    Picture Stack Landscape Streamline Icon: https://streamlinehq.com
  </desc>
  <g id="Picture-Stack-Landscape--Streamline-Ultimate.svg">
    <path d="M152.85333333333332 103.46666666666665a9.28 9.28 0 0 0 -18.133333333333333 0L117.33333333333333 140.48a2.88 2.88 0 0 1 -2.1333333333333333 1.4933333333333334 2.5599999999999996 2.5599999999999996 0 0 1 -2.3466666666666667 -0.96l-11.733333333333334 -13.973333333333333a12.373333333333331 12.373333333333331 0 0 0 -21.333333333333332 1.5999999999999999L54.08 172.79999999999998a5.333333333333333 5.333333333333333 0 0 0 4.586666666666666 8.533333333333333h117.33333333333333a5.333333333333333 5.333333333333333 0 0 0 4.906666666666666 -7.359999999999999Z" fill="#ffffff" stroke-width="10.6667"></path>
    <path d="M218.66666666666666 197.33333333333331V21.333333333333332a21.333333333333332 21.333333333333332 0 0 0 -21.333333333333332 -21.333333333333332H21.333333333333332a21.333333333333332 21.333333333333332 0 0 0 -21.333333333333332 21.333333333333332v176a21.333333333333332 21.333333333333332 0 0 0 21.333333333333332 21.333333333333332h176a21.333333333333332 21.333333333333332 0 0 0 21.333333333333332 -21.333333333333332ZM21.333333333333332 26.666666666666664a5.333333333333333 5.333333333333333 0 0 1 5.333333333333333 -5.333333333333333H192a5.333333333333333 5.333333333333333 0 0 1 5.333333333333333 5.333333333333333V192a5.333333333333333 5.333333333333333 0 0 1 -5.333333333333333 5.333333333333333H26.666666666666664A5.333333333333333 5.333333333333333 0 0 1 21.333333333333332 192Z" fill="#ffffff" stroke-width="10.6667"></path>
    <path d="M42.666666666666664 64a21.333333333333332 21.333333333333332 0 1 0 42.666666666666664 0 21.333333333333332 21.333333333333332 0 1 0 -42.666666666666664 0" fill="#ffffff" stroke-width="10.6667"></path>
    <path d="M245.33333333333331 64a10.666666666666666 10.666666666666666 0 0 0 -10.666666666666666 10.666666666666666v154.66666666666666a5.333333333333333 5.333333333333333 0 0 1 -5.333333333333333 5.333333333333333H74.66666666666666a10.666666666666666 10.666666666666666 0 0 0 0 21.333333333333332h160a21.333333333333332 21.333333333333332 0 0 0 21.333333333333332 -21.333333333333332V74.66666666666666a10.666666666666666 10.666666666666666 0 0 0 -10.666666666666666 -10.666666666666666Z" fill="#ffffff" stroke-width="10.6667"></path>
  </g>
</svg>