<svg xmlns="http://www.w3.org/2000/svg" id="Picture-Double-Landscape--Streamline-Ultimate" width="256" height="256" viewBox="0 0 256 256"><desc>Picture Double Landscape Streamline Icon: https://streamlinehq.com</desc><g id="Picture-Double-Landscape--Streamline-Ultimate.svg"><path fill="#fff" stroke-width="10.667" d="M32 144a10.666666666666666 10.666666666666666 0 0 1 -10.666666666666666 -10.666666666666666v-85.33333333333333a10.666666666666666 10.666666666666666 0 0 1 10.666666666666666 -10.666666666666666h133.33333333333331a10.666666666666666 10.666666666666666 0 0 1 10.666666666666666 10.666666666666666v24a2.6666666666666665 2.6666666666666665 0 0 0 2.6666666666666665 2.6666666666666665h16a2.6666666666666665 2.6666666666666665 0 0 0 2.6666666666666665 -2.6666666666666665V48a32 32 0 0 0 -32 -32H32a32 32 0 0 0 -32 32v85.33333333333333a32 32 0 0 0 32 32h2.6666666666666665a2.6666666666666665 2.6666666666666665 0 0 0 2.6666666666666665 -2.6666666666666665v-16a2.6666666666666665 2.6666666666666665 0 0 0 -2.6666666666666665 -2.6666666666666665Z"/><path fill="#fff" stroke-width="10.667" d="M256 122.66666666666666a32 32 0 0 0 -32 -32H85.33333333333333a32 32 0 0 0 -32 32v85.33333333333333a32 32 0 0 0 32 32h138.66666666666666a32 32 0 0 0 32 -32Zm-21.333333333333332 85.33333333333333a10.666666666666666 10.666666666666666 0 0 1 -10.666666666666666 10.666666666666666H85.33333333333333a10.666666666666666 10.666666666666666 0 0 1 -10.666666666666666 -10.666666666666666v-85.33333333333333a10.666666666666666 10.666666666666666 0 0 1 10.666666666666666 -10.666666666666666h138.66666666666666a10.666666666666666 10.666666666666666 0 0 1 10.666666666666666 10.666666666666666Z"/><path fill="#fff" stroke-width="10.667" d="M200 165.22666666666666a9.6 9.6 0 0 0 -16.21333333333333 -1.3866666666666667l-10.666666666666666 14.4a2.6666666666666665 2.6666666666666665 0 0 1 -2.2399999999999998 1.1733333333333333 3.3066666666666666 3.3066666666666666 0 0 1 -2.1333333333333333 -1.1733333333333333l-28.69333333333333 -42.666666666666664a4.8 4.8 0 0 0 -8.106666666666666 0l-32 58.986666666666665a5.333333333333333 5.333333333333333 0 0 0 4.693333333333333 7.893333333333333h105.06666666666666a5.333333333333333 5.333333333333333 0 0 0 4.8 -7.68Z"/></g></svg>