<svg xmlns="http://www.w3.org/2000/svg" viewBox="0 0 256 256" id="Pin-X-Mark-3--Streamline-Ultimate" height="256" width="256">
  <desc>
    Pin X Mark 3 Streamline Icon: https://streamlinehq.com
  </desc>
  <g id="Pin-X-Mark-3--Streamline-Ultimate.svg">
    <path d="M123.94666666666666 200.8533333333333a5.4399999999999995 5.4399999999999995 0 0 0 8.106666666666666 0C134.93333333333334 197.54666666666665 202.66666666666666 118.82666666666667 202.66666666666666 74.66666666666666A74.66666666666666 74.66666666666666 0 0 0 53.33333333333333 74.66666666666666c0 44.16 67.73333333333332 122.88 70.61333333333333 126.18666666666667ZM101.33333333333333 74.66666666666666A26.666666666666664 26.666666666666664 0 1 1 128 101.33333333333333 26.666666666666664 26.666666666666664 0 0 1 101.33333333333333 74.66666666666666Z" fill="#ffffff" stroke-width="10.6667"></path>
    <path d="m200.42666666666665 234.66666666666666 -27.839999999999996 -8.533333333333333a2.6666666666666665 2.6666666666666665 0 0 1 0 -5.119999999999999l27.839999999999996 -8.533333333333333a10.666666666666666 10.666666666666666 0 1 0 -6.186666666666666 -20.479999999999997l-65.49333333333333 20.159999999999997a1.8133333333333335 1.8133333333333335 0 0 1 -1.4933333333333334 0L61.76 192a10.666666666666666 10.666666666666666 0 1 0 -6.186666666666666 21.333333333333332l27.839999999999996 8.533333333333333a2.6666666666666665 2.6666666666666665 0 0 1 0 5.119999999999999L55.57333333333333 234.66666666666666a10.666666666666666 10.666666666666666 0 0 0 3.093333333333333 21.333333333333332 9.813333333333333 9.813333333333333 0 0 0 3.093333333333333 0l65.49333333333333 -20.159999999999997a1.8133333333333335 1.8133333333333335 0 0 1 1.4933333333333334 0L194.24 256a9.813333333333333 9.813333333333333 0 0 0 3.093333333333333 0 10.666666666666666 10.666666666666666 0 0 0 3.093333333333333 -21.333333333333332Z" fill="#ffffff" stroke-width="10.6667"></path>
  </g>
</svg>