<svg xmlns="http://www.w3.org/2000/svg" viewBox="0 0 256 256" id="Pin-2--Streamline-Ultimate" height="256" width="256">
  <desc>
    Pin 2 Streamline Icon: https://streamlinehq.com
  </desc>
  <g id="Pin-2--Streamline-Ultimate.svg">
    <path d="M186.66666666666666 0A69.33333333333333 69.33333333333333 0 1 0 256 69.44 69.44 69.44 0 0 0 186.66666666666666 0Zm-2.453333333333333 35.519999999999996a31.36 31.36 0 0 0 -31.36 31.36 5.333333333333333 5.333333333333333 0 0 1 -5.333333333333333 5.333333333333333 5.4399999999999995 5.4399999999999995 0 0 1 -5.333333333333333 -5.333333333333333 42.666666666666664 42.666666666666664 0 0 1 42.026666666666664 -42.026666666666664 5.333333333333333 5.333333333333333 0 0 1 0 10.666666666666666Z" fill="#ffffff" stroke-width="10.6667"></path>
    <path d="m106.02666666666666 128 -101.33333333333333 101.33333333333333a15.893333333333333 15.893333333333333 0 0 0 0 22.613333333333333 16.426666666666666 16.426666666666666 0 0 0 22.613333333333333 0l101.33333333333333 -101.33333333333333A16 16 0 0 0 106.02666666666666 128Z" fill="#ffffff" stroke-width="10.6667"></path>
  </g>
</svg>