<svg xmlns="http://www.w3.org/2000/svg" viewBox="0 0 256 256" id="Playlist-Songs--Streamline-Ultimate" height="256" width="256">
  <desc>
    Playlist Songs Streamline Icon: https://streamlinehq.com
  </desc>
  <g id="Playlist-Songs--Streamline-Ultimate.svg">
    <path d="M74.66666666666666 32h106.66666666666666a10.666666666666666 10.666666666666666 0 0 0 0 -21.333333333333332H74.66666666666666a10.666666666666666 10.666666666666666 0 0 0 0 21.333333333333332Z" fill="#ffffff" stroke-width="10.6667"></path>
    <path d="M0 21.333333333333332a21.333333333333332 21.333333333333332 0 1 0 42.666666666666664 0 21.333333333333332 21.333333333333332 0 1 0 -42.666666666666664 0" fill="#ffffff" stroke-width="10.6667"></path>
    <path d="M64 85.33333333333333a10.666666666666666 10.666666666666666 0 0 0 10.666666666666666 10.666666666666666h106.66666666666666a10.666666666666666 10.666666666666666 0 0 0 0 -21.333333333333332H74.66666666666666a10.666666666666666 10.666666666666666 0 0 0 -10.666666666666666 10.666666666666666Z" fill="#ffffff" stroke-width="10.6667"></path>
    <path d="M0 85.33333333333333a21.333333333333332 21.333333333333332 0 1 0 42.666666666666664 0 21.333333333333332 21.333333333333332 0 1 0 -42.666666666666664 0" fill="#ffffff" stroke-width="10.6667"></path>
    <path d="M106.66666666666666 138.66666666666666H74.66666666666666a10.666666666666666 10.666666666666666 0 0 0 0 21.333333333333332h32a10.666666666666666 10.666666666666666 0 0 0 0 -21.333333333333332Z" fill="#ffffff" stroke-width="10.6667"></path>
    <path d="M0 149.33333333333331a21.333333333333332 21.333333333333332 0 1 0 42.666666666666664 0 21.333333333333332 21.333333333333332 0 1 0 -42.666666666666664 0" fill="#ffffff" stroke-width="10.6667"></path>
    <path d="M256 208.53333333333333v-72.96a21.333333333333332 21.333333333333332 0 0 0 -25.28 -21.333333333333332l-64 11.946666666666667a21.333333333333332 21.333333333333332 0 0 0 -17.386666666666663 21.333333333333332v52.58666666666666a2.88 2.88 0 0 1 -0.8533333333333333 2.0266666666666664 2.7733333333333334 2.7733333333333334 0 0 1 -2.0266666666666664 0.6399999999999999h-2.453333333333333a27.306666666666665 27.306666666666665 0 0 0 -10.666666666666666 2.2399999999999998 26.666666666666664 26.666666666666664 0 0 0 10.666666666666666 51.093333333333334 25.173333333333332 25.173333333333332 0 0 0 8 -1.2799999999999998A26.560000000000002 26.560000000000002 0 0 0 170.66666666666666 229.86666666666667v-77.97333333333333a5.333333333333333 5.333333333333333 0 0 1 4.373333333333333 -5.226666666666667l53.33333333333333 -9.92a5.333333333333333 5.333333333333333 0 0 1 6.293333333333333 5.226666666666667v36.8a2.88 2.88 0 0 1 -0.8533333333333333 2.0266666666666664 2.7733333333333334 2.7733333333333334 0 0 1 -2.0266666666666664 0.6399999999999999h-2.453333333333333a27.306666666666665 27.306666666666665 0 0 0 -10.666666666666666 2.2399999999999998 26.666666666666664 26.666666666666664 0 0 0 10.666666666666666 51.093333333333334 25.173333333333332 25.173333333333332 0 0 0 8 -1.2799999999999998A26.560000000000002 26.560000000000002 0 0 0 256 208.53333333333333Z" fill="#ffffff" stroke-width="10.6667"></path>
  </g>
</svg>