<svg xmlns="http://www.w3.org/2000/svg" viewBox="0 0 256 256" id="Player-Phone-Station-1--Streamline-Ultimate" height="256" width="256">
  <desc>
    Player Phone Station 1 Streamline Icon: https://streamlinehq.com
  </desc>
  <g id="Player-Phone-Station-1--Streamline-Ultimate.svg">
    <path d="M229.33333333333331 117.33333333333333h-29.333333333333332a2.6666666666666665 2.6666666666666665 0 0 0 -2.6666666666666665 2.6666666666666665v133.33333333333331a2.6666666666666665 2.6666666666666665 0 0 0 2.6666666666666665 2.6666666666666665h29.333333333333332a26.666666666666664 26.666666666666664 0 0 0 26.666666666666664 -26.666666666666664v-85.33333333333333a26.666666666666664 26.666666666666664 0 0 0 -26.666666666666664 -26.666666666666664Zm10.666666666666666 42.666666666666664a16 16 0 1 1 -16 -16 16 16 0 0 1 16 16ZM224 197.33333333333331a16 16 0 1 1 -16 16 16 16 0 0 1 16 -16Z" fill="#ffffff" stroke-width="10.6667"></path>
    <path d="M181.33333333333331 193.06666666666666a2.453333333333333 2.453333333333333 0 0 0 -1.3866666666666667 -2.2399999999999998 2.453333333333333 2.453333333333333 0 0 0 -2.6666666666666665 0 42.666666666666664 42.666666666666664 0 0 1 -22.613333333333333 6.506666666666666h-53.33333333333333a42.666666666666664 42.666666666666664 0 0 1 -22.613333333333333 -6.506666666666666 2.453333333333333 2.453333333333333 0 0 0 -2.6666666666666665 0 2.453333333333333 2.453333333333333 0 0 0 -1.3866666666666667 2.2399999999999998v60.266666666666666a2.6666666666666665 2.6666666666666665 0 0 0 2.6666666666666665 2.6666666666666665h101.33333333333333a2.6666666666666665 2.6666666666666665 0 0 0 2.6666666666666665 -2.6666666666666665Z" fill="#ffffff" stroke-width="10.6667"></path>
    <path d="M58.666666666666664 120a2.6666666666666665 2.6666666666666665 0 0 0 -2.6666666666666665 -2.6666666666666665H26.666666666666664A26.666666666666664 26.666666666666664 0 0 0 0 144v85.33333333333333A26.666666666666664 26.666666666666664 0 0 0 26.666666666666664 256h29.333333333333332a2.6666666666666665 2.6666666666666665 0 0 0 2.6666666666666665 -2.6666666666666665ZM32 176A16 16 0 1 1 48 160 16 16 0 0 1 32 176ZM48 213.33333333333331A16 16 0 1 1 32 197.33333333333331 16 16 0 0 1 48 213.33333333333331Z" fill="#ffffff" stroke-width="10.6667"></path>
    <path d="M181.33333333333331 26.666666666666664A26.666666666666664 26.666666666666664 0 0 0 154.66666666666666 0h-53.33333333333333A26.666666666666664 26.666666666666664 0 0 0 74.66666666666666 26.666666666666664v128A26.666666666666664 26.666666666666664 0 0 0 101.33333333333333 181.33333333333331h53.33333333333333a26.666666666666664 26.666666666666664 0 0 0 26.666666666666664 -26.666666666666664ZM98.66666666666666 138.66666666666666a2.6666666666666665 2.6666666666666665 0 0 1 -2.6666666666666665 -2.6666666666666665v-90.66666666666666A2.6666666666666665 2.6666666666666665 0 0 1 98.66666666666666 42.666666666666664h58.666666666666664a2.6666666666666665 2.6666666666666665 0 0 1 2.6666666666666665 2.6666666666666665v90.66666666666666a2.6666666666666665 2.6666666666666665 0 0 1 -2.6666666666666665 2.6666666666666665Z" fill="#ffffff" stroke-width="10.6667"></path>
  </g>
</svg>