<svg xmlns="http://www.w3.org/2000/svg" id="Playlist-Download--Streamline-Ultimate" width="256" height="256" viewBox="0 0 256 256"><desc>Playlist Download Streamline Icon: https://streamlinehq.com</desc><g id="Playlist-Download--Streamline-Ultimate.svg"><path fill="#fff" stroke-width="10.667" d="M186.66666666666666 117.33333333333333a69.33333333333333 69.33333333333333 0 1 0 69.33333333333333 69.33333333333333 69.44 69.44 0 0 0 -69.33333333333333 -69.33333333333333Zm25.493333333333332 77.97333333333333 -21.333333333333332 26.666666666666664a5.333333333333333 5.333333333333333 0 0 1 -8.32 0l-21.333333333333332 -26.666666666666664a5.333333333333333 5.333333333333333 0 0 1 4.16 -8.64h10.666666666666666a2.6666666666666665 2.6666666666666665 0 0 0 2.6666666666666665 -2.6666666666666665V154.66666666666666a8 8 0 0 1 16 0v29.333333333333332a2.6666666666666665 2.6666666666666665 0 0 0 2.6666666666666665 2.6666666666666665h10.666666666666666a5.333333333333333 5.333333333333333 0 0 1 4.16 8.64Z"/><path fill="#fff" stroke-width="10.667" d="M174.07999999999998 101.65333333333332a2.6666666666666665 2.6666666666666665 0 0 0 2.3466666666666667 -2.6666666666666665V26.666666666666664A26.346666666666668 26.346666666666668 0 0 0 150.39999999999998 0H25.92A26.346666666666668 26.346666666666668 0 0 0 0 26.666666666666664v128A26.346666666666668 26.346666666666668 0 0 0 25.92 181.33333333333331H96a2.5599999999999996 2.5599999999999996 0 0 0 2.5599999999999996 -2.453333333333333 84.47999999999999 84.47999999999999 0 0 1 75.52 -77.22666666666666ZM119.35999999999999 85.33333333333333a10.666666666666666 10.666666666666666 0 0 1 -10.666666666666666 -10.666666666666666A18.986666666666665 18.986666666666665 0 0 0 96 55.78666666666667a2.0266666666666664 2.0266666666666664 0 0 0 -2.6666666666666665 1.92V117.33333333333333a26.24 26.24 0 0 1 -25.92 26.666666666666664 26.666666666666664 26.666666666666664 0 0 1 0 -53.33333333333333h2.3466666666666667a2.7733333333333334 2.7733333333333334 0 0 0 2.0266666666666664 -0.6399999999999999 2.88 2.88 0 0 0 0.8533333333333333 -2.0266666666666664V42.666666666666664a10.666666666666666 10.666666666666666 0 0 1 10.666666666666666 -10.666666666666666c16.21333333333333 0 46.72 8.959999999999999 46.72 42.666666666666664a10.666666666666666 10.666666666666666 0 0 1 -10.666666666666666 10.666666666666666Z"/></g></svg>