<svg xmlns="http://www.w3.org/2000/svg" id="Plus-One-Increment--Streamline-Ultimate" width="256" height="256" fill="none" viewBox="0 0 256 256"><desc>Plus One Increment Streamline Icon: https://streamlinehq.com</desc><path fill="#fff" fill-rule="evenodd" stroke-width="10.667" d="M211.3397333333333 47.92117333333333c0 -5.890986666666667 -4.7754666666666665 -10.666666666666666 -10.666666666666666 -10.666666666666666 -5.890133333333333 0 -10.666666666666666 4.7756799999999995 -10.666666666666666 10.666666666666666v13.346453333333333c0 8.851093333333333 -7.1743999999999994 16.026239999999998 -16.025599999999997 16.026239999999998h-13.346133333333334c-5.8911999999999995 0 -10.666666666666666 4.7756799999999995 -10.666666666666666 10.666666666666666s4.7754666666666665 10.666666666666666 10.666666666666666 10.666666666666666l13.346133333333334 0c5.735466666666666 0 11.169066666666666 -1.2925866666666666 16.025599999999997 -3.6023466666666666v102.38741333333333h-29.372799999999998c-5.890133333333333 0 -10.666666666666666 4.7754666666666665 -10.666666666666666 10.666666666666666 0 5.890133333333333 4.776533333333333 10.666666666666666 10.666666666666666 10.666666666666666h80.07893333333332c5.8911999999999995 0 10.666666666666666 -4.776533333333333 10.666666666666666 -10.666666666666666 0 -5.8911999999999995 -4.7754666666666665 -10.666666666666666 -10.666666666666666 -10.666666666666666h-29.372799999999998V47.92117333333333ZM63.28714666666666 69.33333333333333c5.890986666666667 0 10.666666666666666 4.7756799999999995 10.666666666666666 10.666666666666666v38.401066666666665h37.33365333333333c5.8911999999999995 0 10.666666666666666 4.7754666666666665 10.666666666666666 10.666666666666666s-4.7754666666666665 10.666666666666666 -10.666666666666666 10.666666666666666H73.95381333333333V176c0 5.8911999999999995 -4.7756799999999995 10.666666666666666 -10.666666666666666 10.666666666666666 -5.891093333333332 0 -10.666666666666666 -4.7754666666666665 -10.666666666666666 -10.666666666666666v-36.2656h-37.33333333333333c-5.891071999999999 0 -10.666698666666665 -4.7754666666666665 -10.666698666666665 -10.666666666666666s4.775626666666666 -10.666666666666666 10.666698666666665 -10.666666666666666h37.33333333333333V80c0 -5.890986666666667 4.775573333333333 -10.666666666666666 10.666666666666666 -10.666666666666666Z" clip-rule="evenodd"/></svg>