<svg xmlns="http://www.w3.org/2000/svg" id="Polygon-Lasso--Streamline-Ultimate" width="256" height="256" fill="none" viewBox="0 0 256 256"><desc>Polygon Lasso Streamline Icon: https://streamlinehq.com</desc><path fill="#fff" fill-rule="evenodd" stroke-width="10.667" d="M231.6757333333333 2.4144106666666665c3.9008000000000003 1.7675839999999998 6.366933333333333 5.697418666666666 6.261333333333333 9.979296l-3.5775999999999994 144.88202666666666c-0.11093333333333333 4.500266666666667 -3.0346666666666664 8.445866666666666 -7.306666666666667 9.861333333333333l-94.85653333333332 31.448533333333334c0.07893333333333333 0.8458666666666665 0.11946666666666667 1.7055999999999998 0.11946666666666667 2.578133333333333 0 1.6458666666666666 -0.14506666666666665 3.2458666666666667 -0.4181333333333333 4.795733333333333 7.401599999999999 3.6010666666666666 12.389333333333333 9.367466666666665 15.235199999999999 15.953066666666667 3.6522666666666663 8.446933333333334 3.5328 17.5456 2.1194666666666664 24.180266666666668 -1.2288 5.761066666666666 -6.8949333333333325 9.4368 -12.656 8.209066666666665 -5.762133333333333 -1.2288 -9.4368 -6.8949333333333325 -8.209066666666665 -12.656 0.7456 -3.5008 0.6272 -7.883733333333333 -0.8362666666666666 -11.269333333333332 -1.0410666666666666 -2.4074666666666666 -2.8831999999999995 -4.738133333333333 -6.9856 -6.021333333333333 -0.22506666666666666 0.18133333333333335 -0.45119999999999993 0.35946666666666666 -0.6794666666666667 0.5344 -7.117866666666666 5.451733333333333 -16.488319999999998 8.519466666666666 -26.40512 8.519466666666666 -9.916799999999999 0 -19.287679999999998 -3.0677333333333334 -26.40469333333333 -8.519466666666666 -7.1273599999999995 -5.460266666666667 -12.430079999999998 -13.7536 -12.430079999999998 -23.725866666666665 0 -9.972266666666666 5.30272 -18.266666666666666 12.430079999999998 -23.726933333333335 1.6458666666666666 -1.2608 3.4122666666666666 -2.3935999999999997 5.278079999999999 -3.3909333333333334L19.00725333333333 55.86997333333333c-1.63232 -3.616 -1.1228799999999999 -7.839146666666666 1.3224533333333333 -10.963306666666664 2.4452266666666667 -3.124053333333333 6.4224 -4.63296 10.324586666666665 -3.9170133333333332L155.39413333333331 63.87754666666667l64.65066666666667 -59.59025066666666c3.1488 -2.9029333333333334 7.729066666666666 -3.640469333333333 11.630933333333333 -1.872885333333333ZM213.21813333333333 149.24906666666666l-90.97493333333333 30.161066666666663c-0.7584 -0.6933333333333334 -1.5466666666666664 -1.3514666666666666 -2.357333333333333 -1.9733333333333332 -7.117866666666666 -5.451733333333333 -16.488319999999998 -8.519466666666666 -26.40512 -8.519466666666666l-0.035199999999999995 0 -46.61866666666666 -103.27072L156.78293333333332 85.82176c3.298133333333333 0.60512 6.689066666666666 -0.3757866666666666 9.154133333333332 -2.6484266666666665l50.0512 -46.13450666666666 -2.770133333333333 112.21024ZM80.04970666666667 194.37226666666666c-3.0676266666666665 2.3498666666666663 -4.070399999999999 4.845866666666666 -4.070399999999999 6.7914666666666665 0 1.9445333333333332 1.0027733333333333 4.440533333333333 4.070399999999999 6.7904 3.077866666666666 2.3583999999999996 7.790933333333333 4.1216 13.43104 4.1216s10.353173333333332 -1.7631999999999999 13.431253333333332 -4.1216c3.0677333333333334 -2.3498666666666663 4.070399999999999 -4.845866666666666 4.070399999999999 -6.7904 0 -1.9456 -1.0026666666666666 -4.441599999999999 -4.070399999999999 -6.7914666666666665 -3.07808 -2.3583999999999996 -7.791146666666666 -4.1216 -13.431253333333332 -4.1216s-10.353173333333332 1.7631999999999999 -13.43104 4.1216Z" clip-rule="evenodd"/></svg>