<svg xmlns="http://www.w3.org/2000/svg" fill="none" viewBox="0 0 256 256" id="Power-Outlet-Type-F--Streamline-Ultimate" height="256" width="256">
  <desc>
    Power Outlet Type F Streamline Icon: https://streamlinehq.com
  </desc>
  <path fill="#ffffff" fill-rule="evenodd" d="M0 40C0 17.908586666666665 17.908586666666665 0 40 0h176C238.09173333333334 0 256 17.908586666666665 256 40v176c0 22.09173333333333 -17.908266666666666 40 -40 40H40C17.908586666666665 256 0 238.09173333333334 0 216V40Zm118.96106666666665 -0.30208c-17.817706666666666 1.88256 -35.16106666666666 9.349013333333332 -49.21525333333333 22.39936 -10.46656 9.718933333333332 -16.41376 23.35712 -16.41376 37.640319999999996l0 9.601066666666666h-14.7904v36.666666666666664h14.7904l0 10.267733333333332c0 14.282666666666666 5.9472 27.921066666666665 16.41376 37.64053333333333 14.054613333333332 13.050666666666666 31.3984 20.517333333333333 49.216319999999996 22.398933333333332 -0.27413333333333334 -0.944 -0.4202666666666666 -1.9434666666666667 -0.4202666666666666 -2.976v-26.666666666666664c0 -5.8911999999999995 4.7754666666666665 -10.666666666666666 10.666666666666666 -10.666666666666666s10.666666666666666 4.7754666666666665 10.666666666666666 10.666666666666666v26.666666666666664c0 0.9237333333333333 -0.11733333333333332 1.8197333333333332 -0.3381333333333333 2.6752000000000002 16.934399999999997 -2.293333333333333 33.3184 -9.659733333333332 46.714666666666666 -22.09813333333333 10.466133333333332 -9.719466666666666 16.413866666666664 -23.357866666666666 16.413866666666664 -37.64053333333333v-10.267733333333332h14.7904v-36.666666666666664h-14.7904v-9.601066666666666c0 -14.2832 -5.947733333333333 -27.921386666666667 -16.413866666666664 -37.640319999999996 -13.395199999999999 -12.43872 -29.779199999999996 -19.804693333333333 -46.7136 -22.097920000000002 0.21973333333333334 0.85344 0.3370666666666667 1.7482666666666664 0.3370666666666667 2.670506666666667v26.666666666666664c0 5.890986666666667 -4.7754666666666665 10.666666666666666 -10.666666666666666 10.666666666666666s-10.666666666666666 -4.7756799999999995 -10.666666666666666 -10.666666666666666v-26.666666666666664c0 -1.0314666666666665 0.14613333333333334 -2.0285866666666665 0.4192 -2.9719466666666663ZM74.54165333333333 128c0 -12.5184 10.148266666666666 -22.666666666666664 22.666666666666664 -22.666666666666664 12.518613333333334 0 22.66688 10.148266666666666 22.66688 22.666666666666664s-10.148266666666666 22.666666666666664 -22.66688 22.666666666666664c-12.5184 0 -22.666666666666664 -10.148266666666666 -22.666666666666664 -22.666666666666664Zm86.66687999999999 -22.666666666666664c-12.5184 0 -22.666666666666664 10.148266666666666 -22.666666666666664 22.666666666666664s10.148266666666666 22.666666666666664 22.666666666666664 22.666666666666664 22.666666666666664 -10.148266666666666 22.666666666666664 -22.666666666666664 -10.148266666666666 -22.666666666666664 -22.666666666666664 -22.666666666666664Z" clip-rule="evenodd" stroke-width="10.6667"></path>
</svg>