<svg xmlns="http://www.w3.org/2000/svg" fill="none" viewBox="0 0 256 256" id="Power-Plug-Disconnected--Streamline-Ultimate" height="256" width="256">
  <desc>
    Power Plug Disconnected Streamline Icon: https://streamlinehq.com
  </desc>
  <path fill="#ffffff" fill-rule="evenodd" d="M7.5187306666666665 5.523285333333334c4.1655359999999995 -4.1655999999999995 10.919349333333333 -4.1655999999999995 15.084896 0L72.59029333333334 55.509973333333335c0.7634133333333333 -0.8213333333333332 1.5448533333333332 -1.632 2.3443199999999997 -2.4314666666666667l29.10453333333333 -29.10453333333333c3.1245866666666666 -3.12416 8.189119999999999 -3.12416 11.313386666666666 0l21.9712 21.97077333333333 34.39253333333333 -34.392426666666665c6.248533333333333 -6.248373333333333 16.378666666666668 -6.248373333333333 22.627200000000002 0 6.248533333333333 6.248426666666667 6.248533333333333 16.37909333333333 0 22.62741333333333l-34.39253333333333 34.39253333333333 27.477333333333334 27.477333333333334 34.391466666666666 -34.39178666666666c6.248533333333333 -6.248426666666667 16.379733333333334 -6.248426666666667 22.628266666666665 0 6.248533333333333 6.248426666666667 6.248533333333333 16.378986666666666 0 22.62741333333333L210.05546666666663 118.67733333333332l22.385066666666663 22.385066666666663c3.1242666666666663 3.1231999999999998 3.1242666666666663 8.1888 0 11.313066666666666l-29.104 29.105066666666666c-0.7999999999999999 0.7989333333333333 -1.6106666666666665 1.5808 -2.432 2.3434666666666666l49.572266666666664 49.572266666666664c4.165333333333333 4.165333333333333 4.165333333333333 10.919466666666667 0 15.084799999999998 -4.165333333333333 4.165333333333333 -10.919466666666667 4.165333333333333 -15.084799999999998 0l-30.493866666666666 -30.492799999999995c-0.2112 -0.27626666666666666 -0.4437333333333333 -0.5408 -0.6954666666666666 -0.7935999999999999L22.497386666666664 35.489599999999996c-0.2525866666666666 -0.25248 -0.51776 -0.4845866666666666 -0.7935999999999999 -0.69632L7.5187306666666665 20.60821333333333C3.353130666666667 16.442666666666668 3.353130666666667 9.688874666666667 7.5187306666666665 5.523285333333334ZM52.97205333333333 88.59178666666665c-8.84352 26.630613333333333 -5.019306666666666 56.546346666666665 11.47264 80.33727999999999L7.086026666666666 226.28693333333334c-6.248384 6.248533333333333 -6.248385066666666 16.379733333333334 0 22.627200000000002 6.248373333333333 6.248533333333333 16.37904 6.248533333333333 22.627466666666667 0l57.28501333333333 -57.28426666666667c23.868693333333333 16.778666666666666 54.01162666666666 20.7168 80.82442666666665 11.813333333333333L52.97205333333333 88.59178666666665Z" clip-rule="evenodd" stroke-width="10.6667"></path>
</svg>