<svg xmlns="http://www.w3.org/2000/svg" id="Power-Button--Streamline-Ultimate" width="256" height="256" viewBox="0 0 256 256"><desc>Power Button Streamline Icon: https://streamlinehq.com</desc><g id="Power-Button--Streamline-Ultimate.svg"><path fill="#fff" stroke-width="10.667" d="M112 116.47999999999999a16 16 0 1 0 32 0V16a16 16 0 0 0 -32 0Z"/><path fill="#fff" stroke-width="10.667" d="M12.799999999999999 122.98666666666665a116.47999999999999 116.47999999999999 0 0 0 197.54666666666665 98.98666666666665 115.52 115.52 0 0 0 32.85333333333333 -98.98666666666665 117.33333333333333 117.33333333333333 0 0 0 -61.120000000000005 -86.72A16 16 0 1 0 166.72 64a85.33333333333333 85.33333333333333 0 0 1 44.8 64 83.62666666666667 83.62666666666667 0 0 1 -23.786666666666665 71.78666666666666 84.47999999999999 84.47999999999999 0 0 1 -119.46666666666665 0A83.52 83.52 0 0 1 44.48 128a85.33333333333333 85.33333333333333 0 0 1 44.693333333333335 -64 16 16 0 0 0 -15.36 -27.733333333333334 117.33333333333333 117.33333333333333 0 0 0 -61.01333333333333 86.72Z"/></g></svg>