<svg xmlns="http://www.w3.org/2000/svg" fill="none" viewBox="0 0 256 256" id="Power-Outlet-Type-B--Streamline-Ultimate" height="256" width="256">
  <desc>
    Power Outlet Type B Streamline Icon: https://streamlinehq.com
  </desc>
  <path fill="#ffffff" fill-rule="evenodd" d="M40 0C17.908586666666665 0 0 17.908586666666665 0 40v176C0 238.09173333333334 17.908586666666665 256 40 256h176c22.09173333333333 0 40 -17.908266666666666 40 -40V40C256 17.908586666666665 238.09173333333334 0 216 0H40Zm29.242346666666666 61.42432C71.008 59.65866666666666 73.40288 58.666666666666664 75.89994666666666 58.666666666666664h104.20031999999999c2.4970666666666665 0 4.891733333333333 0.992 6.657066666666666 2.757653333333333 36.76906666666666 36.768746666666665 36.76906666666666 96.38261333333332 0 133.15168 -1.7653333333333334 1.7653333333333334 -4.16 2.7573333333333334 -6.657066666666666 2.7573333333333334H75.89994666666666c-2.4970666666666665 0 -4.891946666666667 -0.992 -6.6575999999999995 -2.7573333333333334 -36.768746666666665 -36.76906666666666 -36.768746666666665 -96.38293333333333 0 -133.15168ZM98.66666666666666 76.66666666666666c5.891093333333332 0 10.666666666666666 4.7756799999999995 10.666666666666666 10.666666666666666v21.333333333333332c0 5.8911999999999995 -4.775573333333333 10.666666666666666 -10.666666666666666 10.666666666666666s-10.666666666666666 -4.7754666666666665 -10.666666666666666 -10.666666666666666v-21.333333333333332c0 -5.890986666666667 4.775573333333333 -10.666666666666666 10.666666666666666 -10.666666666666666Zm69.33333333333333 10.666666666666666c0 -5.890986666666667 -4.7754666666666665 -10.666666666666666 -10.666666666666666 -10.666666666666666s-10.666666666666666 4.7756799999999995 -10.666666666666666 10.666666666666666v21.333333333333332c0 5.8911999999999995 4.7754666666666665 10.666666666666666 10.666666666666666 10.666666666666666s10.666666666666666 -4.7754666666666665 10.666666666666666 -10.666666666666666v-21.333333333333332ZM128 131.33333333333331c13.254399999999999 0 24 10.7456 24 24v16c0 1.4730666666666665 -1.1936 2.6666666666666665 -2.6666666666666665 2.6666666666666665h-42.666666666666664c-1.4727466666666666 0 -2.6666666666666665 -1.1936 -2.6666666666666665 -2.6666666666666665v-16c0 -13.254399999999999 10.7456 -24 24 -24Z" clip-rule="evenodd" stroke-width="10.6667"></path>
</svg>