<svg xmlns="http://www.w3.org/2000/svg" id="Power-Outlet-Type-J--Streamline-Ultimate" width="256" height="256" fill="none" viewBox="0 0 256 256"><desc>Power Outlet Type J Streamline Icon: https://streamlinehq.com</desc><path fill="#fff" fill-rule="evenodd" stroke-width="10.667" d="M40 0C17.908586666666665 0 0 17.908586666666665 0 40v176C0 238.09173333333334 17.908586666666665 256 40 256h176c22.09173333333333 0 40 -17.908266666666666 40 -40V40C256 17.908586666666665 238.09173333333334 0 216 0H40Zm30.93333333333333 72.53333333333333c4.028906666666666 -5.37184 10.351893333333333 -8.533333333333333 17.066666666666666 -8.533333333333333h80c6.714666666666666 0 13.037866666666666 3.161493333333333 17.066666666666666 8.533333333333333l36.8 49.06666666666666c2.8447999999999998 3.793066666666667 2.8447999999999998 9.006933333333333 0 12.799999999999999l-36.8 49.06666666666666c-4.0287999999999995 5.371733333333333 -10.352 8.533333333333333 -17.066666666666666 8.533333333333333h-80c-6.7147733333333335 0 -13.03776 -3.1616 -17.066666666666666 -8.533333333333333L34.13333333333333 134.39999999999998c-2.84448 -3.793066666666667 -2.84448 -9.006933333333333 0 -12.799999999999999l36.8 -49.06666666666666Zm-2.9333333333333336 55.46453333333333c0 -8.8352 7.162346666666666 -15.997866666666667 15.99744 -15.997866666666667 8.82208 0 16.00256 7.1488 16.00256 15.997866666666667 0 8.847999999999999 -7.18048 15.9968 -16.00256 15.9968 -8.835093333333333 0 -15.99744 -7.1616 -15.99744 -15.9968Zm59.99786666666666 7.335466666666666c-8.8352 0 -15.997866666666667 7.1626666666666665 -15.997866666666667 15.997866666666667s7.1626666666666665 15.9968 15.997866666666667 15.9968c8.821333333333332 0 16.002133333333333 -7.1488 16.002133333333333 -15.9968 0 -8.849066666666666 -7.1808 -15.997866666666667 -16.002133333333333 -15.997866666666667Zm28.002133333333333 -7.335466666666666c0 -8.8352 7.1626666666666665 -15.997866666666667 15.997866666666667 -15.997866666666667 8.821333333333332 0 16.002133333333333 7.1488 16.002133333333333 15.997866666666667 0 8.847999999999999 -7.1808 15.9968 -16.002133333333333 15.9968 -8.8352 0 -15.997866666666667 -7.1616 -15.997866666666667 -15.9968Z" clip-rule="evenodd"/></svg>