<svg xmlns="http://www.w3.org/2000/svg" viewBox="0 0 256 256" id="Pregnancy-Sperm-1--Streamline-Ultimate" height="256" width="256">
  <desc>
    Pregnancy Sperm 1 Streamline Icon: https://streamlinehq.com
  </desc>
  <g id="Pregnancy-Sperm-1--Streamline-Ultimate.svg">
    <path d="M202.66666666666666 13.44c-30.72 0 -50.986666666666665 12.159999999999998 -59.413333333333334 24.746666666666663a2.88 2.88 0 0 1 -3.413333333333333 0.96 12.159999999999998 12.159999999999998 0 0 1 -4.266666666666667 -3.52 32 32 0 0 0 -54.72 3.52L74.66666666666666 49.919999999999995a10.666666666666666 10.666666666666666 0 0 1 -17.599999999999998 1.8133333333333335 32 32 0 0 0 -24.426666666666666 -11.52H10.666666666666666a10.666666666666666 10.666666666666666 0 0 0 0 21.333333333333332h21.973333333333333a10.666666666666666 10.666666666666666 0 0 1 8.213333333333333 3.84 32 32 0 0 0 53.33333333333333 -5.333333333333333l5.76 -10.666666666666666a10.666666666666666 10.666666666666666 0 0 1 18.666666666666664 -1.2799999999999998 32 32 0 0 0 22.29333333333333 13.12 2.88 2.88 0 0 1 2.0266666666666664 1.1733333333333333c7.573333333333332 12.799999999999999 27.733333333333334 25.706666666666667 59.73333333333333 25.706666666666667 26.560000000000002 0 53.33333333333333 -12.799999999999999 53.33333333333333 -37.33333333333333s-27.52 -37.33333333333333 -53.33333333333333 -37.33333333333333Z" fill="#ffffff" stroke-width="10.6667"></path>
    <path d="M165.76 109.54666666666665a54.08 54.08 0 0 0 -35.306666666666665 11.306666666666667 2.453333333333333 2.453333333333333 0 0 1 -3.413333333333333 0 32 32 0 0 0 -25.493333333333332 -7.1466666666666665c-22.506666666666664 3.733333333333333 -20.37333333333333 21.973333333333333 -31.04 23.786666666666665a10.666666666666666 10.666666666666666 0 0 1 -8.853333333333332 -2.88 31.36 31.36 0 0 0 -22.29333333333333 -9.28H26.666666666666664a10.666666666666666 10.666666666666666 0 0 0 0 21.333333333333332h12.693333333333332a10.666666666666666 10.666666666666666 0 0 1 7.253333333333334 2.986666666666667 31.36 31.36 0 0 0 22.29333333333333 9.28c26.133333333333333 0 25.599999999999998 -22.4 36.05333333333333 -24.106666666666662a9.6 9.6 0 0 1 8.64 2.7733333333333334 30.506666666666664 30.506666666666664 0 0 0 10.666666666666666 6.72 2.88 2.88 0 0 1 1.2799999999999998 0.96 48.213333333333324 48.213333333333324 0 0 0 40.64 17.173333333333332c18.346666666666664 0 36.906666666666666 -9.066666666666666 36.906666666666666 -26.453333333333333s-19.413333333333334 -26.453333333333333 -37.33333333333333 -26.453333333333333Z" fill="#ffffff" stroke-width="10.6667"></path>
    <path d="M144.42666666666665 189.76a53.86666666666666 53.86666666666666 0 0 0 -35.306666666666665 11.413333333333334 2.5599999999999996 2.5599999999999996 0 0 1 -3.413333333333333 0 30.72 30.72 0 0 0 -25.493333333333332 -7.253333333333334c-22.613333333333333 3.733333333333333 -20.37333333333333 21.973333333333333 -31.04 23.68a10.666666666666666 10.666666666666666 0 0 1 -8.853333333333332 -2.88 32 32 0 0 0 -22.29333333333333 -9.173333333333332H10.666666666666666a10.666666666666666 10.666666666666666 0 0 0 0 21.333333333333332h7.359999999999999a10.666666666666666 10.666666666666666 0 0 1 7.253333333333334 2.986666666666667 31.36 31.36 0 0 0 22.29333333333333 9.28c26.24 0 25.599999999999998 -22.506666666666664 36.05333333333333 -24.21333333333333a9.92 9.92 0 0 1 8.64 2.7733333333333334 32 32 0 0 0 10.666666666666666 6.826666666666666 2.3466666666666667 2.3466666666666667 0 0 1 1.2799999999999998 0.96 48.213333333333324 48.213333333333324 0 0 0 40.64 17.066666666666666c18.346666666666664 0 36.906666666666666 -9.066666666666666 36.906666666666666 -26.346666666666668s-19.413333333333334 -26.453333333333333 -37.33333333333333 -26.453333333333333Z" fill="#ffffff" stroke-width="10.6667"></path>
  </g>
</svg>