<svg xmlns="http://www.w3.org/2000/svg" id="Pregnancy-Pregnant--Streamline-Ultimate" width="256" height="256" viewBox="0 0 256 256"><desc>Pregnancy Pregnant Streamline Icon: https://streamlinehq.com</desc><path fill="#fff" stroke-width="10.667" d="M203.94666666666666 106.66666666666666a147.0933333333333 147.0933333333333 0 0 1 -107.30666666666667 73.70666666666666h-1.2799999999999998l-3.52 0a35.626666666666665 35.626666666666665 0 0 1 -4.693333333333333 -70.93333333333334c31.04 -4.16 50.02666666666667 -32 60.373333333333335 -53.97333333333333a8 8 0 1 1 14.506666666666668 6.72C149.97333333333333 88.42666666666665 128 120.53333333333333 89.27999999999999 125.65333333333332a19.626666666666665 19.626666666666665 0 0 0 4.4799999999999995 38.93333333333333C186.02666666666667 152.2133333333333 215.04 52.05333333333333 224 8H53.86666666666666a55.14666666666666 55.14666666666666 0 0 0 -10.666666666666666 10.666666666666666c-9.493333333333332 16 6.186666666666666 37.22666666666667 26.77333333333333 44.8a85.33333333333333 85.33333333333333 0 0 0 8.106666666666666 154.13333333333333v30.29333333333333h150.72c0 -64 -21.333333333333332 -70.61333333333333 -25.813333333333333 -112.74666666666667a120.53333333333333 120.53333333333333 0 0 1 0.96 -28.479999999999997Z"/></svg>