<svg xmlns="http://www.w3.org/2000/svg" viewBox="0 0 256 256" id="Pregnancy-Vagina--Streamline-Ultimate" height="256" width="256">
  <desc>
    Pregnancy Vagina Streamline Icon: https://streamlinehq.com
  </desc>
  <path d="M238.82666666666665 204.69333333333333c0 -68.16 -51.199999999999996 -76.69333333333333 -51.199999999999996 -136.32 0 -51.093333333333334 17.066666666666666 -68.16 17.066666666666666 -68.16H51.30666666666666s17.066666666666666 17.066666666666666 17.066666666666666 68.16c0 59.626666666666665 -51.093333333333334 68.16 -51.093333333333334 136.32A74.66666666666666 74.66666666666666 0 0 0 34.239999999999995 256h85.33333333333333v-34.239999999999995l0 -0.5333333333333333 -32.10666666666666 -34.13333333333333a26.986666666666665 26.986666666666665 0 0 1 31.253333333333334 -42.666666666666664 25.599999999999998 25.599999999999998 0 0 1 7.04 5.013333333333333l2.2399999999999998 2.2399999999999998 2.2399999999999998 -2.2399999999999998a27.093333333333334 27.093333333333334 0 0 1 38.29333333333333 38.29333333333333l-32.64 34.026666666666664 0 0.5333333333333333V256h85.33333333333333a74.66666666666666 74.66666666666666 0 0 0 17.599999999999998 -51.30666666666666Z" fill="#ffffff" stroke-width="10.6667"></path>
</svg>