<svg xmlns="http://www.w3.org/2000/svg" id="Presentation-Microphone-1--Streamline-Ultimate" width="256" height="256" viewBox="0 0 256 256"><desc>Presentation Microphone 1 Streamline Icon: https://streamlinehq.com</desc><g id="Presentation-Microphone-1--Streamline-Ultimate.svg"><path fill="#fff" stroke-width="10.667" d="M162.66666666666666 50.666666666666664a2.6666666666666665 2.6666666666666665 0 0 0 2.6666666666666665 -2.6666666666666665v-10.666666666666666a37.33333333333333 37.33333333333333 0 0 0 -74.66666666666666 0v10.666666666666666a2.6666666666666665 2.6666666666666665 0 0 0 2.6666666666666665 2.6666666666666665Z"/><path fill="#fff" stroke-width="10.667" d="M239.78666666666666 50.02666666666667a2.5599999999999996 2.5599999999999996 0 0 1 0 -2.3466666666666667 16.106666666666666 16.106666666666666 0 0 0 -3.84 -16.32l-8.533333333333333 -8.426666666666666a19.52 19.52 0 0 0 -28.8 0 19.52 19.52 0 0 0 0 28.8l8.426666666666666 8.533333333333333a15.893333333333333 15.893333333333333 0 0 0 11.306666666666667 4.586666666666666 16.53333333333333 16.53333333333333 0 0 0 3.3066666666666666 0 2.6666666666666665 2.6666666666666665 0 0 1 3.093333333333333 1.7066666666666666 22.826666666666668 22.826666666666668 0 0 1 -3.3066666666666666 22.186666666666667l-28.373333333333335 27.839999999999996a3.093333333333333 3.093333333333333 0 0 1 -1.92 0.7466666666666667H138.66666666666666a2.6666666666666665 2.6666666666666665 0 0 1 -2.6666666666666665 -2.6666666666666665V97.17333333333332a2.6666666666666665 2.6666666666666665 0 0 1 1.92 -2.5599999999999996A37.44 37.44 0 0 0 164.90666666666667 64a2.5599999999999996 2.5599999999999996 0 0 0 -0.6399999999999999 -2.1333333333333333 2.6666666666666665 2.6666666666666665 0 0 0 -2.0266666666666664 -0.96H93.75999999999999a2.6666666666666665 2.6666666666666665 0 0 0 -2.0266666666666664 0.96 2.5599999999999996 2.5599999999999996 0 0 0 -0.6399999999999999 2.1333333333333333 37.44 37.44 0 0 0 26.986666666666665 30.186666666666667 2.7733333333333334 2.7733333333333334 0 0 1 1.92 2.5599999999999996v17.493333333333332A2.6666666666666665 2.6666666666666665 0 0 1 117.33333333333333 117.33333333333333H64.85333333333332a3.093333333333333 3.093333333333333 0 0 1 -1.92 -0.7466666666666667L34.879999999999995 88.42666666666665A22.826666666666668 22.826666666666668 0 0 1 32 66.24a2.6666666666666665 2.6666666666666665 0 0 1 3.093333333333333 -1.7066666666666666 16.53333333333333 16.53333333333333 0 0 0 3.3066666666666666 0 15.893333333333333 15.893333333333333 0 0 0 11.306666666666667 -4.586666666666666l8.426666666666666 -8.533333333333333a19.52 19.52 0 0 0 0 -28.8 19.52 19.52 0 0 0 -28.8 0l-8.533333333333333 8.426666666666666a16.106666666666666 16.106666666666666 0 0 0 -3.84 16.32 2.5599999999999996 2.5599999999999996 0 0 1 0 2.3466666666666667 44.266666666666666 44.266666666666666 0 0 0 3.52 53.33333333333333L32 115.73333333333332a3.093333333333333 3.093333333333333 0 0 1 0.7466666666666667 2.3466666666666667 2.7733333333333334 2.7733333333333334 0 0 1 -1.3866666666666667 1.92 20.159999999999997 20.159999999999997 0 0 0 -8.533333333333333 8.106666666666666 22.186666666666667 22.186666666666667 0 0 0 0.96 22.613333333333333l21.333333333333332 34.986666666666665A37.013333333333335 37.013333333333335 0 0 0 74.66666666666666 202.66666666666666h24a2.6666666666666665 2.6666666666666665 0 0 1 2.6666666666666665 2.6666666666666665v45.33333333333333a5.333333333333333 5.333333333333333 0 0 0 5.333333333333333 5.333333333333333h42.666666666666664a5.333333333333333 5.333333333333333 0 0 0 5.333333333333333 -5.333333333333333v-45.33333333333333a2.6666666666666665 2.6666666666666665 0 0 1 2.6666666666666665 -2.6666666666666665H181.33333333333331a37.013333333333335 37.013333333333335 0 0 0 29.866666666666664 -16.96l21.333333333333332 -34.986666666666665a22.186666666666667 22.186666666666667 0 0 0 0.6399999999999999 -22.72 20.159999999999997 20.159999999999997 0 0 0 -8.533333333333333 -8.106666666666666 2.7733333333333334 2.7733333333333334 0 0 1 -1.3866666666666667 -1.92 3.093333333333333 3.093333333333333 0 0 1 0.7466666666666667 -2.3466666666666667l12.266666666666666 -12.159999999999998a44.266666666666666 44.266666666666666 0 0 0 3.52 -53.44Z"/></g></svg>