<svg xmlns="http://www.w3.org/2000/svg" id="Presentation-Audience--Streamline-Ultimate" width="256" height="256" viewBox="0 0 256 256"><desc>Presentation Audience Streamline Icon: https://streamlinehq.com</desc><g id="Presentation-Audience--Streamline-Ultimate.svg"><path fill="#fff" stroke-width="10.667" d="M98.56 195.73333333333335a30.4 30.4 0 1 0 30.4 -30.4 30.4 30.4 0 0 0 -30.4 30.4Z"/><path fill="#fff" stroke-width="10.667" d="M50.02666666666667 226.13333333333333a30.4 30.4 0 1 0 -30.4 -30.4 30.4 30.4 0 0 0 30.4 30.4Z"/><path fill="#fff" stroke-width="10.667" d="M175.57333333333332 195.73333333333335a30.4 30.4 0 1 0 30.4 -30.4 30.506666666666664 30.506666666666664 0 0 0 -30.4 30.4Z"/><path fill="#fff" stroke-width="10.667" d="M249.49333333333334 247.36a54.93333333333334 54.93333333333334 0 0 0 -42.666666666666664 -20.586666666666666 55.14666666666666 55.14666666666666 0 0 0 -37.12 14.293333333333333 2.5599999999999996 2.5599999999999996 0 0 1 -3.52 0 57.06666666666666 57.06666666666666 0 0 0 -75.52 0 2.5599999999999996 2.5599999999999996 0 0 1 -3.52 0 55.14666666666666 55.14666666666666 0 0 0 -37.12 -14.293333333333333 54.93333333333334 54.93333333333334 0 0 0 -42.666666666666664 20.586666666666666 5.4399999999999995 5.4399999999999995 0 0 0 -0.6399999999999999 5.653333333333333A5.333333333333333 5.333333333333333 0 0 0 10.666666666666666 256h234.66666666666666a5.333333333333333 5.333333333333333 0 0 0 4.8 -2.986666666666667 5.4399999999999995 5.4399999999999995 0 0 0 -0.6399999999999999 -5.653333333333333Z"/><path fill="#fff" stroke-width="10.667" d="M92.16 101.33333333333333h71.78666666666666a5.4399999999999995 5.4399999999999995 0 0 0 4.266666666666667 -2.1333333333333333 5.653333333333333 5.653333333333333 0 0 0 0.8533333333333333 -4.693333333333333 42.666666666666664 42.666666666666664 0 0 0 -26.986666666666665 -28.266666666666666 34.666666666666664 34.666666666666664 0 1 0 -27.946666666666665 0 43.199999999999996 43.199999999999996 0 0 0 -27.093333333333334 28.266666666666666 5.653333333333333 5.653333333333333 0 0 0 0.8533333333333333 4.693333333333333 5.4399999999999995 5.4399999999999995 0 0 0 4.266666666666667 2.1333333333333333Z"/><path fill="#fff" stroke-width="10.667" d="M53.33333333333333 128a10.666666666666666 10.666666666666666 0 0 0 10.666666666666666 10.666666666666666h5.119999999999999a2.6666666666666665 2.6666666666666665 0 0 1 2.5599999999999996 2.1333333333333333L74.66666666666666 156.79999999999998a10.666666666666666 10.666666666666666 0 0 0 21.333333333333332 -4.266666666666667l-2.1333333333333333 -10.666666666666666a2.453333333333333 2.453333333333333 0 0 1 0.5333333333333333 -2.2399999999999998A2.6666666666666665 2.6666666666666665 0 0 1 96 138.66666666666666h64a2.6666666666666665 2.6666666666666665 0 0 1 2.0266666666666664 0.96 2.453333333333333 2.453333333333333 0 0 1 0.5333333333333333 2.2399999999999998l-2.1333333333333333 10.666666666666666a10.666666666666666 10.666666666666666 0 0 0 21.333333333333332 4.266666666666667l3.1999999999999997 -16a2.6666666666666665 2.6666666666666665 0 0 1 2.5599999999999996 -2.1333333333333333H192a10.666666666666666 10.666666666666666 0 0 0 0 -21.333333333333332H64a10.666666666666666 10.666666666666666 0 0 0 -10.666666666666666 10.666666666666666Z"/></g></svg>