<svg xmlns="http://www.w3.org/2000/svg" id="Presentation-Projector-Screen-Budget-Analytics--Streamline-Ultimate" width="256" height="256" viewBox="0 0 256 256"><desc>Presentation Projector Screen Budget Analytics Streamline Icon: https://streamlinehq.com</desc><g id="Presentation-Projector-Screen-Budget-Analytics--Streamline-Ultimate.svg"><path fill="#fff" stroke-width="10.667" d="M253.44 21.361066666666666c0 -8.619733333333333 -6.9887999999999995 -15.608533333333334 -15.6096 -15.608533333333334H19.300266666666666C7.284266666666666 4.9109333333333325 -1.136 17.393066666666666 4.144 28.21973333333333c2.450133333333333 5.025066666666667 7.3952 8.360533333333333 12.971733333333333 8.750933333333332 1.2501333333333333 0.24426666666666666 2.16 1.3279999999999998 2.1845333333333334 2.6016v150.88959999999997c0.025599999999999998 1.2554666666666665 -0.8501333333333332 2.3509333333333333 -2.0810666666666666 2.6016 -8.010666666666665 0.8010666666666666 -12.1504 9.973333333333333 -7.450666666666667 16.510933333333334 2.1802666666666664 3.0336 5.8144 4.673066666666666 9.531733333333332 4.301866666666666h98.85973333333334c1.4367999999999999 0 2.6016 1.1648 2.6016 2.6016v3.2256c0.0096 0.8746666666666667 -0.4202666666666666 1.6949333333333334 -1.1456 2.1856 -9.844266666666666 6.888533333333333 -8.539733333333333 21.851733333333332 2.3487999999999998 26.93333333333333 10.888533333333331 5.0816 23.194666666666667 -3.5296000000000003 22.151466666666668 -15.5008 -0.4010666666666667 -4.599466666666666 -2.818133333333333 -8.786133333333332 -6.6015999999999995 -11.432533333333334 -0.7242666666666666 -0.49066666666666664 -1.1541333333333332 -1.3109333333333333 -1.1445333333333334 -2.1856v-3.2256c0 -1.4367999999999999 1.1648 -2.6016 2.6016 -2.6016h98.85866666666666c8.010666666666665 0.8010666666666666 13.8848 -7.370666666666666 10.573866666666666 -14.708266666666667 -1.5370666666666666 -3.4058666666666664 -4.7744 -5.732266666666666 -8.491733333333332 -6.104533333333333 -1.2309333333333332 -0.25066666666666665 -2.1066666666666665 -1.3461333333333334 -2.082133333333333 -2.6016V39.364266666666666c0.025599999999999998 -1.2736 0.9354666666666667 -2.357333333333333 2.1856 -2.6016 7.68 -1.0858666666666665 13.397333333333332 -7.645866666666667 13.424 -15.401599999999998Zm-36.42133333333333 169.1008c0 1.4367999999999999 -1.1648 2.6016 -2.6016 2.6016H42.714666666666666c-1.4367999999999999 0 -2.6016 -1.1648 -2.6016 -2.6016V39.572266666666664c0 -1.4367999999999999 1.1648 -2.6016 2.6016 -2.6016h171.7024c1.4367999999999999 0 2.6016 1.1648 2.6016 2.6016Z"/><path fill="#fff" stroke-width="10.667" d="M94.7456 172.25066666666663c0.05653333333333333 4.286933333333333 3.5178666666666665 7.749333333333333 7.8048 7.8048h98.85866666666666c6.007466666666667 -0.022399999999999996 9.738666666666667 -6.5397333333333325 6.7157333333333336 -11.731200000000001 -1.3930666666666665 -2.392533333333333 -3.947733333333333 -3.867733333333333 -6.7157333333333336 -3.877333333333333h-7.8048c-1.4367999999999999 0 -2.6016 -1.1648 -2.6016 -2.6016v-46.8288c0 -5.747199999999999 -4.6592 -10.405333333333333 -10.4064 -10.405333333333333h-10.4064c-5.747199999999999 0 -10.405333333333333 4.658133333333333 -10.405333333333333 10.405333333333333v46.8288c0 1.4367999999999999 -1.1648 2.6016 -2.6016 2.6016h-10.4064c-1.4367999999999999 0 -2.6016 -1.1648 -2.6016 -2.6016v-15.6096c0 -5.747199999999999 -4.6592 -10.4064 -10.4064 -10.4064h-10.4064c-5.747199999999999 0 -10.4064 4.6592 -10.4064 10.4064v15.6096c0 1.4367999999999999 -1.1648 2.6016 -2.6016 2.6016h-7.803733333333334c-4.286933333333333 0.055466666666666664 -7.749333333333333 3.5168 -7.8048 7.803733333333334Z"/><path fill="#fff" stroke-width="10.667" d="M107.7536 117.61813333333333c0.38399999999999995 -8.274133333333332 -3.5562666666666662 -16.154666666666664 -10.4064 -20.811733333333333L77.88799999999999 84.31893333333332c-0.8554666666666666 -0.5888 -1.3632 -1.5637333333333334 -1.3536000000000001 -2.6016 0.054400000000000004 -1.7013333333333334 1.4208 -3.0677333333333334 3.122133333333333 -3.122133333333333h17.690666666666665c5.747199999999999 0 10.4064 -4.6592 10.4064 -10.4064 0.0832 -5.087999999999999 -3.5274666666666663 -9.490133333333333 -8.533333333333333 -10.405333333333333 -1.0432 -0.22293333333333332 -1.8581333333333332 -1.0378666666666665 -2.0810666666666666 -2.082133333333333 -0.9152 -5.005866666666666 -5.317333333333333 -8.615466666666666 -10.4064 -8.532266666666667 -5.1786666666666665 0.05973333333333333 -9.525333333333332 3.917866666666667 -10.1984 9.0528 -0.07893333333333333 1.0965333333333334 -0.8938666666666666 1.9968 -1.9765333333333333 2.1856 -17.991466666666668 3.5818666666666665 -25.358933333333333 25.297066666666666 -13.2608 39.086933333333334 1.4143999999999999 1.6117333333333335 3.038933333333333 3.0250666666666666 4.832 4.2026666666666666l19.146666666666665 12.695466666666665c1.1242666666666665 0.6698666666666666 1.7706666666666666 1.9210666666666667 1.6650666666666665 3.2256 -0.054400000000000004 1.7013333333333334 -1.4208 3.0677333333333334 -3.122133333333333 3.122133333333333H66.12906666666666c-5.747199999999999 0 -10.4064 4.6592 -10.4064 10.4064 -0.0832 5.087999999999999 3.5263999999999998 9.490133333333333 8.533333333333333 10.4064 1.0432 0.22186666666666666 1.8581333333333332 1.0378666666666665 2.0810666666666666 2.0810666666666666 0.9152 5.005866666666666 5.317333333333333 8.615466666666666 10.4064 8.533333333333333 5.2223999999999995 0.051199999999999996 9.674666666666667 -3.7781333333333333 10.405333333333333 -8.949333333333332 0.11413333333333332 -1.0816 0.9130666666666666 -1.9647999999999999 1.9776 -2.1856 10.967466666666667 -2.4128 18.74133333333333 -12.184533333333334 18.6272 -23.4144Z"/></g></svg>