<svg xmlns="http://www.w3.org/2000/svg" id="Presentation-Projector-1--Streamline-Ultimate" width="256" height="256" viewBox="0 0 256 256"><desc>Presentation Projector 1 Streamline Icon: https://streamlinehq.com</desc><g id="Presentation-Projector-1--Streamline-Ultimate.svg"><path fill="#fff" stroke-width="10.667" d="M48 192h-2.453333333333333a2.7733333333333334 2.7733333333333334 0 0 0 -2.0266666666666664 0.6399999999999999 2.88 2.88 0 0 0 -0.8533333333333333 2.0266666666666664v45.33333333333333A16 16 0 0 0 58.666666666666664 256h138.66666666666666a16 16 0 0 0 16 -16v-45.44a2.88 2.88 0 0 0 -0.8533333333333333 -2.0266666666666664 2.7733333333333334 2.7733333333333334 0 0 0 -2.0266666666666664 -0.6399999999999999H48Zm114.66666666666666 37.33333333333333a8 8 0 0 1 -16 0v-10.666666666666666a8 8 0 0 1 16 0Zm26.666666666666664 0a8 8 0 0 1 -16 0v-10.666666666666666a8 8 0 0 1 16 0Z"/><path fill="#fff" stroke-width="10.667" d="M48 138.66666666666666A16 16 0 0 0 32 154.66666666666666v10.666666666666666A16 16 0 0 0 48 181.33333333333331h160a16 16 0 0 0 16 -16v-10.666666666666666a16.106666666666666 16.106666666666666 0 0 0 -11.413333333333334 -15.36 2.6666666666666665 2.6666666666666665 0 0 1 -1.92 -2.5599999999999996V82.66666666666666a21.333333333333332 21.333333333333332 0 0 0 -21.333333333333332 -21.333333333333332h-21.333333333333332a2.88 2.88 0 0 1 -1.5999999999999999 0 10.666666666666666 10.666666666666666 0 0 0 -6.3999999999999995 -2.1333333333333333H85.33333333333333a10.666666666666666 10.666666666666666 0 0 0 -10.666666666666666 10.666666666666666v10.666666666666666a10.666666666666666 10.666666666666666 0 0 0 10.666666666666666 10.666666666666666h74.66666666666666a10.666666666666666 10.666666666666666 0 0 0 9.813333333333333 -6.3999999999999995 2.6666666666666665 2.6666666666666665 0 0 1 2.453333333333333 -1.5999999999999999h11.733333333333334a5.333333333333333 5.333333333333333 0 0 1 5.333333333333333 5.333333333333333v48a2.6666666666666665 2.6666666666666665 0 0 1 -2.6666666666666665 2.6666666666666665Z"/><path fill="#fff" stroke-width="10.667" d="M160 16A16 16 0 0 0 144 0h-42.666666666666664A16 16 0 0 0 85.33333333333333 16v29.333333333333332a2.6666666666666665 2.6666666666666665 0 0 0 2.6666666666666665 2.6666666666666665h69.33333333333333a2.6666666666666665 2.6666666666666665 0 0 0 2.6666666666666665 -2.6666666666666665Zm-36.906666666666666 13.333333333333332a10.666666666666666 10.666666666666666 0 1 1 10.666666666666666 -10.666666666666666 10.666666666666666 10.666666666666666 0 0 1 -10.666666666666666 10.666666666666666Z"/></g></svg>