<svg xmlns="http://www.w3.org/2000/svg" id="Presentation-Board-Graph--Streamline-Ultimate" width="256" height="256" viewBox="0 0 256 256"><desc>Presentation Board Graph Streamline Icon: https://streamlinehq.com</desc><path fill="#fff" stroke-width="10.667" d="M256 16A16 16 0 0 0 240 0h-224A16 16 0 0 0 0 16v64a2.6666666666666665 2.6666666666666665 0 0 0 2.6666666666666665 2.6666666666666665h59.626666666666665a2.6666666666666665 2.6666666666666665 0 0 0 2.453333333333333 -1.5999999999999999l8.106666666666666 -18.88a13.333333333333332 13.333333333333332 0 0 1 24.64 0l13.76 35.519999999999996a2.453333333333333 2.453333333333333 0 0 0 2.2399999999999998 1.7066666666666666 2.5599999999999996 2.5599999999999996 0 0 0 2.5599999999999996 -1.3866666666666667l16.53333333333333 -30.4a13.333333333333332 13.333333333333332 0 0 1 23.04 -0.6399999999999999L166.93333333333334 85.33333333333333a2.88 2.88 0 0 0 2.453333333333333 1.2799999999999998 2.6666666666666665 2.6666666666666665 0 0 0 2.2399999999999998 -1.2799999999999998l18.453333333333333 -40.53333333333333a8 8 0 0 1 14.506666666666668 6.613333333333333l-22.506666666666664 49.493333333333325a13.333333333333332 13.333333333333332 0 0 1 -23.46666666666667 1.5999999999999999l-11.733333333333334 -18.773333333333333a2.5599999999999996 2.5599999999999996 0 0 0 -2.3466666666666667 -1.2799999999999998 2.453333333333333 2.453333333333333 0 0 0 -2.2399999999999998 1.3866666666666667l-17.706666666666663 32.53333333333333a13.44 13.44 0 0 1 -24.21333333333333 -1.5999999999999999l-13.12 -34.13333333333333A2.6666666666666665 2.6666666666666665 0 0 0 85.33333333333333 78.93333333333334a2.6666666666666665 2.6666666666666665 0 0 0 -2.5599999999999996 1.7066666666666666l-4.266666666666667 9.92a13.44 13.44 0 0 1 -12.266666666666666 8.106666666666666H2.6666666666666665A2.6666666666666665 2.6666666666666665 0 0 0 0 101.33333333333333v53.33333333333333A16 16 0 0 0 16 170.66666666666666H106.66666666666666a2.6666666666666665 2.6666666666666665 0 0 1 2.6666666666666665 2.6666666666666665v9.813333333333333a2.7733333333333334 2.7733333333333334 0 0 1 -1.0666666666666667 2.1333333333333333 16.96 16.96 0 0 0 -2.5599999999999996 2.1333333333333333l-45.76 45.86666666666666a13.226666666666667 13.226666666666667 0 0 0 18.773333333333333 18.773333333333333l42.026666666666664 -42.026666666666664a2.88 2.88 0 0 1 3.84 0l42.026666666666664 42.026666666666664a13.12 13.12 0 0 0 18.773333333333333 0 13.226666666666667 13.226666666666667 0 0 0 0 -18.773333333333333l-45.76 -45.86666666666666a16.96 16.96 0 0 0 -2.5599999999999996 -2.1333333333333333 2.7733333333333334 2.7733333333333334 0 0 1 -1.0666666666666667 -2.1333333333333333v-9.813333333333333A2.6666666666666665 2.6666666666666665 0 0 1 138.66666666666666 170.66666666666666h101.33333333333333a16 16 0 0 0 16 -16Z"/></svg>