<svg xmlns="http://www.w3.org/2000/svg" viewBox="0 0 256 256" id="Print-Text--Streamline-Ultimate" height="256" width="256">
  <desc>
    Print Text Streamline Icon: https://streamlinehq.com
  </desc>
  <g id="Print-Text--Streamline-Ultimate.svg">
    <path d="M61.33333333333333 64a10.666666666666666 10.666666666666666 0 0 0 10.666666666666666 -10.666666666666666V21.333333333333332h94.29333333333332l23.04 23.04V53.33333333333333a10.666666666666666 10.666666666666666 0 0 0 21.333333333333332 0V40a10.666666666666666 10.666666666666666 0 0 0 -3.093333333333333 -8L181.33333333333331 6.293333333333333A21.333333333333332 21.333333333333332 0 0 0 166.29333333333332 0H72a21.333333333333332 21.333333333333332 0 0 0 -21.333333333333332 21.333333333333332v32a10.666666666666666 10.666666666666666 0 0 0 10.666666666666666 10.666666666666666Z" fill="#ffffff" stroke-width="10.6667"></path>
    <path d="M229.33333333333331 74.66666666666666h-202.66666666666666A26.666666666666664 26.666666666666664 0 0 0 0 101.33333333333333V149.33333333333331a26.666666666666664 26.666666666666664 0 0 0 26.666666666666664 26.666666666666664H53.33333333333333v66.66666666666666A13.333333333333332 13.333333333333332 0 0 0 66.66666666666666 256h128a13.333333333333332 13.333333333333332 0 0 0 13.333333333333332 -13.333333333333332V176h21.333333333333332A26.666666666666664 26.666666666666664 0 0 0 256 149.33333333333331V101.33333333333333A26.666666666666664 26.666666666666664 0 0 0 229.33333333333331 74.66666666666666Zm-192 48a10.666666666666666 10.666666666666666 0 1 1 10.666666666666666 -10.666666666666666 10.666666666666666 10.666666666666666 0 0 1 -10.666666666666666 10.666666666666666Zm149.33333333333331 106.66666666666666a5.333333333333333 5.333333333333333 0 0 1 -5.333333333333333 5.333333333333333H80a5.333333333333333 5.333333333333333 0 0 1 -5.333333333333333 -5.333333333333333v-96a5.333333333333333 5.333333333333333 0 0 1 5.333333333333333 -5.333333333333333H181.33333333333331a5.333333333333333 5.333333333333333 0 0 1 5.333333333333333 5.333333333333333Z" fill="#ffffff" stroke-width="10.6667"></path>
    <path d="M160 157.33333333333331H101.33333333333333a8 8 0 0 0 0 16H160a8 8 0 0 0 0 -16Z" fill="#ffffff" stroke-width="10.6667"></path>
    <path d="M141.33333333333331 194.66666666666666H101.33333333333333a8 8 0 0 0 0 16h40a8 8 0 0 0 0 -16Z" fill="#ffffff" stroke-width="10.6667"></path>
  </g>
</svg>