<svg xmlns="http://www.w3.org/2000/svg" id="Products-Gifts--Streamline-Ultimate" width="256" height="256" viewBox="0 0 256 256"><desc>Products Gifts Streamline Icon: https://streamlinehq.com</desc><g id="Products-Gifts--Streamline-Ultimate.svg"><path fill="#fff" stroke-width="10.667" d="M216 144a2.6666666666666665 2.6666666666666665 0 0 0 -2.6666666666666665 2.6666666666666665v32a2.6666666666666665 2.6666666666666665 0 0 0 2.6666666666666665 2.6666666666666665h24a16 16 0 0 0 16 -16v-18.666666666666664a2.6666666666666665 2.6666666666666665 0 0 0 -2.6666666666666665 -2.6666666666666665Z"/><path fill="#fff" stroke-width="10.667" d="M200 133.33333333333331a2.6666666666666665 2.6666666666666665 0 0 0 2.6666666666666665 -2.6666666666666665V112a5.333333333333333 5.333333333333333 0 0 1 10.666666666666666 0v18.666666666666664a2.6666666666666665 2.6666666666666665 0 0 0 2.6666666666666665 2.6666666666666665h37.33333333333333a2.6666666666666665 2.6666666666666665 0 0 0 2.6666666666666665 -2.6666666666666665V112A16 16 0 0 0 240 96h-8.959999999999999a2.6666666666666665 2.6666666666666665 0 0 1 -2.453333333333333 -1.5999999999999999 2.7733333333333334 2.7733333333333334 0 0 1 0.6399999999999999 -2.986666666666667L234.66666666666666 85.33333333333333a8 8 0 0 0 -10.666666666666666 -10.666666666666666l-14.08 13.44a2.6666666666666665 2.6666666666666665 0 0 1 -3.84 0L192 74.66666666666666a8 8 0 0 0 -10.666666666666666 10.666666666666666l5.76 5.76a2.7733333333333334 2.7733333333333334 0 0 1 0.6399999999999999 2.986666666666667 2.6666666666666665 2.6666666666666665 0 0 1 -2.453333333333333 1.5999999999999999h-9.28A16 16 0 0 0 160 112v18.666666666666664a2.6666666666666665 2.6666666666666665 0 0 0 2.6666666666666665 2.6666666666666665Z"/><path fill="#fff" stroke-width="10.667" d="M202.66666666666666 146.66666666666666a2.6666666666666665 2.6666666666666665 0 0 0 -2.6666666666666665 -2.6666666666666665h-37.33333333333333a2.6666666666666665 2.6666666666666665 0 0 0 -2.6666666666666665 2.6666666666666665v18.666666666666664a16 16 0 0 0 16 16h24a2.6666666666666665 2.6666666666666665 0 0 0 2.6666666666666665 -2.6666666666666665Z"/><path fill="#fff" stroke-width="10.667" d="M113.17333333333332 165.33333333333331H138.66666666666666a10.666666666666666 10.666666666666666 0 0 0 0 -21.333333333333332h-19.52a5.333333333333333 5.333333333333333 0 0 1 -4.053333333333333 -1.8133333333333335 5.013333333333333 5.013333333333333 0 0 1 -1.2799999999999998 -4.053333333333333l7.253333333333334 -69.33333333333333a5.333333333333333 5.333333333333333 0 0 1 5.333333333333333 -4.8h70.93333333333334a10.666666666666666 10.666666666666666 0 0 0 0 -21.333333333333332h-8a2.6666666666666665 2.6666666666666665 0 0 1 -2.6666666666666665 -2.6666666666666665V32a32 32 0 0 0 -64 0v9.6a0.96 0.96 0 0 1 -1.0666666666666667 1.0666666666666667 21.333333333333332 21.333333333333332 0 0 0 -21.333333333333332 19.093333333333334l-8.426666666666666 80a21.333333333333332 21.333333333333332 0 0 0 5.4399999999999995 16.53333333333333 21.333333333333332 21.333333333333332 0 0 0 15.893333333333333 7.04ZM144 32a10.666666666666666 10.666666666666666 0 0 1 21.333333333333332 0v8a2.6666666666666665 2.6666666666666665 0 0 1 -2.6666666666666665 2.6666666666666665h-16a2.6666666666666665 2.6666666666666665 0 0 1 -2.6666666666666665 -2.6666666666666665Z"/><path fill="#fff" stroke-width="10.667" d="M10.666666666666666 157.33333333333331a10.666666666666666 10.666666666666666 0 0 0 -10.666666666666666 10.666666666666666V245.33333333333331a10.666666666666666 10.666666666666666 0 0 0 21.333333333333332 0v-77.33333333333333a10.666666666666666 10.666666666666666 0 0 0 -10.666666666666666 -10.666666666666666Z"/><path fill="#fff" stroke-width="10.667" d="M165.33333333333331 208H68.05333333333333a6.72 6.72 0 1 1 0 -13.333333333333332H94.93333333333334a10.666666666666666 10.666666666666666 0 0 0 9.813333333333333 -14.826666666666664 23.786666666666665 23.786666666666665 0 0 0 -21.973333333333333 -14.506666666666668H37.33333333333333a5.333333333333333 5.333333333333333 0 0 0 -5.333333333333333 5.333333333333333v69.33333333333333a5.333333333333333 5.333333333333333 0 0 0 5.333333333333333 5.333333333333333h114.77333333333333a23.893333333333334 23.893333333333334 0 0 0 23.893333333333334 -23.893333333333334v-2.7733333333333334a10.666666666666666 10.666666666666666 0 0 0 -10.666666666666666 -10.666666666666666Z"/></g></svg>