<svg xmlns="http://www.w3.org/2000/svg" viewBox="0 0 256 256" id="Professions-Man-Astronaut--Streamline-Ultimate" height="256" width="256">
  <desc>
    Professions Man Astronaut Streamline Icon: https://streamlinehq.com
  </desc>
  <g id="Professions-Man-Astronaut--Streamline-Ultimate.svg">
    <path d="M218.66666666666666 88v10.666666666666666a79.25333333333333 79.25333333333333 0 0 1 -19.306666666666665 53.33333333333333 5.4399999999999995 5.4399999999999995 0 0 0 2.453333333333333 8.64A157.97333333333333 157.97333333333333 0 0 1 234.66666666666666 175.36a5.333333333333333 5.333333333333333 0 0 0 5.333333333333333 0 5.546666666666667 5.546666666666667 0 0 0 2.6666666666666665 -4.693333333333333V74.66666666666666a39.89333333333333 39.89333333333333 0 0 0 -28.373333333333335 -38.08 5.333333333333333 5.333333333333333 0 0 0 -6.293333333333333 7.573333333333332 94.08 94.08 0 0 1 10.666666666666666 43.84Z" fill="#ffffff" stroke-width="10.6667"></path>
    <path d="M54.18666666666667 160.85333333333332a5.4399999999999995 5.4399999999999995 0 0 0 2.453333333333333 -8.64 79.25333333333333 79.25333333333333 0 0 1 -19.306666666666665 -53.33333333333333v-10.666666666666666a94.72 94.72 0 0 1 10.666666666666666 -43.519999999999996 5.333333333333333 5.333333333333333 0 0 0 -6.3999999999999995 -7.573333333333332A37.76 37.76 0 0 0 13.333333333333332 74.66666666666666v96a5.546666666666667 5.546666666666667 0 0 0 2.6666666666666665 4.693333333333333 5.333333333333333 5.333333333333333 0 0 0 5.333333333333333 0 157.97333333333333 157.97333333333333 0 0 1 32.85333333333333 -14.506666666666668Z" fill="#ffffff" stroke-width="10.6667"></path>
    <path d="M240.32 192a148.16 148.16 0 0 0 -55.78666666666667 -24.746666666666663 5.546666666666667 5.546666666666667 0 0 0 -3.9466666666666663 0.5333333333333333A100.90666666666667 100.90666666666667 0 0 1 128 181.33333333333331a100.90666666666667 100.90666666666667 0 0 1 -52.58666666666666 -13.653333333333332 5.546666666666667 5.546666666666667 0 0 0 -3.9466666666666663 -0.5333333333333333A148.16 148.16 0 0 0 15.68 192a26.133333333333333 26.133333333333333 0 0 0 -10.666666666666666 21.333333333333332v32a5.333333333333333 5.333333333333333 0 0 0 5.333333333333333 5.333333333333333H245.33333333333331a5.333333333333333 5.333333333333333 0 0 0 5.333333333333333 -5.333333333333333v-32a26.133333333333333 26.133333333333333 0 0 0 -10.346666666666666 -21.333333333333332Zm-24.319999999999997 22.29333333333333a8.106666666666666 8.106666666666666 0 0 1 -8 8h-21.333333333333332a8 8 0 0 1 0 -16h21.333333333333332a8 8 0 0 1 8 7.893333333333333Zm-138.66666666666666 0a8.106666666666666 8.106666666666666 0 0 1 -8 8h-21.333333333333332a8 8 0 0 1 0 -16h21.333333333333332a8 8 0 0 1 8 7.893333333333333ZM90.66666666666666 213.33333333333331a5.4399999999999995 5.4399999999999995 0 0 1 5.333333333333333 -5.333333333333333h64a5.4399999999999995 5.4399999999999995 0 0 1 5.333333333333333 5.546666666666667v21.333333333333332a5.333333333333333 5.333333333333333 0 0 1 -5.333333333333333 5.333333333333333H96a5.333333333333333 5.333333333333333 0 0 1 -5.333333333333333 -5.333333333333333Z" fill="#ffffff" stroke-width="10.6667"></path>
    <path d="M128 170.66666666666666c39.78666666666666 0 80 -22.186666666666667 80 -71.67999999999999v-10.666666666666666A81.49333333333333 81.49333333333333 0 0 0 128 5.333333333333333a81.49333333333333 81.49333333333333 0 0 0 -80 82.66666666666666v10.666666666666666C48 148.48 88.21333333333332 170.66666666666666 128 170.66666666666666Zm0 -143.14666666666665a58.986666666666665 58.986666666666665 0 0 1 58.666666666666664 59.413333333333334c0 32.74666666666666 -26.24 39.57333333333333 -58.666666666666664 39.57333333333333s-58.666666666666664 -6.826666666666666 -58.666666666666664 -39.57333333333333A58.986666666666665 58.986666666666665 0 0 1 128 27.52Z" fill="#ffffff" stroke-width="10.6667"></path>
  </g>
</svg>