<svg xmlns="http://www.w3.org/2000/svg" viewBox="0 0 256 256" id="Programming-Language-Monitor-Css--Streamline-Ultimate" height="256" width="256">
  <desc>
    Programming Language Monitor Css Streamline Icon: https://streamlinehq.com
  </desc>
  <g id="Programming-Language-Monitor-Css--Streamline-Ultimate.svg">
    <path d="M202.66666666666666 251.51999999999998a10.666666666666666 10.666666666666666 0 0 0 0 -21.333333333333332h-64a5.333333333333333 5.333333333333333 0 0 1 -5.333333333333333 -5.333333333333333v-7.04a5.333333333333333 5.333333333333333 0 0 1 5.333333333333333 -5.333333333333333h85.33333333333333a32 32 0 0 0 32 -32V32A27.093333333333334 27.093333333333334 0 0 0 229.33333333333331 4.4799999999999995h-202.66666666666666A27.093333333333334 27.093333333333334 0 0 0 0 32v148.48a32 32 0 0 0 32 32h74.66666666666666a5.333333333333333 5.333333333333333 0 0 1 5.333333333333333 5.333333333333333v7.04a5.333333333333333 5.333333333333333 0 0 1 -5.333333333333333 5.333333333333333H53.33333333333333a10.666666666666666 10.666666666666666 0 0 0 0 21.333333333333332ZM21.333333333333332 32a5.76 5.76 0 0 1 5.333333333333333 -6.186666666666666h202.66666666666666A5.76 5.76 0 0 1 234.66666666666666 32v127.14666666666666a5.333333333333333 5.333333333333333 0 0 1 -5.333333333333333 5.333333333333333h-202.66666666666666a5.333333333333333 5.333333333333333 0 0 1 -5.333333333333333 -5.333333333333333Z" fill="#ffffff" stroke-width="10.6667"></path>
    <path d="M80 71.14666666666666a8 8 0 0 0 0 -16 29.333333333333332 29.333333333333332 0 0 0 -29.333333333333332 29.333333333333332v10.666666666666666a29.333333333333332 29.333333333333332 0 0 0 29.333333333333332 29.333333333333332 8 8 0 1 0 0 -16 13.333333333333332 13.333333333333332 0 0 1 -13.333333333333332 -13.333333333333332v-10.666666666666666A13.333333333333332 13.333333333333332 0 0 1 80 71.14666666666666Z" fill="#ffffff" stroke-width="10.6667"></path>
    <path d="M120 73.81333333333333a2.6666666666666665 2.6666666666666665 0 0 1 2.6666666666666665 -2.6666666666666665h10.666666666666666a8 8 0 0 0 0 -16h-10.666666666666666a18.666666666666664 18.666666666666664 0 0 0 -18.666666666666664 18.666666666666664A27.41333333333333 27.41333333333333 0 0 0 117.86666666666667 96c5.4399999999999995 4.053333333333333 7.466666666666666 5.866666666666667 7.466666666666666 9.6a2.6666666666666665 2.6666666666666665 0 0 1 -2.6666666666666665 2.6666666666666665h-10.666666666666666a8 8 0 0 0 0 16h10.666666666666666a18.773333333333333 18.773333333333333 0 0 0 18.666666666666664 -18.666666666666664A27.093333333333334 27.093333333333334 0 0 0 128 83.41333333333333c-5.973333333333334 -4.16 -8 -5.973333333333334 -8 -9.6Z" fill="#ffffff" stroke-width="10.6667"></path>
    <path d="M173.33333333333331 73.81333333333333a2.6666666666666665 2.6666666666666665 0 0 1 2.6666666666666665 -2.6666666666666665h10.666666666666666a8 8 0 0 0 0 -16h-10.666666666666666a18.666666666666664 18.666666666666664 0 0 0 -18.666666666666664 18.666666666666664A27.41333333333333 27.41333333333333 0 0 0 171.2 96c5.4399999999999995 4.053333333333333 7.466666666666666 5.866666666666667 7.466666666666666 9.6a2.6666666666666665 2.6666666666666665 0 0 1 -2.6666666666666665 2.6666666666666665h-10.666666666666666a8 8 0 0 0 0 16h10.666666666666666a18.773333333333333 18.773333333333333 0 0 0 18.666666666666664 -18.666666666666664A27.093333333333334 27.093333333333334 0 0 0 181.33333333333331 83.41333333333333c-5.973333333333334 -4.16 -8 -5.973333333333334 -8 -9.6Z" fill="#ffffff" stroke-width="10.6667"></path>
  </g>
</svg>