<svg xmlns="http://www.w3.org/2000/svg" viewBox="0 0 256 256" id="Programming-User-Chat--Streamline-Ultimate" height="256" width="256">
  <desc>
    Programming User Chat Streamline Icon: https://streamlinehq.com
  </desc>
  <g id="Programming-User-Chat--Streamline-Ultimate.svg">
    <path d="M256 18.666666666666664A18.773333333333333 18.773333333333333 0 0 0 237.33333333333331 0h-106.66666666666666a18.773333333333333 18.773333333333333 0 0 0 -18.666666666666664 18.666666666666664v85.33333333333333a18.773333333333333 18.773333333333333 0 0 0 18.666666666666664 18.666666666666664 2.6666666666666665 2.6666666666666665 0 0 1 2.6666666666666665 2.6666666666666665v21.333333333333332a8 8 0 0 0 4.693333333333333 7.253333333333334 7.1466666666666665 7.1466666666666665 0 0 0 3.3066666666666666 0.7466666666666667 7.893333333333333 7.893333333333333 0 0 0 5.226666666666667 -1.92L181.33333333333331 123.30666666666667a2.453333333333333 2.453333333333333 0 0 1 1.7066666666666666 -0.6399999999999999h54.72A18.773333333333333 18.773333333333333 0 0 0 256 104Zm-77.01333333333332 42.666666666666664 -21.333333333333332 21.333333333333332a8 8 0 0 1 -11.306666666666667 0 8 8 0 0 1 0 -11.306666666666667L160 57.919999999999995a2.6666666666666665 2.6666666666666665 0 0 0 0 -3.84l-13.653333333333332 -13.76a8 8 0 1 1 11.306666666666667 -11.306666666666667l21.333333333333332 21.333333333333332a8 8 0 0 1 0 11.306666666666667Zm42.666666666666664 23.68h-26.666666666666664a8 8 0 0 1 0 -16h26.666666666666664a8 8 0 0 1 0 16Z" fill="#ffffff" stroke-width="10.6667"></path>
    <path d="M54.18666666666667 104.21333333333332A54.29333333333333 54.29333333333333 0 0 0 0 158.39999999999998v32a5.226666666666667 5.226666666666667 0 0 0 1.5999999999999999 3.84 5.333333333333333 5.333333333333333 0 0 0 3.733333333333333 1.4933333333333334h17.493333333333332a2.5599999999999996 2.5599999999999996 0 0 1 2.5599999999999996 2.3466666666666667l7.253333333333334 52.8a5.226666666666667 5.226666666666667 0 0 0 5.226666666666667 4.586666666666666h32.64a5.226666666666667 5.226666666666667 0 0 0 5.226666666666667 -4.586666666666666l7.253333333333334 -52.8A2.5599999999999996 2.5599999999999996 0 0 1 85.33333333333333 196.26666666666665h17.706666666666663a5.333333333333333 5.333333333333333 0 0 0 3.733333333333333 -1.4933333333333334 5.226666666666667 5.226666666666667 0 0 0 1.5999999999999999 -3.84v-32a54.29333333333333 54.29333333333333 0 0 0 -54.18666666666667 -54.72Z" fill="#ffffff" stroke-width="10.6667"></path>
    <path d="M55.89333333333333 95.35999999999999A35.199999999999996 35.199999999999996 0 1 0 21.333333333333332 60.266666666666666a35.093333333333334 35.093333333333334 0 0 0 34.56 35.093333333333334Z" fill="#ffffff" stroke-width="10.6667"></path>
  </g>
</svg>