<svg xmlns="http://www.w3.org/2000/svg" viewBox="0 0 256 256" id="Programming-Book--Streamline-Ultimate" height="256" width="256">
  <desc>
    Programming Book Streamline Icon: https://streamlinehq.com
  </desc>
  <path d="M32 224.64A32 32 0 0 0 64 256h138.66666666666666a21.333333333333332 21.333333333333332 0 0 0 21.333333333333332 -21.333333333333332V63.04a21.333333333333332 21.333333333333332 0 0 0 -21.333333333333332 -21.333333333333332H64A10.666666666666666 10.666666666666666 0 0 1 53.33333333333333 32a10.666666666666666 10.666666666666666 0 0 1 10.666666666666666 -10.666666666666666h143.89333333333332a10.666666666666666 10.666666666666666 0 0 0 0 -21.333333333333332H64a32 32 0 0 0 -32 32Zm101.33333333333333 -68.26666666666667h42.666666666666664a8 8 0 0 1 0 16h-42.666666666666664a8 8 0 0 1 0 -16Zm-53.33333333333333 -39.68a8 8 0 0 1 11.093333333333334 -11.306666666666667l26.666666666666664 26.666666666666664a7.893333333333333 7.893333333333333 0 0 1 0 11.306666666666667l-26.666666666666664 26.666666666666664a7.573333333333332 7.573333333333332 0 0 1 -5.653333333333333 2.3466666666666667 7.893333333333333 7.893333333333333 0 0 1 -5.653333333333333 -2.3466666666666667 8 8 0 0 1 0 -11.306666666666667l19.2 -19.093333333333334a2.7733333333333334 2.7733333333333334 0 0 0 0 -3.733333333333333Z" fill="#ffffff" stroke-width="10.6667"></path>
</svg>