<svg xmlns="http://www.w3.org/2000/svg" viewBox="0 0 256 256" id="Programming-Language-Html-5--Streamline-Ultimate" height="256" width="256">
  <desc>
    Programming Language Html 5 Streamline Icon: https://streamlinehq.com
  </desc>
  <path d="m43.413333333333334 221.12 81.06666666666666 28.586666666666666a10.026666666666666 10.026666666666666 0 0 0 7.04 0l81.06666666666666 -28.586666666666666a10.666666666666666 10.666666666666666 0 0 0 7.04 -8.426666666666666l29.226666666666667 -194.77333333333334a10.666666666666666 10.666666666666666 0 0 0 -10.666666666666666 -12.266666666666666H17.706666666666663a10.666666666666666 10.666666666666666 0 0 0 -10.666666666666666 12.266666666666666l29.333333333333332 194.77333333333334a10.666666666666666 10.666666666666666 0 0 0 7.04 8.426666666666666ZM64 43.30666666666666a15.68 15.68 0 0 1 12.159999999999998 -5.653333333333333H186.66666666666666a10.666666666666666 10.666666666666666 0 0 1 0 21.333333333333332H85.33333333333333a2.6666666666666665 2.6666666666666665 0 0 0 -2.1333333333333333 0.96 2.986666666666667 2.986666666666667 0 0 0 0 2.1333333333333333l5.866666666666667 35.093333333333334a5.333333333333333 5.333333333333333 0 0 0 5.226666666666667 4.4799999999999995h76.26666666666667a16 16 0 0 1 15.893333333333333 18.24l-9.28 65.17333333333333a16.106666666666666 16.106666666666666 0 0 1 -11.52 13.12l-32.53333333333333 9.28a15.253333333333332 15.253333333333332 0 0 1 -8.746666666666666 0l-32.64 -9.28a16 16 0 0 1 -11.413333333333334 -12.799999999999999L74.66666666666666 156.69333333333333a10.666666666666666 10.666666666666666 0 1 1 21.333333333333332 -3.413333333333333l3.626666666666667 21.973333333333333a5.226666666666667 5.226666666666667 0 0 0 3.84 4.266666666666667l23.146666666666665 6.613333333333333a4.8 4.8 0 0 0 2.986666666666667 0l22.93333333333333 -6.506666666666666a5.546666666666667 5.546666666666667 0 0 0 3.84 -4.373333333333333l7.04 -49.17333333333333a2.453333333333333 2.453333333333333 0 0 0 -0.6399999999999999 -2.1333333333333333 2.6666666666666665 2.6666666666666665 0 0 0 -2.0266666666666664 -0.96H84.47999999999999a16 16 0 0 1 -15.786666666666665 -13.333333333333332l-8.853333333333332 -53.33333333333333A15.893333333333333 15.893333333333333 0 0 1 64 43.30666666666666Z" fill="#ffffff" stroke-width="10.6667"></path>
</svg>