<svg xmlns="http://www.w3.org/2000/svg" viewBox="0 0 256 256" id="Programming-Browser-1--Streamline-Ultimate" height="256" width="256">
  <desc>
    Programming Browser 1 Streamline Icon: https://streamlinehq.com
  </desc>
  <g id="Programming-Browser-1--Streamline-Ultimate.svg">
    <path d="M74.66666666666666 165.01333333333332a8 8 0 0 0 0 11.306666666666667 8 8 0 0 0 11.306666666666667 0l26.666666666666664 -26.666666666666664a8 8 0 0 0 0 -11.306666666666667l-26.666666666666664 -26.666666666666664A8 8 0 0 0 74.66666666666666 122.98666666666665l19.093333333333334 19.093333333333334a2.6666666666666665 2.6666666666666665 0 0 1 0 3.84Z" fill="#ffffff" stroke-width="10.6667"></path>
    <path d="M133.86666666666667 168h42.666666666666664a8 8 0 0 0 0 -16h-42.666666666666664a8 8 0 0 0 0 16Z" fill="#ffffff" stroke-width="10.6667"></path>
    <path d="M256 50.666666666666664a32 32 0 0 0 -32 -32H32a32 32 0 0 0 -32 32v154.66666666666666a32 32 0 0 0 32 32h192a32 32 0 0 0 32 -32Zm-144 -16a10.666666666666666 10.666666666666666 0 0 1 10.666666666666666 10.666666666666666 10.666666666666666 10.666666666666666 0 0 1 -21.333333333333332 0 10.666666666666666 10.666666666666666 0 0 1 10.666666666666666 -10.666666666666666Zm-37.33333333333333 0a10.666666666666666 10.666666666666666 0 0 1 10.666666666666666 10.666666666666666 10.666666666666666 10.666666666666666 0 0 1 -10.666666666666666 10.666666666666666 10.666666666666666 10.666666666666666 0 0 1 -10.666666666666666 -10.666666666666666 10.666666666666666 10.666666666666666 0 0 1 10.666666666666666 -10.666666666666666Zm-37.33333333333333 0a10.666666666666666 10.666666666666666 0 0 1 10.666666666666666 10.666666666666666 10.666666666666666 10.666666666666666 0 0 1 -10.666666666666666 10.666666666666666 10.666666666666666 10.666666666666666 0 0 1 -10.666666666666666 -10.666666666666666 10.666666666666666 10.666666666666666 0 0 1 10.666666666666666 -10.666666666666666Zm197.33333333333331 170.66666666666666a10.666666666666666 10.666666666666666 0 0 1 -10.666666666666666 10.666666666666666H32a10.666666666666666 10.666666666666666 0 0 1 -10.666666666666666 -10.666666666666666V74.66666666666666a2.6666666666666665 2.6666666666666665 0 0 1 2.6666666666666665 -2.6666666666666665h208A2.6666666666666665 2.6666666666666665 0 0 1 234.66666666666666 74.66666666666666Z" fill="#ffffff" stroke-width="10.6667"></path>
  </g>
</svg>