<svg xmlns="http://www.w3.org/2000/svg" viewBox="0 0 256 256" id="Programming-Hold-Code-2--Streamline-Ultimate" height="256" width="256">
  <desc>
    Programming Hold Code 2 Streamline Icon: https://streamlinehq.com
  </desc>
  <g id="Programming-Hold-Code-2--Streamline-Ultimate.svg">
    <path d="M205.9136 239.7269333333333c-0.020266666666666665 -1.408 0.5439999999999999 -2.7626666666666666 1.5584 -3.7397333333333336l36.9824 -36.67093333333333c1.9189333333333334 -1.9349333333333334 3.0016 -4.546133333333334 3.0133333333333328 -7.271466666666666v-74.27733333333333c-0.008533333333333334 -1.6864 -0.8181333333333334 -3.2682666666666664 -2.1824 -4.2592 -1.3941333333333334 -0.9792000000000001 -3.179733333333333 -1.2117333333333333 -4.778666666666666 -0.624 -7.479466666666667 2.5973333333333333 -18.698666666666664 14.440533333333331 -19.010133333333332 60.56533333333333 -0.008533333333333334 1.3717333333333332 -0.5706666666666667 2.6826666666666665 -1.5584 3.6351999999999998l-22.8544 22.8544c-0.9343999999999999 0.6602666666666666 -2.1824 0.6602666666666666 -3.1168 0 -1.0261333333333331 -0.5749333333333333 -1.5381333333333331 -1.7685333333333333 -1.2469333333333332 -2.9088l5.090133333333333 -22.334933333333332c3.5328 -14.958933333333334 -10.388266666666667 -20.776533333333333 -17.556266666666666 -9.765333333333333 -6.5504 13.339733333333331 -11.869866666666667 27.247999999999998 -15.8944 41.55413333333333v44.254933333333334c0 1.4335999999999998 1.1626666666666665 2.5962666666666667 2.5973333333333333 2.5973333333333333h36.35946666666666c1.4346666666666668 -0.0010666666666666667 2.5973333333333333 -1.1637333333333333 2.5973333333333333 -2.5973333333333333Z" fill="#ffffff" stroke-width="10.6667"></path>
    <path d="M89.04319999999998 253.44c1.4346666666666668 0 2.5973333333333333 -1.1626666666666665 2.5973333333333333 -2.5973333333333333v-44.254933333333334c-4.023466666666666 -14.305066666666665 -9.344 -28.214399999999998 -15.8944 -41.553066666666666 -7.479466666666667 -11.531733333333332 -20.776533333333333 -5.1946666666666665 -17.556266666666666 9.765333333333333l5.090133333333333 22.334933333333332c0.2912 1.1402666666666665 -0.21973333333333334 2.3338666666666663 -1.2469333333333332 2.9088 -0.9333333333333332 0.6592 -2.1824 0.6592 -3.1157333333333335 0l-22.8544 -22.8544c-1.0144 -0.9781333333333333 -1.5786666666666664 -2.331733333333333 -1.5584 -3.7397333333333336 0 -46.1248 -11.531733333333332 -57.967999999999996 -19.0112 -60.56533333333333 -1.5989333333333333 -0.5877333333333333 -3.3845333333333336 -0.3552 -4.778666666666666 0.624 -1.3632 0.9909333333333332 -2.1738666666666666 2.5728 -2.181333333333333 4.2592v73.34186666666666c-0.022399999999999996 2.9674666666666667 1.2245333333333333 5.802666666666667 3.4282666666666666 7.790933333333333 10.388266666666667 9.661866666666667 31.1648 31.165866666666666 36.67093333333333 36.672 0.9226666666666665 0.9866666666666666 1.4410666666666665 2.2847999999999997 1.4538666666666666 3.6351999999999998v11.220266666666667c0 1.4335999999999998 1.1637333333333333 2.5962666666666667 2.5973333333333333 2.5962666666666667Z" fill="#ffffff" stroke-width="10.6667"></path>
    <path d="M165.6064 96.26346666666666c-5.0752 5.037866666666666 -5.0752 13.2448 0 18.282666666666664 5.013333333333333 5.133866666666666 13.270399999999999 5.133866666666666 18.28373333333333 0l41.553066666666666 -41.553066666666666c5.0752 -5.037866666666666 5.0752 -13.245866666666666 0 -18.28373333333333l-41.553066666666666 -41.55413333333333c-7.037866666666667 -7.0367999999999995 -19.053866666666664 -3.8175999999999997 -21.629866666666665 5.796266666666666 -1.1957333333333333 4.4608 0.07999999999999999 9.221333333333334 3.346133333333333 12.487466666666666l28.672 28.776533333333333c1.9797333333333331 2.0191999999999997 1.9797333333333331 5.252266666666666 0 7.271466666666666Z" fill="#ffffff" stroke-width="10.6667"></path>
    <path d="M90.39359999999999 13.1552c-5.037866666666666 -5.074133333333333 -13.2448 -5.074133333333333 -18.28373333333333 0L30.5568 54.709333333333326c-5.0752 5.037866666666666 -5.0752 13.245866666666666 0 18.28373333333333l41.553066666666666 41.553066666666666c5.0144 5.133866666666666 13.270399999999999 5.133866666666666 18.28373333333333 0 5.0752 -5.037866666666666 5.0752 -13.2448 0 -18.282666666666664l-28.672 -28.776533333333333c-1.9797333333333331 -2.0191999999999997 -1.9797333333333331 -5.252266666666666 0 -7.271466666666666l28.672 -28.776533333333333c5.0752 -5.037866666666666 5.0752 -13.2448 0 -18.28373333333333Z" fill="#ffffff" stroke-width="10.6667"></path>
    <path d="M114.8064 123.27253333333334h2.8053333333333335c6.1376 -0.06293333333333333 11.407999999999998 -4.381866666666666 12.674133333333332 -10.388266666666667l20.776533333333333 -93.49546666666666c2.9578666666666664 -9.5488 -5.530666666666666 -18.718933333333332 -15.278933333333331 -16.5056 -5.536 1.2565333333333333 -9.613866666666667 5.963733333333334 -10.068266666666666 11.622399999999999l-20.7776 93.49653333333333c-1.4175999999999997 6.927999999999999 2.9696 13.717333333333332 9.8688 15.270399999999999Z" fill="#ffffff" stroke-width="10.6667"></path>
  </g>
</svg>