<svg xmlns="http://www.w3.org/2000/svg" viewBox="0 0 256 256" id="Public-Service-Firefighter-Truck-1--Streamline-Ultimate" height="256" width="256">
  <desc>
    Public Service Firefighter Truck 1 Streamline Icon: https://streamlinehq.com
  </desc>
  <g id="Public-Service-Firefighter-Truck-1--Streamline-Ultimate.svg">
    <path d="M250.34666666666664 115.83999999999999 26.133333333333333 1.2799999999999998a10.666666666666666 10.666666666666666 0 0 0 -9.706666666666667 18.986666666666665l180.16 92.05333333333334a2.6666666666666665 2.6666666666666665 0 0 1 1.3866666666666667 2.986666666666667 2.7733333333333334 2.7733333333333334 0 0 1 -2.5599999999999996 2.0266666666666664h-62.18666666666667a10.666666666666666 10.666666666666666 0 0 0 -10.666666666666666 10.666666666666666v90.56a2.6666666666666665 2.6666666666666665 0 0 1 -2.6666666666666665 2.6666666666666665h-10.666666666666666a2.6666666666666665 2.6666666666666665 0 0 1 -2.6666666666666665 -2.6666666666666665V128a16 16 0 0 0 -16 -16H56.32a16.53333333333333 16.53333333333333 0 0 0 -14.293333333333333 9.066666666666666l-21.333333333333332 48.63999999999999a2.453333333333333 2.453333333333333 0 0 1 -1.2799999999999998 1.2799999999999998l-14.186666666666667 6.506666666666666a9.92 9.92 0 0 0 -4.693333333333333 8.64v40.42666666666666a10.666666666666666 10.666666666666666 0 0 0 10.666666666666666 10.666666666666666h5.4399999999999995a2.88 2.88 0 0 0 2.0266666666666664 -0.8533333333333333 3.1999999999999997 3.1999999999999997 0 0 0 0.6399999999999999 -2.1333333333333333 17.28 17.28 0 0 1 0 -2.3466666666666667 34.666666666666664 34.666666666666664 0 1 1 69.22666666666666 0 17.28 17.28 0 0 1 0 2.3466666666666667 2.6666666666666665 2.6666666666666665 0 0 0 0.6399999999999999 2.1333333333333333 2.88 2.88 0 0 0 2.0266666666666664 0.8533333333333333h74.66666666666666a2.5599999999999996 2.5599999999999996 0 0 0 2.5599999999999996 -2.986666666666667l0 -2.3466666666666667a34.666666666666664 34.666666666666664 0 1 1 69.22666666666666 0 17.28 17.28 0 0 1 0 2.3466666666666667 3.1999999999999997 3.1999999999999997 0 0 0 0.6399999999999999 2.1333333333333333 2.88 2.88 0 0 0 2.0266666666666664 0.8533333333333333H245.33333333333331a10.666666666666666 10.666666666666666 0 0 0 10.666666666666666 -10.666666666666666V128a10.666666666666666 10.666666666666666 0 0 0 -5.653333333333333 -12.159999999999998ZM85.33333333333333 168a2.6666666666666665 2.6666666666666665 0 0 1 -2.6666666666666665 2.6666666666666665H47.25333333333333a2.5599999999999996 2.5599999999999996 0 0 1 -2.2399999999999998 -1.2799999999999998 2.453333333333333 2.453333333333333 0 0 1 0 -2.5599999999999996l14.4 -32a2.6666666666666665 2.6666666666666665 0 0 1 2.3466666666666667 -1.5999999999999999h21.333333333333332a2.6666666666666665 2.6666666666666665 0 0 1 2.6666666666666665 2.6666666666666665Z" fill="#ffffff" stroke-width="10.6667"></path>
    <path d="M93.22666666666666 101.33333333333333a8 8 0 0 0 8 -8v-5.333333333333333a18.666666666666664 18.666666666666664 0 0 0 -18.666666666666664 -18.56h-10.666666666666666A18.666666666666664 18.666666666666664 0 0 0 53.33333333333333 88v5.333333333333333a8 8 0 0 0 8 8Z" fill="#ffffff" stroke-width="10.6667"></path>
    <path d="M29.226666666666667 231.89333333333332a24 24 0 1 0 48 0 24 24 0 1 0 -48 0" fill="#ffffff" stroke-width="10.6667"></path>
    <path d="M178.45333333333332 231.89333333333332a24 24 0 1 0 48 0 24 24 0 1 0 -48 0" fill="#ffffff" stroke-width="10.6667"></path>
  </g>
</svg>