<svg xmlns="http://www.w3.org/2000/svg" id="Radioactive-Circle--Streamline-Ultimate" width="256" height="256" viewBox="0 0 256 256"><desc>Radioactive Circle Streamline Icon: https://streamlinehq.com</desc><path fill="#fff" stroke-width="10.667" d="M128 0a128 128 0 1 0 128 128A128 128 0 0 0 128 0Zm0 106.66666666666666a21.333333333333332 21.333333333333332 0 1 1 -21.333333333333332 21.333333333333332 21.333333333333332 21.333333333333332 0 0 1 21.333333333333332 -21.333333333333332Zm-47.67999999999999 21.333333333333332H42.666666666666664a5.119999999999999 5.119999999999999 0 0 1 -3.84 -1.5999999999999999 5.76 5.76 0 0 1 -1.4933333333333334 -4.053333333333333 90.45333333333333 90.45333333333333 0 0 1 40.53333333333333 -69.86666666666666 6.079999999999999 6.079999999999999 0 0 1 4.266666666666667 -0.7466666666666667 5.653333333333333 5.653333333333333 0 0 1 3.1999999999999997 2.5599999999999996l18.773333333333333 32a5.226666666666667 5.226666666666667 0 0 1 -1.2799999999999998 6.826666666666666A42.666666666666664 42.666666666666664 0 0 0 91.09333333333332 106.66666666666666 41.17333333333333 41.17333333333333 0 0 0 85.33333333333333 123.52a5.333333333333333 5.333333333333333 0 0 1 -5.013333333333333 4.4799999999999995ZM170.66666666666666 205.86666666666667a5.653333333333333 5.653333333333333 0 0 1 -2.7733333333333334 3.3066666666666666 90.34666666666666 90.34666666666666 0 0 1 -80.63999999999999 0A6.079999999999999 6.079999999999999 0 0 1 85.33333333333333 205.86666666666667a5.653333333333333 5.653333333333333 0 0 1 0 -4.16l18.666666666666664 -32a5.226666666666667 5.226666666666667 0 0 1 6.613333333333333 -2.3466666666666667 41.81333333333333 41.81333333333333 0 0 0 34.56 0 5.226666666666667 5.226666666666667 0 0 1 6.613333333333333 2.3466666666666667l18.666666666666664 32a5.226666666666667 5.226666666666667 0 0 1 0.21333333333333332 4.16Zm45.86666666666666 -79.46666666666667a5.653333333333333 5.653333333333333 0 0 1 -3.1999999999999997 1.5999999999999999h-37.65333333333333a5.333333333333333 5.333333333333333 0 0 1 -5.333333333333333 -4.4799999999999995 41.17333333333333 41.17333333333333 0 0 0 -5.4399999999999995 -16.85333333333333 42.666666666666664 42.666666666666664 0 0 0 -11.84 -13.12 5.226666666666667 5.226666666666667 0 0 1 -1.2799999999999998 -6.826666666666666l18.773333333333333 -32a5.226666666666667 5.226666666666667 0 0 1 3.3066666666666666 -2.5599999999999996 5.973333333333334 5.973333333333334 0 0 1 4.266666666666667 0.7466666666666667 90.45333333333333 90.45333333333333 0 0 1 40.31999999999999 69.86666666666666 6.079999999999999 6.079999999999999 0 0 1 -1.4933333333333334 3.626666666666667Z"/></svg>