<svg xmlns="http://www.w3.org/2000/svg" id="Radio-Retro--Streamline-Ultimate" width="256" height="256" viewBox="0 0 256 256"><desc>Radio Retro Streamline Icon: https://streamlinehq.com</desc><g id="Radio-Retro--Streamline-Ultimate.svg"><path fill="#fff" stroke-width="10.667" d="M253.33333333333331 160a2.6666666666666665 2.6666666666666665 0 0 0 2.6666666666666665 -2.6666666666666665V101.33333333333333A26.666666666666664 26.666666666666664 0 0 0 229.33333333333331 74.66666666666666H66.66666666666666A2.6666666666666665 2.6666666666666665 0 0 1 64 72V10.666666666666666a10.666666666666666 10.666666666666666 0 0 0 -21.333333333333332 0v61.33333333333333a2.6666666666666665 2.6666666666666665 0 0 1 -2.6666666666666665 2.6666666666666665H26.666666666666664A26.666666666666664 26.666666666666664 0 0 0 0 101.33333333333333v56a2.6666666666666665 2.6666666666666665 0 0 0 2.6666666666666665 2.6666666666666665ZM213.33333333333331 128a10.666666666666666 10.666666666666666 0 0 1 -10.666666666666666 10.666666666666666H53.33333333333333a10.666666666666666 10.666666666666666 0 0 1 -10.666666666666666 -10.666666666666666v-10.666666666666666a10.666666666666666 10.666666666666666 0 0 1 10.666666666666666 -10.666666666666666h149.33333333333331a10.666666666666666 10.666666666666666 0 0 1 10.666666666666666 10.666666666666666Z"/><path fill="#fff" stroke-width="10.667" d="M2.6666666666666665 176a2.6666666666666665 2.6666666666666665 0 0 0 -2.6666666666666665 2.6666666666666665v29.333333333333332A26.77333333333333 26.77333333333333 0 0 0 24.21333333333333 234.66666666666666a2.6666666666666665 2.6666666666666665 0 0 1 2.453333333333333 2.6666666666666665V245.33333333333331a10.666666666666666 10.666666666666666 0 0 0 21.333333333333332 0v-8a2.6666666666666665 2.6666666666666665 0 0 1 2.6666666666666665 -2.6666666666666665h154.66666666666666a2.6666666666666665 2.6666666666666665 0 0 1 2.6666666666666665 2.6666666666666665V245.33333333333331a10.666666666666666 10.666666666666666 0 0 0 21.333333333333332 0v-8.106666666666666a2.6666666666666665 2.6666666666666665 0 0 1 2.453333333333333 -2.6666666666666665A26.77333333333333 26.77333333333333 0 0 0 256 208v-29.333333333333332a2.6666666666666665 2.6666666666666665 0 0 0 -2.6666666666666665 -2.6666666666666665Zm221.33333333333331 10.666666666666666a13.333333333333332 13.333333333333332 0 1 1 -13.333333333333332 13.333333333333332A13.333333333333332 13.333333333333332 0 0 1 224 186.66666666666666ZM77.33333333333333 192h101.33333333333333a8 8 0 0 1 0 16h-101.33333333333333a8 8 0 0 1 0 -16ZM32 186.66666666666666a13.333333333333332 13.333333333333332 0 1 1 -13.333333333333332 13.333333333333332A13.333333333333332 13.333333333333332 0 0 1 32 186.66666666666666Z"/></g></svg>