<svg xmlns="http://www.w3.org/2000/svg" viewBox="0 0 256 256" id="Radiology-Scanner--Streamline-Ultimate" height="256" width="256">
  <desc>
    Radiology Scanner Streamline Icon: https://streamlinehq.com
  </desc>
  <g id="Radiology-Scanner--Streamline-Ultimate.svg">
    <path d="M245.33333333333331 198.29333333333332a10.666666666666666 10.666666666666666 0 0 1 -10.666666666666666 -10.666666666666666v-85.33333333333333a10.666666666666666 10.666666666666666 0 0 1 21.333333333333332 0v85.33333333333333a10.666666666666666 10.666666666666666 0 0 1 -10.666666666666666 10.666666666666666Z" fill="#ffffff" stroke-width="10.6667"></path>
    <path d="M197.33333333333331 78.29333333333332a10.666666666666666 10.666666666666666 0 0 1 -5.333333333333333 -1.8133333333333335l-16 -10.666666666666666a10.666666666666666 10.666666666666666 0 0 1 -2.986666666666667 -14.826666666666664 10.666666666666666 10.666666666666666 0 0 1 14.719999999999999 -2.88l16 10.666666666666666a10.666666666666666 10.666666666666666 0 0 1 -5.866666666666667 19.52Z" fill="#ffffff" stroke-width="10.6667"></path>
    <path d="m121.70666666666666 46.29333333333333 -2.1333333333333333 0 -26.666666666666664 -5.333333333333333a10.666666666666666 10.666666666666666 0 0 1 -8.32 -12.586666666666666 10.666666666666666 10.666666666666666 0 0 1 12.479999999999999 -8.533333333333333l26.666666666666664 5.333333333333333a10.666666666666666 10.666666666666666 0 0 1 8.426666666666666 12.479999999999999 10.666666666666666 10.666666666666666 0 0 1 -10.453333333333333 8.64Z" fill="#ffffff" stroke-width="10.6667"></path>
    <path d="M215.04 112.96H213.33333333333331l-25.493333333333332 -3.626666666666667a10.666666666666666 10.666666666666666 0 1 1 2.986666666666667 -21.333333333333332l25.493333333333332 3.626666666666667a10.666666666666666 10.666666666666666 0 0 1 -1.4933333333333334 21.333333333333332Z" fill="#ffffff" stroke-width="10.6667"></path>
    <path d="M215.04 155.62666666666667h-25.706666666666667a10.666666666666666 10.666666666666666 0 0 1 0 -21.333333333333332h25.706666666666667a10.666666666666666 10.666666666666666 0 0 1 0 21.333333333333332Z" fill="#ffffff" stroke-width="10.6667"></path>
    <path d="M189.33333333333331 203.30666666666664a10.666666666666666 10.666666666666666 0 0 1 -2.0266666666666664 -21.333333333333332l26.026666666666664 -4.8a10.666666666666666 10.666666666666666 0 0 1 12.479999999999999 8.426666666666666 10.666666666666666 10.666666666666666 0 0 1 -8.426666666666666 12.479999999999999l-26.026666666666664 4.586666666666666Z" fill="#ffffff" stroke-width="10.6667"></path>
    <path d="M156.69333333333333 210.98666666666668a10.666666666666666 10.666666666666666 0 0 1 -10.666666666666666 -10.666666666666666v-106.66666666666666a10.666666666666666 10.666666666666666 0 0 1 21.333333333333332 0v106.66666666666666a10.666666666666666 10.666666666666666 0 0 1 -10.666666666666666 10.666666666666666Z" fill="#ffffff" stroke-width="10.6667"></path>
    <path d="M153.17333333333332 53.86666666666666a13.333333333333332 13.333333333333332 0 1 1 13.333333333333332 -13.333333333333332 13.333333333333332 13.333333333333332 0 0 1 -13.333333333333332 13.333333333333332Z" fill="#ffffff" stroke-width="10.6667"></path>
    <path d="M71.46666666666667 88.96A13.333333333333332 13.333333333333332 0 1 1 85.33333333333333 74.66666666666666a13.546666666666667 13.546666666666667 0 0 1 -13.12 14.293333333333333ZM64 76.05333333333333Z" fill="#ffffff" stroke-width="10.6667"></path>
    <path d="M64.96 131.62666666666667a13.333333333333332 13.333333333333332 0 1 1 12.266666666666666 -18.56 13.653333333333332 13.653333333333332 0 0 1 0 10.666666666666666 13.226666666666667 13.226666666666667 0 0 1 -7.1466666666666665 7.253333333333334 14.719999999999999 14.719999999999999 0 0 1 -5.119999999999999 0.6399999999999999Z" fill="#ffffff" stroke-width="10.6667"></path>
    <path d="m38.50666666666666 81.49333333333333 -2.5599999999999996 0L9.066666666666666 74.66666666666666a10.666666666666666 10.666666666666666 0 0 1 4.906666666666666 -20.69333333333333l26.986666666666665 6.3999999999999995a10.666666666666666 10.666666666666666 0 0 1 -2.453333333333333 21.333333333333332Z" fill="#ffffff" stroke-width="10.6667"></path>
    <path d="M122.24000000000001 101.01333333333334a10.666666666666666 10.666666666666666 0 0 1 -3.1999999999999997 -0.5333333333333333L101.12 94.93333333333334a10.666666666666666 10.666666666666666 0 1 1 6.3999999999999995 -20.266666666666666l17.919999999999998 5.546666666666667a10.666666666666666 10.666666666666666 0 0 1 -3.1999999999999997 21.333333333333332Z" fill="#ffffff" stroke-width="10.6667"></path>
    <path d="M32 128.95999999999998H10.666666666666666a10.666666666666666 10.666666666666666 0 0 1 0 -21.333333333333332h21.333333333333332a10.666666666666666 10.666666666666666 0 0 1 0 21.333333333333332Z" fill="#ffffff" stroke-width="10.6667"></path>
    <path d="M121.06666666666666 134.29333333333332h-1.0666666666666667l-22.72 -2.1333333333333333a10.666666666666666 10.666666666666666 0 0 1 -9.6 -11.626666666666667 10.666666666666666 10.666666666666666 0 0 1 11.626666666666667 -9.6l22.72 2.1333333333333333a10.666666666666666 10.666666666666666 0 0 1 -0.96 21.333333333333332Z" fill="#ffffff" stroke-width="10.6667"></path>
    <path d="M71.46666666666667 227.62666666666667h-0.7466666666666667a13.76 13.76 0 1 1 0.7466666666666667 0ZM64 213.86666666666667Z" fill="#ffffff" stroke-width="10.6667"></path>
    <path d="M64.96 184.95999999999998a13.12 13.12 0 0 1 -5.226666666666667 -1.0666666666666667 13.44 13.44 0 0 1 -7.04 -17.493333333333332 13.12 13.12 0 0 1 7.359999999999999 -7.1466666666666665 12.906666666666666 12.906666666666666 0 0 1 10.666666666666666 0 13.226666666666667 13.226666666666667 0 0 1 7.1466666666666665 7.253333333333334 13.653333333333332 13.653333333333332 0 0 1 0 10.666666666666666 13.44 13.44 0 0 1 -12.906666666666666 7.786666666666666Z" fill="#ffffff" stroke-width="10.6667"></path>
    <path d="M10.666666666666666 236.37333333333333a10.666666666666666 10.666666666666666 0 0 1 -2.453333333333333 -21.333333333333332l28.16 -6.72a10.666666666666666 10.666666666666666 0 0 1 12.799999999999999 7.893333333333333 10.666666666666666 10.666666666666666 0 0 1 -7.893333333333333 12.906666666666666l-28.16 6.72Z" fill="#ffffff" stroke-width="10.6667"></path>
    <path d="M102.72 216.32a10.666666666666666 10.666666666666666 0 0 1 -3.093333333333333 -21.333333333333332l19.413333333333334 -6.186666666666666a10.666666666666666 10.666666666666666 0 0 1 13.44 7.04 10.666666666666666 10.666666666666666 0 0 1 -7.04 13.333333333333332l-19.52 6.079999999999999a10.666666666666666 10.666666666666666 0 0 1 -3.1999999999999997 1.0666666666666667Z" fill="#ffffff" stroke-width="10.6667"></path>
    <path d="M32 182.29333333333332H10.666666666666666a10.666666666666666 10.666666666666666 0 0 1 0 -21.333333333333332h21.333333333333332a10.666666666666666 10.666666666666666 0 0 1 0 21.333333333333332Z" fill="#ffffff" stroke-width="10.6667"></path>
    <path d="M98.98666666666665 178.98666666666668a10.666666666666666 10.666666666666666 0 0 1 -1.0666666666666667 -21.333333333333332l22.08 -2.1333333333333333a10.666666666666666 10.666666666666666 0 0 1 11.626666666666667 9.6 10.666666666666666 10.666666666666666 0 0 1 -9.6 11.626666666666667l-22.08 2.1333333333333333Z" fill="#ffffff" stroke-width="10.6667"></path>
  </g>
</svg>