<svg xmlns="http://www.w3.org/2000/svg" viewBox="0 0 256 256" id="Radiology-Scan-Doctor--Streamline-Ultimate" height="256" width="256">
  <desc>
    Radiology Scan Doctor Streamline Icon: https://streamlinehq.com
  </desc>
  <g id="Radiology-Scan-Doctor--Streamline-Ultimate.svg">
    <path d="M240 0h-106.66666666666666A16 16 0 0 0 117.33333333333333 16v106.66666666666666a16 16 0 0 0 16 16h106.66666666666666a16 16 0 0 0 16 -16v-106.66666666666666A16 16 0 0 0 240 0Zm-4.693333333333333 53.33333333333333a8 8 0 0 1 -5.973333333333334 2.6666666666666665 7.359999999999999 7.359999999999999 0 0 1 -5.333333333333333 -2.1333333333333333l-6.933333333333334 -6.186666666666666 -0.8533333333333333 0a36.05333333333333 36.05333333333333 0 0 0 -10.666666666666666 -1.8133333333333335h-5.119999999999999a5.333333333333333 5.333333333333333 0 0 0 -5.333333333333333 5.333333333333333v5.653333333333333a5.333333333333333 5.333333333333333 0 0 0 4.8 5.226666666666667 51.84 51.84 0 0 1 10.986666666666666 1.92 19.093333333333334 19.093333333333334 0 0 1 5.4399999999999995 2.88l9.493333333333332 7.359999999999999a8 8 0 0 1 -4.906666666666666 14.293333333333333 7.893333333333333 7.893333333333333 0 0 1 -4.906666666666666 -1.7066666666666666l-9.493333333333332 -7.253333333333334a30.72 30.72 0 0 0 -5.4399999999999995 -1.5999999999999999 5.226666666666667 5.226666666666667 0 0 0 -4.373333333333333 1.0666666666666667 5.4399999999999995 5.4399999999999995 0 0 0 -2.0266666666666664 4.16v10.666666666666666a5.333333333333333 5.333333333333333 0 0 0 5.333333333333333 5.333333333333333H202.66666666666666a8 8 0 0 1 0 16h-32a8 8 0 0 1 0 -16h2.6666666666666665a5.333333333333333 5.333333333333333 0 0 0 5.333333333333333 -5.333333333333333v-10.666666666666666a5.653333333333333 5.653333333333333 0 0 0 -1.92 -4.16 5.973333333333334 5.973333333333334 0 0 0 -4.373333333333333 -1.1733333333333333l-4.8 1.2799999999999998 -10.666666666666666 7.68a7.893333333333333 7.893333333333333 0 0 1 -4.906666666666666 1.7066666666666666 8 8 0 0 1 -4.4799999999999995 -13.866666666666667l9.493333333333332 -7.359999999999999a19.093333333333334 19.093333333333334 0 0 1 5.4399999999999995 -3.3066666666666666 51.84 51.84 0 0 1 11.413333333333334 -2.453333333333333 5.333333333333333 5.333333333333333 0 0 0 4.8 -5.226666666666667v-5.653333333333333a5.333333333333333 5.333333333333333 0 0 0 -5.333333333333333 -5.333333333333333h-5.119999999999999a36.05333333333333 36.05333333333333 0 0 0 -10.666666666666666 1.8133333333333335l-0.8533333333333333 0 -7.359999999999999 6.72a7.359999999999999 7.359999999999999 0 0 1 -5.333333333333333 2.1333333333333333A7.893333333333333 7.893333333333333 0 0 1 138.66666666666666 42.666666666666664l6.826666666666666 -6.293333333333333a19.52 19.52 0 0 1 6.613333333333333 -4.373333333333333 48.10666666666666 48.10666666666666 0 0 1 16.106666666666666 -2.6666666666666665h36.906666666666666a49.17333333333333 49.17333333333333 0 0 1 16.21333333333333 2.6666666666666665 20.159999999999997 20.159999999999997 0 0 1 6.506666666666666 3.84L234.66666666666666 42.666666666666664a7.893333333333333 7.893333333333333 0 0 1 0.6399999999999999 10.666666666666666Z" fill="#ffffff" stroke-width="10.6667"></path>
    <path d="M70.82666666666665 97.38666666666667a43.519999999999996 43.519999999999996 0 1 0 -37.76 -0.6399999999999999A50.879999999999995 50.879999999999995 0 0 0 0 144.32v30.4a5.013333333333333 5.013333333333333 0 0 0 1.5999999999999999 3.733333333333333 5.4399999999999995 5.4399999999999995 0 0 0 3.733333333333333 1.5999999999999999h13.12a5.333333333333333 5.333333333333333 0 0 1 5.333333333333333 4.8l6.613333333333333 66.34666666666666a5.333333333333333 5.333333333333333 0 0 0 5.333333333333333 4.8H66.13333333333333a5.333333333333333 5.333333333333333 0 0 0 5.333333333333333 -4.8l6.613333333333333 -66.34666666666666a5.226666666666667 5.226666666666667 0 0 1 5.333333333333333 -4.8h13.12a5.4399999999999995 5.4399999999999995 0 0 0 3.733333333333333 -1.5999999999999999 5.013333333333333 5.013333333333333 0 0 0 1.5999999999999999 -3.733333333333333v-30.4a51.093333333333334 51.093333333333334 0 0 0 -31.04 -46.93333333333334Zm-11.946666666666667 43.626666666666665a8 8 0 1 1 -16 0v-18.026666666666664a8 8 0 1 1 16 0Zm-6.3999999999999995 -60.693333333333335a22.186666666666667 22.186666666666667 0 0 1 -22.08 -22.186666666666667 21.333333333333332 21.333333333333332 0 0 1 0.96 -6.3999999999999995 3.093333333333333 3.093333333333333 0 0 1 1.5999999999999999 -1.7066666666666666 2.986666666666667 2.986666666666667 0 0 1 2.3466666666666667 0A53.33333333333333 53.33333333333333 0 0 0 64 58.13333333333333a65.70666666666666 65.70666666666666 0 0 0 8 0 2.453333333333333 2.453333333333333 0 0 1 2.2399999999999998 0.6399999999999999 3.1999999999999997 3.1999999999999997 0 0 1 0.8533333333333333 2.1333333333333333 22.29333333333333 22.29333333333333 0 0 1 -22.613333333333333 19.413333333333334Z" fill="#ffffff" stroke-width="10.6667"></path>
  </g>
</svg>