<svg xmlns="http://www.w3.org/2000/svg" id="Railroad-Metro--Streamline-Ultimate" width="256" height="256" viewBox="0 0 256 256"><desc>Railroad Metro Streamline Icon: https://streamlinehq.com</desc><path fill="#fff" stroke-width="10.667" d="M255.25333333333333 239.89333333333332 213.86666666666667 138.66666666666666a2.986666666666667 2.986666666666667 0 0 1 0 -1.92 142.61333333333332 142.61333333333332 0 0 0 9.066666666666666 -48.213333333333324 86.08 86.08 0 0 0 -21.333333333333332 -60.8C184.42666666666665 10.666666666666666 160 1.3866666666666667 128 1.3866666666666667S71.57333333333332 10.666666666666666 54.93333333333334 27.733333333333334A86.08 86.08 0 0 0 33.06666666666666 88.53333333333333a142.39999999999998 142.39999999999998 0 0 0 8.853333333333332 47.57333333333333 2.1333333333333333 2.1333333333333333 0 0 1 0 1.8133333333333335L0.7466666666666667 239.89333333333332a10.666666666666666 10.666666666666666 0 0 0 5.973333333333334 13.866666666666667 10.666666666666666 10.666666666666666 0 0 0 3.9466666666666663 0.8533333333333333 10.666666666666666 10.666666666666666 0 0 0 9.92 -6.72l2.0266666666666664 -5.013333333333333a2.5599999999999996 2.5599999999999996 0 0 1 2.453333333333333 -1.5999999999999999h205.86666666666667a2.6666666666666665 2.6666666666666665 0 0 1 2.453333333333333 1.5999999999999999l2.0266666666666664 5.013333333333333a10.666666666666666 10.666666666666666 0 0 0 9.92 6.72 10.666666666666666 10.666666666666666 0 0 0 4.053333333333333 -0.8533333333333333 10.666666666666666 10.666666666666666 0 0 0 5.866666666666667 -13.866666666666667Zm-62.72 -63.25333333333333c2.0266666666666664 -2.6666666666666665 4.053333333333333 -5.546666666666667 5.866666666666667 -8.426666666666666a2.6666666666666665 2.6666666666666665 0 0 1 2.5599999999999996 -1.1733333333333333 2.2399999999999998 2.2399999999999998 0 0 1 2.1333333333333333 1.5999999999999999l3.52 8.64a2.5599999999999996 2.5599999999999996 0 0 1 0 2.453333333333333 2.7733333333333334 2.7733333333333334 0 0 1 -2.2399999999999998 1.1733333333333333h-9.493333333333332a2.6666666666666665 2.6666666666666665 0 0 1 -2.453333333333333 -1.4933333333333334 2.6666666666666665 2.6666666666666665 0 0 1 0.10666666666666666 -2.7733333333333334ZM70.50666666666666 74.66666666666666a8 8 0 0 1 6.826666666666666 -3.733333333333333h101.33333333333333a8 8 0 0 1 6.826666666666666 3.733333333333333 7.786666666666666 7.786666666666666 0 0 1 0 7.786666666666666l-8 16a7.786666666666666 7.786666666666666 0 0 1 -7.1466666666666665 4.4799999999999995H85.33333333333333a8 8 0 0 1 -7.1466666666666665 -4.4799999999999995L70.18666666666667 82.13333333333333a8.426666666666666 8.426666666666666 0 0 1 0.31999999999999995 -7.466666666666666Zm85.33333333333333 109.97333333333333a48.213333333333324 48.213333333333324 0 0 1 -56.213333333333324 0 21.333333333333332 21.333333333333332 0 0 1 -1.3866666666666667 -22.29333333333333A32 32 0 0 1 128 145.38666666666666a32 32 0 0 1 29.546666666666667 16.64 21.333333333333332 21.333333333333332 0 0 1 -1.4933333333333334 22.29333333333333Zm-106.66666666666666 -7.04 3.52 -8.959999999999999a2.7733333333333334 2.7733333333333334 0 0 1 2.2399999999999998 -1.7066666666666666 2.88 2.88 0 0 1 2.5599999999999996 1.2799999999999998c1.92 2.986666666666667 3.9466666666666663 5.973333333333334 6.079999999999999 8.746666666666666a2.453333333333333 2.453333333333333 0 0 1 0 2.7733333333333334 2.453333333333333 2.453333333333333 0 0 1 -2.3466666666666667 1.4933333333333334h-9.706666666666667a2.6666666666666665 2.6666666666666665 0 0 1 -2.2399999999999998 -1.1733333333333333 2.2399999999999998 2.2399999999999998 0 0 1 -0.21333333333333332 -2.7733333333333334Zm173.22666666666663 41.49333333333333a3.093333333333333 3.093333333333333 0 0 1 -2.2399999999999998 1.1733333333333333H35.839999999999996a2.7733333333333334 2.7733333333333334 0 0 1 -2.5599999999999996 -3.733333333333333l5.013333333333333 -12.266666666666666a2.6666666666666665 2.6666666666666665 0 0 1 2.453333333333333 -1.5999999999999999h47.04a2.453333333333333 2.453333333333333 0 0 1 1.4933333333333334 0 74.66666666666666 74.66666666666666 0 0 0 28.906666666666666 11.306666666666667 64.85333333333332 64.85333333333332 0 0 0 19.626666666666665 0A74.66666666666666 74.66666666666666 0 0 0 166.72 202.66666666666666a3.52 3.52 0 0 1 1.4933333333333334 0h46.82666666666666a2.6666666666666665 2.6666666666666665 0 0 1 2.453333333333333 1.7066666666666666l5.013333333333333 12.266666666666666a3.093333333333333 3.093333333333333 0 0 1 -0.21333333333333332 2.1333333333333333Z"/></svg>