<svg xmlns="http://www.w3.org/2000/svg" id="Rain-Umbrella-Sun--Streamline-Ultimate" width="256" height="256" viewBox="0 0 256 256"><desc>Rain Umbrella Sun Streamline Icon: https://streamlinehq.com</desc><g id="Rain-Umbrella-Sun--Streamline-Ultimate.svg"><g><path fill="#fff" stroke-width="10.667" d="M245.33333333333331 82.66666666666666h-10.666666666666666a10.666666666666666 10.666666666666666 0 0 0 0 21.333333333333332h10.666666666666666a10.666666666666666 10.666666666666666 0 0 0 0 -21.333333333333332Z"/><path fill="#fff" stroke-width="10.667" d="M213.33333333333331 53.33333333333333a10.666666666666666 10.666666666666666 0 0 0 7.573333333333332 -3.1999999999999997l7.573333333333332 -7.466666666666666A10.666666666666666 10.666666666666666 0 1 0 213.33333333333331 27.306666666666665l-7.466666666666666 7.573333333333332a10.666666666666666 10.666666666666666 0 0 0 0 15.04A10.666666666666666 10.666666666666666 0 0 0 213.33333333333331 53.33333333333333Z"/><path fill="#fff" stroke-width="10.667" d="M162.66666666666666 32a10.666666666666666 10.666666666666666 0 0 0 10.666666666666666 -10.666666666666666V10.666666666666666a10.666666666666666 10.666666666666666 0 0 0 -21.333333333333332 0v10.666666666666666a10.666666666666666 10.666666666666666 0 0 0 10.666666666666666 10.666666666666666Z"/><path fill="#fff" stroke-width="10.667" d="M97.6 43.30666666666666a10.666666666666666 10.666666666666666 0 0 0 7.466666666666666 3.093333333333333 10.666666666666666 10.666666666666666 0 0 0 7.573333333333332 -3.093333333333333 10.666666666666666 10.666666666666666 0 0 0 0 -15.04l-7.573333333333332 -7.573333333333332a10.666666666666666 10.666666666666666 0 0 0 -15.04 15.04Z"/><path fill="#fff" stroke-width="10.667" d="M225.59999999999997 141.22666666666666a10.666666666666666 10.666666666666666 0 0 0 -15.04 15.04l7.573333333333332 7.573333333333332a10.666666666666666 10.666666666666666 0 0 0 7.466666666666666 3.093333333333333 10.666666666666666 10.666666666666666 0 0 0 7.573333333333332 -3.093333333333333 10.666666666666666 10.666666666666666 0 0 0 0 -15.146666666666665Z"/><path fill="#fff" stroke-width="10.667" d="M74.66666666666666 229.33333333333331a26.666666666666664 26.666666666666664 0 0 0 53.33333333333333 0 10.666666666666666 10.666666666666666 0 0 0 -21.333333333333332 0 5.333333333333333 5.333333333333333 0 0 1 -10.666666666666666 0v-34.666666666666664a2.6666666666666665 2.6666666666666665 0 0 0 -2.6666666666666665 -2.6666666666666665h-16a2.6666666666666665 2.6666666666666665 0 0 0 -2.6666666666666665 2.6666666666666665Z"/><path fill="#fff" stroke-width="10.667" d="M74.66666666666666 89.06666666666666a2.6666666666666665 2.6666666666666665 0 0 1 -2.2399999999999998 2.5599999999999996A85.33333333333333 85.33333333333333 0 0 0 0 176a5.333333333333333 5.333333333333333 0 0 0 5.333333333333333 5.333333333333333h160a5.4399999999999995 5.4399999999999995 0 0 0 5.333333333333333 -4.8v-0.5333333333333333a85.33333333333333 85.33333333333333 0 0 0 -72.42666666666666 -84.37333333333333 2.6666666666666665 2.6666666666666665 0 0 1 -2.2399999999999998 -2.5599999999999996V85.33333333333333a10.666666666666666 10.666666666666666 0 0 0 -1.1733333333333333 -4.906666666666666 10.666666666666666 10.666666666666666 0 0 0 -18.986666666666665 0A10.666666666666666 10.666666666666666 0 0 0 74.66666666666666 85.33333333333333Z"/></g><path fill="#fff" stroke-width="10.667" d="M213.33333333333331 101.12a58.666666666666664 58.666666666666664 0 0 0 -106.66666666666666 -34.026666666666664 2.7733333333333334 2.7733333333333334 0 0 0 0 3.1999999999999997 26.24 26.24 0 0 1 1.8133333333333335 2.88 19.52 19.52 0 0 1 1.4933333333333334 3.413333333333333 2.6666666666666665 2.6666666666666665 0 0 0 1.8133333333333335 1.7066666666666666c2.88 0.8533333333333333 5.76 1.8133333333333335 8.533333333333333 2.88a2.453333333333333 2.453333333333333 0 0 0 3.093333333333333 -0.96 37.33333333333333 37.33333333333333 0 1 1 53.97333333333333 50.239999999999995 2.6666666666666665 2.6666666666666665 0 0 0 -0.7466666666666667 3.1999999999999997 101.54666666666665 101.54666666666665 0 0 1 5.653333333333333 15.04 2.7733333333333334 2.7733333333333334 0 0 0 1.5999999999999999 1.7066666666666666 2.5599999999999996 2.5599999999999996 0 0 0 2.3466666666666667 0A58.56 58.56 0 0 0 213.33333333333331 101.12Z"/></g></svg>