<svg xmlns="http://www.w3.org/2000/svg" id="Rain-Umbrella-1--Streamline-Ultimate" width="256" height="256" viewBox="0 0 256 256"><desc>Rain Umbrella 1 Streamline Icon: https://streamlinehq.com</desc><g id="Rain-Umbrella-1--Streamline-Ultimate.svg"><path fill="#fff" stroke-width="10.667" d="M121.16906666666667 221.01866666666666c-0.7466666666666667 -0.40746666666666664 -1.6501333333333332 -0.40746666666666664 -2.3978666666666664 0 -0.7242666666666666 0.44266666666666665 -1.1605333333333332 1.2362666666666666 -1.1466666666666665 2.0853333333333333v19.911466666666666c0 8.024533333333332 8.687999999999999 13.04 15.637333333333332 9.028266666666667 3.2256 -1.8624 5.2128 -5.3045333333333335 5.2128 -9.028266666666667v-19.59893333333333c0 -0.8202666666666666 -0.38613333333333333 -1.5925333333333331 -1.0421333333333331 -2.0853333333333333 -0.7477333333333332 -0.40746666666666664 -1.6511999999999998 -0.40746666666666664 -2.3978666666666664 0 -4.4959999999999996 1.5253333333333332 -9.369599999999998 1.5253333333333332 -13.8656 0Z"/><path fill="#fff" stroke-width="10.667" d="M117.72906666666667 65.79306666666666v3.335466666666666c-0.035199999999999995 1.3088 -0.9994666666666667 2.405333333333333 -2.293333333333333 2.606933333333333C52.86826666666667 79.1584 6.321066666666667 133.12426666666664 8.164266666666666 196.10346666666663v5.2128c0 2.8778666666666664 2.3338666666666663 5.211733333333333 5.211733333333333 5.211733333333333 2.878933333333333 0 5.2128 -2.3338666666666663 5.2128 -5.211733333333333 0 -8.6528 9.3824 -15.637333333333332 20.850133333333332 -15.637333333333332s20.849066666666666 6.984533333333333 20.849066666666666 15.637333333333332c0 2.8778666666666664 2.3338666666666663 5.211733333333333 5.2128 5.211733333333333 2.878933333333333 0 5.211733333333333 -2.3338666666666663 5.211733333333333 -5.211733333333333 0 -8.444799999999999 11.989333333333335 -15.637333333333332 26.062933333333334 -15.637333333333332s26.061866666666663 7.1925333333333334 26.061866666666663 15.637333333333332c0 2.8778666666666664 2.3338666666666663 5.211733333333333 5.211733333333333 5.211733333333333 2.878933333333333 0 5.2128 -2.3338666666666663 5.2128 -5.211733333333333 0 -8.444799999999999 11.988266666666664 -15.637333333333332 26.061866666666663 -15.637333333333332s26.061866666666663 7.1925333333333334 26.061866666666663 15.637333333333332c0 2.8778666666666664 2.3338666666666663 5.211733333333333 5.2128 5.211733333333333 2.878933333333333 0 5.2128 -2.3338666666666663 5.2128 -5.211733333333333 0 -8.6528 9.3824 -15.637333333333332 20.849066666666666 -15.637333333333332s20.850133333333332 6.984533333333333 20.850133333333332 15.637333333333332c0 2.8778666666666664 2.3338666666666663 5.211733333333333 5.211733333333333 5.211733333333333 2.878933333333333 0 5.2128 -2.3338666666666663 5.2128 -5.211733333333333v-5.2128c1.9029333333333334 -62.925866666666664 -44.553599999999996 -116.89173333333333 -107.0624 -124.368 -1.2736 -0.23786666666666667 -2.219733333333333 -1.3141333333333334 -2.293333333333333 -2.606933333333333v-3.335466666666666c0 -8.025599999999999 -8.687999999999999 -13.041066666666666 -15.637333333333332 -9.028266666666667 -3.2256 1.8624 -5.2128 5.303466666666666 -5.2128 9.028266666666667Z"/><path fill="#fff" stroke-width="10.667" d="M8.789333333333332 54.2208c1.442133333333333 0.7722666666666667 3.0559999999999996 1.1669333333333332 4.6912 1.1477333333333333 3.925333333333333 -0.012799999999999999 7.511466666666667 -2.2282666666666664 9.277866666666666 -5.734399999999999l15.637333333333332 -31.274666666666665c4.1376 -6.875733333333333 -0.72 -15.652266666666666 -8.743466666666666 -15.797333333333334 -4.277333333333333 -0.0768 -8.167466666666666 2.466133333333333 -9.812266666666666 6.414933333333334L4.2026666666666666 40.251733333333334c-2.5738666666666665 5.125333333333333 -0.5247999999999999 11.367466666666667 4.586666666666666 13.969066666666667Z"/><path fill="#fff" stroke-width="10.667" d="M79.99146666666667 54.2208c1.442133333333333 0.7722666666666667 3.0559999999999996 1.1669333333333332 4.6912 1.1477333333333333 3.9626666666666663 0.026666666666666665 7.598933333333333 -2.1952 9.3824 -5.734399999999999l15.637333333333332 -31.274666666666665c2.558933333333333 -5.153066666666666 0.4597333333333333 -11.404799999999998 -4.6912 -13.969066666666667 -5.125333333333333 -2.5738666666666665 -11.367466666666667 -0.5247999999999999 -13.969066666666667 4.586666666666666l-15.637333333333332 31.274666666666665c-2.574933333333333 5.125333333333333 -0.5247999999999999 11.367466666666667 4.586666666666666 13.969066666666667Z"/><path fill="#fff" stroke-width="10.667" d="M151.29706666666667 54.2208c1.4389333333333332 0.7807999999999999 3.054933333333333 1.1765333333333332 4.6912 1.1477333333333333 3.925333333333333 -0.012799999999999999 7.511466666666667 -2.2282666666666664 9.277866666666666 -5.734399999999999l15.637333333333332 -31.274666666666665c2.5738666666666665 -5.125333333333333 0.5247999999999999 -11.367466666666667 -4.586666666666666 -13.969066666666667 -5.150933333333333 -2.6442666666666668 -11.469866666666665 -0.5845333333333333 -14.073599999999999 4.586666666666666l-15.637333333333332 31.274666666666665c-2.558933333333333 5.153066666666666 -0.4597333333333333 11.405866666666665 4.6912 13.969066666666667Z"/><path fill="#fff" stroke-width="10.667" d="M222.4992 54.2208c1.442133333333333 0.7722666666666667 3.0559999999999996 1.1669333333333332 4.6912 1.1477333333333333 3.925333333333333 -0.012799999999999999 7.511466666666667 -2.2282666666666664 9.277866666666666 -5.734399999999999l15.637333333333332 -31.274666666666665c3.0848 -7.4079999999999995 -3.006933333333333 -15.378133333333333 -10.965333333333334 -14.3456 -3.1552 0.40959999999999996 -5.9509333333333325 2.2367999999999997 -7.591466666666666 4.9632l-15.637333333333332 31.274666666666665c-2.5738666666666665 5.125333333333333 -0.5237333333333333 11.367466666666667 4.5877333333333326 13.969066666666667Z"/></g></svg>