<svg xmlns="http://www.w3.org/2000/svg" viewBox="0 0 256 256" id="Ranking-People-First--Streamline-Ultimate" height="256" width="256">
  <desc>
    Ranking People First Streamline Icon: https://streamlinehq.com
  </desc>
  <g id="Ranking-People-First--Streamline-Ultimate.svg">
    <path d="M8.746666666666666 99.73333333333332a30.4 30.4 0 1 0 60.8 0 30.4 30.4 0 1 0 -60.8 0" fill="#ffffff" stroke-width="10.6667"></path>
    <path d="M5.653333333333333 157.33333333333331h66.98666666666666a5.4399999999999995 5.4399999999999995 0 0 0 4.8 -2.986666666666667 5.226666666666667 5.226666666666667 0 0 0 -0.7466666666666667 -5.653333333333333 47.57333333333333 47.57333333333333 0 0 0 -37.54666666666667 -18.026666666666664 48 48 0 0 0 -37.54666666666667 18.026666666666664 5.226666666666667 5.226666666666667 0 0 0 -0.7466666666666667 5.653333333333333 5.4399999999999995 5.4399999999999995 0 0 0 4.8 2.986666666666667Z" fill="#ffffff" stroke-width="10.6667"></path>
    <path d="M129.27999999999997 74.66666666666666a30.4 30.4 0 1 0 -30.4 -30.93333333333333A30.506666666666664 30.506666666666664 0 0 0 129.27999999999997 74.66666666666666Z" fill="#ffffff" stroke-width="10.6667"></path>
    <path d="M90.34666666666666 104h77.75999999999999a5.333333333333333 5.333333333333333 0 0 0 4.8 -2.986666666666667 5.226666666666667 5.226666666666667 0 0 0 -0.6399999999999999 -5.653333333333333 54.93333333333334 54.93333333333334 0 0 0 -42.666666666666664 -20.586666666666666 54.93333333333334 54.93333333333334 0 0 0 -42.666666666666664 20.586666666666666 5.4399999999999995 5.4399999999999995 0 0 0 -1.5999999999999999 5.653333333333333 5.333333333333333 5.333333333333333 0 0 0 5.013333333333333 2.986666666666667Z" fill="#ffffff" stroke-width="10.6667"></path>
    <path d="M186.45333333333332 99.73333333333332a30.4 30.4 0 1 0 60.8 0 30.4 30.4 0 1 0 -60.8 0" fill="#ffffff" stroke-width="10.6667"></path>
    <path d="M183.46666666666664 157.33333333333331h66.88a5.333333333333333 5.333333333333333 0 0 0 4.8 -2.986666666666667 5.4399999999999995 5.4399999999999995 0 0 0 -0.6399999999999999 -5.653333333333333 48 48 0 0 0 -37.65333333333333 -18.026666666666664 48.10666666666666 48.10666666666666 0 0 0 -37.54666666666667 18.026666666666664 5.226666666666667 5.226666666666667 0 0 0 -0.6399999999999999 5.653333333333333 5.333333333333333 5.333333333333333 0 0 0 4.8 2.986666666666667Z" fill="#ffffff" stroke-width="10.6667"></path>
    <path d="M245.33333333333331 173.33333333333331h-69.33333333333333a5.333333333333333 5.333333333333333 0 0 1 -5.333333333333333 -5.333333333333333v-37.33333333333333a10.666666666666666 10.666666666666666 0 0 0 -10.666666666666666 -10.666666666666666H96a10.666666666666666 10.666666666666666 0 0 0 -10.666666666666666 10.666666666666666v37.33333333333333a5.333333333333333 5.333333333333333 0 0 1 -5.333333333333333 5.333333333333333H10.666666666666666a10.666666666666666 10.666666666666666 0 0 0 -10.666666666666666 10.666666666666666v48a10.666666666666666 10.666666666666666 0 0 0 10.666666666666666 10.666666666666666h234.66666666666666a10.666666666666666 10.666666666666666 0 0 0 10.666666666666666 -10.666666666666666v-48a10.666666666666666 10.666666666666666 0 0 0 -10.666666666666666 -10.666666666666666Z" fill="#ffffff" stroke-width="10.6667"></path>
  </g>
</svg>