<svg xmlns="http://www.w3.org/2000/svg" id="Ranking-Stars-Ribbon--Streamline-Ultimate" width="256" height="256" viewBox="0 0 256 256"><desc>Ranking Stars Ribbon Streamline Icon: https://streamlinehq.com</desc><g id="Ranking-Stars-Ribbon--Streamline-Ultimate.svg"><path fill="#fff" stroke-width="10.667" d="M58.56 234.66666666666666a21.333333333333332 21.333333333333332 0 0 1 -19.946666666666665 -14.293333333333333l-5.866666666666667 -16.21333333333333a2.88 2.88 0 0 0 -1.4933333333333334 -1.4933333333333334 2.7733333333333334 2.7733333333333334 0 0 0 -2.2399999999999998 0 61.01333333333333 61.01333333333333 0 0 1 -23.68 5.333333333333333 5.226666666666667 5.226666666666667 0 0 0 -5.119999999999999 3.9466666666666663 5.333333333333333 5.333333333333333 0 0 0 2.3466666666666667 5.973333333333334l22.506666666666664 13.44 -8.533333333333333 16.96a5.4399999999999995 5.4399999999999995 0 0 0 0 5.119999999999999A5.546666666666667 5.546666666666667 0 0 0 21.333333333333332 256c5.119999999999999 0 44.373333333333335 0 52.05333333333333 -21.333333333333332a2.88 2.88 0 0 0 -0.8533333333333333 -2.986666666666667 2.7733333333333334 2.7733333333333334 0 0 0 -3.093333333333333 0 21.333333333333332 21.333333333333332 0 0 1 -10.879999999999999 2.986666666666667Z"/><path fill="#fff" stroke-width="10.667" d="M250.66666666666666 208a61.01333333333333 61.01333333333333 0 0 1 -23.68 -5.333333333333333 2.7733333333333334 2.7733333333333334 0 0 0 -2.2399999999999998 0 2.88 2.88 0 0 0 -1.4933333333333334 1.4933333333333334l-5.866666666666667 16.21333333333333A21.333333333333332 21.333333333333332 0 0 1 198.50666666666666 234.66666666666666a21.333333333333332 21.333333333333332 0 0 1 -12.053333333333331 -2.986666666666667 2.6666666666666665 2.6666666666666665 0 0 0 -3.84 3.1999999999999997c7.466666666666666 21.333333333333332 46.93333333333334 21.333333333333332 52.05333333333333 21.333333333333332a5.546666666666667 5.546666666666667 0 0 0 4.586666666666666 -2.5599999999999996 5.4399999999999995 5.4399999999999995 0 0 0 0 -5.119999999999999l-8.533333333333333 -16.96 22.506666666666664 -13.44a5.333333333333333 5.333333333333333 0 0 0 2.3466666666666667 -5.973333333333334 5.226666666666667 5.226666666666667 0 0 0 -4.906666666666666 -4.16Z"/><path fill="#fff" stroke-width="10.667" d="M192.53333333333333 215.67999999999998a5.4399999999999995 5.4399999999999995 0 0 0 4.8 2.986666666666667 5.333333333333333 5.333333333333333 0 0 0 5.013333333333333 -3.52l18.346666666666664 -50.45333333333333a15.893333333333333 15.893333333333333 0 0 0 -7.359999999999999 -19.413333333333334 177.06666666666666 177.06666666666666 0 0 0 -85.33333333333333 -22.613333333333333 177.06666666666666 177.06666666666666 0 0 0 -85.33333333333333 22.613333333333333 15.893333333333333 15.893333333333333 0 0 0 -7.1466666666666665 19.413333333333334L53.33333333333333 215.14666666666668a5.333333333333333 5.333333333333333 0 0 0 4.693333333333333 3.52 5.546666666666667 5.546666666666667 0 0 0 5.973333333333334 -2.88c0 -1.1733333333333333 14.933333333333332 -29.119999999999997 64 -29.119999999999997s64 27.946666666666665 64.53333333333333 29.013333333333335Z"/><path fill="#fff" stroke-width="10.667" d="M61.01333333333333 120.74666666666667a9.173333333333332 9.173333333333332 0 0 0 2.986666666666667 -10.666666666666666l-5.013333333333333 -13.226666666666667a2.6666666666666665 2.6666666666666665 0 0 1 0.7466666666666667 -2.986666666666667l10.666666666666666 -8.64A9.173333333333332 9.173333333333332 0 0 0 64 69.01333333333332H52.05333333333333a2.5599999999999996 2.5599999999999996 0 0 1 -2.453333333333333 -1.8133333333333335l-4.16 -12.799999999999999a9.066666666666666 9.066666666666666 0 0 0 -17.386666666666663 0l-4.16 12.799999999999999a2.6666666666666665 2.6666666666666665 0 0 1 -2.5599999999999996 1.8133333333333335H9.173333333333332A9.28 9.28 0 0 0 0.5333333333333333 74.66666666666666a9.386666666666667 9.386666666666667 0 0 0 2.7733333333333334 10.666666666666666l10.666666666666666 8.64a2.5599999999999996 2.5599999999999996 0 0 1 0.8533333333333333 2.986666666666667l-5.333333333333333 13.333333333333332a8.959999999999999 8.959999999999999 0 0 0 2.986666666666667 10.666666666666666 9.173333333333332 9.173333333333332 0 0 0 10.666666666666666 0l11.84 -8.426666666666666a2.453333333333333 2.453333333333333 0 0 1 3.093333333333333 0l11.84 8.426666666666666a9.173333333333332 9.173333333333332 0 0 0 11.093333333333334 -0.21333333333333332Z"/><path fill="#fff" stroke-width="10.667" d="M101.01333333333334 56a2.7733333333333334 2.7733333333333334 0 0 1 0.8533333333333333 2.986666666666667l-6.826666666666666 18.133333333333333a10.133333333333333 10.133333333333333 0 0 0 15.36 11.733333333333334l16 -11.413333333333334a2.7733333333333334 2.7733333333333334 0 0 1 3.093333333333333 0l16 11.413333333333334a9.92 9.92 0 0 0 11.946666666666667 0 10.666666666666666 10.666666666666666 0 0 0 3.413333333333333 -11.626666666666667l-6.826666666666666 -18.133333333333333a2.5599999999999996 2.5599999999999996 0 0 1 0.7466666666666667 -2.986666666666667l14.186666666666667 -11.84a10.133333333333333 10.133333333333333 0 0 0 -6.506666666666666 -17.813333333333333h-16.746666666666666a2.6666666666666665 2.6666666666666665 0 0 1 -2.5599999999999996 -1.92L137.49333333333334 7.04A9.813333333333333 9.813333333333333 0 0 0 128 0a10.026666666666666 10.026666666666666 0 0 0 -9.6 7.04l-5.653333333333333 17.386666666666663a2.453333333333333 2.453333333333333 0 0 1 -2.453333333333333 1.92H93.33333333333333a10.026666666666666 10.026666666666666 0 0 0 -6.3999999999999995 17.813333333333333Z"/><path fill="#fff" stroke-width="10.667" d="m205.86666666666667 120.96 11.84 -8.426666666666666a2.453333333333333 2.453333333333333 0 0 1 3.093333333333333 0l11.84 8.426666666666666a9.173333333333332 9.173333333333332 0 0 0 10.666666666666666 0 8.959999999999999 8.959999999999999 0 0 0 2.986666666666667 -10.666666666666666l-5.013333333333333 -13.44a2.6666666666666665 2.6666666666666665 0 0 1 0.7466666666666667 -2.986666666666667l10.666666666666666 -8.64a9.173333333333332 9.173333333333332 0 0 0 -5.866666666666667 -16.21333333333333H234.66666666666666a2.6666666666666665 2.6666666666666665 0 0 1 -2.5599999999999996 -1.8133333333333335l-4.16 -12.799999999999999a9.066666666666666 9.066666666666666 0 0 0 -17.386666666666663 0l-4.16 12.799999999999999a2.5599999999999996 2.5599999999999996 0 0 1 -2.453333333333333 1.8133333333333335H192A9.173333333333332 9.173333333333332 0 0 0 185.81333333333333 85.33333333333333l10.666666666666666 8.64a2.6666666666666665 2.6666666666666665 0 0 1 0.7466666666666667 2.986666666666667L192 110.29333333333332a9.173333333333332 9.173333333333332 0 0 0 13.866666666666667 10.666666666666666Z"/></g></svg>