<svg xmlns="http://www.w3.org/2000/svg" id="Rating-Star-Ribbon--Streamline-Ultimate" width="256" height="256" viewBox="0 0 256 256"><desc>Rating Star Ribbon Streamline Icon: https://streamlinehq.com</desc><path fill="#fff" stroke-width="10.667" d="M208 0h-160a21.333333333333332 21.333333333333332 0 0 0 -21.333333333333332 21.333333333333332v213.33333333333331a21.333333333333332 21.333333333333332 0 0 0 32.959999999999994 17.919999999999998l66.88 -43.30666666666666a2.5599999999999996 2.5599999999999996 0 0 1 2.986666666666667 0l66.88 43.30666666666666a21.333333333333332 21.333333333333332 0 0 0 21.866666666666664 0.8533333333333333 21.333333333333332 21.333333333333332 0 0 0 10.666666666666666 -18.773333333333333V21.333333333333332a21.333333333333332 21.333333333333332 0 0 0 -20.906666666666666 -21.333333333333332Zm-42.666666666666664 144.10666666666665a3.626666666666667 3.626666666666667 0 0 1 -0.96 4.266666666666667 3.52 3.52 0 0 1 -4.266666666666667 0l-30.4 -17.066666666666666a2.7733333333333334 2.7733333333333334 0 0 0 -2.5599999999999996 0L96 149.33333333333331a3.52 3.52 0 0 1 -4.266666666666667 0 3.626666666666667 3.626666666666667 0 0 1 -0.96 -4.266666666666667l12.479999999999999 -28.8a2.7733333333333334 2.7733333333333334 0 0 0 -0.6399999999999999 -3.093333333333333l-21.333333333333332 -19.093333333333334a3.84 3.84 0 0 1 -1.0666666666666667 -4.16 3.733333333333333 3.733333333333333 0 0 1 3.52 -2.3466666666666667h25.493333333333332a2.6666666666666665 2.6666666666666665 0 0 0 2.6666666666666665 -2.2399999999999998l12.693333333333332 -29.439999999999998a3.733333333333333 3.733333333333333 0 0 1 6.826666666666666 0L144.10666666666665 85.33333333333333a2.6666666666666665 2.6666666666666665 0 0 0 2.453333333333333 1.5999999999999999h25.493333333333332a3.733333333333333 3.733333333333333 0 0 1 3.52 2.3466666666666667 3.84 3.84 0 0 1 -1.0666666666666667 4.16l-21.333333333333332 19.093333333333334a2.7733333333333334 2.7733333333333334 0 0 0 -0.6399999999999999 3.093333333333333Z"/></svg>