<svg xmlns="http://www.w3.org/2000/svg" id="Read-Email-Monitor--Streamline-Ultimate" width="256" height="256" viewBox="0 0 256 256"><desc>Read Email Monitor Streamline Icon: https://streamlinehq.com</desc><g id="Read-Email-Monitor--Streamline-Ultimate.svg"><path fill="#fff" stroke-width="10.667" d="M240 0h-224A16 16 0 0 0 0 16v170.66666666666666A16 16 0 0 0 16 202.66666666666666h224a16 16 0 0 0 16 -16v-170.66666666666666A16 16 0 0 0 240 0ZM234.66666666666666 154.66666666666666a5.333333333333333 5.333333333333333 0 0 1 -5.333333333333333 5.333333333333333h-202.66666666666666a5.333333333333333 5.333333333333333 0 0 1 -5.333333333333333 -5.333333333333333v-128a5.333333333333333 5.333333333333333 0 0 1 5.333333333333333 -5.333333333333333h202.66666666666666a5.333333333333333 5.333333333333333 0 0 1 5.333333333333333 5.333333333333333Z"/><path fill="#fff" stroke-width="10.667" d="M153.06666666666666 220.58666666666664a5.4399999999999995 5.4399999999999995 0 0 0 -3.733333333333333 -1.92h-42.666666666666664a5.653333333333333 5.653333333333333 0 0 0 -4.053333333333333 1.92l-22.4 26.986666666666665a5.226666666666667 5.226666666666667 0 0 0 0 5.546666666666667A5.119999999999999 5.119999999999999 0 0 0 85.33333333333333 256h85.33333333333333a5.4399999999999995 5.4399999999999995 0 0 0 4.373333333333333 -8.426666666666666Z"/><path fill="#fff" stroke-width="10.667" d="M190.9333333333333 78.18666666666667a2.3466666666666667 2.3466666666666667 0 0 0 -2.2399999999999998 0L140.90666666666667 104.53333333333333a19.626666666666665 19.626666666666665 0 0 1 -20.479999999999997 0L72.63999999999999 78.29333333333332a2.1333333333333333 2.1333333333333333 0 0 0 -3.3066666666666666 1.8133333333333335v40.42666666666666a12.906666666666666 12.906666666666666 0 0 0 12.906666666666666 12.799999999999999h96.85333333333332A12.906666666666666 12.906666666666666 0 0 0 192 120.53333333333333V80.10666666666665a2.3466666666666667 2.3466666666666667 0 0 0 -1.0666666666666667 -1.92Z"/><path fill="#fff" stroke-width="10.667" d="M179.0933333333333 48H82.24A12.906666666666666 12.906666666666666 0 0 0 69.33333333333333 60.8l57.6 32a6.506666666666666 6.506666666666666 0 0 0 6.826666666666666 0l57.6 -32a12.906666666666666 12.906666666666666 0 0 0 -12.266666666666666 -12.799999999999999Z"/></g></svg>