<svg xmlns="http://www.w3.org/2000/svg" viewBox="0 0 256 256" id="Read-Email-At-1--Streamline-Ultimate" height="256" width="256">
  <desc>
    Read Email At 1 Streamline Icon: https://streamlinehq.com
  </desc>
  <g id="Read-Email-At-1--Streamline-Ultimate.svg">
    <path d="M128 103.35999999999999a30.08 30.08 0 1 0 29.759999999999998 29.973333333333333A29.866666666666664 29.866666666666664 0 0 0 128 103.35999999999999Z" fill="#ffffff" stroke-width="10.6667"></path>
    <path d="M128 0a128 128 0 1 0 128 128A128 128 0 0 0 128 0Zm59.413333333333334 166.72c15.68 0 23.786666666666665 -19.733333333333334 23.786666666666665 -39.14666666666666a75.84 75.84 0 0 0 -19.84 -51.199999999999996 89.91999999999999 89.91999999999999 0 0 0 -67.94666666666666 -25.706666666666667 79.14666666666666 79.14666666666666 0 0 0 -78.08 80 78.82666666666665 78.82666666666665 0 0 0 77.33333333333333 80 75.30666666666666 75.30666666666666 0 0 0 38.50666666666666 -10.666666666666666 8 8 0 1 1 8.213333333333333 13.333333333333332 91.2 91.2 0 0 1 -46.72 12.906666666666666 94.82666666666667 94.82666666666667 0 0 1 -93.33333333333333 -96 95.25333333333333 95.25333333333333 0 0 1 94.08 -96A104 104 0 0 1 202.66666666666666 65.49333333333333 91.94666666666666 91.94666666666666 0 0 1 227.2 128c0 32 -16.746666666666666 55.14666666666666 -39.78666666666666 55.14666666666666a27.839999999999996 27.839999999999996 0 0 1 -25.813333333333333 -13.333333333333332 2.7733333333333334 2.7733333333333334 0 0 0 -1.8133333333333335 -1.2799999999999998 2.453333333333333 2.453333333333333 0 0 0 -2.2399999999999998 0.5333333333333333 45.01333333333333 45.01333333333333 0 0 1 -29.226666666666667 10.666666666666666 46.08 46.08 0 0 1 0 -92.05333333333334 44.693333333333335 44.693333333333335 0 0 1 25.493333333333332 8 2.6666666666666665 2.6666666666666665 0 0 0 2.7733333333333334 0 2.5599999999999996 2.5599999999999996 0 0 0 1.4933333333333334 -2.3466666666666667v-6.613333333333333a8 8 0 1 1 16 0v69.12c0 7.1466666666666665 4.4799999999999995 10.879999999999999 13.333333333333332 10.879999999999999Z" fill="#ffffff" stroke-width="10.6667"></path>
  </g>
</svg>