<svg xmlns="http://www.w3.org/2000/svg" id="Receipt--Streamline-Ultimate" width="256" height="256" viewBox="0 0 256 256"><desc>Receipt Streamline Icon: https://streamlinehq.com</desc><path fill="#fff" stroke-width="10.667" d="M256 13.226666666666667a10.666666666666666 10.666666666666666 0 0 0 -10.666666666666666 -10.666666666666666H112.85333333333332c-14.506666666666668 0 -21.333333333333332 13.546666666666667 -21.333333333333332 26.346666666666668A1049.6 1049.6 0 0 1 82.13333333333333 170.66666666666666a2.6666666666666665 2.6666666666666665 0 0 1 -2.5599999999999996 2.2399999999999998h-32c-21.333333333333332 0 -23.68 22.08 -24.959999999999997 35.199999999999996C21.333333333333332 229.12 18.453333333333333 232 10.666666666666666 232a10.666666666666666 10.666666666666666 0 1 0 0 21.333333333333332h122.66666666666666c25.386666666666663 0 29.013333333333335 -25.173333333333332 31.146666666666665 -40.10666666666666 1.8133333333333335 -12.586666666666666 3.1999999999999997 -18.56 6.186666666666666 -18.56h4.373333333333333a2.6666666666666665 2.6666666666666665 0 0 1 2.5599999999999996 1.8133333333333335c0.6399999999999999 2.0266666666666664 1.2799999999999998 4.8 1.7066666666666666 6.826666666666666 2.1333333333333333 10.026666666666666 5.973333333333334 28.69333333333333 28.69333333333333 28.69333333333333 43.413333333333334 0 48 -123.09333333333332 48 -175.78666666666666l0 -42.986666666666665ZM128.64 144a8 8 0 0 1 0 -16h64a8 8 0 0 1 0 16Zm-2.6666666666666665 -93.33333333333333a8 8 0 0 1 8 -8h21.333333333333332a8 8 0 1 1 0 16h-21.333333333333332a8 8 0 0 1 -8 -8Zm72 50.666666666666664h-61.33333333333333a8 8 0 0 1 0 -16h61.33333333333333a8 8 0 0 1 0 16Zm-54.72 108.79999999999998c-2.6666666666666665 18.88 -4.8 21.866666666666664 -10.026666666666666 21.866666666666664H43.84a2.986666666666667 2.986666666666667 0 0 1 -2.1333333333333333 -1.0666666666666667 2.7733333333333334 2.7733333333333334 0 0 1 0 -2.2399999999999998 110.29333333333332 110.29333333333332 0 0 0 2.88 -18.026666666666664 49.17333333333333 49.17333333333333 0 0 1 2.986666666666667 -15.893333333333333h96a2.6666666666666665 2.6666666666666665 0 0 1 2.5599999999999996 3.3066666666666666c-1.7066666666666666 4.586666666666666 -2.3466666666666667 8.32 -2.88 12.053333333333331Z"/></svg>