<svg xmlns="http://www.w3.org/2000/svg" viewBox="0 0 256 256" id="Receipt-Dollar--Streamline-Ultimate" height="256" width="256">
  <desc>
    Receipt Dollar Streamline Icon: https://streamlinehq.com
  </desc>
  <path d="M218.66666666666666 18.24A10.666666666666666 10.666666666666666 0 0 0 200.42666666666665 10.666666666666666l-6.506666666666666 6.613333333333333a2.88 2.88 0 0 1 -3.84 0L178.24 5.333333333333333a10.666666666666666 10.666666666666666 0 0 0 -15.146666666666665 0l-11.84 11.946666666666667a2.88 2.88 0 0 1 -3.84 0L135.57333333333332 5.333333333333333a10.666666666666666 10.666666666666666 0 0 0 -15.146666666666665 0l-11.84 11.946666666666667a2.88 2.88 0 0 1 -3.84 0L92.90666666666667 5.333333333333333a10.666666666666666 10.666666666666666 0 0 0 -15.146666666666665 0L65.91999999999999 17.28a2.88 2.88 0 0 1 -3.84 0L55.57333333333333 10.666666666666666a10.666666666666666 10.666666666666666 0 0 0 -18.24 7.573333333333332v219.51999999999998a10.666666666666666 10.666666666666666 0 0 0 18.24 7.573333333333332l6.506666666666666 -6.613333333333333a2.88 2.88 0 0 1 3.84 0l11.84 11.946666666666667a10.666666666666666 10.666666666666666 0 0 0 15.146666666666665 0l11.84 -11.946666666666667a2.88 2.88 0 0 1 3.84 0l11.84 11.946666666666667a10.666666666666666 10.666666666666666 0 0 0 15.146666666666665 0l11.84 -11.946666666666667a2.88 2.88 0 0 1 3.84 0l11.84 11.946666666666667a10.666666666666666 10.666666666666666 0 0 0 15.146666666666665 0l11.84 -11.946666666666667a2.88 2.88 0 0 1 3.84 0l6.506666666666666 6.613333333333333a10.666666666666666 10.666666666666666 0 0 0 18.24 -7.573333333333332Zm-75.41333333333333 157.54666666666665a8.106666666666666 8.106666666666666 0 0 1 2.453333333333333 -10.666666666666666 7.893333333333333 7.893333333333333 0 0 1 10.666666666666666 2.453333333333333 13.546666666666667 13.546666666666667 0 0 0 11.306666666666667 6.186666666666666 13.333333333333332 13.333333333333332 0 0 0 0 -26.666666666666664 29.333333333333332 29.333333333333332 0 0 1 -3.3066666666666666 -58.45333333333333 2.7733333333333334 2.7733333333333334 0 0 0 2.7733333333333334 -3.3066666666666666v-3.52a8 8 0 0 1 16 0v8.853333333333332a2.6666666666666665 2.6666666666666665 0 0 0 1.1733333333333333 2.2399999999999998 30.08 30.08 0 0 1 8.64 8.959999999999999 8 8 0 0 1 -2.5599999999999996 10.666666666666666 8.106666666666666 8.106666666666666 0 0 1 -10.666666666666666 -2.5599999999999996 13.333333333333332 13.333333333333332 0 1 0 -11.306666666666667 20.37333333333333 29.333333333333332 29.333333333333332 0 0 1 3.3066666666666666 58.45333333333333 2.7733333333333334 2.7733333333333334 0 0 0 -2.453333333333333 2.6666666666666665v3.733333333333333a8 8 0 0 1 -16 0v-8.959999999999999a2.453333333333333 2.453333333333333 0 0 0 -1.1733333333333333 -2.1333333333333333 30.93333333333333 30.93333333333333 0 0 1 -8.853333333333332 -8.32Zm-31.253333333333334 -29.119999999999997H74.66666666666666a8 8 0 0 1 0 -16h37.33333333333333a8 8 0 0 1 0 16Zm2.6666666666666665 34.666666666666664a8.106666666666666 8.106666666666666 0 0 1 -8 8H74.66666666666666a8 8 0 0 1 0 -16h32a8.106666666666666 8.106666666666666 0 0 1 8 8Zm-2.6666666666666665 -77.33333333333333H74.66666666666666a8 8 0 0 1 0 -16h37.33333333333333a8 8 0 0 1 0 16Z" fill="#ffffff" stroke-width="10.6667"></path>
</svg>