<svg xmlns="http://www.w3.org/2000/svg" viewBox="0 0 256 256" id="Reflect-Left--Streamline-Ultimate" height="256" width="256">
  <desc>
    Reflect Left Streamline Icon: https://streamlinehq.com
  </desc>
  <g id="Reflect-Left--Streamline-Ultimate.svg">
    <path d="M128 85.33333333333333a10.666666666666666 10.666666666666666 0 0 0 -10.666666666666666 10.666666666666666v149.33333333333331a10.666666666666666 10.666666666666666 0 0 0 21.333333333333332 0V96a10.666666666666666 10.666666666666666 0 0 0 -10.666666666666666 -10.666666666666666Z" fill="#ffffff" stroke-width="10.6667"></path>
    <path d="m234.02666666666667 92.26666666666667 -67.09333333333333 67.09333333333333a15.893333333333333 15.893333333333333 0 0 0 0 22.613333333333333l67.09333333333333 67.09333333333333A12.479999999999999 12.479999999999999 0 0 0 256 240v-138.66666666666666a12.479999999999999 12.479999999999999 0 0 0 -21.973333333333333 -9.066666666666666ZM234.66666666666666 213.33333333333331a2.6666666666666665 2.6666666666666665 0 0 1 -4.586666666666666 1.92l-42.666666666666664 -42.666666666666664a2.6666666666666665 2.6666666666666665 0 0 1 0 -3.84l42.666666666666664 -42.666666666666664A2.6666666666666665 2.6666666666666665 0 0 1 234.66666666666666 128Z" fill="#ffffff" stroke-width="10.6667"></path>
    <path d="M21.973333333333333 92.26666666666667A12.479999999999999 12.479999999999999 0 0 0 0 101.33333333333333v138.66666666666666a12.479999999999999 12.479999999999999 0 0 0 21.973333333333333 9.066666666666666l67.09333333333333 -67.09333333333333a15.893333333333333 15.893333333333333 0 0 0 0 -22.613333333333333Z" fill="#ffffff" stroke-width="10.6667"></path>
    <path d="m106.66666666666666 41.70666666666666 -8.106666666666666 -1.8133333333333335a2.5599999999999996 2.5599999999999996 0 0 1 -1.92 -1.8133333333333335 2.3466666666666667 2.3466666666666667 0 0 1 0.7466666666666667 -2.5599999999999996A52.48 52.48 0 0 1 133.33333333333331 21.333333333333332a53.33333333333333 53.33333333333333 0 0 1 53.33333333333333 53.33333333333333 10.666666666666666 10.666666666666666 0 0 0 21.333333333333332 0A74.66666666666666 74.66666666666666 0 0 0 72 32a2.6666666666666665 2.6666666666666665 0 0 1 -2.6666666666666665 1.0666666666666667l-14.826666666666664 -3.1999999999999997A10.666666666666666 10.666666666666666 0 0 0 42.666666666666664 45.01333333333333l17.173333333333332 34.45333333333333A10.666666666666666 10.666666666666666 0 0 0 74.66666666666666 83.62666666666667l35.093333333333334 -22.506666666666664A10.666666666666666 10.666666666666666 0 0 0 106.66666666666666 41.70666666666666Z" fill="#ffffff" stroke-width="10.6667"></path>
  </g>
</svg>