<svg xmlns="http://www.w3.org/2000/svg" id="Reflect-Down--Streamline-Ultimate" width="256" height="256" viewBox="0 0 256 256"><desc>Reflect Down Streamline Icon: https://streamlinehq.com</desc><g id="Reflect-Down--Streamline-Ultimate.svg"><path fill="#fff" stroke-width="10.667" d="M162.66666666666666 117.33333333333333h-149.33333333333331a10.666666666666666 10.666666666666666 0 0 0 0 21.333333333333332h149.33333333333331a10.666666666666666 10.666666666666666 0 0 0 0 -21.333333333333332Z"/><path fill="#fff" stroke-width="10.667" d="M152 2.6666666666666665h-128a12.373333333333331 12.373333333333331 0 0 0 -12.693333333333332 7.1466666666666665 12.373333333333331 12.373333333333331 0 0 0 3.9466666666666663 14.08L74.66666666666666 83.41333333333333a18.773333333333333 18.773333333333333 0 0 0 26.453333333333333 0l59.519999999999996 -59.519999999999996a12.479999999999999 12.479999999999999 0 0 0 4.053333333333333 -14.08 12.479999999999999 12.479999999999999 0 0 0 -12.693333333333332 -7.1466666666666665Z"/><path fill="#fff" stroke-width="10.667" d="M101.22666666666666 172.58666666666664a18.56 18.56 0 0 0 -26.453333333333333 0l-59.519999999999996 59.519999999999996a12.266666666666666 12.266666666666666 0 0 0 -3.9466666666666663 14.08 12.373333333333331 12.373333333333331 0 0 0 12.693333333333332 7.1466666666666665h138.66666666666666a7.893333333333333 7.893333333333333 0 0 0 7.359999999999999 -4.906666666666666 8 8 0 0 0 -1.7066666666666666 -8.746666666666666Z"/><path fill="#fff" stroke-width="10.667" d="M253.33333333333331 122.66666666666666a74.66666666666666 74.66666666666666 0 0 0 -74.66666666666666 -74.66666666666666 10.666666666666666 10.666666666666666 0 0 0 0 21.333333333333332 53.33333333333333 53.33333333333333 0 0 1 37.013333333333335 91.62666666666667 2.6666666666666665 2.6666666666666665 0 0 1 -2.7733333333333334 0.6399999999999999 2.7733333333333334 2.7733333333333334 0 0 1 -1.7066666666666666 -2.2399999999999998l-0.5333333333333333 -5.226666666666667a5.333333333333333 5.333333333333333 0 0 0 -9.386666666666667 -2.88l-26.666666666666664 32a4.693333333333333 4.693333333333333 0 0 0 -1.1733333333333333 4.16 4.906666666666666 4.906666666666666 0 0 0 2.2399999999999998 3.626666666666667l32 21.333333333333332a5.226666666666667 5.226666666666667 0 0 0 2.986666666666667 0.96 5.119999999999999 5.119999999999999 0 0 0 2.7733333333333334 -0.7466666666666667 5.4399999999999995 5.4399999999999995 0 0 0 2.5599999999999996 -5.119999999999999l-1.8133333333333335 -17.386666666666663a2.5599999999999996 2.5599999999999996 0 0 1 1.3866666666666667 -2.5599999999999996 74.66666666666666 74.66666666666666 0 0 0 37.76 -64.85333333333332Z"/></g></svg>