<svg xmlns="http://www.w3.org/2000/svg" fill="none" viewBox="0 0 256 256" id="Remote-Access--Streamline-Ultimate" height="256" width="256">
  <desc>
    Remote Access Streamline Icon: https://streamlinehq.com
  </desc>
  <path fill="#ffffff" fill-rule="evenodd" d="M57.08672 24.376106666666665C60.43264 19.334933333333332 65.94239999999999 15.466666666666665 73.30976 15.466666666666665H182.6901333333333c3.223466666666667 0 6.386133333333333 1.0253866666666664 8.983466666666665 2.4299733333333333 2.6346666666666665 1.4251733333333334 5.3141333333333325 3.5779199999999998 7.239466666666666 6.479466666666667 0.0928 0.13909333333333332 0.18026666666666663 0.28117333333333333 0.2645333333333333 0.42581333333333327l19.8464 34.39818666666666H98.66656c-7.3699200000000005 0 -12.893866666666668 3.8518399999999997 -16.256426666666666 8.895679999999999 -0.07498666666666666 0.11253333333333333 -0.1472 0.22698666666666667 -0.21642666666666666 0.3432533333333333L55.84671999999999 112.66453333333334 30.15328 71.02474666666666l26.669653333333333 -46.22282666666666c0.08341333333333334 -0.14464 0.17141333333333333 -0.28672 0.2637866666666666 -0.42581333333333327ZM21.068266666666666 86.77045333333332 2.769781333333333 118.48426666666667c-3.693042133333333 5.7696000000000005 -3.693042133333333 13.261866666666666 0 19.031466666666667l54.053152 93.68213333333333c0.08341333333333334 0.14506666666666665 0.17141333333333333 0.2869333333333333 0.2637866666666666 0.42666666666666664 3.34592 5.041066666666667 8.85568 8.9088 16.223039999999997 8.9088h50.239039999999996l26.107733333333332 -43.73333333333333H98.66656c-7.3699200000000005 0 -12.893866666666668 -3.851733333333333 -16.256426666666666 -8.895999999999999 -0.07498666666666666 -0.112 -0.1472 -0.22613333333333333 -0.21642666666666666 -0.3423999999999999l-29.834666666666667 -50.08 -31.290773333333334 -50.711146666666664ZM142.18239999999997 240.53333333333333h40.507733333333334c7.367466666666666 0 12.8768 -3.867733333333333 16.22293333333333 -8.9088 0.0928 -0.13973333333333332 0.18026666666666663 -0.28159999999999996 0.2645333333333333 -0.42666666666666664l54.05226666666667 -93.68213333333333c3.6938666666666666 -5.7696000000000005 3.6938666666666666 -13.261866666666666 0 -19.031466666666667L228.256 75.20010666666667h-50.422399999999996l25.751466666666666 43.224426666666666c3.7535999999999996 5.797333333333333 3.7535999999999996 13.3536 0 19.150933333333334l-29.779199999999996 49.986133333333335 -0.0031999999999999997 0.005333333333333333 -31.620266666666666 52.9664ZM66.00810666666666 129.13279999999997l-0.7584 -1.2298666666666667c0.30218666666666666 -0.34986666666666666 0.5781333333333333 -0.7306666666666667 0.82304 -1.1413333333333333l29.743039999999997 -49.9264c0.46698666666666666 -0.66528 0.9154133333333332 -1.0444799999999999 1.2817066666666665 -1.2582399999999998 0.35445333333333334 -0.20672000000000001 0.8263466666666666 -0.3768533333333333 1.5690666666666666 -0.3768533333333333h60.72224c0.17386666666666664 0.48789333333333335 0.39679999999999993 0.9660799999999999 0.6719999999999999 1.4277333333333333l29.866666666666664 50.13376c0.06933333333333333 0.11626666666666666 0.14079999999999998 0.2304 0.2165333333333333 0.3423999999999999 0.3413333333333333 0.5130666666666666 0.3413333333333333 1.2789333333333333 0 1.792 -0.07573333333333333 0.112 -0.1472 0.22719999999999999 -0.2165333333333333 0.34346666666666664l-29.863466666666667 50.12693333333333 -0.0031999999999999997 0.0063999999999999994 -0.9685333333333334 1.6213333333333333c-0.5664 -0.12693333333333334 -1.1551999999999998 -0.19413333333333332 -1.7589333333333332 -0.19413333333333332H98.66656c-0.7427199999999999 0 -1.2146133333333333 -0.1696 -1.5690666666666666 -0.3765333333333333 -0.36629333333333336 -0.21439999999999998 -0.81472 -0.5930666666666666 -1.2817066666666665 -1.2586666666666666l-29.743039999999997 -49.925333333333334 0.0008533333333333333 -0.0010666666666666667 -0.06549333333333332 -0.1056ZM106.93333333333334 128c0 -11.9296 9.670399999999999 -21.59989333333333 21.599999999999998 -21.59989333333333 11.9296 0 21.599999999999998 9.670293333333333 21.599999999999998 21.59989333333333 0 11.9296 -9.670399999999999 21.599999999999998 -21.599999999999998 21.599999999999998 -11.9296 0 -21.599999999999998 -9.670399999999999 -21.599999999999998 -21.599999999999998Z" clip-rule="evenodd" stroke-width="10.6667"></path>
</svg>