<svg xmlns="http://www.w3.org/2000/svg" id="Remove-Bold--Streamline-Ultimate" width="256" height="256" viewBox="0 0 256 256"><desc>Remove Bold Streamline Icon: https://streamlinehq.com</desc><path fill="#fff" stroke-width="10.667" d="M241.70666666666665 59.519999999999996a16 16 0 0 0 0 -22.613333333333333l-22.613333333333333 -22.613333333333333a15.893333333333333 15.893333333333333 0 0 0 -22.613333333333333 0l-66.56 66.56a2.88 2.88 0 0 1 -3.84 0L59.519999999999996 14.293333333333333a15.893333333333333 15.893333333333333 0 0 0 -22.613333333333333 0L14.293333333333333 36.906666666666666a16 16 0 0 0 0 22.613333333333333l66.56 66.56a2.6666666666666665 2.6666666666666665 0 0 1 0 3.84l-66.56 66.56a16 16 0 0 0 0 22.613333333333333l22.613333333333333 22.613333333333333a15.893333333333333 15.893333333333333 0 0 0 22.613333333333333 0l66.56 -66.56a2.88 2.88 0 0 1 3.84 0l66.56 66.56a15.68 15.68 0 0 0 11.306666666666667 4.693333333333333 15.466666666666665 15.466666666666665 0 0 0 11.306666666666667 -4.693333333333333l22.613333333333333 -22.613333333333333a16 16 0 0 0 0 -22.613333333333333l-66.56 -66.56a2.6666666666666665 2.6666666666666665 0 0 1 0 -3.84Z"/></svg>