<svg xmlns="http://www.w3.org/2000/svg" viewBox="0 0 256 256" id="Responsive-Design--Streamline-Ultimate" height="256" width="256">
  <desc>
    Responsive Design Streamline Icon: https://streamlinehq.com
  </desc>
  <g id="Responsive-Design--Streamline-Ultimate.svg">
    <path d="M218.66666666666666 136a10.666666666666666 10.666666666666666 0 0 0 10.666666666666666 -10.666666666666666V75.62666666666667A27.199999999999996 27.199999999999996 0 0 0 202.66666666666666 48H98.66666666666666a10.666666666666666 10.666666666666666 0 0 0 0 21.333333333333332H202.66666666666666a5.866666666666667 5.866666666666667 0 0 1 5.333333333333333 6.293333333333333v49.70666666666666a10.666666666666666 10.666666666666666 0 0 0 10.666666666666666 10.666666666666666Z" fill="#ffffff" stroke-width="10.6667"></path>
    <path d="M114.66666666666666 202.66666666666666a2.6666666666666665 2.6666666666666665 0 0 1 2.6666666666666665 2.6666666666666665v16a2.6666666666666665 2.6666666666666665 0 0 1 -2.6666666666666665 2.6666666666666665H96a10.666666666666666 10.666666666666666 0 0 0 0 21.333333333333332h61.33333333333333a10.666666666666666 10.666666666666666 0 0 0 0 -21.333333333333332h-16a2.6666666666666665 2.6666666666666665 0 0 1 -2.6666666666666665 -2.6666666666666665v-16a2.6666666666666665 2.6666666666666665 0 0 1 2.6666666666666665 -2.6666666666666665h21.333333333333332a5.333333333333333 5.333333333333333 0 0 0 5.333333333333333 -5.333333333333333v-13.333333333333332a5.333333333333333 5.333333333333333 0 0 0 -5.333333333333333 -5.333333333333333H53.33333333333333a5.333333333333333 5.333333333333333 0 0 1 -5.333333333333333 -5.333333333333333v-42.666666666666664a10.666666666666666 10.666666666666666 0 0 0 -21.333333333333332 0v44.373333333333335A27.199999999999996 27.199999999999996 0 0 0 53.33333333333333 202.66666666666666Z" fill="#ffffff" stroke-width="10.6667"></path>
    <path d="M19.52 104h35.626666666666665a17.28 17.28 0 0 0 16.85333333333333 -17.493333333333332V20.159999999999997A17.28 17.28 0 0 0 55.14666666666666 2.6666666666666665H19.52A17.28 17.28 0 0 0 2.6666666666666665 20.159999999999997v66.34666666666666a17.28 17.28 0 0 0 16.85333333333333 17.493333333333332Zm-0.8533333333333333 -83.84c0 -0.96 0.5333333333333333 -1.4933333333333334 0.8533333333333333 -1.4933333333333334h35.626666666666665s0.8533333333333333 0.5333333333333333 0.8533333333333333 1.4933333333333334v66.34666666666666c0 0.96 0 1.4933333333333334 -0.8533333333333333 1.4933333333333334H19.52s-0.8533333333333333 -0.5333333333333333 -0.8533333333333333 -1.4933333333333334Z" fill="#ffffff" stroke-width="10.6667"></path>
    <path d="M200.8533333333333 152a17.28 17.28 0 0 0 -16.85333333333333 17.493333333333332v67.84a16.426666666666666 16.426666666666666 0 0 0 16.85333333333333 16h35.626666666666665a16.426666666666666 16.426666666666666 0 0 0 16.85333333333333 -16v-67.84a17.28 17.28 0 0 0 -16.85333333333333 -17.493333333333332Zm36.48 17.493333333333332V224a2.6666666666666665 2.6666666666666665 0 0 1 -2.6666666666666665 2.6666666666666665h-32a2.6666666666666665 2.6666666666666665 0 0 1 -2.6666666666666665 -2.6666666666666665v-54.50666666666667c0 -0.96 0.5333333333333333 -1.4933333333333334 0.8533333333333333 -1.4933333333333334h35.626666666666665s0.8533333333333333 0.5333333333333333 0.8533333333333333 1.4933333333333334Z" fill="#ffffff" stroke-width="10.6667"></path>
  </g>
</svg>