<svg xmlns="http://www.w3.org/2000/svg" viewBox="0 0 256 256" id="Responsive-Design-Hand--Streamline-Ultimate" height="256" width="256">
  <desc>
    Responsive Design Hand Streamline Icon: https://streamlinehq.com
  </desc>
  <g id="Responsive-Design-Hand--Streamline-Ultimate.svg">
    <path d="M176 128a2.6666666666666665 2.6666666666666665 0 0 0 -2.6666666666666665 2.6666666666666665V170.66666666666666a10.666666666666666 10.666666666666666 0 0 0 10.666666666666666 10.666666666666666h5.333333333333333a32 32 0 0 0 32 -32v-18.666666666666664a2.6666666666666665 2.6666666666666665 0 0 0 -2.6666666666666665 -2.6666666666666665Z" fill="#ffffff" stroke-width="10.6667"></path>
    <path d="M141.22666666666666 144a16 16 0 0 0 -32 0V224a2.6666666666666665 2.6666666666666665 0 0 1 -1.7066666666666666 2.5599999999999996 2.88 2.88 0 0 1 -2.986666666666667 -0.8533333333333333l-13.653333333333332 -16.32a10.666666666666666 10.666666666666666 0 0 0 -8.426666666666666 -3.84h-10.666666666666666a10.666666666666666 10.666666666666666 0 0 0 -8.959999999999999 5.119999999999999 10.026666666666666 10.026666666666666 0 0 0 0 10.666666666666666l18.24 33.28a2.7733333333333334 2.7733333333333334 0 0 0 2.3466666666666667 1.3866666666666667h114.24000000000001a2.7733333333333334 2.7733333333333334 0 0 0 2.6666666666666665 -2.2399999999999998l4.906666666666666 -32.74666666666666a10.026666666666666 10.026666666666666 0 0 0 -6.293333333333333 -10.666666666666666l-55.89333333333333 -20.05333333333333a2.7733333333333334 2.7733333333333334 0 0 1 -1.8133333333333335 -2.5599999999999996Z" fill="#ffffff" stroke-width="10.6667"></path>
    <path d="M248 21.333333333333332a21.333333333333332 21.333333333333332 0 0 0 -21.333333333333332 -21.333333333333332h-32a21.333333333333332 21.333333333333332 0 0 0 -21.333333333333332 21.333333333333332v69.33333333333333a21.333333333333332 21.333333333333332 0 0 0 21.333333333333332 21.333333333333332h32a21.333333333333332 21.333333333333332 0 0 0 21.333333333333332 -21.333333333333332Zm-58.666666666666664 2.6666666666666665A2.6666666666666665 2.6666666666666665 0 0 1 192 21.333333333333332h37.33333333333333a2.6666666666666665 2.6666666666666665 0 0 1 2.6666666666666665 2.6666666666666665v58.666666666666664a2.6666666666666665 2.6666666666666665 0 0 1 -2.6666666666666665 2.6666666666666665H192a2.6666666666666665 2.6666666666666665 0 0 1 -2.6666666666666665 -2.6666666666666665Z" fill="#ffffff" stroke-width="10.6667"></path>
    <path d="M77.33333333333333 181.33333333333331a10.666666666666666 10.666666666666666 0 0 0 0 -21.333333333333332h-16a5.333333333333333 5.333333333333333 0 0 1 -5.333333333333333 -5.333333333333333v-96a5.333333333333333 5.333333333333333 0 0 1 5.333333333333333 -5.333333333333333h80a10.666666666666666 10.666666666666666 0 0 0 0 -21.333333333333332h-101.33333333333333a32 32 0 0 0 -32 32v85.33333333333333a32 32 0 0 0 32 32Z" fill="#ffffff" stroke-width="10.6667"></path>
  </g>
</svg>