<svg xmlns="http://www.w3.org/2000/svg" id="Reward-Stars-2--Streamline-Ultimate" width="256" height="256" viewBox="0 0 256 256"><desc>Reward Stars 2 Streamline Icon: https://streamlinehq.com</desc><g id="Reward-Stars-2--Streamline-Ultimate.svg"><path fill="#fff" stroke-width="10.667" d="M222.07999999999998 135.2128c8.046933333333332 0 13.076266666666665 -8.711466666666666 9.0528 -15.68 -1.8677333333333332 -3.2341333333333333 -5.3184 -5.226666666666667 -9.0528 -5.226666666666667 -64.60159999999999 -1.4634666666666665 -94.08 -31.36 -94.08 -94.08 0 -5.7728 -4.680533333333333 -10.453333333333333 -10.453333333333333 -10.453333333333333 -5.7728 0 -10.453333333333333 4.680533333333333 -10.453333333333333 10.453333333333333 0 63.242666666666665 -30.21013333333333 93.13919999999999 -94.08 94.08 -8.046933333333332 0 -13.076266666666665 8.711466666666666 -9.0528 15.68 1.8677333333333332 3.2341333333333333 5.3184 5.226666666666667 9.0528 5.226666666666667 63.347199999999994 0 93.13919999999999 29.89653333333333 94.08 94.08 0 5.773866666666667 4.679466666666666 10.453333333333333 10.453333333333333 10.453333333333333 5.7728 0 10.453333333333333 -4.680533333333333 10.453333333333333 -10.453333333333333 3.2405333333333335 -64.49706666666665 32.928 -94.08 93.4528 -94.08Z"/><path fill="#fff" stroke-width="10.667" d="M180.47573333333332 42.3872h13.066666666666666v13.066666666666666c0 6.0352 6.533333333333333 9.806933333333333 11.76 6.7893333333333326 2.4255999999999998 -1.4005333333333332 3.92 -3.9882666666666666 3.92 -6.7893333333333326v-13.066666666666666h13.066666666666666c6.0352 0 9.806933333333333 -6.533333333333333 6.7893333333333326 -11.76 -1.4005333333333332 -2.4255999999999998 -3.9882666666666666 -3.92 -6.7893333333333326 -3.92h-13.066666666666666v-13.066666666666666c0 -6.0352 -6.533333333333333 -9.806933333333333 -11.76 -6.7893333333333326 -2.4255999999999998 1.4005333333333332 -3.92 3.9882666666666666 -3.92 6.7893333333333326v13.066666666666666h-13.066666666666666c-6.0352 0 -9.806933333333333 6.533333333333333 -6.7893333333333326 11.76 1.4005333333333332 2.4255999999999998 3.9882666666666666 3.92 6.7893333333333326 3.92Z"/><path fill="#fff" stroke-width="10.667" d="M245.59999999999997 213.6128H232.53333333333333v-13.066666666666666c0 -6.0352 -6.533333333333333 -9.806933333333333 -11.76 -6.7893333333333326 -2.4255999999999998 1.4005333333333332 -3.92 3.9882666666666666 -3.92 6.7893333333333326v13.066666666666666h-13.066666666666666c-6.0352 0 -9.806933333333333 6.533333333333333 -6.7893333333333326 11.76 1.4005333333333332 2.4255999999999998 3.9882666666666666 3.92 6.7893333333333326 3.92h13.066666666666666v13.066666666666666c0 6.0352 6.533333333333333 9.806933333333333 11.76 6.7893333333333326 2.4255999999999998 -1.4005333333333332 3.92 -3.9882666666666666 3.92 -6.7893333333333326v-13.066666666666666h13.066666666666666c6.0352 0 9.806933333333333 -6.533333333333333 6.7893333333333326 -11.76 -1.4005333333333332 -2.4255999999999998 -3.9882666666666666 -3.92 -6.7893333333333326 -3.92Z"/></g></svg>