<svg xmlns="http://www.w3.org/2000/svg" fill="none" viewBox="0 0 256 256" id="Reward-Stars-4--Streamline-Ultimate" height="256" width="256">
  <desc>
    Reward Stars 4 Streamline Icon: https://streamlinehq.com
  </desc>
  <path fill="#ffffff" fill-rule="evenodd" d="M128 0c5.8911999999999995 0 10.666666666666666 4.775626666666666 10.666666666666666 10.666666666666666v10.666666666666666c0 5.890986666666667 -4.7754666666666665 10.666666666666666 -10.666666666666666 10.666666666666666s-10.666666666666666 -4.7756799999999995 -10.666666666666666 -10.666666666666666V10.666666666666666c0 -5.89104 4.7754666666666665 -10.666666666666666 10.666666666666666 -10.666666666666666Zm-7.717333333333333 51.22645333333333c0.9493333333333333 -3.4794666666666663 4.1109333333333336 -5.89312 7.717333333333333 -5.89312s6.767999999999999 2.4136533333333334 7.717333333333333 5.89312c5.635199999999999 20.639466666666664 11.970133333333333 33.94965333333333 21.85813333333333 43.98698666666667 9.947733333333332 10.098559999999999 24.270933333333332 17.67936 47.54346666666667 25.17162666666667 3.3056 1.0645333333333333 5.547733333333333 4.1408 5.547733333333333 7.614933333333333s-2.2421333333333333 6.5504 -5.547733333333333 7.614933333333333c-23.27253333333333 7.492266666666667 -37.59573333333333 15.073066666666666 -47.54346666666667 25.1712 -9.888 10.037333333333333 -16.22293333333333 23.348266666666664 -21.85813333333333 43.9872 -0.9493333333333333 3.4794666666666663 -4.1109333333333336 5.893333333333333 -7.717333333333333 5.893333333333333s-6.767999999999999 -2.4138666666666664 -7.717333333333333 -5.893333333333333c-5.635199999999999 -20.638933333333334 -11.970133333333333 -33.949866666666665 -21.857599999999998 -43.9872 -9.947733333333332 -10.098133333333333 -24.271679999999996 -17.678933333333333 -47.54346666666667 -25.1712C47.57504 134.5504 45.33333333333333 131.47413333333333 45.33333333333333 128s2.2417066666666665 -6.5504 5.548266666666667 -7.614933333333333c23.271786666666664 -7.492266666666667 37.59573333333333 -15.073066666666666 47.54346666666667 -25.17162666666667 9.887466666666667 -10.037333333333333 16.2224 -23.347519999999996 21.857599999999998 -43.98698666666667ZM138.66666666666666 234.66666666666666c0 -5.8911999999999995 -4.7754666666666665 -10.666666666666666 -10.666666666666666 -10.666666666666666s-10.666666666666666 4.7754666666666665 -10.666666666666666 10.666666666666666v10.666666666666666c0 5.8911999999999995 4.7754666666666665 10.666666666666666 10.666666666666666 10.666666666666666s10.666666666666666 -4.7754666666666665 10.666666666666666 -10.666666666666666v-10.666666666666666Zm117.33333333333333 -106.66666666666666c0 5.8911999999999995 -4.7754666666666665 10.666666666666666 -10.666666666666666 10.666666666666666h-10.666666666666666c-5.8911999999999995 0 -10.666666666666666 -4.7754666666666665 -10.666666666666666 -10.666666666666666s4.7754666666666665 -10.666666666666666 10.666666666666666 -10.666666666666666h10.666666666666666c5.8911999999999995 0 10.666666666666666 4.7754666666666665 10.666666666666666 10.666666666666666ZM21.333333333333332 138.66666666666666c5.890986666666667 0 10.666666666666666 -4.7754666666666665 10.666666666666666 -10.666666666666666s-4.7756799999999995 -10.666666666666666 -10.666666666666666 -10.666666666666666H10.666666666666666c-5.89104 0 -10.666666666666666 4.7754666666666665 -10.666666666666666 10.666666666666666s4.775626666666666 10.666666666666666 10.666666666666666 10.666666666666666h10.666666666666666Zm199.5424 -103.54250666666667c4.165333333333333 4.165653333333333 4.165333333333333 10.91936 0 15.085013333333332l-32 32c-4.165333333333333 4.165546666666666 -10.919466666666667 4.165546666666666 -15.084799999999998 0 -4.165333333333333 -4.165653333333333 -4.165333333333333 -10.91936 0 -15.085013333333332l32 -32c4.165333333333333 -4.165546666666666 10.919466666666667 -4.165546666666666 15.084799999999998 0ZM35.124159999999996 50.20917333333333c-4.165546666666666 -4.165653333333333 -4.165546666666666 -10.91936 0 -15.085013333333332 4.165653333333333 -4.165546666666666 10.91936 -4.165546666666666 15.085013333333332 0l32 32c4.165546666666666 4.165653333333333 4.165546666666666 10.91936 0 15.085013333333332 -4.165653333333333 4.165546666666666 -10.91936 4.165546666666666 -15.085013333333332 0l-32 -32Zm0 170.66656c-4.165546666666666 -4.165333333333333 -4.165546666666666 -10.919466666666667 0 -15.084799999999998l32 -32c4.165653333333333 -4.165333333333333 10.91936 -4.165333333333333 15.085013333333332 0 4.165546666666666 4.165333333333333 4.165546666666666 10.919466666666667 0 15.084799999999998l-32 32c-4.165653333333333 4.165333333333333 -10.91936 4.165333333333333 -15.085013333333332 0Zm185.75157333333334 -15.084799999999998c4.165333333333333 4.165333333333333 4.165333333333333 10.919466666666667 0 15.084799999999998 -4.165333333333333 4.165333333333333 -10.919466666666667 4.165333333333333 -15.084799999999998 0l-32 -32c-4.165333333333333 -4.165333333333333 -4.165333333333333 -10.919466666666667 0 -15.084799999999998 4.165333333333333 -4.165333333333333 10.919466666666667 -4.165333333333333 15.084799999999998 0l32 32Z" clip-rule="evenodd" stroke-width="10.6667"></path>
</svg>