<svg xmlns="http://www.w3.org/2000/svg" id="Right-Click-Mouse--Streamline-Ultimate" width="256" height="256" fill="none" viewBox="0 0 256 256"><desc>Right Click Mouse Streamline Icon: https://streamlinehq.com</desc><path fill="#fff" fill-rule="evenodd" stroke-width="10.667" d="M135.4581333333333 25.0256c-5.575466666666667 -1.90176 -8.5536 -7.963306666666666 -6.6517333333333335 -13.538986666666666 1.9018666666666664 -5.575637333333333 7.963733333333334 -8.553941333333333 13.539200000000001 -6.652224C189.23946666666666 20.828693333333334 222.98986666666667 65.25749333333333 222.98986666666667 117.59679999999999c0 5.8911999999999995 -4.7754666666666665 10.666666666666666 -10.666666666666666 10.666666666666666s-10.666666666666666 -4.7754666666666665 -10.666666666666666 -10.666666666666666c0 -42.93525333333333 -27.678933333333333 -79.43338666666666 -66.19839999999999 -92.57119999999999ZM33 116.82773333333333c0 -36.26848 27.29664 -66.16106666666667 62.46624 -70.25461333333332v63.57194666666666c0 22.09173333333333 17.908693333333332 40 40.00042666666666 40h38.99733333333333V181.01333333333332c0 39.06453333333333 -31.667199999999998 70.73173333333332 -70.73194666666666 70.73173333333332 -39.06421333333333 0 -70.73205333333333 -31.667199999999998 -70.73205333333333 -70.73173333333332v-64.1856Zm141.464 0v17.31733333333333H135.46666666666664c-13.255466666666665 0 -24 -10.744533333333333 -24 -24V46.513279999999995c35.425066666666666 3.8525866666666664 62.99733333333333 33.86346666666667 62.99733333333333 70.31445333333333Z" clip-rule="evenodd"/></svg>