<svg xmlns="http://www.w3.org/2000/svg" viewBox="0 0 256 256" id="Road-Straight--Streamline-Ultimate" height="256" width="256">
  <desc>
    Road Straight Streamline Icon: https://streamlinehq.com
  </desc>
  <path d="m253.01333333333332 245.33333333333331 -74.66666666666666 -240A8 8 0 0 0 170.66666666666666 0h-29.333333333333332a2.6666666666666665 2.6666666666666665 0 0 0 -2.6666666666666665 2.6666666666666665V16a10.666666666666666 10.666666666666666 0 0 1 -21.333333333333332 0V2.6666666666666665a2.6666666666666665 2.6666666666666665 0 0 0 -2.6666666666666665 -2.6666666666666665H85.33333333333333a8 8 0 0 0 -7.68 5.653333333333333L2.986666666666667 245.33333333333331a7.68 7.68 0 0 0 1.2799999999999998 7.04 7.68 7.68 0 0 0 6.3999999999999995 3.626666666666667h104a2.6666666666666665 2.6666666666666665 0 0 0 2.6666666666666665 -2.6666666666666665V213.33333333333331a10.666666666666666 10.666666666666666 0 0 1 21.333333333333332 0v40a2.6666666666666665 2.6666666666666665 0 0 0 2.6666666666666665 2.6666666666666665H245.33333333333331a8.106666666666666 8.106666666666666 0 0 0 7.68 -10.666666666666666ZM128 45.33333333333333a10.666666666666666 10.666666666666666 0 0 1 10.666666666666666 10.666666666666666V80a10.666666666666666 10.666666666666666 0 0 1 -21.333333333333332 0V56a10.666666666666666 10.666666666666666 0 0 1 10.666666666666666 -10.666666666666666Zm0 130.66666666666666a10.666666666666666 10.666666666666666 0 0 1 -10.666666666666666 -10.666666666666666V128a10.666666666666666 10.666666666666666 0 0 1 21.333333333333332 0v37.33333333333333a10.666666666666666 10.666666666666666 0 0 1 -10.666666666666666 10.666666666666666Z" fill="#ffffff" stroke-width="10.6667"></path>
</svg>