<svg xmlns="http://www.w3.org/2000/svg" id="Road-Tunnel--Streamline-Ultimate" width="256" height="256" viewBox="0 0 256 256"><desc>Road Tunnel Streamline Icon: https://streamlinehq.com</desc><g id="Road-Tunnel--Streamline-Ultimate.svg"><path fill="#fff" stroke-width="10.667" d="M128 0A128 128 0 0 0 2.6666666666666665 130.66666666666666v106.66666666666666a18.773333333333333 18.773333333333333 0 0 0 4.693333333333333 12.373333333333331 8 8 0 0 0 5.973333333333334 2.6666666666666665 7.1466666666666665 7.1466666666666665 0 0 0 5.973333333333334 -2.6666666666666665l82.66666666666666 -92.37333333333333a8.106666666666666 8.106666666666666 0 0 0 2.0266666666666664 -5.333333333333333v-26.666666666666664c0 -14.613333333333333 7.466666666666666 -29.333333333333332 24 -29.333333333333332s24 14.719999999999999 24 29.333333333333332v26.666666666666664a8.106666666666666 8.106666666666666 0 0 0 2.0266666666666664 5.333333333333333l82.66666666666666 92.37333333333333a8 8 0 0 0 5.973333333333334 2.6666666666666665 8 8 0 0 0 5.973333333333334 -2.6666666666666665 18.773333333333333 18.773333333333333 0 0 0 4.693333333333333 -12.373333333333331v-106.66666666666666A128 128 0 0 0 128 0Z"/><path fill="#fff" stroke-width="10.667" d="M128 218.66666666666666a10.666666666666666 10.666666666666666 0 0 0 -10.666666666666666 10.666666666666666V245.33333333333331a10.666666666666666 10.666666666666666 0 0 0 21.333333333333332 0v-16a10.666666666666666 10.666666666666666 0 0 0 -10.666666666666666 -10.666666666666666Z"/><path fill="#fff" stroke-width="10.667" d="M128 168a10.666666666666666 10.666666666666666 0 0 0 -10.666666666666666 10.666666666666666v16a10.666666666666666 10.666666666666666 0 0 0 21.333333333333332 0v-16a10.666666666666666 10.666666666666666 0 0 0 -10.666666666666666 -10.666666666666666Z"/></g></svg>