<svg xmlns="http://www.w3.org/2000/svg" viewBox="0 0 256 256" id="Road-Sign-Turn-Left--Streamline-Ultimate" height="256" width="256">
  <desc>
    Road Sign Turn Left Streamline Icon: https://streamlinehq.com
  </desc>
  <path d="M248 184a8.106666666666666 8.106666666666666 0 0 0 8 -8v-96a8.106666666666666 8.106666666666666 0 0 0 -8 -8H8A8.106666666666666 8.106666666666666 0 0 0 0 80v96a8.106666666666666 8.106666666666666 0 0 0 8 8Zm-229.33333333333331 -16a2.6666666666666665 2.6666666666666665 0 0 1 -2.6666666666666665 -2.6666666666666665v-74.66666666666666a2.6666666666666665 2.6666666666666665 0 0 1 2.6666666666666665 -2.6666666666666665h27.626666666666665a2.6666666666666665 2.6666666666666665 0 0 1 2.453333333333333 1.5999999999999999 2.7733333333333334 2.7733333333333334 0 0 1 -0.5333333333333333 2.986666666666667l-25.92 25.92a13.12 13.12 0 0 0 0 18.88l27.093333333333334 27.093333333333334a1.8133333333333335 1.8133333333333335 0 0 1 0 2.1333333333333333 1.92 1.92 0 0 1 -1.8133333333333335 1.2799999999999998Zm105.70666666666666 0a2.7733333333333334 2.7733333333333334 0 0 1 -1.8133333333333335 -0.7466666666666667L85.33333333333333 129.92a2.6666666666666665 2.6666666666666665 0 0 1 0 -3.84l37.22666666666667 -37.33333333333333a2.7733333333333334 2.7733333333333334 0 0 1 1.8133333333333335 -0.7466666666666667h33.92a2.6666666666666665 2.6666666666666665 0 0 1 2.453333333333333 1.5999999999999999 2.7733333333333334 2.7733333333333334 0 0 1 -0.5333333333333333 2.986666666666667l-25.92 25.92a13.12 13.12 0 0 0 0 18.88l27.093333333333334 27.093333333333334a1.8133333333333335 1.8133333333333335 0 0 1 0 2.1333333333333333 1.92 1.92 0 0 1 -1.8133333333333335 1.2799999999999998Zm115.62666666666667 -2.6666666666666665a2.6666666666666665 2.6666666666666665 0 0 1 -2.6666666666666665 2.6666666666666665h-0.96a2.7733333333333334 2.7733333333333334 0 0 1 -1.8133333333333335 -0.7466666666666667l-37.22666666666667 -37.33333333333333a2.6666666666666665 2.6666666666666665 0 0 1 0 -3.84l37.33333333333333 -37.33333333333333a2.7733333333333334 2.7733333333333334 0 0 1 1.8133333333333335 -0.7466666666666667h0.96a2.6666666666666665 2.6666666666666665 0 0 1 2.6666666666666665 2.6666666666666665Z" fill="#ffffff" stroke-width="10.6667"></path>
</svg>