<svg xmlns="http://www.w3.org/2000/svg" viewBox="0 0 256 256" id="Road-Sign-Hairpin-Turn-Left--Streamline-Ultimate" height="256" width="256">
  <desc>
    Road Sign Hairpin Turn Left Streamline Icon: https://streamlinehq.com
  </desc>
  <path d="M122.34666666666666 250.98666666666668a8 8 0 0 0 11.306666666666667 0l117.33333333333333 -117.33333333333333a8 8 0 0 0 0 -11.306666666666667l-117.33333333333333 -117.33333333333333a8 8 0 0 0 -11.306666666666667 0l-117.33333333333333 117.33333333333333a8 8 0 0 0 0 11.306666666666667ZM74.66666666666666 114.66666666666666a2.6666666666666665 2.6666666666666665 0 0 0 2.6666666666666665 -2.6666666666666665 45.33333333333333 45.33333333333333 0 0 1 90.66666666666666 0v64a8 8 0 0 1 -16 0v-64a29.333333333333332 29.333333333333332 0 0 0 -58.666666666666664 0 2.6666666666666665 2.6666666666666665 0 0 0 2.6666666666666665 2.6666666666666665h11.946666666666667a7.893333333333333 7.893333333333333 0 0 1 7.253333333333334 4.586666666666666 7.786666666666666 7.786666666666666 0 0 1 -1.0666666666666667 8.533333333333333l-22.613333333333333 27.306666666666665a7.893333333333333 7.893333333333333 0 0 1 -12.373333333333331 0L56.85333333333333 128a7.68 7.68 0 0 1 -1.0666666666666667 -8.426666666666666 8 8 0 0 1 7.253333333333334 -4.586666666666666Z" fill="#ffffff" stroke-width="10.6667"></path>
</svg>