<svg xmlns="http://www.w3.org/2000/svg" viewBox="0 0 256 256" id="Road-Sign-Stop--Streamline-Ultimate" height="256" width="256">
  <desc>
    Road Sign Stop Streamline Icon: https://streamlinehq.com
  </desc>
  <g id="Road-Sign-Stop--Streamline-Ultimate.svg">
    <path d="M154.66666666666666 109.33333333333333a2.6666666666666665 2.6666666666666665 0 0 0 -2.6666666666666665 2.6666666666666665v32c0 2.986666666666667 5.333333333333333 2.986666666666667 5.333333333333333 0v-32a2.6666666666666665 2.6666666666666665 0 0 0 -2.6666666666666665 -2.6666666666666665Z" fill="#ffffff" stroke-width="10.6667"></path>
    <path d="M202.66666666666666 114.66666666666666a2.6666666666666665 2.6666666666666665 0 1 0 2.6666666666666665 2.6666666666666665 2.6666666666666665 2.6666666666666665 0 0 0 -2.6666666666666665 -2.6666666666666665Z" fill="#ffffff" stroke-width="10.6667"></path>
    <path d="M253.65333333333334 72.63999999999999 183.36 2.3466666666666667a8 8 0 0 0 -5.653333333333333 -2.3466666666666667H78.29333333333332a8 8 0 0 0 -5.653333333333333 2.3466666666666667L2.3466666666666667 72.63999999999999a8 8 0 0 0 -2.3466666666666667 5.653333333333333v99.41333333333333a8 8 0 0 0 2.3466666666666667 5.653333333333333l70.29333333333332 70.29333333333332a8 8 0 0 0 5.653333333333333 2.3466666666666667h99.41333333333333a8 8 0 0 0 5.653333333333333 -2.3466666666666667l70.29333333333332 -70.29333333333332a8 8 0 0 0 2.3466666666666667 -5.653333333333333V78.29333333333332a8 8 0 0 0 -2.3466666666666667 -5.653333333333333ZM64 121.6a27.306666666666665 27.306666666666665 0 0 1 13.866666666666667 22.4 18.773333333333333 18.773333333333333 0 0 1 -19.2 18.666666666666664h-10.666666666666666a8 8 0 0 1 0 -16h10.666666666666666a2.6666666666666665 2.6666666666666665 0 0 0 2.6666666666666665 -2.6666666666666665c0 -3.626666666666667 -2.0266666666666664 -5.546666666666667 -7.466666666666666 -9.6a27.306666666666665 27.306666666666665 0 0 1 -13.866666666666667 -22.4A18.773333333333333 18.773333333333333 0 0 1 58.666666666666664 93.33333333333333h10.666666666666666a8 8 0 0 1 0 16h-10.666666666666666a2.6666666666666665 2.6666666666666665 0 0 0 -2.6666666666666665 2.6666666666666665c0 3.626666666666667 2.0266666666666664 5.333333333333333 8 9.6Zm53.33333333333333 -12.266666666666666a2.6666666666666665 2.6666666666666665 0 0 0 -2.6666666666666665 2.6666666666666665v42.666666666666664a8 8 0 0 1 -16 0v-42.666666666666664a2.6666666666666665 2.6666666666666665 0 0 0 -2.6666666666666665 -2.6666666666666665 8 8 0 0 1 0 -16h21.333333333333332a8 8 0 0 1 0 16Zm56 34.666666666666664a18.666666666666664 18.666666666666664 0 0 1 -37.33333333333333 0v-32a18.666666666666664 18.666666666666664 0 0 1 37.33333333333333 0Zm28.8 -3.3066666666666666a2.7733333333333334 2.7733333333333334 0 0 0 -2.1333333333333333 2.6666666666666665v11.306666666666667a8 8 0 0 1 -16 0v-53.33333333333333a8.106666666666666 8.106666666666666 0 0 1 8 -8h5.333333333333333a23.893333333333334 23.893333333333334 0 0 1 5.333333333333333 47.36Z" fill="#ffffff" stroke-width="10.6667"></path>
  </g>
</svg>