<svg xmlns="http://www.w3.org/2000/svg" viewBox="0 0 256 256" id="Router-Signal--Streamline-Ultimate" height="256" width="256">
  <desc>
    Router Signal Streamline Icon: https://streamlinehq.com
  </desc>
  <g id="Router-Signal--Streamline-Ultimate.svg">
    <path d="M224 144.85333333333332h-77.33333333333333a2.6666666666666665 2.6666666666666665 0 0 1 -2.6666666666666665 -2.6666666666666665V70.18666666666667a16 16 0 1 0 -32 0v72a2.6666666666666665 2.6666666666666665 0 0 1 -2.6666666666666665 2.6666666666666665H32a32 32 0 0 0 -32 32v21.333333333333332a32 32 0 0 0 29.546666666666667 32 2.5599999999999996 2.5599999999999996 0 0 1 2.453333333333333 2.5599999999999996v2.7733333333333334a16 16 0 0 0 32 0v-2.6666666666666665a2.6666666666666665 2.6666666666666665 0 0 1 2.6666666666666665 -2.6666666666666665h122.66666666666666a2.6666666666666665 2.6666666666666665 0 0 1 2.6666666666666665 2.6666666666666665v2.6666666666666665a16 16 0 0 0 32 0v-2.7733333333333334a2.5599999999999996 2.5599999999999996 0 0 1 2.453333333333333 -2.5599999999999996 32 32 0 0 0 29.546666666666667 -32v-21.333333333333332a32 32 0 0 0 -32 -32ZM55.04 194.55999999999997a12.693333333333332 12.693333333333332 0 0 1 -10.666666666666666 5.4399999999999995 12.159999999999998 12.159999999999998 0 0 1 -7.68 -2.88 12.586666666666666 12.586666666666666 0 0 1 -4.693333333333333 -10.026666666666666 12.906666666666666 12.906666666666666 0 1 1 25.706666666666667 0 12.266666666666666 12.266666666666666 0 0 1 -2.6666666666666665 7.466666666666666Zm31.146666666666665 4.586666666666666a12.053333333333331 12.053333333333331 0 1 1 12.053333333333331 -12.053333333333331 12.053333333333331 12.053333333333331 0 0 1 -12.053333333333331 12.053333333333331Z" fill="#ffffff" stroke-width="10.6667"></path>
    <path d="M74.66666666666666 32a10.666666666666666 10.666666666666666 0 0 0 -14.613333333333333 3.9466666666666663 68.69333333333333 68.69333333333333 0 0 0 -1.2799999999999998 66.13333333333333 10.666666666666666 10.666666666666666 0 0 0 9.493333333333332 5.653333333333333 9.813333333333333 9.813333333333333 0 0 0 4.586666666666666 -1.0666666666666667 10.666666666666666 10.666666666666666 0 0 0 4.586666666666666 -14.4 47.25333333333333 47.25333333333333 0 0 1 0.8533333333333333 -45.653333333333336A10.666666666666666 10.666666666666666 0 0 0 74.66666666666666 32Z" fill="#ffffff" stroke-width="10.6667"></path>
    <path d="M35.733333333333334 5.866666666666667A10.666666666666666 10.666666666666666 0 0 0 21.333333333333332 9.813333333333333a123.52 123.52 0 0 0 -2.0266666666666664 117.33333333333333 10.666666666666666 10.666666666666666 0 0 0 9.493333333333332 5.653333333333333 10.666666666666666 10.666666666666666 0 0 0 5.013333333333333 -1.1733333333333333A10.666666666666666 10.666666666666666 0 0 0 38.18666666666667 117.33333333333333a101.44 101.44 0 0 1 1.5999999999999999 -96.74666666666667A10.666666666666666 10.666666666666666 0 0 0 35.733333333333334 5.866666666666667Z" fill="#ffffff" stroke-width="10.6667"></path>
    <path d="M183.14666666666668 106.66666666666666a9.813333333333333 9.813333333333333 0 0 0 4.906666666666666 1.1733333333333333 10.666666666666666 10.666666666666666 0 0 0 9.493333333333332 -5.653333333333333 68.69333333333333 68.69333333333333 0 0 0 -1.2799999999999998 -66.13333333333333 10.666666666666666 10.666666666666666 0 0 0 -18.56 10.666666666666666 47.25333333333333 47.25333333333333 0 0 1 0.8533333333333333 45.653333333333336 10.666666666666666 10.666666666666666 0 0 0 4.586666666666666 14.293333333333333Z" fill="#ffffff" stroke-width="10.6667"></path>
    <path d="M217.81333333333333 117.33333333333333a10.666666666666666 10.666666666666666 0 0 0 4.586666666666666 14.4 9.813333333333333 9.813333333333333 0 0 0 4.906666666666666 1.1733333333333333 10.666666666666666 10.666666666666666 0 0 0 9.493333333333332 -5.653333333333333A123.52 123.52 0 0 0 234.66666666666666 9.813333333333333a10.666666666666666 10.666666666666666 0 0 0 -14.4 -3.9466666666666663 10.666666666666666 10.666666666666666 0 0 0 -4.053333333333333 14.506666666666668 101.44 101.44 0 0 1 1.5999999999999999 96.96Z" fill="#ffffff" stroke-width="10.6667"></path>
  </g>
</svg>