<svg xmlns="http://www.w3.org/2000/svg" id="Rss-Feed--Streamline-Ultimate" width="256" height="256" viewBox="0 0 256 256"><desc>Rss Feed Streamline Icon: https://streamlinehq.com</desc><g id="Rss-Feed--Streamline-Ultimate.svg"><path fill="#fff" stroke-width="10.667" d="M16 88.21333333333332a16 16 0 0 0 0 32 118.50666666666666 118.50666666666666 0 0 1 122.02666666666666 117.33333333333333 16 16 0 0 0 32 0c0 -83.84 -67.62666666666667 -149.33333333333331 -154.02666666666664 -149.33333333333331Z"/><path fill="#fff" stroke-width="10.667" d="M16.32 2.5599999999999996a16 16 0 0 0 0 32c116.47999999999999 0 207.67999999999998 89.06666666666666 207.67999999999998 202.66666666666666a16 16 0 1 0 32 0c0 -131.51999999999998 -105.27999999999999 -234.66666666666666 -239.67999999999998 -234.66666666666666Z"/><path fill="#fff" stroke-width="10.667" d="M0 216a37.33333333333333 37.33333333333333 0 1 0 74.66666666666666 0 37.33333333333333 37.33333333333333 0 1 0 -74.66666666666666 0"/></g></svg>