<svg xmlns="http://www.w3.org/2000/svg" viewBox="0 0 256 256" id="Safety-Drown-Hand--Streamline-Ultimate" height="256" width="256">
  <desc>
    Safety Drown Hand Streamline Icon: https://streamlinehq.com
  </desc>
  <g id="Safety-Drown-Hand--Streamline-Ultimate.svg">
    <path d="M87.25333333333333 183.67999999999998a10.666666666666666 10.666666666666666 0 0 0 -7.04 -9.92 40.959999999999994 40.959999999999994 0 0 1 -18.026666666666664 -14.506666666666668 10.666666666666666 10.666666666666666 0 0 0 -17.386666666666663 -0.96s-16 19.306666666666665 -32.959999999999994 18.026666666666664a10.666666666666666 10.666666666666666 0 0 0 -1.1733333333333333 21.333333333333332 57.28 57.28 0 0 0 40.21333333333333 -15.466666666666665 2.453333333333333 2.453333333333333 0 0 1 3.413333333333333 0 59.30666666666666 59.30666666666666 0 0 0 18.666666666666664 11.52 10.666666666666666 10.666666666666666 0 0 0 14.293333333333333 -10.026666666666666Z" fill="#ffffff" stroke-width="10.6667"></path>
    <path d="M255.36 185.81333333333333a10.666666666666666 10.666666666666666 0 0 0 -11.306666666666667 -9.92c-16.85333333333333 1.4933333333333334 -28.373333333333335 -16.53333333333333 -28.479999999999997 -16.64a10.666666666666666 10.666666666666666 0 0 0 -18.133333333333333 0 37.54666666666667 37.54666666666667 0 0 1 -18.026666666666664 14.4 10.666666666666666 10.666666666666666 0 0 0 -7.253333333333334 10.026666666666666 10.666666666666666 10.666666666666666 0 0 0 14.186666666666667 10.133333333333333 59.519999999999996 59.519999999999996 0 0 0 18.56 -10.666666666666666 2.3466666666666667 2.3466666666666667 0 0 1 3.413333333333333 0A50.56 50.56 0 0 0 245.33333333333331 197.12a10.666666666666666 10.666666666666666 0 0 0 10.026666666666666 -11.306666666666667Z" fill="#ffffff" stroke-width="10.6667"></path>
    <path d="M78.82666666666665 116.58666666666666c0 19.2 5.013333333333333 35.41333333333333 22.29333333333333 40.64a2.6666666666666665 2.6666666666666665 0 0 1 2.0266666666666664 2.5599999999999996v49.70666666666666a2.6666666666666665 2.6666666666666665 0 0 0 1.5999999999999999 2.453333333333333 2.88 2.88 0 0 0 2.88 0c7.1466666666666665 -6.3999999999999995 11.626666666666667 -14.826666666666664 25.386666666666663 -14.826666666666664a26.24 26.24 0 0 1 18.666666666666664 7.893333333333333 2.7733333333333334 2.7733333333333334 0 0 0 4.586666666666666 -1.92v-45.33333333333333a2.6666666666666665 2.6666666666666665 0 0 1 1.5999999999999999 -2.453333333333333 35.733333333333334 35.733333333333334 0 0 0 9.28 -6.079999999999999l41.38666666666666 -48.42666666666666a9.6 9.6 0 0 0 0.7466666666666667 -14.719999999999999 12.799999999999999 12.799999999999999 0 0 0 -8.64 -3.3066666666666666 12.159999999999998 12.159999999999998 0 0 0 -8 2.7733333333333334l-18.133333333333333 13.973333333333333a2.6666666666666665 2.6666666666666665 0 0 1 -4.266666666666667 -2.5599999999999996l11.84 -70.72a10.666666666666666 10.666666666666666 0 0 0 -9.066666666666666 -12.266666666666666 9.173333333333332 9.173333333333332 0 0 0 -2.453333333333333 0 11.52 11.52 0 0 0 -11.52 8.213333333333333l-11.306666666666667 44.373333333333335a0.96 0.96 0 0 1 -1.1733333333333333 0.7466666666666667 1.0666666666666667 1.0666666666666667 0 0 1 -0.96 -1.0666666666666667V11.733333333333334A12.586666666666666 12.586666666666666 0 0 0 132.37333333333333 0a12.479999999999999 12.479999999999999 0 0 0 -13.226666666666667 11.733333333333334V64a1.1733333333333333 1.1733333333333333 0 0 1 -0.96 1.0666666666666667A1.0666666666666667 1.0666666666666667 0 0 1 117.33333333333333 64l-8.32 -39.46666666666667a11.413333333333334 11.413333333333334 0 0 0 -11.413333333333334 -8.106666666666666 10.666666666666666 10.666666666666666 0 0 0 -2.5599999999999996 0 10.666666666666666 10.666666666666666 0 0 0 -9.066666666666666 12.266666666666666L97.49333333333334 85.33333333333333a0.96 0.96 0 0 1 -0.5333333333333333 1.1733333333333333 1.1733333333333333 1.1733333333333333 0 0 1 -1.3866666666666667 0L77.22666666666666 60.373333333333335a12.159999999999998 12.159999999999998 0 0 0 -10.026666666666666 -4.906666666666666 13.226666666666667 13.226666666666667 0 0 0 -6.186666666666666 1.4933333333333334 9.706666666666667 9.706666666666667 0 0 0 -3.84 14.293333333333333l16.746666666666666 27.733333333333334a34.56 34.56 0 0 1 4.906666666666666 17.599999999999998Z" fill="#ffffff" stroke-width="10.6667"></path>
    <path d="M215.57333333333332 217.59999999999997a10.666666666666666 10.666666666666666 0 0 0 -18.133333333333333 0 36.05333333333333 36.05333333333333 0 0 1 -29.226666666666667 17.066666666666666 30.08 30.08 0 0 1 -25.599999999999998 -15.786666666666665 10.666666666666666 10.666666666666666 0 0 0 -18.133333333333333 -1.7066666666666666A45.44 45.44 0 0 1 91.52 234.66666666666666a37.86666666666666 37.86666666666666 0 0 1 -29.333333333333332 -17.066666666666666 10.666666666666666 10.666666666666666 0 0 0 -17.386666666666663 -0.96S28.8 236.0533333333333 11.84 234.66666666666666A10.666666666666666 10.666666666666666 0 1 0 10.666666666666666 256a56.63999999999999 56.63999999999999 0 0 0 40.10666666666666 -15.466666666666665 2.7733333333333334 2.7733333333333334 0 0 1 3.52 0A55.14666666666666 55.14666666666666 0 0 0 91.52 256a61.33333333333333 61.33333333333333 0 0 0 38.61333333333333 -14.506666666666668 2.6666666666666665 2.6666666666666665 0 0 1 3.52 0A48.32 48.32 0 0 0 168.2133333333333 256a53.33333333333333 53.33333333333333 0 0 0 36.586666666666666 -14.293333333333333 2.88 2.88 0 0 1 3.626666666666667 0A49.28 49.28 0 0 0 245.33333333333331 256a10.666666666666666 10.666666666666666 0 0 0 9.92 -11.306666666666667 10.666666666666666 10.666666666666666 0 0 0 -11.2 -10.026666666666666 35.519999999999996 35.519999999999996 0 0 1 -28.479999999999997 -17.066666666666666Z" fill="#ffffff" stroke-width="10.6667"></path>
  </g>
</svg>