<svg xmlns="http://www.w3.org/2000/svg" id="Safety-Flame-Right--Streamline-Ultimate" width="256" height="256" viewBox="0 0 256 256"><desc>Safety Flame Right Streamline Icon: https://streamlinehq.com</desc><g id="Safety-Flame-Right--Streamline-Ultimate.svg"><path fill="#fff" stroke-width="10.667" d="M156.69333333333333 149.33333333333331a10.666666666666666 10.666666666666666 0 0 0 -10.026666666666666 1.0666666666666667 79.03999999999999 79.03999999999999 0 0 1 -7.1466666666666665 4.266666666666667 2.88 2.88 0 0 1 -2.453333333333333 0 2.7733333333333334 2.7733333333333334 0 0 1 -1.3866666666666667 -2.0266666666666664 102.61333333333332 102.61333333333332 0 0 0 -22.506666666666664 -55.89333333333333 104 104 0 0 0 -53.33333333333333 -35.41333333333333 10.666666666666666 10.666666666666666 0 0 0 -10.666666666666666 3.1999999999999997 10.666666666666666 10.666666666666666 0 0 0 -1.8133333333333335 10.666666666666666 72.21333333333332 72.21333333333332 0 0 1 1.8133333333333335 50.346666666666664 2.6666666666666665 2.6666666666666665 0 0 1 -2.2399999999999998 1.8133333333333335 2.5599999999999996 2.5599999999999996 0 0 1 -2.5599999999999996 -1.3866666666666667c-1.3866666666666667 -2.5599999999999996 -2.6666666666666665 -5.119999999999999 -3.84 -7.893333333333333a10.666666666666666 10.666666666666666 0 0 0 -7.786666666666666 -6.293333333333333 10.666666666666666 10.666666666666666 0 0 0 -9.6 2.986666666666667A81.6 81.6 0 0 0 0 172.26666666666665l0 4.373333333333333a82.24 82.24 0 0 0 164.37333333333333 -4.373333333333333 85.33333333333333 85.33333333333333 0 0 0 -1.3866666666666667 -14.826666666666664 10.666666666666666 10.666666666666666 0 0 0 -6.293333333333333 -8.106666666666666Zm-74.66666666666666 90.56a32.53333333333333 32.53333333333333 0 0 1 -32 -33.28A61.33333333333333 61.33333333333333 0 0 1 85.33333333333333 152a2.6666666666666665 2.6666666666666665 0 0 1 3.093333333333333 0.7466666666666667 2.5599999999999996 2.5599999999999996 0 0 1 0 3.093333333333333A35.093333333333334 35.093333333333334 0 0 0 85.33333333333333 186.98666666666668a2.6666666666666665 2.6666666666666665 0 0 0 1.92 1.5999999999999999 2.6666666666666665 2.6666666666666665 0 0 0 2.3466666666666667 -0.6399999999999999 18.133333333333333 18.133333333333333 0 0 0 5.013333333333333 -7.359999999999999 2.986666666666667 2.986666666666667 0 0 1 1.5999999999999999 -1.5999999999999999 2.453333333333333 2.453333333333333 0 0 1 2.1333333333333333 0 29.973333333333333 29.973333333333333 0 0 1 15.893333333333333 28.69333333333333 32 32 0 0 1 -32 32.42666666666666Z"/><path fill="#fff" stroke-width="10.667" d="M212.0533333333333 3.093333333333333a5.653333333333333 5.653333333333333 0 0 0 -5.866666666666667 -1.1733333333333333 5.4399999999999995 5.4399999999999995 0 0 0 -3.1999999999999997 4.906666666666666v26.560000000000002a2.6666666666666665 2.6666666666666665 0 0 1 -2.6666666666666665 2.6666666666666665h-55.67999999999999a13.226666666666667 13.226666666666667 0 1 0 0 26.453333333333333h55.67999999999999a2.6666666666666665 2.6666666666666665 0 0 1 2.6666666666666665 2.6666666666666665V91.73333333333332a5.4399999999999995 5.4399999999999995 0 0 0 3.1999999999999997 4.906666666666666l2.0266666666666664 0a5.76 5.76 0 0 0 3.84 -0.6399999999999999l42.666666666666664 -42.666666666666664a5.119999999999999 5.119999999999999 0 0 0 0 -7.466666666666666Z"/></g></svg>