<svg xmlns="http://www.w3.org/2000/svg" id="Safety-Float--Streamline-Ultimate" width="256" height="256" viewBox="0 0 256 256"><desc>Safety Float Streamline Icon: https://streamlinehq.com</desc><path fill="#fff" stroke-width="10.667" d="M245.33333333333331 107.41333333333333a2.5599999999999996 2.5599999999999996 0 0 1 -1.7066666666666666 -2.0266666666666664 117.33333333333333 117.33333333333333 0 0 0 -92.47999999999999 -92.47999999999999 2.5599999999999996 2.5599999999999996 0 0 1 -2.0266666666666664 -1.7066666666666666A16 16 0 0 0 133.33333333333331 0h-10.666666666666666a16 16 0 0 0 -15.253333333333332 11.2 2.5599999999999996 2.5599999999999996 0 0 1 -2.0266666666666664 1.7066666666666666 117.33333333333333 117.33333333333333 0 0 0 -92.47999999999999 92.47999999999999 2.5599999999999996 2.5599999999999996 0 0 1 -1.7066666666666666 2.0266666666666664A16 16 0 0 0 0 122.66666666666666v10.666666666666666a16 16 0 0 0 11.2 15.253333333333332 2.5599999999999996 2.5599999999999996 0 0 1 1.7066666666666666 2.0266666666666664 117.33333333333333 117.33333333333333 0 0 0 92.47999999999999 92.47999999999999 2.5599999999999996 2.5599999999999996 0 0 1 2.0266666666666664 1.7066666666666666A16 16 0 0 0 122.66666666666666 256h10.666666666666666a16 16 0 0 0 15.253333333333332 -10.666666666666666 2.5599999999999996 2.5599999999999996 0 0 1 2.0266666666666664 -1.7066666666666666 117.33333333333333 117.33333333333333 0 0 0 92.47999999999999 -92.47999999999999 2.5599999999999996 2.5599999999999996 0 0 1 1.7066666666666666 -2.0266666666666664A16 16 0 0 0 256 133.33333333333331v-10.666666666666666a16 16 0 0 0 -10.666666666666666 -15.253333333333332Zm-24.106666666666662 -4.053333333333333a2.6666666666666665 2.6666666666666665 0 0 1 -2.5599999999999996 3.3066666666666666h-34.239999999999995a2.6666666666666665 2.6666666666666665 0 0 1 -2.453333333333333 -1.5999999999999999 58.879999999999995 58.879999999999995 0 0 0 -31.04 -31.04 2.6666666666666665 2.6666666666666665 0 0 1 -1.5999999999999999 -2.453333333333333V37.86666666666666a2.6666666666666665 2.6666666666666665 0 0 1 3.3066666666666666 -2.5599999999999996 96 96 0 0 1 68.05333333333333 68.05333333333333ZM128 165.33333333333331a37.33333333333333 37.33333333333333 0 1 1 37.33333333333333 -37.33333333333333 37.33333333333333 37.33333333333333 0 0 1 -37.33333333333333 37.33333333333333ZM103.78666666666666 35.199999999999996a2.3466666666666667 2.3466666666666667 0 0 1 2.88 2.2399999999999998v34.13333333333333a2.6666666666666665 2.6666666666666665 0 0 1 -1.5999999999999999 2.453333333333333 58.879999999999995 58.879999999999995 0 0 0 -31.04 31.04 2.6666666666666665 2.6666666666666665 0 0 1 -2.453333333333333 1.5999999999999999H37.86666666666666a2.6666666666666665 2.6666666666666665 0 0 1 -2.5599999999999996 -3.3066666666666666A96 96 0 0 1 103.78666666666666 35.199999999999996Zm-68.47999999999999 117.33333333333333a2.6666666666666665 2.6666666666666665 0 0 1 2.5599999999999996 -3.1999999999999997h33.70666666666666a2.6666666666666665 2.6666666666666665 0 0 1 2.453333333333333 1.5999999999999999 58.879999999999995 58.879999999999995 0 0 0 31.04 31.04 2.6666666666666665 2.6666666666666665 0 0 1 1.5999999999999999 2.453333333333333v33.70666666666666a2.6666666666666665 2.6666666666666665 0 0 1 -3.3066666666666666 2.5599999999999996 96 96 0 0 1 -68.05333333333333 -68.05333333333333Zm117.33333333333333 68.05333333333333a2.6666666666666665 2.6666666666666665 0 0 1 -3.3066666666666666 -2.5599999999999996v-33.599999999999994a2.6666666666666665 2.6666666666666665 0 0 1 1.5999999999999999 -2.453333333333333 58.879999999999995 58.879999999999995 0 0 0 31.04 -31.04 2.6666666666666665 2.6666666666666665 0 0 1 2.453333333333333 -1.5999999999999999h33.70666666666666a2.6666666666666665 2.6666666666666665 0 0 1 2.5599999999999996 3.3066666666666666 96 96 0 0 1 -68.05333333333333 68.05333333333333Z"/></svg>