<svg xmlns="http://www.w3.org/2000/svg" viewBox="0 0 256 256" id="Safety-Warning-Radioactive--Streamline-Ultimate" height="256" width="256">
  <desc>
    Safety Warning Radioactive Streamline Icon: https://streamlinehq.com
  </desc>
  <g id="Safety-Warning-Radioactive--Streamline-Ultimate.svg">
    <path d="M113.6 136.32A46.29333333333333 46.29333333333333 0 0 0 92.90666666666667 117.33333333333333a2.986666666666667 2.986666666666667 0 0 0 -2.3466666666666667 0 3.3066666666666666 3.3066666666666666 0 0 0 -1.3866666666666667 1.8133333333333335 34.773333333333326 34.773333333333326 0 0 0 -1.1733333333333333 8.853333333333332 40.10666666666666 40.10666666666666 0 0 0 28.16 38.18666666666667 2.6666666666666665 2.6666666666666665 0 0 0 3.52 -2.3466666666666667 47.14666666666666 47.14666666666666 0 0 0 -6.079999999999999 -27.52Z" fill="#ffffff" stroke-width="10.6667"></path>
    <path d="M128 111.46666666666665a47.04 47.04 0 0 0 26.77333333333333 -8.533333333333333 3.3066666666666666 3.3066666666666666 0 0 0 1.1733333333333333 -2.0266666666666664 2.986666666666667 2.986666666666667 0 0 0 -0.8533333333333333 -2.1333333333333333 39.46666666666667 39.46666666666667 0 0 0 -54.18666666666667 0 2.986666666666667 2.986666666666667 0 0 0 -0.8533333333333333 2.1333333333333333 2.88 2.88 0 0 0 1.1733333333333333 1.92 46.29333333333333 46.29333333333333 0 0 0 26.77333333333333 8.64Z" fill="#ffffff" stroke-width="10.6667"></path>
    <path d="M142.39999999999998 136.32a47.14666666666666 47.14666666666666 0 0 0 -6.079999999999999 27.52 3.093333333333333 3.093333333333333 0 0 0 1.1733333333333333 2.0266666666666664 2.986666666666667 2.986666666666667 0 0 0 2.3466666666666667 0A40.10666666666666 40.10666666666666 0 0 0 168 128a34.773333333333326 34.773333333333326 0 0 0 -1.1733333333333333 -8.853333333333332 2.7733333333333334 2.7733333333333334 0 0 0 -1.3866666666666667 -1.7066666666666666 2.3466666666666667 2.3466666666666667 0 0 0 -2.3466666666666667 0 45.86666666666666 45.86666666666666 0 0 0 -20.69333333333333 18.88Z" fill="#ffffff" stroke-width="10.6667"></path>
    <path d="M128 0a128 128 0 1 0 128 128A128 128 0 0 0 128 0Zm90.13333333333333 128a48.42666666666666 48.42666666666666 0 0 0 -10.666666666666666 -8.746666666666666 45.97333333333333 45.97333333333333 0 0 0 -21.973333333333333 -6.186666666666666 2.6666666666666665 2.6666666666666665 0 0 0 -2.1333333333333333 0.96 2.6666666666666665 2.6666666666666665 0 0 0 -0.5333333333333333 2.3466666666666667 54.61333333333333 54.61333333333333 0 0 1 1.1733333333333333 11.626666666666667 55.89333333333333 55.89333333333333 0 0 1 -39.25333333333333 53.33333333333333 2.453333333333333 2.453333333333333 0 0 0 -1.5999999999999999 1.5999999999999999 2.5599999999999996 2.5599999999999996 0 0 0 0 2.3466666666666667A46.61333333333333 46.61333333333333 0 0 0 160 201.06666666666666a45.54666666666666 45.54666666666666 0 0 0 10.666666666666666 4.586666666666666 8.106666666666666 8.106666666666666 0 0 1 5.546666666666667 9.92 7.893333333333333 7.893333333333333 0 0 1 -7.68 5.76 8.106666666666666 8.106666666666666 0 0 1 -2.2399999999999998 0 60.8 60.8 0 0 1 -14.4 -6.079999999999999 62.29333333333333 62.29333333333333 0 0 1 -21.333333333333332 -20.69333333333333 2.6666666666666665 2.6666666666666665 0 0 0 -2.5599999999999996 -1.4933333333333334 2.5599999999999996 2.5599999999999996 0 0 0 -2.2399999999999998 1.1733333333333333 62.29333333333333 62.29333333333333 0 0 1 -21.333333333333332 20.69333333333333 60.8 60.8 0 0 1 -14.4 6.079999999999999 8.106666666666666 8.106666666666666 0 0 1 -2.2399999999999998 0 7.893333333333333 7.893333333333333 0 0 1 -7.68 -5.76 8.106666666666666 8.106666666666666 0 0 1 5.226666666666667 -9.6 44.48 44.48 0 0 0 10.666666666666666 -4.586666666666666 47.46666666666667 47.46666666666667 0 0 0 16.32 -15.893333333333333 2.5599999999999996 2.5599999999999996 0 0 0 0 -2.3466666666666667 2.453333333333333 2.453333333333333 0 0 0 -1.5999999999999999 -1.5999999999999999 54.82666666666666 54.82666666666666 0 0 1 -37.76 -65.28 2.453333333333333 2.453333333333333 0 0 0 0 -2.2399999999999998 2.7733333333333334 2.7733333333333334 0 0 0 -2.1333333333333333 -1.0666666666666667 47.89333333333333 47.89333333333333 0 0 0 -21.973333333333333 6.293333333333333 48.42666666666666 48.42666666666666 0 0 0 -10.666666666666666 8.746666666666666 8 8 0 0 1 -11.733333333333334 -10.666666666666666 65.38666666666666 65.38666666666666 0 0 1 14.719999999999999 -11.733333333333334 61.97333333333333 61.97333333333333 0 0 1 28.16 -8.533333333333333 3.1999999999999997 3.1999999999999997 0 0 0 2.2399999999999998 -1.3866666666666667 2.6666666666666665 2.6666666666666665 0 0 0 0 -2.5599999999999996A62.50666666666667 62.50666666666667 0 0 1 64.53333333333333 64a63.25333333333333 63.25333333333333 0 0 1 2.7733333333333334 -18.346666666666664 8 8 0 1 1 15.253333333333332 4.693333333333333A48.63999999999999 48.63999999999999 0 0 0 80.53333333333333 64a46.08 46.08 0 0 0 5.653333333333333 21.973333333333333 2.453333333333333 2.453333333333333 0 0 0 1.8133333333333335 1.3866666666666667 2.6666666666666665 2.6666666666666665 0 0 0 2.3466666666666667 -0.6399999999999999 55.46666666666667 55.46666666666667 0 0 1 75.30666666666666 0 2.6666666666666665 2.6666666666666665 0 0 0 2.3466666666666667 0.6399999999999999 2.453333333333333 2.453333333333333 0 0 0 1.8133333333333335 -1.3866666666666667A46.08 46.08 0 0 0 175.46666666666664 64a48.63999999999999 48.63999999999999 0 0 0 -2.0266666666666664 -13.653333333333332 8 8 0 1 1 15.253333333333332 -4.693333333333333A63.25333333333333 63.25333333333333 0 0 1 192 64a62.50666666666667 62.50666666666667 0 0 1 -7.04 28.8 2.6666666666666665 2.6666666666666665 0 0 0 0 2.5599999999999996 2.5599999999999996 2.5599999999999996 0 0 0 2.2399999999999998 1.3866666666666667 61.76 61.76 0 0 1 28.479999999999997 8.32A65.38666666666666 65.38666666666666 0 0 1 229.86666666666667 117.33333333333333a8 8 0 1 1 -11.733333333333334 10.666666666666666Z" fill="#ffffff" stroke-width="10.6667"></path>
  </g>
</svg>