<svg xmlns="http://www.w3.org/2000/svg" viewBox="0 0 256 256" id="Safety-911--Streamline-Ultimate" height="256" width="256">
  <desc>
    Safety 911 Streamline Icon: https://streamlinehq.com
  </desc>
  <g id="Safety-911--Streamline-Ultimate.svg">
    <path d="M18.773333333333333 146.88A17.066666666666666 17.066666666666666 0 0 0 42.666666666666664 149.33333333333331l17.599999999999998 -16.426666666666666a17.066666666666666 17.066666666666666 0 0 0 -0.5333333333333333 -24l-4.4799999999999995 -4.8a2.6666666666666665 2.6666666666666665 0 0 1 0 -3.52A344.74666666666667 344.74666666666667 0 0 1 105.49333333333334 53.33333333333333a2.7733333333333334 2.7733333333333334 0 0 1 3.52 0l4.4799999999999995 4.8a16.96 16.96 0 0 0 23.893333333333334 2.0266666666666664l17.493333333333332 -16.426666666666666a16.96 16.96 0 0 0 0 -24l-10.026666666666666 -10.666666666666666a26.346666666666668 26.346666666666668 0 0 0 -32 -5.973333333333334A335.78666666666663 335.78666666666663 0 0 0 5.013333333333333 103.89333333333333a26.026666666666664 26.026666666666664 0 0 0 3.733333333333333 32Z" fill="#ffffff" stroke-width="10.6667"></path>
    <path d="M120.32 234.66666666666666a10.666666666666666 10.666666666666666 0 1 0 0 21.333333333333332h49.6a10.666666666666666 10.666666666666666 0 1 0 0 -21.333333333333332h-11.52a2.6666666666666665 2.6666666666666665 0 0 1 -2.6666666666666665 -2.6666666666666665v-57.919999999999995A13.76 13.76 0 0 0 141.97333333333333 160a18.133333333333333 18.133333333333333 0 0 0 -12.799999999999999 5.333333333333333l-16.426666666666666 16.32A10.666666666666666 10.666666666666666 0 1 0 128 197.01333333333332l2.1333333333333333 -2.1333333333333333a2.7733333333333334 2.7733333333333334 0 0 1 4.586666666666666 1.92v35.306666666666665a2.7733333333333334 2.7733333333333334 0 0 1 -2.6666666666666665 2.6666666666666665Z" fill="#ffffff" stroke-width="10.6667"></path>
    <path d="M254.9333333333333 245.33333333333331a10.666666666666666 10.666666666666666 0 0 0 -10.666666666666666 -10.666666666666666h-11.413333333333334a2.6666666666666665 2.6666666666666665 0 0 1 -2.6666666666666665 -2.6666666666666665v-57.919999999999995A13.76 13.76 0 0 0 216.42666666666665 160a18.133333333333333 18.133333333333333 0 0 0 -12.799999999999999 5.333333333333333l-16.426666666666666 16.32A10.666666666666666 10.666666666666666 0 0 0 202.66666666666666 197.01333333333332l2.1333333333333333 -2.1333333333333333a2.6666666666666665 2.6666666666666665 0 0 1 2.88 -0.5333333333333333 2.6666666666666665 2.6666666666666665 0 0 1 1.5999999999999999 2.453333333333333v35.306666666666665a2.6666666666666665 2.6666666666666665 0 0 1 -2.5599999999999996 2.6666666666666665h-12.053333333333331a10.666666666666666 10.666666666666666 0 0 0 0 21.333333333333332h49.70666666666666A10.666666666666666 10.666666666666666 0 0 0 254.9333333333333 245.33333333333331Z" fill="#ffffff" stroke-width="10.6667"></path>
    <path d="M58.239999999999995 234.66666666666666a10.666666666666666 10.666666666666666 0 1 0 0 21.333333333333332H64a41.70666666666666 41.70666666666666 0 0 0 42.666666666666664 -41.599999999999994v-18.666666666666664a35.519999999999996 35.519999999999996 0 1 0 -35.519999999999996 35.41333333333333 1.2799999999999998 1.2799999999999998 0 0 1 1.2799999999999998 1.0666666666666667 1.1733333333333333 1.1733333333333333 0 0 1 -0.8533333333333333 1.3866666666666667A19.2 19.2 0 0 1 64 234.66666666666666Zm12.373333333333331 -24.85333333333333A14.186666666666667 14.186666666666667 0 1 1 85.33333333333333 195.73333333333335a14.293333333333333 14.293333333333333 0 0 1 -14.719999999999999 14.186666666666667Z" fill="#ffffff" stroke-width="10.6667"></path>
  </g>
</svg>