<svg xmlns="http://www.w3.org/2000/svg" viewBox="0 0 256 256" id="Satellite--Streamline-Ultimate" height="256" width="256">
  <desc>
    Satellite Streamline Icon: https://streamlinehq.com
  </desc>
  <g id="Satellite--Streamline-Ultimate.svg">
    <path d="M71.67999999999999 184.42666666666665A128 128 0 0 1 56.53333333333333 166.39999999999998L2.1333333333333333 238.9333333333333a10.666666666666666 10.666666666666666 0 0 0 -0.96 11.2A10.666666666666666 10.666666666666666 0 0 0 10.666666666666666 256h122.66666666666666a10.666666666666666 10.666666666666666 0 0 0 9.493333333333332 -5.76 10.666666666666666 10.666666666666666 0 0 0 -0.7466666666666667 -10.666666666666666l-14.826666666666664 -21.333333333333332a135.57333333333332 135.57333333333332 0 0 1 -55.57333333333333 -33.81333333333333Z" fill="#ffffff" stroke-width="10.6667"></path>
    <path d="M97.27999999999999 3.093333333333333A10.666666666666666 10.666666666666666 0 0 0 82.24 3.1999999999999997a119.78666666666666 119.78666666666666 0 0 0 0.7466666666666667 169.92 120.42666666666665 120.42666666666665 0 0 0 169.92 -0.8533333333333333 10.666666666666666 10.666666666666666 0 0 0 3.093333333333333 -7.466666666666666 10.666666666666666 10.666666666666666 0 0 0 -3.1999999999999997 -7.573333333333332l-69.97333333333333 -69.33333333333333 22.29333333333333 -21.333333333333332a32 32 0 0 0 45.54666666666666 -29.333333333333332 32 32 0 0 0 -32 -32 32 32 0 0 0 -28.586666666666666 45.86666666666666l-22.29333333333333 21.333333333333332Z" fill="#ffffff" stroke-width="10.6667"></path>
  </g>
</svg>