<svg xmlns="http://www.w3.org/2000/svg" viewBox="0 0 256 256" id="Saving-Bank-1--Streamline-Ultimate" height="256" width="256">
  <desc>
    Saving Bank 1 Streamline Icon: https://streamlinehq.com
  </desc>
  <g id="Saving-Bank-1--Streamline-Ultimate.svg">
    <path d="M74.66666666666666 128a10.666666666666666 10.666666666666666 0 0 0 0 -21.333333333333332H32a10.666666666666666 10.666666666666666 0 0 0 0 21.333333333333332h2.6666666666666665a2.6666666666666665 2.6666666666666665 0 0 1 2.6666666666666665 2.6666666666666665v42.666666666666664a2.6666666666666665 2.6666666666666665 0 0 1 -2.6666666666666665 2.6666666666666665H32a10.666666666666666 10.666666666666666 0 0 0 0 21.333333333333332h42.666666666666664a10.666666666666666 10.666666666666666 0 0 0 0 -21.333333333333332h-2.6666666666666665a2.6666666666666665 2.6666666666666665 0 0 1 -2.6666666666666665 -2.6666666666666665v-42.666666666666664a2.6666666666666665 2.6666666666666665 0 0 1 2.6666666666666665 -2.6666666666666665Z" fill="#ffffff" stroke-width="10.6667"></path>
    <path d="M149.33333333333331 128a10.666666666666666 10.666666666666666 0 0 0 0 -21.333333333333332h-42.666666666666664a10.666666666666666 10.666666666666666 0 0 0 0 21.333333333333332h2.6666666666666665a2.6666666666666665 2.6666666666666665 0 0 1 2.6666666666666665 2.6666666666666665v42.666666666666664a2.6666666666666665 2.6666666666666665 0 0 1 -2.6666666666666665 2.6666666666666665H106.66666666666666a10.666666666666666 10.666666666666666 0 0 0 0 21.333333333333332h42.666666666666664a10.666666666666666 10.666666666666666 0 0 0 0 -21.333333333333332h-2.6666666666666665a2.6666666666666665 2.6666666666666665 0 0 1 -2.6666666666666665 -2.6666666666666665v-42.666666666666664a2.6666666666666665 2.6666666666666665 0 0 1 2.6666666666666665 -2.6666666666666665Z" fill="#ffffff" stroke-width="10.6667"></path>
    <path d="M229.33333333333331 128a10.666666666666666 10.666666666666666 0 0 0 0 -21.333333333333332h-42.666666666666664a10.666666666666666 10.666666666666666 0 0 0 0 21.333333333333332h2.6666666666666665a2.6666666666666665 2.6666666666666665 0 0 1 2.6666666666666665 2.6666666666666665v42.666666666666664a2.6666666666666665 2.6666666666666665 0 0 1 -2.6666666666666665 2.6666666666666665h-2.6666666666666665a10.666666666666666 10.666666666666666 0 0 0 0 21.333333333333332h42.666666666666664a10.666666666666666 10.666666666666666 0 0 0 0 -21.333333333333332h-2.6666666666666665a2.6666666666666665 2.6666666666666665 0 0 1 -2.6666666666666665 -2.6666666666666665v-42.666666666666664a2.6666666666666665 2.6666666666666665 0 0 1 2.6666666666666665 -2.6666666666666665Z" fill="#ffffff" stroke-width="10.6667"></path>
    <path d="M26.133333333333333 90.66666666666666h204.79999999999998a10.666666666666666 10.666666666666666 0 0 0 9.92 -6.186666666666666 9.386666666666667 9.386666666666667 0 0 0 -3.3066666666666666 -11.413333333333334L140.16 2.1333333333333333a11.413333333333334 11.413333333333334 0 0 0 -12.906666666666666 0L19.946666666666665 72.85333333333332a9.28 9.28 0 0 0 -3.733333333333333 11.413333333333334 10.666666666666666 10.666666666666666 0 0 0 9.92 6.3999999999999995Z" fill="#ffffff" stroke-width="10.6667"></path>
    <path d="m255.14666666666668 247.67999999999998 -21.333333333333332 -32a5.4399999999999995 5.4399999999999995 0 0 0 -4.4799999999999995 -2.3466666666666667h-202.66666666666666a5.4399999999999995 5.4399999999999995 0 0 0 -4.4799999999999995 2.3466666666666667l-21.333333333333332 32A5.333333333333333 5.333333333333333 0 0 0 5.333333333333333 256h245.33333333333331a5.333333333333333 5.333333333333333 0 0 0 4.4799999999999995 -8.32Z" fill="#ffffff" stroke-width="10.6667"></path>
  </g>
</svg>