<svg xmlns="http://www.w3.org/2000/svg" viewBox="0 0 256 256" id="Saving-Money-Flower--Streamline-Ultimate" height="256" width="256">
  <desc>
    Saving Money Flower Streamline Icon: https://streamlinehq.com
  </desc>
  <path d="M234.66666666666666 142.39999999999998a5.546666666666667 5.546666666666667 0 0 0 -8.106666666666666 -2.0266666666666664 64.53333333333333 64.53333333333333 0 0 1 -25.066666666666666 10.666666666666666 68.58666666666666 68.58666666666666 0 0 0 -22.4 8.853333333333332 27.52 27.52 0 0 0 -13.76 21.973333333333333 22.93333333333333 22.93333333333333 0 0 0 1.0666666666666667 6.613333333333333 2.453333333333333 2.453333333333333 0 0 1 -0.8533333333333333 2.88 174.18666666666664 174.18666666666664 0 0 0 -18.026666666666664 16.85333333333333 2.6666666666666665 2.6666666666666665 0 0 1 -2.88 0.6399999999999999 2.6666666666666665 2.6666666666666665 0 0 1 -1.7066666666666666 -2.453333333333333v-47.36a2.6666666666666665 2.6666666666666665 0 0 1 2.2399999999999998 -2.6666666666666665 78.72 78.72 0 1 0 -25.813333333333333 0 2.6666666666666665 2.6666666666666665 0 0 1 2.2399999999999998 2.6666666666666665v36.906666666666666a2.7733333333333334 2.7733333333333334 0 0 1 -1.4933333333333334 2.3466666666666667 2.7733333333333334 2.7733333333333334 0 0 1 -2.88 0 114.02666666666666 114.02666666666666 0 0 0 -20.159999999999997 -13.546666666666667 1.7066666666666666 1.7066666666666666 0 0 1 -1.0666666666666667 -1.4933333333333334 29.759999999999998 29.759999999999998 0 0 0 -14.613333333333333 -24A66.98666666666666 66.98666666666666 0 0 0 19.2 160a5.013333333333333 5.013333333333333 0 0 0 -2.3466666666666667 3.9466666666666663 4.906666666666666 4.906666666666666 0 0 0 1.5999999999999999 4.266666666666667 57.70666666666666 57.70666666666666 0 0 1 13.12 21.333333333333332A64 64 0 0 0 42.666666666666664 208.53333333333333a24.64 24.64 0 0 0 22.186666666666667 9.493333333333332 23.46666666666667 23.46666666666667 0 0 0 16.85333333333333 -13.653333333333332 3.1999999999999997 3.1999999999999997 0 0 1 4.16 -1.7066666666666666 81.91999999999999 81.91999999999999 0 0 1 35.519999999999996 32 1.8133333333333335 1.8133333333333335 0 0 1 0 1.2799999999999998V245.33333333333331a10.666666666666666 10.666666666666666 0 0 0 11.2 10.666666666666666 10.666666666666666 10.666666666666666 0 0 0 10.026666666666666 -5.76 150.61333333333332 150.61333333333332 0 0 1 36.266666666666666 -42.666666666666664 1.0666666666666667 1.0666666666666667 0 0 1 1.4933333333333334 0 24.746666666666663 24.746666666666663 0 0 0 16.53333333333333 12.693333333333332 32.959999999999994 32.959999999999994 0 0 0 28.05333333333333 -11.52 73.06666666666666 73.06666666666666 0 0 0 9.706666666666667 -66.34666666666666Zm-121.6 -16a9.386666666666667 9.386666666666667 0 1 1 0 -18.666666666666664h26.026666666666664a7.786666666666666 7.786666666666666 0 0 0 2.88 -15.04l-26.453333333333333 -10.666666666666666a26.560000000000002 26.560000000000002 0 0 1 5.226666666666667 -50.773333333333326c2.2399999999999998 0 2.1333333333333333 -2.3466666666666667 2.1333333333333333 -3.84a9.386666666666667 9.386666666666667 0 1 1 18.666666666666664 0c0 2.453333333333333 1.1733333333333333 3.413333333333333 2.6666666666666665 3.413333333333333h7.253333333333334a9.386666666666667 9.386666666666667 0 0 1 0 18.666666666666664h-25.813333333333333a7.893333333333333 7.893333333333333 0 0 0 -7.893333333333333 7.893333333333333 7.786666666666666 7.786666666666666 0 0 0 4.906666666666666 7.253333333333334l26.453333333333333 10.666666666666666a26.560000000000002 26.560000000000002 0 0 1 -5.119999999999999 50.773333333333326c-2.2399999999999998 0 -2.2399999999999998 2.3466666666666667 -2.2399999999999998 3.84a9.386666666666667 9.386666666666667 0 1 1 -18.666666666666664 0c0 -2.453333333333333 -1.0666666666666667 -3.52 -2.6666666666666665 -3.52Z" fill="#ffffff" stroke-width="10.6667"></path>
</svg>