<svg xmlns="http://www.w3.org/2000/svg" viewBox="0 0 256 256" id="Saving-Dog-Guard-Decrease--Streamline-Ultimate" height="256" width="256">
  <desc>
    Saving Dog Guard Decrease Streamline Icon: https://streamlinehq.com
  </desc>
  <g id="Saving-Dog-Guard-Decrease--Streamline-Ultimate.svg">
    <path d="M256 96a5.333333333333333 5.333333333333333 0 0 0 -3.3066666666666666 -4.906666666666666 5.119999999999999 5.119999999999999 0 0 0 -5.76 1.1733333333333333l-15.36 15.253333333333332a2.5599999999999996 2.5599999999999996 0 0 1 -3.84 0l-48.63999999999999 -51.946666666666665a37.33333333333333 37.33333333333333 0 0 0 -32 -11.413333333333334l-64 8a5.4399999999999995 5.4399999999999995 0 0 1 -4.4799999999999995 -1.4933333333333334L32.64 4.693333333333333A16 16 0 0 0 10.026666666666666 27.306666666666665l45.97333333333333 45.97333333333333a37.22666666666667 37.22666666666667 0 0 0 31.04 10.666666666666666l64 -8.106666666666666a5.226666666666667 5.226666666666667 0 0 1 4.4799999999999995 1.5999999999999999l49.493333333333325 53.33333333333333a2.6666666666666665 2.6666666666666665 0 0 1 0 3.733333333333333l-16.85333333333333 16.96a5.013333333333333 5.013333333333333 0 0 0 -1.1733333333333333 5.76 5.333333333333333 5.333333333333333 0 0 0 5.013333333333333 2.7733333333333334h58.666666666666664a5.333333333333333 5.333333333333333 0 0 0 5.333333333333333 -5.333333333333333Z" fill="#ffffff" stroke-width="10.6667"></path>
    <path d="M143.14666666666665 142.93333333333334a2.7733333333333334 2.7733333333333334 0 0 1 0 -1.5999999999999999v-19.306666666666665a24.53333333333333 24.53333333333333 0 0 0 -23.36 -23.36 25.813333333333333 25.813333333333333 0 0 0 -21.333333333333332 16.53333333333333 2.7733333333333334 2.7733333333333334 0 0 1 -2.3466666666666667 1.4933333333333334H58.56a2.7733333333333334 2.7733333333333334 0 0 1 -2.3466666666666667 -1.4933333333333334 25.813333333333333 25.813333333333333 0 0 0 -21.333333333333332 -16.53333333333333 24.53333333333333 24.53333333333333 0 0 0 -23.36 23.36v18.453333333333333a3.413333333333333 3.413333333333333 0 0 1 0 1.4933333333333334L10.666666666666666 142.93333333333334a60.8 60.8 0 0 0 -10.666666666666666 34.879999999999995 56.32 56.32 0 0 0 32 52.266666666666666 1.92 1.92 0 0 1 0.96 1.0666666666666667A55.04 55.04 0 0 0 77.33333333333333 256a55.14666666666666 55.14666666666666 0 0 0 44.693333333333335 -24.959999999999997 1.92 1.92 0 0 1 0.7466666666666667 -0.8533333333333333c12.693333333333332 -8.959999999999999 31.36 -21.333333333333332 31.36 -52.373333333333335a60.693333333333335 60.693333333333335 0 0 0 -10.666666666666666 -34.879999999999995Zm-65.81333333333333 97.06666666666666A41.49333333333333 41.49333333333333 0 0 1 53.33333333333333 230.71999999999997a2.6666666666666665 2.6666666666666665 0 0 1 1.5999999999999999 -4.693333333333333h10.666666666666666a19.306666666666665 19.306666666666665 0 0 0 10.666666666666666 -3.3066666666666666 2.5599999999999996 2.5599999999999996 0 0 1 2.986666666666667 0 19.306666666666665 19.306666666666665 0 0 0 10.666666666666666 3.3066666666666666h10.666666666666666a2.6666666666666665 2.6666666666666665 0 0 1 1.5999999999999999 4.693333333333333 41.49333333333333 41.49333333333333 0 0 1 -24.85333333333333 9.28ZM53.33333333333333 151.35999999999999a8 8 0 1 1 -8 -8 8.106666666666666 8.106666666666666 0 0 1 8 8Zm24 32a8 8 0 0 0 -8 8v14.613333333333333a5.226666666666667 5.226666666666667 0 0 1 -4.053333333333333 4.053333333333333H51.519999999999996a2.453333333333333 2.453333333333333 0 0 1 -2.1333333333333333 -1.1733333333333333 2.453333333333333 2.453333333333333 0 0 1 0 -2.453333333333333c5.76 -16.32 17.173333333333332 -40.42666666666666 28.266666666666666 -40.42666666666666s22.506666666666664 23.893333333333334 28.373333333333335 40.42666666666666a2.453333333333333 2.453333333333333 0 0 1 0 2.453333333333333 2.453333333333333 2.453333333333333 0 0 1 -2.1333333333333333 1.1733333333333333H89.38666666666667a5.226666666666667 5.226666666666667 0 0 1 -4.053333333333333 -4.053333333333333v-14.613333333333333a8 8 0 0 0 -8 -8Zm37.65333333333333 -24a7.68 7.68 0 1 1 7.68 -7.68 7.68 7.68 0 0 1 -7.68 7.68Z" fill="#ffffff" stroke-width="10.6667"></path>
  </g>
</svg>