<svg xmlns="http://www.w3.org/2000/svg" viewBox="0 0 256 256" id="Saving-Bank-International--Streamline-Ultimate" height="256" width="256">
  <desc>
    Saving Bank International Streamline Icon: https://streamlinehq.com
  </desc>
  <g id="Saving-Bank-International--Streamline-Ultimate.svg">
    <path d="M248.28906666666666 117.9296c-3.8581333333333334 -92.58773333333332 -106.49813333333333 -146.27839999999998 -184.75306666666665 -96.6432 -36.31786666666666 23.034666666666666 -57.58826666666667 63.696 -55.79733333333333 106.66666666666666v5.412266666666666c-0.2432 45.89333333333333 25.652266666666666 87.92533333333333 66.75306666666665 108.34773333333334 1.3738666666666666 0.6656 2.882133333333333 1.0090666666666666 4.409599999999999 1.0026666666666666 3.7877333333333336 0.04479999999999999 7.277866666666666 -2.0490666666666666 9.0208 -5.412266666666666 2.341333333333333 -4.877866666666666 0.3893333333333333 -10.733866666666666 -4.410666666666666 -13.230933333333333 -11.399466666666665 -5.828266666666666 -21.599999999999998 -13.751466666666666 -30.068266666666666 -23.3536 -0.5290666666666666 -0.8245333333333332 -0.5290666666666666 -1.8816 0 -2.706133333333333 0.38506666666666667 -0.8832 1.2416 -1.4677333333333333 2.2047999999999996 -1.5029333333333332h25.959466666666664c0.9994666666666667 -0.0031999999999999997 1.9050666666666667 0.5866666666666667 2.3050666666666664 1.5029333333333332q2.706133333333333 6.2143999999999995 5.713066666666666 12.328533333333333c1.7098666666666666 3.3002666666666665 5.103999999999999 5.3824000000000005 8.820266666666665 5.412266666666666 7.2 -0.1973333333333333 11.847466666666666 -7.697066666666666 8.820266666666665 -14.232533333333333 -1.6031999999999997 -3.307733333333333 -3.207466666666667 -6.615466666666666 -4.610133333333333 -10.0224 -0.24533333333333332 -0.5770666666666666 -0.24533333333333332 -1.2277333333333331 0 -1.8047999999999997 0.15146666666666667 -1.0304 0.15146666666666667 -2.0768 0 -3.1071999999999997 -0.022399999999999996 -3.5584 -1.9296 -6.839466666666667 -5.012266666666666 -8.619733333333333 -0.5717333333333333 -0.28906666666666664 -1.0048 -0.7935999999999999 -1.2021333333333333 -1.4026666666666667 -3.8730666666666664 -11.403733333333332 -6.4608 -23.2032 -7.7184 -35.1808 -0.07253333333333332 -0.7093333333333334 0.18666666666666668 -1.4122666666666666 0.7018666666666666 -1.904 0.4085333333333333 -0.5877333333333333 1.0890666666666666 -0.9279999999999999 1.8047999999999997 -0.9023999999999999h6.714666666666666c7.716266666666667 0 12.538666666666666 -8.352 8.680533333333333 -15.034666666666666 -1.7909333333333333 -3.1008 -5.099733333333333 -5.0112 -8.680533333333333 -5.0112h-6.6144c-0.7082666666666666 -0.007466666666666667 -1.3738666666666666 -0.3402666666666666 -1.8047999999999997 -0.9023999999999999 -0.49279999999999996 -0.5024 -0.7157333333333333 -1.2096 -0.6015999999999999 -1.904 1.0037333333333334 -11.144533333333332 3.3952 -22.1216 7.1168 -32.67413333333333 0.37226666666666663 -1.0111999999999999 1.3290666666666666 -1.6885333333333332 2.405333333333333 -1.7045333333333332h60.1376c1.0495999999999999 0.0288 1.9701333333333333 0.7093333333333334 2.3050666666666664 1.7045333333333332 2.2272 6.237866666666666 3.9690666666666665 12.637866666666667 5.2128 19.143466666666665 0.9663999999999999 4.7424 5.183999999999999 8.116266666666666 10.0224 8.018133333333333 0.6314666666666666 0.09386666666666667 1.2725333333333333 0.09386666666666667 1.904 0 5.245866666666666 -1.1541333333333332 8.648533333333333 -6.2368 7.7184 -11.526399999999999 -0.9023999999999999 -4.7104 -2.005333333333333 -9.3216 -3.307733333333333 -13.931733333333334 -0.3413333333333333 -0.6954666666666666 -0.3413333333333333 -1.5093333333333332 0 -2.2047999999999996 0.48319999999999996 -0.6197333333333332 1.2191999999999998 -0.9877333333333334 2.0042666666666666 -1.0026666666666666h28.765866666666668c0.8885333333333333 0.012799999999999999 1.6981333333333333 0.5130666666666666 2.1045333333333334 1.3034666666666666 6.7914666666666665 11.532799999999998 11.188266666666665 24.31573333333333 12.930133333333332 37.58613333333333 0.9642666666666666 7.7152 9.918933333333332 11.493333333333332 16.119466666666668 6.799999999999999 2.8768 -2.1781333333333333 4.373333333333333 -5.725866666666667 3.9263999999999997 -9.306666666666667ZM89.72586666666666 40.35306666666666c1.7504 -0.8106666666666666 3.7215999999999996 0.5770666666666666 3.5488 2.498133333333333 -0.039466666666666664 0.43520000000000003 -0.19199999999999998 0.8522666666666666 -0.4416 1.2096 -3.198933333333333 5.0784 -6.109866666666666 10.331733333333332 -8.719999999999999 15.736533333333334 -0.4298666666666667 0.8288 -1.2714666666666665 1.3642666666666667 -2.2047999999999996 1.4026666666666667H64.76906666666666c-1.0773333333333333 -0.016 -2.0330666666666666 -0.6933333333333334 -2.405333333333333 -1.7034666666666667 -0.3552 -0.992 -0.07786666666666667 -2.0991999999999997 0.7018666666666666 -2.8064 8.024533333333332 -6.7424 17.010133333333332 -12.248533333333334 26.660266666666665 -16.337066666666665ZM75.19253333333333 173.25653333333332c0.3392 0.6602666666666666 0.3392 1.4442666666666666 0 2.1045333333333334 -0.45013333333333333 0.6581333333333332 -1.2074666666666665 1.0378666666666665 -2.0042666666666666 1.0026666666666666H38.60906666666666c-0.9472 0.007466666666666667 -1.8101333333333331 -0.5418666666666666 -2.2047999999999996 -1.4037333333333333 -4.802133333333333 -10.605866666666666 -7.7184 -21.967999999999996 -8.619733333333333 -33.57653333333333 -0.0608 -0.6890666666666667 0.15573333333333333 -1.3738666666666666 0.6015999999999999 -1.904 0.5034666666666666 -0.5087999999999999 1.1882666666666666 -0.7968 1.904 -0.8021333333333334h36.282666666666664c1.3098666666666667 -0.004266666666666667 2.4010666666666665 1.0005333333333333 2.5056 2.3050666666666664 1.0677333333333332 10.919466666666667 3.1146666666666665 21.720533333333336 6.114133333333333 32.27413333333333Zm-6.314666666666666 -56.629333333333335c-0.10453333333333333 1.3045333333333333 -1.1957333333333333 2.309333333333333 -2.5056 2.3050666666666664H31.493333333333332c-0.7232 0.03306666666666666 -1.4229333333333332 -0.2613333333333333 -1.9050666666666667 -0.8021333333333334 -0.4874666666666666 -0.5855999999999999 -0.7061333333333333 -1.3493333333333333 -0.6015999999999999 -2.1045333333333334 2.1216 -11.964799999999999 6.401066666666666 -23.444266666666667 12.629333333333332 -33.87733333333333 0.4565333333333333 -0.7904 1.2928 -1.2853333333333332 2.2047999999999996 -1.3034666666666666h28.364799999999995c0.7893333333333332 0 1.5317333333333334 0.3712 2.005333333333333 1.0026666666666666 0.37439999999999996 0.6869333333333333 0.37439999999999996 1.5178666666666667 0 2.2047999999999996 -2.9610666666666665 10.6304 -4.7424 21.554133333333333 -5.311999999999999 32.574933333333334Zm41.19466666666666 -55.4272c-0.8757333333333334 -0.05226666666666666 -1.6671999999999998 -0.5418666666666666 -2.1045333333333334 -1.3024 -0.3936 -0.7893333333333332 -0.3936 -1.7173333333333334 0 -2.5056 5.092266666666666 -8.429866666666666 10.892800000000001 -16.409599999999998 17.33973333333333 -23.854933333333335 0.5087999999999999 -0.41173333333333334 1.1498666666666666 -0.6261333333333333 1.8037333333333332 -0.6015999999999999h2.6058666666666666c0.7178666666666667 -0.0063999999999999994 1.4069333333333331 0.2837333333333333 1.904 0.8021333333333334 6.4778666666666656 7.419733333333333 12.2816 15.402666666666665 17.33973333333333 23.854933333333335 0.4938666666666667 0.7616 0.4938666666666667 1.7429333333333332 0 2.5056 -0.38826666666666665 0.8053333333333332 -1.2096 1.3141333333333334 -2.1045333333333334 1.3024Zm53.822933333333324 -17.1392c-0.608 -0.9098666666666666 -0.608 -2.0970666666666666 0 -3.006933333333333 0.6922666666666666 -0.8042666666666666 1.8165333333333333 -1.0858666666666665 2.8064 -0.7007999999999999 9.706666666666667 4.039466666666666 18.732799999999997 9.549866666666667 26.7616 16.337066666666665 0.7914666666666667 0.6986666666666667 1.1050666666666666 1.7941333333333331 0.8021333333333334 2.8064 -0.37333333333333335 1.0101333333333333 -1.3290666666666666 1.6874666666666667 -2.4063999999999997 1.7034666666666667h-16.938666666666666c-0.9994666666666667 0.0031999999999999997 -1.9050666666666667 -0.5866666666666667 -2.3050666666666664 -1.5029333333333332 -2.5930666666666666 -5.381333333333332 -5.505066666666666 -10.6016 -8.719999999999999 -15.636266666666666Z" fill="#ffffff" stroke-width="10.6667"></path>
    <path d="M124.70613333333333 175.66186666666664h15.034666666666666s2.5056 0 2.5056 2.5056v45.104s0 2.5056 -2.5056 2.5056h-15.034666666666666s-2.5056 0 -2.5056 -2.5056v-45.104s0 -2.5056 2.5056 -2.5056" fill="#ffffff" stroke-width="10.6667"></path>
    <path d="M164.79786666666666 175.66186666666664h15.034666666666666s2.5056 0 2.5056 2.5056v45.104s0 2.5056 -2.5056 2.5056h-15.034666666666666s-2.5056 0 -2.5056 -2.5056v-45.104s0 -2.5056 2.5056 -2.5056" fill="#ffffff" stroke-width="10.6667"></path>
    <path d="M204.8896 175.66186666666664h15.034666666666666s2.5056 0 2.5056 2.5056v45.104s0 2.5056 -2.5056 2.5056h-15.034666666666666s-2.5056 0 -2.5056 -2.5056v-45.104s0 -2.5056 2.5056 -2.5056" fill="#ffffff" stroke-width="10.6667"></path>
    <path d="M228.2432 238.30506666666668H117.9904c-5.825066666666666 0 -9.465599999999998 6.3061333333333325 -6.553599999999999 11.351466666666667 1.3525333333333331 2.341333333333333 3.8506666666666662 3.7834666666666665 6.553599999999999 3.7834666666666665h110.2528c5.786666666666666 -0.021333333333333333 9.379199999999999 -6.299733333333333 6.467199999999999 -11.300266666666666 -1.3408 -2.3029333333333333 -3.8015999999999996 -3.7237333333333336 -6.467199999999999 -3.7344Z" fill="#ffffff" stroke-width="10.6667"></path>
    <path d="m234.75733333333335 155.61599999999999 -57.93173333333333 -28.966399999999997c-2.8373333333333335 -1.4293333333333333 -6.183466666666666 -1.4293333333333333 -9.0208 0l-57.83253333333333 28.966399999999997c-2.1162666666666663 0.9898666666666666 -3.214933333333333 3.3578666666666668 -2.6058666666666666 5.6128 0.5152 2.238933333333333 2.514133333333333 3.8208 4.810666666666666 3.8090666666666664h120.2752c3.8581333333333334 -0.05653333333333333 6.206933333333333 -4.267733333333333 4.229333333333333 -7.5808 -0.46399999999999997 -0.7754666666666666 -1.1285333333333334 -1.4122666666666666 -1.9242666666666666 -1.8410666666666666Z" fill="#ffffff" stroke-width="10.6667"></path>
  </g>
</svg>