<svg xmlns="http://www.w3.org/2000/svg" viewBox="0 0 256 256" id="Scanner--Streamline-Ultimate" height="256" width="256">
  <desc>
    Scanner Streamline Icon: https://streamlinehq.com
  </desc>
  <g id="Scanner--Streamline-Ultimate.svg">
    <path d="M3.52 213.33333333333331a2.6666666666666665 2.6666666666666665 0 0 0 -2.0266666666666664 0.96 2.986666666666667 2.986666666666667 0 0 0 -0.5333333333333333 2.1333333333333333C4.906666666666666 240.95999999999998 26.133333333333333 256 58.666666666666664 256h138.66666666666666c32.53333333333333 0 53.33333333333333 -15.04 57.70666666666666 -39.57333333333333a2.986666666666667 2.986666666666667 0 0 0 -0.5333333333333333 -2.1333333333333333 2.6666666666666665 2.6666666666666665 0 0 0 -2.0266666666666664 -0.96Zm204.48000000000002 10.666666666666666a8 8 0 1 1 -8 8 8.106666666666666 8.106666666666666 0 0 1 8 -8Zm-32 0a8 8 0 1 1 -8 8 8.106666666666666 8.106666666666666 0 0 1 8 -8Z" fill="#ffffff" stroke-width="10.6667"></path>
    <path d="M42.666666666666664 104a2.6666666666666665 2.6666666666666665 0 0 0 -2.453333333333333 1.7066666666666666L3.1999999999999997 199.04a2.88 2.88 0 0 0 0 2.453333333333333 2.7733333333333334 2.7733333333333334 0 0 0 2.453333333333333 1.1733333333333333h244.69333333333333a2.7733333333333334 2.7733333333333334 0 0 0 2.2399999999999998 -1.1733333333333333 2.88 2.88 0 0 0 0 -2.453333333333333L215.46666666666664 105.70666666666666a2.6666666666666665 2.6666666666666665 0 0 0 -2.1333333333333333 -1.7066666666666666Zm169.38666666666666 80.32a5.119999999999999 5.119999999999999 0 0 1 -4.373333333333333 2.3466666666666667H48a5.119999999999999 5.119999999999999 0 0 1 -4.373333333333333 -2.3466666666666667 4.8 4.8 0 0 1 0 -4.906666666666666l21.333333333333332 -53.33333333333333a5.119999999999999 5.119999999999999 0 0 1 4.906666666666666 -3.413333333333333h117.33333333333333a5.119999999999999 5.119999999999999 0 0 1 4.906666666666666 3.413333333333333l21.333333333333332 53.33333333333333a4.8 4.8 0 0 1 -1.0666666666666667 4.906666666666666Z" fill="#ffffff" stroke-width="10.6667"></path>
    <path d="M214.29333333333332 88a2.5599999999999996 2.5599999999999996 0 0 0 2.5599999999999996 -2.1333333333333333L234.66666666666666 6.506666666666666a5.226666666666667 5.226666666666667 0 0 0 -1.0666666666666667 -4.4799999999999995 5.4399999999999995 5.4399999999999995 0 0 0 -4.266666666666667 -2.0266666666666664h-202.66666666666666a5.4399999999999995 5.4399999999999995 0 0 0 -4.16 2.0266666666666664 5.226666666666667 5.226666666666667 0 0 0 -1.1733333333333333 4.4799999999999995l17.813333333333333 79.36a2.5599999999999996 2.5599999999999996 0 0 0 2.5599999999999996 2.1333333333333333Z" fill="#ffffff" stroke-width="10.6667"></path>
  </g>
</svg>