<svg xmlns="http://www.w3.org/2000/svg" id="Science-Molecule-Strucutre--Streamline-Ultimate" width="256" height="256" viewBox="0 0 256 256"><desc>Science Molecule Strucutre Streamline Icon: https://streamlinehq.com</desc><path fill="#fff" stroke-width="10.667" d="m226.55999999999997 58.239999999999995 -32 -18.346666666666664a16 16 0 0 0 -15.893333333333333 0l-27.733333333333334 15.893333333333333a5.013333333333333 5.013333333333333 0 0 1 -4.586666666666666 0l-36.373333333333335 -13.973333333333333a5.333333333333333 5.333333333333333 0 0 1 -3.3066666666666666 -5.013333333333333V22.613333333333333A13.12 13.12 0 0 0 99.30666666666667 10.666666666666666L80.63999999999999 1.3866666666666667a13.76 13.76 0 0 0 -11.946666666666667 0L50.02666666666667 10.666666666666666A13.12 13.12 0 0 0 42.666666666666664 22.613333333333333v23.146666666666665a13.226666666666667 13.226666666666667 0 0 0 7.253333333333334 11.84l18.666666666666664 9.6a13.12 13.12 0 0 0 12.159999999999998 0l13.333333333333332 -6.826666666666666a5.226666666666667 5.226666666666667 0 0 1 4.373333333333333 0L135.35999999999999 74.66666666666666a5.333333333333333 5.333333333333333 0 0 1 3.3066666666666666 5.013333333333333v23.57333333333333a15.786666666666665 15.786666666666665 0 0 0 8.106666666666666 13.866666666666667l17.173333333333332 9.92a2.5599999999999996 2.5599999999999996 0 0 1 1.3866666666666667 2.1333333333333333 2.6666666666666665 2.6666666666666665 0 0 1 -1.0666666666666667 2.2399999999999998l-34.239999999999995 25.386666666666663a5.333333333333333 5.333333333333333 0 0 1 -5.76 0l-36.48 -20.266666666666666a16.106666666666666 16.106666666666666 0 0 0 -15.573333333333332 0l-42.666666666666664 23.68A16.32 16.32 0 0 0 21.333333333333332 174.61333333333334v41.70666666666666a16 16 0 0 0 8.213333333333333 13.973333333333333l42.666666666666664 23.68a16 16 0 0 0 15.573333333333332 0l42.666666666666664 -23.68a16 16 0 0 0 8.213333333333333 -13.973333333333333v-36.69333333333333a5.4399999999999995 5.4399999999999995 0 0 1 2.1333333333333333 -4.266666666666667 760.5333333333333 760.5333333333333 0 0 1 85.33333333333333 -58.239999999999995 15.786666666666665 15.786666666666665 0 0 0 8.533333333333333 -13.866666666666667V72.10666666666665a15.786666666666665 15.786666666666665 0 0 0 -8.106666666666666 -13.866666666666667Zm-149.33333333333331 -13.12a5.653333333333333 5.653333333333333 0 0 1 -4.906666666666666 0L66.88 42.666666666666664A5.226666666666667 5.226666666666667 0 0 1 64 37.65333333333333V30.93333333333333a5.333333333333333 5.333333333333333 0 0 1 2.986666666666667 -4.8l5.333333333333333 -2.6666666666666665a5.226666666666667 5.226666666666667 0 0 1 4.693333333333333 0l5.333333333333333 2.6666666666666665A5.333333333333333 5.333333333333333 0 0 1 85.33333333333333 30.93333333333333v6.72a5.226666666666667 5.226666666666667 0 0 1 -2.88 5.013333333333333ZM117.33333333333333 210.02666666666667a5.4399999999999995 5.4399999999999995 0 0 1 -2.7733333333333334 4.693333333333333l-32 17.706666666666663a4.906666666666666 4.906666666666666 0 0 1 -5.119999999999999 0l-32 -17.706666666666663a5.4399999999999995 5.4399999999999995 0 0 1 -2.7733333333333334 -4.693333333333333V181.33333333333331a5.119999999999999 5.119999999999999 0 0 1 2.7733333333333334 -4.586666666666666l32 -17.813333333333333a5.4399999999999995 5.4399999999999995 0 0 1 5.119999999999999 0l32 17.813333333333333A5.119999999999999 5.119999999999999 0 0 1 117.33333333333333 181.33333333333331ZM213.33333333333331 97.06666666666666a5.333333333333333 5.333333333333333 0 0 1 -2.6666666666666665 4.586666666666666l-21.333333333333332 12.266666666666666a5.866666666666667 5.866666666666667 0 0 1 -5.333333333333333 0l-21.333333333333332 -12.266666666666666A5.333333333333333 5.333333333333333 0 0 1 160 97.06666666666666V78.29333333333332a5.546666666666667 5.546666666666667 0 0 1 2.6666666666666665 -4.693333333333333l21.333333333333332 -12.159999999999998a5.546666666666667 5.546666666666667 0 0 1 5.333333333333333 0l21.333333333333332 12.266666666666666a5.333333333333333 5.333333333333333 0 0 1 2.6666666666666665 4.586666666666666Z"/></svg>