<svg xmlns="http://www.w3.org/2000/svg" viewBox="0 0 256 256" id="Science-Molecule--Streamline-Ultimate" height="256" width="256">
  <desc>
    Science Molecule Streamline Icon: https://streamlinehq.com
  </desc>
  <g id="Science-Molecule--Streamline-Ultimate.svg">
    <path d="M223.36 124.69333333333333c17.493333333333332 -21.333333333333332 25.386666666666663 -43.519999999999996 15.466666666666665 -60.693333333333335s-32.85333333333333 -21.333333333333332 -60.266666666666666 -16.96a5.226666666666667 5.226666666666667 0 0 1 -5.76 -3.3066666666666666C162.88 17.813333333333333 147.83999999999997 0 128 0S93.12 17.813333333333333 83.19999999999999 43.73333333333333a5.226666666666667 5.226666666666667 0 0 1 -5.76 3.3066666666666666C50.02666666666667 42.666666666666664 27.093333333333334 46.82666666666666 17.173333333333332 64s-2.0266666666666664 39.14666666666666 15.466666666666665 60.693333333333335a5.119999999999999 5.119999999999999 0 0 1 0 6.613333333333333C15.146666666666665 152.85333333333332 7.253333333333334 174.82666666666665 17.173333333333332 192c7.466666666666666 13.013333333333332 22.506666666666664 18.56 41.38666666666666 18.56a119.78666666666666 119.78666666666666 0 0 0 18.88 -1.5999999999999999 5.226666666666667 5.226666666666667 0 0 1 5.76 3.3066666666666666c9.92 25.92 24.959999999999997 43.73333333333333 44.8 43.73333333333333s34.879999999999995 -17.813333333333333 44.8 -43.73333333333333a5.226666666666667 5.226666666666667 0 0 1 5.76 -3.3066666666666666 119.78666666666666 119.78666666666666 0 0 0 18.88 1.5999999999999999c18.88 0 33.92 -5.546666666666667 41.38666666666666 -18.56 9.92 -17.173333333333332 2.0266666666666664 -39.14666666666666 -15.466666666666665 -60.693333333333335a5.119999999999999 5.119999999999999 0 0 1 0 -6.613333333333333ZM35.626666666666665 74.66666666666666c2.88 -5.013333333333333 10.666666666666666 -8 23.36 -8a84.16 84.16 0 0 1 10.666666666666666 0.7466666666666667 5.333333333333333 5.333333333333333 0 0 1 5.013333333333333 6.293333333333333c-1.2799999999999998 6.293333333333333 -2.3466666666666667 12.693333333333332 -3.1999999999999997 19.306666666666665a4.8 4.8 0 0 1 -2.0266666666666664 3.52c-5.226666666666667 4.053333333333333 -10.666666666666666 8.213333333333333 -15.146666666666665 12.373333333333331a5.013333333333333 5.013333333333333 0 0 1 -4.053333333333333 1.2799999999999998 5.226666666666667 5.226666666666667 0 0 1 -3.733333333333333 -2.0266666666666664C35.519999999999996 93.44 32 81.06666666666666 35.626666666666665 74.66666666666666Zm38.08 111.78666666666666a5.013333333333333 5.013333333333333 0 0 1 -3.626666666666667 2.1333333333333333c-18.24 2.2399999999999998 -30.72 -0.7466666666666667 -34.45333333333333 -7.253333333333334s0 -18.773333333333333 10.666666666666666 -33.49333333333333a5.226666666666667 5.226666666666667 0 0 1 3.733333333333333 -2.0266666666666664 5.013333333333333 5.013333333333333 0 0 1 4.053333333333333 1.2799999999999998c4.8 4.16 9.92 8.32 15.146666666666665 12.373333333333331a4.8 4.8 0 0 1 2.0266666666666664 3.52c0.8533333333333333 6.613333333333333 1.92 13.013333333333332 3.1999999999999997 19.306666666666665a4.906666666666666 4.906666666666666 0 0 1 -0.7466666666666667 4.16Zm30.72 -138.66666666666666C111.68 30.613333333333333 120.53333333333333 21.333333333333332 128 21.333333333333332s16.32 9.28 23.57333333333333 26.133333333333333a5.4399999999999995 5.4399999999999995 0 0 1 -3.3066666666666666 7.253333333333334c-5.973333333333334 1.92 -12.159999999999998 4.266666666666667 -18.24 6.826666666666666a5.333333333333333 5.333333333333333 0 0 1 -4.053333333333333 0c-6.079999999999999 -2.5599999999999996 -12.266666666666666 -4.906666666666666 -18.24 -6.933333333333334a5.226666666666667 5.226666666666667 0 0 1 -3.1999999999999997 -2.7733333333333334 5.653333333333333 5.653333333333333 0 0 1 -0.10666666666666666 -4.373333333333333Zm47.14666666666666 161.06666666666666C144.32 225.38666666666666 135.46666666666664 234.66666666666666 128 234.66666666666666s-16.32 -9.28 -23.57333333333333 -26.133333333333333a5.4399999999999995 5.4399999999999995 0 0 1 3.3066666666666666 -7.253333333333334c5.973333333333334 -1.92 12.159999999999998 -4.266666666666667 18.24 -6.826666666666666a5.333333333333333 5.333333333333333 0 0 1 4.053333333333333 0c6.079999999999999 2.5599999999999996 12.266666666666666 4.906666666666666 18.24 6.826666666666666a5.333333333333333 5.333333333333333 0 0 1 3.1999999999999997 2.88 5.653333333333333 5.653333333333333 0 0 1 0.10666666666666666 4.373333333333333Zm13.12 -62.08a5.4399999999999995 5.4399999999999995 0 0 1 -2.3466666666666667 4.16c-4.906666666666666 3.1999999999999997 -10.666666666666666 6.506666666666666 -15.68 9.706666666666667s-10.666666666666666 6.079999999999999 -16.32 8.746666666666666a5.226666666666667 5.226666666666667 0 0 1 -4.693333333333333 0c-5.333333333333333 -2.6666666666666665 -10.666666666666666 -5.546666666666667 -16.32 -8.746666666666666s-10.666666666666666 -6.506666666666666 -15.68 -9.706666666666667a5.4399999999999995 5.4399999999999995 0 0 1 -2.3466666666666667 -4.16c0 -5.866666666666667 -0.6399999999999999 -12.053333333333331 -0.6399999999999999 -18.453333333333333s0 -12.586666666666666 0.6399999999999999 -18.453333333333333a5.4399999999999995 5.4399999999999995 0 0 1 2.3466666666666667 -4.16c4.906666666666666 -3.1999999999999997 10.666666666666666 -6.506666666666666 15.68 -9.706666666666667s10.666666666666666 -6.079999999999999 16.32 -8.746666666666666a5.226666666666667 5.226666666666667 0 0 1 4.693333333333333 0c5.333333333333333 2.6666666666666665 10.666666666666666 5.546666666666667 16.32 8.746666666666666s10.666666666666666 6.506666666666666 15.68 9.706666666666667a5.4399999999999995 5.4399999999999995 0 0 1 2.3466666666666667 4.16c0 5.866666666666667 0.6399999999999999 12.053333333333331 0.6399999999999999 18.453333333333333s-0.21333333333333332 12.266666666666666 -0.6399999999999999 18.133333333333333ZM220.37333333333333 181.33333333333331c-3.733333333333333 6.3999999999999995 -16.21333333333333 9.493333333333332 -34.45333333333333 7.253333333333334a5.333333333333333 5.333333333333333 0 0 1 -4.586666666666666 -6.293333333333333c1.2799999999999998 -6.293333333333333 2.3466666666666667 -12.693333333333332 3.1999999999999997 -19.306666666666665a4.8 4.8 0 0 1 2.0266666666666664 -3.52c5.226666666666667 -4.053333333333333 10.666666666666666 -8.213333333333333 15.146666666666665 -12.373333333333331a5.013333333333333 5.013333333333333 0 0 1 4.053333333333333 -1.2799999999999998 5.226666666666667 5.226666666666667 0 0 1 3.733333333333333 2.0266666666666664C220.48000000000002 162.56 224 174.9333333333333 220.37333333333333 181.33333333333331Zm-10.666666666666666 -73.17333333333333a5.226666666666667 5.226666666666667 0 0 1 -3.733333333333333 2.0266666666666664 5.013333333333333 5.013333333333333 0 0 1 -4.053333333333333 -1.2799999999999998c-4.8 -4.16 -9.92 -8.32 -15.146666666666665 -12.373333333333331a4.8 4.8 0 0 1 -2.0266666666666664 -3.52c-0.8533333333333333 -6.613333333333333 -1.92 -13.013333333333332 -3.1999999999999997 -19.306666666666665a5.333333333333333 5.333333333333333 0 0 1 4.586666666666666 -6.293333333333333 84.16 84.16 0 0 1 10.666666666666666 -0.7466666666666667c12.159999999999998 0 20.479999999999997 2.986666666666667 23.36 8s0.31999999999999995 18.773333333333333 -10.666666666666666 33.49333333333333Z" fill="#ffffff" stroke-width="10.6667"></path>
    <path d="M107.09333333333332 128a20.906666666666666 20.37333333333333 0 1 0 41.81333333333333 0 20.906666666666666 20.37333333333333 0 1 0 -41.81333333333333 0" fill="#ffffff" stroke-width="10.6667"></path>
  </g>
</svg>