<svg xmlns="http://www.w3.org/2000/svg" viewBox="0 0 256 256" id="Scissors-2--Streamline-Ultimate" height="256" width="256">
  <desc>
    Scissors 2 Streamline Icon: https://streamlinehq.com
  </desc>
  <path d="m253.44 189.33333333333331 -98.98666666666665 -58.879999999999995a2.6666666666666665 2.6666666666666665 0 0 1 0 -4.586666666666666l98.88 -56.63999999999999a5.119999999999999 5.119999999999999 0 0 0 2.6666666666666665 -3.3066666666666666 4.906666666666666 4.906666666666666 0 0 0 -0.5333333333333333 -4.053333333333333 28.69333333333333 28.69333333333333 0 0 0 -37.86666666666666 -9.813333333333333L104.32 115.2a2.6666666666666665 2.6666666666666665 0 0 1 -2.5599999999999996 0L75.94666666666666 101.22666666666666A47.57333333333333 47.57333333333333 0 1 0 5.866666666666667 85.86666666666667a10.666666666666666 10.666666666666666 0 0 0 4.16 4.053333333333333l66.24 35.733333333333334a2.6666666666666665 2.6666666666666665 0 0 1 0 4.693333333333333L10.026666666666666 166.07999999999998a10.666666666666666 10.666666666666666 0 0 0 -4.16 4.586666666666666 47.67999999999999 47.67999999999999 0 0 0 7.786666666666666 56.32 45.97333333333333 45.97333333333333 0 0 0 19.84 12.053333333333331 47.57333333333333 47.57333333333333 0 0 0 42.666666666666664 -83.73333333333332l25.599999999999998 -14.506666666666668a2.453333333333333 2.453333333333333 0 0 1 2.5599999999999996 0l112.96 65.49333333333333a26.88 26.88 0 0 0 13.44 3.52 28.8 28.8 0 0 0 24.53333333333333 -13.333333333333332 5.333333333333333 5.333333333333333 0 0 0 -1.8133333333333335 -7.1466666666666665ZM53.33333333333333 88.74666666666667l-30.08 -16a25.493333333333332 25.493333333333332 0 0 1 1.92 -23.146666666666665 25.813333333333333 25.813333333333333 0 0 1 22.506666666666664 -12.799999999999999A26.24 26.24 0 0 1 53.33333333333333 88.74666666666667Zm-5.653333333333333 130.45333333333332a25.813333333333333 25.813333333333333 0 0 1 -22.506666666666664 -12.799999999999999 25.706666666666667 25.706666666666667 0 0 1 -1.92 -23.253333333333334L53.33333333333333 167.25333333333333a26.24 26.24 0 0 1 -5.226666666666667 51.946666666666665Z" fill="#ffffff" stroke-width="10.6667"></path>
</svg>