<svg xmlns="http://www.w3.org/2000/svg" id="Scooter-3--Streamline-Ultimate" width="256" height="256" viewBox="0 0 256 256"><desc>Scooter 3 Streamline Icon: https://streamlinehq.com</desc><path fill="#fff" stroke-width="10.667" d="M239.67999999999998 82.66666666666666a10.666666666666666 10.666666666666666 0 0 0 -10.666666666666666 -10.666666666666666h-39.68a2.6666666666666665 2.6666666666666665 0 0 1 -2.6666666666666665 -2.6666666666666665v-10.666666666666666a58.666666666666664 58.666666666666664 0 0 0 -117.33333333333333 0v10.666666666666666a2.6666666666666665 2.6666666666666665 0 0 1 -2.6666666666666665 2.6666666666666665H26.986666666666665a10.666666666666666 10.666666666666666 0 1 0 0 21.333333333333332h28.373333333333335a2.7733333333333334 2.7733333333333334 0 0 1 2.6666666666666665 2.1333333333333333L82.13333333333333 206.82666666666665a24.746666666666663 24.746666666666663 0 0 0 9.6 14.826666666666664 3.093333333333333 3.093333333333333 0 0 0 2.88 0 2.6666666666666665 2.6666666666666665 0 0 0 1.3866666666666667 -2.1333333333333333v-36.586666666666666a32 32 0 0 1 14.826666666666664 -26.88 2.7733333333333334 2.7733333333333334 0 0 1 2.88 0l4.8 2.986666666666667a18.88 18.88 0 0 0 8.853333333333332 2.5599999999999996 21.333333333333332 21.333333333333332 0 0 0 -20.69333333333333 21.333333333333332V234.66666666666666a21.333333333333332 21.333333333333332 0 0 0 42.666666666666664 0v-51.73333333333333a21.333333333333332 21.333333333333332 0 0 0 -21.333333333333332 -21.333333333333332 16.96 16.96 0 0 0 8.853333333333332 -2.5599999999999996l4.906666666666666 -2.986666666666667a2.7733333333333334 2.7733333333333334 0 0 1 2.88 0A32 32 0 0 1 160 182.9333333333333v36.48a2.7733333333333334 2.7733333333333334 0 0 0 1.4933333333333334 2.3466666666666667 2.88 2.88 0 0 0 2.7733333333333334 0 25.173333333333332 25.173333333333332 0 0 0 9.493333333333332 -14.719999999999999L197.76 96a2.6666666666666665 2.6666666666666665 0 0 1 2.5599999999999996 -2.1333333333333333h28.69333333333333a10.666666666666666 10.666666666666666 0 0 0 10.666666666666666 -11.2ZM78.72 115.52 74.66666666666666 96.96a12.053333333333331 12.053333333333331 0 0 1 0 -4.373333333333333L110.50666666666666 106.66666666666666l5.866666666666667 32Zm14.613333333333333 -42.666666666666664a2.6666666666666665 2.6666666666666665 0 0 1 -1.92 -0.8533333333333333 2.7733333333333334 2.7733333333333334 0 0 1 -0.7466666666666667 -1.8133333333333335V58.666666666666664a37.33333333333333 37.33333333333333 0 0 1 74.66666666666666 0v11.306666666666667a2.6666666666666665 2.6666666666666665 0 0 1 -2.6666666666666665 2.6666666666666665ZM181.33333333333331 96.96l-3.9466666666666663 18.56L138.66666666666666 138.66666666666666l5.866666666666667 -32a1.92 1.92 0 0 1 0 -0.96L181.33333333333331 92.58666666666666a11.946666666666667 11.946666666666667 0 0 1 0 4.373333333333333Z"/></svg>