<svg xmlns="http://www.w3.org/2000/svg" id="Scooter-Fast--Streamline-Ultimate" width="256" height="256" viewBox="0 0 256 256"><desc>Scooter Fast Streamline Icon: https://streamlinehq.com</desc><g id="Scooter-Fast--Streamline-Ultimate.svg"><path fill="#fff" stroke-width="10.667" d="M227.0933333333333 190.61333333333334A18.346666666666664 18.346666666666664 0 1 0 245.33333333333331 208.95999999999998a18.346666666666664 18.346666666666664 0 0 0 -18.24 -18.346666666666664Z"/><path fill="#fff" stroke-width="10.667" d="M28.586666666666666 190.61333333333334a18.346666666666664 18.346666666666664 0 1 0 18.346666666666664 18.346666666666664 18.346666666666664 18.346666666666664 0 0 0 -18.346666666666664 -18.346666666666664Z"/><path fill="#fff" stroke-width="10.667" d="M252.0533333333333 165.86666666666667a50.02666666666667 50.02666666666667 0 0 0 -24.959999999999997 -6.72 47.46666666666667 47.46666666666667 0 0 0 -14.08 2.2399999999999998L198.9333333333333 39.36h17.706666666666663a8 8 0 0 0 0 -16h-52.266666666666666a8 8 0 0 0 0 16h18.453333333333333l14.933333333333332 129.49333333333334a49.28 49.28 0 0 0 -18.666666666666664 26.88H76.90666666666667a49.81333333333333 49.81333333333333 0 0 0 -72.96 -29.866666666666664 8 8 0 0 0 -2.88 10.666666666666666 8.106666666666666 8.106666666666666 0 0 0 10.666666666666666 2.986666666666667 33.06666666666666 33.06666666666666 0 0 1 16.85333333333333 -4.586666666666666 33.70666666666666 33.70666666666666 0 0 1 33.49333333333333 29.546666666666667 8.106666666666666 8.106666666666666 0 0 0 8 7.04H185.59999999999997a8.106666666666666 8.106666666666666 0 0 0 8 -7.04 33.70666666666666 33.70666666666666 0 0 1 33.49333333333333 -29.546666666666667 33.06666666666666 33.06666666666666 0 0 1 16.85333333333333 4.586666666666666 8.106666666666666 8.106666666666666 0 0 0 10.666666666666666 -2.986666666666667 8 8 0 0 0 -2.5599999999999996 -10.666666666666666Z"/><path fill="#fff" stroke-width="10.667" d="M86.39999999999999 172.58666666666664a8 8 0 0 0 8 8h66.88a8 8 0 0 0 0 -16H94.39999999999999a7.893333333333333 7.893333333333333 0 0 0 -8 8Z"/><path fill="#fff" stroke-width="10.667" d="M75.62666666666667 39.36h47.04a8 8 0 0 0 0 -16H75.62666666666667a8 8 0 0 0 0 16Z"/><path fill="#fff" stroke-width="10.667" d="M44.266666666666666 86.39999999999999h78.39999999999999a8 8 0 0 0 0 -16H44.266666666666666a8 8 0 0 0 0 16Z"/><path fill="#fff" stroke-width="10.667" d="M12.906666666666666 133.44H122.66666666666666a8 8 0 0 0 0 -16H12.906666666666666a8 8 0 1 0 0 16Z"/></g></svg>