<svg xmlns="http://www.w3.org/2000/svg" viewBox="0 0 256 256" id="Screen-Curved--Streamline-Ultimate" height="256" width="256">
  <desc>
    Screen Curved Streamline Icon: https://streamlinehq.com
  </desc>
  <g id="Screen-Curved--Streamline-Ultimate.svg">
    <path d="M186.66666666666666 229.9733333333333a10.666666666666666 10.666666666666666 0 0 0 -10.666666666666666 -10.666666666666666h-34.666666666666664a2.6666666666666665 2.6666666666666665 0 0 1 -2.6666666666666665 -2.6666666666666665v-10.666666666666666a2.6666666666666665 2.6666666666666665 0 0 0 -2.6666666666666665 -2.6666666666666665h-16a2.6666666666666665 2.6666666666666665 0 0 0 -2.6666666666666665 2.6666666666666665v10.666666666666666a2.6666666666666665 2.6666666666666665 0 0 1 -2.6666666666666665 2.6666666666666665H80a10.666666666666666 10.666666666666666 0 0 0 0 21.333333333333332h96a10.666666666666666 10.666666666666666 0 0 0 10.666666666666666 -10.666666666666666Z" fill="#ffffff" stroke-width="10.6667"></path>
    <path d="M250.34666666666664 19.093333333333334a15.36 15.36 0 0 0 -13.44 -3.3066666666666666A528.64 528.64 0 0 1 128 24.64a528.64 528.64 0 0 1 -108.90666666666667 -8.853333333333332 15.04 15.04 0 0 0 -13.44 3.3066666666666666A16.106666666666666 16.106666666666666 0 0 0 0 31.36v149.33333333333331a15.893333333333333 15.893333333333333 0 0 0 19.093333333333334 15.573333333333332A525.0133333333333 525.0133333333333 0 0 1 128 187.30666666666664a525.0133333333333 525.0133333333333 0 0 1 108.90666666666667 8.959999999999999 15.466666666666665 15.466666666666665 0 0 0 13.44 -3.413333333333333 16.106666666666666 16.106666666666666 0 0 0 5.653333333333333 -12.266666666666666v-149.33333333333331a15.786666666666665 15.786666666666665 0 0 0 -5.653333333333333 -12.159999999999998Zm-18.56 149.33333333333331a7.466666666666666 7.466666666666666 0 0 1 -6.613333333333333 1.7066666666666666 569.3866666666667 569.3866666666667 0 0 0 -97.17333333333332 -6.826666666666666 572.48 572.48 0 0 0 -97.27999999999999 7.359999999999999 7.466666666666666 7.466666666666666 0 0 1 -6.506666666666666 -1.7066666666666666 7.893333333333333 7.893333333333333 0 0 1 -2.88 -6.186666666666666V49.28a8 8 0 0 1 9.386666666666667 -7.893333333333333 568.64 568.64 0 0 0 97.27999999999999 7.253333333333334 568.64 568.64 0 0 0 97.27999999999999 -7.253333333333334 8 8 0 0 1 9.386666666666667 7.893333333333333v113.49333333333334a7.893333333333333 7.893333333333333 0 0 1 -2.88 6.079999999999999Z" fill="#ffffff" stroke-width="10.6667"></path>
  </g>
</svg>