<svg xmlns="http://www.w3.org/2000/svg" id="Screen--Streamline-Ultimate" width="256" height="256" viewBox="0 0 256 256"><desc>Screen Streamline Icon: https://streamlinehq.com</desc><g id="Screen--Streamline-Ultimate.svg"><path fill="#fff" stroke-width="10.667" d="M240 0h-224A16 16 0 0 0 0 16v130.66666666666666a2.6666666666666665 2.6666666666666665 0 0 0 2.6666666666666665 2.6666666666666665h250.66666666666666a2.6666666666666665 2.6666666666666665 0 0 0 2.6666666666666665 -2.6666666666666665V16A16 16 0 0 0 240 0Z"/><path fill="#fff" stroke-width="10.667" d="M253.33333333333331 165.33333333333331H2.6666666666666665a2.6666666666666665 2.6666666666666665 0 0 0 -2.6666666666666665 2.6666666666666665V181.33333333333331a16 16 0 0 0 16 16h88a2.6666666666666665 2.6666666666666665 0 0 1 2.6666666666666665 2.6666666666666665v23.253333333333334a2.5599999999999996 2.5599999999999996 0 0 1 -2.3466666666666667 2.6666666666666665 156.16 156.16 0 0 0 -39.04 9.493333333333332A10.666666666666666 10.666666666666666 0 0 0 69.22666666666666 256h117.33333333333333a10.666666666666666 10.666666666666666 0 0 0 4.053333333333333 -20.586666666666666 156.16 156.16 0 0 0 -39.04 -9.493333333333332 2.5599999999999996 2.5599999999999996 0 0 1 -2.3466666666666667 -2.5599999999999996v-23.36a2.6666666666666665 2.6666666666666665 0 0 1 2.6666666666666665 -2.6666666666666665h88.10666666666665A16 16 0 0 0 256 181.33333333333331v-13.333333333333332a2.6666666666666665 2.6666666666666665 0 0 0 -2.6666666666666665 -2.6666666666666665Z"/></g></svg>