<svg xmlns="http://www.w3.org/2000/svg" viewBox="0 0 256 256" id="Scroll-Vertical--Streamline-Ultimate" height="256" width="256">
  <desc>
    Scroll Vertical Streamline Icon: https://streamlinehq.com
  </desc>
  <g id="Scroll-Vertical--Streamline-Ultimate.svg">
    <path d="M96 127.89333333333333a32 32 0 1 0 64 0 32 32 0 1 0 -64 0" fill="#ffffff" stroke-width="10.6667"></path>
    <path d="m78.72 76.90666666666667 47.36 -47.36a2.5599999999999996 2.5599999999999996 0 0 1 3.84 0l47.36 47.36a13.333333333333332 13.333333333333332 0 0 0 18.773333333333333 -18.88L144.95999999999998 6.933333333333334a24.53333333333333 24.53333333333333 0 0 0 -33.92 0L59.946666666666665 58.02666666666667a13.333333333333332 13.333333333333332 0 0 0 18.773333333333333 18.88Z" fill="#ffffff" stroke-width="10.6667"></path>
    <path d="m177.28 178.88 -47.36 47.36a2.88 2.88 0 0 1 -3.84 0l-47.36 -47.36a13.333333333333332 13.333333333333332 0 0 0 -18.773333333333333 18.88l51.093333333333334 51.093333333333334a24 24 0 0 0 33.92 0l51.093333333333334 -51.093333333333334a13.333333333333332 13.333333333333332 0 0 0 -18.773333333333333 -18.88Z" fill="#ffffff" stroke-width="10.6667"></path>
  </g>
</svg>