<svg xmlns="http://www.w3.org/2000/svg" id="Sd-Card-Download--Streamline-Ultimate" width="256" height="256" viewBox="0 0 256 256"><desc>Sd Card Download Streamline Icon: https://streamlinehq.com</desc><g id="Sd-Card-Download--Streamline-Ultimate.svg"><path fill="#fff" stroke-width="10.667" d="M101.33333333333333 186.66666666666666a85.33333333333333 85.33333333333333 0 0 1 67.19999999999999 -83.30666666666666 2.7733333333333334 2.7733333333333334 0 0 0 2.1333333333333333 -2.6666666666666665V52.373333333333335a16.21333333333333 16.21333333333333 0 0 0 -4.693333333333333 -11.306666666666667L129.6 4.693333333333333A16.21333333333333 16.21333333333333 0 0 0 118.29333333333332 0H16A16 16 0 0 0 0 16V96a5.333333333333333 5.333333333333333 0 0 0 5.333333333333333 5.333333333333333h8a2.6666666666666665 2.6666666666666665 0 0 1 2.6666666666666665 2.6666666666666665v21.333333333333332a2.6666666666666665 2.6666666666666665 0 0 1 -2.6666666666666665 2.6666666666666665H5.333333333333333a5.333333333333333 5.333333333333333 0 0 0 -5.333333333333333 5.333333333333333V213.33333333333331a16 16 0 0 0 16 16h92.37333333333333a2.3466666666666667 2.3466666666666667 0 0 0 2.2399999999999998 -1.2799999999999998 2.453333333333333 2.453333333333333 0 0 0 0 -2.5599999999999996 85.33333333333333 85.33333333333333 0 0 1 -9.28 -38.82666666666667Zm-13.333333333333332 -149.33333333333331v42.666666666666664a8 8 0 0 1 -16 0v-42.666666666666664a8 8 0 0 1 16 0Zm-37.33333333333333 0v42.666666666666664a8 8 0 0 1 -16 0v-42.666666666666664a8 8 0 0 1 16 0Zm74.66666666666666 42.666666666666664a8 8 0 0 1 -16 0v-42.666666666666664a8 8 0 0 1 16 0Z"/><path fill="#fff" stroke-width="10.667" d="M186.66666666666666 256a69.33333333333333 69.33333333333333 0 1 0 -69.33333333333333 -69.33333333333333 69.44 69.44 0 0 0 69.33333333333333 69.33333333333333Zm-26.133333333333333 -66.34666666666666a5.333333333333333 5.333333333333333 0 0 1 4.8 -2.986666666666667h10.666666666666666a2.6666666666666665 2.6666666666666665 0 0 0 2.6666666666666665 -2.6666666666666665V154.66666666666666a8 8 0 0 1 16 0v29.333333333333332a2.6666666666666665 2.6666666666666665 0 0 0 2.6666666666666665 2.6666666666666665h10.666666666666666a5.333333333333333 5.333333333333333 0 0 1 4.8 2.986666666666667 5.4399999999999995 5.4399999999999995 0 0 1 -0.6399999999999999 5.653333333333333l-21.333333333333332 26.666666666666664a5.4399999999999995 5.4399999999999995 0 0 1 -8.32 0l-21.333333333333332 -26.666666666666664a5.4399999999999995 5.4399999999999995 0 0 1 -0.6399999999999999 -5.653333333333333Z"/></g></svg>