<svg xmlns="http://www.w3.org/2000/svg" id="Sd-Card-Sync--Streamline-Ultimate" width="256" height="256" viewBox="0 0 256 256"><desc>Sd Card Sync Streamline Icon: https://streamlinehq.com</desc><g id="Sd-Card-Sync--Streamline-Ultimate.svg"><path fill="#fff" stroke-width="10.667" d="M101.33333333333333 189.33333333333331a87.78666666666666 87.78666666666666 0 0 1 67.19999999999999 -85.33333333333333 2.5599999999999996 2.5599999999999996 0 0 0 2.1333333333333333 -2.6666666666666665V52.373333333333335a16.21333333333333 16.21333333333333 0 0 0 -4.693333333333333 -11.306666666666667L129.6 4.693333333333333A16.21333333333333 16.21333333333333 0 0 0 118.29333333333332 0H16A16 16 0 0 0 0 16V96a5.333333333333333 5.333333333333333 0 0 0 5.333333333333333 5.333333333333333h8a2.6666666666666665 2.6666666666666665 0 0 1 2.6666666666666665 2.6666666666666665v21.333333333333332a2.6666666666666665 2.6666666666666665 0 0 1 -2.6666666666666665 2.6666666666666665H5.333333333333333a5.333333333333333 5.333333333333333 0 0 0 -5.333333333333333 5.333333333333333V213.33333333333331a16 16 0 0 0 16 16h82.66666666666666a2.6666666666666665 2.6666666666666665 0 0 0 2.6666666666666665 -2.6666666666666665ZM88 37.33333333333333v42.666666666666664a8 8 0 0 1 -16 0v-42.666666666666664a8 8 0 0 1 16 0Zm-37.33333333333333 0v42.666666666666664a8 8 0 0 1 -16 0v-42.666666666666664a8 8 0 0 1 16 0Zm74.66666666666666 42.666666666666664a8 8 0 0 1 -16 0v-42.666666666666664a8 8 0 0 1 16 0Z"/><path fill="#fff" stroke-width="10.667" d="M136.74666666666667 235.30666666666664A3.3066666666666666 3.3066666666666666 0 0 1 138.66666666666666 234.66666666666666a2.453333333333333 2.453333333333333 0 0 1 1.92 0.8533333333333333 64.96 64.96 0 0 0 108.90666666666667 -23.46666666666667 10.666666666666666 10.666666666666666 0 1 0 -20.159999999999997 -6.933333333333334 43.626666666666665 43.626666666666665 0 0 1 -73.81333333333333 15.146666666666665 2.5599999999999996 2.5599999999999996 0 0 1 0 -3.626666666666667l18.346666666666664 -18.346666666666664a5.333333333333333 5.333333333333333 0 0 0 -3.733333333333333 -9.173333333333332H122.66666666666666a5.333333333333333 5.333333333333333 0 0 0 -5.333333333333333 5.333333333333333v47.57333333333333a5.333333333333333 5.333333333333333 0 0 0 3.3066666666666666 4.906666666666666 5.653333333333333 5.653333333333333 0 0 0 5.76 -1.1733333333333333Z"/><path fill="#fff" stroke-width="10.667" d="M185.06666666666666 117.33333333333333a65.17333333333333 65.17333333333333 0 0 0 -61.653333333333336 44.05333333333333 10.666666666666666 10.666666666666666 0 1 0 20.159999999999997 6.933333333333334 43.73333333333333 43.73333333333333 0 0 1 73.6 -15.466666666666665 2.7733333333333334 2.7733333333333334 0 0 1 0 3.733333333333333l-17.706666666666663 17.706666666666663a5.333333333333333 5.333333333333333 0 0 0 3.733333333333333 9.066666666666666h47.46666666666667a5.333333333333333 5.333333333333333 0 0 0 5.333333333333333 -5.333333333333333v-47.46666666666667a5.333333333333333 5.333333333333333 0 0 0 -3.3066666666666666 -5.013333333333333 5.4399999999999995 5.4399999999999995 0 0 0 -5.76 1.1733333333333333l-10.666666666666666 10.666666666666666a3.093333333333333 3.093333333333333 0 0 1 -1.92 0.7466666666666667 2.6666666666666665 2.6666666666666665 0 0 1 -1.92 -0.8533333333333333A65.28 65.28 0 0 0 185.06666666666666 117.33333333333333Z"/></g></svg>