<svg xmlns="http://www.w3.org/2000/svg" id="Seafood-Sushi--Streamline-Ultimate" width="256" height="256" viewBox="0 0 256 256"><desc>Seafood Sushi Streamline Icon: https://streamlinehq.com</desc><g id="Seafood-Sushi--Streamline-Ultimate.svg"><path fill="#fff" stroke-width="10.667" d="M216.8533333333333 182.07999999999998a122.66666666666666 122.66666666666666 0 0 0 -177.70666666666665 0 25.92 25.92 0 0 1 -4.053333333333333 3.626666666666667 5.4399999999999995 5.4399999999999995 0 0 0 -2.0266666666666664 5.4399999999999995A44.693333333333335 44.693333333333335 0 0 0 80 224h96a44.693333333333335 44.693333333333335 0 0 0 46.93333333333334 -32.85333333333333 5.4399999999999995 5.4399999999999995 0 0 0 -2.0266666666666664 -5.4399999999999995 32 32 0 0 1 -4.053333333333333 -3.626666666666667Z"/><path fill="#fff" stroke-width="10.667" d="M132.05333333333334 125.65333333333332a5.546666666666667 5.546666666666667 0 0 0 4.266666666666667 2.5599999999999996 141.22666666666666 141.22666666666666 0 0 1 30.826666666666668 5.333333333333333 5.333333333333333 5.333333333333333 0 0 0 6.293333333333333 -2.88l32 -67.52a5.333333333333333 5.333333333333333 0 0 0 -1.7066666666666666 -6.506666666666666 124.79999999999998 124.79999999999998 0 0 0 -28.8 -15.786666666666665 5.226666666666667 5.226666666666667 0 0 0 -6.72 2.6666666666666665l-36.373333333333335 77.12a5.546666666666667 5.546666666666667 0 0 0 0.21333333333333332 5.013333333333333Z"/><path fill="#fff" stroke-width="10.667" d="M58.773333333333326 144.32a2.7733333333333334 2.7733333333333334 0 0 0 3.093333333333333 0 136.2133333333333 136.2133333333333 0 0 1 45.44 -15.253333333333332 5.119999999999999 5.119999999999999 0 0 0 4.053333333333333 -2.986666666666667l40.31999999999999 -85.33333333333333a5.76 5.76 0 0 0 0 -4.8 5.333333333333333 5.333333333333333 0 0 0 -3.9466666666666663 -2.7733333333333334 129.38666666666666 129.38666666666666 0 0 0 -35.733333333333334 -0.5333333333333333 5.226666666666667 5.226666666666667 0 0 0 -4.16 3.093333333333333l-49.70666666666666 105.49333333333334a2.7733333333333334 2.7733333333333334 0 0 0 0.6399999999999999 3.093333333333333Z"/><path fill="#fff" stroke-width="10.667" d="M224.95999999999998 76.47999999999999a5.119999999999999 5.119999999999999 0 0 0 -4.8 -1.8133333333333335 5.333333333333333 5.333333333333333 0 0 0 -4.053333333333333 2.986666666666667l-27.52 58.346666666666664a5.4399999999999995 5.4399999999999995 0 0 0 2.453333333333333 7.04 137.27999999999997 137.27999999999997 0 0 1 37.33333333333333 27.626666666666665 16.21333333333333 16.21333333333333 0 0 0 17.493333333333332 3.84A15.893333333333333 15.893333333333333 0 0 0 256 160a126.61333333333332 126.61333333333332 0 0 0 -31.04 -83.52Z"/><path fill="#fff" stroke-width="10.667" d="M85.97333333333333 40.74666666666666a2.6666666666666665 2.6666666666666665 0 0 0 -2.88 -0.6399999999999999A128 128 0 0 0 0 160a15.893333333333333 15.893333333333333 0 0 0 10.666666666666666 14.933333333333332 15.68 15.68 0 0 0 13.973333333333333 -1.1733333333333333 4.8 4.8 0 0 0 2.1333333333333333 -2.2399999999999998C32 159.35999999999999 74.66666666666666 67.73333333333332 86.39999999999999 43.73333333333333a2.7733333333333334 2.7733333333333334 0 0 0 -0.42666666666666664 -2.986666666666667Z"/></g></svg>