<svg xmlns="http://www.w3.org/2000/svg" viewBox="0 0 256 256" id="Seafood-Squid--Streamline-Ultimate" height="256" width="256">
  <desc>
    Seafood Squid Streamline Icon: https://streamlinehq.com
  </desc>
  <g id="Seafood-Squid--Streamline-Ultimate.svg">
    <path d="M112 197.33333333333331a10.666666666666666 10.666666666666666 0 0 0 -10.666666666666666 10.666666666666666A26.666666666666664 26.666666666666664 0 0 1 74.66666666666666 234.66666666666666a24.746666666666663 24.746666666666663 0 0 1 -26.666666666666664 -24 10.666666666666666 10.666666666666666 0 0 0 -21.333333333333332 0A45.653333333333336 45.653333333333336 0 0 0 74.66666666666666 256a48.10666666666666 48.10666666666666 0 0 0 48 -48 10.666666666666666 10.666666666666666 0 0 0 -10.666666666666666 -10.666666666666666Z" fill="#ffffff" stroke-width="10.6667"></path>
    <path d="M218.66666666666666 200a10.666666666666666 10.666666666666666 0 0 0 -10.666666666666666 10.666666666666666A24.746666666666663 24.746666666666663 0 0 1 181.33333333333331 234.66666666666666a26.666666666666664 26.666666666666664 0 0 1 -26.666666666666664 -26.666666666666664 10.666666666666666 10.666666666666666 0 0 0 -21.333333333333332 0A48.10666666666666 48.10666666666666 0 0 0 181.33333333333331 256a45.653333333333336 45.653333333333336 0 0 0 48 -45.33333333333333 10.666666666666666 10.666666666666666 0 0 0 -10.666666666666666 -10.666666666666666Z" fill="#ffffff" stroke-width="10.6667"></path>
    <path d="M218.66666666666666 117.33333333333333a26.666666666666664 26.666666666666664 0 0 0 -26.666666666666664 26.666666666666664V170.66666666666666a10.666666666666666 10.666666666666666 0 0 1 -21.333333333333332 0V101.22666666666666a5.333333333333333 5.333333333333333 0 0 1 5.333333333333333 -5.333333333333333h20.159999999999997a10.666666666666666 10.666666666666666 0 0 0 9.813333333333333 -6.293333333333333 10.666666666666666 10.666666666666666 0 0 0 -1.8133333333333335 -11.52l-68.26666666666667 -74.66666666666666a10.666666666666666 10.666666666666666 0 0 0 -16 0c-6.079999999999999 6.933333333333334 -59.519999999999996 64.96 -68.16 74.66666666666666a10.666666666666666 10.666666666666666 0 0 0 -1.7066666666666666 11.52 10.666666666666666 10.666666666666666 0 0 0 9.813333333333333 6.3999999999999995H80a5.333333333333333 5.333333333333333 0 0 1 5.333333333333333 5.333333333333333V170.66666666666666a10.666666666666666 10.666666666666666 0 0 1 -21.333333333333332 0v-26.666666666666664a26.666666666666664 26.666666666666664 0 0 0 -53.33333333333333 0v21.333333333333332a10.666666666666666 10.666666666666666 0 0 0 21.333333333333332 0v-21.333333333333332a5.333333333333333 5.333333333333333 0 0 1 10.666666666666666 0V170.66666666666666a32 32 0 0 0 64 0 5.333333333333333 5.333333333333333 0 0 1 5.333333333333333 -5.333333333333333h32a5.333333333333333 5.333333333333333 0 0 1 5.333333333333333 5.333333333333333 32 32 0 0 0 64 0v-26.666666666666664a5.333333333333333 5.333333333333333 0 0 1 10.666666666666666 0v21.333333333333332a10.666666666666666 10.666666666666666 0 0 0 21.333333333333332 0v-21.333333333333332a26.666666666666664 26.666666666666664 0 0 0 -26.666666666666664 -26.666666666666664Z" fill="#ffffff" stroke-width="10.6667"></path>
  </g>
</svg>