<svg xmlns="http://www.w3.org/2000/svg" id="Seal-Shape--Streamline-Ultimate" width="256" height="256" fill="none" viewBox="0 0 256 256"><desc>Seal Shape Streamline Icon: https://streamlinehq.com</desc><path fill="#fff" fill-rule="evenodd" stroke-width="10.667" d="M141.19893333333331 6.27984c-7.2896 -7.289786666666666 -19.108266666666665 -7.2897888 -26.397866666666665 0L88.488 32.59242666666667l-37.217173333333335 0c-10.309333333333333 0 -18.666666666666664 8.35744 -18.666666666666664 18.666666666666664l0 37.21728L6.27984 114.80106666666667c-7.289784533333333 7.2896 -7.289786666666666 19.108266666666665 0 26.397866666666665l26.32432 26.324266666666666 0 37.20746666666666c0 10.309333333333333 8.357333333333333 18.666666666666664 18.666666666666664 18.666666666666664h37.20714666666667l26.323093333333333 26.3232c7.2896 7.2896 19.108266666666665 7.2896 26.397866666666665 0l26.3232 -26.3232h37.22026666666666c10.309333333333333 0 18.666666666666664 -8.357333333333333 18.666666666666664 -18.666666666666664v-37.22026666666666l26.311466666666664 -26.311466666666664c7.2896 -7.2896 7.2896 -19.108266666666665 0 -26.397866666666665l-26.311466666666664 -26.311466666666664V51.259093333333325c0 -10.309333333333333 -8.357333333333333 -18.666666666666664 -18.666666666666664 -18.666666666666664l-37.23093333333333 0L141.19893333333331 6.27984Z" clip-rule="evenodd"/></svg>