<svg xmlns="http://www.w3.org/2000/svg" viewBox="0 0 256 256" id="Search-Circle-Alternate--Streamline-Ultimate" height="256" width="256">
  <desc>
    Search Circle Alternate Streamline Icon: https://streamlinehq.com
  </desc>
  <g id="Search-Circle-Alternate--Streamline-Ultimate.svg">
    <path d="M66.66666666666666 114.66666666666666a48 48 0 1 0 96 0 48 48 0 1 0 -96 0" fill="#ffffff" stroke-width="10.6667"></path>
    <path d="M128 0a128 128 0 1 0 128 128A128 128 0 0 0 128 0Zm79.57333333333332 192.53333333333333a10.666666666666666 10.666666666666666 0 0 1 0 15.04 10.666666666666666 10.666666666666666 0 0 1 -15.146666666666665 0l-35.519999999999996 -35.519999999999996a2.2399999999999998 2.2399999999999998 0 0 0 -2.986666666666667 0 69.22666666666666 69.22666666666666 0 1 1 30.08 -57.06666666666666 68.26666666666667 68.26666666666667 0 0 1 -12.159999999999998 39.04 2.7733333333333334 2.7733333333333334 0 0 0 0 3.413333333333333Z" fill="#ffffff" stroke-width="10.6667"></path>
  </g>
</svg>