<svg xmlns="http://www.w3.org/2000/svg" id="Seasoning-Food--Streamline-Ultimate" width="256" height="256" viewBox="0 0 256 256"><desc>Seasoning Food Streamline Icon: https://streamlinehq.com</desc><g id="Seasoning-Food--Streamline-Ultimate.svg"><path fill="#fff" stroke-width="10.667" d="M213.33333333333331 138.66666666666666H10.666666666666666a10.666666666666666 10.666666666666666 0 0 0 -10.666666666666666 12.693333333333332 103.03999999999999 103.03999999999999 0 0 0 61.54666666666666 75.41333333333333 5.333333333333333 5.333333333333333 0 0 1 3.093333333333333 6.506666666666666A42.666666666666664 42.666666666666664 0 0 0 63.14666666666666 245.33333333333331a10.666666666666666 10.666666666666666 0 0 0 10.666666666666666 10.666666666666666h76.47999999999999a10.666666666666666 10.666666666666666 0 0 0 10.666666666666666 -10.666666666666666 41.81333333333333 41.81333333333333 0 0 0 -1.8133333333333335 -12.053333333333331 5.4399999999999995 5.4399999999999995 0 0 1 3.093333333333333 -6.506666666666666A103.03999999999999 103.03999999999999 0 0 0 224 151.35999999999999 10.666666666666666 10.666666666666666 0 0 0 213.33333333333331 138.66666666666666Z"/><path fill="#fff" stroke-width="10.667" d="M254.61333333333334 48.213333333333324 236.90666666666667 9.386666666666667a15.68 15.68 0 0 0 -8.959999999999999 -8.32 15.573333333333332 15.573333333333332 0 0 0 -12.159999999999998 0l-60.693333333333335 27.946666666666665a13.333333333333332 13.333333333333332 0 0 0 -6.72 17.599999999999998l19.946666666666665 43.73333333333333a13.226666666666667 13.226666666666667 0 0 0 12.159999999999998 7.786666666666666 12.479999999999999 12.479999999999999 0 0 0 5.4399999999999995 -1.1733333333333333l60.693333333333335 -27.52a16.106666666666666 16.106666666666666 0 0 0 8 -21.226666666666667Z"/><path fill="#fff" stroke-width="10.667" d="M96 69.33333333333333a16 16 0 1 0 32 0 16 16 0 1 0 -32 0"/><path fill="#fff" stroke-width="10.667" d="M117.33333333333333 106.66666666666666a16 16 0 1 0 32 0 16 16 0 1 0 -32 0"/><path fill="#fff" stroke-width="10.667" d="M74.66666666666666 106.66666666666666a16 16 0 1 0 32 0 16 16 0 1 0 -32 0"/></g></svg>