<svg xmlns="http://www.w3.org/2000/svg" fill="none" viewBox="0 0 256 256" id="Self-Payment-Touch-Euro--Streamline-Ultimate" height="256" width="256">
  <desc>
    Self Payment Touch Euro Streamline Icon: https://streamlinehq.com
  </desc>
  <path fill="#ffffff" fill-rule="evenodd" d="M7.334634666666666 23.47392c0 -11.78208 9.551231999999999 -21.333290666666667 21.333312 -21.333290666666667H215.17973333333333c11.782399999999999 0 21.333333333333332 9.551210666666666 21.333333333333332 21.333290666666667V136.37226666666666c0 11.782399999999999 -9.550933333333333 21.333333333333332 -21.333333333333332 21.333333333333332H203.62666666666667c-5.8911999999999995 0 -10.666666666666666 -4.7754666666666665 -10.666666666666666 -10.666666666666666s4.7754666666666665 -10.666666666666666 10.666666666666666 -10.666666666666666h11.553066666666666V23.47392H28.667946666666666V136.37226666666666h91.42165333333332c5.890133333333333 0 10.6656 4.7744 10.666666666666666 10.664533333333333h0.046933333333333334v37.31733333333333h-0.0031999999999999997v3.797333333333333c0.0288 0.4576 -0.0768 0.9141333333333332 -0.304 1.3119999999999998 -0.22826666666666665 0.39786666666666665 -0.5674666666666666 0.7210666666666665 -0.976 0.9279999999999999 -0.3957333333333333 0.20586666666666667 -0.8341333333333334 0.3136 -1.2799999999999998 0.3136 -0.44586666666666663 0 -0.8842666666666666 -0.10773333333333332 -1.2799999999999998 -0.3136 -4.0906666666666665 -1.9765333333333333 -8.577066666666667 -2.9984 -13.12 -2.986666666666667 -7.174506666666667 0.025599999999999998 -14.115413333333333 2.5536 -19.626559999999998 7.1466666666666665 -5.263146666666667 4.2026666666666666 -8.993599999999999 10.023466666666666 -10.613439999999999 16.56 -2.125973333333333 8.580266666666667 0 20.788266666666665 10.22496 31.650133333333333 0.2056533333333333 0.3946666666666666 0.31296 0.8341333333333334 0.31296 1.2799999999999998 0 0.44586666666666663 -0.10730666666666666 0.8842666666666666 -0.31296 1.2799999999999998 -0.23989333333333332 0.37226666666666663 -0.5723733333333333 0.6762666666666666 -0.9650133333333333 0.8821333333333332 -0.39274666666666663 0.20586666666666667 -0.832 0.3061333333333333 -1.2749866666666665 0.2912H18.05333333333333c-2.8289066666666667 0 -5.5420799999999995 -1.1242666666666665 -7.542421333333333 -3.1242666666666663 -2.000384 -2.0010666666666665 -3.124192 -4.7136 -3.124192 -7.542399999999999v-47.687466666666666c0 -2.8287999999999998 1.123808 -5.542399999999999 3.124192 -7.542399999999999 2.000341333333333 -2.0010666666666665 4.713514666666667 -3.1242666666666663 7.542421333333333 -3.1242666666666663h60.729813333333325l12.811413333333334 -19.76853333333333H28.667946666666666c-11.78208 0 -21.333312 -9.550933333333333 -21.333312 -21.333333333333332V23.47392ZM80.73631999999999 43.44266666666667h-20.799999999999997c-2.8866133333333335 0 -5.226666666666667 2.340053333333333 -5.226666666666667 5.226666666666667v20.799999999999997c0 2.8866133333333335 2.340053333333333 5.226666666666667 5.226666666666667 5.226666666666667h20.799999999999997c2.8866133333333335 0 5.226666666666667 -2.340053333333333 5.226666666666667 -5.226666666666667v-20.799999999999997c0 -2.8866133333333335 -2.340053333333333 -5.226666666666667 -5.226666666666667 -5.226666666666667ZM245.57866666666666 223.00266666666667c2.0511999999999997 4.981333333333334 3.1008 10.318933333333334 3.086933333333333 15.706666666666665v12.479999999999999c0 0.7071999999999999 -0.28159999999999996 1.3855999999999997 -0.7807999999999999 1.8858666666666668 -0.5002666666666666 0.5002666666666666 -1.1786666666666665 0.7807999999999999 -1.8858666666666668 0.7807999999999999h-118.93333333333334c-0.3637333333333333 0.0096 -0.7242666666666666 -0.06293333333333333 -1.056 -0.2101333333333333 -0.3317333333333333 -0.1472 -0.6272 -0.36693333333333333 -0.864 -0.6432l-22.826879999999996 -25.173333333333332c-2.5082666666666666 -3.118933333333333 -3.6999466666666665 -7.093333333333334 -3.321493333333333 -11.078399999999998 0.37856 -3.984 2.297493333333333 -7.664 5.34816 -10.254933333333334 3.1266133333333332 -2.469333333333333 7.080746666666666 -3.646933333333333 11.048746666666666 -3.2896 3.9690666666666665 0.35733333333333334 7.649066666666666 2.2218666666666667 10.284799999999999 5.2096l15.786666666666665 17.813333333333333c0.35306666666666664 0.41279999999999994 0.8234666666666667 0.7082666666666666 1.3482666666666667 0.8458666666666665 0.5247999999999999 0.13866666666666666 1.0794666666666666 0.11306666666666666 1.5893333333333333 -0.07253333333333332 0.5109333333333332 -0.1856 0.9514666666666667 -0.5216 1.2661333333333333 -0.9653333333333333 0.3136 -0.44266666666666665 0.4842666666666667 -0.9717333333333333 0.48960000000000004 -1.5146666666666664v-72.96c0 -4.0736 1.6181333333333332 -7.979733333333333 4.4981333333333335 -10.8608 2.8810666666666664 -2.88 6.788266666666666 -4.4992 10.861866666666666 -4.4992s7.9807999999999995 1.6191999999999998 10.8608 4.4992c2.8810666666666664 2.8810666666666664 4.4992 6.7871999999999995 4.4992 10.8608v43.413333333333334c0 0.7071999999999999 0.2805333333333333 1.3855999999999997 0.7807999999999999 1.8858666666666668 0.5002666666666666 0.5002666666666666 1.1786666666666665 0.7807999999999999 1.8858666666666668 0.7807999999999999h28.16c5.387733333333333 0 10.7232 1.0634666666666666 15.6992 3.1285333333333334 4.976 2.0650666666666666 9.496533333333332 5.092266666666666 13.301333333333334 8.906666666666666 3.8048 3.8143999999999996 6.820266666666666 8.3424 8.872533333333333 13.3248ZM101.64458666666667 43.44266666666667h20.800213333333332c2.8864 0 5.226666666666667 2.340053333333333 5.226666666666667 5.226666666666667v20.799999999999997c0 2.8866133333333335 -2.3402666666666665 5.226666666666667 -5.226666666666667 5.226666666666667H101.64458666666667c-2.8866133333333335 0 -5.226666666666667 -2.340053333333333 -5.226666666666667 -5.226666666666667v-20.799999999999997c0 -2.8866133333333335 2.340053333333333 -5.226666666666667 5.226666666666667 -5.226666666666667ZM80.73631999999999 85.15104h-20.799999999999997c-2.8866133333333335 0 -5.226666666666667 2.340053333333333 -5.226666666666667 5.226666666666667v20.79989333333333c0 2.8864 2.340053333333333 5.226666666666667 5.226666666666667 5.226666666666667h20.799999999999997c2.8866133333333335 0 5.226666666666667 -2.3402666666666665 5.226666666666667 -5.226666666666667V90.37770666666667c0 -2.8866133333333335 -2.340053333333333 -5.226666666666667 -5.226666666666667 -5.226666666666667Zm20.908266666666666 0h20.800213333333332c2.8864 0 5.226666666666667 2.340053333333333 5.226666666666667 5.226666666666667v20.79989333333333c0 2.8864 -2.3402666666666665 5.226666666666667 -5.226666666666667 5.226666666666667H101.64458666666667c-2.8866133333333335 0 -5.226666666666667 -2.3402666666666665 -5.226666666666667 -5.226666666666667V90.37770666666667c0 -2.8866133333333335 2.340053333333333 -5.226666666666667 5.226666666666667 -5.226666666666667ZM186.19093333333333 41.421866666666666c-10.212266666666666 0 -20.005333333333333 4.05664 -27.226666666666667 11.277546666666666 -5.3045333333333335 5.304639999999999 -8.901333333333334 11.997866666666667 -10.437333333333333 19.225279999999998h-2.0362666666666662c-4.4181333333333335 0 -8 3.5817599999999996 -8 8s3.5818666666666665 8 8 8h2.0362666666666662c1.5349333333333333 7.228266666666666 5.131733333333333 13.922239999999999 10.437333333333333 19.227306666666664 7.221333333333334 7.221333333333334 17.0144 11.277866666666664 27.226666666666667 11.277866666666664h4.6912c4.4192 0 8 -3.5818666666666665 8 -8 0 -4.418453333333333 -3.5808 -8.000213333333333 -8 -8.000213333333333h-4.6912c-5.9690666666666665 0 -11.6928 -2.3708799999999997 -15.912533333333332 -6.5912533333333325 -2.2687999999999997 -2.2685866666666668 -4.0032 -4.971733333333333 -5.122133333333333 -7.913706666666666h18.53653333333333c4.4181333333333335 0 8 -3.5817599999999996 8 -8s-3.5818666666666665 -8 -8 -8h-18.535466666666665c1.1189333333333331 -2.941226666666666 2.852266666666667 -5.64352 5.121066666666667 -7.911573333333333 4.219733333333333 -4.220266666666666 9.943466666666666 -6.5912533333333325 15.912533333333332 -6.5912533333333325h4.6912c4.4192 0 8 -3.5817599999999996 8 -8s-3.5808 -8 -8 -8h-4.6912Z" clip-rule="evenodd" stroke-width="10.6667"></path>
</svg>