<svg xmlns="http://www.w3.org/2000/svg" viewBox="0 0 256 256" id="Send-Email-Fly--Streamline-Ultimate" height="256" width="256">
  <desc>
    Send Email Fly Streamline Icon: https://streamlinehq.com
  </desc>
  <g id="Send-Email-Fly--Streamline-Ultimate.svg">
    <path d="M128 145.92a10.666666666666666 10.666666666666666 0 0 0 -10.666666666666666 10.666666666666666v80a10.666666666666666 10.666666666666666 0 0 0 21.333333333333332 0v-80a10.666666666666666 10.666666666666666 0 0 0 -10.666666666666666 -10.666666666666666Z" fill="#ffffff" stroke-width="10.6667"></path>
    <path d="M80 129.92a10.666666666666666 10.666666666666666 0 0 0 -10.666666666666666 10.666666666666666v58.666666666666664a10.666666666666666 10.666666666666666 0 0 0 21.333333333333332 0v-58.666666666666664a10.666666666666666 10.666666666666666 0 0 0 -10.666666666666666 -10.666666666666666Z" fill="#ffffff" stroke-width="10.6667"></path>
    <path d="M176 129.92a10.666666666666666 10.666666666666666 0 0 0 -10.666666666666666 10.666666666666666v58.666666666666664a10.666666666666666 10.666666666666666 0 0 0 21.333333333333332 0v-58.666666666666664a10.666666666666666 10.666666666666666 0 0 0 -10.666666666666666 -10.666666666666666Z" fill="#ffffff" stroke-width="10.6667"></path>
    <path d="M23.146666666666665 10.666666666666666A16 16 0 0 0 0 24.746666666666663V32a15.893333333333333 15.893333333333333 0 0 0 10.026666666666666 15.04l10.666666666666666 4.373333333333333a15.146666666666665 15.146666666666665 0 0 0 -5.226666666666667 9.28 16.21333333333333 16.21333333333333 0 0 0 2.986666666666667 12.373333333333331l8.106666666666666 10.666666666666666a15.786666666666665 15.786666666666665 0 0 0 12.799999999999999 6.293333333333333 15.04 15.04 0 0 0 10.666666666666666 -4.16l7.466666666666666 -9.706666666666667a4.906666666666666 4.906666666666666 0 0 0 1.1733333333333333 -3.1999999999999997V34.13333333333333a5.119999999999999 5.119999999999999 0 0 0 -2.6666666666666665 -4.586666666666666Z" fill="#ffffff" stroke-width="10.6667"></path>
    <path d="M185.49333333333334 40.85333333333333a2.1333333333333333 2.1333333333333333 0 0 0 -2.2399999999999998 0L138.66666666666666 68.8a20.266666666666666 20.266666666666666 0 0 1 -21.333333333333332 0L72.74666666666667 40.85333333333333A2.3466666666666667 2.3466666666666667 0 0 0 69.33333333333333 42.666666666666664v53.33333333333333a13.653333333333332 13.653333333333332 0 0 0 13.546666666666667 13.653333333333332h90.24000000000001A13.653333333333332 13.653333333333332 0 0 0 186.66666666666666 96V42.666666666666664a2.1333333333333333 2.1333333333333333 0 0 0 -1.1733333333333333 -1.8133333333333335Z" fill="#ffffff" stroke-width="10.6667"></path>
    <path d="M173.12 8.746666666666666H82.88A13.546666666666667 13.546666666666667 0 0 0 69.33333333333333 22.29333333333333a0.96 0.96 0 0 0 0 0.6399999999999999l54.72 34.346666666666664a6.826666666666666 6.826666666666666 0 0 0 7.253333333333334 0l54.72 -34.45333333333333a0.5333333333333333 0.5333333333333333 0 0 0 0 -0.5333333333333333A13.546666666666667 13.546666666666667 0 0 0 173.12 8.746666666666666Z" fill="#ffffff" stroke-width="10.6667"></path>
    <path d="M248.42666666666665 10.666666666666666a16.21333333333333 16.21333333333333 0 0 0 -15.893333333333333 0l-32.53333333333333 18.88a5.119999999999999 5.119999999999999 0 0 0 -2.6666666666666665 4.586666666666666v38.82666666666667a4.906666666666666 4.906666666666666 0 0 0 1.1733333333333333 3.1999999999999997l7.466666666666666 9.706666666666667a15.466666666666665 15.466666666666665 0 0 0 10.666666666666666 4.16 15.786666666666665 15.786666666666665 0 0 0 12.799999999999999 -6.293333333333333l8.213333333333333 -10.666666666666666a16.21333333333333 16.21333333333333 0 0 0 2.88 -12.266666666666666 15.146666666666665 15.146666666666665 0 0 0 -5.226666666666667 -9.28l10.666666666666666 -4.373333333333333A15.893333333333333 15.893333333333333 0 0 0 256 32v-7.466666666666666a16.106666666666666 16.106666666666666 0 0 0 -7.573333333333332 -13.866666666666667Z" fill="#ffffff" stroke-width="10.6667"></path>
  </g>
</svg>