<svg xmlns="http://www.w3.org/2000/svg" id="Send-Email-Envelope--Streamline-Ultimate" width="256" height="256" viewBox="0 0 256 256"><desc>Send Email Envelope Streamline Icon: https://streamlinehq.com</desc><g id="Send-Email-Envelope--Streamline-Ultimate.svg"><path fill="#fff" stroke-width="10.667" d="M42.666666666666664 74.66666666666666H10.666666666666666a10.666666666666666 10.666666666666666 0 0 0 0 21.333333333333332h32a10.666666666666666 10.666666666666666 0 0 0 0 -21.333333333333332Z"/><path fill="#fff" stroke-width="10.667" d="M32 117.33333333333333H10.666666666666666a10.666666666666666 10.666666666666666 0 0 0 0 21.333333333333332h21.333333333333332a10.666666666666666 10.666666666666666 0 0 0 0 -21.333333333333332Z"/><path fill="#fff" stroke-width="10.667" d="M24 160H10.666666666666666a10.666666666666666 10.666666666666666 0 0 0 0 21.333333333333332h13.333333333333332a10.666666666666666 10.666666666666666 0 0 0 0 -21.333333333333332Z"/><path fill="#fff" stroke-width="10.667" d="M255.25333333333333 78.61333333333333a1.5999999999999999 1.5999999999999999 0 0 0 -1.5999999999999999 0l-88.74666666666667 77.97333333333333a25.493333333333332 25.493333333333332 0 0 1 -16.53333333333333 6.506666666666666 18.453333333333333 18.453333333333333 0 0 1 -14.506666666666668 -6.506666666666666L68.47999999999999 78.93333333333334a1.4933333333333334 1.4933333333333334 0 0 0 -1.5999999999999999 0 2.2399999999999998 2.2399999999999998 0 0 0 -1.0666666666666667 1.3866666666666667l-15.253333333333332 96A13.333333333333332 13.333333333333332 0 0 0 64 192h160a19.2 19.2 0 0 0 18.346666666666664 -16l13.653333333333332 -96a1.2799999999999998 1.2799999999999998 0 0 0 -0.7466666666666667 -1.3866666666666667Z"/><path fill="#fff" stroke-width="10.667" d="M143.57333333333332 148.48a10.026666666666666 10.026666666666666 0 0 0 14.08 0l88.32 -77.54666666666665a4.373333333333333 4.373333333333333 0 0 0 1.4933333333333334 -4.053333333333333C246.9333333333333 64 243.51999999999998 64 242.45333333333332 64H84.16a5.973333333333334 5.973333333333334 0 0 0 -5.866666666666667 2.88 3.52 3.52 0 0 0 0 4.053333333333333Z"/></g></svg>