<svg xmlns="http://www.w3.org/2000/svg" viewBox="0 0 256 256" id="Seo-Search-Graph--Streamline-Ultimate" height="256" width="256">
  <desc>
    Seo Search Graph Streamline Icon: https://streamlinehq.com
  </desc>
  <path d="m103.7536 88.57706666666667 24.9344 24.9344c8.071466666666666 8.023466666666666 21.106133333333332 8.023466666666666 29.17653333333333 0l70.25173333333333 -70.35413333333332c1.0261333333333331 -0.9343999999999999 2.5951999999999997 -0.9343999999999999 3.6213333333333333 0l11.276799999999998 11.276799999999998c0.9525333333333333 0.9674666666666667 2.2656 1.4922666666666666 3.6213333333333333 1.4485333333333332 0.6474666666666666 0.1472 1.3194666666666666 0.1472 1.9658666666666664 0 2.0405333333333333 -0.8341333333333334 3.328 -2.8693333333333335 3.207466666666667 -5.069866666666666V9.428266666666666c0 -2.8576 -2.315733333333333 -5.173333333333333 -5.173333333333333 -5.173333333333333h-41.38453333333333c-2.2378666666666662 -0.16533333333333333 -4.327466666666666 1.1296 -5.173333333333333 3.207466666666667 -0.8341333333333334 1.9157333333333333 -0.3786666666666666 4.149333333333333 1.1381333333333332 5.5872l12.208 11.794133333333331c1.0453333333333332 0.9813333333333333 1.0453333333333332 2.6410666666666662 0 3.6213333333333333l-31.038933333333333 31.038933333333333C154.53226666666666 -6.5440000000000005 65.62453333333333 -17.672533333333334 22.351999999999997 39.47306666666667 9.623466666666666 56.28266666666667 2.976 76.91413333333333 3.498666666666667 97.99253333333333c0.0192 3.4570666666666665 0.22613333333333333 6.910933333333333 0.6208 10.3456 0.6304 5.2245333333333335 5.083733333333333 9.143466666666665 10.3456 9.105066666666666h1.2416c5.690666666666666 -0.6485333333333333 9.771733333333334 -5.796266666666666 9.105066666666666 -11.483733333333333 -0.15786666666666666 -2.8266666666666667 -0.15786666666666666 -5.658666666666666 0 -8.484266666666667 1.8346666666666664 -56.200533333333325 63.81866666666666 -89.33973333333333 111.57226666666665 -59.651199999999996 14.064 8.743466666666666 24.7392 22.0064 30.275199999999998 37.61386666666667l-21.52 21.8304c-1.0602666666666667 0.9482666666666667 -2.664533333333333 0.9482666666666667 -3.7248 0L116.47999999999999 72.12693333333333c-8.071466666666666 -8.023466666666666 -21.106133333333332 -8.023466666666666 -29.17653333333333 0l-80.70186666666666 80.59733333333332c-5.614933333333333 5.6544 -3.0026666666666664 15.267199999999999 4.702933333333333 17.3024 3.5754666666666663 0.9450666666666666 7.383466666666667 -0.08959999999999999 9.989333333333333 -2.7146666666666666l6.0010666666666665 -6c18.103466666666666 19.513599999999997 43.4272 30.735999999999997 70.04373333333334 31.038933333333333 20.573866666666667 0.046933333333333334 40.583466666666666 -6.72 56.90453333333333 -19.244799999999998 0.9930666666666667 -0.8149333333333333 2.4223999999999997 -0.8149333333333333 3.4143999999999997 0l14.485333333333333 14.485333333333333c0.7082666666666666 0.7018666666666666 0.9493333333333333 1.7482666666666664 0.6208 2.690133333333333 -2.0256 5.626666666666666 -0.6144 11.917866666666665 3.6213333333333333 16.139733333333332l40.14293333333333 40.24746666666667c10.7168 11.784533333333332 30.1728 7.5488 35.020799999999994 -7.624533333333333 2.4725333333333332 -7.739733333333334 0.18666666666666668 -16.21013333333333 -5.844266666666667 -21.655466666666662l-40.03946666666666 -40.4544c-2.920533333333333 -2.8928 -6.8576 -4.5258666666666665 -10.967466666666667 -4.552533333333333 -1.7664 -0.0010666666666666667 -3.5178666666666665 0.31466666666666665 -5.173333333333333 0.9312 -0.9408 0.3296 -1.9871999999999999 0.08746666666666666 -2.690133333333333 -0.6208l-14.484266666666667 -14.484266666666667c-0.8575999999999999 -0.9770666666666666 -0.8575999999999999 -2.4383999999999997 0 -3.4143999999999997 6.315733333333332 -8.348799999999999 11.209599999999998 -17.682133333333333 14.484266666666667 -27.624533333333332 2.752 -7.474133333333333 -3.6191999999999998 -15.124266666666665 -11.467733333333332 -13.770666666666665 -3.915733333333333 0.6762666666666666 -7.0986666666666665 3.534933333333333 -8.189866666666667 7.355733333333333 -9.8432 30.061866666666663 -37.8944 50.39146666666666 -69.5264 50.38613333333333 -21.021866666666668 -0.15146666666666667 -41.034666666666666 -9.0336 -55.25013333333334 -24.520533333333333l57.9392 -58.04266666666666c0.9770666666666666 -0.8575999999999999 2.4383999999999997 -0.8575999999999999 3.4143999999999997 0Z" fill="#ffffff" stroke-width="10.6667"></path>
</svg>