<svg xmlns="http://www.w3.org/2000/svg" viewBox="0 0 256 256" id="Server-Refresh-1--Streamline-Ultimate" height="256" width="256">
  <desc>
    Server Refresh 1 Streamline Icon: https://streamlinehq.com
  </desc>
  <g id="Server-Refresh-1--Streamline-Ultimate.svg">
    <path d="M99.2 187.41333333333333a81.06666666666666 81.06666666666666 0 0 1 18.88 -52.05333333333333 5.333333333333333 5.333333333333333 0 0 0 -4.053333333333333 -8.64H27.733333333333334a26.346666666666668 26.346666666666668 0 1 0 0 52.693333333333335H85.33333333333333a2.6666666666666665 2.6666666666666665 0 0 1 2.6666666666666665 2.6666666666666665v26.453333333333333a2.6666666666666665 2.6666666666666665 0 0 1 -2.6666666666666665 2.5599999999999996H53.33333333333333a8 8 0 0 0 -7.893333333333333 8 7.893333333333333 7.893333333333333 0 0 0 7.893333333333333 7.893333333333333h46.93333333333334a5.546666666666667 5.546666666666667 0 0 0 4.373333333333333 -2.3466666666666667 5.226666666666667 5.226666666666667 0 0 0 0 -5.013333333333333 81.28 81.28 0 0 1 -5.4399999999999995 -32.21333333333333Zm-66.24 -34.346666666666664a13.226666666666667 13.226666666666667 0 1 1 13.226666666666667 13.226666666666667 13.333333333333332 13.333333333333332 0 0 1 -13.226666666666667 -13.226666666666667ZM85.33333333333333 166.29333333333332a13.226666666666667 13.226666666666667 0 1 1 13.226666666666667 -13.226666666666667A13.333333333333332 13.333333333333332 0 0 1 85.33333333333333 166.29333333333332Z" fill="#ffffff" stroke-width="10.6667"></path>
    <path d="M11.84 211.0933333333333a8 8 0 0 0 -7.893333333333333 8 7.893333333333333 7.893333333333333 0 0 0 7.893333333333333 7.893333333333333h10.666666666666666a8 8 0 0 0 8 -7.893333333333333 8.106666666666666 8.106666666666666 0 0 0 -8 -8Z" fill="#ffffff" stroke-width="10.6667"></path>
    <path d="M27.733333333333334 53.33333333333333h137.17333333333332a26.453333333333333 26.453333333333333 0 1 0 0 -52.8H27.733333333333334a26.453333333333333 26.453333333333333 0 1 0 0 53.33333333333333Zm5.226666666666667 -26.453333333333333a13.226666666666667 13.226666666666667 0 1 1 13.226666666666667 12.693333333333332 13.226666666666667 13.226666666666667 0 0 1 -13.226666666666667 -13.226666666666667Zm39.57333333333333 0A13.226666666666667 13.226666666666667 0 1 1 85.33333333333333 39.57333333333333a13.226666666666667 13.226666666666667 0 0 1 -12.799999999999999 -13.226666666666667Z" fill="#ffffff" stroke-width="10.6667"></path>
    <path d="M182.82666666666665 105.6a5.333333333333333 5.333333333333333 0 0 0 4.8 -2.5599999999999996 25.599999999999998 25.599999999999998 0 0 0 3.733333333333333 -13.333333333333332 26.453333333333333 26.453333333333333 0 0 0 -26.453333333333333 -26.346666666666668H27.733333333333334a26.453333333333333 26.453333333333333 0 1 0 0 53.33333333333333h111.89333333333333a4.906666666666666 4.906666666666666 0 0 0 2.453333333333333 -0.6399999999999999 81.06666666666666 81.06666666666666 0 0 1 40.74666666666666 -10.453333333333333Zm-149.33333333333331 -15.893333333333333a13.226666666666667 13.226666666666667 0 1 1 12.693333333333332 13.226666666666667 13.333333333333332 13.333333333333332 0 0 1 -13.226666666666667 -13.226666666666667ZM85.33333333333333 102.93333333333334a13.226666666666667 13.226666666666667 0 1 1 13.653333333333332 -13.226666666666667A13.226666666666667 13.226666666666667 0 0 1 85.33333333333333 102.93333333333334Z" fill="#ffffff" stroke-width="10.6667"></path>
    <path d="M232 139.51999999999998a2.6666666666666665 2.6666666666666665 0 0 1 -3.733333333333333 0 66.66666666666666 66.66666666666666 0 0 0 -45.97333333333333 -18.133333333333333A67.30666666666666 67.30666666666666 0 1 0 234.66666666666666 230.71999999999997a10.666666666666666 10.666666666666666 0 1 0 -16.426666666666666 -13.226666666666667 46.18666666666667 46.18666666666667 0 1 1 -4.906666666666666 -63.14666666666666 2.6666666666666665 2.6666666666666665 0 0 1 0.8533333333333333 1.92 2.5599999999999996 2.5599999999999996 0 0 1 -0.7466666666666667 1.92l-14.719999999999999 14.719999999999999a5.226666666666667 5.226666666666667 0 0 0 3.733333333333333 8.959999999999999h47.04a5.333333333333333 5.333333333333333 0 0 0 5.333333333333333 -5.226666666666667v-47.14666666666666a5.119999999999999 5.119999999999999 0 0 0 -3.3066666666666666 -4.8 5.226666666666667 5.226666666666667 0 0 0 -5.76 1.0666666666666667l-5.333333333333333 5.4399999999999995Z" fill="#ffffff" stroke-width="10.6667"></path>
  </g>
</svg>