<svg xmlns="http://www.w3.org/2000/svg" viewBox="0 0 256 256" id="Server-Add--Streamline-Ultimate" height="256" width="256">
  <desc>
    Server Add Streamline Icon: https://streamlinehq.com
  </desc>
  <g id="Server-Add--Streamline-Ultimate.svg">
    <path d="M0 37.33333333333333A26.666666666666664 26.666666666666664 0 0 0 26.666666666666664 64h181.33333333333331A26.666666666666664 26.666666666666664 0 0 0 234.66666666666666 37.33333333333333v-10.666666666666666A26.666666666666664 26.666666666666664 0 0 0 208 0h-181.33333333333331A26.666666666666664 26.666666666666664 0 0 0 0 26.666666666666664ZM38.82666666666667 32a11.84 11.84 0 1 1 11.84 11.84A11.733333333333334 11.733333333333334 0 0 1 38.82666666666667 32ZM80 32a11.946666666666667 11.946666666666667 0 1 1 11.84 11.84A11.84 11.84 0 0 1 80 32Z" fill="#ffffff" stroke-width="10.6667"></path>
    <path d="M186.66666666666666 101.33333333333333a84.37333333333333 84.37333333333333 0 0 1 40.31999999999999 10.133333333333333A5.226666666666667 5.226666666666667 0 0 0 234.66666666666666 106.66666666666666v-5.333333333333333A26.666666666666664 26.666666666666664 0 0 0 208 74.66666666666666h-181.33333333333331A26.666666666666664 26.666666666666664 0 0 0 0 101.33333333333333v10.666666666666666A26.666666666666664 26.666666666666664 0 0 0 26.666666666666664 138.66666666666666h86.82666666666667a5.333333333333333 5.333333333333333 0 0 0 4.266666666666667 -2.2399999999999998A85.33333333333333 85.33333333333333 0 0 1 186.66666666666666 101.33333333333333Zm-82.88 5.333333333333333a11.946666666666667 11.946666666666667 0 1 1 -11.946666666666667 -11.84A11.84 11.84 0 0 1 103.78666666666666 106.66666666666666Zm-41.28 0a11.84 11.84 0 1 1 -11.84 -11.84A11.733333333333334 11.733333333333334 0 0 1 62.50666666666667 106.66666666666666Z" fill="#ffffff" stroke-width="10.6667"></path>
    <path d="M101.97333333333333 149.33333333333331H26.666666666666664A26.666666666666664 26.666666666666664 0 0 0 0 176v10.666666666666666A26.666666666666664 26.666666666666664 0 0 0 26.666666666666664 213.33333333333331h71.89333333333333a5.4399999999999995 5.4399999999999995 0 0 0 5.119999999999999 -6.826666666666666 85.33333333333333 85.33333333333333 0 0 1 3.1999999999999997 -50.02666666666667 5.226666666666667 5.226666666666667 0 0 0 -4.906666666666666 -7.1466666666666665Zm-63.14666666666666 32a11.84 11.84 0 1 1 11.84 11.84A11.733333333333334 11.733333333333334 0 0 1 38.82666666666667 181.33333333333331Z" fill="#ffffff" stroke-width="10.6667"></path>
    <path d="M117.33333333333333 186.66666666666666a69.33333333333333 69.33333333333333 0 1 0 69.33333333333333 -69.33333333333333 69.44 69.44 0 0 0 -69.33333333333333 69.33333333333333Zm61.33333333333333 10.666666666666666a2.6666666666666665 2.6666666666666665 0 0 0 -2.6666666666666665 -2.6666666666666665H160a8 8 0 0 1 0 -16h16a2.6666666666666665 2.6666666666666665 0 0 0 2.6666666666666665 -2.6666666666666665V160a8 8 0 0 1 16 0v16a2.6666666666666665 2.6666666666666665 0 0 0 2.6666666666666665 2.6666666666666665H213.33333333333331a8 8 0 0 1 0 16h-16a2.6666666666666665 2.6666666666666665 0 0 0 -2.6666666666666665 2.6666666666666665V213.33333333333331a8 8 0 0 1 -16 0Z" fill="#ffffff" stroke-width="10.6667"></path>
  </g>
</svg>