<svg xmlns="http://www.w3.org/2000/svg" id="Server-Share--Streamline-Ultimate" width="256" height="256" viewBox="0 0 256 256"><desc>Server Share Streamline Icon: https://streamlinehq.com</desc><g id="Server-Share--Streamline-Ultimate.svg"><path fill="#fff" stroke-width="10.667" d="M0 37.12A26.666666666666664 26.666666666666664 0 0 0 26.666666666666664 64h181.33333333333331A26.666666666666664 26.666666666666664 0 0 0 234.66666666666666 37.12v-10.666666666666666A26.77333333333333 26.77333333333333 0 0 0 208 0h-181.33333333333331A26.77333333333333 26.77333333333333 0 0 0 0 26.453333333333333ZM38.82666666666667 32a11.84 11.84 0 1 1 11.84 11.733333333333334A11.84 11.84 0 0 1 38.82666666666667 32ZM80 32a11.946666666666667 11.946666666666667 0 1 1 11.84 11.733333333333334A11.84 11.84 0 0 1 80 32Z"/><path fill="#fff" stroke-width="10.667" d="M226.66666666666666 101.54666666666665a48.42666666666666 48.42666666666666 0 0 1 8 0.7466666666666667A26.77333333333333 26.77333333333333 0 0 0 208 74.66666666666666h-181.33333333333331A26.77333333333333 26.77333333333333 0 0 0 0 101.12v10.666666666666666A26.666666666666664 26.666666666666664 0 0 0 26.666666666666664 138.66666666666666h151.25333333333333a5.119999999999999 5.119999999999999 0 0 0 5.119999999999999 -3.84 45.33333333333333 45.33333333333333 0 0 1 43.626666666666665 -33.28ZM103.78666666666666 106.66666666666666a11.946666666666667 11.946666666666667 0 1 1 -11.946666666666667 -12.053333333333331A11.946666666666667 11.946666666666667 0 0 1 103.78666666666666 106.66666666666666Zm-41.28 0a11.84 11.84 0 1 1 -11.84 -12.053333333333331A11.84 11.84 0 0 1 62.50666666666667 106.66666666666666Z"/><path fill="#fff" stroke-width="10.667" d="M26.666666666666664 149.33333333333331A26.77333333333333 26.77333333333333 0 0 0 0 175.78666666666666v10.666666666666666A26.666666666666664 26.666666666666664 0 0 0 26.666666666666664 213.33333333333331h71.03999999999999a5.333333333333333 5.333333333333333 0 0 0 4.266666666666667 -2.0266666666666664 5.76 5.76 0 0 0 0.96 -4.693333333333333 41.17333333333333 41.17333333333333 0 0 1 -1.5999999999999999 -11.52 45.54666666666666 45.54666666666666 0 0 1 24.85333333333333 -40.53333333333333 2.6666666666666665 2.6666666666666665 0 0 0 -1.2799999999999998 -4.906666666666666Zm12.159999999999998 32a11.84 11.84 0 1 1 11.84 11.733333333333334A11.84 11.84 0 0 1 38.82666666666667 181.33333333333331Z"/><path fill="#fff" stroke-width="10.667" d="M256 146.88a29.333333333333332 29.333333333333332 0 1 0 -58.02666666666667 5.653333333333333 2.5599999999999996 2.5599999999999996 0 0 1 -1.1733333333333333 2.88l-28.479999999999997 17.066666666666666a2.5599999999999996 2.5599999999999996 0 0 1 -3.093333333333333 0 29.226666666666667 29.226666666666667 0 0 0 -47.89333333333333 22.4A29.333333333333332 29.333333333333332 0 0 0 146.66666666666666 224a28.8 28.8 0 0 0 21.866666666666664 -10.133333333333333 2.7733333333333334 2.7733333333333334 0 0 1 3.093333333333333 -0.6399999999999999l24.21333333333333 9.706666666666667a2.5599999999999996 2.5599999999999996 0 0 1 1.5999999999999999 2.5599999999999996 29.333333333333332 29.333333333333332 0 1 0 29.226666666666667 -28.16 28.69333333333333 28.69333333333333 0 0 0 -21.866666666666664 10.026666666666666 2.7733333333333334 2.7733333333333334 0 0 1 -3.093333333333333 0.6399999999999999l-24.106666666666662 -9.6a2.7733333333333334 2.7733333333333334 0 0 1 -1.7066666666666666 -2.7733333333333334 20.586666666666666 20.586666666666666 0 0 0 0 -6.72 2.5599999999999996 2.5599999999999996 0 0 1 1.1733333333333333 -2.88l28.479999999999997 -17.066666666666666a2.7733333333333334 2.7733333333333334 0 0 1 3.093333333333333 0A29.119999999999997 29.119999999999997 0 0 0 256 146.88Z"/></g></svg>