<svg xmlns="http://www.w3.org/2000/svg" viewBox="0 0 256 256" id="Server-Star-1--Streamline-Ultimate" height="256" width="256">
  <desc>
    Server Star 1 Streamline Icon: https://streamlinehq.com
  </desc>
  <g id="Server-Star-1--Streamline-Ultimate.svg">
    <path d="M107.1936 211.08266666666668c-1.4367999999999999 0 -2.6026666666666665 -1.1658666666666666 -2.6026666666666665 -2.6026666666666665v-27.590399999999995c-6.452266666666667 -18.545066666666663 7.541333333333332 -37.846399999999996 27.173333333333332 -37.48053333333333h14.055466666666668c2.0693333333333332 -0.0192 3.938133333333333 -1.2384 4.789333333333333 -3.1231999999999998l2.1866666666666665 -5.2063999999999995c0.8330666666666666 -1.5242666666666667 0.8330666666666666 -3.3685333333333336 0 -4.892799999999999 -0.9269333333333334 -1.5199999999999998 -2.5930666666666666 -2.4330666666666665 -4.373333333333333 -2.3946666666666667H28.5888c-20.037333333333333 0 -32.56 21.690666666666665 -22.541866666666667 39.04213333333333 4.6495999999999995 8.053333333333333 13.242666666666667 13.014399999999998 22.541866666666667 13.014399999999998h57.782399999999996c1.4378666666666666 0 2.6026666666666665 1.1658666666666666 2.6026666666666665 2.6026666666666665v26.028799999999997c0 1.4378666666666666 -1.1648 2.6026666666666665 -2.6026666666666665 2.6026666666666665H55.13706666666667c-6.010666666666666 0 -9.767466666666666 6.506666666666666 -6.762666666666666 11.713066666666666 1.3952 2.416 3.973333333333333 3.904 6.762666666666666 3.904h61.32266666666666c2.0693333333333332 -0.0192 3.938133333333333 -1.2384 4.789333333333333 -3.1231999999999998l2.2912 -5.2063999999999995c0.8330666666666666 -1.5242666666666667 0.8330666666666666 -3.3685333333333336 0 -4.892799999999999 -0.8927999999999999 -1.5039999999999998 -2.5205333333333333 -2.4170666666666665 -4.2688 -2.3946666666666667ZM34.31466666666667 153.81973333333332c0.007466666666666667 -10.018133333333333 10.8576 -16.270933333333332 19.530666666666665 -11.254399999999999 8.671999999999999 5.015466666666667 8.661333333333333 17.5392 -0.01813333333333333 22.540799999999997 -2.130133333333333 1.2277333333333331 -4.5632 1.8261333333333332 -7.018666666666666 1.728 -6.983466666666666 -0.27946666666666664 -12.499199999999998 -6.024533333333332 -12.493866666666666 -13.014399999999998Zm52.056533333333334 13.014399999999998c-10.010666666666665 0.4010666666666667 -16.7008 -10.185599999999999 -12.042666666666666 -19.05493333333333 4.658133333333333 -8.869333333333334 17.1712 -9.370666666666665 22.523733333333332 -0.9013333333333333 1.3130666666666666 2.0778666666666665 2.0106666666666664 4.484266666666667 2.0128 6.941866666666667 0.005333333333333333 6.989866666666666 -5.510399999999999 12.734933333333332 -12.493866666666666 13.014399999999998Z" fill="#ffffff" stroke-width="10.6667"></path>
    <path d="M23.90293333333333 211.08266666666668h-10.410666666666666c-6.011733333333333 0 -9.768533333333332 6.506666666666666 -6.762666666666666 11.713066666666666 1.3952 2.416 3.9722666666666666 3.904 6.762666666666666 3.904h10.410666666666666c6.011733333333333 0 9.768533333333332 -6.506666666666666 6.762666666666666 -11.713066666666666 -1.3941333333333334 -2.416 -3.9722666666666666 -3.904 -6.762666666666666 -3.904Z" fill="#ffffff" stroke-width="10.6667"></path>
    <path d="M28.5888 54.91199999999999H163.93599999999998c20.036266666666666 0 32.56 -21.6896 22.540799999999997 -39.04213333333333C181.82719999999998 7.816533333333333 173.2352 2.8554666666666666 163.93599999999998 2.8554666666666666H28.5888C8.551466666666666 2.8554666666666666 -3.9712 24.546133333333334 6.046933333333333 41.898666666666664c4.6495999999999995 8.052266666666666 13.242666666666667 13.013333333333332 22.541866666666667 13.013333333333332Zm5.725866666666667 -26.027733333333334c0.007466666666666667 -10.018133333333333 10.8576 -16.270933333333332 19.530666666666665 -11.255466666666665 8.671999999999999 5.016533333333333 8.661333333333333 17.5392 -0.01813333333333333 22.541866666666667 -2.130133333333333 1.2266666666666666 -4.5632 1.8261333333333332 -7.018666666666666 1.728 -6.983466666666666 -0.2805333333333333 -12.499199999999998 -6.025599999999999 -12.493866666666666 -13.014399999999998Zm39.04213333333333 0c0 -10.018133333333333 10.845866666666666 -16.28053333333333 19.522133333333333 -11.270399999999999 8.6752 5.009066666666667 8.6752 17.53173333333333 0 22.540799999999997 -1.9786666666666666 1.1423999999999999 -4.222933333333333 1.7429333333333332 -6.5077333333333325 1.744 -7.389866666666666 0.29546666666666666 -13.540266666666668 -5.6192 -13.534933333333331 -13.014399999999998Z" fill="#ffffff" stroke-width="10.6667"></path>
    <path d="M184.23786666666666 101.97119999999998c2.277333333333333 -0.07039999999999999 4.232533333333333 -1.6426666666666665 4.789333333333333 -3.851733333333333 0.8085333333333333 -2.1738666666666666 1.2992 -4.453333333333333 1.4570666666666665 -6.766933333333332 0.0031999999999999997 -14.581333333333333 -11.970133333333333 -26.319999999999997 -26.548266666666667 -26.028799999999997H28.5888c-20.037333333333333 0 -32.56 21.690666666666665 -22.541866666666667 39.04213333333333 4.6495999999999995 8.053333333333333 13.242666666666667 13.014399999999998 22.541866666666667 13.014399999999998h128.5792c1.7706666666666666 -0.0031999999999999997 3.4176 -0.9045333333333333 4.373333333333333 -2.3946666666666667 4.8970666666666665 -7.8773333333333335 13.424 -12.766933333333334 22.696533333333335 -13.014399999999998ZM34.31466666666667 91.35253333333333c0.007466666666666667 -10.0192 10.8576 -16.272 19.530666666666665 -11.255466666666665 8.671999999999999 5.016533333333333 8.661333333333333 17.5392 -0.01813333333333333 22.540799999999997 -2.130133333333333 1.2277333333333331 -4.5632 1.8272 -7.018666666666666 1.728 -6.983466666666666 -0.27946666666666664 -12.499199999999998 -6.024533333333332 -12.493866666666666 -13.013333333333332Zm52.056533333333334 13.013333333333332c-10.010666666666665 0.4010666666666667 -16.7008 -10.184533333333333 -12.042666666666666 -19.053866666666664 4.658133333333333 -8.8704 17.1712 -9.370666666666665 22.523733333333332 -0.9023999999999999 1.3130666666666666 2.0778666666666665 2.0106666666666664 4.484266666666667 2.0128 6.942933333333333 0.005333333333333333 6.9887999999999995 -5.510399999999999 12.733866666666666 -12.493866666666666 13.013333333333332Z" fill="#ffffff" stroke-width="10.6667"></path>
    <path d="M240.3552 159.02613333333332h-26.028799999999997c-1.0378666666666665 0.0031999999999999997 -1.9786666666666666 -0.6101333333333333 -2.3946666666666667 -1.5615999999999999l-14.054400000000001 -32.48426666666666c-2.3072 -4.484266666666667 -6.9312000000000005 -7.298133333333333 -11.973333333333333 -7.287466666666667 -5.173333333333333 0.01813333333333333 -9.8912 2.962133333333333 -12.181333333333331 7.6l-14.471466666666666 32.17173333333333c-0.416 0.9514666666666667 -1.3568 1.5648 -2.3946666666666667 1.5615999999999999h-26.028799999999997c-5.307733333333333 -0.14293333333333333 -10.153599999999999 3.0048 -12.181333333333331 7.912533333333333 -1.9584000000000001 5.050666666666666 -0.6389333333333334 10.786133333333334 3.3322666666666665 14.471466666666666l22.8 20.8224c0.8544 0.7530666666666666 1.1456 1.9605333333333332 0.7296 3.0197333333333334l-12.806399999999998 29.255466666666667c-2.288 5.2223999999999995 -0.9408 11.322666666666667 3.3312 15.096533333333333 2.450133333333333 2.2378666666666662 5.636266666666666 3.4976000000000003 8.9536 3.5402666666666662 2.3349333333333333 -0.0192 4.6272 -0.6282666666666666 6.663466666666666 -1.7695999999999998l32.4832 -18.220799999999997c0.7509333333333333 -0.5226666666666666 1.7482666666666664 -0.5226666666666666 2.4992 0l32.379733333333334 18.220799999999997c2.0778666666666665 1.1296 4.401066666666667 1.7375999999999998 6.766933333333332 1.7695999999999998 3.317333333333333 -0.042666666666666665 6.503466666666666 -1.3024 8.9536 -3.5402666666666662 4.273066666666667 -3.7738666666666667 5.6192 -9.874133333333333 3.3322666666666665 -15.096533333333333l-12.3904 -29.671466666666664c-0.44053333333333333 -1.0389333333333333 -0.19199999999999998 -2.2421333333333333 0.6250666666666667 -3.0197333333333334l23.113599999999998 -20.8224c3.8272 -3.7301333333333333 5.057066666666667 -9.3856 3.1231999999999998 -14.367999999999999 -2.1471999999999998 -4.765866666666666 -6.956799999999999 -7.766399999999999 -12.181333333333331 -7.6Z" fill="#ffffff" stroke-width="10.6667"></path>
  </g>
</svg>