<svg xmlns="http://www.w3.org/2000/svg" viewBox="0 0 256 256" id="Settings-Slider-Desktop-Horizontal--Streamline-Ultimate" height="256" width="256">
  <desc>
    Settings Slider Desktop Horizontal Streamline Icon: https://streamlinehq.com
  </desc>
  <g id="Settings-Slider-Desktop-Horizontal--Streamline-Ultimate.svg">
    <path d="M240 0h-224A16 16 0 0 0 0 16v146.66666666666666a2.6666666666666665 2.6666666666666665 0 0 0 2.6666666666666665 2.6666666666666665h250.66666666666666a2.6666666666666665 2.6666666666666665 0 0 0 2.6666666666666665 -2.6666666666666665V16A16 16 0 0 0 240 0ZM50.879999999999995 48h18.24a8 8 0 0 1 0 16H50.879999999999995a8 8 0 0 1 0 -16Zm56 74.66666666666666H50.879999999999995a8 8 0 0 1 0 -16H106.66666666666666a8 8 0 0 1 0 16Zm3.1999999999999997 -48A18.666666666666664 18.666666666666664 0 1 1 128 55.04 18.666666666666664 18.666666666666664 0 0 1 110.08 74.66666666666666Zm37.65333333333333 58.666666666666664a18.666666666666664 18.666666666666664 0 1 1 17.706666666666663 -19.626666666666665 18.773333333333333 18.773333333333333 0 0 1 -17.706666666666663 19.626666666666665Zm57.38666666666666 -10.666666666666666h-18.24a8 8 0 0 1 0 -16h18.24a8 8 0 0 1 0 16Zm0 -58.666666666666664H149.33333333333331a8 8 0 0 1 0 -16h56a8 8 0 0 1 0 16Z" fill="#ffffff" stroke-width="10.6667"></path>
    <path d="M253.33333333333331 181.33333333333331H2.6666666666666665a2.6666666666666665 2.6666666666666665 0 0 0 -2.6666666666666665 2.6666666666666665v13.333333333333332A16 16 0 0 0 16 213.33333333333331h88.53333333333333l-24 34.239999999999995a5.226666666666667 5.226666666666667 0 0 0 0 5.546666666666667A5.119999999999999 5.119999999999999 0 0 0 85.33333333333333 256h85.33333333333333a5.119999999999999 5.119999999999999 0 0 0 4.693333333333333 -2.88 5.226666666666667 5.226666666666667 0 0 0 0 -5.546666666666667L151.46666666666664 213.33333333333331h88.53333333333333a16 16 0 0 0 16 -16v-13.333333333333332a2.6666666666666665 2.6666666666666665 0 0 0 -2.6666666666666665 -2.6666666666666665Z" fill="#ffffff" stroke-width="10.6667"></path>
  </g>
</svg>