<svg xmlns="http://www.w3.org/2000/svg" viewBox="0 0 256 256" id="Shapes--Streamline-Ultimate" height="256" width="256">
  <desc>
    Shapes Streamline Icon: https://streamlinehq.com
  </desc>
  <g id="Shapes--Streamline-Ultimate.svg">
    <path d="M16 5.333333333333333h85.33333333333333s10.666666666666666 0 10.666666666666666 10.666666666666666v85.33333333333333s0 10.666666666666666 -10.666666666666666 10.666666666666666h-85.33333333333333s-10.666666666666666 0 -10.666666666666666 -10.666666666666666v-85.33333333333333s0 -10.666666666666666 10.666666666666666 -10.666666666666666" fill="#ffffff" stroke-width="10.6667"></path>
    <path d="M68.58666666666666 138.66666666666666a12.373333333333331 12.373333333333331 0 0 0 -19.84 0l-33.70666666666666 46.18666666666667a11.84 11.84 0 0 0 0 14.293333333333333L48.74666666666667 245.33333333333331a12.373333333333331 12.373333333333331 0 0 0 19.84 0l33.70666666666666 -46.50666666666667a11.84 11.84 0 0 0 0 -14.293333333333333Z" fill="#ffffff" stroke-width="10.6667"></path>
    <path d="M144 58.666666666666664a53.33333333333333 53.33333333333333 0 1 0 106.66666666666666 0 53.33333333333333 53.33333333333333 0 1 0 -106.66666666666666 0" fill="#ffffff" stroke-width="10.6667"></path>
    <path d="M190.50666666666666 149.33333333333331a10.666666666666666 10.666666666666666 0 0 0 -18.346666666666664 0l-50.666666666666664 85.33333333333333a10.666666666666666 10.666666666666666 0 0 0 0 10.666666666666666 10.666666666666666 10.666666666666666 0 0 0 9.28 5.333333333333333h101.33333333333333a10.666666666666666 10.666666666666666 0 0 0 9.28 -5.333333333333333 10.666666666666666 10.666666666666666 0 0 0 0 -10.666666666666666Z" fill="#ffffff" stroke-width="10.6667"></path>
  </g>
</svg>