<svg xmlns="http://www.w3.org/2000/svg" viewBox="0 0 256 256" id="Shape-Cube--Streamline-Ultimate" height="256" width="256">
  <desc>
    Shape Cube Streamline Icon: https://streamlinehq.com
  </desc>
  <path d="M245.33333333333331 21.333333333333332a10.666666666666666 10.666666666666666 0 0 0 -10.666666666666666 -10.666666666666666H85.33333333333333a10.666666666666666 10.666666666666666 0 0 0 -7.573333333333332 3.093333333333333l-64 64A10.666666666666666 10.666666666666666 0 0 0 10.666666666666666 85.33333333333333v149.33333333333331a10.666666666666666 10.666666666666666 0 0 0 10.666666666666666 10.666666666666666h149.33333333333331a10.666666666666666 10.666666666666666 0 0 0 7.573333333333332 -3.093333333333333l64 -64A10.666666666666666 10.666666666666666 0 0 0 245.33333333333331 170.66666666666666ZM72.74666666666667 48.959999999999994a2.7733333333333334 2.7733333333333334 0 0 1 2.986666666666667 0 2.6666666666666665 2.6666666666666665 0 0 1 1.5999999999999999 2.453333333333333v5.119999999999999a2.6666666666666665 2.6666666666666665 0 0 0 2.6666666666666665 2.6666666666666665h10.666666666666666a2.6666666666666665 2.6666666666666665 0 0 0 2.6666666666666665 -2.6666666666666665v-21.333333333333332A2.6666666666666665 2.6666666666666665 0 0 1 96 32h106.66666666666666a2.5599999999999996 2.5599999999999996 0 0 1 2.453333333333333 1.5999999999999999 2.7733333333333334 2.7733333333333334 0 0 1 -0.5333333333333333 2.986666666666667l-37.33333333333333 37.33333333333333a3.093333333333333 3.093333333333333 0 0 1 -1.92 0.7466666666666667H53.33333333333333a2.6666666666666665 2.6666666666666665 0 0 1 -2.453333333333333 -1.5999999999999999 2.7733333333333334 2.7733333333333334 0 0 1 0 -2.986666666666667ZM160 221.33333333333331a2.6666666666666665 2.6666666666666665 0 0 1 -2.6666666666666665 2.6666666666666665H49.70666666666666a2.6666666666666665 2.6666666666666665 0 0 1 -2.453333333333333 -1.5999999999999999 2.7733333333333334 2.7733333333333334 0 0 1 0.6399999999999999 -2.986666666666667l40 -40a2.7733333333333334 2.7733333333333334 0 0 1 1.8133333333333335 -0.7466666666666667h51.626666666666665a2.6666666666666665 2.6666666666666665 0 0 0 2.6666666666666665 -2.6666666666666665v-10.666666666666666a2.6666666666666665 2.6666666666666665 0 0 0 -2.6666666666666665 -2.6666666666666665H96a2.6666666666666665 2.6666666666666665 0 0 1 -2.6666666666666665 -2.6666666666666665v-45.33333333333333a2.6666666666666665 2.6666666666666665 0 0 0 -2.6666666666666665 -2.6666666666666665h-10.666666666666666a2.6666666666666665 2.6666666666666665 0 0 0 -2.6666666666666665 2.6666666666666665v51.626666666666665a2.7733333333333334 2.7733333333333334 0 0 1 -0.7466666666666667 1.8133333333333335l-40 40a2.7733333333333334 2.7733333333333334 0 0 1 -2.986666666666667 0.6399999999999999 2.6666666666666665 2.6666666666666665 0 0 1 -1.5999999999999999 -2.453333333333333V98.66666666666666A2.6666666666666665 2.6666666666666665 0 0 1 34.666666666666664 96h122.66666666666666a2.6666666666666665 2.6666666666666665 0 0 1 2.6666666666666665 2.6666666666666665Zm25.92 -16.96a2.7733333333333334 2.7733333333333334 0 0 1 -2.986666666666667 0.5333333333333333A2.6666666666666665 2.6666666666666665 0 0 1 181.33333333333331 202.66666666666666V90.88a3.093333333333333 3.093333333333333 0 0 1 0.7466666666666667 -1.92l37.33333333333333 -37.33333333333333a2.7733333333333334 2.7733333333333334 0 0 1 2.986666666666667 0A2.6666666666666665 2.6666666666666665 0 0 1 224 53.33333333333333v106.66666666666666a2.6666666666666665 2.6666666666666665 0 0 1 -2.6666666666666665 2.6666666666666665h-21.333333333333332a2.6666666666666665 2.6666666666666665 0 0 0 -2.6666666666666665 2.6666666666666665v10.666666666666666a2.6666666666666665 2.6666666666666665 0 0 0 2.6666666666666665 2.6666666666666665h5.119999999999999a2.6666666666666665 2.6666666666666665 0 0 1 2.453333333333333 1.5999999999999999 2.7733333333333334 2.7733333333333334 0 0 1 -0.5333333333333333 2.986666666666667Z" fill="#ffffff" stroke-width="10.6667"></path>
</svg>