<svg xmlns="http://www.w3.org/2000/svg" viewBox="0 0 256 256" id="Share-2--Streamline-Ultimate" height="256" width="256">
  <desc>
    Share 2 Streamline Icon: https://streamlinehq.com
  </desc>
  <g id="Share-2--Streamline-Ultimate.svg">
    <path d="M122.66666666666666 101.33333333333333v21.333333333333332a32 32 0 0 1 -64 0v-21.333333333333332a88.85333333333332 88.85333333333332 0 0 1 3.093333333333333 -23.36 2.453333333333333 2.453333333333333 0 0 0 0 -2.2399999999999998 2.5599999999999996 2.5599999999999996 0 0 0 -2.5599999999999996 -1.0666666666666667H21.333333333333332a21.333333333333332 21.333333333333332 0 0 0 -21.333333333333332 21.333333333333332v138.66666666666666a21.333333333333332 21.333333333333332 0 0 0 21.333333333333332 21.333333333333332h138.66666666666666a21.333333333333332 21.333333333333332 0 0 0 21.333333333333332 -21.333333333333332V96a21.333333333333332 21.333333333333332 0 0 0 -21.333333333333332 -21.333333333333332h-10.666666666666666a26.666666666666664 26.666666666666664 0 0 0 -26.666666666666664 26.666666666666664Z" fill="#ffffff" stroke-width="10.6667"></path>
    <path d="m252.90666666666667 35.093333333333334 -32 -32a10.666666666666666 10.666666666666666 0 0 0 -11.626666666666667 -2.2399999999999998A10.666666666666666 10.666666666666666 0 0 0 202.66666666666666 10.666666666666666v18.666666666666664a2.6666666666666665 2.6666666666666665 0 0 1 -2.6666666666666665 2.6666666666666665H149.33333333333331a69.44 69.44 0 0 0 -69.33333333333333 69.33333333333333v21.333333333333332a10.666666666666666 10.666666666666666 0 0 0 21.333333333333332 0v-21.333333333333332A48.10666666666666 48.10666666666666 0 0 1 149.33333333333331 53.33333333333333h50.666666666666664a2.6666666666666665 2.6666666666666665 0 0 1 2.6666666666666665 2.6666666666666665V74.66666666666666a10.666666666666666 10.666666666666666 0 0 0 6.613333333333333 9.813333333333333 10.666666666666666 10.666666666666666 0 0 0 11.626666666666667 -2.2399999999999998l32 -32a10.666666666666666 10.666666666666666 0 0 0 0 -15.146666666666665Z" fill="#ffffff" stroke-width="10.6667"></path>
  </g>
</svg>