<svg xmlns="http://www.w3.org/2000/svg" viewBox="0 0 256 256" id="Share--Streamline-Ultimate" height="256" width="256">
  <desc>
    Share Streamline Icon: https://streamlinehq.com
  </desc>
  <path d="M202.66666666666666 149.33333333333331a53.33333333333333 53.33333333333333 0 0 0 -38.29333333333333 16.32l-58.56 -29.333333333333332A52.373333333333335 52.373333333333335 0 0 0 106.66666666666666 128a52.373333333333335 52.373333333333335 0 0 0 -0.8533333333333333 -8.32l58.56 -29.333333333333332A53.33333333333333 53.33333333333333 0 1 0 149.33333333333331 53.33333333333333a52.373333333333335 52.373333333333335 0 0 0 0.8533333333333333 8.32L91.62666666666667 90.98666666666665a53.33333333333333 53.33333333333333 0 1 0 0 74.02666666666667l58.56 29.333333333333332A52.373333333333335 52.373333333333335 0 0 0 149.33333333333331 202.66666666666666a53.33333333333333 53.33333333333333 0 1 0 53.33333333333333 -53.33333333333333Z" fill="#ffffff" stroke-width="10.6667"></path>
</svg>