<svg xmlns="http://www.w3.org/2000/svg" id="Share-Location-Hand--Streamline-Ultimate" width="256" height="256" viewBox="0 0 256 256"><desc>Share Location Hand Streamline Icon: https://streamlinehq.com</desc><g id="Share-Location-Hand--Streamline-Ultimate.svg"><path fill="#fff" stroke-width="10.667" d="M178.24 176a11.2 11.2 0 0 0 8.64 -3.9466666666666663c2.2399999999999998 -2.6666666666666665 55.78666666666667 -65.38666666666666 55.78666666666667 -108.05333333333334a64 64 0 1 0 -128.74666666666667 0c0 41.81333333333333 53.33333333333333 104.96 55.78666666666667 107.62666666666667a10.666666666666666 10.666666666666666 0 0 0 8.533333333333333 4.373333333333333ZM154.66666666666666 64a23.68 23.68 0 1 1 23.57333333333333 23.57333333333333A23.57333333333333 23.57333333333333 0 0 1 154.66666666666666 64Z"/><path fill="#fff" stroke-width="10.667" d="M178.66666666666666 208H81.28a6.72 6.72 0 0 1 0 -13.333333333333332h26.986666666666665a10.666666666666666 10.666666666666666 0 0 0 9.813333333333333 -14.826666666666664A23.786666666666665 23.786666666666665 0 0 0 96 165.33333333333331H50.666666666666664a5.333333333333333 5.333333333333333 0 0 0 -5.333333333333333 5.333333333333333v69.33333333333333a5.333333333333333 5.333333333333333 0 0 0 5.333333333333333 5.333333333333333h114.77333333333333a23.893333333333334 23.893333333333334 0 0 0 23.893333333333334 -23.893333333333334v-2.7733333333333334a10.666666666666666 10.666666666666666 0 0 0 -10.666666666666666 -10.666666666666666Z"/><path fill="#fff" stroke-width="10.667" d="M24 157.33333333333331a10.666666666666666 10.666666666666666 0 0 0 -10.666666666666666 10.666666666666666V245.33333333333331a10.666666666666666 10.666666666666666 0 0 0 21.333333333333332 0v-77.33333333333333a10.666666666666666 10.666666666666666 0 0 0 -10.666666666666666 -10.666666666666666Z"/></g></svg>