<svg xmlns="http://www.w3.org/2000/svg" id="Shield-Check-1--Streamline-Ultimate" width="256" height="256" viewBox="0 0 256 256"><desc>Shield Check 1 Streamline Icon: https://streamlinehq.com</desc><path fill="#fff" stroke-width="10.667" d="M256 21.333333333333332a21.333333333333332 21.333333333333332 0 0 0 -6.186666666666666 -15.253333333333332A21.333333333333332 21.333333333333332 0 0 0 234.66666666666666 0H21.333333333333332A20.37333333333333 20.37333333333333 0 0 0 6.186666666666666 6.293333333333333 20.586666666666666 20.586666666666666 0 0 0 0 21.333333333333332v77.97333333333333A161.38666666666666 161.38666666666666 0 0 0 126.50666666666666 256a7.253333333333334 7.253333333333334 0 0 0 2.1333333333333333 0 7.573333333333332 7.573333333333332 0 0 0 2.1333333333333333 0A161.38666666666666 161.38666666666666 0 0 0 256 98.13333333333333ZM128 192a77.33333333333333 77.33333333333333 0 0 1 0 -154.66666666666666 10.666666666666666 10.666666666666666 0 0 1 0 21.333333333333332 56 56 0 1 0 55.14666666666666 66.02666666666667 10.666666666666666 10.666666666666666 0 0 1 12.373333333333331 -8.533333333333333 10.666666666666666 10.666666666666666 0 0 1 8.533333333333333 12.373333333333331A77.12 77.12 0 0 1 128 192Zm74.66666666666666 -134.93333333333334a10.666666666666666 10.666666666666666 0 0 1 0 15.04l-60.8 60.8a19.093333333333334 19.093333333333334 0 0 1 -26.88 0L96 113.81333333333333a10.666666666666666 10.666666666666666 0 0 1 0 -15.146666666666665 10.666666666666666 10.666666666666666 0 0 1 15.04 0l13.76 13.76a5.4399999999999995 5.4399999999999995 0 0 0 7.466666666666666 0l55.36 -55.36a10.666666666666666 10.666666666666666 0 0 1 15.04 0Z"/></svg>