<svg xmlns="http://www.w3.org/2000/svg" fill="none" viewBox="0 0 256 256" id="Shipping-Truck-Style-2--Streamline-Ultimate" height="256" width="256">
  <desc>
    Shipping Truck Style 2 Streamline Icon: https://streamlinehq.com
  </desc>
  <path fill="#ffffff" fill-rule="evenodd" d="M64 48h37.33333333333333v70.66666666666666a8 8 0 0 0 16 0V48h40c6.3999999999999995 0 10.666666666666666 4.266666666666667 10.666666666666666 10.666666666666666v94.26133333333333a37.33333333333333 37.33333333333333 0 0 0 -21.333333333333332 33.73866666666666h-10.666666666666666a37.33333333333333 37.33333333333333 0 0 0 -58.666666666666664 -30.645333333333333 37.33333333333333 37.33333333333333 0 0 0 -58.666666666666664 30.645333333333333c-6.3999999999999995 0 -10.666666666666666 -5.333333333333333 -10.666666666666666 -10.666666666666666v-117.33333333333333c0 -6.3999999999999995 4.266666666666667 -10.666666666666666 10.666666666666666 -10.666666666666666H48v70.66666666666666a8 8 0 0 0 16 0V48Zm13.333333333333332 138.66666666666666a21.333333333333332 21.333333333333332 0 1 1 -42.666666666666664 0 21.333333333333332 21.333333333333332 0 0 1 42.666666666666664 0Zm0 0a21.333333333333332 21.333333333333332 0 1 1 42.666666666666664 0 21.333333333333332 21.333333333333332 0 0 1 -42.666666666666664 0Zm106.66666666666666 21.333333333333332a21.333333333333332 21.333333333333332 0 1 0 0 -42.666666666666664 21.333333333333332 21.333333333333332 0 0 0 0 42.666666666666664Zm0 -128V149.33333333333331a37.33333333333333 37.33333333333333 0 0 1 37.33333333333333 37.33333333333333h16c6.3999999999999995 0 10.666666666666666 -5.333333333333333 10.666666666666666 -10.666666666666666v-45.86666666666666c0 -4.266666666666667 -3.1999999999999997 -8.533333333333333 -7.466666666666666 -9.6l-24.53333333333333 -8.533333333333333 -18.133333333333333 -27.733333333333334c-2.1333333333333333 -2.1333333333333333 -5.333333333333333 -4.266666666666667 -8.533333333333333 -4.266666666666667h-5.333333333333333Z" clip-rule="evenodd" stroke-width="10.6667"></path>
</svg>