<svg xmlns="http://www.w3.org/2000/svg" viewBox="0 0 256 256" id="Shipment-Online-Monitor-1--Streamline-Ultimate" height="256" width="256">
  <desc>
    Shipment Online Monitor 1 Streamline Icon: https://streamlinehq.com
  </desc>
  <g id="Shipment-Online-Monitor-1--Streamline-Ultimate.svg">
    <path d="M122.66666666666666 64a2.5599999999999996 2.5599999999999996 0 0 0 -1.5999999999999999 -2.5599999999999996l-53.33333333333333 -22.186666666666667a2.453333333333333 2.453333333333333 0 0 0 -2.5599999999999996 0 2.5599999999999996 2.5599999999999996 0 0 0 -1.1733333333333333 2.5599999999999996V104.53333333333333a10.666666666666666 10.666666666666666 0 0 0 6.506666666666666 9.813333333333333l48.42666666666666 20.479999999999997a2.7733333333333334 2.7733333333333334 0 0 0 2.5599999999999996 0 2.6666666666666665 2.6666666666666665 0 0 0 1.1733333333333333 -2.2399999999999998c0 -52.05333333333333 -0.10666666666666666 -64.96 0 -68.58666666666666Z" fill="#ffffff" stroke-width="10.6667"></path>
    <path d="M179.2 32a2.6666666666666665 2.6666666666666665 0 0 0 0 -4.906666666666666L132.05333333333334 7.04a10.666666666666666 10.666666666666666 0 0 0 -8.106666666666666 0l-8.853333333333332 3.626666666666667a2.6666666666666665 2.6666666666666665 0 0 0 -1.7066666666666666 2.3466666666666667 2.7733333333333334 2.7733333333333334 0 0 0 1.4933333333333334 2.453333333333333l46.18666666666667 22.613333333333333a2.3466666666666667 2.3466666666666667 0 0 0 2.2399999999999998 0Z" fill="#ffffff" stroke-width="10.6667"></path>
    <path d="M143.57333333333332 46.39999999999999a2.986666666666667 2.986666666666667 0 0 0 1.7066666666666666 -2.3466666666666667 2.88 2.88 0 0 0 -1.4933333333333334 -2.5599999999999996l-42.666666666666664 -21.333333333333332a10.666666666666666 10.666666666666666 0 0 0 -8.746666666666666 0L76.8 26.666666666666664a2.6666666666666665 2.6666666666666665 0 0 0 0 5.333333333333333l47.14666666666666 19.2a10.666666666666666 10.666666666666666 0 0 0 8.106666666666666 0Z" fill="#ffffff" stroke-width="10.6667"></path>
    <path d="M133.33333333333331 132.48a2.453333333333333 2.453333333333333 0 0 0 1.1733333333333333 2.1333333333333333 2.7733333333333334 2.7733333333333334 0 0 0 2.5599999999999996 0l48.32 -20.159999999999997a10.666666666666666 10.666666666666666 0 0 0 6.613333333333333 -9.6V41.81333333333333a2.5599999999999996 2.5599999999999996 0 0 0 -1.1733333333333333 -2.2399999999999998 2.453333333333333 2.453333333333333 0 0 0 -2.5599999999999996 0l-53.33333333333333 22.186666666666667a2.5599999999999996 2.5599999999999996 0 0 0 -1.5999999999999999 2.2399999999999998c0.10666666666666666 3.626666666666667 0 16.53333333333333 0 68.47999999999999Z" fill="#ffffff" stroke-width="10.6667"></path>
    <path d="M250.66666666666666 37.33333333333333a32 32 0 0 0 -32 -32 10.666666666666666 10.666666666666666 0 0 0 -10.666666666666666 10.666666666666666 10.666666666666666 10.666666666666666 0 0 0 10.666666666666666 10.666666666666666 10.666666666666666 10.666666666666666 0 0 1 10.666666666666666 10.666666666666666V149.33333333333331a10.666666666666666 10.666666666666666 0 0 1 -10.666666666666666 10.666666666666666h-181.33333333333331a10.666666666666666 10.666666666666666 0 0 1 -10.666666666666666 -10.666666666666666V37.33333333333333a10.666666666666666 10.666666666666666 0 0 1 10.666666666666666 -10.666666666666666 10.666666666666666 10.666666666666666 0 0 0 10.666666666666666 -10.666666666666666 10.666666666666666 10.666666666666666 0 0 0 -10.666666666666666 -10.666666666666666 32 32 0 0 0 -32 32v138.66666666666666a32 32 0 0 0 32 32h82.66666666666666a2.6666666666666665 2.6666666666666665 0 0 1 2.6666666666666665 2.6666666666666665v16a2.6666666666666665 2.6666666666666665 0 0 1 -2.6666666666666665 2.6666666666666665H90.66666666666666a10.666666666666666 10.666666666666666 0 0 0 0 21.333333333333332h85.33333333333333a10.666666666666666 10.666666666666666 0 0 0 0 -21.333333333333332h-29.333333333333332a2.6666666666666665 2.6666666666666665 0 0 1 -2.6666666666666665 -2.6666666666666665v-16a2.6666666666666665 2.6666666666666665 0 0 1 2.6666666666666665 -2.6666666666666665h71.89333333333333a32 32 0 0 0 32 -31.36Z" fill="#ffffff" stroke-width="10.6667"></path>
  </g>
</svg>