<svg xmlns="http://www.w3.org/2000/svg" viewBox="0 0 256 256" id="Shipment-Clock--Streamline-Ultimate" height="256" width="256">
  <desc>
    Shipment Clock Streamline Icon: https://streamlinehq.com
  </desc>
  <g id="Shipment-Clock--Streamline-Ultimate.svg">
    <path d="M156.26666666666665 99.83999999999999a2.7733333333333334 2.7733333333333334 0 0 0 1.8133333333333335 -2.5599999999999996V58.666666666666664a2.6666666666666665 2.6666666666666665 0 0 0 -2.6666666666666665 -2.6666666666666665H3.733333333333333a2.6666666666666665 2.6666666666666665 0 0 0 -2.6666666666666665 2.6666666666666665v94.18666666666667a15.68 15.68 0 0 0 15.68 15.68h77.75999999999999a2.7733333333333334 2.7733333333333334 0 0 0 2.6666666666666665 -2.1333333333333333 89.17333333333332 89.17333333333332 0 0 1 59.093333333333334 -66.56Z" fill="#ffffff" stroke-width="10.6667"></path>
    <path d="M87.46666666666665 37.65333333333333a2.6666666666666665 2.6666666666666665 0 0 0 2.6666666666666665 2.6666666666666665h55.89333333333333a2.6666666666666665 2.6666666666666665 0 0 0 2.453333333333333 -1.7066666666666666 2.6666666666666665 2.6666666666666665 0 0 0 -0.6399999999999999 -2.88L117.33333333333333 5.653333333333333a15.36 15.36 0 0 0 -10.666666666666666 -4.586666666666666H90.13333333333333a2.6666666666666665 2.6666666666666665 0 0 0 -2.6666666666666665 2.6666666666666665Z" fill="#ffffff" stroke-width="10.6667"></path>
    <path d="M69.01333333333332 40.31999999999999a2.6666666666666665 2.6666666666666665 0 0 0 2.6666666666666665 -2.6666666666666665V3.733333333333333A2.6666666666666665 2.6666666666666665 0 0 0 69.01333333333332 1.0666666666666667H52.48a15.36 15.36 0 0 0 -10.666666666666666 4.586666666666666L11.306666666666667 35.733333333333334a2.6666666666666665 2.6666666666666665 0 0 0 -0.6399999999999999 2.88 2.6666666666666665 2.6666666666666665 0 0 0 2.453333333333333 1.7066666666666666Z" fill="#ffffff" stroke-width="10.6667"></path>
    <path d="M184.32 113.6a70.72 70.72 0 1 0 70.61333333333333 70.72 70.72 70.72 0 0 0 -70.61333333333333 -70.72Zm0 120.42666666666665a49.81333333333333 49.81333333333333 0 1 1 49.70666666666666 -49.70666666666666 49.81333333333333 49.81333333333333 0 0 1 -49.70666666666666 49.70666666666666Z" fill="#ffffff" stroke-width="10.6667"></path>
    <path d="M173.76 158.07999999999998v26.24a10.666666666666666 10.666666666666666 0 0 0 10.666666666666666 10.666666666666666h21.333333333333332a10.666666666666666 10.666666666666666 0 0 0 0 -21.333333333333332h-7.786666666666666a2.6666666666666665 2.6666666666666665 0 0 1 -2.6666666666666665 -2.6666666666666665v-12.906666666666666a10.666666666666666 10.666666666666666 0 0 0 -21.333333333333332 0Z" fill="#ffffff" stroke-width="10.6667"></path>
  </g>
</svg>