<svg xmlns="http://www.w3.org/2000/svg" viewBox="0 0 256 256" id="Shipment-Upload-Information--Streamline-Ultimate" height="256" width="256">
  <desc>
    Shipment Upload Information Streamline Icon: https://streamlinehq.com
  </desc>
  <path d="M256 10.666666666666666a10.666666666666666 10.666666666666666 0 0 0 -10.666666666666666 -10.666666666666666H10.666666666666666a10.666666666666666 10.666666666666666 0 0 0 -10.666666666666666 10.666666666666666v234.66666666666666a10.666666666666666 10.666666666666666 0 0 0 10.666666666666666 10.666666666666666h234.66666666666666a10.666666666666666 10.666666666666666 0 0 0 10.666666666666666 -10.666666666666666ZM140.26666666666665 70.93333333333334l32 -32a5.119999999999999 5.119999999999999 0 0 1 7.466666666666666 0l32 32a5.013333333333333 5.013333333333333 0 0 1 1.1733333333333333 5.76 5.333333333333333 5.333333333333333 0 0 1 -4.906666666666666 3.3066666666666666h-18.666666666666664a2.6666666666666665 2.6666666666666665 0 0 0 -2.6666666666666665 2.6666666666666665V149.33333333333331a10.666666666666666 10.666666666666666 0 0 1 -21.333333333333332 0V82.66666666666666a2.6666666666666665 2.6666666666666665 0 0 0 -2.6666666666666665 -2.6666666666666665H144a5.333333333333333 5.333333333333333 0 0 1 -5.333333333333333 -3.3066666666666666 5.013333333333333 5.013333333333333 0 0 1 1.5999999999999999 -5.76Zm-96 0 32 -32a5.119999999999999 5.119999999999999 0 0 1 7.466666666666666 0l32 32a5.013333333333333 5.013333333333333 0 0 1 1.1733333333333333 5.76 5.333333333333333 5.333333333333333 0 0 1 -4.906666666666666 3.3066666666666666H93.33333333333333a2.6666666666666665 2.6666666666666665 0 0 0 -2.6666666666666665 2.6666666666666665V149.33333333333331a10.666666666666666 10.666666666666666 0 0 1 -21.333333333333332 0V82.66666666666666a2.6666666666666665 2.6666666666666665 0 0 0 -2.6666666666666665 -2.6666666666666665H48a5.333333333333333 5.333333333333333 0 0 1 -5.333333333333333 -3.3066666666666666 5.013333333333333 5.013333333333333 0 0 1 1.5999999999999999 -5.76ZM218.66666666666666 218.66666666666666h-181.33333333333331a10.666666666666666 10.666666666666666 0 0 1 0 -21.333333333333332h181.33333333333331a10.666666666666666 10.666666666666666 0 0 1 0 21.333333333333332Z" fill="#ffffff" stroke-width="10.6667"></path>
</svg>