<svg xmlns="http://www.w3.org/2000/svg" viewBox="0 0 256 256" id="Shipment-Cargo-Boat--Streamline-Ultimate" height="256" width="256">
  <desc>
    Shipment Cargo Boat Streamline Icon: https://streamlinehq.com
  </desc>
  <g id="Shipment-Cargo-Boat--Streamline-Ultimate.svg">
    <path d="M248 179.51999999999998h-234.66666666666666a12.906666666666666 12.906666666666666 0 0 0 -9.813333333333333 4.373333333333333 13.333333333333332 13.333333333333332 0 0 0 -3.413333333333333 10.666666666666666 61.22666666666667 61.22666666666667 0 0 0 7.359999999999999 22.72 2.6666666666666665 2.6666666666666665 0 0 0 2.453333333333333 1.3866666666666667 24.106666666666662 24.106666666666662 0 0 1 4.8 0c6.186666666666666 0.8533333333333333 15.893333333333333 -7.253333333333334 19.52 -11.733333333333334a27.306666666666665 27.306666666666665 0 0 1 20.799999999999997 -10.026666666666666 26.560000000000002 26.560000000000002 0 0 1 22.72 12.693333333333332 21.333333333333332 21.333333333333332 0 0 0 15.04 8.746666666666666 28.8 28.8 0 0 0 19.306666666666665 -10.666666666666666 26.666666666666664 26.666666666666664 0 0 1 45.76 4.266666666666667 12.799999999999999 12.799999999999999 0 0 0 10.666666666666666 6.079999999999999 18.986666666666665 18.986666666666665 0 0 0 14.613333333333333 -8.106666666666666 26.77333333333333 26.77333333333333 0 0 1 23.146666666666665 -13.333333333333332 27.199999999999996 27.199999999999996 0 0 1 22.72 12.693333333333332c0.8533333333333333 1.0666666666666667 7.466666666666666 9.28 13.546666666666667 8.64a21.333333333333332 21.333333333333332 0 0 1 3.733333333333333 0 2.7733333333333334 2.7733333333333334 0 0 0 2.3466666666666667 -1.3866666666666667 60.48 60.48 0 0 0 7.359999999999999 -29.013333333333335 8 8 0 0 0 -8 -8Z" fill="#ffffff" stroke-width="10.6667"></path>
    <path d="M248 10.666666666666666a8.106666666666666 8.106666666666666 0 0 0 -8 8v17.386666666666663a2.5599999999999996 2.5599999999999996 0 0 1 -1.2799999999999998 2.2399999999999998 2.6666666666666665 2.6666666666666665 0 0 1 -2.6666666666666665 0A48.213333333333324 48.213333333333324 0 0 0 216 32 13.12 13.12 0 0 0 202.66666666666666 45.33333333333333V69.33333333333333a2.6666666666666665 2.6666666666666665 0 0 0 2.6666666666666665 2.6666666666666665H224a8 8 0 0 1 0 16h-18.666666666666664a2.6666666666666665 2.6666666666666665 0 0 0 -2.6666666666666665 2.6666666666666665v64.85333333333332a8.106666666666666 8.106666666666666 0 0 0 8 8h37.33333333333333a8.106666666666666 8.106666666666666 0 0 0 8 -8V18.666666666666664a8.106666666666666 8.106666666666666 0 0 0 -8 -8Z" fill="#ffffff" stroke-width="10.6667"></path>
    <path d="M243.94666666666666 234.02666666666667c-17.386666666666663 2.2399999999999998 -29.226666666666667 -16 -29.333333333333332 -16.21333333333333a10.666666666666666 10.666666666666666 0 0 0 -18.346666666666664 0A34.666666666666664 34.666666666666664 0 0 1 167.78666666666666 234.66666666666666a29.226666666666667 29.226666666666667 0 0 1 -24.959999999999997 -15.36 10.666666666666666 10.666666666666666 0 0 0 -18.24 -1.5999999999999999 45.44 45.44 0 0 1 -32 16.96A36.586666666666666 36.586666666666666 0 0 1 64 217.81333333333333a10.666666666666666 10.666666666666666 0 0 0 -17.493333333333332 -0.96S29.866666666666664 236.79999999999998 12.053333333333331 234.66666666666666a10.666666666666666 10.666666666666666 0 1 0 -2.7733333333333334 21.333333333333332 54.29333333333333 54.29333333333333 0 0 0 5.866666666666667 0 59.84 59.84 0 0 0 37.12 -15.253333333333332 2.5599999999999996 2.5599999999999996 0 0 1 3.413333333333333 0A54.72 54.72 0 0 0 92.26666666666667 256a60.8 60.8 0 0 0 37.97333333333333 -14.08 2.6666666666666665 2.6666666666666665 0 0 1 3.52 0A47.78666666666667 47.78666666666667 0 0 0 167.78666666666666 256a53.97333333333333 53.97333333333333 0 0 0 36.05333333333333 -13.866666666666667 2.5599999999999996 2.5599999999999996 0 0 1 3.52 0 48.42666666666666 48.42666666666666 0 0 0 39.36 13.44 10.666666666666666 10.666666666666666 0 1 0 -2.7733333333333334 -21.333333333333332Z" fill="#ffffff" stroke-width="10.6667"></path>
    <path d="M122.88 112h53.33333333333333s10.666666666666666 0 10.666666666666666 10.666666666666666v35.519999999999996s0 10.666666666666666 -10.666666666666666 10.666666666666666h-53.33333333333333s-10.666666666666666 0 -10.666666666666666 -10.666666666666666V122.66666666666666s0 -10.666666666666666 10.666666666666666 -10.666666666666666" fill="#ffffff" stroke-width="10.6667"></path>
    <path d="M46.18666666666667 114.77333333333333a10.666666666666666 10.666666666666666 0 0 0 7.1466666666666665 -2.88 10.666666666666666 10.666666666666666 0 0 0 0.5333333333333333 -15.04 9.493333333333332 9.493333333333332 0 0 1 -2.6666666666666665 -6.506666666666666 9.706666666666667 9.706666666666667 0 1 1 16.85333333333333 6.3999999999999995 10.666666666666666 10.666666666666666 0 1 0 16 14.08A30.826666666666668 30.826666666666668 0 0 0 69.86666666666666 60.8V41.06666666666666a2.6666666666666665 2.6666666666666665 0 0 1 1.5999999999999999 -2.3466666666666667 2.7733333333333334 2.7733333333333334 0 0 1 2.88 0L138.66666666666666 94.08a8.533333333333333 8.533333333333333 0 0 0 5.226666666666667 1.92H181.33333333333331a7.893333333333333 7.893333333333333 0 0 0 7.573333333333332 -5.653333333333333 8 8 0 0 0 -3.093333333333333 -8.959999999999999L73.38666666666666 3.413333333333333a15.786666666666665 15.786666666666665 0 0 0 -24.746666666666663 10.026666666666666v48.63999999999999a30.826666666666668 30.826666666666668 0 0 0 -10.133333333333333 49.28 10.666666666666666 10.666666666666666 0 0 0 7.68 3.413333333333333Z" fill="#ffffff" stroke-width="10.6667"></path>
  </g>
</svg>