<svg xmlns="http://www.w3.org/2000/svg" viewBox="0 0 256 256" id="Shipping-Logistic-Damaged-Package--Streamline-Ultimate" height="256" width="256">
  <desc>
    Shipping Logistic Damaged Package Streamline Icon: https://streamlinehq.com
  </desc>
  <path d="m229.33333333333331 160 21.333333333333332 -133.33333333333331a20.586666666666666 20.586666666666666 0 0 0 -8.746666666666666 -16.746666666666666 20.37333333333333 20.37333333333333 0 0 0 -18.666666666666664 -2.2399999999999998L186.66666666666666 21.333333333333332l-25.493333333333332 -2.5599999999999996v68.05333333333333a7.893333333333333 7.893333333333333 0 0 1 -12.693333333333332 6.186666666666666l-15.36 -11.733333333333334a8 8 0 0 0 -9.706666666666667 0L108.69333333333333 92.79999999999998A7.893333333333333 7.893333333333333 0 0 1 96 86.61333333333332v-74.66666666666666L26.666666666666664 5.333333333333333a21.333333333333332 21.333333333333332 0 0 0 -21.333333333333332 21.333333333333332v64.53333333333333A5.226666666666667 5.226666666666667 0 0 0 7.893333333333333 96l64 39.68L70.72 170.66666666666666l20.05333333333333 23.36a5.333333333333333 5.333333333333333 0 0 1 -4.906666666666666 8.746666666666666l-47.14666666666666 -7.04v-28.906666666666666l-25.28 -15.146666666666665a5.333333333333333 5.333333333333333 0 0 0 -8.106666666666666 4.586666666666666v73.06666666666666a21.333333333333332 21.333333333333332 0 0 0 21.333333333333332 21.333333333333332h202.66666666666666a20.69333333333333 20.69333333333333 0 0 0 19.733333333333334 -26.666666666666664Zm-21.333333333333332 53.33333333333333a5.333333333333333 5.333333333333333 0 0 1 -5.333333333333333 5.333333333333333h-53.33333333333333a5.333333333333333 5.333333333333333 0 0 1 -5.333333333333333 -5.333333333333333v-21.333333333333332a5.333333333333333 5.333333333333333 0 0 1 5.333333333333333 -5.333333333333333h53.33333333333333a5.333333333333333 5.333333333333333 0 0 1 5.333333333333333 5.333333333333333Z" fill="#ffffff" stroke-width="10.6667"></path>
</svg>