<svg xmlns="http://www.w3.org/2000/svg" viewBox="0 0 256 256" id="Shipment--Streamline-Ultimate" height="256" width="256">
  <desc>
    Shipment Streamline Icon: https://streamlinehq.com
  </desc>
  <g id="Shipment--Streamline-Ultimate.svg">
    <path d="M235.51999999999998 230.61333333333334h-2.1333333333333333a2.6666666666666665 2.6666666666666665 0 0 1 -2.7733333333333334 -2.5599999999999996v-72.96a2.7733333333333334 2.7733333333333334 0 0 1 2.7733333333333334 -2.6666666666666665h2.1333333333333333a9.813333333333333 9.813333333333333 0 1 0 0 -19.52h-17.386666666666663a2.88 2.88 0 0 1 -1.5999999999999999 -0.5333333333333333l-53.33333333333333 -41.38666666666666A9.706666666666667 9.706666666666667 0 0 0 151.35999999999999 106.66666666666666l27.946666666666665 21.333333333333332a2.88 2.88 0 0 1 0.8533333333333333 2.986666666666667 2.7733333333333334 2.7733333333333334 0 0 1 -2.5599999999999996 1.8133333333333335h-99.2a2.7733333333333334 2.7733333333333334 0 0 1 -2.5599999999999996 -1.8133333333333335 2.88 2.88 0 0 1 0.8533333333333333 -2.986666666666667l27.946666666666665 -21.333333333333332a9.706666666666667 9.706666666666667 0 0 0 -11.946666666666667 -15.68l-53.33333333333333 41.38666666666666a2.88 2.88 0 0 1 -1.5999999999999999 0.5333333333333333H20.479999999999997a9.813333333333333 9.813333333333333 0 1 0 0 19.52h2.1333333333333333a2.7733333333333334 2.7733333333333334 0 0 1 2.7733333333333334 2.6666666666666665v72.96a2.6666666666666665 2.6666666666666665 0 0 1 -2.7733333333333334 2.5599999999999996h-2.1333333333333333a9.813333333333333 9.813333333333333 0 0 0 0 19.626666666666665h215.04a9.813333333333333 9.813333333333333 0 0 0 0 -19.626666666666665Zm-36.586666666666666 -64v48.85333333333333a7.359999999999999 7.359999999999999 0 0 1 -14.719999999999999 0v-48.32a7.359999999999999 7.359999999999999 0 1 1 14.719999999999999 0Zm-44.05333333333333 0v48.85333333333333a7.359999999999999 7.359999999999999 0 0 1 -7.359999999999999 7.359999999999999 7.253333333333334 7.253333333333334 0 0 1 -7.253333333333334 -7.359999999999999v-48.32a7.253333333333334 7.253333333333334 0 0 1 7.253333333333334 -7.359999999999999 7.359999999999999 7.359999999999999 0 0 1 7.359999999999999 7.359999999999999Zm-39.14666666666666 0v48.85333333333333a7.253333333333334 7.253333333333334 0 0 1 -7.253333333333334 7.359999999999999 7.359999999999999 7.359999999999999 0 0 1 -7.359999999999999 -7.359999999999999v-48.32a7.359999999999999 7.359999999999999 0 0 1 7.359999999999999 -7.359999999999999 7.253333333333334 7.253333333333334 0 0 1 7.253333333333334 7.359999999999999Zm-43.946666666666665 0v48.85333333333333a7.359999999999999 7.359999999999999 0 0 1 -14.719999999999999 0v-48.32a7.359999999999999 7.359999999999999 0 0 1 14.719999999999999 0Z" fill="#ffffff" stroke-width="10.6667"></path>
    <path d="M128 93.75999999999999a19.52 19.52 0 0 0 10.666666666666666 -35.626666666666665 2.7733333333333334 2.7733333333333334 0 0 1 -1.1733333333333333 -2.2399999999999998V15.573333333333332a9.813333333333333 9.813333333333333 0 0 0 -19.626666666666665 0v40.31999999999999a2.7733333333333334 2.7733333333333334 0 0 1 -1.1733333333333333 2.2399999999999998 19.52 19.52 0 0 0 10.666666666666666 35.626666666666665Z" fill="#ffffff" stroke-width="10.6667"></path>
  </g>
</svg>