<svg xmlns="http://www.w3.org/2000/svg" viewBox="0 0 256 256" id="Shipping-Logistic-Free-Shipping-Delivery-Truck--Streamline-Ultimate" height="256" width="256">
  <desc>
    Shipping Logistic Free Shipping Delivery Truck Streamline Icon: https://streamlinehq.com
  </desc>
  <g id="Shipping-Logistic-Free-Shipping-Delivery-Truck--Streamline-Ultimate.svg">
    <g>
      <path d="M129.27999999999997 87.46666666666665h-8.32v16.64h8.32a8.32 8.32 0 1 0 0 -16.64Z" fill="#ffffff" stroke-width="10.6667"></path>
      <path d="M231.25333333333333 27.093333333333334H80.53333333333333A28.373333333333335 28.373333333333335 0 0 0 55.46666666666667 49.38666666666666L35.946666666666665 115.2s-14.719999999999999 4.053333333333333 -23.57333333333333 7.253333333333334a20.05333333333333 20.05333333333333 0 0 0 -9.92 18.56v55.04a10.666666666666666 10.666666666666666 0 0 0 11.2 11.2h5.866666666666667a32.85333333333333 32.85333333333333 0 0 1 0 -5.653333333333333 37.97333333333333 37.97333333333333 0 0 1 75.94666666666666 0 41.38666666666666 41.38666666666666 0 0 1 -1.5999999999999999 10.666666666666666h69.12a41.38666666666666 41.38666666666666 0 0 1 -1.5999999999999999 -10.666666666666666 37.97333333333333 37.97333333333333 0 0 1 75.94666666666666 0 32.85333333333333 32.85333333333333 0 0 1 0 5.653333333333333h5.866666666666667a10.666666666666666 10.666666666666666 0 0 0 11.2 -11.2V49.38666666666666a22.29333333333333 22.29333333333333 0 0 0 -23.146666666666665 -22.29333333333333ZM86.93333333333334 109.54666666666665a5.333333333333333 5.333333333333333 0 0 1 5.333333333333333 5.333333333333333 5.333333333333333 5.333333333333333 0 0 1 -5.333333333333333 5.333333333333333H73.17333333333333v21.973333333333333a5.333333333333333 5.333333333333333 0 0 1 -5.333333333333333 5.333333333333333 5.333333333333333 5.333333333333333 0 0 1 -5.333333333333333 -5.333333333333333V82.13333333333333a5.4399999999999995 5.4399999999999995 0 0 1 5.333333333333333 -5.333333333333333h19.093333333333334a5.333333333333333 5.333333333333333 0 0 1 5.333333333333333 5.333333333333333 5.333333333333333 5.333333333333333 0 0 1 -5.333333333333333 5.333333333333333H73.17333333333333v22.08Zm61.33333333333333 21.333333333333332v10.666666666666666a5.333333333333333 5.333333333333333 0 0 1 -5.333333333333333 5.333333333333333 5.333333333333333 5.333333333333333 0 0 1 -5.333333333333333 -5.333333333333333v-10.666666666666666a16.64 16.64 0 0 0 -16.53333333333333 -16.53333333333333v27.41333333333333a5.333333333333333 5.333333333333333 0 1 1 -10.666666666666666 0V82.13333333333333a5.333333333333333 5.333333333333333 0 0 1 5.333333333333333 -5.333333333333333h13.653333333333332a18.986666666666665 18.986666666666665 0 0 1 10.666666666666666 34.773333333333326 27.199999999999996 27.199999999999996 0 0 1 8.213333333333333 19.733333333333334Zm40.31999999999999 -21.333333333333332a5.333333333333333 5.333333333333333 0 0 1 5.333333333333333 5.333333333333333 5.333333333333333 5.333333333333333 0 0 1 -5.333333333333333 5.333333333333333h-13.76v16.64h13.76a5.333333333333333 5.333333333333333 0 0 1 5.333333333333333 5.333333333333333 5.333333333333333 5.333333333333333 0 0 1 -5.333333333333333 5.333333333333333h-19.093333333333334a5.333333333333333 5.333333333333333 0 0 1 -5.333333333333333 -5.333333333333333V82.13333333333333a5.4399999999999995 5.4399999999999995 0 0 1 5.333333333333333 -5.333333333333333h19.093333333333334a5.333333333333333 5.333333333333333 0 0 1 5.333333333333333 5.333333333333333 5.333333333333333 5.333333333333333 0 0 1 -5.333333333333333 5.333333333333333h-13.76v22.08Zm45.76 0a5.4399999999999995 5.4399999999999995 0 0 1 5.333333333333333 5.333333333333333 5.333333333333333 5.333333333333333 0 0 1 -5.333333333333333 5.333333333333333h-13.76v16.64H234.66666666666666a5.4399999999999995 5.4399999999999995 0 0 1 5.333333333333333 5.333333333333333 5.333333333333333 5.333333333333333 0 0 1 -5.333333333333333 5.333333333333333h-19.413333333333334a5.333333333333333 5.333333333333333 0 0 1 -5.333333333333333 -5.333333333333333V82.13333333333333a5.333333333333333 5.333333333333333 0 0 1 5.333333333333333 -5.333333333333333H234.66666666666666a5.4399999999999995 5.4399999999999995 0 0 1 5.333333333333333 5.333333333333333 5.333333333333333 5.333333333333333 0 0 1 -5.333333333333333 5.333333333333333h-14.08v22.08Z" fill="#ffffff" stroke-width="10.6667"></path>
    </g>
    <path d="M29.759999999999998 201.59999999999997a27.306666666666665 27.306666666666665 0 1 0 54.61333333333333 0 27.306666666666665 27.306666666666665 0 1 0 -54.61333333333333 0" fill="#ffffff" stroke-width="10.6667"></path>
    <path d="M171.62666666666667 201.59999999999997a27.306666666666665 27.306666666666665 0 1 0 54.61333333333333 0 27.306666666666665 27.306666666666665 0 1 0 -54.61333333333333 0" fill="#ffffff" stroke-width="10.6667"></path>
  </g>
</svg>