<svg xmlns="http://www.w3.org/2000/svg" viewBox="0 0 256 256" id="Shipment-Crack--Streamline-Ultimate" height="256" width="256">
  <desc>
    Shipment Crack Streamline Icon: https://streamlinehq.com
  </desc>
  <path d="M208 90.13333333333333s0.5333333333333333 3.84 -10.133333333333333 -80.74666666666667a10.666666666666666 10.666666666666666 0 0 0 -10.666666666666666 -9.386666666666667h-25.92a5.013333333333333 5.013333333333333 0 0 0 -3.733333333333333 1.5999999999999999l-31.253333333333334 31.146666666666665a2.7733333333333334 2.7733333333333334 0 0 0 -0.5333333333333333 2.986666666666667 2.6666666666666665 2.6666666666666665 0 0 0 2.2399999999999998 1.5999999999999999h8.213333333333333a16 16 0 0 1 11.306666666666667 27.306666666666665l-43.946666666666665 44.266666666666666a10.666666666666666 10.666666666666666 0 0 1 -7.573333333333332 3.093333333333333 10.666666666666666 10.666666666666666 0 0 1 -7.573333333333332 -3.093333333333333 10.666666666666666 10.666666666666666 0 0 1 0 -15.146666666666665l30.613333333333333 -30.506666666666664a2.986666666666667 2.986666666666667 0 0 0 0.6399999999999999 -2.986666666666667 2.7733333333333334 2.7733333333333334 0 0 0 -2.3466666666666667 -1.5999999999999999h-8.213333333333333a16 16 0 0 1 -11.52 -27.306666666666665L124.37333333333333 4.586666666666666a2.986666666666667 2.986666666666667 0 0 0 0.6399999999999999 -2.986666666666667 2.7733333333333334 2.7733333333333334 0 0 0 -2.5599999999999996 -1.5999999999999999h-53.33333333333333a10.666666666666666 10.666666666666666 0 0 0 -10.666666666666666 9.386666666666667c-10.666666666666666 85.33333333333333 -10.666666666666666 81.17333333333333 -10.666666666666666 81.49333333333333a80.10666666666665 80.10666666666665 0 0 0 62.50666666666667 77.75999999999999 5.226666666666667 5.226666666666667 0 0 1 4.16 5.226666666666667V224a5.333333333333333 5.333333333333333 0 0 1 -5.333333333333333 5.333333333333333H85.33333333333333A13.333333333333332 13.333333333333332 0 0 0 85.33333333333333 256h85.33333333333333a13.333333333333332 13.333333333333332 0 0 0 0 -26.666666666666664h-24a5.333333333333333 5.333333333333333 0 0 1 -5.333333333333333 -5.333333333333333v-50.13333333333333a5.226666666666667 5.226666666666667 0 0 1 4.16 -5.226666666666667 80.32 80.32 0 0 0 62.50666666666667 -78.50666666666666Z" fill="#ffffff" stroke-width="10.6667"></path>
</svg>