<svg xmlns="http://www.w3.org/2000/svg" viewBox="0 0 256 256" id="Shipment-Touch--Streamline-Ultimate" height="256" width="256">
  <desc>
    Shipment Touch Streamline Icon: https://streamlinehq.com
  </desc>
  <g id="Shipment-Touch--Streamline-Ultimate.svg">
    <path d="M115.52 109.75999999999999a32 32 0 0 1 30.826666666666668 23.786666666666665 2.6666666666666665 2.6666666666666665 0 0 0 2.5599999999999996 1.92h30.613333333333333a10.666666666666666 10.666666666666666 0 0 0 10.666666666666666 -10.666666666666666v-106.66666666666666a10.666666666666666 10.666666666666666 0 0 0 -10.666666666666666 -10.666666666666666h-29.333333333333332a2.6666666666666665 2.6666666666666665 0 0 0 -2.6666666666666665 2.6666666666666665V55.46666666666667a5.4399999999999995 5.4399999999999995 0 0 1 -3.093333333333333 4.906666666666666 5.4399999999999995 5.4399999999999995 0 0 1 -5.76 -0.8533333333333333l-16.106666666666666 -13.866666666666667a2.7733333333333334 2.7733333333333334 0 0 0 -3.52 0l-16.106666666666666 13.866666666666667a5.226666666666667 5.226666666666667 0 0 1 -5.653333333333333 0.8533333333333333 5.333333333333333 5.333333333333333 0 0 1 -3.093333333333333 -4.906666666666666V10.666666666666666a2.7733333333333334 2.7733333333333334 0 0 0 -2.6666666666666665 -3.1999999999999997H62.18666666666667a10.666666666666666 10.666666666666666 0 0 0 -10.666666666666666 10.666666666666666v106.66666666666666a10.666666666666666 10.666666666666666 0 0 0 10.666666666666666 10.666666666666666h19.84a2.6666666666666665 2.6666666666666665 0 0 0 2.5599999999999996 -1.92 32 32 0 0 1 30.93333333333333 -23.786666666666665Z" fill="#ffffff" stroke-width="10.6667"></path>
    <path d="M99.52 218.24a2.7733333333333334 2.7733333333333334 0 0 1 -1.8133333333333335 2.453333333333333 2.5599999999999996 2.5599999999999996 0 0 1 -2.88 -0.7466666666666667l-16.64 -18.986666666666665A16 16 0 0 0 53.33333333333333 221.33333333333331l23.786666666666665 26.133333333333333a2.6666666666666665 2.6666666666666665 0 0 0 2.0266666666666664 0.96h124.37333333333333a2.7733333333333334 2.7733333333333334 0 0 0 2.6666666666666665 -2.6666666666666665v-13.333333333333332a42.666666666666664 42.666666666666664 0 0 0 -42.666666666666664 -42.666666666666664h-29.333333333333332a2.6666666666666665 2.6666666666666665 0 0 1 -2.6666666666666665 -2.6666666666666665v-45.33333333333333a16 16 0 0 0 -32 0Z" fill="#ffffff" stroke-width="10.6667"></path>
  </g>
</svg>