<svg xmlns="http://www.w3.org/2000/svg" viewBox="0 0 256 256" id="Shipment-Star--Streamline-Ultimate" height="256" width="256">
  <desc>
    Shipment Star Streamline Icon: https://streamlinehq.com
  </desc>
  <g id="Shipment-Star--Streamline-Ultimate.svg">
    <path d="M90.56 149.33333333333331a34.56 34.56 0 0 1 32 -21.333333333333332h12.906666666666666a2.6666666666666665 2.6666666666666665 0 0 0 2.453333333333333 -1.5999999999999999l8.746666666666666 -20.37333333333333 0.5333333333333333 -1.1733333333333333a35.733333333333334 35.733333333333334 0 0 1 19.093333333333334 -17.173333333333332 2.6666666666666665 2.6666666666666665 0 0 0 1.7066666666666666 -2.3466666666666667V69.33333333333333a2.6666666666666665 2.6666666666666665 0 0 0 -2.6666666666666665 -2.6666666666666665H10.666666666666666a2.6666666666666665 2.6666666666666665 0 0 0 -2.6666666666666665 2.6666666666666665v96a16 16 0 0 0 16 16h65.38666666666666a2.5599999999999996 2.5599999999999996 0 0 0 2.2399999999999998 -1.2799999999999998 2.453333333333333 2.453333333333333 0 0 0 0 -2.5599999999999996 34.13333333333333 34.13333333333333 0 0 1 -1.0666666666666667 -28.16Z" fill="#ffffff" stroke-width="10.6667"></path>
    <path d="M96 48a2.6666666666666665 2.6666666666666665 0 0 0 2.6666666666666665 2.6666666666666665h57.06666666666666a2.5599999999999996 2.5599999999999996 0 0 0 2.453333333333333 -1.7066666666666666 2.6666666666666665 2.6666666666666665 0 0 0 -0.5333333333333333 -2.88L126.93333333333334 15.36A16.21333333333333 16.21333333333333 0 0 0 115.62666666666667 10.666666666666666H98.66666666666666a2.6666666666666665 2.6666666666666665 0 0 0 -2.6666666666666665 2.6666666666666665Z" fill="#ffffff" stroke-width="10.6667"></path>
    <path d="M77.33333333333333 50.666666666666664a2.6666666666666665 2.6666666666666665 0 0 0 2.6666666666666665 -2.6666666666666665V13.333333333333332A2.6666666666666665 2.6666666666666665 0 0 0 77.33333333333333 10.666666666666666H60.373333333333335a16.21333333333333 16.21333333333333 0 0 0 -11.306666666666667 4.693333333333333L18.346666666666664 46.08a2.6666666666666665 2.6666666666666665 0 0 0 -0.5333333333333333 2.88 2.453333333333333 2.453333333333333 0 0 0 2.453333333333333 1.7066666666666666Z" fill="#ffffff" stroke-width="10.6667"></path>
    <path d="M213.33333333333331 243.51999999999998a13.546666666666667 13.546666666666667 0 0 0 16 -1.8133333333333335 13.226666666666667 13.226666666666667 0 0 0 3.413333333333333 -15.466666666666665l-13.226666666666667 -29.973333333333333a2.7733333333333334 2.7733333333333334 0 0 1 0.7466666666666667 -3.093333333333333l23.46666666666667 -21.333333333333332a13.44 13.44 0 0 0 3.093333333333333 -14.613333333333333A13.12 13.12 0 0 0 234.66666666666666 149.33333333333331h-26.666666666666664a2.6666666666666665 2.6666666666666665 0 0 1 -2.453333333333333 -1.5999999999999999l-14.293333333333333 -33.28a13.76 13.76 0 0 0 -24.64 0l-14.293333333333333 33.17333333333333A2.6666666666666665 2.6666666666666665 0 0 1 149.33333333333331 149.33333333333331h-26.666666666666664a13.226666666666667 13.226666666666667 0 0 0 -12.479999999999999 8.106666666666666 13.653333333333332 13.653333333333332 0 0 0 3.413333333333333 14.826666666666664l23.36 20.799999999999997a2.7733333333333334 2.7733333333333334 0 0 1 0.6399999999999999 3.093333333333333l-12.799999999999999 30.08a13.44 13.44 0 0 0 3.1999999999999997 15.466666666666665 13.653333333333332 13.653333333333332 0 0 0 9.28 3.626666666666667 14.826666666666664 14.826666666666664 0 0 0 6.826666666666666 -1.8133333333333335l33.17333333333333 -18.666666666666664a2.2399999999999998 2.2399999999999998 0 0 1 2.5599999999999996 0Z" fill="#ffffff" stroke-width="10.6667"></path>
  </g>
</svg>