<svg xmlns="http://www.w3.org/2000/svg" viewBox="0 0 256 256" id="Shipment-Search--Streamline-Ultimate" height="256" width="256">
  <desc>
    Shipment Search Streamline Icon: https://streamlinehq.com
  </desc>
  <g id="Shipment-Search--Streamline-Ultimate.svg">
    <path d="M96 42.666666666666664a2.6666666666666665 2.6666666666666665 0 0 0 2.6666666666666665 2.6666666666666665h57.06666666666666a2.5599999999999996 2.5599999999999996 0 0 0 2.453333333333333 -1.5999999999999999 2.7733333333333334 2.7733333333333334 0 0 0 -0.5333333333333333 -2.986666666666667L126.93333333333334 10.026666666666666A16.21333333333333 16.21333333333333 0 0 0 115.52 5.333333333333333H98.66666666666666A2.6666666666666665 2.6666666666666665 0 0 0 96 8Z" fill="#ffffff" stroke-width="10.6667"></path>
    <path d="M165.44 96a2.6666666666666665 2.6666666666666665 0 0 0 2.5599999999999996 -2.6666666666666665V64a2.6666666666666665 2.6666666666666665 0 0 0 -2.6666666666666665 -2.6666666666666665H10.666666666666666A2.6666666666666665 2.6666666666666665 0 0 0 8 64v96a16 16 0 0 0 16 16h66.77333333333333a2.6666666666666665 2.6666666666666665 0 0 0 1.92 -0.8533333333333333 2.7733333333333334 2.7733333333333334 0 0 0 0.7466666666666667 -1.92 20.586666666666666 20.586666666666666 0 0 1 0 -2.5599999999999996 74.66666666666666 74.66666666666666 0 0 1 72 -74.66666666666666Z" fill="#ffffff" stroke-width="10.6667"></path>
    <path d="M77.33333333333333 45.33333333333333A2.6666666666666665 2.6666666666666665 0 0 0 80 42.666666666666664V8A2.6666666666666665 2.6666666666666665 0 0 0 77.33333333333333 5.333333333333333H60.373333333333335A16.21333333333333 16.21333333333333 0 0 0 49.06666666666666 10.026666666666666L18.346666666666664 40.74666666666666a2.986666666666667 2.986666666666667 0 0 0 -0.6399999999999999 2.986666666666667 2.7733333333333334 2.7733333333333334 0 0 0 2.5599999999999996 1.5999999999999999Z" fill="#ffffff" stroke-width="10.6667"></path>
    <path d="M217.81333333333333 205.44a2.7733333333333334 2.7733333333333334 0 0 1 0 -3.3066666666666666 58.666666666666664 58.666666666666664 0 1 0 -18.026666666666664 18.026666666666664 2.7733333333333334 2.7733333333333334 0 0 1 3.3066666666666666 0l26.986666666666665 27.093333333333334a10.666666666666666 10.666666666666666 0 0 0 15.146666666666665 0 10.666666666666666 10.666666666666666 0 0 0 0 -15.146666666666665ZM130.66666666666666 170.66666666666666a37.33333333333333 37.33333333333333 0 1 1 37.33333333333333 37.33333333333333 37.33333333333333 37.33333333333333 0 0 1 -37.33333333333333 -37.33333333333333Z" fill="#ffffff" stroke-width="10.6667"></path>
  </g>
</svg>