<svg xmlns="http://www.w3.org/2000/svg" viewBox="0 0 256 256" id="Shipment-Barcode--Streamline-Ultimate" height="256" width="256">
  <desc>
    Shipment Barcode Streamline Icon: https://streamlinehq.com
  </desc>
  <path d="M240 5.333333333333333H170.66666666666666a5.333333333333333 5.333333333333333 0 0 0 -5.333333333333333 5.333333333333333v69.44a5.546666666666667 5.546666666666667 0 0 1 -2.6666666666666665 4.693333333333333 5.866666666666667 5.866666666666667 0 0 1 -5.333333333333333 0l-26.77333333333333 -14.186666666666667a5.76 5.76 0 0 0 -5.119999999999999 0L98.56 85.33333333333333l-1.92 0.6399999999999999A5.546666666666667 5.546666666666667 0 0 1 93.22666666666666 85.33333333333333a5.333333333333333 5.333333333333333 0 0 1 -2.5599999999999996 -4.586666666666666V10.666666666666666A5.333333333333333 5.333333333333333 0 0 0 85.33333333333333 5.333333333333333H16a10.666666666666666 10.666666666666666 0 0 0 -10.666666666666666 10.666666666666666v224a10.666666666666666 10.666666666666666 0 0 0 10.666666666666666 10.666666666666666h224a10.666666666666666 10.666666666666666 0 0 0 10.666666666666666 -10.666666666666666v-224a10.666666666666666 10.666666666666666 0 0 0 -10.666666666666666 -10.666666666666666Zm-130.66666666666666 202.66666666666666a8 8 0 0 1 -16 0V149.33333333333331a8 8 0 0 1 16 0Zm37.33333333333333 0a8 8 0 0 1 -16 0v-10.666666666666666a8 8 0 0 1 16 0Zm0 -37.12a8 8 0 0 1 -16 0V149.33333333333331a8 8 0 0 1 16 0Zm37.33333333333333 37.12a8 8 0 0 1 -16 0V149.33333333333331a8 8 0 0 1 16 0Zm37.33333333333333 0a8 8 0 1 1 -16 0v-10.666666666666666a8 8 0 0 1 16 0Zm0 -37.12a8 8 0 0 1 -16 0V149.33333333333331a8 8 0 0 1 16 0Z" fill="#ffffff" stroke-width="10.6667"></path>
</svg>