<svg xmlns="http://www.w3.org/2000/svg" viewBox="0 0 256 256" id="Shooting-Rifle-Person-Aim--Streamline-Ultimate" height="256" width="256">
  <desc>
    Shooting Rifle Person Aim Streamline Icon: https://streamlinehq.com
  </desc>
  <g id="Shooting-Rifle-Person-Aim--Streamline-Ultimate.svg">
    <path d="M146.02666666666664 87.68a15.893333333333333 15.893333333333333 0 0 0 8.213333333333333 -2.3466666666666667l17.706666666666663 -10.666666666666666a2.7733333333333334 2.7733333333333334 0 0 0 1.2799999999999998 -1.92 2.6666666666666665 2.6666666666666665 0 0 0 -0.7466666666666667 -2.1333333333333333l-28.373333333333335 -29.866666666666664a10.666666666666666 10.666666666666666 0 0 0 -7.786666666666666 -3.413333333333333H26.666666666666664V32a10.666666666666666 10.666666666666666 0 0 0 -21.333333333333332 0v16a10.666666666666666 10.666666666666666 0 0 0 10.666666666666666 10.666666666666666h28.906666666666666a15.893333333333333 15.893333333333333 0 0 0 13.76 8l66.24 0 9.066666666666666 16.21333333333333c7.1466666666666665 5.013333333333333 9.386666666666667 4.8 12.053333333333331 4.8Z" fill="#ffffff" stroke-width="10.6667"></path>
    <path d="M104 26.666666666666664h42.666666666666664a10.666666666666666 10.666666666666666 0 0 0 0 -21.333333333333332h-42.666666666666664a10.666666666666666 10.666666666666666 0 0 0 0 21.333333333333332Z" fill="#ffffff" stroke-width="10.6667"></path>
    <path d="M173.33333333333331 32a26.666666666666664 26.666666666666664 0 1 0 53.33333333333333 0 26.666666666666664 26.666666666666664 0 1 0 -53.33333333333333 0" fill="#ffffff" stroke-width="10.6667"></path>
    <path d="M249.17333333333332 227.94666666666666 213.33333333333331 151.14666666666665V90.66666666666666a16 16 0 0 0 -24.21333333333333 -13.76L160 94.50666666666666a26.666666666666664 26.666666666666664 0 0 1 -29.226666666666667 -1.0666666666666667l-14.613333333333333 -10.666666666666666a16 16 0 1 0 -18.56 26.026666666666664l14.506666666666668 10.666666666666666a58.879999999999995 58.879999999999995 0 0 0 64 2.5599999999999996l5.119999999999999 -3.093333333333333v32l-35.839999999999996 76.8a15.893333333333333 15.893333333333333 0 0 0 7.68 21.333333333333332 16.106666666666666 16.106666666666666 0 0 0 21.333333333333332 -7.68l20.37333333333333 -43.84a2.7733333333333334 2.7733333333333334 0 0 1 4.906666666666666 0l20.37333333333333 43.84a16 16 0 0 0 29.013333333333335 -13.546666666666667Z" fill="#ffffff" stroke-width="10.6667"></path>
  </g>
</svg>