<svg xmlns="http://www.w3.org/2000/svg" viewBox="0 0 256 256" id="Shopping-Cart-Full--Streamline-Ultimate" height="256" width="256">
  <desc>
    Shopping Cart Full Streamline Icon: https://streamlinehq.com
  </desc>
  <g id="Shopping-Cart-Full--Streamline-Ultimate.svg">
    <path d="M245.33333333333331 22.72h-27.733333333333334a15.893333333333333 15.893333333333333 0 0 0 -15.573333333333332 12.266666666666666l-11.946666666666667 49.6a2.7733333333333334 2.7733333333333334 0 0 1 -2.6666666666666665 2.1333333333333333H11.626666666666667a10.666666666666666 10.666666666666666 0 0 0 -8.64 4.373333333333333 10.666666666666666 10.666666666666666 0 0 0 -1.4933333333333334 9.6l28.479999999999997 85.33333333333333a10.666666666666666 10.666666666666666 0 0 0 10.133333333333333 7.359999999999999H161.06666666666666a2.6666666666666665 2.6666666666666665 0 0 1 2.1333333333333333 0.96 2.7733333333333334 2.7733333333333334 0 0 1 0 2.2399999999999998l-1.1733333333333333 5.333333333333333a2.7733333333333334 2.7733333333333334 0 0 1 -2.6666666666666665 2.1333333333333333H52.48a24 24 0 1 0 24.53333333333333 24 2.6666666666666665 2.6666666666666665 0 0 1 0.8533333333333333 -1.92 2.3466666666666667 2.3466666666666667 0 0 1 1.8133333333333335 -0.7466666666666667h64a2.6666666666666665 2.6666666666666665 0 0 1 2.6666666666666665 2.6666666666666665 24 24 0 1 0 38.08 -19.52 2.3466666666666667 2.3466666666666667 0 0 1 -0.96 -2.6666666666666665l37.54666666666667 -160a2.7733333333333334 2.7733333333333334 0 0 1 2.986666666666667 -1.8133333333333335h21.333333333333332a10.666666666666666 10.666666666666666 0 0 0 0 -21.333333333333332Z" fill="#ffffff" stroke-width="10.6667"></path>
    <path d="M104.53333333333333 76.05333333333333h56.42666666666666a10.666666666666666 10.666666666666666 0 0 0 9.706666666666667 -5.973333333333334 10.666666666666666 10.666666666666666 0 0 0 -0.96 -11.2L148.58666666666664 32l-0.96 -1.1733333333333333a17.28 17.28 0 0 0 -24.426666666666666 0L96.85333333333332 57.919999999999995a10.666666666666666 10.666666666666666 0 0 0 7.68 18.133333333333333Z" fill="#ffffff" stroke-width="10.6667"></path>
    <path d="M14.933333333333332 69.65333333333334a10.666666666666666 10.666666666666666 0 0 0 9.813333333333333 6.3999999999999995h45.97333333333333a10.666666666666666 10.666666666666666 0 0 0 8.853333333333332 -4.906666666666666 10.666666666666666 10.666666666666666 0 0 0 0.8533333333333333 -10.666666666666666l-21.333333333333332 -47.14666666666666a17.066666666666666 17.066666666666666 0 0 0 -10.666666666666666 -9.173333333333332 18.453333333333333 18.453333333333333 0 0 0 -13.12 1.7066666666666666L10.666666666666666 17.173333333333332a17.813333333333333 17.813333333333333 0 0 0 -8.959999999999999 23.04Z" fill="#ffffff" stroke-width="10.6667"></path>
  </g>
</svg>