<svg xmlns="http://www.w3.org/2000/svg" viewBox="0 0 256 256" id="Shopping-Cart-Upload--Streamline-Ultimate" height="256" width="256">
  <desc>
    Shopping Cart Upload Streamline Icon: https://streamlinehq.com
  </desc>
  <g id="Shopping-Cart-Upload--Streamline-Ultimate.svg">
    <path d="M133.6533333333333 232.42666666666665a21.333333333333332 21.333333333333332 0 1 0 42.666666666666664 0 21.333333333333332 21.333333333333332 0 1 0 -42.666666666666664 0" fill="#ffffff" stroke-width="10.6667"></path>
    <path d="M26.986666666666665 232.42666666666665a21.333333333333332 21.333333333333332 0 1 0 42.666666666666664 0 21.333333333333332 21.333333333333332 0 1 0 -42.666666666666664 0" fill="#ffffff" stroke-width="10.6667"></path>
    <path d="M239.67999999999998 10.666666666666666h-32.64a18.773333333333333 18.773333333333333 0 0 0 -18.56 16.21333333333333l-18.88 141.86666666666667a2.5599999999999996 2.5599999999999996 0 0 1 -2.5599999999999996 2.3466666666666667H16.32a13.333333333333332 13.333333333333332 0 0 0 0 26.666666666666664h160A18.773333333333333 18.773333333333333 0 0 0 194.88 181.33333333333331L213.33333333333331 40.10666666666666a2.7733333333333334 2.7733333333333334 0 0 1 2.6666666666666665 -2.3466666666666667h23.36a13.333333333333332 13.333333333333332 0 0 0 0 -26.666666666666664Z" fill="#ffffff" stroke-width="10.6667"></path>
    <path d="m36.48 78.72 25.92 -26.24a2.7733333333333334 2.7733333333333334 0 0 1 2.986666666666667 0 2.6666666666666665 2.6666666666666665 0 0 1 1.5999999999999999 2.453333333333333v68.69333333333333a13.333333333333332 13.333333333333332 0 0 0 26.666666666666664 0V54.39999999999999a2.7733333333333334 2.7733333333333334 0 0 1 4.586666666666666 -1.92l25.92 26.24a13.333333333333332 13.333333333333332 0 1 0 18.986666666666665 -18.773333333333333l-53.33333333333333 -53.33333333333333a13.333333333333332 13.333333333333332 0 0 0 -9.493333333333332 -4.373333333333333 13.013333333333332 13.013333333333332 0 0 0 -9.386666666666667 3.9466666666666663l-53.33333333333333 53.33333333333333a13.333333333333332 13.333333333333332 0 0 0 18.88 19.2Z" fill="#ffffff" stroke-width="10.6667"></path>
  </g>
</svg>