<svg xmlns="http://www.w3.org/2000/svg" viewBox="0 0 256 256" id="Shopping-Broadcast-Advertising-Monitor-Megaphone--Streamline-Ultimate" height="256" width="256">
  <desc>
    Shopping Broadcast Advertising Monitor Megaphone Streamline Icon: https://streamlinehq.com
  </desc>
  <g id="Shopping-Broadcast-Advertising-Monitor-Megaphone--Streamline-Ultimate.svg">
    <path d="M256 27.626666666666665A27.199999999999996 27.199999999999996 0 0 0 229.33333333333331 0h-202.66666666666666A27.199999999999996 27.199999999999996 0 0 0 0 27.626666666666665V176a32 32 0 0 0 32 32h77.33333333333333a2.6666666666666665 2.6666666666666665 0 0 1 2.6666666666666665 2.6666666666666665v21.333333333333332a2.6666666666666665 2.6666666666666665 0 0 1 -2.6666666666666665 2.6666666666666665H53.33333333333333a10.666666666666666 10.666666666666666 0 0 0 0 21.333333333333332h149.33333333333331a10.666666666666666 10.666666666666666 0 0 0 0 -21.333333333333332h-66.66666666666666a2.6666666666666665 2.6666666666666665 0 0 1 -2.6666666666666665 -2.6666666666666665v-21.333333333333332a2.6666666666666665 2.6666666666666665 0 0 1 2.6666666666666665 -2.6666666666666665H224a32 32 0 0 0 32 -32ZM26.666666666666664 160a5.333333333333333 5.333333333333333 0 0 1 -5.333333333333333 -5.333333333333333V27.626666666666665A5.866666666666667 5.866666666666667 0 0 1 26.666666666666664 21.333333333333332h202.66666666666666a5.866666666666667 5.866666666666667 0 0 1 5.333333333333333 6.293333333333333V154.66666666666666a5.333333333333333 5.333333333333333 0 0 1 -5.333333333333333 5.333333333333333Z" fill="#ffffff" stroke-width="10.6667"></path>
    <path d="M89.17333333333332 87.68a19.84 19.84 0 0 0 9.493333333333332 37.22666666666667 19.2 19.2 0 0 0 9.28 -2.453333333333333l1.4933333333333334 -0.7466666666666667 0 0.5333333333333333a32 32 0 0 0 27.093333333333334 21.333333333333332h1.1733333333333333a8.533333333333333 8.533333333333333 0 0 0 1.0666666666666667 -16.96 14.933333333333332 14.933333333333332 0 0 1 -12.586666666666666 -9.28 9.28 9.28 0 0 0 -1.4933333333333334 -2.88 115.83999999999999 115.83999999999999 0 0 1 47.36 -10.666666666666666 6.826666666666666 6.826666666666666 0 0 0 5.653333333333333 -10.026666666666666l-25.813333333333333 -48a6.826666666666666 6.826666666666666 0 0 0 -11.413333333333334 -0.8533333333333333A124.58666666666666 124.58666666666666 0 0 1 95.03999999999999 84.26666666666667Z" fill="#ffffff" stroke-width="10.6667"></path>
  </g>
</svg>