<svg xmlns="http://www.w3.org/2000/svg" viewBox="0 0 256 256" id="Shop-Like--Streamline-Ultimate" height="256" width="256">
  <desc>
    Shop Like Streamline Icon: https://streamlinehq.com
  </desc>
  <g id="Shop-Like--Streamline-Ultimate.svg">
    <path d="M109.44 170.66666666666666H83.52a2.453333333333333 2.453333333333333 0 0 1 -2.0266666666666664 -1.0666666666666667 2.2399999999999998 2.2399999999999998 0 0 1 0 -2.1333333333333333L85.33333333333333 149.33333333333331a16.96 16.96 0 0 0 -3.1999999999999997 -15.04 17.706666666666663 17.706666666666663 0 0 0 -27.199999999999996 0.8533333333333333l-25.493333333333332 36.48a2.7733333333333334 2.7733333333333334 0 0 1 -2.1333333333333333 1.0666666666666667H8a8.106666666666666 8.106666666666666 0 0 0 -8 8v48a8.106666666666666 8.106666666666666 0 0 0 4.373333333333333 7.1466666666666665l6.293333333333333 3.1999999999999997C39.89333333333333 253.76 47.46666666666667 256 64 256h7.573333333333332l13.226666666666667 0c16 0 26.986666666666665 -9.386666666666667 32.74666666666666 -28.05333333333333 8.106666666666666 -27.093333333333334 10.026666666666666 -33.38666666666666 10.133333333333333 -33.599999999999994A18.56 18.56 0 0 0 109.44 170.66666666666666Z" fill="#ffffff" stroke-width="10.6667"></path>
    <path d="M254.29333333333332 54.50666666666667 237.44 10.666666666666666a16.21333333333333 16.21333333333333 0 0 0 -15.04 -10.666666666666666H45.120000000000005a16 16 0 0 0 -14.933333333333332 10.666666666666666L13.333333333333332 54.50666666666667a27.093333333333334 27.093333333333334 0 0 0 0 18.56 34.879999999999995 34.879999999999995 0 0 0 12.693333333333332 16.746666666666666 2.6666666666666665 2.6666666666666665 0 0 1 1.0666666666666667 2.1333333333333333V117.33333333333333a10.666666666666666 10.666666666666666 0 0 0 21.333333333333332 0V98.24000000000001A2.6666666666666665 2.6666666666666665 0 0 1 50.773333333333326 96a34.879999999999995 34.879999999999995 0 0 0 22.29333333333333 -13.226666666666667 2.5599999999999996 2.5599999999999996 0 0 1 1.5999999999999999 -1.0666666666666667 2.7733333333333334 2.7733333333333334 0 0 1 2.1333333333333333 1.0666666666666667 34.666666666666664 34.666666666666664 0 0 0 54.50666666666667 0 2.5599999999999996 2.5599999999999996 0 0 1 2.0266666666666664 -1.0666666666666667 2.7733333333333334 2.7733333333333334 0 0 1 2.1333333333333333 1.0666666666666667 34.666666666666664 34.666666666666664 0 0 0 54.50666666666667 0 2.5599999999999996 2.5599999999999996 0 0 1 2.0266666666666664 -1.0666666666666667 2.7733333333333334 2.7733333333333334 0 0 1 2.1333333333333333 1.0666666666666667A34.879999999999995 34.879999999999995 0 0 0 221.76 96a2.5599999999999996 2.5599999999999996 0 0 1 2.5599999999999996 2.5599999999999996l0 106.66666666666666a2.6666666666666665 2.6666666666666665 0 0 1 -2.6666666666666665 2.6666666666666665h-13.76a2.6666666666666665 2.6666666666666665 0 0 1 -2.6666666666666665 -2.6666666666666665V144a10.666666666666666 10.666666666666666 0 0 0 -10.666666666666666 -10.666666666666666h-32a10.666666666666666 10.666666666666666 0 0 0 -10.666666666666666 10.666666666666666v61.33333333333333a2.6666666666666665 2.6666666666666665 0 0 1 -2.6666666666666665 2.6666666666666665 10.666666666666666 10.666666666666666 0 0 0 0 21.333333333333332h85.33333333333333a10.666666666666666 10.666666666666666 0 0 0 10.666666666666666 -10.666666666666666L245.33333333333331 87.57333333333334a2.7733333333333334 2.7733333333333334 0 0 1 1.0666666666666667 -2.2399999999999998 34.239999999999995 34.239999999999995 0 0 0 8 -12.693333333333332 27.093333333333334 27.093333333333334 0 0 0 -0.10666666666666666 -18.133333333333333Z" fill="#ffffff" stroke-width="10.6667"></path>
  </g>
</svg>