<svg xmlns="http://www.w3.org/2000/svg" id="Shopping-Basket-1--Streamline-Ultimate" width="256" height="256" viewBox="0 0 256 256"><desc>Shopping Basket 1 Streamline Icon: https://streamlinehq.com</desc><g id="Shopping-Basket-1--Streamline-Ultimate.svg"><path fill="#fff" stroke-width="10.667" d="M240 137.38666666666666h-224a5.333333333333333 5.333333333333333 0 0 0 -4.16 1.92 5.653333333333333 5.653333333333333 0 0 0 -1.0666666666666667 4.4799999999999995l19.626666666666665 88.85333333333332a15.573333333333332 15.573333333333332 0 0 0 15.68 11.413333333333334h163.83999999999997a15.573333333333332 15.573333333333332 0 0 0 15.68 -11.413333333333334L245.33333333333331 143.78666666666666a5.653333333333333 5.653333333333333 0 0 0 -1.0666666666666667 -4.4799999999999995 5.333333333333333 5.333333333333333 0 0 0 -4.266666666666667 -1.92Zm-50.666666666666664 32v42.666666666666664a8 8 0 0 1 -16 0v-42.666666666666664a8 8 0 0 1 16 0Zm-53.33333333333333 0v42.666666666666664a8 8 0 0 1 -16 0v-42.666666666666664a8 8 0 0 1 16 0Zm-48 0v42.666666666666664a8 8 0 0 1 -16 0v-42.666666666666664a8 8 0 0 1 16 0Z"/><path fill="#fff" stroke-width="10.667" d="M240 84.05333333333333H224a2.6666666666666665 2.6666666666666665 0 0 1 -2.0266666666666664 -0.96l-57.17333333333333 -66.45333333333333a13.333333333333332 13.333333333333332 0 0 0 -20.266666666666666 17.386666666666663l39.04 45.54666666666666a2.6666666666666665 2.6666666666666665 0 0 1 0 2.88 2.6666666666666665 2.6666666666666665 0 0 1 -2.453333333333333 1.5999999999999999H74.66666666666666a2.6666666666666665 2.6666666666666665 0 0 1 -2.453333333333333 -1.5999999999999999 2.6666666666666665 2.6666666666666665 0 0 1 0 -2.88l39.04 -45.54666666666666a13.333333333333332 13.333333333333332 0 0 0 -20.266666666666666 -17.386666666666663L34.239999999999995 83.09333333333333a2.6666666666666665 2.6666666666666665 0 0 1 -2.2399999999999998 0.96H16A16 16 0 0 0 0 100.05333333333334v10.666666666666666a16 16 0 0 0 16 16h224a16 16 0 0 0 16 -16v-10.666666666666666a16 16 0 0 0 -16 -16Z"/></g></svg>