<svg xmlns="http://www.w3.org/2000/svg" id="Shopping-Bag-Check--Streamline-Ultimate" width="256" height="256" viewBox="0 0 256 256"><desc>Shopping Bag Check Streamline Icon: https://streamlinehq.com</desc><path fill="#fff" stroke-width="10.667" d="M214.4 254.71999999999997a40 40 0 0 0 39.68 -45.01333333333333L237.22666666666663 74.66666666666666a11.733333333333334 11.733333333333334 0 0 0 0 -1.7066666666666666l-10.666666666666666 -31.253333333333334a18.88 18.88 0 0 0 -17.493333333333332 -10.986666666666666h-10.666666666666666a8 8 0 0 0 -8 7.893333333333333 8.106666666666666 8.106666666666666 0 0 0 8 8.106666666666666h10.666666666666666a2.1333333333333333 2.1333333333333333 0 0 1 1.8133333333333335 1.2799999999999998l5.866666666666667 16a2.5599999999999996 2.5599999999999996 0 0 1 0 2.453333333333333 2.6666666666666665 2.6666666666666665 0 0 1 -2.2399999999999998 1.1733333333333333h-29.439999999999998a2.7733333333333334 2.7733333333333334 0 0 1 -2.6666666666666665 -2.7733333333333334v-10.666666666666666a53.33333333333333 53.33333333333333 0 0 0 -106.66666666666666 0v10.666666666666666a2.7733333333333334 2.7733333333333334 0 0 1 -2.6666666666666665 2.7733333333333334H42.666666666666664a2.88 2.88 0 0 1 -2.2399999999999998 -1.2799999999999998 2.5599999999999996 2.5599999999999996 0 0 1 0 -2.453333333333333l6.72 -16a2.7733333333333334 2.7733333333333334 0 0 1 2.0266666666666664 -1.5999999999999999h10.666666666666666a8 8 0 0 0 8 -8.106666666666666 7.893333333333333 7.893333333333333 0 0 0 -8 -7.893333333333333h-10.666666666666666a18.773333333333333 18.773333333333333 0 0 0 -16.53333333333333 10.666666666666666L19.306666666666665 72.85333333333332a6.933333333333334 6.933333333333334 0 0 0 -0.5333333333333333 2.1333333333333333L1.92 209.70666666666665a40 40 0 0 0 39.68 45.01333333333333ZM93.12 157.44a3.626666666666667 3.626666666666667 0 0 1 5.119999999999999 0l16.106666666666666 15.466666666666665a2.6666666666666665 2.6666666666666665 0 0 0 3.733333333333333 0l47.78666666666667 -47.67999999999999a3.52 3.52 0 0 1 5.119999999999999 0L184.10666666666668 138.66666666666666a3.52 3.52 0 0 1 0 5.119999999999999l-65.28 65.28a3.626666666666667 3.626666666666667 0 0 1 -5.119999999999999 0L80 175.78666666666666a3.626666666666667 3.626666666666667 0 0 1 0 -5.226666666666667Zm3.9466666666666663 -102.82666666666667a32 32 0 1 1 64 0v10.666666666666666a2.7733333333333334 2.7733333333333334 0 0 1 -2.6666666666666665 2.7733333333333334h-58.666666666666664a2.7733333333333334 2.7733333333333334 0 0 1 -2.6666666666666665 -2.7733333333333334Z"/></svg>