<svg xmlns="http://www.w3.org/2000/svg" id="Shopping-Advertising-Audience-Targer-User--Streamline-Ultimate" width="256" height="256" viewBox="0 0 256 256"><desc>Shopping Advertising Audience Targer User Streamline Icon: https://streamlinehq.com</desc><g id="Shopping-Advertising-Audience-Targer-User--Streamline-Ultimate.svg"><path fill="#fff" stroke-width="10.667" d="M10.666666666666666 138.66666666666666h8.853333333333332a2.5599999999999996 2.5599999999999996 0 0 1 2.5599999999999996 2.3466666666666667 106.66666666666666 106.66666666666666 0 0 0 92.90666666666667 92.90666666666667 2.5599999999999996 2.5599999999999996 0 0 1 2.3466666666666667 2.5599999999999996V245.33333333333331a10.666666666666666 10.666666666666666 0 0 0 21.333333333333332 0v-8.853333333333332a2.5599999999999996 2.5599999999999996 0 0 1 2.3466666666666667 -2.5599999999999996 106.66666666666666 106.66666666666666 0 0 0 92.90666666666667 -92.90666666666667 2.5599999999999996 2.5599999999999996 0 0 1 2.5599999999999996 -2.3466666666666667H245.33333333333331a10.666666666666666 10.666666666666666 0 0 0 0 -21.333333333333332h-8.853333333333332a2.5599999999999996 2.5599999999999996 0 0 1 -2.5599999999999996 -2.3466666666666667 106.66666666666666 106.66666666666666 0 0 0 -92.90666666666667 -92.90666666666667 2.5599999999999996 2.5599999999999996 0 0 1 -2.3466666666666667 -2.5599999999999996V10.666666666666666a10.666666666666666 10.666666666666666 0 0 0 -21.333333333333332 0v8.853333333333332a2.5599999999999996 2.5599999999999996 0 0 1 -2.3466666666666667 2.5599999999999996 106.66666666666666 106.66666666666666 0 0 0 -92.90666666666667 92.90666666666667 2.5599999999999996 2.5599999999999996 0 0 1 -2.5599999999999996 2.3466666666666667H10.666666666666666a10.666666666666666 10.666666666666666 0 0 0 0 21.333333333333332Zm37.33333333333333 -21.333333333333332h-1.5999999999999999a2.6666666666666665 2.6666666666666665 0 0 1 -2.0266666666666664 -0.96 2.5599999999999996 2.5599999999999996 0 0 1 -0.6399999999999999 -2.1333333333333333 85.33333333333333 85.33333333333333 0 0 1 70.50666666666666 -70.50666666666666 2.5599999999999996 2.5599999999999996 0 0 1 2.1333333333333333 0.6399999999999999 2.6666666666666665 2.6666666666666665 0 0 1 0.96 2.0266666666666664v1.5999999999999999a10.666666666666666 10.666666666666666 0 0 0 21.333333333333332 0v-1.5999999999999999a2.6666666666666665 2.6666666666666665 0 0 1 0.96 -2.0266666666666664 2.5599999999999996 2.5599999999999996 0 0 1 2.1333333333333333 -0.6399999999999999 85.33333333333333 85.33333333333333 0 0 1 70.50666666666666 70.50666666666666 2.5599999999999996 2.5599999999999996 0 0 1 -0.6399999999999999 2.1333333333333333 2.6666666666666665 2.6666666666666665 0 0 1 -2.0266666666666664 0.96h-1.5999999999999999a10.666666666666666 10.666666666666666 0 0 0 0 21.333333333333332h1.5999999999999999a2.6666666666666665 2.6666666666666665 0 0 1 2.0266666666666664 0.96 2.5599999999999996 2.5599999999999996 0 0 1 0.6399999999999999 2.1333333333333333 85.33333333333333 85.33333333333333 0 0 1 -70.50666666666666 70.50666666666666 2.5599999999999996 2.5599999999999996 0 0 1 -2.1333333333333333 -0.6399999999999999 2.6666666666666665 2.6666666666666665 0 0 1 -0.96 -2.0266666666666664v-1.5999999999999999a10.666666666666666 10.666666666666666 0 0 0 -21.333333333333332 0v1.5999999999999999a2.6666666666666665 2.6666666666666665 0 0 1 -0.96 2.0266666666666664 2.5599999999999996 2.5599999999999996 0 0 1 -2.1333333333333333 0.6399999999999999 85.33333333333333 85.33333333333333 0 0 1 -70.50666666666666 -70.50666666666666 2.5599999999999996 2.5599999999999996 0 0 1 0.6399999999999999 -2.1333333333333333 2.6666666666666665 2.6666666666666665 0 0 1 2.0266666666666664 -0.96h1.5999999999999999a10.666666666666666 10.666666666666666 0 0 0 0 -21.333333333333332Z"/><path fill="#fff" stroke-width="10.667" d="M180.48000000000002 177.70666666666665a70.39999999999999 70.39999999999999 0 0 0 -46.72 -22.826666666666668 42.666666666666664 42.666666666666664 0 1 0 -10.666666666666666 0 70.18666666666667 70.18666666666667 0 0 0 -46.61333333333333 22.826666666666668 5.226666666666667 5.226666666666667 0 0 0 -0.96 5.76 5.4399999999999995 5.4399999999999995 0 0 0 4.906666666666666 3.1999999999999997h96a5.4399999999999995 5.4399999999999995 0 0 0 4.906666666666666 -3.1999999999999997 5.4399999999999995 5.4399999999999995 0 0 0 -0.8533333333333333 -5.76ZM106.66666666666666 112.53333333333333a21.333333333333332 21.333333333333332 0 0 1 2.88 -10.666666666666666 64 64 0 0 0 31.46666666666667 8.32 67.52 67.52 0 0 0 8.106666666666666 -0.5333333333333333 11.733333333333334 11.733333333333334 0 0 1 0 2.7733333333333334 21.333333333333332 21.333333333333332 0 0 1 -42.666666666666664 0Z"/></g></svg>