<svg xmlns="http://www.w3.org/2000/svg" viewBox="0 0 256 256" id="Shopping-Bag-Duty-Free--Streamline-Ultimate" height="256" width="256">
  <desc>
    Shopping Bag Duty Free Streamline Icon: https://streamlinehq.com
  </desc>
  <g id="Shopping-Bag-Duty-Free--Streamline-Ultimate.svg">
    <path d="M100.05333333333334 189.12a2.0266666666666664 2.0266666666666664 0 0 0 1.92 2.0266666666666664 7.786666666666666 7.786666666666666 0 1 0 0 -15.573333333333332 1.92 1.92 0 0 0 -1.92 2.0266666666666664Z" fill="#ffffff" stroke-width="10.6667"></path>
    <path d="M58.239999999999995 98.98666666666665a2.7733333333333334 2.7733333333333334 0 0 0 -2.88 0 2.6666666666666665 2.6666666666666665 0 0 0 -2.0266666666666664 2.0266666666666664v32a2.6666666666666665 2.6666666666666665 0 0 0 1.5999999999999999 2.453333333333333 2.6666666666666665 2.6666666666666665 0 0 0 2.88 0A16.106666666666666 16.106666666666666 0 0 0 64 122.66666666666666v-11.52a16.53333333333333 16.53333333333333 0 0 0 -5.76 -12.159999999999998Z" fill="#ffffff" stroke-width="10.6667"></path>
    <path d="M234.66666666666666 56h-45.86666666666666a2.7733333333333334 2.7733333333333334 0 0 1 -2.6666666666666665 -2.6666666666666665 58.666666666666664 58.666666666666664 0 0 0 -116.26666666666667 0 2.7733333333333334 2.7733333333333334 0 0 1 -2.6666666666666665 2.3466666666666667H21.333333333333332a15.893333333333333 15.893333333333333 0 0 0 -16 16v165.97333333333333A15.893333333333333 15.893333333333333 0 0 0 21.333333333333332 253.33333333333331h213.33333333333331a15.893333333333333 15.893333333333333 0 0 0 16 -15.68V71.67999999999999A15.893333333333333 15.893333333333333 0 0 0 234.66666666666666 56Zm-25.813333333333333 140.90666666666667a6.72 6.72 0 1 1 0 13.333333333333332h-13.76A2.6666666666666665 2.6666666666666665 0 0 0 192 213.33333333333331v2.2399999999999998a4.906666666666666 4.906666666666666 0 0 0 4.906666666666666 4.8h11.52a6.72 6.72 0 0 1 0 13.44H197.33333333333331a18.346666666666664 18.346666666666664 0 0 1 -18.24 -18.24v-35.093333333333334a18.24 18.24 0 0 1 18.24 -18.24h11.52a6.72 6.72 0 1 1 0 13.333333333333332H197.33333333333331a4.906666666666666 4.906666666666666 0 0 0 -4.906666666666666 4.906666666666666v13.76a2.6666666666666665 2.6666666666666665 0 0 0 2.6666666666666665 2.6666666666666665Zm-46.18666666666667 0a6.72 6.72 0 1 1 0 13.333333333333332H149.33333333333331a2.6666666666666665 2.6666666666666665 0 0 0 -2.6666666666666665 2.6666666666666665v2.2399999999999998a4.8 4.8 0 0 0 4.906666666666666 4.8h11.52a6.72 6.72 0 1 1 0 13.44h-11.946666666666667a18.24 18.24 0 0 1 -18.24 -18.24v-34.666666666666664a18.133333333333333 18.133333333333333 0 0 1 18.24 -18.24h11.52a6.72 6.72 0 1 1 0 13.333333333333332h-11.52a4.8 4.8 0 0 0 -4.906666666666666 4.906666666666666v13.76a2.6666666666666665 2.6666666666666665 0 0 0 2.6666666666666665 2.6666666666666665Zm6.72 -108.90666666666667a6.72 6.72 0 0 1 -6.72 6.72H160a2.6666666666666665 2.6666666666666665 0 0 0 -2.6666666666666665 2.5599999999999996v48.53333333333333a6.72 6.72 0 0 1 -13.333333333333332 0V97.27999999999999a2.6666666666666665 2.6666666666666665 0 0 0 -2.6666666666666665 -2.5599999999999996h-2.2399999999999998a6.72 6.72 0 0 1 0 -13.44h23.146666666666665a6.72 6.72 0 0 1 7.1466666666666665 6.72Zm-47.25333333333333 135.25333333333333a6.72 6.72 0 0 1 -2.2399999999999998 9.173333333333332 6.613333333333333 6.613333333333333 0 0 1 -3.413333333333333 0.96 6.72 6.72 0 0 1 -5.76 -3.3066666666666666l-5.76 -9.6a2.5599999999999996 2.5599999999999996 0 0 0 -2.986666666666667 -1.1733333333333333 2.6666666666666665 2.6666666666666665 0 0 0 -1.92 2.5599999999999996v4.8a6.72 6.72 0 0 1 -13.44 0v-57.81333333333333a6.72 6.72 0 0 1 6.72 -6.613333333333333h8.64a21.333333333333332 21.333333333333332 0 0 1 10.666666666666666 39.46666666666667 2.7733333333333334 2.7733333333333334 0 0 0 -1.2799999999999998 1.5999999999999999 2.2399999999999998 2.2399999999999998 0 0 0 0 2.0266666666666664Zm-17.28 -70.82666666666665a18.24 18.24 0 0 1 -18.24 -18.24V88a6.72 6.72 0 0 1 13.44 0v46.18666666666667a4.906666666666666 4.906666666666666 0 1 0 9.706666666666667 0V88a6.72 6.72 0 1 1 13.333333333333332 0v46.18666666666667a18.133333333333333 18.133333333333333 0 0 1 -18.24 18.24ZM64 196.90666666666667a6.72 6.72 0 1 1 0 13.333333333333332h-7.573333333333332A2.6666666666666665 2.6666666666666665 0 0 0 53.33333333333333 213.33333333333331v13.76a6.72 6.72 0 1 1 -13.333333333333332 0v-46.61333333333333a18.24 18.24 0 0 1 18.666666666666664 -18.24h11.52a6.72 6.72 0 1 1 0 13.333333333333332H58.666666666666664a4.906666666666666 4.906666666666666 0 0 0 -4.906666666666666 4.906666666666666v13.76a2.6666666666666665 2.6666666666666665 0 0 0 2.6666666666666665 2.6666666666666665Zm-16.85333333333333 -44.48a6.72 6.72 0 0 1 -6.72 -6.613333333333333V88a6.72 6.72 0 0 1 6.72 -6.72 29.866666666666664 29.866666666666664 0 0 1 29.759999999999998 29.866666666666664v11.52a29.759999999999998 29.759999999999998 0 0 1 -29.759999999999998 29.759999999999998Zm158.29333333333332 -30.826666666666668a2.7733333333333334 2.7733333333333334 0 0 0 -1.4933333333333334 2.453333333333333v21.333333333333332a6.613333333333333 6.613333333333333 0 0 1 -13.226666666666667 0v-21.333333333333332a2.7733333333333334 2.7733333333333334 0 0 0 -1.4933333333333334 -2.453333333333333 18.24 18.24 0 0 1 -10.133333333333333 -16.21333333333333V88a6.72 6.72 0 1 1 13.333333333333332 0v17.386666666666663a4.906666666666666 4.906666666666666 0 0 0 9.813333333333333 0V88a6.72 6.72 0 1 1 13.333333333333332 0v17.386666666666663a18.24 18.24 0 0 1 -10.133333333333333 16.21333333333333ZM128 24a37.54666666666667 37.54666666666667 0 0 1 36.373333333333335 28.69333333333333 2.986666666666667 2.986666666666667 0 0 1 -0.5333333333333333 2.3466666666666667 2.6666666666666665 2.6666666666666665 0 0 1 -2.1333333333333333 0.96H94.29333333333332a2.7733333333333334 2.7733333333333334 0 0 1 -2.1333333333333333 -1.0666666666666667 2.7733333333333334 2.7733333333333334 0 0 1 -0.5333333333333333 -2.2399999999999998A37.54666666666667 37.54666666666667 0 0 1 128 24Z" fill="#ffffff" stroke-width="10.6667"></path>
  </g>
</svg>