<svg xmlns="http://www.w3.org/2000/svg" viewBox="0 0 256 256" id="Shop-Sale-1--Streamline-Ultimate" height="256" width="256">
  <desc>
    Shop Sale 1 Streamline Icon: https://streamlinehq.com
  </desc>
  <g id="Shop-Sale-1--Streamline-Ultimate.svg">
    <path d="M117.33333333333333 212.0533333333333a9.386666666666667 9.386666666666667 0 0 0 9.28 -9.386666666666667v-48a25.386666666666663 25.386666666666663 0 1 0 -50.666666666666664 0V202.66666666666666a9.386666666666667 9.386666666666667 0 1 0 18.666666666666664 0v-20.05333333333333a2.6666666666666665 2.6666666666666665 0 0 1 2.6666666666666665 -2.5599999999999996h8a2.6666666666666665 2.6666666666666665 0 0 1 2.6666666666666665 2.5599999999999996V202.66666666666666a9.386666666666667 9.386666666666667 0 0 0 9.386666666666667 9.386666666666667Zm-20.05333333333333 -50.773333333333326a2.6666666666666665 2.6666666666666665 0 0 1 -2.6666666666666665 -2.5599999999999996v-4.053333333333333a6.72 6.72 0 0 1 13.333333333333332 0v4.053333333333333a2.6666666666666665 2.6666666666666665 0 0 1 -2.6666666666666665 2.5599999999999996Z" fill="#ffffff" stroke-width="10.6667"></path>
    <path d="M222.61333333333334 149.33333333333331a1.2799999999999998 1.2799999999999998 0 0 1 1.3866666666666667 -1.2799999999999998h21.333333333333332a9.386666666666667 9.386666666666667 0 0 0 0 -18.773333333333333h-21.333333333333332A20.05333333333333 20.05333333333333 0 0 0 203.94666666666666 149.33333333333331v42.666666666666664A20.05333333333333 20.05333333333333 0 0 0 224 212.0533333333333h21.333333333333332a9.386666666666667 9.386666666666667 0 0 0 0 -18.773333333333333h-21.333333333333332a1.2799999999999998 1.2799999999999998 0 0 1 -1.3866666666666667 -1.2799999999999998v-9.386666666666667a2.6666666666666665 2.6666666666666665 0 0 1 2.6666666666666665 -2.5599999999999996H234.66666666666666a9.386666666666667 9.386666666666667 0 0 0 0 -18.773333333333333h-9.386666666666667a2.6666666666666665 2.6666666666666665 0 0 1 -2.6666666666666665 -2.5599999999999996Z" fill="#ffffff" stroke-width="10.6667"></path>
    <path d="M154.66666666666666 129.27999999999997a9.386666666666667 9.386666666666667 0 0 0 -9.386666666666667 9.386666666666667v53.33333333333333a20.05333333333333 20.05333333333333 0 0 0 20.05333333333333 20.05333333333333h21.333333333333332a9.386666666666667 9.386666666666667 0 0 0 0 -18.773333333333333h-21.333333333333332a1.2799999999999998 1.2799999999999998 0 0 1 -1.3866666666666667 -1.2799999999999998v-53.33333333333333a9.386666666666667 9.386666666666667 0 0 0 -9.28 -9.386666666666667Z" fill="#ffffff" stroke-width="10.6667"></path>
    <path d="M57.28 188.79999999999998a23.36 23.36 0 0 0 -10.666666666666666 -19.413333333333334l-19.306666666666665 -13.013333333333332a4.586666666666666 4.586666666666666 0 0 1 2.5599999999999996 -8.32h18.133333333333333a9.386666666666667 9.386666666666667 0 0 0 0 -18.773333333333333H29.866666666666664A23.36 23.36 0 0 0 6.613333333333333 152.53333333333333a23.57333333333333 23.57333333333333 0 0 0 10.666666666666666 19.413333333333334l19.626666666666665 13.013333333333332a4.586666666666666 4.586666666666666 0 0 1 -2.453333333333333 8.32H16a9.386666666666667 9.386666666666667 0 0 0 0 18.773333333333333h18.133333333333333a23.253333333333334 23.253333333333334 0 0 0 23.146666666666665 -23.253333333333334Z" fill="#ffffff" stroke-width="10.6667"></path>
    <path d="M229.33333333333331 245.33333333333331a10.666666666666666 10.666666666666666 0 0 0 -10.666666666666666 -10.666666666666666h-181.33333333333331a10.666666666666666 10.666666666666666 0 0 0 0 21.333333333333332h181.33333333333331a10.666666666666666 10.666666666666666 0 0 0 10.666666666666666 -10.666666666666666Z" fill="#ffffff" stroke-width="10.6667"></path>
    <path d="M189.33333333333331 58.45333333333333a1.3866666666666667 1.3866666666666667 0 0 0 0 -0.6399999999999999c-1.2799999999999998 -4.4799999999999995 -12.799999999999999 -46.18666666666667 -15.36 -55.89333333333333a2.7733333333333334 2.7733333333333334 0 0 0 -2.6666666666666665 -1.92H138.66666666666666a2.6666666666666665 2.6666666666666665 0 0 0 -2.6666666666666665 2.6666666666666665v99.83999999999999a2.6666666666666665 2.6666666666666665 0 0 0 1.4933333333333334 2.453333333333333 51.30666666666666 51.30666666666666 0 0 0 26.346666666666668 4.906666666666666 52.373333333333335 52.373333333333335 0 0 0 25.386666666666663 -9.066666666666666Z" fill="#ffffff" stroke-width="10.6667"></path>
    <path d="M256 54.08 237.22666666666663 10.666666666666666a16.106666666666666 16.106666666666666 0 0 0 -14.506666666666668 -10.666666666666666h-29.333333333333332a2.5599999999999996 2.5599999999999996 0 0 0 -2.0266666666666664 1.0666666666666667 2.6666666666666665 2.6666666666666665 0 0 0 -0.5333333333333333 2.3466666666666667l14.186666666666667 51.519999999999996a6.826666666666666 6.826666666666666 0 0 1 0 2.1333333333333333v38.08a2.6666666666666665 2.6666666666666665 0 0 0 1.7066666666666666 2.453333333333333 35.626666666666665 35.626666666666665 0 0 0 48.959999999999994 -32v-9.386666666666667a7.893333333333333 7.893333333333333 0 0 0 0.31999999999999995 -2.1333333333333333Z" fill="#ffffff" stroke-width="10.6667"></path>
    <path d="M120 2.6666666666666665A2.6666666666666665 2.6666666666666665 0 0 0 117.33333333333333 0H84.58666666666666a2.7733333333333334 2.7733333333333334 0 0 0 -2.5599999999999996 1.92C79.46666666666667 11.626666666666667 67.94666666666666 53.33333333333333 66.77333333333333 57.81333333333333a1.3866666666666667 1.3866666666666667 0 0 0 0 0.6399999999999999V99.2a2.5599999999999996 2.5599999999999996 0 0 0 1.1733333333333333 2.2399999999999998 52.693333333333335 52.693333333333335 0 0 0 24.426666666666666 8.426666666666666h4.266666666666667a49.919999999999995 49.919999999999995 0 0 0 21.973333333333333 -5.013333333333333 2.7733333333333334 2.7733333333333334 0 0 0 1.4933333333333334 -2.453333333333333Z" fill="#ffffff" stroke-width="10.6667"></path>
    <path d="M50.666666666666664 57.06666666666666a13.12 13.12 0 0 1 0 -2.1333333333333333L65.06666666666666 3.413333333333333a2.5599999999999996 2.5599999999999996 0 0 0 0 -2.3466666666666667 2.7733333333333334 2.7733333333333334 0 0 0 -2.1333333333333333 -1.0666666666666667H33.28a16.106666666666666 16.106666666666666 0 0 0 -14.506666666666668 10.666666666666666L0 54.08a8.426666666666666 8.426666666666666 0 0 0 0 2.1333333333333333v9.706666666666667A34.56 34.56 0 0 0 21.333333333333332 97.06666666666666a35.306666666666665 35.306666666666665 0 0 0 27.733333333333334 0.5333333333333333 2.6666666666666665 2.6666666666666665 0 0 0 1.7066666666666666 -2.453333333333333Z" fill="#ffffff" stroke-width="10.6667"></path>
  </g>
</svg>