<svg xmlns="http://www.w3.org/2000/svg" viewBox="0 0 256 256" id="Shop-Sign-Bag--Streamline-Ultimate" height="256" width="256">
  <desc>
    Shop Sign Bag Streamline Icon: https://streamlinehq.com
  </desc>
  <g id="Shop-Sign-Bag--Streamline-Ultimate.svg">
    <path d="M229.33333333333331 0a26.986666666666665 26.986666666666665 0 0 0 -23.786666666666665 14.506666666666668 2.453333333333333 2.453333333333333 0 0 1 -2.3466666666666667 1.4933333333333334H32a32 32 0 0 0 -32 32v96a10.666666666666666 10.666666666666666 0 0 0 21.333333333333332 0v-96a10.666666666666666 10.666666666666666 0 0 1 10.666666666666666 -10.666666666666666h50.666666666666664a2.6666666666666665 2.6666666666666665 0 0 1 2.6666666666666665 2.6666666666666665V58.666666666666664a10.666666666666666 10.666666666666666 0 0 0 21.333333333333332 0V40a2.6666666666666665 2.6666666666666665 0 0 1 2.6666666666666665 -2.6666666666666665h58.666666666666664a2.6666666666666665 2.6666666666666665 0 0 1 2.6666666666666665 2.6666666666666665V58.666666666666664a10.666666666666666 10.666666666666666 0 0 0 21.333333333333332 0V40a2.6666666666666665 2.6666666666666665 0 0 1 2.6666666666666665 -2.6666666666666665h8.746666666666666a2.5599999999999996 2.5599999999999996 0 0 1 2.1333333333333333 1.2799999999999998A26.666666666666664 26.666666666666664 0 1 0 229.33333333333331 0Z" fill="#ffffff" stroke-width="10.6667"></path>
    <path d="M149.33333333333331 149.33333333333331a2.6666666666666665 2.6666666666666665 0 0 0 2.6666666666666665 -2.6666666666666665V138.66666666666666a13.333333333333332 13.333333333333332 0 0 0 -26.666666666666664 0v8A2.6666666666666665 2.6666666666666665 0 0 0 128 149.33333333333331Z" fill="#ffffff" stroke-width="10.6667"></path>
    <path d="M229.33333333333331 112A26.666666666666664 26.666666666666664 0 0 0 202.66666666666666 85.33333333333333H74.66666666666666a26.666666666666664 26.666666666666664 0 0 0 -26.666666666666664 26.666666666666664v117.33333333333333A26.666666666666664 26.666666666666664 0 0 0 74.66666666666666 256h128a26.666666666666664 26.666666666666664 0 0 0 26.666666666666664 -26.666666666666664Zm-45.54666666666666 51.30666666666666L192 213.33333333333331a26.133333333333333 26.133333333333333 0 0 1 0 2.88A18.773333333333333 18.773333333333333 0 0 1 173.33333333333331 234.66666666666666h-69.33333333333333A18.773333333333333 18.773333333333333 0 0 1 85.33333333333333 216 26.133333333333333 26.133333333333333 0 0 1 85.33333333333333 213.33333333333331l8 -49.81333333333333A16.426666666666666 16.426666666666666 0 0 1 106.66666666666666 149.33333333333331a2.6666666666666665 2.6666666666666665 0 0 0 2.2399999999999998 -2.6666666666666665V138.66666666666666a29.333333333333332 29.333333333333332 0 0 1 58.666666666666664 0v8.213333333333333A2.6666666666666665 2.6666666666666665 0 0 0 170.66666666666666 149.33333333333331a16.426666666666666 16.426666666666666 0 0 1 13.12 13.973333333333333Z" fill="#ffffff" stroke-width="10.6667"></path>
  </g>
</svg>