<svg xmlns="http://www.w3.org/2000/svg" viewBox="0 0 256 256" id="Shop-Sign-Open--Streamline-Ultimate" height="256" width="256">
  <desc>
    Shop Sign Open Streamline Icon: https://streamlinehq.com
  </desc>
  <g id="Shop-Sign-Open--Streamline-Ultimate.svg">
    <path d="M42.666666666666664 187.94666666666666a9.386666666666667 9.386666666666667 0 0 0 9.386666666666667 -9.28v-32a9.386666666666667 9.386666666666667 0 0 0 -18.773333333333333 0v32a9.386666666666667 9.386666666666667 0 0 0 9.386666666666667 9.28Z" fill="#ffffff" stroke-width="10.6667"></path>
    <path d="M105.38666666666667 146.66666666666666a9.386666666666667 9.386666666666667 0 0 0 -9.386666666666667 -9.28h-6.613333333333333a2.6666666666666665 2.6666666666666665 0 0 0 -2.7733333333333334 2.5599999999999996v13.44a2.6666666666666665 2.6666666666666665 0 0 0 2.7733333333333334 2.5599999999999996H96a9.386666666666667 9.386666666666667 0 0 0 9.386666666666667 -9.28Z" fill="#ffffff" stroke-width="10.6667"></path>
    <path d="M256 120a26.666666666666664 26.666666666666664 0 0 0 -26.666666666666664 -26.666666666666664h-42.666666666666664a2.88 2.88 0 0 1 -2.3466666666666667 -1.2799999999999998l-31.146666666666665 -53.33333333333333a29.333333333333332 29.333333333333332 0 0 0 -50.56 0l-31.146666666666665 53.33333333333333a2.88 2.88 0 0 1 -2.3466666666666667 1.2799999999999998h-42.666666666666664A26.666666666666664 26.666666666666664 0 0 0 0 120v85.33333333333333a26.666666666666664 26.666666666666664 0 0 0 26.666666666666664 26.666666666666664h202.66666666666666a26.666666666666664 26.666666666666664 0 0 0 26.666666666666664 -26.666666666666664Zm-101.33333333333333 35.946666666666665a6.72 6.72 0 0 1 0 13.44h-11.946666666666667a2.6666666666666665 2.6666666666666665 0 0 0 -2.7733333333333334 2.5599999999999996v12.053333333333331a3.9466666666666663 3.9466666666666663 0 0 0 4.053333333333333 3.9466666666666663h21.333333333333332a6.72 6.72 0 0 1 0 13.44h-21.333333333333332a17.28 17.28 0 0 1 -17.28 -17.386666666666663v-42.666666666666664a17.28 17.28 0 0 1 17.28 -17.386666666666663h21.333333333333332a6.72 6.72 0 0 1 0 13.44h-21.333333333333332a3.9466666666666663 3.9466666666666663 0 0 0 -4.053333333333333 3.9466666666666663v12.053333333333331a2.6666666666666665 2.6666666666666665 0 0 0 2.7733333333333334 2.5599999999999996Zm-81.28 -25.28a6.72 6.72 0 0 1 6.613333333333333 -6.72H96a22.72 22.72 0 0 1 0 45.44h-6.613333333333333a2.6666666666666665 2.6666666666666665 0 0 0 -2.7733333333333334 2.5599999999999996v22.72a6.613333333333333 6.613333333333333 0 1 1 -13.226666666666667 0Zm106.66666666666666 0a6.613333333333333 6.613333333333333 0 0 1 5.119999999999999 -6.506666666666666 6.72 6.72 0 0 1 7.466666666666666 3.52l14.293333333333333 28.69333333333333a2.7733333333333334 2.7733333333333334 0 0 0 2.986666666666667 1.3866666666666667 2.7733333333333334 2.7733333333333334 0 0 0 2.1333333333333333 -2.6666666666666665v-24.426666666666666a6.613333333333333 6.613333333333333 0 1 1 13.226666666666667 0v64a6.613333333333333 6.613333333333333 0 0 1 -5.119999999999999 6.506666666666666l-1.4933333333333334 0a6.933333333333334 6.933333333333334 0 0 1 -5.973333333333334 -3.733333333333333l-14.293333333333333 -28.479999999999997a2.7733333333333334 2.7733333333333334 0 0 0 -2.986666666666667 -1.3866666666666667 2.7733333333333334 2.7733333333333334 0 0 0 -2.1333333333333333 2.6666666666666665v24.426666666666666a6.613333333333333 6.613333333333333 0 1 1 -13.226666666666667 0Zm-160 16a22.613333333333333 22.613333333333333 0 1 1 45.22666666666667 0v32a22.613333333333333 22.613333333333333 0 1 1 -45.22666666666667 0Zm101.12 -97.38666666666667a8.213333333333333 8.213333333333333 0 0 1 13.653333333333332 0l23.36 40a2.453333333333333 2.453333333333333 0 0 1 0 2.6666666666666665 2.453333333333333 2.453333333333333 0 0 1 -2.2399999999999998 1.3866666666666667H100.05333333333334a2.453333333333333 2.453333333333333 0 0 1 -2.2399999999999998 -1.3866666666666667 2.453333333333333 2.453333333333333 0 0 1 0 -2.6666666666666665Z" fill="#ffffff" stroke-width="10.6667"></path>
  </g>
</svg>