<svg xmlns="http://www.w3.org/2000/svg" viewBox="0 0 256 256" id="Shopping-Basket-Star--Streamline-Ultimate" height="256" width="256">
  <desc>
    Shopping Basket Star Streamline Icon: https://streamlinehq.com
  </desc>
  <g id="Shopping-Basket-Star--Streamline-Ultimate.svg">
    <path d="M124.69333333333333 167.57333333333332a27.093333333333334 27.093333333333334 0 0 1 25.28 -16.85333333333333h11.84a2.5599999999999996 2.5599999999999996 0 0 0 2.453333333333333 -1.3866666666666667l7.893333333333333 -18.133333333333333a28.266666666666666 28.266666666666666 0 0 1 15.36 -13.653333333333332 2.7733333333333334 2.7733333333333334 0 0 0 1.5999999999999999 -1.8133333333333335l1.1733333333333333 -4.373333333333333a5.119999999999999 5.119999999999999 0 0 0 -0.96 -4.586666666666666 5.226666666666667 5.226666666666667 0 0 0 -4.16 -2.0266666666666664h-160a5.333333333333333 5.333333333333333 0 0 0 -3.84 0.7466666666666667 5.653333333333333 5.653333333333333 0 0 0 -1.0666666666666667 4.4799999999999995l13.653333333333332 64a21.333333333333332 21.333333333333332 0 0 0 21.333333333333332 15.466666666666665h66.66666666666666a2.7733333333333334 2.7733333333333334 0 0 0 2.1333333333333333 -1.0666666666666667 2.6666666666666665 2.6666666666666665 0 0 0 0 -2.3466666666666667 26.560000000000002 26.560000000000002 0 0 1 0.6399999999999999 -18.453333333333333Zm-12.693333333333332 -35.733333333333334v25.493333333333332a5.333333333333333 5.333333333333333 0 0 1 -5.333333333333333 5.333333333333333 5.333333333333333 5.333333333333333 0 0 1 -5.333333333333333 -5.333333333333333v-25.493333333333332a5.4399999999999995 5.4399999999999995 0 0 1 5.333333333333333 -5.333333333333333 5.333333333333333 5.333333333333333 0 0 1 5.333333333333333 5.333333333333333Zm-41.28 32h-0.96a5.333333333333333 5.333333333333333 0 0 1 -5.226666666666667 -3.84l-4.373333333333333 -25.599999999999998a5.333333333333333 5.333333333333333 0 0 1 10.666666666666666 -1.8133333333333335L74.66666666666666 158.07999999999998a5.333333333333333 5.333333333333333 0 0 1 -3.9466666666666663 6.079999999999999Z" fill="#ffffff" stroke-width="10.6667"></path>
    <path d="M210.77333333333334 73.81333333333333a15.253333333333332 15.253333333333332 0 0 0 -15.253333333333332 -15.36h-12.266666666666666a2.6666666666666665 2.6666666666666665 0 0 1 -1.92 -1.4933333333333334l-22.506666666666664 -42.666666666666664a10.666666666666666 10.666666666666666 0 1 0 -18.88 9.813333333333333l16.106666666666666 30.93333333333333a2.986666666666667 2.986666666666667 0 0 1 0 2.6666666666666665 2.88 2.88 0 0 1 -2.2399999999999998 1.2799999999999998h-96a2.5599999999999996 2.5599999999999996 0 0 1 -2.2399999999999998 -1.2799999999999998 2.6666666666666665 2.6666666666666665 0 0 1 0 -2.6666666666666665l16.106666666666666 -30.93333333333333a10.666666666666666 10.666666666666666 0 1 0 -18.88 -9.813333333333333l-22.826666666666668 42.666666666666664a2.6666666666666665 2.6666666666666665 0 0 1 -2.453333333333333 1.4933333333333334H15.36a15.36 15.36 0 0 0 0 30.72h180.16a15.36 15.36 0 0 0 15.253333333333332 -15.36Z" fill="#ffffff" stroke-width="10.6667"></path>
    <path d="M244.58666666666664 166.72h-22.29333333333333a2.5599999999999996 2.5599999999999996 0 0 1 -2.453333333333333 -1.5999999999999999l-11.946666666666667 -27.839999999999996a11.52 11.52 0 0 0 -10.666666666666666 -6.3999999999999995 11.84 11.84 0 0 0 -10.666666666666666 6.613333333333333l-11.946666666666667 27.839999999999996a2.5599999999999996 2.5599999999999996 0 0 1 -2.453333333333333 1.5999999999999999h-22.4a10.666666666666666 10.666666666666666 0 0 0 -10.666666666666666 6.933333333333334 11.626666666666667 11.626666666666667 0 0 0 2.88 12.586666666666666l19.52 17.386666666666663a2.88 2.88 0 0 1 0.7466666666666667 3.093333333333333l-10.666666666666666 25.173333333333332a11.306666666666667 11.306666666666667 0 0 0 2.986666666666667 13.226666666666667 11.626666666666667 11.626666666666667 0 0 0 7.786666666666666 3.093333333333333 11.52 11.52 0 0 0 5.76 -1.5999999999999999l27.946666666666665 -15.68a2.6666666666666665 2.6666666666666665 0 0 1 2.5599999999999996 0l27.946666666666665 15.68a11.52 11.52 0 0 0 5.76 1.5999999999999999 11.626666666666667 11.626666666666667 0 0 0 7.786666666666666 -3.093333333333333 11.306666666666667 11.306666666666667 0 0 0 2.88 -13.013333333333332l-10.666666666666666 -25.173333333333332a2.88 2.88 0 0 1 0.7466666666666667 -3.093333333333333l19.733333333333334 -17.599999999999998a11.413333333333334 11.413333333333334 0 0 0 2.6666666666666665 -12.373333333333331 10.666666666666666 10.666666666666666 0 0 0 -10.879999999999999 -7.359999999999999Z" fill="#ffffff" stroke-width="10.6667"></path>
  </g>
</svg>