<svg xmlns="http://www.w3.org/2000/svg" viewBox="0 0 256 256" id="Show-Theater-Masks--Streamline-Ultimate" height="256" width="256">
  <desc>
    Show Theater Masks Streamline Icon: https://streamlinehq.com
  </desc>
  <g id="Show-Theater-Masks--Streamline-Ultimate.svg">
    <path d="M107.41333333333333 53.33333333333333a192 192 0 0 0 71.36 7.68 2.6666666666666665 2.6666666666666665 0 0 0 2.5599999999999996 -2.6666666666666665V10.666666666666666a10.666666666666666 10.666666666666666 0 0 0 -14.613333333333333 -9.92c-36.69333333333333 14.933333333333332 -115.41333333333333 14.933333333333332 -152.10666666666665 0A10.666666666666666 10.666666666666666 0 0 0 0 10.666666666666666v72c0 38.18666666666667 29.439999999999998 71.78666666666666 55.78666666666667 90.66666666666666a2.986666666666667 2.986666666666667 0 0 0 3.093333333333333 0 2.88 2.88 0 0 0 1.0666666666666667 -2.88 94.93333333333334 94.93333333333334 0 0 1 -2.1333333333333333 -19.84v-64A36.05333333333333 36.05333333333333 0 0 1 107.41333333333333 53.33333333333333Z" fill="#ffffff" stroke-width="10.6667"></path>
    <path d="M247.14666666666668 70.18666666666667a20.266666666666666 20.266666666666666 0 0 0 -18.773333333333333 -2.0266666666666664c-30.29333333333333 12.266666666666666 -96.74666666666667 12.266666666666666 -126.93333333333334 0a20.266666666666666 20.266666666666666 0 0 0 -18.773333333333333 2.0266666666666664 19.946666666666665 19.946666666666665 0 0 0 -8.853333333333332 16.64v64c0 57.493333333333325 66.13333333333333 105.27999999999999 91.09333333333332 105.27999999999999S256 208.2133333333333 256 150.72v-64a19.946666666666665 19.946666666666665 0 0 0 -8.853333333333332 -16.53333333333333ZM234.66666666666666 150.72c0 45.22666666666667 -56.53333333333333 83.94666666666666 -69.75999999999999 83.94666666666666s-69.75999999999999 -38.72 -69.75999999999999 -83.94666666666666V92.37333333333333a2.453333333333333 2.453333333333333 0 0 1 1.0666666666666667 -2.1333333333333333 2.5599999999999996 2.5599999999999996 0 0 1 2.453333333333333 0 253.65333333333334 253.65333333333334 0 0 0 132.48 0 2.5599999999999996 2.5599999999999996 0 0 1 2.453333333333333 0 2.7733333333333334 2.7733333333333334 0 0 1 1.0666666666666667 2.1333333333333333Z" fill="#ffffff" stroke-width="10.6667"></path>
    <path d="M196.79999999999998 171.83999999999997a7.893333333333333 7.893333333333333 0 0 0 -10.666666666666666 2.88 24.21333333333333 24.21333333333333 0 0 1 -42.026666666666664 0 8 8 0 0 0 -10.666666666666666 -2.88 7.893333333333333 7.893333333333333 0 0 0 -2.88 10.666666666666666 40.21333333333333 40.21333333333333 0 0 0 69.75999999999999 0 8 8 0 0 0 -3.52 -10.666666666666666Z" fill="#ffffff" stroke-width="10.6667"></path>
    <path d="M195.0933333333333 114.66666666666666a24 24 0 0 0 -22.613333333333333 16 8 8 0 1 0 15.04 5.333333333333333 8.106666666666666 8.106666666666666 0 0 1 7.573333333333332 -5.333333333333333 8 8 0 0 1 7.573333333333332 5.333333333333333 8 8 0 0 0 7.573333333333332 5.333333333333333 7.786666666666666 7.786666666666666 0 0 0 2.6666666666666665 0 8.106666666666666 8.106666666666666 0 0 0 4.906666666666666 -10.666666666666666 24.106666666666662 24.106666666666662 0 0 0 -22.72 -16Z" fill="#ffffff" stroke-width="10.6667"></path>
    <path d="M142.18666666666667 136a8 8 0 0 0 7.573333333333332 5.333333333333333 7.786666666666666 7.786666666666666 0 0 0 2.6666666666666665 0 8.106666666666666 8.106666666666666 0 0 0 4.906666666666666 -10.666666666666666 24.106666666666662 24.106666666666662 0 0 0 -45.33333333333333 0 8 8 0 0 0 4.906666666666666 10.666666666666666 8.106666666666666 8.106666666666666 0 0 0 10.666666666666666 -4.906666666666666 8 8 0 0 1 15.04 0Z" fill="#ffffff" stroke-width="10.6667"></path>
  </g>
</svg>