<svg xmlns="http://www.w3.org/2000/svg" id="Show-Theater-Mask-Happy--Streamline-Ultimate" width="256" height="256" viewBox="0 0 256 256"><desc>Show Theater Mask Happy Streamline Icon: https://streamlinehq.com</desc><path fill="#fff" stroke-width="10.667" d="M238.4 2.88A15.466666666666665 15.466666666666665 0 0 0 224 0.96c-42.13333333333333 15.68 -149.33333333333331 15.68 -192 0a15.466666666666665 15.466666666666665 0 0 0 -14.4 1.92A15.893333333333333 15.893333333333333 0 0 0 10.666666666666666 16.106666666666666V128c0 72 93.54666666666665 128 117.33333333333333 128s117.33333333333333 -56 117.33333333333333 -128V16.106666666666666a15.893333333333333 15.893333333333333 0 0 0 -6.933333333333334 -13.226666666666667ZM68.47999999999999 94.72a8.213333333333333 8.213333333333333 0 0 1 -6.933333333333334 3.9466666666666663 8 8 0 0 1 -6.933333333333334 -12.053333333333331 29.333333333333332 29.333333333333332 0 0 1 50.773333333333326 0 8 8 0 0 1 -2.88 10.666666666666666 8.106666666666666 8.106666666666666 0 0 1 -10.666666666666666 -2.986666666666667 13.76 13.76 0 0 0 -23.36 0.42666666666666664ZM128 194.66666666666666c-27.946666666666665 0 -50.666666666666664 -17.919999999999998 -50.666666666666664 -40a8.106666666666666 8.106666666666666 0 0 1 8 -8h85.33333333333333a8.106666666666666 8.106666666666666 0 0 1 8 8c0 22.08 -22.72 40 -50.666666666666664 40Zm70.50666666666666 -97.06666666666666a8 8 0 0 1 -4.053333333333333 1.0666666666666667 8.213333333333333 8.213333333333333 0 0 1 -6.933333333333334 -3.9466666666666663 13.866666666666667 13.866666666666667 0 0 0 -23.04 0 8.106666666666666 8.106666666666666 0 0 1 -10.666666666666666 2.986666666666667 8 8 0 0 1 -2.88 -10.666666666666666 29.333333333333332 29.333333333333332 0 0 1 50.773333333333326 0 8 8 0 0 1 -3.1999999999999997 10.559999999999999Z"/></svg>