<svg xmlns="http://www.w3.org/2000/svg" viewBox="0 0 256 256" id="Shrink--Streamline-Ultimate" height="256" width="256">
  <desc>
    Shrink Streamline Icon: https://streamlinehq.com
  </desc>
  <g id="Shrink--Streamline-Ultimate.svg">
    <path d="M249.38666666666666 6.613333333333333a13.226666666666667 13.226666666666667 0 0 0 -18.773333333333333 0l-40.21333333333333 40.10666666666666a2.5599999999999996 2.5599999999999996 0 0 1 -3.733333333333333 0l-14.186666666666667 -14.186666666666667a5.333333333333333 5.333333333333333 0 0 0 -9.066666666666666 3.84v50.879999999999995a5.333333333333333 5.333333333333333 0 0 0 5.333333333333333 5.333333333333333h50.879999999999995a5.226666666666667 5.226666666666667 0 0 0 4.906666666666666 -3.3066666666666666 5.119999999999999 5.119999999999999 0 0 0 -1.1733333333333333 -5.76L209.28 69.33333333333333a2.5599999999999996 2.5599999999999996 0 0 1 -0.7466666666666667 -1.92 2.3466666666666667 2.3466666666666667 0 0 1 0.7466666666666667 -1.8133333333333335l40.10666666666666 -40.21333333333333a13.226666666666667 13.226666666666667 0 0 0 0 -18.773333333333333Z" fill="#ffffff" stroke-width="10.6667"></path>
    <path d="M6.613333333333333 249.38666666666666a12.906666666666666 12.906666666666666 0 0 0 9.386666666666667 3.9466666666666663 12.906666666666666 12.906666666666666 0 0 0 9.386666666666667 -3.9466666666666663l40.21333333333333 -40.10666666666666a2.5599999999999996 2.5599999999999996 0 0 1 3.733333333333333 0l14.186666666666667 14.08a5.013333333333333 5.013333333333333 0 0 0 3.733333333333333 1.5999999999999999 4.373333333333333 4.373333333333333 0 0 0 2.0266666666666664 0 5.333333333333333 5.333333333333333 0 0 0 3.3066666666666666 -4.906666666666666v-51.30666666666666a5.333333333333333 5.333333333333333 0 0 0 -5.333333333333333 -5.333333333333333H36.373333333333335a5.226666666666667 5.226666666666667 0 0 0 -4.906666666666666 3.3066666666666666 5.119999999999999 5.119999999999999 0 0 0 1.1733333333333333 5.76l14.08 14.186666666666667a2.5599999999999996 2.5599999999999996 0 0 1 0 3.733333333333333L6.613333333333333 230.61333333333334a13.226666666666667 13.226666666666667 0 0 0 0 18.773333333333333Z" fill="#ffffff" stroke-width="10.6667"></path>
    <path d="M166.72 224.53333333333333a4.373333333333333 4.373333333333333 0 0 0 2.0266666666666664 0 5.013333333333333 5.013333333333333 0 0 0 3.733333333333333 -1.5999999999999999l14.186666666666667 -14.08a2.5599999999999996 2.5599999999999996 0 0 1 3.733333333333333 0l40.21333333333333 40.10666666666666a13.12 13.12 0 0 0 18.773333333333333 0 13.226666666666667 13.226666666666667 0 0 0 0 -18.773333333333333l-40.10666666666666 -40.21333333333333a2.5599999999999996 2.5599999999999996 0 0 1 0 -3.733333333333333l14.08 -14.186666666666667a5.119999999999999 5.119999999999999 0 0 0 1.1733333333333333 -5.76 5.226666666666667 5.226666666666667 0 0 0 -4.906666666666666 -3.3066666666666666h-50.879999999999995a5.333333333333333 5.333333333333333 0 0 0 -5.333333333333333 5.333333333333333v50.879999999999995a5.333333333333333 5.333333333333333 0 0 0 3.3066666666666666 5.333333333333333Z" fill="#ffffff" stroke-width="10.6667"></path>
    <path d="M92.58666666666666 36.373333333333335a5.333333333333333 5.333333333333333 0 0 0 -9.066666666666666 -3.84L69.33333333333333 46.72a2.3466666666666667 2.3466666666666667 0 0 1 -1.8133333333333335 0.7466666666666667 2.5599999999999996 2.5599999999999996 0 0 1 -1.92 -0.7466666666666667L25.386666666666663 6.613333333333333A13.226666666666667 13.226666666666667 0 0 0 6.613333333333333 25.386666666666663l40.10666666666666 40.21333333333333a2.5599999999999996 2.5599999999999996 0 0 1 0 3.733333333333333L32.64 83.52a5.119999999999999 5.119999999999999 0 0 0 -0.6399999999999999 5.76 5.226666666666667 5.226666666666667 0 0 0 4.906666666666666 3.3066666666666666h50.346666666666664a5.333333333333333 5.333333333333333 0 0 0 5.333333333333333 -5.333333333333333Z" fill="#ffffff" stroke-width="10.6667"></path>
    <path d="M96.96 128a31.04 31.04 0 1 0 62.08 0 31.04 31.04 0 1 0 -62.08 0" fill="#ffffff" stroke-width="10.6667"></path>
  </g>
</svg>