<svg xmlns="http://www.w3.org/2000/svg" id="Sidebar-Line-Left--Streamline-Ultimate" width="256" height="256" fill="none" viewBox="0 0 256 256"><desc>Sidebar Line Left Streamline Icon: https://streamlinehq.com</desc><path fill="#fff" fill-rule="evenodd" stroke-width="10.667" d="M233.50079999999997 45.73173333333333V210.26559999999998H96.12863999999999V45.73173333333333H233.50079999999997Zm15.3696 -15.369493333333333c-4.0767999999999995 -4.076693333333333 -9.5072 -5.963839999999999 -15.029333333333334 -5.963839999999999H22.15893333333333c-5.521813333333332 0 -10.952106666666666 1.8871466666666665 -15.028831999999998 5.963839999999999 -4.076693333333333 4.076693333333333 -5.963839999999999 9.507093333333334 -5.963839999999999 15.028799999999999V210.6069333333333c0 5.521066666666666 1.8871466666666665 10.951466666666665 5.963839999999999 15.028266666666667 4.076725333333333 4.0767999999999995 9.507018666666667 5.963733333333334 15.028831999999998 5.963733333333334h211.6821333333333c5.522133333333334 0 10.952533333333331 -1.8869333333333334 15.029333333333334 -5.963733333333334 4.0767999999999995 -4.0767999999999995 5.963733333333334 -9.5072 5.963733333333334 -15.028266666666667V45.391040000000004c0 -5.521706666666667 -1.8869333333333334 -10.952106666666666 -5.963733333333334 -15.028799999999999ZM73.46976 67.27605333333332c0 -4.41824 -3.5816533333333336 -8 -8 -8H34.491946666666664c-4.418346666666666 0 -8 3.5817599999999996 -8 8s3.5816533333333336 8 8 8h30.977813333333334c4.418346666666666 0 8 -3.5817599999999996 8 -8Zm-8 33.31765333333333c4.418346666666666 0 8 3.5817599999999996 8 8.000426666666666 0 4.4181333333333335 -3.5816533333333336 8 -8 8H34.491946666666664c-4.418346666666666 0 -8 -3.5818666666666665 -8 -8 0 -4.418666666666667 3.5816533333333336 -8.000426666666666 8 -8.000426666666666h30.977813333333334Zm8 48.06762666666666c0 -4.4181333333333335 -3.5816533333333336 -8 -8 -8H34.491946666666664c-4.418346666666666 0 -8 3.5818666666666665 -8 8s3.5816533333333336 8 8 8h30.977813333333334c4.418346666666666 0 8 -3.5818666666666665 8 -8Zm-8 32.06293333333333c4.418346666666666 0 8 3.5818666666666665 8 8s-3.5816533333333336 8 -8 8H52.046079999999996c-4.418346666666666 0 -8 -3.5818666666666665 -8 -8s3.5816533333333336 -8 8 -8h13.42368Z" clip-rule="evenodd"/></svg>