<svg xmlns="http://www.w3.org/2000/svg" viewBox="0 0 256 256" id="Single-Man-Vintage-Tv--Streamline-Ultimate" height="256" width="256">
  <desc>
    Single Man Vintage Tv Streamline Icon: https://streamlinehq.com
  </desc>
  <path d="M256 34.666666666666664a16 16 0 0 0 -16 -16h-224A16 16 0 0 0 0 34.666666666666664v154.66666666666666a16 16 0 0 0 16 16h8.533333333333333a2.5599999999999996 2.5599999999999996 0 0 1 2.3466666666666667 1.4933333333333334 2.5599999999999996 2.5599999999999996 0 0 1 0 2.88l-8.213333333333333 10.666666666666666a10.666666666666666 10.666666666666666 0 1 0 16.64 13.333333333333332l21.333333333333332 -25.92a5.4399999999999995 5.4399999999999995 0 0 1 4.16 -2.0266666666666664h135.25333333333333a5.4399999999999995 5.4399999999999995 0 0 1 4.16 2.0266666666666664l20.799999999999997 25.92a10.666666666666666 10.666666666666666 0 1 0 16.64 -13.333333333333332l-8.213333333333333 -10.666666666666666a2.5599999999999996 2.5599999999999996 0 0 1 0 -2.88 2.5599999999999996 2.5599999999999996 0 0 1 2.3466666666666667 -1.4933333333333334h8.533333333333333a16 16 0 0 0 16 -16ZM72.53333333333333 103.78666666666666a3.84 3.84 0 0 0 0 -1.1733333333333333 11.306666666666667 11.306666666666667 0 0 1 -2.0266666666666664 -4.586666666666666 14.293333333333333 14.293333333333333 0 0 1 0.96 -10.026666666666666 2.7733333333333334 2.7733333333333334 0 0 0 0 -2.0266666666666664 24.64 24.64 0 0 1 0 -21.333333333333332 11.733333333333334 11.733333333333334 0 0 1 6.186666666666666 -4.266666666666667 2.0266666666666664 2.0266666666666664 0 0 0 1.2799999999999998 -0.7466666666666667 28.373333333333335 28.373333333333335 0 0 1 21.333333333333332 -6.3999999999999995c10.666666666666666 0 22.186666666666667 3.84 24.106666666666662 13.226666666666667a37.22666666666667 37.22666666666667 0 0 1 -3.3066666666666666 19.413333333333334 2.88 2.88 0 0 0 0 2.1333333333333333 14.08 14.08 0 0 1 0.8533333333333333 9.706666666666667 12.906666666666666 12.906666666666666 0 0 1 -1.92 4.586666666666666 2.3466666666666667 2.3466666666666667 0 0 0 0 1.1733333333333333 23.146666666666665 23.146666666666665 0 0 1 -5.973333333333334 12.159999999999998 2.986666666666667 2.986666666666667 0 0 0 -0.7466666666666667 1.8133333333333335v4.8a2.7733333333333334 2.7733333333333334 0 0 0 1.8133333333333335 2.5599999999999996l1.92 0.7466666666666667c16.746666666666666 6.079999999999999 28.906666666666666 10.666666666666666 32.85333333333333 18.453333333333333a52.693333333333335 52.693333333333335 0 0 1 5.226666666666667 21.333333333333332 5.4399999999999995 5.4399999999999995 0 0 1 -5.333333333333333 5.333333333333333H42.666666666666664a5.333333333333333 5.333333333333333 0 0 1 -5.333333333333333 -5.333333333333333 51.626666666666665 51.626666666666665 0 0 1 5.119999999999999 -21.333333333333332c3.9466666666666663 -7.893333333333333 16.106666666666666 -12.373333333333331 32.85333333333333 -18.453333333333333l2.0266666666666664 -0.7466666666666667a2.88 2.88 0 0 0 1.7066666666666666 -2.5599999999999996V117.33333333333333a2.986666666666667 2.986666666666667 0 0 0 -0.7466666666666667 -1.8133333333333335 23.146666666666665 23.146666666666665 0 0 1 -5.76 -11.733333333333334Zm114.13333333333333 80.21333333333332a5.333333333333333 5.333333333333333 0 0 1 -5.333333333333333 -5.333333333333333V42.666666666666664a5.333333333333333 5.333333333333333 0 0 1 10.666666666666666 0v136a5.333333333333333 5.333333333333333 0 0 1 -5.333333333333333 5.333333333333333Zm24 -26.666666666666664a8 8 0 0 1 8 -8h10.666666666666666a8 8 0 0 1 0 16h-10.666666666666666a8.106666666666666 8.106666666666666 0 0 1 -8 -8Zm18.666666666666664 -24h-10.666666666666666a8 8 0 0 1 0 -16h10.666666666666666a8 8 0 0 1 0 16ZM224 93.33333333333333a16 16 0 1 1 16 -16 16 16 0 0 1 -16 16Z" fill="#ffffff" stroke-width="10.6667"></path>
</svg>