<svg xmlns="http://www.w3.org/2000/svg" id="Single-Neutral-Monitor--Streamline-Ultimate" width="256" height="256" viewBox="0 0 256 256"><desc>Single Neutral Monitor Streamline Icon: https://streamlinehq.com</desc><path fill="#fff" stroke-width="10.667" d="M240 10.666666666666666h-224A16 16 0 0 0 0 26.666666666666664V181.33333333333331a16 16 0 0 0 16 16h96a5.333333333333333 5.333333333333333 0 0 1 5.333333333333333 5.333333333333333v16a5.333333333333333 5.333333333333333 0 0 1 -5.333333333333333 5.333333333333333H42.666666666666664a10.666666666666666 10.666666666666666 0 0 0 0 21.333333333333332h170.66666666666666a10.666666666666666 10.666666666666666 0 0 0 0 -21.333333333333332h-69.33333333333333a5.333333333333333 5.333333333333333 0 0 1 -5.333333333333333 -5.333333333333333V202.66666666666666a5.333333333333333 5.333333333333333 0 0 1 5.333333333333333 -5.333333333333333h96A16 16 0 0 0 256 181.33333333333331V26.666666666666664A16 16 0 0 0 240 10.666666666666666ZM128 42.666666666666664a32 32 0 1 1 -32 32 32 32 0 0 1 32 -32Zm52.58666666666666 126.93333333333334a3.626666666666667 3.626666666666667 0 0 1 -2.453333333333333 1.0666666666666667H80a5.119999999999999 5.119999999999999 0 0 1 -3.9466666666666663 -1.8133333333333335 5.333333333333333 5.333333333333333 0 0 1 -1.3866666666666667 -4.16 53.33333333333333 53.33333333333333 0 0 1 106.66666666666666 2.453333333333333 3.413333333333333 3.413333333333333 0 0 1 -0.8533333333333333 2.453333333333333Z"/></svg>