<svg xmlns="http://www.w3.org/2000/svg" viewBox="0 0 256 256" id="Single-Neutral-Actions-Check-1--Streamline-Ultimate" height="256" width="256">
  <desc>
    Single Neutral Actions Check 1 Streamline Icon: https://streamlinehq.com
  </desc>
  <g id="Single-Neutral-Actions-Check-1--Streamline-Ultimate.svg">
    <path d="M0 184a5.333333333333333 5.333333333333333 0 0 0 5.333333333333333 5.333333333333333h19.306666666666665a2.6666666666666665 2.6666666666666665 0 0 1 2.6666666666666665 2.453333333333333L32 248.42666666666665a5.333333333333333 5.333333333333333 0 0 0 5.333333333333333 4.906666666666666h42.666666666666664a5.333333333333333 5.333333333333333 0 0 0 5.333333333333333 -4.906666666666666L90.02666666666666 192a2.6666666666666665 2.6666666666666665 0 0 1 2.6666666666666665 -2.453333333333333h6.079999999999999a2.6666666666666665 2.6666666666666665 0 0 0 1.92 -0.8533333333333333 2.7733333333333334 2.7733333333333334 0 0 0 0.7466666666666667 -1.92 20.586666666666666 20.586666666666666 0 0 1 0 -2.5599999999999996 85.33333333333333 85.33333333333333 0 0 1 14.293333333333333 -47.25333333333333 2.3466666666666667 2.3466666666666667 0 0 0 0 -2.0266666666666664A58.666666666666664 58.666666666666664 0 0 0 0 146.66666666666666Z" fill="#ffffff" stroke-width="10.6667"></path>
    <path d="M21.333333333333332 40a37.33333333333333 37.33333333333333 0 1 0 74.66666666666666 0 37.33333333333333 37.33333333333333 0 1 0 -74.66666666666666 0" fill="#ffffff" stroke-width="10.6667"></path>
    <path d="M186.66666666666666 253.33333333333331a69.33333333333333 69.33333333333333 0 1 0 -69.33333333333333 -69.33333333333333 69.44 69.44 0 0 0 69.33333333333333 69.33333333333333Zm37.33333333333333 -98.34666666666666a10.666666666666666 10.666666666666666 0 0 1 2.1333333333333333 14.933333333333332l-33.599999999999994 44.8a19.626666666666665 19.626666666666665 0 0 1 -14.186666666666667 7.68h-1.2799999999999998a19.52 19.52 0 0 1 -13.653333333333332 -5.653333333333333l-17.28 -17.386666666666663a10.666666666666666 10.666666666666666 0 1 1 15.04 -15.04l13.546666666666667 13.546666666666667a2.6666666666666665 2.6666666666666665 0 0 0 2.1333333333333333 0.7466666666666667 2.3466666666666667 2.3466666666666667 0 0 0 1.92 -1.0666666666666667l30.4 -40.42666666666666a10.666666666666666 10.666666666666666 0 0 1 14.826666666666664 -2.1333333333333333Z" fill="#ffffff" stroke-width="10.6667"></path>
  </g>
</svg>