<svg xmlns="http://www.w3.org/2000/svg" viewBox="0 0 256 256" id="Single-Neutral-Actions-Edit-2--Streamline-Ultimate" height="256" width="256">
  <desc>
    Single Neutral Actions Edit 2 Streamline Icon: https://streamlinehq.com
  </desc>
  <g id="Single-Neutral-Actions-Edit-2--Streamline-Ultimate.svg">
    <path d="M147.62666666666667 163.51999999999998a5.226666666666667 5.226666666666667 0 0 0 1.0666666666666667 -6.079999999999999 80.21333333333332 80.21333333333332 0 0 0 -71.78666666666666 -45.44A80.53333333333333 80.53333333333333 0 0 0 0 169.17333333333332a5.333333333333333 5.333333333333333 0 0 0 0.8533333333333333 4.693333333333333 5.119999999999999 5.119999999999999 0 0 0 4.266666666666667 2.1333333333333333h128a5.013333333333333 5.013333333333333 0 0 0 3.733333333333333 -1.5999999999999999Z" fill="#ffffff" stroke-width="10.6667"></path>
    <path d="M24 50.666666666666664a50.666666666666664 50.666666666666664 0 1 0 101.33333333333333 0 50.666666666666664 50.666666666666664 0 1 0 -101.33333333333333 0" fill="#ffffff" stroke-width="10.6667"></path>
    <path d="M208.32 125.54666666666665 138.66666666666666 194.88a5.119999999999999 5.119999999999999 0 0 0 0 7.466666666666666l32 32a5.119999999999999 5.119999999999999 0 0 0 7.466666666666666 0l69.44 -69.33333333333333a27.946666666666665 27.946666666666665 0 0 0 -39.57333333333333 -39.46666666666667Z" fill="#ffffff" stroke-width="10.6667"></path>
    <path d="M132.16 218.24a5.333333333333333 5.333333333333333 0 0 0 -8.959999999999999 2.7733333333333334L117.33333333333333 249.59999999999997a5.226666666666667 5.226666666666667 0 0 0 1.4933333333333334 4.8 5.4399999999999995 5.4399999999999995 0 0 0 4.8 1.4933333333333334l28.586666666666666 -5.76a5.119999999999999 5.119999999999999 0 0 0 4.053333333333333 -3.626666666666667 5.226666666666667 5.226666666666667 0 0 0 -1.2799999999999998 -5.333333333333333Z" fill="#ffffff" stroke-width="10.6667"></path>
  </g>
</svg>