<svg xmlns="http://www.w3.org/2000/svg" viewBox="0 0 256 256" id="Single-Neutral-Actions-Remove--Streamline-Ultimate" height="256" width="256">
  <desc>
    Single Neutral Actions Remove Streamline Icon: https://streamlinehq.com
  </desc>
  <g id="Single-Neutral-Actions-Remove--Streamline-Ultimate.svg">
    <path d="M120.85333333333332 132.48a4.906666666666666 4.906666666666666 0 0 0 1.1733333333333333 -4.266666666666667 5.226666666666667 5.226666666666667 0 0 0 -2.3466666666666667 -3.626666666666667 79.67999999999999 79.67999999999999 0 0 0 -42.666666666666664 -12.586666666666666A80.53333333333333 80.53333333333333 0 0 0 0 169.17333333333332a5.333333333333333 5.333333333333333 0 0 0 0.8533333333333333 4.693333333333333 5.119999999999999 5.119999999999999 0 0 0 4.266666666666667 2.1333333333333333h92.37333333333333a5.226666666666667 5.226666666666667 0 0 0 5.226666666666667 -4.373333333333333 85.97333333333333 85.97333333333333 0 0 1 18.133333333333333 -39.14666666666666Z" fill="#ffffff" stroke-width="10.6667"></path>
    <path d="M24 50.666666666666664a50.666666666666664 50.666666666666664 0 1 0 101.33333333333333 0 50.666666666666664 50.666666666666664 0 1 0 -101.33333333333333 0" fill="#ffffff" stroke-width="10.6667"></path>
    <path d="M186.66666666666666 117.33333333333333a69.33333333333333 69.33333333333333 0 1 0 69.33333333333333 69.33333333333333 69.44 69.44 0 0 0 -69.33333333333333 -69.33333333333333Zm-33.92 88.21333333333332 15.04 -15.146666666666665a5.119999999999999 5.119999999999999 0 0 0 0 -7.466666666666666l-15.04 -15.146666666666665a10.666666666666666 10.666666666666666 0 0 1 15.04 -15.04l15.146666666666665 15.04a5.119999999999999 5.119999999999999 0 0 0 7.466666666666666 0l15.146666666666665 -15.04a10.666666666666666 10.666666666666666 0 1 1 15.04 15.04l-15.04 15.146666666666665a5.119999999999999 5.119999999999999 0 0 0 0 7.466666666666666l15.04 15.146666666666665a10.666666666666666 10.666666666666666 0 1 1 -15.04 15.04l-15.146666666666665 -15.04a5.119999999999999 5.119999999999999 0 0 0 -7.466666666666666 0l-15.146666666666665 15.04a10.666666666666666 10.666666666666666 0 1 1 -15.04 -15.04Z" fill="#ffffff" stroke-width="10.6667"></path>
  </g>
</svg>