<svg xmlns="http://www.w3.org/2000/svg" viewBox="0 0 256 256" id="Single-Neutral-Circle--Streamline-Ultimate" height="256" width="256">
  <desc>
    Single Neutral Circle Streamline Icon: https://streamlinehq.com
  </desc>
  <g id="Single-Neutral-Circle--Streamline-Ultimate.svg">
    <path d="M128 0a128 128 0 1 0 128 128A128 128 0 0 0 128 0Zm0 229.33333333333331a101.33333333333333 101.33333333333333 0 1 1 101.33333333333333 -101.33333333333333 101.44 101.44 0 0 1 -101.33333333333333 101.33333333333333Z" fill="#ffffff" stroke-width="10.6667"></path>
    <path d="M98.66666666666666 72a29.333333333333332 29.333333333333332 0 1 0 58.666666666666664 0 29.333333333333332 29.333333333333332 0 1 0 -58.666666666666664 0" fill="#ffffff" stroke-width="10.6667"></path>
    <path d="M128 112a47.46666666666667 47.46666666666667 0 0 0 -48 46.93333333333334V170.66666666666666a5.4399999999999995 5.4399999999999995 0 0 0 5.333333333333333 5.333333333333333h14.08a2.6666666666666665 2.6666666666666665 0 0 1 2.6666666666666665 2.3466666666666667L104.10666666666665 202.66666666666666c0 2.7733333333333334 2.6666666666666665 3.626666666666667 5.333333333333333 5.333333333333333A37.33333333333333 37.33333333333333 0 0 0 128 213.33333333333331a37.33333333333333 37.33333333333333 0 0 0 18.56 -5.333333333333333c2.88 -1.92 5.013333333333333 -2.5599999999999996 5.333333333333333 -5.333333333333333l2.0266666666666664 -24.319999999999997a2.6666666666666665 2.6666666666666665 0 0 1 2.6666666666666665 -2.3466666666666667H170.66666666666666a5.4399999999999995 5.4399999999999995 0 0 0 5.333333333333333 -5.333333333333333v-11.733333333333334a47.46666666666667 47.46666666666667 0 0 0 -48 -46.93333333333334Z" fill="#ffffff" stroke-width="10.6667"></path>
  </g>
</svg>