<svg xmlns="http://www.w3.org/2000/svg" id="Single-Woman-Home--Streamline-Ultimate" width="256" height="256" viewBox="0 0 256 256"><desc>Single Woman Home Streamline Icon: https://streamlinehq.com</desc><g id="Single-Woman-Home--Streamline-Ultimate.svg"><path fill="#fff" stroke-width="10.667" d="m244.0533333333333 82.66666666666666 -106.66666666666666 -74.66666666666666a15.36 15.36 0 0 0 -17.706666666666663 0l-106.66666666666666 74.66666666666666A15.466666666666665 15.466666666666665 0 0 0 5.333333333333333 95.35999999999999V234.66666666666666A15.573333333333332 15.573333333333332 0 0 0 21.333333333333332 250.66666666666666h213.33333333333331a15.573333333333332 15.573333333333332 0 0 0 16 -16V95.35999999999999a15.466666666666665 15.466666666666665 0 0 0 -6.613333333333333 -12.693333333333332Zm-67.41333333333333 124.90666666666667a5.226666666666667 5.226666666666667 0 0 1 -4.8 3.093333333333333h-85.33333333333333a5.4399999999999995 5.4399999999999995 0 0 1 -4.16 -8.746666666666666 61.01333333333333 61.01333333333333 0 0 1 46.82666666666666 -23.253333333333334 61.01333333333333 61.01333333333333 0 0 1 46.82666666666666 23.253333333333334 5.4399999999999995 5.4399999999999995 0 0 1 0.6399999999999999 5.653333333333333Zm0.5333333333333333 -48.74666666666667a6.72 6.72 0 1 1 -11.306666666666667 7.359999999999999 45.44 45.44 0 0 1 -5.866666666666667 -12.906666666666666 2.5599999999999996 2.5599999999999996 0 0 0 -1.8133333333333335 -1.8133333333333335 2.453333333333333 2.453333333333333 0 0 0 -2.5599999999999996 0.6399999999999999 38.4 38.4 0 0 1 -53.33333333333333 0 2.5599999999999996 2.5599999999999996 0 0 0 -2.5599999999999996 -0.7466666666666667 3.093333333333333 3.093333333333333 0 0 0 -1.92 1.92 43.519999999999996 43.519999999999996 0 0 1 -5.4399999999999995 12.906666666666666 6.826666666666666 6.826666666666666 0 1 1 -11.413333333333334 -7.359999999999999A37.33333333333333 37.33333333333333 0 0 0 86.39999999999999 138.66666666666666v-18.133333333333333a42.666666666666664 42.666666666666664 0 0 1 85.33333333333333 0V138.66666666666666a37.33333333333333 37.33333333333333 0 0 0 5.4399999999999995 20.159999999999997Z"/><path fill="#fff" stroke-width="10.667" d="M163.30666666666667 124.26666666666667a5.333333333333333 5.333333333333333 0 0 0 -4.266666666666667 -6.186666666666666 46.18666666666667 46.18666666666667 0 0 1 -25.706666666666667 -14.826666666666664 4.16 4.16 0 0 0 -3.413333333333333 -1.92h-0.7466666666666667a4.906666666666666 4.906666666666666 0 0 0 -4.266666666666667 2.0266666666666664 45.86666666666666 45.86666666666666 0 0 1 -25.599999999999998 14.826666666666664 5.226666666666667 5.226666666666667 0 0 0 -4.266666666666667 6.186666666666666 5.4399999999999995 5.4399999999999995 0 0 0 6.293333333333333 4.266666666666667 57.6 57.6 0 0 0 26.026666666666664 -12.906666666666666 2.7733333333333334 2.7733333333333334 0 0 1 3.52 0 57.493333333333325 57.493333333333325 0 0 0 26.133333333333333 12.906666666666666 5.546666666666667 5.546666666666667 0 0 0 6.293333333333333 -4.373333333333333Z"/></g></svg>