<svg xmlns="http://www.w3.org/2000/svg" viewBox="0 0 256 256" id="Single-Woman-Book--Streamline-Ultimate" height="256" width="256">
  <desc>
    Single Woman Book Streamline Icon: https://streamlinehq.com
  </desc>
  <path d="M214.9333333333333 42.666666666666664a5.333333333333333 5.333333333333333 0 0 1 -4.266666666666667 -5.226666666666667V21.333333333333332a21.333333333333332 21.333333333333332 0 0 0 -21.333333333333332 -21.333333333333332H56a32 32 0 0 0 -32 32v192a32 32 0 0 0 32 32h154.66666666666666a21.333333333333332 21.333333333333332 0 0 0 21.333333333333332 -21.333333333333332V64a21.333333333333332 21.333333333333332 0 0 0 -17.066666666666666 -21.333333333333332ZM91.52 154.7733333333333a2.453333333333333 2.453333333333333 0 0 1 -1.1733333333333333 -1.8133333333333335 3.1999999999999997 3.1999999999999997 0 0 1 0.6399999999999999 -2.1333333333333333c3.3066666666666666 -3.626666666666667 5.4399999999999995 -7.893333333333333 6.3999999999999995 -22.186666666666667a33.28 33.28 0 1 1 66.56 0c0.96 14.293333333333333 3.093333333333333 18.56 6.3999999999999995 22.186666666666667a3.1999999999999997 3.1999999999999997 0 0 1 0.6399999999999999 2.1333333333333333 2.453333333333333 2.453333333333333 0 0 1 -1.1733333333333333 1.8133333333333335 39.25333333333333 39.25333333333333 0 0 1 -23.68 5.973333333333334 2.6666666666666665 2.6666666666666665 0 0 0 -2.6666666666666665 2.6666666666666665v2.2399999999999998a5.226666666666667 5.226666666666667 0 0 0 3.3066666666666666 4.906666666666666c18.88 7.1466666666666665 34.026666666666664 12.159999999999998 37.54666666666667 19.52a53.33333333333333 53.33333333333333 0 0 1 5.013333333333333 18.346666666666664 2.7733333333333334 2.7733333333333334 0 0 1 -0.6399999999999999 2.0266666666666664 2.6666666666666665 2.6666666666666665 0 0 1 -1.92 0.8533333333333333H74.66666666666666a2.6666666666666665 2.6666666666666665 0 0 1 -1.92 -0.8533333333333333 2.7733333333333334 2.7733333333333334 0 0 1 -0.6399999999999999 -2.0266666666666664 53.33333333333333 53.33333333333333 0 0 1 5.013333333333333 -18.346666666666664c3.413333333333333 -7.359999999999999 18.88 -12.373333333333331 37.44 -19.413333333333334a5.226666666666667 5.226666666666667 0 0 0 3.3066666666666666 -4.906666666666666v-2.1333333333333333a2.5599999999999996 2.5599999999999996 0 0 0 -2.6666666666666665 -2.6666666666666665 39.46666666666667 39.46666666666667 0 0 1 -23.68 -6.186666666666666ZM45.33333333333333 32a10.666666666666666 10.666666666666666 0 0 1 10.666666666666666 -10.666666666666666H186.66666666666666a2.6666666666666665 2.6666666666666665 0 0 1 2.6666666666666665 2.6666666666666665v16a2.6666666666666665 2.6666666666666665 0 0 1 -2.6666666666666665 2.6666666666666665H56a10.666666666666666 10.666666666666666 0 0 1 -10.666666666666666 -10.666666666666666Z" fill="#ffffff" stroke-width="10.6667"></path>
</svg>