<svg xmlns="http://www.w3.org/2000/svg" id="Single-Man-Focus--Streamline-Ultimate" width="256" height="256" viewBox="0 0 256 256"><desc>Single Man Focus Streamline Icon: https://streamlinehq.com</desc><g id="Single-Man-Focus--Streamline-Ultimate.svg"><path fill="#fff" stroke-width="10.667" d="m82.13333333333333 234.66666666666666 -55.46666666666667 0a5.013333333333333 5.013333333333333 0 0 1 -3.733333333333333 -1.5999999999999999 5.013333333333333 5.013333333333333 0 0 1 -1.5999999999999999 -3.3066666666666666V173.86666666666667a10.666666666666666 10.666666666666666 0 0 0 -21.333333333333332 0V234.66666666666666a21.333333333333332 21.333333333333332 0 0 0 21.333333333333332 21.333333333333332h60.8a10.666666666666666 10.666666666666666 0 0 0 0 -21.333333333333332Z"/><path fill="#fff" stroke-width="10.667" d="M10.666666666666666 92.79999999999998a10.666666666666666 10.666666666666666 0 0 0 10.666666666666666 -10.666666666666666l0 -55.46666666666667a5.013333333333333 5.013333333333333 0 0 1 1.5999999999999999 -3.733333333333333 5.013333333333333 5.013333333333333 0 0 1 3.3066666666666666 -1.5999999999999999H82.13333333333333a10.666666666666666 10.666666666666666 0 0 0 0 -21.333333333333332H21.333333333333332a21.333333333333332 21.333333333333332 0 0 0 -21.333333333333332 21.333333333333332v60.8a10.666666666666666 10.666666666666666 0 0 0 10.666666666666666 10.666666666666666Z"/><path fill="#fff" stroke-width="10.667" d="M245.33333333333331 163.2a10.666666666666666 10.666666666666666 0 0 0 -10.666666666666666 10.666666666666666l0 55.46666666666667a5.4399999999999995 5.4399999999999995 0 0 1 -5.333333333333333 5.333333333333333h-55.46666666666667a10.666666666666666 10.666666666666666 0 1 0 0 21.333333333333332H234.66666666666666a21.333333333333332 21.333333333333332 0 0 0 21.333333333333332 -21.333333333333332v-60.8a10.666666666666666 10.666666666666666 0 0 0 -10.666666666666666 -10.666666666666666Z"/><path fill="#fff" stroke-width="10.667" d="M234.66666666666666 0h-60.8a10.666666666666666 10.666666666666666 0 0 0 0 21.333333333333332l55.46666666666667 0a5.013333333333333 5.013333333333333 0 0 1 3.733333333333333 1.5999999999999999 5.013333333333333 5.013333333333333 0 0 1 1.5999999999999999 3.733333333333333v55.46666666666667a10.666666666666666 10.666666666666666 0 0 0 21.333333333333332 0V21.333333333333332a21.333333333333332 21.333333333333332 0 0 0 -21.333333333333332 -21.333333333333332Z"/><path fill="#fff" stroke-width="10.667" d="M128 144A48 48 0 1 0 80 96a48.10666666666666 48.10666666666666 0 0 0 48 48Zm0 -21.333333333333332A26.666666666666664 26.666666666666664 0 0 1 101.33333333333333 96a27.839999999999996 27.839999999999996 0 0 1 1.0666666666666667 -7.359999999999999 5.4399999999999995 5.4399999999999995 0 0 1 2.986666666666667 -3.3066666666666666 5.119999999999999 5.119999999999999 0 0 1 4.4799999999999995 0 73.91999999999999 73.91999999999999 0 0 0 33.28 7.893333333333333 65.81333333333333 65.81333333333333 0 0 0 8 0 3.1999999999999997 3.1999999999999997 0 0 1 2.453333333333333 0.7466666666666667 3.413333333333333 3.413333333333333 0 0 1 1.0666666666666667 2.3466666666666667A26.666666666666664 26.666666666666664 0 0 1 128 122.66666666666666Z"/><path fill="#fff" stroke-width="10.667" d="M64.53333333333333 189.54666666666665a5.653333333333333 5.653333333333333 0 0 0 0 5.226666666666667 5.4399999999999995 5.4399999999999995 0 0 0 4.586666666666666 2.5599999999999996h117.33333333333333a5.4399999999999995 5.4399999999999995 0 0 0 4.586666666666666 -2.5599999999999996 5.653333333333333 5.653333333333333 0 0 0 0 -5.226666666666667 72.53333333333333 72.53333333333333 0 0 0 -126.93333333333334 0Z"/></g></svg>