<svg xmlns="http://www.w3.org/2000/svg" viewBox="0 0 256 256" id="Single-Woman--Streamline-Ultimate" height="256" width="256">
  <desc>
    Single Woman Streamline Icon: https://streamlinehq.com
  </desc>
  <g id="Single-Woman--Streamline-Ultimate.svg">
    <path d="m192 190.4 -19.2 -66.98666666666666a44.906666666666666 44.906666666666666 0 0 0 -13.226666666666667 -22.72 5.119999999999999 5.119999999999999 0 0 0 -4.266666666666667 -1.3866666666666667 5.226666666666667 5.226666666666667 0 0 0 -3.84 2.453333333333333l-18.986666666666665 29.439999999999998a5.333333333333333 5.333333333333333 0 0 1 -8.959999999999999 0L104.96 101.54666666666665a5.546666666666667 5.546666666666667 0 0 0 -3.84 -2.453333333333333 5.226666666666667 5.226666666666667 0 0 0 -4.266666666666667 1.3866666666666667 44.906666666666666 44.906666666666666 0 0 0 -13.44 22.72L64 190.4a5.653333333333333 5.653333333333333 0 0 0 0.8533333333333333 4.693333333333333 5.4399999999999995 5.4399999999999995 0 0 0 4.266666666666667 2.0266666666666664h24.959999999999997a2.7733333333333334 2.7733333333333334 0 0 1 2.6666666666666665 2.2399999999999998l9.92 52.266666666666666a5.226666666666667 5.226666666666667 0 0 0 5.226666666666667 4.16h32a5.226666666666667 5.226666666666667 0 0 0 5.226666666666667 -4.16l9.92 -52.266666666666666a2.7733333333333334 2.7733333333333334 0 0 1 2.6666666666666665 -2.2399999999999998h24.959999999999997a5.4399999999999995 5.4399999999999995 0 0 0 4.266666666666667 -2.0266666666666664 5.653333333333333 5.653333333333333 0 0 0 1.0666666666666667 -4.693333333333333Z" fill="#ffffff" stroke-width="10.6667"></path>
    <path d="M128 90.88a45.33333333333333 45.33333333333333 0 1 0 -45.54666666666666 -45.33333333333333A45.44 45.44 0 0 0 128 90.88Zm0 -21.333333333333332a24.106666666666662 24.106666666666662 0 0 1 -23.253333333333334 -17.493333333333332 2.6666666666666665 2.6666666666666665 0 0 1 1.92 -3.3066666666666666 50.346666666666664 50.346666666666664 0 0 0 19.2 -12.159999999999998 2.88 2.88 0 0 1 3.84 0A49.6 49.6 0 0 0 149.33333333333331 48.74666666666667a2.88 2.88 0 0 1 1.7066666666666666 3.3066666666666666A24.106666666666662 24.106666666666662 0 0 1 128 69.54666666666665Z" fill="#ffffff" stroke-width="10.6667"></path>
  </g>
</svg>