<svg xmlns="http://www.w3.org/2000/svg" viewBox="0 0 256 256" id="Single-Neutral-Folder-Box--Streamline-Ultimate" height="256" width="256">
  <desc>
    Single Neutral Folder Box Streamline Icon: https://streamlinehq.com
  </desc>
  <g id="Single-Neutral-Folder-Box--Streamline-Ultimate.svg">
    <path d="M64 21.333333333333332h36.266666666666666a7.893333333333333 7.893333333333333 0 0 1 7.04 4.4799999999999995A29.439999999999998 29.439999999999998 0 0 0 133.76 42.666666666666664H202.66666666666666a10.666666666666666 10.666666666666666 0 0 0 0 -21.333333333333332h-68.90666666666667a7.893333333333333 7.893333333333333 0 0 1 -7.04 -4.4799999999999995A29.439999999999998 29.439999999999998 0 0 0 100.26666666666667 0H64a10.666666666666666 10.666666666666666 0 0 0 0 21.333333333333332Z" fill="#ffffff" stroke-width="10.6667"></path>
    <path d="M197.33333333333331 170.66666666666666a26.666666666666664 26.666666666666664 0 0 0 -26.666666666666664 26.666666666666664 5.333333333333333 5.333333333333333 0 0 1 -5.333333333333333 5.333333333333333h-74.66666666666666a5.333333333333333 5.333333333333333 0 0 1 -5.333333333333333 -5.333333333333333A26.666666666666664 26.666666666666664 0 0 0 58.666666666666664 170.66666666666666h-53.33333333333333a5.333333333333333 5.333333333333333 0 0 0 -5.333333333333333 5.333333333333333v74.66666666666666a5.333333333333333 5.333333333333333 0 0 0 5.333333333333333 5.333333333333333h245.33333333333331a5.333333333333333 5.333333333333333 0 0 0 5.333333333333333 -5.333333333333333v-74.66666666666666a5.333333333333333 5.333333333333333 0 0 0 -5.333333333333333 -5.333333333333333Z" fill="#ffffff" stroke-width="10.6667"></path>
    <path d="M42.666666666666664 154.66666666666666a5.333333333333333 5.333333333333333 0 0 0 5.333333333333333 -5.333333333333333V61.33333333333333a5.333333333333333 5.333333333333333 0 0 1 5.333333333333333 -5.333333333333333h30.93333333333333a7.893333333333333 7.893333333333333 0 0 1 7.04 4.4799999999999995A29.439999999999998 29.439999999999998 0 0 0 117.33333333333333 77.33333333333333h85.33333333333333a5.333333333333333 5.333333333333333 0 0 1 5.333333333333333 5.333333333333333V149.33333333333331a5.333333333333333 5.333333333333333 0 0 0 5.333333333333333 5.333333333333333h10.666666666666666a5.653333333333333 5.653333333333333 0 0 0 4.16 -1.92 5.653333333333333 5.653333333333333 0 0 0 1.0666666666666667 -4.4799999999999995V66.66666666666666a10.666666666666666 10.666666666666666 0 0 0 -10.666666666666666 -10.666666666666666H117.33333333333333a7.893333333333333 7.893333333333333 0 0 1 -7.04 -4.4799999999999995A29.439999999999998 29.439999999999998 0 0 0 84.26666666666667 34.666666666666664H37.33333333333333a10.666666666666666 10.666666666666666 0 0 0 -10.666666666666666 10.666666666666666v102.93333333333334a5.653333333333333 5.653333333333333 0 0 0 1.0666666666666667 4.4799999999999995 5.653333333333333 5.653333333333333 0 0 0 4.266666666666667 1.92Z" fill="#ffffff" stroke-width="10.6667"></path>
    <path d="M107.52 112a21.333333333333332 21.333333333333332 0 1 0 42.666666666666664 0 21.333333333333332 21.333333333333332 0 1 0 -42.666666666666664 0" fill="#ffffff" stroke-width="10.6667"></path>
    <path d="M128.85333333333332 138.66666666666666a38.08 38.08 0 0 0 -35.093333333333334 24.746666666666663 5.333333333333333 5.333333333333333 0 0 0 5.013333333333333 7.253333333333334h60.16a5.333333333333333 5.333333333333333 0 0 0 5.013333333333333 -7.253333333333334A38.08 38.08 0 0 0 128.85333333333332 138.66666666666666Z" fill="#ffffff" stroke-width="10.6667"></path>
  </g>
</svg>