<svg xmlns="http://www.w3.org/2000/svg" id="Skateboard-Person--Streamline-Ultimate" width="256" height="256" viewBox="0 0 256 256"><desc>Skateboard Person Streamline Icon: https://streamlinehq.com</desc><g id="Skateboard-Person--Streamline-Ultimate.svg"><path fill="#fff" stroke-width="10.667" d="M112 32a26.666666666666664 26.666666666666664 0 1 0 53.33333333333333 0 26.666666666666664 26.666666666666664 0 1 0 -53.33333333333333 0"/><path fill="#fff" stroke-width="10.667" d="M150.61333333333332 169.06666666666666a37.013333333333335 37.013333333333335 0 0 0 -19.2 -21.333333333333332l-19.733333333333334 -9.6 19.413333333333334 -29.973333333333333a2.7733333333333334 2.7733333333333334 0 0 1 2.2399999999999998 -1.4933333333333334h74.66666666666666a16 16 0 0 0 0 -32h-170.66666666666666a16 16 0 0 0 0 32h53.33333333333333a2.6666666666666665 2.6666666666666665 0 0 1 2.3466666666666667 1.3866666666666667 2.986666666666667 2.986666666666667 0 0 1 0 2.6666666666666665L23.46666666666667 226.66666666666666a16 16 0 0 0 27.733333333333334 16l43.199999999999996 -74.66666666666666a2.5599999999999996 2.5599999999999996 0 0 1 3.413333333333333 -1.0666666666666667l19.733333333333334 9.493333333333332a5.013333333333333 5.013333333333333 0 0 1 2.7733333333333334 3.093333333333333 5.653333333333333 5.653333333333333 0 0 1 0 4.16l-2.3466666666666667 4.693333333333333a2.453333333333333 2.453333333333333 0 0 0 0 2.5599999999999996 2.5599999999999996 2.5599999999999996 0 0 0 2.2399999999999998 1.2799999999999998H149.33333333333331a2.5599999999999996 2.5599999999999996 0 0 0 2.5599999999999996 -2.0266666666666664 36.8 36.8 0 0 0 -1.2799999999999998 -21.119999999999997Z"/><path fill="#fff" stroke-width="10.667" d="M224 202.66666666666666H96a10.666666666666666 10.666666666666666 0 0 0 0 21.333333333333332h128a10.666666666666666 10.666666666666666 0 0 0 0 -21.333333333333332Z"/><path fill="#fff" stroke-width="10.667" d="M192 240a10.666666666666666 10.666666666666666 0 1 0 21.333333333333332 0 10.666666666666666 10.666666666666666 0 1 0 -21.333333333333332 0"/><path fill="#fff" stroke-width="10.667" d="M106.66666666666666 240a10.666666666666666 10.666666666666666 0 1 0 21.333333333333332 0 10.666666666666666 10.666666666666666 0 1 0 -21.333333333333332 0"/></g></svg>