<svg xmlns="http://www.w3.org/2000/svg" viewBox="0 0 256 256" id="Skating-1--Streamline-Ultimate" height="256" width="256">
  <desc>
    Skating 1 Streamline Icon: https://streamlinehq.com
  </desc>
  <g id="Skating-1--Streamline-Ultimate.svg">
    <path d="M176 28.05333333333333a26.666666666666664 26.666666666666664 0 1 0 53.33333333333333 0 26.666666666666664 26.666666666666664 0 1 0 -53.33333333333333 0" fill="#ffffff" stroke-width="10.6667"></path>
    <path d="M221.33333333333331 212.0533333333333a10.666666666666666 10.666666666666666 0 0 0 0 21.333333333333332H138.66666666666666a10.666666666666666 10.666666666666666 0 1 0 0 21.333333333333332h82.66666666666666a21.333333333333332 21.333333333333332 0 0 0 0 -42.666666666666664Z" fill="#ffffff" stroke-width="10.6667"></path>
    <path d="M162.66666666666666 204.0533333333333h26.666666666666664s2.6666666666666665 0 2.6666666666666665 2.6666666666666665v13.333333333333332s0 2.6666666666666665 -2.6666666666666665 2.6666666666666665h-26.666666666666664s-2.6666666666666665 0 -2.6666666666666665 -2.6666666666666665v-13.333333333333332s0 -2.6666666666666665 2.6666666666666665 -2.6666666666666665" fill="#ffffff" stroke-width="10.6667"></path>
    <path d="M48 150.82666666666665h13.333333333333332s2.6666666666666665 0 2.6666666666666665 2.6666666666666665v26.666666666666664s0 2.6666666666666665 -2.6666666666666665 2.6666666666666665H48s-2.6666666666666665 0 -2.6666666666666665 -2.6666666666666665v-26.666666666666664s0 -2.6666666666666665 2.6666666666666665 -2.6666666666666665" fill="#ffffff" stroke-width="10.6667"></path>
    <path d="M192 172.16a48.213333333333324 48.213333333333324 0 0 0 -19.2 -38.4l-13.653333333333332 -10.666666666666666 24.319999999999997 -32a16 16 0 0 0 -12.799999999999999 -25.599999999999998H80a16 16 0 1 0 0 32h53.33333333333333a2.7733333333333334 2.7733333333333334 0 0 1 2.3466666666666667 1.4933333333333334 2.453333333333333 2.453333333333333 0 0 1 0 2.7733333333333334l-32 42.666666666666664a15.893333333333333 15.893333333333333 0 0 1 -12.799999999999999 6.3999999999999995H77.33333333333333a2.6666666666666665 2.6666666666666665 0 0 0 -2.6666666666666665 2.6666666666666665v26.666666666666664a2.6666666666666665 2.6666666666666665 0 0 0 2.6666666666666665 2.6666666666666665H90.66666666666666a48.213333333333324 48.213333333333324 0 0 0 38.4 -19.2l10.666666666666666 -14.506666666666668 13.653333333333332 10.666666666666666a15.893333333333333 15.893333333333333 0 0 1 6.3999999999999995 12.799999999999999v18.56a2.6666666666666665 2.6666666666666665 0 0 0 2.6666666666666665 2.5599999999999996h26.666666666666664a2.6666666666666665 2.6666666666666665 0 0 0 2.6666666666666665 -2.5599999999999996Z" fill="#ffffff" stroke-width="10.6667"></path>
    <path d="M34.666666666666664 129.49333333333334a10.666666666666666 10.666666666666666 0 0 0 -21.333333333333332 0v82.66666666666666a21.333333333333332 21.333333333333332 0 0 0 42.666666666666664 0 10.666666666666666 10.666666666666666 0 0 0 -21.333333333333332 0Z" fill="#ffffff" stroke-width="10.6667"></path>
  </g>
</svg>