<svg xmlns="http://www.w3.org/2000/svg" viewBox="0 0 256 256" id="Skiing-Snow-Scooter-Person--Streamline-Ultimate" height="256" width="256">
  <desc>
    Skiing Snow Scooter Person Streamline Icon: https://streamlinehq.com
  </desc>
  <g id="Skiing-Snow-Scooter-Person--Streamline-Ultimate.svg">
    <path d="M50.666666666666664 25.386666666666663a21.333333333333332 21.333333333333332 0 1 0 42.666666666666664 0 21.333333333333332 21.333333333333332 0 1 0 -42.666666666666664 0" fill="#ffffff" stroke-width="10.6667"></path>
    <path d="M245.33333333333331 203.94666666666666a10.666666666666666 10.666666666666666 0 0 0 -10.666666666666666 10.666666666666666 16 16 0 0 1 -16 16H10.666666666666666a10.666666666666666 10.666666666666666 0 0 0 0 21.333333333333332h208a37.33333333333333 37.33333333333333 0 0 0 37.33333333333333 -37.33333333333333 10.666666666666666 10.666666666666666 0 0 0 -10.666666666666666 -10.666666666666666Z" fill="#ffffff" stroke-width="10.6667"></path>
    <path d="M22.826666666666668 214.61333333333334h167.35999999999999a32 32 0 0 0 19.2 -6.3999999999999995l26.560000000000002 -19.84a32 32 0 0 0 10.666666666666666 -37.65333333333333 55.04 55.04 0 0 0 -24.959999999999997 -27.306666666666665s-50.346666666666664 -26.24 -53.33333333333333 -26.560000000000002L160 69.22666666666666a10.666666666666666 10.666666666666666 0 0 0 -13.44 -6.72 10.666666666666666 10.666666666666666 0 0 0 -6.72 13.44L149.33333333333331 105.27999999999999c-4.586666666666666 6.293333333333333 -3.9466666666666663 13.973333333333333 -15.253333333333332 23.893333333333334a41.92 41.92 0 0 1 -28.16 10.666666666666666H85.33333333333333a2.6666666666666665 2.6666666666666665 0 0 1 -2.6666666666666665 -2.5599999999999996v-14.506666666666668a2.3466666666666667 2.3466666666666667 0 0 1 1.2799999999999998 -2.2399999999999998 2.453333333333333 2.453333333333333 0 0 1 2.5599999999999996 0 70.50666666666666 70.50666666666666 0 0 0 28.16 6.3999999999999995 16 16 0 0 0 0 -32 33.70666666666666 33.70666666666666 0 0 1 -28.16 -15.36l-6.506666666666666 -9.813333333333333a16.106666666666666 16.106666666666666 0 0 0 -17.919999999999998 -6.3999999999999995 15.893333333333333 15.893333333333333 0 0 0 -11.413333333333334 15.36v61.22666666666667H37.33333333333333a21.333333333333332 21.333333333333332 0 0 0 -21.333333333333332 20.05333333333333l-8.64 34.773333333333326A15.573333333333332 15.573333333333332 0 0 0 10.666666666666666 208.53333333333333a15.786666666666665 15.786666666666665 0 0 0 12.159999999999998 6.079999999999999Zm14.08 -51.199999999999996a2.6666666666666665 2.6666666666666665 0 0 1 2.5599999999999996 -2.1333333333333333h66.13333333333333A62.82666666666666 62.82666666666666 0 0 0 165.76 117.33333333333333c49.81333333333333 26.666666666666664 55.14666666666666 27.199999999999996 60.906666666666666 41.17333333333333a10.666666666666666 10.666666666666666 0 0 1 -3.52 12.373333333333331l-4.4799999999999995 3.413333333333333h-181.33333333333331a2.453333333333333 2.453333333333333 0 0 1 -2.0266666666666664 -1.0666666666666667 2.453333333333333 2.453333333333333 0 0 1 0 -2.2399999999999998Z" fill="#ffffff" stroke-width="10.6667"></path>
  </g>
</svg>