<svg xmlns="http://www.w3.org/2000/svg" id="Skull-1--Streamline-Ultimate" width="256" height="256" viewBox="0 0 256 256"><desc>Skull 1 Streamline Icon: https://streamlinehq.com</desc><path fill="#fff" stroke-width="10.667" d="M128 0A109.44 109.44 0 0 0 18.666666666666664 109.33333333333333a108.26666666666667 108.26666666666667 0 0 0 32 77.22666666666666v40.10666666666666a29.333333333333332 29.333333333333332 0 0 0 53.33333333333333 16.85333333333333 29.333333333333332 29.333333333333332 0 0 0 48 0 29.333333333333332 29.333333333333332 0 0 0 53.33333333333333 -16.85333333333333v-40.10666666666666a108.26666666666667 108.26666666666667 0 0 0 32 -77.22666666666666A109.44 109.44 0 0 0 128 0Zm24 109.33333333333333a24 24 0 1 1 24 24 24 24 0 0 1 -24 -24Zm-5.333333333333333 73.28a2.6666666666666665 2.6666666666666665 0 0 1 -2.3466666666666667 1.3866666666666667h-32.64a2.6666666666666665 2.6666666666666665 0 0 1 -2.3466666666666667 -1.3866666666666667 2.5599999999999996 2.5599999999999996 0 0 1 0 -2.7733333333333334l16.32 -24.53333333333333a2.7733333333333334 2.7733333333333334 0 0 1 4.4799999999999995 0l16.32 24.53333333333333a2.5599999999999996 2.5599999999999996 0 0 1 0.21333333333333332 2.7733333333333334Zm-90.66666666666666 -73.28A24 24 0 1 1 80 133.33333333333331a24 24 0 0 1 -24 -24Z"/></svg>