<svg xmlns="http://www.w3.org/2000/svg" id="Skype-Logo--Streamline-Ultimate" width="256" height="256" viewBox="0 0 256 256"><desc>Skype Logo Streamline Icon: https://streamlinehq.com</desc><path fill="#fff" stroke-width="10.667" d="M128 238.4a111.03999999999999 111.03999999999999 0 0 0 16.85333333333333 -1.2799999999999998 5.013333333333333 5.013333333333333 0 0 1 3.3066666666666666 0.5333333333333333 66.45333333333333 66.45333333333333 0 0 0 89.17333333333332 -90.77333333333333 5.013333333333333 5.013333333333333 0 0 1 0 -3.3066666666666666 107.73333333333332 107.73333333333332 0 0 0 1.0666666666666667 -15.466666666666665A110.18666666666667 110.18666666666667 0 0 0 128 17.706666666666663a106.66666666666666 106.66666666666666 0 0 0 -16.426666666666666 1.2799999999999998 5.013333333333333 5.013333333333333 0 0 1 -3.3066666666666666 -0.5333333333333333A65.81333333333333 65.81333333333333 0 0 0 77.01333333333332 10.666666666666666a66.56 66.56 0 0 0 -58.346666666666664 98.24000000000001 5.119999999999999 5.119999999999999 0 0 1 0.5333333333333333 3.3066666666666666A114.98666666666665 114.98666666666665 0 0 0 18.026666666666664 128 110.18666666666667 110.18666666666667 0 0 0 128 238.4ZM129.06666666666666 53.33333333333333c33.70666666666666 2.0266666666666664 53.33333333333333 16.96 55.36 30.826666666666668a14.186666666666667 14.186666666666667 0 0 1 -15.573333333333332 16.106666666666666c-15.253333333333332 0 -16.746666666666666 -20.37333333333333 -42.666666666666664 -20.37333333333333C114.02666666666666 80 104 85.33333333333333 104 96c0 22.4 84.16 9.386666666666667 84.16 58.773333333333326 0 28.479999999999997 -22.72 47.04 -56.53333333333333 47.04 -29.759999999999998 0 -59.73333333333333 -13.546666666666667 -59.519999999999996 -36.8a13.013333333333332 13.013333333333332 0 0 1 12.159999999999998 -13.866666666666667c17.599999999999998 0 17.386666666666663 26.133333333333333 45.33333333333333 26.133333333333333 19.52 0 26.24 -10.666666666666666 26.24 -18.24 0 -26.986666666666665 -84.58666666666666 -10.666666666666666 -84.58666666666666 -61.22666666666667C71.25333333333333 70.39999999999999 93.75999999999999 51.413333333333334 129.06666666666666 53.33333333333333Z"/></svg>