<svg xmlns="http://www.w3.org/2000/svg" fill="none" viewBox="0 0 256 256" id="Sleep-Zzz--Streamline-Ultimate" height="256" width="256">
  <desc>
    Sleep Zzz Streamline Icon: https://streamlinehq.com
  </desc>
  <path fill="#ffffff" fill-rule="evenodd" d="M124.61973333333333 83.18549333333333c1.76 3.7383466666666667 5.52 6.124479999999999 9.6512 6.124479999999999h56.2208c5.890133333333333 0 10.666666666666666 -4.7756799999999995 10.666666666666666 -10.666666666666666 0 -5.891093333333332 -4.776533333333333 -10.666666666666666 -10.666666666666666 -10.666666666666666h-33.556266666666666l41.77493333333333 -50.51189333333333c2.6336 -3.1837866666666668 3.191466666666667 -7.602005333333333 1.4314666666666667 -11.340352C198.38293333333334 2.3860479999999997 194.62293333333332 0 190.49066666666664 0h-56.21973333333333c-5.8911999999999995 0 -10.666666666666666 4.775626666666666 -10.666666666666666 10.666666666666666 0 5.890986666666667 4.7754666666666665 10.666666666666666 10.666666666666666 10.666666666666666h33.556266666666666l-41.775999999999996 50.511786666666666c-2.6336 3.183893333333333 -3.1903999999999995 7.602026666666667 -1.4314666666666667 11.340373333333334ZM1.1560959999999998 174.33813333333333c1.7594346666666667 3.738666666666666 5.519509333333333 6.1248000000000005 9.651157333333334 6.1248000000000005h75.38986666666666c5.891093333333332 0 10.666666666666666 -4.7754666666666665 10.666666666666666 -10.666666666666666s-4.775573333333333 -10.666666666666666 -10.666666666666666 -10.666666666666666H33.47125333333333l60.9456 -73.68992c2.633173333333333 -3.183893333333333 3.1909333333333336 -7.602026666666667 1.4314666666666667 -11.340373333333334 -1.75936 -3.7383466666666667 -5.519466666666666 -6.124373333333333 -9.6512 -6.124373333333333h-75.38986666666666c-5.890997333333333 0 -10.666628266666667 4.775573333333333 -10.666628266666667 10.666666666666666 0 5.890986666666667 4.775630933333333 10.666666666666666 10.666628266666667 10.666666666666666h52.72586666666667L2.5875946666666665 162.9984c-2.633217173333333 3.1839999999999997 -3.1909258666666664 7.602133333333333 -1.4314986666666665 11.339733333333331ZM152.5056 256.00106666666665c-4.132266666666666 0 -7.892266666666666 -2.3861333333333334 -9.6512 -6.1248000000000005 -1.76 -3.738666666666666 -1.2021333333333333 -8.1568 1.4314666666666667 -11.339733333333331l74.90346666666666 -90.56746666666666h-66.68373333333332c-5.8911999999999995 0 -10.666666666666666 -4.7754666666666665 -10.666666666666666 -10.666666666666666s4.7754666666666665 -10.666666666666666 10.666666666666666 -10.666666666666666h89.3472c4.132266666666666 0 7.892266666666666 2.3861333333333334 9.6512 6.1248000000000005 1.76 3.7375999999999996 1.2021333333333333 8.155733333333332 -1.4314666666666667 11.339733333333331l-74.90346666666666 90.56746666666666h66.68373333333332c5.8911999999999995 0 10.666666666666666 4.7754666666666665 10.666666666666666 10.666666666666666s-4.7754666666666665 10.666666666666666 -10.666666666666666 10.666666666666666h-89.3472Z" clip-rule="evenodd" stroke-width="10.6667"></path>
</svg>