<svg xmlns="http://www.w3.org/2000/svg" fill="none" viewBox="0 0 256 256" id="Small-Office-Briefcase--Streamline-Ultimate" height="256" width="256">
  <desc>
    Small Office Briefcase Streamline Icon: https://streamlinehq.com
  </desc>
  <path fill="#ffffff" fill-rule="evenodd" d="M121.568 2.1546666666666665a10.666666666666666 10.666666666666666 0 0 1 12.863999999999999 0l113.17333333333332 85.52533333333334a9.941333333333333 9.941333333333333 0 0 1 1.1306666666666665 0.9813333333333333c2.7733333333333334 2.784 7.264 8.501333333333333 7.264 15.872v130.368C256 247.69066666666666 245.376 256 234.944 256H21.045333333333332C8.213333333333333 256 0 245.25866666666664 0 234.9013333333333V104.53333333333333c0 -7.359999999999999 4.4799999999999995 -13.088000000000001 7.253333333333334 -15.872a10.666666666666666 10.666666666666666 0 0 1 1.1413333333333333 -0.9813333333333333L121.568 2.1546666666666665Zm-7.68 96.512a2.6666666666666665 2.6666666666666665 0 0 0 -2.474666666666667 1.6746666666666665l-4.661333333333333 11.658666666666665h42.495999999999995l-4.661333333333333 -11.658666666666665a2.6666666666666665 2.6666666666666665 0 0 0 -2.474666666666667 -1.6746666666666665h-28.223999999999997Zm-17.333333333333332 -4.266666666666667 -7.04 17.599999999999998H69.33333333333333a10.666666666666666 10.666666666666666 0 0 0 -10.666666666666666 10.666666666666666v24h138.66666666666666V122.66666666666666a10.666666666666666 10.666666666666666 0 0 0 -10.666666666666666 -10.666666666666666h-20.18133333333333l-7.04 -17.599999999999998a18.666666666666664 18.666666666666664 0 0 0 -17.333333333333332 -11.733333333333334h-28.223999999999997a18.666666666666664 18.666666666666664 0 0 0 -17.333333333333332 11.733333333333334Zm23.44533333333333 68.26666666666667v13.333333333333332a8 8 0 0 0 16 0v-13.333333333333332h61.33333333333333v45.33333333333333a10.666666666666666 10.666666666666666 0 0 1 -10.666666666666666 10.666666666666666h-117.33333333333333a10.666666666666666 10.666666666666666 0 0 1 -10.666666666666666 -10.666666666666666v-45.33333333333333h61.33333333333333Z" clip-rule="evenodd" stroke-width="10.6667"></path>
</svg>