<svg xmlns="http://www.w3.org/2000/svg" id="Smart-Tv-And-Phone--Streamline-Ultimate" width="256" height="256" viewBox="0 0 256 256"><desc>Smart Tv And Phone Streamline Icon: https://streamlinehq.com</desc><g id="Smart-Tv-And-Phone--Streamline-Ultimate.svg"><path fill="#fff" stroke-width="10.667" d="M42.666666666666664 45.44a8 8 0 0 0 11.626666666666667 11.306666666666667 13.546666666666667 13.546666666666667 0 0 1 18.88 0 8 8 0 0 0 11.306666666666667 0 8 8 0 0 0 0 -11.306666666666667 30.08 30.08 0 0 0 -41.81333333333333 0Z"/><path fill="#fff" stroke-width="10.667" d="M32 34.13333333333333a45.33333333333333 45.33333333333333 0 0 1 64 0 8.426666666666666 8.426666666666666 0 0 0 5.653333333333333 2.3466666666666667 8.213333333333333 8.213333333333333 0 0 0 5.013333333333333 -2.3466666666666667 8 8 0 0 0 0 -11.306666666666667 61.22666666666667 61.22666666666667 0 0 0 -86.72 0A8 8 0 0 0 32 34.13333333333333Z"/><path fill="#fff" stroke-width="10.667" d="M183.04 41.92A8 8 0 1 0 194.34666666666664 53.33333333333333 13.333333333333332 13.333333333333332 0 0 1 213.33333333333331 53.33333333333333a8 8 0 0 0 5.653333333333333 2.3466666666666667 8.426666666666666 8.426666666666666 0 0 0 5.546666666666667 -2.3466666666666667 8 8 0 0 0 0 -11.306666666666667 29.439999999999998 29.439999999999998 0 0 0 -41.49333333333333 -0.10666666666666666Z"/><path fill="#fff" stroke-width="10.667" d="M171.73333333333335 30.613333333333333a45.33333333333333 45.33333333333333 0 0 1 64 0 8.213333333333333 8.213333333333333 0 0 0 5.653333333333333 2.3466666666666667 8.426666666666666 8.426666666666666 0 0 0 5.653333333333333 -2.3466666666666667 8 8 0 0 0 0 -11.306666666666667 61.22666666666667 61.22666666666667 0 0 0 -86.72 0 7.893333333333333 7.893333333333333 0 0 0 0 11.306666666666667 8 8 0 0 0 11.413333333333334 0Z"/><path fill="#fff" stroke-width="10.667" d="M143.25333333333333 192H23.68a3.626666666666667 3.626666666666667 0 0 1 -3.626666666666667 -3.626666666666667V97.06666666666666a3.626666666666667 3.626666666666667 0 0 1 3.626666666666667 -3.626666666666667h119.57333333333334a38.82666666666667 38.82666666666667 0 0 1 6.826666666666666 -14.719999999999999H16.32a10.666666666666666 10.666666666666666 0 0 0 -10.666666666666666 10.666666666666666v121.27999999999999a10.666666666666666 10.666666666666666 0 0 0 10.666666666666666 10.666666666666666h67.84a1.92 1.92 0 0 1 1.8133333333333335 1.8133333333333335v14.719999999999999a1.92 1.92 0 0 1 -1.8133333333333335 1.8133333333333335H60.373333333333335a7.359999999999999 7.359999999999999 0 1 0 0 14.719999999999999h65.91999999999999a7.359999999999999 7.359999999999999 0 0 0 0 -14.719999999999999H102.50666666666666a1.8133333333333335 1.8133333333333335 0 0 1 -1.8133333333333335 -1.8133333333333335V224a1.8133333333333335 1.8133333333333335 0 0 1 1.8133333333333335 -1.8133333333333335H170.66666666666666a8.533333333333333 8.533333333333333 0 0 0 1.5999999999999999 0A38.61333333333333 38.61333333333333 0 0 1 143.25333333333333 192Z"/><path fill="#fff" stroke-width="10.667" d="M227.41333333333333 78.82666666666665h-47.25333333333333a23.36 23.36 0 0 0 -23.253333333333334 23.253333333333334v81.6a23.68 23.68 0 0 0 3.9466666666666663 13.013333333333332 23.253333333333334 23.253333333333334 0 0 0 19.306666666666665 10.666666666666666h47.25333333333333a23.36 23.36 0 0 0 23.253333333333334 -23.253333333333334V102.08a23.36 23.36 0 0 0 -23.253333333333334 -23.253333333333334Zm-49.17333333333333 23.253333333333334a1.92 1.92 0 0 1 1.92 -1.92h47.25333333333333a1.92 1.92 0 0 1 1.92 1.92v67.62666666666667h-51.093333333333334Z"/></g></svg>