<svg xmlns="http://www.w3.org/2000/svg" viewBox="0 0 256 256" id="Smart-Watch-Square-Heart--Streamline-Ultimate" height="256" width="256">
  <desc>
    Smart Watch Square Heart Streamline Icon: https://streamlinehq.com
  </desc>
  <g id="Smart-Watch-Square-Heart--Streamline-Ultimate.svg">
    <path d="M175.25333333333333 29.333333333333332a2.6666666666666665 2.6666666666666665 0 0 0 2.1333333333333333 -1.0666666666666667 2.88 2.88 0 0 0 0 -2.453333333333333L170.66666666666666 3.626666666666667a5.333333333333333 5.333333333333333 0 0 0 -5.333333333333333 -3.626666666666667h-74.66666666666666a5.333333333333333 5.333333333333333 0 0 0 -5.333333333333333 3.626666666666667l-7.466666666666666 22.186666666666667a2.88 2.88 0 0 0 0 2.453333333333333 2.6666666666666665 2.6666666666666665 0 0 0 2.1333333333333333 1.0666666666666667Z" fill="#ffffff" stroke-width="10.6667"></path>
    <path d="M80.74666666666667 226.66666666666666a2.6666666666666665 2.6666666666666665 0 0 0 -2.1333333333333333 1.0666666666666667 2.88 2.88 0 0 0 0 2.453333333333333L85.33333333333333 252.37333333333333a5.333333333333333 5.333333333333333 0 0 0 5.333333333333333 3.626666666666667h74.66666666666666a5.333333333333333 5.333333333333333 0 0 0 5.013333333333333 -3.626666666666667l7.466666666666666 -22.186666666666667a2.88 2.88 0 0 0 0 -2.453333333333333 2.6666666666666665 2.6666666666666665 0 0 0 -2.1333333333333333 -1.0666666666666667Z" fill="#ffffff" stroke-width="10.6667"></path>
    <path d="M186.66666666666666 42.666666666666664h-117.33333333333333A26.666666666666664 26.666666666666664 0 0 0 42.666666666666664 69.33333333333333v117.33333333333333A26.666666666666664 26.666666666666664 0 0 0 64 213.33333333333331l122.66666666666666 0.5333333333333333A26.666666666666664 26.666666666666664 0 0 0 213.33333333333331 186.66666666666666v-117.33333333333333A26.666666666666664 26.666666666666664 0 0 0 186.66666666666666 42.666666666666664ZM170.66666666666666 135.25333333333333l-42.666666666666664 44.05333333333333a2.88 2.88 0 0 1 -1.92 0.8533333333333333 2.453333333333333 2.453333333333333 0 0 1 -1.92 -0.8533333333333333l-42.666666666666664 -44.05333333333333a26.133333333333333 26.133333333333333 0 1 1 36.906666666666666 -36.906666666666666l5.333333333333333 5.333333333333333a2.7733333333333334 2.7733333333333334 0 0 0 3.733333333333333 0l5.333333333333333 -5.333333333333333A26.133333333333333 26.133333333333333 0 1 1 170.66666666666666 135.25333333333333Z" fill="#ffffff" stroke-width="10.6667"></path>
  </g>
</svg>