<svg xmlns="http://www.w3.org/2000/svg" id="Smart-Watch-Square-Location--Streamline-Ultimate" width="256" height="256" viewBox="0 0 256 256"><desc>Smart Watch Square Location Streamline Icon: https://streamlinehq.com</desc><g id="Smart-Watch-Square-Location--Streamline-Ultimate.svg"><path fill="#fff" stroke-width="10.667" d="M175.25333333333333 29.333333333333332a2.6666666666666665 2.6666666666666665 0 0 0 2.1333333333333333 -1.0666666666666667 2.88 2.88 0 0 0 0 -2.453333333333333L170.66666666666666 3.626666666666667a5.333333333333333 5.333333333333333 0 0 0 -5.333333333333333 -3.626666666666667h-74.66666666666666a5.333333333333333 5.333333333333333 0 0 0 -5.333333333333333 3.626666666666667l-7.466666666666666 22.186666666666667a2.88 2.88 0 0 0 0 2.453333333333333 2.6666666666666665 2.6666666666666665 0 0 0 2.1333333333333333 1.0666666666666667Z"/><path fill="#fff" stroke-width="10.667" d="M80.74666666666667 226.66666666666666a2.6666666666666665 2.6666666666666665 0 0 0 -2.1333333333333333 1.0666666666666667 2.88 2.88 0 0 0 0 2.453333333333333L85.33333333333333 252.37333333333333a5.333333333333333 5.333333333333333 0 0 0 5.333333333333333 3.626666666666667h74.66666666666666a5.333333333333333 5.333333333333333 0 0 0 5.013333333333333 -3.626666666666667l7.466666666666666 -22.186666666666667a2.88 2.88 0 0 0 0 -2.453333333333333 2.6666666666666665 2.6666666666666665 0 0 0 -2.1333333333333333 -1.0666666666666667Z"/><path fill="#fff" stroke-width="10.667" d="M186.66666666666666 42.666666666666664h-117.33333333333333A26.666666666666664 26.666666666666664 0 0 0 42.666666666666664 69.33333333333333v117.33333333333333A26.77333333333333 26.77333333333333 0 0 0 69.33333333333333 213.33333333333331h117.33333333333333a26.666666666666664 26.666666666666664 0 0 0 26.666666666666664 -26.666666666666664v-117.33333333333333A26.666666666666664 26.666666666666664 0 0 0 186.66666666666666 42.666666666666664Zm-21.333333333333332 74.66666666666666c0 14.08 -15.786666666666665 37.22666666666667 -28.906666666666666 54.08a10.666666666666666 10.666666666666666 0 0 1 -8.426666666666666 4.053333333333333 10.666666666666666 10.666666666666666 0 0 1 -8.426666666666666 -4.053333333333333C106.66666666666666 154.45333333333332 90.66666666666666 131.41333333333333 90.66666666666666 117.33333333333333a37.33333333333333 37.33333333333333 0 0 1 74.66666666666666 0Z"/><path fill="#fff" stroke-width="10.667" d="M117.33333333333333 117.33333333333333a10.666666666666666 10.666666666666666 0 1 0 21.333333333333332 0 10.666666666666666 10.666666666666666 0 1 0 -21.333333333333332 0"/></g></svg>