<svg xmlns="http://www.w3.org/2000/svg" viewBox="0 0 256 256" id="Smart-Watch-Square-Power--Streamline-Ultimate" height="256" width="256">
  <desc>
    Smart Watch Square Power Streamline Icon: https://streamlinehq.com
  </desc>
  <g id="Smart-Watch-Square-Power--Streamline-Ultimate.svg">
    <path d="M175.25333333333333 29.333333333333332a2.6666666666666665 2.6666666666666665 0 0 0 2.1333333333333333 -1.0666666666666667 2.88 2.88 0 0 0 0 -2.453333333333333L170.66666666666666 3.626666666666667a5.333333333333333 5.333333333333333 0 0 0 -5.333333333333333 -3.626666666666667h-74.66666666666666a5.333333333333333 5.333333333333333 0 0 0 -5.333333333333333 3.626666666666667l-7.466666666666666 22.186666666666667a2.88 2.88 0 0 0 0 2.453333333333333 2.6666666666666665 2.6666666666666665 0 0 0 2.1333333333333333 1.0666666666666667Z" fill="#ffffff" stroke-width="10.6667"></path>
    <path d="M80.74666666666667 226.66666666666666a2.6666666666666665 2.6666666666666665 0 0 0 -2.1333333333333333 1.0666666666666667 2.88 2.88 0 0 0 0 2.453333333333333L85.33333333333333 252.37333333333333a5.333333333333333 5.333333333333333 0 0 0 5.333333333333333 3.626666666666667h74.66666666666666a5.333333333333333 5.333333333333333 0 0 0 5.013333333333333 -3.626666666666667l7.466666666666666 -22.186666666666667a2.88 2.88 0 0 0 0 -2.453333333333333 2.6666666666666665 2.6666666666666665 0 0 0 -2.1333333333333333 -1.0666666666666667Z" fill="#ffffff" stroke-width="10.6667"></path>
    <path d="M186.66666666666666 42.666666666666664h-117.33333333333333A26.666666666666664 26.666666666666664 0 0 0 42.666666666666664 69.33333333333333v117.33333333333333A26.77333333333333 26.77333333333333 0 0 0 69.33333333333333 213.33333333333331h117.33333333333333a26.666666666666664 26.666666666666664 0 0 0 26.666666666666664 -26.666666666666664v-117.33333333333333A26.666666666666664 26.666666666666664 0 0 0 186.66666666666666 42.666666666666664ZM128 162.66666666666666a34.666666666666664 34.666666666666664 0 0 0 24.53333333333333 -59.199999999999996 7.893333333333333 7.893333333333333 0 0 1 0 -11.306666666666667 8 8 0 0 1 11.306666666666667 0 50.666666666666664 50.666666666666664 0 1 1 -71.67999999999999 0 8 8 0 0 1 11.306666666666667 0 7.893333333333333 7.893333333333333 0 0 1 0 11.306666666666667 34.666666666666664 34.666666666666664 0 0 0 24.53333333333333 59.199999999999996Zm-8 -46.08V80a8 8 0 0 1 16 0v36.586666666666666a8 8 0 0 1 -16 0Z" fill="#ffffff" stroke-width="10.6667"></path>
  </g>
</svg>