<svg xmlns="http://www.w3.org/2000/svg" id="Smart-Toilet--Streamline-Ultimate" width="256" height="256" viewBox="0 0 256 256"><desc>Smart Toilet Streamline Icon: https://streamlinehq.com</desc><g id="Smart-Toilet--Streamline-Ultimate.svg"><path fill="#fff" stroke-width="10.667" d="M240.10666666666668 21.333333333333332h-21.333333333333332a15.68 15.68 0 0 0 -15.68 15.68v99.30666666666667h36.586666666666666A15.68 15.68 0 0 0 256 120.74666666666667V37.12A15.68 15.68 0 0 0 240.10666666666668 21.333333333333332Z"/><path fill="#fff" stroke-width="10.667" d="M151.25333333333333 105.06666666666666H57.17333333333333a15.68 15.68 0 0 0 0 31.36h125.44a31.36 31.36 0 0 0 -31.36 -31.36Z"/><path fill="#fff" stroke-width="10.667" d="M108.26666666666667 215.14666666666668a10.666666666666666 10.666666666666666 0 0 1 5.226666666666667 10.666666666666666l-4.693333333333333 13.44a10.666666666666666 10.666666666666666 0 0 0 10.666666666666666 12.053333333333331h79.25333333333333a10.666666666666666 10.666666666666666 0 0 0 10.666666666666666 -10.666666666666666v-43.73333333333333a15.573333333333332 15.573333333333332 0 0 1 9.92 -15.04c12.799999999999999 -4.266666666666667 21.333333333333332 -10.666666666666666 21.333333333333332 -24.53333333333333H67.62666666666667c0 29.973333333333333 15.466666666666665 43.519999999999996 40.64 57.81333333333333Z"/><path fill="#fff" stroke-width="10.667" d="M48.74666666666667 91.62666666666667a10.666666666666666 10.666666666666666 0 0 0 10.666666666666666 -10.026666666666666A25.813333333333333 25.813333333333333 0 0 1 83.30666666666666 57.6a10.666666666666666 10.666666666666666 0 0 0 -1.3866666666666667 -21.333333333333332 47.25333333333333 47.25333333333333 0 0 0 -43.84 43.946666666666665 10.666666666666666 10.666666666666666 0 0 0 9.92 11.306666666666667Z"/><path fill="#fff" stroke-width="10.667" d="M78.08 21.333333333333332A10.666666666666666 10.666666666666666 0 0 0 87.57333333333334 9.92 10.666666666666666 10.666666666666666 0 0 0 75.73333333333332 0 82.98666666666666 82.98666666666666 0 0 0 2.1333333333333333 74.02666666666667a10.666666666666666 10.666666666666666 0 0 0 9.386666666666667 11.84h1.2799999999999998a10.666666666666666 10.666666666666666 0 0 0 10.666666666666666 -9.386666666666667A61.54666666666666 61.54666666666666 0 0 1 78.08 21.333333333333332Z"/></g></svg>