<svg xmlns="http://www.w3.org/2000/svg" viewBox="0 0 256 256" id="Smart-Watch-Cirle--Streamline-Ultimate" height="256" width="256">
  <desc>
    Smart Watch Cirle Streamline Icon: https://streamlinehq.com
  </desc>
  <g id="Smart-Watch-Cirle--Streamline-Ultimate.svg">
    <path d="M78.72 32.53333333333333a1.3866666666666667 1.3866666666666667 0 0 0 1.3866666666666667 0 106.66666666666666 106.66666666666666 0 0 1 96 0 1.3866666666666667 1.3866666666666667 0 0 0 1.3866666666666667 0 1.1733333333333333 1.1733333333333333 0 0 0 0 -1.3866666666666667L170.66666666666666 3.9466666666666663a5.226666666666667 5.226666666666667 0 0 0 -5.333333333333333 -3.9466666666666663h-74.66666666666666a5.226666666666667 5.226666666666667 0 0 0 -5.333333333333333 3.9466666666666663l-7.04 27.199999999999996a1.1733333333333333 1.1733333333333333 0 0 0 0.42666666666666664 1.3866666666666667Z" fill="#ffffff" stroke-width="10.6667"></path>
    <path d="M177.28 224a1.3866666666666667 1.3866666666666667 0 0 0 -1.3866666666666667 0 106.66666666666666 106.66666666666666 0 0 1 -96 0 1.3866666666666667 1.3866666666666667 0 0 0 -1.3866666666666667 0 1.1733333333333333 1.1733333333333333 0 0 0 0 1.3866666666666667l6.826666666666666 26.666666666666664a5.226666666666667 5.226666666666667 0 0 0 5.333333333333333 3.9466666666666663h74.66666666666666a5.226666666666667 5.226666666666667 0 0 0 5.119999999999999 -3.9466666666666663l7.253333333333334 -27.199999999999996a1.1733333333333333 1.1733333333333333 0 0 0 -0.42666666666666664 -0.8533333333333333Z" fill="#ffffff" stroke-width="10.6667"></path>
    <path d="M37.33333333333333 128a90.66666666666666 90.66666666666666 0 1 0 181.33333333333331 0 90.66666666666666 90.66666666666666 0 1 0 -181.33333333333331 0" fill="#ffffff" stroke-width="10.6667"></path>
  </g>
</svg>