<svg xmlns="http://www.w3.org/2000/svg" id="Smiley-Unhappy--Streamline-Ultimate" width="256" height="256" viewBox="0 0 256 256"><desc>Smiley Unhappy Streamline Icon: https://streamlinehq.com</desc><path fill="#fff" stroke-width="10.667" d="M128 0a128 128 0 1 0 128 128A128 128 0 0 0 128 0Zm69.12 164.05333333333334a10.666666666666666 10.666666666666666 0 0 1 -12.693333333333332 8.106666666666666A66.24 66.24 0 0 0 170.66666666666666 170.66666666666666a64 64 0 0 0 -49.06666666666666 22.826666666666668 10.666666666666666 10.666666666666666 0 0 1 -8.106666666666666 3.84 10.666666666666666 10.666666666666666 0 0 1 -8.213333333333333 -17.493333333333332A85.33333333333333 85.33333333333333 0 0 1 170.66666666666666 149.33333333333331a79.67999999999999 79.67999999999999 0 0 1 18.24 2.0266666666666664 10.666666666666666 10.666666666666666 0 0 1 8.213333333333333 12.693333333333332ZM101.33333333333333 96a21.333333333333332 21.333333333333332 0 1 1 -21.333333333333332 -21.333333333333332 21.333333333333332 21.333333333333332 0 0 1 21.333333333333332 21.333333333333332Zm53.33333333333333 0a21.333333333333332 21.333333333333332 0 1 1 21.333333333333332 21.333333333333332 21.333333333333332 21.333333333333332 0 0 1 -21.333333333333332 -21.333333333333332Z"/></svg>