<svg xmlns="http://www.w3.org/2000/svg" viewBox="0 0 256 256" id="Smiley-Happy--Streamline-Ultimate" height="256" width="256">
  <desc>
    Smiley Happy Streamline Icon: https://streamlinehq.com
  </desc>
  <path d="M128 0a128 128 0 1 0 128 128A128 128 0 0 0 128 0ZM80 74.66666666666666a21.333333333333332 21.333333333333332 0 1 1 -21.333333333333332 21.333333333333332 21.333333333333332 21.333333333333332 0 0 1 21.333333333333332 -21.333333333333332Zm-4.693333333333333 92.90666666666667a4.586666666666666 4.586666666666666 0 0 1 4.053333333333333 -2.3466666666666667h97.27999999999999a4.586666666666666 4.586666666666666 0 0 1 4.053333333333333 2.3466666666666667 4.586666666666666 4.586666666666666 0 0 1 0 4.693333333333333 60.906666666666666 60.906666666666666 0 0 1 -105.38666666666667 0 4.586666666666666 4.586666666666666 0 0 1 0 -4.693333333333333ZM176 117.33333333333333a21.333333333333332 21.333333333333332 0 1 1 21.333333333333332 -21.333333333333332 21.333333333333332 21.333333333333332 0 0 1 -21.333333333333332 21.333333333333332Z" fill="#ffffff" stroke-width="10.6667"></path>
</svg>