<svg xmlns="http://www.w3.org/2000/svg" viewBox="0 0 256 256" id="Smiley-Wrong--Streamline-Ultimate" height="256" width="256">
  <desc>
    Smiley Wrong Streamline Icon: https://streamlinehq.com
  </desc>
  <path d="M128 0a128 128 0 1 0 128 128A128 128 0 0 0 128 0ZM69.33333333333333 65.81333333333333a10.666666666666666 10.666666666666666 0 0 1 21.333333333333332 0v13.333333333333332a2.6666666666666665 2.6666666666666665 0 0 0 2.6666666666666665 2.6666666666666665H106.66666666666666a10.666666666666666 10.666666666666666 0 0 1 0 21.333333333333332H93.33333333333333a2.6666666666666665 2.6666666666666665 0 0 0 -2.6666666666666665 2.6666666666666665v13.333333333333332a10.666666666666666 10.666666666666666 0 1 1 -21.333333333333332 0V105.81333333333333a2.6666666666666665 2.6666666666666665 0 0 0 -2.6666666666666665 -2.6666666666666665H53.33333333333333a10.666666666666666 10.666666666666666 0 0 1 0 -21.333333333333332h13.333333333333332a2.6666666666666665 2.6666666666666665 0 0 0 2.6666666666666665 -2.6666666666666665Zm-3.413333333333333 105.81333333333333c24.426666666666666 -34.879999999999995 50.45333333333333 -18.88 67.62666666666667 -8.213333333333333 19.413333333333334 11.84 26.77333333333333 15.146666666666665 39.04 -2.453333333333333a10.666666666666666 10.666666666666666 0 0 1 17.493333333333332 12.266666666666666 41.28 41.28 0 0 1 -33.70666666666666 21.333333333333332A68.47999999999999 68.47999999999999 0 0 1 122.45333333333333 181.33333333333331c-19.413333333333334 -11.733333333333334 -26.453333333333333 -14.933333333333332 -39.04 2.5599999999999996a10.666666666666666 10.666666666666666 0 1 1 -17.493333333333332 -12.266666666666666Zm123.41333333333333 -68.47999999999999a2.6666666666666665 2.6666666666666665 0 0 0 -2.6666666666666665 2.6666666666666665v13.333333333333332a10.666666666666666 10.666666666666666 0 1 1 -21.333333333333332 0V105.81333333333333a2.6666666666666665 2.6666666666666665 0 0 0 -2.6666666666666665 -2.6666666666666665H149.33333333333331a10.666666666666666 10.666666666666666 0 0 1 0 -21.333333333333332h13.333333333333332a2.6666666666666665 2.6666666666666665 0 0 0 2.6666666666666665 -2.6666666666666665V65.81333333333333a10.666666666666666 10.666666666666666 0 0 1 21.333333333333332 0v13.333333333333332a2.6666666666666665 2.6666666666666665 0 0 0 2.6666666666666665 2.6666666666666665H202.66666666666666a10.666666666666666 10.666666666666666 0 0 1 0 21.333333333333332Z" fill="#ffffff" stroke-width="10.6667"></path>
</svg>