<svg xmlns="http://www.w3.org/2000/svg" viewBox="0 0 256 256" id="Smiley-Sad-1--Streamline-Ultimate" height="256" width="256">
  <desc>
    Smiley Sad 1 Streamline Icon: https://streamlinehq.com
  </desc>
  <path d="M128 0a128 128 0 1 0 128 128A128 128 0 0 0 128 0ZM77.33333333333333 74.66666666666666a21.333333333333332 21.333333333333332 0 1 1 -21.333333333333332 21.333333333333332 21.333333333333332 21.333333333333332 0 0 1 21.333333333333332 -21.333333333333332Zm-0.96 104.42666666666665a61.653333333333336 61.653333333333336 0 0 1 103.25333333333333 0 10.666666666666666 10.666666666666666 0 0 1 -17.919999999999998 11.626666666666667 40.21333333333333 40.21333333333333 0 0 0 -67.41333333333333 0 10.666666666666666 10.666666666666666 0 0 1 -14.826666666666664 3.093333333333333 10.666666666666666 10.666666666666666 0 0 1 -3.093333333333333 -14.719999999999999ZM178.66666666666666 117.33333333333333a21.333333333333332 21.333333333333332 0 1 1 21.333333333333332 -21.333333333333332 21.333333333333332 21.333333333333332 0 0 1 -21.333333333333332 21.333333333333332Z" fill="#ffffff" stroke-width="10.6667"></path>
</svg>