<svg xmlns="http://www.w3.org/2000/svg" viewBox="0 0 256 256" id="Smiley-Devastated-1--Streamline-Ultimate" height="256" width="256">
  <desc>
    Smiley Devastated 1 Streamline Icon: https://streamlinehq.com
  </desc>
  <path d="M128 0a128 128 0 1 0 128 128A128 128 0 0 0 128 0ZM64 60.48l32 -21.333333333333332a10.666666666666666 10.666666666666666 0 1 1 11.733333333333334 17.706666666666663l-32 21.333333333333332a10.026666666666666 10.026666666666666 0 0 1 -5.866666666666667 1.8133333333333335A10.666666666666666 10.666666666666666 0 0 1 64 60.48Zm0 36.48a10.666666666666666 10.666666666666666 0 0 1 14.506666666666668 4.16 10.666666666666666 10.666666666666666 0 0 0 9.386666666666667 4.8 10.666666666666666 10.666666666666666 0 0 0 9.28 -4.8 10.666666666666666 10.666666666666666 0 0 1 18.773333333333333 10.666666666666666 32 32 0 0 1 -28.05333333333333 15.786666666666665 32 32 0 0 1 -27.946666666666665 -15.786666666666665A10.666666666666666 10.666666666666666 0 0 1 64 96.96Zm10.666666666666666 93.44a60.906666666666666 60.906666666666666 0 0 1 105.38666666666667 0 4.586666666666666 4.586666666666666 0 0 1 0 4.693333333333333 4.586666666666666 4.586666666666666 0 0 1 -4.053333333333333 2.3466666666666667 223.36 223.36 0 0 0 -97.27999999999999 0 4.586666666666666 4.586666666666666 0 0 1 -4.053333333333333 -2.3466666666666667 4.586666666666666 4.586666666666666 0 0 1 0.6399999999999999 -4.693333333333333Zm125.97333333333333 -78.93333333333334a32 32 0 0 1 -27.946666666666665 15.786666666666665 32 32 0 0 1 -28.05333333333333 -15.786666666666665 10.666666666666666 10.666666666666666 0 0 1 18.773333333333333 -10.666666666666666 10.666666666666666 10.666666666666666 0 0 0 9.28 4.8 10.666666666666666 10.666666666666666 0 0 0 9.386666666666667 -4.8 10.666666666666666 10.666666666666666 0 1 1 18.56 10.666666666666666ZM145.81333333333333 42.666666666666664a10.666666666666666 10.666666666666666 0 0 1 14.719999999999999 -2.986666666666667l32 21.333333333333332a10.666666666666666 10.666666666666666 0 0 1 -5.866666666666667 18.986666666666665 10.026666666666666 10.026666666666666 0 0 1 -5.333333333333333 -1.8133333333333335l-32 -21.333333333333332A10.666666666666666 10.666666666666666 0 0 1 145.81333333333333 42.666666666666664Z" fill="#ffffff" stroke-width="10.6667"></path>
</svg>