<svg xmlns="http://www.w3.org/2000/svg" viewBox="0 0 256 256" id="Smiley-Bad--Streamline-Ultimate" height="256" width="256">
  <desc>
    Smiley Bad Streamline Icon: https://streamlinehq.com
  </desc>
  <path d="M128 0a128 128 0 1 0 128 128A128 128 0 0 0 128 0ZM61.76 87.57333333333334a10.666666666666666 10.666666666666666 0 1 1 15.146666666666665 -15.146666666666665l32 32a10.666666666666666 10.666666666666666 0 0 1 2.5599999999999996 10.666666666666666 10.666666666666666 10.666666666666666 0 0 1 -8.426666666666666 7.359999999999999l-32 5.333333333333333H69.33333333333333a10.666666666666666 10.666666666666666 0 0 1 -1.7066666666666666 -21.333333333333332l6.3999999999999995 -1.0666666666666667a2.6666666666666665 2.6666666666666665 0 0 0 2.1333333333333333 -1.8133333333333335 2.7733333333333334 2.7733333333333334 0 0 0 -0.6399999999999999 -2.6666666666666665Zm13.546666666666667 102.82666666666667a60.906666666666666 60.906666666666666 0 0 1 105.38666666666667 0 4.586666666666666 4.586666666666666 0 0 1 0 4.693333333333333 4.586666666666666 4.586666666666666 0 0 1 -4.053333333333333 2.3466666666666667H79.36a4.586666666666666 4.586666666666666 0 0 1 -4.053333333333333 -2.3466666666666667 4.586666666666666 4.586666666666666 0 0 1 0 -4.693333333333333ZM202.66666666666666 118.82666666666667a10.666666666666666 10.666666666666666 0 0 1 -10.666666666666666 9.173333333333332h-1.4933333333333334l-37.33333333333333 -5.333333333333333a10.666666666666666 10.666666666666666 0 0 1 -8.64 -7.1466666666666665 10.666666666666666 10.666666666666666 0 0 1 2.5599999999999996 -10.666666666666666l32 -32a10.666666666666666 10.666666666666666 0 1 1 15.146666666666665 15.146666666666665L181.33333333333331 100.69333333333333a2.88 2.88 0 0 0 -0.6399999999999999 2.7733333333333334 2.5599999999999996 2.5599999999999996 0 0 0 2.2399999999999998 1.7066666666666666l10.666666666666666 1.5999999999999999a10.666666666666666 10.666666666666666 0 0 1 9.066666666666666 12.053333333333331Z" fill="#ffffff" stroke-width="10.6667"></path>
</svg>