<svg xmlns="http://www.w3.org/2000/svg" viewBox="0 0 256 256" id="Smiley-Cheerful--Streamline-Ultimate" height="256" width="256">
  <desc>
    Smiley Cheerful Streamline Icon: https://streamlinehq.com
  </desc>
  <path d="M128 0a128 128 0 1 0 128 128A128 128 0 0 0 128 0ZM80 74.66666666666666a33.81333333333333 33.81333333333333 0 0 1 31.253333333333334 22.826666666666668 10.666666666666666 10.666666666666666 0 0 1 -6.079999999999999 13.76 9.813333333333333 9.813333333333333 0 0 1 -3.84 0.7466666666666667 10.666666666666666 10.666666666666666 0 0 1 -9.92 -6.826666666666666A13.013333333333332 13.013333333333332 0 0 0 80 96a13.013333333333332 13.013333333333332 0 0 0 -11.413333333333334 9.173333333333332 10.666666666666666 10.666666666666666 0 1 1 -19.84 -7.68A33.81333333333333 33.81333333333333 0 0 1 80 74.66666666666666Zm5.333333333333333 85.33333333333333a10.666666666666666 10.666666666666666 0 0 1 10.666666666666666 10.666666666666666c0 1.92 4.053333333333333 5.333333333333333 10.666666666666666 5.333333333333333s10.666666666666666 -3.413333333333333 10.666666666666666 -5.333333333333333a10.666666666666666 10.666666666666666 0 0 1 21.333333333333332 0c0 1.92 4.053333333333333 5.333333333333333 10.666666666666666 5.333333333333333s10.666666666666666 -3.413333333333333 10.666666666666666 -5.333333333333333a10.666666666666666 10.666666666666666 0 0 1 21.333333333333332 0 29.439999999999998 29.439999999999998 0 0 1 -32 26.666666666666664 35.733333333333334 35.733333333333334 0 0 1 -21.333333333333332 -6.613333333333333 35.733333333333334 35.733333333333334 0 0 1 -21.333333333333332 6.613333333333333A29.439999999999998 29.439999999999998 0 0 1 74.66666666666666 170.66666666666666a10.666666666666666 10.666666666666666 0 0 1 10.666666666666666 -10.666666666666666Zm112 -48a10.666666666666666 10.666666666666666 0 0 1 -9.92 -6.826666666666666A13.013333333333332 13.013333333333332 0 0 0 176 96a13.013333333333332 13.013333333333332 0 0 0 -11.413333333333334 9.173333333333332 10.666666666666666 10.666666666666666 0 0 1 -19.84 -7.68 32.85333333333333 32.85333333333333 0 0 1 62.50666666666667 0 10.666666666666666 10.666666666666666 0 0 1 -6.079999999999999 13.76 9.813333333333333 9.813333333333333 0 0 1 -3.84 0.7466666666666667Z" fill="#ffffff" stroke-width="10.6667"></path>
</svg>