<svg xmlns="http://www.w3.org/2000/svg" viewBox="0 0 256 256" id="Smiley-Lol-Sideways--Streamline-Ultimate" height="256" width="256">
  <desc>
    Smiley Lol Sideways Streamline Icon: https://streamlinehq.com
  </desc>
  <path d="M256 48a42.666666666666664 42.666666666666664 0 0 0 -42.666666666666664 -42.666666666666664 64 64 0 0 0 -26.24 7.893333333333333 2.5599999999999996 2.5599999999999996 0 0 1 -2.3466666666666667 0A128 128 0 0 0 16 190.07999999999998a2.5599999999999996 2.5599999999999996 0 0 1 0 2.3466666666666667A55.25333333333333 55.25333333333333 0 0 0 10.666666666666666 213.33333333333331a42.666666666666664 42.666666666666664 0 0 0 68.16 34.13333333333333 2.7733333333333334 2.7733333333333334 0 0 1 2.5599999999999996 0A128 128 0 0 0 245.86666666666667 77.86666666666666a2.6666666666666665 2.6666666666666665 0 0 1 0 -2.7733333333333334A42.666666666666664 42.666666666666664 0 0 0 256 48Zm-42.666666666666664 -21.333333333333332a21.333333333333332 21.333333333333332 0 0 1 0 42.666666666666664c-9.386666666666667 0 -31.04 -13.653333333333332 -39.36 -19.093333333333334a2.7733333333333334 2.7733333333333334 0 0 1 -1.1733333333333333 -2.2399999999999998 2.5599999999999996 2.5599999999999996 0 0 1 1.1733333333333333 -2.2399999999999998c8.32 -5.4399999999999995 29.973333333333333 -19.093333333333334 39.36 -19.093333333333334Zm-31.46666666666667 155.2a65.6 65.6 0 0 1 -63.36 16.96 1.7066666666666666 1.7066666666666666 0 0 1 -1.1733333333333333 -1.0666666666666667 2.1333333333333333 2.1333333333333333 0 0 1 0 -1.5999999999999999L196.16 117.33333333333333a1.4933333333333334 1.4933333333333334 0 0 1 1.5999999999999999 0 1.92 1.92 0 0 1 1.1733333333333333 1.0666666666666667 66.02666666666667 66.02666666666667 0 0 1 -17.066666666666666 63.46666666666667Zm-17.28 -105.27999999999999L134.39999999999998 99.2a10.666666666666666 10.666666666666666 0 0 1 -10.666666666666666 0.96 10.666666666666666 10.666666666666666 0 0 1 -6.3999999999999995 -9.493333333333332V45.33333333333333a10.666666666666666 10.666666666666666 0 0 1 21.333333333333332 0V64a2.5599999999999996 2.5599999999999996 0 0 0 1.4933333333333334 2.3466666666666667 2.88 2.88 0 0 0 2.7733333333333334 0l8.853333333333332 -6.613333333333333a10.666666666666666 10.666666666666666 0 0 1 14.933333333333332 2.1333333333333333 10.666666666666666 10.666666666666666 0 0 1 -2.1333333333333333 14.719999999999999Zm-101.44 71.89333333333333 3.733333333333333 -5.333333333333333a2.453333333333333 2.453333333333333 0 0 0 0 -2.7733333333333334 2.5599999999999996 2.5599999999999996 0 0 0 -2.1333333333333333 -1.7066666666666666H45.44a10.666666666666666 10.666666666666666 0 0 1 0 -21.333333333333332H90.66666666666666a10.666666666666666 10.666666666666666 0 0 1 8.64 16.85333333333333l-18.773333333333333 26.666666666666664a10.666666666666666 10.666666666666666 0 0 1 -8.746666666666666 4.4799999999999995 10.666666666666666 10.666666666666666 0 0 1 -6.186666666666666 -2.0266666666666664 10.666666666666666 10.666666666666666 0 0 1 -2.453333333333333 -14.826666666666664ZM53.33333333333333 234.66666666666666a21.333333333333332 21.333333333333332 0 0 1 -21.333333333333332 -21.333333333333332c0 -9.493333333333332 13.653333333333332 -31.04 19.093333333333334 -39.36a2.7733333333333334 2.7733333333333334 0 0 1 4.4799999999999995 0C61.01333333333333 182.29333333333332 74.66666666666666 203.83999999999997 74.66666666666666 213.33333333333331a21.333333333333332 21.333333333333332 0 0 1 -21.333333333333332 21.333333333333332Z" fill="#ffffff" stroke-width="10.6667"></path>
</svg>