<svg xmlns="http://www.w3.org/2000/svg" viewBox="0 0 256 256" id="Smiley-Smile-1--Streamline-Ultimate" height="256" width="256">
  <desc>
    Smiley Smile 1 Streamline Icon: https://streamlinehq.com
  </desc>
  <path d="M128 0a128 128 0 1 0 128 128A128 128 0 0 0 128 0ZM68.58666666666666 86.82666666666667A13.013333333333332 13.013333333333332 0 0 0 80 96a13.013333333333332 13.013333333333332 0 0 0 11.413333333333334 -9.173333333333332 10.666666666666666 10.666666666666666 0 1 1 19.84 7.68A33.81333333333333 33.81333333333333 0 0 1 80 117.33333333333333a33.81333333333333 33.81333333333333 0 0 1 -31.253333333333334 -22.826666666666668 10.666666666666666 10.666666666666666 0 1 1 19.84 -7.68Zm10.666666666666666 73.06666666666666a10.666666666666666 10.666666666666666 0 0 1 14.826666666666664 3.093333333333333 40.10666666666666 40.10666666666666 0 0 0 67.41333333333333 0 10.666666666666666 10.666666666666666 0 1 1 17.919999999999998 11.733333333333334 61.653333333333336 61.653333333333336 0 0 1 -103.25333333333333 0A10.666666666666666 10.666666666666666 0 0 1 79.46666666666667 160Zm96.53333333333333 -42.666666666666664a33.81333333333333 33.81333333333333 0 0 1 -31.253333333333334 -22.826666666666668 10.666666666666666 10.666666666666666 0 1 1 19.84 -7.68A13.013333333333332 13.013333333333332 0 0 0 176 96a13.013333333333332 13.013333333333332 0 0 0 11.413333333333334 -9.173333333333332 10.666666666666666 10.666666666666666 0 0 1 19.84 7.68A33.81333333333333 33.81333333333333 0 0 1 176 117.33333333333333Z" fill="#ffffff" stroke-width="10.6667"></path>
</svg>