<svg xmlns="http://www.w3.org/2000/svg" viewBox="0 0 256 256" id="Soccer-Field--Streamline-Ultimate" height="256" width="256">
  <desc>
    Soccer Field Streamline Icon: https://streamlinehq.com
  </desc>
  <g id="Soccer-Field--Streamline-Ultimate.svg">
    <path d="M118.82666666666667 101.44a3.093333333333333 3.093333333333333 0 0 0 -2.5599999999999996 0 29.119999999999997 29.119999999999997 0 0 0 0 53.33333333333333 3.093333333333333 3.093333333333333 0 0 0 2.5599999999999996 0 2.7733333333333334 2.7733333333333334 0 0 0 1.1733333333333333 -2.2399999999999998V103.68a2.7733333333333334 2.7733333333333334 0 0 0 -1.1733333333333333 -2.2399999999999998Z" fill="#ffffff" stroke-width="10.6667"></path>
    <path d="M137.17333333333332 154.56a3.093333333333333 3.093333333333333 0 0 0 2.5599999999999996 0 29.119999999999997 29.119999999999997 0 0 0 0 -53.33333333333333 3.093333333333333 3.093333333333333 0 0 0 -2.5599999999999996 0 2.7733333333333334 2.7733333333333334 0 0 0 -1.1733333333333333 2.2399999999999998v48.63999999999999a2.7733333333333334 2.7733333333333334 0 0 0 1.1733333333333333 2.453333333333333Z" fill="#ffffff" stroke-width="10.6667"></path>
    <path d="M232 88h18.666666666666664s5.333333333333333 0 5.333333333333333 5.333333333333333v69.33333333333333s0 5.333333333333333 -5.333333333333333 5.333333333333333h-18.666666666666664s-5.333333333333333 0 -5.333333333333333 -5.333333333333333v-69.33333333333333s0 -5.333333333333333 5.333333333333333 -5.333333333333333" fill="#ffffff" stroke-width="10.6667"></path>
    <path d="M114.66666666666666 42.666666666666664H10.666666666666666a10.666666666666666 10.666666666666666 0 0 0 -10.666666666666666 10.666666666666666v13.333333333333332a5.333333333333333 5.333333333333333 0 0 0 5.333333333333333 5.333333333333333h21.333333333333332A18.773333333333333 18.773333333333333 0 0 1 45.33333333333333 90.66666666666666v74.66666666666666a18.773333333333333 18.773333333333333 0 0 1 -18.666666666666664 18.666666666666664h-21.333333333333332a5.333333333333333 5.333333333333333 0 0 0 -5.333333333333333 5.333333333333333V202.66666666666666a10.666666666666666 10.666666666666666 0 0 0 10.666666666666666 10.666666666666666h104a5.333333333333333 5.333333333333333 0 0 0 5.333333333333333 -5.333333333333333v-31.253333333333334a5.333333333333333 5.333333333333333 0 0 0 -3.9466666666666663 -5.119999999999999 45.22666666666667 45.22666666666667 0 0 1 0 -87.25333333333333 5.333333333333333 5.333333333333333 0 0 0 3.9466666666666663 -5.119999999999999V48a5.333333333333333 5.333333333333333 0 0 0 -5.333333333333333 -5.333333333333333Z" fill="#ffffff" stroke-width="10.6667"></path>
    <path d="M5.333333333333333 88h18.666666666666664s5.333333333333333 0 5.333333333333333 5.333333333333333v69.33333333333333s0 5.333333333333333 -5.333333333333333 5.333333333333333H5.333333333333333s-5.333333333333333 0 -5.333333333333333 -5.333333333333333v-69.33333333333333s0 -5.333333333333333 5.333333333333333 -5.333333333333333" fill="#ffffff" stroke-width="10.6667"></path>
    <path d="M245.33333333333331 42.666666666666664h-104a5.333333333333333 5.333333333333333 0 0 0 -5.333333333333333 5.333333333333333v31.253333333333334a5.333333333333333 5.333333333333333 0 0 0 3.9466666666666663 5.119999999999999 45.22666666666667 45.22666666666667 0 0 1 0 87.25333333333333 5.333333333333333 5.333333333333333 0 0 0 -3.9466666666666663 5.119999999999999v31.253333333333334a5.333333333333333 5.333333333333333 0 0 0 5.333333333333333 5.333333333333333H245.33333333333331a10.666666666666666 10.666666666666666 0 0 0 10.666666666666666 -10.666666666666666v-13.333333333333332a5.333333333333333 5.333333333333333 0 0 0 -5.333333333333333 -5.333333333333333h-21.333333333333332a18.773333333333333 18.773333333333333 0 0 1 -18.666666666666664 -18.666666666666664v-74.66666666666666a18.773333333333333 18.773333333333333 0 0 1 18.666666666666664 -18.666666666666664h21.333333333333332a5.333333333333333 5.333333333333333 0 0 0 5.333333333333333 -5.333333333333333V53.33333333333333a10.666666666666666 10.666666666666666 0 0 0 -10.666666666666666 -10.666666666666666Z" fill="#ffffff" stroke-width="10.6667"></path>
  </g>
</svg>