<svg xmlns="http://www.w3.org/2000/svg" viewBox="0 0 256 256" id="Soft-Drinks-Bottle-1--Streamline-Ultimate" height="256" width="256">
  <desc>
    Soft Drinks Bottle 1 Streamline Icon: https://streamlinehq.com
  </desc>
  <g id="Soft-Drinks-Bottle-1--Streamline-Ultimate.svg">
    <path d="M178.98666666666668 124.37333333333333C169.17333333333332 113.70666666666666 160 103.57333333333334 160 96V58.666666666666664a5.333333333333333 5.333333333333333 0 0 0 -5.333333333333333 -5.333333333333333h-53.33333333333333a5.333333333333333 5.333333333333333 0 0 0 -5.333333333333333 5.333333333333333V96c0 7.573333333333332 -9.173333333333332 17.706666666666663 -18.986666666666665 28.373333333333335 -13.653333333333332 15.04 -29.013333333333335 32 -29.013333333333335 51.626666666666665a307.52 307.52 0 0 0 8.213333333333333 65.6A19.733333333333334 19.733333333333334 0 0 0 74.66666666666666 256h106.66666666666666a19.733333333333334 19.733333333333334 0 0 0 18.453333333333333 -14.4 307.52 307.52 0 0 0 8.213333333333333 -65.6c0 -19.626666666666665 -15.36 -36.586666666666666 -29.013333333333335 -51.626666666666665Z" fill="#ffffff" stroke-width="10.6667"></path>
    <path d="M101.33333333333333 37.33333333333333h53.33333333333333A5.333333333333333 5.333333333333333 0 0 0 160 32V10.666666666666666a10.666666666666666 10.666666666666666 0 0 0 -10.666666666666666 -10.666666666666666h-42.666666666666664a10.666666666666666 10.666666666666666 0 0 0 -10.666666666666666 10.666666666666666v21.333333333333332a5.333333333333333 5.333333333333333 0 0 0 5.333333333333333 5.333333333333333Z" fill="#ffffff" stroke-width="10.6667"></path>
  </g>
</svg>