<svg xmlns="http://www.w3.org/2000/svg" fill="none" viewBox="0 0 256 256" id="Sos-Sign--Streamline-Ultimate" height="256" width="256">
  <desc>
    Sos Sign Streamline Icon: https://streamlinehq.com
  </desc>
  <path fill="#ffffff" fill-rule="evenodd" d="M3.5234346666666667 29.871573333333334c0 -14.550933333333333 11.795818666666666 -26.346837333333333 26.346752 -26.346837333333333H226.12693333333334c14.551466666666666 0 26.346666666666668 11.795904 26.346666666666668 26.346837333333333V226.12906666666666c0 14.5504 -11.795199999999998 26.346666666666668 -26.346666666666668 26.346666666666668H29.87029333333333c-14.550933333333333 0 -26.346858666666666 -11.796266666666668 -26.346858666666666 -26.346666666666668V29.871573333333334ZM47.05034666666666 84.86976c-13.077653333333332 0 -23.679253333333335 10.6016 -23.679253333333335 23.67957333333333 0 11.127466666666665 7.748266666666667 20.754133333333332 18.619093333333332 23.131733333333333l20.700159999999997 4.528c4.3884799999999995 0.96 7.5211733333333335 4.852266666666667 7.5211733333333335 9.349333333333332 0 5.2863999999999995 -4.286293333333333 9.572266666666666 -9.565226666666666 9.572266666666666H48.93621333333333c-4.152213333333333 0 -7.706026666666666 -2.6506666666666665 -9.022933333333333 -6.376533333333333 -1.47232 -4.165333333333333 -6.042986666666666 -6.348799999999999 -10.208639999999999 -4.876799999999999 -4.16576 1.4730666666666665 -6.34912 6.042666666666666 -4.876799999999999 10.209066666666665 3.5058133333333332 9.918933333333332 12.964693333333333 17.044266666666665 24.108373333333333 17.044266666666665h11.71008c14.123093333333333 0 25.565226666666664 -11.456 25.565226666666664 -25.572266666666668 0 -12.010666666666665 -8.362666666666666 -22.411733333333334 -20.101973333333333 -24.9792l-20.700266666666664 -4.528c-3.52544 -0.7712 -6.038186666666666 -3.893333333333333 -6.038186666666666 -7.5018666666666665 0 -4.241386666666666 3.43808 -7.679573333333334 7.679253333333333 -7.679573333333334h13.595946666666666c2.8321066666666668 0 5.36864 1.2206933333333332 7.131519999999999 3.1903999999999995 0.8282666666666666 0.92544 1.4745599999999999 2.00608 1.8914133333333334 3.1857066666666665 1.4724266666666666 4.165333333333333 6.042986666666666 6.348799999999999 10.208746666666666 4.876799999999999 4.16576 -1.472 6.34912 -6.042986666666666 4.876693333333333 -10.208746666666666 -1.1253333333333333 -3.1837866666666668 -2.8588799999999996 -6.0709333333333335 -5.05472 -8.524373333333333 -4.66976 -5.217386666666666 -11.48128 -8.519786666666667 -19.053653333333333 -8.519786666666667H47.05034666666666ZM169.16266666666667 108.54933333333334c0 -13.077973333333333 10.6016 -23.67957333333333 23.678933333333333 -23.67957333333333h13.596799999999998c7.572266666666666 0 14.384 3.3023999999999996 19.052799999999998 8.519786666666667 2.1962666666666664 2.4534399999999996 3.9295999999999998 5.340586666666667 5.054933333333333 8.524373333333333 1.4730666666666665 4.16576 -0.7104 8.736746666666665 -4.876799999999999 10.208746666666666 -4.165333333333333 1.472 -8.735999999999999 -0.7114666666666666 -10.207999999999998 -4.876799999999999 -0.4170666666666667 -1.1796266666666666 -1.0634666666666666 -2.2602666666666664 -1.8922666666666665 -3.1857066666666665 -1.7621333333333333 -1.9697066666666665 -4.298666666666667 -3.1903999999999995 -7.1306666666666665 -3.1903999999999995h-13.596799999999998c-4.241066666666667 0 -7.678933333333333 3.4381866666666667 -7.678933333333333 7.679573333333334 0 3.608533333333333 2.5130666666666666 6.730666666666666 6.0384 7.5018666666666665l20.699733333333334 4.528c11.739733333333334 2.5674666666666663 20.1024 12.968533333333333 20.1024 24.9792 0 14.116266666666665 -11.442133333333333 25.572266666666668 -25.564799999999998 25.572266666666668h-11.710933333333333c-11.143466666666665 0 -20.602666666666664 -7.125333333333334 -24.107733333333332 -17.044266666666665 -1.4730666666666665 -4.166399999999999 0.7104 -8.735999999999999 4.876799999999999 -10.209066666666665 4.165333333333333 -1.472 8.735999999999999 0.7114666666666666 10.207999999999998 4.876799999999999 1.3173333333333332 3.7258666666666667 4.871466666666667 6.376533333333333 9.022933333333333 6.376533333333333h11.710933333333333c5.278933333333333 0 9.5648 -4.285866666666666 9.5648 -9.572266666666666 0 -4.497066666666666 -3.1328 -8.389333333333333 -7.521066666666666 -9.349333333333332l-20.7008 -4.528c-10.870399999999998 -2.3775999999999997 -18.618666666666666 -12.004266666666666 -18.618666666666666 -23.131733333333333Zm-56.90133333333333 7.7408c0 -8.516266666666667 6.904533333333333 -15.420373333333332 15.4208 -15.420373333333332s15.419733333333333 6.9041066666666655 15.419733333333333 15.420373333333332v23.419733333333333c0 8.516266666666667 -6.903466666666667 15.4208 -15.419733333333333 15.4208s-15.4208 -6.904533333333333 -15.4208 -15.4208v-23.419733333333333Zm15.4208 -31.420373333333334c-17.3536 0 -31.420373333333334 14.067306666666667 -31.420373333333334 31.420373333333334v23.419733333333333c0 17.3536 14.066773333333332 31.4208 31.420373333333334 31.4208 17.352533333333334 0 31.419733333333333 -14.0672 31.419733333333333 -31.4208v-23.419733333333333c0 -17.353066666666663 -14.0672 -31.420373333333334 -31.419733333333333 -31.420373333333334Z" clip-rule="evenodd" stroke-width="10.6667"></path>
</svg>