<svg xmlns="http://www.w3.org/2000/svg" viewBox="0 0 256 256" id="Soundcloud-Logo--Streamline-Ultimate" height="256" width="256">
  <desc>
    Soundcloud Logo Streamline Icon: https://streamlinehq.com
  </desc>
  <g id="Soundcloud-Logo--Streamline-Ultimate.svg">
    <path d="M220.37333333333333 114.24000000000001a40.74666666666666 40.74666666666666 0 0 0 -7.253333333333334 0.7466666666666667 58.346666666666664 58.346666666666664 0 0 0 -57.493333333333325 -46.93333333333334 59.30666666666666 59.30666666666666 0 0 0 -21.333333333333332 3.9466666666666663 8.959999999999999 8.959999999999999 0 0 0 -6.3999999999999995 8.533333333333333v96a8.959999999999999 8.959999999999999 0 0 0 8.533333333333333 8.853333333333332h83.73333333333332a35.519999999999996 35.519999999999996 0 0 0 0 -71.03999999999999Z" fill="#ffffff" stroke-width="10.6667"></path>
    <path d="M103.89333333333333 75.84a8 8 0 0 0 -7.893333333333333 8v96a8 8 0 0 0 16 0v-96a8.106666666666666 8.106666666666666 0 0 0 -8.106666666666666 -8Z" fill="#ffffff" stroke-width="10.6667"></path>
    <path d="M72 91.83999999999999a8 8 0 0 0 -8 8v80.10666666666665a8 8 0 0 0 16 0V99.83999999999999a8.106666666666666 8.106666666666666 0 0 0 -8 -8Z" fill="#ffffff" stroke-width="10.6667"></path>
    <path d="M40 113.17333333333332a8.106666666666666 8.106666666666666 0 0 0 -8 8v58.773333333333326a8 8 0 0 0 16 0v-58.773333333333326a8 8 0 0 0 -8 -8Z" fill="#ffffff" stroke-width="10.6667"></path>
    <path d="M8.106666666666666 123.83999999999999a8.106666666666666 8.106666666666666 0 0 0 -8 8v42.666666666666664a8 8 0 0 0 8 8 7.893333333333333 7.893333333333333 0 0 0 8 -8v-42.666666666666664a8 8 0 0 0 -8 -8Z" fill="#ffffff" stroke-width="10.6667"></path>
  </g>
</svg>