<svg xmlns="http://www.w3.org/2000/svg" id="Space-Rocket-Earth--Streamline-Ultimate" width="256" height="256" viewBox="0 0 256 256"><desc>Space Rocket Earth Streamline Icon: https://streamlinehq.com</desc><g id="Space-Rocket-Earth--Streamline-Ultimate.svg"><path fill="#fff" stroke-width="10.667" d="M156.6464 140.71359999999999c-15.293866666666666 4.868266666666666 -30.1216 -8.644266666666667 -26.6912 -24.32213333333333 0.144 -0.6570666666666667 0.31999999999999995 -1.3066666666666666 0.5258666666666666 -1.9466666666666665 8.443733333333332 -26.581333333333333 13.864533333333334 -31.8976 16.157866666666663 -34.190933333333334 0.5909333333333333 -0.6485333333333333 0.8586666666666667 -1.5295999999999998 0.7296 -2.3978666666666664 -0.11093333333333333 -0.7829333333333334 -0.5706666666666667 -1.4730666666666665 -1.2511999999999999 -1.8762666666666665 -10.512 -4.771199999999999 -21.9168 -7.258666666666667 -33.46133333333333 -7.297066666666667 -46.056533333333334 0 -83.39306666666667 37.336533333333335 -83.39306666666667 83.39413333333333 -0.15893333333333332 2.9514666666666667 -0.15893333333333332 5.908266666666666 0 8.859733333333333 0.050133333333333335 0.7658666666666667 -0.21333333333333332 1.5189333333333332 -0.7296 2.0853333333333333 -9.586133333333333 12.209066666666667 -17.31413333333333 25.76853333333333 -22.93333333333333 40.2368 -4.876799999999999 9.602133333333333 -3.8229333333333333 21.148799999999998 2.7104 29.709866666666663 3.915733333333333 3.7397333333333336 9.181866666666666 5.7333333333333325 14.593066666666667 5.524266666666667 15.0528 -1.728 29.410133333333334 -7.290666666666667 41.697066666666665 -16.157866666666663 0.8245333333333332 -0.5311999999999999 1.8847999999999998 -0.5311999999999999 2.7104 0 53.876266666666666 34.90773333333333 125.33653333333332 -1.5978666666666665 128.6293333333333 -65.70986666666667 0.07786666666666667 -1.5146666666666664 0.11413333333333332 -3.0314666666666668 0.10880000000000001 -4.548266666666667 -0.027733333333333332 -8.120533333333332 -1.2213333333333334 -16.1952 -3.544533333333333 -23.975466666666666 -0.2784 -0.8149333333333333 -0.9418666666666666 -1.4389333333333332 -1.7717333333333332 -1.6682666666666668 -0.7093333333333334 -0.40959999999999996 -1.5839999999999999 -0.40959999999999996 -2.293333333333333 0 -9.851733333333332 6.271999999999999 -20.561066666666665 11.082666666666665 -31.794133333333335 14.280533333333333Zm-53.89333333333333 5.629866666666667c4.353066666666667 -4.155733333333333 11.572266666666666 -2.0405333333333333 12.995199999999999 3.808 0.4864 2.0042666666666666 0.16213333333333332 4.119466666666666 -0.9034666666666666 5.885866666666666 -40.86293333333333 38.67413333333333 -73.90719999999999 58.16746666666666 -87.1456 61.29386666666666 -1.8410666666666666 0.5674666666666666 -3.6042666666666663 -1.0709333333333333 -3.175466666666667 -2.948266666666666 0.013866666666666666 -0.05973333333333333 0.029866666666666666 -0.11946666666666667 0.047999999999999994 -0.1781333333333333 1.2565333333333333 -4.785066666666666 3.0762666666666663 -9.403733333333333 5.4208 -13.76 1.3546666666666667 -2.6058666666666666 2.9184 -5.525333333333333 4.794666666666666 -8.756266666666665 0.5344 -0.7189333333333333 1.4005333333333332 -1.1125333333333334 2.293333333333333 -1.0432 0.9312 -0.010666666666666666 1.7845333333333333 0.5173333333333333 2.1887999999999996 1.3557333333333332 0.31466666666666665 0.6250666666666667 0.8853333333333333 1.0816 1.5637333333333334 1.2511999999999999 0.6794666666666667 0.208 1.4058666666666666 0.208 2.0853333333333333 0 21.449599999999997 -13.614933333333333 41.49333333333333 -29.329066666666666 59.834666666666664 -46.9088Z"/><path fill="#fff" stroke-width="10.667" d="M184.37439999999998 102.35306666666665c-0.026666666666666665 -4.1408 -1.6725333333333332 -8.106666666666666 -4.586666666666666 -11.0496 -6.215466666666666 -5.825066666666666 -15.8848 -5.825066666666666 -22.0992 0 -5.425066666666667 8.6848 -9.601066666666666 18.08853333333333 -12.405333333333333 27.937066666666666 -0.5674666666666666 1.8858666666666668 -0.046933333333333334 3.931733333333333 1.3557333333333332 5.3162666666666665 1.3728 1.3472 3.3770666666666664 1.8272 5.211733333333333 1.2511999999999999 9.851733333333332 -2.7466666666666666 19.258666666666667 -6.888533333333333 27.937066666666666 -12.300799999999999 2.920533333333333 -2.980266666666666 4.565333333333333 -6.981333333333333 4.586666666666666 -11.154133333333334Z"/><path fill="#fff" stroke-width="10.667" d="m242.95786666666666 18.54293333333333 -16.261333333333333 6.984533333333333c-3.818666666666666 1.7237333333333331 -7.337599999999999 4.0469333333333335 -10.424533333333333 6.88l-12.091733333333332 12.299733333333332c-13.863466666666667 -3.610666666666667 -28.613333333333333 0.03733333333333333 -39.19466666666666 9.694933333333333l-3.6490666666666667 3.648c-1.9989333333333335 2.0618666666666665 -1.9989333333333335 5.339733333333333 0 7.401599999999999l44.1984 44.1984c0.9951999999999999 0.9973333333333333 2.344533333333333 1.5605333333333333 3.7535999999999996 1.5637333333333334 1.3770666666666664 -0.008533333333333334 2.692266666666667 -0.5717333333333333 3.648 -1.5637333333333334l3.648 -3.648c9.728 -10.5024 13.387733333333333 -25.260799999999996 9.694933333333333 -39.0912l12.5088 -12.5088c2.8373333333333335 -3.063466666666667 5.128533333333333 -6.5888 6.7754666666666665 -10.424533333333333l6.984533333333333 -16.261333333333333c1.4986666666666668 -2.747733333333333 1.0794666666666666 -6.143999999999999 -1.0421333333333331 -8.443733333333332 -2.3903999999999996 -2.0693333333333332 -5.842133333333333 -2.3637333333333332 -8.548266666666667 -0.7296Z"/></g></svg>