<svg xmlns="http://www.w3.org/2000/svg" id="Spaceship--Streamline-Ultimate" width="256" height="256" fill="none" viewBox="0 0 256 256"><desc>Spaceship Streamline Icon: https://streamlinehq.com</desc><path fill="#fff" fill-rule="evenodd" stroke-width="10.667" d="M128 23.78581333333333c-36.96586666666666 0 -66.47594666666666 29.510080000000002 -66.47594666666666 66.47616v59.666560000000004H194.47679999999997V91.33344c0 -38.13397333333333 -29.606399999999997 -67.54762666666666 -66.4768 -67.54762666666666Zm87.81013333333334 126.14272h5.403733333333333c15.000533333333333 0 26.786133333333332 11.785599999999999 26.786133333333332 26.786133333333332v16.071466666666666c0 8.570666666666666 -7.4997333333333325 16.071466666666666 -16.071466666666666 16.071466666666666s-16.071466666666666 -7.5008 -16.071466666666666 -16.071466666666666v-8.571733333333333H197.64266666666666c-4.285866666666666 10.714666666666666 -11.785599999999999 19.285333333333334 -19.285333333333334 26.786133333333332v19.285333333333334h8.571733333333333c7.4997333333333325 0 12.856533333333333 6.4288 12.856533333333333 12.8576 0 6.427733333333333 -6.4288 12.856533333333333 -12.856533333333333 12.856533333333333H138.66666666666666v-42.666666666666664c0 -5.8911999999999995 -4.7754666666666665 -10.666666666666666 -10.666666666666666 -10.666666666666666s-10.666666666666666 4.7754666666666665 -10.666666666666666 10.666666666666666v42.666666666666664l-48.26186666666666 0c-7.500053333333334 0 -12.857173333333332 -6.4288 -12.857173333333332 -12.856533333333333 0 -6.4288 6.428586666666666 -12.8576 12.857173333333332 -12.8576h8.571413333333332v-19.285333333333334c-8.571413333333332 -7.5008 -15 -16.071466666666666 -19.28576 -26.786133333333332H40.142826666666664v8.571733333333333c0 8.570666666666666 -7.499946666666666 16.071466666666666 -16.07136 16.071466666666666 -8.571413333333332 0 -16.071466666666666 -7.5008 -16.071466666666666 -16.071466666666666V176.71466666666666c0 -15.000533333333333 11.785706666666666 -26.786133333333332 26.785706666666663 -26.786133333333332h5.405013333333333V90.26197333333332c0 -48.74816 39.06133333333333 -87.809504 87.80928 -87.809504 48.8448 0 87.81013333333334 39.157770666666664 87.81013333333334 88.88097066666667v58.59509333333333ZM170.66666666666666 88.13333333333333c0 22.4 -19.2 51.199999999999996 -42.666666666666664 51.199999999999996s-42.666666666666664 -28.8 -42.666666666666664 -51.199999999999996c0 -22.4 19.2 -39.46666666666667 42.666666666666664 -39.46666666666667s42.666666666666664 17.066666666666666 42.666666666666664 39.46666666666667Zm-16.470399999999998 10.192853333333332c4.165333333333333 -4.165546666666666 4.840533333333333 -10.243946666666666 1.5082666666666666 -13.576426666666666 -3.3322666666666665 -3.3323733333333334 -9.410133333333333 -2.6569599999999998 -13.576533333333332 1.5085866666666665 -4.165333333333333 4.165546666666666 -4.840533333333333 10.243839999999999 -1.5082666666666666 13.576213333333332 3.3322666666666665 3.3324799999999994 9.4112 2.657173333333333 13.576533333333332 -1.5083733333333333Zm-40.432 -11.825493333333334c4.165333333333333 4.165546666666666 4.840533333333333 10.243733333333333 1.5082666666666666 13.576213333333332 -3.3322666666666665 3.3324799999999994 -9.410986666666666 2.6570666666666662 -13.576533333333332 -1.5084799999999998s-4.8408533333333335 -10.243839999999999 -1.5083733333333333 -13.576319999999999c3.3323733333333334 -3.3324799999999994 9.41024 -2.6569599999999998 13.57664 1.5085866666666665Z" clip-rule="evenodd"/></svg>