<svg xmlns="http://www.w3.org/2000/svg" viewBox="0 0 256 256" id="Speaker-1--Streamline-Ultimate" height="256" width="256">
  <desc>
    Speaker 1 Streamline Icon: https://streamlinehq.com
  </desc>
  <g id="Speaker-1--Streamline-Ultimate.svg">
    <path d="M241.70666666666665 190.4a2.7733333333333334 2.7733333333333334 0 0 1 0 -3.093333333333333 128 128 0 0 0 0 -118.93333333333334 2.7733333333333334 2.7733333333333334 0 0 1 0 -3.093333333333333l3.626666666666667 -3.626666666666667A36.266666666666666 36.266666666666666 0 0 0 245.33333333333331 10.666666666666666a37.12 37.12 0 0 0 -51.199999999999996 0l-3.626666666666667 3.733333333333333a2.88 2.88 0 0 1 -3.1999999999999997 0 129.17333333333332 129.17333333333332 0 0 0 -118.82666666666667 0 2.88 2.88 0 0 1 -3.1999999999999997 0L61.76 10.666666666666666A37.12 37.12 0 0 0 10.666666666666666 10.666666666666666a36.266666666666666 36.266666666666666 0 0 0 0 51.199999999999996l3.733333333333333 3.626666666666667a2.7733333333333334 2.7733333333333334 0 0 1 0 3.093333333333333 128 128 0 0 0 0 118.93333333333334 2.7733333333333334 2.7733333333333334 0 0 1 0 3.093333333333333L10.666666666666666 194.13333333333333A36.16 36.16 0 0 0 61.76 245.33333333333331l3.626666666666667 -3.626666666666667a2.5599999999999996 2.5599999999999996 0 0 1 3.1999999999999997 0 127.25333333333333 127.25333333333333 0 0 0 118.82666666666667 0 2.5599999999999996 2.5599999999999996 0 0 1 3.1999999999999997 0l3.626666666666667 3.626666666666667A36.16 36.16 0 0 0 245.33333333333331 194.13333333333333Zm-20.37333333333333 41.49333333333333a10.666666666666666 10.666666666666666 0 1 1 10.666666666666666 -10.666666666666666 10.666666666666666 10.666666666666666 0 0 1 -10.666666666666666 10.666666666666666Zm10.666666666666666 -197.33333333333331a10.666666666666666 10.666666666666666 0 1 1 -10.666666666666666 -10.666666666666666 10.666666666666666 10.666666666666666 0 0 1 10.666666666666666 10.666666666666666ZM128 207.89333333333332A80 80 0 1 1 208 128a80 80 0 0 1 -80 79.89333333333333Zm-104 13.333333333333332a10.666666666666666 10.666666666666666 0 1 1 10.666666666666666 10.666666666666666 10.666666666666666 10.666666666666666 0 0 1 -10.666666666666666 -10.666666666666666Zm10.666666666666666 -176a10.666666666666666 10.666666666666666 0 1 1 10.666666666666666 -10.666666666666666 10.666666666666666 10.666666666666666 0 0 1 -10.666666666666666 10.666666666666666Z" fill="#ffffff" stroke-width="10.6667"></path>
    <path d="M101.33333333333333 127.89333333333333a26.666666666666664 26.666666666666664 0 1 0 53.33333333333333 0 26.666666666666664 26.666666666666664 0 1 0 -53.33333333333333 0" fill="#ffffff" stroke-width="10.6667"></path>
  </g>
</svg>