<svg xmlns="http://www.w3.org/2000/svg" fill="none" viewBox="0 0 256 256" id="Spiral-Shape--Streamline-Ultimate" height="256" width="256">
  <desc>
    Spiral Shape Streamline Icon: https://streamlinehq.com
  </desc>
  <path fill="#ffffff" fill-rule="evenodd" d="M138.95573333333334 21.110506666666666C79.92234666666667 21.110506666666666 32.06623999999999 68.96661333333333 32.06623999999999 128c0 59.03359999999999 47.85610666666666 106.88959999999999 106.88949333333332 106.88959999999999 46.93226666666666 0 84.97813333333333 -38.03946666666666 84.97813333333333 -84.96853333333333 0 -47.54613333333333 -35.775999999999996 -86.27914666666666 -82.1088 -86.27914666666666 -35.72341333333333 0 -65.92298666666666 30.254080000000002 -65.92298666666666 66.00714666666667 0 35.867733333333334 27.44437333333333 63.744 63.05365333333333 63.744 24.596266666666665 0 45.6128 -19.1072 45.6128 -41.77066666666666 0 -25.05173333333333 -17.69173333333333 -45.36352 -39.952 -45.36352 -13.415466666666667 0 -25.6192 11.729386666666667 -25.6192 24.846186666666668 0 13.266133333333332 9.232 21.754666666666665 21.610666666666663 21.754666666666665 5.829333333333333 0 10.555733333333333 4.725333333333333 10.555733333333333 10.554666666666666s-4.7264 10.555733333333333 -10.555733333333333 10.555733333333333c-23.57333333333333 0 -42.72096 -17.4816 -42.72096 -42.865066666666664 0 -25.530666666666665 22.424426666666665 -45.956693333333334 46.72949333333333 -45.956693333333334 36.61226666666666 0 61.0624 32.65322666666667 61.0624 66.47402666666666 0 36.208 -32.446933333333334 62.88213333333333 -66.72319999999999 62.88213333333333 -47.52597333333333 0 -84.16426666666666 -37.58826666666666 -84.16426666666666 -84.85546666666666 0 -47.38176 39.62090666666666 -87.11775999999999 87.03359999999999 -87.11775999999999 59.18613333333333 0 103.2192 49.41653333333333 103.2192 107.38976 0 58.590933333333325 -47.5008 106.07893333333334 -106.08853333333333 106.07893333333334 -70.69247999999999 0 -128 -57.30773333333333 -128 -128 0 -70.69247999999999 57.30752 -128 128 -128 5.829333333333333 0 10.555733333333333 4.725759999999999 10.555733333333333 10.555274666666666 0 5.829472 -4.7264 10.555232 -10.555733333333333 10.555232Z" clip-rule="evenodd" stroke-width="10.6667"></path>
</svg>