<svg xmlns="http://www.w3.org/2000/svg" id="Stairs-Descend--Streamline-Ultimate" width="256" height="256" viewBox="0 0 256 256"><desc>Stairs Descend Streamline Icon: https://streamlinehq.com</desc><g id="Stairs-Descend--Streamline-Ultimate.svg"><path fill="#fff" stroke-width="10.667" d="M224 208a16 16 0 0 0 -16 -16h-21.333333333333332a5.333333333333333 5.333333333333333 0 0 1 -5.333333333333333 -5.333333333333333v-21.333333333333332a16 16 0 0 0 -16 -16h-21.333333333333332a5.333333333333333 5.333333333333333 0 0 1 -5.333333333333333 -5.333333333333333v-21.333333333333332a16 16 0 0 0 -16 -16h-21.333333333333332a5.333333333333333 5.333333333333333 0 0 1 -5.333333333333333 -5.333333333333333v-21.333333333333332A16 16 0 0 0 80 64H10.666666666666666a10.666666666666666 10.666666666666666 0 0 0 -10.666666666666666 10.666666666666666v170.66666666666666a10.666666666666666 10.666666666666666 0 0 0 10.666666666666666 10.666666666666666h202.66666666666666a10.666666666666666 10.666666666666666 0 0 0 10.666666666666666 -10.666666666666666Z"/><path fill="#fff" stroke-width="10.667" d="M252.69333333333333 72.42666666666666a5.013333333333333 5.013333333333333 0 0 0 -5.76 1.1733333333333333L235.30666666666664 85.33333333333333a5.333333333333333 5.333333333333333 0 0 1 -7.573333333333332 0L147.30666666666667 4.693333333333333a16 16 0 0 0 -22.613333333333333 22.613333333333333l80.42666666666666 80.42666666666666a5.333333333333333 5.333333333333333 0 0 1 0 7.573333333333332l-11.52 11.626666666666667a5.013333333333333 5.013333333333333 0 0 0 -1.1733333333333333 5.76 5.333333333333333 5.333333333333333 0 0 0 4.906666666666666 3.3066666666666666h53.33333333333333a5.333333333333333 5.333333333333333 0 0 0 5.333333333333333 -5.333333333333333v-53.33333333333333a5.333333333333333 5.333333333333333 0 0 0 -3.3066666666666666 -4.906666666666666Z"/></g></svg>