<svg xmlns="http://www.w3.org/2000/svg" id="Stamps-Image--Streamline-Ultimate" width="256" height="256" viewBox="0 0 256 256"><desc>Stamps Image Streamline Icon: https://streamlinehq.com</desc><g id="Stamps-Image--Streamline-Ultimate.svg"><path fill="#fff" stroke-width="10.667" d="M250.66666666666666 34.773333333333326V34.13333333333333a28.8 28.8 0 0 0 -52.48 -16.32 28.69333333333333 28.69333333333333 0 0 0 -46.72 0 28.69333333333333 28.69333333333333 0 0 0 -46.93333333333334 0 28.69333333333333 28.69333333333333 0 0 0 -46.72 0A28.586666666666666 28.586666666666666 0 0 0 34.13333333333333 5.333333333333333 28.906666666666666 28.906666666666666 0 0 0 5.333333333333333 34.773333333333326a28.373333333333335 28.373333333333335 0 0 0 11.946666666666667 23.146666666666665 28.586666666666666 28.586666666666666 0 0 0 0 46.61333333333333 28.69333333333333 28.69333333333333 0 0 0 0 46.93333333333334 28.586666666666666 28.586666666666666 0 0 0 0 46.61333333333333A29.119999999999997 29.119999999999997 0 0 0 34.13333333333333 250.66666666666666a28.69333333333333 28.69333333333333 0 0 0 23.253333333333334 -12.053333333333331 28.479999999999997 28.479999999999997 0 0 0 46.50666666666667 0 28.479999999999997 28.479999999999997 0 0 0 46.50666666666667 0 28.479999999999997 28.479999999999997 0 0 0 46.50666666666667 0 28.69333333333333 28.69333333333333 0 0 0 24.959999999999997 12.053333333333331 28.906666666666666 28.906666666666666 0 0 0 28.8 -29.439999999999998 28.373333333333335 28.373333333333335 0 0 0 -11.946666666666667 -23.146666666666665 28.586666666666666 28.586666666666666 0 0 0 0 -46.61333333333333 28.69333333333333 28.69333333333333 0 0 0 0 -46.93333333333334 28.586666666666666 28.586666666666666 0 0 0 0 -46.61333333333333 28.373333333333335 28.373333333333335 0 0 0 11.946666666666667 -23.146666666666665ZM53.33333333333333 64a10.666666666666666 10.666666666666666 0 0 1 10.666666666666666 -10.666666666666666h128a10.666666666666666 10.666666666666666 0 0 1 10.666666666666666 10.666666666666666v128a10.666666666666666 10.666666666666666 0 0 1 -10.666666666666666 10.666666666666666H64a10.666666666666666 10.666666666666666 0 0 1 -10.666666666666666 -10.666666666666666Z"/><path fill="#fff" stroke-width="10.667" d="m102.82666666666667 146.7733333333333 -12.693333333333332 21.333333333333332a5.333333333333333 5.333333333333333 0 0 0 4.586666666666666 8.106666666666666h84.69333333333333a5.333333333333333 5.333333333333333 0 0 0 5.119999999999999 -6.933333333333334l-17.28 -56.32a5.226666666666667 5.226666666666667 0 0 0 -9.6 -1.2799999999999998L131.2 154.66666666666666a5.333333333333333 5.333333333333333 0 0 1 -8 1.3866666666666667l-12.373333333333331 -10.666666666666666a5.333333333333333 5.333333333333333 0 0 0 -8 1.3866666666666667Z"/><path fill="#fff" stroke-width="10.667" d="M74.66666666666666 96a21.333333333333332 21.333333333333332 0 1 0 42.666666666666664 0 21.333333333333332 21.333333333333332 0 1 0 -42.666666666666664 0"/></g></svg>