<svg xmlns="http://www.w3.org/2000/svg" id="Startup-Product-Rocket-Box--Streamline-Ultimate" width="256" height="256" viewBox="0 0 256 256"><desc>Startup Product Rocket Box Streamline Icon: https://streamlinehq.com</desc><g id="Startup-Product-Rocket-Box--Streamline-Ultimate.svg"><path fill="#fff" stroke-width="10.667" d="m120 195.2 -80.32 -21.333333333333332 32 -8.32a8 8 0 0 0 5.76 -9.706666666666667 8.106666666666666 8.106666666666666 0 0 0 -9.813333333333333 -5.76L8.64 165.76a8 8 0 0 0 -5.973333333333334 8.426666666666666v48a8 8 0 0 0 6.293333333333333 7.786666666666666l111.03999999999999 24.106666666666662Z"/><path fill="#fff" stroke-width="10.667" d="M253.33333333333331 173.54666666666665a8.106666666666666 8.106666666666666 0 0 0 -5.973333333333334 -7.786666666666666L188.79999999999998 150.39999999999998a8.106666666666666 8.106666666666666 0 0 0 -9.813333333333333 5.76 8 8 0 0 0 5.76 9.706666666666667l29.65333333333333 7.786666666666666 -78.39999999999999 21.333333333333332v58.986666666666665l111.03999999999999 -24.106666666666662a8 8 0 0 0 6.293333333333333 -7.786666666666666v-48.53333333333333Z"/><path fill="#fff" stroke-width="10.667" d="M175.57333333333332 99.52a93.22666666666666 93.22666666666666 0 0 1 -12.053333333333331 27.093333333333334 51.519999999999996 51.519999999999996 0 0 1 10.666666666666666 8.533333333333333 7.04 7.04 0 0 0 12.053333333333331 -4.4799999999999995 39.78666666666666 39.78666666666666 0 0 0 -10.666666666666666 -31.146666666666665Z"/><path fill="#fff" stroke-width="10.667" d="M80.42666666666666 99.52a39.78666666666666 39.78666666666666 0 0 0 -10.666666666666666 31.146666666666665 7.04 7.04 0 0 0 12.053333333333331 4.4799999999999995 51.519999999999996 51.519999999999996 0 0 1 10.666666666666666 -8.533333333333333 93.22666666666666 93.22666666666666 0 0 1 -12.053333333333331 -27.093333333333334Z"/><path fill="#fff" stroke-width="10.667" d="M128 0S90.66666666666666 18.666666666666664 90.66666666666666 56c0 20.586666666666666 6.186666666666666 74.66666666666666 37.33333333333333 74.66666666666666s37.33333333333333 -54.08 37.33333333333333 -74.66666666666666C165.33333333333331 18.666666666666664 128 0 128 0Zm0 69.33333333333333a14.719999999999999 14.719999999999999 0 1 1 14.613333333333333 -14.719999999999999A14.613333333333333 14.613333333333333 0 0 1 128 69.33333333333333Z"/><path fill="#fff" stroke-width="10.667" d="M128 142.18666666666667a14.933333333333332 14.933333333333332 0 0 0 -14.933333333333332 14.933333333333332c0 8.32 6.72 28.16 14.933333333333332 28.16s14.933333333333332 -19.84 14.933333333333332 -28.16a14.933333333333332 14.933333333333332 0 0 0 -14.933333333333332 -14.933333333333332Z"/></g></svg>