<svg xmlns="http://www.w3.org/2000/svg" viewBox="0 0 256 256" id="Stopwatch--Streamline-Ultimate" height="256" width="256">
  <desc>
    Stopwatch Streamline Icon: https://streamlinehq.com
  </desc>
  <g id="Stopwatch--Streamline-Ultimate.svg">
    <path d="m204.37333333333333 88.10666666666665 16.53333333333333 -16.53333333333333a10.666666666666666 10.666666666666666 0 1 0 -15.146666666666665 -15.146666666666665l-17.066666666666666 17.066666666666666A101.22666666666666 101.22666666666666 0 0 0 138.66666666666666 53.86666666666666V21.333333333333332h21.333333333333332a10.666666666666666 10.666666666666666 0 0 0 0 -21.333333333333332H96a10.666666666666666 10.666666666666666 0 0 0 0 21.333333333333332h21.333333333333332v32.53333333333333a101.44 101.44 0 1 0 87.03999999999999 34.239999999999995ZM128 234.66666666666666a80 80 0 1 1 80 -80A80 80 0 0 1 128 234.66666666666666Z" fill="#ffffff" stroke-width="10.6667"></path>
    <path d="M98.24000000000001 109.75999999999999a10.666666666666666 10.666666666666666 0 1 0 -15.146666666666665 15.146666666666665l37.33333333333333 37.33333333333333a10.666666666666666 10.666666666666666 0 0 0 15.146666666666665 0 10.666666666666666 10.666666666666666 0 0 0 0 -15.146666666666665Z" fill="#ffffff" stroke-width="10.6667"></path>
  </g>
</svg>