<svg xmlns="http://www.w3.org/2000/svg" viewBox="0 0 256 256" id="Stove-Induction-Pot--Streamline-Ultimate" height="256" width="256">
  <desc>
    Stove Induction Pot Streamline Icon: https://streamlinehq.com
  </desc>
  <g id="Stove-Induction-Pot--Streamline-Ultimate.svg">
    <path d="M210.66666666666666 66.66666666666666H197.33333333333331a5.333333333333333 5.333333333333333 0 0 1 -5.333333333333333 -5.333333333333333V48a5.333333333333333 5.333333333333333 0 0 1 5.333333333333333 -5.333333333333333h8a8 8 0 0 0 0 -16h-43.626666666666665a5.226666666666667 5.226666666666667 0 0 1 -5.119999999999999 -4.053333333333333 29.333333333333332 29.333333333333332 0 0 0 -57.17333333333333 0 5.226666666666667 5.226666666666667 0 0 1 -5.119999999999999 4.053333333333333H50.666666666666664a8 8 0 0 0 0 16h8a5.333333333333333 5.333333333333333 0 0 1 5.333333333333333 5.333333333333333v13.333333333333332a5.333333333333333 5.333333333333333 0 0 1 -5.333333333333333 5.333333333333333H45.33333333333333a8 8 0 0 0 0 16H58.666666666666664a5.333333333333333 5.333333333333333 0 0 1 5.333333333333333 5.333333333333333v45.33333333333333C64 160.85333333333332 77.75999999999999 170.66666666666666 90.66666666666666 170.66666666666666h74.66666666666666c12.906666666666666 0 26.666666666666664 -9.813333333333333 26.666666666666664 -37.33333333333333V88a5.333333333333333 5.333333333333333 0 0 1 5.333333333333333 -5.333333333333333h13.333333333333332a8 8 0 0 0 0 -16Zm-71.14666666666666 -41.38666666666666a2.453333333333333 2.453333333333333 0 0 1 -2.2399999999999998 1.3866666666666667h-18.56a2.453333333333333 2.453333333333333 0 0 1 -2.2399999999999998 -1.3866666666666667 2.453333333333333 2.453333333333333 0 0 1 0 -2.6666666666666665 13.333333333333332 13.333333333333332 0 0 1 23.04 0 2.453333333333333 2.453333333333333 0 0 1 0 2.6666666666666665Z" fill="#ffffff" stroke-width="10.6667"></path>
    <path d="M54.18666666666667 199.89333333333332a69.33333333333333 69.33333333333333 0 0 0 -14.186666666666667 32A23.253333333333334 23.253333333333334 0 0 0 64 256a23.253333333333334 23.253333333333334 0 0 0 24 -24 69.33333333333333 69.33333333333333 0 0 0 -14.186666666666667 -32 12.053333333333331 12.053333333333331 0 0 0 -19.626666666666665 -0.10666666666666666Z" fill="#ffffff" stroke-width="10.6667"></path>
    <path d="M117.33333333333333 192a79.89333333333333 79.89333333333333 0 0 0 -16.426666666666666 36.8A25.92 25.92 0 0 0 128 256a25.92 25.92 0 0 0 26.77333333333333 -26.77333333333333A79.46666666666667 79.46666666666667 0 0 0 138.66666666666666 192a12.586666666666666 12.586666666666666 0 0 0 -21.333333333333332 0Z" fill="#ffffff" stroke-width="10.6667"></path>
    <path d="M182.18666666666664 199.89333333333332a69.33333333333333 69.33333333333333 0 0 0 -14.186666666666667 32 24 24 0 0 0 48 0 69.33333333333333 69.33333333333333 0 0 0 -14.186666666666667 -32 12.053333333333331 12.053333333333331 0 0 0 -19.626666666666665 0Z" fill="#ffffff" stroke-width="10.6667"></path>
  </g>
</svg>