<svg xmlns="http://www.w3.org/2000/svg" id="Style-One-Pin-Check--Streamline-Ultimate" width="256" height="256" viewBox="0 0 256 256"><desc>Style One Pin Check Streamline Icon: https://streamlinehq.com</desc><g id="Style-One-Pin-Check--Streamline-Ultimate.svg"><path fill="#fff" stroke-width="10.667" d="M128 0a101.33333333333333 101.33333333333333 0 0 0 -42.666666666666664 193.28 26.666666666666664 26.666666666666664 0 0 1 13.013333333333332 13.013333333333332l19.946666666666665 43.519999999999996a10.666666666666666 10.666666666666666 0 0 0 19.413333333333334 0l19.946666666666665 -43.519999999999996A26.666666666666664 26.666666666666664 0 0 1 170.66666666666666 193.28 101.33333333333333 101.33333333333333 0 0 0 128 0Zm0 165.33333333333331a64 64 0 1 1 64 -64 64 64 0 0 1 -64 64Z"/><path fill="#fff" stroke-width="10.667" d="m147.94666666666666 76.37333333333333 -27.199999999999996 36.373333333333335a2.88 2.88 0 0 1 -2.0266666666666664 1.0666666666666667 2.5599999999999996 2.5599999999999996 0 0 1 -2.0266666666666664 -0.8533333333333333L104.96 101.33333333333333a10.666666666666666 10.666666666666666 0 0 0 -15.04 15.04l16 16a18.133333333333333 18.133333333333333 0 0 0 13.12 5.546666666666667 18.773333333333333 18.773333333333333 0 0 0 15.04 -7.466666666666666l30.93333333333333 -41.38666666666666a10.666666666666666 10.666666666666666 0 0 0 -2.1333333333333333 -14.4 10.666666666666666 10.666666666666666 0 0 0 -14.933333333333332 1.7066666666666666Z"/></g></svg>