<svg xmlns="http://www.w3.org/2000/svg" id="Style-Three-Pin-Baseball--Streamline-Ultimate" width="256" height="256" viewBox="0 0 256 256"><desc>Style Three Pin Baseball Streamline Icon: https://streamlinehq.com</desc><path fill="#fff" stroke-width="10.667" d="M128 0C66.24 0 16 45.44 16 101.33333333333333c0 61.33333333333333 77.86666666666666 131.0933333333333 101.75999999999999 150.93333333333334a15.893333333333333 15.893333333333333 0 0 0 20.479999999999997 0c23.893333333333334 -19.946666666666665 101.75999999999999 -89.6 101.75999999999999 -150.93333333333334C240 45.44 189.76 0 128 0Zm-10.133333333333333 157.12a5.333333333333333 5.333333333333333 0 0 1 -6.3999999999999995 3.1999999999999997A58.986666666666665 58.986666666666665 0 0 1 96 153.70666666666665a5.226666666666667 5.226666666666667 0 0 1 -0.96 -8.32l76.8 -76.8a5.226666666666667 5.226666666666667 0 0 1 4.373333333333333 -1.4933333333333334 5.226666666666667 5.226666666666667 0 0 1 3.9466666666666663 2.453333333333333A63.14666666666666 63.14666666666666 0 0 1 187.0933333333333 85.33333333333333a5.333333333333333 5.333333333333333 0 0 1 -3.1999999999999997 6.3999999999999995 120.21333333333332 120.21333333333332 0 0 0 -40.21333333333333 25.599999999999998 121.27999999999999 121.27999999999999 0 0 0 -25.813333333333333 39.78666666666666ZM138.66666666666666 45.54666666666666a5.333333333333333 5.333333333333333 0 0 1 6.3999999999999995 -3.1999999999999997 58.986666666666665 58.986666666666665 0 0 1 14.933333333333332 6.613333333333333 5.226666666666667 5.226666666666667 0 0 1 2.453333333333333 3.9466666666666663 5.226666666666667 5.226666666666667 0 0 1 -1.4933333333333334 4.373333333333333c-14.933333333333332 14.826666666666664 -61.97333333333333 61.86666666666666 -76.8 76.8a5.226666666666667 5.226666666666667 0 0 1 -8.32 -0.96 63.14666666666666 63.14666666666666 0 0 1 -6.72 -15.253333333333332 5.333333333333333 5.333333333333333 0 0 1 3.1999999999999997 -6.3999999999999995A118.39999999999999 118.39999999999999 0 0 0 112.32 85.33333333333333 121.27999999999999 121.27999999999999 0 0 0 138.66666666666666 45.54666666666666Zm-25.706666666666667 -3.52a5.226666666666667 5.226666666666667 0 0 1 5.4399999999999995 1.8133333333333335 5.226666666666667 5.226666666666667 0 0 1 0.6399999999999999 5.76A97.17333333333332 97.17333333333332 0 0 1 101.01333333333334 74.66666666666666a97.17333333333332 97.17333333333332 0 0 1 -24.746666666666663 17.173333333333332 5.226666666666667 5.226666666666667 0 0 1 -5.76 -0.6399999999999999 5.226666666666667 5.226666666666667 0 0 1 -1.8133333333333335 -5.866666666666667 61.653333333333336 61.653333333333336 0 0 1 43.73333333333333 -43.30666666666666Zm31.146666666666665 118.61333333333332a5.226666666666667 5.226666666666667 0 0 1 -5.4399999999999995 -1.8133333333333335 5.226666666666667 5.226666666666667 0 0 1 -0.6399999999999999 -5.76 89.49333333333334 89.49333333333334 0 0 1 42.666666666666664 -42.666666666666664 5.226666666666667 5.226666666666667 0 0 1 5.76 0.6399999999999999 5.226666666666667 5.226666666666667 0 0 1 1.8133333333333335 5.4399999999999995 61.653333333333336 61.653333333333336 0 0 1 -44.693333333333335 44.16Z"/></svg>