<svg xmlns="http://www.w3.org/2000/svg" viewBox="0 0 256 256" id="Style-One-Pin-Plane--Streamline-Ultimate" height="256" width="256">
  <desc>
    Style One Pin Plane Streamline Icon: https://streamlinehq.com
  </desc>
  <path d="M128 0a101.33333333333333 101.33333333333333 0 0 0 -42.666666666666664 193.28 26.666666666666664 26.666666666666664 0 0 1 13.013333333333332 13.013333333333332l19.946666666666665 43.519999999999996a10.666666666666666 10.666666666666666 0 0 0 19.413333333333334 0l19.946666666666665 -43.519999999999996A26.666666666666664 26.666666666666664 0 0 1 170.66666666666666 193.28 101.33333333333333 101.33333333333333 0 0 0 128 0Zm72.10666666666665 91.30666666666667L102.39999999999999 151.89333333333332a6.186666666666666 6.186666666666666 0 0 1 -6.72 0l-35.733333333333334 -25.28a3.3066666666666666 3.3066666666666666 0 0 1 0 -4.693333333333333l10.666666666666666 -9.173333333333332a3.52 3.52 0 0 1 3.1999999999999997 -0.6399999999999999l15.786666666666665 9.493333333333332a5.546666666666667 5.546666666666667 0 0 0 5.973333333333334 0l18.986666666666665 -14.933333333333332a5.226666666666667 5.226666666666667 0 0 0 2.7733333333333334 -4.373333333333333 5.333333333333333 5.333333333333333 0 0 0 -2.5599999999999996 -4.266666666666667L75.62666666666667 74.66666666666666a4.16 4.16 0 0 1 0 -5.866666666666667l0.6399999999999999 -0.5333333333333333 10.666666666666666 -8.213333333333333a4.16 4.16 0 0 1 3.84 -0.6399999999999999l59.84 22.29333333333333a5.333333333333333 5.333333333333333 0 0 0 4.906666666666666 -0.5333333333333333l26.560000000000002 -18.24a15.893333333333333 15.893333333333333 0 0 1 12.586666666666666 -2.3466666666666667 16.96 16.96 0 0 1 12.373333333333331 10.666666666666666 16.426666666666666 16.426666666666666 0 0 1 0.96 5.546666666666667 17.066666666666666 17.066666666666666 0 0 1 -7.893333333333333 14.506666666666668Z" fill="#ffffff" stroke-width="10.6667"></path>
</svg>