<svg xmlns="http://www.w3.org/2000/svg" id="Style-Two-Pin-Home--Streamline-Ultimate" width="256" height="256" viewBox="0 0 256 256"><desc>Style Two Pin Home Streamline Icon: https://streamlinehq.com</desc><path fill="#fff" stroke-width="10.667" d="M128 0a101.44 101.44 0 0 0 -101.33333333333333 101.33333333333333C26.666666666666664 170.66666666666666 96 234.66666666666666 117.33333333333333 252.26666666666665a15.893333333333333 15.893333333333333 0 0 0 20.479999999999997 0C160 234.66666666666666 229.33333333333331 170.66666666666666 229.33333333333331 101.33333333333333A101.44 101.44 0 0 0 128 0Zm72.74666666666667 97.27999999999999a5.333333333333333 5.333333333333333 0 0 1 -3.413333333333333 9.386666666666667h-10.666666666666666a5.333333333333333 5.333333333333333 0 0 0 -5.333333333333333 5.333333333333333V160a5.333333333333333 5.333333333333333 0 0 1 -5.333333333333333 5.333333333333333H149.33333333333331a5.333333333333333 5.333333333333333 0 0 1 -5.333333333333333 -5.333333333333333v-24a16 16 0 0 0 -32 0V160a5.333333333333333 5.333333333333333 0 0 1 -5.333333333333333 5.333333333333333H80A5.333333333333333 5.333333333333333 0 0 1 74.66666666666666 160v-48a5.333333333333333 5.333333333333333 0 0 0 -5.333333333333333 -5.333333333333333h-10.666666666666666a5.333333333333333 5.333333333333333 0 0 1 -3.413333333333333 -9.386666666666667l69.33333333333333 -58.666666666666664a5.226666666666667 5.226666666666667 0 0 1 6.826666666666666 0Z"/></svg>