<svg xmlns="http://www.w3.org/2000/svg" id="Style-One-Pin-Star--Streamline-Ultimate" width="256" height="256" viewBox="0 0 256 256"><desc>Style One Pin Star Streamline Icon: https://streamlinehq.com</desc><path fill="#fff" stroke-width="10.667" d="M128 0a101.33333333333333 101.33333333333333 0 0 0 -42.666666666666664 193.28 26.666666666666664 26.666666666666664 0 0 1 13.013333333333332 13.013333333333332l19.946666666666665 43.519999999999996a10.666666666666666 10.666666666666666 0 0 0 19.413333333333334 0l19.946666666666665 -43.519999999999996A26.666666666666664 26.666666666666664 0 0 1 170.66666666666666 193.28 101.33333333333333 101.33333333333333 0 0 0 128 0Zm51.199999999999996 87.46666666666665 -21.866666666666664 21.333333333333332a2.7733333333333334 2.7733333333333334 0 0 0 -0.5333333333333333 2.986666666666667l12.053333333333331 27.733333333333334a6.933333333333334 6.933333333333334 0 0 1 -9.92 8.746666666666666l-29.65333333333333 -16.64a2.2399999999999998 2.2399999999999998 0 0 0 -2.5599999999999996 0L97.06666666666666 148.37333333333333a6.933333333333334 6.933333333333334 0 0 1 -9.92 -8.746666666666666l12.053333333333331 -27.733333333333334a2.7733333333333334 2.7733333333333334 0 0 0 -0.5333333333333333 -2.986666666666667l-21.333333333333332 -21.333333333333332a6.506666666666666 6.506666666666666 0 0 1 4.586666666666666 -11.413333333333334H106.66666666666666a2.5599999999999996 2.5599999999999996 0 0 0 2.0266666666666664 -1.4933333333333334l13.013333333333332 -27.946666666666665a7.04 7.04 0 0 1 12.586666666666666 0L147.2 74.66666666666666a2.6666666666666665 2.6666666666666665 0 0 0 2.453333333333333 1.5999999999999999h24.959999999999997a6.506666666666666 6.506666666666666 0 0 1 4.586666666666666 11.2Z"/></svg>