<svg xmlns="http://www.w3.org/2000/svg" fill="none" viewBox="0 0 256 256" id="Subtitles--Streamline-Ultimate" height="256" width="256">
  <desc>
    Subtitles Streamline Icon: https://streamlinehq.com
  </desc>
  <path fill="#ffffff" fill-rule="evenodd" d="M34.58336 14.864533333333334c-14.727573333333334 0 -26.666687999999997 11.939093333333332 -26.666687999999997 26.666666666666664V173.6352c0 14.727466666666666 11.939114666666665 26.666666666666664 26.666687999999997 26.666666666666664h9.22912v24.813866666666662c0 12.898133333333334 14.480746666666665 20.494933333333332 25.093866666666663 13.163733333333333l54.97738666666667 -37.977599999999995h97.53280000000001c14.727466666666666 0 26.666666666666664 -11.9392 26.666666666666664 -26.666666666666664V41.5312c0 -14.727573333333334 -11.9392 -26.666666666666664 -26.666666666666664 -26.666666666666664H34.58336Zm9.250026666666667 104.29173333333333c0 -4.4181333333333335 3.5816533333333336 -8 8 -8h88.39594666666666c4.4181333333333335 0 8 3.5818666666666665 8 8s-3.5818666666666665 8 -8 8H51.83338666666666c-4.418346666666666 0 -8 -3.5818666666666665 -8 -8Zm160.33301333333333 30.229333333333333c4.4181333333333335 0 8 3.5818666666666665 8 8s-3.5818666666666665 8 -8 8h-88.39573333333334c-4.4181333333333335 0 -8 -3.5818666666666665 -8 -8s3.5818666666666665 -8 8 -8h88.39573333333334Zm-36.791466666666665 -30.229333333333333c0 -4.4181333333333335 3.5818666666666665 -8 8 -8h28.794666666666664c4.4181333333333335 0 8 3.5818666666666665 8 8s-3.5818666666666665 8 -8 8h-28.794666666666664c-4.4181333333333335 0 -8 -3.5818666666666665 -8 -8Zm-86.74997333333332 30.229333333333333c4.418346666666666 0 8 3.5818666666666665 8 8s-3.5816533333333336 8 -8 8H51.830506666666665c-4.418346666666666 0 -8 -3.5818666666666665 -8 -8s3.5816533333333336 -8 8 -8h28.79445333333333Z" clip-rule="evenodd" stroke-width="10.6667"></path>
</svg>