<svg xmlns="http://www.w3.org/2000/svg" viewBox="0 0 256 256" id="Sudoku--Streamline-Ultimate" height="256" width="256">
  <desc>
    Sudoku Streamline Icon: https://streamlinehq.com
  </desc>
  <g id="Sudoku--Streamline-Ultimate.svg">
    <path d="M120 136H0V224a32 32 0 0 0 32 32h88Z" fill="#ffffff" stroke-width="10.6667"></path>
    <path d="M120 120V0H32a32 32 0 0 0 -32 32v88ZM41.28 46.18666666666667l24.64 -12.373333333333331a8.426666666666666 8.426666666666666 0 0 1 7.786666666666666 0 8 8 0 0 1 3.733333333333333 6.826666666666666v53.33333333333333a8 8 0 0 1 -16 0V53.97333333333333l-13.013333333333332 6.506666666666666a8 8 0 0 1 -10.666666666666666 -3.626666666666667 7.893333333333333 7.893333333333333 0 0 1 3.52 -10.666666666666666Z" fill="#ffffff" stroke-width="10.6667"></path>
    <path d="M136 136V256H224a32 32 0 0 0 32 -32v-88ZM224.95999999999998 224a8 8 0 0 1 -16 0v-14.293333333333333h-37.65333333333333a7.893333333333333 7.893333333333333 0 0 1 -8 -8V170.66666666666666a8 8 0 1 1 16 0v23.36h29.65333333333333V170.66666666666666a8 8 0 0 1 16 0Z" fill="#ffffff" stroke-width="10.6667"></path>
    <path d="M136 120H256V32a32 32 0 0 0 -32 -32h-88Zm37.97333333333333 -87.03999999999999h47.36a8 8 0 0 1 7.04 4.266666666666667 7.893333333333333 7.893333333333333 0 0 1 0 8.213333333333333l-36.373333333333335 53.33333333333333a7.786666666666666 7.786666666666666 0 0 1 -6.613333333333333 3.52 8.426666666666666 8.426666666666666 0 0 1 -4.053333333333333 -1.2799999999999998 8.106666666666666 8.106666666666666 0 0 1 -2.2399999999999998 -10.666666666666666l27.306666666666665 -40.959999999999994h-32a8 8 0 0 1 0 -16Z" fill="#ffffff" stroke-width="10.6667"></path>
  </g>
</svg>