<svg xmlns="http://www.w3.org/2000/svg" fill="none" viewBox="0 0 256 256" id="Swap-Camera--Streamline-Ultimate" height="256" width="256">
  <desc>
    Swap Camera Streamline Icon: https://streamlinehq.com
  </desc>
  <path fill="#ffffff" fill-rule="evenodd" d="M92.25045333333333 29.10208c0.9922133333333334 -0.9480533333333333 2.3117866666666664 -1.4771199999999998 3.6842666666666664 -1.4771199999999998h63.79434666666666c1.3728 0 2.692266666666667 0.5290666666666666 3.6842666666666664 1.4771199999999998l25.020799999999998 23.905386666666665h24.4288c0.07573333333333333 0 0.15146666666666667 0.0015999999999999999 0.22719999999999999 0.004906666666666667 18.712533333333333 0.7962666666666666 33.58293333333333 15.910506666666667 34.37653333333333 34.545386666666666 0.0031999999999999997 0.07562666666666666 0.004266666666666667 0.15114666666666665 0.004266666666666667 0.22677333333333333v108.976c0 0.09813333333333332 -0.0021333333333333334 0.1973333333333333 -0.007466666666666667 0.29546666666666666 -1.0069333333333332 18.109866666666665 -16.6272 32.18773333333333 -34.74133333333333 31.266133333333332H43.25216C25.223466666666667 229.05706666666666 9.549119999999998 215.22986666666668 8.539466666666666 197.05599999999998c-0.005482666666666667 -0.09813333333333332 -0.008213333333333333 -0.1973333333333333 -0.008213333333333333 -0.29546666666666666V87.78453333333331c0 -0.07562666666666666 0.0015999999999999999 -0.15114666666666665 0.004821333333333333 -0.22677333333333333C9.329045333333333 68.92287999999999 24.199893333333335 53.80864 42.91232 53.01237333333333c0.07552 -0.0033066666666666665 0.15114666666666665 -0.004906666666666667 0.22677333333333333 -0.004906666666666667h24.090346666666665l25.021013333333332 -23.905386666666665Zm12.71008 69.04853333333332c6.758933333333333 -3.96096 14.626666666666667 -6.2339199999999995 23.050133333333335 -6.2339199999999995 21.800533333333334 0 40.03306666666666 15.275839999999999 44.57706666666667 35.70784h-10.6816c-3.2352 0 -6.1525333333333325 1.9498666666666664 -7.390933333333333 4.938666666666666 -1.2384 2.9898666666666665 -0.5536 6.430933333333333 1.7344 8.718933333333332l19.770666666666664 19.770666666666664c3.1242666666666663 3.1242666666666663 8.189866666666667 3.1242666666666663 11.314133333333332 0l19.770666666666664 -19.770666666666664c2.288 -2.288 2.9717333333333333 -5.729066666666666 1.7344 -8.718933333333332 -1.2384 -2.9888 -4.155733333333333 -4.938666666666666 -7.3919999999999995 -4.938666666666666h-12.570666666666668c-4.760533333333333 -29.32192 -30.199466666666666 -51.707840000000004 -60.86613333333333 -51.707840000000004 -11.342933333333331 0 -21.993919999999996 3.0699733333333334 -31.139626666666665 8.429653333333333 -3.8119466666666666 2.233813333333333 -5.091306666666666 7.134933333333334 -2.8573866666666667 10.94688 2.233813333333333 3.8119466666666666 7.134933333333334 5.0912 10.94688 2.8573866666666667ZM94.11456 147.56266666666664H83.43733333333333c4.552 20.421333333333333 22.779733333333333 35.687466666666666 44.57333333333333 35.687466666666666 7.802666666666667 0 15.127466666666665 -1.9509333333333334 21.53493333333333 -5.384533333333334 3.893333333333333 -2.087466666666667 8.7424 -0.6218666666666666 10.829866666666668 3.2725333333333335 2.0864 3.8943999999999996 0.6218666666666666 8.743466666666666 -3.2725333333333335 10.829866666666668 -8.674133333333334 4.648533333333333 -18.587733333333333 7.2821333333333325 -29.092266666666664 7.2821333333333325 -30.660266666666665 0 -56.09418666666666 -22.375466666666668 -60.863679999999995 -51.687466666666666H54.57290666666666c-3.235733333333333 0 -6.152746666666666 -1.9487999999999999 -7.39104 -4.938666666666666 -1.2381866666666665 -2.9898666666666665 -0.5538133333333333 -6.429866666666666 1.7341866666666665 -8.717866666666666l19.77088 -19.77173333333333c3.12416 -3.1242666666666663 8.18944 -3.1242666666666663 11.313706666666665 0l19.77077333333333 19.77173333333333c2.288 2.288 2.9724799999999996 5.728 1.7341866666666665 8.717866666666666 -1.2381866666666665 2.9898666666666665 -4.155306666666666 4.938666666666666 -7.39104 4.938666666666666Z" clip-rule="evenodd" stroke-width="10.6667"></path>
</svg>