<svg xmlns="http://www.w3.org/2000/svg" viewBox="0 0 256 256" id="Swimming-Diving--Streamline-Ultimate" height="256" width="256">
  <desc>
    Swimming Diving Streamline Icon: https://streamlinehq.com
  </desc>
  <g id="Swimming-Diving--Streamline-Ultimate.svg">
    <path d="M78.29333333333332 137.6a26.666666666666664 26.666666666666664 0 1 0 -36.266666666666666 -10.666666666666666 26.77333333333333 26.77333333333333 0 0 0 36.266666666666666 10.666666666666666Z" fill="#ffffff" stroke-width="10.6667"></path>
    <path d="M82.34666666666666 200.53333333333333a15.893333333333333 15.893333333333333 0 0 0 21.973333333333333 -5.546666666666667l26.666666666666664 -44.373333333333335a27.306666666666665 27.306666666666665 0 0 1 8.853333333333332 -8.959999999999999l29.759999999999998 -18.346666666666664a2.986666666666667 2.986666666666667 0 0 0 1.1733333333333333 -1.5999999999999999 3.413333333333333 3.413333333333333 0 0 0 0 -2.0266666666666664l-14.293333333333333 -22.72a2.7733333333333334 2.7733333333333334 0 0 0 -3.733333333333333 -0.96l-29.65333333333333 18.24a57.919999999999995 57.919999999999995 0 0 0 -19.52 19.84l-26.666666666666664 44.373333333333335a16 16 0 0 0 5.4399999999999995 22.08Z" fill="#ffffff" stroke-width="10.6667"></path>
    <path d="M187.62666666666667 112.32A61.120000000000005 61.120000000000005 0 0 0 202.66666666666666 99.2a2.5599999999999996 2.5599999999999996 0 0 0 0 -1.92 2.453333333333333 2.453333333333333 0 0 0 -1.0666666666666667 -1.8133333333333335l-21.333333333333332 -16a2.6666666666666665 2.6666666666666665 0 0 0 -3.626666666666667 0A28.16 28.16 0 0 1 170.66666666666666 85.33333333333333l-4.373333333333333 2.6666666666666665a3.3066666666666666 3.3066666666666666 0 0 0 -1.1733333333333333 1.7066666666666666 2.7733333333333334 2.7733333333333334 0 0 0 0 2.0266666666666664l13.973333333333333 22.72a2.7733333333333334 2.7733333333333334 0 0 0 3.626666666666667 0.8533333333333333Z" fill="#ffffff" stroke-width="10.6667"></path>
    <path d="M238.82666666666665 7.1466666666666665a5.333333333333333 5.333333333333333 0 0 0 -7.893333333333333 -6.293333333333333l-24.746666666666663 15.786666666666665a21.333333333333332 21.333333333333332 0 0 0 -8.64 10.666666666666666l-13.866666666666667 38.82666666666667a2.88 2.88 0 0 0 0.96 3.093333333333333L206.61333333333334 85.33333333333333a2.5599999999999996 2.5599999999999996 0 0 0 2.3466666666666667 0 2.6666666666666665 2.6666666666666665 0 0 0 1.7066666666666666 -1.7066666666666666c5.653333333333333 -14.4 28.16 -76.47999999999999 28.16 -76.47999999999999Z" fill="#ffffff" stroke-width="10.6667"></path>
    <path d="M244.58666666666664 234.66666666666666c-16.96 1.5999999999999999 -28.479999999999997 -16.53333333333333 -28.586666666666666 -16.746666666666666a10.666666666666666 10.666666666666666 0 0 0 -18.24 0A36.05333333333333 36.05333333333333 0 0 1 168.42666666666665 234.66666666666666a29.866666666666664 29.866666666666664 0 0 1 -25.706666666666667 -15.786666666666665 11.2 11.2 0 0 0 -18.346666666666664 -1.5999999999999999A45.97333333333333 45.97333333333333 0 0 1 91.30666666666667 234.66666666666666a37.86666666666666 37.86666666666666 0 0 1 -29.439999999999998 -17.28 10.666666666666666 10.666666666666666 0 0 0 -17.493333333333332 -0.96S29.013333333333335 236.0533333333333 11.2 234.66666666666666a10.666666666666666 10.666666666666666 0 0 0 -10.666666666666666 10.026666666666666C0 246.71999999999997 0 256 12.479999999999999 256a62.08 62.08 0 0 0 39.78666666666666 -17.173333333333332A55.46666666666667 55.46666666666667 0 0 0 91.30666666666667 256a62.61333333333333 62.61333333333333 0 0 0 40.64 -16 48.959999999999994 48.959999999999994 0 0 0 36.48 16 55.14666666666666 55.14666666666666 0 0 0 38.61333333333333 -15.893333333333333A50.986666666666665 50.986666666666665 0 0 0 246.07999999999998 256a10.666666666666666 10.666666666666666 0 0 0 9.92 -11.946666666666667 10.666666666666666 10.666666666666666 0 0 0 -11.413333333333334 -9.386666666666667Z" fill="#ffffff" stroke-width="10.6667"></path>
  </g>
</svg>