<svg xmlns="http://www.w3.org/2000/svg" id="Swimming-Pool-Stairs--Streamline-Ultimate" width="256" height="256" viewBox="0 0 256 256"><desc>Swimming Pool Stairs Streamline Icon: https://streamlinehq.com</desc><g id="Swimming-Pool-Stairs--Streamline-Ultimate.svg"><path fill="#fff" stroke-width="10.667" d="M85.33333333333333 208a10.666666666666666 10.666666666666666 0 0 0 10.666666666666666 -10.666666666666666v-10.666666666666666a5.333333333333333 5.333333333333333 0 0 1 5.333333333333333 -5.333333333333333H160a5.333333333333333 5.333333333333333 0 0 1 5.333333333333333 5.333333333333333v10.666666666666666a10.666666666666666 10.666666666666666 0 0 0 21.333333333333332 0v-160a16 16 0 0 1 32 0 10.666666666666666 10.666666666666666 0 0 0 21.333333333333332 0 37.33333333333333 37.33333333333333 0 0 0 -74.66666666666666 0v21.333333333333332a5.333333333333333 5.333333333333333 0 0 1 -5.333333333333333 5.333333333333333H101.33333333333333a5.333333333333333 5.333333333333333 0 0 1 -5.333333333333333 -5.333333333333333v-21.333333333333332a16 16 0 0 1 32 0 10.666666666666666 10.666666666666666 0 0 0 21.333333333333332 0 37.33333333333333 37.33333333333333 0 0 0 -74.66666666666666 0v160a10.666666666666666 10.666666666666666 0 0 0 10.666666666666666 10.666666666666666Zm10.666666666666666 -117.33333333333333a5.333333333333333 5.333333333333333 0 0 1 5.333333333333333 -5.333333333333333H160a5.333333333333333 5.333333333333333 0 0 1 5.333333333333333 5.333333333333333V106.66666666666666a5.333333333333333 5.333333333333333 0 0 1 -5.333333333333333 5.333333333333333H101.33333333333333A5.333333333333333 5.333333333333333 0 0 1 96 106.66666666666666ZM96 138.66666666666666a5.333333333333333 5.333333333333333 0 0 1 5.333333333333333 -5.333333333333333H160a5.333333333333333 5.333333333333333 0 0 1 5.333333333333333 5.333333333333333v16a5.333333333333333 5.333333333333333 0 0 1 -5.333333333333333 5.333333333333333H101.33333333333333a5.333333333333333 5.333333333333333 0 0 1 -5.333333333333333 -5.333333333333333Z"/><path fill="#fff" stroke-width="10.667" d="M243.94666666666666 234.02666666666667c-17.386666666666663 2.3466666666666667 -29.226666666666667 -16 -29.333333333333332 -16.106666666666666a10.666666666666666 10.666666666666666 0 0 0 -18.346666666666664 0A34.986666666666665 34.986666666666665 0 0 1 167.78666666666666 234.66666666666666a29.226666666666667 29.226666666666667 0 0 1 -24.959999999999997 -15.36 10.666666666666666 10.666666666666666 0 0 0 -18.24 -1.7066666666666666 45.120000000000005 45.120000000000005 0 0 1 -32 17.066666666666666A36.586666666666666 36.586666666666666 0 0 1 64 217.92a10.666666666666666 10.666666666666666 0 0 0 -17.493333333333332 -0.96S29.973333333333333 236.69333333333333 12.053333333333331 234.66666666666666a10.666666666666666 10.666666666666666 0 1 0 -2.7733333333333334 21.333333333333332 36.16 36.16 0 0 0 5.866666666666667 0 57.919999999999995 57.919999999999995 0 0 0 35.41333333333333 -13.866666666666667 5.4399999999999995 5.4399999999999995 0 0 1 6.72 0A53.33333333333333 53.33333333333333 0 0 0 92.26666666666667 256a60.266666666666666 60.266666666666666 0 0 0 36.266666666666666 -12.799999999999999 5.333333333333333 5.333333333333333 0 0 1 6.72 0 47.78666666666667 47.78666666666667 0 0 0 32.53333333333333 12.799999999999999A53.33333333333333 53.33333333333333 0 0 0 202.66666666666666 243.0933333333333a5.333333333333333 5.333333333333333 0 0 1 6.826666666666666 0 47.57333333333333 47.57333333333333 0 0 0 37.76 11.946666666666667A10.666666666666666 10.666666666666666 0 0 0 256 243.2a10.666666666666666 10.666666666666666 0 0 0 -12.053333333333331 -9.173333333333332Z"/></g></svg>