<svg xmlns="http://www.w3.org/2000/svg" id="Switch-Account-1--Streamline-Ultimate" width="256" height="256" fill="none" viewBox="0 0 256 256"><desc>Switch Account 1 Streamline Icon: https://streamlinehq.com</desc><path fill="#fff" fill-rule="evenodd" stroke-width="10.667" d="M225.248 34.773333333333326a27.455999999999996 27.455999999999996 0 1 1 -54.90133333333333 0 27.455999999999996 27.455999999999996 0 0 1 54.90133333333333 0ZM55.33866666666666 30.432000000000002l0 31.786666666666665H72.42666666666666a8 8 0 0 1 5.653333333333333 13.653333333333332l-27.733333333333334 27.744a8 8 0 0 1 -11.306666666666667 0l-27.744 -27.733333333333334a8 8 0 0 1 5.653333333333333 -13.663999999999998h17.066666666666666l0 -31.786666666666665a21.333333333333332 21.333333333333332 0 0 1 21.333333333333332 -21.333333333333332l66.90133333333333 0a10.666666666666666 10.666666666666666 0 1 1 0 21.333333333333332l-66.91199999999999 0Zm152.98133333333334 165.12h-17.088a8 8 0 0 1 -5.653333333333333 -13.653333333333332l27.733333333333334 -27.744a8 8 0 0 1 11.317333333333332 0l27.744 27.733333333333334a8 8 0 0 1 -5.653333333333333 13.663999999999998h-17.066666666666666v31.786666666666665a21.333333333333332 21.333333333333332 0 0 1 -21.333333333333332 21.333333333333332h-66.90133333333333a10.666666666666666 10.666666666666666 0 0 1 0 -21.333333333333332l66.90133333333333 0v-31.786666666666665Zm-150.37866666666667 -5.333333333333333a27.455999999999996 27.455999999999996 0 1 0 0 -54.89066666666666 27.455999999999996 27.455999999999996 0 0 0 0 54.90133333333333Zm55.44533333333334 44.959999999999994c-11.125333333333332 -19.328 -32.04266666666666 -32.64 -55.46666666666667 -32.64s-44.352000000000004 13.312 -55.46666666666667 32.64c-3.584 6.207999999999999 1.5039999999999998 13.184 8.671999999999999 13.184h93.58933333333331c7.157333333333334 0 12.245333333333331 -6.976 8.671999999999999 -13.184Zm84.38399999999999 -160.64c23.424 0 44.352000000000004 13.312 55.46666666666667 32.64 3.584 6.207999999999999 -1.5039999999999998 13.184 -8.671999999999999 13.184h-93.58933333333331c-7.157333333333334 0 -12.245333333333331 -6.976 -8.671999999999999 -13.184 11.125333333333332 -19.328 32.04266666666666 -32.64 55.46666666666667 -32.64Z" clip-rule="evenodd"/></svg>