<svg xmlns="http://www.w3.org/2000/svg" viewBox="0 0 256 256" id="Synchronize-Refresh-Arrow--Streamline-Ultimate" height="256" width="256">
  <desc>
    Synchronize Refresh Arrow Streamline Icon: https://streamlinehq.com
  </desc>
  <path d="M134.07999999999998 13.333333333333332a115.52 115.52 0 0 0 -104 76.16 2.6666666666666665 2.6666666666666665 0 0 1 -2.88 1.7066666666666666L9.173333333333332 88.64a5.333333333333333 5.333333333333333 0 0 0 -5.226666666666667 2.2399999999999998 5.4399999999999995 5.4399999999999995 0 0 0 0 5.653333333333333L32 146.66666666666666a5.333333333333333 5.333333333333333 0 0 0 4.266666666666667 2.6666666666666665 4.906666666666666 4.906666666666666 0 0 0 4.4799999999999995 -1.4933333333333334l40.21333333333333 -39.89333333333333a5.4399999999999995 5.4399999999999995 0 0 0 1.2799999999999998 -5.4399999999999995 5.119999999999999 5.119999999999999 0 0 0 -4.266666666666667 -3.626666666666667L59.626666666666665 96a2.6666666666666665 2.6666666666666665 0 0 1 -1.92 -1.2799999999999998 2.7733333333333334 2.7733333333333334 0 0 1 0 -2.453333333333333 88.96 88.96 0 0 1 77.44 -52.266666666666666 88 88 0 1 1 -67.84 140.05333333333334 13.333333333333332 13.333333333333332 0 1 0 -21.333333333333332 15.786666666666665 114.66666666666666 114.66666666666666 0 1 0 88.10666666666665 -182.50666666666666Z" fill="#ffffff" stroke-width="10.6667"></path>
</svg>