<svg xmlns="http://www.w3.org/2000/svg" id="Synchronize-Arrows-Lock--Streamline-Ultimate" width="256" height="256" viewBox="0 0 256 256"><desc>Synchronize Arrows Lock Streamline Icon: https://streamlinehq.com</desc><g id="Synchronize-Arrows-Lock--Streamline-Ultimate.svg"><path fill="#fff" stroke-width="10.667" d="M128 77.33333333333333A29.333333333333332 29.333333333333332 0 0 0 98.56 106.66666666666666v9.28a2.6666666666666665 2.6666666666666665 0 0 1 -1.5999999999999999 2.453333333333333 10.666666666666666 10.666666666666666 0 0 0 -6.3999999999999995 9.6v32a10.666666666666666 10.666666666666666 0 0 0 10.666666666666666 10.666666666666666h53.33333333333333a10.666666666666666 10.666666666666666 0 0 0 10.666666666666666 -10.666666666666666v-32a10.666666666666666 10.666666666666666 0 0 0 -6.3999999999999995 -9.6 2.6666666666666665 2.6666666666666665 0 0 1 -1.5999999999999999 -2.453333333333333V106.66666666666666A29.333333333333332 29.333333333333332 0 0 0 128 77.33333333333333Zm0 16A13.333333333333332 13.333333333333332 0 0 1 141.22666666666666 106.66666666666666v8A2.6666666666666665 2.6666666666666665 0 0 1 138.66666666666666 117.33333333333333h-21.333333333333332a2.6666666666666665 2.6666666666666665 0 0 1 -2.6666666666666665 -2.6666666666666665V106.66666666666666A13.333333333333332 13.333333333333332 0 0 1 128 93.33333333333333Zm0 61.33333333333333a10.666666666666666 10.666666666666666 0 1 1 10.666666666666666 -10.666666666666666 10.666666666666666 10.666666666666666 0 0 1 -10.666666666666666 10.666666666666666Z"/><path fill="#fff" stroke-width="10.667" d="m0.8533333333333333 110.08 27.626666666666665 48.42666666666666a5.226666666666667 5.226666666666667 0 0 0 4.586666666666666 2.6666666666666665 5.119999999999999 5.119999999999999 0 0 0 3.84 -1.1733333333333333l38.82666666666667 -40.53333333333333a5.333333333333333 5.333333333333333 0 0 0 -3.1999999999999997 -8.959999999999999l-21.333333333333332 -2.7733333333333334a2.453333333333333 2.453333333333333 0 0 1 -2.3466666666666667 -1.0666666666666667 2.7733333333333334 2.7733333333333334 0 0 1 0 -2.2399999999999998 86.50666666666666 86.50666666666666 0 0 1 60.58666666666666 -55.57333333333333 81.38666666666666 81.38666666666666 0 0 1 79.78666666666666 25.28 13.333333333333332 13.333333333333332 0 0 0 19.946666666666665 -17.599999999999998 107.62666666666667 107.62666666666667 0 0 0 -106.24000000000001 -33.81333333333333A113.91999999999999 113.91999999999999 0 0 0 21.333333333333332 102.08a2.2399999999999998 2.2399999999999998 0 0 1 -2.5599999999999996 1.5999999999999999L6.079999999999999 102.18666666666667a5.119999999999999 5.119999999999999 0 0 0 -5.013333333333333 2.2399999999999998 5.226666666666667 5.226666666666667 0 0 0 -0.21333333333333332 5.653333333333333Z"/><path fill="#fff" stroke-width="10.667" d="M255.04 151.35999999999999a5.4399999999999995 5.4399999999999995 0 0 0 0 -5.653333333333333l-27.733333333333334 -48.32a5.546666666666667 5.546666666666667 0 0 0 -4.053333333333333 -2.5599999999999996 4.906666666666666 4.906666666666666 0 0 0 -4.4799999999999995 1.5999999999999999l-38.50666666666666 40.31999999999999a5.119999999999999 5.119999999999999 0 0 0 -1.1733333333333333 5.4399999999999995 5.226666666666667 5.226666666666667 0 0 0 4.373333333333333 3.52l21.333333333333332 2.5599999999999996a2.453333333333333 2.453333333333333 0 0 1 1.92 1.2799999999999998 2.7733333333333334 2.7733333333333334 0 0 1 0 2.2399999999999998 86.50666666666666 86.50666666666666 0 0 1 -60.58666666666666 55.57333333333333 81.28 81.28 0 0 1 -79.78666666666666 -25.386666666666663 13.333333333333332 13.333333333333332 0 0 0 -19.946666666666665 17.706666666666663A107.94666666666666 107.94666666666666 0 0 0 128 236.16c71.67999999999999 0 100.79999999999998 -61.120000000000005 106.66666666666666 -82.02666666666667a2.5599999999999996 2.5599999999999996 0 0 1 2.88 -1.92l12.479999999999999 1.4933333333333334a5.76 5.76 0 0 0 5.013333333333333 -2.3466666666666667Z"/></g></svg>