<svg xmlns="http://www.w3.org/2000/svg" viewBox="0 0 256 256" id="Synchronize-Arrows-Three--Streamline-Ultimate" height="256" width="256">
  <desc>
    Synchronize Arrows Three Streamline Icon: https://streamlinehq.com
  </desc>
  <g id="Synchronize-Arrows-Three--Streamline-Ultimate.svg">
    <path d="M138.66666666666666 219.41333333333333a13.333333333333332 13.333333333333332 0 0 0 6.3999999999999995 25.92 111.68 111.68 0 0 0 81.70666666666666 -87.57333333333334 2.6666666666666665 2.6666666666666665 0 0 1 2.3466666666666667 -2.2399999999999998l18.026666666666664 -1.5999999999999999a5.226666666666667 5.226666666666667 0 0 0 4.4799999999999995 -3.3066666666666666 5.4399999999999995 5.4399999999999995 0 0 0 -0.96 -5.546666666666667L216.53333333333333 106.66666666666666a5.4399999999999995 5.4399999999999995 0 0 0 -4.4799999999999995 -1.7066666666666666 5.119999999999999 5.119999999999999 0 0 0 -4.053333333333333 2.453333333333333L181.33333333333331 151.25333333333333a5.333333333333333 5.333333333333333 0 0 0 4.4799999999999995 8.106666666666666l9.493333333333332 -0.8533333333333333a2.6666666666666665 2.6666666666666665 0 0 1 2.7733333333333334 3.413333333333333A84.47999999999999 84.47999999999999 0 0 1 138.66666666666666 219.41333333333333Z" fill="#ffffff" stroke-width="10.6667"></path>
    <path d="M87.78666666666666 29.333333333333332A2.5599999999999996 2.5599999999999996 0 0 1 85.33333333333333 28.16L75.52 12.799999999999999a5.4399999999999995 5.4399999999999995 0 0 0 -5.013333333333333 -2.1333333333333333 5.333333333333333 5.333333333333333 0 0 0 -4.4799999999999995 3.413333333333333L46.93333333333334 60.906666666666666a5.546666666666667 5.546666666666667 0 0 0 0 4.693333333333333 5.013333333333333 5.013333333333333 0 0 0 4.053333333333333 2.5599999999999996l51.199999999999996 5.119999999999999a5.4399999999999995 5.4399999999999995 0 0 0 4.586666666666666 -8.106666666666666l-4.906666666666666 -8.106666666666666a2.5599999999999996 2.5599999999999996 0 0 1 0 -2.453333333333333 2.3466666666666667 2.3466666666666667 0 0 1 2.3466666666666667 -1.2799999999999998 84.16 84.16 0 0 1 77.86666666666666 28.479999999999997 13.226666666666667 13.226666666666667 0 0 0 10.666666666666666 4.8 13.546666666666667 13.546666666666667 0 0 0 8.64 -3.1999999999999997A13.333333333333332 13.333333333333332 0 0 0 202.66666666666666 64 111.35999999999999 111.35999999999999 0 0 0 87.78666666666666 29.333333333333332Z" fill="#ffffff" stroke-width="10.6667"></path>
    <path d="M27.306666666666665 93.33333333333333A13.226666666666667 13.226666666666667 0 0 0 10.666666666666666 101.44a112 112 0 0 0 27.626666666666665 117.33333333333333 2.7733333333333334 2.7733333333333334 0 0 1 0 3.093333333333333l-8.533333333333333 15.68a5.333333333333333 5.333333333333333 0 0 0 4.693333333333333 7.893333333333333S32 245.33333333333331 85.33333333333333 237.54666666666665a5.653333333333333 5.653333333333333 0 0 0 4.266666666666667 -2.88 5.4399999999999995 5.4399999999999995 0 0 0 0 -4.8l-21.333333333333332 -46.29333333333333a5.333333333333333 5.333333333333333 0 0 0 -4.266666666666667 -2.986666666666667 5.119999999999999 5.119999999999999 0 0 0 -4.8 2.7733333333333334L54.39999999999999 192a2.7733333333333334 2.7733333333333334 0 0 1 -2.0266666666666664 1.3866666666666667 2.6666666666666665 2.6666666666666665 0 0 1 -2.3466666666666667 -1.3866666666666667 85.33333333333333 85.33333333333333 0 0 1 -14.613333333333333 -81.81333333333333 13.226666666666667 13.226666666666667 0 0 0 -8.106666666666666 -16.85333333333333Z" fill="#ffffff" stroke-width="10.6667"></path>
  </g>
</svg>