<svg xmlns="http://www.w3.org/2000/svg" id="Tablet--Streamline-Ultimate" width="256" height="256" viewBox="0 0 256 256"><desc>Tablet Streamline Icon: https://streamlinehq.com</desc><g id="Tablet--Streamline-Ultimate.svg"><path fill="#fff" stroke-width="10.667" d="M202.66666666666666 0H53.33333333333333a26.666666666666664 26.666666666666664 0 0 0 -26.666666666666664 26.666666666666664v202.66666666666666A26.666666666666664 26.666666666666664 0 0 0 53.33333333333333 256h149.33333333333331a26.666666666666664 26.666666666666664 0 0 0 26.666666666666664 -26.666666666666664v-202.66666666666666A26.666666666666664 26.666666666666664 0 0 0 202.66666666666666 0ZM53.33333333333333 48a10.666666666666666 10.666666666666666 0 0 1 10.666666666666666 -10.666666666666666h128a10.666666666666666 10.666666666666666 0 0 1 10.666666666666666 10.666666666666666v149.33333333333331a10.666666666666666 10.666666666666666 0 0 1 -10.666666666666666 10.666666666666666H64a10.666666666666666 10.666666666666666 0 0 1 -10.666666666666666 -10.666666666666666Z"/><path fill="#fff" stroke-width="10.667" d="M80 66.66666666666666h10.666666666666666s8 0 8 8v10.666666666666666s0 8 -8 8h-10.666666666666666s-8 0 -8 -8V74.66666666666666s0 -8 8 -8"/><path fill="#fff" stroke-width="10.667" d="M122.66666666666666 66.66666666666666h10.666666666666666s8 0 8 8v10.666666666666666s0 8 -8 8h-10.666666666666666s-8 0 -8 -8V74.66666666666666s0 -8 8 -8"/><path fill="#fff" stroke-width="10.667" d="M165.33333333333331 66.66666666666666h10.666666666666666s8 0 8 8v10.666666666666666s0 8 -8 8h-10.666666666666666s-8 0 -8 -8V74.66666666666666s0 -8 8 -8"/><path fill="#fff" stroke-width="10.667" d="M80 109.33333333333333h10.666666666666666s8 0 8 8v10.666666666666666s0 8 -8 8h-10.666666666666666s-8 0 -8 -8v-10.666666666666666s0 -8 8 -8"/><path fill="#fff" stroke-width="10.667" d="M122.66666666666666 109.33333333333333h10.666666666666666s8 0 8 8v10.666666666666666s0 8 -8 8h-10.666666666666666s-8 0 -8 -8v-10.666666666666666s0 -8 8 -8"/><path fill="#fff" stroke-width="10.667" d="M80 152h10.666666666666666s8 0 8 8v10.666666666666666s0 8 -8 8h-10.666666666666666s-8 0 -8 -8v-10.666666666666666s0 -8 8 -8"/><path fill="#fff" stroke-width="10.667" d="M122.66666666666666 152h10.666666666666666s8 0 8 8v10.666666666666666s0 8 -8 8h-10.666666666666666s-8 0 -8 -8v-10.666666666666666s0 -8 8 -8"/><path fill="#fff" stroke-width="10.667" d="M165.33333333333331 109.33333333333333h10.666666666666666s8 0 8 8v10.666666666666666s0 8 -8 8h-10.666666666666666s-8 0 -8 -8v-10.666666666666666s0 -8 8 -8"/></g></svg>