<svg xmlns="http://www.w3.org/2000/svg" viewBox="0 0 256 256" id="Tag-Dollar--Streamline-Ultimate" height="256" width="256">
  <desc>
    Tag Dollar Streamline Icon: https://streamlinehq.com
  </desc>
  <path d="M240 0H149.33333333333331a30.826666666666668 30.826666666666668 0 0 0 -21.973333333333333 9.066666666666666L5.333333333333333 131.0933333333333a18.24 18.24 0 0 0 0 25.813333333333333l93.75999999999999 93.75999999999999a18.24 18.24 0 0 0 25.813333333333333 0l122.02666666666666 -122.02666666666666A30.826666666666668 30.826666666666668 0 0 0 256 106.66666666666666V16A16 16 0 0 0 240 0Zm-88.64 114.24000000000001c5.973333333333334 22.29333333333333 11.626666666666667 43.413333333333334 0 55.46666666666667a30.186666666666667 30.186666666666667 0 0 1 -43.30666666666666 0 2.5599999999999996 2.5599999999999996 0 0 0 -3.733333333333333 0l-8.32 8.32a10.666666666666666 10.666666666666666 0 0 1 -7.573333333333332 3.093333333333333 10.666666666666666 10.666666666666666 0 0 1 -7.573333333333332 -18.133333333333333l8.426666666666666 -8.426666666666666a2.5599999999999996 2.5599999999999996 0 0 0 0 -3.733333333333333L74.66666666666666 136.42666666666665a10.666666666666666 10.666666666666666 0 0 1 15.04 -15.04l33.28 33.28a9.173333333333332 9.173333333333332 0 0 0 13.226666666666667 0c3.413333333333333 -3.413333333333333 -2.5599999999999996 -25.493333333333332 -5.013333333333333 -34.879999999999995 -5.973333333333334 -22.29333333333333 -11.626666666666667 -43.30666666666666 0 -55.36a29.013333333333335 29.013333333333335 0 0 1 43.413333333333334 0 2.5599999999999996 2.5599999999999996 0 0 0 3.733333333333333 0l8.32 -8.32a10.666666666666666 10.666666666666666 0 0 1 15.146666666666665 0 10.666666666666666 10.666666666666666 0 0 1 0 15.04l-8.32 8.32a2.5599999999999996 2.5599999999999996 0 0 0 0 3.84l14.186666666666667 14.293333333333333a10.666666666666666 10.666666666666666 0 0 1 0 15.04 10.666666666666666 10.666666666666666 0 0 1 -15.04 0L160 79.46666666666667a8.106666666666666 8.106666666666666 0 0 0 -13.226666666666667 0c-3.84 3.413333333333333 2.5599999999999996 25.386666666666663 4.586666666666666 34.773333333333326Z" fill="#ffffff" stroke-width="10.6667"></path>
</svg>