<svg xmlns="http://www.w3.org/2000/svg" viewBox="0 0 256 256" id="Tags-Refresh--Streamline-Ultimate" height="256" width="256">
  <desc>
    Tags Refresh Streamline Icon: https://streamlinehq.com
  </desc>
  <g id="Tags-Refresh--Streamline-Ultimate.svg">
    <path d="M183.93919999999997 100.40639999999999c3.1104000000000003 0.014933333333333333 6.216533333333333 0.19199999999999998 9.3088 0.5290666666666666 1.5968 0.20693333333333333 3.1999999999999997 -0.3402666666666666 4.337066666666667 -1.4815999999999998l7.510399999999999 -7.9328c6.424533333333333 -6.983466666666666 10.170666666666666 -16.0128 10.578133333333334 -25.493333333333332V23.716266666666662c0.032 -5.623466666666666 -2.1759999999999997 -11.028266666666667 -6.135466666666667 -15.020799999999998C205.54559999999998 4.736 200.1408 2.5279999999999996 194.51733333333334 2.5599999999999996h-44.956799999999994c-9.4912 0.352 -18.540799999999997 4.1066666666666665 -25.492266666666666 10.578133333333334l-114.56 114.56c-8.271999999999998 8.263466666666666 -8.271999999999998 21.671466666666664 0 29.934933333333333l51.09226666666667 51.19786666666667c3.9925333333333333 3.9594666666666662 9.397333333333332 6.167466666666667 15.020799999999998 6.134399999999999 5.636266666666666 0.046933333333333334 11.038933333333333 -2.2527999999999997 14.914133333333334 -6.346666666666666l5.5008 -5.077333333333333c1.1199999999999999 -1.1893333333333334 1.6277333333333335 -2.8287999999999998 1.3749333333333331 -4.442666666666666 -0.4448 -3.509333333333333 -0.6911999999999999 -7.041066666666667 -0.7402666666666666 -10.578133333333334 -0.4106666666666666 -48.5024 38.763733333333334 -88.0576 87.26826666666666 -88.11413333333333Zm-47.495466666666665 -39.667199999999994c0 -16.285866666666664 17.63093333333333 -26.465066666666665 31.734399999999997 -18.322133333333333 14.103466666666666 8.142933333333332 14.103466666666666 28.500266666666665 0 36.64319999999999 -3.2159999999999997 1.8570666666666666 -6.8650666666666655 2.834133333333333 -10.578133333333334 2.8351999999999995 -11.684266666666666 0 -21.156266666666667 -9.472 -21.156266666666667 -21.156266666666667Z" fill="#ffffff" stroke-width="10.6667"></path>
    <path d="m124.17386666666665 243.5264 10.578133333333334 -10.578133333333334c0.5162666666666667 -0.4821333333333333 1.1978666666666666 -0.7477333333333332 1.904 -0.7402666666666666 0.7296 -0.01813333333333333 1.4282666666666666 0.2922666666666667 1.904 0.8458666666666665 33.24373333333333 35.49653333333333 92.32533333333333 22.765866666666668 108.00106666666666 -23.27146666666667 2.4021333333333335 -7.816533333333333 -4.558933333333333 -15.303466666666667 -12.530133333333334 -13.475200000000001 -3.6992 0.8490666666666666 -6.664533333333333 3.6064 -7.780266666666667 7.234133333333333 -10.608 31.373866666666665 -51.09226666666667 39.681066666666666 -73.19893333333333 15.020799999999998 -0.9951999999999999 -0.992 -0.9951999999999999 -2.6037333333333335 0 -3.5968l18.194133333333333 -18.194133333333333c1.5146666666666664 -1.5328 1.9722666666666666 -3.8197333333333328 1.1637333333333333 -5.8176 -0.8117333333333333 -1.9743999999999997 -2.7306666666666666 -3.2682666666666664 -4.866133333333333 -3.2789333333333333h-47.072c-2.920533333333333 0 -5.2885333333333335 2.368 -5.2885333333333335 5.2885333333333335v47.1776c0.23253333333333331 2.0608 1.4570666666666665 3.877333333333333 3.2789333333333333 4.866133333333333 2.0266666666666664 0.7445333333333333 4.301866666666666 0.15466666666666667 5.712 -1.4805333333333333Z" fill="#ffffff" stroke-width="10.6667"></path>
    <path d="M232.8096 136.4768c-0.5311999999999999 0.4576 -1.2031999999999998 0.7189333333333333 -1.904 0.7413333333333334 -0.7242666666666666 -0.0096 -1.4122666666666666 -0.3157333333333333 -1.904 -0.8469333333333333 -33.35039999999999 -35.232 -92.20373333333333 -22.353066666666667 -107.78986666666665 23.589333333333332 -2.9290666666666665 7.5978666666666665 3.4656000000000002 15.5168 11.510399999999999 14.254933333333334 4.008533333333333 -0.6293333333333333 7.304533333333333 -3.496533333333333 8.482133333333334 -7.379199999999999 10.626133333333332 -31.154133333333334 50.72106666666666 -39.57973333333333 72.98773333333332 -15.338666666666665 0.9557333333333333 1.0495999999999999 0.9557333333333333 2.6528 0 3.7024l-17.559466666666665 17.559466666666665c-1.5232 1.4848 -1.984 3.749333333333333 -1.1637333333333333 5.712 0.8117333333333333 1.9754666666666667 2.7306666666666666 3.2682666666666664 4.866133333333333 3.2789333333333333h47.072c2.9215999999999998 0 5.2885333333333335 -2.368 5.2885333333333335 -5.2885333333333335v-46.9664c-0.010666666666666666 -2.1344 -1.3034666666666666 -4.054399999999999 -3.2789333333333333 -4.865066666666666 -1.9808 -0.5269333333333333 -4.093866666666666 -0.09599999999999999 -5.712 1.1637333333333333Z" fill="#ffffff" stroke-width="10.6667"></path>
  </g>
</svg>