<svg xmlns="http://www.w3.org/2000/svg" viewBox="0 0 256 256" id="Tags-1--Streamline-Ultimate" height="256" width="256">
  <desc>
    Tags 1 Streamline Icon: https://streamlinehq.com
  </desc>
  <path d="M250.45333333333332 144.95999999999998 116.16 10.666666666666666a41.81333333333333 41.81333333333333 0 0 0 -25.706666666666667 -10.666666666666666H21.333333333333332A21.333333333333332 21.333333333333332 0 0 0 6.293333333333333 6.293333333333333 21.333333333333332 21.333333333333332 0 0 0 0 21.333333333333332v69.22666666666666a40 40 0 0 0 10.666666666666666 25.706666666666667l134.29333333333332 134.18666666666667a17.599999999999998 17.599999999999998 0 0 0 12.479999999999999 5.546666666666667 15.68 15.68 0 0 0 3.84 0 17.493333333333332 17.493333333333332 0 0 0 12.053333333333331 -12.266666666666666L188.79999999999998 192a5.546666666666667 5.546666666666667 0 0 1 3.1999999999999997 -3.1999999999999997l50.879999999999995 -15.466666666666665a16.426666666666666 16.426666666666666 0 0 0 7.1466666666666665 -28.373333333333335ZM64 79.89333333333333A16 16 0 1 1 79.89333333333333 64 16 16 0 0 1 64 79.89333333333333Z" fill="#ffffff" stroke-width="10.6667"></path>
</svg>