<svg xmlns="http://www.w3.org/2000/svg" id="Tags-Favorite--Streamline-Ultimate" width="256" height="256" viewBox="0 0 256 256"><desc>Tags Favorite Streamline Icon: https://streamlinehq.com</desc><g id="Tags-Favorite--Streamline-Ultimate.svg"><path fill="#fff" stroke-width="10.667" d="M203.83999999999997 89.70666666666666a42.666666666666664 42.666666666666664 0 0 0 10.666666666666666 -25.706666666666667V21.333333333333332a21.333333333333332 21.333333333333332 0 0 0 -21.333333333333332 -21.333333333333332h-45.653333333333336a42.666666666666664 42.666666666666664 0 0 0 -25.706666666666667 10.666666666666666L6.293333333333333 126.18666666666667A21.333333333333332 21.333333333333332 0 0 0 0 141.33333333333331a21.333333333333332 21.333333333333332 0 0 0 6.186666666666666 15.04l51.73333333333333 51.626666666666665a21.333333333333332 21.333333333333332 0 0 0 30.186666666666667 0l10.666666666666666 -10.666666666666666a5.4399999999999995 5.4399999999999995 0 0 0 1.0666666666666667 -5.76 53.33333333333333 53.33333333333333 0 0 1 68.69333333333333 -70.18666666666667 5.4399999999999995 5.4399999999999995 0 0 0 5.76 -1.0666666666666667ZM134.29333333333332 58.666666666666664a21.333333333333332 21.333333333333332 0 1 1 21.333333333333332 21.333333333333332 21.333333333333332 21.333333333333332 0 0 1 -21.333333333333332 -21.333333333333332Z"/><path fill="#fff" stroke-width="10.667" d="M143.57333333333332 133.76a37.65333333333333 37.65333333333333 0 0 0 -20.69333333333333 64l54.61333333333333 56.85333333333333a5.119999999999999 5.119999999999999 0 0 0 7.68 0l54.50666666666667 -56.74666666666667a37.65333333333333 37.65333333333333 0 1 0 -53.33333333333333 -53.33333333333333l-3.1999999999999997 3.3066666666666666a2.88 2.88 0 0 1 -3.84 0l-3.1999999999999997 -3.3066666666666666a37.44 37.44 0 0 0 -32.53333333333333 -10.773333333333333Z"/></g></svg>