<svg xmlns="http://www.w3.org/2000/svg" id="Taking-Pictures-Cameras--Streamline-Ultimate" width="256" height="256" viewBox="0 0 256 256"><desc>Taking Pictures Cameras Streamline Icon: https://streamlinehq.com</desc><g id="Taking-Pictures-Cameras--Streamline-Ultimate.svg"><path fill="#fff" stroke-width="10.667" d="M185.81333333333333 80h-9.92a2.453333333333333 2.453333333333333 0 0 1 -2.1333333333333333 -1.1733333333333333 21.333333333333332 21.333333333333332 0 0 0 -18.773333333333333 -9.493333333333332H128a21.333333333333332 21.333333333333332 0 0 0 -18.773333333333333 9.493333333333332 2.5599999999999996 2.5599999999999996 0 0 1 -2.1333333333333333 1.1733333333333333H67.84a23.36 23.36 0 0 0 -22.506666666666664 23.57333333333333V117.33333333333333a10.666666666666666 10.666666666666666 0 1 0 21.333333333333332 0V103.57333333333334a3.1999999999999997 3.1999999999999997 0 0 1 1.1733333333333333 -2.2399999999999998h47.14666666666666a10.666666666666666 10.666666666666666 0 0 0 9.6 -5.866666666666667c0.5333333333333333 -1.0666666666666667 1.0666666666666667 -2.2399999999999998 1.5999999999999999 -3.1999999999999997a2.453333333333333 2.453333333333333 0 0 1 2.3466666666666667 -1.4933333333333334h26.026666666666664a2.7733333333333334 2.7733333333333334 0 0 1 2.3466666666666667 1.3866666666666667l1.7066666666666666 3.413333333333333a10.666666666666666 10.666666666666666 0 0 0 9.493333333333332 5.866666666666667h17.599999999999998a2.88 2.88 0 0 1 1.2799999999999998 2.2399999999999998v71.25333333333333a1.1733333333333333 1.1733333333333333 0 0 1 -1.1733333333333333 1.1733333333333333 10.666666666666666 10.666666666666666 0 0 0 0 21.333333333333332 22.506666666666664 22.506666666666664 0 0 0 22.506666666666664 -22.506666666666664V103.57333333333334a23.36 23.36 0 0 0 -22.506666666666664 -23.57333333333333Z"/><path fill="#fff" stroke-width="10.667" d="M233.49333333333334 10.666666666666666H224a2.7733333333333334 2.7733333333333334 0 0 1 -2.2399999999999998 -1.1733333333333333A21.333333333333332 21.333333333333332 0 0 0 202.66666666666666 0h-26.77333333333333a21.333333333333332 21.333333333333332 0 0 0 -18.773333333333333 9.493333333333332 2.5599999999999996 2.5599999999999996 0 0 1 -2.1333333333333333 1.1733333333333333h-39.46666666666667a23.36 23.36 0 0 0 -22.506666666666664 23.57333333333333V48a10.666666666666666 10.666666666666666 0 0 0 21.333333333333332 0V34.239999999999995a3.1999999999999997 3.1999999999999997 0 0 1 1.1733333333333333 -2.2399999999999998h47.14666666666666a10.666666666666666 10.666666666666666 0 0 0 9.6 -5.866666666666667l1.5999999999999999 -3.1999999999999997a2.453333333333333 2.453333333333333 0 0 1 2.3466666666666667 -1.5999999999999999H202.66666666666666a2.453333333333333 2.453333333333333 0 0 1 2.2399999999999998 1.3866666666666667 34.56 34.56 0 0 1 1.8133333333333335 3.413333333333333 10.666666666666666 10.666666666666666 0 0 0 9.493333333333332 5.866666666666667h17.599999999999998a2.88 2.88 0 0 1 1.2799999999999998 2.2399999999999998v71.25333333333333a1.1733333333333333 1.1733333333333333 0 0 1 -1.1733333333333333 1.1733333333333333 10.666666666666666 10.666666666666666 0 0 0 0 21.333333333333332A22.506666666666664 22.506666666666664 0 0 0 256 105.49333333333334V34.239999999999995A23.36 23.36 0 0 0 233.49333333333334 10.666666666666666Z"/><path fill="#fff" stroke-width="10.667" d="M64 202.66666666666666a26.666666666666664 26.666666666666664 0 1 0 53.33333333333333 0 26.666666666666664 26.666666666666664 0 1 0 -53.33333333333333 0"/><path fill="#fff" stroke-width="10.667" d="M142.82666666666665 145.17333333333332h-20.479999999999997a2.6666666666666665 2.6666666666666665 0 0 1 -2.3466666666666667 -1.4933333333333334 16.426666666666666 16.426666666666666 0 0 0 -15.68 -10.666666666666666H77.54666666666665a16.64 16.64 0 0 0 -15.786666666666665 10.666666666666666 2.5599999999999996 2.5599999999999996 0 0 1 -2.3466666666666667 1.4933333333333334h-42.666666666666664A17.173333333333332 17.173333333333332 0 0 0 0 162.24v76.58666666666666A17.173333333333332 17.173333333333332 0 0 0 17.173333333333332 256h125.65333333333332A17.173333333333332 17.173333333333332 0 0 0 160 238.82666666666665v-76.58666666666666a17.173333333333332 17.173333333333332 0 0 0 -17.173333333333332 -17.066666666666666ZM128 202.66666666666666a37.33333333333333 37.33333333333333 0 1 1 -37.33333333333333 -37.33333333333333A37.33333333333333 37.33333333333333 0 0 1 128 202.66666666666666Z"/></g></svg>