<svg xmlns="http://www.w3.org/2000/svg" id="Target-Center-Monitor--Streamline-Ultimate" width="256" height="256" viewBox="0 0 256 256"><desc>Target Center Monitor Streamline Icon: https://streamlinehq.com</desc><g id="Target-Center-Monitor--Streamline-Ultimate.svg"><path fill="#fff" stroke-width="10.667" d="M180.58666666666664 73.81333333333333h17.706666666666663a26.24 26.24 0 0 0 18.666666666666664 -7.786666666666666l25.386666666666663 -25.386666666666663a5.333333333333333 5.333333333333333 0 0 0 -3.733333333333333 -8.64h-28.906666666666666a2.6666666666666665 2.6666666666666665 0 0 1 -2.6666666666666665 -2.5599999999999996V5.226666666666667A5.119999999999999 5.119999999999999 0 0 0 203.73333333333335 0a5.119999999999999 5.119999999999999 0 0 0 -5.653333333333333 1.0666666666666667l-25.493333333333332 25.92a26.133333333333333 26.133333333333333 0 0 0 -7.68 18.666666666666664v12.479999999999999c0 1.7066666666666666 -1.3866666666666667 2.1333333333333333 -2.2399999999999998 2.88l-42.13333333333333 42.666666666666664a10.666666666666666 10.666666666666666 0 0 0 0 14.826666666666664 10.666666666666666 10.666666666666666 0 0 0 14.933333333333332 0l42.13333333333333 -42.13333333333333c0.7466666666666667 -1.1733333333333333 1.1733333333333333 -2.5599999999999996 2.986666666666667 -2.5599999999999996Z"/><path fill="#fff" stroke-width="10.667" d="M153.92 216h74.66666666666666a21.333333333333332 21.333333333333332 0 0 0 21.333333333333332 -21.333333333333332V89.6a10.666666666666666 10.666666666666666 0 1 0 -21.333333333333332 0v88.64a2.6666666666666665 2.6666666666666665 0 0 1 -2.6666666666666665 2.6666666666666665H30.506666666666664a2.6666666666666665 2.6666666666666665 0 0 1 -2.6666666666666665 -2.6666666666666665v-128a2.6666666666666665 2.6666666666666665 0 0 1 2.6666666666666665 -2.5599999999999996h101.86666666666667a10.666666666666666 10.666666666666666 0 1 0 0 -21.333333333333332h-104.53333333333333a21.333333333333332 21.333333333333332 0 0 0 -21.333333333333332 21.333333333333332v147.30666666666667a21.333333333333332 21.333333333333332 0 0 0 21.333333333333332 21.333333333333332h74.66666666666666a2.6666666666666665 2.6666666666666665 0 0 1 2.1333333333333333 1.0666666666666667 2.6666666666666665 2.6666666666666665 0 0 1 0 2.3466666666666667A88.64 88.64 0 0 1 96 238.82666666666665a2.6666666666666665 2.6666666666666665 0 0 1 -2.2399999999999998 1.2799999999999998H80.85333333333332a7.893333333333333 7.893333333333333 0 0 0 0 15.786666666666665l99.83999999999999 0a8 8 0 0 0 7.893333333333333 -8 7.893333333333333 7.893333333333333 0 0 0 -7.893333333333333 -7.786666666666666h-18.24a2.453333333333333 2.453333333333333 0 0 1 -2.3466666666666667 -1.2799999999999998 92.90666666666667 92.90666666666667 0 0 1 -8.746666666666666 -19.093333333333334 2.6666666666666665 2.6666666666666665 0 0 1 0 -2.3466666666666667 2.7733333333333334 2.7733333333333334 0 0 1 2.5599999999999996 -1.3866666666666667Z"/><path fill="#fff" stroke-width="10.667" d="M117.33333333333333 86.39999999999999a10.666666666666666 10.666666666666666 0 1 0 -8.32 -19.306666666666665A47.36 47.36 0 0 0 128 158.07999999999998a47.78666666666667 47.78666666666667 0 0 0 45.653333333333336 -34.346666666666664 10.666666666666666 10.666666666666666 0 1 0 -20.266666666666666 -5.866666666666667A26.346666666666668 26.346666666666668 0 1 1 117.33333333333333 86.39999999999999Z"/></g></svg>