<svg xmlns="http://www.w3.org/2000/svg" id="Task-Finger-Show--Streamline-Ultimate" width="256" height="256" viewBox="0 0 256 256"><desc>Task Finger Show Streamline Icon: https://streamlinehq.com</desc><g id="Task-Finger-Show--Streamline-Ultimate.svg"><path fill="#fff" stroke-width="10.667" d="M50.29226666666666 182.72106666666664c0.6602666666666666 -0.36693333333333333 1.1178666666666666 -1.0144 1.2426666666666666 -1.76V67.06559999999999c-0.04906666666666666 -3.2223999999999995 1.4048 -6.284799999999999 3.9349333333333334 -8.282666666666666 0.7306666666666667 -0.44266666666666665 1.1946666666666665 -1.2181333333333333 1.2416 -2.0704V39.62773333333333c-0.07893333333333333 -0.8426666666666667 -0.5354666666666666 -1.6042666666666667 -1.2416 -2.0704 -0.7306666666666667 -0.2997333333333333 -1.5488 -0.2997333333333333 -2.2784 0 -13.143466666666665 3.832533333333333 -22.2272 15.818666666666667 -22.364799999999995 29.508266666666664V194.42133333333334c0.017066666666666667 1.1125333333333334 0.7167999999999999 2.1002666666666663 1.76 2.485333333333333 1.0666666666666667 0.3509333333333333 2.2378666666666662 -0.025599999999999998 2.8991999999999996 -0.9322666666666667 4 -5.3632 9.034666666666666 -9.869866666666667 14.806399999999998 -13.253333333333332Z"/><path fill="#fff" stroke-width="10.667" d="M202.39466666666664 37.142399999999995c-0.7306666666666667 -0.29866666666666664 -1.5488 -0.29866666666666664 -2.2784 0 -0.5898666666666667 0.528 -0.9279999999999999 1.2799999999999998 -0.9322666666666667 2.071466666666667v17.498666666666665c-0.02453333333333333 0.7968 0.3189333333333333 1.5605333333333333 0.9322666666666667 2.0704 2.6464 1.9338666666666664 4.2208 5.005866666666666 4.245333333333333 8.283733333333332v134.60266666666666c0 5.7184 -4.635733333333333 10.354133333333333 -10.354133333333333 10.354133333333333h-15.6352c-1.4069333333333331 0.05333333333333333 -2.5343999999999998 1.1818666666666666 -2.5877333333333334 2.5888 -0.013866666666666666 5.023999999999999 -1.4495999999999998 9.9424 -4.141866666666666 14.1856 -0.4629333333333333 0.7999999999999999 -0.4629333333333333 1.7866666666666666 0 2.5877333333333334 0.4714666666666667 0.8170666666666666 1.3354666666666666 1.3269333333333333 2.277333333333333 1.3461333333333334h20.190933333333334c17.1552 -0.0010666666666666667 31.0624 -13.9072 31.0624 -31.0624V67.06559999999999c-0.0063999999999999994 -13.959466666666666 -9.3248 -26.200533333333333 -22.778666666666666 -29.923199999999998Z"/><path fill="#fff" stroke-width="10.667" d="M72.2432 64.47786666666667c0.055466666666666664 1.4464 1.2448 2.5888 2.692266666666667 2.5877333333333334h106.0256c1.4474666666666665 0.0010666666666666667 2.6368 -1.1413333333333333 2.692266666666667 -2.5877333333333334V33.41546666666666c-0.055466666666666664 -1.4464 -1.2448 -2.5898666666666665 -2.692266666666667 -2.5888h-23.400533333333332c-1.3333333333333333 -0.042666666666666665 -2.4352 -1.056 -2.5877333333333334 -2.3808 0 -19.927466666666668 -21.571199999999997 -32.380799999999994 -38.8288 -22.418133333333333 -8.008533333333332 4.624 -12.941866666666666 13.170133333333332 -12.941866666666666 22.418133333333333 -0.1536 1.3248 -1.2544 2.3381333333333334 -2.5888 2.3808H74.93546666666666c-1.4474666666666665 -0.0010666666666666667 -2.6368 1.1423999999999999 -2.692266666666667 2.5888Zm64.81706666666666 -36.239999999999995c-0.05653333333333333 4.306133333333333 -3.5637333333333334 7.766399999999999 -7.869866666666667 7.766399999999999 -5.976533333333333 -0.07999999999999999 -9.626666666666665 -6.600533333333333 -6.568533333333333 -11.7376 3.0570666666666666 -5.137066666666666 10.529066666666665 -5.0367999999999995 13.448533333333332 0.17919999999999997 0.6485333333333333 1.1594666666666666 0.9898666666666666 2.464 0.9898666666666666 3.792Z"/><path fill="#fff" stroke-width="10.667" d="M155.59359999999998 204.36159999999998c-5.4901333333333335 -4.5728 -13.646933333333333 -3.8314666666666666 -18.22293333333333 1.6565333333333332l-9.008 7.661866666666667c-0.8586666666666667 0.5216 -1.9370666666666667 0.5216 -2.795733333333333 0 -0.9461333333333333 -0.41279999999999994 -1.5573333333333332 -1.3482666666666667 -1.5530666666666666 -2.3808v-66.57706666666667c-0.032 -11.956266666666666 -12.994133333333332 -19.394133333333333 -23.332266666666662 -13.389866666666666 -4.773333333333333 2.772266666666667 -7.716266666666667 7.869866666666667 -7.730133333333333 13.389866666666666v44.004266666666666c0.0010666666666666667 1.3909333333333331 -1.0965333333333334 2.533333333333333 -2.485333333333333 2.5888H76.17813333333334c-19.060266666666664 -0.0010666666666666667 -34.525866666666666 15.419733333333333 -34.583466666666666 34.47893333333333v25.057066666666664c0 1.4293333333333333 1.1594666666666666 2.5888 2.5888 2.5888h86.66346666666666c0.7616 -0.0063999999999999994 1.4805333333333333 -0.3477333333333333 1.968 -0.9322666666666667l24.538666666666664 -30.130133333333333c4.409599999999999 -5.4848 3.6277333333333335 -13.488 -1.76 -18.016Z"/></g></svg>