<svg xmlns="http://www.w3.org/2000/svg" id="Task-List-Pin--Streamline-Ultimate" width="256" height="256" viewBox="0 0 256 256"><desc>Task List Pin Streamline Icon: https://streamlinehq.com</desc><g id="Task-List-Pin--Streamline-Ultimate.svg"><path fill="#fff" stroke-width="10.667" d="M163.0933333333333 176h58.13333333333333a2.88 2.88 0 0 0 2.6666666666666665 -2.3466666666666667l0 -2.986666666666667V96a21.333333333333332 21.333333333333332 0 0 0 -21.333333333333332 -21.333333333333332h-50.13333333333333a2.6666666666666665 2.6666666666666665 0 0 0 -2.6666666666666665 2.6666666666666665v2.6666666666666665a26.666666666666664 26.666666666666664 0 0 1 -53.33333333333333 0v-2.6666666666666665A2.6666666666666665 2.6666666666666665 0 0 0 93.75999999999999 74.66666666666666H53.33333333333333a21.333333333333332 21.333333333333332 0 0 0 -21.333333333333332 21.333333333333332v138.66666666666666a21.333333333333332 21.333333333333332 0 0 0 21.333333333333332 21.333333333333332h85.33333333333333l3.3066666666666666 0a2.6666666666666665 2.6666666666666665 0 0 0 2.453333333333333 -2.6666666666666665v-58.666666666666664a18.666666666666664 18.666666666666664 0 0 1 18.666666666666664 -18.666666666666664Zm-53.33333333333333 26.666666666666664h-32a8 8 0 1 1 0 -16h32a8 8 0 0 1 0 16Zm-32 -48a8 8 0 1 1 0 -16h101.33333333333333a8 8 0 0 1 0 16Z"/><path fill="#fff" stroke-width="10.667" d="M212.37333333333333 196.58666666666664a2.88 2.88 0 0 0 0.6399999999999999 -2.986666666666667 2.6666666666666665 2.6666666666666665 0 0 0 -2.453333333333333 -1.5999999999999999h-47.46666666666667a2.6666666666666665 2.6666666666666665 0 0 0 -2.6666666666666665 2.6666666666666665v47.57333333333333a2.6666666666666665 2.6666666666666665 0 0 0 1.5999999999999999 2.453333333333333 2.6666666666666665 2.6666666666666665 0 0 0 2.88 -0.5333333333333333Z"/><path fill="#fff" stroke-width="10.667" d="M110.72 61.54666666666666a2.7733333333333334 2.7733333333333334 0 0 1 1.7066666666666666 2.453333333333333v16a10.666666666666666 10.666666666666666 0 0 0 21.333333333333332 0V64a2.6666666666666665 2.6666666666666665 0 0 1 1.5999999999999999 -2.453333333333333A32 32 0 0 0 155.0933333333333 32a32 32 0 1 0 -44.373333333333335 29.546666666666667Z"/></g></svg>