<svg xmlns="http://www.w3.org/2000/svg" viewBox="0 0 256 256" id="Task-List-To-Do--Streamline-Ultimate" height="256" width="256">
  <desc>
    Task List To Do Streamline Icon: https://streamlinehq.com
  </desc>
  <g id="Task-List-To-Do--Streamline-Ultimate.svg">
    <path d="M218.66666666666666 21.333333333333332h-53.33333333333333a2.88 2.88 0 0 1 -2.2399999999999998 -1.2799999999999998 40.85333333333333 40.85333333333333 0 0 0 -70.29333333333332 0 2.5599999999999996 2.5599999999999996 0 0 1 -2.1333333333333333 1.2799999999999998h-53.33333333333333A16 16 0 0 0 21.333333333333332 37.33333333333333v202.66666666666666A16 16 0 0 0 37.33333333333333 256h181.33333333333331a16 16 0 0 0 16 -16v-202.66666666666666A16 16 0 0 0 218.66666666666666 21.333333333333332ZM202.66666666666666 173.44a26.666666666666664 26.666666666666664 0 0 1 -6.3999999999999995 17.386666666666663l-20.479999999999997 23.893333333333334a26.88 26.88 0 0 1 -20.266666666666666 9.28H58.666666666666664a5.333333333333333 5.333333333333333 0 0 1 -5.333333333333333 -5.333333333333333v-160a5.333333333333333 5.333333333333333 0 0 1 5.333333333333333 -5.333333333333333h138.66666666666666a5.333333333333333 5.333333333333333 0 0 1 5.333333333333333 5.333333333333333Z" fill="#ffffff" stroke-width="10.6667"></path>
    <path d="M170.66666666666666 88h-48a8 8 0 0 0 0 16H170.66666666666666a8 8 0 0 0 0 -16Z" fill="#ffffff" stroke-width="10.6667"></path>
    <path d="M170.66666666666666 125.33333333333333h-48a8 8 0 0 0 0 16H170.66666666666666a8 8 0 0 0 0 -16Z" fill="#ffffff" stroke-width="10.6667"></path>
    <path d="M170.66666666666666 162.66666666666666h-48a8 8 0 0 0 0 16H170.66666666666666a8 8 0 0 0 0 -16Z" fill="#ffffff" stroke-width="10.6667"></path>
    <path d="M74.66666666666666 96a10.666666666666666 10.666666666666666 0 1 0 21.333333333333332 0 10.666666666666666 10.666666666666666 0 1 0 -21.333333333333332 0" fill="#ffffff" stroke-width="10.6667"></path>
    <path d="M74.66666666666666 133.33333333333331a10.666666666666666 10.666666666666666 0 1 0 21.333333333333332 0 10.666666666666666 10.666666666666666 0 1 0 -21.333333333333332 0" fill="#ffffff" stroke-width="10.6667"></path>
    <path d="M74.66666666666666 170.66666666666666a10.666666666666666 10.666666666666666 0 1 0 21.333333333333332 0 10.666666666666666 10.666666666666666 0 1 0 -21.333333333333332 0" fill="#ffffff" stroke-width="10.6667"></path>
  </g>
</svg>