<svg xmlns="http://www.w3.org/2000/svg" id="Task-List-Approve--Streamline-Ultimate" width="256" height="256" viewBox="0 0 256 256"><desc>Task List Approve Streamline Icon: https://streamlinehq.com</desc><g id="Task-List-Approve--Streamline-Ultimate.svg"><path fill="#fff" stroke-width="10.667" d="M218.66666666666666 21.333333333333332h-53.33333333333333a2.88 2.88 0 0 1 -2.2399999999999998 -1.2799999999999998 40.74666666666666 40.74666666666666 0 0 0 -70.18666666666667 0A2.88 2.88 0 0 1 90.66666666666666 21.333333333333332h-53.33333333333333A16 16 0 0 0 21.333333333333332 37.33333333333333v202.66666666666666A16 16 0 0 0 37.33333333333333 256h181.33333333333331a16 16 0 0 0 16 -16v-202.66666666666666A16 16 0 0 0 218.66666666666666 21.333333333333332ZM202.66666666666666 173.44a26.666666666666664 26.666666666666664 0 0 1 -6.3999999999999995 17.386666666666663l-20.479999999999997 23.893333333333334a26.88 26.88 0 0 1 -20.266666666666666 9.28H58.666666666666664a5.333333333333333 5.333333333333333 0 0 1 -5.333333333333333 -5.333333333333333v-160a5.333333333333333 5.333333333333333 0 0 1 5.333333333333333 -5.333333333333333h138.66666666666666a5.333333333333333 5.333333333333333 0 0 1 5.333333333333333 5.333333333333333Z"/><path fill="#fff" stroke-width="10.667" d="m157.33333333333331 92.37333333333333 -41.49333333333333 55.25333333333333a2.5599999999999996 2.5599999999999996 0 0 1 -3.9466666666666663 0l-19.413333333333334 -19.093333333333334a13.333333333333332 13.333333333333332 0 0 0 -18.88 18.88L96.74666666666667 170.66666666666666a24.746666666666663 24.746666666666663 0 0 0 37.33333333333333 -2.6666666666666665l44.58666666666666 -59.413333333333334a13.333333333333332 13.333333333333332 0 0 0 -21.333333333333332 -16Z"/></g></svg>