<svg xmlns="http://www.w3.org/2000/svg" id="Taxi--Streamline-Ultimate" width="256" height="256" viewBox="0 0 256 256"><desc>Taxi Streamline Icon: https://streamlinehq.com</desc><path fill="#fff" stroke-width="10.667" d="M184 214.9333333333333a2.6666666666666665 2.6666666666666665 0 0 1 2.6666666666666665 2.6666666666666665v26.666666666666664a10.666666666666666 10.666666666666666 0 0 0 10.666666666666666 10.666666666666666h21.333333333333332a10.666666666666666 10.666666666666666 0 0 0 10.666666666666666 -10.666666666666666v-26.88a2.7733333333333334 2.7733333333333334 0 0 1 2.2399999999999998 -2.6666666666666665 13.333333333333332 13.333333333333332 0 0 0 10.666666666666666 -13.12v-58.666666666666664a29.439999999999998 29.439999999999998 0 0 0 -17.706666666666663 -26.88 2.453333333333333 2.453333333333333 0 0 1 -1.5999999999999999 -2.1333333333333333l-3.413333333333333 -34.879999999999995c0 -19.306666666666665 -18.773333333333333 -31.04 -42.666666666666664 -37.12a2.7733333333333334 2.7733333333333334 0 0 1 -1.92 -1.8133333333333335l-8.64 -28.373333333333335a16 16 0 0 0 -15.146666666666665 -10.666666666666666H104.85333333333332a15.893333333333333 15.893333333333333 0 0 0 -15.04 10.666666666666666l-8.853333333333332 28.373333333333335a2.453333333333333 2.453333333333333 0 0 1 -1.92 1.7066666666666666c-24.21333333333333 6.079999999999999 -42.666666666666664 17.493333333333332 -42.666666666666664 36.266666666666666l-3.413333333333333 35.839999999999996a2.5599999999999996 2.5599999999999996 0 0 1 -1.5999999999999999 2.1333333333333333 29.333333333333332 29.333333333333332 0 0 0 -18.026666666666664 26.88v58.666666666666664a13.333333333333332 13.333333333333332 0 0 0 13.333333333333332 13.333333333333332v29.333333333333332a10.666666666666666 10.666666666666666 0 0 0 10.666666666666666 10.666666666666666h21.333333333333332a10.666666666666666 10.666666666666666 0 0 0 10.666666666666666 -10.666666666666666v-26.666666666666664a2.6666666666666665 2.6666666666666665 0 0 1 2.6666666666666665 -2.6666666666666665Zm-75.73333333333332 -190.61333333333334a2.6666666666666665 2.6666666666666665 0 0 1 2.5599999999999996 -1.92h34.45333333333333a2.7733333333333334 2.7733333333333334 0 0 1 2.5599999999999996 1.92l2.88 9.493333333333332a2.5599999999999996 2.5599999999999996 0 0 1 0 2.453333333333333 2.453333333333333 2.453333333333333 0 0 1 -2.3466666666666667 0.96c-6.613333333333333 -0.5333333333333333 -13.333333333333332 -0.8533333333333333 -19.946666666666665 -0.8533333333333333s-13.226666666666667 0 -19.946666666666665 0.8533333333333333a2.88 2.88 0 0 1 -2.3466666666666667 -0.96 2.5599999999999996 2.5599999999999996 0 0 1 0 -2.453333333333333ZM53.33333333333333 174.9333333333333a16 16 0 1 1 16 -16A16 16 0 0 1 53.33333333333333 174.9333333333333Zm106.66666666666666 16a2.6666666666666665 2.6666666666666665 0 0 1 -2.6666666666666665 2.6666666666666665h-58.666666666666664A2.6666666666666665 2.6666666666666665 0 0 1 96 190.9333333333333v-8.106666666666666c0 -4.373333333333333 12.479999999999999 -10.666666666666666 32 -10.666666666666666a64.96 64.96 0 0 1 24.959999999999997 4.373333333333333c1.7066666666666666 0.7466666666666667 7.04 3.413333333333333 7.04 6.293333333333333Zm-32 -90.66666666666666a179.62666666666667 179.62666666666667 0 0 0 -69.86666666666666 13.546666666666667 2.88 2.88 0 0 1 -2.6666666666666665 0 2.5599999999999996 2.5599999999999996 0 0 1 -1.0666666666666667 -2.3466666666666667l2.986666666666667 -32c0 -10.026666666666666 29.013333333333335 -21.333333333333332 70.61333333333333 -21.333333333333332a168.10666666666665 168.10666666666665 0 0 1 52.373333333333335 7.466666666666666c11.413333333333334 3.9466666666666663 18.24 9.173333333333332 18.24 14.933333333333332l2.986666666666667 31.04a2.453333333333333 2.453333333333333 0 0 1 -1.0666666666666667 2.3466666666666667 2.2399999999999998 2.2399999999999998 0 0 1 -2.5599999999999996 0A180.16 180.16 0 0 0 128 100.26666666666667Zm74.66666666666666 74.66666666666666a16 16 0 1 1 16 -16 16 16 0 0 1 -16 16Z"/></svg>