<svg xmlns="http://www.w3.org/2000/svg" viewBox="0 0 256 256" id="Tea-Pot--Streamline-Ultimate" height="256" width="256">
  <desc>
    Tea Pot Streamline Icon: https://streamlinehq.com
  </desc>
  <g id="Tea-Pot--Streamline-Ultimate.svg">
    <path d="M66.45333333333333 106.66666666666666a2.7733333333333334 2.7733333333333334 0 0 0 0 2.88 2.6666666666666665 2.6666666666666665 0 0 0 2.453333333333333 1.5999999999999999h120.64a2.6666666666666665 2.6666666666666665 0 0 0 2.453333333333333 -1.5999999999999999 2.7733333333333334 2.7733333333333334 0 0 0 0 -2.88 85.33333333333333 85.33333333333333 0 0 0 -35.093333333333334 -22.93333333333333 5.333333333333333 5.333333333333333 0 0 1 -3.1999999999999997 -2.88 5.653333333333333 5.653333333333333 0 0 1 0 -4.373333333333333 26.026666666666664 26.026666666666664 0 0 0 2.3466666666666667 -10.666666666666666 26.666666666666664 26.666666666666664 0 1 0 -53.33333333333333 0 26.026666666666664 26.026666666666664 0 0 0 2.2399999999999998 10.666666666666666 5.653333333333333 5.653333333333333 0 0 1 0 4.373333333333333 5.333333333333333 5.333333333333333 0 0 1 -3.1999999999999997 2.88A85.33333333333333 85.33333333333333 0 0 0 66.45333333333333 106.66666666666666Z" fill="#ffffff" stroke-width="10.6667"></path>
    <path d="M209.59999999999997 217.38666666666666a45.33333333333333 45.33333333333333 0 1 0 0 -90.66666666666666H51.73333333333333A24.106666666666662 24.106666666666662 0 0 1 27.733333333333334 102.61333333333332v-2.5599999999999996s-0.96 -16 -13.653333333333332 -16A12.906666666666666 12.906666666666666 0 0 0 1.0666666666666667 97.06666666666666a8.213333333333333 8.213333333333333 0 0 0 8.213333333333333 8.32 2.3466666666666667 2.3466666666666667 0 0 1 2.453333333333333 2.3466666666666667v13.653333333333332A40.10666666666666 40.10666666666666 0 0 0 40.53333333333333 160a4.373333333333333 4.373333333333333 0 0 1 3.1999999999999997 4.16A85.33333333333333 85.33333333333333 0 0 0 59.093333333333334 213.33333333333331a10.666666666666666 10.666666666666666 0 0 0 8.746666666666666 4.586666666666666Zm2.986666666666667 -22.93333333333333a2.6666666666666665 2.6666666666666665 0 0 1 -2.3466666666666667 -0.96 2.7733333333333334 2.7733333333333334 0 0 1 -0.5333333333333333 -2.5599999999999996 77.65333333333334 77.65333333333334 0 0 0 3.626666666666667 -37.33333333333333 2.5599999999999996 2.5599999999999996 0 0 1 0.96 -2.453333333333333 2.7733333333333334 2.7733333333333334 0 0 1 2.5599999999999996 0 22.506666666666664 22.506666666666664 0 0 1 15.146666666666665 21.333333333333332 22.72 22.72 0 0 1 -19.413333333333334 21.973333333333333Z" fill="#ffffff" stroke-width="10.6667"></path>
  </g>
</svg>