<svg xmlns="http://www.w3.org/2000/svg" viewBox="0 0 256 256" id="Team-Meeting--Streamline-Ultimate" height="256" width="256">
  <desc>
    Team Meeting Streamline Icon: https://streamlinehq.com
  </desc>
  <g id="Team-Meeting--Streamline-Ultimate.svg">
    <path d="M169.92 197.76a10.666666666666666 10.666666666666666 0 0 0 -13.866666666666667 -5.866666666666667 75.30666666666666 75.30666666666666 0 0 1 -56 0 10.666666666666666 10.666666666666666 0 1 0 -8.106666666666666 19.733333333333334 96 96 0 0 0 72.10666666666665 0 10.666666666666666 10.666666666666666 0 0 0 5.866666666666667 -13.866666666666667Z" fill="#ffffff" stroke-width="10.6667"></path>
    <path d="M170.02666666666664 60.906666666666666A74.66666666666666 74.66666666666666 0 0 1 202.66666666666666 122.66666666666666a90.56 90.56 0 0 1 -0.5333333333333333 9.386666666666667 10.666666666666666 10.666666666666666 0 1 0 21.333333333333332 2.5599999999999996A89.81333333333333 89.81333333333333 0 0 0 224 122.66666666666666a96 96 0 0 0 -41.92 -79.36 10.666666666666666 10.666666666666666 0 1 0 -12.053333333333331 17.599999999999998Z" fill="#ffffff" stroke-width="10.6667"></path>
    <path d="M44.58666666666666 143.89333333333332a10.666666666666666 10.666666666666666 0 0 0 9.28 -11.84 90.56 90.56 0 0 1 0 -9.386666666666667 74.66666666666666 74.66666666666666 0 0 1 32.10666666666666 -61.76 10.666666666666666 10.666666666666666 0 1 0 -12.053333333333331 -17.599999999999998A96 96 0 0 0 32 122.66666666666666a89.81333333333333 89.81333333333333 0 0 0 0.7466666666666667 11.946666666666667 10.666666666666666 10.666666666666666 0 0 0 11.84 9.28Z" fill="#ffffff" stroke-width="10.6667"></path>
    <path d="M167.14666666666665 101.33333333333333a2.6666666666666665 2.6666666666666665 0 0 0 2.1333333333333333 -0.96 2.88 2.88 0 0 0 0.5333333333333333 -2.2399999999999998A43.30666666666666 43.30666666666666 0 0 0 85.33333333333333 98.02666666666666a2.6666666666666665 2.6666666666666665 0 0 0 0 2.3466666666666667 2.986666666666667 2.986666666666667 0 0 0 2.0266666666666664 0.96Z" fill="#ffffff" stroke-width="10.6667"></path>
    <path d="M101.33333333333333 26.666666666666664a26.666666666666664 26.666666666666664 0 1 0 53.33333333333333 0 26.666666666666664 26.666666666666664 0 1 0 -53.33333333333333 0" fill="#ffffff" stroke-width="10.6667"></path>
    <path d="M213.33333333333331 218.66666666666666a43.30666666666666 43.30666666666666 0 0 0 -42.666666666666664 34.13333333333333 2.6666666666666665 2.6666666666666665 0 0 0 2.5599999999999996 3.1999999999999997h79.57333333333332a3.093333333333333 3.093333333333333 0 0 0 2.1333333333333333 -0.96 2.986666666666667 2.986666666666667 0 0 0 0 -2.3466666666666667A43.30666666666666 43.30666666666666 0 0 0 213.33333333333331 218.66666666666666Z" fill="#ffffff" stroke-width="10.6667"></path>
    <path d="M186.98666666666668 181.33333333333331a26.666666666666664 26.666666666666664 0 1 0 53.33333333333333 0 26.666666666666664 26.666666666666664 0 1 0 -53.33333333333333 0" fill="#ffffff" stroke-width="10.6667"></path>
    <path d="M42.666666666666664 218.66666666666666a43.30666666666666 43.30666666666666 0 0 0 -42.666666666666664 34.13333333333333 2.7733333333333334 2.7733333333333334 0 0 0 0 2.2399999999999998 2.6666666666666665 2.6666666666666665 0 0 0 3.1999999999999997 0.96h79.46666666666667a2.6666666666666665 2.6666666666666665 0 0 0 2.6666666666666665 -3.3066666666666666 43.413333333333334 43.413333333333334 0 0 0 -42.666666666666664 -34.026666666666664Z" fill="#ffffff" stroke-width="10.6667"></path>
    <path d="M16.746666666666666 181.33333333333331a26.666666666666664 26.666666666666664 0 1 0 53.33333333333333 0 26.666666666666664 26.666666666666664 0 1 0 -53.33333333333333 0" fill="#ffffff" stroke-width="10.6667"></path>
  </g>
</svg>