<svg xmlns="http://www.w3.org/2000/svg" viewBox="0 0 256 256" id="Technology-Device-Wearable-Smart-Watch-Square-2--Streamline-Ultimate" height="256" width="256">
  <desc>
    Technology Device Wearable Smart Watch Square 2 Streamline Icon: https://streamlinehq.com
  </desc>
  <path d="M224.74666666666667 144.32h-25.066666666666666a48.63999999999999 48.63999999999999 0 0 0 -28.266666666666666 11.2l0 -55.36a49.6 49.6 0 0 0 28.69333333333333 11.626666666666667h25.066666666666666a29.439999999999998 29.439999999999998 0 0 0 27.839999999999996 -38.61333333333333 119.78666666666666 119.78666666666666 0 0 0 -64.96 -72.53333333333333 8.213333333333333 8.213333333333333 0 0 0 -3.1999999999999997 -0.6399999999999999H85.33333333333333l-1.7066666666666666 0C39.68 9.386666666666667 13.013333333333332 48.42666666666666 5.866666666666667 60.16A28.586666666666666 28.586666666666666 0 0 0 1.92 74.66666666666666v105.70666666666666a28.266666666666666 28.266666666666666 0 0 0 3.9466666666666663 14.613333333333333c7.253333333333334 11.946666666666667 34.13333333333333 51.626666666666665 77.75999999999999 60.693333333333335L85.33333333333333 256h99.62666666666667a8.213333333333333 8.213333333333333 0 0 0 3.1999999999999997 -0.6399999999999999 119.78666666666666 119.78666666666666 0 0 0 64.53333333333333 -72.53333333333333 29.333333333333332 29.333333333333332 0 0 0 -27.839999999999996 -38.50666666666666Zm-113.6 32H24.64V79.57333333333332h86.50666666666666Zm126.18666666666667 1.0666666666666667a103.35999999999999 103.35999999999999 0 0 1 -53.33333333333333 61.86666666666666 168.95999999999998 168.95999999999998 0 0 1 -49.06666666666666 -55.46666666666667V71.14666666666666a162.66666666666666 162.66666666666666 0 0 1 49.06666666666666 -54.72 103.35999999999999 103.35999999999999 0 0 1 53.33333333333333 61.86666666666666 13.013333333333332 13.013333333333332 0 0 1 -1.8133333333333335 11.946666666666667 13.44 13.44 0 0 1 -10.666666666666666 5.546666666666667h-25.173333333333332A39.89333333333333 39.89333333333333 0 0 1 170.66666666666666 76.37333333333333 129.17333333333332 129.17333333333332 0 0 1 193.06666666666666 53.33333333333333a8.106666666666666 8.106666666666666 0 0 0 1.7066666666666666 -10.666666666666666 7.893333333333333 7.893333333333333 0 0 0 -11.2 -1.7066666666666666 154.13333333333333 154.13333333333333 0 0 0 -27.946666666666665 29.439999999999998 7.786666666666666 7.786666666666666 0 0 0 -1.3866666666666667 4.586666666666666v105.27999999999999a7.893333333333333 7.893333333333333 0 0 0 1.5999999999999999 4.8 171.30666666666664 171.30666666666664 0 0 0 28.586666666666666 30.08 7.68 7.68 0 0 0 4.693333333333333 1.4933333333333334 8 8 0 0 0 4.8 -13.973333333333333 137.81333333333333 137.81333333333333 0 0 1 -22.186666666666667 -22.826666666666668A36.8 36.8 0 0 1 199.67999999999998 160h25.066666666666666a13.333333333333332 13.333333333333332 0 0 1 10.666666666666666 5.4399999999999995 13.013333333333332 13.013333333333332 0 0 1 1.92 12.266666666666666Z" fill="#ffffff" stroke-width="10.6667"></path>
</svg>