<svg xmlns="http://www.w3.org/2000/svg" viewBox="0 0 256 256" id="Technology-Device-Wearable-Smart-Watch-Circle-App-2--Streamline-Ultimate" height="256" width="256">
  <desc>
    Technology Device Wearable Smart Watch Circle App 2 Streamline Icon: https://streamlinehq.com
  </desc>
  <g id="Technology-Device-Wearable-Smart-Watch-Circle-App-2--Streamline-Ultimate.svg">
    <g>
      <path d="M103.57333333333334 124.90666666666667a5.333333333333333 5.333333333333333 0 0 0 -5.333333333333333 5.333333333333333 31.36 31.36 0 1 1 -31.36 -31.253333333333334 5.333333333333333 5.333333333333333 0 0 0 5.333333333333333 -5.333333333333333 5.333333333333333 5.333333333333333 0 0 0 -5.333333333333333 -5.333333333333333 42.026666666666664 42.026666666666664 0 1 0 42.026666666666664 41.92 5.333333333333333 5.333333333333333 0 0 0 -5.333333333333333 -5.333333333333333Z" fill="#ffffff" stroke-width="10.6667"></path>
      <path d="M61.54666666666666 115.83999999999999a5.333333333333333 5.333333333333333 0 0 0 5.333333333333333 5.333333333333333 9.066666666666666 9.066666666666666 0 1 1 -8.959999999999999 9.066666666666666 5.333333333333333 5.333333333333333 0 0 0 -5.333333333333333 -5.333333333333333 5.333333333333333 5.333333333333333 0 0 0 -5.333333333333333 5.333333333333333 19.733333333333334 19.733333333333334 0 1 0 19.626666666666665 -19.733333333333334 5.4399999999999995 5.4399999999999995 0 0 0 -5.333333333333333 5.333333333333333Z" fill="#ffffff" stroke-width="10.6667"></path>
    </g>
    <path d="M252.26666666666665 145.06666666666666a18.026666666666664 18.026666666666664 0 0 0 -13.866666666666667 -6.826666666666666l-55.14666666666666 0a17.706666666666663 17.706666666666663 0 0 0 -17.28 14.4 113.38666666666667 113.38666666666667 0 0 1 -5.4399999999999995 16.746666666666666c-1.1733333333333333 2.986666666666667 -2.2399999999999998 5.973333333333334 -3.3066666666666666 8.959999999999999a8 8 0 0 0 15.146666666666665 5.119999999999999c0.96 -2.7733333333333334 2.0266666666666664 -5.546666666666667 3.093333333333333 -8.32a124.05333333333334 124.05333333333334 0 0 0 5.866666666666667 -19.52 1.7066666666666666 1.7066666666666666 0 0 1 1.5999999999999999 -1.5999999999999999l55.14666666666666 0a1.5999999999999999 1.5999999999999999 0 0 1 1.1733333333333333 0.6399999999999999 1.92 1.92 0 0 1 0 1.4933333333333334 88.21333333333332 88.21333333333332 0 0 1 -61.01333333333333 66.56 94.50666666666666 94.50666666666666 0 0 1 -32 -15.36A97.49333333333334 97.49333333333334 0 0 1 117.33333333333333 174.07999999999998a66.66666666666666 66.66666666666666 0 0 0 13.44 -24.21333333333333h3.413333333333333A15.36 15.36 0 0 0 149.33333333333331 134.61333333333332v-8.746666666666666a15.36 15.36 0 0 0 -15.253333333333332 -15.253333333333332h-3.413333333333333A65.91999999999999 65.91999999999999 0 0 0 115.94666666666666 85.33333333333333a98.77333333333333 98.77333333333333 0 0 1 30.613333333333333 -36.373333333333335 94.50666666666666 94.50666666666666 0 0 1 32 -15.36 77.75999999999999 77.75999999999999 0 0 1 21.333333333333332 9.386666666666667 93.75999999999999 93.75999999999999 0 0 1 39.68 56.213333333333324 1.7066666666666666 1.7066666666666666 0 0 1 0 1.4933333333333334 1.4933333333333334 1.4933333333333334 0 0 1 -1.2799999999999998 0.6399999999999999l-50.879999999999995 0.8533333333333333a156.79999999999998 156.79999999999998 0 0 0 -31.04 -37.12 8 8 0 1 0 -10.026666666666666 12.479999999999999 148.58666666666664 148.58666666666664 0 0 1 28.05333333333333 34.346666666666664 13.546666666666667 13.546666666666667 0 0 0 11.306666666666667 6.293333333333333l52.693333333333335 -0.8533333333333333a17.386666666666663 17.386666666666663 0 0 0 13.866666666666667 -7.1466666666666665 17.919999999999998 17.919999999999998 0 0 0 2.7733333333333334 -15.36 109.54666666666665 109.54666666666665 0 0 0 -46.08 -65.91999999999999 106.66666666666666 106.66666666666666 0 0 0 -44.16 -15.04h-37.97333333333333a98.13333333333333 98.13333333333333 0 0 0 -23.68 2.6666666666666665 99.94666666666666 99.94666666666666 0 0 0 -68.37333333333333 55.04 66.88 66.88 0 0 0 3.3066666666666666 119.03999999999999 100.79999999999998 100.79999999999998 0 0 0 88.74666666666667 51.626666666666665h27.733333333333334A102.39999999999999 102.39999999999999 0 0 0 256 160a17.813333333333333 17.813333333333333 0 0 0 -3.733333333333333 -14.933333333333332ZM16 130.24A50.986666666666665 50.986666666666665 0 1 1 66.88 181.33333333333331a50.986666666666665 50.986666666666665 0 0 1 -50.879999999999995 -51.093333333333334Z" fill="#ffffff" stroke-width="10.6667"></path>
  </g>
</svg>