<svg xmlns="http://www.w3.org/2000/svg" viewBox="0 0 256 256" id="Technology-Device-Wearable-Smart-Watch-Circle-App-1--Streamline-Ultimate" height="256" width="256">
  <desc>
    Technology Device Wearable Smart Watch Circle App 1 Streamline Icon: https://streamlinehq.com
  </desc>
  <g id="Technology-Device-Wearable-Smart-Watch-Circle-App-1--Streamline-Ultimate.svg">
    <g>
      <path d="M201.17333333333332 84.05333333333333a10.666666666666666 10.666666666666666 0 0 0 -15.36 14.826666666666664 45.120000000000005 45.120000000000005 0 0 1 0 61.97333333333333 10.666666666666666 10.666666666666666 0 0 0 7.68 18.133333333333333 10.666666666666666 10.666666666666666 0 0 0 7.68 -3.3066666666666666 66.66666666666666 66.66666666666666 0 0 0 0 -91.62666666666667Z" fill="#ffffff" stroke-width="10.6667"></path>
      <path d="M227.62666666666667 58.45333333333333a10.666666666666666 10.666666666666666 0 0 0 -15.36 14.826666666666664 82.45333333333333 82.45333333333333 0 0 1 0 113.17333333333332 10.666666666666666 10.666666666666666 0 0 0 7.68 18.133333333333333 10.666666666666666 10.666666666666666 0 0 0 7.68 -3.3066666666666666 104 104 0 0 0 0 -142.82666666666665Z" fill="#ffffff" stroke-width="10.6667"></path>
    </g>
    <g>
      <path d="M139.73333333333332 120.74666666666667a8.106666666666666 8.106666666666666 0 0 0 -8 8 42.666666666666664 42.666666666666664 0 1 1 -42.13333333333333 -42.666666666666664 8 8 0 1 0 0 -16 58.239999999999995 58.239999999999995 0 1 0 58.13333333333333 58.13333333333333 8 8 0 0 0 -8 -7.466666666666666Z" fill="#ffffff" stroke-width="10.6667"></path>
      <path d="M81.6 108.69333333333333a8 8 0 0 0 8 8 12.053333333333331 12.053333333333331 0 0 1 0 24.106666666666662 11.946666666666667 11.946666666666667 0 0 1 -12.053333333333331 -12.053333333333331 8 8 0 0 0 -16 0A28.05333333333333 28.05333333333333 0 1 0 89.6 100.69333333333333a8 8 0 0 0 -8 8Z" fill="#ffffff" stroke-width="10.6667"></path>
    </g>
    <path d="M179.2 128.74666666666667a89.91999999999999 89.91999999999999 0 0 0 -42.666666666666664 -76.16 2.0266666666666664 2.0266666666666664 0 0 1 -1.0666666666666667 -1.3866666666666667L127.14666666666666 7.359999999999999a4.693333333333333 4.693333333333333 0 0 0 -4.586666666666666 -3.52H56.53333333333333a4.586666666666666 4.586666666666666 0 0 0 -4.4799999999999995 3.52L43.413333333333334 51.199999999999996a1.92 1.92 0 0 1 -0.7466666666666667 1.3866666666666667 89.49333333333334 89.49333333333334 0 0 0 0 152.32 2.5599999999999996 2.5599999999999996 0 0 1 0.96 1.3866666666666667l8.64 42.666666666666664a4.586666666666666 4.586666666666666 0 0 0 4.4799999999999995 3.52h66.02666666666667a4.693333333333333 4.693333333333333 0 0 0 4.586666666666666 -3.413333333333333l8.746666666666666 -42.666666666666664a2.453333333333333 2.453333333333333 0 0 1 1.0666666666666667 -1.2799999999999998 89.91999999999999 89.91999999999999 0 0 0 42.026666666666664 -76.37333333333333ZM89.6 199.46666666666664a70.72 70.72 0 1 1 70.39999999999999 -70.72 70.72 70.72 0 0 1 -70.39999999999999 70.72Z" fill="#ffffff" stroke-width="10.6667"></path>
  </g>
</svg>