<svg xmlns="http://www.w3.org/2000/svg" id="Technology-Device-Wearable-Smart-Watch-1--Streamline-Ultimate" width="256" height="256" viewBox="0 0 256 256"><desc>Technology Device Wearable Smart Watch 1 Streamline Icon: https://streamlinehq.com</desc><g id="Technology-Device-Wearable-Smart-Watch-1--Streamline-Ultimate.svg"><path fill="#fff" stroke-width="10.667" d="m256 183.78666666666666 -5.973333333333334 -62.08a42.026666666666664 42.026666666666664 0 0 0 -40 -39.14666666666666h-40.85333333333333a53.86666666666666 53.86666666666666 0 0 0 -29.65333333333333 8.959999999999999l-46.29333333333333 24.959999999999997h-1.5999999999999999a18.773333333333333 18.773333333333333 0 0 0 -15.466666666666665 -8.106666666666666H52.16a18.773333333333333 18.773333333333333 0 0 0 -15.36 8.106666666666666H14.08a10.666666666666666 10.666666666666666 0 0 0 0 21.333333333333332h19.413333333333334v61.653333333333336H14.08a10.666666666666666 10.666666666666666 0 0 0 0 21.333333333333332h21.333333333333332a18.666666666666664 18.666666666666664 0 0 0 16.64 10.666666666666666h24.106666666666662a18.666666666666664 18.666666666666664 0 0 0 16.64 -10.666666666666666h23.04l6.72 9.6a57.28 57.28 0 0 0 46.82666666666666 25.599999999999998h21.333333333333332A29.013333333333335 29.013333333333335 0 0 0 213.33333333333331 245.33333333333331a56.53333333333333 56.53333333333333 0 0 0 8.64 -23.36h3.9466666666666663a29.119999999999997 29.119999999999997 0 0 0 23.46666666666667 -12.266666666666666 37.12 37.12 0 0 0 6.613333333333333 -25.92Zm-23.893333333333334 13.12a8.32 8.32 0 0 1 -6.3999999999999995 3.733333333333333l-47.25333333333333 0.6399999999999999a10.666666666666666 10.666666666666666 0 0 0 0 21.333333333333332h21.333333333333332a42.666666666666664 42.666666666666664 0 0 1 -2.88 8.853333333333332 7.893333333333333 7.893333333333333 0 0 1 -5.866666666666667 3.093333333333333h-21.333333333333332a36.266666666666666 36.266666666666666 0 0 1 -29.439999999999998 -16.53333333333333l-9.92 -13.973333333333333a10.666666666666666 10.666666666666666 0 0 0 -8.746666666666666 -4.586666666666666H94.82666666666667v-61.653333333333336H96a10.666666666666666 10.666666666666666 0 0 0 5.119999999999999 -1.2799999999999998l49.6 -26.77333333333333a33.17333333333333 33.17333333333333 0 0 1 18.56 -5.866666666666667h40.64a21.333333333333332 21.333333333333332 0 0 1 18.773333333333333 20.159999999999997l5.973333333333334 61.97333333333333a15.786666666666665 15.786666666666665 0 0 1 -2.7733333333333334 10.879999999999999Z"/><g><path fill="#fff" stroke-width="10.667" d="M53.33333333333333 76.16a10.666666666666666 10.666666666666666 0 0 0 0 15.04 10.666666666666666 10.666666666666666 0 0 0 15.146666666666665 0 7.68 7.68 0 0 1 10.666666666666666 0 10.666666666666666 10.666666666666666 0 0 0 7.359999999999999 2.986666666666667 10.666666666666666 10.666666666666666 0 0 0 7.68 -3.3066666666666666 10.666666666666666 10.666666666666666 0 0 0 0 -15.04A29.119999999999997 29.119999999999997 0 0 0 53.33333333333333 76.16Z"/><path fill="#fff" stroke-width="10.667" d="M111.03999999999999 70.39999999999999a10.666666666666666 10.666666666666666 0 0 0 7.68 -3.3066666666666666 10.666666666666666 10.666666666666666 0 0 0 0 -15.04 65.49333333333333 65.49333333333333 0 0 0 -90.02666666666666 0 10.666666666666666 10.666666666666666 0 0 0 0 15.04 10.666666666666666 10.666666666666666 0 0 0 15.146666666666665 0 44.05333333333333 44.05333333333333 0 0 1 60.48 0 10.666666666666666 10.666666666666666 0 0 0 6.72 3.3066666666666666Z"/><path fill="#fff" stroke-width="10.667" d="M18.026666666666664 43.30666666666666a80.63999999999999 80.63999999999999 0 0 1 110.72 0 10.666666666666666 10.666666666666666 0 0 0 14.826666666666664 -15.36 102.18666666666667 102.18666666666667 0 0 0 -140.26666666666665 0A10.666666666666666 10.666666666666666 0 0 0 2.986666666666667 42.666666666666664a10.666666666666666 10.666666666666666 0 0 0 7.68 3.626666666666667 10.666666666666666 10.666666666666666 0 0 0 7.359999999999999 -2.986666666666667Z"/></g></g></svg>