<svg xmlns="http://www.w3.org/2000/svg" viewBox="0 0 256 256" id="Ted-Logo--Streamline-Ultimate" height="256" width="256">
  <desc>
    Ted Logo Streamline Icon: https://streamlinehq.com
  </desc>
  <g id="Ted-Logo--Streamline-Ultimate.svg">
    <path d="M73.49333333333333 70.82666666666665H2.6666666666666665a2.7733333333333334 2.7733333333333334 0 0 0 -2.6666666666666665 2.6666666666666665v21.333333333333332a2.7733333333333334 2.7733333333333334 0 0 0 2.7733333333333334 2.7733333333333334h21.333333333333332v84.47999999999999a2.7733333333333334 2.7733333333333334 0 0 0 2.7733333333333334 2.6666666666666665h21.333333333333332a2.7733333333333334 2.7733333333333334 0 0 0 2.7733333333333334 -2.6666666666666665V98.02666666666666h21.333333333333332a2.7733333333333334 2.7733333333333334 0 0 0 2.7733333333333334 -2.7733333333333334v-21.333333333333332a2.7733333333333334 2.7733333333333334 0 0 0 -1.5999999999999999 -3.093333333333333Z" fill="#ffffff" stroke-width="10.6667"></path>
    <path d="M155.2 70.82666666666665H95.25333333333333a2.6666666666666665 2.6666666666666665 0 0 0 -2.6666666666666665 2.6666666666666665v109.01333333333334a2.6666666666666665 2.6666666666666665 0 0 0 2.6666666666666665 2.6666666666666665h59.946666666666665a2.6666666666666665 2.6666666666666665 0 0 0 2.7733333333333334 -2.6666666666666665v-21.333333333333332a2.6666666666666665 2.6666666666666665 0 0 0 -2.7733333333333334 -2.7733333333333334h-35.41333333333333v-16.746666666666666h35.41333333333333a2.7733333333333334 2.7733333333333334 0 0 0 2.7733333333333334 -2.7733333333333334V117.33333333333333a2.7733333333333334 2.7733333333333334 0 0 0 -2.7733333333333334 -2.7733333333333334h-35.41333333333333V98.02666666666666h35.41333333333333a2.6666666666666665 2.6666666666666665 0 0 0 2.7733333333333334 -2.7733333333333334v-21.333333333333332a2.6666666666666665 2.6666666666666665 0 0 0 -2.7733333333333334 -3.093333333333333Z" fill="#ffffff" stroke-width="10.6667"></path>
    <path d="M198.82666666666665 70.82666666666665h-21.333333333333332a2.7733333333333334 2.7733333333333334 0 0 0 -2.7733333333333334 2.6666666666666665v109.01333333333334a2.7733333333333334 2.7733333333333334 0 0 0 2.7733333333333334 2.6666666666666665h21.333333333333332a57.17333333333333 57.17333333333333 0 1 0 0 -114.34666666666666ZM228.79999999999998 128a29.973333333333333 29.973333333333333 0 0 1 -27.199999999999996 29.866666666666664V98.13333333333333a29.973333333333333 29.973333333333333 0 0 1 27.199999999999996 29.866666666666664Z" fill="#ffffff" stroke-width="10.6667"></path>
  </g>
</svg>