<svg xmlns="http://www.w3.org/2000/svg" viewBox="0 0 256 256" id="Temperature-Thermometer-High--Streamline-Ultimate" height="256" width="256">
  <desc>
    Temperature Thermometer High Streamline Icon: https://streamlinehq.com
  </desc>
  <g id="Temperature-Thermometer-High--Streamline-Ultimate.svg">
    <path d="M149.33333333333331 48a48 48 0 0 0 -96 0v100.69333333333333a2.453333333333333 2.453333333333333 0 0 1 -0.6399999999999999 1.7066666666666666 64 64 0 1 0 97.27999999999999 0 2.453333333333333 2.453333333333333 0 0 1 -0.6399999999999999 -1.7066666666666666ZM101.33333333333333 234.66666666666666a42.666666666666664 42.666666666666664 0 0 1 -29.866666666666664 -73.17333333333333 10.666666666666666 10.666666666666666 0 0 0 3.1999999999999997 -7.573333333333332V48a26.666666666666664 26.666666666666664 0 0 1 53.33333333333333 0v105.91999999999999a10.666666666666666 10.666666666666666 0 0 0 3.1999999999999997 7.573333333333332A42.666666666666664 42.666666666666664 0 0 1 101.33333333333333 234.66666666666666Z" fill="#ffffff" stroke-width="10.6667"></path>
    <path d="M113.17333333333332 174.29333333333332a2.7733333333333334 2.7733333333333334 0 0 1 -1.1733333333333333 -2.2399999999999998V53.33333333333333a10.666666666666666 10.666666666666666 0 0 0 -21.333333333333332 0v118.72a2.7733333333333334 2.7733333333333334 0 0 1 -1.1733333333333333 2.2399999999999998 21.333333333333332 21.333333333333332 0 1 0 23.68 0Z" fill="#ffffff" stroke-width="10.6667"></path>
    <path d="M208 122.66666666666666H181.33333333333331a10.666666666666666 10.666666666666666 0 0 0 0 21.333333333333332h26.666666666666664a10.666666666666666 10.666666666666666 0 0 0 0 -21.333333333333332Z" fill="#ffffff" stroke-width="10.6667"></path>
    <path d="M181.33333333333331 58.666666666666664h26.666666666666664a10.666666666666666 10.666666666666666 0 0 0 0 -21.333333333333332H181.33333333333331a10.666666666666666 10.666666666666666 0 0 0 0 21.333333333333332Z" fill="#ffffff" stroke-width="10.6667"></path>
    <path d="M208 80H181.33333333333331a10.666666666666666 10.666666666666666 0 0 0 0 21.333333333333332h26.666666666666664a10.666666666666666 10.666666666666666 0 0 0 0 -21.333333333333332Z" fill="#ffffff" stroke-width="10.6667"></path>
  </g>
</svg>