<svg xmlns="http://www.w3.org/2000/svg" viewBox="0 0 256 256" id="Temperature-Thermometer-Up--Streamline-Ultimate" height="256" width="256">
  <desc>
    Temperature Thermometer Up Streamline Icon: https://streamlinehq.com
  </desc>
  <g id="Temperature-Thermometer-Up--Streamline-Ultimate.svg">
    <path d="M117.33333333333333 48a48 48 0 0 0 -96 0v100.69333333333333a2.453333333333333 2.453333333333333 0 0 1 -0.6399999999999999 1.7066666666666666A64 64 0 1 0 133.33333333333331 192a64 64 0 0 0 -15.36 -41.599999999999994 2.453333333333333 2.453333333333333 0 0 1 -0.6399999999999999 -1.7066666666666666ZM69.33333333333333 234.66666666666666a42.666666666666664 42.666666666666664 0 0 1 -29.866666666666664 -73.17333333333333 10.666666666666666 10.666666666666666 0 0 0 3.1999999999999997 -7.573333333333332V48a26.666666666666664 26.666666666666664 0 0 1 53.33333333333333 0v105.91999999999999a10.666666666666666 10.666666666666666 0 0 0 3.1999999999999997 7.573333333333332A42.666666666666664 42.666666666666664 0 0 1 69.33333333333333 234.66666666666666Z" fill="#ffffff" stroke-width="10.6667"></path>
    <path d="M81.17333333333333 174.29333333333332a2.7733333333333334 2.7733333333333334 0 0 1 -1.1733333333333333 -2.2399999999999998V90.66666666666666a10.666666666666666 10.666666666666666 0 0 0 -21.333333333333332 0v81.38666666666666a2.7733333333333334 2.7733333333333334 0 0 1 -1.1733333333333333 2.2399999999999998 21.333333333333332 21.333333333333332 0 1 0 23.68 0Z" fill="#ffffff" stroke-width="10.6667"></path>
    <path d="m248.8533333333333 78.50666666666666 -39.04 -52.16a9.386666666666667 9.386666666666667 0 0 0 -14.293333333333333 0l-39.04 52.16a8.853333333333332 8.853333333333332 0 0 0 -0.8533333333333333 9.28 8.746666666666666 8.746666666666666 0 0 0 7.893333333333333 4.906666666666666h20.479999999999997a2.6666666666666665 2.6666666666666665 0 0 1 2.6666666666666665 2.6666666666666665V208a16 16 0 0 0 32 0V95.35999999999999a2.6666666666666665 2.6666666666666665 0 0 1 2.6666666666666665 -2.6666666666666665h20.479999999999997a8.746666666666666 8.746666666666666 0 0 0 7.893333333333333 -4.906666666666666 8.853333333333332 8.853333333333332 0 0 0 -0.8533333333333333 -9.28Z" fill="#ffffff" stroke-width="10.6667"></path>
  </g>
</svg>