<svg xmlns="http://www.w3.org/2000/svg" id="Temperature-Celsius--Streamline-Ultimate" width="256" height="256" viewBox="0 0 256 256"><desc>Temperature Celsius Streamline Icon: https://streamlinehq.com</desc><path fill="#fff" stroke-width="10.667" d="M128 0a128 128 0 1 0 128 128A128 128 0 0 0 128 0Zm-10.666666666666666 176a47.78666666666667 47.78666666666667 0 0 0 21.333333333333332 -5.333333333333333 10.666666666666666 10.666666666666666 0 0 1 10.666666666666666 19.093333333333334 70.61333333333333 70.61333333333333 0 0 1 -32 7.573333333333332 69.33333333333333 69.33333333333333 0 0 1 0 -138.66666666666666 70.61333333333333 70.61333333333333 0 0 1 32 7.573333333333332 10.666666666666666 10.666666666666666 0 0 1 4.586666666666666 14.293333333333333A10.666666666666666 10.666666666666666 0 0 1 138.66666666666666 85.33333333333333a48 48 0 1 0 -21.333333333333332 90.77333333333333Zm74.66666666666666 -58.666666666666664a21.333333333333332 21.333333333333332 0 1 1 21.333333333333332 -21.333333333333332 21.333333333333332 21.333333333333332 0 0 1 -21.333333333333332 21.333333333333332Z"/></svg>