<svg xmlns="http://www.w3.org/2000/svg" fill="none" viewBox="0 0 256 256" id="Text-Format-Dottted-Underline--Streamline-Ultimate" height="256" width="256">
  <desc>
    Text Format Dottted Underline Streamline Icon: https://streamlinehq.com
  </desc>
  <path stroke="#ffffff" stroke-linecap="round" stroke-linejoin="round" stroke-width="21.3333" d="M109.33760000000001 67.52106666666666v36.30186666666667h28.051199999999998c10.025599999999999 0 18.150399999999998 -8.126933333333334 18.150399999999998 -18.151466666666664 0 -10.023466666666666 -8.1248 -18.150399999999998 -18.150399999999998 -18.150399999999998h-28.051199999999998Z"></path>
  <path stroke="#ffffff" stroke-linecap="round" stroke-linejoin="round" stroke-width="21.3333" d="M109.33760000000001 103.82506666666666v42.90133333333333h31.351466666666667c11.847466666666666 0 21.450666666666667 -9.604266666666666 21.450666666666667 -21.45173333333333 0 -11.8464 -9.6032 -21.449599999999997 -21.450666666666667 -21.449599999999997h-31.351466666666667Z"></path>
  <path stroke="#ffffff" stroke-linecap="round" stroke-linejoin="round" stroke-width="21.3333" d="M241.41866666666664 80.72213333333333c-2.7178666666666667 -7.690666666666666 -10.053333333333333 -13.201066666666666 -18.67413333333333 -13.201066666666666h-13.2c-10.936533333333333 0 -19.800533333333334 8.865066666666666 -19.800533333333334 19.8016v39.60106666666667c0 10.935466666666665 8.863999999999999 19.800533333333334 19.800533333333334 19.800533333333334h13.2c8.6208 0 15.956266666666666 -5.510399999999999 18.67413333333333 -13.2"></path>
  <path stroke="#ffffff" stroke-linecap="round" stroke-linejoin="round" stroke-width="21.3333" d="M15.727999999999998 146.72426666666667 40.04266666666666 73.7824c1.2458666666666667 -3.738666666666666 4.7456 -6.261333333333333 8.686933333333332 -6.261333333333333h0c3.941333333333333 0 7.441066666666666 2.5226666666666664 8.687999999999999 6.261333333333333l24.313599999999997 72.94186666666667m-57.202133333333336 -26.401066666666665h48.401066666666665"></path>
  <path fill="#ffffff" d="M12.6048 198.93226666666664c5.547733333333333 0 10.044799999999999 -4.497066666666666 10.044799999999999 -10.044799999999999s-4.497066666666666 -10.044799999999999 -10.044799999999999 -10.044799999999999 -10.044799999999999 4.497066666666666 -10.044799999999999 10.044799999999999 4.497066666666666 10.044799999999999 10.044799999999999 10.044799999999999Z" stroke-width="21.3333"></path>
  <path fill="#ffffff" d="M51.06986666666666 198.93226666666664c5.547733333333333 0 10.044799999999999 -4.497066666666666 10.044799999999999 -10.044799999999999s-4.497066666666666 -10.044799999999999 -10.044799999999999 -10.044799999999999 -10.044799999999999 4.497066666666666 -10.044799999999999 10.044799999999999 4.497066666666666 10.044799999999999 10.044799999999999 10.044799999999999Z" stroke-width="21.3333"></path>
  <path fill="#ffffff" d="M89.53493333333333 198.93226666666664c5.547733333333333 0 10.044799999999999 -4.497066666666666 10.044799999999999 -10.044799999999999s-4.497066666666666 -10.044799999999999 -10.044799999999999 -10.044799999999999 -10.044799999999999 4.497066666666666 -10.044799999999999 10.044799999999999 4.497066666666666 10.044799999999999 10.044799999999999 10.044799999999999Z" stroke-width="21.3333"></path>
  <path fill="#ffffff" d="M128 198.93226666666664c5.547733333333333 0 10.044799999999999 -4.497066666666666 10.044799999999999 -10.044799999999999s-4.497066666666666 -10.044799999999999 -10.044799999999999 -10.044799999999999 -10.044799999999999 4.497066666666666 -10.044799999999999 10.044799999999999 4.497066666666666 10.044799999999999 10.044799999999999 10.044799999999999Z" stroke-width="21.3333"></path>
  <path fill="#ffffff" d="M166.46506666666664 198.93226666666664c5.547733333333333 0 10.044799999999999 -4.497066666666666 10.044799999999999 -10.044799999999999s-4.497066666666666 -10.044799999999999 -10.044799999999999 -10.044799999999999 -10.044799999999999 4.497066666666666 -10.044799999999999 10.044799999999999 4.497066666666666 10.044799999999999 10.044799999999999 10.044799999999999Z" stroke-width="21.3333"></path>
  <path fill="#ffffff" d="M204.93013333333332 198.93226666666664c5.547733333333333 0 10.044799999999999 -4.497066666666666 10.044799999999999 -10.044799999999999s-4.497066666666666 -10.044799999999999 -10.044799999999999 -10.044799999999999 -10.044799999999999 4.497066666666666 -10.044799999999999 10.044799999999999 4.497066666666666 10.044799999999999 10.044799999999999 10.044799999999999Z" stroke-width="21.3333"></path>
  <path fill="#ffffff" d="M243.3952 198.93226666666664c5.547733333333333 0 10.044799999999999 -4.497066666666666 10.044799999999999 -10.044799999999999s-4.497066666666666 -10.044799999999999 -10.044799999999999 -10.044799999999999 -10.044799999999999 4.497066666666666 -10.044799999999999 10.044799999999999 4.497066666666666 10.044799999999999 10.044799999999999 10.044799999999999Z" stroke-width="21.3333"></path>
</svg>