<svg xmlns="http://www.w3.org/2000/svg" viewBox="0 0 256 256" id="Text-Underline--Streamline-Ultimate" height="256" width="256">
  <desc>
    Text Underline Streamline Icon: https://streamlinehq.com
  </desc>
  <g id="Text-Underline--Streamline-Ultimate.svg">
    <path d="M240 226.66666666666666h-224a13.333333333333332 13.333333333333332 0 0 0 0 26.666666666666664h224a13.333333333333332 13.333333333333332 0 0 0 0 -26.666666666666664Z" fill="#ffffff" stroke-width="10.6667"></path>
    <path d="M21.333333333333332 29.333333333333332h14.293333333333333a2.6666666666666665 2.6666666666666665 0 0 1 2.6666666666666665 2.6666666666666665v90.88a89.70666666666666 89.70666666666666 0 0 0 179.41333333333333 0V32a2.6666666666666665 2.6666666666666665 0 0 1 2.6666666666666665 -2.6666666666666665H234.66666666666666a13.333333333333332 13.333333333333332 0 0 0 0 -26.666666666666664h-60.8a13.333333333333332 13.333333333333332 0 0 0 0 26.666666666666664h14.506666666666668a2.6666666666666665 2.6666666666666665 0 0 1 2.6666666666666665 2.6666666666666665v90.88a63.04 63.04 0 0 1 -126.08 0V32a2.6666666666666665 2.6666666666666665 0 0 1 2.6666666666666665 -2.6666666666666665H82.13333333333333a13.333333333333332 13.333333333333332 0 0 0 0 -26.666666666666664H21.333333333333332a13.333333333333332 13.333333333333332 0 0 0 0 26.666666666666664Z" fill="#ffffff" stroke-width="10.6667"></path>
  </g>
</svg>