<svg xmlns="http://www.w3.org/2000/svg" id="Text-Image-Left--Streamline-Ultimate" width="256" height="256" fill="none" viewBox="0 0 256 256"><desc>Text Image Left Streamline Icon: https://streamlinehq.com</desc><path fill="#fff" fill-rule="evenodd" stroke-width="10.667" d="M10.666666666666666 1.7706666666666666a10.666666666666666 10.666666666666666 0 0 0 0 21.333333333333332h234.66666666666666a10.666666666666666 10.666666666666666 0 1 0 0 -21.333333333333332H10.666666666666666Zm10.559999999999999 194.66666666666666a21.226666666666667 21.226666666666667 0 0 1 -21.119999999999997 -21.333333333333332l0 -94.208c0 -11.786666666666665 9.450666666666667 -21.333333333333332 21.119999999999997 -21.333333333333332l98.79466666666667 0a21.226666666666667 21.226666666666667 0 0 1 21.119999999999997 21.333333333333332v94.208c0 11.786666666666665 -9.450666666666667 21.333333333333332 -21.119999999999997 21.333333333333332H21.226666666666667ZM160.32 70.22933333333333a10.666666666666666 10.666666666666666 0 0 1 10.666666666666666 -10.666666666666666H245.33333333333331a10.666666666666666 10.666666666666666 0 0 1 0 21.333333333333332h-74.34666666666666a10.666666666666666 10.666666666666666 0 0 1 -10.666666666666666 -10.666666666666666Zm10.666666666666666 47.12533333333333a10.666666666666666 10.666666666666666 0 1 0 0 21.333333333333332H245.33333333333331a10.666666666666666 10.666666666666666 0 0 0 0 -21.333333333333332h-74.34666666666666Zm-10.666666666666666 68.416a10.666666666666666 10.666666666666666 0 0 1 10.666666666666666 -10.666666666666666H245.33333333333331a10.666666666666666 10.666666666666666 0 0 1 0 21.333333333333332h-74.34666666666666a10.666666666666666 10.666666666666666 0 0 1 -10.666666666666666 -10.666666666666666ZM10.666666666666666 232.896a10.666666666666666 10.666666666666666 0 1 0 0 21.333333333333332h234.66666666666666a10.666666666666666 10.666666666666666 0 1 0 0 -21.333333333333332H10.666666666666666Z" clip-rule="evenodd"/></svg>