<svg xmlns="http://www.w3.org/2000/svg" id="Ticket-1--Streamline-Ultimate" width="256" height="256" viewBox="0 0 256 256"><desc>Ticket 1 Streamline Icon: https://streamlinehq.com</desc><g id="Ticket-1--Streamline-Ultimate.svg"><path fill="#fff" stroke-width="10.667" d="M253.86666666666667 117.33333333333333a28.69333333333333 28.69333333333333 0 0 1 0 -34.666666666666664 10.666666666666666 10.666666666666666 0 0 0 -1.1733333333333333 -14.293333333333333L188.0533333333333 3.3066666666666666A10.666666666666666 10.666666666666666 0 0 0 173.76 2.1333333333333333 28.69333333333333 28.69333333333333 0 0 1 138.66666666666666 2.1333333333333333a10.666666666666666 10.666666666666666 0 0 0 -13.866666666666667 1.1733333333333333L1.5999999999999999 126.50666666666666a5.333333333333333 5.333333333333333 0 0 0 -0.6399999999999999 6.826666666666666 34.666666666666664 34.666666666666664 0 0 1 6.079999999999999 19.52 32.85333333333333 32.85333333333333 0 0 1 -4.8 17.173333333333332 11.413333333333334 11.413333333333334 0 0 0 1.5999999999999999 13.653333333333332l68.47999999999999 68.47999999999999a11.2 11.2 0 0 0 13.653333333333332 1.4933333333333334 34.346666666666664 34.346666666666664 0 0 1 36.69333333333333 1.3866666666666667 5.119999999999999 5.119999999999999 0 0 0 6.72 -0.6399999999999999L252.69333333333333 131.2a10.666666666666666 10.666666666666666 0 0 0 1.1733333333333333 -13.866666666666667Zm-46.50666666666667 3.9466666666666663 -88.21333333333332 87.78666666666666a22.72 22.72 0 0 1 -32 0L46.93333333333334 168.95999999999998a22.72 22.72 0 0 1 0 -32l88.21333333333332 -88.21333333333332a22.72 22.72 0 0 1 32 0l40.10666666666666 40.10666666666666a22.72 22.72 0 0 1 0.10666666666666666 32Z"/><path fill="#fff" stroke-width="10.667" d="M156.90666666666667 74.66666666666666a8 8 0 0 0 -11.306666666666667 0l-72.21333333333332 72.53333333333333a8 8 0 0 0 0 11.306666666666667 8 8 0 0 0 11.306666666666667 0l72.21333333333332 -72.21333333333332a8 8 0 0 0 0 -11.626666666666667Z"/><path fill="#fff" stroke-width="10.667" d="m151.46666666666664 121.06666666666666 -32 32a8 8 0 0 0 0 11.306666666666667 8 8 0 0 0 11.306666666666667 0l32 -32a8 8 0 0 0 0 -11.306666666666667 7.893333333333333 7.893333333333333 0 0 0 -11.306666666666667 0Z"/></g></svg>