<svg xmlns="http://www.w3.org/2000/svg" viewBox="0 0 256 256" id="Ticket-Add--Streamline-Ultimate" height="256" width="256">
  <desc>
    Ticket Add Streamline Icon: https://streamlinehq.com
  </desc>
  <g id="Ticket-Add--Streamline-Ultimate.svg">
    <path d="M153.06666666666666 35.626666666666665a10.559999999999999 10.559999999999999 0 1 0 21.119999999999997 0 10.559999999999999 10.559999999999999 0 1 0 -21.119999999999997 0" fill="#ffffff" stroke-width="10.6667"></path>
    <path d="M153.06666666666666 64.63999999999999a10.559999999999999 10.559999999999999 0 1 0 21.119999999999997 0 10.559999999999999 10.559999999999999 0 1 0 -21.119999999999997 0" fill="#ffffff" stroke-width="10.6667"></path>
    <path d="M153.06666666666666 93.65333333333332a10.559999999999999 10.559999999999999 0 1 0 21.119999999999997 0 10.559999999999999 10.559999999999999 0 1 0 -21.119999999999997 0" fill="#ffffff" stroke-width="10.6667"></path>
    <path d="M102.39999999999999 164.90666666666667H23.786666666666665a2.6666666666666665 2.6666666666666665 0 0 1 -2.453333333333333 -2.5599999999999996v-20.266666666666666a2.6666666666666665 2.6666666666666665 0 0 1 1.92 -2.5599999999999996 47.46666666666667 47.46666666666667 0 0 0 0 -91.62666666666667 2.6666666666666665 2.6666666666666665 0 0 1 -1.92 -2.5599999999999996v-20.266666666666666a2.6666666666666665 2.6666666666666665 0 0 1 2.6666666666666665 -2.6666666666666665h205.86666666666667a2.6666666666666665 2.6666666666666665 0 0 1 2.5599999999999996 2.6666666666666665v20.266666666666666a2.6666666666666665 2.6666666666666665 0 0 1 -1.92 2.5599999999999996 47.57333333333333 47.57333333333333 0 0 0 -34.986666666666665 45.76 42.666666666666664 42.666666666666664 0 0 0 0 6.3999999999999995 2.6666666666666665 2.6666666666666665 0 0 0 2.2399999999999998 2.2399999999999998 78.29333333333332 78.29333333333332 0 0 1 16.746666666666666 3.9466666666666663 2.88 2.88 0 0 0 2.7733333333333334 -0.6399999999999999 2.7733333333333334 2.7733333333333334 0 0 0 0.6399999999999999 -2.7733333333333334 24.21333333333333 24.21333333333333 0 0 1 -1.7066666666666666 -9.173333333333332 26.346666666666668 26.346666666666668 0 0 1 23.04 -26.133333333333333 15.893333333333333 15.893333333333333 0 0 0 13.866666666666667 -15.68V22.4a21.333333333333332 21.333333333333332 0 0 0 -21.333333333333332 -21.333333333333332H21.333333333333332a21.333333333333332 21.333333333333332 0 0 0 -21.333333333333332 21.333333333333332v29.439999999999998a15.893333333333333 15.893333333333333 0 0 0 13.866666666666667 15.68 26.346666666666668 26.346666666666668 0 0 1 23.04 26.133333333333333 26.453333333333333 26.453333333333333 0 0 1 -23.04 26.24A15.786666666666665 15.786666666666665 0 0 0 0 135.57333333333332v29.333333333333332a21.333333333333332 21.333333333333332 0 0 0 21.333333333333332 21.333333333333332h79.03999999999999a2.5599999999999996 2.5599999999999996 0 0 0 2.5599999999999996 -2.5599999999999996 81.81333333333333 81.81333333333333 0 0 1 2.0266666666666664 -15.36 2.5599999999999996 2.5599999999999996 0 0 0 -0.5333333333333333 -2.1333333333333333 2.7733333333333334 2.7733333333333334 0 0 0 -2.0266666666666664 -1.2799999999999998Z" fill="#ffffff" stroke-width="10.6667"></path>
    <path d="M187.41333333333333 117.33333333333333A68.69333333333333 68.69333333333333 0 1 0 256 186.02666666666667 68.8 68.8 0 0 0 187.41333333333333 117.33333333333333ZM213.33333333333331 194.02666666666667h-15.36a2.6666666666666665 2.6666666666666665 0 0 0 -2.6666666666666665 2.5599999999999996v15.893333333333333a7.893333333333333 7.893333333333333 0 0 1 -7.893333333333333 7.893333333333333 8 8 0 0 1 -8 -7.893333333333333v-15.893333333333333a2.5599999999999996 2.5599999999999996 0 0 0 -2.5599999999999996 -2.5599999999999996h-15.893333333333333a8 8 0 0 1 -7.893333333333333 -8 7.893333333333333 7.893333333333333 0 0 1 7.893333333333333 -7.893333333333333h15.893333333333333a2.6666666666666665 2.6666666666666665 0 0 0 2.5599999999999996 -2.6666666666666665V160a8 8 0 0 1 8 -7.893333333333333 7.893333333333333 7.893333333333333 0 0 1 7.893333333333333 7.893333333333333v15.786666666666665a2.6666666666666665 2.6666666666666665 0 0 0 2.6666666666666665 2.6666666666666665H213.33333333333331a7.893333333333333 7.893333333333333 0 0 1 7.893333333333333 7.893333333333333 8 8 0 0 1 -7.893333333333333 7.68Z" fill="#ffffff" stroke-width="10.6667"></path>
  </g>
</svg>