<svg xmlns="http://www.w3.org/2000/svg" viewBox="0 0 256 256" id="Time-Clock-Hand-1--Streamline-Ultimate" height="256" width="256">
  <desc>
    Time Clock Hand 1 Streamline Icon: https://streamlinehq.com
  </desc>
  <g id="Time-Clock-Hand-1--Streamline-Ultimate.svg">
    <path d="M256 106.66666666666666a106.66666666666666 106.66666666666666 0 0 0 -213.33333333333331 0 105.49333333333334 105.49333333333334 0 0 0 7.573333333333332 39.36 5.226666666666667 5.226666666666667 0 0 0 4.906666666666666 3.3066666666666666h27.626666666666665a39.89333333333333 39.89333333333333 0 0 1 36.69333333333333 24.21333333333333 26.133333333333333 26.133333333333333 0 0 1 2.0266666666666664 12.693333333333332 5.333333333333333 5.333333333333333 0 0 0 5.333333333333333 5.76h38.50666666666666a26.666666666666664 26.666666666666664 0 0 1 21.333333333333332 10.666666666666666 5.4399999999999995 5.4399999999999995 0 0 0 6.3999999999999995 1.5999999999999999A106.66666666666666 106.66666666666666 0 0 0 256 106.66666666666666Zm-117.33333333333333 5.333333333333333v-64a10.666666666666666 10.666666666666666 0 0 1 21.333333333333332 0V96a5.333333333333333 5.333333333333333 0 0 0 5.333333333333333 5.333333333333333H192a10.666666666666666 10.666666666666666 0 0 1 0 21.333333333333332h-42.666666666666664a10.666666666666666 10.666666666666666 0 0 1 -10.666666666666666 -10.666666666666666Z" fill="#ffffff" stroke-width="10.6667"></path>
    <path d="M68.05333333333333 208a6.72 6.72 0 1 1 0 -13.333333333333332H94.93333333333334a10.666666666666666 10.666666666666666 0 0 0 9.813333333333333 -14.826666666666664 23.786666666666665 23.786666666666665 0 0 0 -21.973333333333333 -14.506666666666668H37.33333333333333a5.333333333333333 5.333333333333333 0 0 0 -5.333333333333333 5.333333333333333v69.33333333333333a5.333333333333333 5.333333333333333 0 0 0 5.333333333333333 5.333333333333333h114.77333333333333a23.893333333333334 23.893333333333334 0 0 0 23.893333333333334 -23.893333333333334v-2.7733333333333334a10.666666666666666 10.666666666666666 0 0 0 -10.666666666666666 -10.666666666666666Z" fill="#ffffff" stroke-width="10.6667"></path>
    <path d="M21.333333333333332 168a10.666666666666666 10.666666666666666 0 0 0 -2.88 -7.1466666666666665 10.666666666666666 10.666666666666666 0 0 0 -7.786666666666666 -3.52 10.666666666666666 10.666666666666666 0 0 0 -10.666666666666666 10.666666666666666V245.33333333333331a10.666666666666666 10.666666666666666 0 0 0 10.666666666666666 10.666666666666666 10.666666666666666 10.666666666666666 0 0 0 8.64 -4.693333333333333A10.666666666666666 10.666666666666666 0 0 0 21.333333333333332 245.33333333333331Z" fill="#ffffff" stroke-width="10.6667"></path>
  </g>
</svg>