<svg xmlns="http://www.w3.org/2000/svg" viewBox="0 0 256 256" id="Time-Clock-Fire--Streamline-Ultimate" height="256" width="256">
  <desc>
    Time Clock Fire Streamline Icon: https://streamlinehq.com
  </desc>
  <g id="Time-Clock-Fire--Streamline-Ultimate.svg">
    <path d="M240.32 107.73333333333332a85.33333333333333 85.33333333333333 0 0 0 -25.92 -60.16 10.666666666666666 10.666666666666666 0 0 0 -10.666666666666666 -2.0266666666666664 10.666666666666666 10.666666666666666 0 0 0 -6.72 8.959999999999999A14.4 14.4 0 0 1 181.33333333333331 67.30666666666666a46.82666666666666 46.82666666666666 0 0 1 -9.28 -51.413333333333334 10.666666666666666 10.666666666666666 0 0 0 -9.6 -15.893333333333333c-45.97333333333333 0 -80.53333333333333 25.706666666666667 -90.66666666666666 66.24a16.32 16.32 0 0 1 -10.666666666666666 -12.266666666666666 10.666666666666666 10.666666666666666 0 0 0 -17.386666666666663 -6.613333333333333A79.03999999999999 79.03999999999999 0 0 0 16.32 117.33333333333333a67.73333333333332 67.73333333333332 0 0 0 33.599999999999994 50.13333333333333 2.6666666666666665 2.6666666666666665 0 0 0 2.3466666666666667 0 2.5599999999999996 2.5599999999999996 0 0 0 1.5999999999999999 -1.7066666666666666 82.24 82.24 0 0 1 5.76 -14.506666666666668 2.6666666666666665 2.6666666666666665 0 0 0 -0.8533333333333333 -3.52 46.18666666666667 46.18666666666667 0 0 1 -21.333333333333332 -33.28A57.919999999999995 57.919999999999995 0 0 1 47.57333333333333 74.66666666666666a39.25333333333333 39.25333333333333 0 0 0 33.81333333333333 13.866666666666667 10.666666666666666 10.666666666666666 0 0 0 9.493333333333332 -9.173333333333332 64 64 0 0 1 56.42666666666666 -56.85333333333333 67.73333333333332 67.73333333333332 0 0 0 24.106666666666662 64 10.666666666666666 10.666666666666666 0 0 0 5.333333333333333 1.8133333333333335 37.97333333333333 37.97333333333333 0 0 0 33.06666666666666 -12.906666666666666 62.61333333333333 62.61333333333333 0 0 1 9.173333333333332 32 41.81333333333333 41.81333333333333 0 0 1 -15.573333333333332 33.81333333333333 2.6666666666666665 2.6666666666666665 0 0 0 -0.5333333333333333 3.52 82.66666666666666 82.66666666666666 0 0 1 7.04 14.08 2.7733333333333334 2.7733333333333334 0 0 0 1.8133333333333335 1.5999999999999999 2.7733333333333334 2.7733333333333334 0 0 0 2.2399999999999998 0 63.04 63.04 0 0 0 26.346666666666668 -52.693333333333335Z" fill="#ffffff" stroke-width="10.6667"></path>
    <path d="M199.78666666666666 189.33333333333331A66.66666666666666 66.66666666666666 0 1 0 133.12 256a66.77333333333333 66.77333333333333 0 0 0 66.66666666666666 -66.66666666666666Zm-26.133333333333333 0a8 8 0 0 1 -8 8h-32a8.106666666666666 8.106666666666666 0 0 1 -8 -8v-37.33333333333333a8 8 0 0 1 16 0v26.666666666666664a2.6666666666666665 2.6666666666666665 0 0 0 2.6666666666666665 2.6666666666666665h21.333333333333332a8 8 0 0 1 8 8Z" fill="#ffffff" stroke-width="10.6667"></path>
  </g>
</svg>