<svg xmlns="http://www.w3.org/2000/svg" id="Time-Daily-1--Streamline-Ultimate" width="256" height="256" viewBox="0 0 256 256"><desc>Time Daily 1 Streamline Icon: https://streamlinehq.com</desc><g id="Time-Daily-1--Streamline-Ultimate.svg"><path fill="#fff" stroke-width="10.667" d="M229.33333333333331 32h-29.333333333333332a2.6666666666666665 2.6666666666666665 0 0 1 -2.6666666666666665 -2.6666666666666665V10.666666666666666a10.666666666666666 10.666666666666666 0 0 0 -21.333333333333332 0v50.666666666666664a8 8 0 0 1 -16 0V37.33333333333333a5.333333333333333 5.333333333333333 0 0 0 -5.333333333333333 -5.333333333333333H88A2.6666666666666665 2.6666666666666665 0 0 1 85.33333333333333 29.333333333333332V10.666666666666666a10.666666666666666 10.666666666666666 0 0 0 -21.333333333333332 0v50.666666666666664a8 8 0 0 1 -16 0V37.33333333333333A5.333333333333333 5.333333333333333 0 0 0 42.666666666666664 32H26.666666666666664a21.333333333333332 21.333333333333332 0 0 0 -21.333333333333332 21.333333333333332v181.33333333333331a21.333333333333332 21.333333333333332 0 0 0 21.333333333333332 21.333333333333332h202.66666666666666a21.333333333333332 21.333333333333332 0 0 0 21.333333333333332 -21.333333333333332V53.33333333333333a21.333333333333332 21.333333333333332 0 0 0 -21.333333333333332 -21.333333333333332Zm0 197.33333333333331a5.333333333333333 5.333333333333333 0 0 1 -5.333333333333333 5.333333333333333H32a5.333333333333333 5.333333333333333 0 0 1 -5.333333333333333 -5.333333333333333v-128A5.333333333333333 5.333333333333333 0 0 1 32 96h192a5.333333333333333 5.333333333333333 0 0 1 5.333333333333333 5.333333333333333Z"/><path fill="#fff" stroke-width="10.667" d="M129.6 118.93333333333334a16.106666666666666 16.106666666666666 0 0 0 -16.96 1.92l-18.026666666666664 14.4a10.666666666666666 10.666666666666666 0 0 0 13.333333333333332 16.64l9.386666666666667 -7.466666666666666V202.66666666666666a10.666666666666666 10.666666666666666 0 0 0 21.333333333333332 0v-69.33333333333333a16 16 0 0 0 -9.066666666666666 -14.4Z"/></g></svg>