<svg xmlns="http://www.w3.org/2000/svg" id="Timer-10--Streamline-Ultimate" width="256" height="256" viewBox="0 0 256 256"><desc>Timer 10 Streamline Icon: https://streamlinehq.com</desc><g id="Timer-10--Streamline-Ultimate.svg"><path fill="#fff" stroke-width="10.667" d="M139.51999999999998 13.333333333333332A114.88 114.88 0 0 0 27.733333333333334 153.70666666666665a2.6666666666666665 2.6666666666666665 0 0 1 0 2.0266666666666664 2.2399999999999998 2.2399999999999998 0 0 1 -1.7066666666666666 1.1733333333333333l-19.52 3.9466666666666663a5.333333333333333 5.333333333333333 0 0 0 -2.3466666666666667 9.813333333333333l39.57333333333333 26.133333333333333a5.226666666666667 5.226666666666667 0 0 0 7.359999999999999 -1.4933333333333334l26.346666666666668 -39.57333333333333a5.226666666666667 5.226666666666667 0 0 0 -5.4399999999999995 -8.106666666666666l-20.266666666666666 4.053333333333333a2.7733333333333334 2.7733333333333334 0 0 1 -3.093333333333333 -2.3466666666666667 93.33333333333333 93.33333333333333 0 1 1 90.88 71.67999999999999 10.666666666666666 10.666666666666666 0 1 0 0 21.333333333333332 114.66666666666666 114.66666666666666 0 0 0 0 -229.33333333333331Z"/><path fill="#fff" stroke-width="10.667" d="M111.78666666666666 75.94666666666666a15.893333333333333 15.893333333333333 0 0 0 -16.85333333333333 1.92L76.90666666666667 92.26666666666667a10.666666666666666 10.666666666666666 0 0 0 -1.7066666666666666 14.933333333333332 10.666666666666666 10.666666666666666 0 0 0 15.04 1.7066666666666666l5.013333333333333 -4.053333333333333a2.6666666666666665 2.6666666666666665 0 0 1 4.266666666666667 2.1333333333333333V170.66666666666666a10.666666666666666 10.666666666666666 0 1 0 21.333333333333332 0V90.34666666666666a15.786666666666665 15.786666666666665 0 0 0 -9.066666666666666 -14.4Z"/><path fill="#fff" stroke-width="10.667" d="M168.85333333333332 181.33333333333331a37.33333333333333 37.33333333333333 0 0 0 37.33333333333333 -37.33333333333333v-32a37.33333333333333 37.33333333333333 0 1 0 -74.66666666666666 0v32a37.33333333333333 37.33333333333333 0 0 0 37.33333333333333 37.33333333333333Zm-16 -69.33333333333333a16 16 0 1 1 32 0v32a16 16 0 0 1 -32 0Z"/></g></svg>