<svg xmlns="http://www.w3.org/2000/svg" id="Tool-Box--Streamline-Ultimate" width="256" height="256" viewBox="0 0 256 256"><desc>Tool Box Streamline Icon: https://streamlinehq.com</desc><g id="Tool-Box--Streamline-Ultimate.svg"><path fill="#fff" stroke-width="10.667" d="M99.42186666666666 122.54613333333333c-0.0010666666666666667 -4.4757333333333325 3.5957333333333334 -8.121599999999999 8.071466666666666 -8.181333333333333h41.013333333333335c4.4757333333333325 0.05973333333333333 8.072533333333332 3.7055999999999996 8.071466666666666 8.181333333333333v2.7264c0 3.012266666666666 2.4415999999999998 5.454933333333333 5.453866666666666 5.453866666666666h85.95413333333332c3.012266666666666 0 5.453866666666666 -2.4415999999999998 5.453866666666666 -5.453866666666666V84.36906666666667c0 -6.024533333333332 -4.8831999999999995 -10.907733333333333 -10.907733333333333 -10.907733333333333H182.53866666666664c0 -41.98506666666667 -45.44853333333333 -68.22506666666666 -81.80799999999999 -47.23306666666666 -16.874666666666666 9.742933333333333 -27.269333333333336 27.7472 -27.269333333333336 47.23306666666666H13.467733333333332C7.443199999999999 73.46133333333333 2.5599999999999996 78.34453333333333 2.5599999999999996 84.36906666666667v40.90346666666667c0 3.012266666666666 2.4415999999999998 5.453866666666666 5.453866666666666 5.453866666666666h85.95413333333332c3.0111999999999997 0 5.453866666666666 -2.4415999999999998 5.453866666666666 -5.453866666666666ZM128 46.190933333333334c16.1408 -0.22506666666666666 30.034133333333333 11.3536 32.7232 27.2704H95.2768C97.96586666666667 57.544533333333334 111.8592 45.96586666666667 128 46.190933333333334Z"/><path fill="#fff" stroke-width="10.667" d="M156.5781333333333 156.688c0.014933333333333333 18.071466666666666 -16.537599999999998 31.6192 -34.25066666666666 28.033066666666663 -13.634133333333333 -3.0517333333333334 -23.249066666666668 -15.262933333333333 -23.01546666666667 -29.233066666666666v-2.9450666666666665c0 -3.012266666666666 -2.4415999999999998 -5.453866666666666 -5.453866666666666 -5.453866666666666H8.013866666666665c-3.012266666666666 0 -5.453866666666666 2.4415999999999998 -5.453866666666666 5.453866666666666v73.62773333333332c0 6.024533333333332 4.8831999999999995 10.907733333333333 10.907733333333333 10.907733333333333h229.06453333333332c6.024533333333332 0 10.907733333333333 -4.8831999999999995 10.907733333333333 -10.907733333333333v-73.62773333333332c0 -3.012266666666666 -2.4415999999999998 -5.453866666666666 -5.453866666666666 -5.453866666666666h-85.40799999999999c-3.198933333333333 -0.25279999999999997 -5.946666666666666 2.245333333333333 -6 5.453866666666666Z"/><path fill="#fff" stroke-width="10.667" d="M134.76266666666666 130.72639999999998h-13.525333333333332c-3.012266666666666 0 -5.453866666666666 2.4426666666666668 -5.453866666666666 5.453866666666666v20.506666666666668c0 9.4048 10.180266666666666 15.2832 18.325333333333333 10.580266666666667 3.7792 -2.1824 6.107733333333333 -6.215466666666666 6.107733333333333 -10.580266666666667v-20.506666666666668c0 -3.0111999999999997 -2.4415999999999998 -5.453866666666666 -5.453866666666666 -5.453866666666666Z"/></g></svg>