<svg xmlns="http://www.w3.org/2000/svg" id="Tools-Kitchen-Scale--Streamline-Ultimate" width="256" height="256" viewBox="0 0 256 256"><desc>Tools Kitchen Scale Streamline Icon: https://streamlinehq.com</desc><g id="Tools-Kitchen-Scale--Streamline-Ultimate.svg"><path fill="#fff" stroke-width="10.667" d="M128 197.33333333333331a10.666666666666666 10.666666666666666 0 0 1 -10.666666666666666 -10.666666666666666v-21.333333333333332a10.666666666666666 10.666666666666666 0 0 1 21.333333333333332 0v21.333333333333332a10.666666666666666 10.666666666666666 0 0 1 -10.666666666666666 10.666666666666666Z"/><path fill="#fff" stroke-width="10.667" d="M218.66666666666666 256a21.333333333333332 21.333333333333332 0 0 0 17.173333333333332 -8.64 21.333333333333332 21.333333333333332 0 0 0 3.1999999999999997 -18.986666666666665l-32 -103.46666666666665a10.666666666666666 10.666666666666666 0 0 0 -10.666666666666666 -7.573333333333332h-7.68a5.333333333333333 5.333333333333333 0 0 1 -5.333333333333333 -5.333333333333333V73.70666666666666a10.666666666666666 10.666666666666666 0 0 1 5.333333333333333 -9.28A117.33333333333333 117.33333333333333 0 0 0 239.57333333333332 7.359999999999999a5.226666666666667 5.226666666666667 0 0 0 0 -5.013333333333333A5.4399999999999995 5.4399999999999995 0 0 0 234.66666666666666 0H26.666666666666664a5.4399999999999995 5.4399999999999995 0 0 0 -4.4799999999999995 2.3466666666666667 5.226666666666667 5.226666666666667 0 0 0 -0.8533333333333333 5.013333333333333 117.33333333333333 117.33333333333333 0 0 0 45.76 54.08 10.666666666666666 10.666666666666666 0 0 1 4.906666666666666 8.959999999999999v41.599999999999994a5.333333333333333 5.333333333333333 0 0 1 -5.333333333333333 5.333333333333333h-7.68a10.666666666666666 10.666666666666666 0 0 0 -10.666666666666666 7.573333333333332l-32 103.46666666666665a21.333333333333332 21.333333333333332 0 0 0 3.1999999999999997 18.986666666666665A21.333333333333332 21.333333333333332 0 0 0 37.33333333333333 256ZM98.66666666666666 82.45333333333333a5.226666666666667 5.226666666666667 0 0 1 2.0266666666666664 -4.16 5.119999999999999 5.119999999999999 0 0 1 4.4799999999999995 -1.0666666666666667 118.18666666666667 118.18666666666667 0 0 0 25.493333333333332 2.7733333333333334 128 128 0 0 0 20.37333333333333 -1.7066666666666666 5.013333333333333 5.013333333333333 0 0 1 4.373333333333333 1.1733333333333333 5.226666666666667 5.226666666666667 0 0 1 1.92 4.053333333333333v28.479999999999997a5.333333333333333 5.333333333333333 0 0 1 -5.333333333333333 5.333333333333333h-48a5.333333333333333 5.333333333333333 0 0 1 -5.333333333333333 -5.333333333333333ZM128 234.66666666666666a48 48 0 1 1 48 -48A47.89333333333333 47.89333333333333 0 0 1 128 234.66666666666666Z"/></g></svg>