<svg xmlns="http://www.w3.org/2000/svg" viewBox="0 0 256 256" id="Touch-Id--Streamline-Ultimate" height="256" width="256">
  <desc>
    Touch Id Streamline Icon: https://streamlinehq.com
  </desc>
  <g id="Touch-Id--Streamline-Ultimate.svg">
    <path d="M32 134.72a9.386666666666667 9.386666666666667 0 0 0 -9.386666666666667 9.28V245.33333333333331a9.386666666666667 9.386666666666667 0 0 0 18.773333333333333 0v-101.33333333333333a9.386666666666667 9.386666666666667 0 0 0 -9.386666666666667 -9.28Z" fill="#ffffff" stroke-width="10.6667"></path>
    <path d="M128 20.05333333333333a85.33333333333333 85.33333333333333 0 0 1 47.89333333333333 14.4 9.386666666666667 9.386666666666667 0 1 0 10.666666666666666 -15.573333333333332A105.49333333333334 105.49333333333334 0 0 0 22.613333333333333 106.66666666666666a9.386666666666667 9.386666666666667 0 1 0 18.773333333333333 0A86.72 86.72 0 0 1 128 20.05333333333333Z" fill="#ffffff" stroke-width="10.6667"></path>
    <path d="M215.57333333333332 48.10666666666666A9.28 9.28 0 0 0 202.66666666666666 45.54666666666666a9.386666666666667 9.386666666666667 0 0 0 -2.5599999999999996 13.013333333333332A86.18666666666667 86.18666666666667 0 0 1 214.61333333333334 106.66666666666666v138.66666666666666a9.386666666666667 9.386666666666667 0 0 0 18.773333333333333 0V106.66666666666666a105.06666666666666 105.06666666666666 0 0 0 -17.813333333333333 -58.56Z" fill="#ffffff" stroke-width="10.6667"></path>
    <path d="M128 33.38666666666666A73.38666666666666 73.38666666666666 0 0 0 54.61333333333333 106.66666666666666v138.66666666666666a9.386666666666667 9.386666666666667 0 0 0 18.773333333333333 0V106.66666666666666a54.61333333333333 54.61333333333333 0 0 1 109.22666666666666 0v69.33333333333333a9.386666666666667 9.386666666666667 0 0 0 18.773333333333333 0V106.66666666666666A73.38666666666666 73.38666666666666 0 0 0 128 33.38666666666666Z" fill="#ffffff" stroke-width="10.6667"></path>
    <path d="M192 204.0533333333333a9.386666666666667 9.386666666666667 0 0 0 -9.386666666666667 9.28v32a9.386666666666667 9.386666666666667 0 0 0 18.773333333333333 0v-32a9.386666666666667 9.386666666666667 0 0 0 -9.386666666666667 -9.28Z" fill="#ffffff" stroke-width="10.6667"></path>
    <path d="M96 188.0533333333333a9.386666666666667 9.386666666666667 0 0 0 -9.386666666666667 9.28V245.33333333333331a9.386666666666667 9.386666666666667 0 0 0 18.773333333333333 0v-48a9.386666666666667 9.386666666666667 0 0 0 -9.386666666666667 -9.28Z" fill="#ffffff" stroke-width="10.6667"></path>
    <path d="M128 65.38666666666666A41.38666666666666 41.38666666666666 0 0 0 86.61333333333332 106.66666666666666v53.33333333333333a9.386666666666667 9.386666666666667 0 0 0 18.773333333333333 0v-53.33333333333333a22.613333333333333 22.613333333333333 0 1 1 45.22666666666667 0v138.66666666666666a9.386666666666667 9.386666666666667 0 1 0 18.773333333333333 0V106.66666666666666A41.38666666666666 41.38666666666666 0 0 0 128 65.38666666666666Z" fill="#ffffff" stroke-width="10.6667"></path>
    <path d="M128 108.05333333333334a9.386666666666667 9.386666666666667 0 0 0 -9.386666666666667 9.28v74.66666666666666a9.386666666666667 9.386666666666667 0 0 0 18.773333333333333 0v-74.66666666666666a9.386666666666667 9.386666666666667 0 0 0 -9.386666666666667 -9.28Z" fill="#ffffff" stroke-width="10.6667"></path>
    <path d="M128 220.0533333333333a9.386666666666667 9.386666666666667 0 0 0 -9.386666666666667 9.28V245.33333333333331a9.386666666666667 9.386666666666667 0 1 0 18.773333333333333 0v-16a9.386666666666667 9.386666666666667 0 0 0 -9.386666666666667 -9.28Z" fill="#ffffff" stroke-width="10.6667"></path>
  </g>
</svg>