<svg xmlns="http://www.w3.org/2000/svg" viewBox="0 0 256 256" id="Touch-Up-1--Streamline-Ultimate" height="256" width="256">
  <desc>
    Touch Up 1 Streamline Icon: https://streamlinehq.com
  </desc>
  <g id="Touch-Up-1--Streamline-Ultimate.svg">
    <path d="M130.88 253.33333333333331A97.17333333333332 97.17333333333332 0 0 0 224 158.61333333333332a96 96 0 0 0 -54.72 -87.89333333333333 10.666666666666666 10.666666666666666 0 0 0 -14.613333333333333 9.6 10.666666666666666 10.666666666666666 0 0 0 6.293333333333333 10.666666666666666A74.66666666666666 74.66666666666666 0 0 1 202.66666666666666 157.97333333333333a75.73333333333332 75.73333333333332 0 0 1 -73.49333333333333 74.02666666666667A74.66666666666666 74.66666666666666 0 0 1 96 90.24000000000001a10.666666666666666 10.666666666666666 0 0 0 5.866666666666667 -9.92 10.666666666666666 10.666666666666666 0 0 0 -15.36 -9.28 96 96 0 0 0 44.906666666666666 182.29333333333332Z" fill="#ffffff" stroke-width="10.6667"></path>
    <path d="M114.66666666666666 109.33333333333333a13.333333333333332 13.333333333333332 0 0 0 26.666666666666664 0V48a2.6666666666666665 2.6666666666666665 0 0 1 2.6666666666666665 -2.6666666666666665H160a5.333333333333333 5.333333333333333 0 0 0 4.906666666666666 -3.3066666666666666 5.013333333333333 5.013333333333333 0 0 0 -1.1733333333333333 -5.76l-9.066666666666666 -9.173333333333332L131.73333333333332 4.266666666666667a5.119999999999999 5.119999999999999 0 0 0 -7.466666666666666 0L101.33333333333333 27.093333333333334l-9.066666666666666 9.173333333333332a5.013333333333333 5.013333333333333 0 0 0 -1.1733333333333333 5.76 5.333333333333333 5.333333333333333 0 0 0 4.906666666666666 3.3066666666666666h16a2.6666666666666665 2.6666666666666665 0 0 1 2.6666666666666665 2.6666666666666665Z" fill="#ffffff" stroke-width="10.6667"></path>
  </g>
</svg>