<svg xmlns="http://www.w3.org/2000/svg" fill="none" viewBox="0 0 256 256" id="Tracking--Streamline-Ultimate" height="256" width="256">
  <desc>
    Tracking Streamline Icon: https://streamlinehq.com
  </desc>
  <path fill="#ffffff" fill-rule="evenodd" d="M181.11146666666664 26.104213333333334c-1.6671999999999998 0 -3.1210666666666667 1.1348266666666667 -3.525333333333333 2.752533333333333l-16.30933333333333 65.23903999999999h39.6704l-16.310399999999998 -65.23903999999999c-0.40426666666666666 -1.6177066666666664 -1.8581333333333332 -2.752533333333333 -3.525333333333333 -2.752533333333333Zm0 -21.333376c11.457066666666666 0 21.443199999999997 7.797269333333333 24.221866666666664 18.91182933333333l19.564799999999998 78.26037333333332c0.04053333333333333 0.14837333333333333 0.07893333333333333 0.2981333333333333 0.11306666666666666 0.4490666666666666l11.111466666666667 44.44522666666666c1.4282666666666666 5.7152 -2.046933333333333 11.5072 -7.761066666666666 12.935466666666665 -5.7152 1.4293333333333333 -11.5072 -2.0458666666666665 -12.935466666666665 -7.761066666666666l-9.1456 -36.5824h-50.337066666666665l-9.146666666666667 36.5824c-1.4282666666666666 5.7152 -7.219199999999999 9.1904 -12.934399999999998 7.761066666666666 -5.7152 -1.4282666666666666 -9.1904 -7.2202666666666655 -7.761066666666666 -12.935466666666665l11.111466666666667 -44.44554666666666c0.034133333333333335 -0.15072 0.07146666666666666 -0.3002666666666667 0.112 -0.44842666666666664l19.564799999999998 -78.26069333333334c2.7786666666666666 -11.114559999999999 12.764800000000001 -18.91182933333333 24.221866666666664 -18.91182933333333ZM77.93248 138.7712c1.66752 0 3.1210666666666667 -1.1349333333333331 3.525546666666666 -2.7530666666666663L112.2464 12.86304c1.4293333333333333 -5.715104 7.2202666666666655 -9.189888 12.935466666666665 -7.761087999999999 5.7152 1.4287786666666666 9.1904 7.220074666666666 7.761066666666666 12.935274666666666L102.15434666666665 141.19253333333333c-2.7786666666666666 11.114666666666666 -12.76512 18.912 -24.221866666666664 18.912 -11.45664 0 -21.443199999999997 -7.797333333333333 -24.221866666666664 -18.912L22.921813333333333 18.037226666666665c-1.4288 -5.7152 2.04608 -11.506485333333332 7.761173333333333 -12.935274666666666 5.7152 -1.4287893333333335 11.506453333333333 2.0459946666666666 12.935253333333332 7.7611946666666665L74.40704 136.0181333333333c0.4043733333333333 1.6181333333333332 1.85792 2.7530666666666663 3.52544 2.7530666666666663Zm-20.233386666666664 49.32053333333333v15.554133333333333H198.28266666666664v-15.541333333333334c0 -4.314666666666667 2.5984 -8.203733333333332 6.584533333333333 -9.854933333333333 3.986133333333333 -1.6511999999999998 8.573866666666666 -0.7381333333333333 11.624533333333334 2.312533333333333l25.8208 25.8208c1.6725333333333332 1.506133333333333 2.866133333333333 3.5328 3.3247999999999998 5.826133333333333 0.688 3.3877333333333333 -0.2826666666666666 7.045333333333333 -2.9098666666666664 9.6736l-26.235733333333332 26.234666666666662c-3.0506666666666664 3.0506666666666664 -7.638399999999999 3.963733333333333 -11.624533333333334 2.312533333333333 -3.986133333333333 -1.6511999999999998 -6.584533333333333 -5.540266666666666 -6.584533333333333 -9.854933333333333v-15.595733333333332H57.69909333333334v15.582933333333333c0 4.314666666666667 -2.5988266666666666 8.203733333333332 -6.58464 9.854933333333333 -3.98592 1.6511999999999998 -8.573866666666666 0.7381333333333333 -11.624426666666666 -2.312533333333333L13.254399999999999 221.86986666666667c-4.165589333333333 -4.166399999999999 -4.165589333333333 -10.919466666666667 0 -15.085866666666664l26.235626666666665 -26.234666666666662c3.05056 -3.0506666666666664 7.638506666666666 -3.963733333333333 11.624426666666666 -2.312533333333333 3.985813333333333 1.6511999999999998 6.58464 5.540266666666666 6.58464 9.854933333333333Z" clip-rule="evenodd" stroke-width="10.6667"></path>
</svg>