<svg xmlns="http://www.w3.org/2000/svg" id="Trading-Pattern-Up--Streamline-Ultimate" width="256" height="256" fill="none" viewBox="0 0 256 256"><desc>Trading Pattern Up Streamline Icon: https://streamlinehq.com</desc><path fill="#fff" fill-rule="evenodd" stroke-width="10.667" d="M34.66677333333333 10.666666666666666c0 -4.418282666666666 -3.5817599999999996 -8 -8 -8 -4.418346666666666 0 -8 3.5817173333333328 -8 8v38.93322666666666c-4.412053333333333 0 -8.503104 1.4939733333333332 -11.504597333333333 4.495466666666666 -3.0014826666666665 3.001493333333333 -4.495424 7.092586666666667 -4.495424 11.504533333333331v32c0 4.412053333333333 1.4939413333333331 8.503146666666666 4.495424 11.504106666666667 3.001493333333333 3.0016 7.092544 4.4959999999999996 11.504597333333333 4.4959999999999996v26.666666666666664c0 4.4181333333333335 3.5816533333333336 8 8 8 4.41824 0 8 -3.5818666666666665 8 -8v-26.666666666666664c4.411946666666666 0 8.503039999999999 -1.4944 11.504533333333331 -4.4959999999999996 3.001493333333333 -3.0009599999999996 4.495466666666666 -7.092053333333333 4.495466666666666 -11.504106666666667v-32c0 -4.411946666666666 -1.4939733333333332 -8.503039999999999 -4.495466666666666 -11.504533333333331 -3.001493333333333 -3.001493333333333 -7.092586666666667 -4.495466666666666 -11.504533333333331 -4.495466666666666V10.666666666666666Zm42.666666666666664 200c-4.412053333333333 0 -8.503146666666666 -1.4944 -11.504639999999998 -4.4959999999999996 -3.001493333333333 -3.0005333333333333 -4.49536 -7.092266666666667 -4.49536 -11.504v-48c0 -4.411733333333333 1.4938666666666667 -8.503466666666666 4.49536 -11.505066666666666s7.092586666666667 -4.494933333333333 11.504639999999998 -4.494933333333333V103.99989333333333c0 -4.41824 3.5816533333333336 -8 8 -8 4.41824 0 8 3.5817599999999996 8 8V130.66666666666666c4.411946666666666 0 8.503039999999999 1.4933333333333334 11.504533333333331 4.494933333333333 3.0020266666666666 3.0016 4.49536 7.093333333333334 4.49536 11.505066666666666v48c0 4.411733333333333 -1.4933333333333334 8.503466666666666 -4.49536 11.504 -3.001493333333333 3.0016 -7.092586666666667 4.4959999999999996 -11.504533333333331 4.4959999999999996V245.33333333333331c0 4.4181333333333335 -3.5817599999999996 8 -8 8 -4.418346666666666 0 -8 -3.5818666666666665 -8 -8v-34.666666666666664Zm61.029226666666666 -85.10506666666666c3.0005333333333333 -3.0005333333333333 7.092266666666667 -4.494933333333333 11.504 -4.494933333333333h16c4.411733333333333 0 8.503466666666666 1.4944 11.505066666666666 4.494933333333333 3.0016 3.0016 4.494933333333333 7.093333333333334 4.494933333333333 11.505066666666666v42.666666666666664c0 4.411733333333333 -1.4933333333333334 8.503466666666666 -4.494933333333333 11.505066666666666 -3.0016 3.0005333333333333 -7.093333333333334 4.494933333333333 -11.505066666666666 4.494933333333333v37.33333333333333c0 4.4181333333333335 -3.5818666666666665 8 -8 8s-8 -3.5818666666666665 -8 -8v-37.33333333333333c-4.411733333333333 0 -8.503466666666666 -1.4944 -11.504 -4.494933333333333 -3.0016 -3.0016 -4.4959999999999996 -7.093333333333334 -4.4959999999999996 -11.505066666666666v-42.666666666666664c0 -4.411733333333333 1.4944 -8.503466666666666 4.4959999999999996 -11.505066666666666Zm83.78346666666667 -96.01653333333333c-1.5199999999999998 -1.8238933333333334 -3.7717333333333336 -2.8785066666666665 -6.146133333333333 -2.8785066666666665 -2.3743999999999996 0 -4.626133333333333 1.0546133333333332 -6.146133333333333 2.8785066666666665l-32 38.400106666666666c-1.9871999999999999 2.38464 -2.414933333333333 5.703679999999999 -1.0986666666666665 8.514773333333332 1.3162666666666665 2.8109866666666665 4.1408 4.606719999999999 7.2448 4.606719999999999h21.333333333333332v120c0 5.8911999999999995 4.7754666666666665 10.666666666666666 10.666666666666666 10.666666666666666s10.666666666666666 -4.7754666666666665 10.666666666666666 -10.666666666666666V81.06666666666666h21.333333333333332c3.1039999999999996 0 5.927466666666666 -1.7957333333333332 7.2448 -4.606719999999999 1.3162666666666665 -2.811093333333333 0.8885333333333333 -6.130133333333333 -1.0986666666666665 -8.514773333333332l-32 -38.400106666666666Z" clip-rule="evenodd"/></svg>