<svg xmlns="http://www.w3.org/2000/svg" viewBox="0 0 256 256" id="Treasure-Chest--Streamline-Ultimate" height="256" width="256">
  <desc>
    Treasure Chest Streamline Icon: https://streamlinehq.com
  </desc>
  <g id="Treasure-Chest--Streamline-Ultimate.svg">
    <path d="M65.17333333333333 32H48A48.10666666666666 48.10666666666666 0 0 0 0 80V96a5.333333333333333 5.333333333333333 0 0 0 5.333333333333333 5.333333333333333h50.666666666666664a5.333333333333333 5.333333333333333 0 0 0 5.333333333333333 -5.333333333333333V64a70.29333333333332 70.29333333333332 0 0 1 6.186666666666666 -28.16 2.6666666666666665 2.6666666666666665 0 0 0 0 -2.5599999999999996 2.6666666666666665 2.6666666666666665 0 0 0 -2.3466666666666667 -1.2799999999999998Z" fill="#ffffff" stroke-width="10.6667"></path>
    <path d="M166.50666666666666 33.06666666666666a5.013333333333333 5.013333333333333 0 0 0 -3.1999999999999997 -1.0666666666666667H92.79999999999998a5.119999999999999 5.119999999999999 0 0 0 -3.093333333333333 0.96C77.65333333333334 41.599999999999994 77.33333333333333 62.82666666666666 77.33333333333333 64v32a5.333333333333333 5.333333333333333 0 0 0 5.333333333333333 5.333333333333333h90.66666666666666a5.333333333333333 5.333333333333333 0 0 0 5.333333333333333 -5.333333333333333V64c0 -1.1733333333333333 -0.31999999999999995 -22.29333333333333 -12.159999999999998 -30.93333333333333Z" fill="#ffffff" stroke-width="10.6667"></path>
    <path d="M208 32h-17.173333333333332a2.6666666666666665 2.6666666666666665 0 0 0 -2.2399999999999998 1.2799999999999998 2.6666666666666665 2.6666666666666665 0 0 0 0 2.5599999999999996A70.29333333333332 70.29333333333332 0 0 1 194.66666666666666 64v32a5.333333333333333 5.333333333333333 0 0 0 5.333333333333333 5.333333333333333h50.666666666666664A5.333333333333333 5.333333333333333 0 0 0 256 96V80A48.10666666666666 48.10666666666666 0 0 0 208 32Z" fill="#ffffff" stroke-width="10.6667"></path>
    <path d="M56 117.33333333333333H5.333333333333333a5.333333333333333 5.333333333333333 0 0 0 -5.333333333333333 5.333333333333333v74.66666666666666A26.666666666666664 26.666666666666664 0 0 0 26.666666666666664 224h29.333333333333332a5.333333333333333 5.333333333333333 0 0 0 5.333333333333333 -5.333333333333333v-96a5.333333333333333 5.333333333333333 0 0 0 -5.333333333333333 -5.333333333333333Z" fill="#ffffff" stroke-width="10.6667"></path>
    <path d="M173.33333333333331 117.33333333333333H160a5.333333333333333 5.333333333333333 0 0 0 -5.333333333333333 5.333333333333333v10.666666666666666a26.666666666666664 26.666666666666664 0 0 1 -53.33333333333333 0v-10.666666666666666A5.333333333333333 5.333333333333333 0 0 0 96 117.33333333333333H82.66666666666666a5.333333333333333 5.333333333333333 0 0 0 -5.333333333333333 5.333333333333333v96a5.333333333333333 5.333333333333333 0 0 0 5.333333333333333 5.333333333333333h90.66666666666666a5.333333333333333 5.333333333333333 0 0 0 5.333333333333333 -5.333333333333333v-96a5.333333333333333 5.333333333333333 0 0 0 -5.333333333333333 -5.333333333333333Z" fill="#ffffff" stroke-width="10.6667"></path>
    <path d="M250.66666666666666 117.33333333333333h-50.666666666666664a5.333333333333333 5.333333333333333 0 0 0 -5.333333333333333 5.333333333333333v96a5.333333333333333 5.333333333333333 0 0 0 5.333333333333333 5.333333333333333h29.333333333333332a26.666666666666664 26.666666666666664 0 0 0 26.666666666666664 -26.666666666666664v-74.66666666666666a5.333333333333333 5.333333333333333 0 0 0 -5.333333333333333 -5.333333333333333Z" fill="#ffffff" stroke-width="10.6667"></path>
    <path d="M117.33333333333333 133.33333333333331a10.666666666666666 10.666666666666666 0 1 0 21.333333333333332 0 10.666666666666666 10.666666666666666 0 1 0 -21.333333333333332 0" fill="#ffffff" stroke-width="10.6667"></path>
  </g>
</svg>