<svg xmlns="http://www.w3.org/2000/svg" viewBox="0 0 256 256" id="Trends-Torch--Streamline-Ultimate" height="256" width="256">
  <desc>
    Trends Torch Streamline Icon: https://streamlinehq.com
  </desc>
  <g id="Trends-Torch--Streamline-Ultimate.svg">
    <path d="M93.33333333333333 109.44h72a5.333333333333333 5.333333333333333 0 0 0 4.4799999999999995 -2.453333333333333 49.38666666666666 49.38666666666666 0 0 0 6.186666666666666 -26.88 44.16 44.16 0 0 0 -30.08 -42.666666666666664 5.226666666666667 5.226666666666667 0 0 0 -4.693333333333333 0A5.546666666666667 5.546666666666667 0 0 0 138.66666666666666 42.666666666666664a14.506666666666668 14.506666666666668 0 0 1 -3.52 7.68A36.906666666666666 36.906666666666666 0 0 1 147.2 9.813333333333333 5.4399999999999995 5.4399999999999995 0 0 0 149.33333333333331 3.1999999999999997a5.119999999999999 5.119999999999999 0 0 0 -6.506666666666666 -3.1999999999999997A83.09333333333333 83.09333333333333 0 0 0 80 80.10666666666665 51.30666666666666 51.30666666666666 0 0 0 88.85333333333332 106.66666666666666a5.119999999999999 5.119999999999999 0 0 0 4.4799999999999995 2.7733333333333334Z" fill="#ffffff" stroke-width="10.6667"></path>
    <path d="M213.33333333333331 128.74666666666667a5.226666666666667 5.226666666666667 0 0 0 -4.906666666666666 -3.3066666666666666H48a5.226666666666667 5.226666666666667 0 0 0 -4.906666666666666 3.3066666666666666 5.013333333333333 5.013333333333333 0 0 0 1.1733333333333333 5.76A127.35999999999999 127.35999999999999 0 0 0 96 163.0933333333333L114.98666666666665 245.33333333333331a13.333333333333332 13.333333333333332 0 0 0 26.026666666666664 0l19.52 -82.34666666666666a128 128 0 0 0 51.199999999999996 -28.586666666666666 5.013333333333333 5.013333333333333 0 0 0 1.5999999999999999 -5.653333333333333Z" fill="#ffffff" stroke-width="10.6667"></path>
  </g>
</svg>