<svg xmlns="http://www.w3.org/2000/svg" viewBox="0 0 256 256" id="Trip-Road--Streamline-Ultimate" height="256" width="256">
  <desc>
    Trip Road Streamline Icon: https://streamlinehq.com
  </desc>
  <g id="Trip-Road--Streamline-Ultimate.svg">
    <path d="M202.66666666666666 155.2a2.3466666666666667 2.3466666666666667 0 0 0 -1.5999999999999999 -1.3866666666666667c-11.2 -3.84 -57.17333333333333 -56.959999999999994 -57.17333333333333 -92.47999999999999l0 -5.4399999999999995c0 -1.8133333333333335 0.8533333333333333 -5.226666666666667 -2.5599999999999996 -5.226666666666667H128a2.6666666666666665 2.6666666666666665 0 0 0 -2.6666666666666665 2.6666666666666665v29.333333333333332a8 8 0 0 1 -16 0V53.33333333333333a2.6666666666666665 2.6666666666666665 0 0 0 -2.6666666666666665 -2.6666666666666665H76.58666666666666a5.333333333333333 5.333333333333333 0 0 0 -4.906666666666666 3.413333333333333L0 235.41333333333333a5.119999999999999 5.119999999999999 0 0 0 0.6399999999999999 4.906666666666666 5.119999999999999 5.119999999999999 0 0 0 4.373333333333333 2.3466666666666667H106.66666666666666a2.6666666666666665 2.6666666666666665 0 0 0 2.6666666666666665 -2.6666666666666665v-29.333333333333332a8 8 0 0 1 16 0v29.333333333333332a2.6666666666666665 2.6666666666666665 0 0 0 2.6666666666666665 2.6666666666666665h101.33333333333333a5.226666666666667 5.226666666666667 0 0 0 4.373333333333333 -2.3466666666666667 5.119999999999999 5.119999999999999 0 0 0 0.6399999999999999 -4.906666666666666Zm-77.44 12.799999999999999a8 8 0 0 1 -16 0v-42.666666666666664a8 8 0 0 1 16 0Z" fill="#ffffff" stroke-width="10.6667"></path>
    <path d="M211.83999999999997 137.27999999999997C223.36 125.01333333333334 256 87.78666666666666 256 61.33333333333333a48 48 0 0 0 -96 0c0 26.453333333333333 32.64 64 44.16 75.94666666666666a5.226666666666667 5.226666666666667 0 0 0 7.68 0ZM192 61.33333333333333a16 16 0 1 1 16 16 16 16 0 0 1 -16 -16Z" fill="#ffffff" stroke-width="10.6667"></path>
  </g>
</svg>