<svg xmlns="http://www.w3.org/2000/svg" id="Tripadvisor-Logo--Streamline-Ultimate" width="256" height="256" fill="none" viewBox="0 0 256 256"><desc>Tripadvisor Logo Streamline Icon: https://streamlinehq.com</desc><path fill="#fff" fill-rule="evenodd" stroke-width="10.667" d="M128 59.30666666666666c-14.666666666666666 0 -28.586666666666666 2.5599999999999996 -41.28 7.157333333333334A66.53866666666667 66.53866666666667 0 0 1 128 95.21066666666667a66.53866666666667 66.53866666666667 0 0 1 41.28 -28.746666666666663 120.96 120.96 0 0 0 -41.28 -7.1466666666666665Zm5.802666666666667 156.37333333333333 23.41333333333333 -23.402666666666665a66.45333333333333 66.45333333333333 0 0 0 85.696 -91.34933333333333l10.815999999999999 -21.834666666666667a8 8 0 0 0 -7.168 -11.552l-32.18133333333333 0C191.31733333333332 49.06666666666666 161.00266666666664 37.97333333333333 128 37.97333333333333c-33.00266666666666 0 -63.31733333333333 11.093333333333334 -86.37866666666667 29.567999999999998l-32.18133333333333 0a8 8 0 0 0 -7.168 11.552l10.815999999999999 21.834666666666667a66.45333333333333 66.45333333333333 0 0 0 85.90933333333334 91.25333333333333l23.498666666666665 23.498666666666665a8 8 0 0 0 11.306666666666667 0ZM72.21333333333332 86.208a45.120000000000005 45.120000000000005 0 1 1 0 90.26133333333333 45.120000000000005 45.120000000000005 0 0 1 0 -90.26133333333333Zm24.106666666666662 45.13066666666666a24.106666666666662 24.106666666666662 0 1 1 -48.213333333333324 0 24.106666666666662 24.106666666666662 0 0 1 48.213333333333324 0Zm87.488 -45.120000000000005a45.120000000000005 45.120000000000005 0 1 0 0 90.25066666666666 45.120000000000005 45.120000000000005 0 0 0 0 -90.26133333333333Zm24.106666666666662 45.120000000000005a24.106666666666662 24.106666666666662 0 1 1 -48.213333333333324 0 24.106666666666662 24.106666666666662 0 0 1 48.213333333333324 0Z" clip-rule="evenodd"/></svg>