<svg xmlns="http://www.w3.org/2000/svg" id="Trip-Pin-Multiple--Streamline-Ultimate" width="256" height="256" viewBox="0 0 256 256"><desc>Trip Pin Multiple Streamline Icon: https://streamlinehq.com</desc><g id="Trip-Pin-Multiple--Streamline-Ultimate.svg"><path fill="#fff" stroke-width="10.667" d="M61.33333333333333 130.66666666666666a66.77333333333333 66.77333333333333 0 0 1 49.17333333333333 -64 5.333333333333333 5.333333333333333 0 0 0 3.9466666666666663 -4.693333333333333l0 -5.653333333333333a56 56 0 0 0 -112 0c0 25.493333333333332 14.933333333333332 46.08 28.05333333333333 64a154.13333333333333 154.13333333333333 0 0 1 16.85333333333333 26.77333333333333 5.119999999999999 5.119999999999999 0 0 1 0 2.1333333333333333v24.21333333333333a10.666666666666666 10.666666666666666 0 0 0 21.333333333333332 0v-6.613333333333333a5.546666666666667 5.546666666666667 0 0 0 0 -2.2399999999999998 82.24 82.24 0 0 1 -7.359999999999999 -33.92ZM32 53.33333333333333a26.666666666666664 26.666666666666664 0 1 1 26.666666666666664 26.666666666666664A26.666666666666664 26.666666666666664 0 0 1 32 53.33333333333333Z"/><path fill="#fff" stroke-width="10.667" d="M197.33333333333331 0a56 56 0 0 0 -56 56l0 5.653333333333333a5.333333333333333 5.333333333333333 0 0 0 3.9466666666666663 4.693333333333333 66.77333333333333 66.77333333333333 0 0 1 49.17333333333333 64 82.24 82.24 0 0 1 -7.573333333333332 33.81333333333333 5.546666666666667 5.546666666666667 0 0 0 0 2.2399999999999998v6.613333333333333a10.666666666666666 10.666666666666666 0 0 0 21.333333333333332 0v-24.959999999999997a144 144 0 0 1 17.28 -27.839999999999996c13.12 -18.133333333333333 28.05333333333333 -38.72 28.05333333333333 -64A56 56 0 0 0 197.33333333333331 0Zm0 80A26.666666666666664 26.666666666666664 0 1 1 224 53.33333333333333a26.666666666666664 26.666666666666664 0 0 1 -26.666666666666664 26.666666666666664Z"/><path fill="#fff" stroke-width="10.667" d="M128 74.66666666666666a56 56 0 0 0 -56 56c0 25.493333333333332 14.933333333333332 46.08 28.05333333333333 64A144 144 0 0 1 117.33333333333333 222.71999999999997V245.33333333333331a10.666666666666666 10.666666666666666 0 0 0 21.333333333333332 0v-22.613333333333333a144 144 0 0 1 17.28 -27.839999999999996c13.12 -18.133333333333333 28.05333333333333 -38.72 28.05333333333333 -64A56 56 0 0 0 128 74.66666666666666Zm0 80a26.666666666666664 26.666666666666664 0 1 1 26.666666666666664 -26.666666666666664 26.666666666666664 26.666666666666664 0 0 1 -26.666666666666664 26.666666666666664Z"/></g></svg>