<svg xmlns="http://www.w3.org/2000/svg" viewBox="0 0 256 256" id="Truck-Empty-1--Streamline-Ultimate" height="256" width="256">
  <desc>
    Truck Empty 1 Streamline Icon: https://streamlinehq.com
  </desc>
  <g id="Truck-Empty-1--Streamline-Ultimate.svg">
    <path d="M62.29333333333333 70.61333333333333h68.37333333333333a2.6666666666666665 2.6666666666666665 0 0 0 2.6666666666666665 -2.5599999999999996V49.28a8 8 0 0 0 -8 -7.893333333333333h-10.666666666666666a71.78666666666666 71.78666666666666 0 0 0 -54.39999999999999 24.85333333333333 2.88 2.88 0 0 0 0 2.88 2.5599999999999996 2.5599999999999996 0 0 0 2.0266666666666664 1.4933333333333334Z" fill="#ffffff" stroke-width="10.6667"></path>
    <path d="M248 206.71999999999997H245.33333333333331v-2.7733333333333334a13.333333333333332 13.333333333333332 0 0 0 -13.333333333333332 -13.226666666666667h-12.799999999999999a2.6666666666666665 2.6666666666666665 0 0 0 -2.1333333333333333 4.266666666666667 31.253333333333334 31.253333333333334 0 0 1 6.933333333333334 19.626666666666665 36.48 36.48 0 0 1 0 4.906666666666666 3.3066666666666666 3.3066666666666666 0 0 0 0.5333333333333333 2.2399999999999998 2.986666666666667 2.986666666666667 0 0 0 2.0266666666666664 0.96h21.866666666666664a8.106666666666666 8.106666666666666 0 0 0 8 -8.106666666666666 8 8 0 0 0 -8.426666666666666 -7.893333333333333Z" fill="#ffffff" stroke-width="10.6667"></path>
    <path d="M172.26666666666665 189.54666666666665a2.7733333333333334 2.7733333333333334 0 0 0 1.0666666666666667 -2.1333333333333333V52.05333333333333a10.666666666666666 10.666666666666666 0 0 1 10.666666666666666 -10.666666666666666h5.333333333333333a10.666666666666666 10.666666666666666 0 0 0 0 -21.333333333333332h-5.333333333333333a32 32 0 0 0 -32 32v135.89333333333332a2.7733333333333334 2.7733333333333334 0 0 1 -2.6666666666666665 2.7733333333333334h-13.333333333333332a2.7733333333333334 2.7733333333333334 0 0 1 -2.6666666666666665 -2.7733333333333334V84.05333333333333a2.7733333333333334 2.7733333333333334 0 0 0 -2.6666666666666665 -2.7733333333333334H52.05333333333333a2.6666666666666665 2.6666666666666665 0 0 0 -2.453333333333333 1.5999999999999999 57.493333333333325 57.493333333333325 0 0 0 -2.6666666666666665 6.3999999999999995 68.16 68.16 0 0 0 -4.266666666666667 24v26.666666666666664a2.7733333333333334 2.7733333333333334 0 0 1 -2.6666666666666665 2.7733333333333334h-3.3066666666666666a29.119999999999997 29.119999999999997 0 0 0 -28.906666666666666 24.426666666666666L0 213.33333333333331a7.68 7.68 0 0 0 1.8133333333333335 6.506666666666666 7.786666666666666 7.786666666666666 0 0 0 6.079999999999999 2.7733333333333334h10.666666666666666a2.6666666666666665 2.6666666666666665 0 0 0 2.7733333333333334 -1.1733333333333333 2.6666666666666665 2.6666666666666665 0 0 0 0.6399999999999999 -2.1333333333333333 22.613333333333333 22.613333333333333 0 0 1 0 -4.693333333333333 32 32 0 0 1 64 0 36.48 36.48 0 0 1 0 4.906666666666666 3.3066666666666666 3.3066666666666666 0 0 0 0 2.2399999999999998 2.986666666666667 2.986666666666667 0 0 0 2.0266666666666664 0.96h70.39999999999999a2.986666666666667 2.986666666666667 0 0 0 2.0266666666666664 -0.96 3.3066666666666666 3.3066666666666666 0 0 0 0 -2.2399999999999998 36.48 36.48 0 0 1 0 -4.906666666666666 32 32 0 0 1 11.84 -25.066666666666666ZM104 138.66666666666666a5.333333333333333 5.333333333333333 0 0 1 -5.119999999999999 4.053333333333333H72.32a5.4399999999999995 5.4399999999999995 0 0 1 -5.333333333333333 -5.333333333333333v-24.106666666666662a54.29333333333333 54.29333333333333 0 0 1 1.3866666666666667 -11.733333333333334 5.226666666666667 5.226666666666667 0 0 1 5.119999999999999 -4.266666666666667H106.66666666666666a5.333333333333333 5.333333333333333 0 0 1 5.333333333333333 5.333333333333333Z" fill="#ffffff" stroke-width="10.6667"></path>
    <path d="M32 214.71999999999997a21.333333333333332 21.333333333333332 0 1 0 42.666666666666664 0 21.333333333333332 21.333333333333332 0 1 0 -42.666666666666664 0" fill="#ffffff" stroke-width="10.6667"></path>
    <path d="M170.66666666666666 214.71999999999997a21.333333333333332 21.333333333333332 0 1 0 42.666666666666664 0 21.333333333333332 21.333333333333332 0 1 0 -42.666666666666664 0" fill="#ffffff" stroke-width="10.6667"></path>
  </g>
</svg>