<svg xmlns="http://www.w3.org/2000/svg" viewBox="0 0 256 256" id="Truck-2--Streamline-Ultimate" height="256" width="256">
  <desc>
    Truck 2 Streamline Icon: https://streamlinehq.com
  </desc>
  <g id="Truck-2--Streamline-Ultimate.svg">
    <path d="M253.33333333333331 144H66.45333333333333a48.32 48.32 0 0 0 -29.65333333333333 10.666666666666666l-36.266666666666666 28.16a1.7066666666666666 1.7066666666666666 0 0 0 0 1.1733333333333333A18.773333333333333 18.773333333333333 0 0 0 18.666666666666664 202.66666666666666h17.066666666666666a2.5599999999999996 2.5599999999999996 0 0 0 2.0266666666666664 -1.0666666666666667 2.453333333333333 2.453333333333333 0 0 0 0 -2.2399999999999998A27.839999999999996 27.839999999999996 0 0 1 37.33333333333333 192a32 32 0 0 1 64 0 27.839999999999996 27.839999999999996 0 0 1 -0.96 7.359999999999999 2.453333333333333 2.453333333333333 0 0 0 0.5333333333333333 2.2399999999999998 2.5599999999999996 2.5599999999999996 0 0 0 2.0266666666666664 1.0666666666666667h71.46666666666667a2.5599999999999996 2.5599999999999996 0 0 0 2.0266666666666664 -1.0666666666666667 2.453333333333333 2.453333333333333 0 0 0 0.5333333333333333 -2.2399999999999998 27.839999999999996 27.839999999999996 0 0 1 -0.96 -7.359999999999999 32 32 0 0 1 64 0 34.13333333333333 34.13333333333333 0 0 1 -0.7466666666666667 6.72 2.5599999999999996 2.5599999999999996 0 0 0 0.7466666666666667 2.5599999999999996 2.453333333333333 2.453333333333333 0 0 0 2.5599999999999996 0.5333333333333333A18.56 18.56 0 0 0 256 184v-37.33333333333333a2.6666666666666665 2.6666666666666665 0 0 0 -2.6666666666666665 -2.6666666666666665Z" fill="#ffffff" stroke-width="10.6667"></path>
    <path d="M226.66666666666666 42.666666666666664H69.22666666666666a46.08 46.08 0 0 0 -41.70666666666666 25.813333333333333l-21.333333333333332 43.73333333333333A53.33333333333333 53.33333333333333 0 0 0 0 136v28.16a2.5599999999999996 2.5599999999999996 0 0 0 1.4933333333333334 2.453333333333333 2.5599999999999996 2.5599999999999996 0 0 0 2.7733333333333334 0l25.92 -20.37333333333333a58.986666666666665 58.986666666666665 0 0 1 36.266666666666666 -12.586666666666666h186.88a2.6666666666666665 2.6666666666666665 0 0 0 2.6666666666666665 -2.6666666666666665V72A29.333333333333332 29.333333333333332 0 0 0 226.66666666666666 42.666666666666664ZM74.66666666666666 104a2.6666666666666665 2.6666666666666665 0 0 1 -2.6666666666666665 2.6666666666666665H42.666666666666664a5.546666666666667 5.546666666666667 0 0 1 -4.586666666666666 -2.5599999999999996 5.4399999999999995 5.4399999999999995 0 0 1 0 -5.119999999999999l10.666666666666666 -21.333333333333332A5.4399999999999995 5.4399999999999995 0 0 1 53.33333333333333 74.66666666666666h18.666666666666664a2.6666666666666665 2.6666666666666665 0 0 1 2.6666666666666665 2.6666666666666665Zm58.666666666666664 0a2.6666666666666665 2.6666666666666665 0 0 1 -2.6666666666666665 2.6666666666666665h-32A2.6666666666666665 2.6666666666666665 0 0 1 96 104v-26.666666666666664A2.6666666666666665 2.6666666666666665 0 0 1 98.66666666666666 74.66666666666666h32a2.6666666666666665 2.6666666666666665 0 0 1 2.6666666666666665 2.6666666666666665ZM192 101.33333333333333a5.333333333333333 5.333333333333333 0 0 1 -5.333333333333333 5.333333333333333h-29.333333333333332a2.6666666666666665 2.6666666666666665 0 0 1 -2.6666666666666665 -2.6666666666666665v-26.666666666666664a2.6666666666666665 2.6666666666666665 0 0 1 2.6666666666666665 -2.6666666666666665h29.333333333333332a5.333333333333333 5.333333333333333 0 0 1 5.333333333333333 5.333333333333333Zm40 10.666666666666666h-16a8 8 0 0 1 0 -16h16a8 8 0 0 1 0 16Zm0 -26.666666666666664h-16a8 8 0 0 1 0 -16h16a8 8 0 0 1 0 16Z" fill="#ffffff" stroke-width="10.6667"></path>
    <path d="M48 192a21.333333333333332 21.333333333333332 0 1 0 42.666666666666664 0 21.333333333333332 21.333333333333332 0 1 0 -42.666666666666664 0" fill="#ffffff" stroke-width="10.6667"></path>
    <path d="M186.66666666666666 192a21.333333333333332 21.333333333333332 0 1 0 42.666666666666664 0 21.333333333333332 21.333333333333332 0 1 0 -42.666666666666664 0" fill="#ffffff" stroke-width="10.6667"></path>
  </g>
</svg>