<svg xmlns="http://www.w3.org/2000/svg" id="Tuk-Tuk--Streamline-Ultimate" width="256" height="256" viewBox="0 0 256 256"><desc>Tuk Tuk Streamline Icon: https://streamlinehq.com</desc><g id="Tuk-Tuk--Streamline-Ultimate.svg"><path fill="#fff" stroke-width="10.667" d="M227.51999999999998 135.57333333333332a2.6666666666666665 2.6666666666666665 0 0 1 -1.3866666666666667 -1.4933333333333334l-19.306666666666665 -53.33333333333333a2.5599999999999996 2.5599999999999996 0 0 1 0 -2.453333333333333 2.2399999999999998 2.2399999999999998 0 0 1 2.2399999999999998 -1.0666666666666667l16.64 0.7466666666666667h0.5333333333333333a10.666666666666666 10.666666666666666 0 0 0 10.666666666666666 -10.666666666666666 10.666666666666666 10.666666666666666 0 0 0 -10.133333333333333 -10.666666666666666l-25.706666666666667 -1.2799999999999998a2.7733333333333334 2.7733333333333334 0 0 1 -1.8133333333333335 -2.0266666666666664l-3.093333333333333 -6.079999999999999a10.666666666666666 10.666666666666666 0 0 0 -18.986666666666665 0l-2.3466666666666667 4.586666666666666a2.6666666666666665 2.6666666666666665 0 0 1 -2.5599999999999996 1.4933333333333334l-161.06666666666666 -7.466666666666666a10.666666666666666 10.666666666666666 0 1 0 -1.0666666666666667 21.333333333333332H10.666666666666666a2.5599999999999996 2.5599999999999996 0 0 1 2.5599999999999996 2.6666666666666665v96a24.106666666666662 24.106666666666662 0 0 0 10.666666666666666 19.733333333333334 2.88 2.88 0 0 0 2.453333333333333 0 2.6666666666666665 2.6666666666666665 0 0 0 1.7066666666666666 -1.7066666666666666 32 32 0 0 1 62.18666666666667 3.413333333333333 2.6666666666666665 2.6666666666666665 0 0 0 2.6666666666666665 2.3466666666666667h94.50666666666666a2.5599999999999996 2.5599999999999996 0 0 1 2.5599999999999996 2.1333333333333333 26.560000000000002 26.560000000000002 0 0 0 52.266666666666666 0 2.5599999999999996 2.5599999999999996 0 0 1 2.5599999999999996 -2.1333333333333333H245.33333333333331a10.666666666666666 10.666666666666666 0 0 0 10.666666666666666 -10.666666666666666 47.67999999999999 47.67999999999999 0 0 0 -28.479999999999997 -43.413333333333334Zm-139.51999999999998 3.626666666666667a2.6666666666666665 2.6666666666666665 0 0 1 -2.6666666666666665 2.6666666666666665H74.66666666666666a2.6666666666666665 2.6666666666666665 0 0 1 -2.6666666666666665 -2.6666666666666665A18.666666666666664 18.666666666666664 0 0 0 53.33333333333333 120.53333333333333H42.666666666666664a2.6666666666666665 2.6666666666666665 0 0 1 -2.6666666666666665 -2.6666666666666665V71.46666666666667a2.88 2.88 0 0 1 0.8533333333333333 -2.0266666666666664 2.453333333333333 2.453333333333333 0 0 1 1.8133333333333335 -0.6399999999999999l42.666666666666664 2.0266666666666664a2.6666666666666665 2.6666666666666665 0 0 1 2.5599999999999996 2.6666666666666665Zm108.79999999999998 -34.773333333333326 -16.21333333333333 16.21333333333333a37.76 37.76 0 0 0 -9.92 18.986666666666665 2.6666666666666665 2.6666666666666665 0 0 1 -2.5599999999999996 2.2399999999999998h-10.986666666666666a2.5599999999999996 2.5599999999999996 0 0 1 -2.453333333333333 -1.92l-13.866666666666667 -41.49333333333333a10.666666666666666 10.666666666666666 0 0 0 -20.266666666666666 6.72l10.666666666666666 33.17333333333333a2.6666666666666665 2.6666666666666665 0 0 1 0 2.3466666666666667 2.453333333333333 2.453333333333333 0 0 1 -2.1333333333333333 1.1733333333333333h-17.066666666666666a2.6666666666666665 2.6666666666666665 0 0 1 -2.6666666666666665 -2.6666666666666665V74.66666666666666a2.88 2.88 0 0 1 0.8533333333333333 -2.0266666666666664 2.453333333333333 2.453333333333333 0 0 1 1.92 -0.6399999999999999l74.66666666666666 3.626666666666667a2.6666666666666665 2.6666666666666665 0 0 1 2.3466666666666667 1.8133333333333335l8.533333333333333 24a2.6666666666666665 2.6666666666666665 0 0 1 -0.8533333333333333 2.986666666666667Z"/><path fill="#fff" stroke-width="10.667" d="M37.33333333333333 192.53333333333333a21.333333333333332 21.333333333333332 0 1 0 42.666666666666664 0 21.333333333333332 21.333333333333332 0 1 0 -42.666666666666664 0"/></g></svg>