<svg xmlns="http://www.w3.org/2000/svg" id="Ubuntu-Logo--Streamline-Ultimate" width="256" height="256" viewBox="0 0 256 256"><desc>Ubuntu Logo Streamline Icon: https://streamlinehq.com</desc><g id="Ubuntu-Logo--Streamline-Ultimate.svg"><path fill="#fff" stroke-width="10.667" d="M236.42239999999998 141.04533333333333c-5.537066666666666 -1.6149333333333333 -11.334399999999999 1.5637333333333334 -12.949333333333332 7.1008 -2.4917333333333334 8.295466666666666 -6.453333333333333 16.0768 -11.694933333333333 22.9728 -22.4896 -6.772266666666667 -46.05226666666667 6.7274666666666665 -51.58613333333333 29.552 -2.2976 0 -4.594133333333334 0.5226666666666666 -6.891733333333333 0.5226666666666666 -7.0709333333333335 -0.0031999999999999997 -14.104533333333332 -1.0229333333333333 -20.88533333333333 -3.028266666666666 -7.716266666666667 -2.331733333333333 -15.063466666666665 4.565333333333333 -13.223466666666667 12.414933333333332 0.8533333333333333 3.642666666666667 3.586133333333333 6.552533333333333 7.166933333333334 7.634133333333333 8.7808 2.3637333333333332 17.8496 3.488 26.941866666666662 3.3418666666666668h6.5792c7.610666666666667 31.24053333333333 46.18666666666667 42.52693333333333 69.43573333333333 20.314666666666668 16.970666666666666 -16.212266666666665 17.255466666666663 -43.2192 0.6325333333333333 -59.78666666666667 6.084266666666666 -8.412799999999999 10.676266666666665 -17.808 13.575466666666665 -27.777066666666663 1.8207999999999998 -5.634133333333333 -1.4026666666666667 -11.654399999999999 -7.1008 -13.261866666666666Z"/><path fill="#fff" stroke-width="10.667" d="M130.43093333333331 58.132266666666666c7.380266666666666 -2.4266666666666667 15.1008 -3.6597333333333335 22.869333333333334 -3.6554666666666664h6.891733333333333c4.7296 18.318933333333334 21.180799999999998 31.1712 40.099199999999996 31.327999999999996 3.9712 -0.0384 7.9136 -0.6719999999999999 11.696 -1.8805333333333334 4.577066666666666 6.357333333333333 8.1024 13.409066666666668 10.442666666666666 20.88533333333333 1.4549333333333332 4.4832 5.7333333333333325 7.435733333333333 10.4416 7.205333333333333 1.0986666666666665 -0.021333333333333333 2.1887999999999996 -0.1973333333333333 3.237333333333333 -0.5216 5.476266666666666 -1.792 8.467199999999998 -7.678933333333333 6.6837333333333335 -13.1584 -2.9226666666666667 -8.891733333333333 -7.1456 -17.3024 -12.5312 -24.9568 22.36053333333333 -23.106133333333332 11.322666666666667 -61.754666666666665 -19.8688 -69.56586666666666 -22.147199999999998 -5.546666666666667 -44.64426666666666 7.716266666666667 -50.51306666666666 29.780266666666666h-6.5792c-10.0032 -0.010666666666666666 -19.944533333333332 1.5754666666666666 -29.447466666666664 4.698666666666666 -7.637333333333332 2.5322666666666667 -9.668266666666666 12.381866666666667 -3.6575999999999995 17.729066666666665 2.7904 2.482133333333333 6.692266666666666 3.2863999999999995 10.235733333333332 2.112Z"/><path fill="#fff" stroke-width="10.667" d="M88.55679999999998 161.51253333333332c11.416533333333334 -16.775466666666667 9.1264 -39.32906666666666 -5.429333333333333 -53.4656 2.3552 -9.504 6.6975999999999996 -18.401066666666665 12.739199999999999 -26.106666666666662 4.234666666666667 -6.831999999999999 -0.5152 -15.686399999999999 -8.5504 -15.938133333333333 -2.744533333333333 -0.08533333333333333 -5.413333333333332 0.9141333333333332 -7.4261333333333335 2.7807999999999997 -6.712533333333333 8.6688 -11.902933333333332 18.41493333333333 -15.3504 28.82133333333333 -3.4069333333333334 -0.9077333333333333 -6.917333333333333 -1.3642666666666667 -10.442666666666666 -1.3578666666666666 -32.1536 -0.2730666666666667 -52.54506666666666 34.36373333333333 -36.70506666666667 62.3456 10.942933333333333 19.330133333333333 35.09866666666667 26.714666666666666 54.9792 16.808533333333333 4.459733333333333 7.450666666666667 9.904 14.264533333333333 16.1856 20.258133333333333 1.9616 1.8912 4.5855999999999995 2.9408 7.309866666666666 2.9237333333333333 8.0384 0.05333333333333333 13.12 -8.615466666666666 9.146666666666667 -15.603200000000001 -0.5194666666666666 -0.9141333333333332 -1.1743999999999999 -1.744 -1.9413333333333331 -2.4618666666666664 -5.8869333333333325 -5.460266666666667 -10.795733333333333 -11.888 -14.5152 -19.0048Z"/></g></svg>