<svg xmlns="http://www.w3.org/2000/svg" id="Unprotect--Streamline-Ultimate" width="256" height="256" viewBox="0 0 256 256"><desc>Unprotect Streamline Icon: https://streamlinehq.com</desc><g id="Unprotect--Streamline-Ultimate.svg"><path fill="#fff" stroke-width="10.667" d="m16.426666666666666 251.0933333333333 234.66666666666666 -234.66666666666666a11.413333333333334 11.413333333333334 0 0 1 4.266666666666667 -2.453333333333333 10.666666666666666 10.666666666666666 0 0 0 -2.453333333333333 -10.666666666666666 10.666666666666666 10.666666666666666 0 0 0 -15.146666666666665 0l-22.613333333333333 22.4 -0.6399999999999999 0A235.41333333333333 235.41333333333333 0 0 0 117.33333333333333 5.333333333333333a235.41333333333333 235.41333333333333 0 0 0 -97.17333333333332 19.946666666666665A16.32 16.32 0 0 0 10.666666666666666 40.21333333333333v81.49333333333333A130.98666666666665 130.98666666666665 0 0 0 38.4 202.66666666666666L3.093333333333333 237.76a10.666666666666666 10.666666666666666 0 0 0 0 15.146666666666665A10.666666666666666 10.666666666666666 0 0 0 10.666666666666666 256a12.053333333333331 12.053333333333331 0 0 0 3.3066666666666666 -0.6399999999999999 11.413333333333334 11.413333333333334 0 0 1 2.453333333333333 -4.266666666666667Z"/><path fill="#fff" stroke-width="10.667" d="M67.73333333333332 229.9733333333333a128 128 0 0 0 26.453333333333333 14.08l11.306666666666667 4.373333333333333a32 32 0 0 0 23.57333333333333 0l11.413333333333334 -4.373333333333333A130.98666666666665 130.98666666666665 0 0 0 224 121.70666666666666v-48Z"/></g></svg>