<svg xmlns="http://www.w3.org/2000/svg" viewBox="0 0 256 256" id="Unsplash-Logo--Streamline-Ultimate" height="256" width="256">
  <desc>
    Unsplash Logo Streamline Icon: https://streamlinehq.com
  </desc>
  <g id="Unsplash-Logo--Streamline-Ultimate.svg">
    <path d="M245.59999999999997 128h-57.493333333333325c-4.329599999999999 0 -7.84 3.5103999999999997 -7.84 7.84V180.26666666666665H75.73333333333332v-44.42666666666666c0 -4.329599999999999 -3.5103999999999997 -7.84 -7.84 -7.84H10.399999999999999c-4.329599999999999 0 -7.84 3.5103999999999997 -7.84 7.84v109.75999999999999c0.05653333333333333 4.306133333333333 3.5338666666666665 7.7834666666666665 7.84 7.84h235.2c4.306133333333333 -0.05653333333333333 7.7834666666666665 -3.5338666666666665 7.84 -7.84v-109.75999999999999c0 -4.329599999999999 -3.5103999999999997 -7.84 -7.84 -7.84Z" fill="#ffffff" stroke-width="10.6667"></path>
    <path d="M80.96 2.5599999999999996h94.08s5.226666666666667 0 5.226666666666667 5.226666666666667v73.17333333333333s0 5.226666666666667 -5.226666666666667 5.226666666666667H80.96s-5.226666666666667 0 -5.226666666666667 -5.226666666666667V7.786666666666666s0 -5.226666666666667 5.226666666666667 -5.226666666666667" fill="#ffffff" stroke-width="10.6667"></path>
  </g>
</svg>