<svg xmlns="http://www.w3.org/2000/svg" id="Upload-Square-1--Streamline-Ultimate" width="256" height="256" viewBox="0 0 256 256"><desc>Upload Square 1 Streamline Icon: https://streamlinehq.com</desc><path fill="#fff" stroke-width="10.667" d="M237.76 0H18.24A18.346666666666664 18.346666666666664 0 0 0 0 18.24v219.51999999999998A18.346666666666664 18.346666666666664 0 0 0 18.24 256h219.51999999999998A18.346666666666664 18.346666666666664 0 0 0 256 237.76V18.24A18.346666666666664 18.346666666666664 0 0 0 237.76 0Zm-83.62666666666667 177.59999999999997h-52.266666666666666a5.226666666666667 5.226666666666667 0 0 1 -5.226666666666667 -5.226666666666667v-10.666666666666666a5.226666666666667 5.226666666666667 0 0 1 5.226666666666667 -5.226666666666667h52.266666666666666a5.226666666666667 5.226666666666667 0 0 1 5.226666666666667 5.226666666666667v10.666666666666666a5.226666666666667 5.226666666666667 0 0 1 -5.226666666666667 5.226666666666667Zm5.226666666666667 26.133333333333333v10.666666666666666a5.226666666666667 5.226666666666667 0 0 1 -5.226666666666667 5.226666666666667h-52.266666666666666a5.226666666666667 5.226666666666667 0 0 1 -5.226666666666667 -5.226666666666667v-10.666666666666666a5.226666666666667 5.226666666666667 0 0 1 5.226666666666667 -5.226666666666667h52.266666666666666a5.226666666666667 5.226666666666667 0 0 1 5.226666666666667 5.226666666666667Zm-5.226666666666667 -67.94666666666666h-52.266666666666666a5.119999999999999 5.119999999999999 0 0 1 -5.226666666666667 -5.226666666666667v-18.133333333333333a2.6666666666666665 2.6666666666666665 0 0 0 -2.6666666666666665 -2.6666666666666665H75.73333333333332a9.706666666666667 9.706666666666667 0 0 1 -10.026666666666666 -5.4399999999999995 9.706666666666667 9.706666666666667 0 0 1 3.3066666666666666 -10.666666666666666L117.33333333333333 45.44a15.786666666666665 15.786666666666665 0 0 1 22.186666666666667 0l47.89333333333333 48a9.706666666666667 9.706666666666667 0 0 1 3.3066666666666666 10.666666666666666 9.706666666666667 9.706666666666667 0 0 1 -10.026666666666666 5.4399999999999995h-18.666666666666664a2.6666666666666665 2.6666666666666665 0 0 0 -2.6666666666666665 2.6666666666666665v18.133333333333333a5.119999999999999 5.119999999999999 0 0 1 -5.226666666666667 5.4399999999999995Z"/></svg>