<svg xmlns="http://www.w3.org/2000/svg" viewBox="0 0 256 256" id="Upload-Circle--Streamline-Ultimate" height="256" width="256">
  <desc>
    Upload Circle Streamline Icon: https://streamlinehq.com
  </desc>
  <path d="M128 0a128 128 0 1 0 128 128A128 128 0 0 0 128 0Zm52.373333333333335 111.03999999999999A10.666666666666666 10.666666666666666 0 0 1 170.66666666666666 117.33333333333333h-24a2.6666666666666665 2.6666666666666665 0 0 0 -2.6666666666666665 2.6666666666666665v77.33333333333333a16 16 0 0 1 -32 0v-77.33333333333333a2.6666666666666665 2.6666666666666665 0 0 0 -2.6666666666666665 -2.6666666666666665H85.33333333333333a10.666666666666666 10.666666666666666 0 0 1 -8 -17.706666666666663l42.666666666666664 -48a10.666666666666666 10.666666666666666 0 0 1 16 0l42.666666666666664 48a10.666666666666666 10.666666666666666 0 0 1 1.7066666666666666 11.413333333333334Z" fill="#ffffff" stroke-width="10.6667"></path>
</svg>