<svg xmlns="http://www.w3.org/2000/svg" viewBox="0 0 256 256" id="Upload-Brackets--Streamline-Ultimate" height="256" width="256">
  <desc>
    Upload Brackets Streamline Icon: https://streamlinehq.com
  </desc>
  <g id="Upload-Brackets--Streamline-Ultimate.svg">
    <path d="M256 23.46666666666667A23.57333333333333 23.57333333333333 0 0 0 232.53333333333333 0h-47.04a13.12 13.12 0 1 0 0 26.133333333333333h41.70666666666666a2.6666666666666665 2.6666666666666665 0 0 1 2.6666666666666665 2.6666666666666665v198.4a2.6666666666666665 2.6666666666666665 0 0 1 -2.6666666666666665 2.6666666666666665h-41.70666666666666a13.12 13.12 0 1 0 0 26.133333333333333h47.04a23.57333333333333 23.57333333333333 0 0 0 23.46666666666667 -23.46666666666667Z" fill="#ffffff" stroke-width="10.6667"></path>
    <path d="M0 23.46666666666667v209.06666666666666A23.57333333333333 23.57333333333333 0 0 0 23.46666666666667 256h47.04a13.12 13.12 0 1 0 0 -26.133333333333333H28.8a2.6666666666666665 2.6666666666666665 0 0 1 -2.6666666666666665 -2.6666666666666665V28.8a2.6666666666666665 2.6666666666666665 0 0 1 2.6666666666666665 -2.6666666666666665h41.70666666666666a13.12 13.12 0 1 0 0 -26.133333333333333H23.46666666666667A23.57333333333333 23.57333333333333 0 0 0 0 23.46666666666667Z" fill="#ffffff" stroke-width="10.6667"></path>
    <path d="M180.26666666666665 138.66666666666666a10.666666666666666 10.666666666666666 0 0 0 7.893333333333333 -17.28l-52.266666666666666 -60.16a10.666666666666666 10.666666666666666 0 0 0 -15.786666666666665 0l-52.266666666666666 60.16A10.666666666666666 10.666666666666666 0 0 0 75.73333333333332 138.66666666666666h33.92a2.6666666666666665 2.6666666666666665 0 0 1 2.6666666666666665 2.6666666666666665v58.56a15.68 15.68 0 0 0 31.36 0v-58.773333333333326a2.6666666666666665 2.6666666666666665 0 0 1 2.6666666666666665 -2.6666666666666665Z" fill="#ffffff" stroke-width="10.6667"></path>
  </g>
</svg>