<svg xmlns="http://www.w3.org/2000/svg" viewBox="0 0 256 256" id="Usb-Cable--Streamline-Ultimate" height="256" width="256">
  <desc>
    Usb Cable Streamline Icon: https://streamlinehq.com
  </desc>
  <g id="Usb-Cable--Streamline-Ultimate.svg">
    <path d="M183.78666666666666 80.10666666666665a2.6666666666666665 2.6666666666666665 0 0 1 -2.453333333333333 -2.6666666666666665V21.333333333333332a21.333333333333332 21.333333333333332 0 0 0 -21.333333333333332 -21.333333333333332H96a21.333333333333332 21.333333333333332 0 0 0 -21.333333333333332 21.333333333333332v56.10666666666666a2.6666666666666665 2.6666666666666665 0 0 1 -2.453333333333333 2.6666666666666665A26.77333333333333 26.77333333333333 0 0 0 48 106.66666666666666v38.29333333333333a16.21333333333333 16.21333333333333 0 0 0 4.693333333333333 11.306666666666667l26.560000000000002 26.453333333333333a3.093333333333333 3.093333333333333 0 0 1 0.7466666666666667 1.92V202.66666666666666A16 16 0 0 0 96 218.66666666666666h13.333333333333332a2.6666666666666665 2.6666666666666665 0 0 1 2.6666666666666665 2.6666666666666665v18.666666666666664a16 16 0 0 0 32 0v-18.666666666666664a2.6666666666666665 2.6666666666666665 0 0 1 2.6666666666666665 -2.6666666666666665H160a16 16 0 0 0 16 -16v-18.026666666666664a3.093333333333333 3.093333333333333 0 0 1 0.7466666666666667 -1.92l26.560000000000002 -26.453333333333333a16.21333333333333 16.21333333333333 0 0 0 4.693333333333333 -11.306666666666667V106.66666666666666a26.77333333333333 26.77333333333333 0 0 0 -24.21333333333333 -26.560000000000002ZM96 24A2.6666666666666665 2.6666666666666665 0 0 1 98.66666666666666 21.333333333333332h58.666666666666664a3.093333333333333 3.093333333333333 0 0 1 1.92 0.7466666666666667 3.093333333333333 3.093333333333333 0 0 1 0.7466666666666667 1.92v48a2.6666666666666665 2.6666666666666665 0 0 1 -2.6666666666666665 2.6666666666666665h-58.666666666666664A2.6666666666666665 2.6666666666666665 0 0 1 96 72Zm5.333333333333333 120a5.226666666666667 5.226666666666667 0 0 1 -4.8 -3.093333333333333 5.013333333333333 5.013333333333333 0 0 1 0.7466666666666667 -5.653333333333333l26.666666666666664 -32a5.333333333333333 5.333333333333333 0 0 1 8.106666666666666 0l26.666666666666664 32a5.013333333333333 5.013333333333333 0 0 1 0.7466666666666667 5.653333333333333 5.226666666666667 5.226666666666667 0 0 1 -4.8 3.093333333333333Z" fill="#ffffff" stroke-width="10.6667"></path>
    <path d="M136 37.33333333333333h-16a7.68 7.68 0 0 0 -8 7.1466666666666665v7.04a7.68 7.68 0 0 0 8 7.1466666666666665h16a7.68 7.68 0 0 0 8 -7.1466666666666665v-7.04a7.68 7.68 0 0 0 -8 -7.1466666666666665Z" fill="#ffffff" stroke-width="10.6667"></path>
  </g>
</svg>