<svg xmlns="http://www.w3.org/2000/svg" viewBox="0 0 256 256" id="Usb-Port-1--Streamline-Ultimate" height="256" width="256">
  <desc>
    Usb Port 1 Streamline Icon: https://streamlinehq.com
  </desc>
  <path d="M218.66666666666666 71.14666666666666a12.479999999999999 12.479999999999999 0 0 0 -12.479999999999999 -12.479999999999999h-28.373333333333335a12.479999999999999 12.479999999999999 0 0 0 -12.479999999999999 12.479999999999999v28.373333333333335a12.479999999999999 12.479999999999999 0 0 0 12.479999999999999 12.479999999999999h1.2799999999999998a2.2399999999999998 2.2399999999999998 0 0 1 2.2399999999999998 2.2399999999999998 48.32 48.32 0 0 1 -16.53333333333333 18.24l-22.29333333333333 11.2a2.7733333333333334 2.7733333333333334 0 0 1 -2.5599999999999996 0 2.3466666666666667 2.3466666666666667 0 0 1 -1.2799999999999998 -2.2399999999999998V50.666666666666664a2.6666666666666665 2.6666666666666665 0 0 1 2.6666666666666665 -2.6666666666666665h24a5.333333333333333 5.333333333333333 0 0 0 5.333333333333333 -3.3066666666666666 5.119999999999999 5.119999999999999 0 0 0 -1.1733333333333333 -5.76L131.73333333333332 1.5999999999999999a5.119999999999999 5.119999999999999 0 0 0 -7.466666666666666 0l-37.33333333333333 37.33333333333333a5.119999999999999 5.119999999999999 0 0 0 -1.5999999999999999 5.76 5.333333333333333 5.333333333333333 0 0 0 4.906666666666666 3.3066666666666666h24a2.6666666666666665 2.6666666666666665 0 0 1 2.6666666666666665 2.6666666666666665v106.66666666666666a2.7733333333333334 2.7733333333333334 0 0 1 -1.3866666666666667 2.3466666666666667 2.6666666666666665 2.6666666666666665 0 0 1 -2.6666666666666665 0l-32.31999999999999 -19.306666666666665a10.666666666666666 10.666666666666666 0 0 1 -5.866666666666667 -9.6V128a2.6666666666666665 2.6666666666666665 0 0 1 1.4933333333333334 -2.453333333333333 26.666666666666664 26.666666666666664 0 1 0 -24.319999999999997 0A2.6666666666666665 2.6666666666666665 0 0 1 53.33333333333333 128v3.3066666666666666a32 32 0 0 0 16.96 28.266666666666666l45.76 27.52a2.88 2.88 0 0 1 1.2799999999999998 2.3466666666666667V192a2.6666666666666665 2.6666666666666665 0 0 1 -1.5999999999999999 2.453333333333333 32 32 0 1 0 24.53333333333333 0A2.6666666666666665 2.6666666666666665 0 0 1 138.66666666666666 192v-21.333333333333332a2.6666666666666665 2.6666666666666665 0 0 1 1.4933333333333334 -2.453333333333333l34.13333333333333 -17.066666666666666c8.64 -4.266666666666667 28.373333333333335 -22.72 28.373333333333335 -36.8a2.6666666666666665 2.6666666666666665 0 0 1 2.6666666666666665 -2.6666666666666665h0.8533333333333333a12.479999999999999 12.479999999999999 0 0 0 12.479999999999999 -12.159999999999998Z" fill="#ffffff" stroke-width="10.6667"></path>
</svg>