<svg xmlns="http://www.w3.org/2000/svg" viewBox="0 0 256 256" id="User-Question--Streamline-Ultimate" height="256" width="256">
  <desc>
    User Question Streamline Icon: https://streamlinehq.com
  </desc>
  <path d="M228.58666666666664 105.17333333333332a79.57333333333332 79.57333333333332 0 0 1 -7.68 -15.466666666666665c0 -56.213333333333324 -51.946666666666665 -89.70666666666666 -102.08 -89.70666666666666a105.91999999999999 105.91999999999999 0 0 0 -106.66666666666666 107.30666666666667c0 38.4 14.4 66.98666666666666 42.666666666666664 85.33333333333333v58.02666666666667a5.333333333333333 5.333333333333333 0 0 0 5.333333333333333 5.333333333333333h106.66666666666666a5.333333333333333 5.333333333333333 0 0 0 5.333333333333333 -5.333333333333333v-32c18.56 0 29.866666666666664 -2.2399999999999998 38.18666666666667 -10.666666666666666s10.666666666666666 -35.626666666666665 10.666666666666666 -48.32h10.666666666666666a13.866666666666667 13.866666666666667 0 0 0 10.666666666666666 -5.546666666666667 13.546666666666667 13.546666666666667 0 0 0 2.0266666666666664 -8 81.49333333333333 81.49333333333333 0 0 0 -15.786666666666665 -40.959999999999994ZM122.66666666666666 186.66666666666666A16 16 0 1 1 138.66666666666666 170.66666666666666a16 16 0 0 1 -16 16Zm17.066666666666666 -64.85333333333332a10.666666666666666 10.666666666666666 0 0 0 -6.3999999999999995 9.813333333333333 10.666666666666666 10.666666666666666 0 0 1 -21.333333333333332 0 32 32 0 0 1 19.2 -29.333333333333332 21.333333333333332 21.333333333333332 0 1 0 -29.866666666666664 -19.626666666666665 10.666666666666666 10.666666666666666 0 0 1 -21.333333333333332 0 42.666666666666664 42.666666666666664 0 1 1 59.73333333333333 39.14666666666666Z" fill="#ffffff" stroke-width="10.6667"></path>
</svg>