<svg xmlns="http://www.w3.org/2000/svg" id="User-Cash-Scale--Streamline-Ultimate" width="256" height="256" viewBox="0 0 256 256"><desc>User Cash Scale Streamline Icon: https://streamlinehq.com</desc><g id="User-Cash-Scale--Streamline-Ultimate.svg"><path fill="#fff" stroke-width="10.667" d="M10.666666666666666 205.33333333333331h91.09333333333332a2.6666666666666665 2.6666666666666665 0 0 1 2.3466666666666667 1.4933333333333334 2.5599999999999996 2.5599999999999996 0 0 1 0 2.88l-21.333333333333332 26.346666666666668a10.666666666666666 10.666666666666666 0 0 0 -1.2799999999999998 11.2 10.666666666666666 10.666666666666666 0 0 0 9.6 6.079999999999999h63.14666666666666a10.666666666666666 10.666666666666666 0 0 0 8.32 -17.386666666666663l-21.333333333333332 -26.24a2.5599999999999996 2.5599999999999996 0 0 1 0 -2.88 2.7733333333333334 2.7733333333333334 0 0 1 2.3466666666666667 -1.4933333333333334H245.33333333333331a10.666666666666666 10.666666666666666 0 0 0 0 -21.333333333333332H68.05333333333333a2.88 2.88 0 0 1 -2.0266666666666664 -0.8533333333333333 2.3466666666666667 2.3466666666666667 0 0 1 -0.6399999999999999 -1.8133333333333335l3.733333333333333 -37.33333333333333a2.6666666666666665 2.6666666666666665 0 0 1 2.6666666666666665 -2.453333333333333h10.666666666666666A2.6666666666666665 2.6666666666666665 0 0 0 85.33333333333333 138.66666666666666v-29.333333333333332a37.33333333333333 37.33333333333333 0 0 0 -74.66666666666666 0V138.66666666666666a2.6666666666666665 2.6666666666666665 0 0 0 2.6666666666666665 2.6666666666666665h10.666666666666666a2.6666666666666665 2.6666666666666665 0 0 1 2.6666666666666665 2.453333333333333L30.613333333333333 181.33333333333331a2.3466666666666667 2.3466666666666667 0 0 1 -0.6399999999999999 2.0266666666666664 2.88 2.88 0 0 1 -2.0266666666666664 0.8533333333333333H10.666666666666666a10.666666666666666 10.666666666666666 0 0 0 0 21.333333333333332Z"/><path fill="#fff" stroke-width="10.667" d="M21.333333333333332 29.333333333333332a26.666666666666664 26.666666666666664 0 1 0 53.33333333333333 0 26.666666666666664 26.666666666666664 0 1 0 -53.33333333333333 0"/><path fill="#fff" stroke-width="10.667" d="M195.62666666666667 174.61333333333334a13.333333333333332 13.333333333333332 0 0 0 13.333333333333332 -13.333333333333332v-7.573333333333332a2.6666666666666665 2.6666666666666665 0 0 1 1.5999999999999999 -2.453333333333333 38.18666666666667 38.18666666666667 0 0 0 23.36 -35.199999999999996c0 -29.439999999999998 -22.93333333333333 -34.986666666666665 -35.199999999999996 -37.86666666666666s-14.719999999999999 -4.266666666666667 -14.719999999999999 -12.053333333333331a11.626666666666667 11.626666666666667 0 0 1 11.626666666666667 -11.626666666666667 11.84 11.84 0 0 1 10.666666666666666 7.1466666666666665 13.333333333333332 13.333333333333332 0 0 0 24.64 -10.666666666666666 37.97333333333333 37.97333333333333 0 0 0 -20.37333333333333 -20.05333333333333 2.6666666666666665 2.6666666666666665 0 0 1 -1.5999999999999999 -2.453333333333333V21.333333333333332a13.333333333333332 13.333333333333332 0 0 0 -26.666666666666664 0v7.573333333333332a2.6666666666666665 2.6666666666666665 0 0 1 -1.5999999999999999 2.453333333333333 38.18666666666667 38.18666666666667 0 0 0 -23.36 35.199999999999996c0 29.439999999999998 22.93333333333333 34.986666666666665 35.199999999999996 37.97333333333333s14.719999999999999 4.4799999999999995 14.719999999999999 11.946666666666667a11.626666666666667 11.626666666666667 0 0 1 -22.4 4.4799999999999995 13.333333333333332 13.333333333333332 0 0 0 -17.386666666666663 -7.253333333333334 13.44 13.44 0 0 0 -7.466666666666666 17.066666666666666 38.29333333333333 38.29333333333333 0 0 0 20.479999999999997 20.586666666666666 2.5599999999999996 2.5599999999999996 0 0 1 1.5999999999999999 2.453333333333333v7.466666666666666a13.333333333333332 13.333333333333332 0 0 0 13.546666666666667 13.333333333333332Z"/></g></svg>