<svg xmlns="http://www.w3.org/2000/svg" viewBox="0 0 256 256" id="User-Signal-1--Streamline-Ultimate" height="256" width="256">
  <desc>
    User Signal 1 Streamline Icon: https://streamlinehq.com
  </desc>
  <g id="User-Signal-1--Streamline-Ultimate.svg">
    <path d="M128 190.71999999999997a53.33333333333333 53.33333333333333 0 0 0 -53.33333333333333 53.86666666666666 5.333333333333333 5.333333333333333 0 0 0 5.333333333333333 5.226666666666667h96a5.333333333333333 5.333333333333333 0 0 0 5.333333333333333 -5.333333333333333 53.33333333333333 53.33333333333333 0 0 0 -15.786666666666665 -37.86666666666666A52.58666666666666 52.58666666666666 0 0 0 128 190.71999999999997Z" fill="#ffffff" stroke-width="10.6667"></path>
    <path d="M128 185.38666666666666a37.33333333333333 37.33333333333333 0 0 0 0 -74.66666666666666 37.33333333333333 37.33333333333333 0 0 0 0 74.66666666666666Z" fill="#ffffff" stroke-width="10.6667"></path>
    <path d="M188.0533333333333 71.78666666666666a85.33333333333333 85.33333333333333 0 0 0 -133.86666666666667 103.35999999999999 10.666666666666666 10.666666666666666 0 0 0 14.506666666666668 3.84 10.666666666666666 10.666666666666666 0 0 0 3.9466666666666663 -14.506666666666668 64 64 0 1 1 110.82666666666667 0 10.666666666666666 10.666666666666666 0 0 0 3.84 14.506666666666668 10.666666666666666 10.666666666666666 0 0 0 14.613333333333333 -3.84 85.33333333333333 85.33333333333333 0 0 0 -13.866666666666667 -103.35999999999999Z" fill="#ffffff" stroke-width="10.6667"></path>
    <path d="M218.13333333333333 42.666666666666664a128 128 0 0 0 -180.26666666666665 182.29333333333332A10.666666666666666 10.666666666666666 0 1 0 53.33333333333333 209.81333333333333a106.66666666666666 106.66666666666666 0 1 1 150.82666666666665 -0.6399999999999999A10.666666666666666 10.666666666666666 0 0 0 218.88 224a128 128 0 0 0 -0.7466666666666667 -181.33333333333331Z" fill="#ffffff" stroke-width="10.6667"></path>
  </g>
</svg>