<svg xmlns="http://www.w3.org/2000/svg" viewBox="0 0 256 256" id="User-Multiple-Male-Female--Streamline-Ultimate" height="256" width="256">
  <desc>
    User Multiple Male Female Streamline Icon: https://streamlinehq.com
  </desc>
  <g id="User-Multiple-Male-Female--Streamline-Ultimate.svg">
    <path d="M128 96a58.773333333333326 58.773333333333326 0 0 0 -58.666666666666664 58.666666666666664v32a5.333333333333333 5.333333333333333 0 0 0 5.333333333333333 5.333333333333333h19.306666666666665a2.6666666666666665 2.6666666666666665 0 0 1 2.6666666666666665 2.453333333333333l4.8 56.74666666666667A5.226666666666667 5.226666666666667 0 0 0 106.66666666666666 256h42.666666666666664a5.226666666666667 5.226666666666667 0 0 0 5.333333333333333 -4.8l5.333333333333333 -56.85333333333333a2.5599999999999996 2.5599999999999996 0 0 1 2.5599999999999996 -2.453333333333333H181.33333333333331a5.333333333333333 5.333333333333333 0 0 0 5.333333333333333 -5.333333333333333v-32A58.666666666666664 58.666666666666664 0 0 0 128 96Zm8 63.46666666666667a8 8 0 0 1 -16 0V117.33333333333333a8 8 0 0 1 16 0Z" fill="#ffffff" stroke-width="10.6667"></path>
    <path d="M128 86.82666666666667a43.413333333333334 43.413333333333334 0 1 0 -43.30666666666666 -43.30666666666666A43.413333333333334 43.413333333333334 0 0 0 128 86.82666666666667Zm-20.479999999999997 -50.986666666666665a2.453333333333333 2.453333333333333 0 0 1 1.5999999999999999 -1.5999999999999999 2.7733333333333334 2.7733333333333334 0 0 1 2.2399999999999998 0 53.33333333333333 53.33333333333333 0 0 0 27.839999999999996 8.426666666666666 46.93333333333334 46.93333333333334 0 0 0 7.786666666666666 -0.6399999999999999A2.453333333333333 2.453333333333333 0 0 1 149.33333333333331 42.666666666666664a2.6666666666666665 2.6666666666666665 0 0 1 0.96 2.0266666666666664 21.333333333333332 21.333333333333332 0 0 1 -21.973333333333333 21.333333333333332 22.08 22.08 0 0 1 -22.29333333333333 -22.506666666666664 20.159999999999997 20.159999999999997 0 0 1 1.4933333333333334 -7.68Z" fill="#ffffff" stroke-width="10.6667"></path>
    <path d="M77.65333333333334 116.16a2.986666666666667 2.986666666666667 0 0 0 0 -2.7733333333333334C65.6 67.19999999999999 66.13333333333333 66.56 58.879999999999995 59.73333333333333a3.413333333333333 3.413333333333333 0 0 0 -2.5599999999999996 -0.8533333333333333 3.1999999999999997 3.1999999999999997 0 0 0 -2.3466666666666667 1.4933333333333334L42.666666666666664 77.97333333333333a3.093333333333333 3.093333333333333 0 0 1 -5.333333333333333 0l-10.666666666666666 -17.706666666666663a3.413333333333333 3.413333333333333 0 0 0 -2.2399999999999998 -1.4933333333333334 3.1999999999999997 3.1999999999999997 0 0 0 -3.093333333333333 0.8533333333333333c-7.466666666666666 6.826666666666666 -6.933333333333334 7.68 -19.52 53.33333333333333a3.3066666666666666 3.3066666666666666 0 0 0 0.5333333333333333 2.7733333333333334 3.3066666666666666 3.3066666666666666 0 0 0 2.6666666666666665 1.5999999999999999h11.626666666666667a5.333333333333333 5.333333333333333 0 0 1 5.333333333333333 4.373333333333333l5.333333333333333 35.733333333333334a3.3066666666666666 3.3066666666666666 0 0 0 3.093333333333333 2.5599999999999996h19.2a3.1999999999999997 3.1999999999999997 0 0 0 3.093333333333333 -2.5599999999999996l5.4399999999999995 -35.733333333333334a5.226666666666667 5.226666666666667 0 0 1 5.226666666666667 -4.373333333333333h11.84a3.093333333333333 3.093333333333333 0 0 0 2.453333333333333 -1.1733333333333333Z" fill="#ffffff" stroke-width="10.6667"></path>
    <path d="M13.226666666666667 26.77333333333333a26.666666666666664 26.666666666666664 0 1 0 53.33333333333333 0 26.666666666666664 26.666666666666664 0 1 0 -53.33333333333333 0" fill="#ffffff" stroke-width="10.6667"></path>
    <path d="M254.07999999999998 113.38666666666667c-12.586666666666666 -46.08 -12.053333333333331 -46.93333333333334 -19.52 -53.33333333333333a3.1999999999999997 3.1999999999999997 0 0 0 -2.5599999999999996 -0.8533333333333333 3.413333333333333 3.413333333333333 0 0 0 -2.2399999999999998 1.4933333333333334l-11.2 17.28a2.88 2.88 0 0 1 -2.6666666666666665 1.4933333333333334 3.093333333333333 3.093333333333333 0 0 1 -2.5599999999999996 -1.4933333333333334l-10.666666666666666 -17.599999999999998a3.1999999999999997 3.1999999999999997 0 0 0 -2.3466666666666667 -1.4933333333333334 3.413333333333333 3.413333333333333 0 0 0 -2.5599999999999996 0.8533333333333333c-7.253333333333334 6.826666666666666 -6.72 7.466666666666666 -19.306666666666665 53.33333333333333a2.986666666666667 2.986666666666667 0 0 0 0 2.7733333333333334 3.093333333333333 3.093333333333333 0 0 0 2.88 1.4933333333333334h11.84a5.226666666666667 5.226666666666667 0 0 1 5.226666666666667 4.373333333333333l5.4399999999999995 35.733333333333334a3.1999999999999997 3.1999999999999997 0 0 0 3.093333333333333 2.5599999999999996h19.2a3.3066666666666666 3.3066666666666666 0 0 0 3.093333333333333 -2.5599999999999996l5.333333333333333 -35.733333333333334a5.333333333333333 5.333333333333333 0 0 1 5.333333333333333 -4.373333333333333h11.626666666666667a3.52 3.52 0 0 0 2.5599999999999996 -1.2799999999999998 3.3066666666666666 3.3066666666666666 0 0 0 0 -2.6666666666666665Z" fill="#ffffff" stroke-width="10.6667"></path>
    <path d="M189.44 26.77333333333333a26.666666666666664 26.666666666666664 0 1 0 53.33333333333333 0 26.666666666666664 26.666666666666664 0 1 0 -53.33333333333333 0" fill="#ffffff" stroke-width="10.6667"></path>
  </g>
</svg>