<svg xmlns="http://www.w3.org/2000/svg" id="User-Network--Streamline-Ultimate" width="256" height="256" viewBox="0 0 256 256"><desc>User Network Streamline Icon: https://streamlinehq.com</desc><g id="User-Network--Streamline-Ultimate.svg"><path fill="#fff" stroke-width="10.667" d="M229.22666666666663 0A26.666666666666664 26.666666666666664 0 0 0 202.66666666666666 26.666666666666664a28.05333333333333 28.05333333333333 0 0 0 1.3866666666666667 8.533333333333333 2.453333333333333 2.453333333333333 0 0 1 -0.6399999999999999 2.6666666666666665l-24.319999999999997 24.106666666666662a10.666666666666666 10.666666666666666 0 0 0 7.466666666666666 18.24 10.666666666666666 10.666666666666666 0 0 0 7.573333333333332 -3.093333333333333L218.66666666666666 53.33333333333333a2.453333333333333 2.453333333333333 0 0 1 2.6666666666666665 -0.6399999999999999 27.199999999999996 27.199999999999996 0 0 0 7.893333333333333 1.1733333333333333 26.666666666666664 26.666666666666664 0 0 0 0 -53.33333333333333Z"/><path fill="#fff" stroke-width="10.667" d="M229.33333333333331 202.66666666666666a28.05333333333333 28.05333333333333 0 0 0 -8.533333333333333 1.3866666666666667 2.453333333333333 2.453333333333333 0 0 1 -2.6666666666666665 -0.6399999999999999l-19.093333333333334 -19.2a10.666666666666666 10.666666666666666 0 0 0 -15.146666666666665 15.04l19.306666666666665 19.413333333333334a2.6666666666666665 2.6666666666666665 0 0 1 0.6399999999999999 2.7733333333333334 27.199999999999996 27.199999999999996 0 0 0 -1.1733333333333333 7.893333333333333 26.666666666666664 26.666666666666664 0 1 0 26.666666666666664 -26.666666666666664Z"/><path fill="#fff" stroke-width="10.667" d="M76.90666666666667 61.97333333333333 52.693333333333335 37.86666666666666a2.453333333333333 2.453333333333333 0 0 1 -0.6399999999999999 -2.6666666666666665A28.05333333333333 28.05333333333333 0 0 0 53.33333333333333 26.666666666666664 26.666666666666664 26.666666666666664 0 1 0 26.77333333333333 53.33333333333333a27.199999999999996 27.199999999999996 0 0 0 7.893333333333333 -1.1733333333333333 2.6666666666666665 2.6666666666666665 0 0 1 2.7733333333333334 1.1733333333333333L61.86666666666666 77.12a10.666666666666666 10.666666666666666 0 0 0 7.573333333333332 3.093333333333333 10.666666666666666 10.666666666666666 0 0 0 7.573333333333332 -3.1999999999999997 10.666666666666666 10.666666666666666 0 0 0 -0.10666666666666666 -15.04Z"/><path fill="#fff" stroke-width="10.667" d="M26.666666666666664 256A26.666666666666664 26.666666666666664 0 0 0 53.33333333333333 229.33333333333331a27.199999999999996 27.199999999999996 0 0 0 -1.1733333333333333 -7.893333333333333 2.453333333333333 2.453333333333333 0 0 1 1.1733333333333333 -2.6666666666666665l19.306666666666665 -19.52a10.666666666666666 10.666666666666666 0 0 0 -15.146666666666665 -15.04l-19.093333333333334 19.2a2.453333333333333 2.453333333333333 0 0 1 -2.6666666666666665 0.6399999999999999A28.05333333333333 28.05333333333333 0 0 0 26.666666666666664 202.66666666666666a26.666666666666664 26.666666666666664 0 0 0 0 53.33333333333333Z"/><path fill="#fff" stroke-width="10.667" d="M229.22666666666663 96a26.986666666666665 26.986666666666665 0 0 0 -23.786666666666665 14.506666666666668 2.453333333333333 2.453333333333333 0 0 1 -2.3466666666666667 1.4933333333333334H192a10.666666666666666 10.666666666666666 0 0 0 0 21.333333333333332h10.666666666666666a2.453333333333333 2.453333333333333 0 0 1 2.3466666666666667 1.4933333333333334A26.666666666666664 26.666666666666664 0 1 0 229.22666666666663 96Z"/><path fill="#fff" stroke-width="10.667" d="M53.33333333333333 112a2.5599999999999996 2.5599999999999996 0 0 1 -2.3466666666666667 -1.4933333333333334A26.986666666666665 26.986666666666665 0 0 0 26.77333333333333 96a26.666666666666664 26.666666666666664 0 1 0 23.786666666666665 38.82666666666667 2.5599999999999996 2.5599999999999996 0 0 1 2.7733333333333334 -1.4933333333333334h10.666666666666666a10.666666666666666 10.666666666666666 0 0 0 0 -21.333333333333332Z"/><path fill="#fff" stroke-width="10.667" d="M97.49333333333334 75.94666666666666A30.506666666666664 30.506666666666664 0 1 0 128 45.44a30.506666666666664 30.506666666666664 0 0 0 -30.506666666666664 30.506666666666664Z"/><path fill="#fff" stroke-width="10.667" d="M87.14666666666666 173.44h81.70666666666666a12.159999999999998 12.159999999999998 0 0 0 11.733333333333334 -15.68 54.93333333333334 54.93333333333334 0 0 0 -105.17333333333332 0 12.159999999999998 12.159999999999998 0 0 0 11.733333333333334 15.68Z"/></g></svg>