<svg xmlns="http://www.w3.org/2000/svg" viewBox="0 0 256 256" id="Vectors-Anchor-Rectangle--Streamline-Ultimate" height="256" width="256">
  <desc>
    Vectors Anchor Rectangle Streamline Icon: https://streamlinehq.com
  </desc>
  <g id="Vectors-Anchor-Rectangle--Streamline-Ultimate.svg">
    <path d="M216 106.66666666666666h16s2.6666666666666665 0 2.6666666666666665 2.6666666666666665v37.33333333333333s0 2.6666666666666665 -2.6666666666666665 2.6666666666666665h-16s-2.6666666666666665 0 -2.6666666666666665 -2.6666666666666665v-37.33333333333333s0 -2.6666666666666665 2.6666666666666665 -2.6666666666666665" fill="#ffffff" stroke-width="10.6667"></path>
    <path d="M77.86666666666666 39.68a2.6666666666666665 2.6666666666666665 0 0 0 1.8133333333333335 2.986666666666667L170.66666666666666 68.26666666666667a2.6666666666666665 2.6666666666666665 0 0 0 2.0266666666666664 0 2.453333333333333 2.453333333333333 0 0 0 1.2799999999999998 -1.5999999999999999l4.266666666666667 -15.36a2.6666666666666665 2.6666666666666665 0 0 0 -1.8133333333333335 -3.3066666666666666L85.33333333333333 22.4a2.6666666666666665 2.6666666666666665 0 0 0 -2.0266666666666664 0 2.453333333333333 2.453333333333333 0 0 0 -1.2799999999999998 1.5999999999999999Z" fill="#ffffff" stroke-width="10.6667"></path>
    <path d="M24 80h16s2.6666666666666665 0 2.6666666666666665 2.6666666666666665v90.66666666666666s0 2.6666666666666665 -2.6666666666666665 2.6666666666666665h-16s-2.6666666666666665 0 -2.6666666666666665 -2.6666666666666665v-90.66666666666666s0 -2.6666666666666665 2.6666666666666665 -2.6666666666666665" fill="#ffffff" stroke-width="10.6667"></path>
    <path d="M79.67999999999999 213.33333333333331a2.6666666666666665 2.6666666666666665 0 0 0 -1.8133333333333335 3.3066666666666666l4.266666666666667 15.36a2.453333333333333 2.453333333333333 0 0 0 1.2799999999999998 1.5999999999999999 2.6666666666666665 2.6666666666666665 0 0 0 2.0266666666666664 0l90.88 -25.28a2.6666666666666665 2.6666666666666665 0 0 0 1.8133333333333335 -3.3066666666666666l-4.266666666666667 -15.36a2.453333333333333 2.453333333333333 0 0 0 -1.2799999999999998 -1.5999999999999999 2.6666666666666665 2.6666666666666665 0 0 0 -2.0266666666666664 0Z" fill="#ffffff" stroke-width="10.6667"></path>
    <path d="M21.333333333333332 0h21.333333333333332s21.333333333333332 0 21.333333333333332 21.333333333333332v21.333333333333332s0 21.333333333333332 -21.333333333333332 21.333333333333332H21.333333333333332S0 64 0 42.666666666666664V21.333333333333332s0 -21.333333333333332 21.333333333333332 -21.333333333333332" fill="#ffffff" stroke-width="10.6667"></path>
    <path d="M213.33333333333331 26.666666666666664h21.333333333333332s21.333333333333332 0 21.333333333333332 21.333333333333332v21.333333333333332s0 21.333333333333332 -21.333333333333332 21.333333333333332h-21.333333333333332s-21.333333333333332 0 -21.333333333333332 -21.333333333333332v-21.333333333333332s0 -21.333333333333332 21.333333333333332 -21.333333333333332" fill="#ffffff" stroke-width="10.6667"></path>
    <path d="M21.333333333333332 192h21.333333333333332s21.333333333333332 0 21.333333333333332 21.333333333333332v21.333333333333332s0 21.333333333333332 -21.333333333333332 21.333333333333332H21.333333333333332s-21.333333333333332 0 -21.333333333333332 -21.333333333333332v-21.333333333333332s0 -21.333333333333332 21.333333333333332 -21.333333333333332" fill="#ffffff" stroke-width="10.6667"></path>
    <path d="M213.33333333333331 165.33333333333331h21.333333333333332s21.333333333333332 0 21.333333333333332 21.333333333333332v21.333333333333332s0 21.333333333333332 -21.333333333333332 21.333333333333332h-21.333333333333332s-21.333333333333332 0 -21.333333333333332 -21.333333333333332v-21.333333333333332s0 -21.333333333333332 21.333333333333332 -21.333333333333332" fill="#ffffff" stroke-width="10.6667"></path>
  </g>
</svg>