<svg xmlns="http://www.w3.org/2000/svg" viewBox="0 0 256 256" id="Vectors-Pen-Add-1--Streamline-Ultimate" height="256" width="256">
  <desc>
    Vectors Pen Add 1 Streamline Icon: https://streamlinehq.com
  </desc>
  <g id="Vectors-Pen-Add-1--Streamline-Ultimate.svg">
    <path d="M252.90666666666667 91.2 192 29.759999999999998a10.666666666666666 10.666666666666666 0 0 0 -16.21333333333333 1.4933333333333334l-48 68.37333333333333a10.666666666666666 10.666666666666666 0 0 0 0.21333333333333332 13.76l40.85333333333333 40.85333333333333a10.666666666666666 10.666666666666666 0 0 0 13.76 1.1733333333333333l68.37333333333333 -48a10.666666666666666 10.666666666666666 0 0 0 1.92 -16.21333333333333Z" fill="#ffffff" stroke-width="10.6667"></path>
    <path d="M112.53333333333333 119.03999999999999a5.226666666666667 5.226666666666667 0 0 0 -5.973333333333334 -1.0666666666666667l-56.32 25.493333333333332a5.333333333333333 5.333333333333333 0 0 0 -3.093333333333333 4.906666666666666c0 0.6399999999999999 0 70.29333333333332 -19.626666666666665 99.30666666666667a5.4399999999999995 5.4399999999999995 0 0 0 7.466666666666666 7.466666666666666c29.013333333333335 -19.413333333333334 98.66666666666666 -19.626666666666665 99.30666666666667 -19.626666666666665a5.333333333333333 5.333333333333333 0 0 0 4.906666666666666 -3.093333333333333l25.493333333333332 -56.32a5.226666666666667 5.226666666666667 0 0 0 -1.0666666666666667 -5.973333333333334Zm6.186666666666666 74.66666666666666a21.333333333333332 21.333333333333332 0 1 1 0 -30.186666666666667 21.333333333333332 21.333333333333332 0 0 1 0 30.613333333333333Z" fill="#ffffff" stroke-width="10.6667"></path>
    <path d="M37.33333333333333 88a13.333333333333332 13.333333333333332 0 0 0 26.666666666666664 0v-21.333333333333332A2.6666666666666665 2.6666666666666665 0 0 1 66.66666666666666 64h21.333333333333332a13.333333333333332 13.333333333333332 0 0 0 0 -26.666666666666664h-21.333333333333332A2.6666666666666665 2.6666666666666665 0 0 1 64 34.666666666666664v-21.333333333333332a13.333333333333332 13.333333333333332 0 0 0 -26.666666666666664 0v21.333333333333332a2.6666666666666665 2.6666666666666665 0 0 1 -2.6666666666666665 2.6666666666666665h-21.333333333333332a13.333333333333332 13.333333333333332 0 0 0 0 26.666666666666664h21.333333333333332a2.6666666666666665 2.6666666666666665 0 0 1 2.6666666666666665 2.6666666666666665Z" fill="#ffffff" stroke-width="10.6667"></path>
  </g>
</svg>