<svg xmlns="http://www.w3.org/2000/svg" viewBox="0 0 256 256" id="Vegetable-Onion--Streamline-Ultimate" height="256" width="256">
  <desc>
    Vegetable Onion Streamline Icon: https://streamlinehq.com
  </desc>
  <g id="Vegetable-Onion--Streamline-Ultimate.svg">
    <path d="M42.666666666666664 160c0 -46.72 10.666666666666666 -73.06666666666666 29.973333333333333 -94.18666666666667C34.45333333333333 83.73333333333332 0 108.37333333333333 0 160c0 41.28 32.959999999999994 75.73333333333332 80.53333333333333 89.70666666666666A114.88 114.88 0 0 1 42.666666666666664 160Z" fill="#ffffff" stroke-width="10.6667"></path>
    <path d="M256 160c0 -51.199999999999996 -34.45333333333333 -75.84 -72.74666666666667 -93.65333333333332C202.66666666666666 87.03999999999999 213.33333333333331 113.38666666666667 213.33333333333331 160a114.88 114.88 0 0 1 -37.76 89.17333333333332C223.04 235.30666666666664 256 200.8533333333333 256 160Z" fill="#ffffff" stroke-width="10.6667"></path>
    <path d="M165.76 160c0 41.28 -7.1466666666666665 74.66666666666666 -18.346666666666664 92.90666666666667 32 -10.666666666666666 55.14666666666666 -47.67999999999999 55.14666666666666 -92.90666666666667 0 -56.32 -14.826666666666664 -79.89333333333333 -45.86666666666666 -103.25333333333333l1.7066666666666666 -11.946666666666667 5.119999999999999 -34.13333333333333a5.333333333333333 5.333333333333333 0 1 0 -10.666666666666666 -1.4933333333333334l-5.226666666666667 35.41333333333333 -0.6399999999999999 4.4799999999999995 0 2.453333333333333 -7.253333333333334 -1.5999999999999999c13.226666666666667 17.066666666666666 26.026666666666664 61.54666666666666 26.026666666666664 110.08Z" fill="#ffffff" stroke-width="10.6667"></path>
    <path d="M99.30666666666667 56.85333333333333C68.26666666666667 80.21333333333332 53.33333333333333 103.78666666666666 53.33333333333333 160c0 45.22666666666667 23.04 82.13333333333333 55.14666666666666 92.90666666666667C97.38666666666667 234.66666666666666 90.24000000000001 201.38666666666666 90.24000000000001 160a240.95999999999998 240.95999999999998 0 0 1 18.986666666666665 -98.98666666666665 8.853333333333332 8.853333333333332 0 0 0 0.7466666666666667 -1.3866666666666667 61.76 61.76 0 0 1 6.293333333333333 -10.133333333333333c-2.3466666666666667 0 -4.693333333333333 0.8533333333333333 -7.04 1.4933333333333334l0 -2.453333333333333 -0.6399999999999999 -4.4799999999999995L103.03999999999999 8.746666666666666a5.333333333333333 5.333333333333333 0 1 0 -10.666666666666666 1.4933333333333334l5.119999999999999 34.666666666666664Z" fill="#ffffff" stroke-width="10.6667"></path>
    <path d="M122.66666666666666 58.346666666666664c-8.746666666666666 13.76 -21.333333333333332 50.45333333333333 -21.333333333333332 101.75999999999999 0 58.56 14.4 92.26666666666667 25.28 96h3.626666666666667c10.666666666666666 -3.413333333333333 25.28 -37.12 25.28 -96a213.33333333333331 213.33333333333331 0 0 0 -21.333333333333332 -101.22666666666666v-53.33333333333333a5.333333333333333 5.333333333333333 0 0 0 -10.666666666666666 0Z" fill="#ffffff" stroke-width="10.6667"></path>
  </g>
</svg>