<svg xmlns="http://www.w3.org/2000/svg" viewBox="0 0 256 256" id="Video-Player-Movie--Streamline-Ultimate" height="256" width="256">
  <desc>
    Video Player Movie Streamline Icon: https://streamlinehq.com
  </desc>
  <g id="Video-Player-Movie--Streamline-Ultimate.svg">
    <path d="M253.33333333333331 192a2.6666666666666665 2.6666666666666665 0 0 0 2.6666666666666665 -2.6666666666666665V66.66666666666666a2.6666666666666665 2.6666666666666665 0 0 0 -2.6666666666666665 -2.6666666666666665H2.6666666666666665a2.6666666666666665 2.6666666666666665 0 0 0 -2.6666666666666665 2.6666666666666665v122.66666666666666a2.6666666666666665 2.6666666666666665 0 0 0 2.6666666666666665 2.6666666666666665ZM94.72 96a5.119999999999999 5.119999999999999 0 0 1 7.68 -4.4799999999999995l56.32 32a5.226666666666667 5.226666666666667 0 0 1 0 8.959999999999999l-56.32 32a5.119999999999999 5.119999999999999 0 0 1 -7.68 -4.4799999999999995Z" fill="#ffffff" stroke-width="10.6667"></path>
    <path d="M229.33333333333331 5.333333333333333h-202.66666666666666A26.666666666666664 26.666666666666664 0 0 0 0 32v16a5.333333333333333 5.333333333333333 0 0 0 5.333333333333333 5.333333333333333h245.33333333333331a5.333333333333333 5.333333333333333 0 0 0 5.333333333333333 -5.333333333333333V32A26.666666666666664 26.666666666666664 0 0 0 229.33333333333331 5.333333333333333Zm-189.33333333333331 32a8 8 0 1 1 8 -8 8.106666666666666 8.106666666666666 0 0 1 -8 8Zm58.666666666666664 0a8 8 0 1 1 8 -8 8.106666666666666 8.106666666666666 0 0 1 -8 8Zm58.666666666666664 0a8 8 0 1 1 8 -8 8.106666666666666 8.106666666666666 0 0 1 -8 8Zm58.666666666666664 0a8 8 0 1 1 8 -8 8.106666666666666 8.106666666666666 0 0 1 -8 8Z" fill="#ffffff" stroke-width="10.6667"></path>
    <path d="M250.66666666666666 202.66666666666666H5.333333333333333a5.333333333333333 5.333333333333333 0 0 0 -5.333333333333333 5.333333333333333V224a26.666666666666664 26.666666666666664 0 0 0 26.666666666666664 26.666666666666664h202.66666666666666A26.666666666666664 26.666666666666664 0 0 0 256 224v-16a5.333333333333333 5.333333333333333 0 0 0 -5.333333333333333 -5.333333333333333ZM40 234.66666666666666a8 8 0 1 1 8 -8 8.106666666666666 8.106666666666666 0 0 1 -8 8Zm58.666666666666664 0a8 8 0 1 1 8 -8 8.106666666666666 8.106666666666666 0 0 1 -8 8Zm58.666666666666664 0a8 8 0 1 1 8 -8 8.106666666666666 8.106666666666666 0 0 1 -8 8Zm58.666666666666664 0a8 8 0 1 1 8 -8 8.106666666666666 8.106666666666666 0 0 1 -8 8Z" fill="#ffffff" stroke-width="10.6667"></path>
  </g>
</svg>