<svg xmlns="http://www.w3.org/2000/svg" viewBox="0 0 256 256" id="Video-File-Download--Streamline-Ultimate" height="256" width="256">
  <desc>
    Video File Download Streamline Icon: https://streamlinehq.com
  </desc>
  <g id="Video-File-Download--Streamline-Ultimate.svg">
    <path d="M69.33333333333333 117.33333333333333a69.33333333333333 69.33333333333333 0 1 0 69.33333333333333 69.33333333333333A69.44 69.44 0 0 0 69.33333333333333 117.33333333333333Zm25.493333333333332 77.97333333333333 -21.333333333333332 26.666666666666664a5.4399999999999995 5.4399999999999995 0 0 1 -8.32 0l-21.333333333333332 -26.666666666666664a5.4399999999999995 5.4399999999999995 0 0 1 -0.6399999999999999 -5.653333333333333 5.333333333333333 5.333333333333333 0 0 1 4.8 -2.986666666666667h9.386666666666667a1.2799999999999998 1.2799999999999998 0 0 0 1.2799999999999998 -1.2799999999999998V154.66666666666666a10.666666666666666 10.666666666666666 0 0 1 21.333333333333332 0v30.72a1.3866666666666667 1.3866666666666667 0 0 0 1.2799999999999998 1.2799999999999998h9.386666666666667a5.333333333333333 5.333333333333333 0 0 1 4.8 2.986666666666667 5.4399999999999995 5.4399999999999995 0 0 1 -0.6399999999999999 5.653333333333333Z" fill="#ffffff" stroke-width="10.6667"></path>
    <path d="M249.70666666666665 32 224 6.293333333333333A21.333333333333332 21.333333333333332 0 0 0 208.95999999999998 0H85.33333333333333a21.333333333333332 21.333333333333332 0 0 0 -21.333333333333332 21.333333333333332v77.65333333333334a2.7733333333333334 2.7733333333333334 0 0 0 2.5599999999999996 2.6666666666666665c3.9466666666666663 0 10.666666666666666 0 15.893333333333333 0.8533333333333333A2.6666666666666665 2.6666666666666665 0 0 0 85.33333333333333 99.83999999999999V26.666666666666664a5.333333333333333 5.333333333333333 0 0 1 5.333333333333333 -5.333333333333333h116.05333333333334a5.013333333333333 5.013333333333333 0 0 1 3.733333333333333 1.5999999999999999l22.613333333333333 22.613333333333333a5.013333333333333 5.013333333333333 0 0 1 1.5999999999999999 3.733333333333333V192a5.333333333333333 5.333333333333333 0 0 1 -5.333333333333333 5.333333333333333h-73.17333333333333a2.6666666666666665 2.6666666666666665 0 0 0 -2.5599999999999996 2.2399999999999998 94.93333333333334 94.93333333333334 0 0 1 -4.266666666666667 15.573333333333332 2.5599999999999996 2.5599999999999996 0 0 0 2.453333333333333 3.52H234.66666666666666a21.333333333333332 21.333333333333332 0 0 0 21.333333333333332 -21.333333333333332V47.04A21.333333333333332 21.333333333333332 0 0 0 249.70666666666665 32Z" fill="#ffffff" stroke-width="10.6667"></path>
    <path d="M208 106.66666666666666a8.106666666666666 8.106666666666666 0 0 0 -4.266666666666667 -7.04l-62.39999999999999 -34.45333333333333a9.28 9.28 0 0 0 -8.853333333333332 0 8 8 0 0 0 -4.4799999999999995 7.04v51.519999999999996a3.093333333333333 3.093333333333333 0 0 0 0.7466666666666667 1.92 83.94666666666666 83.94666666666666 0 0 1 14.506666666666668 18.453333333333333 2.6666666666666665 2.6666666666666665 0 0 0 3.52 1.0666666666666667l56.959999999999994 -31.46666666666667a8.106666666666666 8.106666666666666 0 0 0 4.266666666666667 -7.04Z" fill="#ffffff" stroke-width="10.6667"></path>
  </g>
</svg>