<svg xmlns="http://www.w3.org/2000/svg" viewBox="0 0 256 256" id="Video-Player-Slider--Streamline-Ultimate" height="256" width="256">
  <desc>
    Video Player Slider Streamline Icon: https://streamlinehq.com
  </desc>
  <g id="Video-Player-Slider--Streamline-Ultimate.svg">
    <path d="M197.33333333333331 32h-138.66666666666666A16 16 0 0 0 42.666666666666664 48v160A16 16 0 0 0 58.666666666666664 224h138.66666666666666a16 16 0 0 0 16 -16v-160A16 16 0 0 0 197.33333333333331 32Zm-40.85333333333333 104.42666666666665 -47.36 27.626666666666665a9.6 9.6 0 0 1 -14.4 -8.426666666666666V100.37333333333333a9.6 9.6 0 0 1 14.4 -8.426666666666666l47.36 27.626666666666665a9.706666666666667 9.706666666666667 0 0 1 0 16.85333333333333Z" fill="#ffffff" stroke-width="10.6667"></path>
    <path d="M10.666666666666666 53.33333333333333a10.666666666666666 10.666666666666666 0 0 0 -10.666666666666666 10.666666666666666v133.33333333333331a10.666666666666666 10.666666666666666 0 0 0 21.333333333333332 0V64a10.666666666666666 10.666666666666666 0 0 0 -10.666666666666666 -10.666666666666666Z" fill="#ffffff" stroke-width="10.6667"></path>
    <path d="M245.33333333333331 53.33333333333333a10.666666666666666 10.666666666666666 0 0 0 -10.666666666666666 10.666666666666666v133.33333333333331a10.666666666666666 10.666666666666666 0 0 0 21.333333333333332 0V64a10.666666666666666 10.666666666666666 0 0 0 -10.666666666666666 -10.666666666666666Z" fill="#ffffff" stroke-width="10.6667"></path>
  </g>
</svg>