<svg xmlns="http://www.w3.org/2000/svg" viewBox="0 0 256 256" id="Video-Player-Laptop--Streamline-Ultimate" height="256" width="256">
  <desc>
    Video Player Laptop Streamline Icon: https://streamlinehq.com
  </desc>
  <g id="Video-Player-Laptop--Streamline-Ultimate.svg">
    <path d="M234.66666666666666 170.66666666666666h-8a2.6666666666666665 2.6666666666666665 0 0 1 -2.6666666666666665 -2.6666666666666665V60.48A28.586666666666666 28.586666666666666 0 0 0 195.51999999999998 32H60.48A28.586666666666666 28.586666666666666 0 0 0 32 60.48v107.52a2.6666666666666665 2.6666666666666665 0 0 1 -2.6666666666666665 2.6666666666666665H21.333333333333332a16 16 0 0 0 -13.546666666666667 24.53333333333333A61.22666666666667 61.22666666666667 0 0 0 59.946666666666665 224h136.10666666666665a61.22666666666667 61.22666666666667 0 0 0 52.16 -28.8A16 16 0 0 0 234.66666666666666 170.66666666666666ZM60.48 53.33333333333333h135.04a7.1466666666666665 7.1466666666666665 0 0 1 7.1466666666666665 7.1466666666666665v107.52a2.6666666666666665 2.6666666666666665 0 0 1 -2.6666666666666665 2.6666666666666665h-26.560000000000002a16.21333333333333 16.21333333333333 0 0 0 -14.293333333333333 8.853333333333332A35.626666666666665 35.626666666666665 0 0 1 128 192a35.626666666666665 35.626666666666665 0 0 1 -31.146666666666665 -12.479999999999999A15.893333333333333 15.893333333333333 0 0 0 82.56 170.66666666666666H56a2.6666666666666665 2.6666666666666665 0 0 1 -2.6666666666666665 -2.6666666666666665V60.48A7.1466666666666665 7.1466666666666665 0 0 1 60.48 53.33333333333333Z" fill="#ffffff" stroke-width="10.6667"></path>
    <path d="m108.26666666666667 143.35999999999999 48.63999999999999 -18.773333333333333a13.653333333333332 13.653333333333332 0 0 0 0 -25.173333333333332l-48.63999999999999 -18.773333333333333A9.066666666666666 9.066666666666666 0 0 0 96 89.27999999999999v45.44a9.066666666666666 9.066666666666666 0 0 0 12.266666666666666 8.64Z" fill="#ffffff" stroke-width="10.6667"></path>
  </g>
</svg>