<svg xmlns="http://www.w3.org/2000/svg" fill="none" viewBox="0 0 256 256" id="Video-Call--Streamline-Ultimate" height="256" width="256">
  <desc>
    Video Call Streamline Icon: https://streamlinehq.com
  </desc>
  <path fill="#ffffff" fill-rule="evenodd" d="M36.77088 215.96373333333332c-14.727573333333334 0 -26.666709333333333 -11.938133333333333 -26.666709333333333 -26.666666666666664V66.69792c0 -14.727573333333334 11.939029333333332 -26.666666666666664 26.666709333333333 -26.666666666666664H161.7216c14.727466666666666 0 26.666666666666664 11.939093333333332 26.666666666666664 26.666666666666664v27.200426666666665l33.313066666666664 -19.863466666666667c10.6656 -6.359146666666666 24.194133333333333 1.3255466666666667 24.194133333333333 13.742506666666666v80.47434666666666c0 12.417066666666665 -13.528533333333332 20.1024 -24.194133333333333 13.742933333333333l-33.313066666666664 -19.863466666666667v27.165866666666666c0 14.728533333333333 -11.9392 26.666666666666664 -26.666666666666664 26.666666666666664H36.77088Zm32.30517333333333 -81.43146666666667c-1.74848 -4.0576 -6.455146666666666 -5.929599999999999 -10.512746666666665 -4.181333333333333 -4.0576 1.7482666666666664 -5.929493333333333 6.455466666666666 -4.181013333333333 10.513066666666667 7.4778666666666656 17.3536 24.743893333333332 29.5264 44.87146666666666 29.5264 20.12757333333333 0 37.39370666666667 -12.172799999999999 44.87104 -29.5264 1.7493333333333334 -4.0576 -0.12266666666666666 -8.7648 -4.180266666666666 -10.513066666666667 -4.0576 -1.7482666666666664 -8.7648 0.12373333333333332 -10.513066666666667 4.181333333333333 -5.039999999999999 11.696 -16.66453333333333 19.85813333333333 -30.177706666666666 19.85813333333333 -13.513066666666667 0 -25.137706666666666 -8.162133333333333 -30.177706666666666 -19.85813333333333Zm-5.13856 -25.126399999999997c6.754026666666666 0 12.229119999999998 -5.474773333333333 12.229119999999998 -12.2288 0 -6.753919999999999 -5.475093333333334 -12.229119999999998 -12.229119999999998 -12.229119999999998 -6.754026666666666 0 -12.229119999999998 5.475199999999999 -12.229119999999998 12.229119999999998 0 6.754026666666666 5.475093333333334 12.2288 12.229119999999998 12.2288Zm82.85397333333333 -12.2288c0 6.754026666666666 -5.475199999999999 12.2288 -12.229333333333333 12.2288 -6.754133333333333 0 -12.228266666666666 -5.474773333333333 -12.228266666666666 -12.2288 0 -6.753919999999999 5.474133333333333 -12.229119999999998 12.228266666666666 -12.229119999999998 6.754133333333333 0 12.229333333333333 5.475199999999999 12.229333333333333 12.229119999999998Z" clip-rule="evenodd" stroke-width="10.6667"></path>
</svg>