<svg xmlns="http://www.w3.org/2000/svg" id="Video-File-Star--Streamline-Ultimate" width="256" height="256" viewBox="0 0 256 256"><desc>Video File Star Streamline Icon: https://streamlinehq.com</desc><g id="Video-File-Star--Streamline-Ultimate.svg"><path fill="#fff" stroke-width="10.667" d="M134.50666666666666 182.82666666666665a13.653333333333332 13.653333333333332 0 0 0 3.1999999999999997 -14.719999999999999 13.12 13.12 0 0 0 -12.479999999999999 -8.106666666666666h-26.666666666666664a2.6666666666666665 2.6666666666666665 0 0 1 -2.5599999999999996 -1.5999999999999999l-14.293333333333333 -33.28A13.76 13.76 0 0 0 69.33333333333333 117.33333333333333a13.973333333333333 13.973333333333333 0 0 0 -12.479999999999999 7.786666666666666L42.666666666666664 158.39999999999998a2.6666666666666665 2.6666666666666665 0 0 1 -2.453333333333333 1.5999999999999999H13.44a13.12 13.12 0 0 0 -12.479999999999999 8.106666666666666 13.76 13.76 0 0 0 3.413333333333333 14.933333333333332l23.46666666666667 20.799999999999997a2.7733333333333334 2.7733333333333334 0 0 1 0.6399999999999999 3.093333333333333l-13.013333333333332 29.973333333333333a13.226666666666667 13.226666666666667 0 0 0 3.3066666666666666 15.466666666666665 14.506666666666668 14.506666666666668 0 0 0 16.106666666666666 1.8133333333333335l33.17333333333333 -18.666666666666664a2.2399999999999998 2.2399999999999998 0 0 1 2.5599999999999996 0l33.28 18.666666666666664a13.76 13.76 0 0 0 19.413333333333334 -17.28l-13.12 -29.973333333333333a2.7733333333333334 2.7733333333333334 0 0 1 0.7466666666666667 -3.093333333333333Z"/><path fill="#fff" stroke-width="10.667" d="M249.70666666666665 32 224 6.186666666666666A21.333333333333332 21.333333333333332 0 0 0 208.8533333333333 0H85.33333333333333a21.333333333333332 21.333333333333332 0 0 0 -21.333333333333332 21.333333333333332v72.42666666666666a2.6666666666666665 2.6666666666666665 0 0 0 2.453333333333333 2.2399999999999998 88.64 88.64 0 0 1 15.466666666666665 2.2399999999999998A2.6666666666666665 2.6666666666666665 0 0 0 85.33333333333333 96V26.666666666666664a5.333333333333333 5.333333333333333 0 0 1 5.333333333333333 -5.333333333333333h116.05333333333334a5.013333333333333 5.013333333333333 0 0 1 3.733333333333333 1.5999999999999999l22.613333333333333 22.613333333333333a5.013333333333333 5.013333333333333 0 0 1 1.5999999999999999 3.733333333333333V192a5.333333333333333 5.333333333333333 0 0 1 -5.333333333333333 5.333333333333333h-78.29333333333332a2.6666666666666665 2.6666666666666665 0 0 0 -1.7066666666666666 0.6399999999999999l-13.12 11.84a1.92 1.92 0 0 0 -0.6399999999999999 1.92l2.5599999999999996 5.866666666666667a2.1333333333333333 2.1333333333333333 0 0 0 2.0266666666666664 1.0666666666666667H234.66666666666666a21.333333333333332 21.333333333333332 0 0 0 21.333333333333332 -21.333333333333332V47.04A21.333333333333332 21.333333333333332 0 0 0 249.70666666666665 32Z"/><path fill="#fff" stroke-width="10.667" d="M144.74666666666667 144.64a2.453333333333333 2.453333333333333 0 0 0 2.6666666666666665 0l56.32 -31.146666666666665a7.786666666666666 7.786666666666666 0 0 0 4.266666666666667 -6.933333333333334 8.106666666666666 8.106666666666666 0 0 0 -4.266666666666667 -7.04l-62.39999999999999 -34.346666666666664a9.28 9.28 0 0 0 -8.853333333333332 0 8 8 0 0 0 -4.4799999999999995 7.04v64a2.453333333333333 2.453333333333333 0 0 0 2.2399999999999998 2.5599999999999996 34.346666666666664 34.346666666666664 0 0 1 14.506666666666668 5.866666666666667Z"/></g></svg>