<svg xmlns="http://www.w3.org/2000/svg" id="Video-Player-Album--Streamline-Ultimate" width="256" height="256" viewBox="0 0 256 256"><desc>Video Player Album Streamline Icon: https://streamlinehq.com</desc><g id="Video-Player-Album--Streamline-Ultimate.svg"><path fill="#fff" stroke-width="10.667" d="M256 128a96 96 0 0 0 -77.33333333333333 -94.18666666666667 2.453333333333333 2.453333333333333 0 0 0 -2.3466666666666667 0.7466666666666667 2.2399999999999998 2.2399999999999998 0 0 0 -0.7466666666666667 2.2399999999999998 35.306666666666665 35.306666666666665 0 0 1 0 5.866666666666667v64a2.5599999999999996 2.5599999999999996 0 0 0 2.3466666666666667 2.5599999999999996 18.666666666666664 18.666666666666664 0 0 1 0 37.12 2.5599999999999996 2.5599999999999996 0 0 0 -2.3466666666666667 2.5599999999999996v64a35.306666666666665 35.306666666666665 0 0 1 0 5.866666666666667 2.2399999999999998 2.2399999999999998 0 0 0 0.7466666666666667 2.2399999999999998 2.453333333333333 2.453333333333333 0 0 0 2.3466666666666667 0.7466666666666667A96 96 0 0 0 256 128Z"/><path fill="#fff" stroke-width="10.667" d="M138.66666666666666 234.66666666666666a21.333333333333332 21.333333333333332 0 0 0 21.333333333333332 -21.333333333333332V42.666666666666664a21.333333333333332 21.333333333333332 0 0 0 -21.333333333333332 -21.333333333333332H21.333333333333332a21.333333333333332 21.333333333333332 0 0 0 -21.333333333333332 21.333333333333332v170.66666666666666a21.333333333333332 21.333333333333332 0 0 0 21.333333333333332 21.333333333333332Zm-75.84 -75.62666666666667A10.666666666666666 10.666666666666666 0 0 1 48 149.33333333333331v-42.666666666666664a10.666666666666666 10.666666666666666 0 0 1 14.826666666666664 -9.6l41.17333333333333 18.56a13.76 13.76 0 0 1 0 24.959999999999997Z"/></g></svg>