<svg xmlns="http://www.w3.org/2000/svg" viewBox="0 0 256 256" id="Video-Edit-Magic-Wand--Streamline-Ultimate" height="256" width="256">
  <desc>
    Video Edit Magic Wand Streamline Icon: https://streamlinehq.com
  </desc>
  <g id="Video-Edit-Magic-Wand--Streamline-Ultimate.svg">
    <path d="M103.14666666666666 238.61333333333334a2.6666666666666665 2.6666666666666665 0 0 0 0 -2.6666666666666665 2.5599999999999996 2.5599999999999996 0 0 0 -2.3466666666666667 -1.2799999999999998H37.33333333333333a5.333333333333333 5.333333333333333 0 0 1 -5.333333333333333 -5.333333333333333v-42.666666666666664a5.333333333333333 5.333333333333333 0 0 1 5.333333333333333 -5.333333333333333h85.33333333333333a5.333333333333333 5.333333333333333 0 0 1 5.333333333333333 5.333333333333333 1.2799999999999998 1.2799999999999998 0 0 0 0.96 1.2799999999999998 1.2799999999999998 1.2799999999999998 0 0 0 1.4933333333333334 -0.6399999999999999L160 132.58666666666664a2.88 2.88 0 0 0 0 -1.2799999999999998V10.666666666666666a10.666666666666666 10.666666666666666 0 0 0 -10.666666666666666 -10.666666666666666H10.666666666666666a10.666666666666666 10.666666666666666 0 0 0 -10.666666666666666 10.666666666666666v234.66666666666666a10.666666666666666 10.666666666666666 0 0 0 10.666666666666666 10.666666666666666h81.6a2.6666666666666665 2.6666666666666665 0 0 0 2.3466666666666667 -1.3866666666666667ZM128 154.66666666666666a5.333333333333333 5.333333333333333 0 0 1 -5.333333333333333 5.333333333333333h-85.33333333333333a5.333333333333333 5.333333333333333 0 0 1 -5.333333333333333 -5.333333333333333V106.66666666666666a5.333333333333333 5.333333333333333 0 0 1 5.333333333333333 -5.333333333333333h85.33333333333333a5.333333333333333 5.333333333333333 0 0 1 5.333333333333333 5.333333333333333ZM128 74.66666666666666a5.333333333333333 5.333333333333333 0 0 1 -5.333333333333333 5.333333333333333h-85.33333333333333A5.333333333333333 5.333333333333333 0 0 1 32 74.66666666666666V26.666666666666664a5.333333333333333 5.333333333333333 0 0 1 5.333333333333333 -5.333333333333333h85.33333333333333a5.333333333333333 5.333333333333333 0 0 1 5.333333333333333 5.333333333333333Z" fill="#ffffff" stroke-width="10.6667"></path>
    <path d="M161.70666666666665 168.42666666666665a2.6666666666666665 2.6666666666666665 0 0 0 -3.626666666666667 1.1733333333333333l-43.946666666666665 82.45333333333333a2.6666666666666665 2.6666666666666665 0 0 0 0 2.6666666666666665 2.88 2.88 0 0 0 2.3466666666666667 1.2799999999999998h42.666666666666664a2.5599999999999996 2.5599999999999996 0 0 0 2.3466666666666667 -1.3866666666666667l34.666666666666664 -64.96a2.6666666666666665 2.6666666666666665 0 0 0 -1.0666666666666667 -3.626666666666667Z" fill="#ffffff" stroke-width="10.6667"></path>
    <path d="M220.58666666666664 143.04a10.666666666666666 10.666666666666666 0 0 0 -4.373333333333333 -14.4l-18.88 -10.026666666666666a10.666666666666666 10.666666666666666 0 0 0 -14.4 4.373333333333333l-14.826666666666664 27.733333333333334a2.6666666666666665 2.6666666666666665 0 0 0 1.1733333333333333 3.626666666666667L202.66666666666666 171.94666666666666a2.7733333333333334 2.7733333333333334 0 0 0 3.626666666666667 -1.1733333333333333Z" fill="#ffffff" stroke-width="10.6667"></path>
    <path d="m175.25333333333333 32 2.7733333333333334 0A16.32 16.32 0 0 1 192 45.97333333333333l0 2.7733333333333334a5.4399999999999995 5.4399999999999995 0 0 0 10.666666666666666 0l0 -2.7733333333333334A16.32 16.32 0 0 1 216.64 32l2.7733333333333334 0a5.4399999999999995 5.4399999999999995 0 0 0 0 -10.666666666666666l-2.7733333333333334 0A16.32 16.32 0 0 1 202.66666666666666 7.359999999999999l0 -2.7733333333333334a5.4399999999999995 5.4399999999999995 0 0 0 -10.666666666666666 0l0 2.7733333333333334A16.32 16.32 0 0 1 178.02666666666667 21.333333333333332l-2.7733333333333334 0a5.4399999999999995 5.4399999999999995 0 0 0 0 10.666666666666666Z" fill="#ffffff" stroke-width="10.6667"></path>
    <path d="m251.41333333333333 74.66666666666666 -2.7733333333333334 0A16.32 16.32 0 0 1 234.66666666666666 60.693333333333335l0 -2.7733333333333334a5.4399999999999995 5.4399999999999995 0 0 0 -10.666666666666666 0l0 2.7733333333333334A16.32 16.32 0 0 1 210.02666666666667 74.66666666666666l-2.7733333333333334 0a5.4399999999999995 5.4399999999999995 0 0 0 0 10.666666666666666l2.7733333333333334 0A16.32 16.32 0 0 1 224 99.30666666666667l0 2.7733333333333334a5.4399999999999995 5.4399999999999995 0 0 0 10.666666666666666 0l0 -2.7733333333333334A16.32 16.32 0 0 1 248.64 85.33333333333333l2.7733333333333334 0a5.4399999999999995 5.4399999999999995 0 0 0 0 -10.666666666666666Z" fill="#ffffff" stroke-width="10.6667"></path>
  </g>
</svg>