<svg xmlns="http://www.w3.org/2000/svg" viewBox="0 0 256 256" id="Video-File-M-4-V--Streamline-Ultimate" height="256" width="256">
  <desc>
    Video File M 4 V Streamline Icon: https://streamlinehq.com
  </desc>
  <g id="Video-File-M-4-V--Streamline-Ultimate.svg">
    <path d="M186.66666666666666 64h41.599999999999994a2.6666666666666665 2.6666666666666665 0 0 0 1.8133333333333335 -4.586666666666666L175.25333333333333 4.586666666666666A2.6666666666666665 2.6666666666666665 0 0 0 170.66666666666666 6.3999999999999995v41.599999999999994A16 16 0 0 0 186.66666666666666 64Z" fill="#ffffff" stroke-width="10.6667"></path>
    <path d="M134.93333333333334 152.85333333333332a53.33333333333333 53.33333333333333 0 0 0 -13.546666666666667 19.413333333333334 1.8133333333333335 1.8133333333333335 0 0 0 1.5999999999999999 2.453333333333333h11.52a2.7733333333333334 2.7733333333333334 0 0 0 2.6666666666666665 -2.7733333333333334v-18.133333333333333c0 -1.8133333333333335 -1.4933333333333334 -1.5999999999999999 -2.2399999999999998 -0.96Z" fill="#ffffff" stroke-width="10.6667"></path>
    <path d="M232 74.66666666666666H186.66666666666666A26.666666666666664 26.666666666666664 0 0 1 160 48V2.6666666666666665a2.6666666666666665 2.6666666666666665 0 0 0 -2.6666666666666665 -2.6666666666666665H42.666666666666664a21.333333333333332 21.333333333333332 0 0 0 -21.333333333333332 21.333333333333332v213.33333333333331a21.333333333333332 21.333333333333332 0 0 0 21.333333333333332 21.333333333333332h170.66666666666666a21.333333333333332 21.333333333333332 0 0 0 21.333333333333332 -21.333333333333332V77.33333333333333a2.6666666666666665 2.6666666666666665 0 0 0 -2.6666666666666665 -2.6666666666666665ZM97.27999999999999 202.66666666666666a6.613333333333333 6.613333333333333 0 0 1 -13.226666666666667 0v-32c0 -1.1733333333333333 -1.4933333333333334 -0.7466666666666667 -1.8133333333333335 0s-1.5999999999999999 3.1999999999999997 -1.5999999999999999 3.1999999999999997a7.04 7.04 0 0 1 -11.946666666666667 0l-1.5999999999999999 -3.1999999999999997c0 -1.1733333333333333 -1.8133333333333335 -0.8533333333333333 -1.8133333333333335 0v32a6.613333333333333 6.613333333333333 0 0 1 -13.226666666666667 0v-64a6.613333333333333 6.613333333333333 0 0 1 5.119999999999999 -6.506666666666666 6.72 6.72 0 0 1 7.466666666666666 3.52s7.573333333333332 15.36 8.32 16.746666666666666a1.92 1.92 0 0 0 3.3066666666666666 0l8.426666666666666 -16.85333333333333a6.72 6.72 0 0 1 7.466666666666666 -3.52 6.613333333333333 6.613333333333333 0 0 1 5.119999999999999 6.506666666666666Zm53.33333333333333 0a6.72 6.72 0 0 1 -13.333333333333332 0v-11.946666666666667a2.7733333333333334 2.7733333333333334 0 0 0 -2.6666666666666665 -2.7733333333333334H112a6.826666666666666 6.826666666666666 0 0 1 -5.333333333333333 -2.3466666666666667 6.613333333333333 6.613333333333333 0 0 1 -1.4933333333333334 -5.4399999999999995 65.81333333333333 65.81333333333333 0 0 1 35.519999999999996 -47.36 6.72 6.72 0 0 1 6.506666666666666 0 6.613333333333333 6.613333333333333 0 0 1 3.093333333333333 5.653333333333333Zm53.33333333333333 -48a87.14666666666666 87.14666666666666 0 0 1 -17.28 52.05333333333333 6.826666666666666 6.826666666666666 0 0 1 -10.666666666666666 0 87.14666666666666 87.14666666666666 0 0 1 -17.28 -52.05333333333333V138.66666666666666a6.613333333333333 6.613333333333333 0 1 1 13.226666666666667 0v16a74.66666666666666 74.66666666666666 0 0 0 7.253333333333334 32c0.6399999999999999 1.3866666666666667 3.52 1.5999999999999999 4.16 0a75.19999999999999 75.19999999999999 0 0 0 7.359999999999999 -32V138.66666666666666a6.613333333333333 6.613333333333333 0 1 1 13.226666666666667 0Z" fill="#ffffff" stroke-width="10.6667"></path>
  </g>
</svg>