<svg xmlns="http://www.w3.org/2000/svg" viewBox="0 0 256 256" id="Video-Edit-Cut--Streamline-Ultimate" height="256" width="256">
  <desc>
    Video Edit Cut Streamline Icon: https://streamlinehq.com
  </desc>
  <g id="Video-Edit-Cut--Streamline-Ultimate.svg">
    <path d="M245.33333333333331 234.66666666666666a21.333333333333332 21.333333333333332 0 0 1 -21.333333333333332 -21.333333333333332V42.666666666666664a42.666666666666664 42.666666666666664 0 0 0 -42.666666666666664 -42.666666666666664H64a10.666666666666666 10.666666666666666 0 0 0 0 21.333333333333332 21.333333333333332 21.333333333333332 0 0 1 21.333333333333332 21.333333333333332v73.70666666666666a2.453333333333333 2.453333333333333 0 0 0 1.3866666666666667 2.2399999999999998l26.666666666666664 15.786666666666665a2.6666666666666665 2.6666666666666665 0 0 0 2.6666666666666665 0 2.6666666666666665 2.6666666666666665 0 0 0 1.2799999999999998 -2.3466666666666667V101.33333333333333a5.333333333333333 5.333333333333333 0 0 1 5.333333333333333 -5.333333333333333h64a5.333333333333333 5.333333333333333 0 0 1 5.333333333333333 5.333333333333333v53.33333333333333a5.333333333333333 5.333333333333333 0 0 1 -5.333333333333333 5.333333333333333h-20.586666666666666a2.7733333333333334 2.7733333333333334 0 0 0 -2.5599999999999996 1.92 2.88 2.88 0 0 0 1.1733333333333333 3.093333333333333l14.186666666666667 8.32c2.3466666666666667 1.3866666666666667 13.013333333333332 10.666666666666666 13.013333333333332 13.333333333333332V224a5.333333333333333 5.333333333333333 0 0 1 -5.333333333333333 5.333333333333333H138.66666666666666a21.333333333333332 21.333333333333332 0 0 1 -21.333333333333332 -21.333333333333332v-7.68a2.3466666666666667 2.3466666666666667 0 0 0 -1.2799999999999998 -2.2399999999999998l-26.666666666666664 -15.786666666666665a2.6666666666666665 2.6666666666666665 0 0 0 -2.6666666666666665 0 2.7733333333333334 2.7733333333333334 0 0 0 -1.3866666666666667 2.2399999999999998V213.33333333333331a42.666666666666664 42.666666666666664 0 0 0 42.666666666666664 42.666666666666664h117.33333333333333a10.666666666666666 10.666666666666666 0 0 0 0 -21.333333333333332ZM186.55999999999997 74.66666666666666h-64a5.333333333333333 5.333333333333333 0 0 1 -5.333333333333333 -5.333333333333333V32a5.333333333333333 5.333333333333333 0 0 1 5.333333333333333 -5.333333333333333H170.66666666666666a21.333333333333332 21.333333333333332 0 0 1 21.333333333333332 21.333333333333332v21.333333333333332a5.333333333333333 5.333333333333333 0 0 1 -5.4399999999999995 5.333333333333333Z" fill="#ffffff" stroke-width="10.6667"></path>
    <path d="M26.24 126.29333333333332 160 205.44a10.666666666666666 10.666666666666666 0 0 0 10.666666666666666 -18.346666666666664l-108.16 -64a2.7733333333333334 2.7733333333333334 0 0 1 -1.3866666666666667 -2.0266666666666664 3.3066666666666666 3.3066666666666666 0 0 1 0.96 -2.3466666666666667 35.199999999999996 35.199999999999996 0 0 0 7.893333333333333 -9.813333333333333A37.33333333333333 37.33333333333333 0 1 0 0 90.66666666666666a37.12 37.12 0 0 0 4.8 18.453333333333333 37.54666666666667 37.54666666666667 0 0 0 21.439999999999998 17.173333333333332ZM37.44 74.66666666666666A16 16 0 0 1 53.33333333333333 90.66666666666666a14.933333333333332 14.933333333333332 0 0 1 -1.8133333333333335 7.253333333333334A16 16 0 0 1 21.333333333333332 91.41333333333333V90.66666666666666A16 16 0 0 1 37.44 74.66666666666666Z" fill="#ffffff" stroke-width="10.6667"></path>
    <path d="M37.44 149.33333333333331A37.33333333333333 37.33333333333333 0 1 0 74.66666666666666 186.66666666666666 37.33333333333333 37.33333333333333 0 0 0 37.44 149.33333333333331Zm0 53.33333333333333A16 16 0 1 1 53.33333333333333 186.66666666666666 16 16 0 0 1 37.44 202.66666666666666Z" fill="#ffffff" stroke-width="10.6667"></path>
  </g>
</svg>