<svg xmlns="http://www.w3.org/2000/svg" viewBox="0 0 256 256" id="View-Square--Streamline-Ultimate" height="256" width="256">
  <desc>
    View Square Streamline Icon: https://streamlinehq.com
  </desc>
  <g id="View-Square--Streamline-Ultimate.svg">
    <path d="M234.66666666666666 0H21.333333333333332a21.333333333333332 21.333333333333332 0 0 0 -21.333333333333332 21.333333333333332v213.33333333333331a21.333333333333332 21.333333333333332 0 0 0 21.333333333333332 21.333333333333332h213.33333333333331a21.333333333333332 21.333333333333332 0 0 0 21.333333333333332 -21.333333333333332V21.333333333333332a21.333333333333332 21.333333333333332 0 0 0 -21.333333333333332 -21.333333333333332Zm-27.199999999999996 145.27999999999997 -3.1999999999999997 3.3066666666666666c-14.186666666666667 15.253333333333332 -37.86666666666666 40.64 -74.66666666666666 40.64s-57.81333333333333 -24.319999999999997 -70.93333333333334 -38.72l-4.8 -5.333333333333333a21.333333333333332 21.333333333333332 0 0 1 0 -29.333333333333332l4.8 -5.333333333333333C71.78666666666666 96 93.54666666666665 71.89333333333333 129.27999999999997 71.89333333333333s60.8 25.386666666666663 74.66666666666666 40.53333333333333l3.1999999999999997 3.413333333333333a21.333333333333332 21.333333333333332 0 0 1 0.31999999999999995 29.439999999999998Z" fill="#ffffff" stroke-width="10.6667"></path>
    <path d="M130.66666666666666 87.89333333333333a42.666666666666664 42.666666666666664 0 1 0 42.666666666666664 42.666666666666664 42.666666666666664 42.666666666666664 0 0 0 -42.666666666666664 -42.666666666666664Zm0 58.666666666666664a16 16 0 1 1 16 -16 16 16 0 0 1 -16 16Z" fill="#ffffff" stroke-width="10.6667"></path>
  </g>
</svg>