<svg xmlns="http://www.w3.org/2000/svg" id="Vintage-Tv-4--Streamline-Ultimate" width="256" height="256" viewBox="0 0 256 256"><desc>Vintage Tv 4 Streamline Icon: https://streamlinehq.com</desc><path fill="#fff" stroke-width="10.667" d="M242.72853333333333 81.34719999999999c0 -8.641066666666667 -7.003733333333333 -15.645866666666667 -15.644799999999998 -15.644799999999998h-73.00906666666666c-1.04 0.0031999999999999997 -1.9829333333333334 -0.6112 -2.398933333333333 -1.5648 -0.42133333333333334 -0.9909333333333332 -0.2165333333333333 -2.1365333333333334 0.5216 -2.920533333333333l40.36373333333333 -40.2592c6.133333333333333 -5.1808 4.3584 -15.059199999999999 -3.195733333333333 -17.780266666666666 -4.050133333333333 -1.4592 -8.581333333333333 -0.27946666666666664 -11.405866666666665 2.9696L129.87733333333333 54.333866666666665c-1.0250666666666666 1.0634666666666666 -2.7296 1.0634666666666666 -3.754666666666666 0L78.04053333333333 6.1472c-5.700266666666666 -5.700266666666666 -15.4336 -3.0922666666666663 -17.521066666666666 4.6954666666666665 -0.9674666666666667 3.6138666666666666 0.06506666666666666 7.469866666666666 2.7114666666666665 10.1152l40.36266666666666 40.2592c0.7381333333333333 0.7839999999999999 0.9429333333333334 1.9296 0.5216 2.920533333333333 -0.416 0.9535999999999999 -1.3589333333333333 1.5679999999999998 -2.398933333333333 1.5648H28.7072c-8.558933333333332 0.11413333333333332 -15.4368 7.0847999999999995 -15.435733333333333 15.644799999999998v135.58826666666664c0 8.641066666666667 7.003733333333333 15.644799999999998 15.644799999999998 15.644799999999998h2.606933333333333c1.44 0 2.6079999999999997 1.1669333333333332 2.6079999999999997 2.6079999999999997v7.821866666666666c0 8.0288 8.691199999999998 13.047466666666667 15.644799999999998 9.032533333333333 3.2266666666666666 -1.8634666666666666 5.214933333333333 -5.306666666666667 5.214933333333333 -9.032533333333333v-7.821866666666666c0 -1.4410666666666665 1.1669333333333332 -2.6079999999999997 2.606933333333333 -2.6079999999999997h140.80426666666665c1.44 0 2.606933333333333 1.1669333333333332 2.606933333333333 2.6079999999999997v7.821866666666666c0 8.0288 8.691199999999998 13.047466666666667 15.644799999999998 9.032533333333333 3.2266666666666666 -1.8634666666666666 5.214933333333333 -5.306666666666667 5.214933333333333 -9.032533333333333v-7.821866666666666c0 -1.4410666666666665 1.1669333333333332 -2.6079999999999997 2.6079999999999997 -2.6079999999999997h2.606933333333333c8.64 0 15.644799999999998 -7.0047999999999995 15.644799999999998 -15.644799999999998ZM75.85066666666665 201.29066666666665c-17.281066666666668 0.0010666666666666667 -31.289599999999997 -14.008533333333332 -31.289599999999997 -31.289599999999997v-41.71946666666666c0 -17.281066666666668 14.008533333333332 -31.290666666666667 31.289599999999997 -31.289599999999997h104.29866666666666c17.28 0.0010666666666666667 31.289599999999997 14.009599999999999 31.289599999999997 31.289599999999997v41.71946666666666c0 17.28 -14.009599999999999 31.288533333333334 -31.289599999999997 31.289599999999997Z"/></svg>