<svg xmlns="http://www.w3.org/2000/svg" id="Vinyl-Record-Player--Streamline-Ultimate" width="256" height="256" viewBox="0 0 256 256"><desc>Vinyl Record Player Streamline Icon: https://streamlinehq.com</desc><g id="Vinyl-Record-Player--Streamline-Ultimate.svg"><path fill="#fff" stroke-width="10.667" d="M106.66666666666666 114.66666666666666a29.333333333333332 29.333333333333332 0 1 0 29.333333333333332 29.333333333333332A29.333333333333332 29.333333333333332 0 0 0 106.66666666666666 114.66666666666666Zm0 42.666666666666664a13.333333333333332 13.333333333333332 0 1 1 13.333333333333332 -13.333333333333332A13.333333333333332 13.333333333333332 0 0 1 106.66666666666666 157.33333333333331Z"/><path fill="#fff" stroke-width="10.667" d="M240 32a26.666666666666664 26.666666666666664 0 0 0 -53.33333333333333 0v21.333333333333332a16 16 0 0 0 13.76 15.786666666666665 2.7733333333333334 2.7733333333333334 0 0 1 2.2399999999999998 2.6666666666666665V128a2.88 2.88 0 0 1 -0.6399999999999999 1.8133333333333335l-45.33333333333333 50.346666666666664a10.666666666666666 10.666666666666666 0 0 0 1.4933333333333334 14.186666666666667 10.666666666666666 10.666666666666666 0 0 0 15.04 -0.7466666666666667l48 -53.33333333333333a10.666666666666666 10.666666666666666 0 0 0 2.7733333333333334 -6.933333333333334V71.78666666666666a2.7733333333333334 2.7733333333333334 0 0 1 2.2399999999999998 -2.6666666666666665A16 16 0 0 0 240 53.33333333333333Z"/><path fill="#fff" stroke-width="10.667" d="M253.01333333333332 69.33333333333333a2.7733333333333334 2.7733333333333334 0 0 0 -2.0266666666666664 1.0666666666666667 33.06666666666666 33.06666666666666 0 0 1 -9.706666666666667 9.92 2.3466666666666667 2.3466666666666667 0 0 0 -1.2799999999999998 2.2399999999999998v50.773333333333326a26.77333333333333 26.77333333333333 0 0 1 -6.826666666666666 17.813333333333333l-48 53.33333333333333a26.666666666666664 26.666666666666664 0 0 1 -32 6.079999999999999 2.6666666666666665 2.6666666666666665 0 0 0 -2.6666666666666665 0 80 80 0 1 1 30.826666666666668 -94.93333333333334 2.6666666666666665 2.6666666666666665 0 0 0 2.5599999999999996 1.7066666666666666 2.6666666666666665 2.6666666666666665 0 0 0 2.6666666666666665 -2.6666666666666665v-32a2.3466666666666667 2.3466666666666667 0 0 0 -1.2799999999999998 -2.2399999999999998A32 32 0 0 1 170.66666666666666 53.33333333333333V40a2.6666666666666665 2.6666666666666665 0 0 0 -2.6666666666666665 -2.6666666666666665H16A16 16 0 0 0 0 53.33333333333333v181.33333333333331a16 16 0 0 0 16 16h224A16 16 0 0 0 256 234.66666666666666V72.32a2.88 2.88 0 0 0 -2.986666666666667 -2.986666666666667Z"/></g></svg>