<svg xmlns="http://www.w3.org/2000/svg" id="Vip-Crown-Queen-1--Streamline-Ultimate" width="256" height="256" viewBox="0 0 256 256"><desc>Vip Crown Queen 1 Streamline Icon: https://streamlinehq.com</desc><g id="Vip-Crown-Queen-1--Streamline-Ultimate.svg"><path fill="#fff" stroke-width="10.667" d="M256 66.66666666666666A32 32 0 1 0 210.55999999999997 96c-5.013333333333333 14.719999999999999 -16.32 40.42666666666666 -34.56 40.42666666666666 -24.53333333333333 0 -32 -33.49333333333333 -37.65333333333333 -65.81333333333333a32 32 0 1 0 -20.69333333333333 0c-5.973333333333334 32.959999999999994 -13.226666666666667 65.81333333333333 -37.65333333333333 65.81333333333333 -18.24 0 -29.546666666666667 -25.706666666666667 -34.56 -40.42666666666666a32 32 0 1 0 -22.72 1.5999999999999999l17.386666666666663 104.53333333333333a10.666666666666666 10.666666666666666 0 0 0 10.666666666666666 8.959999999999999h154.66666666666666a10.666666666666666 10.666666666666666 0 0 0 10.666666666666666 -8.959999999999999l17.386666666666663 -104.53333333333333A32 32 0 0 0 256 66.66666666666666Z"/><path fill="#fff" stroke-width="10.667" d="M205.33333333333331 226.66666666666666H50.666666666666664a10.666666666666666 10.666666666666666 0 0 0 0 21.333333333333332h154.66666666666666a10.666666666666666 10.666666666666666 0 0 0 0 -21.333333333333332Z"/></g></svg>