<svg xmlns="http://www.w3.org/2000/svg" id="Virtual-Coin-Crypto-Digibyte--Streamline-Ultimate" width="256" height="256" viewBox="0 0 256 256"><desc>Virtual Coin Crypto Digibyte Streamline Icon: https://streamlinehq.com</desc><path fill="#fff" stroke-width="10.667" d="M128 0a128 128 0 1 0 128 128A128 128 0 0 0 128 0Zm29.333333333333332 187.83999999999997v20.159999999999997a8 8 0 0 1 -16 0v-14.719999999999999a60.8 60.8 0 0 1 -13.333333333333332 1.3866666666666667h-2.6666666666666665v13.333333333333332a8 8 0 0 1 -16 0v-13.333333333333332H90.66666666666666a8 8 0 0 1 -6.293333333333333 -2.6666666666666665 7.786666666666666 7.786666666666666 0 0 1 -1.3866666666666667 -6.933333333333334l21.333333333333332 -80a7.893333333333333 7.893333333333333 0 0 1 15.36 4.053333333333333l-18.56 69.54666666666665H128a50.666666666666664 50.666666666666664 0 0 0 0 -101.33333333333333H69.33333333333333a8 8 0 0 1 0 -16h40V48a8 8 0 0 1 16 0v13.333333333333332H128a60.8 60.8 0 0 1 13.333333333333332 1.3866666666666667V48a8 8 0 0 1 16 0v20.159999999999997a66.66666666666666 66.66666666666666 0 0 1 0 119.68Z"/></svg>