<svg xmlns="http://www.w3.org/2000/svg" viewBox="0 0 256 256" id="Virtual-Coin-Crypto-Stellar--Streamline-Ultimate" height="256" width="256">
  <desc>
    Virtual Coin Crypto Stellar Streamline Icon: https://streamlinehq.com
  </desc>
  <path d="M128 0a128 128 0 1 0 128 128A128 128 0 0 0 128 0ZM40.64 147.0933333333333a8 8 0 0 1 4.266666666666667 -10.666666666666666l16.426666666666666 -6.826666666666666A66.77333333333333 66.77333333333333 0 0 1 128 61.33333333333333a68.47999999999999 68.47999999999999 0 0 1 19.2 2.6666666666666665 8 8 0 1 1 -4.693333333333333 15.36A51.30666666666666 51.30666666666666 0 0 0 128 77.33333333333333a50.773333333333326 50.773333333333326 0 0 0 -50.45333333333333 45.76l122.02666666666666 -50.45333333333333a8 8 0 1 1 6.186666666666666 14.719999999999999l-154.66666666666666 64a8 8 0 0 1 -3.093333333333333 0.6399999999999999 8 8 0 0 1 -7.359999999999999 -4.906666666666666Zm170.66666666666666 -27.733333333333334 -16.426666666666666 6.826666666666666A66.77333333333333 66.77333333333333 0 0 1 128 194.66666666666666a64 64 0 0 1 -17.493333333333332 -2.6666666666666665 8 8 0 1 1 4.16 -15.466666666666665 50.239999999999995 50.239999999999995 0 0 0 13.333333333333332 1.8133333333333335 50.773333333333326 50.773333333333326 0 0 0 50.45333333333333 -45.76L56.42666666666666 183.36a8 8 0 0 1 -3.093333333333333 0.6399999999999999 8 8 0 0 1 -3.093333333333333 -15.36l154.66666666666666 -64a8 8 0 1 1 6.186666666666666 14.719999999999999Z" fill="#ffffff" stroke-width="10.6667"></path>
</svg>