<svg xmlns="http://www.w3.org/2000/svg" id="Virtual-Coin-Crypto-Namecoin--Streamline-Ultimate" width="256" height="256" viewBox="0 0 256 256"><desc>Virtual Coin Crypto Namecoin Streamline Icon: https://streamlinehq.com</desc><g id="Virtual-Coin-Crypto-Namecoin--Streamline-Ultimate.svg"><path fill="#fff" stroke-width="10.667" d="m103.25333333333333 113.6 39.04 52.05333333333333 10.453333333333333 -23.253333333333334 -39.04 -52.05333333333333 -10.453333333333333 23.253333333333334z"/><path fill="#fff" stroke-width="10.667" d="M128 0a128 128 0 1 0 128 128A128 128 0 0 0 128 0Zm71.25333333333333 77.97333333333333c-19.306666666666665 42.666666666666664 -32 70.61333333333333 -48 106.66666666666666a7.786666666666666 7.786666666666666 0 0 1 -6.3999999999999995 4.693333333333333h-0.8533333333333333a8 8 0 0 1 -6.3999999999999995 -3.1999999999999997L96 130.34666666666666l-24.746666666666663 54.29333333333333a7.786666666666666 7.786666666666666 0 0 1 -7.253333333333334 4.693333333333333 7.466666666666666 7.466666666666666 0 0 1 -3.3066666666666666 -0.7466666666666667 7.893333333333333 7.893333333333333 0 0 1 -3.9466666666666663 -10.666666666666666c19.306666666666665 -42.666666666666664 32 -70.61333333333333 48 -106.66666666666666a7.786666666666666 7.786666666666666 0 0 1 6.3999999999999995 -4.693333333333333 8.106666666666666 8.106666666666666 0 0 1 7.253333333333334 3.1999999999999997l41.599999999999994 55.89333333333333 24.426666666666666 -54.29333333333333a8 8 0 1 1 14.506666666666668 6.613333333333333Z"/></g></svg>