<svg xmlns="http://www.w3.org/2000/svg" id="Virtual-Coin-Crypto-Ethereum--Streamline-Ultimate" width="256" height="256" viewBox="0 0 256 256"><desc>Virtual Coin Crypto Ethereum Streamline Icon: https://streamlinehq.com</desc><path fill="#fff" stroke-width="10.667" d="M128 0a128 128 0 1 0 128 128A128 128 0 0 0 128 0ZM84.16 107.41333333333333l37.33333333333333 -53.33333333333333a8.213333333333333 8.213333333333333 0 0 1 13.013333333333332 0l37.33333333333333 53.33333333333333a7.893333333333333 7.893333333333333 0 0 1 -1.2799999999999998 10.666666666666666l-37.33333333333333 32a8.106666666666666 8.106666666666666 0 0 1 -10.666666666666666 0l-37.33333333333333 -32a7.893333333333333 7.893333333333333 0 0 1 -1.0666666666666667 -10.666666666666666Zm87.89333333333333 70.93333333333334 -37.013333333333335 32a10.666666666666666 10.666666666666666 0 0 1 -14.08 0l-37.013333333333335 -32a10.666666666666666 10.666666666666666 0 0 1 14.08 -16.106666666666666L128 188.48000000000002l29.973333333333333 -26.24a10.666666666666666 10.666666666666666 0 0 1 14.08 16.106666666666666Z"/></svg>