<svg xmlns="http://www.w3.org/2000/svg" viewBox="0 0 256 256" id="Vlc-Logo--Streamline-Ultimate" height="256" width="256">
  <desc>
    Vlc Logo Streamline Icon: https://streamlinehq.com
  </desc>
  <path d="m245.98293333333334 229.73973333333333 -22.250666666666664 -62.92373333333333c-2.5194666666666663 -6.986666666666666 -9.1328 -11.657599999999999 -16.56 -11.694933333333333h-12.005333333333333l-7.0367999999999995 -22.0448 -15.524266666666666 -49.056 -12.936533333333333 -40.569599999999994 -7.451733333333333 -23.28533333333333c-6.046933333333333 -18.6432 -30.007466666666666 -23.749333333333333 -43.12853333333334 -9.191466666666667 -2.3946666666666667 2.6570666666666662 -4.2026666666666666 5.788799999999999 -5.306666666666667 9.191466666666667l-7.451733333333333 23.28533333333333 -12.936533333333333 40.569599999999994 -15.524266666666666 49.056 -7.0367999999999995 22.0448H48.827733333333335c-7.4272 0.03733333333333333 -14.040533333333332 4.708266666666667 -16.56 11.694933333333333l-22.250666666666664 62.92373333333333c-1.8784 5.4688 -1.0325333333333333 11.506133333333333 2.277333333333333 16.248533333333334 3.3418666666666668 4.6784 8.7392 7.453866666666666 14.488533333333333 7.451733333333333h202.43413333333334c5.749333333333333 0.0021333333333333334 11.146666666666665 -2.7733333333333334 14.4896 -7.451733333333333 3.3087999999999997 -4.7424 4.1546666666666665 -10.779733333333333 2.2762666666666664 -16.248533333333334ZM108.6464 56.18026666666666c6.234666666666667 2.110933333333333 12.7712 3.1946666666666665 19.3536 3.2085333333333335 6.5824 -0.013866666666666666 13.118933333333333 -1.0976 19.3536 -3.2085333333333335l8.4864 26.598399999999998c-17.233066666666666 9.925333333333333 -38.446933333333334 9.925333333333333 -55.67999999999999 0ZM128 157.70773333333332c16.724266666666665 0.1664 33.2512 -3.6277333333333335 48.22826666666666 -11.073066666666666l5.070933333333333 16.0416 4.553599999999999 14.2816c0.6154666666666666 1.8527999999999998 0.1344 3.8943999999999996 -1.2416 5.278933333333333 -8.279466666666666 8.279466666666666 -23.079466666666665 19.249066666666664 -56.714666666666666 19.249066666666664s-48.435199999999995 -10.9696 -56.714666666666666 -19.249066666666664c-1.376 -1.3845333333333332 -1.8570666666666666 -3.426133333333333 -1.2416 -5.278933333333333l4.553599999999999 -14.2816 5.070933333333333 -16.0416c15.038933333333333 7.477333333333332 31.64053333333333 11.272533333333332 48.435199999999995 11.073066666666666Z" fill="#ffffff" stroke-width="10.6667"></path>
</svg>