<svg xmlns="http://www.w3.org/2000/svg" viewBox="0 0 256 256" id="Voice-Id--Streamline-Ultimate" height="256" width="256">
  <desc>
    Voice Id Streamline Icon: https://streamlinehq.com
  </desc>
  <g id="Voice-Id--Streamline-Ultimate.svg">
    <path d="M42.666666666666664 96v64a10.666666666666666 10.666666666666666 0 0 0 21.333333333333332 0V96a10.666666666666666 10.666666666666666 0 0 0 -21.333333333333332 0Z" fill="#ffffff" stroke-width="10.6667"></path>
    <path d="M90.66666666666666 69.33333333333333a10.666666666666666 10.666666666666666 0 0 0 -10.666666666666666 10.666666666666666v96a10.666666666666666 10.666666666666666 0 0 0 21.333333333333332 0v-96a10.666666666666666 10.666666666666666 0 0 0 -10.666666666666666 -10.666666666666666Z" fill="#ffffff" stroke-width="10.6667"></path>
    <path d="M213.33333333333331 160V96a10.666666666666666 10.666666666666666 0 0 0 -21.333333333333332 0v64a10.666666666666666 10.666666666666666 0 0 0 21.333333333333332 0Z" fill="#ffffff" stroke-width="10.6667"></path>
    <path d="M176 80a10.666666666666666 10.666666666666666 0 0 0 -21.333333333333332 0v96a10.666666666666666 10.666666666666666 0 0 0 21.333333333333332 0Z" fill="#ffffff" stroke-width="10.6667"></path>
    <path d="M128 37.33333333333333a10.666666666666666 10.666666666666666 0 0 0 -10.666666666666666 10.666666666666666v160a10.666666666666666 10.666666666666666 0 0 0 21.333333333333332 0v-160a10.666666666666666 10.666666666666666 0 0 0 -10.666666666666666 -10.666666666666666Z" fill="#ffffff" stroke-width="10.6667"></path>
    <path d="M69.33333333333333 234.66666666666666H24a2.6666666666666665 2.6666666666666665 0 0 1 -2.6666666666666665 -2.6666666666666665V186.66666666666666a10.666666666666666 10.666666666666666 0 0 0 -21.333333333333332 0V234.66666666666666a21.333333333333332 21.333333333333332 0 0 0 21.333333333333332 21.333333333333332h48a10.666666666666666 10.666666666666666 0 0 0 0 -21.333333333333332Z" fill="#ffffff" stroke-width="10.6667"></path>
    <path d="M10.666666666666666 80a10.666666666666666 10.666666666666666 0 0 0 10.666666666666666 -10.666666666666666V24A2.6666666666666665 2.6666666666666665 0 0 1 24 21.333333333333332H69.33333333333333a10.666666666666666 10.666666666666666 0 0 0 0 -21.333333333333332H21.333333333333332a21.333333333333332 21.333333333333332 0 0 0 -21.333333333333332 21.333333333333332v48a10.666666666666666 10.666666666666666 0 0 0 10.666666666666666 10.666666666666666Z" fill="#ffffff" stroke-width="10.6667"></path>
    <path d="M245.33333333333331 176a10.666666666666666 10.666666666666666 0 0 0 -10.666666666666666 10.666666666666666v45.33333333333333a2.6666666666666665 2.6666666666666665 0 0 1 -2.6666666666666665 2.6666666666666665H186.66666666666666a10.666666666666666 10.666666666666666 0 0 0 0 21.333333333333332H234.66666666666666a21.333333333333332 21.333333333333332 0 0 0 21.333333333333332 -21.333333333333332v-48a10.666666666666666 10.666666666666666 0 0 0 -10.666666666666666 -10.666666666666666Z" fill="#ffffff" stroke-width="10.6667"></path>
    <path d="M234.66666666666666 0h-48a10.666666666666666 10.666666666666666 0 0 0 0 21.333333333333332h45.33333333333333a2.6666666666666665 2.6666666666666665 0 0 1 2.6666666666666665 2.6666666666666665V69.33333333333333a10.666666666666666 10.666666666666666 0 0 0 21.333333333333332 0V21.333333333333332a21.333333333333332 21.333333333333332 0 0 0 -21.333333333333332 -21.333333333333332Z" fill="#ffffff" stroke-width="10.6667"></path>
  </g>
</svg>