<svg xmlns="http://www.w3.org/2000/svg" id="Voice-Id-Approved--Streamline-Ultimate" width="256" height="256" viewBox="0 0 256 256"><desc>Voice Id Approved Streamline Icon: https://streamlinehq.com</desc><g id="Voice-Id-Approved--Streamline-Ultimate.svg"><path fill="#fff" stroke-width="10.667" d="M10.666666666666666 26.666666666666664a10.666666666666666 10.666666666666666 0 0 0 -10.666666666666666 10.666666666666666v149.33333333333331a10.666666666666666 10.666666666666666 0 0 0 21.333333333333332 0v-149.33333333333331a10.666666666666666 10.666666666666666 0 0 0 -10.666666666666666 -10.666666666666666Z"/><path fill="#fff" stroke-width="10.667" d="M48 69.33333333333333a10.666666666666666 10.666666666666666 0 0 0 -10.666666666666666 10.666666666666666v64a10.666666666666666 10.666666666666666 0 0 0 21.333333333333332 0v-64a10.666666666666666 10.666666666666666 0 0 0 -10.666666666666666 -10.666666666666666Z"/><path fill="#fff" stroke-width="10.667" d="M85.33333333333333 53.33333333333333a10.666666666666666 10.666666666666666 0 0 0 -10.666666666666666 10.666666666666666v96a10.666666666666666 10.666666666666666 0 0 0 21.333333333333332 0V64a10.666666666666666 10.666666666666666 0 0 0 -10.666666666666666 -10.666666666666666Z"/><path fill="#fff" stroke-width="10.667" d="M234.66666666666666 112a10.666666666666666 10.666666666666666 0 0 0 10.666666666666666 -10.666666666666666v-64a10.666666666666666 10.666666666666666 0 0 0 -21.333333333333332 0v64a10.666666666666666 10.666666666666666 0 0 0 10.666666666666666 10.666666666666666Z"/><path fill="#fff" stroke-width="10.667" d="M133.33333333333331 117.33333333333333V10.666666666666666a10.666666666666666 10.666666666666666 0 0 0 -21.333333333333332 0v106.66666666666666a10.666666666666666 10.666666666666666 0 0 0 21.333333333333332 0Z"/><path fill="#fff" stroke-width="10.667" d="M197.33333333333331 101.33333333333333a10.666666666666666 10.666666666666666 0 0 0 10.666666666666666 -10.666666666666666v-10.666666666666666a10.666666666666666 10.666666666666666 0 0 0 -21.333333333333332 0v10.666666666666666a10.666666666666666 10.666666666666666 0 0 0 10.666666666666666 10.666666666666666Z"/><path fill="#fff" stroke-width="10.667" d="M160 106.66666666666666a10.666666666666666 10.666666666666666 0 0 0 10.666666666666666 -10.666666666666666V64a10.666666666666666 10.666666666666666 0 0 0 -21.333333333333332 0v32a10.666666666666666 10.666666666666666 0 0 0 10.666666666666666 10.666666666666666Z"/><path fill="#fff" stroke-width="10.667" d="M186.66666666666666 117.33333333333333a69.33333333333333 69.33333333333333 0 1 0 69.33333333333333 69.33333333333333 69.44 69.44 0 0 0 -69.33333333333333 -69.33333333333333Zm37.33333333333333 57.06666666666666 -30.93333333333333 41.38666666666666a18.666666666666664 18.666666666666664 0 0 1 -28.16 1.92l-16 -16a10.666666666666666 10.666666666666666 0 1 1 15.04 -15.04l11.733333333333334 11.626666666666667a2.5599999999999996 2.5599999999999996 0 0 0 2.0266666666666664 0.8533333333333333 2.88 2.88 0 0 0 2.0266666666666664 -1.0666666666666667l27.199999999999996 -36.373333333333335a10.666666666666666 10.666666666666666 0 0 1 14.933333333333332 -2.1333333333333333 10.666666666666666 10.666666666666666 0 0 1 2.1333333333333333 14.826666666666664Z"/></g></svg>