<svg xmlns="http://www.w3.org/2000/svg" viewBox="0 0 256 256" id="Volleyball-Ball--Streamline-Ultimate" height="256" width="256">
  <desc>
    Volleyball Ball Streamline Icon: https://streamlinehq.com
  </desc>
  <g id="Volleyball-Ball--Streamline-Ultimate.svg">
    <path d="M174.9333333333333 161.17333333333332a5.226666666666667 5.226666666666667 0 0 0 -1.92 -6.826666666666666 124.26666666666667 124.26666666666667 0 0 0 -38.82666666666667 -16.96 5.546666666666667 5.546666666666667 0 0 0 -5.119999999999999 1.5999999999999999 142.50666666666666 142.50666666666666 0 0 1 -111.57333333333334 43.84 2.88 2.88 0 0 0 -2.453333333333333 1.2799999999999998 2.6666666666666665 2.6666666666666665 0 0 0 0 2.6666666666666665 128 128 0 0 0 36.16 42.666666666666664 10.666666666666666 10.666666666666666 0 0 0 7.68 2.0266666666666664c47.78666666666667 -5.4399999999999995 95.25333333333333 -28.8 116.05333333333334 -70.29333333333332Z" fill="#ffffff" stroke-width="10.6667"></path>
    <path d="M194.98666666666668 172.37333333333333a5.333333333333333 5.333333333333333 0 0 0 -4.4799999999999995 -1.5999999999999999 5.013333333333333 5.013333333333333 0 0 0 -3.9466666666666663 2.6666666666666665A153.81333333333333 153.81333333333333 0 0 1 85.33333333333333 243.41333333333333a2.6666666666666665 2.6666666666666665 0 0 0 0 5.119999999999999 128 128 0 0 0 134.39999999999998 -31.04 5.226666666666667 5.226666666666667 0 0 0 1.0666666666666667 -5.76 124.05333333333334 124.05333333333334 0 0 0 -25.813333333333333 -39.36Z" fill="#ffffff" stroke-width="10.6667"></path>
    <path d="M253.33333333333331 136.32C224 97.6 180.0533333333333 68.47999999999999 134.07999999999998 71.14666666666666a5.226666666666667 5.226666666666667 0 0 0 -5.013333333333333 5.013333333333333 125.33333333333333 125.33333333333333 0 0 0 4.8 42.026666666666664 5.226666666666667 5.226666666666667 0 0 0 3.84 3.733333333333333 142.39999999999998 142.39999999999998 0 0 1 93.86666666666667 74.66666666666666 2.7733333333333334 2.7733333333333334 0 0 0 2.2399999999999998 1.4933333333333334 2.5599999999999996 2.5599999999999996 0 0 0 2.3466666666666667 -1.2799999999999998 128 128 0 0 0 19.2 -52.693333333333335 11.2 11.2 0 0 0 -2.0266666666666664 -7.786666666666666Z" fill="#ffffff" stroke-width="10.6667"></path>
    <path d="M134.61333333333332 53.33333333333333a5.119999999999999 5.119999999999999 0 0 0 4.266666666666667 2.1333333333333333c42.666666666666664 -0.5333333333333333 81.49333333333333 21.333333333333332 110.93333333333334 52.266666666666666a2.6666666666666665 2.6666666666666665 0 0 0 3.093333333333333 0 2.6666666666666665 2.6666666666666665 0 0 0 1.4933333333333334 -2.88A128 128 0 0 0 160 4.16a5.333333333333333 5.333333333333333 0 0 0 -5.546666666666667 1.92 125.01333333333334 125.01333333333334 0 0 0 -21.333333333333332 42.026666666666664 5.333333333333333 5.333333333333333 0 0 0 1.4933333333333334 5.226666666666667Z" fill="#ffffff" stroke-width="10.6667"></path>
    <path d="M83.30666666666666 153.38666666666666A128.53333333333333 128.53333333333333 0 0 0 117.33333333333333 128a5.4399999999999995 5.4399999999999995 0 0 0 1.1733333333333333 -5.226666666666667A142.72 142.72 0 0 1 136.42666666666665 4.373333333333333a2.88 2.88 0 0 0 0 -2.7733333333333334 2.453333333333333 2.453333333333333 0 0 0 -2.1333333333333333 -1.5999999999999999 127.03999999999999 127.03999999999999 0 0 0 -55.25333333333333 10.026666666666666 10.666666666666666 10.666666666666666 0 0 0 -5.653333333333333 5.546666666666667c-19.093333333333334 44.58666666666666 -22.186666666666667 97.38666666666667 3.093333333333333 135.89333333333332a5.333333333333333 5.333333333333333 0 0 0 6.826666666666666 1.92Z" fill="#ffffff" stroke-width="10.6667"></path>
    <path d="M56.74666666666667 163.30666666666667a5.333333333333333 5.333333333333333 0 0 0 3.626666666666667 -3.3066666666666666 5.4399999999999995 5.4399999999999995 0 0 0 0 -4.8c-21.333333333333332 -36.48 -22.29333333333333 -81.17333333333333 -10.666666666666666 -122.13333333333333a2.5599999999999996 2.5599999999999996 0 0 0 -1.0666666666666667 -2.986666666666667 2.7733333333333334 2.7733333333333334 0 0 0 -3.1999999999999997 0A128 128 0 0 0 5.333333333333333 162.13333333333333a5.119999999999999 5.119999999999999 0 0 0 4.373333333333333 3.84 124.79999999999998 124.79999999999998 0 0 0 47.04 -2.6666666666666665Z" fill="#ffffff" stroke-width="10.6667"></path>
  </g>
</svg>