<svg xmlns="http://www.w3.org/2000/svg" viewBox="0 0 256 256" id="Volleyball-Net--Streamline-Ultimate" height="256" width="256">
  <desc>
    Volleyball Net Streamline Icon: https://streamlinehq.com
  </desc>
  <g id="Volleyball-Net--Streamline-Ultimate.svg">
    <path d="M21.333333333333332 218.66666666666666a10.666666666666666 10.666666666666666 0 0 0 10.666666666666666 -10.666666666666666V192a5.333333333333333 5.333333333333333 0 0 1 5.333333333333333 -5.333333333333333h181.33333333333331a5.333333333333333 5.333333333333333 0 0 1 5.333333333333333 5.333333333333333v10.666666666666666a10.666666666666666 10.666666666666666 0 0 0 21.333333333333332 0V80a10.666666666666666 10.666666666666666 0 0 0 -10.666666666666666 -10.666666666666666H21.333333333333332a10.666666666666666 10.666666666666666 0 0 0 -10.666666666666666 10.666666666666666v128a10.666666666666666 10.666666666666666 0 0 0 10.666666666666666 10.666666666666666ZM192 96a5.333333333333333 5.333333333333333 0 0 1 5.333333333333333 -5.333333333333333h21.333333333333332a5.333333333333333 5.333333333333333 0 0 1 5.333333333333333 5.333333333333333v16a5.333333333333333 5.333333333333333 0 0 1 -5.333333333333333 5.333333333333333h-21.333333333333332a5.333333333333333 5.333333333333333 0 0 1 -5.333333333333333 -5.333333333333333Zm0 48a5.333333333333333 5.333333333333333 0 0 1 5.333333333333333 -5.333333333333333h21.333333333333332a5.333333333333333 5.333333333333333 0 0 1 5.333333333333333 5.333333333333333V160a5.333333333333333 5.333333333333333 0 0 1 -5.333333333333333 5.333333333333333h-21.333333333333332a5.333333333333333 5.333333333333333 0 0 1 -5.333333333333333 -5.333333333333333ZM138.66666666666666 96a5.333333333333333 5.333333333333333 0 0 1 5.333333333333333 -5.333333333333333h21.333333333333332a5.333333333333333 5.333333333333333 0 0 1 5.333333333333333 5.333333333333333v16a5.333333333333333 5.333333333333333 0 0 1 -5.333333333333333 5.333333333333333h-21.333333333333332a5.333333333333333 5.333333333333333 0 0 1 -5.333333333333333 -5.333333333333333Zm0 48a5.333333333333333 5.333333333333333 0 0 1 5.333333333333333 -5.333333333333333h21.333333333333332a5.333333333333333 5.333333333333333 0 0 1 5.333333333333333 5.333333333333333V160a5.333333333333333 5.333333333333333 0 0 1 -5.333333333333333 5.333333333333333h-21.333333333333332a5.333333333333333 5.333333333333333 0 0 1 -5.333333333333333 -5.333333333333333ZM85.33333333333333 96a5.333333333333333 5.333333333333333 0 0 1 5.333333333333333 -5.333333333333333h21.333333333333332a5.333333333333333 5.333333333333333 0 0 1 5.333333333333333 5.333333333333333v16a5.333333333333333 5.333333333333333 0 0 1 -5.333333333333333 5.333333333333333h-21.333333333333332a5.333333333333333 5.333333333333333 0 0 1 -5.333333333333333 -5.333333333333333Zm0 48a5.333333333333333 5.333333333333333 0 0 1 5.333333333333333 -5.333333333333333h21.333333333333332a5.333333333333333 5.333333333333333 0 0 1 5.333333333333333 5.333333333333333V160a5.333333333333333 5.333333333333333 0 0 1 -5.333333333333333 5.333333333333333h-21.333333333333332A5.333333333333333 5.333333333333333 0 0 1 85.33333333333333 160ZM32 96a5.333333333333333 5.333333333333333 0 0 1 5.333333333333333 -5.333333333333333h21.333333333333332A5.333333333333333 5.333333333333333 0 0 1 64 96v16a5.333333333333333 5.333333333333333 0 0 1 -5.333333333333333 5.333333333333333h-21.333333333333332a5.333333333333333 5.333333333333333 0 0 1 -5.333333333333333 -5.333333333333333Zm0 48a5.333333333333333 5.333333333333333 0 0 1 5.333333333333333 -5.333333333333333h21.333333333333332a5.333333333333333 5.333333333333333 0 0 1 5.333333333333333 5.333333333333333V160a5.333333333333333 5.333333333333333 0 0 1 -5.333333333333333 5.333333333333333h-21.333333333333332A5.333333333333333 5.333333333333333 0 0 1 32 160Z" fill="#ffffff" stroke-width="10.6667"></path>
    <path d="M253.01333333333332 241.70666666666665a126.82666666666667 126.82666666666667 0 0 0 -74.66666666666666 -23.04 115.41333333333333 115.41333333333333 0 0 0 -46.39999999999999 9.173333333333332 10.666666666666666 10.666666666666666 0 0 1 -8.533333333333333 0 115.41333333333333 115.41333333333333 0 0 0 -46.39999999999999 -9.173333333333332 126.82666666666667 126.82666666666667 0 0 0 -74.66666666666666 23.04 8.213333333333333 8.213333333333333 0 0 0 -2.3466666666666667 8.959999999999999 8.106666666666666 8.106666666666666 0 0 0 7.573333333333332 5.333333333333333h240a8.106666666666666 8.106666666666666 0 0 0 7.573333333333332 -5.333333333333333 8.213333333333333 8.213333333333333 0 0 0 -2.1333333333333333 -8.959999999999999Z" fill="#ffffff" stroke-width="10.6667"></path>
    <path d="M170.66666666666666 29.333333333333332a29.333333333333332 29.333333333333332 0 1 0 58.666666666666664 0 29.333333333333332 29.333333333333332 0 1 0 -58.666666666666664 0" fill="#ffffff" stroke-width="10.6667"></path>
  </g>
</svg>