<svg xmlns="http://www.w3.org/2000/svg" id="Volume-Control-Remove-1--Streamline-Ultimate" width="256" height="256" viewBox="0 0 256 256"><desc>Volume Control Remove 1 Streamline Icon: https://streamlinehq.com</desc><g id="Volume-Control-Remove-1--Streamline-Ultimate.svg"><path fill="#fff" stroke-width="10.667" d="M147.83999999999997 110.72a2.6666666666666665 2.6666666666666665 0 0 0 1.4933333333333334 -2.453333333333333V10.666666666666666a10.666666666666666 10.666666666666666 0 0 0 -11.306666666666667 -10.666666666666666A103.57333333333334 103.57333333333334 0 0 0 53.33333333333333 51.73333333333333a2.88 2.88 0 0 1 -2.2399999999999998 1.5999999999999999H32a32 32 0 0 0 -32 32v21.333333333333332a32 32 0 0 0 32 32h19.093333333333334a2.7733333333333334 2.7733333333333334 0 0 1 2.453333333333333 1.3866666666666667A97.6 97.6 0 0 0 97.91999999999999 181.33333333333331a2.88 2.88 0 0 0 2.453333333333333 0 2.5599999999999996 2.5599999999999996 0 0 0 1.2799999999999998 -2.1333333333333333 85.33333333333333 85.33333333333333 0 0 1 46.18666666666667 -68.47999999999999Z"/><path fill="#fff" stroke-width="10.667" d="M186.66666666666666 117.33333333333333a69.33333333333333 69.33333333333333 0 1 0 69.33333333333333 69.33333333333333 69.44 69.44 0 0 0 -69.33333333333333 -69.33333333333333Zm28.266666666666666 86.29333333333332a8 8 0 0 1 -11.306666666666667 11.306666666666667l-15.04 -15.04a2.6666666666666665 2.6666666666666665 0 0 0 -3.84 0l-15.04 15.04a8 8 0 0 1 -11.306666666666667 -11.306666666666667l15.04 -15.04a2.6666666666666665 2.6666666666666665 0 0 0 0 -3.84l-15.04 -15.04a8 8 0 1 1 11.306666666666667 -11.306666666666667l15.04 15.04a2.6666666666666665 2.6666666666666665 0 0 0 3.84 0l15.04 -15.04a8 8 0 0 1 11.306666666666667 11.306666666666667l-15.04 15.04a2.6666666666666665 2.6666666666666665 0 0 0 0 3.84Z"/></g></svg>