<svg xmlns="http://www.w3.org/2000/svg" id="Volume-Control-Warning--Streamline-Ultimate" width="256" height="256" viewBox="0 0 256 256"><desc>Volume Control Warning Streamline Icon: https://streamlinehq.com</desc><g id="Volume-Control-Warning--Streamline-Ultimate.svg"><path fill="#fff" stroke-width="10.667" d="M128 182.82666666666665a2.88 2.88 0 0 0 0 -1.4933333333333334V10.666666666666666a10.666666666666666 10.666666666666666 0 0 0 -6.613333333333333 -9.813333333333333 10.666666666666666 10.666666666666666 0 0 0 -11.626666666666667 2.2399999999999998L46.61333333333333 66.34666666666666a2.5599999999999996 2.5599999999999996 0 0 1 -1.92 0.7466666666666667H21.333333333333332a21.333333333333332 21.333333333333332 0 0 0 -21.333333333333332 21.333333333333332v36.48a21.333333333333332 21.333333333333332 0 0 0 21.333333333333332 21.333333333333332h23.36a2.5599999999999996 2.5599999999999996 0 0 1 1.92 0.7466666666666667l63.14666666666666 63.25333333333333a2.453333333333333 2.453333333333333 0 0 0 2.1333333333333333 0.6399999999999999 2.1333333333333333 2.1333333333333333 0 0 0 1.7066666666666666 -1.2799999999999998Z"/><path fill="#fff" stroke-width="10.667" d="M200.32 130.88a15.466666666666665 15.466666666666665 0 0 0 -27.306666666666665 0l-53.33333333333333 102.72a15.146666666666665 15.146666666666665 0 0 0 0 15.04 15.573333333333332 15.573333333333332 0 0 0 13.226666666666667 7.359999999999999h107.73333333333332a15.253333333333332 15.253333333333332 0 0 0 13.653333333333332 -22.29333333333333Zm-13.653333333333332 32a8 8 0 0 1 8 8v32a8 8 0 0 1 -16 0V170.66666666666666a8.106666666666666 8.106666666666666 0 0 1 8 -8Zm0 74.66666666666666a10.666666666666666 10.666666666666666 0 1 1 10.666666666666666 -10.666666666666666 10.666666666666666 10.666666666666666 0 0 1 -10.666666666666666 10.453333333333333Z"/></g></svg>