<svg xmlns="http://www.w3.org/2000/svg" id="Vpn-On-Circle--Streamline-Ultimate" width="256" height="256" fill="none" viewBox="0 0 256 256"><desc>Vpn On Circle Streamline Icon: https://streamlinehq.com</desc><path fill="#fff" fill-rule="evenodd" stroke-width="10.667" d="M0 128C0 57.30773333333333 57.30752 0.00016276053333333333 128 0.00016276053333333333 198.69226666666668 0.00016276053333333333 256 57.30773333333333 256 128c0 70.69226666666665 -57.30773333333333 128 -128 128 -70.69247999999999 0 -128 -57.30773333333333 -128 -128Zm185.82186666666666 -39.577706666666664c-1.6586666666666665 -3.3185066666666665 -5.3824000000000005 -5.060693333333333 -8.993066666666666 -4.20832 -3.610666666666667 0.85248 -6.162133333333333 4.0758399999999995 -6.162133333333333 7.786026666666666v72c0 4.4181333333333335 3.5818666666666665 8 8 8s8 -3.5818666666666665 8 -8v-38.110933333333335l20.8448 41.68853333333333c1.6586666666666665 3.3183999999999996 5.3824000000000005 5.061333333333333 8.993066666666666 4.208 3.610666666666667 -0.8522666666666666 6.162133333333333 -4.075733333333333 6.162133333333333 -7.7856v-72c0 -4.41824 -3.5818666666666665 -8 -8 -8s-8 3.5817599999999996 -8 8v38.111999999999995l-20.8448 -41.689706666666666Zm-75.4784 -2.0791466666666665c1.4997333333333334 -1.5002666666666666 3.534933333333333 -2.3431466666666667 5.656533333333333 -2.3431466666666667h14.999466666666665C147.0165333333333 84 160 96.98378666666667 160 113.00053333333332c0 16.016 -12.983466666666667 28.999466666666667 -29.00053333333333 28.999466666666667h-6.999466666666667v22c0 4.4181333333333335 -3.5818666666666665 8 -8 8s-8 -3.5818666666666665 -8 -8v-72c0 -2.1217066666666664 0.8426666666666667 -4.156586666666667 2.3434666666666666 -5.656853333333332Zm13.656533333333332 39.65685333333333h6.999466666666667c7.179733333333333 0 13.000533333333333 -5.820799999999999 13.000533333333333 -12.999466666666665 0 -7.180266666666666 -5.820799999999999 -13.000533333333333 -13.000533333333333 -13.000533333333333h-6.999466666666667v26ZM49.09450666666667 90.05973333333333 65.33333333333333 155.01546666666667l16.238826666666665 -64.95573333333333c1.0715733333333333 -4.2863999999999995 5.415146666666666 -6.89248 9.70144 -5.820906666666667 4.2863999999999995 1.0715733333333333 6.89248 5.415039999999999 5.820906666666667 9.70144l-16.544853333333332 66.1792c-1.7454933333333333 6.982399999999999 -8.0192 11.880533333333332 -15.21632 11.880533333333332 -7.197226666666666 0 -13.470826666666667 -4.898133333333333 -15.21632 -11.880533333333332L33.57216 93.94026666666667c-1.0715733333333333 -4.2863999999999995 1.5345066666666665 -8.629866666666667 5.820906666666667 -9.70144 4.286293333333333 -1.0715733333333333 8.62976 1.5345066666666665 9.70144 5.820906666666667Z" clip-rule="evenodd"/></svg>