<svg xmlns="http://www.w3.org/2000/svg" fill="none" viewBox="0 0 256 256" id="Vpn-Shield--Streamline-Ultimate" height="256" width="256">
  <desc>
    Vpn Shield Streamline Icon: https://streamlinehq.com
  </desc>
  <path fill="#ffffff" fill-rule="evenodd" d="M2.912 29.557333333333332A26.048000000000002 26.048000000000002 0 0 1 28.938666666666666 3.541333333333333h198.12266666666667a26.048000000000002 26.048000000000002 0 0 1 26.026666666666664 26.026666666666664v52.58666666666666a180.81066666666666 180.81066666666666 0 0 1 -114.89066666666668 168.17066666666665 8.010666666666665 8.010666666666665 0 0 1 -0.7893333333333332 0.3626666666666667 25.845333333333333 25.845333333333333 0 0 1 -18.784 0A180.896 180.896 0 0 1 2.912 82.17599999999999V29.557333333333332Zm97.248 104.45866666666666c16.234666666666666 -16.24533333333333 41.215999999999994 -15.744 55.349333333333334 -0.33066666666666666a10.666666666666666 10.666666666666666 0 0 0 15.722666666666665 -14.421333333333333c-22.93333333333333 -25.013333333333335 -61.97333333333333 -24.53333333333333 -86.15466666666666 -0.33066666666666666a10.666666666666666 10.666666666666666 0 1 0 15.082666666666665 15.082666666666665Zm92.05333333333334 -35.221333333333334c-36.394666666666666 -34.879999999999995 -93.77066666666667 -34.656 -128.26666666666665 -0.15999999999999998A10.666666666666666 10.666666666666666 0 0 1 48.85333333333333 83.55199999999999c43.007999999999996 -42.99733333333333 113.65333333333332 -42.773333333333326 158.12266666666665 -0.15999999999999998a10.666666666666666 10.666666666666666 0 0 1 -14.762666666666664 15.402666666666665Zm-64.21333333333332 85.33333333333333a17.216 17.216 0 1 0 0 -34.45333333333333 17.216 17.216 0 0 0 0 34.45333333333333Z" clip-rule="evenodd" stroke-width="10.6667"></path>
</svg>