<svg xmlns="http://www.w3.org/2000/svg" viewBox="0 0 256 256" id="Walkman-Headphones--Streamline-Ultimate" height="256" width="256">
  <desc>
    Walkman Headphones Streamline Icon: https://streamlinehq.com
  </desc>
  <g id="Walkman-Headphones--Streamline-Ultimate.svg">
    <path d="M128 0A128 128 0 0 0 0 128v80a21.333333333333332 21.333333333333332 0 0 0 42.666666666666664 0V160a21.333333333333332 21.333333333333332 0 0 0 -18.986666666666665 -21.333333333333332 2.6666666666666665 2.6666666666666665 0 0 1 -2.3466666666666667 -2.5599999999999996V128a106.66666666666666 106.66666666666666 0 0 1 213.33333333333331 0v8.106666666666666a2.6666666666666665 2.6666666666666665 0 0 1 -2.3466666666666667 2.6666666666666665A21.333333333333332 21.333333333333332 0 0 0 213.33333333333331 160v48a21.333333333333332 21.333333333333332 0 0 0 42.666666666666664 0V128A128 128 0 0 0 128 0Z" fill="#ffffff" stroke-width="10.6667"></path>
    <path d="M186.66666666666666 85.33333333333333h-96A16 16 0 0 0 74.66666666666666 101.33333333333333v2.6666666666666665a2.6666666666666665 2.6666666666666665 0 0 1 -2.6666666666666665 2.6666666666666665H69.33333333333333A16 16 0 0 0 53.33333333333333 122.66666666666666V149.33333333333331a16 16 0 0 0 16 16h2.6666666666666665a2.6666666666666665 2.6666666666666665 0 0 1 2.6666666666666665 2.6666666666666665v72A16 16 0 0 0 90.66666666666666 256h96a16 16 0 0 0 16 -16v-138.66666666666666A16 16 0 0 0 186.66666666666666 85.33333333333333Zm-10.666666666666666 32v85.33333333333333a10.666666666666666 10.666666666666666 0 0 1 -10.666666666666666 10.666666666666666h-53.33333333333333a10.666666666666666 10.666666666666666 0 0 1 -10.666666666666666 -10.666666666666666v-85.33333333333333a10.666666666666666 10.666666666666666 0 0 1 10.666666666666666 -10.666666666666666h53.33333333333333a10.666666666666666 10.666666666666666 0 0 1 10.666666666666666 10.666666666666666Z" fill="#ffffff" stroke-width="10.6667"></path>
    <path d="M133.33333333333331 138.66666666666666a10.666666666666666 10.666666666666666 0 1 0 21.333333333333332 0 10.666666666666666 10.666666666666666 0 1 0 -21.333333333333332 0" fill="#ffffff" stroke-width="10.6667"></path>
    <path d="M133.33333333333331 181.33333333333331a10.666666666666666 10.666666666666666 0 1 0 21.333333333333332 0 10.666666666666666 10.666666666666666 0 1 0 -21.333333333333332 0" fill="#ffffff" stroke-width="10.6667"></path>
  </g>
</svg>