<svg xmlns="http://www.w3.org/2000/svg" viewBox="0 0 256 256" id="Walking-1--Streamline-Ultimate" height="256" width="256">
  <desc>
    Walking 1 Streamline Icon: https://streamlinehq.com
  </desc>
  <g id="Walking-1--Streamline-Ultimate.svg">
    <path d="M114.66666666666666 37.54666666666667a37.33333333333333 37.33333333333333 0 1 0 74.66666666666666 0 37.33333333333333 37.33333333333333 0 1 0 -74.66666666666666 0" fill="#ffffff" stroke-width="10.6667"></path>
    <path d="M149.33333333333331 150.93333333333334a32 32 0 0 1 0 -22.08l5.4399999999999995 -15.146666666666665a21.333333333333332 21.333333333333332 0 1 0 -40.74666666666666 -14.506666666666668l-46.08 128a21.333333333333332 21.333333333333332 0 0 0 12.799999999999999 27.306666666666665 21.333333333333332 21.333333333333332 0 0 0 7.253333333333334 1.2799999999999998 21.333333333333332 21.333333333333332 0 0 0 20.05333333333333 -14.08l11.84 -32.959999999999994a2.6666666666666665 2.6666666666666665 0 0 1 2.5599999999999996 -1.7066666666666666 2.6666666666666665 2.6666666666666665 0 0 1 2.453333333333333 1.7066666666666666l12.479999999999999 33.17333333333333A21.333333333333332 21.333333333333332 0 0 0 157.33333333333331 256a20.586666666666666 20.586666666666666 0 0 0 7.466666666666666 -1.3866666666666667 21.333333333333332 21.333333333333332 0 0 0 12.479999999999999 -27.41333333333333Z" fill="#ffffff" stroke-width="10.6667"></path>
  </g>
</svg>