<svg xmlns="http://www.w3.org/2000/svg" id="Warehouse-Storage-2--Streamline-Ultimate" width="256" height="256" viewBox="0 0 256 256"><desc>Warehouse Storage 2 Streamline Icon: https://streamlinehq.com</desc><g id="Warehouse-Storage-2--Streamline-Ultimate.svg"><path fill="#fff" stroke-width="10.667" d="M21.333333333333332 101.33333333333333a10.666666666666666 10.666666666666666 0 0 0 -10.666666666666666 10.666666666666666V245.33333333333331a10.666666666666666 10.666666666666666 0 0 0 21.333333333333332 0V112a10.666666666666666 10.666666666666666 0 0 0 -10.666666666666666 -10.666666666666666Z"/><path fill="#fff" stroke-width="10.667" d="M234.66666666666666 101.33333333333333a10.666666666666666 10.666666666666666 0 0 0 -10.666666666666666 10.666666666666666V245.33333333333331a10.666666666666666 10.666666666666666 0 0 0 21.333333333333332 0V112a10.666666666666666 10.666666666666666 0 0 0 -10.666666666666666 -10.666666666666666Z"/><path fill="#fff" stroke-width="10.667" d="M96 117.33333333333333h64s5.333333333333333 0 5.333333333333333 5.333333333333333v53.33333333333333s0 5.333333333333333 -5.333333333333333 5.333333333333333H96s-5.333333333333333 0 -5.333333333333333 -5.333333333333333v-53.33333333333333s0 -5.333333333333333 5.333333333333333 -5.333333333333333"/><path fill="#fff" stroke-width="10.667" d="M138.66666666666666 192h64s5.333333333333333 0 5.333333333333333 5.333333333333333v53.33333333333333s0 5.333333333333333 -5.333333333333333 5.333333333333333h-64s-5.333333333333333 0 -5.333333333333333 -5.333333333333333v-53.33333333333333s0 -5.333333333333333 5.333333333333333 -5.333333333333333"/><path fill="#fff" stroke-width="10.667" d="M53.33333333333333 192h64s5.333333333333333 0 5.333333333333333 5.333333333333333v53.33333333333333s0 5.333333333333333 -5.333333333333333 5.333333333333333H53.33333333333333s-5.333333333333333 0 -5.333333333333333 -5.333333333333333v-53.33333333333333s0 -5.333333333333333 5.333333333333333 -5.333333333333333"/><path fill="#fff" stroke-width="10.667" d="M252.37333333333333 37.76C242.24 28.906666666666666 203.30666666666664 0 128 0S13.76 28.906666666666666 3.626666666666667 37.76A10.666666666666666 10.666666666666666 0 0 0 0 45.86666666666666v34.773333333333326a10.666666666666666 10.666666666666666 0 0 0 10.666666666666666 10.666666666666666h234.66666666666666a10.666666666666666 10.666666666666666 0 0 0 10.666666666666666 -10.666666666666666V45.86666666666666a10.666666666666666 10.666666666666666 0 0 0 -3.626666666666667 -8.106666666666666Z"/></g></svg>