<svg xmlns="http://www.w3.org/2000/svg" viewBox="0 0 256 256" id="Warehouse-Cart-Packages-2--Streamline-Ultimate" height="256" width="256">
  <desc>
    Warehouse Cart Packages 2 Streamline Icon: https://streamlinehq.com
  </desc>
  <g id="Warehouse-Cart-Packages-2--Streamline-Ultimate.svg">
    <path d="M145.50719999999998 225.72266666666667c0 15.398399999999999 16.669866666666664 25.021866666666668 30.005333333333333 17.322666666666667 6.1888000000000005 -3.5722666666666663 10.001066666666667 -10.175999999999998 10.001066666666667 -17.322666666666667 0 -15.398399999999999 -16.668799999999997 -25.021866666666668 -30.004266666666666 -17.322666666666667 -6.1888000000000005 3.5733333333333333 -10.002133333333333 10.175999999999998 -10.002133333333333 17.322666666666667" fill="#ffffff" stroke-width="10.6667"></path>
    <path d="M35.492266666666666 225.72266666666667c0 15.398399999999999 16.668799999999997 25.021866666666668 30.004266666666666 17.322666666666667 6.1888000000000005 -3.5722666666666663 10.001066666666667 -10.175999999999998 10.001066666666667 -17.322666666666667 0 -15.398399999999999 -16.668799999999997 -25.021866666666668 -30.004266666666666 -17.322666666666667 -6.1888000000000005 3.5733333333333333 -10.001066666666667 10.175999999999998 -10.001066666666667 17.322666666666667" fill="#ffffff" stroke-width="10.6667"></path>
    <path d="M216.45546666666667 183.00799999999998c-1.1157333333333332 10.088533333333332 -9.6448 17.719466666666666 -19.79413333333333 17.710933333333333H10.904533333333333c-7.8591999999999995 -1.5957333333333334 -11.044266666666667 -11.1008 -5.732266666666666 -17.109333333333332 1.5008 -1.6970666666666665 3.512533333333333 -2.8597333333333332 5.732266666666666 -3.3098666666666667h177.10933333333332c5.1946666666666665 0.05866666666666666 9.639466666666666 -3.7194666666666665 10.418133333333333 -8.855466666666667l16.148266666666665 -143.0421333333333c1.1157333333333332 -10.087466666666666 9.6448 -17.7184 19.79413333333333 -17.710933333333333h5.730133333333333c7.699199999999999 -2.245333333333333 14.941866666666666 4.685866666666667 13.0368 12.476799999999999 -1.4090666666666665 5.763199999999999 -7.3408 9.188266666666667 -13.0368 7.5264h-3.8549333333333333c-1.2671999999999999 -0.0096 -2.341333333333333 0.9301333333333333 -2.5002666666666666 2.187733333333333Z" fill="#ffffff" stroke-width="10.6667"></path>
    <path d="M20.4896 125.7088h70.01066666666667s10.001066666666667 0 10.001066666666667 10.001066666666667v20.0032s0 10.001066666666667 -10.001066666666667 10.001066666666667H20.4896s-10.001066666666667 0 -10.001066666666667 -10.001066666666667v-20.0032s0 -10.001066666666667 10.001066666666667 -10.001066666666667" fill="#ffffff" stroke-width="10.6667"></path>
    <path d="M50.49386666666666 80.70186666666666h40.0064s10.001066666666667 0 10.001066666666667 10.001066666666667v10.002133333333333s0 10.001066666666667 -10.001066666666667 10.001066666666667H50.49386666666666s-10.001066666666667 0 -10.001066666666667 -10.001066666666667v-10.002133333333333s0 -10.001066666666667 10.001066666666667 -10.001066666666667" fill="#ffffff" stroke-width="10.6667"></path>
    <path d="M125.50506666666666 55.69813333333333h50.007466666666666s10.001066666666667 0 10.001066666666667 10.002133333333333v90.0128s0 10.001066666666667 -10.001066666666667 10.001066666666667h-50.007466666666666s-10.002133333333333 0 -10.002133333333333 -10.001066666666667V65.69919999999999s0 -10.001066666666667 10.002133333333333 -10.001066666666667" fill="#ffffff" stroke-width="10.6667"></path>
  </g>
</svg>