<svg xmlns="http://www.w3.org/2000/svg" id="Warehouse-Cart-Package-Ribbon--Streamline-Ultimate" width="256" height="256" viewBox="0 0 256 256"><desc>Warehouse Cart Package Ribbon Streamline Icon: https://streamlinehq.com</desc><g id="Warehouse-Cart-Package-Ribbon--Streamline-Ultimate.svg"><path fill="#fff" stroke-width="10.667" d="M37.33333333333333 165.33333333333331h106.66666666666666a10.666666666666666 10.666666666666666 0 0 0 10.666666666666666 -10.666666666666666V85.33333333333333a10.666666666666666 10.666666666666666 0 0 0 -10.666666666666666 -10.666666666666666h-29.333333333333332a2.6666666666666665 2.6666666666666665 0 0 0 -2.6666666666666665 2.6666666666666665V106.66666666666666a5.333333333333333 5.333333333333333 0 0 1 -8.533333333333333 4.266666666666667l-9.6 -7.1466666666666665a5.119999999999999 5.119999999999999 0 0 0 -6.3999999999999995 0l-9.6 7.1466666666666665a5.333333333333333 5.333333333333333 0 0 1 -8.533333333333333 -4.266666666666667V77.33333333333333A2.6666666666666665 2.6666666666666665 0 0 0 66.66666666666666 74.66666666666666H37.33333333333333a10.666666666666666 10.666666666666666 0 0 0 -10.666666666666666 10.666666666666666v69.33333333333333a10.666666666666666 10.666666666666666 0 0 0 10.666666666666666 10.666666666666666Z"/><path fill="#fff" stroke-width="10.667" d="M26.666666666666664 234.66666666666666a21.333333333333332 21.333333333333332 0 1 0 42.666666666666664 0 21.333333333333332 21.333333333333332 0 1 0 -42.666666666666664 0"/><path fill="#fff" stroke-width="10.667" d="M128 234.66666666666666a21.333333333333332 21.333333333333332 0 1 0 42.666666666666664 0 21.333333333333332 21.333333333333332 0 1 0 -42.666666666666664 0"/><path fill="#fff" stroke-width="10.667" d="M256 10.666666666666666a10.666666666666666 10.666666666666666 0 0 0 -10.666666666666666 -10.666666666666666h-14.613333333333333a32 32 0 0 0 -31.36 25.599999999999998l-30.29333333333333 147.2a10.666666666666666 10.666666666666666 0 0 1 -10.666666666666666 8.533333333333333H10.666666666666666a10.666666666666666 10.666666666666666 0 0 0 0 21.333333333333332h147.94666666666666a32 32 0 0 0 31.36 -25.599999999999998l30.29333333333333 -147.2a10.666666666666666 10.666666666666666 0 0 1 10.666666666666666 -8.533333333333333H245.33333333333331a10.666666666666666 10.666666666666666 0 0 0 10.666666666666666 -10.666666666666666Z"/><path fill="#fff" stroke-width="10.667" d="M64 0h53.33333333333333s10.666666666666666 0 10.666666666666666 10.666666666666666v42.666666666666664s0 10.666666666666666 -10.666666666666666 10.666666666666666H64S53.33333333333333 64 53.33333333333333 53.33333333333333V10.666666666666666s0 -10.666666666666666 10.666666666666666 -10.666666666666666"/></g></svg>