<svg xmlns="http://www.w3.org/2000/svg" id="Warp-Rise--Streamline-Ultimate" width="256" height="256" fill="none" viewBox="0 0 256 256"><desc>Warp Rise Streamline Icon: https://streamlinehq.com</desc><path fill="#fff" fill-rule="evenodd" stroke-width="10.667" d="M143.63413333333332 37.277973333333335c17.831466666666664 -16.608533333333334 43.07093333333333 -25.861333333333334 69.25973333333333 -25.861333333333334h34.583466666666666c4.4181333333333335 0 8 3.5817599999999996 8 8v50.24992l-36.678399999999996 0c-23.607466666666667 0 -46.33813333333333 8.946133333333332 -63.6128 25.03648L96.26112 149.5872c-14.313600000000001 13.332266666666666 -33.14762666666667 20.744533333333333 -52.70826666666666 20.744533333333333H0.5312501333333333v-50.249599999999994c0 -4.4181333333333335 3.581720533333333 -8 8.000003199999998 -8H28.124799999999997c22.590399999999995 0 43.79797333333333 -8.010773333333333 58.35509333333333 -21.569706666666665l57.154239999999994 -53.234453333333335ZM0.5312501333333333 186.33173333333332v50.249599999999994c0 4.4181333333333335 3.581720533333333 8 8.000003199999998 8H49.458133333333336c26.188693333333333 0 51.42890666666666 -9.253333333333334 69.26079999999999 -25.861333333333334l57.15306666666667 -53.23413333333333c14.557866666666666 -13.559466666666667 35.76533333333333 -21.570133333333334 58.355199999999996 -21.570133333333334h13.250133333333332c4.4181333333333335 0 8 -3.5818666666666665 8 -8V85.66656l-36.678399999999996 0c-19.560533333333332 0 -38.394666666666666 7.4124799999999995 -52.70826666666666 20.744533333333333l-58.924800000000005 54.88384c-17.27456 16.090666666666664 -40.00533333333333 25.0368 -63.613013333333335 25.0368H0.5312501333333333Z" clip-rule="evenodd"/></svg>