<svg xmlns="http://www.w3.org/2000/svg" viewBox="0 0 256 256" id="Washing-Hand--Streamline-Ultimate" height="256" width="256">
  <desc>
    Washing Hand Streamline Icon: https://streamlinehq.com
  </desc>
  <g id="Washing-Hand--Streamline-Ultimate.svg">
    <path d="M229.22666666666663 92.37333333333333A34.879999999999995 34.879999999999995 0 0 0 202.66666666666666 72a46.50666666666667 46.50666666666667 0 0 0 -40.42666666666666 -23.786666666666665 47.57333333333333 47.57333333333333 0 0 0 -23.57333333333333 6.079999999999999 10.666666666666666 10.666666666666666 0 1 0 10.666666666666666 18.56 24.426666666666666 24.426666666666666 0 0 1 12.586666666666666 -3.3066666666666666 25.386666666666663 25.386666666666663 0 0 1 23.57333333333333 16.53333333333333 10.666666666666666 10.666666666666666 0 0 0 10.666666666666666 6.933333333333334h0.7466666666666667a13.546666666666667 13.546666666666667 0 0 1 13.333333333333332 10.666666666666666 10.666666666666666 10.666666666666666 0 0 0 10.666666666666666 8.64 13.76 13.76 0 0 1 13.76 13.866666666666667 13.973333333333333 13.973333333333333 0 0 1 -1.8133333333333335 6.933333333333334 10.666666666666666 10.666666666666666 0 0 0 3.626666666666667 14.719999999999999 11.306666666666667 11.306666666666667 0 0 0 5.4399999999999995 1.4933333333333334 10.666666666666666 10.666666666666666 0 0 0 9.173333333333332 -5.226666666666667 34.773333333333326 34.773333333333326 0 0 0 4.906666666666666 -17.919999999999998 35.199999999999996 35.199999999999996 0 0 0 -26.77333333333333 -33.81333333333333Z" fill="#ffffff" stroke-width="10.6667"></path>
    <path d="M33.81333333333333 66.66666666666666A33.38666666666666 33.38666666666666 0 1 0 0 33.28a33.38666666666666 33.38666666666666 0 0 0 33.81333333333333 33.38666666666666Z" fill="#ffffff" stroke-width="10.6667"></path>
    <path d="M224 64a32 32 0 1 0 -32 -32 32 32 0 0 0 32 32Z" fill="#ffffff" stroke-width="10.6667"></path>
    <path d="M104.42666666666665 32a16 16 0 1 0 -16 -16A16 16 0 0 0 104.42666666666665 32Z" fill="#ffffff" stroke-width="10.6667"></path>
    <path d="M231.67999999999998 154.66666666666666h-89.70666666666666a5.4399999999999995 5.4399999999999995 0 0 1 -5.333333333333333 -5.333333333333333 5.333333333333333 5.333333333333333 0 0 1 5.333333333333333 -5.333333333333333h53.33333333333333a18.666666666666664 18.666666666666664 0 0 0 0 -37.33333333333333h-106.66666666666666a2.7733333333333334 2.7733333333333334 0 0 1 -2.5599999999999996 -1.92 2.6666666666666665 2.6666666666666665 0 0 1 1.0666666666666667 -2.986666666666667l32 -22.613333333333333a18.56 18.56 0 0 0 -21.333333333333332 -30.186666666666667l-82.77333333333333 58.346666666666664A34.773333333333326 34.773333333333326 0 0 0 0 135.68v53.33333333333333A66.66666666666666 66.66666666666666 0 0 0 67.19999999999999 256h96a18.88 18.88 0 0 0 15.146666666666665 -7.68 19.2 19.2 0 0 0 2.986666666666667 -17.173333333333332 2.6666666666666665 2.6666666666666665 0 0 0 -2.5599999999999996 -1.8133333333333335h-52.8a5.4399999999999995 5.4399999999999995 0 0 1 -5.333333333333333 -5.333333333333333 5.333333333333333 5.333333333333333 0 0 1 5.333333333333333 -5.333333333333333h69.33333333333333a18.88 18.88 0 0 0 15.146666666666665 -7.68 19.2 19.2 0 0 0 2.88 -17.173333333333332 2.6666666666666665 2.6666666666666665 0 0 0 -2.5599999999999996 -1.8133333333333335h-68.8a5.4399999999999995 5.4399999999999995 0 0 1 -5.333333333333333 -5.333333333333333 5.333333333333333 5.333333333333333 0 0 1 5.333333333333333 -5.333333333333333h74.66666666666666a18.666666666666664 18.666666666666664 0 0 0 18.666666666666664 -18.666666666666664 17.706666666666663 17.706666666666663 0 0 0 -1.0666666666666667 -6.293333333333333 2.6666666666666665 2.6666666666666665 0 0 0 -2.5599999999999996 -1.7066666666666666Z" fill="#ffffff" stroke-width="10.6667"></path>
  </g>
</svg>