<svg xmlns="http://www.w3.org/2000/svg" id="Water-Fountain-Jet--Streamline-Ultimate" width="256" height="256" viewBox="0 0 256 256"><desc>Water Fountain Jet Streamline Icon: https://streamlinehq.com</desc><g id="Water-Fountain-Jet--Streamline-Ultimate.svg"><g><path fill="#fff" stroke-width="10.667" d="M117.97333333333333 2.453333333333333a96 96 0 0 0 -96 96v58.666666666666664a5.333333333333333 5.333333333333333 0 0 0 5.333333333333333 5.333333333333333h32a5.333333333333333 5.333333333333333 0 0 0 5.333333333333333 -5.333333333333333v-58.666666666666664a53.33333333333333 53.33333333333333 0 0 1 58.56 -53.33333333333333 55.14666666666666 55.14666666666666 0 0 1 48.10666666666666 55.67999999999999 8.106666666666666 8.106666666666666 0 0 0 8.106666666666666 8.106666666666666h23.893333333333334a10.666666666666666 10.666666666666666 0 0 0 10.666666666666666 -10.666666666666666 96 96 0 0 0 -96 -95.78666666666666Z"/><path fill="#fff" stroke-width="10.667" d="M181.9733333333333 173.12a10.666666666666666 10.666666666666666 0 1 0 21.333333333333332 0 10.666666666666666 10.666666666666666 0 1 0 -21.333333333333332 0"/><path fill="#fff" stroke-width="10.667" d="M181.9733333333333 135.78666666666666a10.666666666666666 10.666666666666666 0 1 0 21.333333333333332 0 10.666666666666666 10.666666666666666 0 1 0 -21.333333333333332 0"/><path fill="#fff" stroke-width="10.667" d="M181.9733333333333 210.45333333333332a10.666666666666666 10.666666666666666 0 1 0 21.333333333333332 0 10.666666666666666 10.666666666666666 0 1 0 -21.333333333333332 0"/><path fill="#fff" stroke-width="10.667" d="M213.9733333333333 173.12a10.666666666666666 10.666666666666666 0 1 0 21.333333333333332 0 10.666666666666666 10.666666666666666 0 1 0 -21.333333333333332 0"/><path fill="#fff" stroke-width="10.667" d="M224.64 210.45333333333332a10.666666666666666 10.666666666666666 0 1 0 21.333333333333332 0 10.666666666666666 10.666666666666666 0 1 0 -21.333333333333332 0"/><path fill="#fff" stroke-width="10.667" d="M149.97333333333333 173.12a10.666666666666666 10.666666666666666 0 1 0 21.333333333333332 0 10.666666666666666 10.666666666666666 0 1 0 -21.333333333333332 0"/><path fill="#fff" stroke-width="10.667" d="M139.30666666666667 210.45333333333332a10.666666666666666 10.666666666666666 0 1 0 21.333333333333332 0 10.666666666666666 10.666666666666666 0 1 0 -21.333333333333332 0"/></g><path fill="#fff" stroke-width="10.667" d="M60.48 229.9733333333333A27.093333333333334 27.093333333333334 0 0 1 25.599999999999998 194.13333333333333a29.226666666666667 29.226666666666667 0 0 1 3.9466666666666663 -6.506666666666666 5.333333333333333 5.333333333333333 0 0 0 -4.16 -8.746666666666666h-4.693333333333333a10.666666666666666 10.666666666666666 0 0 0 -10.666666666666666 10.666666666666666v53.33333333333333a10.666666666666666 10.666666666666666 0 0 0 10.666666666666666 10.666666666666666h42.666666666666664a10.666666666666666 10.666666666666666 0 0 0 10.666666666666666 -10.666666666666666v-13.013333333333332a3.413333333333333 3.413333333333333 0 0 0 -5.013333333333333 -3.3066666666666666Z"/><path fill="#fff" stroke-width="10.667" d="M118.93333333333334 177.70666666666665a16.32 16.32 0 0 0 -21.333333333333332 -9.173333333333332l-53.33333333333333 21.333333333333332a16.32 16.32 0 1 0 12.266666666666666 30.186666666666667l53.33333333333333 -21.333333333333332a16.32 16.32 0 0 0 9.066666666666666 -21.013333333333332Z"/></g></svg>