<svg xmlns="http://www.w3.org/2000/svg" id="Water-Bottle-Glass--Streamline-Ultimate" width="256" height="256" viewBox="0 0 256 256"><desc>Water Bottle Glass Streamline Icon: https://streamlinehq.com</desc><g id="Water-Bottle-Glass--Streamline-Ultimate.svg"><path fill="#fff" stroke-width="10.667" d="M165.33333333333331 32a5.333333333333333 5.333333333333333 0 0 0 5.333333333333333 -5.333333333333333V10.666666666666666a10.666666666666666 10.666666666666666 0 0 0 -10.666666666666666 -10.666666666666666H96a10.666666666666666 10.666666666666666 0 0 0 -10.666666666666666 10.666666666666666v16a5.333333333333333 5.333333333333333 0 0 0 5.333333333333333 5.333333333333333Z"/><path fill="#fff" stroke-width="10.667" d="M178.02666666666667 65.6a129.27999999999997 129.27999999999997 0 0 1 -6.506666666666666 -14.08 5.333333333333333 5.333333333333333 0 0 0 -5.119999999999999 -3.52H89.6a5.333333333333333 5.333333333333333 0 0 0 -5.119999999999999 3.52 129.27999999999997 129.27999999999997 0 0 1 -6.506666666666666 14.08A99.62666666666667 99.62666666666667 0 0 0 64 106.66666666666666v122.66666666666666A26.666666666666664 26.666666666666664 0 0 0 90.66666666666666 256h74.66666666666666a26.666666666666664 26.666666666666664 0 0 0 26.666666666666664 -26.666666666666664V106.66666666666666a99.62666666666667 99.62666666666667 0 0 0 -13.973333333333333 -41.06666666666666Z"/></g></svg>