<svg xmlns="http://www.w3.org/2000/svg" id="Water-Straw--Streamline-Ultimate" width="256" height="256" viewBox="0 0 256 256"><desc>Water Straw Streamline Icon: https://streamlinehq.com</desc><path fill="#fff" stroke-width="10.667" d="M191.04 21.333333333333332h24.959999999999997a10.666666666666666 10.666666666666666 0 0 0 0 -21.333333333333332h-24.959999999999997a53.33333333333333 53.33333333333333 0 0 0 -51.84 40.959999999999994 2.3466666666666667 2.3466666666666667 0 0 1 -2.1333333333333333 1.7066666666666666h-91.73333333333332a14.826666666666664 14.826666666666664 0 0 0 -11.946666666666667 5.4399999999999995 15.146666666666665 15.146666666666665 0 0 0 -3.733333333333333 13.12c16.21333333333333 97.81333333333333 9.386666666666667 56.74666666666667 27.946666666666665 168A32 32 0 0 0 89.06666666666666 256h72.53333333333333a32 32 0 0 0 32 -26.77333333333333c18.453333333333333 -111.25333333333333 11.626666666666667 -70.29333333333332 27.946666666666665 -167.78666666666666a15.04 15.04 0 0 0 -3.1999999999999997 -12.586666666666666A15.36 15.36 0 0 0 205.33333333333331 42.666666666666664h-40.31999999999999a2.5599999999999996 2.5599999999999996 0 0 1 -2.2399999999999998 -1.2799999999999998 2.453333333333333 2.453333333333333 0 0 1 0 -2.5599999999999996A32 32 0 0 1 191.04 21.333333333333332Zm-70.82666666666665 102.39999999999999a2.6666666666666665 2.6666666666666665 0 0 1 -3.1999999999999997 2.0266666666666664 38.50666666666666 38.50666666666666 0 0 1 -23.46666666666667 -15.04A10.666666666666666 10.666666666666666 0 0 0 85.33333333333333 106.66666666666666a10.666666666666666 10.666666666666666 0 0 0 -8.533333333333333 4.373333333333333 41.06666666666666 41.06666666666666 0 0 1 -11.413333333333334 10.666666666666666 2.7733333333333334 2.7733333333333334 0 0 1 -2.5599999999999996 0 2.88 2.88 0 0 1 -1.4933333333333334 -2.0266666666666664L52.266666666666666 67.09333333333333a2.2399999999999998 2.2399999999999998 0 0 1 0 -2.1333333333333333 2.6666666666666665 2.6666666666666665 0 0 1 2.5599999999999996 -0.96h75.73333333333332a2.453333333333333 2.453333333333333 0 0 1 2.0266666666666664 0.96 2.6666666666666665 2.6666666666666665 0 0 1 0.5333333333333333 2.3466666666666667Zm54.18666666666667 -12.906666666666666a10.666666666666666 10.666666666666666 0 0 0 -17.173333333333332 0 38.61333333333333 38.61333333333333 0 0 1 -9.493333333333332 9.173333333333332 2.7733333333333334 2.7733333333333334 0 0 1 -3.093333333333333 0 2.7733333333333334 2.7733333333333334 0 0 1 -1.0666666666666667 -2.7733333333333334l11.733333333333334 -51.093333333333334a2.6666666666666665 2.6666666666666665 0 0 1 2.5599999999999996 -2.1333333333333333h37.97333333333333a2.6666666666666665 2.6666666666666665 0 0 1 2.1333333333333333 0.96 2.986666666666667 2.986666666666667 0 0 1 0.5333333333333333 2.1333333333333333l-8.64 52.16a3.093333333333333 3.093333333333333 0 0 1 -1.5999999999999999 2.0266666666666664 2.5599999999999996 2.5599999999999996 0 0 1 -2.453333333333333 0 39.46666666666667 39.46666666666667 0 0 1 -11.413333333333334 -10.453333333333333Z"/></svg>