<svg xmlns="http://www.w3.org/2000/svg" id="Weather-Wind-Flow-6--Streamline-Ultimate" width="256" height="256" viewBox="0 0 256 256"><desc>Weather Wind Flow 6 Streamline Icon: https://streamlinehq.com</desc><g id="Weather-Wind-Flow-6--Streamline-Ultimate.svg"><path fill="#fff" stroke-width="10.667" d="M16.96 75.52c35.946666666666665 -18.026666666666664 65.81333333333333 -17.919999999999998 106.66666666666666 0a157.6533333333333 157.6533333333333 0 0 0 64 15.36 133.76 133.76 0 0 0 60.8 -15.573333333333332 10.666666666666666 10.666666666666666 0 0 0 -0.8533333333333333 -19.413333333333334l-32 -12.586666666666666a10.666666666666666 10.666666666666666 0 1 0 -7.786666666666666 19.84l6.826666666666666 2.7733333333333334c-26.133333333333333 7.359999999999999 -51.093333333333334 4.053333333333333 -82.45333333333333 -9.92 -46.08 -20.37333333333333 -83.52 -20.266666666666666 -124.79999999999998 0.42666666666666664a10.666666666666666 10.666666666666666 0 0 0 -4.8 14.293333333333333 10.666666666666666 10.666666666666666 0 0 0 14.4 4.8Z"/><path fill="#fff" stroke-width="10.667" d="m247.78666666666666 118.08 -32 -12.479999999999999a10.666666666666666 10.666666666666666 0 1 0 -7.786666666666666 19.84l6.826666666666666 2.6666666666666665c-26.133333333333333 7.359999999999999 -51.093333333333334 4.053333333333333 -82.45333333333333 -9.813333333333333 -46.29333333333333 -20.586666666666666 -83.73333333333332 -20.586666666666666 -125.01333333333334 0.21333333333333332a10.666666666666666 10.666666666666666 0 1 0 9.6 18.986666666666665c35.839999999999996 -18.026666666666664 65.81333333333333 -17.919999999999998 106.66666666666666 0a157.86666666666667 157.86666666666667 0 0 0 64 15.466666666666665 132.58666666666664 132.58666666666664 0 0 0 60.8 -15.68 10.666666666666666 10.666666666666666 0 0 0 5.866666666666667 -10.026666666666666 10.666666666666666 10.666666666666666 0 0 0 -6.506666666666666 -9.173333333333332Z"/><path fill="#fff" stroke-width="10.667" d="m247.78666666666666 180.0533333333333 -32 -12.479999999999999a10.666666666666666 10.666666666666666 0 1 0 -7.786666666666666 19.84l6.826666666666666 2.6666666666666665c-26.133333333333333 7.359999999999999 -51.093333333333334 4.16 -82.45333333333333 -9.813333333333333C86.08 160 48.63999999999999 160 7.359999999999999 180.48000000000002a10.666666666666666 10.666666666666666 0 1 0 9.6 19.093333333333334C53.33333333333333 181.33333333333331 82.77333333333333 181.33333333333331 123.62666666666667 199.78666666666666a157.6533333333333 157.6533333333333 0 0 0 64 15.36 133.76 133.76 0 0 0 60.8 -15.573333333333332 10.666666666666666 10.666666666666666 0 0 0 -0.8533333333333333 -19.52Z"/></g></svg>