<svg xmlns="http://www.w3.org/2000/svg" id="Weather-Sun--Streamline-Ultimate" width="256" height="256" viewBox="0 0 256 256"><desc>Weather Sun Streamline Icon: https://streamlinehq.com</desc><g id="Weather-Sun--Streamline-Ultimate.svg"><path fill="#fff" stroke-width="10.667" d="M128 49.493333333333325A78.50666666666666 78.50666666666666 0 1 0 206.50666666666666 128 78.61333333333333 78.61333333333333 0 0 0 128 49.493333333333325Zm0 135.68A57.17333333333333 57.17333333333333 0 1 1 185.17333333333332 128 57.28 57.28 0 0 1 128 185.17333333333332Z"/><path fill="#fff" stroke-width="10.667" d="M128 37.013333333333335a10.666666666666666 10.666666666666666 0 0 0 10.666666666666666 -10.666666666666666V10.666666666666666a10.666666666666666 10.666666666666666 0 0 0 -21.333333333333332 0v15.68a10.666666666666666 10.666666666666666 0 0 0 10.666666666666666 10.666666666666666Z"/><path fill="#fff" stroke-width="10.667" d="M48.53333333333333 64a10.666666666666666 10.666666666666666 0 0 0 7.573333333333332 3.093333333333333A10.666666666666666 10.666666666666666 0 0 0 64 64a10.666666666666666 10.666666666666666 0 0 0 0 -15.466666666666665l-10.666666666666666 -10.666666666666666a10.666666666666666 10.666666666666666 0 0 0 -15.893333333333333 14.719999999999999Z"/><path fill="#fff" stroke-width="10.667" d="M26.346666666666668 117.33333333333333H10.666666666666666a10.666666666666666 10.666666666666666 0 0 0 0 21.333333333333332h15.68a10.666666666666666 10.666666666666666 0 1 0 0 -21.333333333333332Z"/><path fill="#fff" stroke-width="10.667" d="m48.53333333333333 192 -10.666666666666666 10.666666666666666a10.666666666666666 10.666666666666666 0 0 0 0 15.146666666666665 10.666666666666666 10.666666666666666 0 0 0 7.573333333333332 3.093333333333333 10.666666666666666 10.666666666666666 0 0 0 7.573333333333332 -3.093333333333333l10.666666666666666 -10.666666666666666A10.666666666666666 10.666666666666666 0 0 0 48.53333333333333 192Z"/><path fill="#fff" stroke-width="10.667" d="M128 218.98666666666668a10.666666666666666 10.666666666666666 0 0 0 -10.666666666666666 10.666666666666666V245.33333333333331a10.666666666666666 10.666666666666666 0 0 0 21.333333333333332 0v-15.68a10.666666666666666 10.666666666666666 0 0 0 -10.666666666666666 -10.666666666666666Z"/><path fill="#fff" stroke-width="10.667" d="M207.46666666666664 192A10.666666666666666 10.666666666666666 0 0 0 192 207.46666666666664l10.666666666666666 10.666666666666666a10.666666666666666 10.666666666666666 0 0 0 7.573333333333332 3.093333333333333 10.666666666666666 10.666666666666666 0 0 0 7.573333333333332 -3.093333333333333 10.666666666666666 10.666666666666666 0 0 0 0 -15.146666666666665Z"/><path fill="#fff" stroke-width="10.667" d="M245.33333333333331 117.33333333333333h-15.68a10.666666666666666 10.666666666666666 0 0 0 0 21.333333333333332H245.33333333333331a10.666666666666666 10.666666666666666 0 0 0 0 -21.333333333333332Z"/><path fill="#fff" stroke-width="10.667" d="M199.89333333333332 66.77333333333333a10.666666666666666 10.666666666666666 0 0 0 7.573333333333332 -2.7733333333333334l10.666666666666666 -10.666666666666666a10.666666666666666 10.666666666666666 0 1 0 -15.146666666666665 -15.146666666666665l-10.666666666666666 10.666666666666666A10.666666666666666 10.666666666666666 0 0 0 192 64a10.666666666666666 10.666666666666666 0 0 0 7.893333333333333 2.7733333333333334Z"/></g></svg>