<svg xmlns="http://www.w3.org/2000/svg" id="Weather-Cloud-Snow-Thunder--Streamline-Ultimate" width="256" height="256" viewBox="0 0 256 256"><desc>Weather Cloud Snow Thunder Streamline Icon: https://streamlinehq.com</desc><g id="Weather-Cloud-Snow-Thunder--Streamline-Ultimate.svg"><path fill="#fff" stroke-width="10.667" d="M186.66666666666666 170.66666666666666a53.33333333333333 53.33333333333333 0 0 0 32.959999999999994 -95.25333333333333 2.6666666666666665 2.6666666666666665 0 0 1 -0.96 -2.0266666666666664 74.66666666666666 74.66666666666666 0 0 0 -145.70666666666665 -21.333333333333332 2.453333333333333 2.453333333333333 0 0 1 -2.3466666666666667 1.2799999999999998A58.666666666666664 58.666666666666664 0 0 0 74.66666666666666 170.66666666666666ZM74.66666666666666 74.66666666666666a36.266666666666666 36.266666666666666 0 0 1 4.8 0 10.666666666666666 10.666666666666666 0 0 0 11.84 -8.533333333333333 53.33333333333333 53.33333333333333 0 0 1 106.02666666666666 8.533333333333333l0 4.586666666666666a10.666666666666666 10.666666666666666 0 0 0 5.333333333333333 10.666666666666666A32 32 0 0 1 186.66666666666666 149.33333333333331H74.66666666666666a37.33333333333333 37.33333333333333 0 0 1 0 -74.66666666666666Z"/><path fill="#fff" stroke-width="10.667" d="M74.66666666666666 245.33333333333331a10.666666666666666 10.666666666666666 0 1 0 21.333333333333332 0 10.666666666666666 10.666666666666666 0 1 0 -21.333333333333332 0"/><path fill="#fff" stroke-width="10.667" d="M53.33333333333333 224a10.666666666666666 10.666666666666666 0 1 0 21.333333333333332 0 10.666666666666666 10.666666666666666 0 1 0 -21.333333333333332 0"/><path fill="#fff" stroke-width="10.667" d="M160 245.33333333333331a10.666666666666666 10.666666666666666 0 1 0 21.333333333333332 0 10.666666666666666 10.666666666666666 0 1 0 -21.333333333333332 0"/><path fill="#fff" stroke-width="10.667" d="M181.33333333333331 224a10.666666666666666 10.666666666666666 0 1 0 21.333333333333332 0 10.666666666666666 10.666666666666666 0 1 0 -21.333333333333332 0"/><path fill="#fff" stroke-width="10.667" d="M74.66666666666666 202.66666666666666a10.666666666666666 10.666666666666666 0 1 0 21.333333333333332 0 10.666666666666666 10.666666666666666 0 1 0 -21.333333333333332 0"/><path fill="#fff" stroke-width="10.667" d="M160 202.66666666666666a10.666666666666666 10.666666666666666 0 1 0 21.333333333333332 0 10.666666666666666 10.666666666666666 0 1 0 -21.333333333333332 0"/><path fill="#fff" stroke-width="10.667" d="M143.57333333333332 235.62666666666667a8.106666666666666 8.106666666666666 0 0 0 3.093333333333333 -6.3999999999999995 7.786666666666666 7.786666666666666 0 0 0 -3.1999999999999997 -6.293333333333333l-10.133333333333333 -7.573333333333332a2.453333333333333 2.453333333333333 0 0 1 -1.0666666666666667 -2.1333333333333333 2.6666666666666665 2.6666666666666665 0 0 1 0.96 -2.1333333333333333l13.013333333333332 -10.133333333333333a8 8 0 0 0 -9.813333333333333 -12.586666666666666l-24 18.666666666666664a8.106666666666666 8.106666666666666 0 0 0 -3.093333333333333 6.3999999999999995 7.786666666666666 7.786666666666666 0 0 0 3.1999999999999997 6.293333333333333l10.133333333333333 7.573333333333332a2.453333333333333 2.453333333333333 0 0 1 1.0666666666666667 2.1333333333333333 2.6666666666666665 2.6666666666666665 0 0 1 -0.96 2.1333333333333333l-13.013333333333332 10.133333333333333a7.893333333333333 7.893333333333333 0 0 0 -1.3866666666666667 11.2 8 8 0 0 0 6.293333333333333 3.093333333333333 7.893333333333333 7.893333333333333 0 0 0 4.906666666666666 -1.7066666666666666Z"/></g></svg>