<svg xmlns="http://www.w3.org/2000/svg" id="Web-Hook--Streamline-Ultimate" width="256" height="256" fill="none" viewBox="0 0 256 256"><desc>Web Hook Streamline Icon: https://streamlinehq.com</desc><path fill="#fff" fill-rule="evenodd" stroke-width="10.667" d="M153.25866666666667 44.664959999999994c-14.4 -14.399146666666667 -36.508799999999994 -14.429759999999998 -50.940479999999994 -0.09173333333333333 -16.123626666666667 17.039573333333333 -13.49888 44.04277333333333 7.254079999999999 56.81354666666667 4.919466666666667 3.0276266666666665 6.535466666666666 9.421759999999999 3.6437333333333335 14.423359999999999l-36.48565333333333 63.1104c1.0253866666666664 2.462933333333333 1.5914666666666666 5.1648 1.5914666666666666 7.9989333333333335 0 11.504 -9.325759999999999 20.829866666666668 -20.829546666666666 20.829866666666668 -11.503786666666667 0 -20.829546666666666 -9.325866666666666 -20.829546666666666 -20.829866666666668s9.325759999999999 -20.829866666666668 20.829546666666666 -20.829866666666668c0.6613333333333333 0 1.3154133333333333 0.03093333333333333 1.96096 0.09173333333333333l30.53621333333333 -52.82026666666667c-24.948906666666666 -21.928426666666667 -25.80352 -59.68266666666666 -3.029866666666667 -83.59487999999999l0.18165333333333333 -0.18613333333333332c22.76064 -22.761024 58.44064 -22.761024 81.20223999999999 0 14.162133333333333 14.162346666666666 19.032533333333333 34.43221333333333 15.314133333333332 53.02368 -1.1551999999999998 5.77664 -6.7754666666666665 9.522986666666666 -12.551466666666666 8.367573333333333 -5.777066666666666 -1.1553066666666667 -9.5232 -6.774719999999999 -8.367999999999999 -12.551359999999999 2.48 -12.40096 -0.9141333333333332 -25.189653333333332 -9.479466666666667 -33.75498666666667Zm-46.3456 23.45056c0 -11.503893333333332 9.325866666666666 -20.829546666666666 20.8288 -20.829546666666666 11.504 0 20.829866666666668 9.325653333333332 20.829866666666668 20.829546666666666 0 4.131946666666666 -1.2031999999999998 7.98304 -3.2778666666666667 11.22176l32.428799999999995 54.61898666666666c20.022399999999998 -7.121066666666666 43.74293333333333 -2.9557333333333333 60.09493333333333 13.395199999999999 22.76053333333333 22.76053333333333 22.76053333333333 58.44053333333333 0 81.20213333333334 -22.7616 22.76053333333333 -58.4416 22.76053333333333 -81.20213333333334 0 -4.165333333333333 -4.165333333333333 -4.165333333333333 -10.919466666666667 0 -15.084799999999998 4.165333333333333 -4.166399999999999 10.919466666666667 -4.166399999999999 15.084799999999998 0 14.429866666666666 14.429866666666666 36.602666666666664 14.429866666666666 51.03253333333333 0 14.429866666666666 -14.429866666666666 14.429866666666666 -36.602666666666664 0 -51.03253333333333 -11.909333333333333 -11.908266666666666 -30.30933333333333 -13.556266666666666 -43.8688 -5.579733333333333 -5.063466666666667 2.978133333333333 -11.581866666666667 1.3024 -14.580266666666667 -3.7482666666666664l-38.1312 -64.22304c-10.761599999999998 -0.8122666666666666 -19.239466666666665 -9.800853333333333 -19.239466666666665 -20.769706666666664Zm7.528533333333333 129.47061333333332h64.6208c3.6362666666666663 6.086399999999999 10.290133333333333 10.1632 17.895466666666664 10.1632 11.504 0 20.829866666666668 -9.325866666666666 20.829866666666668 -20.829866666666668s-9.325866666666666 -20.829866666666668 -20.829866666666668 -20.829866666666668c-7.605333333333332 0 -14.258133333333333 4.075733333333333 -17.894399999999997 10.1632H104.75573333333332c-5.890986666666667 0 -10.666666666666666 4.7754666666666665 -10.666666666666666 10.666666666666666 0 19.934933333333333 -15.885973333333332 35.821866666666665 -35.821866666666665 35.821866666666665s-35.821866666666665 -15.886933333333333 -35.821866666666665 -35.821866666666665c0 -15.9392 11.333333333333332 -30.28053333333333 25.24672 -34.145066666666665 5.676053333333333 -1.5765333333333331 8.99936 -7.457066666666667 7.422613333333333 -13.1328 -1.5766399999999998 -5.6757333333333335 -7.4562133333333325 -8.999466666666667 -13.132373333333334 -7.422933333333333 -23.277546666666666 6.466133333333333 -40.870314666666665 29.315199999999997 -40.870314666666665 54.700799999999994 0 31.717333333333332 25.437248 57.155199999999994 57.15522133333333 57.155199999999994 28.069653333333335 0 51.21973333333333 -19.92213333333333 56.1744 -46.48853333333333Z" clip-rule="evenodd"/></svg>