<svg xmlns="http://www.w3.org/2000/svg" viewBox="0 0 256 256" id="Webcam-2--Streamline-Ultimate" height="256" width="256">
  <desc>
    Webcam 2 Streamline Icon: https://streamlinehq.com
  </desc>
  <g id="Webcam-2--Streamline-Ultimate.svg">
    <path d="M101.33333333333333 91.2a26.666666666666664 26.666666666666664 0 1 0 53.33333333333333 0 26.666666666666664 26.666666666666664 0 1 0 -53.33333333333333 0" fill="#ffffff" stroke-width="10.6667"></path>
    <path d="M172.37333333333333 192.74666666666667a5.653333333333333 5.653333333333333 0 0 0 -5.76 -0.7466666666666667 91.41333333333333 91.41333333333333 0 0 1 -77.22666666666666 0 5.4399999999999995 5.4399999999999995 0 0 0 -5.76 0.7466666666666667 68.58666666666666 68.58666666666666 0 0 0 -22.93333333333333 39.68A14.933333333333332 14.933333333333332 0 0 0 64 245.33333333333331a15.146666666666665 15.146666666666665 0 0 0 11.626666666666667 5.333333333333333h104.96a14.933333333333332 14.933333333333332 0 0 0 11.413333333333334 -5.973333333333334 14.613333333333333 14.613333333333333 0 0 0 3.1999999999999997 -12.266666666666666 68.58666666666666 68.58666666666666 0 0 0 -22.826666666666668 -39.68Z" fill="#ffffff" stroke-width="10.6667"></path>
    <path d="M128 187.2a90.66666666666666 90.66666666666666 0 1 0 -90.66666666666666 -90.66666666666666 90.77333333333333 90.77333333333333 0 0 0 90.66666666666666 90.66666666666666Zm48 -90.66666666666666a48 48 0 0 1 -96 0V47.78666666666667a2.453333333333333 2.453333333333333 0 0 1 0.8533333333333333 -1.92 68.90666666666667 68.90666666666667 0 0 1 94.29333333333332 0 2.453333333333333 2.453333333333333 0 0 1 0.8533333333333333 1.92Z" fill="#ffffff" stroke-width="10.6667"></path>
  </g>
</svg>