<svg xmlns="http://www.w3.org/2000/svg" viewBox="0 0 256 256" id="Wechat-Pay-Logo--Streamline-Ultimate" height="256" width="256">
  <desc>
    Wechat Pay Logo Streamline Icon: https://streamlinehq.com
  </desc>
  <g id="Wechat-Pay-Logo--Streamline-Ultimate.svg">
    <path d="M242.55999999999997 70.18666666666667a5.333333333333333 5.333333333333333 0 0 0 -7.1466666666666665 -0.96L94.82666666666667 166.93333333333334a7.359999999999999 7.359999999999999 0 0 1 -10.666666666666666 -2.453333333333333L47.04 99.94666666666666a7.466666666666666 7.466666666666666 0 0 1 1.1733333333333333 -8.959999999999999 7.1466666666666665 7.1466666666666665 0 0 1 8.853333333333332 -1.2799999999999998l41.06666666666666 22.826666666666668a5.4399999999999995 5.4399999999999995 0 0 0 5.119999999999999 0l114.88 -61.22666666666667a5.226666666666667 5.226666666666667 0 0 0 2.7733333333333334 -4.16 5.119999999999999 5.119999999999999 0 0 0 -1.8133333333333335 -4.4799999999999995A139.41333333333333 139.41333333333333 0 0 0 128 10.666666666666666C57.38666666666666 10.666666666666666 0 58.666666666666664 0 117.33333333333333a98.13333333333333 98.13333333333333 0 0 0 36.69333333333333 74.66666666666666 2.5599999999999996 2.5599999999999996 0 0 1 0.96 2.3466666666666667l-4.586666666666666 42.13333333333333a8.106666666666666 8.106666666666666 0 0 0 3.84 7.786666666666666 8.106666666666666 8.106666666666666 0 0 0 4.16 1.0666666666666667 7.68 7.68 0 0 0 4.4799999999999995 -1.3866666666666667c1.1733333333333333 -0.8533333333333333 27.52 -18.773333333333333 36.586666666666666 -25.386666666666663a2.5599999999999996 2.5599999999999996 0 0 1 2.1333333333333333 0 237.65333333333334 237.65333333333334 0 0 0 43.73333333333333 6.72c70.61333333333333 0 128 -48 128 -106.66666666666666a93.33333333333333 93.33333333333333 0 0 0 -13.44 -48.42666666666666Z" fill="#ffffff" stroke-width="10.6667"></path>
    <path d="M88.96 211.41333333333333Z" fill="#ffffff" stroke-width="10.6667"></path>
  </g>
</svg>