<svg xmlns="http://www.w3.org/2000/svg" fill="none" viewBox="0 0 256 256" id="Wifi-Alert-Attention--Streamline-Ultimate" height="256" width="256">
  <desc>
    Wifi Alert Attention Streamline Icon: https://streamlinehq.com
  </desc>
  <path fill="#ffffff" fill-rule="evenodd" d="M155.43466666666666 46.809599999999996c1.3077333333333332 -16.031999999999996 -11.3504 -29.763199999999998 -27.434666666666665 -29.763199999999998S99.2576 30.7776 100.56533333333334 46.809599999999996l8.750933333333332 107.2992c0.7925333333333333 9.730133333333333 8.9216 17.2224 18.683733333333333 17.2224s17.891199999999998 -7.492266666666667 18.6848 -17.2224l8.749866666666666 -107.2992ZM86.04266666666666 64.832c1.7770666666666666 5.493333333333333 -1.2351999999999999 11.386666666666665 -6.728533333333333 13.163733333333333 -21.84853333333333 7.066666666666666 -42.0864 18.867199999999997 -59.17333333333333 34.79253333333333 -4.222933333333333 3.9370666666666665 -10.8384 3.7034666666666665 -14.7744 -0.5194666666666666 -3.936 -4.222933333333333 -3.7034666666666665 -10.837333333333333 0.5194666666666666 -14.773333333333333 19.345066666666668 -18.03093333333333 42.2592 -31.39093333333333 66.99413333333334 -39.391999999999996 5.492266666666667 -1.7770666666666666 11.385599999999998 1.2351999999999999 13.162666666666667 6.728533333333333Zm83.91466666666666 0c1.7770666666666666 -5.493333333333333 7.670399999999999 -8.5056 13.163733333333333 -6.728533333333333 24.733866666666664 8.001066666666667 47.647999999999996 21.361066666666666 66.99306666666666 39.391999999999996 4.222933333333333 3.936 4.455466666666666 10.5504 0.5194666666666666 14.773333333333333 -3.936 4.222933333333333 -10.5504 4.456533333333333 -14.773333333333333 0.5194666666666666 -17.088 -15.925333333333334 -37.32586666666666 -27.725866666666665 -59.17333333333333 -34.7936 -5.493333333333333 -1.776 -8.506666666666666 -7.6693333333333324 -6.7296 -13.162666666666667ZM86.99733333333333 124.06719999999999c5.373866666666666 -2.1098666666666666 8.020266666666666 -8.177066666666665 5.9104 -13.550933333333333 -2.1098666666666666 -5.373866666666666 -8.177066666666665 -8.020266666666666 -13.550933333333333 -5.9104 -16.8832 6.629333333333333 -32.39893333333333 16.701866666666668 -45.474133333333334 29.776 -4.082133333333333 4.082133333333333 -4.082133333333333 10.701866666666668 0 14.782933333333332 4.082133333333333 4.0832 10.700800000000001 4.0832 14.782933333333332 0.0010666666666666667 11.021866666666668 -11.020799999999998 24.0992 -19.510399999999997 38.33173333333333 -25.098666666666666Zm89.64586666666665 -19.461333333333332c-5.373866666666666 -2.1098666666666666 -11.441066666666666 0.5365333333333333 -13.549866666666667 5.9104 -2.110933333333333 5.373866666666666 0.5354666666666666 11.441066666666666 5.9104 13.549866666666667 14.231466666666666 5.589333333333333 27.308799999999998 14.078933333333334 38.330666666666666 25.099733333333333 4.082133333333333 4.082133333333333 10.700800000000001 4.082133333333333 14.782933333333332 -0.0010666666666666667 4.082133333333333 -4.082133333333333 4.082133333333333 -10.700800000000001 -0.0010666666666666667 -14.782933333333332 -13.074133333333332 -13.074133333333332 -28.589866666666666 -23.146666666666665 -45.47306666666666 -29.776Zm-80.51626666666667 65.85493333333332c5.0624 -2.776533333333333 6.914133333333333 -9.1296 4.1376 -14.192s-9.130666666666666 -6.914133333333333 -14.192 -4.1376c-7.169066666666667 3.931733333333333 -13.8112 8.888533333333333 -19.697066666666665 14.7744 -4.0832 4.082133333333333 -4.0832 10.699733333333334 -0.0010666666666666667 14.782933333333332 4.082133333333333 4.082133333333333 10.700800000000001 4.0832 14.782933333333332 0.0010666666666666667 4.473599999999999 -4.473599999999999 9.521066666666666 -8.239999999999998 14.9696 -11.2288Zm73.73759999999999 -18.3296c-5.061333333333333 -2.776533333333333 -11.416533333333334 -0.9248 -14.192 4.1376 -2.776533333333333 5.0624 -0.9248 11.415466666666667 4.1365333333333325 14.192 5.4496 2.9888 10.497066666666665 6.755199999999999 14.970666666666666 11.2288 4.082133333333333 4.082133333333333 10.700800000000001 4.081066666666667 14.782933333333332 -0.0010666666666666667 4.082133333333333 -4.0832 4.082133333333333 -10.700800000000001 -0.0010666666666666667 -14.782933333333332 -5.884799999999999 -5.885866666666666 -12.526933333333334 -10.842666666666666 -19.697066666666665 -14.7744Zm-18.692266666666665 63.651199999999996c0 12.7968 -10.375466666666666 23.1712 -23.172266666666665 23.1712 -12.797866666666666 0 -23.172266666666665 -10.3744 -23.172266666666665 -23.1712 0 -12.797866666666666 10.3744 -23.172266666666665 23.172266666666665 -23.172266666666665 12.7968 0 23.172266666666665 10.3744 23.172266666666665 23.172266666666665Z" clip-rule="evenodd" stroke-width="10.6667"></path>
</svg>