<svg xmlns="http://www.w3.org/2000/svg" id="Wifi-Off--Streamline-Ultimate" width="256" height="256" viewBox="0 0 256 256"><desc>Wifi Off Streamline Icon: https://streamlinehq.com</desc><g id="Wifi-Off--Streamline-Ultimate.svg"><path fill="#fff" stroke-width="10.667" d="M248.95999999999998 78.50666666666666a158.72 158.72 0 0 0 -17.813333333333333 -16.106666666666666 10.666666666666666 10.666666666666666 0 1 0 -13.12 16.85333333333333 138.66666666666666 138.66666666666666 0 0 1 15.573333333333332 13.973333333333333 10.666666666666666 10.666666666666666 0 0 0 7.68 3.3066666666666666 10.666666666666666 10.666666666666666 0 0 0 7.359999999999999 -2.986666666666667 10.666666666666666 10.666666666666666 0 0 0 0.31999999999999995 -15.04Z"/><path fill="#fff" stroke-width="10.667" d="M98.98666666666665 213.33333333333331a21.333333333333332 21.333333333333332 0 1 0 42.666666666666664 0 21.333333333333332 21.333333333333332 0 1 0 -42.666666666666664 0"/><path fill="#fff" stroke-width="10.667" d="M195.62666666666667 100.26666666666667a10.666666666666666 10.666666666666666 0 1 0 -11.306666666666667 18.133333333333333 91.30666666666667 91.30666666666667 0 0 1 17.066666666666666 13.653333333333332 10.666666666666666 10.666666666666666 0 0 0 15.146666666666665 0 10.666666666666666 10.666666666666666 0 0 0 0 -15.146666666666665 124.58666666666666 124.58666666666666 0 0 0 -20.906666666666666 -16.64Z"/><path fill="#fff" stroke-width="10.667" d="M152 143.57333333333332a10.666666666666666 10.666666666666666 0 1 0 -5.333333333333333 20.586666666666666 54.29333333333333 54.29333333333333 0 0 1 24.64 13.973333333333333 10.666666666666666 10.666666666666666 0 0 0 7.466666666666666 3.1999999999999997 10.666666666666666 10.666666666666666 0 0 0 7.573333333333332 -18.24 74.02666666666667 74.02666666666667 0 0 0 -34.346666666666664 -19.52Z"/><path fill="#fff" stroke-width="10.667" d="M228.58666666666664 2.5599999999999996A10.666666666666666 10.666666666666666 0 0 0 213.33333333333331 3.733333333333333L189.33333333333331 32A160.85333333333332 160.85333333333332 0 0 0 7.1466666666666665 62.82666666666666a10.666666666666666 10.666666666666666 0 0 0 0 15.146666666666665 10.666666666666666 10.666666666666666 0 0 0 15.146666666666665 0 139.51999999999998 139.51999999999998 0 0 1 152.53333333333333 -29.439999999999998l-21.973333333333333 25.386666666666663A118.18666666666667 118.18666666666667 0 0 0 37.33333333333333 103.68a10.666666666666666 10.666666666666666 0 0 0 0 15.146666666666665 10.666666666666666 10.666666666666666 0 0 0 15.146666666666665 0 96 96 0 0 1 84.58666666666666 -26.560000000000002L10.666666666666666 238.4a10.666666666666666 10.666666666666666 0 0 0 1.1733333333333333 15.04 10.666666666666666 10.666666666666666 0 0 0 6.933333333333334 2.5599999999999996 10.666666666666666 10.666666666666666 0 0 0 8.106666666666666 -3.733333333333333l202.66666666666666 -234.66666666666666a10.666666666666666 10.666666666666666 0 0 0 -0.96 -15.04Z"/></g></svg>