<svg xmlns="http://www.w3.org/2000/svg" viewBox="0 0 256 256" id="Wifi-Laptop--Streamline-Ultimate" height="256" width="256">
  <desc>
    Wifi Laptop Streamline Icon: https://streamlinehq.com
  </desc>
  <g id="Wifi-Laptop--Streamline-Ultimate.svg">
    <path d="M218.66666666666666 154.66666666666666a10.666666666666666 10.666666666666666 0 0 0 10.666666666666666 -10.666666666666666v-85.33333333333333a32 32 0 0 0 -32 -32h-138.66666666666666a32 32 0 0 0 -32 32v85.33333333333333a10.666666666666666 10.666666666666666 0 0 0 21.333333333333332 0v-85.33333333333333a10.666666666666666 10.666666666666666 0 0 1 10.666666666666666 -10.666666666666666h138.66666666666666a10.666666666666666 10.666666666666666 0 0 1 10.666666666666666 10.666666666666666v85.33333333333333a10.666666666666666 10.666666666666666 0 0 0 10.666666666666666 10.666666666666666Z" fill="#ffffff" stroke-width="10.6667"></path>
    <path d="M250.66666666666666 170.66666666666666H170.66666666666666a5.333333333333333 5.333333333333333 0 0 0 -5.333333333333333 5.333333333333333c0 7.573333333333332 -16 16 -37.33333333333333 16s-37.33333333333333 -8.426666666666666 -37.33333333333333 -16A5.333333333333333 5.333333333333333 0 0 0 85.33333333333333 170.66666666666666H5.333333333333333a5.546666666666667 5.546666666666667 0 0 0 -4.373333333333333 2.2399999999999998 5.119999999999999 5.119999999999999 0 0 0 -0.6399999999999999 4.8 75.41333333333333 75.41333333333333 0 0 0 71.57333333333332 51.626666666666665h112.21333333333332A75.41333333333333 75.41333333333333 0 0 0 256 177.70666666666665a5.119999999999999 5.119999999999999 0 0 0 -0.6399999999999999 -4.8 5.546666666666667 5.546666666666667 0 0 0 -4.693333333333333 -2.2399999999999998Z" fill="#ffffff" stroke-width="10.6667"></path>
    <path d="M112.96 150.29333333333332A15.04 15.04 0 1 0 128 135.25333333333333a15.04 15.04 0 0 0 -15.04 15.04Z" fill="#ffffff" stroke-width="10.6667"></path>
    <path d="M170.66666666666666 96a10.666666666666666 10.666666666666666 0 0 0 6.72 -18.986666666666665 78.08 78.08 0 0 0 -98.77333333333333 0 10.666666666666666 10.666666666666666 0 0 0 13.44 16.64 56.85333333333333 56.85333333333333 0 0 1 71.89333333333333 0A10.666666666666666 10.666666666666666 0 0 0 170.66666666666666 96Z" fill="#ffffff" stroke-width="10.6667"></path>
    <path d="M161.17333333333332 124.05333333333334a10.666666666666666 10.666666666666666 0 0 0 -1.1733333333333333 -15.04 50.13333333333333 50.13333333333333 0 0 0 -63.14666666666666 0 10.666666666666666 10.666666666666666 0 0 0 -1.5999999999999999 15.04 10.666666666666666 10.666666666666666 0 0 0 8.32 3.9466666666666663 10.666666666666666 10.666666666666666 0 0 0 6.613333333333333 -2.3466666666666667 28.906666666666666 28.906666666666666 0 0 1 36.48 0 10.666666666666666 10.666666666666666 0 0 0 14.506666666666668 -1.5999999999999999Z" fill="#ffffff" stroke-width="10.6667"></path>
  </g>
</svg>