<svg xmlns="http://www.w3.org/2000/svg" viewBox="0 0 256 256" id="Wifi-Signal-4--Streamline-Ultimate" height="256" width="256">
  <desc>
    Wifi Signal 4 Streamline Icon: https://streamlinehq.com
  </desc>
  <g id="Wifi-Signal-4--Streamline-Ultimate.svg">
    <path d="M138.66666666666666 127.25333333333333a32 32 0 1 0 -22.186666666666667 0L75.30666666666666 241.70666666666665A10.666666666666666 10.666666666666666 0 0 0 85.33333333333333 256h85.33333333333333a10.666666666666666 10.666666666666666 0 0 0 10.026666666666666 -14.293333333333333Z" fill="#ffffff" stroke-width="10.6667"></path>
    <path d="M216.95999999999998 3.093333333333333a10.666666666666666 10.666666666666666 0 0 0 -15.146666666666665 0 10.666666666666666 10.666666666666666 0 0 0 0 15.04 112 112 0 0 1 0 158.39999999999998A10.666666666666666 10.666666666666666 0 0 0 216.95999999999998 192a133.54666666666665 133.54666666666665 0 0 0 0 -188.90666666666667Z" fill="#ffffff" stroke-width="10.6667"></path>
    <path d="M54.18666666666667 18.133333333333333a10.666666666666666 10.666666666666666 0 0 0 0 -15.04 10.666666666666666 10.666666666666666 0 0 0 -15.146666666666665 0 133.54666666666665 133.54666666666665 0 0 0 0 188.90666666666667 10.666666666666666 10.666666666666666 0 0 0 15.146666666666665 -15.146666666666665 112 112 0 0 1 0 -158.72Z" fill="#ffffff" stroke-width="10.6667"></path>
    <path d="M181.86666666666667 40.85333333333333a10.666666666666666 10.666666666666666 0 1 0 -15.04 15.04 58.666666666666664 58.666666666666664 0 0 1 0 82.98666666666666 10.666666666666666 10.666666666666666 0 1 0 15.04 15.04 79.78666666666666 79.78666666666666 0 0 0 0 -113.06666666666666Z" fill="#ffffff" stroke-width="10.6667"></path>
    <path d="M89.17333333333332 153.92a10.666666666666666 10.666666666666666 0 0 0 0 -15.04 58.666666666666664 58.666666666666664 0 0 1 0 -82.98666666666666A10.666666666666666 10.666666666666666 0 0 0 74.66666666666666 40.85333333333333a79.78666666666666 79.78666666666666 0 0 0 0 113.06666666666666 10.666666666666666 10.666666666666666 0 0 0 14.506666666666668 0Z" fill="#ffffff" stroke-width="10.6667"></path>
  </g>
</svg>