<svg xmlns="http://www.w3.org/2000/svg" viewBox="0 0 256 256" id="Wifi-Signal-2--Streamline-Ultimate" height="256" width="256">
  <desc>
    Wifi Signal 2 Streamline Icon: https://streamlinehq.com
  </desc>
  <g id="Wifi-Signal-2--Streamline-Ultimate.svg">
    <path d="M216.95999999999998 17.813333333333333a10.666666666666666 10.666666666666666 0 0 0 -15.146666666666665 0 10.666666666666666 10.666666666666666 0 0 0 0 15.04 111.89333333333333 111.89333333333333 0 0 1 0 158.39999999999998 10.666666666666666 10.666666666666666 0 0 0 0 15.04 10.666666666666666 10.666666666666666 0 0 0 7.573333333333332 3.1999999999999997 10.666666666666666 10.666666666666666 0 0 0 7.573333333333332 -3.1999999999999997 133.22666666666666 133.22666666666666 0 0 0 0 -188.48000000000002Z" fill="#ffffff" stroke-width="10.6667"></path>
    <path d="M186.77333333333334 47.89333333333333a10.666666666666666 10.666666666666666 0 1 0 -15.04 15.146666666666665 69.22666666666666 69.22666666666666 0 0 1 0 98.02666666666666 10.666666666666666 10.666666666666666 0 0 0 7.573333333333332 18.24 10.666666666666666 10.666666666666666 0 0 0 7.573333333333332 -3.093333333333333 90.77333333333333 90.77333333333333 0 0 0 0 -128Z" fill="#ffffff" stroke-width="10.6667"></path>
    <path d="M21.333333333333332 112.10666666666665a111.03999999999999 111.03999999999999 0 0 1 32.85333333333333 -79.25333333333333 10.666666666666666 10.666666666666666 0 0 0 0 -15.04 10.666666666666666 10.666666666666666 0 0 0 -15.146666666666665 0 133.22666666666666 133.22666666666666 0 0 0 0 188.48000000000002 10.666666666666666 10.666666666666666 0 0 0 7.573333333333332 3.1999999999999997 10.666666666666666 10.666666666666666 0 0 0 7.573333333333332 -3.1999999999999997 10.666666666666666 10.666666666666666 0 0 0 0 -15.04A110.93333333333334 110.93333333333334 0 0 1 21.333333333333332 112.10666666666665Z" fill="#ffffff" stroke-width="10.6667"></path>
    <path d="M84.26666666666667 47.89333333333333a10.666666666666666 10.666666666666666 0 0 0 -15.04 0 90.77333333333333 90.77333333333333 0 0 0 0 128A10.666666666666666 10.666666666666666 0 0 0 84.26666666666667 161.06666666666666a69.44 69.44 0 0 1 0 -98.02666666666666 10.666666666666666 10.666666666666666 0 0 0 0 -15.146666666666665Z" fill="#ffffff" stroke-width="10.6667"></path>
    <path d="M128 78.61333333333333a32 32 0 0 0 -10.666666666666666 62.08v89.91999999999999a10.666666666666666 10.666666666666666 0 1 0 21.333333333333332 0v-89.91999999999999a32 32 0 0 0 -10.666666666666666 -62.08Z" fill="#ffffff" stroke-width="10.6667"></path>
  </g>
</svg>