<svg xmlns="http://www.w3.org/2000/svg" viewBox="0 0 256 256" id="Wind-Velocity-Measure--Streamline-Ultimate" height="256" width="256">
  <desc>
    Wind Velocity Measure Streamline Icon: https://streamlinehq.com
  </desc>
  <path d="M242.45333333333332 62.50666666666667 90.56 2.2399999999999998a21.333333333333332 21.333333333333332 0 0 0 -19.946666666666665 2.2399999999999998 21.333333333333332 21.333333333333332 0 0 0 -9.28 17.493333333333332 2.5599999999999996 2.5599999999999996 0 0 1 -1.1733333333333333 2.1333333333333333l-34.773333333333326 21.333333333333332a2.453333333333333 2.453333333333333 0 0 1 -2.6666666666666665 0A2.6666666666666665 2.6666666666666665 0 0 1 21.333333333333332 43.626666666666665V10.666666666666666a10.666666666666666 10.666666666666666 0 0 0 -21.333333333333332 0v234.66666666666666a10.666666666666666 10.666666666666666 0 0 0 21.333333333333332 0V124.26666666666667a2.5599999999999996 2.5599999999999996 0 0 1 1.1733333333333333 -2.2399999999999998 2.453333333333333 2.453333333333333 0 0 1 2.5599999999999996 0l34.666666666666664 15.146666666666665a2.6666666666666665 2.6666666666666665 0 0 1 1.5999999999999999 2.453333333333333v3.626666666666667a21.333333333333332 21.333333333333332 0 0 0 29.226666666666667 19.84l152 -60.906666666666666a21.333333333333332 21.333333333333332 0 0 0 0 -39.68ZM109.33333333333333 36.586666666666666a2.453333333333333 2.453333333333333 0 0 1 1.1733333333333333 -2.1333333333333333 2.5599999999999996 2.5599999999999996 0 0 1 2.453333333333333 0l16 6.293333333333333a2.6666666666666665 2.6666666666666665 0 0 1 1.7066666666666666 2.5599999999999996v79.25333333333333a2.6666666666666665 2.6666666666666665 0 0 1 -1.7066666666666666 2.453333333333333l-16 6.3999999999999995a2.88 2.88 0 0 1 -2.453333333333333 0 2.7733333333333334 2.7733333333333334 0 0 1 -1.1733333333333333 -2.2399999999999998Zm72.96 24.959999999999997a2.6666666666666665 2.6666666666666665 0 0 1 1.7066666666666666 2.5599999999999996v36.8a2.5599999999999996 2.5599999999999996 0 0 1 -1.7066666666666666 2.453333333333333l-16 6.3999999999999995a2.88 2.88 0 0 1 -2.453333333333333 0 2.7733333333333334 2.7733333333333334 0 0 1 -1.1733333333333333 -2.2399999999999998V57.70666666666666a2.453333333333333 2.453333333333333 0 0 1 1.1733333333333333 -2.1333333333333333 2.5599999999999996 2.5599999999999996 0 0 1 2.453333333333333 0Zm-96 -49.28Zm-64 85.33333333333333A2.6666666666666665 2.6666666666666665 0 0 1 21.333333333333332 95.03999999999999V75.19999999999999a2.6666666666666665 2.6666666666666665 0 0 1 1.2799999999999998 -2.3466666666666667l34.666666666666664 -21.333333333333332a2.6666666666666665 2.6666666666666665 0 0 1 2.6666666666666665 0 2.7733333333333334 2.7733333333333334 0 0 1 1.3866666666666667 1.8133333333333335v57.06666666666666a2.5599999999999996 2.5599999999999996 0 0 1 -1.1733333333333333 2.2399999999999998 2.453333333333333 2.453333333333333 0 0 1 -2.5599999999999996 0Z" fill="#ffffff" stroke-width="10.6667"></path>
</svg>