<svg xmlns="http://www.w3.org/2000/svg" viewBox="0 0 256 256" id="Wine-Barrel-1--Streamline-Ultimate" height="256" width="256">
  <desc>
    Wine Barrel 1 Streamline Icon: https://streamlinehq.com
  </desc>
  <g id="Wine-Barrel-1--Streamline-Ultimate.svg">
    <path d="M220.79999999999998 138.66666666666666a5.333333333333333 5.333333333333333 0 0 0 -5.333333333333333 0 197.54666666666665 197.54666666666665 0 0 1 -87.46666666666665 18.666666666666664A197.54666666666665 197.54666666666665 0 0 1 40.53333333333333 138.66666666666666a5.333333333333333 5.333333333333333 0 0 0 -5.333333333333333 0 5.226666666666667 5.226666666666667 0 0 0 -2.5599999999999996 4.693333333333333c0 10.666666666666666 1.1733333333333333 20.05333333333333 2.1333333333333333 28.586666666666666a4.906666666666666 4.906666666666666 0 0 0 1.5999999999999999 3.1999999999999997c12.053333333333331 11.306666666666667 46.82666666666666 24.85333333333333 91.62666666666667 24.85333333333333s79.57333333333332 -13.546666666666667 91.62666666666667 -24.959999999999997a4.906666666666666 4.906666666666666 0 0 0 1.5999999999999999 -3.1999999999999997c0.96 -8.533333333333333 1.7066666666666666 -18.133333333333333 2.1333333333333333 -28.586666666666666a5.013333333333333 5.013333333333333 0 0 0 -2.5599999999999996 -4.586666666666666Z" fill="#ffffff" stroke-width="10.6667"></path>
    <path d="M128 141.33333333333331c49.493333333333325 0 86.82666666666667 -16.53333333333333 94.61333333333332 -28.373333333333335a2.6666666666666665 2.6666666666666665 0 0 0 0.5333333333333333 -1.7066666666666666c-0.5333333333333333 -9.813333333333333 -1.3866666666666667 -20.05333333333333 -2.88 -30.826666666666668a5.226666666666667 5.226666666666667 0 0 0 -3.3066666666666666 -4.266666666666667 5.4399999999999995 5.4399999999999995 0 0 0 -5.333333333333333 0.96C193.81333333333333 92.05333333333334 163.94666666666666 101.33333333333333 128 101.33333333333333s-65.81333333333333 -9.28 -83.62666666666667 -24.21333333333333a5.4399999999999995 5.4399999999999995 0 0 0 -5.333333333333333 -0.96 5.226666666666667 5.226666666666667 0 0 0 -3.3066666666666666 4.266666666666667c-1.4933333333333334 10.666666666666666 -2.3466666666666667 21.333333333333332 -2.88 30.826666666666668a3.52 3.52 0 0 0 0 1.7066666666666666c8.32 11.84 45.653333333333336 28.373333333333335 95.14666666666666 28.373333333333335Z" fill="#ffffff" stroke-width="10.6667"></path>
    <path d="M207.89333333333332 200.64A206.61333333333334 206.61333333333334 0 0 1 128 216a206.61333333333334 206.61333333333334 0 0 1 -79.89333333333333 -15.36 5.4399999999999995 5.4399999999999995 0 0 0 -7.359999999999999 6.186666666666666c1.1733333333333333 4.693333333333333 1.92 7.466666666666666 2.1333333333333333 8S55.46666666666667 256 128 256s84.69333333333333 -39.57333333333333 85.33333333333333 -41.06666666666666 0.96 -3.413333333333333 2.1333333333333333 -8.106666666666666a5.4399999999999995 5.4399999999999995 0 0 0 -7.359999999999999 -6.186666666666666Z" fill="#ffffff" stroke-width="10.6667"></path>
    <path d="M128 85.33333333333333c47.89333333333333 0 85.33333333333333 -18.773333333333333 85.33333333333333 -42.666666666666664s-37.44 -42.666666666666664 -85.33333333333333 -42.666666666666664 -85.33333333333333 18.773333333333333 -85.33333333333333 42.666666666666664 37.44 42.666666666666664 85.33333333333333 42.666666666666664ZM96 32c8.853333333333332 0 16 4.8 16 10.666666666666666S104.85333333333332 53.33333333333333 96 53.33333333333333s-16 -4.8 -16 -10.666666666666666S87.14666666666666 32 96 32Z" fill="#ffffff" stroke-width="10.6667"></path>
  </g>
</svg>