<svg xmlns="http://www.w3.org/2000/svg" id="Wordpress-Logo-1--Streamline-Ultimate" width="256" height="256" viewBox="0 0 256 256"><desc>Wordpress Logo 1 Streamline Icon: https://streamlinehq.com</desc><path fill="#fff" stroke-width="10.667" d="M128 0a128 128 0 1 0 128 128A128 128 0 0 0 128 0Zm69.75999999999999 92.90666666666667L192 109.65333333333332 183.25333333333333 138.66666666666666l-8.959999999999999 28.586666666666666s-0.5333333333333333 2.1333333333333333 -1.1733333333333333 4.266666666666667c-6.933333333333334 25.599999999999998 -7.786666666666666 28.906666666666666 -14.933333333333332 28.906666666666666a8 8 0 0 1 -7.68 -5.866666666666667L128 112.64 104.96 194.13333333333333a8 8 0 0 1 -15.36 0L60.693333333333335 90.98666666666665H53.33333333333333A8 8 0 1 1 53.33333333333333 74.66666666666666h30.826666666666668a8 8 0 0 1 0 16h-6.826666666666666l19.946666666666665 71.25333333333333L117.33333333333333 90.98666666666665h-6.933333333333334a8 8 0 0 1 0 -16h30.4a8 8 0 1 1 0 16H138.66666666666666l20.266666666666666 72.63999999999999 0 -1.4933333333333334 8.959999999999999 -28.69333333333333 13.653333333333332 -42.666666666666664 1.0666666666666667 -2.986666666666667a21.333333333333332 21.333333333333332 0 0 0 1.7066666666666666 -6.613333333333333 5.013333333333333 5.013333333333333 0 0 0 0 -1.4933333333333334 5.226666666666667 5.226666666666667 0 0 0 -6.826666666666666 -1.1733333333333333 8 8 0 1 1 -8.853333333333332 -13.333333333333332 21.333333333333332 21.333333333333332 0 0 1 29.333333333333332 6.293333333333333 17.813333333333333 17.813333333333333 0 0 1 2.6666666666666665 8.426666666666666 30.72 30.72 0 0 1 -2.88 13.013333333333332Z"/></svg>