<svg xmlns="http://www.w3.org/2000/svg" viewBox="0 0 256 256" id="Workflow-Exit-Door--Streamline-Ultimate" height="256" width="256">
  <desc>
    Workflow Exit Door Streamline Icon: https://streamlinehq.com
  </desc>
  <path d="M198.61333333333334 167.14666666666665V112a42.666666666666664 42.666666666666664 0 0 0 -42.666666666666664 -42.666666666666664H98.13333333333333a32 32 0 0 0 -19.52 -19.52V10.666666666666666a10.666666666666666 10.666666666666666 0 0 0 -21.333333333333332 0v39.14666666666666a32 32 0 0 0 0 60.373333333333335V245.33333333333331a10.666666666666666 10.666666666666666 0 0 0 21.333333333333332 0V110.18666666666667A32 32 0 0 0 98.13333333333333 90.66666666666666h57.81333333333333a21.333333333333332 21.333333333333332 0 0 1 21.333333333333332 21.333333333333332v55.14666666666666a32 32 0 1 0 21.333333333333332 0Z" fill="#ffffff" stroke-width="10.6667"></path>
</svg>