<svg xmlns="http://www.w3.org/2000/svg" id="Workflow-Teamwork-User-High-Five--Streamline-Ultimate" width="256" height="256" viewBox="0 0 256 256"><desc>Workflow Teamwork User High Five Streamline Icon: https://streamlinehq.com</desc><g id="Workflow-Teamwork-User-High-Five--Streamline-Ultimate.svg"><path fill="#fff" stroke-width="10.667" d="M18.346666666666664 106.13333333333333a26.133333333333333 26.133333333333333 0 1 0 52.266666666666666 0 26.133333333333333 26.133333333333333 0 1 0 -52.266666666666666 0"/><path fill="#fff" stroke-width="10.667" d="M185.38666666666666 106.13333333333333a26.133333333333333 26.133333333333333 0 1 0 52.266666666666666 0 26.133333333333333 26.133333333333333 0 1 0 -52.266666666666666 0"/><path fill="#fff" stroke-width="10.667" d="M122.66666666666666 48a10.666666666666666 10.666666666666666 0 0 1 -10.666666666666666 -10.666666666666666v-21.333333333333332a10.666666666666666 10.666666666666666 0 0 1 21.333333333333332 0v21.333333333333332a10.666666666666666 10.666666666666666 0 0 1 -10.666666666666666 10.666666666666666Z"/><path fill="#fff" stroke-width="10.667" d="M185.28 30.72a10.666666666666666 10.666666666666666 0 0 0 -15.04 0l-15.146666666666665 15.04a10.666666666666666 10.666666666666666 0 0 0 0 15.146666666666665 10.666666666666666 10.666666666666666 0 0 0 15.146666666666665 0l15.04 -15.146666666666665a10.666666666666666 10.666666666666666 0 0 0 0 -15.04Z"/><path fill="#fff" stroke-width="10.667" d="M82.66666666666666 64A10.666666666666666 10.666666666666666 0 0 1 74.66666666666666 60.906666666666666L60.05333333333333 45.76A10.666666666666666 10.666666666666666 0 0 1 74.66666666666666 30.72l15.573333333333332 15.04a10.666666666666666 10.666666666666666 0 0 1 0 15.146666666666665 10.666666666666666 10.666666666666666 0 0 1 -7.573333333333332 3.093333333333333Z"/><path fill="#fff" stroke-width="10.667" d="M174.9333333333333 250.66666666666666v-71.78666666666666a67.73333333333332 67.73333333333332 0 0 1 -57.6 -46.08l-8.959999999999999 -26.986666666666665A15.573333333333332 15.573333333333332 0 0 1 120.42666666666665 85.33333333333333a16.106666666666666 16.106666666666666 0 0 1 17.493333333333332 11.306666666666667l8.746666666666666 26.133333333333333A36.373333333333335 36.373333333333335 0 0 0 181.33333333333331 147.83999999999997h45.86666666666666a21.333333333333332 21.333333333333332 0 0 1 21.333333333333332 21.333333333333332v81.49333333333333Z"/><path fill="#fff" stroke-width="10.667" d="m101.75999999999999 137.81333333333333 0 -1.3866666666666667A36.373333333333335 36.373333333333335 0 0 1 74.66666666666666 147.83999999999997H28.906666666666666a21.333333333333332 21.333333333333332 0 0 0 -21.333333333333332 21.333333333333332v81.49333333333333H81.06666666666666v-71.78666666666666a67.94666666666666 67.94666666666666 0 0 0 35.519999999999996 -14.186666666666667 83.52 83.52 0 0 1 -14.826666666666664 -26.88Z"/></g></svg>