<svg xmlns="http://www.w3.org/2000/svg" fill="none" viewBox="0 0 256 256" id="Work-From-Home-Laptop-Meeting--Streamline-Ultimate" height="256" width="256">
  <desc>
    Work From Home Laptop Meeting Streamline Icon: https://streamlinehq.com
  </desc>
  <path fill="#ffffff" fill-rule="evenodd" d="M48 42.666666666666664a10.666666666666666 10.666666666666666 0 0 1 10.666666666666666 -10.666666666666666h138.66666666666666a10.666666666666666 10.666666666666666 0 0 1 10.666666666666666 10.666666666666666v106.66666666666666h-160V42.666666666666664Zm10.666666666666666 -32a32 32 0 0 0 -32 32v117.33333333333333L2.7733333333333334 223.712A16 16 0 0 0 17.749333333333333 245.33333333333331h220.49066666666664a16 16 0 0 0 14.986666666666666 -21.621333333333332L229.33333333333331 160V42.666666666666664a32 32 0 0 0 -32 -32h-138.66666666666666Zm45.33333333333333 197.33333333333331a8 8 0 0 1 8 -8h32a8 8 0 1 1 0 16h-32a8 8 0 0 1 -8 -8ZM154.66666666666666 74.66666666666666a26.666666666666664 26.666666666666664 0 1 1 -53.33333333333333 0 26.666666666666664 26.666666666666664 0 0 1 53.33333333333333 0Zm-66.08 50.90133333333333A63.72266666666667 63.72266666666667 0 0 1 128 112c14.869333333333332 0 28.544 5.066666666666666 39.41333333333333 13.568 3.616 2.8266666666666667 1.3546666666666667 8.106666666666666 -3.2319999999999998 8.106666666666666H91.81866666666667c-4.586666666666666 0 -6.848 -5.279999999999999 -3.2319999999999998 -8.106666666666666Z" clip-rule="evenodd" stroke-width="10.6667"></path>
</svg>