<svg xmlns="http://www.w3.org/2000/svg" id="Workflow-Teamwork-Fistbump-2--Streamline-Ultimate" width="256" height="256" viewBox="0 0 256 256"><desc>Workflow Teamwork Fistbump 2 Streamline Icon: https://streamlinehq.com</desc><g id="Workflow-Teamwork-Fistbump-2--Streamline-Ultimate.svg"><path fill="#fff" stroke-width="10.667" d="M219.0933333333333 28.16a8 8 0 0 0 -11.306666666666667 0l-17.173333333333332 17.173333333333332a8 8 0 0 0 0 11.306666666666667 8 8 0 0 0 11.306666666666667 0l17.173333333333332 -17.173333333333332a8 8 0 0 0 0 -11.306666666666667Z"/><path fill="#fff" stroke-width="10.667" d="M162.02666666666664 2.986666666666667a7.893333333333333 7.893333333333333 0 0 0 -8 8v22.826666666666668a8 8 0 0 0 16 0V10.666666666666666a8 8 0 0 0 -8 -7.68Z"/><path fill="#fff" stroke-width="10.667" d="M236.26666666666665 77.22666666666666H213.33333333333331a8 8 0 0 0 0 16h22.826666666666668a8 8 0 0 0 0 -16Z"/><path fill="#fff" stroke-width="10.667" d="m43.73333333333333 192 -17.066666666666666 17.28a7.893333333333333 7.893333333333333 0 0 0 0 11.306666666666667 7.786666666666666 7.786666666666666 0 0 0 5.333333333333333 2.3466666666666667 7.893333333333333 7.893333333333333 0 0 0 5.653333333333333 -2.3466666666666667l17.066666666666666 -17.173333333333332a7.893333333333333 7.893333333333333 0 0 0 0 -11.306666666666667A8 8 0 0 0 43.73333333333333 192Z"/><path fill="#fff" stroke-width="10.667" d="M83.73333333333332 206.9333333333333a8 8 0 0 0 -8 8v22.826666666666668a8 8 0 0 0 16 0v-22.826666666666668a8.106666666666666 8.106666666666666 0 0 0 -8 -8Z"/><path fill="#fff" stroke-width="10.667" d="M40.31999999999999 163.51999999999998a8.106666666666666 8.106666666666666 0 0 0 -8.32 -8H9.386666666666667a8 8 0 0 0 0 16H32a8.106666666666666 8.106666666666666 0 0 0 8.32 -8Z"/><path fill="#fff" stroke-width="10.667" d="m232.10666666666668 181.33333333333331 -6.079999999999999 -18.133333333333333a57.38666666666666 57.38666666666666 0 0 0 -14.4 -23.253333333333334L188.79999999999998 117.33333333333333a13.12 13.12 0 0 0 -18.56 0L128 149.33333333333331a13.12 13.12 0 0 0 0 18.56L151.57333333333332 192a5.226666666666667 5.226666666666667 0 1 1 -7.466666666666666 7.466666666666666l-13.546666666666667 -13.44a22.93333333333333 22.93333333333333 0 0 0 4.586666666666666 26.346666666666668l4.266666666666667 4.266666666666667a44.48 44.48 0 0 0 32 12.906666666666666h12.799999999999999l23.68 23.57333333333333L256 205.22666666666663Z"/><path fill="#fff" stroke-width="10.667" d="M128 91.52 104.42666666666665 67.41333333333333a5.333333333333333 5.333333333333333 0 0 1 0 -7.573333333333332 5.119999999999999 5.119999999999999 0 0 1 7.466666666666666 0l13.546666666666667 13.44a22.93333333333333 22.93333333333333 0 0 0 -4.586666666666666 -26.346666666666668l-4.266666666666667 -4.266666666666667a44.906666666666666 44.906666666666666 0 0 0 -32 -12.906666666666666h-12.799999999999999L48.10666666666666 6.293333333333333 0 54.18666666666667l23.893333333333334 23.57333333333333L29.973333333333333 96a58.879999999999995 58.879999999999995 0 0 0 14.4 23.253333333333334l23.146666666666665 23.146666666666665a13.12 13.12 0 0 0 18.56 0l42.13333333333333 -32A13.226666666666667 13.226666666666667 0 0 0 128 91.52Z"/></g></svg>