<svg xmlns="http://www.w3.org/2000/svg" fill="none" viewBox="0 0 256 256" id="Work-From-Home-User-Sofa--Streamline-Ultimate" height="256" width="256">
  <desc>
    Work From Home User Sofa Streamline Icon: https://streamlinehq.com
  </desc>
  <path fill="#ffffff" fill-rule="evenodd" d="M126.3648 69.75466666666667c24.455466666666666 0 39.74079999999999 -26.474666666666668 27.51253333333333 -47.653333333333336 -5.674666666666667 -9.829333333333333 -16.162133333333333 -15.8848 -27.51253333333333 -15.8848 -24.455466666666666 0 -39.739733333333334 26.474666666666668 -27.51253333333333 47.653333333333336 5.674666666666667 9.829333333333333 16.1632 15.8848 27.51253333333333 15.8848Zm-10.588799999999999 111.19039999999998H40.63146666666667l-28.27413333333333 44.42346666666666c-6.5664 10.314666666666666 0.4949333333333333 23.869866666666667 12.711466666666666 24.4 4.100266666666666 0.17706666666666665 8.109866666666665 -1.2384 11.189333333333332 -3.952 -4.0149333333333335 -8.935466666666667 -3.2629333333333332 -19.2928 2.002133333333333 -27.554133333333333l15.142399999999999 -22.916266666666665c2.9770666666666665 -4.1248 9.302399999999999 -3.480533333333333 11.386666666666665 1.1594666666666666 0.8896 1.9797333333333331 0.7498666666666667 4.269866666666666 -0.37333333333333335 6.126933333333334l-14.984533333333333 22.735999999999997c-6.2741333333333325 10.494933333333332 1.1658666666666666 23.846399999999996 13.392 24.033066666666663 5.358933333333333 0.08106666666666666 10.397866666666665 -2.5450666666666666 13.400533333333332 -6.984533333333333l32.38293333333333 -50.883199999999995h44.23253333333333c8.772266666666667 0.0010666666666666667 15.883733333333334 -7.110399999999999 15.883733333333334 -15.883733333333334v-52.94826666666666c0.008533333333333334 -32.60693333333333 -35.28533333333333 -52.99626666666666 -63.52746666666667 -36.69973333333333 -5.806933333333333 3.3503999999999996 -10.734933333333332 8.030933333333333 -14.379733333333334 13.657599999999999l0.05226666666666666 0.18986666666666666 7.677866666666667 28.147199999999998h17.2288c20.379733333333334 0 33.117866666666664 22.061866666666663 22.928 39.71093333333333 -4.7296 8.190933333333334 -13.469866666666665 13.236266666666666 -22.928 13.237333333333334Zm1.5562666666666667 26.473599999999998 -26.971733333333333 42.358399999999996h80.55466666666666c-1.4538666666666666 -3.3407999999999998 -2.2005333333333335 -6.946133333333333 -2.1919999999999997 -10.589866666666666v-36.01493333333333c-4.827733333333333 2.7914666666666665 -10.3072 4.256 -15.883733333333334 4.2463999999999995h-35.5072Zm67.27573333333333 -62.19199999999999c6.2112 -4.334933333333333 13.605333333333334 -6.653866666666667 21.178666666666665 -6.640000000000001h26.474666666666668v-5.294933333333333c0 -23.394133333333333 -18.965333333333334 -42.358399999999996 -42.358399999999996 -42.358399999999996h-14.719999999999999c5.961599999999999 9.139199999999999 9.425066666666666 20.045866666666665 9.425066666666666 31.76853333333333v22.5248ZM13.162666666666667 96.22826666666666c-6.987733333333333 -0.008533333333333334 -12.0672 6.6335999999999995 -10.229333333333333 13.374933333333333l12.241066666666665 44.86826666666667c0 5.847466666666667 4.741333333333333 10.588799999999999 10.589866666666666 10.588799999999999h90.01066666666665c8.152533333333333 0.0010666666666666667 13.246933333333333 -8.823466666666667 9.171199999999999 -15.883733333333334 -1.8912 -3.2767999999999997 -5.386666666666667 -5.294933333333333 -9.171199999999999 -5.294933333333333H86.41066666666667L75.5456 104.03306666666666c-1.2565333333333333 -4.609066666666666 -5.442133333333333 -7.805866666666667 -10.218666666666666 -7.8048H13.162666666666667Zm192.62399999999997 58.2432c-11.697066666666666 0 -21.178666666666665 9.4816 -21.178666666666665 21.178666666666665v63.53706666666666c0 5.848533333333333 4.741333333333333 10.589866666666666 10.588799999999999 10.589866666666666h47.653333333333336c5.848533333333333 0 10.589866666666666 -4.741333333333333 10.589866666666666 -10.589866666666666v-63.53706666666666c0 -11.697066666666666 -9.482666666666667 -21.178666666666665 -21.17973333333333 -21.178666666666665h-26.473599999999998Z" clip-rule="evenodd" stroke-width="10.6667"></path>
</svg>