<svg xmlns="http://www.w3.org/2000/svg" id="Work-From-Home-User-Pet-Cat--Streamline-Ultimate" width="256" height="256" fill="none" viewBox="0 0 256 256"><desc>Work From Home User Pet Cat Streamline Icon: https://streamlinehq.com</desc><path fill="#fff" fill-rule="evenodd" stroke-width="10.667" d="M160 32a32 32 0 1 1 -64 0 32 32 0 0 1 64 0ZM13.973333333333333 90.66666666666666a10.666666666666666 10.666666666666666 0 0 0 -10.303999999999998 13.471999999999998L16 149.33333333333331a10.666666666666666 10.666666666666666 0 0 0 10.666666666666666 10.666666666666666h85.33333333333333a10.666666666666666 10.666666666666666 0 1 0 0 -21.333333333333332H87.75466666666667L76.81066666666666 98.52799999999999a10.666666666666666 10.666666666666666 0 0 0 -10.293333333333333 -7.861333333333333H13.973333333333333Zm27.66933333333333 85.33333333333333H112a26.666666666666664 26.666666666666664 0 0 0 0 -53.33333333333333H99.97866666666665l-7.7333333333333325 -28.351999999999997 -0.05333333333333333 -0.19199999999999998A42.687999999999995 42.687999999999995 0 0 1 169.06666666666666 105.70666666666666a21.269333333333332 21.269333333333332 0 0 0 -14.4 20.18133333333333v28.928c0 10.378666666666666 3.498666666666667 20.479999999999997 9.472 28.746666666666663a15.936 15.936 0 0 1 -9.472 3.1039999999999996h-44.55466666666666l-32.61866666666666 51.25333333333333a16 16 0 1 1 -26.986666666666665 -17.173333333333332l15.104 -22.90133333333333a6.656 6.656 0 0 0 -11.114666666666666 -7.338666666666666L39.25333333333333 213.58933333333334a29.301333333333332 29.301333333333332 0 0 0 -2.016 27.754666666666665 16 16 0 0 1 -24.074666666666666 -20.59733333333333l28.479999999999997 -44.74666666666667Zm192.70399999999998 -21.183999999999997c0 8.746666666666666 -2.5493333333333332 16.234666666666666 -7.637333333333332 21.226666666666667l22.922666666666665 32.48c3.818666666666666 6.250666666666666 6.367999999999999 13.749333333333333 6.367999999999999 21.247999999999998v1.248C256 244.75733333333335 244.53333333333333 256 230.52799999999996 256H160a10.666666666666666 10.666666666666666 0 1 1 0 -21.333333333333332h20.85333333333333l0 -56.117333333333335c-6.367999999999999 -6.250666666666666 -10.186666666666666 -14.997333333333332 -10.186666666666666 -23.744v-28.906666666666666a5.333333333333333 5.333333333333333 0 0 1 7.68 -4.8l17.791999999999998 8.725333333333332h12.735999999999999l17.791999999999998 -8.725333333333332a5.333333333333333 5.333333333333333 0 0 1 7.68 4.8v28.906666666666666Z" clip-rule="evenodd"/></svg>