<svg xmlns="http://www.w3.org/2000/svg" fill="none" viewBox="0 0 256 256" id="World-Cross--Streamline-Ultimate" height="256" width="256">
  <desc>
    World Cross Streamline Icon: https://streamlinehq.com
  </desc>
  <path fill="#ffffff" fill-rule="evenodd" d="m217.03466666666668 150.53866666666664 -27.52 0a5.333333333333333 5.333333333333333 0 0 0 -5.333333333333333 5.333333333333333l0 28.298666666666666 -28.30933333333333 0a5.333333333333333 5.333333333333333 0 0 0 -5.333333333333333 5.333333333333333l0 27.530666666666665a5.333333333333333 5.333333333333333 0 0 0 5.333333333333333 5.333333333333333l28.298666666666666 0 0 28.298666666666666a5.333333333333333 5.333333333333333 0 0 0 5.333333333333333 5.333333333333333l27.530666666666665 0a5.333333333333333 5.333333333333333 0 0 0 5.333333333333333 -5.333333333333333v-28.298666666666666l28.298666666666666 0a5.333333333333333 5.333333333333333 0 0 0 5.333333333333333 -5.333333333333333v-27.52a5.333333333333333 5.333333333333333 0 0 0 -5.333333333333333 -5.333333333333333l-28.298666666666666 0v-28.30933333333333a5.333333333333333 5.333333333333333 0 0 0 -5.333333333333333 -5.333333333333333Z" clip-rule="evenodd" stroke-width="10.6667"></path>
  <path fill="#ffffff" fill-rule="evenodd" d="m217.03466666666668 150.53866666666664 -27.52 0a5.333333333333333 5.333333333333333 0 0 0 -5.333333333333333 5.333333333333333l0 28.298666666666666 -28.30933333333333 0a5.333333333333333 5.333333333333333 0 0 0 -5.333333333333333 5.333333333333333l0 27.530666666666665a5.333333333333333 5.333333333333333 0 0 0 5.333333333333333 5.333333333333333l28.298666666666666 0 0 28.298666666666666a5.333333333333333 5.333333333333333 0 0 0 5.333333333333333 5.333333333333333l27.530666666666665 0a5.333333333333333 5.333333333333333 0 0 0 5.333333333333333 -5.333333333333333v-28.298666666666666l28.298666666666666 0a5.333333333333333 5.333333333333333 0 0 0 5.333333333333333 -5.333333333333333v-27.530666666666665a5.333333333333333 5.333333333333333 0 0 0 -5.333333333333333 -5.333333333333333l-28.298666666666666 0v-28.298666666666666a5.333333333333333 5.333333333333333 0 0 0 -5.333333333333333 -5.333333333333333Z" clip-rule="evenodd" stroke-width="10.6667"></path>
  <path fill="#ffffff" fill-rule="evenodd" d="M111.09333333333332 3.445333333333333c-1.3439999999999999 0 -2.6773333333333333 0.021333333333333333 -4.010666666666666 0.07466666666666666a221.54666666666665 221.54666666666665 0 0 0 -33.28 99.57333333333334h74.592A221.54666666666665 221.54666666666665 0 0 0 115.09333333333332 3.52a100.224 100.224 0 0 0 -4.010666666666666 -0.07466666666666666ZM3.733333333333333 103.09333333333332C7.221333333333334 55.54133333333333 41.599999999999994 16.576 86.90133333333333 6.186666666666666a238.45333333333332 238.45333333333332 0 0 0 -29.162666666666667 96.91733333333333H3.733333333333333Zm83.16799999999999 112.928C41.599999999999994 205.62133333333333 7.221333333333334 166.64533333333333 3.733333333333333 119.09333333333332h54.005333333333326a238.45333333333332 238.45333333333332 0 0 0 29.162666666666667 96.928Zm24.191999999999997 2.7306666666666666c1.3439999999999999 0 2.6773333333333333 -0.032 4.010666666666666 -0.07466666666666666a221.53599999999997 221.53599999999997 0 0 0 33.28 -99.584H73.792a221.54666666666665 221.54666666666665 0 0 0 33.29066666666667 99.584c1.3333333333333333 0.042666666666666665 2.6666666666666665 0.07466666666666666 4.010666666666666 0.07466666666666666Zm105.088 -84.21333333333332c1.1199999999999999 -5.023999999999999 1.888 -10.175999999999998 2.272 -15.445333333333332h-54.005333333333326a241.088 241.088 0 0 1 -9.098666666666666 49.088l0.5226666666666666 -0.010666666666666666h12.298666666666666v-12.298666666666666a21.333333333333332 21.333333333333332 0 0 1 21.333333333333332 -21.333333333333332h26.67733333333333Zm-51.73333333333333 -31.44533333333333h54.005333333333326c-3.498666666666667 -47.552 -37.87733333333333 -86.51733333333334 -83.16799999999999 -96.91733333333333a238.45333333333332 238.45333333333332 0 0 1 29.162666666666667 96.91733333333333Z" clip-rule="evenodd" stroke-width="10.6667"></path>
</svg>