<svg xmlns="http://www.w3.org/2000/svg" fill="none" viewBox="0 0 256 256" id="Wrestling-Mask-1--Streamline-Ultimate" height="256" width="256">
  <desc>
    Wrestling Mask 1 Streamline Icon: https://streamlinehq.com
  </desc>
  <path fill="#ffffff" fill-rule="evenodd" d="M128 0a98.61333333333332 98.61333333333332 0 0 0 -96.72533333333332 79.06133333333332 143.456 143.456 0 0 1 44.42666666666666 -20.863999999999997 140.07466666666664 140.07466666666664 0 0 1 23.306666666666665 -4.373333333333333A104.07466666666666 104.07466666666666 0 0 1 108.34133333333332 53.33333333333333l0.15999999999999998 0 0.05333333333333333 0 0.021333333333333333 0c0.010666666666666666 0 0.021333333333333333 0 -0.19199999999999998 8l0.21333333333333332 -8a8 8 0 0 1 7.786666666666666 8c0 6.047999999999999 5.578666666666667 11.616 11.616 11.616s11.616 -5.568 11.616 -11.616a8 8 0 0 1 7.786666666666666 -8l0.21333333333333332 8L147.41333333333333 53.33333333333333l0.032 0 0.05333333333333333 0 0.15999999999999998 0a41.32266666666666 41.32266666666666 0 0 1 2.474666666666667 0.032c1.632 0.05333333333333333 3.968 0.17066666666666666 6.858666666666666 0.4586666666666666a139.73333333333332 139.73333333333332 0 0 1 23.306666666666665 4.373333333333333 143.46666666666664 143.46666666666664 0 0 1 44.42666666666666 20.863999999999997A98.61333333333332 98.61333333333332 0 0 0 128 0ZM29.333333333333332 157.33333333333331V100.98133333333334a126.29333333333332 126.29333333333332 0 0 1 50.61333333333333 -27.36 124.08533333333332 124.08533333333332 0 0 1 21.792 -3.9786666666666664c3.648 11.018666666666665 14.250666666666667 19.306666666666665 26.261333333333333 19.306666666666665 12.010666666666665 0 22.613333333333333 -8.288 26.261333333333333 -19.306666666666665l1.1733333333333333 0.10666666666666666a124.05333333333334 124.05333333333334 0 0 1 20.618666666666666 3.872 126.29333333333332 126.29333333333332 0 0 1 50.61333333333333 27.36v56.352000000000004c0 4.373333333333333 -0.288 8.693333333333332 -0.832 12.917333333333334 -7.925333333333333 -7.285333333333334 -18.442666666666668 -16.448 -24.106666666666662 -20.490666666666666a8 8 0 0 0 -9.301333333333332 13.013333333333332c6.688 4.778666666666666 22.613333333333333 19.018666666666665 29.28 25.578666666666667A98.61333333333332 98.61333333333332 0 0 1 128 256a98.624 98.624 0 0 1 -93.70666666666666 -67.648c6.688 -6.581333333333333 22.517333333333333 -20.799999999999997 29.194666666666667 -25.578666666666667a8 8 0 1 0 -9.301333333333332 -13.013333333333332c-5.664 4.053333333333333 -16.128 13.205333333333332 -24.02133333333333 20.479999999999997a99.904 99.904 0 0 1 -0.832 -12.906666666666666Zm82.66666666666666 -37.33333333333333c0 9.6 -8.533333333333333 18.133333333333333 -18.133333333333333 18.133333333333333 -17.066666666666666 0 -29.866666666666664 -13.866666666666667 -29.866666666666664 -29.866666666666664v-6.3999999999999995h29.866666666666664c10.666666666666666 0 18.133333333333333 8.533333333333333 18.133333333333333 18.133333333333333Zm50.13333333333333 18.133333333333333c-9.6 0 -18.133333333333333 -8.533333333333333 -18.133333333333333 -18.133333333333333 0 -9.6 8.533333333333333 -18.133333333333333 18.133333333333333 -18.133333333333333H192v6.3999999999999995c0 16 -12.799999999999999 29.866666666666664 -29.866666666666664 29.866666666666664ZM108.20266666666666 69.33333333333333Zm39.59466666666667 0Zm-72.96 151.1893333333333v-9.525333333333332c0 -27.06133333333333 24.16 -48.33066666666666 53.16266666666667 -48.33066666666666s53.16266666666667 21.269333333333332 53.16266666666667 48.33066666666666v9.525333333333332A81.86666666666666 81.86666666666666 0 0 1 128 240a81.86666666666666 81.86666666666666 0 0 1 -53.16266666666667 -19.477333333333334Zm34.495999999999995 -20.522666666666666A8 8 0 0 1 117.33333333333333 192h21.333333333333332a8 8 0 0 1 0 16h-21.333333333333332a8 8 0 0 1 -8 -8Z" clip-rule="evenodd" stroke-width="10.6667"></path>
</svg>