<svg xmlns="http://www.w3.org/2000/svg" viewBox="0 0 256 256" id="Yoga-Back-Stretch-1--Streamline-Ultimate" height="256" width="256">
  <desc>
    Yoga Back Stretch 1 Streamline Icon: https://streamlinehq.com
  </desc>
  <g id="Yoga-Back-Stretch-1--Streamline-Ultimate.svg">
    <path d="M30.826666666666668 32a26.666666666666664 26.666666666666664 0 1 0 53.33333333333333 0 26.666666666666664 26.666666666666664 0 1 0 -53.33333333333333 0" fill="#ffffff" stroke-width="10.6667"></path>
    <path d="M120.85333333333332 102.50666666666666a15.893333333333333 15.893333333333333 0 0 1 -2.6666666666666665 -11.946666666666667 16.106666666666666 16.106666666666666 0 0 1 6.72 -10.666666666666666l33.38666666666666 -23.146666666666665A21.333333333333332 21.333333333333332 0 0 1 170.66666666666666 53.33333333333333h31.04a16 16 0 0 0 0 -32h-34.56a42.666666666666664 42.666666666666664 0 0 0 -24.319999999999997 7.573333333333332L106.66666666666666 53.97333333333333a48.10666666666666 48.10666666666666 0 0 0 -12.159999999999998 66.77333333333333l11.52 16.53333333333333a5.119999999999999 5.119999999999999 0 0 0 7.253333333333334 1.3866666666666667l17.813333333333333 -11.733333333333334a5.546666666666667 5.546666666666667 0 0 0 2.2399999999999998 -3.52 5.013333333333333 5.013333333333333 0 0 0 -0.8533333333333333 -4.053333333333333Z" fill="#ffffff" stroke-width="10.6667"></path>
    <path d="m218.88 74.66666666666666 -8 -12.053333333333331a16 16 0 0 0 -26.666666666666664 17.706666666666663L192 92.47999999999999a4.906666666666666 4.906666666666666 0 0 1 1.0666666666666667 3.52 5.013333333333333 5.013333333333333 0 0 1 -2.2399999999999998 3.413333333333333l-71.25333333333333 47.57333333333333a5.546666666666667 5.546666666666667 0 0 0 -2.3466666666666667 3.413333333333333 5.973333333333334 5.973333333333334 0 0 0 0.8533333333333333 4.053333333333333l3.413333333333333 4.8v74.66666666666666a16 16 0 0 0 32 0V163.2l53.97333333333333 -35.946666666666665a38.82666666666667 38.82666666666667 0 0 0 15.04 -17.813333333333333A37.22666666666667 37.22666666666667 0 0 0 218.88 74.66666666666666Z" fill="#ffffff" stroke-width="10.6667"></path>
  </g>
</svg>