<svg xmlns="http://www.w3.org/2000/svg" id="Yoga-Bridge-Pose-2--Streamline-Ultimate" width="256" height="256" fill="none" viewBox="0 0 256 256"><desc>Yoga Bridge Pose 2 Streamline Icon: https://streamlinehq.com</desc><path fill="#fff" fill-rule="evenodd" stroke-width="10.667" d="M88.73813333333334 159.3589333333333h1.6533333333333333v0.0096h37.15733333333333c3.765333333333333 0 6.818133333333333 -3.0528 6.818133333333333 -6.818133333333333 0 -3.7642666666666664 -3.0528 -6.818133333333333 -6.818133333333333 -6.818133333333333h-22.08l-59.27466666666667 -37.651199999999996v67.36746666666666c0 21.8176 -10.907733333333333 27.27146666666667 -21.816533333333332 27.27146666666667S2.5599999999999996 197.26613333333333 2.5599999999999996 175.44853333333333v-89.184c0 -21.8176 21.8176 -43.6352 54.54293333333334 -27.27253333333333 15.898666666666665 7.949866666666666 19.631999999999998 10.106666666666666 35.26293333333333 19.133866666666666 5.818666666666666 3.3610666666666664 13.2864 7.6736 23.643733333333333 13.592533333333332 38.18026666666667 21.8176 59.99786666666666 46.91413333333333 59.99786666666666 74.1856 0 21.8176 -16.363733333333332 32.7264 -38.18026666666667 32.7264H88.73813333333334c-10.9088 0 -19.635199999999998 -8.727466666666666 -19.635199999999998 -19.636266666666664s8.7264 -19.635199999999998 19.635199999999998 -19.635199999999998Zm93.8176 0.26559999999999995c0 -19.574399999999997 15.867733333333334 -35.44213333333333 35.44213333333333 -35.44213333333333 19.574399999999997 0 35.44213333333333 15.867733333333334 35.44213333333333 35.44213333333333 0 19.574399999999997 -15.867733333333334 35.44213333333333 -35.44213333333333 35.44213333333333 -19.574399999999997 0 -35.44213333333333 -15.867733333333334 -35.44213333333333 -35.44213333333333Z" clip-rule="evenodd"/></svg>