<svg xmlns="http://www.w3.org/2000/svg" id="Yoga-Half-Moon-Pose-1--Streamline-Ultimate" width="256" height="256" fill="none" viewBox="0 0 256 256"><desc>Yoga Half Moon Pose 1 Streamline Icon: https://streamlinehq.com</desc><path fill="#fff" fill-rule="evenodd" stroke-width="10.667" d="m245.59679999999997 67.16266666666667 -66.29226666666666 67.10719999999999v42.01813333333333h25.672533333333334c13.613866666666667 0 24.958933333333334 11.345066666666668 22.690133333333335 26.0928 -2.2698666666666663 11.345066666666668 -12.479999999999999 19.285333333333334 -23.823999999999998 19.285333333333334h-35.882666666666665c-19.2864 0 -34.03413333333333 -14.747733333333333 -34.03413333333333 -34.03306666666666v-28.40533333333333H94.21952v50.8192c0 11.345066666666668 -10.210239999999999 21.5552 -22.68949333333333 19.2864 -10.210239999999999 -1.1349333333333331 -17.016959999999997 -10.210133333333333 -17.016959999999997 -20.420266666666667v-66.70186666666666c0 -24.958933333333334 20.42037333333333 -45.379306666666665 45.378773333333335 -45.379306666666665h53.319893333333326l61.75359999999999 -62.56885333333333c9.076266666666665 -9.075733333333332 26.093866666666663 -7.941226666666666 34.035199999999996 3.4034133333333334 6.8064 9.07584 4.537599999999999 21.554986666666665 -3.4037333333333333 29.496213333333333ZM8.113930666666667 70.74538666666666c0 -19.140053333333334 15.516149333333333 -34.656213333333326 34.656202666666665 -34.656213333333326 19.140159999999998 0 34.656213333333326 15.51616 34.656213333333326 34.656213333333326 0 19.140159999999998 -15.516053333333334 34.656213333333326 -34.656213333333326 34.656213333333326 -19.140053333333334 0 -34.656202666666665 -15.516053333333334 -34.656202666666665 -34.656213333333326Z" clip-rule="evenodd"/></svg>