<svg xmlns="http://www.w3.org/2000/svg" id="Zip-File-Compress--Streamline-Ultimate" width="256" height="256" viewBox="0 0 256 256"><desc>Zip File Compress Streamline Icon: https://streamlinehq.com</desc><g id="Zip-File-Compress--Streamline-Ultimate.svg"><path fill="#fff" stroke-width="10.667" d="M186.88 122.66666666666666h-35.093333333333334a10.666666666666666 10.666666666666666 0 0 0 0 21.333333333333332h35.093333333333334a10.666666666666666 10.666666666666666 0 0 0 0 -21.333333333333332Z"/><path fill="#fff" stroke-width="10.667" d="M186.88 85.33333333333333h-35.093333333333334a10.666666666666666 10.666666666666666 0 0 0 0 21.333333333333332h35.093333333333334a10.666666666666666 10.666666666666666 0 0 0 0 -21.333333333333332Z"/><path fill="#fff" stroke-width="10.667" d="M32 90.66666666666666h37.33333333333333a10.666666666666666 10.666666666666666 0 0 0 10.666666666666666 -10.666666666666666 10.666666666666666 10.666666666666666 0 0 1 10.666666666666666 -10.666666666666666H202.66666666666666a10.666666666666666 10.666666666666666 0 0 0 10.666666666666666 -10.666666666666666v-10.666666666666666a10.666666666666666 10.666666666666666 0 0 0 -10.666666666666666 -10.666666666666666H77.33333333333333A2.6666666666666665 2.6666666666666665 0 0 1 74.66666666666666 34.666666666666664v-10.666666666666666A2.6666666666666665 2.6666666666666665 0 0 1 77.33333333333333 21.333333333333332H85.33333333333333a10.666666666666666 10.666666666666666 0 0 0 0 -21.333333333333332H42.666666666666664a10.666666666666666 10.666666666666666 0 0 0 0 21.333333333333332h8a2.6666666666666665 2.6666666666666665 0 0 1 2.6666666666666665 2.6666666666666665v10.666666666666666a2.6666666666666665 2.6666666666666665 0 0 1 -2.6666666666666665 2.6666666666666665H32a10.666666666666666 10.666666666666666 0 0 0 -10.666666666666666 10.666666666666666v32a10.666666666666666 10.666666666666666 0 0 0 10.666666666666666 10.666666666666666Z"/><path fill="#fff" stroke-width="10.667" d="M96 213.33333333333331a10.666666666666666 10.666666666666666 0 0 0 -10.666666666666666 -10.666666666666666h-8a2.6666666666666665 2.6666666666666665 0 0 1 -2.6666666666666665 -2.6666666666666665v-10.666666666666666a2.6666666666666665 2.6666666666666665 0 0 1 2.6666666666666665 -2.6666666666666665H202.66666666666666a10.666666666666666 10.666666666666666 0 0 0 10.666666666666666 -10.666666666666666v-10.666666666666666a10.666666666666666 10.666666666666666 0 0 0 -10.666666666666666 -10.666666666666666H90.66666666666666a10.666666666666666 10.666666666666666 0 0 1 -10.666666666666666 -10.666666666666666 10.666666666666666 10.666666666666666 0 0 0 -10.666666666666666 -10.666666666666666H32a10.666666666666666 10.666666666666666 0 0 0 -10.666666666666666 10.666666666666666v32a10.666666666666666 10.666666666666666 0 0 0 10.666666666666666 10.666666666666666h18.666666666666664a2.6666666666666665 2.6666666666666665 0 0 1 2.6666666666666665 2.6666666666666665v10.666666666666666a2.6666666666666665 2.6666666666666665 0 0 1 -2.6666666666666665 2.6666666666666665H42.666666666666664a10.666666666666666 10.666666666666666 0 0 0 0 21.333333333333332h42.666666666666664a10.666666666666666 10.666666666666666 0 0 0 10.666666666666666 -10.666666666666666Z"/><path fill="#fff" stroke-width="10.667" d="m230.61333333333334 228.37333333333333 -36.586666666666666 -9.173333333333332a2.7733333333333334 2.7733333333333334 0 0 1 -2.0266666666666664 -2.6666666666666665v-8.533333333333333a5.333333333333333 5.333333333333333 0 0 0 -5.333333333333333 -5.333333333333333h-32a5.333333333333333 5.333333333333333 0 0 0 -5.333333333333333 5.333333333333333v8.533333333333333a2.7733333333333334 2.7733333333333334 0 0 1 -2.0266666666666664 2.6666666666666665l-36.586666666666666 9.173333333333332a5.226666666666667 5.226666666666667 0 0 0 -4.053333333333333 5.119999999999999v17.173333333333332a5.333333333333333 5.333333333333333 0 0 0 5.333333333333333 5.333333333333333h117.33333333333333a5.333333333333333 5.333333333333333 0 0 0 5.333333333333333 -5.333333333333333v-17.173333333333332a5.226666666666667 5.226666666666667 0 0 0 -4.053333333333333 -5.119999999999999Z"/></g></svg>