<svg xmlns="http://www.w3.org/2000/svg" id="Zip-File-Check--Streamline-Ultimate" width="256" height="256" viewBox="0 0 256 256"><desc>Zip File Check Streamline Icon: https://streamlinehq.com</desc><g id="Zip-File-Check--Streamline-Ultimate.svg"><path fill="#fff" stroke-width="10.667" d="M101.33333333333333 186.66666666666666c0 -46.39999999999999 29.759999999999998 -83.94666666666666 88 -85.33333333333333a2.6666666666666665 2.6666666666666665 0 0 0 2.6666666666666665 -2.3466666666666667V55.57333333333333a16 16 0 0 0 -4.693333333333333 -11.306666666666667L147.73333333333332 4.693333333333333A16 16 0 0 0 136.42666666666665 0H16A16 16 0 0 0 0 16v202.66666666666666A16 16 0 0 0 16 234.66666666666666h95.35999999999999a2.6666666666666665 2.6666666666666665 0 0 0 2.2399999999999998 -4.053333333333333A84.26666666666667 84.26666666666667 0 0 1 101.33333333333333 186.66666666666666Zm-37.33333333333333 10.666666666666666a10.666666666666666 10.666666666666666 0 1 1 10.666666666666666 -10.666666666666666 10.666666666666666 10.666666666666666 0 0 1 -10.666666666666666 10.666666666666666ZM64 160a10.666666666666666 10.666666666666666 0 1 1 10.666666666666666 -10.666666666666666 10.666666666666666 10.666666666666666 0 0 1 -10.666666666666666 10.666666666666666Zm0 -37.33333333333333a10.666666666666666 10.666666666666666 0 1 1 10.666666666666666 -10.666666666666666 10.666666666666666 10.666666666666666 0 0 1 -10.666666666666666 10.666666666666666Zm16.106666666666666 -52.266666666666666A21.333333333333332 21.333333333333332 0 0 1 64 77.54666666666665a21.333333333333332 21.333333333333332 0 0 1 -16.106666666666666 -7.1466666666666665A21.333333333333332 21.333333333333332 0 0 1 42.666666666666664 53.86666666666666l5.226666666666667 -33.38666666666666A5.226666666666667 5.226666666666667 0 0 1 53.33333333333333 16h21.333333333333332a5.4399999999999995 5.4399999999999995 0 0 1 5.333333333333333 4.4799999999999995L85.33333333333333 53.33333333333333a21.333333333333332 21.333333333333332 0 0 1 -5.226666666666667 17.066666666666666Z"/><path fill="#fff" stroke-width="10.667" d="M186.66666666666666 117.33333333333333a69.33333333333333 69.33333333333333 0 1 0 69.33333333333333 69.33333333333333 69.44 69.44 0 0 0 -69.33333333333333 -69.33333333333333Zm34.879999999999995 55.57333333333333 -30.93333333333333 41.28a16.21333333333333 16.21333333333333 0 0 1 -12.799999999999999 6.3999999999999995 16 16 0 0 1 -11.306666666666667 -4.693333333333333l-16 -16a8 8 0 0 1 11.306666666666667 -11.306666666666667l13.866666666666667 14.08a2.5599999999999996 2.5599999999999996 0 0 0 3.9466666666666663 0l29.119999999999997 -38.93333333333333a8 8 0 1 1 12.799999999999999 9.706666666666667Z"/></g></svg>