<svg xmlns="http://www.w3.org/2000/svg" viewBox="0 0 256 256" id="Zoom-In-Page--Streamline-Ultimate" height="256" width="256">
  <desc>
    Zoom In Page Streamline Icon: https://streamlinehq.com
  </desc>
  <g id="Zoom-In-Page--Streamline-Ultimate.svg">
    <path d="M215.89333333333332 200.8533333333333a69.54666666666665 69.54666666666665 0 1 0 -15.04 15.04l36.906666666666666 37.013333333333335a10.666666666666666 10.666666666666666 0 0 0 15.146666666666665 0 10.666666666666666 10.666666666666666 0 0 0 0 -15.146666666666665ZM160 112a48 48 0 1 1 -48 48 48.10666666666666 48.10666666666666 0 0 1 48 -48Z" fill="#ffffff" stroke-width="10.6667"></path>
    <path d="M138.66666666666666 168h13.333333333333332V181.33333333333331a8 8 0 0 0 16 0v-13.333333333333332H181.33333333333331a8 8 0 0 0 0 -16h-13.333333333333332V138.66666666666666a8 8 0 0 0 -16 0v13.333333333333332H138.66666666666666a8 8 0 0 0 0 16Z" fill="#ffffff" stroke-width="10.6667"></path>
    <path d="M41.92 0H21.333333333333332a21.333333333333332 21.333333333333332 0 0 0 -21.333333333333332 21.333333333333332v21.333333333333332a10.666666666666666 10.666666666666666 0 0 0 21.333333333333332 0l0 -21.333333333333332h21.333333333333332a10.666666666666666 10.666666666666666 0 0 0 0 -21.333333333333332Z" fill="#ffffff" stroke-width="10.6667"></path>
    <path d="M41.92 234.66666666666666 21.333333333333332 234.66666666666666v-21.333333333333332a10.666666666666666 10.666666666666666 0 0 0 -21.333333333333332 0v21.333333333333332a21.333333333333332 21.333333333333332 0 0 0 21.333333333333332 21.333333333333332h21.333333333333332a10.666666666666666 10.666666666666666 0 0 0 0 -21.333333333333332Z" fill="#ffffff" stroke-width="10.6667"></path>
    <path d="M10.666666666666666 122.98666666666665a10.666666666666666 10.666666666666666 0 0 0 10.666666666666666 -10.666666666666666V81.06666666666666a10.666666666666666 10.666666666666666 0 0 0 -21.333333333333332 0v31.253333333333334a10.666666666666666 10.666666666666666 0 0 0 10.666666666666666 10.666666666666666Z" fill="#ffffff" stroke-width="10.6667"></path>
    <path d="M10.666666666666666 185.59999999999997a10.666666666666666 10.666666666666666 0 0 0 10.666666666666666 -10.666666666666666v-31.253333333333334a10.666666666666666 10.666666666666666 0 0 0 -21.333333333333332 0v31.253333333333334a10.666666666666666 10.666666666666666 0 0 0 10.666666666666666 10.666666666666666Z" fill="#ffffff" stroke-width="10.6667"></path>
    <path d="M245.33333333333331 70.39999999999999a10.666666666666666 10.666666666666666 0 0 0 -10.666666666666666 10.666666666666666v31.253333333333334a10.666666666666666 10.666666666666666 0 1 0 21.333333333333332 0V81.06666666666666a10.666666666666666 10.666666666666666 0 0 0 -10.666666666666666 -10.666666666666666Z" fill="#ffffff" stroke-width="10.6667"></path>
    <path d="M81.06666666666666 21.333333333333332H106.66666666666666a10.666666666666666 10.666666666666666 0 0 0 0 -21.333333333333332H81.06666666666666a10.666666666666666 10.666666666666666 0 0 0 0 21.333333333333332Z" fill="#ffffff" stroke-width="10.6667"></path>
    <path d="M149.33333333333331 21.333333333333332h25.599999999999998a10.666666666666666 10.666666666666666 0 0 0 0 -21.333333333333332H149.33333333333331a10.666666666666666 10.666666666666666 0 0 0 0 21.333333333333332Z" fill="#ffffff" stroke-width="10.6667"></path>
    <path d="M214.07999999999998 21.333333333333332 234.66666666666666 21.333333333333332v21.333333333333332a10.666666666666666 10.666666666666666 0 0 0 21.333333333333332 0V21.333333333333332a21.333333333333332 21.333333333333332 0 0 0 -21.333333333333332 -21.333333333333332h-21.333333333333332a10.666666666666666 10.666666666666666 0 0 0 0 21.333333333333332Z" fill="#ffffff" stroke-width="10.6667"></path>
    <path d="M112.32 234.66666666666666H81.06666666666666a10.666666666666666 10.666666666666666 0 0 0 0 21.333333333333332h31.253333333333334a10.666666666666666 10.666666666666666 0 1 0 0 -21.333333333333332Z" fill="#ffffff" stroke-width="10.6667"></path>
  </g>
</svg>